<svg xmlns="http://www.w3.org/2000/svg" width="658" height="246" viewBox="0 0 658 246"><defs><style>@import url(https://fonts.googleapis.com/css?family=Open+Sans:bold,italic,bolditalic%7CPT+Mono);@font-face{font-family:&apos;PT Mono&apos;;font-weight:700;font-style:normal;src:local(&apos;PT MonoBold&apos;),url(/font/PTMonoBold.woff2) format(&apos;woff2&apos;),url(/font/PTMonoBold.woff) format(&apos;woff&apos;),url(/font/PTMonoBold.ttf) format(&apos;truetype&apos;)}</style></defs><g id="network" fill="none" fill-rule="evenodd" stroke="none" stroke-width="1"><g id="url-object.svg"><path id="Line-Copy" fill="#EE6B47" stroke="#EE6B47" stroke-dasharray="1" stroke-linecap="square" stroke-width="2" d="M2 38v180"/><path id="Line-Copy-2" fill="#EE6B47" stroke="#EE6B47" stroke-dasharray="1" stroke-linecap="square" stroke-width="2" d="M69 132v86"/><path id="Line-Copy-6" fill="#EE6B47" stroke="#EE6B47" stroke-dasharray="1" stroke-linecap="square" stroke-width="2" d="M96 112v106"/><path id="Line-Copy-10" fill="#EE6B47" stroke="#EE6B47" stroke-dasharray="1" stroke-linecap="square" stroke-width="2" d="M3 38h649"/><path id="Line-Copy-11" fill="#EE6B47" stroke="#EE6B47" stroke-dasharray="1" stroke-linecap="square" stroke-width="2" d="M3 74h264"/><path id="Line-Copy-7" fill="#EE6B47" stroke="#EE6B47" stroke-dasharray="1" stroke-linecap="square" stroke-width="2" d="M214 132v86"/><path id="Line-Copy-8" fill="#EE6B47" stroke="#EE6B47" stroke-dasharray="1" stroke-linecap="square" stroke-width="2" d="M203 132v86"/><path id="Line-Copy-9" fill="#EE6B47" stroke="#EE6B47" stroke-dasharray="1" stroke-linecap="square" stroke-width="2" d="M268 38v180"/><path id="Line-Copy-13" fill="#EE6B47" stroke="#EE6B47" stroke-dasharray="1" stroke-linecap="square" stroke-width="2" d="M399 132v86"/><path id="Line-Copy-14" fill="#EE6B47" stroke="#EE6B47" stroke-dasharray="1" stroke-linecap="square" stroke-width="2" d="M582 132v86"/><path id="Line-Copy-15" fill="#EE6B47" stroke="#EE6B47" stroke-dasharray="1" stroke-linecap="square" stroke-width="2" d="M652 39v179"/><text id="href" fill="#8A704D" font-family="PTMono-Regular, PT Mono" font-size="16" font-weight="normal"><tspan x="297" y="33">href</tspan></text><text id="origin" fill="#8A704D" font-family="PTMono-Regular, PT Mono" font-size="16" font-weight="normal"><tspan x="103" y="68">origin</tspan></text><path id="Line-Copy-12" fill="#EE6B47" stroke="#EE6B47" stroke-dasharray="1" stroke-linecap="square" stroke-width="2" d="M96 112h170"/><text id="host" fill="#8A704D" font-family="PTMono-Regular, PT Mono" font-size="16" font-weight="normal"><tspan x="153" y="107">host</tspan></text><text id="proto-col" fill="#8A704D" font-family="PTMono-Regular, PT Mono" font-size="16" font-weight="normal"><tspan x="10" y="152">proto</tspan> <tspan x="19.6" y="170">col</tspan></text><path id="http://site.com:8080/path/page?p1=v1&amp;p2=v2…#hash" fill="#000" fill-rule="nonzero" d="M4.372 196.4H7.18v4.716h.09a4.03 4.03 0 011.296-.981c.492-.234 1.104-.351 1.836-.351.576 0 1.077.06 1.503.18.426.12.774.33 1.044.63s.471.711.603 1.233c.132.522.198 1.185.198 1.989V209h-1.404v-4.914c0-.516-.03-.966-.09-1.35-.06-.384-.177-.705-.351-.963a1.626 1.626 0 00-.711-.585c-.3-.132-.684-.198-1.152-.198a2.76 2.76 0 00-.954.171c-.312.114-.597.27-.855.468s-.48.438-.666.72a2.693 2.693 0 00-.387.927V209H5.794v-11.394H4.372V196.4zm13.686 3.6H20.2v-1.782l1.404-.396V200h4.806v1.206h-4.806v4.248c0 .876.213 1.524.639 1.944.426.42 1.035.63 1.827.63.54 0 1.011-.102 1.413-.306a7.614 7.614 0 001.089-.666l.468 1.062c-.42.336-.921.606-1.503.81a5.377 5.377 0 01-1.791.306c-.48 0-.933-.069-1.359-.207a3.12 3.12 0 01-1.125-.639 3.06 3.06 0 01-.774-1.107c-.192-.45-.288-.987-.288-1.611v-4.464h-2.142V200zm13.2 0H33.4v-1.782l1.404-.396V200h4.806v1.206h-4.806v4.248c0 .876.213 1.524.639 1.944.426.42 1.035.63 1.827.63.54 0 1.011-.102 1.413-.306a7.614 7.614 0 001.089-.666l.468 1.062c-.42.336-.921.606-1.503.81a5.377 5.377 0 01-1.791.306c-.48 0-.933-.069-1.359-.207a3.12 3.12 0 01-1.125-.639 3.06 3.06 0 01-.774-1.107c-.192-.45-.288-.987-.288-1.611v-4.464h-2.142V200zm14.37 3.15a18.063 18.063 0 00-.081-1.512 5.988 5.988 0 00-.063-.468h-1.206V200h2.394l.18 1.26h.09a4.06 4.06 0 011.233-1.053c.498-.282 1.107-.423 1.827-.423 1.284 0 2.25.354 2.898 1.062.648.708.972 1.866.972 3.474 0 .756-.111 1.437-.333 2.043a4.295 4.295 0 01-.945 1.539c-.408.42-.9.744-1.476.972a5.141 5.141 0 01-1.908.342c-.252 0-.477-.009-.675-.027a5.93 5.93 0 01-.54-.072 4.255 4.255 0 01-.477-.117 6.561 6.561 0 01-.504-.18v3.78h-1.386v-9.45zm4.14-2.052c-.36 0-.699.066-1.017.198a3.034 3.034 0 00-1.449 1.242 2.118 2.118 0 00-.288.792v4.104a3.3 3.3 0 00.891.423c.33.102.765.153 1.305.153.96 0 1.728-.315 2.304-.945.576-.63.864-1.551.864-2.763 0-1.02-.201-1.809-.603-2.367-.402-.558-1.071-.837-2.007-.837zm11.526-.162c0-.384.108-.681.324-.891.216-.21.504-.315.864-.315.384 0 .684.105.9.315.216.21.324.507.324.891 0 .348-.108.636-.324.864-.216.228-.516.342-.9.342-.36 0-.648-.114-.864-.342-.216-.228-.324-.516-.324-.864zm0 7.074c0-.384.108-.681.324-.891.216-.21.504-.315.864-.315.384 0 .684.105.9.315.216.21.324.507.324.891 0 .348-.108.636-.324.864-.216.228-.516.342-.9.342-.36 0-.648-.114-.864-.342-.216-.228-.324-.516-.324-.864zm17.124-11.826l1.134.504-6.57 14.832-1.134-.504 6.57-14.832zm13.2 0l1.134.504-6.57 14.832-1.134-.504 6.57-14.832zm12.966 10.386c0-.384-.15-.681-.45-.891-.3-.21-.672-.378-1.116-.504a20.643 20.643 0 00-1.449-.351 8.36 8.36 0 01-1.449-.432 3.247 3.247 0 01-1.116-.729c-.3-.306-.45-.735-.45-1.287 0-.456.099-.846.297-1.17.198-.324.459-.591.783-.801.324-.21.702-.366 1.134-.468a5.856 5.856 0 011.35-.153c.84 0 1.563.105 2.169.315.606.21 1.089.429 1.449.657l-.576 1.134a15.16 15.16 0 00-1.287-.621c-.462-.198-1.041-.297-1.737-.297-.264 0-.525.027-.783.081a2.767 2.767 0 00-.702.243c-.21.108-.378.249-.504.423a1.06 1.06 0 00-.189.639c0 .312.15.552.45.72.3.168.672.309 1.116.423.444.114.927.222 1.449.324a7.044 7.044 0 011.449.441c.444.192.816.45 1.116.774.3.324.45.762.45 1.314 0 .828-.327 1.512-.981 2.052-.654.54-1.635.81-2.943.81-.396 0-.786-.036-1.17-.108a7.096 7.096 0 01-1.08-.288 6.498 6.498 0 01-.918-.405 3.86 3.86 0 01-.684-.459l.72-1.17c.144.144.336.291.576.441a5.437 5.437 0 001.719.693 4.833 4.833 0 001.908.027c.282-.054.531-.138.747-.252.216-.114.387-.264.513-.45s.189-.411.189-.675zm7.206 2.43v-1.206h3.132v-6.588h-3.132V200h4.572v7.794h3.06V209h-7.632zm2.646-11.556c0-.324.108-.603.324-.837.216-.234.492-.351.828-.351.348 0 .639.117.873.351.234.234.351.513.351.837 0 .312-.117.576-.351.792a1.238 1.238 0 01-.873.324c-.336 0-.612-.108-.828-.324a1.077 1.077 0 01-.324-.792zm9.222 2.556h2.142v-1.782l1.404-.396V200h4.806v1.206h-4.806v4.248c0 .876.213 1.524.639 1.944.426.42 1.035.63 1.827.63.54 0 1.011-.102 1.413-.306a7.614 7.614 0 001.089-.666l.468 1.062c-.42.336-.921.606-1.503.81a5.377 5.377 0 01-1.791.306c-.48 0-.933-.069-1.359-.207a3.12 3.12 0 01-1.125-.639 3.06 3.06 0 01-.774-1.107c-.192-.45-.288-.987-.288-1.611v-4.464h-2.142V200zm22.164 7.866a4.53 4.53 0 01-.765.54 5.645 5.645 0 01-.963.432 7.06 7.06 0 01-1.089.279 6.633 6.633 0 01-1.143.099c-.72 0-1.356-.111-1.908-.333a3.674 3.674 0 01-1.386-.954 4.158 4.158 0 01-.846-1.485c-.192-.576-.288-1.224-.288-1.944 0-.756.105-1.428.315-2.016.21-.588.513-1.08.909-1.476a3.959 3.959 0 011.44-.909c.564-.21 1.194-.315 1.89-.315.504 0 1.002.066 1.494.198a2.95 2.95 0 011.305.747c.378.366.669.87.873 1.512.204.642.276 1.473.216 2.493h-6.966c0 1.08.291 1.887.873 2.421.582.534 1.359.801 2.331.801.324 0 .645-.039.963-.117.318-.078.621-.171.909-.279.288-.108.543-.228.765-.36.222-.132.393-.252.513-.36l.558 1.026zm-3.798-6.894a4.86 4.86 0 00-1.125.126 2.564 2.564 0 00-.936.423c-.27.198-.492.456-.666.774-.174.318-.285.711-.333 1.179h5.598c-.06-.792-.315-1.407-.765-1.845-.45-.438-1.041-.657-1.773-.657zm11.67 7.038c0-.384.108-.681.324-.891.216-.21.504-.315.864-.315.384 0 .684.105.9.315.216.21.324.507.324.891 0 .348-.108.636-.324.864-.216.228-.516.342-.9.342-.36 0-.648-.114-.864-.342-.216-.228-.324-.516-.324-.864zm16.908-6.624a7.111 7.111 0 00-.891-.243 4.64 4.64 0 00-.945-.099c-1.176 0-2.052.276-2.628.828-.576.552-.864 1.428-.864 2.628 0 .528.084.999.252 1.413.168.414.408.765.72 1.053.312.288.687.51 1.125.666.438.156.921.234 1.449.234.564 0 1.113-.096 1.647-.288.534-.192.981-.444 1.341-.756l.63 1.044a5.095 5.095 0 01-.63.45 6.053 6.053 0 01-1.971.774 6.38 6.38 0 01-1.305.126c-.78 0-1.467-.111-2.061-.333a3.914 3.914 0 01-1.485-.954 4.083 4.083 0 01-.9-1.494 5.818 5.818 0 01-.306-1.935c0-.756.105-1.428.315-2.016.21-.588.513-1.08.909-1.476a3.959 3.959 0 011.44-.909c.564-.21 1.194-.315 1.89-.315.888 0 1.611.078 2.169.234.558.156 1.029.33 1.413.522l-.018.054v2.502h-1.296v-1.71zm6.324 3.114c0-1.452.378-2.601 1.134-3.447.756-.846 1.836-1.269 3.24-1.269.756 0 1.407.123 1.953.369s.999.579 1.359.999c.36.42.627.918.801 1.494.174.576.261 1.194.261 1.854 0 .72-.096 1.371-.288 1.953a4.057 4.057 0 01-.846 1.485 3.738 3.738 0 01-1.377.945c-.546.222-1.167.333-1.863.333-.744 0-1.392-.123-1.944-.369a3.815 3.815 0 01-1.368-.999 4.073 4.073 0 01-.801-1.494 6.381 6.381 0 01-.261-1.854zm1.494 0c0 .42.051.84.153 1.26.102.42.267.798.495 1.134.228.336.525.606.891.81.366.204.813.306 1.341.306.96 0 1.683-.297 2.169-.891.486-.594.729-1.467.729-2.619 0-.432-.051-.855-.153-1.269a3.353 3.353 0 00-.504-1.125 2.656 2.656 0 00-.9-.81c-.366-.204-.813-.306-1.341-.306-.96 0-1.68.294-2.16.882-.48.588-.72 1.464-.72 2.628zm15.396 4.5v-5.994a9.51 9.51 0 00-.027-.729 2.442 2.442 0 00-.126-.63 1.01 1.01 0 00-.288-.441.734.734 0 00-.495-.162c-.408 0-.753.168-1.035.504-.282.336-.495.756-.639 1.26V209h-1.368v-9h.936l.27 1.098h.072c.12-.18.237-.351.351-.513.114-.162.246-.303.396-.423.15-.12.327-.213.531-.279.204-.066.462-.099.774-.099.18 0 .366.027.558.081.192.054.369.138.531.252.162.114.303.267.423.459s.198.426.234.702c.276-.468.585-.834.927-1.098.342-.264.813-.396 1.413-.396.396 0 .717.066.963.198s.438.321.576.567c.138.246.234.54.288.882.054.342.081.723.081 1.143V209h-1.368v-6.12c0-.252-.012-.489-.036-.711a2.268 2.268 0 00-.135-.585.967.967 0 00-.27-.396c-.114-.096-.267-.144-.459-.144-.42 0-.774.168-1.062.504-.288.336-.504.816-.648 1.44V209h-1.368zm12.678-8.064c0-.384.108-.681.324-.891.216-.21.504-.315.864-.315.384 0 .684.105.9.315.216.21.324.507.324.891 0 .348-.108.636-.324.864-.216.228-.516.342-.9.342-.36 0-.648-.114-.864-.342-.216-.228-.324-.516-.324-.864zm0 7.074c0-.384.108-.681.324-.891.216-.21.504-.315.864-.315.384 0 .684.105.9.315.216.21.324.507.324.891 0 .348-.108.636-.324.864-.216.228-.516.342-.9.342-.36 0-.648-.114-.864-.342-.216-.228-.324-.516-.324-.864zm10.356-2.07c0-1.452.882-2.622 2.646-3.51-.336-.18-.648-.366-.936-.558a3.746 3.746 0 01-.747-.648 2.737 2.737 0 01-.495-.828 2.996 2.996 0 01-.18-1.08c0-.444.09-.858.27-1.242.18-.384.438-.714.774-.99a3.842 3.842 0 011.224-.657 4.988 4.988 0 011.602-.243c.552 0 1.053.072 1.503.216a3.5 3.5 0 011.152.603c.318.258.561.561.729.909.168.348.252.72.252 1.116 0 .684-.171 1.311-.513 1.881-.342.57-.891 1.089-1.647 1.557.348.18.672.372.972.576.3.204.561.432.783.684.222.252.396.537.522.855.126.318.189.681.189 1.089 0 .504-.09.975-.27 1.413a3 3 0 01-.801 1.125 3.88 3.88 0 01-1.305.738c-.516.18-1.116.27-1.8.27-.636 0-1.2-.09-1.692-.27a3.696 3.696 0 01-1.233-.72c-.33-.3-.579-.648-.747-1.044a3.148 3.148 0 01-.252-1.242zm6.678-.18c0-.348-.081-.657-.243-.927a2.74 2.74 0 00-.648-.729 5.59 5.59 0 00-.927-.594c-.348-.18-.708-.36-1.08-.54-.864.42-1.479.882-1.845 1.386-.366.504-.549.978-.549 1.422 0 .3.057.585.171.855.114.27.282.507.504.711.222.204.498.366.828.486.33.12.711.18 1.143.18.348 0 .681-.048.999-.144.318-.096.6-.237.846-.423s.441-.42.585-.702c.144-.282.216-.609.216-.981zm-4.986-6.498c0 .336.078.636.234.9.156.264.363.501.621.711.258.21.555.402.891.576.336.174.69.345 1.062.513.636-.42 1.113-.84 1.431-1.26.318-.42.477-.882.477-1.386 0-.3-.063-.567-.189-.801a1.948 1.948 0 00-.504-.603 2.292 2.292 0 00-.729-.387 2.77 2.77 0 00-.864-.135c-.384 0-.726.054-1.026.162-.3.108-.552.252-.756.432-.204.18-.363.381-.477.603a1.463 1.463 0 00-.171.675zm11.148 3.438c0-1.02.09-1.935.27-2.745.18-.81.45-1.494.81-2.052.36-.558.816-.984 1.368-1.278.552-.294 1.206-.441 1.962-.441.804 0 1.485.144 2.043.432a3.466 3.466 0 011.359 1.26c.348.552.6 1.233.756 2.043.156.81.234 1.737.234 2.781 0 1.02-.09 1.935-.27 2.745-.18.81-.45 1.494-.81 2.052-.36.558-.816.984-1.368 1.278-.552.294-1.206.441-1.962.441-.792 0-1.467-.159-2.025-.477a3.8 3.8 0 01-1.368-1.341c-.354-.576-.609-1.263-.765-2.061a13.774 13.774 0 01-.234-2.637zm7.326 0c0-.636-.036-1.242-.108-1.818l-5.346 4.878c.204.684.51 1.23.918 1.638.408.408.942.612 1.602.612 1.056 0 1.809-.438 2.259-1.314.45-.876.675-2.208.675-3.996zm-5.832 0c0 .3.009.588.027.864.018.276.039.546.063.81l5.364-4.86c-.204-.648-.507-1.164-.909-1.548-.402-.384-.945-.576-1.629-.576-1.068 0-1.821.441-2.259 1.323-.438.882-.657 2.211-.657 3.987zm12.066 3.24c0-1.452.882-2.622 2.646-3.51-.336-.18-.648-.366-.936-.558a3.746 3.746 0 01-.747-.648 2.737 2.737 0 01-.495-.828 2.996 2.996 0 01-.18-1.08c0-.444.09-.858.27-1.242.18-.384.438-.714.774-.99a3.842 3.842 0 011.224-.657 4.988 4.988 0 011.602-.243c.552 0 1.053.072 1.503.216a3.5 3.5 0 011.152.603c.318.258.561.561.729.909.168.348.252.72.252 1.116 0 .684-.171 1.311-.513 1.881-.342.57-.891 1.089-1.647 1.557.348.18.672.372.972.576.3.204.561.432.783.684.222.252.396.537.522.855.126.318.189.681.189 1.089 0 .504-.09.975-.27 1.413a3 3 0 01-.801 1.125 3.88 3.88 0 01-1.305.738c-.516.18-1.116.27-1.8.27-.636 0-1.2-.09-1.692-.27a3.696 3.696 0 01-1.233-.72c-.33-.3-.579-.648-.747-1.044a3.148 3.148 0 01-.252-1.242zm6.678-.18c0-.348-.081-.657-.243-.927a2.74 2.74 0 00-.648-.729 5.59 5.59 0 00-.927-.594c-.348-.18-.708-.36-1.08-.54-.864.42-1.479.882-1.845 1.386-.366.504-.549.978-.549 1.422 0 .3.057.585.171.855.114.27.282.507.504.711.222.204.498.366.828.486.33.12.711.18 1.143.18.348 0 .681-.048.999-.144.318-.096.6-.237.846-.423s.441-.42.585-.702c.144-.282.216-.609.216-.981zm-4.986-6.498c0 .336.078.636.234.9.156.264.363.501.621.711.258.21.555.402.891.576.336.174.69.345 1.062.513.636-.42 1.113-.84 1.431-1.26.318-.42.477-.882.477-1.386 0-.3-.063-.567-.189-.801a1.948 1.948 0 00-.504-.603 2.292 2.292 0 00-.729-.387 2.77 2.77 0 00-.864-.135c-.384 0-.726.054-1.026.162-.3.108-.552.252-.756.432-.204.18-.363.381-.477.603a1.463 1.463 0 00-.171.675zm11.148 3.438c0-1.02.09-1.935.27-2.745.18-.81.45-1.494.81-2.052.36-.558.816-.984 1.368-1.278.552-.294 1.206-.441 1.962-.441.804 0 1.485.144 2.043.432a3.466 3.466 0 011.359 1.26c.348.552.6 1.233.756 2.043.156.81.234 1.737.234 2.781 0 1.02-.09 1.935-.27 2.745-.18.81-.45 1.494-.81 2.052-.36.558-.816.984-1.368 1.278-.552.294-1.206.441-1.962.441-.792 0-1.467-.159-2.025-.477a3.8 3.8 0 01-1.368-1.341c-.354-.576-.609-1.263-.765-2.061a13.774 13.774 0 01-.234-2.637zm7.326 0c0-.636-.036-1.242-.108-1.818l-5.346 4.878c.204.684.51 1.23.918 1.638.408.408.942.612 1.602.612 1.056 0 1.809-.438 2.259-1.314.45-.876.675-2.208.675-3.996zm-5.832 0c0 .3.009.588.027.864.018.276.039.546.063.81l5.364-4.86c-.204-.648-.507-1.164-.909-1.548-.402-.384-.945-.576-1.629-.576-1.068 0-1.821.441-2.259 1.323-.438.882-.657 2.211-.657 3.987zm18.834-6.516l1.134.504-6.57 14.832-1.134-.504 6.57-14.832zm6.81 6.966a18.063 18.063 0 00-.081-1.512 5.988 5.988 0 00-.063-.468h-1.206V200h2.394l.18 1.26h.09a4.06 4.06 0 011.233-1.053c.498-.282 1.107-.423 1.827-.423 1.284 0 2.25.354 2.898 1.062.648.708.972 1.866.972 3.474 0 .756-.111 1.437-.333 2.043a4.295 4.295 0 01-.945 1.539c-.408.42-.9.744-1.476.972a5.141 5.141 0 01-1.908.342c-.252 0-.477-.009-.675-.027a5.93 5.93 0 01-.54-.072 4.255 4.255 0 01-.477-.117 6.561 6.561 0 01-.504-.18v3.78h-1.386v-9.45zm4.14-2.052c-.36 0-.699.066-1.017.198a3.034 3.034 0 00-1.449 1.242 2.118 2.118 0 00-.288.792v4.104a3.3 3.3 0 00.891.423c.33.102.765.153 1.305.153.96 0 1.728-.315 2.304-.945.576-.63.864-1.551.864-2.763 0-1.02-.201-1.809-.603-2.367-.402-.558-1.071-.837-2.007-.837zm9.276-.396a5.717 5.717 0 011.746-.648 9.544 9.544 0 011.908-.198c.612 0 1.113.096 1.503.288.39.192.696.441.918.747.222.306.372.654.45 1.044.078.39.117.783.117 1.179 0 .456-.012.942-.036 1.458a66.688 66.688 0 00-.054 1.548c0 .6.036 1.17.108 1.71h1.206V209h-2.394l-.162-1.35h-.09c-.072.108-.18.246-.324.414a2.964 2.964 0 01-.567.495 3.664 3.664 0 01-.855.423c-.336.12-.732.18-1.188.18-.888 0-1.59-.228-2.106-.684-.516-.456-.774-1.08-.774-1.872 0-.612.135-1.122.405-1.53.27-.408.657-.72 1.161-.936.504-.216 1.113-.342 1.827-.378.714-.036 1.515.012 2.403.144.06-.552.069-1.011.027-1.377-.042-.366-.138-.657-.288-.873a1.206 1.206 0 00-.63-.459c-.27-.09-.603-.135-.999-.135-.54 0-1.056.075-1.548.225-.492.15-.93.303-1.314.459l-.45-1.044zm2.646 7.254c.336 0 .648-.054.936-.162.288-.108.54-.246.756-.414a2.743 2.743 0 00.864-1.116v-1.26c-.624-.108-1.2-.162-1.728-.162s-.984.057-1.368.171c-.384.114-.684.291-.9.531-.216.24-.324.552-.324.936 0 .396.135.741.405 1.035.27.294.723.441 1.359.441zm9.168-7.956h2.142v-1.782l1.404-.396V200h4.806v1.206h-4.806v4.248c0 .876.213 1.524.639 1.944.426.42 1.035.63 1.827.63.54 0 1.011-.102 1.413-.306a7.614 7.614 0 001.089-.666l.468 1.062c-.42.336-.921.606-1.503.81a5.377 5.377 0 01-1.791.306c-.48 0-.933-.069-1.359-.207a3.12 3.12 0 01-1.125-.639 3.06 3.06 0 01-.774-1.107c-.192-.45-.288-.987-.288-1.611v-4.464h-2.142V200zm12.714-3.6h2.808v4.716h.09a4.03 4.03 0 011.296-.981c.492-.234 1.104-.351 1.836-.351.576 0 1.077.06 1.503.18.426.12.774.33 1.044.63s.471.711.603 1.233c.132.522.198 1.185.198 1.989V209h-1.404v-4.914c0-.516-.03-.966-.09-1.35-.06-.384-.177-.705-.351-.963a1.626 1.626 0 00-.711-.585c-.3-.132-.684-.198-1.152-.198a2.76 2.76 0 00-.954.171c-.312.114-.597.27-.855.468s-.48.438-.666.72a2.693 2.693 0 00-.387.927V209h-1.386v-11.394h-1.422V196.4zm21.246-.216l1.134.504-6.57 14.832-1.134-.504 6.57-14.832zm6.81 6.966a18.063 18.063 0 00-.081-1.512 5.988 5.988 0 00-.063-.468h-1.206V200h2.394l.18 1.26h.09a4.06 4.06 0 011.233-1.053c.498-.282 1.107-.423 1.827-.423 1.284 0 2.25.354 2.898 1.062.648.708.972 1.866.972 3.474 0 .756-.111 1.437-.333 2.043a4.295 4.295 0 01-.945 1.539c-.408.42-.9.744-1.476.972a5.141 5.141 0 01-1.908.342c-.252 0-.477-.009-.675-.027a5.93 5.93 0 01-.54-.072 4.255 4.255 0 01-.477-.117 6.561 6.561 0 01-.504-.18v3.78h-1.386v-9.45zm4.14-2.052c-.36 0-.699.066-1.017.198a3.034 3.034 0 00-1.449 1.242 2.118 2.118 0 00-.288.792v4.104a3.3 3.3 0 00.891.423c.33.102.765.153 1.305.153.96 0 1.728-.315 2.304-.945.576-.63.864-1.551.864-2.763 0-1.02-.201-1.809-.603-2.367-.402-.558-1.071-.837-2.007-.837zm9.276-.396a5.717 5.717 0 011.746-.648 9.544 9.544 0 011.908-.198c.612 0 1.113.096 1.503.288.39.192.696.441.918.747.222.306.372.654.45 1.044.078.39.117.783.117 1.179 0 .456-.012.942-.036 1.458a66.688 66.688 0 00-.054 1.548c0 .6.036 1.17.108 1.71h1.206V209h-2.394l-.162-1.35h-.09c-.072.108-.18.246-.324.414a2.964 2.964 0 01-.567.495 3.664 3.664 0 01-.855.423c-.336.12-.732.18-1.188.18-.888 0-1.59-.228-2.106-.684-.516-.456-.774-1.08-.774-1.872 0-.612.135-1.122.405-1.53.27-.408.657-.72 1.161-.936.504-.216 1.113-.342 1.827-.378.714-.036 1.515.012 2.403.144.06-.552.069-1.011.027-1.377-.042-.366-.138-.657-.288-.873a1.206 1.206 0 00-.63-.459c-.27-.09-.603-.135-.999-.135-.54 0-1.056.075-1.548.225-.492.15-.93.303-1.314.459l-.45-1.044zm2.646 7.254c.336 0 .648-.054.936-.162.288-.108.54-.246.756-.414a2.743 2.743 0 00.864-1.116v-1.26c-.624-.108-1.2-.162-1.728-.162s-.984.057-1.368.171c-.384.114-.684.291-.9.531-.216.24-.324.552-.324.936 0 .396.135.741.405 1.035.27.294.723.441 1.359.441zm18.042 1.494c0 .564-.108 1.059-.324 1.485a2.917 2.917 0 01-.891 1.053 4.02 4.02 0 01-1.323.621 6.185 6.185 0 01-1.638.207c-.708 0-1.326-.072-1.854-.216a5.515 5.515 0 01-1.368-.558l.684-1.278c.108.096.249.189.423.279.174.09.375.174.603.252.228.078.471.141.729.189.258.048.513.072.765.072.528 0 .969-.048 1.323-.144.354-.096.639-.246.855-.45.216-.204.372-.468.468-.792.096-.324.144-.72.144-1.188v-1.008h-.072c-.276.396-.63.702-1.062.918-.432.216-.99.324-1.674.324-1.368 0-2.373-.381-3.015-1.143-.642-.762-.963-1.947-.963-3.555 0-1.536.408-2.697 1.224-3.483.816-.786 2.028-1.179 3.636-1.179.744 0 1.377.051 1.899.153.522.102.999.231 1.431.387v9.054zm-4.014-1.44c.732 0 1.308-.189 1.728-.567.42-.378.714-.957.882-1.737v-4.266c-.528-.252-1.266-.378-2.214-.378-.96 0-1.716.282-2.268.846-.552.564-.828 1.428-.828 2.592 0 .516.048.987.144 1.413.096.426.249.795.459 1.107.21.312.486.555.828.729.342.174.765.261 1.269.261zm17.304-.144a4.53 4.53 0 01-.765.54 5.645 5.645 0 01-.963.432 7.06 7.06 0 01-1.089.279 6.633 6.633 0 01-1.143.099c-.72 0-1.356-.111-1.908-.333a3.674 3.674 0 01-1.386-.954 4.158 4.158 0 01-.846-1.485c-.192-.576-.288-1.224-.288-1.944 0-.756.105-1.428.315-2.016.21-.588.513-1.08.909-1.476a3.959 3.959 0 011.44-.909c.564-.21 1.194-.315 1.89-.315.504 0 1.002.066 1.494.198a2.95 2.95 0 011.305.747c.378.366.669.87.873 1.512.204.642.276 1.473.216 2.493h-6.966c0 1.08.291 1.887.873 2.421.582.534 1.359.801 2.331.801.324 0 .645-.039.963-.117.318-.078.621-.171.909-.279.288-.108.543-.228.765-.36.222-.132.393-.252.513-.36l.558 1.026zm-3.798-6.894a4.86 4.86 0 00-1.125.126 2.564 2.564 0 00-.936.423c-.27.198-.492.456-.666.774-.174.318-.285.711-.333 1.179h5.598c-.06-.792-.315-1.407-.765-1.845-.45-.438-1.041-.657-1.773-.657zm11.652 4.842a1.011 1.011 0 01-.018-.198v-.198c0-.504.093-.936.279-1.296.186-.36.417-.681.693-.963a6.74 6.74 0 01.891-.765c.318-.228.615-.471.891-.729s.507-.543.693-.855c.186-.312.279-.684.279-1.116 0-.228-.054-.474-.162-.738a2.314 2.314 0 00-.495-.738 2.501 2.501 0 00-.864-.558c-.354-.144-.777-.216-1.269-.216a3.7 3.7 0 00-1.071.144 4.343 4.343 0 00-.864.36 4.644 4.644 0 00-.702.477c-.21.174-.399.339-.567.495l-.918-.828a4.62 4.62 0 011.953-1.431c.798-.318 1.713-.477 2.745-.477.624 0 1.17.102 1.638.306.468.204.855.465 1.161.783.306.318.534.672.684 1.062.15.39.225.771.225 1.143 0 .576-.099 1.059-.297 1.449-.198.39-.447.738-.747 1.044-.3.306-.621.582-.963.828-.342.246-.663.51-.963.792-.3.282-.549.597-.747.945-.198.348-.297.774-.297 1.278h-1.188zm-.36 2.358c0-.324.093-.579.279-.765.186-.186.435-.279.747-.279.324 0 .582.093.774.279.192.186.288.441.288.765 0 .312-.096.564-.288.756-.192.192-.45.288-.774.288-.312 0-.561-.096-.747-.288-.186-.192-.279-.444-.279-.756zm11.112-5.022a18.063 18.063 0 00-.081-1.512 5.988 5.988 0 00-.063-.468h-1.206V200h2.394l.18 1.26h.09a4.06 4.06 0 011.233-1.053c.498-.282 1.107-.423 1.827-.423 1.284 0 2.25.354 2.898 1.062.648.708.972 1.866.972 3.474 0 .756-.111 1.437-.333 2.043a4.295 4.295 0 01-.945 1.539c-.408.42-.9.744-1.476.972a5.141 5.141 0 01-1.908.342c-.252 0-.477-.009-.675-.027a5.93 5.93 0 01-.54-.072 4.255 4.255 0 01-.477-.117 6.561 6.561 0 01-.504-.18v3.78h-1.386v-9.45zm4.14-2.052c-.36 0-.699.066-1.017.198a3.034 3.034 0 00-1.449 1.242 2.118 2.118 0 00-.288.792v4.104a3.3 3.3 0 00.891.423c.33.102.765.153 1.305.153.96 0 1.728-.315 2.304-.945.576-.63.864-1.551.864-2.763 0-1.02-.201-1.809-.603-2.367-.402-.558-1.071-.837-2.007-.837zm9.618 6.606h2.826v-9.468l-2.88 2.016-.702-1.026 3.96-2.826h1.008v11.304h2.772V209h-6.984v-1.296zm12.138-6.93h8.352v1.296h-8.352v-1.296zm0 2.952h8.352v1.296h-8.352v-1.296zm17.412 3.528h.198L461.56 200h1.566l-3.798 9h-1.584l-3.87-9h1.656l3.006 7.254zm10.05.45h2.826v-9.468l-2.88 2.016-.702-1.026 3.96-2.826h1.008v11.304h2.772V209h-6.984v-1.296zm11.454-2.43c0-.792.222-1.548.666-2.268.444-.72 1.062-1.326 1.854-1.818a11.046 11.046 0 01-.747-1.296c-.21-.432-.315-.9-.315-1.404 0-.288.048-.57.144-.846.096-.276.249-.522.459-.738.21-.216.48-.39.81-.522.33-.132.729-.198 1.197-.198.492 0 .906.063 1.242.189.336.126.606.291.81.495.204.204.351.432.441.684.09.252.135.51.135.774 0 .504-.195 1.023-.585 1.557-.39.534-1.005 1.047-1.845 1.539.192.348.417.705.675 1.071.258.366.531.729.819 1.089.288.36.582.717.882 1.071.3.354.6.681.9.981a3.19 3.19 0 00.351-.702c.102-.276.186-.564.252-.864a8.368 8.368 0 00.189-1.728h1.278a10.485 10.485 0 01-.36 2.259c-.204.75-.504 1.383-.9 1.899a5.657 5.657 0 001.35 1.188v1.53c-.636-.312-1.362-.87-2.178-1.674-.216.216-.435.423-.657.621a4.088 4.088 0 01-1.692.909 4.734 4.734 0 01-1.233.144c-.492 0-.972-.081-1.44-.243a3.787 3.787 0 01-1.26-.729 3.608 3.608 0 01-.9-1.224c-.228-.492-.342-1.074-.342-1.746zm6.678 1.368c-.348-.348-.69-.726-1.026-1.134a34.293 34.293 0 01-1.809-2.403 30.16 30.16 0 01-.657-.999c-.648.492-1.101.99-1.359 1.494a3.505 3.505 0 00-.387 1.62c0 .468.087.873.261 1.215.174.342.393.627.657.855.264.228.555.396.873.504.318.108.627.162.927.162.6 0 1.101-.135 1.503-.405.402-.27.741-.573 1.017-.909zm-3.816-8.154c0 .36.075.717.225 1.071.15.354.345.705.585 1.053.636-.408 1.077-.78 1.323-1.116.246-.336.369-.63.369-.882 0-.384-.093-.696-.279-.936-.186-.24-.507-.36-.963-.36-.432 0-.75.108-.954.324-.204.216-.306.498-.306.846zm11.526 4.662a18.063 18.063 0 00-.081-1.512 5.988 5.988 0 00-.063-.468h-1.206V200h2.394l.18 1.26h.09a4.06 4.06 0 011.233-1.053c.498-.282 1.107-.423 1.827-.423 1.284 0 2.25.354 2.898 1.062.648.708.972 1.866.972 3.474 0 .756-.111 1.437-.333 2.043a4.295 4.295 0 01-.945 1.539c-.408.42-.9.744-1.476.972a5.141 5.141 0 01-1.908.342c-.252 0-.477-.009-.675-.027a5.93 5.93 0 01-.54-.072 4.255 4.255 0 01-.477-.117 6.561 6.561 0 01-.504-.18v3.78h-1.386v-9.45zm4.14-2.052c-.36 0-.699.066-1.017.198a3.034 3.034 0 00-1.449 1.242 2.118 2.118 0 00-.288.792v4.104a3.3 3.3 0 00.891.423c.33.102.765.153 1.305.153.96 0 1.728-.315 2.304-.945.576-.63.864-1.551.864-2.763 0-1.02-.201-1.809-.603-2.367-.402-.558-1.071-.837-2.007-.837zm16.332-1.512c0 1.104-.522 2.334-1.566 3.69-1.044 1.356-2.502 2.832-4.374 4.428h6.336V209h-7.992v-1.296c.228-.216.54-.498.936-.846a57.05 57.05 0 001.278-1.161c.456-.426.921-.885 1.395-1.377a15.64 15.64 0 001.287-1.512 8.867 8.867 0 00.936-1.548c.24-.516.36-1.014.36-1.494 0-.72-.189-1.287-.567-1.701-.378-.414-.945-.621-1.701-.621-.648 0-1.194.072-1.638.216a3.988 3.988 0 00-1.206.63l-.612-.99a5.806 5.806 0 011.719-.846 6.962 6.962 0 011.989-.27c1.128 0 1.98.306 2.556.918.576.612.864 1.44.864 2.484zm5.424 1.188h8.352v1.296h-8.352v-1.296zm0 2.952h8.352v1.296h-8.352v-1.296zm17.412 3.528h.198L540.76 200h1.566l-3.798 9h-1.584l-3.87-9h1.656l3.006 7.254zm16.764-7.668c0 1.104-.522 2.334-1.566 3.69-1.044 1.356-2.502 2.832-4.374 4.428h6.336V209h-7.992v-1.296c.228-.216.54-.498.936-.846s.822-.735 1.278-1.161c.456-.426.921-.885 1.395-1.377a15.64 15.64 0 001.287-1.512 8.867 8.867 0 00.936-1.548c.24-.516.36-1.014.36-1.494 0-.72-.189-1.287-.567-1.701-.378-.414-.945-.621-1.701-.621-.648 0-1.194.072-1.638.216a3.988 3.988 0 00-1.206.63l-.612-.99a5.806 5.806 0 011.719-.846 6.962 6.962 0 011.989-.27c1.128 0 1.98.306 2.556.918.576.612.864 1.44.864 2.484zm12.966 8.424c0-.384.108-.681.324-.891.216-.21.504-.315.864-.315.384 0 .684.105.9.315.216.21.324.507.324.891 0 .348-.108.636-.324.864-.216.228-.516.342-.9.342-.36 0-.648-.114-.864-.342-.216-.228-.324-.516-.324-.864zm-4.572 0c0-.384.108-.681.324-.891.216-.21.504-.315.864-.315.384 0 .684.105.9.315.216.21.324.507.324.891 0 .348-.108.636-.324.864-.216.228-.516.342-.9.342-.36 0-.648-.114-.864-.342-.216-.228-.324-.516-.324-.864zm-4.536 0c0-.384.108-.681.324-.891.216-.21.504-.315.864-.315.384 0 .684.105.9.315.216.21.324.507.324.891 0 .348-.108.636-.324.864-.216.228-.516.342-.9.342-.36 0-.648-.114-.864-.342-.216-.228-.324-.516-.324-.864zm32.898-3.06h-2.61l-.702 3.006h-1.242l.702-3.006h-1.764l.252-1.152h1.782l.558-2.358h-1.692l.252-1.152h1.71l.684-2.844h1.242l-.684 2.844h2.61l.684-2.844h1.242l-.684 2.844h1.746l-.288 1.152h-1.728l-.558 2.358h1.674l-.288 1.152h-1.656l-.702 3.006h-1.242l.702-3.006zm-2.34-1.152h2.61l.558-2.358h-2.61l-.558 2.358zm9.456-7.398h2.808v4.716h.09a4.03 4.03 0 011.296-.981c.492-.234 1.104-.351 1.836-.351.576 0 1.077.06 1.503.18.426.12.774.33 1.044.63s.471.711.603 1.233c.132.522.198 1.185.198 1.989V209h-1.404v-4.914c0-.516-.03-.966-.09-1.35-.06-.384-.177-.705-.351-.963a1.626 1.626 0 00-.711-.585c-.3-.132-.684-.198-1.152-.198a2.76 2.76 0 00-.954.171c-.312.114-.597.27-.855.468s-.48.438-.666.72a2.693 2.693 0 00-.387.927V209h-1.386v-11.394h-1.422V196.4zm15.072 4.302a5.717 5.717 0 011.746-.648 9.544 9.544 0 011.908-.198c.612 0 1.113.096 1.503.288.39.192.696.441.918.747.222.306.372.654.45 1.044.078.39.117.783.117 1.179 0 .456-.012.942-.036 1.458a66.688 66.688 0 00-.054 1.548c0 .6.036 1.17.108 1.71h1.206V209h-2.394l-.162-1.35h-.09c-.072.108-.18.246-.324.414a2.964 2.964 0 01-.567.495 3.664 3.664 0 01-.855.423c-.336.12-.732.18-1.188.18-.888 0-1.59-.228-2.106-.684-.516-.456-.774-1.08-.774-1.872 0-.612.135-1.122.405-1.53.27-.408.657-.72 1.161-.936.504-.216 1.113-.342 1.827-.378.714-.036 1.515.012 2.403.144.06-.552.069-1.011.027-1.377-.042-.366-.138-.657-.288-.873a1.206 1.206 0 00-.63-.459c-.27-.09-.603-.135-.999-.135-.54 0-1.056.075-1.548.225-.492.15-.93.303-1.314.459l-.45-1.044zm2.646 7.254c.336 0 .648-.054.936-.162.288-.108.54-.246.756-.414a2.743 2.743 0 00.864-1.116v-1.26c-.624-.108-1.2-.162-1.728-.162s-.984.057-1.368.171c-.384.114-.684.291-.9.531-.216.24-.324.552-.324.936 0 .396.135.741.405 1.035.27.294.723.441 1.359.441zm16.494-1.386c0-.384-.15-.681-.45-.891-.3-.21-.672-.378-1.116-.504a20.643 20.643 0 00-1.449-.351 8.36 8.36 0 01-1.449-.432 3.247 3.247 0 01-1.116-.729c-.3-.306-.45-.735-.45-1.287 0-.456.099-.846.297-1.17.198-.324.459-.591.783-.801.324-.21.702-.366 1.134-.468a5.856 5.856 0 011.35-.153c.84 0 1.563.105 2.169.315.606.21 1.089.429 1.449.657l-.576 1.134a15.16 15.16 0 00-1.287-.621c-.462-.198-1.041-.297-1.737-.297-.264 0-.525.027-.783.081a2.767 2.767 0 00-.702.243c-.21.108-.378.249-.504.423a1.06 1.06 0 00-.189.639c0 .312.15.552.45.72.3.168.672.309 1.116.423.444.114.927.222 1.449.324a7.044 7.044 0 011.449.441c.444.192.816.45 1.116.774.3.324.45.762.45 1.314 0 .828-.327 1.512-.981 2.052-.654.54-1.635.81-2.943.81-.396 0-.786-.036-1.17-.108a7.096 7.096 0 01-1.08-.288 6.498 6.498 0 01-.918-.405 3.86 3.86 0 01-.684-.459l.72-1.17c.144.144.336.291.576.441a5.437 5.437 0 001.719.693 4.833 4.833 0 001.908.027c.282-.054.531-.138.747-.252.216-.114.387-.264.513-.45s.189-.411.189-.675zm5.388-10.17h2.808v4.716h.09a4.03 4.03 0 011.296-.981c.492-.234 1.104-.351 1.836-.351.576 0 1.077.06 1.503.18.426.12.774.33 1.044.63s.471.711.603 1.233c.132.522.198 1.185.198 1.989V209h-1.404v-4.914c0-.516-.03-.966-.09-1.35-.06-.384-.177-.705-.351-.963a1.626 1.626 0 00-.711-.585c-.3-.132-.684-.198-1.152-.198a2.76 2.76 0 00-.954.171c-.312.114-.597.27-.855.468s-.48.438-.666.72a2.693 2.693 0 00-.387.927V209h-1.386v-11.394h-1.422V196.4z"/><text id="hostname" fill="#8A704D" font-family="PTMono-Regular, PT Mono" font-size="16" font-weight="normal"><tspan x="107" y="152">hostname</tspan></text><text id="port" fill="#8A704D" font-family="PTMono-Regular, PT Mono" font-size="16" font-weight="normal"><tspan x="221" y="152">port</tspan></text><text id="pathname" fill="#8A704D" font-family="PTMono-Regular, PT Mono" font-size="16" font-weight="normal"><tspan x="294" y="152">pathname</tspan></text><text id="search" fill="#8A704D" font-family="PTMono-Regular, PT Mono" font-size="16" font-weight="normal"><tspan x="456" y="152">search</tspan></text><text id="hash" fill="#8A704D" font-family="PTMono-Regular, PT Mono" font-size="16" font-weight="normal"><tspan x="597" y="152">hash</tspan></text></g></g></svg>