<svg width="144" height="102" viewBox="0 0 144 102" fill="none" xmlns="http://www.w3.org/2000/svg">
<g clip-path="url(#clip0_1_2)">
<text fill="black" xml:space="preserve" style="white-space: pre" font-family="PT Sans" font-size="18" letter-spacing="0em"><tspan x="66" y="17.116">statement</tspan></text>
<path d="M13.1839 91.7405C17.7033 86.681 21.8941 81.9537 26.1346 77.2638C26.4632 76.9316 26.9842 76.86 28.0446 76.383C26.4578 78.8975 25.3112 80.932 23.966 82.8171C20.3831 87.7699 16.7567 92.5742 13.0745 97.4523C12.6282 98.0436 12.2315 98.6722 11.6859 99.1889C9.98719 100.924 8.6413 100.954 8.28081 99.0608C8.12538 98.1327 8.07537 97.168 8.13079 96.1668C8.34015 92.3843 8.65493 88.5653 8.96971 84.7462C9.00665 84.0787 9.35987 83.3015 9.68192 82.1532C12.3248 83.9096 10.1743 88.2018 11.546 90.5084C11.9488 89.7685 12.3455 89.1398 12.6368 88.5478C24.0274 65.8287 39.4322 46.2453 57.9578 29.1253C59.8673 27.3172 61.9197 25.7323 63.9223 24.1101C64.9516 23.262 66.167 22.7858 66.5645 24.0118C67.0177 25.1639 66.2366 26.1987 64.9966 27.1199C51.0393 37.363 39.9924 51.0701 29.4294 65.3731C23.9 72.8016 18.9785 80.4556 14.7083 88.4838C14.1877 89.4828 13.7168 90.5191 13.1839 91.7405Z" fill="#FFC46F"/>
</g>
<defs>
<clipPath id="clip0_1_2">
<rect width="143.332" height="101.273" fill="white" transform="translate(0.667725)"/>
</clipPath>
</defs>
</svg>
