<svg xmlns="http://www.w3.org/2000/svg" width="508" height="203" viewBox="0 0 508 203"><defs><style>@import url(https://fonts.googleapis.com/css?family=Open+Sans:bold,italic,bolditalic%7CPT+Mono);@font-face{font-family:&apos;PT Mono&apos;;font-weight:700;font-style:normal;src:local(&apos;PT MonoBold&apos;),url(/font/PTMonoBold.woff2) format(&apos;woff2&apos;),url(/font/PTMonoBold.woff) format(&apos;woff&apos;),url(/font/PTMonoBold.ttf) format(&apos;truetype&apos;)}</style></defs><g id="dom" fill="none" fill-rule="evenodd" stroke="none" stroke-width="1"><g id="document-client-width-height.svg"><g id="noun_69008_cc" fill="#DBAF88" transform="translate(275 8)"><path id="Shape" d="M179.188 145H3.813C1.708 145 0 143.369 0 141.375V3.625C0 1.631 1.708 0 3.813 0h175.375C181.284 0 183 1.631 183 3.625v137.75c0 1.994-1.716 3.625-3.813 3.625zM7.625 137.75h167.75V7.25H7.625v130.5z"/><path id="Shape" d="M175.375 36.25H7.625c-2.104 0-3.813-1.631-3.813-3.625S5.521 29 7.626 29h167.75c2.097 0 3.813 1.631 3.813 3.625s-1.716 3.625-3.813 3.625zM61.32 126.578c-1.266 0-2.508-.595-3.233-1.682L34.892 89.849a3.486 3.486 0 01.16-4.082l23.195-29.906c1.25-1.631 3.63-1.964 5.33-.746 1.693 1.188 2.059 3.458.8 5.067l-21.646 27.92 21.807 32.951c1.12 1.69.587 3.937-1.197 4.988a3.936 3.936 0 01-2.02.537zM122 126.578a3.802 3.802 0 01-2.028-.559c-1.784-1.058-2.326-3.298-1.197-4.988l21.807-32.95-21.655-27.928c-1.25-1.617-.892-3.878.8-5.067 1.694-1.197 4.08-.849 5.33.76l23.188 29.907a3.462 3.462 0 01.16 4.082L125.21 124.88c-.709 1.102-1.944 1.697-3.21 1.697zM76.25 119.937a4.07 4.07 0 01-1.86-.457c-1.838-.979-2.494-3.183-1.465-4.959l30.18-51.359c1.03-1.755 3.34-2.385 5.2-1.37 1.83.978 2.486 3.175 1.457 4.937l-30.18 51.359c-.701 1.182-1.998 1.849-3.332 1.849zM22.875 18.125c0 2.003-1.706 3.625-3.813 3.625-2.106 0-3.812-1.622-3.812-3.625s1.706-3.625 3.813-3.625c2.106 0 3.812 1.622 3.812 3.625zM38.125 18.125c0 2.003-1.706 3.625-3.813 3.625-2.106 0-3.812-1.622-3.812-3.625s1.706-3.625 3.813-3.625c2.106 0 3.812 1.622 3.812 3.625zM53.375 18.125c0 2.003-1.706 3.625-3.813 3.625-2.106 0-3.812-1.622-3.812-3.625s1.706-3.625 3.813-3.625c2.106 0 3.812 1.622 3.812 3.625z"/></g><text id="documentElement.clie" fill="#AF6E24" font-family="PTMono-Regular, PT Mono" font-size="14" font-weight="normal"><tspan x="12" y="101">documentElement.clientHeight</tspan></text><text id="documentElement.clie" fill="#AF6E24" font-family="PTMono-Regular, PT Mono" font-size="14" font-weight="normal"><tspan x="257" y="195">documentElement.clientWidth</tspan></text><path id="Line-3-Copy" fill="#C06334" fill-rule="nonzero" d="M299.025 177.653l-19-9.5 19-9.5-.001 8h132v-8l19 9.5-19 9.5v-8h-132v8z" transform="matrix(-1 0 0 1 730.025 0)"/><path id="Line" fill="#C06334" fill-rule="nonzero" d="M256.5 45l9.5 19-8-.001v64l8 .001-9.5 19-9.5-19 8-.001v-64L247 64l9.5-19z"/></g></g></svg>