<?xml version="1.0" encoding="UTF-8"?>
<svg width="508px" height="203px" viewBox="0 0 508 203" version="1.1" xmlns="http://www.w3.org/2000/svg" xmlns:xlink="http://www.w3.org/1999/xlink">
    <!-- Generator: sketchtool 55.2 (78181) - https://sketchapp.com -->
    <title>document-client-width-height.svg</title>
    <desc>Created with sketchtool.</desc>
    <g id="dom" stroke="none" stroke-width="1" fill="none" fill-rule="evenodd">
        <g id="document-client-width-height.svg">
            <g id="noun_69008_cc" transform="translate(275.000000, 8.000000)" fill="#E8C48E">
                <path d="M179.1875,145 L3.8125,145 C1.708,145 0,143.36875 0,141.375 L0,3.625 C0,1.63125 1.708,0 3.8125,0 L179.1875,0 C181.284375,0 183,1.63125 183,3.625 L183,141.375 C183,143.36875 181.284375,145 179.1875,145 L179.1875,145 Z M7.625,137.75 L175.375,137.75 L175.375,7.25 L7.625,7.25 L7.625,137.75 L7.625,137.75 Z" id="Shape"></path>
                <path d="M175.375,36.25 L7.625,36.25 C5.5205,36.25 3.8125,34.61875 3.8125,32.625 C3.8125,30.63125 5.5205,29 7.625,29 L175.375,29 C177.471875,29 179.1875,30.63125 179.1875,32.625 C179.1875,34.61875 177.471875,36.25 175.375,36.25 L175.375,36.25 Z" id="Shape"></path>
                <path d="M61.32025,126.57775 C60.0545,126.57775 58.811625,125.98325 58.08725,124.89575 L34.892,89.84925 C34.060875,88.57325 34.121875,86.97825 35.052125,85.7675 L58.247375,55.86125 C59.497875,54.23 61.876875,53.8965 63.57725,55.1145 C65.27,56.3035 65.636,58.57275 64.377875,60.18225 L42.7305,88.102 L64.538,121.05325 C65.658875,122.7425 65.125125,124.99 63.340875,126.04125 C62.72325,126.411 62.014125,126.57775 61.32025,126.57775 L61.32025,126.57775 Z" id="Shape"></path>
                <path d="M122,126.57775 C121.306125,126.57775 120.597,126.411 119.97175,126.0195 C118.1875,124.961 117.646125,122.72075 118.774625,121.0315 L140.582125,88.08025 L118.927125,60.15325 C117.676625,58.5365 118.035,56.2745 119.72775,55.0855 C121.4205,53.88925 123.807125,54.23725 125.057625,55.84675 L148.24525,85.753 C149.183125,86.9565 149.244125,88.57325 148.405375,89.83475 L125.210125,124.88125 C124.501,125.98325 123.26575,126.57775 122,126.57775 L122,126.57775 Z" id="Shape"></path>
                <path d="M76.25,119.93675 C75.617125,119.93675 74.98425,119.7845 74.3895,119.48 C72.551875,118.50125 71.896125,116.29725 72.9255,114.521 L103.10525,63.162 C104.134625,61.4075 106.445,60.77675 108.3055,61.79175 C110.1355,62.7705 110.79125,64.96725 109.761875,66.729 L79.582125,118.088 C78.880625,119.26975 77.584375,119.93675 76.25,119.93675 L76.25,119.93675 Z" id="Shape"></path>
                <path d="M22.875,18.125 C22.875,20.1278125 21.1689062,21.75 19.0625,21.75 C16.9560938,21.75 15.25,20.1278125 15.25,18.125 C15.25,16.1221875 16.9560938,14.5 19.0625,14.5 C21.1689062,14.5 22.875,16.1221875 22.875,18.125 L22.875,18.125 Z" id="Shape"></path>
                <path d="M38.125,18.125 C38.125,20.1278125 36.4189062,21.75 34.3125,21.75 C32.2060938,21.75 30.5,20.1278125 30.5,18.125 C30.5,16.1221875 32.2060938,14.5 34.3125,14.5 C36.4189062,14.5 38.125,16.1221875 38.125,18.125 L38.125,18.125 Z" id="Shape"></path>
                <path d="M53.375,18.125 C53.375,20.1278125 51.6689062,21.75 49.5625,21.75 C47.4560938,21.75 45.75,20.1278125 45.75,18.125 C45.75,16.1221875 47.4560938,14.5 49.5625,14.5 C51.6689062,14.5 53.375,16.1221875 53.375,18.125 L53.375,18.125 Z" id="Shape"></path>
            </g>
            <text id="documentElement.clie" font-family="PTMono-Regular, PT Mono" font-size="14" font-weight="normal" fill="#8A704D">
                <tspan x="12" y="101">documentElement.clientHeight</tspan>
            </text>
            <text id="documentElement.clie" font-family="PTMono-Regular, PT Mono" font-size="14" font-weight="normal" fill="#8A704D">
                <tspan x="257" y="195">documentElement.clientWidth</tspan>
            </text>
            <path id="Line-3-Copy" d="M431.024582,169.653273 L299.024582,169.653273 L299.024582,177.653273 L280.024582,168.153273 L299.024582,158.653273 L299.024582,166.653273 L431.024582,166.653273 L431.024582,158.653273 L450.024582,168.153273 L431.024582,177.653273 L431.024582,169.653273 Z" fill="#EE6B47" fill-rule="nonzero"></path>
            <path id="Line" d="M255,128 L255,64 L247,64 L256.5,45 L266,64 L258,64 L258,128 L266,128 L256.5,147 L247,128 L255,128 Z" fill="#EE6B47" fill-rule="nonzero"></path>
        </g>
    </g>
</svg>