<svg width="550" height="203" viewBox="0 0 550 203" xmlns="http://www.w3.org/2000/svg"><title>document-client-width-height</title><desc>Created with Sketch.</desc><g fill="none" fill-rule="evenodd"><g><g fill="#8A704D"><path d="M415.188 153H239.813c-2.105 0-3.813-1.63-3.813-3.625V11.625C236 9.63 237.708 8 239.813 8h175.375C417.284 8 419 9.63 419 11.625v137.75c0 1.994-1.716 3.625-3.813 3.625zm-171.563-7.25h167.75V15.25h-167.75v130.5zM411.375 44.25h-167.75c-2.104 0-3.813-1.63-3.813-3.625 0-1.994 1.708-3.625 3.813-3.625h167.75c2.097 0 3.813 1.63 3.813 3.625 0 1.994-1.716 3.625-3.813 3.625zM297.32 134.578c-1.266 0-2.508-.595-3.233-1.682L270.892 97.85c-.83-1.277-.77-2.872.16-4.083l23.195-29.906c1.25-1.63 3.63-1.964 5.33-.746 1.693 1.19 2.06 3.46.8 5.068l-21.646 27.92 21.808 32.95c1.12 1.69.587 3.938-1.197 4.99-.617.37-1.326.536-2.02.536zM358 134.578c-.694 0-1.403-.167-2.028-.56-1.784-1.057-2.326-3.297-1.197-4.987l21.807-32.95-21.655-27.927c-1.25-1.617-.892-3.88.8-5.068 1.694-1.196 4.08-.848 5.33.762l23.188 29.906c.938 1.204 1 2.82.16 4.082L361.21 132.88c-.71 1.103-1.944 1.698-3.21 1.698zM312.25 127.937c-.633 0-1.266-.153-1.86-.457-1.838-.98-2.494-3.183-1.464-4.96l30.18-51.358c1.03-1.755 3.34-2.385 5.2-1.37 1.83.98 2.485 3.175 1.456 4.937l-30.18 51.358c-.7 1.182-1.998 1.85-3.332 1.85zM258.875 26.125c0 2.003-1.706 3.625-3.813 3.625-2.106 0-3.812-1.622-3.812-3.625s1.706-3.625 3.813-3.625c2.106 0 3.812 1.622 3.812 3.625zM274.125 26.125c0 2.003-1.706 3.625-3.813 3.625-2.106 0-3.812-1.622-3.812-3.625s1.706-3.625 3.813-3.625c2.106 0 3.812 1.622 3.812 3.625zM289.375 26.125c0 2.003-1.706 3.625-3.813 3.625-2.106 0-3.812-1.622-3.812-3.625s1.706-3.625 3.813-3.625c2.106 0 3.812 1.622 3.812 3.625z"/></g><path d="M222.114 47.98l-7.262 19.423c-.278.747-.408 1.718-.39 2.692.015.97.178 1.942.48 2.677.61 1.472 1.555 1.456 2.113-.036l5.24-14.022.764 44.884v.026l.56 32.872-5.715-13.835c-.61-1.47-1.554-1.455-2.112.037-.558 1.494-.517 3.897.09 5.37L225.36 151l1.43-3.82 7.26-19.423c.28-.747.41-1.718.394-2.692-.017-.97-.18-1.942-.484-2.677-.61-1.472-1.554-1.456-2.112.036l-5.24 14.02-.764-44.883-.002-.024-.56-32.872L231 72.5c.61 1.47 1.554 1.455 2.112-.037.558-1.495.517-3.897-.09-5.37l-9.477-22.935-1.43 3.82" fill="#EE6B47"/><path d="M237.128 166.327l33.164 8.156c1.276.313 2.945.487 4.625.516 1.676.027 3.358-.09 4.64-.36 2.567-.54 2.583-1.485.035-2.11l-23.94-5.888 77.448 1.317.043-.002 56.722.965-24.127 5.07c-2.567.54-2.583 1.485-.036 2.11 2.552.628 6.697.698 9.265.16l39.996-8.407-6.523-1.605-33.165-8.155c-1.275-.313-2.944-.49-4.624-.517-1.675-.03-3.357.09-4.64.36-2.566.54-2.582 1.485-.035 2.11l23.94 5.888-77.447-1.317h-.044l-56.72-.965 24.125-5.07c2.567-.54 2.583-1.485.035-2.11-2.55-.628-6.697-.698-9.264-.16l-39.996 8.407 6.524 1.605" fill="#EE6B47"/><text font-family="Consolas" font-size="14" font-weight="bold" fill="#8A704D"><tspan x="4" y="99">documentElement.clientHeight</tspan></text><text font-family="Consolas" font-size="14" font-weight="bold" fill="#8A704D"><tspan x="253" y="198">document.documentElement.clientWidth</tspan></text></g></g></svg>