<?xml version="1.0" encoding="UTF-8" standalone="no"?>
<svg width="550px" height="203px" viewBox="0 0 550 203" version="1.1" xmlns="http://www.w3.org/2000/svg" xmlns:xlink="http://www.w3.org/1999/xlink" xmlns:sketch="http://www.bohemiancoding.com/sketch/ns">
    <!-- Generator: Sketch 3.2.2 (9983) - http://www.bohemiancoding.com/sketch -->
    <title>document-client-width-height</title>
    <desc>Created with Sketch.</desc>
    <defs></defs>
    <g id="combined" stroke="none" stroke-width="1" fill="none" fill-rule="evenodd" sketch:type="MSPage">
        <g id="document-client-width-height" sketch:type="MSArtboardGroup">
            <g id="noun_69008_cc" sketch:type="MSLayerGroup" transform="translate(236.000000, 8.000000)" fill="#8A704D">
                <path d="M179.1875,145 L3.8125,145 C1.708,145 0,143.36875 0,141.375 L0,3.625 C0,1.63125 1.708,0 3.8125,0 L179.1875,0 C181.284375,0 183,1.63125 183,3.625 L183,141.375 C183,143.36875 181.284375,145 179.1875,145 L179.1875,145 Z M7.625,137.75 L175.375,137.75 L175.375,7.25 L7.625,7.25 L7.625,137.75 L7.625,137.75 Z" id="Shape" sketch:type="MSShapeGroup"></path>
                <path d="M175.375,36.25 L7.625,36.25 C5.5205,36.25 3.8125,34.61875 3.8125,32.625 C3.8125,30.63125 5.5205,29 7.625,29 L175.375,29 C177.471875,29 179.1875,30.63125 179.1875,32.625 C179.1875,34.61875 177.471875,36.25 175.375,36.25 L175.375,36.25 Z" id="Shape" sketch:type="MSShapeGroup"></path>
                <path d="M61.32025,126.57775 C60.0545,126.57775 58.811625,125.98325 58.08725,124.89575 L34.892,89.84925 C34.060875,88.57325 34.121875,86.97825 35.052125,85.7675 L58.247375,55.86125 C59.497875,54.23 61.876875,53.8965 63.57725,55.1145 C65.27,56.3035 65.636,58.57275 64.377875,60.18225 L42.7305,88.102 L64.538,121.05325 C65.658875,122.7425 65.125125,124.99 63.340875,126.04125 C62.72325,126.411 62.014125,126.57775 61.32025,126.57775 L61.32025,126.57775 Z" id="Shape" sketch:type="MSShapeGroup"></path>
                <path d="M122,126.57775 C121.306125,126.57775 120.597,126.411 119.97175,126.0195 C118.1875,124.961 117.646125,122.72075 118.774625,121.0315 L140.582125,88.08025 L118.927125,60.15325 C117.676625,58.5365 118.035,56.2745 119.72775,55.0855 C121.4205,53.88925 123.807125,54.23725 125.057625,55.84675 L148.24525,85.753 C149.183125,86.9565 149.244125,88.57325 148.405375,89.83475 L125.210125,124.88125 C124.501,125.98325 123.26575,126.57775 122,126.57775 L122,126.57775 Z" id="Shape" sketch:type="MSShapeGroup"></path>
                <path d="M76.25,119.93675 C75.617125,119.93675 74.98425,119.7845 74.3895,119.48 C72.551875,118.50125 71.896125,116.29725 72.9255,114.521 L103.10525,63.162 C104.134625,61.4075 106.445,60.77675 108.3055,61.79175 C110.1355,62.7705 110.79125,64.96725 109.761875,66.729 L79.582125,118.088 C78.880625,119.26975 77.584375,119.93675 76.25,119.93675 L76.25,119.93675 Z" id="Shape" sketch:type="MSShapeGroup"></path>
                <path d="M22.875,18.125 C22.875,20.1278125 21.1689062,21.75 19.0625,21.75 C16.9560938,21.75 15.25,20.1278125 15.25,18.125 C15.25,16.1221875 16.9560938,14.5 19.0625,14.5 C21.1689062,14.5 22.875,16.1221875 22.875,18.125 L22.875,18.125 Z" id="Shape" sketch:type="MSShapeGroup"></path>
                <path d="M38.125,18.125 C38.125,20.1278125 36.4189062,21.75 34.3125,21.75 C32.2060938,21.75 30.5,20.1278125 30.5,18.125 C30.5,16.1221875 32.2060938,14.5 34.3125,14.5 C36.4189062,14.5 38.125,16.1221875 38.125,18.125 L38.125,18.125 Z" id="Shape" sketch:type="MSShapeGroup"></path>
                <path d="M53.375,18.125 C53.375,20.1278125 51.6689062,21.75 49.5625,21.75 C47.4560938,21.75 45.75,20.1278125 45.75,18.125 C45.75,16.1221875 47.4560938,14.5 49.5625,14.5 C51.6689062,14.5 53.375,16.1221875 53.375,18.125 L53.375,18.125 Z" id="Shape" sketch:type="MSShapeGroup"></path>
            </g>
            <path d="M274.078672,96.0852289 L254.783869,88.4952289 C254.041565,88.2042289 253.073012,88.0582289 252.099374,88.0582289 C251.128279,88.0582289 250.154641,88.2042289 249.41488,88.4952289 C247.932815,89.0792289 247.932815,90.0242289 249.41488,90.6072289 L263.343236,96.0852289 L218.459304,96.0852289 C218.451678,96.0852289 218.444051,96.0862289 218.433883,96.0862289 L185.561537,96.0862289 L199.489894,90.6082289 C200.971959,90.0242289 200.971959,89.0792289 199.489894,88.4962289 C198.005287,87.9132289 195.60297,87.9132289 194.120905,88.4962289 L171.030695,97.5792289 L174.826102,99.0732289 L194.120905,106.663229 C194.863209,106.954229 195.831762,107.101229 196.8054,107.101229 C197.776495,107.101229 198.750133,106.954229 199.489894,106.663229 C200.971959,106.079229 200.971959,105.134229 199.489894,104.551229 L185.561537,99.0732289 L230.44547,99.0732289 C230.453096,99.0732289 230.460723,99.0722289 230.470891,99.0722289 L263.343236,99.0722289 L249.41488,104.550229 C247.932815,105.134229 247.932815,106.079229 249.41488,106.662229 C250.899486,107.245229 253.301804,107.245229 254.783869,106.662229 L277.874079,97.5792289 L274.078672,96.0852289" id="Fill-25" fill="#EE6B47" sketch:type="MSShapeGroup" transform="translate(224.452387, 97.579729) rotate(-91.000000) translate(-224.452387, -97.579729) "></path>
            <path d="M408.414472,164.793761 L375.121164,157.203761 C373.840315,156.912761 372.16907,156.766761 370.489052,156.766761 C368.81342,156.766761 367.133402,156.912761 365.856939,157.203761 C363.299627,157.787761 363.299627,158.732761 365.856939,159.315761 L389.890409,164.793761 L312.442893,164.793761 C312.429734,164.793761 312.416574,164.794761 312.399028,164.794761 L255.677584,164.794761 L279.711053,159.316761 C282.268365,158.732761 282.268365,157.787761 279.711053,157.204761 C277.149355,156.621761 273.00414,156.621761 270.446828,157.204761 L230.604521,166.287761 L237.15352,167.781761 L270.446828,175.371761 C271.727678,175.662761 273.398923,175.809761 275.078941,175.809761 C276.754572,175.809761 278.43459,175.662761 279.711053,175.371761 C282.268365,174.787761 282.268365,173.842761 279.711053,173.259761 L255.677584,167.781761 L333.125099,167.781761 C333.138259,167.781761 333.151418,167.780761 333.168964,167.780761 L389.890409,167.780761 L365.856939,173.258761 C363.299627,173.842761 363.299627,174.787761 365.856939,175.370761 C368.418638,175.953761 372.563852,175.953761 375.121164,175.370761 L414.963472,166.287761 L408.414472,164.793761" id="Fill-26" fill="#EE6B47" sketch:type="MSShapeGroup" transform="translate(322.783996, 166.288261) rotate(-179.000000) translate(-322.783996, -166.288261) "></path>
            <text id="documentElement.clie" sketch:type="MSTextLayer" font-family="Consolas" font-size="14" font-weight="bold" fill="#8A704D">
                <tspan x="4" y="99">documentElement.clientHeight</tspan>
            </text>
            <text id="document.documentEle" sketch:type="MSTextLayer" font-family="Consolas" font-size="14" font-weight="bold" fill="#8A704D">
                <tspan x="253" y="198">document.documentElement.clientWidth</tspan>
            </text>
        </g>
    </g>
</svg>