<?xml version="1.0" encoding="UTF-8" standalone="no"?>
<svg width="550px" height="203px" viewBox="0 0 550 203" version="1.1" xmlns="http://www.w3.org/2000/svg" xmlns:xlink="http://www.w3.org/1999/xlink" xmlns:sketch="http://www.bohemiancoding.com/sketch/ns">
    <!-- Generator: bin/sketchtool 1.3 (252) - http://www.bohemiancoding.com/sketch -->
    <title>document-client-width-height.svg</title>
    <desc>Created with bin/sketchtool.</desc>
    <defs></defs>
    <g id="combined" stroke="none" stroke-width="1" fill="none" fill-rule="evenodd" sketch:type="MSPage">
        <g id="document-client-width-height.svg" sketch:type="MSArtboardGroup">
            <g id="noun_69008_cc" sketch:type="MSLayerGroup" transform="translate(276.000000, 8.000000)" fill="#E8C48E">
                <path d="M179.1875,145 L3.8125,145 C1.708,145 0,143.36875 0,141.375 L0,3.625 C0,1.63125 1.708,0 3.8125,0 L179.1875,0 C181.284375,0 183,1.63125 183,3.625 L183,141.375 C183,143.36875 181.284375,145 179.1875,145 L179.1875,145 Z M7.625,137.75 L175.375,137.75 L175.375,7.25 L7.625,7.25 L7.625,137.75 L7.625,137.75 Z" id="Shape" sketch:type="MSShapeGroup"></path>
                <path d="M175.375,36.25 L7.625,36.25 C5.5205,36.25 3.8125,34.61875 3.8125,32.625 C3.8125,30.63125 5.5205,29 7.625,29 L175.375,29 C177.471875,29 179.1875,30.63125 179.1875,32.625 C179.1875,34.61875 177.471875,36.25 175.375,36.25 L175.375,36.25 Z" id="Shape" sketch:type="MSShapeGroup"></path>
                <path d="M61.32025,126.57775 C60.0545,126.57775 58.811625,125.98325 58.08725,124.89575 L34.892,89.84925 C34.060875,88.57325 34.121875,86.97825 35.052125,85.7675 L58.247375,55.86125 C59.497875,54.23 61.876875,53.8965 63.57725,55.1145 C65.27,56.3035 65.636,58.57275 64.377875,60.18225 L42.7305,88.102 L64.538,121.05325 C65.658875,122.7425 65.125125,124.99 63.340875,126.04125 C62.72325,126.411 62.014125,126.57775 61.32025,126.57775 L61.32025,126.57775 Z" id="Shape" sketch:type="MSShapeGroup"></path>
                <path d="M122,126.57775 C121.306125,126.57775 120.597,126.411 119.97175,126.0195 C118.1875,124.961 117.646125,122.72075 118.774625,121.0315 L140.582125,88.08025 L118.927125,60.15325 C117.676625,58.5365 118.035,56.2745 119.72775,55.0855 C121.4205,53.88925 123.807125,54.23725 125.057625,55.84675 L148.24525,85.753 C149.183125,86.9565 149.244125,88.57325 148.405375,89.83475 L125.210125,124.88125 C124.501,125.98325 123.26575,126.57775 122,126.57775 L122,126.57775 Z" id="Shape" sketch:type="MSShapeGroup"></path>
                <path d="M76.25,119.93675 C75.617125,119.93675 74.98425,119.7845 74.3895,119.48 C72.551875,118.50125 71.896125,116.29725 72.9255,114.521 L103.10525,63.162 C104.134625,61.4075 106.445,60.77675 108.3055,61.79175 C110.1355,62.7705 110.79125,64.96725 109.761875,66.729 L79.582125,118.088 C78.880625,119.26975 77.584375,119.93675 76.25,119.93675 L76.25,119.93675 Z" id="Shape" sketch:type="MSShapeGroup"></path>
                <path d="M22.875,18.125 C22.875,20.1278125 21.1689062,21.75 19.0625,21.75 C16.9560938,21.75 15.25,20.1278125 15.25,18.125 C15.25,16.1221875 16.9560938,14.5 19.0625,14.5 C21.1689062,14.5 22.875,16.1221875 22.875,18.125 L22.875,18.125 Z" id="Shape" sketch:type="MSShapeGroup"></path>
                <path d="M38.125,18.125 C38.125,20.1278125 36.4189062,21.75 34.3125,21.75 C32.2060938,21.75 30.5,20.1278125 30.5,18.125 C30.5,16.1221875 32.2060938,14.5 34.3125,14.5 C36.4189062,14.5 38.125,16.1221875 38.125,18.125 L38.125,18.125 Z" id="Shape" sketch:type="MSShapeGroup"></path>
                <path d="M53.375,18.125 C53.375,20.1278125 51.6689062,21.75 49.5625,21.75 C47.4560938,21.75 45.75,20.1278125 45.75,18.125 C45.75,16.1221875 47.4560938,14.5 49.5625,14.5 C51.6689062,14.5 53.375,16.1221875 53.375,18.125 L53.375,18.125 Z" id="Shape" sketch:type="MSShapeGroup"></path>
            </g>
            <text id="documentElement.clie" sketch:type="MSTextLayer" font-family="Consolas" font-size="14" font-weight="bold" fill="#8A704D">
                <tspan x="19" y="89">documentElement.clientHeight</tspan>
            </text>
            <text id="document.documentEle" sketch:type="MSTextLayer" font-family="Consolas" font-size="14" font-weight="bold" fill="#8A704D">
                <tspan x="229" y="197">document.documentElement.clientWidth</tspan>
            </text>
            <path d="M457.012291,168.153273 L277.502296,168.153273" id="Line-3" stroke="#EE6B47" stroke-linecap="square" fill="#EE6B47" sketch:type="MSShapeGroup"></path>
            <path id="Line-3-decoration-1" d="M278.012291,168.153273 C281.792291,169.203273 285.032291,170.103273 288.812291,171.153273 C288.812291,169.053273 288.812291,167.253273 288.812291,165.153273 C285.032291,166.203273 281.792291,167.103273 278.012291,168.153273 C278.012291,168.153273 278.012291,168.153273 278.012291,168.153273 Z" stroke="#EE6B47" stroke-linecap="square" fill="#EE6B47"></path>
            <path id="Line-3-decoration-2" d="M456.212291,168.153273 C452.432291,169.203273 449.192291,170.103273 445.412291,171.153273 C445.412291,169.053273 445.412291,167.253273 445.412291,165.153273 C449.192291,166.203273 452.432291,167.103273 456.212291,168.153273 C456.212291,168.153273 456.212291,168.153273 456.212291,168.153273 Z" stroke="#EE6B47" stroke-linecap="square" fill="#EE6B47"></path>
            <path d="M257.5,151.012291 L257.5,14.5022964" id="Line" stroke="#EE6B47" stroke-linecap="square" fill="#EE6B47" sketch:type="MSShapeGroup"></path>
            <path id="Line-decoration-1" d="M257.5,15.012291 C256.45,18.792291 255.55,22.032291 254.5,25.812291 C256.6,25.812291 258.4,25.812291 260.5,25.812291 C259.45,22.032291 258.55,18.792291 257.5,15.012291 C257.5,15.012291 257.5,15.012291 257.5,15.012291 Z" stroke="#EE6B47" stroke-linecap="square" fill="#EE6B47"></path>
            <path id="Line-decoration-2" d="M257.5,150.212291 C256.45,146.432291 255.55,143.192291 254.5,139.412291 C256.6,139.412291 258.4,139.412291 260.5,139.412291 C259.45,143.192291 258.55,146.432291 257.5,150.212291 C257.5,150.212291 257.5,150.212291 257.5,150.212291 Z" stroke="#EE6B47" stroke-linecap="square" fill="#EE6B47"></path>
        </g>
    </g>
</svg>