<svg xmlns="http://www.w3.org/2000/svg" width="463" height="130" viewBox="0 0 463 130"><defs><style>@import url(https://fonts.googleapis.com/css?family=Open+Sans:bold,italic,bolditalic%7CPT+Mono);@font-face{font-family:&apos;PT Mono&apos;;font-weight:700;font-style:normal;src:local(&apos;PT MonoBold&apos;),url(/font/PTMonoBold.woff2) format(&apos;woff2&apos;),url(/font/PTMonoBold.woff) format(&apos;woff&apos;),url(/font/PTMonoBold.ttf) format(&apos;truetype&apos;)}</style></defs><g id="regexp" fill="none" fill-rule="evenodd" stroke="none" stroke-width="1"><g id="witch_lazy4.svg"><text id="a-&quot;witch&quot;-and-her-&quot;b" fill="#AF6E24" font-family="PTMono-Regular, PT Mono" font-size="22" font-weight="normal"><tspan x="20" y="105">a &quot;witch&quot; and her &quot;broom&quot; is one</tspan></text><path id="Rectangle-1" stroke="#DBAF88" d="M45.5 43.5h40v76h-40z"/><path id="--&quot;..&quot;--------------" fill="#A7333A" d="M52.004 53.441l-.328 5.496h-1.922l-.34-5.496h2.59zm4.559 0l-.329 5.496h-1.922l-.34-5.496h2.59zM66.09 66.31c.265 0 .517.05.756.152.238.102.445.242.62.422.177.18.315.388.417.627.101.238.152.494.152.767 0 .266-.05.516-.152.75a1.95 1.95 0 01-1.793 1.184c-.274 0-.527-.05-.762-.152a1.967 1.967 0 01-1.031-1.032 1.866 1.866 0 01-.152-.75c0-.273.05-.529.152-.767a2.02 2.02 0 01.416-.627 1.895 1.895 0 011.377-.574zm13.195 0c.266 0 .518.05.756.152s.445.242.621.422.315.388.416.627c.102.238.152.494.152.767 0 .266-.05.516-.152.75a1.95 1.95 0 01-1.793 1.184c-.273 0-.527-.05-.762-.152a1.967 1.967 0 01-1.03-1.032 1.866 1.866 0 01-.153-.75c0-.273.05-.529.152-.767a2.02 2.02 0 01.416-.627 1.895 1.895 0 011.377-.574z"/><path id="Path" fill="#478964" d="M91.59 53.441l-.328 5.496H89.34L89 53.441zM96.148 53.441l-.328 5.496h-1.922l-.34-5.496z"/><path id="Line" fill="#C06334" fill-rule="nonzero" d="M70 22.5l14 7-14 7-.001-6H46v-2h23.999l.001-6z"/></g></g></svg>