<svg xmlns="http://www.w3.org/2000/svg" width="453" height="129" viewBox="0 0 453 129"><defs><style>@import url(https://fonts.googleapis.com/css?family=Open+Sans:bold,italic,bolditalic%7CPT+Mono);@font-face{font-family:&apos;PT Mono&apos;;font-weight:700;font-style:normal;src:local(&apos;PT MonoBold&apos;),url(/font/PTMonoBold.woff2) format(&apos;woff2&apos;),url(/font/PTMonoBold.woff) format(&apos;woff&apos;),url(/font/PTMonoBold.ttf) format(&apos;truetype&apos;)}</style></defs><g id="v2" fill="none" fill-rule="evenodd" stroke="none" stroke-width="1"><g id="javascript-engine.svg"><g id="noun_Server_1653092" fill="#000" fill-rule="nonzero" opacity=".812" transform="translate(366 15)"><path id="Shape" d="M13 86a6 6 0 016-6h16a6 6 0 016 6v2h13V0H0v88h13v-2zm37-2h-5.2a10 10 0 00-1.8-4h7v4zM4 4h46v72H4V4zm5.2 80H4v-4h7a10 10 0 00-1.8 4z"/><path id="Rectangle" d="M12 10h30v4H12zM12 20h30v4H12zM12 30h30v4H12zM12 40h30v4H12zM12 50h30v4H12zM27 63h8v4h-8z"/><circle id="Oval" cx="14" cy="65" r="2"/><circle id="Oval" cx="22" cy="65" r="2"/><circle id="Oval" cx="40" cy="65" r="2"/></g><g id="noun_Coffee-Machine_1997833" fill="#000" fill-rule="nonzero" opacity=".812" transform="translate(187 15)"><path id="Shape" d="M88.577 0H5.423C2.428 0 0 2.63 0 5.875V23.5c0 3.245 2.428 5.875 5.423 5.875v48.958C2.428 78.333 0 80.963 0 84.208v3.917C0 91.37 2.428 94 5.423 94h83.154C91.572 94 94 91.37 94 88.125v-3.917c0-3.244-2.428-5.875-5.423-5.875V29.375c2.995 0 5.423-2.63 5.423-5.875V5.875C94 2.63 91.572 0 88.577 0zm1.808 84.208v3.917c0 1.082-.81 1.958-1.808 1.958H5.423c-.998 0-1.808-.876-1.808-1.958v-3.917c0-1.081.81-1.958 1.808-1.958h83.154c.998 0 1.808.877 1.808 1.958zm-56.039-11.75V56.792c0-2.163 1.619-3.917 3.616-3.917h18.076c1.997 0 3.616 1.754 3.616 3.917v15.666c0 3.245-2.428 5.875-5.423 5.875H39.769c-2.995 0-5.423-2.63-5.423-5.875zm50.616 5.875h-23.5a9.973 9.973 0 001.102-1.958c5.444-.252 9.739-5.103 9.744-11.006V63.9c0-6.028-4.469-10.94-10.033-11.025-1.287-2.415-3.662-3.907-6.237-3.917H37.962c-3.994 0-7.231 3.507-7.231 7.834v15.666c0 2.119.634 4.18 1.807 5.875h-23.5V29.375h75.924v48.958zM68.692 63.9v1.47c-.004 3.446-2.29 6.392-5.423 6.99V56.89c3.14.599 5.428 3.557 5.423 7.01zm21.693-40.4c0 1.082-.81 1.958-1.808 1.958H5.423c-.998 0-1.808-.876-1.808-1.958V5.875c0-1.082.81-1.958 1.808-1.958h83.154c.998 0 1.808.876 1.808 1.958V23.5z"/></g><g id="noun_Browser_1327494" fill="#000" fill-rule="nonzero" opacity=".812" transform="translate(14 16)"><g id="Group"><path id="Shape" d="M86 .523c1.105 0 2 1.294 2 2.889V87.19c0 1.595-.895 2.889-2 2.889H2c-1.105 0-2-1.294-2-2.89V3.413C0 1.817.895.523 2 .523h84zm-2 5.778H4v11.194h80V6.301zm0 16.972H4v61.028h80V23.273z"/><path id="Shape" d="M78.75 8.106c1.515 0 2.781 1.85 2.781 4.018 0 2.167-1.235 4.017-2.781 4.017s-2.781-1.85-2.781-4.017c0-2.168 1.266-4.018 2.781-4.018zm0 2.257c-.686 0-1.219.864-1.219 1.76 0 .897.564 1.761 1.219 1.761.655 0 1.219-.864 1.219-1.76 0-.897-.533-1.76-1.219-1.76zM63.625 8.106c1.5 0 2.812 1.85 2.812 4.018 0 2.167-1.281 4.017-2.812 4.017-1.546 0-2.781-1.85-2.781-4.017 0-2.168 1.266-4.018 2.781-4.018zm0 2.257c-.651 0-1.188.864-1.188 1.76 0 .897.567 1.761 1.188 1.761.655 0 1.219-.864 1.219-1.76 0-.897-.533-1.76-1.219-1.76zM71.187 8.106c1.516 0 2.782 1.85 2.782 4.018 0 2.167-1.235 4.017-2.782 4.017-1.53 0-2.78-1.85-2.78-4.017 0-2.168 1.28-4.018 2.78-4.018zm0 2.257c-.686 0-1.218.864-1.218 1.76 0 .897.563 1.761 1.218 1.761.621 0 1.22-.864 1.22-1.76 0-.897-.569-1.76-1.22-1.76z"/></g></g><text id="javascript-engine" fill="#8A704D" font-family="OpenSans-Regular, Open Sans" font-size="14" font-weight="normal"><tspan x="26.376" y="62">javascript</tspan> <tspan x="35.447" y="81">engine</tspan></text><text id="javascript-engine" fill="#8A704D" font-family="OpenSans-Bold, Open Sans" font-size="18" font-weight="bold"><tspan x="349.225" y="59">javascript</tspan> <tspan x="363.204" y="83">engine</tspan></text><text id="javascript-engine" fill="#8A704D" font-family="OpenSans-Bold, Open Sans" font-size="14" font-weight="bold"><tspan x="199.064" y="59">javascript</tspan> <tspan x="209.937" y="78">engine</tspan></text></g></g></svg>