<?xml version="1.0" encoding="UTF-8" standalone="no"?>
<svg width="440px" height="316px" viewBox="0 0 440 316" version="1.1" xmlns="http://www.w3.org/2000/svg" xmlns:xlink="http://www.w3.org/1999/xlink" xmlns:sketch="http://www.bohemiancoding.com/sketch/ns">
    <!-- Generator: bin/sketchtool 1.3 (252) - http://www.bohemiancoding.com/sketch -->
    <title>dom-links-elements.svg</title>
    <desc>Created with bin/sketchtool.</desc>
    <defs></defs>
    <g id="combined" stroke="none" stroke-width="1" fill="none" fill-rule="evenodd" sketch:type="MSPage">
        <g id="dom-links-elements.svg" sketch:type="MSArtboardGroup">
            <rect id="Rectangle-8" stroke="#E8C48E" stroke-width="4" fill="#FFF9EB" sketch:type="MSShapeGroup" x="128" y="9" width="200" height="30"></rect>
            <text id="document.documentEle" sketch:type="MSTextLayer" font-family="Consolas" font-size="14" font-weight="bold" sketch:alignment="middle" fill="#8A704D">
                <tspan x="136.632812" y="29">document.documentElement  </tspan>
            </text>
            <text id="Type-something" sketch:type="MSTextLayer" font-family="Consolas" font-size="14" font-weight="bold" sketch:alignment="middle" fill="#8A704D">
                <tspan x="335.408203" y="29">&lt;HTML&gt;</tspan>
            </text>
            <rect id="Rectangle-7" stroke="#E8C48E" stroke-width="4" fill="#FFF9EB" sketch:type="MSShapeGroup" x="162" y="77" width="119" height="30"></rect>
            <text id="document.body--" sketch:type="MSTextLayer" font-family="Consolas" font-size="14" font-weight="bold" sketch:alignment="middle" fill="#8A704D">
                <tspan x="170.967773" y="95">document.body  </tspan>
            </text>
            <text id="Type-something" sketch:type="MSTextLayer" font-family="Consolas" font-size="14" font-weight="bold" sketch:alignment="middle" fill="#8A704D">
                <tspan x="289.224609" y="95">(если внутри body)</tspan>
            </text>
            <path d="M221.5,74.5 L221.5,44.5" id="Line-4" stroke="#EE6B47" stroke-width="2" stroke-linecap="square" fill="#EE6B47" sketch:type="MSShapeGroup"></path>
            <path id="Line-4-decoration-1" d="M221.5,44.5 C220.45,48.28 219.55,51.52 218.5,55.3 C220.6,55.3 222.4,55.3 224.5,55.3 C223.45,51.52 222.55,48.28 221.5,44.5 C221.5,44.5 221.5,44.5 221.5,44.5 Z" stroke="#EE6B47" stroke-width="2" stroke-linecap="square" fill="#EE6B47"></path>
            <path d="M233.2715,139.2195 C233.9275,139.2195 234.4565,139.7755 234.4565,140.4575 C234.4565,141.1385 233.9275,141.6935 233.2455,141.6935 C232.5895,141.6935 232.0595,141.1385 232.0595,140.4575 C232.0595,139.7755 232.5895,139.2195 233.2715,139.2195 L233.2715,139.2195 Z M231.1755,144.6715 C230.4935,144.6715 229.9645,144.1165 229.9645,143.4345 C229.9645,142.7535 230.4935,142.1985 231.1515,142.1985 C231.8325,142.1985 232.3625,142.7535 232.3625,143.4345 C232.3625,144.1165 231.8325,144.6715 231.1755,144.6715 L231.1755,144.6715 Z M231.1755,136.2415 C231.8325,136.2415 232.3625,136.7975 232.3625,137.4785 C232.3625,138.1605 231.8325,138.7155 231.1515,138.7155 C230.4935,138.7155 229.9645,138.1605 229.9645,137.4785 C229.9645,136.7975 230.4935,136.2415 231.1755,136.2415 L231.1755,136.2415 Z M229.6615,139.2955 C230.3185,139.2955 230.8475,139.8505 230.8475,140.5325 C230.8475,141.1885 230.3185,141.7435 229.6365,141.7435 C228.9805,141.7435 228.4495,141.1885 228.4495,140.5075 C228.4495,139.8505 228.9805,139.2955 229.6615,139.2955 L229.6615,139.2955 Z M229.0815,147.6495 C228.4245,147.6495 227.8695,147.0945 227.8695,146.4135 C227.8695,145.7315 228.4005,145.2015 229.0565,145.2015 C229.7375,145.2015 230.2675,145.7315 230.2675,146.4135 C230.2675,147.0945 229.7375,147.6495 229.0815,147.6495 L229.0815,147.6495 Z M229.0815,133.2635 C229.7375,133.2635 230.2675,133.8195 230.2675,134.5005 C230.2675,135.1815 229.7375,135.7375 229.0565,135.7375 C228.4005,135.7375 227.8695,135.1815 227.8695,134.5005 C227.8695,133.8195 228.4245,133.2635 229.0815,133.2635 L229.0815,133.2635 Z M226.9875,150.6275 C226.3305,150.6275 225.7755,150.0725 225.7755,149.3905 C225.7755,148.7105 226.3045,148.1795 226.9605,148.1795 C227.6425,148.1795 228.1725,148.7105 228.1725,149.3905 C228.1725,150.0725 227.6425,150.6275 226.9875,150.6275 L226.9875,150.6275 Z M226.9875,130.2855 C227.6425,130.2855 228.1725,130.8415 228.1725,131.5225 C228.1725,132.2035 227.6425,132.7595 226.9605,132.7595 C226.3045,132.7595 225.7755,132.2035 225.7755,131.5225 C225.7755,130.8415 226.3305,130.2855 226.9875,130.2855 L226.9875,130.2855 Z M226.0015,139.2955 C226.6575,139.2955 227.1885,139.8505 227.1885,140.5325 C227.1885,141.1885 226.6575,141.7435 225.9775,141.7435 C225.3215,141.7435 224.7905,141.1885 224.7905,140.5075 C224.7905,139.8505 225.3465,139.2955 226.0015,139.2955 L226.0015,139.2955 Z M222.3675,139.2955 C223.0245,139.2955 223.5545,139.8505 223.5545,140.5325 C223.5545,141.1885 222.9985,141.7435 222.3425,141.7435 C221.6865,141.7435 221.1305,141.1885 221.1305,140.5075 C221.1305,139.8505 221.6865,139.2955 222.3675,139.2955 L222.3675,139.2955 Z M218.7085,139.2955 C219.3645,139.2955 219.8945,139.8505 219.8945,140.5325 C219.8945,141.1885 219.3645,141.7435 218.6835,141.7435 C218.0275,141.7435 217.4965,141.1885 217.4965,140.5075 C217.4965,139.8505 218.0275,139.2955 218.7085,139.2955 L218.7085,139.2955 Z M215.0485,139.2955 C215.7045,139.2955 216.2355,139.8505 216.2355,140.5325 C216.2355,141.1885 215.7045,141.7435 215.0235,141.7435 C214.3665,141.7435 213.8365,141.1885 213.8365,140.5075 C213.8365,139.8505 214.3925,139.2955 215.0485,139.2955 L215.0485,139.2955 Z M211.4145,139.2955 C212.0705,139.2955 212.6005,139.8505 212.6005,140.5325 C212.6005,141.1885 212.0455,141.7435 211.3885,141.7435 C210.7335,141.7435 210.1775,141.1885 210.1775,140.5075 C210.1775,139.8505 210.7335,139.2955 211.4145,139.2955 L211.4145,139.2955 Z M207.7545,139.2955 C208.4105,139.2955 208.9415,139.8505 208.9415,140.5325 C208.9415,141.1885 208.4105,141.7435 207.7295,141.7435 C207.0735,141.7435 206.5435,141.1885 206.5435,140.5075 C206.5435,139.8505 207.0735,139.2955 207.7545,139.2955 L207.7545,139.2955 Z" id="Fill-7" fill="#EE6B47" sketch:type="MSShapeGroup" transform="translate(220.500000, 140.456500) rotate(-90.000000) translate(-220.500000, -140.456500) "></path>
            <path d="M14.5,115 L427,115" id="Line-5" stroke="#8A704D" stroke-width="2" stroke-linecap="square" sketch:type="MSShapeGroup"></path>
            <text id="parentElement" sketch:type="MSTextLayer" font-family="Consolas" font-size="14" font-weight="bold">
                <tspan x="175" y="172" fill="#8A704D">parent</tspan>
                <tspan x="221.183594" y="172" fill="#EE6B47">Element</tspan>
            </text>
            <rect id="Rectangle-6" stroke="#E8C48E" stroke-width="4" fill="#FFF9EB" sketch:type="MSShapeGroup" x="179" y="212" width="82" height="30"></rect>
            <text id="&lt;DIV&gt;" sketch:type="MSTextLayer" font-family="Open Sans" font-size="14" font-weight="526" sketch:alignment="middle" fill="#8A704D">
                <tspan x="201.051859" y="232">&lt;DIV&gt;</tspan>
            </text>
            <path d="M220.5,207.5 L220.5,181.5" id="Line-6" stroke="#EE6B47" stroke-width="3" stroke-linecap="square" fill="#EE6B47" sketch:type="MSShapeGroup"></path>
            <path id="Line-6-decoration-1" d="M220.5,181.5 C219.45,185.28 218.55,188.52 217.5,192.3 C219.6,192.3 221.4,192.3 223.5,192.3 C222.45,188.52 221.55,185.28 220.5,181.5 C220.5,181.5 220.5,181.5 220.5,181.5 Z" stroke="#EE6B47" stroke-width="3" stroke-linecap="square" fill="#EE6B47"></path>
            <path d="M267.5,226.5 L427,226.5" id="Line-7" stroke="#EE6B47" stroke-width="3" stroke-linecap="square" fill="#EE6B47" sketch:type="MSShapeGroup"></path>
            <path id="Line-7-decoration-1" d="M426.5,226.5 C422.72,225.45 419.48,224.55 415.7,223.5 C415.7,225.6 415.7,227.4 415.7,229.5 C419.48,228.45 422.72,227.55 426.5,226.5 C426.5,226.5 426.5,226.5 426.5,226.5 Z" stroke="#EE6B47" stroke-width="3" stroke-linecap="square" fill="#EE6B47"></path>
            <text id="nextElementSibling" sketch:type="MSTextLayer" font-family="Consolas" font-size="14" font-weight="bold">
                <tspan x="276" y="212" fill="#8A704D">next</tspan>
                <tspan x="306.789062" y="212" fill="#EE6B47">Element</tspan>
                <tspan x="360.669922" y="212" fill="#8A704D">Sibling</tspan>
            </text>
            <path d="M168,226.5 L12,226.5" id="Line-8" stroke="#EE6B47" stroke-width="3" stroke-linecap="square" fill="#EE6B47" sketch:type="MSShapeGroup"></path>
            <path id="Line-8-decoration-1" d="M12,226.5 C15.78,227.55 19.02,228.45 22.8,229.5 C22.8,227.4 22.8,225.6 22.8,223.5 C19.02,224.55 15.78,225.45 12,226.5 C12,226.5 12,226.5 12,226.5 Z" stroke="#EE6B47" stroke-width="3" stroke-linecap="square" fill="#EE6B47"></path>
            <text id="previousElementSibli" sketch:type="MSTextLayer" font-family="Consolas" font-size="14" font-weight="bold">
                <tspan x="6" y="212" fill="#8A704D">previous</tspan>
                <tspan x="67.578125" y="212" fill="#EE6B47">Element</tspan>
                <tspan x="121.458984" y="212" fill="#8A704D">Sibling</tspan>
            </text>
            <path d="M116.5,285.5 L174.5,249.5" id="Line" stroke="#EE6B47" stroke-width="2" stroke-linecap="square" sketch:type="MSShapeGroup"></path>
            <path d="M325,286 L269.5,249.5" id="Line-3" stroke="#EE6B47" stroke-width="2" stroke-linecap="square" sketch:type="MSShapeGroup"></path>
            <text id="children" sketch:type="MSTextLayer" font-family="Consolas" font-size="14" font-weight="bold" fill="#EE6B47">
                <tspan x="188" y="273">children</tspan>
            </text>
            <text id="firstElementChild--" sketch:type="MSTextLayer" font-family="Consolas" font-size="14" font-weight="bold">
                <tspan x="43" y="307" fill="#8A704D">first</tspan>
                <tspan x="81.4863281" y="307" fill="#EE6B47">Element</tspan>
                <tspan x="135.367188" y="307" fill="#8A704D">Child  </tspan>
            </text>
            <text id="lastElementChild" sketch:type="MSTextLayer" font-family="Consolas" font-size="14" font-weight="bold">
                <tspan x="273" y="307" fill="#8A704D">last</tspan>
                <tspan x="303.789062" y="307" fill="#EE6B47">Element</tspan>
                <tspan x="357.669922" y="307" fill="#8A704D">Child</tspan>
            </text>
        </g>
    </g>
</svg>