<?xml version="1.0" encoding="UTF-8" standalone="no"?>
<svg width="420px" height="368px" viewBox="0 0 420 368" version="1.1" xmlns="http://www.w3.org/2000/svg" xmlns:xlink="http://www.w3.org/1999/xlink" xmlns:sketch="http://www.bohemiancoding.com/sketch/ns">
    <!-- Generator: bin/sketchtool 1.3 (252) - http://www.bohemiancoding.com/sketch -->
    <title>dom-links.svg</title>
    <desc>Created with bin/sketchtool.</desc>
    <defs></defs>
    <g id="combined" stroke="none" stroke-width="1" fill="none" fill-rule="evenodd" sketch:type="MSPage">
        <g id="dom-links.svg" sketch:type="MSArtboardGroup">
            <rect id="Rectangle-9" stroke="#707175" stroke-width="2" fill="#EBEBEB" sketch:type="MSShapeGroup" x="153" y="2" width="113" height="24"></rect>
            <rect id="Rectangle-7" stroke="#707175" stroke-width="2" fill="#EBEBEB" sketch:type="MSShapeGroup" x="153" y="136" width="113" height="24"></rect>
            <rect id="Rectangle-8" stroke="#707175" stroke-width="2" fill="#EBEBEB" sketch:type="MSShapeGroup" x="119" y="68" width="194" height="24"></rect>
            <text id="document" sketch:type="MSTextLayer" font-family="Consolas" font-size="14" font-weight="bold" sketch:alignment="middle" fill="#8A704D">
                <tspan x="177.710938" y="18">document</tspan>
            </text>
            <text id="document.documentEle" sketch:type="MSTextLayer" font-family="Consolas" font-size="14" font-weight="bold" sketch:alignment="middle" fill="#8A704D">
                <tspan x="125.692383" y="85">document.documentElement &lt;HTML&gt;</tspan>
            </text>
            <text id="document.body-(если-" sketch:type="MSTextLayer" font-family="Consolas" font-size="14" font-weight="bold" sketch:alignment="middle" fill="#8A704D">
                <tspan x="160.84375" y="153">document.body (если внутри body)</tspan>
            </text>
            <path d="M209.5,130.5 L209.5,100.5" id="Line" stroke="#EE6B47" stroke-width="2" stroke-linecap="square" fill="#EE6B47" sketch:type="MSShapeGroup"></path>
            <path id="Line-decoration-1" d="M209.5,100.5 C208.45,104.28 207.55,107.52 206.5,111.3 C208.6,111.3 210.4,111.3 212.5,111.3 C211.45,107.52 210.55,104.28 209.5,100.5 C209.5,100.5 209.5,100.5 209.5,100.5 Z" stroke="#EE6B47" stroke-width="2" stroke-linecap="square" fill="#EE6B47"></path>
            <path d="M221.2715,195.2195 C221.9275,195.2195 222.4565,195.7755 222.4565,196.4575 C222.4565,197.1385 221.9275,197.6935 221.2455,197.6935 C220.5895,197.6935 220.0595,197.1385 220.0595,196.4575 C220.0595,195.7755 220.5895,195.2195 221.2715,195.2195 L221.2715,195.2195 Z M219.1755,200.6715 C218.4935,200.6715 217.9645,200.1165 217.9645,199.4345 C217.9645,198.7535 218.4935,198.1985 219.1515,198.1985 C219.8325,198.1985 220.3625,198.7535 220.3625,199.4345 C220.3625,200.1165 219.8325,200.6715 219.1755,200.6715 L219.1755,200.6715 Z M219.1755,192.2415 C219.8325,192.2415 220.3625,192.7975 220.3625,193.4785 C220.3625,194.1605 219.8325,194.7155 219.1515,194.7155 C218.4935,194.7155 217.9645,194.1605 217.9645,193.4785 C217.9645,192.7975 218.4935,192.2415 219.1755,192.2415 L219.1755,192.2415 Z M217.6615,195.2955 C218.3185,195.2955 218.8475,195.8505 218.8475,196.5325 C218.8475,197.1885 218.3185,197.7435 217.6365,197.7435 C216.9805,197.7435 216.4495,197.1885 216.4495,196.5075 C216.4495,195.8505 216.9805,195.2955 217.6615,195.2955 L217.6615,195.2955 Z M217.0815,203.6495 C216.4245,203.6495 215.8695,203.0945 215.8695,202.4135 C215.8695,201.7315 216.4005,201.2015 217.0565,201.2015 C217.7375,201.2015 218.2675,201.7315 218.2675,202.4135 C218.2675,203.0945 217.7375,203.6495 217.0815,203.6495 L217.0815,203.6495 Z M217.0815,189.2635 C217.7375,189.2635 218.2675,189.8195 218.2675,190.5005 C218.2675,191.1815 217.7375,191.7375 217.0565,191.7375 C216.4005,191.7375 215.8695,191.1815 215.8695,190.5005 C215.8695,189.8195 216.4245,189.2635 217.0815,189.2635 L217.0815,189.2635 Z M214.9875,206.6275 C214.3305,206.6275 213.7755,206.0725 213.7755,205.3905 C213.7755,204.7105 214.3045,204.1795 214.9605,204.1795 C215.6425,204.1795 216.1725,204.7105 216.1725,205.3905 C216.1725,206.0725 215.6425,206.6275 214.9875,206.6275 L214.9875,206.6275 Z M214.9875,186.2855 C215.6425,186.2855 216.1725,186.8415 216.1725,187.5225 C216.1725,188.2035 215.6425,188.7595 214.9605,188.7595 C214.3045,188.7595 213.7755,188.2035 213.7755,187.5225 C213.7755,186.8415 214.3305,186.2855 214.9875,186.2855 L214.9875,186.2855 Z M214.0015,195.2955 C214.6575,195.2955 215.1885,195.8505 215.1885,196.5325 C215.1885,197.1885 214.6575,197.7435 213.9775,197.7435 C213.3215,197.7435 212.7905,197.1885 212.7905,196.5075 C212.7905,195.8505 213.3465,195.2955 214.0015,195.2955 L214.0015,195.2955 Z M210.3675,195.2955 C211.0245,195.2955 211.5545,195.8505 211.5545,196.5325 C211.5545,197.1885 210.9985,197.7435 210.3425,197.7435 C209.6865,197.7435 209.1305,197.1885 209.1305,196.5075 C209.1305,195.8505 209.6865,195.2955 210.3675,195.2955 L210.3675,195.2955 Z M206.7085,195.2955 C207.3645,195.2955 207.8945,195.8505 207.8945,196.5325 C207.8945,197.1885 207.3645,197.7435 206.6835,197.7435 C206.0275,197.7435 205.4965,197.1885 205.4965,196.5075 C205.4965,195.8505 206.0275,195.2955 206.7085,195.2955 L206.7085,195.2955 Z M203.0485,195.2955 C203.7045,195.2955 204.2355,195.8505 204.2355,196.5325 C204.2355,197.1885 203.7045,197.7435 203.0235,197.7435 C202.3665,197.7435 201.8365,197.1885 201.8365,196.5075 C201.8365,195.8505 202.3925,195.2955 203.0485,195.2955 L203.0485,195.2955 Z M199.4145,195.2955 C200.0705,195.2955 200.6005,195.8505 200.6005,196.5325 C200.6005,197.1885 200.0455,197.7435 199.3885,197.7435 C198.7335,197.7435 198.1775,197.1885 198.1775,196.5075 C198.1775,195.8505 198.7335,195.2955 199.4145,195.2955 L199.4145,195.2955 Z M195.7545,195.2955 C196.4105,195.2955 196.9415,195.8505 196.9415,196.5325 C196.9415,197.1885 196.4105,197.7435 195.7295,197.7435 C195.0735,197.7435 194.5435,197.1885 194.5435,196.5075 C194.5435,195.8505 195.0735,195.2955 195.7545,195.2955 L195.7545,195.2955 Z" id="Fill-7" fill="#EE6B47" sketch:type="MSShapeGroup" transform="translate(208.500000, 196.456500) rotate(-90.000000) translate(-208.500000, -196.456500) "></path>
            <path d="M209.5,62.5 L209.5,32.5" id="Line-2" stroke="#EE6B47" stroke-width="2" stroke-linecap="square" fill="#EE6B47" sketch:type="MSShapeGroup"></path>
            <path id="Line-2-decoration-1" d="M209.5,32.5 C208.45,36.28 207.55,39.52 206.5,43.3 C208.6,43.3 210.4,43.3 212.5,43.3 C211.45,39.52 210.55,36.28 209.5,32.5 C209.5,32.5 209.5,32.5 209.5,32.5 Z" stroke="#EE6B47" stroke-width="2" stroke-linecap="square" fill="#EE6B47"></path>
            <path d="M2.5,171 L415,171" id="Line" stroke="#8A704D" stroke-width="2" stroke-linecap="square" sketch:type="MSShapeGroup"></path>
            <text id="parentNode" sketch:type="MSTextLayer" font-family="Consolas" font-size="14" font-weight="bold" fill="#8A704D">
                <tspan x="172" y="228">parentNode</tspan>
            </text>
            <rect id="Rectangle-6" stroke="#707175" stroke-width="2" fill="#EBEBEB" sketch:type="MSShapeGroup" x="171" y="271" width="75" height="24"></rect>
            <text id="&lt;DIV&gt;" sketch:type="MSTextLayer" font-family="Open Sans" font-size="14" font-weight="526" sketch:alignment="middle" fill="#8A704D">
                <tspan x="189.051859" y="288">&lt;DIV&gt;</tspan>
            </text>
            <path d="M208.5,263.5 L208.5,237.5" id="Line" stroke="#EE6B47" stroke-width="3" stroke-linecap="square" fill="#EE6B47" sketch:type="MSShapeGroup"></path>
            <path id="Line-decoration-1" d="M208.5,237.5 C207.45,241.28 206.55,244.52 205.5,248.3 C207.6,248.3 209.4,248.3 211.5,248.3 C210.45,244.52 209.55,241.28 208.5,237.5 C208.5,237.5 208.5,237.5 208.5,237.5 Z" stroke="#EE6B47" stroke-width="3" stroke-linecap="square" fill="#EE6B47"></path>
            <path d="M255.5,282.5 L368,282.5" id="Line" stroke="#EE6B47" stroke-width="3" stroke-linecap="square" fill="#EE6B47" sketch:type="MSShapeGroup"></path>
            <path id="Line-decoration-1" d="M367.5,282.5 C363.72,281.45 360.48,280.55 356.7,279.5 C356.7,281.6 356.7,283.4 356.7,285.5 C360.48,284.45 363.72,283.55 367.5,282.5 C367.5,282.5 367.5,282.5 367.5,282.5 Z" stroke="#EE6B47" stroke-width="3" stroke-linecap="square" fill="#EE6B47"></path>
            <text id="nextSibling" sketch:type="MSTextLayer" font-family="Consolas" font-size="14" font-weight="bold" fill="#8A704D">
                <tspan x="264" y="268">nextSibling</tspan>
            </text>
            <path d="M164.5,282.5 L50,282.5" id="Line" stroke="#EE6B47" stroke-width="3" stroke-linecap="square" fill="#EE6B47" sketch:type="MSShapeGroup"></path>
            <path id="Line-decoration-1" d="M50.5,282.5 C54.28,283.55 57.52,284.45 61.3,285.5 C61.3,283.4 61.3,281.6 61.3,279.5 C57.52,280.55 54.28,281.45 50.5,282.5 C50.5,282.5 50.5,282.5 50.5,282.5 Z" stroke="#EE6B47" stroke-width="3" stroke-linecap="square" fill="#EE6B47"></path>
            <text id="previousSibling" sketch:type="MSTextLayer" font-family="Consolas" font-size="14" font-weight="bold" fill="#8A704D">
                <tspan x="50" y="268">previousSibling</tspan>
            </text>
            <path d="M104.5,341.5 L162.5,305.5" id="Line" stroke="#EE6B47" stroke-width="2" stroke-linecap="square" sketch:type="MSShapeGroup"></path>
            <path d="M313,342 L257.5,305.5" id="Line-3" stroke="#EE6B47" stroke-width="2" stroke-linecap="square" sketch:type="MSShapeGroup"></path>
            <text id="childNodes" sketch:type="MSTextLayer" font-family="Consolas" font-size="14" font-weight="bold" fill="#8A704D">
                <tspan x="170" y="323">childNodes</tspan>
            </text>
            <text id="firstChild--" sketch:type="MSTextLayer" font-family="Consolas" font-size="14" font-weight="bold" fill="#8A704D">
                <tspan x="64" y="359">firstChild  </tspan>
            </text>
            <text id="Type-something" sketch:type="MSTextLayer" font-family="Consolas" font-size="14" font-weight="bold" fill="#8A704D">
                <tspan x="279" y="359">lastChild</tspan>
            </text>
        </g>
    </g>
</svg>