<?xml version="1.0" encoding="UTF-8" standalone="no"?>
<svg width="415px" height="346px" viewBox="0 0 415 346" version="1.1" xmlns="http://www.w3.org/2000/svg" xmlns:xlink="http://www.w3.org/1999/xlink" xmlns:sketch="http://www.bohemiancoding.com/sketch/ns">
    <!-- Generator: Sketch 3.2.2 (9983) - http://www.bohemiancoding.com/sketch -->
    <title>dom-links</title>
    <desc>Created with Sketch.</desc>
    <defs></defs>
    <g id="combined" stroke="none" stroke-width="1" fill="none" fill-rule="evenodd" sketch:type="MSPage">
        <g id="dom-links" sketch:type="MSArtboardGroup" transform="translate(-133.000000, -2.000000)">
            <text id="document" sketch:type="MSTextLayer" font-family="Consolas" font-size="14" font-weight="bold" sketch:alignment="middle" fill="#8A704D">
                <tspan x="309.710938" y="18">document</tspan>
            </text>
            <text id="document.documentEle" sketch:type="MSTextLayer" font-family="Consolas" font-size="14" font-weight="bold" sketch:alignment="middle" fill="#8A704D">
                <tspan x="257.692383" y="85">document.documentElement &lt;HTML&gt;</tspan>
            </text>
            <text id="document.body-(если-" sketch:type="MSTextLayer" font-family="Consolas" font-size="14" font-weight="bold" sketch:alignment="middle" fill="#8A704D">
                <tspan x="292.84375" y="153">document.body (если внутри body)</tspan>
            </text>
            <path d="M341.5,130.5 L341.5,100.5" id="Line" stroke="#EE6B47" stroke-width="2" stroke-linecap="square" fill="#EE6B47" sketch:type="MSShapeGroup"></path>
            <path id="Line-decoration-1" d="M341.5,100.5 C340.45,104.28 339.55,107.52 338.5,111.3 C340.6,111.3 342.4,111.3 344.5,111.3 C343.45,107.52 342.55,104.28 341.5,100.5 C341.5,100.5 341.5,100.5 341.5,100.5 Z" stroke="#EE6B47" stroke-width="2" stroke-linecap="square" fill="#EE6B47"></path>
            <path d="M353.2715,195.2195 C353.9275,195.2195 354.4565,195.7755 354.4565,196.4575 C354.4565,197.1385 353.9275,197.6935 353.2455,197.6935 C352.5895,197.6935 352.0595,197.1385 352.0595,196.4575 C352.0595,195.7755 352.5895,195.2195 353.2715,195.2195 L353.2715,195.2195 Z M351.1755,200.6715 C350.4935,200.6715 349.9645,200.1165 349.9645,199.4345 C349.9645,198.7535 350.4935,198.1985 351.1515,198.1985 C351.8325,198.1985 352.3625,198.7535 352.3625,199.4345 C352.3625,200.1165 351.8325,200.6715 351.1755,200.6715 L351.1755,200.6715 Z M351.1755,192.2415 C351.8325,192.2415 352.3625,192.7975 352.3625,193.4785 C352.3625,194.1605 351.8325,194.7155 351.1515,194.7155 C350.4935,194.7155 349.9645,194.1605 349.9645,193.4785 C349.9645,192.7975 350.4935,192.2415 351.1755,192.2415 L351.1755,192.2415 Z M349.6615,195.2955 C350.3185,195.2955 350.8475,195.8505 350.8475,196.5325 C350.8475,197.1885 350.3185,197.7435 349.6365,197.7435 C348.9805,197.7435 348.4495,197.1885 348.4495,196.5075 C348.4495,195.8505 348.9805,195.2955 349.6615,195.2955 L349.6615,195.2955 Z M349.0815,203.6495 C348.4245,203.6495 347.8695,203.0945 347.8695,202.4135 C347.8695,201.7315 348.4005,201.2015 349.0565,201.2015 C349.7375,201.2015 350.2675,201.7315 350.2675,202.4135 C350.2675,203.0945 349.7375,203.6495 349.0815,203.6495 L349.0815,203.6495 Z M349.0815,189.2635 C349.7375,189.2635 350.2675,189.8195 350.2675,190.5005 C350.2675,191.1815 349.7375,191.7375 349.0565,191.7375 C348.4005,191.7375 347.8695,191.1815 347.8695,190.5005 C347.8695,189.8195 348.4245,189.2635 349.0815,189.2635 L349.0815,189.2635 Z M346.9875,206.6275 C346.3305,206.6275 345.7755,206.0725 345.7755,205.3905 C345.7755,204.7105 346.3045,204.1795 346.9605,204.1795 C347.6425,204.1795 348.1725,204.7105 348.1725,205.3905 C348.1725,206.0725 347.6425,206.6275 346.9875,206.6275 L346.9875,206.6275 Z M346.9875,186.2855 C347.6425,186.2855 348.1725,186.8415 348.1725,187.5225 C348.1725,188.2035 347.6425,188.7595 346.9605,188.7595 C346.3045,188.7595 345.7755,188.2035 345.7755,187.5225 C345.7755,186.8415 346.3305,186.2855 346.9875,186.2855 L346.9875,186.2855 Z M346.0015,195.2955 C346.6575,195.2955 347.1885,195.8505 347.1885,196.5325 C347.1885,197.1885 346.6575,197.7435 345.9775,197.7435 C345.3215,197.7435 344.7905,197.1885 344.7905,196.5075 C344.7905,195.8505 345.3465,195.2955 346.0015,195.2955 L346.0015,195.2955 Z M342.3675,195.2955 C343.0245,195.2955 343.5545,195.8505 343.5545,196.5325 C343.5545,197.1885 342.9985,197.7435 342.3425,197.7435 C341.6865,197.7435 341.1305,197.1885 341.1305,196.5075 C341.1305,195.8505 341.6865,195.2955 342.3675,195.2955 L342.3675,195.2955 Z M338.7085,195.2955 C339.3645,195.2955 339.8945,195.8505 339.8945,196.5325 C339.8945,197.1885 339.3645,197.7435 338.6835,197.7435 C338.0275,197.7435 337.4965,197.1885 337.4965,196.5075 C337.4965,195.8505 338.0275,195.2955 338.7085,195.2955 L338.7085,195.2955 Z M335.0485,195.2955 C335.7045,195.2955 336.2355,195.8505 336.2355,196.5325 C336.2355,197.1885 335.7045,197.7435 335.0235,197.7435 C334.3665,197.7435 333.8365,197.1885 333.8365,196.5075 C333.8365,195.8505 334.3925,195.2955 335.0485,195.2955 L335.0485,195.2955 Z M331.4145,195.2955 C332.0705,195.2955 332.6005,195.8505 332.6005,196.5325 C332.6005,197.1885 332.0455,197.7435 331.3885,197.7435 C330.7335,197.7435 330.1775,197.1885 330.1775,196.5075 C330.1775,195.8505 330.7335,195.2955 331.4145,195.2955 L331.4145,195.2955 Z M327.7545,195.2955 C328.4105,195.2955 328.9415,195.8505 328.9415,196.5325 C328.9415,197.1885 328.4105,197.7435 327.7295,197.7435 C327.0735,197.7435 326.5435,197.1885 326.5435,196.5075 C326.5435,195.8505 327.0735,195.2955 327.7545,195.2955 L327.7545,195.2955 Z" id="Fill-7" fill="#EE6B47" sketch:type="MSShapeGroup" transform="translate(340.500000, 196.456500) rotate(-90.000000) translate(-340.500000, -196.456500) "></path>
            <path d="M341.5,62.5 L341.5,32.5" id="Line-2" stroke="#EE6B47" stroke-width="2" stroke-linecap="square" fill="#EE6B47" sketch:type="MSShapeGroup"></path>
            <path id="Line-2-decoration-1" d="M341.5,32.5 C340.45,36.28 339.55,39.52 338.5,43.3 C340.6,43.3 342.4,43.3 344.5,43.3 C343.45,39.52 342.55,36.28 341.5,32.5 C341.5,32.5 341.5,32.5 341.5,32.5 Z" stroke="#EE6B47" stroke-width="2" stroke-linecap="square" fill="#EE6B47"></path>
            <path d="M134.5,171 L547,171" id="Line" stroke="#8A704D" stroke-width="2" stroke-linecap="square" sketch:type="MSShapeGroup"></path>
            <text id="parentNode" sketch:type="MSTextLayer" font-family="Consolas" font-size="14" font-weight="bold" fill="#8A704D">
                <tspan x="304" y="228">parentNode</tspan>
            </text>
            <rect id="Rectangle-6" stroke="#BCA68E" stroke-width="2" sketch:type="MSShapeGroup" x="303" y="271" width="75" height="24"></rect>
            <rect id="Rectangle-7" stroke="#BCA68E" stroke-width="2" sketch:type="MSShapeGroup" x="285" y="136" width="113" height="24"></rect>
            <rect id="Rectangle-9" stroke="#BCA68E" stroke-width="2" sketch:type="MSShapeGroup" x="285" y="2" width="113" height="24"></rect>
            <rect id="Rectangle-8" stroke="#BCA68E" stroke-width="2" sketch:type="MSShapeGroup" x="251" y="68" width="194" height="24"></rect>
            <text id="&lt;DIV&gt;" sketch:type="MSTextLayer" font-family="Open Sans" font-size="14" font-weight="526" sketch:alignment="middle" fill="#8A704D">
                <tspan x="321.051859" y="288">&lt;DIV&gt;</tspan>
            </text>
            <path d="M340.5,263.5 L340.5,237.5" id="Line" stroke="#EE6B47" stroke-width="2" stroke-linecap="square" fill="#EE6B47" sketch:type="MSShapeGroup"></path>
            <path id="Line-decoration-1" d="M340.5,237.5 C339.45,241.28 338.55,244.52 337.5,248.3 C339.6,248.3 341.4,248.3 343.5,248.3 C342.45,244.52 341.55,241.28 340.5,237.5 C340.5,237.5 340.5,237.5 340.5,237.5 Z" stroke="#EE6B47" stroke-width="2" stroke-linecap="square" fill="#EE6B47"></path>
            <path d="M387.5,282.5 L500,282.5" id="Line" stroke="#EE6B47" stroke-width="2" stroke-linecap="square" fill="#EE6B47" sketch:type="MSShapeGroup"></path>
            <path id="Line-decoration-1" d="M499.5,282.5 C495.72,281.45 492.48,280.55 488.7,279.5 C488.7,281.6 488.7,283.4 488.7,285.5 C492.48,284.45 495.72,283.55 499.5,282.5 C499.5,282.5 499.5,282.5 499.5,282.5 Z" stroke="#EE6B47" stroke-width="2" stroke-linecap="square" fill="#EE6B47"></path>
            <text id="nextSibling" sketch:type="MSTextLayer" font-family="Consolas" font-size="14" font-weight="bold" fill="#8A704D">
                <tspan x="396" y="268">nextSibling</tspan>
            </text>
            <path d="M296.5,282.5 L182,282.5" id="Line" stroke="#EE6B47" stroke-width="2" stroke-linecap="square" fill="#EE6B47" sketch:type="MSShapeGroup"></path>
            <path id="Line-decoration-1" d="M182.5,282.5 C186.28,283.55 189.52,284.45 193.3,285.5 C193.3,283.4 193.3,281.6 193.3,279.5 C189.52,280.55 186.28,281.45 182.5,282.5 C182.5,282.5 182.5,282.5 182.5,282.5 Z" stroke="#EE6B47" stroke-width="2" stroke-linecap="square" fill="#EE6B47"></path>
            <text id="previousSibling" sketch:type="MSTextLayer" font-family="Consolas" font-size="14" font-weight="bold" fill="#8A704D">
                <tspan x="182" y="268">previousSibling</tspan>
            </text>
            <path d="M236.5,341.5 L294.5,305.5" id="Line" stroke="#EE6B47" stroke-width="2" stroke-linecap="square" sketch:type="MSShapeGroup"></path>
            <path d="M445,342 L389.5,305.5" id="Line-3" stroke="#EE6B47" stroke-width="2" stroke-linecap="square" sketch:type="MSShapeGroup"></path>
            <text id="childNodes" sketch:type="MSTextLayer" font-family="Consolas" font-size="14" font-weight="bold" fill="#8A704D">
                <tspan x="302" y="323">childNodes</tspan>
            </text>
            <text id="firstChild--lastChil" sketch:type="MSTextLayer" font-family="Consolas" font-size="14" font-weight="bold" fill="#8A704D">
                <tspan x="257" y="347">firstChild  lastChild</tspan>
            </text>
        </g>
    </g>
</svg>