<svg width="425" height="296" viewBox="0 0 425 296" xmlns="http://www.w3.org/2000/svg"><title>dom-links-elements</title><desc>Created with Sketch.</desc><g fill="none" fill-rule="evenodd"><g><text font-family="Consolas" font-size="14" font-weight="bold" fill="#8A704D" transform="translate(-126 -68)"><tspan x="257.692" y="85">document.documentElement &lt;HTML&gt;</tspan></text><text font-family="Consolas" font-size="14" font-weight="bold" fill="#8A704D" transform="translate(-126 -68)"><tspan x="292.844" y="153">document.body (если внутри body)</tspan></text><path d="M215.5 62.5v-30" stroke="#EE6B47" stroke-width="2" stroke-linecap="square" fill="#EE6B47"/><path d="M215.5 32.5l-3 10.8h6l-3-10.8z" stroke="#EE6B47" stroke-width="2" stroke-linecap="square" fill="#EE6B47"/><path d="M213.263 115.685c0-.656.555-1.185 1.238-1.185.68 0 1.237.53 1.237 1.212 0 .656-.555 1.185-1.236 1.185-.68 0-1.237-.53-1.237-1.212zm5.452 2.096c0 .684-.555 1.213-1.237 1.213-.68 0-1.237-.53-1.237-1.188 0-.68.556-1.21 1.238-1.21.68 0 1.237.53 1.237 1.186zm-8.43 0c0-.655.556-1.186 1.237-1.186.682 0 1.237.53 1.237 1.212 0 .658-.556 1.187-1.238 1.187-.68 0-1.237-.53-1.237-1.212zm3.054 1.516c0-.657.554-1.187 1.236-1.187.656 0 1.21.53 1.21 1.21 0 .656-.554 1.188-1.236 1.188-.656 0-1.212-.532-1.212-1.212zm8.352.58c0 .656-.554 1.21-1.236 1.21-.68 0-1.21-.53-1.21-1.186 0-.68.53-1.21 1.21-1.21.682 0 1.237.53 1.237 1.185zm-14.386 0c0-.657.556-1.186 1.237-1.186.68 0 1.238.53 1.238 1.21 0 .656-.555 1.187-1.237 1.187-.68 0-1.237-.555-1.237-1.212zm17.364 2.093c0 .657-.554 1.21-1.236 1.21-.68 0-1.212-.528-1.212-1.184 0-.68.53-1.212 1.212-1.212.68 0 1.237.53 1.237 1.185zm-20.34 0c0-.655.554-1.186 1.236-1.186.68 0 1.237.53 1.237 1.212 0 .656-.556 1.185-1.237 1.185-.68 0-1.237-.553-1.237-1.21zm9.008.985c0-.656.556-1.186 1.238-1.186.656 0 1.21.53 1.21 1.21 0 .655-.554 1.186-1.236 1.186-.656 0-1.212-.555-1.212-1.21zm0 3.634c0-.657.556-1.188 1.238-1.188.656 0 1.21.557 1.21 1.213 0 .655-.554 1.212-1.236 1.212-.656 0-1.212-.557-1.212-1.238zm0 3.658c0-.656.556-1.185 1.238-1.185.656 0 1.21.53 1.21 1.21 0 .657-.554 1.187-1.236 1.187-.656 0-1.212-.53-1.212-1.212zm0 3.66c0-.655.556-1.186 1.238-1.186.656 0 1.21.53 1.21 1.21 0 .66-.554 1.19-1.236 1.19-.656-.002-1.212-.558-1.212-1.214zm0 3.635c0-.656.556-1.187 1.238-1.187.656 0 1.21.555 1.21 1.212 0 .655-.554 1.21-1.236 1.21-.656 0-1.212-.554-1.212-1.235zm0 3.66c0-.657.556-1.188 1.238-1.188.656 0 1.21.53 1.21 1.213 0 .655-.554 1.185-1.236 1.185-.656 0-1.212-.53-1.212-1.21z" fill="#EE6B47"/><path d="M8.5 103H421" stroke="#8A704D" stroke-width="2" stroke-linecap="square"/><text font-family="Consolas" font-size="14" font-weight="bold" transform="translate(-126 -68)"><tspan x="295" y="228" fill="#8A704D">parent</tspan><tspan x="341.184" y="228" fill="#EE6B47">Element</tspan></text><path stroke="#BCA68E" stroke-width="2" d="M177 203h75v24h-75z"/><path stroke="#BCA68E" stroke-width="2" d="M159 68h113v24H159z"/><path stroke="#BCA68E" stroke-width="2" d="M125 0h194v24H125z"/><text font-family="Open Sans" font-size="14" font-weight="526" fill="#8A704D" transform="translate(-126 -68)"><tspan x="321.052" y="288">&lt;DIV&gt;</tspan></text><path d="M214.5 195.5v-26" stroke="#EE6B47" stroke-width="2" stroke-linecap="square" fill="#EE6B47"/><path d="M214.5 169.5l-3 10.8h6l-3-10.8z" stroke="#EE6B47" stroke-width="2" stroke-linecap="square" fill="#EE6B47"/><path d="M261.5 214.5H421" stroke="#EE6B47" stroke-width="2" stroke-linecap="square" fill="#EE6B47"/><path d="M420.5 214.5l-10.8-3v6l10.8-3z" stroke="#EE6B47" stroke-width="2" stroke-linecap="square" fill="#EE6B47"/><text font-family="Consolas" font-size="14" font-weight="bold" transform="translate(-126 -68)"><tspan x="396" y="268" fill="#8A704D">next</tspan><tspan x="426.789" y="268" fill="#EE6B47">Element</tspan><tspan x="480.67" y="268" fill="#8A704D">Sibling</tspan></text><path d="M162 214.5H6" stroke="#EE6B47" stroke-width="2" stroke-linecap="square" fill="#EE6B47"/><path d="M6 214.5l10.8 3v-6l-10.8 3z" stroke="#EE6B47" stroke-width="2" stroke-linecap="square" fill="#EE6B47"/><text font-family="Consolas" font-size="14" font-weight="bold" transform="translate(-126 -68)"><tspan x="126" y="268" fill="#8A704D">previous</tspan><tspan x="187.578" y="268" fill="#EE6B47">Element</tspan><tspan x="241.459" y="268" fill="#8A704D">Sibling</tspan></text><path d="M110.5 273.5l58-36" stroke="#EE6B47" stroke-width="2" stroke-linecap="square"/><path d="M319 274l-55.5-36.5" stroke="#EE6B47" stroke-width="2" stroke-linecap="square"/><text font-family="Consolas" font-size="14" font-weight="bold" fill="#EE6B47" transform="translate(-126 -68)"><tspan x="308" y="329">children</tspan></text><text font-family="Consolas" font-size="14" font-weight="bold" transform="translate(-126 -68)"><tspan x="163" y="363" fill="#8A704D">first</tspan><tspan x="201.486" y="363" fill="#EE6B47">Element</tspan><tspan x="255.367" y="363" fill="#8A704D">Child</tspan></text><text font-family="Consolas" font-size="14" font-weight="bold" transform="translate(-126 -68)"><tspan x="393" y="363" fill="#8A704D">last</tspan><tspan x="423.789" y="363" fill="#EE6B47">Element</tspan><tspan x="477.67" y="363" fill="#8A704D">Child</tspan></text></g></g></svg>