<?xml version="1.0" encoding="UTF-8" standalone="no"?>
<svg width="420px" height="388px" viewBox="0 0 420 388" version="1.1" xmlns="http://www.w3.org/2000/svg" xmlns:xlink="http://www.w3.org/1999/xlink" xmlns:sketch="http://www.bohemiancoding.com/sketch/ns">
    <!-- Generator: bin/sketchtool 1.3 (252) - http://www.bohemiancoding.com/sketch -->
    <title>dom-links.svg</title>
    <desc>Created with bin/sketchtool.</desc>
    <defs></defs>
    <g id="combined" stroke="none" stroke-width="1" fill="none" fill-rule="evenodd" sketch:type="MSPage">
        <g id="dom-links.svg" sketch:type="MSArtboardGroup">
            <rect id="Rectangle-9" stroke="#E8C48E" stroke-width="4" fill="#FFF9EB" sketch:type="MSShapeGroup" x="149" y="19" width="119" height="30"></rect>
            <rect id="Rectangle-7" stroke="#E8C48E" stroke-width="4" fill="#FFF9EB" sketch:type="MSShapeGroup" x="150" y="153" width="119" height="30"></rect>
            <rect id="Rectangle-8" stroke="#E8C48E" stroke-width="4" fill="#FFF9EB" sketch:type="MSShapeGroup" x="116" y="86" width="200" height="30"></rect>
            <text id="document" sketch:type="MSTextLayer" font-family="Consolas" font-size="14" font-weight="bold" sketch:alignment="middle" fill="#8A704D">
                <tspan x="177.710938" y="38">document</tspan>
            </text>
            <text id="document.documentEle" sketch:type="MSTextLayer" font-family="Consolas" font-size="14" font-weight="bold" sketch:alignment="middle" fill="#8A704D">
                <tspan x="123.632812" y="105">document.documentElement  </tspan>
            </text>
            <text id="Type-something" sketch:type="MSTextLayer" font-family="Consolas" font-size="14" font-weight="bold" sketch:alignment="middle" fill="#8A704D">
                <tspan x="323.408203" y="105">&lt;HTML&gt;</tspan>
            </text>
            <text id="document.body--" sketch:type="MSTextLayer" font-family="Consolas" font-size="14" font-weight="bold" sketch:alignment="middle" fill="#8A704D">
                <tspan x="160.967773" y="173">document.body  </tspan>
            </text>
            <text id="Type-something" sketch:type="MSTextLayer" font-family="Consolas" font-size="14" font-weight="bold" sketch:alignment="middle" fill="#8A704D">
                <tspan x="272.224609" y="173">(если внутри body)</tspan>
            </text>
            <path d="M209.5,150.5 L209.5,120.5" id="Line" stroke="#EE6B47" stroke-width="2" stroke-linecap="square" fill="#EE6B47" sketch:type="MSShapeGroup"></path>
            <path id="Line-decoration-1" d="M209.5,120.5 C208.45,124.28 207.55,127.52 206.5,131.3 C208.6,131.3 210.4,131.3 212.5,131.3 C211.45,127.52 210.55,124.28 209.5,120.5 C209.5,120.5 209.5,120.5 209.5,120.5 Z" stroke="#EE6B47" stroke-width="2" stroke-linecap="square" fill="#EE6B47"></path>
            <path d="M221.2715,215.2195 C221.9275,215.2195 222.4565,215.7755 222.4565,216.4575 C222.4565,217.1385 221.9275,217.6935 221.2455,217.6935 C220.5895,217.6935 220.0595,217.1385 220.0595,216.4575 C220.0595,215.7755 220.5895,215.2195 221.2715,215.2195 L221.2715,215.2195 Z M219.1755,220.6715 C218.4935,220.6715 217.9645,220.1165 217.9645,219.4345 C217.9645,218.7535 218.4935,218.1985 219.1515,218.1985 C219.8325,218.1985 220.3625,218.7535 220.3625,219.4345 C220.3625,220.1165 219.8325,220.6715 219.1755,220.6715 L219.1755,220.6715 Z M219.1755,212.2415 C219.8325,212.2415 220.3625,212.7975 220.3625,213.4785 C220.3625,214.1605 219.8325,214.7155 219.1515,214.7155 C218.4935,214.7155 217.9645,214.1605 217.9645,213.4785 C217.9645,212.7975 218.4935,212.2415 219.1755,212.2415 L219.1755,212.2415 Z M217.6615,215.2955 C218.3185,215.2955 218.8475,215.8505 218.8475,216.5325 C218.8475,217.1885 218.3185,217.7435 217.6365,217.7435 C216.9805,217.7435 216.4495,217.1885 216.4495,216.5075 C216.4495,215.8505 216.9805,215.2955 217.6615,215.2955 L217.6615,215.2955 Z M217.0815,223.6495 C216.4245,223.6495 215.8695,223.0945 215.8695,222.4135 C215.8695,221.7315 216.4005,221.2015 217.0565,221.2015 C217.7375,221.2015 218.2675,221.7315 218.2675,222.4135 C218.2675,223.0945 217.7375,223.6495 217.0815,223.6495 L217.0815,223.6495 Z M217.0815,209.2635 C217.7375,209.2635 218.2675,209.8195 218.2675,210.5005 C218.2675,211.1815 217.7375,211.7375 217.0565,211.7375 C216.4005,211.7375 215.8695,211.1815 215.8695,210.5005 C215.8695,209.8195 216.4245,209.2635 217.0815,209.2635 L217.0815,209.2635 Z M214.9875,226.6275 C214.3305,226.6275 213.7755,226.0725 213.7755,225.3905 C213.7755,224.7105 214.3045,224.1795 214.9605,224.1795 C215.6425,224.1795 216.1725,224.7105 216.1725,225.3905 C216.1725,226.0725 215.6425,226.6275 214.9875,226.6275 L214.9875,226.6275 Z M214.9875,206.2855 C215.6425,206.2855 216.1725,206.8415 216.1725,207.5225 C216.1725,208.2035 215.6425,208.7595 214.9605,208.7595 C214.3045,208.7595 213.7755,208.2035 213.7755,207.5225 C213.7755,206.8415 214.3305,206.2855 214.9875,206.2855 L214.9875,206.2855 Z M214.0015,215.2955 C214.6575,215.2955 215.1885,215.8505 215.1885,216.5325 C215.1885,217.1885 214.6575,217.7435 213.9775,217.7435 C213.3215,217.7435 212.7905,217.1885 212.7905,216.5075 C212.7905,215.8505 213.3465,215.2955 214.0015,215.2955 L214.0015,215.2955 Z M210.3675,215.2955 C211.0245,215.2955 211.5545,215.8505 211.5545,216.5325 C211.5545,217.1885 210.9985,217.7435 210.3425,217.7435 C209.6865,217.7435 209.1305,217.1885 209.1305,216.5075 C209.1305,215.8505 209.6865,215.2955 210.3675,215.2955 L210.3675,215.2955 Z M206.7085,215.2955 C207.3645,215.2955 207.8945,215.8505 207.8945,216.5325 C207.8945,217.1885 207.3645,217.7435 206.6835,217.7435 C206.0275,217.7435 205.4965,217.1885 205.4965,216.5075 C205.4965,215.8505 206.0275,215.2955 206.7085,215.2955 L206.7085,215.2955 Z M203.0485,215.2955 C203.7045,215.2955 204.2355,215.8505 204.2355,216.5325 C204.2355,217.1885 203.7045,217.7435 203.0235,217.7435 C202.3665,217.7435 201.8365,217.1885 201.8365,216.5075 C201.8365,215.8505 202.3925,215.2955 203.0485,215.2955 L203.0485,215.2955 Z M199.4145,215.2955 C200.0705,215.2955 200.6005,215.8505 200.6005,216.5325 C200.6005,217.1885 200.0455,217.7435 199.3885,217.7435 C198.7335,217.7435 198.1775,217.1885 198.1775,216.5075 C198.1775,215.8505 198.7335,215.2955 199.4145,215.2955 L199.4145,215.2955 Z M195.7545,215.2955 C196.4105,215.2955 196.9415,215.8505 196.9415,216.5325 C196.9415,217.1885 196.4105,217.7435 195.7295,217.7435 C195.0735,217.7435 194.5435,217.1885 194.5435,216.5075 C194.5435,215.8505 195.0735,215.2955 195.7545,215.2955 L195.7545,215.2955 Z" id="Fill-7" fill="#EE6B47" sketch:type="MSShapeGroup" transform="translate(208.500000, 216.456500) rotate(-90.000000) translate(-208.500000, -216.456500) "></path>
            <path d="M209.5,83.5 L209.5,53.5" id="Line-2" stroke="#EE6B47" stroke-width="2" stroke-linecap="square" fill="#EE6B47" sketch:type="MSShapeGroup"></path>
            <path id="Line-2-decoration-1" d="M209.5,53.5 C208.45,57.28 207.55,60.52 206.5,64.3 C208.6,64.3 210.4,64.3 212.5,64.3 C211.45,60.52 210.55,57.28 209.5,53.5 C209.5,53.5 209.5,53.5 209.5,53.5 Z" stroke="#EE6B47" stroke-width="2" stroke-linecap="square" fill="#EE6B47"></path>
            <path d="M2.5,191 L415,191" id="Line" stroke="#8A704D" stroke-width="2" stroke-linecap="square" sketch:type="MSShapeGroup"></path>
            <text id="parentNode" sketch:type="MSTextLayer" font-family="Consolas" font-size="14" font-weight="bold" fill="#8A704D">
                <tspan x="172" y="248">parentNode</tspan>
            </text>
            <rect id="Rectangle-6" stroke="#E8C48E" stroke-width="4" fill="#FFF9EB" sketch:type="MSShapeGroup" x="168" y="288" width="82" height="30"></rect>
            <text id="&lt;DIV&gt;" sketch:type="MSTextLayer" font-family="Open Sans" font-size="14" font-weight="526" sketch:alignment="middle" fill="#8A704D">
                <tspan x="189.051859" y="308">&lt;DIV&gt;</tspan>
            </text>
            <path d="M208.5,283.5 L208.5,257.5" id="Line" stroke="#EE6B47" stroke-width="3" stroke-linecap="square" fill="#EE6B47" sketch:type="MSShapeGroup"></path>
            <path id="Line-decoration-1" d="M208.5,257.5 C207.45,261.28 206.55,264.52 205.5,268.3 C207.6,268.3 209.4,268.3 211.5,268.3 C210.45,264.52 209.55,261.28 208.5,257.5 C208.5,257.5 208.5,257.5 208.5,257.5 Z" stroke="#EE6B47" stroke-width="3" stroke-linecap="square" fill="#EE6B47"></path>
            <path d="M255.5,302.5 L368,302.5" id="Line" stroke="#EE6B47" stroke-width="3" stroke-linecap="square" fill="#EE6B47" sketch:type="MSShapeGroup"></path>
            <path id="Line-decoration-1" d="M367.5,302.5 C363.72,301.45 360.48,300.55 356.7,299.5 C356.7,301.6 356.7,303.4 356.7,305.5 C360.48,304.45 363.72,303.55 367.5,302.5 C367.5,302.5 367.5,302.5 367.5,302.5 Z" stroke="#EE6B47" stroke-width="3" stroke-linecap="square" fill="#EE6B47"></path>
            <text id="nextSibling" sketch:type="MSTextLayer" font-family="Consolas" font-size="14" font-weight="bold" fill="#8A704D">
                <tspan x="264" y="288">nextSibling</tspan>
            </text>
            <path d="M164.5,302.5 L50,302.5" id="Line" stroke="#EE6B47" stroke-width="3" stroke-linecap="square" fill="#EE6B47" sketch:type="MSShapeGroup"></path>
            <path id="Line-decoration-1" d="M50.5,302.5 C54.28,303.55 57.52,304.45 61.3,305.5 C61.3,303.4 61.3,301.6 61.3,299.5 C57.52,300.55 54.28,301.45 50.5,302.5 C50.5,302.5 50.5,302.5 50.5,302.5 Z" stroke="#EE6B47" stroke-width="3" stroke-linecap="square" fill="#EE6B47"></path>
            <text id="previousSibling" sketch:type="MSTextLayer" font-family="Consolas" font-size="14" font-weight="bold" fill="#8A704D">
                <tspan x="50" y="288">previousSibling</tspan>
            </text>
            <path d="M104.5,361.5 L162.5,325.5" id="Line" stroke="#EE6B47" stroke-width="2" stroke-linecap="square" sketch:type="MSShapeGroup"></path>
            <path d="M313,362 L257.5,325.5" id="Line-3" stroke="#EE6B47" stroke-width="2" stroke-linecap="square" sketch:type="MSShapeGroup"></path>
            <text id="childNodes" sketch:type="MSTextLayer" font-family="Consolas" font-size="14" font-weight="bold" fill="#8A704D">
                <tspan x="170" y="343">childNodes</tspan>
            </text>
            <text id="firstChild--" sketch:type="MSTextLayer" font-family="Consolas" font-size="14" font-weight="bold" fill="#8A704D">
                <tspan x="64" y="379">firstChild  </tspan>
            </text>
            <text id="Type-something" sketch:type="MSTextLayer" font-family="Consolas" font-size="14" font-weight="bold" fill="#8A704D">
                <tspan x="279" y="379">lastChild</tspan>
            </text>
        </g>
    </g>
</svg>