<svg width="415" height="346" viewBox="0 0 415 346" xmlns="http://www.w3.org/2000/svg"><title>dom-links</title><desc>Created with Sketch.</desc><g fill="none" fill-rule="evenodd"><g><text font-family="Consolas" font-size="14" font-weight="bold" fill="#8A704D" transform="translate(-133 -2)"><tspan x="309.711" y="18">document</tspan></text><text font-family="Consolas" font-size="14" font-weight="bold" fill="#8A704D" transform="translate(-133 -2)"><tspan x="257.692" y="85">document.documentElement &lt;HTML&gt;</tspan></text><text font-family="Consolas" font-size="14" font-weight="bold" fill="#8A704D" transform="translate(-133 -2)"><tspan x="292.844" y="153">document.body (если внутри body)</tspan></text><path d="M208.5 128.5v-30" id="Line" stroke="#EE6B47" stroke-width="2" stroke-linecap="square" fill="#EE6B47"/><path id="Line-decoration-1" d="M208.5 98.5l-3 10.8h6l-3-10.8z" stroke="#EE6B47" stroke-width="2" stroke-linecap="square" fill="#EE6B47"/><path d="M206.263 181.685c0-.656.555-1.185 1.238-1.185.68 0 1.237.53 1.237 1.212 0 .656-.555 1.185-1.236 1.185-.68 0-1.237-.53-1.237-1.212zm5.452 2.096c0 .684-.555 1.213-1.237 1.213-.68 0-1.237-.53-1.237-1.188 0-.68.556-1.21 1.238-1.21.68 0 1.237.53 1.237 1.186zm-8.43 0c0-.655.556-1.186 1.237-1.186.682 0 1.237.53 1.237 1.212 0 .657-.556 1.186-1.238 1.186-.68 0-1.237-.528-1.237-1.21zm3.054 1.516c0-.657.554-1.187 1.236-1.187.656 0 1.21.53 1.21 1.21 0 .656-.554 1.188-1.236 1.188-.656 0-1.212-.532-1.212-1.213zm8.352.58c0 .656-.554 1.21-1.236 1.21-.68 0-1.21-.53-1.21-1.186 0-.68.53-1.21 1.21-1.21.682 0 1.237.53 1.237 1.185zm-14.386 0c0-.657.556-1.186 1.237-1.186.68 0 1.238.53 1.238 1.21 0 .656-.555 1.187-1.237 1.187-.68 0-1.237-.555-1.237-1.212zm17.364 2.093c0 .657-.554 1.21-1.236 1.21-.68 0-1.212-.528-1.212-1.184 0-.68.53-1.212 1.212-1.212.68 0 1.237.53 1.237 1.185zm-20.34 0c0-.655.554-1.186 1.236-1.186.68 0 1.237.53 1.237 1.212 0 .656-.556 1.185-1.237 1.185-.68 0-1.237-.553-1.237-1.21zm9.008.985c0-.656.556-1.186 1.238-1.186.656 0 1.21.53 1.21 1.21 0 .655-.554 1.186-1.236 1.186-.656 0-1.212-.555-1.212-1.21zm0 3.634c0-.657.556-1.188 1.238-1.188.656 0 1.21.557 1.21 1.213 0 .655-.554 1.212-1.236 1.212-.656 0-1.212-.557-1.212-1.238zm0 3.658c0-.656.556-1.185 1.238-1.185.656 0 1.21.53 1.21 1.21 0 .657-.554 1.187-1.236 1.187-.656 0-1.212-.53-1.212-1.212zm0 3.66c0-.655.556-1.186 1.238-1.186.656 0 1.21.53 1.21 1.21 0 .66-.554 1.19-1.236 1.19-.656-.002-1.212-.558-1.212-1.214zm0 3.635c0-.656.556-1.187 1.238-1.187.656 0 1.21.555 1.21 1.212 0 .655-.554 1.21-1.236 1.21-.656 0-1.212-.554-1.212-1.235zm0 3.66c0-.657.556-1.188 1.238-1.188.656 0 1.21.53 1.21 1.213 0 .655-.554 1.185-1.236 1.185-.656 0-1.212-.53-1.212-1.21z" fill="#EE6B47"/><path d="M208.5 60.5v-30" stroke="#EE6B47" stroke-width="2" stroke-linecap="square" fill="#EE6B47"/><path d="M208.5 30.5l-3 10.8h6l-3-10.8z" stroke="#EE6B47" stroke-width="2" stroke-linecap="square" fill="#EE6B47"/><path d="M1.5 169H414" id="Line" stroke="#8A704D" stroke-width="2" stroke-linecap="square"/><text font-family="Consolas" font-size="14" font-weight="bold" fill="#8A704D" transform="translate(-133 -2)"><tspan x="304" y="228">parentNode</tspan></text><path stroke="#BCA68E" stroke-width="2" d="M170 269h75v24h-75z"/><path stroke="#BCA68E" stroke-width="2" d="M152 134h113v24H152z"/><path stroke="#BCA68E" stroke-width="2" d="M152 0h113v24H152z"/><path stroke="#BCA68E" stroke-width="2" d="M118 66h194v24H118z"/><text font-family="Open Sans" font-size="14" font-weight="526" fill="#8A704D" transform="translate(-133 -2)"><tspan x="321.052" y="288">&lt;DIV&gt;</tspan></text><path d="M207.5 261.5v-26" id="Line" stroke="#EE6B47" stroke-width="2" stroke-linecap="square" fill="#EE6B47"/><path id="Line-decoration-1" d="M207.5 235.5l-3 10.8h6l-3-10.8z" stroke="#EE6B47" stroke-width="2" stroke-linecap="square" fill="#EE6B47"/><path d="M254.5 280.5H367" id="Line" stroke="#EE6B47" stroke-width="2" stroke-linecap="square" fill="#EE6B47"/><path id="Line-decoration-1" d="M366.5 280.5l-10.8-3v6l10.8-3z" stroke="#EE6B47" stroke-width="2" stroke-linecap="square" fill="#EE6B47"/><text font-family="Consolas" font-size="14" font-weight="bold" fill="#8A704D" transform="translate(-133 -2)"><tspan x="396" y="268">nextSibling</tspan></text><path d="M163.5 280.5H49" id="Line" stroke="#EE6B47" stroke-width="2" stroke-linecap="square" fill="#EE6B47"/><path d="M49.5 280.5l10.8 3v-6l-10.8 3z" stroke="#EE6B47" stroke-width="2" stroke-linecap="square" fill="#EE6B47"/><text font-family="Consolas" font-size="14" font-weight="bold" fill="#8A704D" transform="translate(-133 -2)"><tspan x="182" y="268">previousSibling</tspan></text><path d="M103.5 339.5l58-36" stroke="#EE6B47" stroke-width="2" stroke-linecap="square"/><path d="M312 340l-55.5-36.5" stroke="#EE6B47" stroke-width="2" stroke-linecap="square"/><text font-family="Consolas" font-size="14" font-weight="bold" fill="#8A704D" transform="translate(-133 -2)"><tspan x="302" y="323">childNodes</tspan></text><text font-family="Consolas" font-size="14" font-weight="bold" fill="#8A704D" transform="translate(-133 -2)"><tspan x="257" y="347">firstChild lastChild</tspan></text></g></g></svg>