<?xml version="1.0" encoding="UTF-8" standalone="no"?>
<svg width="253px" height="176px" viewBox="0 0 253 176" version="1.1" xmlns="http://www.w3.org/2000/svg" xmlns:xlink="http://www.w3.org/1999/xlink" xmlns:sketch="http://www.bohemiancoding.com/sketch/ns">
    <!-- Generator: Sketch 3.2.2 (9983) - http://www.bohemiancoding.com/sketch -->
    <title>Diagrams 2</title>
    <desc>Created with Sketch.</desc>
    <defs></defs>
    <g id="variable-change" stroke="none" stroke-width="1" fill="none" fill-rule="evenodd" sketch:type="MSPage">
        <rect id="Rectangle-2" stroke="#979797" fill="#E8E8E8" sketch:type="MSShapeGroup" transform="translate(142.959003, 41.528366) rotate(47.000000) translate(-142.959003, -41.528366) " x="103" y="29" width="79.918006" height="25.0567324"></rect>
        <text id="&quot;Hello!&quot;" opacity="0.7" sketch:type="MSTextLayer" transform="translate(146.500000, 43.500000) rotate(47.000000) translate(-146.500000, -43.500000) " font-family="Open Sans" font-size="14" font-weight="normal" fill="#373535">
            <tspan x="122" y="49">"Hello!"</tspan>
        </text>
        <g id="trash62" sketch:type="MSLayerGroup" transform="translate(222.000000, 0.000000)" fill="#979797">
            <g id="Group" sketch:type="MSShapeGroup">
                <rect id="Rectangle-path" x="20.6666667" y="10.6296296" width="1.47619048" height="25.8148148"></rect>
                <rect id="Rectangle-path" x="14.7619048" y="10.6296296" width="1.47619048" height="25.8148148"></rect>
                <rect id="Rectangle-path" x="8.85714286" y="10.6296296" width="1.47619048" height="25.8148148"></rect>
                <path d="M25.0952381,6.07407407 L22.1428571,6.07407407 L22.1428571,3.03703704 C22.1428571,1.36666667 20.8142857,0 19.1904762,0 L11.8095238,0 C10.1857143,0 8.85714286,1.36666667 8.85714286,3.03703704 L8.85714286,6.07407407 L5.9047619,6.07407407 L0,6.07407407 L0,7.59259259 L2.95238095,7.59259259 L2.95238095,36.4444444 C2.95238095,39.0259259 4.87142857,41 7.38095238,41 L23.6190476,41 C26.1285714,41 28.047619,39.0259259 28.047619,36.4444444 L28.047619,7.59259259 L31,7.59259259 L31,6.07407407 L25.0952381,6.07407407 L25.0952381,6.07407407 Z M10.3333333,3.03703704 C10.3333333,2.12592593 10.9238095,1.51851852 11.8095238,1.51851852 L19.1904762,1.51851852 C20.0761905,1.51851852 20.6666667,2.12592593 20.6666667,3.03703704 L20.6666667,6.07407407 L10.3333333,6.07407407 L10.3333333,3.03703704 L10.3333333,3.03703704 Z M26.5714286,36.4444444 C26.5714286,38.1148148 25.2428571,39.4814815 23.6190476,39.4814815 L7.38095238,39.4814815 C5.75714286,39.4814815 4.42857143,38.1148148 4.42857143,36.4444444 L4.42857143,7.59259259 L26.5714286,7.59259259 L26.5714286,36.4444444 L26.5714286,36.4444444 Z" id="Shape"></path>
            </g>
        </g>
        <g id="left221-2" sketch:type="MSLayerGroup" transform="translate(192.401869, 23.588287) scale(-1, 1) rotate(-2.000000) translate(-192.401869, -23.588287) translate(155.931845, 9.197409)" fill="#979797">
            <path d="M30.2888412,8.13169869 L30.2888412,2.04595641 C30.2888412,1.48343299 29.9074863,0.974528918 29.3182523,0.751950009 C28.7290183,0.529371101 28.0453269,0.634584407 27.57924,1.02100612 L12.6611767,13.3658208 C12.339511,13.6321053 12.1566747,14.0030702 12.1566747,14.3907711 C12.1566747,14.7785786 12.339511,15.1495434 12.6611767,15.415828 L27.57924,27.7607493 C27.8829137,28.0125363 28.2799507,28.145039 28.6825798,28.145039 C28.8967804,28.145039 29.1132907,28.1071963 29.3182523,28.0296988 C29.9076079,27.8071199 30.2888412,27.2983224 30.2888412,26.7356924 L30.2888412,21.1354024 C31.6175657,21.1165343 33.6451775,21.0938287 35.802501,21.0938287 C37.792427,21.0938287 39.5378824,21.1126968 40.9895109,21.1497933 C48.9349919,21.3531843 58.2021466,26.6269613 58.2947804,26.6802609 C58.800255,26.970317 59.4474763,26.9888652 59.9717937,26.7260985 C60.4959895,26.4638647 60.809267,25.9663667 60.7816714,25.4375286 C60.0729372,11.8362304 36.5833242,8.72204447 30.2888412,8.13169869 L30.2888412,8.13169869 Z M41.0831173,18.3328056 C39.6006108,18.2946431 37.8240344,18.2753487 35.802501,18.2753487 C32.0474257,18.2753487 28.6784465,18.3428259 28.6447725,18.3434655 C27.7721664,18.3610544 27.0746164,18.9868976 27.0746164,19.7524923 L27.0746164,23.4683235 L16.1054057,14.3908777 L27.0746164,5.31353844 L27.0746164,9.41749696 C27.0746164,10.1579343 27.7290102,10.7723714 28.5718325,10.8233258 C28.83235,10.8392091 52.6405895,12.4104797 56.9260604,22.7161603 C53.2740738,20.9912804 46.9922337,18.4838565 41.0831173,18.3328056 L41.0831173,18.3328056 Z" id="Shape" sketch:type="MSShapeGroup"></path>
        </g>
        <g id="left221-3" sketch:type="MSLayerGroup" transform="translate(26.401869, 52.588287) scale(-1, 1) rotate(-44.000000) translate(-26.401869, -52.588287) translate(-10.068155, 38.197409)" fill="#979797">
            <path d="M30.2888412,8.13169869 L30.2888412,2.04595641 C30.2888412,1.48343299 29.9074863,0.974528918 29.3182523,0.751950009 C28.7290183,0.529371101 28.0453269,0.634584407 27.57924,1.02100612 L12.6611767,13.3658208 C12.339511,13.6321053 12.1566747,14.0030702 12.1566747,14.3907711 C12.1566747,14.7785786 12.339511,15.1495434 12.6611767,15.415828 L27.57924,27.7607493 C27.8829137,28.0125363 28.2799507,28.145039 28.6825798,28.145039 C28.8967804,28.145039 29.1132907,28.1071963 29.3182523,28.0296988 C29.9076079,27.8071199 30.2888412,27.2983224 30.2888412,26.7356924 L30.2888412,21.1354024 C31.6175657,21.1165343 33.6451775,21.0938287 35.802501,21.0938287 C37.792427,21.0938287 39.5378824,21.1126968 40.9895109,21.1497933 C48.9349919,21.3531843 58.2021466,26.6269613 58.2947804,26.6802609 C58.800255,26.970317 59.4474763,26.9888652 59.9717937,26.7260985 C60.4959895,26.4638647 60.809267,25.9663667 60.7816714,25.4375286 C60.0729372,11.8362304 36.5833242,8.72204447 30.2888412,8.13169869 L30.2888412,8.13169869 Z M41.0831173,18.3328056 C39.6006108,18.2946431 37.8240344,18.2753487 35.802501,18.2753487 C32.0474257,18.2753487 28.6784465,18.3428259 28.6447725,18.3434655 C27.7721664,18.3610544 27.0746164,18.9868976 27.0746164,19.7524923 L27.0746164,23.4683235 L16.1054057,14.3908777 L27.0746164,5.31353844 L27.0746164,9.41749696 C27.0746164,10.1579343 27.7290102,10.7723714 28.5718325,10.8233258 C28.83235,10.8392091 52.6405895,12.4104797 56.9260604,22.7161603 C53.2740738,20.9912804 46.9922337,18.4838565 41.0831173,18.3328056 L41.0831173,18.3328056 Z" id="Shape" sketch:type="MSShapeGroup"></path>
        </g>
        <path d="M44.5,117 L146.5,117" id="Line-2" stroke="#979797" stroke-width="2" stroke-linecap="square" sketch:type="MSShapeGroup"></path>
        <path d="M2.5,173.5 L44.5,117.5" id="Line" stroke="#979797" stroke-width="2" stroke-linecap="square" sketch:type="MSShapeGroup"></path>
        <path d="M133.5,172.5 L175.5,116.5" id="Line-3" stroke="#979797" stroke-width="2" stroke-linecap="square" sketch:type="MSShapeGroup"></path>
        <path d="M44.5,77 L176.5,77" id="Line-7" stroke="#979797" stroke-width="2" stroke-linecap="square" sketch:type="MSShapeGroup"></path>
        <path d="M2.5,133.5 L44.5,77.5" id="Line-8" stroke="#979797" stroke-width="2" stroke-linecap="square" sketch:type="MSShapeGroup"></path>
        <path d="M133.5,133.5 L175.5,77.5" id="Line-9" stroke="#979797" stroke-width="2" stroke-linecap="square" sketch:type="MSShapeGroup"></path>
        <path d="M44,117.5 L44,77.5" id="Line-4" stroke="#979797" stroke-width="2" stroke-linecap="square" sketch:type="MSShapeGroup"></path>
        <rect id="Rectangle-5" stroke="#979797" stroke-width="2" fill="#E8E8E8" sketch:type="MSShapeGroup" transform="translate(82.959003, 108.528366) rotate(47.000000) translate(-82.959003, -108.528366) " x="43" y="96" width="79.918006" height="25.0567324"></rect>
        <text id="&quot;World!&quot;" sketch:type="MSTextLayer" transform="translate(86.500000, 110.500000) rotate(47.000000) translate(-86.500000, -110.500000) " font-family="Open Sans" font-size="14" font-weight="normal" fill="#373535">
            <tspan x="59" y="116">"World!"</tspan>
        </text>
        <path d="M176,116 L176,77.5" id="Line-5" stroke="#979797" stroke-width="2" stroke-linecap="square" sketch:type="MSShapeGroup"></path>
        <rect id="Rectangle-4" stroke="#979797" stroke-width="2" fill="#FFFFFF" sketch:type="MSShapeGroup" x="1" y="134" width="133" height="40"></rect>
        <g id="Rectangle-3-+-Oval-1-+-message" sketch:type="MSLayerGroup" transform="translate(38.000000, 147.000000)">
            <rect id="Rectangle-3" stroke="#979797" fill="#FFFFFF" sketch:type="MSShapeGroup" x="0" y="0" width="63" height="16"></rect>
            <circle id="Oval-1" stroke="#979797" sketch:type="MSShapeGroup" cx="3.5" cy="3.5" r="1.5"></circle>
            <text id="message" sketch:type="MSTextLayer" font-family="Consolas" font-size="14" font-weight="normal" fill="#373535">
                <tspan x="7" y="12">message</tspan>
            </text>
        </g>
    </g>
</svg>