<svg width="550" height="399" viewBox="0 0 550 399" xmlns="http://www.w3.org/2000/svg"><title>border-box.svg</title><desc>Created with bin/sketchtool.</desc><g fill="none" fill-rule="evenodd"><text font-family="Times" font-size="18" fill="#5A4739"><tspan x="306.752" y="96">Содержимое</tspan></text><text font-family="Times" font-size="18" fill="#5A4739"><tspan x="306.752" y="301">Содержимое</tspan></text><path d="M218 38h274v107H218V38zm14 12h247v83H232V50zm-39 193h324v107H193V243zm14 12h297v83H207v-83z" fill="#999647"/><path d="M223 43h264v97H223V43zm20 20h224v57H243V63zm-45 185h314v97H198v-97zm20 20h274v57H218v-57z" fill="#E8C48E"/><path d="M217 20.5v344.07M493 20.5v344.07" stroke="#EE6B47" stroke-width="2" stroke-linecap="square" stroke-dasharray="3,6"/><text font-family="Consolas" font-size="14" font-weight="bold" fill="#EE6C49"><tspan x="317.014" y="24">border-box</tspan></text><text font-family="Consolas" font-size="14" font-weight="bold" fill="#EE6B47"><tspan x="313.165" y="229">content-box</tspan></text><ellipse stroke="#EE6B47" stroke-width="2" cx="87" cy="183.5" rx="76" ry="43.5"/><path d="M157 203l29 18" stroke="#EE6B47" stroke-width="2" stroke-linecap="square"/><path d="M185.888 220.93c-2.658-2.885-4.936-5.36-7.594-8.244l-3.164 5.098 10.758 3.146zM159 165l32-19" stroke="#EE6B47" stroke-width="2" stroke-linecap="square"/><path d="M190.815 146.11l-10.818 2.934 3.063 5.16 7.755-8.094z" stroke="#EE6B47" stroke-width="2" stroke-linecap="square"/><text font-family="Consolas" font-size="16" font-weight="bold"><tspan x="32" y="176.642" fill="#999647">border: 5px;</tspan><tspan x="32" y="195.642" fill="#E8C48E">padding: 20px;</tspan></text></g></svg>