<svg xmlns="http://www.w3.org/2000/svg" xmlns:xlink="http://www.w3.org/1999/xlink" width="149" height="133" viewBox="0 0 149 133"><defs><style>@import url(https://fonts.googleapis.com/css?family=Open+Sans:bold,italic,bolditalic%7CPT+Mono);@font-face{font-family:&apos;PT Mono&apos;;font-weight:700;font-style:normal;src:local(&apos;PT MonoBold&apos;),url(/font/PTMonoBold.woff2) format(&apos;woff2&apos;),url(/font/PTMonoBold.woff) format(&apos;woff&apos;),url(/font/PTMonoBold.ttf) format(&apos;truetype&apos;)}</style></defs><defs><path id="path-1" d="M93 75v21.429l5.25-5.358 4.375 8.929h1.75s1.13-1.161.875-1.786c-1.203-2.947-4.375-8.928-4.375-8.928H107L93 75z"/><path id="path-3" d="M13 5h111v111H13z"/><filter id="filter-2" width="195.6%" height="153.8%" x="-42.9%" y="-25.8%" filterUnits="objectBoundingBox"><feMorphology in="SourceAlpha" operator="dilate" radius="1" result="shadowSpreadOuter1"/><feOffset dy="1" in="shadowSpreadOuter1" result="shadowOffsetOuter1"/><feGaussianBlur in="shadowOffsetOuter1" result="shadowBlurOuter1" stdDeviation="1.5"/><feComposite in="shadowBlurOuter1" in2="SourceAlpha" operator="out" result="shadowBlurOuter1"/><feColorMatrix in="shadowBlurOuter1" values="0 0 0 0 0.0941176471 0 0 0 0 0.0901960784 0 0 0 0 0.0901960784 0 0 0 1 0"/></filter><mask id="mask-4" width="111" height="111" x="0" y="0" fill="#fff" maskContentUnits="userSpaceOnUse" maskUnits="objectBoundingBox"><use xlink:href="#path-3"/></mask></defs><g id="dom" fill="none" fill-rule="evenodd" stroke="none" stroke-width="1"><g id="ball_shift.svg"><g id="ball" opacity=".354" transform="translate(14 6)"><circle id="Oval-4" cx="53" cy="53" r="53" fill="#FFF"/><path id="Shape" fill="#5E5C5C" fill-rule="nonzero" d="M108.95 52.524a.66.66 0 00-.009-.356l-.01-.044c-.711-14.312-6.856-27.567-17.308-37.338-1.28-1.33-3.19-2.902-5.37-4.426C72.119.137 53.779-2.73 37.187 2.697c-1.188.307-2.824.93-4.728 1.795a53.587 53.587 0 00-8.741 4.803 32.155 32.155 0 00-1.437 1.009 54.376 54.376 0 00-8.786 8C-6.322 40.792-4.047 75.325 18.562 95.281a54.894 54.894 0 0014.058 9.025c.733.35 1.342.56 1.86.784 21.382 8.552 45.892 2.77 61.028-14.403 9.271-10.528 14.042-24.071 13.442-38.164zm-1.951-2.264c-.048-.13-.095-.262-.147-.391-1.112-3-3.155-8.53-8.149-12.96-.737-9.313-4.052-14.758-7.006-19.544A52.812 52.812 0 01107 50.26zM70.587 9.112c.044-.01.09-.025.128-.037 4.802.84 12.238 3.568 18.634 7.928a.79.79 0 00.085.195l.62 1.001c2.851 4.62 6.08 9.85 6.808 18.739-2.901 2.139-4.968 4.418-6.974 6.623-1.195 1.314-2.425 2.667-3.826 3.99-4.698-4.376-13.03-8.118-22.027-9.868-.882-3.896-2.649-11.121-6.985-19.124.113-.13.222-.257.335-.383 6.969-7.914 9.423-8.364 12.266-8.883.301-.056.614-.114.936-.181zM45.423 53.884l18.033-14.431c9.045 1.723 17.37 5.492 21.758 9.848 1.073 3.326 1.349 10.492 1.557 15.765.1 2.7.197 5.06.364 6.482-7.083 6.463-16.481 13.096-19.546 13.786l-19.727-7.726c-1.476-8.27-1.908-13.934-2.439-23.724zm.59 23.87L31.731 87.81a.716.716 0 00-.427-.035c-2.664.553-12.913-6.968-17.907-11.335a.762.762 0 00-.183-.115c-.212-1.43-.666-3.247-1.178-5.31-1.352-5.44-3.026-12.18-1.523-16.37.03-.024.055-.05.083-.08.017-.02.036-.043.051-.068.976-1.405 1.918-2.621 2.884-3.712 3.048-3.463 6.502-5.923 11.874-8.444.353.257.717.519 1.094.795 5.001 3.654 11.805 8.628 17.089 10.963.533 9.738.964 15.407 2.425 23.657zM26.956 10.614c.202-.228.42-.426.673-.653l.14-.126c.534-.294 1.226-.7 2.025-1.168 1.883-1.102 4.46-2.611 7.286-4.035 7.63-2.608 15.88-3.433 23.912-2.4 0 .268.15.521.394.644.492.255.989.494 1.485.735C64.984 4.63 67 5.606 68.846 7.564c-2.886.547-5.838 1.43-12.868 9.41-.148.17-.298.34-.45.51-7.083-.704-15.227-1.093-22.551 1.071-2.709-3.23-4.985-4.767-7.001-6.127l-.054-.038c.44-1.03.766-1.474 1.034-1.777zM4.076 44.522a.721.721 0 00-1.147-.358 3.964 3.964 0 00-.218.193 52.024 52.024 0 0111.76-24.426c.35-.287.79-.672 1.294-1.111 2.085-1.817 6.947-6.062 8.49-5.327a39.018 39.018 0 00.267.18l.425.287c1.88 1.273 4.006 2.707 6.51 5.655-2.252 4.784-6.967 16.6-6.944 21.106-5.554 2.618-9.16 5.198-12.36 8.833a40.526 40.526 0 00-2.532 3.198c-.1-.092-.203-.192-.307-.287-1.605-1.5-4.025-3.768-5.238-7.943zm15.678 49.407A52.861 52.861 0 018.367 79.731c1.991-.56 2.949-.931 4.067-1.69 1.838 1.556 13.222 11.043 18.26 11.56a105.868 105.868 0 008.806 12.392c-1.647 1.015-3.003 1.365-4.75 1.261a52.782 52.782 0 01-14.996-9.325zm18.65 10.67c.849-.312 1.71-.774 2.654-1.413 7.942 1.173 16.8.439 23.033-.438.09.06.19.096.303.112 1.495.198 5.943.655 11.3.044-11.761 5.084-24.994 5.706-37.29 1.695zm54.134-13.757a.74.74 0 00-.12.523c-3.287 3.39-7 6.302-11.042 8.666a.679.679 0 00-.32.008c-6.468 1.702-12.663 1.383-15.434 1.102 1.247-3.108 2.104-7.732 2.6-14.068 3.637-1.017 12.846-7.486 20.207-14.21 1.834.303 3.085.589 4.1.825 2.47.571 3.603.835 8.098.248-.58 3.376-2.206 8.355-8.089 16.906zm8.064-10.453c1.264-3.02 1.745-5.273 1.99-7.064a.686.686 0 00-.042-.36c1.125-2.556 3.419-9.788 4.597-15.706-.361 8.187-2.605 16.075-6.545 23.13z"/></g><text id="shiftX" fill="#C06334" font-family="PTMono-Bold, PT Mono" font-size="14" font-weight="bold"><tspan x="27.8" y="87">shiftX</tspan></text><text id="shiftY" fill="#C06334" font-family="PTMono-Bold, PT Mono" font-size="14" font-weight="bold"><tspan x="94.8" y="34">shiftY</tspan></text><g id="Default"><use fill="#000" filter="url(#filter-2)" xlink:href="#path-1"/><path fill="#FFF" stroke="#A7333A" d="M92.5 73.775l15.69 16.01h-6.488c.886 1.695 3.06 5.91 4.01 8.24.318.776-.979 2.324-.979 2.324h0l-2.42.151-4.2-8.574-5.613 5.727V73.775z"/></g><use id="Rectangle" stroke="#7E7C7B" stroke-dasharray="1,1" stroke-width="2" mask="url(#mask-4)" xlink:href="#path-3"/><path id="Line-41-Copy-2" fill="#C06334" fill-rule="nonzero" d="M78.295 66l14 7-14 7-.001-6H28v6l-14-7 14-7v6h50.294l.001-6z"/><path id="Line-41-Copy-3" fill="#C06334" fill-rule="nonzero" d="M92.295 5l7 14-6.001-.001v40l6.001.001-7 14-7-14h5.999V19h-5.999l7-14z"/></g></g></svg>