<svg width="600" height="105" viewBox="0 0 600 105" xmlns="http://www.w3.org/2000/svg"><title>Slice 1</title><desc>Created with Sketch.</desc><g fill="none" fill-rule="evenodd"><path stroke="#979797" d="M0 65h80v40H0z"/><text font-family="Consolas" font-size="14" fill="#000"><tspan x="36" y="90">1</tspan></text><text id="sum" font-family="Consolas" font-size="14" fill="#000"><tspan x="7" y="8">sum</tspan><tspan x="7" y="24">0</tspan><tspan x="7" y="40">current</tspan><tspan x="7" y="56">1</tspan></text><path stroke="#979797" d="M79 65h80v40H79z"/><text font-family="Consolas" font-size="14" fill="#000"><tspan x="115" y="90">2</tspan></text><text font-family="Consolas" font-size="14" fill="#000"><tspan x="86" y="8">sum</tspan><tspan x="86" y="24">0+1</tspan><tspan x="86" y="40">current</tspan><tspan x="86" y="56">2</tspan></text><path stroke="#979797" d="M158 65h80v40h-80z"/><text font-family="Consolas" font-size="14" fill="#000"><tspan x="194" y="90">3</tspan></text><text font-family="Consolas" font-size="14" fill="#000"><tspan x="165" y="8">sum</tspan><tspan x="165" y="24">0+1+2</tspan><tspan x="165" y="40">current</tspan><tspan x="165" y="56">3</tspan></text><path stroke="#979797" d="M237 65h80v40h-80z"/><text font-family="Consolas" font-size="14" fill="#000"><tspan x="273" y="90">4</tspan></text><text font-family="Consolas" font-size="14" fill="#000"><tspan x="244" y="8">sum</tspan><tspan x="244" y="24">0+1+2+3</tspan><tspan x="244" y="40">current</tspan><tspan x="244" y="56">4</tspan></text><path stroke="#979797" d="M316 65h80v40h-80z"/><text font-family="Consolas" font-size="14" fill="#000"><tspan x="352" y="90">5</tspan></text><text font-family="Consolas" font-size="14" fill="#000"><tspan x="323" y="8">sum</tspan><tspan x="323" y="24">0+1+2+3+4</tspan><tspan x="323" y="40">current</tspan><tspan x="323" y="56">5</tspan></text><path d="M412.5 83h50" stroke="#979797" stroke-width="2" stroke-linecap="square" fill="#979797"/><path d="M462.5 83l-10.8-3v6l10.8-3z" stroke="#979797" stroke-width="2" stroke-linecap="square" fill="#979797"/><text font-family="Consolas" font-size="14" fill="#000"><tspan x="477" y="87">0+1+2+3+4+5 = 15</tspan></text></g></svg>