<svg xmlns="http://www.w3.org/2000/svg" width="500" height="264" viewBox="0 0 500 264"><defs><style>@import url(https://fonts.googleapis.com/css?family=Open+Sans:bold,italic,bolditalic%7CPT+Mono);@font-face{font-family:&apos;PT Mono&apos;;font-weight:700;font-style:normal;src:local(&apos;PT MonoBold&apos;),url(/font/PTMonoBold.woff2) format(&apos;woff2&apos;),url(/font/PTMonoBold.woff) format(&apos;woff&apos;),url(/font/PTMonoBold.ttf) format(&apos;truetype&apos;)}</style></defs><g id="combined" fill="none" fill-rule="evenodd" stroke="none" stroke-width="1"><g id="ifelse_task2.svg"><path id="Path-1218-Copy" fill="#EE6B47" fill-rule="nonzero" d="M425.5 133.5v54h8l-9.5 19-9.5-19h8v-51h-82v-3h85z"/><g id="Rectangle-1-+-Корень" transform="translate(213 4)"><rect id="Rectangle-1" width="78" height="28" x="1" y="1" fill="#FFF9EB" stroke="#E8C48E" stroke-width="2" rx="14"/><text id="Begin" fill="#8A704D" font-family="OpenSans-Regular, Open Sans" font-size="14" font-weight="normal"><tspan x="21" y="19">Begin</tspan></text></g><g id="Rectangle-1-+-Корень-Copy-2" transform="translate(8 206)"><rect id="Rectangle-1" width="131" height="49" x="1" y="1" fill="#FFF9EB" stroke="#E8C48E" stroke-width="2" rx="24.5"/><text id="You-don't-know?-“ECM" fill="#8A704D" font-family="OpenSans-Regular, Open Sans" font-size="14" font-weight="normal"><tspan x="13.354" y="20">You don&apos;t know?</tspan> <tspan x="21.967" y="39">“ECMAScript”!</tspan></text></g><g id="Rectangle-1-+-Корень-Copy-3" transform="translate(354 206)"><rect id="Rectangle-1" width="131" height="49" x="1" y="1" fill="#FFF9EB" stroke="#E8C48E" stroke-width="2" rx="24.5"/><text id="Right!" fill="#8A704D" font-family="OpenSans-Regular, Open Sans" font-size="14" font-weight="normal"><tspan x="47.93" y="28">Right!</tspan></text></g><path id="Line" fill="#EE6B47" fill-rule="nonzero" d="M255 34v23.049l8 .001-9.5 19-9.5-19 8-.001V34h3z"/><path id="Path-1218" fill="#EE6B47" fill-rule="nonzero" d="M139.5 133.5v3h-59v51h8l-9.5 19-9.5-19h8v-54h62z"/><path id="Rectangle-356" fill="#FFF" d="M47 152h60v20H47z"/><g id="Rectangle-354-+-Каково-“официальное”" transform="translate(137 76)"><path id="Rectangle-354" fill="#FFF9EB" stroke="#E8C48E" stroke-width="2" d="M2.199 59.5L116.5 117.877 230.801 59.5 116.5 1.123 2.199 59.5z"/><text id="What's-the-“official" fill="#8A704D" font-family="OpenSans-Regular, Open Sans" font-size="14" font-weight="normal"><tspan x="81.026" y="43">What&apos;s the</tspan> <tspan x="60.635" y="62">“official” name of</tspan> <tspan x="80.77" y="81">JavaScript?</tspan></text></g><text id="Other" fill="#8A704D" font-family="OpenSans-Regular, Open Sans" font-size="14" font-weight="normal"><tspan x="57" y="166">Other</tspan></text><path id="Rectangle-356-Copy" fill="#FFF" d="M387 152h60v20h-60z"/><text id="ECMAScript" fill="#8A704D" font-family="OpenSans-Regular, Open Sans" font-size="14" font-weight="normal"><tspan x="383" y="165">ECMAScript</tspan></text></g></g></svg>