<?xml version="1.0" encoding="UTF-8" standalone="no"?>
<svg width="337px" height="216px" viewBox="0 0 337 216" version="1.1" xmlns="http://www.w3.org/2000/svg" xmlns:xlink="http://www.w3.org/1999/xlink" xmlns:sketch="http://www.bohemiancoding.com/sketch/ns">
    <!-- Generator: bin/sketchtool 1.3 (252) - http://www.bohemiancoding.com/sketch -->
    <title>event-order-bubbling.svg</title>
    <desc>Created with bin/sketchtool.</desc>
    <defs></defs>
    <g id="combined" stroke="none" stroke-width="1" fill="none" fill-rule="evenodd" sketch:type="MSPage">
        <g id="event-order-bubbling.svg" sketch:type="MSArtboardGroup">
            <path d="M159.48764,140 L174,186 L60,186 L74.51236,140 L159.48764,140 Z" id="Rectangle-210" fill="#FFDE99" sketch:type="MSShapeGroup"></path>
            <path d="M180.23146,72 L202,141 L31,141 L52.76854,72 L180.23146,72 Z" id="Rectangle-209" stroke="#CFCE95" stroke-width="18" sketch:type="MSShapeGroup"></path>
            <path d="M199.611787,20 L228,110 L5,110 L33.388213,20 L199.611787,20 Z" id="Rectangle-208" stroke="#99C0C3" stroke-width="18" sketch:type="MSShapeGroup"></path>
            <path d="M112.500875,123 L112.500875,110 L112.500875,110 L121.499875,110 L121.499875,123 L112.500875,123 Z M112.500875,141 L112.500875,154.816139 C112.500875,157.302139 114.514875,159.316139 117.000875,159.316139 C119.484875,159.316139 121.499875,157.302139 121.499875,154.816139 L121.499875,141 L112.500875,141 Z M112.500875,92 L112.500875,35.6981394 L102.361875,45.8351394 C100.605875,47.5921394 97.756875,47.5921394 95.998875,45.8351394 C94.240875,44.0771394 94.240875,41.2281394 95.998875,39.4711394 L113.637875,21.8311394 C114.563875,20.9071394 115.789875,20.4821394 117.000875,20.5311394 C118.210875,20.4821394 119.437875,20.9071394 120.361875,21.8311394 L138.001875,39.4711394 C139.758875,41.2281394 139.758875,44.0771394 138.001875,45.8351394 C136.243875,47.5921394 133.394875,47.5921394 131.637875,45.8351394 L121.499875,35.6981394 L121.499875,92 L112.500875,92 Z" id="Fill-46" fill="#5A4739" sketch:type="MSShapeGroup"></path>
            <text id="1" sketch:type="MSTextLayer" font-family="Consolas" font-size="14" font-weight="bold" fill="#5A4739">
                <tspan x="210" y="105">1</tspan>
            </text>
            <text id="2" sketch:type="MSTextLayer" font-family="Consolas" font-size="14" font-weight="bold" fill="#5A4739">
                <tspan x="185" y="136">2</tspan>
            </text>
            <text id="3" sketch:type="MSTextLayer" font-family="Consolas" font-size="14" font-weight="bold" fill="#EE6B47">
                <tspan x="157" y="181">3</tspan>
            </text>
            <text id="Самый-глубокий-элеме" sketch:type="MSTextLayer" font-family="Open Sans" font-size="14" font-weight="526" line-spacing="17" fill="#8A704D">
                <tspan x="211" y="181">Самый глубокий </tspan>
                <tspan x="211" y="198">элемент</tspan>
            </text>
            <path d="M170.5,176.5 L200.5,176.5" id="Line-30" stroke="#EE6B47" stroke-width="2" stroke-linecap="square" stroke-dasharray="3,6" sketch:type="MSShapeGroup"></path>
        </g>
    </g>
</svg>