<svg xmlns="http://www.w3.org/2000/svg" width="461" height="316" viewBox="0 0 461 316"><defs><style>@import url(https://fonts.googleapis.com/css?family=Open+Sans:bold,italic,bolditalic%7CPT+Mono);@font-face{font-family:&apos;PT Mono&apos;;font-weight:700;font-style:normal;src:local(&apos;PT MonoBold&apos;),url(/font/PTMonoBold.woff2) format(&apos;woff2&apos;),url(/font/PTMonoBold.woff) format(&apos;woff&apos;),url(/font/PTMonoBold.ttf) format(&apos;truetype&apos;)}</style></defs><g id="inheritance" fill="none" fill-rule="evenodd" stroke="none" stroke-width="1"><g id="animal-rabbit-static.svg"><path id="Rectangle-1" fill="#FFF9EB" stroke="#E8C48E" stroke-width="2" d="M246 23h207v48H246z"/><text id="constructor:-Animal" fill="#8A704D" font-family="PTMono-Regular, PT Mono" font-size="14" font-weight="normal"><tspan x="256" y="42">constructor: Animal</tspan> <tspan x="256" y="57">run: function</tspan></text><path id="Rectangle-1-Copy" fill="#FFF9EB" stroke="#E8C48E" stroke-width="2" d="M246 278h207v28H246z"/><text id="Animal.prototype" fill="#8A704D" font-family="PTMono-Regular, PT Mono" font-size="14" font-weight="normal"><tspan x="245" y="15">Animal.prototype</tspan></text><path id="Rectangle-1-Copy-4" fill="#FFF9EB" stroke="#E8C48E" stroke-width="2" d="M246 158h207v48H246z"/><text id="constructor:-Rabbit" fill="#8A704D" font-family="PTMono-Regular, PT Mono" font-size="14" font-weight="normal"><tspan x="256" y="177">constructor: Rabbit</tspan> <tspan x="256" y="192">hide: function</tspan></text><text id="Rabbit.prototype" fill="#8A704D" font-family="PTMono-Regular, PT Mono" font-size="14" font-weight="normal"><tspan x="245" y="150">Rabbit.prototype</tspan></text><path id="Rectangle-1-Copy-2" fill="#FFF9EB" stroke="#E8C48E" stroke-width="2" d="M11 23h98v48H11z"/><text id="Animal" fill="#8A704D" font-family="PTMono-Regular, PT Mono" font-size="14" font-weight="normal"><tspan x="10" y="15">Animal</tspan></text><path id="Rectangle-1-Copy-3" fill="#FFF9EB" stroke="#E8C48E" stroke-width="2" d="M11 158h98v48H11z"/><text id="Rabbit" fill="#8A704D" font-family="PTMono-Regular, PT Mono" font-size="14" font-weight="normal"><tspan x="10" y="150">Rabbit</tspan></text><text id="rabbit" fill="#8A704D" font-family="PTMono-Regular, PT Mono" font-size="14" font-weight="normal"><tspan x="251" y="267">rabbit</tspan></text><path id="Line" fill="#EE6B47" fill-rule="nonzero" d="M334.5 88.5l7 14h-6v28h-2v-28h-6l7-14z"/><path id="Line-Copy" fill="#EE6B47" fill-rule="nonzero" d="M211 30l14 7-14 7v-6h-79v-2h79v-6z"/><text id="[[Prototype]]" fill="#8A704D" font-family="PTMono-Regular, PT Mono" font-size="14" font-weight="normal"><tspan x="344" y="112">[[Prototype]]</tspan></text><path id="Line-Copy-4" fill="#EE6B47" fill-rule="nonzero" d="M56.5 88.5l7 14h-6v28h-2v-28h-6l7-14z"/><text id="[[Prototype]]-Copy-2" fill="#EC6B4E" font-family="PTMono-Regular, PT Mono" font-size="14" font-weight="normal"><tspan x="66" y="112">[[Prototype]]</tspan></text><path id="Line-Copy-3" fill="#EE6B47" fill-rule="nonzero" d="M334.5 222.5l7 14h-6v28h-2v-28h-6l7-14z"/><text id="[[Prototype]]-Copy" fill="#8A704D" font-family="PTMono-Regular, PT Mono" font-size="14" font-weight="normal"><tspan x="344" y="246">[[Prototype]]</tspan></text><text id="prototype" fill="#8A704D" font-family="PTMono-Regular, PT Mono" font-size="14" font-weight="normal"><tspan x="139" y="25">prototype</tspan></text><path id="Line-Copy-2" fill="#EE6B47" fill-rule="nonzero" d="M211 172l14 7-14 7v-6h-79v-2h79v-6z"/><text id="prototype-copy" fill="#8A704D" font-family="PTMono-Regular, PT Mono" font-size="14" font-weight="normal"><tspan x="139" y="168">prototype</tspan></text><text id="compare" fill="#8A704D" font-family="PTMono-Regular, PT Mono" font-size="14" font-weight="normal"><tspan x="20" y="41">compare</tspan></text><text id="name:-&quot;White-Rabbit&quot;" fill="#8A704D" font-family="PTMono-Regular, PT Mono" font-size="14" font-weight="normal"><tspan x="257" y="296">name: &quot;White Rabbit&quot;</tspan></text></g></g></svg>