<svg xmlns="http://www.w3.org/2000/svg" width="486" height="295" viewBox="0 0 486 295"><defs><style>@import url(https://fonts.googleapis.com/css?family=Open+Sans:bold,italic,bolditalic%7CPT+Mono);@font-face{font-family:&apos;PT Mono&apos;;font-weight:700;font-style:normal;src:local(&apos;PT MonoBold&apos;),url(/font/PTMonoBold.woff2) format(&apos;woff2&apos;),url(/font/PTMonoBold.woff) format(&apos;woff&apos;),url(/font/PTMonoBold.ttf) format(&apos;truetype&apos;)}</style></defs><g id="inheritance" fill="none" fill-rule="evenodd" stroke="none" stroke-width="1"><g id="mixin-inheritance.svg"><path id="Rectangle-1" fill="#FBF2EC" stroke="#DBAF88" stroke-width="2" d="M305 130.11h178v58H305z"/><text id="sayHi:-function-sayB" fill="#AF6E24" font-family="PTMono-Regular, PT Mono" font-size="14" font-weight="normal"><tspan x="315" y="153.11">sayHi: function</tspan> <tspan x="315" y="168.11">sayBye: function</tspan></text><text id="sayHiMixin" fill="#AF6E24" font-family="PTMono-Regular, PT Mono" font-size="14" font-weight="normal"><tspan x="304" y="122.11">sayHiMixin</tspan></text><path id="Rectangle-1" fill="#FBF2EC" stroke="#DBAF88" stroke-width="2" d="M305 23.11h178v28H305z"/><text id="say:-function" fill="#AF6E24" font-family="PTMono-Regular, PT Mono" font-size="14" font-weight="normal"><tspan x="315" y="41.11">say: function</tspan></text><text id="sayMixin" fill="#AF6E24" font-family="PTMono-Regular, PT Mono" font-size="14" font-weight="normal"><tspan x="304" y="15.11">sayMixin</tspan></text><path id="Line-2" fill="#C06334" fill-rule="nonzero" d="M364.5 64.61l7 14-6-.001v28h-2v-28h-6l7-14z"/><text id="[[Prototype]]" fill="#C06334" font-family="PTMono-Regular, PT Mono" font-size="14" font-weight="normal"><tspan x="378" y="87">[[Prototype]]</tspan></text><path id="Rectangle-1-Copy" fill="#FBF2EC" stroke="#DBAF88" stroke-width="2" d="M8 130.11h178v58H8z"/><text id="constructor:-User-sa" fill="#AF6E24" font-family="PTMono-Regular, PT Mono" font-size="14" font-weight="normal"><tspan x="18" y="146.11">constructor: User</tspan> <tspan x="18" y="161.11">sayHi: function</tspan> <tspan x="18" y="176.11">sayBye: function</tspan></text><text id="User.prototype" fill="#AF6E24" font-family="PTMono-Regular, PT Mono" font-size="14" font-weight="normal"><tspan x="7" y="122.11">User.prototype</tspan></text><path id="Line-2-Copy" fill="#C06334" fill-rule="nonzero" d="M67.5 204.61l7 14-6-.001v28h-2v-28h-6l7-14z"/><path id="Line-2-Copy-2" fill="#C06334" fill-rule="nonzero" d="M264.5 168.61l14 7-14 7v-6.001h-110v-2h110v-6z"/><path id="Line-2-Copy-3" fill="#C06334" fill-rule="nonzero" d="M264.5 152.61l14 7-14 7v-6.001h-110v-2h110v-6z"/><text id="[[Prototype]]-Copy" fill="#C06334" font-family="PTMono-Regular, PT Mono" font-size="14" font-weight="normal"><tspan x="81" y="227">[[Prototype]]</tspan></text><path id="Rectangle-1-Copy-2" fill="#FBF2EC" stroke="#DBAF88" stroke-width="2" d="M12 261h99v28H12z"/><text id="name:-..." fill="#AF6E24" font-family="PTMono-Regular, PT Mono" font-size="14" font-weight="normal"><tspan x="18" y="278.11">name: ...</tspan></text><text id="user" fill="#AF6E24" font-family="PTMono-Regular, PT Mono" font-size="14" font-weight="normal"><tspan x="11" y="253">user</tspan></text><text id="[[HomeObject]" fill="#C06334" font-family="PTMono-Regular, PT Mono" font-size="14" font-weight="normal"><tspan x="193" y="148">[[HomeObject]</tspan></text></g></g></svg>