<svg xmlns="http://www.w3.org/2000/svg" width="440" height="289" viewBox="0 0 440 289"><defs><style>@import url(https://fonts.googleapis.com/css?family=Open+Sans:bold,italic,bolditalic%7CPT+Mono);@font-face{font-family:&apos;PT Mono&apos;;font-weight:700;font-style:normal;src:local(&apos;PT MonoBold&apos;),url(/font/PTMonoBold.woff2) format(&apos;woff2&apos;),url(/font/PTMonoBold.woff) format(&apos;woff&apos;),url(/font/PTMonoBold.ttf) format(&apos;truetype&apos;)}</style></defs><g id="data-storage" fill="none" fill-rule="evenodd" stroke="none" stroke-width="1"><g id="indexeddb-index.svg"><path id="Rectangle-1" fill="#FFF9EB" stroke="#E8C48E" stroke-width="2" d="M17 43v58h107V43H17z"/><path id="Rectangle-1-Copy" fill="#FFF9EB" stroke="#E8C48E" stroke-width="2" d="M17 43v58h113V43H17z"/><text id="id:-'html'-price:-3" fill="#8A704D" font-family="PTMono-Regular, PT Mono" font-size="14" font-weight="normal"><tspan x="27" y="66">id: &apos;html&apos;</tspan> <tspan x="27" y="81">price: 3</tspan></text><path id="Rectangle-1-Copy-2" fill="#FFF9EB" stroke="#E8C48E" stroke-width="2" d="M17 101v58h113v-58H17z"/><text id="id:-'css'-price:-5" fill="#8A704D" font-family="PTMono-Regular, PT Mono" font-size="14" font-weight="normal"><tspan x="27" y="124">id: &apos;css&apos;</tspan> <tspan x="27" y="139">price: 5</tspan></text><text id="3:-['html']-5:-['css" fill="#8A704D" font-family="PTMono-Regular, PT Mono" font-size="16" font-weight="normal"><tspan x="245" y="57">3: [&apos;html&apos;]</tspan> <tspan x="245" y="87">5: [&apos;css&apos;]</tspan> <tspan x="245" y="117">10: [&apos;js&apos;,&apos;nodejs&apos;]</tspan></text><path id="Rectangle-1-Copy-3" fill="#FFF9EB" stroke="#E8C48E" stroke-width="2" d="M17 159v58h113v-58H17z"/><text id="id:-'js'-price:-10" fill="#8A704D" font-family="PTMono-Regular, PT Mono" font-size="14" font-weight="normal"><tspan x="27" y="182">id: &apos;js&apos;</tspan> <tspan x="27" y="197">price: 10</tspan></text><path id="Rectangle-1-Copy-4" fill="#FFF9EB" stroke="#E8C48E" stroke-width="2" d="M17 217v58h113v-58H17z"/><text id="id:-'nodejs'-price:" fill="#8A704D" font-family="PTMono-Regular, PT Mono" font-size="14" font-weight="normal"><tspan x="27" y="240">id: &apos;nodejs&apos;</tspan> <tspan x="27" y="255">price: 10</tspan></text><text id="books" fill="#8A704D" font-family="OpenSans-Regular, Open Sans" font-size="18" font-weight="normal"><tspan x="16" y="31">books</tspan></text><text id="index" fill="#8A704D" font-family="OpenSans-Regular, Open Sans" font-size="18" font-weight="normal"><tspan x="245" y="31">index</tspan></text><path id="Line" fill="#EE6B47" fill-rule="nonzero" d="M223.5 49.5l14 7-14 7v-6h-3v-2h3v-6zm-7 6v2h-5v-2h5zm-9 0v2h-5v-2h5zm-9 0v2h-5v-2h5zm-9 0v2h-5v-2h5zm-9 0v2h-5v-2h5zm-9 0v2h-5v-2h5zm-9 0v2h-5v-2h5zm-9 0v2h-5v-2h5zm-9 0v2h-5v-2h5z"/><path id="Line-Copy" fill="#EE6B47" fill-rule="nonzero" d="M141.258 119.01l.677 1.882-.942.338-2.823 1.014-.941.338-.676-1.882.941-.338 2.823-1.014.941-.338zm8.47-3.043l.677 1.882-4.706 1.69-.676-1.882.941-.338 2.823-1.014.942-.338zm8.47-3.043l.677 1.883-4.706 1.69-.676-1.882 4.706-1.69zm8.47-3.042l.677 1.882-.941.338-3.765 1.352-.676-1.882.941-.338 3.765-1.352zm8.47-3.043l.677 1.882-4.706 1.69-.676-1.882 4.706-1.69zm8.47-3.043l.677 1.883-.941.338-3.765 1.352-.676-1.882 4.706-1.69zm8.47-3.042l.677 1.882-.941.338-3.765 1.352-.676-1.882.941-.338 2.824-1.014.94-.338zm8.471-3.043l.676 1.882-.941.338-2.823 1.015-.941.338-.677-1.883 3.765-1.352.941-.338zm8.47-3.043l.676 1.883-.94.338-2.824 1.014-.941.338-.676-1.882 3.764-1.352.941-.339zm12.939-11.023L237.5 85.5l-10.81 11.32-2.028-5.646-1.791.644-.941.338-.676-1.883.94-.338 1.792-.643-2.028-5.647zm-4.469 7.98l.676 1.883-.94.338-2.824 1.014-.941.338-.676-1.882.94-.338 2.824-1.014.941-.338z"/><path id="Line-Copy-2" fill="#EE6B47" fill-rule="nonzero" d="M144.508 164.175l.836 1.817-.908.418-2.726 1.254-.908.418-.836-1.817.908-.418 2.726-1.254.908-.418zm8.177-3.76l.836 1.816-.909.418-2.725 1.254-.909.418-.836-1.817.909-.418 2.725-1.254.909-.418zm8.176-3.762l.836 1.817-.908.418-2.726 1.254-.908.418-.836-1.817.908-.418 2.726-1.254.908-.418zm8.177-3.761l.836 1.817-.909.418-2.725 1.254-.909.417-.836-1.817.909-.417 2.725-1.254.909-.418zm8.176-3.761l.836 1.817-.909.418-2.725 1.253-.909.418-.835-1.817.908-.418 2.726-1.253.908-.418zm8.177-3.761l.835 1.817-.908.418-2.726 1.253-.908.418-.836-1.817.909-.418 2.725-1.253.909-.418zm8.176-3.762l.836 1.817-.909.418-2.725 1.254-.909.418-.836-1.817.909-.418 2.725-1.254.909-.418zm8.176-3.76l.836 1.816-.908.418-2.726 1.254-.908.418-.836-1.817.908-.418 2.726-1.254.908-.418zm8.177-3.762l.836 1.817-.909.418-2.725 1.254-.909.418-.836-1.817.909-.418 2.725-1.254.909-.418zm11.936-12.095l15.644.509-9.794 12.21-2.508-5.451-1.724.793-.908.418-.836-1.817.909-.417 1.723-.794-2.506-5.45zm-3.76 8.334l.836 1.817-.909.418-2.725 1.254-.908.418-.836-1.817.908-.418 2.726-1.254.908-.418z"/><path id="Line-Copy-3" fill="#EE6B47" fill-rule="nonzero" d="M143.315 221.096l1.377 1.45-.725.69-2.175 2.065-.725.69-1.377-1.45.725-.69 2.175-2.066.725-.689zm6.525-6.198l1.377 1.45-.725.688-2.175 2.067-.725.688-1.377-1.45.725-.688 2.175-2.067.725-.688zm6.525-6.199l1.377 1.45-.725.689-2.175 2.066-.725.689-1.377-1.45.725-.689 2.175-2.066.725-.689zm6.525-6.199l1.377 1.45-.725.689-2.175 2.066-.725.689-1.377-1.45.725-.689 2.175-2.066.725-.689zm6.525-6.198l1.377 1.45-.725.688-2.175 2.067-.725.688-1.377-1.45.725-.688 2.175-2.067.725-.688zm6.525-6.2l1.377 1.45-.725.69-2.175 2.066-.725.689-1.377-1.45.725-.69 2.175-2.065.725-.69zm6.525-6.198l1.377 1.45-.725.689-2.175 2.066-.725.689-1.377-1.45.725-.689 2.175-2.066.725-.689zm6.525-6.199l1.377 1.45-.725.689-2.175 2.066-.725.689-1.377-1.45.725-.689 2.175-2.066.725-.689zm6.525-6.198l1.377 1.45-.725.688-2.175 2.067-.725.688-1.377-1.45.725-.688 2.175-2.067.725-.688zm6.525-6.2l1.377 1.45-.725.69-2.175 2.066-.725.689-1.377-1.45.725-.69 2.175-2.065.725-.69zm6.525-6.198l1.377 1.45-.725.689-2.175 2.066-.725.689-1.377-1.45.725-.689 2.175-2.066.725-.689zm6.525-6.199l1.377 1.45-.725.689-2.175 2.066-.725.689-1.377-1.45.725-.689 2.175-2.066.725-.689zm6.525-6.198l1.377 1.45-.725.688-2.175 2.067-.725.688-1.377-1.45.725-.688 2.175-2.067.725-.688zM237.5 133l-5.329 14.717-4.133-4.35-1.42 1.35-.726.69-1.377-1.45.725-.69 1.42-1.35-4.131-4.35L237.5 133z"/></g></g></svg>