<svg xmlns="http://www.w3.org/2000/svg" width="473" height="291" viewBox="0 0 473 291"><defs><style>@import url(https://fonts.googleapis.com/css?family=Open+Sans:bold,italic,bolditalic%7CPT+Mono);@font-face{font-family:&apos;PT Mono&apos;;font-weight:700;font-style:normal;src:local(&apos;PT MonoBold&apos;),url(/font/PTMonoBold.woff2) format(&apos;woff2&apos;),url(/font/PTMonoBold.woff) format(&apos;woff&apos;),url(/font/PTMonoBold.ttf) format(&apos;truetype&apos;)}</style></defs><g id="data-storage" fill="none" fill-rule="evenodd" stroke="none" stroke-width="1"><g id="indexeddb-index.svg"><path id="Rectangle-1" fill="#FFF9EB" stroke="#E8C48E" stroke-width="2" d="M17 43v58h107V43H17z"/><path id="Rectangle-1-Copy" fill="#FFF9EB" stroke="#E8C48E" stroke-width="2" d="M17 43v58h113V43H17z"/><text id="id:-'html'-price:-3" fill="#8A704D" font-family="PTMono-Regular, PT Mono" font-size="14" font-weight="normal"><tspan x="27" y="66">id: &apos;html&apos;</tspan> <tspan x="27" y="81">price: 3</tspan></text><path id="Rectangle-1-Copy-2" fill="#FFF9EB" stroke="#E8C48E" stroke-width="2" d="M17 101v58h113v-58H17z"/><text id="id:-'css'-price:-5" fill="#8A704D" font-family="PTMono-Regular, PT Mono" font-size="14" font-weight="normal"><tspan x="27" y="124">id: &apos;css&apos;</tspan> <tspan x="27" y="139">price: 5</tspan></text><text id="3:-['html']-5:-['css" fill="#8A704D" font-family="PTMono-Regular, PT Mono" font-size="20" font-weight="normal"><tspan x="245" y="60">3: [&apos;html&apos;]</tspan> <tspan x="245" y="90">5: [&apos;css&apos;]</tspan> <tspan x="245" y="120">10: [&apos;js&apos;,&apos;nodejs&apos;]</tspan></text><path id="Rectangle-1-Copy-3" fill="#FFF9EB" stroke="#E8C48E" stroke-width="2" d="M17 159v58h113v-58H17z"/><text id="id:-'js'-price:-10" fill="#8A704D" font-family="PTMono-Regular, PT Mono" font-size="14" font-weight="normal"><tspan x="27" y="182">id: &apos;js&apos;</tspan> <tspan x="27" y="197">price: 10</tspan></text><path id="Rectangle-1-Copy-4" fill="#FFF9EB" stroke="#E8C48E" stroke-width="2" d="M17 217v58h113v-58H17z"/><text id="id:-'nodejs'-price:" fill="#8A704D" font-family="PTMono-Regular, PT Mono" font-size="14" font-weight="normal"><tspan x="27" y="240">id: &apos;nodejs&apos;</tspan> <tspan x="27" y="255">price: 10</tspan></text><text id="books" fill="#8A704D" font-family="OpenSans-Regular, Open Sans" font-size="18" font-weight="normal"><tspan x="16" y="31">books</tspan></text><text id="index" fill="#8A704D" font-family="OpenSans-Regular, Open Sans" font-size="18" font-weight="normal"><tspan x="245" y="31">index</tspan></text><path id="Line" fill="#EE6B47" fill-rule="nonzero" d="M223.5 57.5h-3v-2h3v-6l14 7-14 7v-6zm-7-2v2h-5v-2h5zm-9 0v2h-5v-2h5zm-9 0v2h-5v-2h5zm-9 0v2h-5v-2h5zm-9 0v2h-5v-2h5zm-9 0v2h-5v-2h5zm-9 0v2h-5v-2h5zm-9 0v2h-5v-2h5zm-9 0v2h-5v-2h5z"/><path id="Line-Copy" fill="#EE6B47" fill-rule="nonzero" d="M224.662 91.174l-2.732.982-.676-1.883 2.732-.981-2.028-5.647L237.5 85.5l-10.81 11.32-2.028-5.646zm-7.173.452l.676 1.882-4.705 1.69-.676-1.882 4.705-1.69zm-8.47 3.042l.676 1.883-4.705 1.69-.676-1.882 4.705-1.69zm-8.47 3.043l.676 1.882-4.705 1.69-.677-1.882 4.706-1.69zm-8.47 3.043l.676 1.882-4.706 1.69-.676-1.882 4.706-1.69zm-8.47 3.042l.676 1.883-4.706 1.69-.676-1.882 4.706-1.69zm-8.47 3.043l.676 1.882-4.706 1.69-.676-1.882 4.706-1.69zm-8.47 3.043l.676 1.882-4.706 1.69-.676-1.882 4.706-1.69zm-8.47 3.042l.676 1.883-4.706 1.69-.676-1.882 4.706-1.69zm-8.47 3.043l.676 1.882-4.706 1.69-.676-1.882 4.706-1.69zm-8.47 3.043l.676 1.882-4.706 1.69-.676-1.882 4.705-1.69z"/><path id="Line-Copy-2" fill="#EE6B47" fill-rule="nonzero" d="M225.199 129.26l-2.633 1.21-.836-1.817 2.633-1.21-2.507-5.452 15.644.509-9.794 12.21-2.507-5.45zm-7.103 1.065l.836 1.817-4.542 2.09-.836-1.817 4.542-2.09zm-8.176 3.761l.836 1.817-4.543 2.09-.836-1.817 4.543-2.09zm-8.177 3.761l.836 1.817-4.542 2.09-.836-1.817 4.542-2.09zm-8.176 3.761l.836 1.817-4.543 2.09-.836-1.817 4.543-2.09zm-8.176 3.762l.835 1.817-4.542 2.09-.836-1.818 4.543-2.09zm-8.177 3.76l.836 1.818-4.543 2.09-.835-1.818 4.542-2.09zm-8.176 3.762l.836 1.817-4.543 2.09-.836-1.818 4.543-2.09zm-8.177 3.761l.836 1.817-4.542 2.09-.836-1.817 4.542-2.09zm-8.176 3.761l.836 1.817-4.543 2.09-.836-1.817 4.543-2.09zm-8.177 3.761l.836 1.817-4.542 2.09-.836-1.817 4.542-2.09z"/><path id="Line-Copy-3" fill="#EE6B47" fill-rule="nonzero" d="M235.224 142.071l-2.182 1.948-1.332-1.492 2.182-1.948-3.997-4.475L245 132l-5.78 14.546-3.996-4.475zm-6.497 3.12l1.332 1.492-3.73 3.33-1.332-1.49 3.73-3.331zm-6.713 5.995l1.332 1.492-3.73 3.33-1.331-1.491 3.729-3.33zm-6.713 5.995l1.332 1.492-3.73 3.33-1.331-1.491 3.729-3.33zm-6.713 5.995l1.332 1.492-3.73 3.33-1.331-1.492 3.73-3.33zm-6.713 5.995l1.332 1.491-3.729 3.33-1.332-1.49 3.73-3.331zm-6.713 5.994l1.333 1.492-3.73 3.33-1.332-1.491 3.73-3.33zm-6.713 5.995l1.333 1.492-3.73 3.33-1.332-1.491 3.73-3.33zm-6.712 5.995l1.332 1.492-3.73 3.33-1.332-1.492 3.73-3.33zm-6.713 5.995l1.332 1.492-3.73 3.33-1.332-1.492 3.73-3.33zm-6.713 5.995l1.332 1.491-3.73 3.33-1.332-1.491 3.73-3.33zm-6.713 5.994l1.332 1.492-3.73 3.33-1.331-1.491 3.729-3.33zm-6.713 5.995l1.332 1.492-3.73 3.33-1.331-1.492 3.729-3.33zm-6.713 5.995l1.332 1.492-3.73 3.33-1.331-1.492 3.73-3.33zm-6.713 5.995l1.332 1.491-3.729 3.33-1.332-1.491 3.73-3.33z"/></g></g></svg>