<svg width="420" height="279" viewBox="0 0 420 279" xmlns="http://www.w3.org/2000/svg"><title>family-no-family.svg</title><desc>Created with bin/sketchtool.</desc><g fill="none" fill-rule="evenodd"><g><path d="M256.5 233.5h-59" id="Line" stroke="#EE6B47" stroke-linecap="square" fill="#EE6B47"/><path id="Line-decoration-1" d="M197.5 233.5l10.8 3v-6l-10.8 3z" stroke="#EE6B47" stroke-linecap="square" fill="#EE6B47"/><path stroke="#E8C48E" stroke-width="4" fill="#FFF9EB" d="M167 24h120v50H167z"/><text font-family="Consolas" font-size="14" fill="#8A704D"><tspan x="201" y="17">window</tspan></text><text font-family="Consolas" font-size="14" fill="#8A704D"><tspan x="202" y="43">Корень</tspan></text><path stroke="#BCA68E" stroke-width="2" fill="#FFF9EB" d="M186 122h80v28h-80z"/><text font-family="Consolas" font-size="14" fill="#8A704D"><tspan x="203" y="139">Object</tspan></text><path stroke="#BCA68E" stroke-width="2" fill="#FFF9EB" d="M68 190h120v50H68z"/><text font-family="Consolas" font-size="14" fill="#8A704D"><tspan x="103" y="208">Object</tspan></text><text font-family="Consolas" font-size="14" fill="#8A704D"><tspan x="99" y="170">father</tspan></text><text font-family="Consolas" font-size="14" fill="#8A704D"><tspan x="211" y="191">wife</tspan></text><text font-family="Consolas" font-size="12" fill="#8A704D"><tspan x="83" y="228">name: &amp;quot;Василий&amp;quot;</tspan></text><path stroke="#BCA68E" stroke-width="2" fill="#FFF9EB" d="M277 190h120v50H277z"/><text font-family="Consolas" font-size="12" fill="#8A704D"><tspan x="294" y="228">name: &amp;quot;Мария&amp;quot;</tspan></text><text font-family="Consolas" font-size="14" fill="#8A704D"><tspan x="306" y="170">mother</tspan></text><text font-family="Consolas" font-size="14" fill="#8A704D"><tspan x="308" y="208">Object</tspan></text><path d="M178.5 155.5l-46 32" stroke="#EE6B47" stroke-linecap="square" fill="#EE6B47"/><path d="M132.53 187.48l10.578-3.705-3.426-4.926-7.153 8.63z" stroke="#EE6B47" stroke-linecap="square" fill="#EE6B47"/><path d="M197.5 199.5h61" id="Line" stroke="#EE6B47" stroke-linecap="square" fill="#EE6B47"/><path id="Line-decoration-1" d="M258.5 199.5l-10.8-3v6l10.8-3z" stroke="#EE6B47" stroke-linecap="square" fill="#EE6B47"/><text font-family="Consolas" font-size="14" fill="#8A704D"><tspan x="200" y="224">husband</tspan></text><path d="M272.5 155.5l47 32" stroke="#EE6B47" stroke-linecap="square" fill="#EE6B47"/><path d="M318.79 187.016l-7.24-8.558c-1.18 1.736-2.194 3.224-3.376 4.96 3.715 1.26 6.9 2.34 10.616 3.598z" stroke="#EE6B47" stroke-linecap="square" fill="#EE6B47"/><path stroke="#D0011B" stroke-width="2" d="M47 111h366v152H47z"/><text font-family="Consolas" font-size="14" fill="#8A704D"><tspan x="181" y="66">family: null</tspan></text><g><path d="M25.503 111.75h-5.006c-.187 0-.34.154-.34.342v1.125h5.686v-1.125c0-.188-.152-.34-.34-.34z" id="Shape"/><path d="M36.364 113.217H27.59v-1.125c0-1.154-.936-2.092-2.087-2.092h-5.006c-1.15 0-2.087.938-2.087 2.092v1.125H9.637c-.7 0-1.266.568-1.266 1.27v.088c0 .7.567 1.268 1.267 1.268h26.727c.7 0 1.266-.567 1.266-1.268v-.09c0-.7-.568-1.268-1.266-1.268zm-10.52 0h-5.687v-1.125c0-.188.153-.34.34-.34h5.006c.188 0 .34.152.34.34v1.125zM34.054 116.28H11.727c-1.297 0-2.35-.223-2.35 1.078l1.763 25.838c0 1.3 1.052 2.41 2.35 2.41h18.802c1.298 0 2.35-1.11 2.35-2.41l1.763-25.838c0-1.3-1.053-1.077-2.35-1.077zm-16.417 25.913c-.377.012-.69-.26-.704-.612l-.694-19.916c-.013-.35.282-.647.658-.66.377-.013.692.26.704.613l.694 19.916c.013.35-.283.647-.66.66zm6.044-.63c0 .352-.305.637-.68.637-.378 0-.683-.286-.683-.637v-19.93c0-.35.305-.635.682-.635.375 0 .68.285.68.636v19.93zm5.385.018c-.012.352-.327.626-.704.613-.375-.013-.67-.308-.658-.66l.694-19.916c.012-.352.326-.626.703-.613.376.014.67.31.66.66l-.695 19.917z" fill="#D0021B"/></g></g></g></svg>