<?xml version="1.0" encoding="UTF-8" standalone="no"?>
<svg width="337px" height="215px" viewBox="0 0 337 215" version="1.1" xmlns="http://www.w3.org/2000/svg" xmlns:xlink="http://www.w3.org/1999/xlink">
    <defs></defs>
    <g id="combined" stroke="none" stroke-width="1" fill="none" fill-rule="evenodd">
        <g id="family">
            <path d="M192.5,201.5 L133.5,201.5" id="Line" stroke="#EE6B47" stroke-width="2" stroke-linecap="square" fill="#EE6B47"></path>
            <path id="Line-decoration-1" d="M133.5,201.5 C137.28,202.55 140.52,203.45 144.3,204.5 C144.3,202.4 144.3,200.6 144.3,198.5 C140.52,199.55 137.28,200.45 133.5,201.5 C133.5,201.5 133.5,201.5 133.5,201.5 Z" stroke="#EE6B47" stroke-width="2" stroke-linecap="square" fill="#EE6B47"></path>
            <rect id="Rectangle-1" stroke="#E8C48E" stroke-width="2" x="122" y="23" width="80" height="30"></rect>
            <text id="window" font-family="Consolas" font-size="14" font-weight="normal" fill="#8A704D">
                <tspan x="122" y="16">window</tspan>
            </text>
            <text id="Корень" font-family="Consolas" font-size="14" font-weight="normal" fill="#8A704D">
                <tspan x="139" y="42">Корень</tspan>
            </text>
            <rect id="Rectangle-2" stroke="#BCA68E" stroke-width="2" fill="#FFF9EB" x="122" y="90" width="80" height="28"></rect>
            <text id="Object" font-family="Consolas" font-size="14" font-weight="normal" fill="#8A704D">
                <tspan x="139" y="107">Object</tspan>
            </text>
            <rect id="Rectangle-3" stroke="#BCA68E" stroke-width="2" fill="#FFF9EB" x="4" y="158" width="120" height="50"></rect>
            <text id="Object-2" font-family="Consolas" font-size="14" font-weight="normal" fill="#8A704D">
                <tspan x="39" y="176">Object</tspan>
            </text>
            <text id="father" font-family="Consolas" font-size="14" font-weight="normal" fill="#8A704D">
                <tspan x="35" y="138">father</tspan>
            </text>
            <text id="wife" font-family="Consolas" font-size="14" font-weight="normal" fill="#8A704D">
                <tspan x="147" y="159">wife</tspan>
            </text>
            <text font-family="Consolas" font-size="14" font-weight="normal" fill="#8A704D">
                <tspan x="107" y="74">family</tspan>
            </text>
            <text id="name:-&quot;Василий&quot;" font-family="Consolas" font-size="12" font-weight="normal" fill="#8A704D">
                <tspan x="19" y="196">name: "Василий"</tspan>
            </text>
            <rect id="Rectangle-4" stroke="#BCA68E" stroke-width="2" fill="#FFF9EB" x="213" y="158" width="120" height="50"></rect>
            <text id="name:-&quot;Мария&quot;" font-family="Consolas" font-size="12" font-weight="normal" fill="#8A704D">
                <tspan x="230" y="196">name: "Мария"</tspan>
            </text>
            <text id="mother" font-family="Consolas" font-size="14" font-weight="normal" fill="#8A704D">
                <tspan x="242" y="138">mother</tspan>
            </text>
            <text id="Object-3" font-family="Consolas" font-size="14" font-weight="normal" fill="#8A704D">
                <tspan x="244" y="176">Object</tspan>
            </text>
            <path d="M163.5,55.5 L163.5,86.5" id="Line" stroke="#EE6B47" stroke-width="2" stroke-linecap="square" fill="#EE6B47"></path>
            <path id="Line-decoration-1" d="M163.5,86.5 C164.55,82.72 165.45,79.48 166.5,75.7 C164.4,75.7 162.6,75.7 160.5,75.7 C161.55,79.48 162.45,82.72 163.5,86.5 C163.5,86.5 163.5,86.5 163.5,86.5 Z" stroke="#EE6B47" stroke-width="2" stroke-linecap="square" fill="#EE6B47"></path>
            <path d="M114.5,123.5 L68.5,155.5" id="Line-2" stroke="#EE6B47" stroke-width="2" stroke-linecap="square" fill="#EE6B47"></path>
            <path id="Line-2-decoration-1" d="M68.5293087,155.479611 C72.2319481,154.182938 75.405639,153.071504 79.1082783,151.77483 C77.9090429,150.05093 76.8811268,148.5733 75.6818914,146.849399 C73.1784875,149.869973 71.0327127,152.459037 68.5293087,155.479611 C68.5293087,155.479611 68.5293087,155.479611 68.5293087,155.479611 Z" stroke="#EE6B47" stroke-width="2" stroke-linecap="square" fill="#EE6B47"></path>
            <path d="M133.5,167.5 L194.5,167.5" id="Line" stroke="#EE6B47" stroke-width="2" stroke-linecap="square" fill="#EE6B47"></path>
            <path id="Line-decoration-1" d="M194.5,167.5 C190.72,166.45 187.48,165.55 183.7,164.5 C183.7,166.6 183.7,168.4 183.7,170.5 C187.48,169.45 190.72,168.55 194.5,167.5 C194.5,167.5 194.5,167.5 194.5,167.5 Z" stroke="#EE6B47" stroke-width="2" stroke-linecap="square" fill="#EE6B47"></path>
            <text id="husband" font-family="Consolas" font-size="14" font-weight="normal" fill="#8A704D">
                <tspan x="136" y="192">husband</tspan>
            </text>
            <path d="M208.5,123.5 L255.5,155.5" id="Line" stroke="#EE6B47" stroke-width="2" stroke-linecap="square" fill="#EE6B47"></path>
            <path id="Line-decoration-1" d="M254.789558,155.016295 C252.255943,152.021016 250.084274,149.453634 247.550659,146.458354 C246.368798,148.194213 245.355774,149.682091 244.173913,151.41795 C247.889389,152.677371 251.074082,153.756874 254.789558,155.016295 C254.789558,155.016295 254.789558,155.016295 254.789558,155.016295 Z" stroke="#EE6B47" stroke-width="2" stroke-linecap="square" fill="#EE6B47"></path>
        </g>
    </g>
</svg>