<svg width="329" height="203" viewBox="0 0 329 203" xmlns="http://www.w3.org/2000/svg"><title>family</title><desc>Created with Sketch.</desc><g fill="none" fill-rule="evenodd"><path d="M188.5 196.5h-59" stroke="#979797" stroke-linecap="square" fill="#979797"/><path d="M129.5 196.5l10.8 3v-6l-10.8 3z" stroke="#979797" stroke-linecap="square" fill="#979797"/><path stroke="#979797" d="M118 18h80v30h-80z"/><text font-family="Consolas" font-size="14" fill="#000"><tspan x="118" y="11">window</tspan></text><text font-family="Consolas" font-size="14" fill="#000"><tspan x="135" y="37">Корень</tspan></text><path stroke="#979797" fill="#E8E8E8" d="M118 85h80v28h-80z"/><text font-family="Consolas" font-size="14" fill="#000"><tspan x="135" y="102">Object</tspan></text><path stroke="#979797" fill="#E8E8E8" d="M0 153h120v50H0z"/><text font-family="Consolas" font-size="14" fill="#000"><tspan x="35" y="171">Object</tspan></text><text font-family="Consolas" font-size="14" fill="#000"><tspan x="31" y="133">father</tspan></text><text font-family="Consolas" font-size="14" fill="#000"><tspan x="143" y="154">wife</tspan></text><text font-family="Consolas" font-size="14" fill="#000"><tspan x="103" y="69">family</tspan></text><text font-family="Consolas" font-size="12" fill="#000"><tspan x="15" y="191">name: &amp;quot;Василий&amp;quot;</tspan></text><path stroke="#979797" fill="#E8E8E8" d="M209 153h120v50H209z"/><text font-family="Consolas" font-size="12" fill="#000"><tspan x="226" y="191">name: &amp;quot;Мария&amp;quot;</tspan></text><text font-family="Consolas" font-size="14" fill="#000"><tspan x="238" y="133">mother</tspan></text><text font-family="Consolas" font-size="14" fill="#000"><tspan x="240" y="171">Object</tspan></text><path d="M159.5 50.5v31m0 0l3-10.8h-6l3 10.8zm-49 37l-46 32" stroke="#979797" stroke-linecap="square" fill="#979797"/><path d="M64.53 150.48l10.578-3.705-3.426-4.926-7.153 8.63z" stroke="#979797" stroke-linecap="square" fill="#979797"/><path d="M129.5 162.5h61" stroke="#979797" stroke-linecap="square" fill="#9B9B9B"/><path d="M190.5 162.5l-10.8-3v6l10.8-3z" stroke="#979797" stroke-linecap="square" fill="#9B9B9B"/><text font-family="Consolas" font-size="14" fill="#000"><tspan x="132" y="187">husband</tspan></text><path d="M204.5 118.5l47 32" stroke="#979797" stroke-linecap="square" fill="#979797"/><path d="M250.79 150.016l-7.24-8.558c-1.18 1.736-2.194 3.224-3.376 4.96 3.715 1.26 6.9 2.34 10.616 3.598z" stroke="#979797" stroke-linecap="square" fill="#979797"/></g></svg>