<svg width="350" height="225" viewBox="0 0 350 225" xmlns="http://www.w3.org/2000/svg"><title>family-no-father</title><desc>Created with Sketch.</desc><g fill="none" fill-rule="evenodd"><path stroke="#979797" d="M139 18h80v30h-80z"/><text font-family="Consolas" font-size="14" fill="#000"><tspan x="139" y="11">window</tspan></text><text font-family="Consolas" font-size="14" fill="#000"><tspan x="156" y="37">Корень</tspan></text><path stroke="#979797" fill="#E8E8E8" d="M139 85h80v28h-80z"/><text font-family="Consolas" font-size="14" fill="#000"><tspan x="156" y="102">Object</tspan></text><path stroke="#979797" fill="#E8E8E8" d="M21 153h120v50H21z"/><text font-family="Consolas" font-size="14" fill="#000"><tspan x="56" y="171">Object</tspan></text><text font-family="Consolas" font-size="14" fill="#000"><tspan x="164" y="154">wife</tspan></text><text font-family="Consolas" font-size="14" fill="#000"><tspan x="124" y="69">family</tspan></text><text font-family="Consolas" font-size="12" fill="#000"><tspan x="36" y="191">name: &amp;quot;Василий&amp;quot;</tspan></text><path stroke="#979797" fill="#E8E8E8" d="M230 153h120v50H230z"/><text font-family="Consolas" font-size="12" fill="#000"><tspan x="247" y="191">name: &amp;quot;Мария&amp;quot;</tspan></text><text font-family="Consolas" font-size="14" fill="#000"><tspan x="259" y="133">mother</tspan></text><text font-family="Consolas" font-size="14" fill="#000"><tspan x="261" y="171">Object</tspan></text><path d="M180.5 50.5v31" stroke="#979797" stroke-linecap="square" fill="#979797"/><path d="M180.5 81.5l3-10.8h-6l3 10.8z" stroke="#979797" stroke-linecap="square" fill="#979797"/><path d="M150.5 162.5h61" stroke="#979797" stroke-linecap="square" fill="#9B9B9B"/><path d="M211.5 162.5l-10.8-3v6l10.8-3z" stroke="#979797" stroke-linecap="square" fill="#9B9B9B"/><path d="M225.5 118.5l47 32" stroke="#979797" stroke-linecap="square" fill="#979797"/><path d="M271.79 150.016l-7.24-8.558c-1.18 1.736-2.194 3.224-3.376 4.96 3.715 1.26 6.9 2.34 10.616 3.598z" stroke="#979797" stroke-linecap="square" fill="#979797"/><path stroke="#D0011B" d="M0 124h214v101H0z"/><path d="M21.056 127.283c-8.83 0-17.768 2.018-17.768 5.88 0 1.174.83 2.176 2.23 3.005l3.067 25.78.002-.002c.064 2.496 6.452 3.842 12.47 3.842 8.102 0 12.473-2 12.473-3.878 0-.004 0-.01-.002-.012l3.06-25.726c1.404-.83 2.24-1.832 2.24-3.01 0-3.86-8.94-5.88-17.772-5.88zm14.66 10.47l-.81-.777c.332-.132.656-.268.953-.415l-.147 1.195zm-.096.822l-.43 3.613-2.342 2.233-5.513-5.254.57-.544c2.36-.303 4.53-.765 6.308-1.385l1.407 1.34zm-1.986 16.693l-.49.467-5.597-5.34 5.3-5.057 1.768 1.686-.98 8.244zm-9.99 2.84l-2.09-1.996 5.512-5.258 5.6 5.34-3 2.86c-1.556-.464-3.573-.804-6.02-.947zm5.452 1.49l-1.944 1.854-2.757-2.63c1.815.154 3.403.427 4.7.775zm-16.624-.552l-2.992-2.853 5.598-5.34 5.514 5.26-2.09 1.992c-2.45.14-4.47.48-6.03.94zm5.28-.227l-2.76 2.63-1.95-1.86c1.302-.35 2.893-.62 4.71-.77zm-9.28-3.59l-.972-8.18 1.795-1.715 5.3 5.055L9 155.736l-.53-.505zM6.25 136.56c.306.15.638.29.98.425l-.834.797-.146-1.222zm1.673.683c1.78.62 3.957 1.08 6.32 1.38l.566.54-5.517 5.258-2.38-2.27-.423-3.542 1.43-1.362zm8.172-7.795c.028-.002.057-.004.085-.008l4.412 4.208-3.47 3.31c-1.534-.107-2.925-.272-4.165-.48l-2.117-2.02 5.255-5.01zM10.36 134l-2.804-2.674c1.62-.71 4.125-1.38 7.458-1.766L10.36 134zm16.013 5.163l-5.3 5.056-5.3-5.06.352-.337c1.608.14 3.27.215 4.932.215 1.67 0 3.343-.074 4.96-.218l.356.34zm-5.3 5.973l5.513 5.258-5.514 5.26-5.513-5.26 5.51-5.258zm-5.995 4.8l-5.3-5.056 5.513-5.26 5.3 5.058-5.51 5.257zm6.475-5.258l5.3-5.057 5.513 5.26-5.3 5.058-5.513-5.257zm-.497-7.583c-1.066 0-2.068-.033-3.03-.084l3.046-2.9 3.043 2.902c-.97.053-1.98.086-3.06.086zm-9.296-.84c-.82-.168-1.56-.354-2.224-.55l.824-.787 1.4 1.336zm-2.944 8.625L7.4 146.23l-.362-3.046 1.778 1.696zm12.256 11.69l1.564 1.492c-.512-.018-1.033-.03-1.58-.03-.532 0-1.044.012-1.545.028l1.565-1.49zm12.256-11.69l1.74-1.658-.357 2.978-1.38-1.32zm-2.936-8.634l1.393-1.328.818.78c-.662.195-1.396.38-2.21.548zm-1.198.226c-1.24.21-2.638.375-4.173.484l-3.464-3.308 4.41-4.205.09.008 5.25 5.01-2.11 2.015zm-2.06-6.907c3.334.387 5.832 1.06 7.445 1.772L31.78 134l-4.65-4.435zm-2.06-.193l-4.002 3.818-4.004-3.82c1.238-.088 2.56-.14 3.99-.14 1.437 0 2.77.052 4.017.142zm-19.746 3.79c0-.432.535-.98 1.587-1.53l2.963 2.828-1.062 1.014c-2.3-.776-3.488-1.673-3.488-2.312zm3.8 27.604l-.458-3.86.032.03.297-.285 2.752 2.63c-1.23.436-2.11.948-2.626 1.49zm.135 1.144c0-.732 1.12-1.5 3.04-2.107l2.21 2.107-2.21 2.107c-1.92-.605-3.04-1.377-3.04-2.107zm5.73.46l2.76 2.632c-1.818-.154-3.41-.426-4.712-.77l1.956-1.863zm3.8 2.705l-3.32-3.165 3.32-3.165c.726-.04 1.48-.066 2.263-.066.797 0 1.56.02 2.298.063l3.316 3.164-3.316 3.162c-.738.04-1.502.065-2.298.065-.783 0-1.537-.025-2.264-.065zm8.36-2.706l1.943 1.85c-1.298.347-2.886.62-4.7.776l2.756-2.63zm2.68 1.64l-2.2-2.1 2.2-2.1c1.907.603 3.02 1.37 3.02 2.1s-1.113 1.492-3.02 2.1zm.55-4.726l2.762-2.636.29.28-.455 3.83c-.51-.535-1.384-1.043-2.598-1.474zm2.94-23.82l-1.056-1.008 2.953-2.818c1.04.546 1.565 1.09 1.565 1.52.002.637-1.18 1.53-3.463 2.303z" fill="#979797"/></g></svg>