<?xml version="1.0" encoding="UTF-8" standalone="no"?>
<svg width="420px" height="279px" viewBox="0 0 420 279" version="1.1" xmlns="http://www.w3.org/2000/svg" xmlns:xlink="http://www.w3.org/1999/xlink" xmlns:sketch="http://www.bohemiancoding.com/sketch/ns">
    <!-- Generator: bin/sketchtool 1.3 (252) - http://www.bohemiancoding.com/sketch -->
    <title>family-no-family.svg</title>
    <desc>Created with bin/sketchtool.</desc>
    <defs></defs>
    <g id="combined" stroke="none" stroke-width="1" fill="none" fill-rule="evenodd" sketch:type="MSPage">
        <g id="family-no-family.svg" sketch:type="MSArtboardGroup">
            <path d="M256.5,233.5 L197.5,233.5" id="Line" stroke="#EE6B47" stroke-width="3" stroke-linecap="square" fill="#EE6B47" sketch:type="MSShapeGroup"></path>
            <path id="Line-decoration-1" d="M197.5,233.5 C201.28,234.55 204.52,235.45 208.3,236.5 C208.3,234.4 208.3,232.6 208.3,230.5 C204.52,231.55 201.28,232.45 197.5,233.5 C197.5,233.5 197.5,233.5 197.5,233.5 Z" stroke="#EE6B47" stroke-width="3" stroke-linecap="square" fill="#EE6B47"></path>
            <rect id="Rectangle-1" stroke="#E8C48E" stroke-width="4" fill="#FFF9EB" sketch:type="MSShapeGroup" x="167" y="24" width="120" height="50"></rect>
            <text id="window" sketch:type="MSTextLayer" font-family="Consolas" font-size="14" font-weight="normal" fill="#8A704D">
                <tspan x="201" y="17">window</tspan>
            </text>
            <text id="Корень" sketch:type="MSTextLayer" font-family="Consolas" font-size="14" font-weight="normal" fill="#8A704D">
                <tspan x="202" y="43">Корень</tspan>
            </text>
            <rect id="Rectangle-2" stroke="#BCA68E" stroke-width="2" fill="#FFF9EB" sketch:type="MSShapeGroup" x="186" y="122" width="80" height="28"></rect>
            <text id="Object" sketch:type="MSTextLayer" font-family="Consolas" font-size="14" font-weight="normal" fill="#8A704D">
                <tspan x="203" y="139">Object</tspan>
            </text>
            <rect id="Rectangle-3" stroke="#BCA68E" stroke-width="2" fill="#FFF9EB" sketch:type="MSShapeGroup" x="68" y="190" width="120" height="50"></rect>
            <text id="Object-2" sketch:type="MSTextLayer" font-family="Consolas" font-size="14" font-weight="normal" fill="#8A704D">
                <tspan x="103" y="208">Object</tspan>
            </text>
            <text id="father" sketch:type="MSTextLayer" font-family="Consolas" font-size="14" font-weight="normal" fill="#8A704D">
                <tspan x="99" y="170">father</tspan>
            </text>
            <text id="wife" sketch:type="MSTextLayer" font-family="Consolas" font-size="14" font-weight="normal" fill="#8A704D">
                <tspan x="211" y="191">wife</tspan>
            </text>
            <text id="name:-&quot;Василий&quot;" sketch:type="MSTextLayer" font-family="Consolas" font-size="12" font-weight="normal" fill="#8A704D">
                <tspan x="83" y="228">name: "Василий"</tspan>
            </text>
            <rect id="Rectangle-4" stroke="#BCA68E" stroke-width="2" fill="#FFF9EB" sketch:type="MSShapeGroup" x="277" y="190" width="120" height="50"></rect>
            <text id="name:-&quot;Мария&quot;" sketch:type="MSTextLayer" font-family="Consolas" font-size="12" font-weight="normal" fill="#8A704D">
                <tspan x="294" y="228">name: "Мария"</tspan>
            </text>
            <text id="mother" sketch:type="MSTextLayer" font-family="Consolas" font-size="14" font-weight="normal" fill="#8A704D">
                <tspan x="306" y="170">mother</tspan>
            </text>
            <text id="Object-3" sketch:type="MSTextLayer" font-family="Consolas" font-size="14" font-weight="normal" fill="#8A704D">
                <tspan x="308" y="208">Object</tspan>
            </text>
            <path d="M178.5,155.5 L132.5,187.5" id="Line-2" stroke="#EE6B47" stroke-width="3" stroke-linecap="square" fill="#EE6B47" sketch:type="MSShapeGroup"></path>
            <path id="Line-2-decoration-1" d="M132.529309,187.479611 C136.231948,186.182938 139.405639,185.071504 143.108278,183.77483 C141.909043,182.05093 140.881127,180.5733 139.681891,178.849399 C137.178487,181.869973 135.032713,184.459037 132.529309,187.479611 C132.529309,187.479611 132.529309,187.479611 132.529309,187.479611 Z" stroke="#EE6B47" stroke-width="3" stroke-linecap="square" fill="#EE6B47"></path>
            <path d="M197.5,199.5 L258.5,199.5" id="Line" stroke="#EE6B47" stroke-width="3" stroke-linecap="square" fill="#EE6B47" sketch:type="MSShapeGroup"></path>
            <path id="Line-decoration-1" d="M258.5,199.5 C254.72,198.45 251.48,197.55 247.7,196.5 C247.7,198.6 247.7,200.4 247.7,202.5 C251.48,201.45 254.72,200.55 258.5,199.5 C258.5,199.5 258.5,199.5 258.5,199.5 Z" stroke="#EE6B47" stroke-width="3" stroke-linecap="square" fill="#EE6B47"></path>
            <text id="husband" sketch:type="MSTextLayer" font-family="Consolas" font-size="14" font-weight="normal" fill="#8A704D">
                <tspan x="200" y="224">husband</tspan>
            </text>
            <path d="M272.5,155.5 L319.5,187.5" id="Line" stroke="#EE6B47" stroke-width="3" stroke-linecap="square" fill="#EE6B47" sketch:type="MSShapeGroup"></path>
            <path id="Line-decoration-1" d="M318.789558,187.016295 C316.255943,184.021016 314.084274,181.453634 311.550659,178.458354 C310.368798,180.194213 309.355774,181.682091 308.173913,183.41795 C311.889389,184.677371 315.074082,185.756874 318.789558,187.016295 C318.789558,187.016295 318.789558,187.016295 318.789558,187.016295 Z" stroke="#EE6B47" stroke-width="3" stroke-linecap="square" fill="#EE6B47"></path>
            <rect id="Rectangle-5" stroke="#D0011B" stroke-width="2" sketch:type="MSShapeGroup" x="47" y="111" width="366" height="152"></rect>
            <text id="family:-null" sketch:type="MSTextLayer" font-family="Consolas" font-size="14" font-weight="normal" fill="#8A704D">
                <tspan x="181" y="66">family: null</tspan>
            </text>
            <g id="noun_48910_cc" sketch:type="MSLayerGroup" transform="translate(8.000000, 110.000000)">
                <path d="M17.5030263,1.75054945 L12.4969737,1.75054945 C12.3098684,1.75054945 12.1571053,1.90364835 12.1571053,2.09156044 L12.1571053,3.21745055 L17.8432895,3.21745055 L17.8432895,2.09156044 C17.8432895,1.90364835 17.6905263,1.75054945 17.5030263,1.75054945 L17.5030263,1.75054945 Z" id="Shape" sketch:type="MSShapeGroup"></path>
                <path d="M28.3638158,3.21745055 L19.5896053,3.21745055 L19.5896053,2.09156044 C19.5896053,0.937978022 18.6540789,4.4408921e-16 17.5030263,4.4408921e-16 L12.4969737,4.4408921e-16 C11.3463158,4.4408921e-16 10.4103947,0.937978022 10.4103947,2.09156044 L10.4103947,3.21745055 L1.63657895,3.21745055 C0.9375,3.21745055 0.370657895,3.78514286 0.370657895,4.48575824 L0.370657895,4.57516484 C0.370657895,5.27578022 0.9375,5.84347253 1.63657895,5.84347253 L28.3638158,5.84347253 C29.0628947,5.84347253 29.6297368,5.27578022 29.6297368,4.57516484 L29.6297368,4.48575824 C29.6297368,3.78514286 29.0625,3.21745055 28.3638158,3.21745055 L28.3638158,3.21745055 Z M17.8432895,3.21745055 L12.1571053,3.21745055 L12.1571053,2.09156044 C12.1571053,1.90364835 12.3098684,1.75054945 12.4969737,1.75054945 L17.5034211,1.75054945 C17.6909211,1.75054945 17.8432895,1.90364835 17.8432895,2.09156044 L17.8432895,3.21745055 L17.8432895,3.21745055 Z" id="Shape" fill="#D0021B" sketch:type="MSShapeGroup"></path>
                <path d="M26.0542105,6.28101099 L3.7275,6.28101099 C2.42960526,6.28101099 1.37723684,6.0567033 1.37723684,7.35784615 L3.13973684,33.195956 C3.13973684,34.4959121 4.1925,35.6047912 5.49039474,35.6047912 L24.2921053,35.6047912 C25.59,35.6047912 26.6423684,34.4959121 26.6423684,33.195956 L28.4048684,7.35784615 C28.4044737,6.0567033 27.3521053,6.28101099 26.0542105,6.28101099 L26.0542105,6.28101099 Z M9.63710526,32.1927033 C9.26013158,32.2053626 8.94552632,31.932 8.93289474,31.5807033 L8.23894737,11.664 C8.22671053,11.3127033 8.52236842,11.0171868 8.89815789,11.0041319 C9.27513158,10.9910769 9.58973684,11.2652308 9.60236842,11.6165275 L10.2963158,31.5332308 C10.3085526,31.8841319 10.0132895,32.180044 9.63710526,32.1927033 L9.63710526,32.1927033 Z M15.6809211,31.5632967 C15.6809211,31.9145934 15.3753947,32.1998242 14.9988158,32.1998242 C14.6222368,32.1998242 14.3167105,31.9141978 14.3167105,31.5632967 L14.3167105,11.6343297 C14.3167105,11.2826374 14.6222368,10.9978022 14.9988158,10.9978022 C15.3753947,10.9978022 15.6809211,11.2826374 15.6809211,11.6343297 L15.6809211,31.5632967 L15.6809211,31.5632967 Z M21.0651316,31.5810989 C21.0528947,31.9323956 20.7378947,32.2057582 20.3609211,32.1930989 C19.9847368,32.1804396 19.6894737,31.8845275 19.7017105,31.5332308 L20.3956579,11.6165275 C20.4078947,11.2652308 20.7225,10.9910769 21.0994737,11.0041319 C21.4756579,11.0175824 21.7713158,11.3127033 21.7590789,11.664 L21.0651316,31.5810989 L21.0651316,31.5810989 Z" id="Shape" fill="#D0021B" sketch:type="MSShapeGroup"></path>
            </g>
        </g>
    </g>
</svg>