<?xml version="1.0" encoding="utf-8"?>
<svg viewBox="-56.888 -599965.495 896063.875 604140.645" width="420.466px" height="300.516px" xmlns="http://www.w3.org/2000/svg" xmlns:bx="https://boxy-svg.com">
  <defs>
    <style bx:fonts="Open Sans">@import url(https://fonts.googleapis.com/css2?family=Open+Sans%3Aital%2Cwght%400%2C300%3B0%2C400%3B0%2C500%3B0%2C600%3B0%2C700%3B0%2C800%3B1%2C300%3B1%2C400%3B1%2C500%3B1%2C600%3B1%2C700%3B1%2C800&amp;display=swap);</style>
  </defs>
  <g id="memory-user-john-admin.svg" transform="matrix(3405.68798828125, 0, 0, 3405.68798828125, -789862.25, -296077.03124999994)" fill="none" fill-rule="evenodd" stroke="none" stroke-width="1" style="">
    <path id="path-1" fill="#FBF2EC" stroke="#DBAF88" stroke-width="2" d="M 234.068 -87.403 L 333.494 -87.403 L 333.494 -57.762 L 234.068 -57.762 L 234.068 -87.403 Z" style=""/>
    <path id="path-2" fill="#FBF2EC" stroke="#DBAF88" stroke-width="2" d="M 336.651 -87.403 L 492.549 -87.403 L 492.549 -57.762 L 336.651 -57.762 L 336.651 -87.403 Z" style=""/>
    <path id="path-3" fill="#FBF2EC" stroke="#DBAF88" stroke-width="2" d="M 234.068 -53.711 L 333.494 -53.711 L 333.494 -24.07 L 234.068 -24.07 L 234.068 -53.711 Z" style=""/>
    <path id="path-4" fill="#FBF2EC" stroke="#DBAF88" stroke-width="2" d="M 336.651 -53.711 L 492.783 -53.711 L 492.783 -24.07 L 336.651 -24.07 L 336.651 -53.711 Z" style=""/>
    <g transform="matrix(1, 0, 0, 1, 0, 42.135864)">
      <path id="path-5" fill="#FBF2EC" stroke="#DBAF88" stroke-width="2" d="M 234.189 -20.462 L 333.615 -20.462 L 333.615 9.179 L 234.189 9.179 L 234.189 -20.462 Z" style=""/>
      <path id="path-6" fill="#FBF2EC" stroke="#DBAF88" stroke-width="2" d="M 336.791 -20.462 L 493.057 -20.462 L 493.057 9.179 L 336.791 9.179 L 336.791 -20.462 Z" style=""/>
      <path id="path-7" fill="#FBF2EC" stroke="#DBAF88" stroke-width="2" d="M 234.068 13.088 L 333.494 13.088 L 333.494 43.59 L 234.068 43.59 L 234.068 13.088 Z" style=""/>
      <path id="path-8" fill="#FBF2EC" stroke="#DBAF88" stroke-width="2" d="M 336.651 13.088 L 493.054 13.088 L 493.054 43.59 L 336.651 43.59 L 336.651 13.088 Z" style=""/>
      <text id="text-4" style="fill: rgb(175, 110, 36); font-family: 'Open Sans'; font-size: 14px; white-space: pre;" transform="matrix(1.054877, 0, 0, 1.142641, -39.02475, 80.086914)" x="263.861" y="-70.535">image-02.jpg</text>
      <text id="text-5" style="fill: rgb(175, 110, 36); font-family: 'Open Sans'; font-size: 14px; white-space: pre;" transform="matrix(1.054877, 0, 0, 1.142641, -39.468063, 113.637062)" x="263.861" y="-70.535">image-03.jpg</text>
    </g>
    <text id="&lt;global&gt;" style="fill: rgb(175, 110, 36); font-family: 'Open Sans'; font-size: 11.5772px; font-weight: 600; line-height: 19.9484px; white-space: pre;" transform="matrix(1.374145, 0, 0, 1.314286, -102.41082, 25.040792)" x="263.861" y="-70.535">key</text>
    <text id="text-2" style="fill: rgb(175, 110, 36); font-family: 'Open Sans'; font-size: 11.5772px; font-weight: 600; line-height: 19.9484px; white-space: pre;" transform="matrix(1.374145, 0, 0, 1.314286, 13.577469, 25.203112)" x="263.861" y="-70.535">value</text>
    <text id="text-3" style="fill: rgb(175, 110, 36); font-family: 'Open Sans'; font-size: 14px; white-space: pre;" transform="matrix(1.071654, 0, 0, 1.142641, -43.57296, 46.390514)" x="263.861" y="-70.535">image-01.jpg</text>
    <g transform="matrix(0.000041, -1, 1.521843, 0.000133, 289.017426, 2.750529)" style="transform-origin: 105.999px -35.503px;">
      <path d="M 105.537 7.964 L 110.918 13.895 L 100.155 13.895 L 105.537 7.964 Z" style="fill-rule: nonzero; fill: rgb(172, 67, 67);" transform="matrix(1, 0, 0, -1, 0, 0)" bx:shape="triangle 100.155 7.964 10.763 5.931 0.5 0 1@87a4267a"/>
      <g>
        <rect x="105.024" y="-69.436" width="1.99" height="5.009" style="paint-order: stroke; stroke: rgb(53, 81, 138); stroke-width: 0px; fill: rgb(172, 67, 67);"/>
        <rect x="105.014" y="-59.02" width="1.99" height="5.009" style="paint-order: stroke; stroke: rgb(53, 81, 138); stroke-width: 0px; fill: rgb(172, 67, 67);"/>
        <rect x="105.014" y="-48.877" width="1.99" height="5.009" style="paint-order: stroke; stroke: rgb(53, 81, 138); stroke-width: 0px; fill: rgb(172, 67, 67);"/>
        <g transform="matrix(1, 0, 0, 1, 10.348016, -60.719521)"/>
        <g transform="matrix(1, 0, 0, 1, 10.356147, 0.41661)"/>
        <g transform="matrix(1, 0, 0, 1, 10.161898, 52.045895)"/>
        <g transform="matrix(1, 0, 0, 1, -23.594774, -60.719116)">
          <rect x="79.597" y="-80.351" width="1.99" height="5.009" style="paint-order: stroke; stroke: rgb(53, 81, 138); stroke-width: 0px; fill: rgb(172, 67, 67);"/>
          <rect x="79.587" y="-69.935" width="1.99" height="5.009" style="paint-order: stroke; stroke: rgb(53, 81, 138); stroke-width: 0px; fill: rgb(172, 67, 67);"/>
          <rect x="79.587" y="-59.792" width="1.99" height="5.009" style="paint-order: stroke; stroke: rgb(53, 81, 138); stroke-width: 0px; fill: rgb(172, 67, 67);"/>
          <rect x="79.561" y="-50.176" width="1.99" height="5.129" style="paint-order: stroke; stroke: rgb(53, 81, 138); stroke-width: 0px; fill: rgb(172, 67, 67);"/>
          <rect x="79.551" y="-39.904" width="1.99" height="5.129" style="paint-order: stroke; stroke: rgb(53, 81, 138); stroke-width: 0px; fill: rgb(172, 67, 67);"/>
          <rect x="79.551" y="-29.517" width="1.99" height="5.129" style="paint-order: stroke; stroke: rgb(53, 81, 138); stroke-width: 0px; fill: rgb(172, 67, 67);"/>
        </g>
        <g transform="matrix(1, 0, 0, 1, -23.586773, 0.417928)">
          <rect x="79.597" y="-80.351" width="1.99" height="5.009" style="paint-order: stroke; stroke: rgb(53, 81, 138); stroke-width: 0px; fill: rgb(172, 67, 67);"/>
          <rect x="79.587" y="-69.935" width="1.99" height="5.009" style="paint-order: stroke; stroke: rgb(53, 81, 138); stroke-width: 0px; fill: rgb(172, 67, 67);"/>
          <rect x="79.587" y="-59.792" width="1.99" height="5.009" style="paint-order: stroke; stroke: rgb(53, 81, 138); stroke-width: 0px; fill: rgb(172, 67, 67);"/>
          <rect x="79.561" y="-50.176" width="1.99" height="5.129" style="paint-order: stroke; stroke: rgb(53, 81, 138); stroke-width: 0px; fill: rgb(172, 67, 67);"/>
          <rect x="79.551" y="-39.904" width="1.99" height="5.129" style="paint-order: stroke; stroke: rgb(53, 81, 138); stroke-width: 0px; fill: rgb(172, 67, 67);"/>
        </g>
        <g transform="matrix(1, 0, 0, 1, -23.780775, 52.046886)">
          <rect x="79.798" y="-80.298" width="1.99" height="5.009" style="paint-order: stroke; stroke: rgb(53, 81, 138); stroke-width: 0px; fill: rgb(172, 67, 67);"/>
          <rect x="79.587" y="-69.935" width="1.99" height="5.009" style="paint-order: stroke; stroke: rgb(53, 81, 138); stroke-width: 0px; fill: rgb(172, 67, 67);"/>
          <rect x="79.587" y="-59.792" width="1.99" height="5.009" style="paint-order: stroke; stroke: rgb(53, 81, 138); stroke-width: 0px; fill: rgb(172, 67, 67);"/>
          <rect x="79.561" y="-50.176" width="1.99" height="5.129" style="paint-order: stroke; stroke: rgb(53, 81, 138); stroke-width: 0px; fill: rgb(172, 67, 67);"/>
          <rect x="79.551" y="-39.904" width="1.99" height="5.129" style="paint-order: stroke; stroke: rgb(53, 81, 138); stroke-width: 0px; fill: rgb(172, 67, 67);"/>
          <rect x="79.551" y="-29.517" width="1.99" height="5.129" style="paint-order: stroke; stroke: rgb(53, 81, 138); stroke-width: 0px; fill: rgb(172, 67, 67);"/>
        </g>
      </g>
      <g transform="matrix(1, 0, 0, 1.024052, -0.03572, 31.45084)" style="">
        <rect x="105.024" y="-69.051" width="1.99" height="5.009" style="paint-order: stroke; stroke: rgb(53, 81, 138); stroke-width: 0px; fill: rgb(172, 67, 67);"/>
        <rect x="105.014" y="-59.02" width="1.99" height="5.009" style="paint-order: stroke; stroke: rgb(53, 81, 138); stroke-width: 0px; fill: rgb(172, 67, 67);"/>
        <rect x="105.014" y="-48.877" width="1.99" height="5.009" style="paint-order: stroke; stroke: rgb(53, 81, 138); stroke-width: 0px; fill: rgb(172, 67, 67);"/>
      </g>
    </g>
    <text id="text-6" style="fill: rgb(172, 67, 67); font-family: 'Open Sans'; font-size: 9.73113px; font-style: italic; white-space: pre;" transform="matrix(1.038937, 0, 0, 1.142641, 69.710487, 42.749538)" x="263.861" y="-70.535">WeakRef object</text>
    <g transform="matrix(0.441364, 0, 0, 0.412845, 420.761139, -59.372555)" style="">
      <g>
        <path d=" M 58.15 23.65 L 58.15 20 54.25 20 Q 50.95 20 49.35 22.2 47.75 24.4 47.75 27.7 L 47.05 41.45 Q 46.8 43.25 46.1 44.6 45.45 46.05 44.35 47.05 43.9 47.55 43.2 47.75 42.8 47.95 41.85 48.15 L 41.85 51.6 Q 42.95 51.8 43.2 51.9 43.9 52.1 44.35 52.45 45.45 53.25 46.05 54.55 47.65 58.15 47.65 61.65 L 47.65 72.1 Q 47.65 75.7 49.45 77.85 51.25 80 54.1 80 L 58.15 80 58.15 76.25 55.25 76.25 Q 54.1 76.25 53.35 75.65 52.55 74.95 52.2 74 L 51.65 71.75 51.5 69.45 51.35 59.8 Q 51.35 57.55 50.8 55.8 50.15 53.65 49.65 52.8 48.8 51.5 47.9 50.8 47.05 50.1 46.1 49.75 47 49.3 47.8 48.7 48.95 47.85 49.6 46.75 50.1 45.8 50.75 43.7 51.35 41.85 51.35 39.45 L 51.55 28.05 52 25.9 Q 52.35 24.85 53.15 24.2 53.9 23.65 55.25 23.65 L 58.15 23.65 Z" style="fill: rgb(175, 110, 36);"/>
      </g>
    </g>
    <g transform="matrix(-0.441364, 0, 0, -0.412845, 414.750092, -88.816727)" style="transform-origin: 50px 50px;">
      <g>
        <path d="M 14.392 23.65 L 14.392 20 L 10.492 20 C 8.292 20 6.659 20.733 5.592 22.2 C 4.525 23.667 3.992 25.5 3.992 27.7 L 3.292 41.45 C 3.125 42.65 2.809 43.7 2.342 44.6 C 1.909 45.567 1.325 46.383 0.592 47.05 C 0.292 47.383 -0.091 47.617 -0.558 47.75 C -0.825 47.883 -1.275 48.017 -1.908 48.15 L -1.908 51.6 C -1.175 51.733 -0.725 51.833 -0.558 51.9 C -0.091 52.033 0.292 52.217 0.592 52.45 C 1.325 52.983 1.892 53.683 2.292 54.55 C 3.359 56.95 3.892 59.317 3.892 61.65 L 3.892 72.1 C 3.892 74.5 4.492 76.417 5.692 77.85 C 6.892 79.283 8.442 80 10.342 80 L 14.392 80 L 14.392 76.25 L 11.492 76.25 C 10.725 76.25 10.092 76.05 9.592 75.65 C 9.059 75.183 8.675 74.633 8.442 74 L 7.892 71.75 L 7.742 69.45 L 7.592 59.8 C 7.592 58.3 7.409 56.967 7.042 55.8 C 6.609 54.367 6.225 53.367 5.892 52.8 C 5.325 51.933 4.742 51.267 4.142 50.8 C 3.575 50.333 2.975 49.983 2.342 49.75 C 2.942 49.45 3.509 49.1 4.042 48.7 C 4.809 48.133 5.409 47.483 5.842 46.75 C 6.175 46.117 6.559 45.1 6.992 43.7 C 7.392 42.467 7.592 41.05 7.592 39.45 L 7.792 28.05 L 8.242 25.9 C 8.475 25.2 8.859 24.633 9.392 24.2 C 9.892 23.833 10.592 23.65 11.492 23.65 L 14.392 23.65 Z" style="fill: rgb(175, 110, 36);"/>
        <path d="M 255.632 27.46 L 268.667 47.91 L 242.597 47.91 L 255.632 27.46 Z" style="fill-rule: nonzero; fill: rgb(172, 67, 67);" transform="matrix(-0.000038, 1, 1, 0.000093, 86.522967, -404.320629)" bx:shape="triangle 242.597 27.46 26.07 20.45 0.5 0 1@97f9cc39"/>
        <rect x="254.391" y="-239.419" width="4.82" height="17.271" style="paint-order: stroke; stroke: rgb(53, 81, 138); stroke-width: 0px; fill: rgb(172, 67, 67);" transform="matrix(-0.000038, 1, -1, -0.000093, 86.522728, -404.32132)"/>
        <rect x="254.367" y="-203.504" width="4.82" height="17.271" style="paint-order: stroke; stroke: rgb(53, 81, 138); stroke-width: 0px; fill: rgb(172, 67, 67);" transform="matrix(-0.000038, 1, -1, -0.000093, 86.522728, -404.32132)"/>
        <rect x="254.367" y="-168.53" width="4.82" height="17.271" style="paint-order: stroke; stroke: rgb(53, 81, 138); stroke-width: 0px; fill: rgb(172, 67, 67);" transform="matrix(-0.000038, 1, -1, -0.000093, 86.522728, -404.32132)"/>
        <rect x="254.391" y="-243.818" width="4.82" height="17.687" style="paint-order: stroke; stroke: rgb(53, 81, 138); stroke-width: 0px; fill: rgb(172, 67, 67);" transform="matrix(-0.000038, 1, -1, -0.000093, -21.921179, -404.417969)"/>
        <rect x="254.367" y="-208.398" width="4.82" height="17.687" style="paint-order: stroke; stroke: rgb(53, 81, 138); stroke-width: 0px; fill: rgb(172, 67, 67);" transform="matrix(-0.000038, 1, -1, -0.000093, -21.921179, -404.417969)"/>
        <rect x="254.367" y="-172.584" width="4.82" height="17.687" style="paint-order: stroke; stroke: rgb(53, 81, 138); stroke-width: 0px; fill: rgb(172, 67, 67);" transform="matrix(-0.000038, 1, -1, -0.000093, -21.921179, -404.417969)"/>
        <text id="text-7" style="fill: rgb(172, 67, 67); font-family: 'Open Sans'; font-size: 9.73113px; font-style: italic; white-space: pre;" transform="matrix(-2.353923, 0, 0, -2.767724, 945.975708, -330.43927)" x="263.861" y="-70.535">WeakRef object</text>
        <path d="M 108.749 -159.455 L 108.749 -163.105 L 104.849 -163.105 C 102.649 -163.105 101.015 -162.371 99.949 -160.905 C 98.882 -159.438 98.349 -157.605 98.349 -155.405 L 97.649 -141.655 C 97.482 -140.455 97.165 -139.405 96.699 -138.505 C 96.265 -137.538 95.682 -136.721 94.949 -136.055 C 94.649 -135.721 94.265 -135.488 93.799 -135.355 C 93.532 -135.221 93.082 -135.088 92.449 -134.955 L 92.449 -131.505 C 93.182 -131.371 93.632 -131.271 93.799 -131.205 C 94.265 -131.071 94.649 -130.888 94.949 -130.655 C 95.682 -130.121 96.249 -129.421 96.649 -128.555 C 97.715 -126.155 98.249 -123.788 98.249 -121.455 L 98.249 -111.005 C 98.249 -108.605 98.849 -106.688 100.049 -105.255 C 101.249 -103.821 102.799 -103.105 104.699 -103.105 L 108.749 -103.105 L 108.749 -106.855 L 105.849 -106.855 C 105.082 -106.855 104.449 -107.055 103.949 -107.455 C 103.415 -107.921 103.032 -108.471 102.799 -109.105 L 102.249 -111.355 L 102.099 -113.655 L 101.949 -123.305 C 101.949 -124.805 101.765 -126.138 101.399 -127.305 C 100.965 -128.738 100.582 -129.738 100.249 -130.305 C 99.682 -131.171 99.099 -131.838 98.499 -132.305 C 97.932 -132.771 97.332 -133.121 96.699 -133.355 C 97.299 -133.655 97.865 -134.005 98.399 -134.405 C 99.165 -134.971 99.765 -135.621 100.199 -136.355 C 100.532 -136.988 100.915 -138.005 101.349 -139.405 C 101.749 -140.638 101.949 -142.055 101.949 -143.655 L 102.149 -155.055 L 102.599 -157.205 C 102.832 -157.905 103.215 -158.471 103.749 -158.905 C 104.249 -159.271 104.949 -159.455 105.849 -159.455 L 108.749 -159.455 Z" style="fill: rgb(175, 110, 36); transform-box: fill-box; transform-origin: 50% 50%;" transform="matrix(-1, 0, 0, -1, -0.000041, -0.000044)"/>
        <path d="M 15.325 -159.251 L 15.325 -162.901 L 11.425 -162.901 C 9.225 -162.901 7.591 -162.168 6.525 -160.701 C 5.458 -159.235 4.925 -157.401 4.925 -155.201 L 4.225 -141.451 C 4.058 -140.251 3.741 -139.201 3.275 -138.301 C 2.841 -137.335 2.258 -136.518 1.525 -135.851 C 1.225 -135.518 0.841 -135.285 0.375 -135.151 C 0.108 -135.018 -0.342 -134.885 -0.975 -134.751 L -0.975 -131.301 C -0.242 -131.168 0.208 -131.068 0.375 -131.001 C 0.841 -130.868 1.225 -130.685 1.525 -130.451 C 2.258 -129.918 2.825 -129.218 3.225 -128.351 C 4.291 -125.951 4.825 -123.585 4.825 -121.251 L 4.825 -110.801 C 4.825 -108.401 5.425 -106.485 6.625 -105.051 C 7.825 -103.618 9.375 -102.901 11.275 -102.901 L 15.325 -102.901 L 15.325 -106.651 L 12.425 -106.651 C 11.658 -106.651 11.025 -106.851 10.525 -107.251 C 9.991 -107.718 9.608 -108.268 9.375 -108.901 L 8.825 -111.151 L 8.675 -113.451 L 8.525 -123.101 C 8.525 -124.601 8.341 -125.935 7.975 -127.101 C 7.541 -128.535 7.158 -129.535 6.825 -130.101 C 6.258 -130.968 5.675 -131.635 5.075 -132.101 C 4.508 -132.568 3.908 -132.918 3.275 -133.151 C 3.875 -133.451 4.441 -133.801 4.975 -134.201 C 5.741 -134.768 6.341 -135.418 6.775 -136.151 C 7.108 -136.785 7.491 -137.801 7.925 -139.201 C 8.325 -140.435 8.525 -141.851 8.525 -143.451 L 8.725 -154.851 L 9.175 -157.001 C 9.408 -157.701 9.791 -158.268 10.325 -158.701 C 10.825 -159.068 11.525 -159.251 12.425 -159.251 L 15.325 -159.251 Z" style="fill: rgb(175, 110, 36);"/>
      </g>
    </g>
    <text id="text-9" style="fill: rgb(175, 110, 36); font-family: 'Open Sans'; font-size: 4.89804px; font-weight: 700; line-height: 19.9484px; white-space: pre;" transform="matrix(1.374145, 0, 0, 1.314286, 83.283821, 131.351151)" x="263.861" y="-70.535">undefined</text>
    <text id="text-10" style="fill: rgb(175, 110, 36); font-family: 'Open Sans'; font-size: 4.89804px; font-weight: 700; line-height: 19.9484px; white-space: pre;" transform="matrix(1.374145, 0, 0, 1.314286, 82.957924, 165.037125)" x="263.861" y="-70.535">undefined</text>
    <text id="text-11" style="fill: rgb(172, 67, 67); font-family: 'Open Sans'; font-size: 9.73113px; font-style: italic; white-space: pre;" transform="matrix(1.038937, 0, 0, 1.142641, -18.813889, 90.723404)" x="263.861" y="-70.535">Deleted by FinalizationRegistry cleanup callback</text>
  </g>
  <g transform="matrix(668.68603515625, 0, 0, 668.68603515625, 227309.90625, -975180.6875)" style="">
    <g transform="matrix(0.178489, 0, 0, 0.175502, 747.077209, 776.317017)" style="">
      <path d="M 267.184 437.8 C 267.184 466.3 290.384 489.4 318.784 489.4 L 704.984 489.4 C 733.484 489.4 756.584 466.2 756.584 437.8 L 756.584 51.6 C 756.584 23.1 733.384 0 704.984 0 L 318.784 0 C 290.284 0 267.184 23.2 267.184 51.6 C 267.184 51.6 267.184 437.8 267.184 437.8 Z M 704.984 464.9 L 318.784 464.9 C 303.884 464.9 291.684 452.7 291.684 437.8 L 291.684 373.3 L 384.484 280.5 L 463.784 359.8 C 468.584 364.6 476.284 364.6 481.084 359.8 L 624.284 216.6 L 732.084 324.4 L 732.084 437.8 C 732.084 452.7 719.884 464.9 704.984 464.9 Z M 318.784 24.5 L 704.984 24.5 C 719.884 24.5 732.084 36.7 732.084 51.6 L 732.084 289.7 L 632.884 190.6 C 628.084 185.8 620.384 185.8 615.584 190.6 L 472.384 333.8 L 393.084 254.5 C 388.284 249.7 380.584 249.7 375.784 254.5 L 291.684 338.6 L 291.684 51.6 C 291.684 36.7 303.884 24.5 318.784 24.5 Z" style="fill: rgb(175, 110, 36);"/>
      <path d="M 418.884 196.1 C 453.284 196.1 481.184 168.1 481.184 133.8 C 481.184 99.5 453.184 71.5 418.884 71.5 C 384.584 71.5 356.584 99.5 356.584 133.8 C 356.584 168.1 384.484 196.1 418.884 196.1 Z M 418.884 96 C 439.784 96 456.684 113 456.684 133.8 C 456.684 154.6 439.684 171.6 418.884 171.6 C 398.084 171.6 381.084 154.6 381.084 133.8 C 381.084 113 397.984 96 418.884 96 Z" style="fill: rgb(175, 110, 36);"/>
    </g>
  </g>
  <path d="M 359424.367 41276.336 L 377751.896 72015.889 L 341096.837 72015.889 L 359424.367 41276.336 Z" style="fill-rule: nonzero; fill: rgb(172, 67, 67);" transform="matrix(0.00004100000296602957, -1, -1, -0.00008700000762473792, 737054.1250000001, 325983.1250000001)" bx:shape="triangle 341096.837 41276.336 36655.059 30739.553 0.5 0 1@d50babe8"/>
  <rect x="357681.08" y="-359881.579" width="6776.286" height="25963.08" style="paint-order: stroke; stroke: rgb(53, 81, 138); stroke-width: 0px; fill: rgb(172, 67, 67);" transform="matrix(0.00004100000296602957, -1, 1, 0.00008700000762473792, 737054.6250000001, 325981.3125000001)"/>
  <rect x="357644.501" y="-305895.331" width="6776.286" height="25963.08" style="paint-order: stroke; stroke: rgb(53, 81, 138); stroke-width: 0px; fill: rgb(172, 67, 67);" transform="matrix(0.00004100000296602957, -1, 1, 0.00008700000762473792, 737054.6250000001, 325981.3125000001)"/>
  <rect x="357644.501" y="-253326.04" width="6776.286" height="25963.08" style="paint-order: stroke; stroke: rgb(53, 81, 138); stroke-width: 0px; fill: rgb(172, 67, 67);" transform="matrix(0.00004100000296602957, -1, 1, 0.00008700000762473792, 737054.6250000001, 325981.3125000001)"/>
  <rect x="357681.08" y="-366492.978" width="6776.286" height="26586.395" style="paint-order: stroke; stroke: rgb(53, 81, 138); stroke-width: 0px; fill: rgb(172, 67, 67);" transform="matrix(0.00004100000296602957, -1, 1, 0.00008700000762473792, 900061.8125000001, 326117.2187500001)"/>
  <rect x="357644.501" y="-313254.567" width="6776.286" height="26586.395" style="paint-order: stroke; stroke: rgb(53, 81, 138); stroke-width: 0px; fill: rgb(172, 67, 67);" transform="matrix(0.00004100000296602957, -1, 1, 0.00008700000762473792, 900061.8125000001, 326117.2187500001)"/>
  <rect x="357644.501" y="-259418.129" width="6776.286" height="26586.395" style="paint-order: stroke; stroke: rgb(53, 81, 138); stroke-width: 0px; fill: rgb(172, 67, 67);" transform="matrix(0.00004100000296602957, -1, 1, 0.00008700000762473792, 900061.8125000001, 326117.2187500001)"/>
  <text id="text-8" style="fill: rgb(172, 67, 67); font-family: 'Open Sans'; font-size: 9.73113px; font-style: italic; white-space: pre;" transform="matrix(3538.295166015625, 0, 0, 3891.478759765625, -554830.25, 222101.96875)" x="263.861" y="-70.535">WeakRef object</text>
  <path d="M 728146.338 -92443.632 L 728146.338 -97574.712 L 722284.793 -97574.712 C 718978.199 -97574.712 716523.314 -96542.53 714919.193 -94480.927 C 713316.016 -92418.404 712514.341 -89841.53 712514.341 -86748.938 L 711462.052 -67415.4 C 711210.096 -65727.244 710734.892 -64250.108 710033.283 -62985.482 C 709382.304 -61626.233 708504.597 -60478.003 707402.151 -59541.042 C 706951.752 -59072.499 706375.587 -58743.915 705673.655 -58556.036 C 705273.289 -58368.007 704596.909 -58181.644 703645.158 -57993.168 L 703645.158 -53141.856 C 704747.605 -52953.853 705423.812 -52816.007 705673.655 -52721.682 C 706375.587 -52533.653 706951.752 -52275.956 707402.151 -51947.819 C 708504.597 -51196.774 709359.189 -50215.843 709957.252 -48995.062 C 711561.373 -45621.509 712363.794 -42293.888 712363.794 -39012.547 L 712363.794 -24320.941 C 712363.794 -20946.169 713265.063 -18250.364 715069.292 -16236.209 C 716874.118 -14219.916 719201.895 -13211.347 722059.73 -13211.347 L 728146.338 -13211.347 L 728146.338 -18485.095 L 723786.735 -18485.095 C 722635.597 -18485.095 721683.847 -18767.275 720932.205 -19327.881 C 720129.784 -19984.452 719554.812 -20757.843 719201.895 -21648.25 L 718377.253 -24810.511 L 718150.525 -28045.597 L 717925.463 -41615.096 C 717925.463 -43722.656 717648.726 -45597.921 717099.007 -47236.193 C 716447.133 -49254.872 715870.968 -50660.078 715370.511 -51456.161 C 714517.162 -52674.979 713641.12 -53612.089 712740.149 -54268.661 C 711885.582 -54925.978 710986.4 -55416.741 710033.283 -55743.536 C 710935.472 -56166.271 711786.261 -56657.059 712587.937 -57219.753 C 713740.267 -58016.755 714644.122 -58930.278 715294.33 -59961.987 C 715794.787 -60852.37 716371.101 -62282.655 717022.975 -64250.108 C 717625.611 -65984.196 717925.463 -67976.901 717925.463 -70227.453 L 718225.811 -86255.615 L 718902.938 -89277.444 C 719252.823 -90261.705 719829.908 -91059.9 720629.445 -91669.769 C 721380.938 -92183.673 722434.122 -92443.632 723786.735 -92443.632 L 728146.338 -92443.632 Z" style="fill: rgb(175, 110, 36);"/>
  <path d="M 868579.948 -92734.348 L 868579.948 -97866.322 L 862717.955 -97866.322 C 859411.336 -97866.322 856954.786 -96837.173 855350.69 -94775.421 C 853747.488 -92713.793 852947.926 -90134.359 852947.926 -87041.916 L 851895.661 -67707.906 C 851643.706 -66022.185 851168.054 -64545.67 850465.228 -63278.459 C 849816.809 -61920.428 848939.872 -60773.094 847838.32 -59836.43 C 847385.039 -59366.993 846807.506 -59039.453 846107.264 -58850.977 C 845705.979 -58662.948 845032.333 -58476.734 844077.55 -58288.705 L 844077.55 -53438.165 C 845180.295 -53250.136 845856.974 -53108.363 846107.264 -53014.659 C 846807.506 -52828.296 847385.039 -52570.897 847838.32 -52242.462 C 848939.872 -51491.715 849788.996 -50508.374 850393.421 -49291.196 C 851994.957 -45916.599 852795.738 -42588.531 852795.738 -39308.084 L 852795.738 -24614.217 C 852795.738 -21238.7 853699.12 -18545.753 855503.051 -16529.485 C 857306.038 -14515.33 859635.504 -13506.885 862491.674 -13506.885 L 868579.948 -13506.885 L 868579.948 -18781.23 L 864220.319 -18781.23 C 863067.542 -18781.23 862114.424 -19061.47 861364.149 -19624.164 C 860562.474 -20278.623 859988.421 -21052.486 859635.504 -21943.639 L 858809.496 -25105.899 L 858584.135 -28341.01 L 858357.407 -41908.844 C 858357.407 -44017.15 858082.336 -45890.452 857532.617 -47532.477 C 856880.42 -49546.483 856302.887 -50953.801 855803.201 -51749.114 C 854950.299 -52969.622 854074.73 -53906.708 853171.77 -54561.937 C 852320.832 -55217.589 851420.01 -55710.191 850465.228 -56038.154 C 851368.61 -56462.579 852219.573 -56952.447 853024.106 -57514.843 C 854174.772 -58310.926 855075.594 -59225.667 855727.194 -60256.63 C 856228.546 -61147.784 856806.351 -62576.08 857456.585 -64545.67 C 858057.531 -66279.609 858357.407 -68270.177 858357.407 -70520.281 L 858660.316 -86548.145 L 859335.33 -89573.007 C 859685.662 -90557.094 860263.045 -91354.096 861063.055 -91962.3 C 861814.548 -92479.061 862866.066 -92734.348 864220.319 -92734.348 L 868579.948 -92734.348 Z" style="fill: rgb(175, 110, 36); transform-origin: 856323px -55686.3px;" transform="matrix(-1, 0, 0, -1, 0.87500000055, -0.046875000444)"/>
  <rect x="3810.427" y="-226324.344" width="889802.927" height="226474.243" style="stroke: rgb(0, 0, 0); stroke-opacity: 0; fill: rgb(172, 67, 67); opacity: 0.76;"/>
</svg>