<?xml version="1.0" encoding="utf-8"?>
<svg viewBox="-44.887 -212.944 528.054 256.516" width="540.055px" height="256.516px" xmlns="http://www.w3.org/2000/svg" xmlns:bx="https://boxy-svg.com">
  <defs>
    <style bx:fonts="Open Sans">@import url(https://fonts.googleapis.com/css2?family=Open+Sans%3Aital%2Cwght%400%2C300%3B0%2C400%3B0%2C500%3B0%2C600%3B0%2C700%3B0%2C800%3B1%2C300%3B1%2C400%3B1%2C500%3B1%2C600%3B1%2C700%3B1%2C800&amp;display=swap);</style>
  </defs>
  <g id="memory-user-john-admin.svg" transform="matrix(1.708757996559143, 0, 0, 1.708757996559143, -443.0394287109375, -47.168914794921875)" fill="none" fill-rule="evenodd" stroke="none" stroke-width="1">
    <text id="name:-&quot;John&quot;" fill="#AF6E24" font-family="PTMono-Regular, PT Mono" font-size="12" font-weight="normal" style="white-space: pre;" x="19.382" y="-93.28"><tspan x="49.382" y="36.72" style="font-size: 12px; word-spacing: 0px;">name: "John"</tspan></text>
    <text id="Object" fill="#AF6E24" font-family="PTMono-Regular, PT Mono" font-size="14" font-weight="normal" style="white-space: pre;" x="17.598" y="-86.206"><tspan x="61.598" y="23.794" style="font-size: 14px; word-spacing: 0px;">Object</tspan></text>
    <path id="Rectangle-1" fill="#FBF2EC" stroke="#DBAF88" stroke-width="2" d="M 40.047 -102 L 133.047 -102 L 133.047 -76 L 40.047 -76 L 40.047 -102 Z"/>
    <text id="text-1" style="fill: rgb(172, 67, 67); font-family: PTMono-Regular, 'PT Mono'; font-size: 14px; white-space: pre;" transform="matrix(0.735667, 0, 0, 0.753868, 86.426659, 10.790039)" x="31.917" y="-40.191">admin</text>
    <path id="path-1" fill="#FBF2EC" stroke="#DBAF88" stroke-width="2" d="M 234.068 -87.403 L 333.494 -87.403 L 333.494 -57.762 L 234.068 -57.762 L 234.068 -87.403 Z" style=""/>
    <path id="path-2" fill="#FBF2EC" stroke="#DBAF88" stroke-width="2" d="M 336.651 -87.403 L 492.549 -87.403 L 492.549 -57.762 L 336.651 -57.762 L 336.651 -87.403 Z" style=""/>
    <path id="path-3" fill="#FBF2EC" stroke="#DBAF88" stroke-width="2" d="M 234.068 -53.711 L 333.494 -53.711 L 333.494 -24.07 L 234.068 -24.07 L 234.068 -53.711 Z" style=""/>
    <path id="path-4" fill="#FBF2EC" stroke="#DBAF88" stroke-width="2" d="M 336.651 -53.711 L 492.783 -53.711 L 492.783 -24.07 L 336.651 -24.07 L 336.651 -53.711 Z" style=""/>
    <path id="path-5" fill="#FBF2EC" stroke="#DBAF88" stroke-width="2" d="M 234.189 -20.462 L 333.615 -20.462 L 333.615 9.179 L 234.189 9.179 L 234.189 -20.462 Z" style=""/>
    <path id="path-6" fill="#FBF2EC" stroke="#DBAF88" stroke-width="2" d="M 336.791 -20.462 L 493.057 -20.462 L 493.057 9.179 L 336.791 9.179 L 336.791 -20.462 Z" style=""/>
    <path id="path-7" fill="#FBF2EC" stroke="#DBAF88" stroke-width="2" d="M 234.068 13.088 L 333.494 13.088 L 333.494 43.59 L 234.068 43.59 L 234.068 13.088 Z" style=""/>
    <path id="path-8" fill="#FBF2EC" stroke="#DBAF88" stroke-width="2" d="M 336.651 13.088 L 493.054 13.088 L 493.054 43.59 L 336.651 43.59 L 336.651 13.088 Z" style=""/>
    <text id="&lt;global&gt;" style="fill: rgb(175, 110, 36); font-family: 'Open Sans'; font-size: 11.5772px; font-weight: 600; line-height: 19.9484px; white-space: pre;" transform="matrix(1.374145, 0, 0, 1.314286, -102.41082, 25.040792)" x="263.861" y="-70.535">key</text>
    <text id="text-2" style="fill: rgb(175, 110, 36); font-family: 'Open Sans'; font-size: 11.5772px; font-weight: 600; line-height: 19.9484px; white-space: pre;" transform="matrix(1.374145, 0, 0, 1.314286, 13.577469, 25.203112)" x="263.861" y="-70.535">value</text>
    <text id="text-3" style="fill: rgb(175, 110, 36); font-family: 'Open Sans'; font-size: 14px; white-space: pre;" transform="matrix(1.071654, 0, 0, 1.142641, -43.57296, 46.390514)" x="263.861" y="-70.535">image-01.jpg</text>
    <text id="text-4" style="fill: rgb(175, 110, 36); font-family: 'Open Sans'; font-size: 14px; white-space: pre;" transform="matrix(1.054877, 0, 0, 1.142641, -39.02475, 80.086914)" x="263.861" y="-70.535">image-02.jpg</text>
    <text id="text-5" style="fill: rgb(175, 110, 36); font-family: 'Open Sans'; font-size: 14px; white-space: pre;" transform="matrix(1.054877, 0, 0, 1.142641, -39.468063, 113.637062)" x="263.861" y="-70.535">image-03.jpg</text>
    <g transform="matrix(0.000041, -1, 1.521843, 0.000133, 289.017426, 2.750529)" style="transform-origin: 105.999px -35.503px;">
      <path d="M 105.537 7.964 L 110.918 13.895 L 100.155 13.895 L 105.537 7.964 Z" style="fill-rule: nonzero; fill: rgb(172, 67, 67);" transform="matrix(1, 0, 0, -1, 0, 0)" bx:shape="triangle 100.155 7.964 10.763 5.931 0.5 0 1@87a4267a"/>
      <g>
        <rect x="105.024" y="-69.436" width="1.99" height="5.009" style="paint-order: stroke; stroke: rgb(53, 81, 138); stroke-width: 0px; fill: rgb(172, 67, 67);"/>
        <rect x="105.014" y="-59.02" width="1.99" height="5.009" style="paint-order: stroke; stroke: rgb(53, 81, 138); stroke-width: 0px; fill: rgb(172, 67, 67);"/>
        <rect x="105.014" y="-48.877" width="1.99" height="5.009" style="paint-order: stroke; stroke: rgb(53, 81, 138); stroke-width: 0px; fill: rgb(172, 67, 67);"/>
      </g>
      <g transform="matrix(1, 0, 0, 1.024052, -0.03572, 31.45084)" style="">
        <rect x="105.024" y="-69.051" width="1.99" height="5.009" style="paint-order: stroke; stroke: rgb(53, 81, 138); stroke-width: 0px; fill: rgb(172, 67, 67);"/>
        <rect x="105.014" y="-59.02" width="1.99" height="5.009" style="paint-order: stroke; stroke: rgb(53, 81, 138); stroke-width: 0px; fill: rgb(172, 67, 67);"/>
        <rect x="105.014" y="-48.877" width="1.99" height="5.009" style="paint-order: stroke; stroke: rgb(53, 81, 138); stroke-width: 0px; fill: rgb(172, 67, 67);"/>
      </g>
    </g>
    <text id="text-6" style="fill: rgb(172, 67, 67); font-family: 'Open Sans'; font-size: 9.73113px; font-style: italic; white-space: pre;" transform="matrix(1.038937, 0, 0, 1.142641, 69.710487, 42.749538)" x="263.861" y="-70.535">WeakRef object</text>
    <g transform="matrix(0.441364, 0, 0, 0.412845, 420.761139, -59.372555)" style="">
      <g>
        <path d=" M 58.15 23.65 L 58.15 20 54.25 20 Q 50.95 20 49.35 22.2 47.75 24.4 47.75 27.7 L 47.05 41.45 Q 46.8 43.25 46.1 44.6 45.45 46.05 44.35 47.05 43.9 47.55 43.2 47.75 42.8 47.95 41.85 48.15 L 41.85 51.6 Q 42.95 51.8 43.2 51.9 43.9 52.1 44.35 52.45 45.45 53.25 46.05 54.55 47.65 58.15 47.65 61.65 L 47.65 72.1 Q 47.65 75.7 49.45 77.85 51.25 80 54.1 80 L 58.15 80 58.15 76.25 55.25 76.25 Q 54.1 76.25 53.35 75.65 52.55 74.95 52.2 74 L 51.65 71.75 51.5 69.45 51.35 59.8 Q 51.35 57.55 50.8 55.8 50.15 53.65 49.65 52.8 48.8 51.5 47.9 50.8 47.05 50.1 46.1 49.75 47 49.3 47.8 48.7 48.95 47.85 49.6 46.75 50.1 45.8 50.75 43.7 51.35 41.85 51.35 39.45 L 51.55 28.05 52 25.9 Q 52.35 24.85 53.15 24.2 53.9 23.65 55.25 23.65 L 58.15 23.65 Z" style="fill: rgb(175, 110, 36);"/>
      </g>
    </g>
    <g transform="matrix(-0.441364, 0, 0, -0.412845, 414.750092, -88.816727)" style="transform-origin: 50px 50px;">
      <g>
        <path d="M 14.392 23.65 L 14.392 20 L 10.492 20 C 8.292 20 6.659 20.733 5.592 22.2 C 4.525 23.667 3.992 25.5 3.992 27.7 L 3.292 41.45 C 3.125 42.65 2.809 43.7 2.342 44.6 C 1.909 45.567 1.325 46.383 0.592 47.05 C 0.292 47.383 -0.091 47.617 -0.558 47.75 C -0.825 47.883 -1.275 48.017 -1.908 48.15 L -1.908 51.6 C -1.175 51.733 -0.725 51.833 -0.558 51.9 C -0.091 52.033 0.292 52.217 0.592 52.45 C 1.325 52.983 1.892 53.683 2.292 54.55 C 3.359 56.95 3.892 59.317 3.892 61.65 L 3.892 72.1 C 3.892 74.5 4.492 76.417 5.692 77.85 C 6.892 79.283 8.442 80 10.342 80 L 14.392 80 L 14.392 76.25 L 11.492 76.25 C 10.725 76.25 10.092 76.05 9.592 75.65 C 9.059 75.183 8.675 74.633 8.442 74 L 7.892 71.75 L 7.742 69.45 L 7.592 59.8 C 7.592 58.3 7.409 56.967 7.042 55.8 C 6.609 54.367 6.225 53.367 5.892 52.8 C 5.325 51.933 4.742 51.267 4.142 50.8 C 3.575 50.333 2.975 49.983 2.342 49.75 C 2.942 49.45 3.509 49.1 4.042 48.7 C 4.809 48.133 5.409 47.483 5.842 46.75 C 6.175 46.117 6.559 45.1 6.992 43.7 C 7.392 42.467 7.592 41.05 7.592 39.45 L 7.792 28.05 L 8.242 25.9 C 8.475 25.2 8.859 24.633 9.392 24.2 C 9.892 23.833 10.592 23.65 11.492 23.65 L 14.392 23.65 Z" style="fill: rgb(175, 110, 36);"/>
        <path d="M 255.632 27.46 L 268.667 47.91 L 242.597 47.91 L 255.632 27.46 Z" style="fill-rule: nonzero; fill: rgb(172, 67, 67);" transform="matrix(-0.000038, 1, 1, 0.000093, 86.522967, -302.258205)" bx:shape="triangle 242.597 27.46 26.07 20.45 0.5 0 1@97f9cc39"/>
        <rect x="254.391" y="-239.419" width="4.82" height="17.271" style="paint-order: stroke; stroke: rgb(53, 81, 138); stroke-width: 0px; fill: rgb(172, 67, 67);" transform="matrix(-0.000038, 1, -1, -0.000093, 86.522728, -302.258331)"/>
        <rect x="254.367" y="-203.504" width="4.82" height="17.271" style="paint-order: stroke; stroke: rgb(53, 81, 138); stroke-width: 0px; fill: rgb(172, 67, 67);" transform="matrix(-0.000038, 1, -1, -0.000093, 86.522728, -302.258331)"/>
        <rect x="254.367" y="-168.53" width="4.82" height="17.271" style="paint-order: stroke; stroke: rgb(53, 81, 138); stroke-width: 0px; fill: rgb(172, 67, 67);" transform="matrix(-0.000038, 1, -1, -0.000093, 86.522728, -302.258331)"/>
        <rect x="254.391" y="-243.818" width="4.82" height="17.687" style="paint-order: stroke; stroke: rgb(53, 81, 138); stroke-width: 0px; fill: rgb(172, 67, 67);" transform="matrix(-0.000038, 1, -1, -0.000093, -21.921179, -302.35498)"/>
        <rect x="254.367" y="-208.398" width="4.82" height="17.687" style="paint-order: stroke; stroke: rgb(53, 81, 138); stroke-width: 0px; fill: rgb(172, 67, 67);" transform="matrix(-0.000038, 1, -1, -0.000093, -21.921179, -302.35498)"/>
        <rect x="254.367" y="-172.584" width="4.82" height="17.687" style="paint-order: stroke; stroke: rgb(53, 81, 138); stroke-width: 0px; fill: rgb(172, 67, 67);" transform="matrix(-0.000038, 1, -1, -0.000093, -21.921179, -302.35498)"/>
        <text id="text-7" style="fill: rgb(172, 67, 67); font-family: 'Open Sans'; font-size: 9.73113px; font-style: italic; white-space: pre;" transform="matrix(-2.353923, 0, 0, -2.767724, 945.975708, -228.376572)" x="263.861" y="-70.535">WeakRef object</text>
        <path d="M 108.749 -57.365 L 108.749 -61.015 L 104.849 -61.015 C 102.649 -61.015 101.015 -60.281 99.949 -58.815 C 98.882 -57.348 98.349 -55.515 98.349 -53.315 L 97.649 -39.565 C 97.482 -38.365 97.165 -37.315 96.699 -36.415 C 96.265 -35.448 95.682 -34.631 94.949 -33.965 C 94.649 -33.631 94.265 -33.398 93.799 -33.265 C 93.532 -33.131 93.082 -32.998 92.449 -32.865 L 92.449 -29.415 C 93.182 -29.281 93.632 -29.181 93.799 -29.115 C 94.265 -28.981 94.649 -28.798 94.949 -28.565 C 95.682 -28.031 96.249 -27.331 96.649 -26.465 C 97.715 -24.065 98.249 -21.698 98.249 -19.365 L 98.249 -8.915 C 98.249 -6.515 98.849 -4.598 100.049 -3.165 C 101.249 -1.731 102.799 -1.015 104.699 -1.015 L 108.749 -1.015 L 108.749 -4.765 L 105.849 -4.765 C 105.082 -4.765 104.449 -4.965 103.949 -5.365 C 103.415 -5.831 103.032 -6.381 102.799 -7.015 L 102.249 -9.265 L 102.099 -11.565 L 101.949 -21.215 C 101.949 -22.715 101.765 -24.048 101.399 -25.215 C 100.965 -26.648 100.582 -27.648 100.249 -28.215 C 99.682 -29.081 99.099 -29.748 98.499 -30.215 C 97.932 -30.681 97.332 -31.031 96.699 -31.265 C 97.299 -31.565 97.865 -31.915 98.399 -32.315 C 99.165 -32.881 99.765 -33.531 100.199 -34.265 C 100.532 -34.898 100.915 -35.915 101.349 -37.315 C 101.749 -38.548 101.949 -39.965 101.949 -41.565 L 102.149 -52.965 L 102.599 -55.115 C 102.832 -55.815 103.215 -56.381 103.749 -56.815 C 104.249 -57.181 104.949 -57.365 105.849 -57.365 L 108.749 -57.365 Z" style="fill: rgb(175, 110, 36); transform-box: fill-box; transform-origin: 50% 50%;" transform="matrix(-1, 0, 0, -1, -0.000004, -0.000028)"/>
        <path d="M 15.325 -57.155 L 15.325 -60.805 L 11.425 -60.805 C 9.225 -60.805 7.591 -60.072 6.525 -58.605 C 5.458 -57.139 4.925 -55.305 4.925 -53.105 L 4.225 -39.355 C 4.058 -38.155 3.741 -37.105 3.275 -36.205 C 2.841 -35.239 2.258 -34.422 1.525 -33.755 C 1.225 -33.422 0.841 -33.189 0.375 -33.055 C 0.108 -32.922 -0.342 -32.789 -0.975 -32.655 L -0.975 -29.205 C -0.242 -29.072 0.208 -28.972 0.375 -28.905 C 0.841 -28.772 1.225 -28.589 1.525 -28.355 C 2.258 -27.822 2.825 -27.122 3.225 -26.255 C 4.291 -23.855 4.825 -21.489 4.825 -19.155 L 4.825 -8.705 C 4.825 -6.305 5.425 -4.389 6.625 -2.955 C 7.825 -1.522 9.375 -0.805 11.275 -0.805 L 15.325 -0.805 L 15.325 -4.555 L 12.425 -4.555 C 11.658 -4.555 11.025 -4.755 10.525 -5.155 C 9.991 -5.622 9.608 -6.172 9.375 -6.805 L 8.825 -9.055 L 8.675 -11.355 L 8.525 -21.005 C 8.525 -22.505 8.341 -23.839 7.975 -25.005 C 7.541 -26.439 7.158 -27.439 6.825 -28.005 C 6.258 -28.872 5.675 -29.539 5.075 -30.005 C 4.508 -30.472 3.908 -30.822 3.275 -31.055 C 3.875 -31.355 4.441 -31.705 4.975 -32.105 C 5.741 -32.672 6.341 -33.322 6.775 -34.055 C 7.108 -34.689 7.491 -35.705 7.925 -37.105 C 8.325 -38.339 8.525 -39.755 8.525 -41.355 L 8.725 -52.755 L 9.175 -54.905 C 9.408 -55.605 9.791 -56.172 10.325 -56.605 C 10.825 -56.972 11.525 -57.155 12.425 -57.155 L 15.325 -57.155 Z" style="fill: rgb(175, 110, 36);"/>
      </g>
    </g>
    <text id="text-9" style="fill: rgb(175, 110, 36); font-family: 'Open Sans'; font-size: 4.89804px; font-weight: 700; line-height: 19.9484px; white-space: pre;" transform="matrix(1.374145, 0, 0, 1.314286, 83.283821, 89.215279)" x="263.861" y="-70.535">undefined</text>
    <text id="text-10" style="fill: rgb(175, 110, 36); font-family: 'Open Sans'; font-size: 4.89804px; font-weight: 700; line-height: 19.9484px; white-space: pre;" transform="matrix(1.374145, 0, 0, 1.314286, 82.957924, 122.90126)" x="263.861" y="-70.535">undefined</text>
  </g>
  <g transform="matrix(0.3355039954185486, 0, 0, 0.3355039954185486, 67.31304168701172, -387.90008544921875)" style="">
    <g transform="matrix(0.178489, 0, 0, 0.175502, 747.077209, 776.317017)" style="">
      <path d="M 267.184 437.8 C 267.184 466.3 290.384 489.4 318.784 489.4 L 704.984 489.4 C 733.484 489.4 756.584 466.2 756.584 437.8 L 756.584 51.6 C 756.584 23.1 733.384 0 704.984 0 L 318.784 0 C 290.284 0 267.184 23.2 267.184 51.6 C 267.184 51.6 267.184 437.8 267.184 437.8 Z M 704.984 464.9 L 318.784 464.9 C 303.884 464.9 291.684 452.7 291.684 437.8 L 291.684 373.3 L 384.484 280.5 L 463.784 359.8 C 468.584 364.6 476.284 364.6 481.084 359.8 L 624.284 216.6 L 732.084 324.4 L 732.084 437.8 C 732.084 452.7 719.884 464.9 704.984 464.9 Z M 318.784 24.5 L 704.984 24.5 C 719.884 24.5 732.084 36.7 732.084 51.6 L 732.084 289.7 L 632.884 190.6 C 628.084 185.8 620.384 185.8 615.584 190.6 L 472.384 333.8 L 393.084 254.5 C 388.284 249.7 380.584 249.7 375.784 254.5 L 291.684 338.6 L 291.684 51.6 C 291.684 36.7 303.884 24.5 318.784 24.5 Z" style="fill: rgb(175, 110, 36);"/>
      <path d="M 418.884 196.1 C 453.284 196.1 481.184 168.1 481.184 133.8 C 481.184 99.5 453.184 71.5 418.884 71.5 C 384.584 71.5 356.584 99.5 356.584 133.8 C 356.584 168.1 384.484 196.1 418.884 196.1 Z M 418.884 96 C 439.784 96 456.684 113 456.684 133.8 C 456.684 154.6 439.684 171.6 418.884 171.6 C 398.084 171.6 381.084 154.6 381.084 133.8 C 381.084 113 397.984 96 418.884 96 Z" style="fill: rgb(175, 110, 36);"/>
    </g>
  </g>
  <path d="M -161.945 -20.71 L -152.75 -5.287 L -171.141 -5.287 L -161.945 -20.71 Z" style="fill-rule: nonzero; fill: rgb(172, 67, 67);" transform="matrix(0.00004100000296602957, -1, -1, -0.00008700000762473792, 281.66448974609375, -149.3444061279297)" bx:shape="triangle -171.141 -20.71 18.391 15.423 0.5 0 1@d86e5ee8"/>
  <rect x="179.461" y="-180.566" width="3.4" height="13.026" style="paint-order: stroke; stroke: rgb(53, 81, 138); stroke-width: 0px; fill: rgb(172, 67, 67);" transform="matrix(0.00004100000296602957, -1, 1, 0.00008700000762473792, 323.07061767578125, 192.94052124023438)"/>
  <rect x="179.444" y="-153.479" width="3.4" height="13.026" style="paint-order: stroke; stroke: rgb(53, 81, 138); stroke-width: 0px; fill: rgb(172, 67, 67);" transform="matrix(0.00004100000296602957, -1, 1, 0.00008700000762473792, 323.07061767578125, 192.94052124023438)"/>
  <rect x="179.444" y="-127.103" width="3.4" height="13.026" style="paint-order: stroke; stroke: rgb(53, 81, 138); stroke-width: 0px; fill: rgb(172, 67, 67);" transform="matrix(0.00004100000296602957, -1, 1, 0.00008700000762473792, 323.07061767578125, 192.94052124023438)"/>
  <rect x="179.461" y="-183.883" width="3.4" height="13.339" style="paint-order: stroke; stroke: rgb(53, 81, 138); stroke-width: 0px; fill: rgb(172, 67, 67);" transform="matrix(0.00004100000296602957, -1, 1, 0.00008700000762473792, 404.8572998046875, 193.0087127685547)"/>
  <rect x="179.444" y="-157.171" width="3.4" height="13.339" style="paint-order: stroke; stroke: rgb(53, 81, 138); stroke-width: 0px; fill: rgb(172, 67, 67);" transform="matrix(0.00004100000296602957, -1, 1, 0.00008700000762473792, 404.8572998046875, 193.0087127685547)"/>
  <rect x="179.444" y="-130.16" width="3.4" height="13.339" style="paint-order: stroke; stroke: rgb(53, 81, 138); stroke-width: 0px; fill: rgb(172, 67, 67);" transform="matrix(0.00004100000296602957, -1, 1, 0.00008700000762473792, 404.8572998046875, 193.0087127685547)"/>
  <text id="text-8" style="fill: rgb(172, 67, 67); font-family: 'Open Sans'; font-size: 9.73113px; font-style: italic; white-space: pre;" transform="matrix(1.775291919708252, 0, 0, 1.9524970054626465, -325.1152648925781, 140.8204803466797)" x="263.861" y="-70.535">WeakRef object</text>
  <path d="M 318.601 -16.998 L 318.601 -19.573 L 315.66 -19.573 C 314.001 -19.573 312.769 -19.055 311.964 -18.021 C 311.16 -16.986 310.758 -15.693 310.758 -14.141 L 310.23 -4.441 C 310.104 -3.594 309.865 -2.853 309.513 -2.218 C 309.186 -1.536 308.746 -0.96 308.193 -0.49 C 307.967 -0.255 307.678 -0.09 307.326 0.004 C 307.125 0.098 306.786 0.192 306.308 0.286 L 306.308 2.72 C 306.861 2.814 307.2 2.884 307.326 2.931 C 307.678 3.025 307.967 3.155 308.193 3.319 C 308.746 3.696 309.174 4.189 309.475 4.801 C 310.28 6.494 310.682 8.163 310.682 9.81 L 310.682 17.181 C 310.682 18.875 311.135 20.227 312.04 21.238 C 312.945 22.249 314.114 22.755 315.547 22.755 L 318.601 22.755 L 318.601 20.109 L 316.414 20.109 C 315.836 20.109 315.358 19.968 314.981 19.686 C 314.579 19.357 314.29 18.969 314.114 18.522 L 313.699 16.935 L 313.586 15.312 L 313.473 8.504 C 313.473 7.446 313.334 6.506 313.058 5.683 C 312.731 4.671 312.442 3.966 312.191 3.566 C 311.763 2.955 311.323 2.485 310.871 2.155 C 310.443 1.826 309.991 1.579 309.513 1.415 C 309.966 1.203 310.393 0.956 310.795 0.674 C 311.373 0.274 311.826 -0.184 312.153 -0.702 C 312.404 -1.148 312.693 -1.866 313.02 -2.853 C 313.322 -3.723 313.473 -4.723 313.473 -5.852 L 313.623 -13.894 L 313.963 -15.41 C 314.139 -15.904 314.428 -16.304 314.83 -16.61 C 315.207 -16.868 315.735 -16.998 316.414 -16.998 L 318.601 -16.998 Z" style="fill: rgb(175, 110, 36);"/>
  <path d="M 389.058 -17.145 L 389.058 -19.72 L 386.117 -19.72 C 384.458 -19.72 383.226 -19.203 382.421 -18.168 C 381.617 -17.134 381.215 -15.84 381.215 -14.288 L 380.687 -4.588 C 380.561 -3.742 380.322 -3.001 379.97 -2.366 C 379.644 -1.684 379.204 -1.108 378.651 -0.638 C 378.424 -0.403 378.135 -0.238 377.783 -0.144 C 377.582 -0.05 377.243 0.044 376.765 0.138 L 376.765 2.572 C 377.318 2.666 377.658 2.737 377.783 2.784 C 378.135 2.878 378.424 3.007 378.651 3.172 C 379.204 3.548 379.631 4.042 379.933 4.653 C 380.737 6.346 381.139 8.016 381.139 9.662 L 381.139 17.034 C 381.139 18.727 381.592 20.079 382.497 21.09 C 383.402 22.101 384.571 22.607 386.004 22.607 L 389.058 22.607 L 389.058 19.961 L 386.871 19.961 C 386.293 19.961 385.815 19.82 385.438 19.538 C 385.036 19.209 384.747 18.821 384.571 18.374 L 384.156 16.787 L 384.043 15.164 L 383.93 8.357 C 383.93 7.299 383.792 6.358 383.515 5.535 C 383.188 4.524 382.899 3.818 382.648 3.419 C 382.22 2.807 381.78 2.337 381.328 2.008 C 380.901 1.679 380.448 1.432 379.97 1.267 C 380.423 1.055 380.85 0.808 381.253 0.526 C 381.831 0.127 382.283 -0.332 382.61 -0.849 C 382.861 -1.296 383.151 -2.013 383.477 -3.001 C 383.779 -3.871 383.93 -4.87 383.93 -5.999 L 384.081 -14.041 L 384.42 -15.558 C 384.596 -16.052 384.885 -16.452 385.287 -16.757 C 385.664 -17.016 386.192 -17.145 386.871 -17.145 L 389.058 -17.145 Z" style="fill: rgb(175, 110, 36); transform-origin: 382.912px 1.4435px;" transform="matrix(-1, 0, 0, -1, 0, -0.000015020371)"/>
</svg>