<svg xmlns="http://www.w3.org/2000/svg" width="234" height="240" viewBox="0 0 234 240"><defs><style>@import url(https://fonts.googleapis.com/css?family=Open+Sans:bold,italic,bolditalic%7CPT+Mono);@font-face{font-family:&apos;PT Mono&apos;;font-weight:700;font-style:normal;src:local(&apos;PT MonoBold&apos;),url(/font/PTMonoBold.woff2) format(&apos;woff2&apos;),url(/font/PTMonoBold.woff) format(&apos;woff&apos;),url(/font/PTMonoBold.ttf) format(&apos;truetype&apos;)}</style></defs><g id="animation" fill="none" fill-rule="evenodd" stroke="none" stroke-width="1"><g id="bounce-inout.svg"><path id="Line" fill="#DBAF88" fill-rule="nonzero" d="M34 22.16l7 14h-6V210.5h-2V36.16h-6l7-14z"/><path id="Line" fill="#DBAF88" fill-rule="nonzero" d="M194.51 187l14 7-14 7-.001-6H23.5v-2h171.009l.001-6z"/><path id="Path-747" stroke="#C06334" stroke-linejoin="bevel" stroke-width="3" d="M35.329 193.636s5.904-6.54 16.904 0c3.208-9.976 18.818-15.529 28.536 0 8.264-26.015 36.231-83.184 63.413.916 3.882-17.966 30.855-183.91 64.284-172.106"/><text id="0" fill="#AF6E24" font-family="PTMono-Bold, PT Mono" font-size="14" font-weight="bold"><tspan x="17" y="212">0</tspan></text><text id="1" fill="#AF6E24" font-family="PTMono-Bold, PT Mono" font-size="14" font-weight="bold"><tspan x="17" y="36">1</tspan></text><text id="-2" fill="#AF6E24" font-family="PTMono-Bold, PT Mono" font-size="14" font-weight="bold"><tspan x="200" y="212">1</tspan></text><path id="Path-770" stroke="#1C85B5" stroke-linejoin="bevel" stroke-width="3" d="M35.484 192.777c17.973-6.6 33.865-22.649 61.654-174.279 4.913 13.935 14.875 44.582 29.92 45.499 15.047.917 29.503-32.95 33.164-43.662 6.397 7.861 4.89 11.09 14.736 11.09 9.847 0 15.39-9.552 16.623-10.805 2.205 1.977 10.596 3.784 15.379.83"/></g></g></svg>