<svg xmlns="http://www.w3.org/2000/svg" width="234" height="240" viewBox="0 0 234 240"><defs><style>@import url(https://fonts.googleapis.com/css?family=Open+Sans:bold,italic,bolditalic%7CPT+Mono);@font-face{font-family:&apos;PT Mono&apos;;font-weight:700;font-style:normal;src:local(&apos;PT MonoBold&apos;),url(/font/PTMonoBold.woff2) format(&apos;woff2&apos;),url(/font/PTMonoBold.woff) format(&apos;woff&apos;),url(/font/PTMonoBold.ttf) format(&apos;truetype&apos;)}</style></defs><g id="animation" fill="none" fill-rule="evenodd" stroke="none" stroke-width="1"><g id="circ-ease.svg"><path id="Line" fill="#E8C48E" fill-rule="nonzero" d="M34 22.16l7 14h-6V210.5h-2V36.16h-6l7-14z"/><path id="Line" fill="#E8C48E" fill-rule="nonzero" d="M194.51 187l14 7-14 7-.001-6H23.5v-2h171.009l.001-6z"/><path id="Path-747" stroke="#EE6B47" stroke-linejoin="bevel" stroke-width="3" d="M35.16 193.735c81.198 0 165.415-52.198 173.306-171.29"/><path id="Path-748" stroke="#8DB173" stroke-linejoin="bevel" stroke-width="3" d="M208.466 22.446c-81.198 0-165.415 52.197-173.306 171.289"/><text id="0" fill="#8A704D" font-family="PTMono-Bold, PT Mono" font-size="14" font-weight="bold"><tspan x="17" y="212">0</tspan></text><text id="1" fill="#8A704D" font-family="PTMono-Bold, PT Mono" font-size="14" font-weight="bold"><tspan x="17" y="36">1</tspan></text><text id="-2" fill="#8A704D" font-family="PTMono-Bold, PT Mono" font-size="14" font-weight="bold"><tspan x="200" y="212">1</tspan></text><path id="Path-770" stroke="#62C0DC" stroke-linejoin="bevel" stroke-width="3" d="M35.484 192.777c17.973-6.6 76.569 2.817 85.738-83.319 9.17-86.136 80.955-85.054 85.738-88.007"/></g></g></svg>