<svg xmlns="http://www.w3.org/2000/svg" width="233" height="388" viewBox="0 0 233 388"><defs><style>@import url(https://fonts.googleapis.com/css?family=Open+Sans:bold,italic,bolditalic%7CPT+Mono);@font-face{font-family:&apos;PT Mono&apos;;font-weight:700;font-style:normal;src:local(&apos;PT MonoBold&apos;),url(/font/PTMonoBold.woff2) format(&apos;woff2&apos;),url(/font/PTMonoBold.woff) format(&apos;woff&apos;),url(/font/PTMonoBold.ttf) format(&apos;truetype&apos;)}</style></defs><g id="animation" fill="none" fill-rule="evenodd" stroke="none" stroke-width="1"><g id="elastic.svg"><path id="Line" fill="#DBAF88" fill-rule="nonzero" d="M34 22.16l7 14h-6V366h-2V36.16h-6l7-14z"/><path id="Line" fill="#DBAF88" fill-rule="nonzero" d="M194.51 187l14 7-14 7-.001-6H23.5v-2h171.009l.001-6z"/><path id="Path-747" stroke="#C06334" stroke-width="3" d="M34.88 192.698c3.442 0 11.656-1.502 18.614.34 8.527 2.258 8.021-3.415 33.52 1.301 13.1 2.423 13.41-10.73 28.147.561 20.158 15.445 18.716-35.537 33.359-.222 3.42 8.249 6.879 22.601 10.133 19.609 2.91-2.676 5.195-19.38 14.577-64.112 4.611-21.984 15.003 146.122 19.117 130.36 9.62-36.844 11.209-241.394 14.99-258.441"/><text id="0" fill="#AF6E24" font-family="PTMono-Bold, PT Mono" font-size="14" font-weight="bold"><tspan x="17" y="212">0</tspan></text><text id="1" fill="#AF6E24" font-family="PTMono-Bold, PT Mono" font-size="14" font-weight="bold"><tspan x="17" y="36">1</tspan></text><text id="-2" fill="#AF6E24" font-family="PTMono-Bold, PT Mono" font-size="14" font-weight="bold"><tspan x="200" y="212">1</tspan></text></g></g></svg>