<svg xmlns="http://www.w3.org/2000/svg" width="359" height="316" viewBox="0 0 359 316"><defs><style>@import url(https://fonts.googleapis.com/css?family=Open+Sans:bold,italic,bolditalic%7CPT+Mono);@font-face{font-family:&apos;PT Mono&apos;;font-weight:700;font-style:normal;src:local(&apos;PT MonoBold&apos;),url(/font/PTMonoBold.woff2) format(&apos;woff2&apos;),url(/font/PTMonoBold.woff) format(&apos;woff&apos;),url(/font/PTMonoBold.ttf) format(&apos;truetype&apos;)}</style></defs><defs><linearGradient id="linearGradient-1" x1="0%" x2="62.299%" y1="47.096%" y2="47.096%"><stop offset="0%" stop-color="#FFF"/><stop offset="100%" stop-color="#FFF" stop-opacity="0"/></linearGradient><linearGradient id="linearGradient-2" x1="50%" x2="50%" y1="0%" y2="100%"><stop offset="0%" stop-color="#FFF"/><stop offset="100%" stop-color="#F1F1F1"/></linearGradient><linearGradient id="linearGradient-3" x1="50%" x2="50%" y1="0%" y2="100%"><stop offset="0%" stop-color="#FFF"/><stop offset="100%" stop-color="#F1F1F1"/></linearGradient></defs><g id="dom" fill="none" fill-rule="evenodd" stroke="none" stroke-width="1"><g id="metric-client-left-top-rtl.svg"><path fill="#FFF" d="M0 0h359v316H0z"/><path id="היא-שפת-תסריט-מפורשת" fill="#5A4739" d="M336.484 135v-10.031h4.047V135h-4.047zm13.594 0v-9.063c0-2.416-.206-3.856-.617-4.32-.412-.463-1.685-.695-3.82-.695h-12.047l1.547-4.625h11.171c3.136 0 5.23.458 6.282 1.375a3.733 3.733 0 011.234 1.984c.198.792.297 2.177.297 4.156V135h-4.047zm-20.39-6.266h-4.063c.73-2.666 1.094-4.573 1.094-5.718 0-.823-.36-1.474-1.078-1.954-.72-.479-1.964-.895-3.735-1.25l2.094-3.89c2.552.51 4.33 1.21 5.336 2.101 1.005.891 1.508 2.206 1.508 3.946 0 1.094-.25 2.76-.75 5l-.406 1.765zM302.063 135v-.516c0-2.677.28-4.971.843-6.882.563-1.912 1.51-3.8 2.844-5.665l-.703-.671c-1.136-1.063-2.162-1.948-3.078-2.657l3.687-2.687c2.448 1.937 5.037 4.51 7.766 7.719.625-1.084 1.039-2.032 1.242-2.844.203-.813.305-1.927.305-3.344v-1.156h4.328v.906c0 3.521-1.182 6.568-3.547 9.14a41.618 41.618 0 014.422 6.47l-3.485 2.578c-2.062-3.709-4.864-7.355-8.406-10.938-1.26 1.958-1.89 4.948-1.89 8.969V135h-4.329zm-31.954 0l-2.203-17.5 3.922-1.578 1.172 9.25c1.135-.281 1.932-.945 2.39-1.992.459-1.047.688-2.716.688-5.008v-1.875h4.344v1.719c0 3.093-.565 5.445-1.695 7.054-1.13 1.61-2.92 2.607-5.368 2.993l.282 2.312c2.718 0 4.89-.453 6.515-1.36 2.844-1.583 4.266-5.192 4.266-10.827v-1.891h4.328v1.562c0 5.615-1.58 9.875-4.742 12.782-3.162 2.906-7.794 4.359-13.899 4.359zm-21.937 0l1.39-4.234h10.47v-4.157c0-1.948-.193-3.205-.579-3.773-.385-.568-1.385-1.065-3-1.492l-2.984-.781-.235.671c-.135.396-.203.74-.203 1.032 0 1.01.87 1.583 2.61 1.718l-1.078 3.25c-3.5-.323-5.25-1.671-5.25-4.046 0-.917.374-2.438 1.125-4.563l.968-2.703 7.125 1.734c2.313.563 3.815 1.284 4.508 2.164.693.88 1.04 2.503 1.04 4.868v6.078L262.671 135h-14.5zm-22.969 0l1.547-4.625h4.031c-.823-2.115-1.234-4.708-1.234-7.781v-1.672h-2.328l1.547-4.625h8.578c3.135 0 5.229.458 6.281 1.375a3.733 3.733 0 011.234 1.984c.198.792.297 2.177.297 4.156V135h-4.047v-9.063c0-2.416-.203-3.856-.609-4.32-.406-.463-1.682-.695-3.828-.695h-3.063v1.375c0 3.354.48 6.047 1.438 8.078L233.516 135h-8.313zm-33.547 0l1.547-4.625h4.031c-.823-2.115-1.234-4.708-1.234-7.781v-1.672h-2.328l1.547-4.625h8.578c3.135 0 5.229.458 6.281 1.375a3.733 3.733 0 011.234 1.984c.198.792.297 2.177.297 4.156V135h-4.047v-9.063c0-2.416-.203-3.856-.609-4.32-.406-.463-1.682-.695-3.828-.695h-3.063v1.375c0 3.354.48 6.047 1.438 8.078L199.969 135h-8.313zm-18.265 0l-1.766-14.078h-2.516l1.547-4.625h11.078c2.094 0 3.578.078 4.453.234.876.157 1.573.469 2.094.938.875.791 1.313 2.047 1.313 3.765 0 2.292-.662 4.506-1.985 6.641s-3.104 3.854-5.343 5.156c-2.26 1.313-5.22 1.969-8.875 1.969zm3.453-4.625c2.333-.177 4.088-.687 5.265-1.531 1.938-1.407 2.907-3.25 2.907-5.531 0-.938-.328-1.57-.985-1.899-.656-.328-1.948-.492-3.875-.492h-4.469l1.157 9.453zM162.297 135v-9.063c0-2.416-.203-3.856-.61-4.32-.406-.463-1.682-.695-3.828-.695h-5.89l1.531-4.625h5.047c3.135 0 5.229.458 6.281 1.375a3.773 3.773 0 011.219 1.992c.198.797.297 2.18.297 4.148V135h-4.047zm-14.047-6.266h-4.063c.73-2.666 1.094-4.573 1.094-5.718 0-.823-.36-1.474-1.078-1.954-.719-.479-1.963-.895-3.734-1.25l2.094-3.89c2.552.51 4.33 1.21 5.335 2.101 1.006.891 1.508 2.206 1.508 3.946 0 1.094-.25 2.76-.75 5l-.406 1.765zM122.375 135l-2.234-17.688 3.921-1.39 1.797 14.453c2.667 0 4.795-.615 6.383-1.844 1.589-1.229 2.383-2.87 2.383-4.922 0-2.24-1.208-3.359-3.625-3.359-.646 0-1.339.104-2.078.313l1.406-4.36a9.102 9.102 0 012.234-.297c1.917 0 3.415.576 4.493 1.727 1.078 1.15 1.617 2.747 1.617 4.789 0 2.292-.698 4.437-2.094 6.437s-3.292 3.568-5.687 4.703c-2.01.959-4.85 1.438-8.516 1.438zm222.344 38l2.265-8.688c.417-1.593.625-2.692.625-3.296 0-1.24-1.057-2.907-3.171-5l3.609-2.094c1.146.958 2.125 2.265 2.937 3.922 1.667-2.615 3.667-3.922 6-3.922 1.76 0 3.167.67 4.22 2.008 1.051 1.338 1.676 3.257 1.874 5.757l.531 6.688-1.53 4.625h-9.032l1.547-4.625h4.922l-.36-4.797c-.25-3.354-1.349-5.031-3.297-5.031-1.125 0-2.07.56-2.836 1.68-.765 1.12-1.497 3.007-2.195 5.664L348.953 173h-4.234zm-19.344 0l1.39-4.234h10.47v-4.157c0-1.948-.193-3.205-.579-3.773-.385-.568-1.385-1.065-3-1.492l-2.984-.781-.235.671c-.135.396-.203.74-.203 1.032 0 1.01.87 1.583 2.61 1.718l-1.078 3.25c-3.5-.323-5.25-1.671-5.25-4.047 0-.916.375-2.437 1.125-4.562l.968-2.703 7.125 1.734c2.313.563 3.815 1.284 4.508 2.164.693.88 1.04 2.503 1.04 4.868v6.078L339.874 173h-14.5zm-7.14 0v-9.594c0-1.927-.32-3.252-.962-3.976-.64-.724-1.997-1.295-4.07-1.711l2-3.797c2.448.448 4.208 1.15 5.281 2.11.709.635 1.185 1.385 1.43 2.25.245.864.367 2.25.367 4.155V173h-4.047zm-11.844 0v-9.063c0-2.416-.203-3.856-.61-4.32-.406-.463-1.682-.695-3.828-.695h-5.89l1.53-4.625h5.048c3.135 0 5.229.458 6.28 1.375a3.773 3.773 0 011.22 1.992c.198.797.296 2.18.296 4.149V173h-4.046zm-30.516 0l-2.203-17.5 3.922-1.578 1.172 9.25c1.135-.281 1.932-.945 2.39-1.992.459-1.047.688-2.716.688-5.008v-1.875h4.344v1.719c0 3.093-.566 5.445-1.696 7.054-1.13 1.61-2.92 2.607-5.367 2.993l.281 2.312c2.719 0 4.89-.453 6.516-1.36 2.844-1.583 4.265-5.192 4.265-10.827v-1.891h4.329v1.562c0 5.615-1.581 9.875-4.743 12.782-3.161 2.906-7.794 4.359-13.898 4.359zM250 173l1.547-4.625h4.031c-.823-2.115-1.234-4.708-1.234-7.781v-1.672h-2.328l1.547-4.625h8.578c3.135 0 5.229.458 6.28 1.375a3.733 3.733 0 011.235 1.984c.198.792.297 2.177.297 4.156V173h-4.047v-9.063c0-2.416-.203-3.856-.61-4.32-.405-.463-1.681-.695-3.827-.695h-3.063v1.375c0 3.354.48 6.047 1.438 8.078L258.313 173H250zm-31.422 0l2.266-8.688c.416-1.593.625-2.692.625-3.296 0-1.24-1.058-2.907-3.172-5l3.61-2.094c1.145.958 2.124 2.265 2.937 3.922 1.666-2.615 3.666-3.922 6-3.922 1.76 0 3.166.67 4.219 2.008 1.052 1.338 1.677 3.257 1.875 5.757l.53 6.688-1.53 4.625h-9.032l1.547-4.625h4.922l-.36-4.797c-.25-3.354-1.348-5.031-3.296-5.031-1.125 0-2.07.56-2.836 1.68-.766 1.12-1.498 3.007-2.196 5.664L222.813 173h-4.234zm-19.25 0l1.547-4.625h9.64v-4.438c0-2.416-.202-3.856-.609-4.32-.406-.463-1.682-.695-3.828-.695h-5.828l1.547-4.625h4.953c3.135 0 5.23.458 6.281 1.375a3.734 3.734 0 011.235 1.992c.198.797.297 2.18.297 4.149v6.562h2.5L215.53 173h-16.203zm-7.516 0v-9.594c0-1.927-.32-3.252-.96-3.976-.641-.724-1.998-1.295-4.07-1.711l2-3.797c2.447.448 4.208 1.15 5.28 2.11.709.635 1.185 1.385 1.43 2.25.245.864.367 2.25.367 4.155V173h-4.047zm-23.015 0l-1.766-14.078h-2.515l1.547-4.625h11.078c2.093 0 3.578.078 4.453.234.875.157 1.573.469 2.094.938.875.791 1.312 2.047 1.312 3.765 0 2.292-.661 4.506-1.984 6.641s-3.105 3.854-5.344 5.156c-2.26 1.313-5.219 1.969-8.875 1.969zm3.453-4.625c2.333-.177 4.089-.687 5.266-1.531 1.937-1.407 2.906-3.25 2.906-5.531 0-.938-.328-1.57-.984-1.899-.657-.328-1.948-.492-3.875-.492h-4.47l1.157 9.453zM146.531 173l-1.765-14.078h-2.516l1.547-4.625h11.078c2.094 0 3.578.078 4.453.234.875.157 1.573.469 2.094.938.875.791 1.312 2.047 1.312 3.765 0 2.292-.661 4.506-1.984 6.641s-3.104 3.854-5.344 5.156c-2.26 1.313-5.218 1.969-8.875 1.969zm3.453-4.625c2.334-.177 4.089-.687 5.266-1.531 1.938-1.407 2.906-3.25 2.906-5.531 0-.938-.328-1.57-.984-1.899-.656-.328-1.948-.492-3.875-.492h-4.469l1.156 9.453zM119.531 173l1.547-4.625h4.031c-.823-2.115-1.234-4.708-1.234-7.781v-1.672h-2.328l1.547-4.625h8.578c3.135 0 5.229.458 6.281 1.375a3.733 3.733 0 011.234 1.984c.198.792.297 2.177.297 4.156V173h-4.047v-9.063c0-2.416-.203-3.856-.609-4.32-.406-.463-1.682-.695-3.828-.695h-3.063v1.375c0 3.354.48 6.047 1.438 8.078L127.844 173h-8.313zm288.766 38v-.516c0-2.677.281-4.971.844-6.882.562-1.912 1.51-3.8 2.843-5.665l-.703-.671c-1.135-1.063-2.161-1.948-3.078-2.657l3.688-2.687c2.448 1.937 5.036 4.51 7.765 7.719.625-1.084 1.04-2.032 1.242-2.844.204-.813.305-1.927.305-3.344v-1.156h4.328v.906c0 3.521-1.182 6.568-3.547 9.14a41.618 41.618 0 014.422 6.47l-3.484 2.578c-2.063-3.709-4.865-7.355-8.406-10.938-1.26 1.958-1.891 4.948-1.891 8.969V211h-4.328zm-8.438 0v-9.594c0-1.927-.32-3.252-.96-3.976-.641-.724-1.998-1.295-4.07-1.711l2-3.797c2.447.448 4.207 1.15 5.28 2.11.709.635 1.185 1.385 1.43 2.25.245.864.367 2.25.367 4.155V211h-4.047zm-23.718 0l1.546-4.625h9.641v-4.438c0-2.416-.203-3.856-.61-4.32-.406-.463-1.682-.695-3.827-.695h-5.829l1.547-4.625h4.954c3.135 0 5.229.458 6.28 1.375a3.734 3.734 0 011.235 1.992c.198.797.297 2.18.297 4.149v6.562h2.5L392.344 211H376.14zm-4.016-6.266h-4.063c.73-2.666 1.094-4.573 1.094-5.718 0-.823-.36-1.474-1.078-1.953-.719-.48-1.963-.896-3.734-1.25l2.094-3.891c2.552.51 4.33 1.21 5.335 2.101 1.006.891 1.508 2.206 1.508 3.946 0 1.094-.25 2.76-.75 5l-.406 1.765zm-11.594 0h-4.062c.729-2.666 1.094-4.573 1.094-5.718 0-.823-.36-1.474-1.079-1.953-.718-.48-1.963-.896-3.734-1.25l2.094-3.891c2.552.51 4.33 1.21 5.336 2.101 1.005.891 1.507 2.206 1.507 3.946 0 1.094-.25 2.76-.75 5l-.406 1.765zm-27.328 10.891v-14.61h4.047v14.61h-4.047zm-2.515-18.703l1.546-4.625h10.844c1.99 0 3.39.088 4.203.266.813.177 1.495.541 2.047 1.093.802.813 1.203 1.98 1.203 3.5 0 3.052-1.12 5.901-3.36 8.547-2.239 2.646-5.13 4.537-8.671 5.672l1.672-4.969c1.656-.469 3.036-1.383 4.14-2.742 1.105-1.36 1.657-2.82 1.657-4.383 0-.937-.328-1.565-.985-1.883-.656-.317-1.958-.476-3.906-.476h-10.39zM312.594 211l-2.235-17.688 3.922-1.39 1.797 14.453c2.667 0 4.794-.615 6.383-1.844 1.588-1.229 2.383-2.87 2.383-4.922 0-2.24-1.209-3.359-3.625-3.359-.646 0-1.339.104-2.078.313l1.406-4.36a9.102 9.102 0 012.234-.297c1.917 0 3.414.576 4.492 1.727 1.079 1.15 1.618 2.747 1.618 4.789 0 2.292-.698 4.437-2.094 6.437s-3.292 3.568-5.688 4.703c-2.01.959-4.849 1.438-8.515 1.438zm-6.516-6.266h-4.062c.729-2.666 1.093-4.573 1.093-5.718 0-.823-.359-1.474-1.078-1.953-.719-.48-1.963-.896-3.734-1.25l2.094-3.891c2.552.51 4.33 1.21 5.336 2.101 1.005.891 1.507 2.206 1.507 3.946 0 1.094-.25 2.76-.75 5l-.406 1.765zM277.766 211v-14.078h-2.485l1.547-4.625h10.485c3.135 0 5.229.458 6.28 1.375a3.734 3.734 0 011.235 1.992c.198.797.297 2.18.297 4.149v6.562L293.578 211h-15.812zm4.062-4.625h9.25v-4.438c0-2.427-.203-3.87-.61-4.328-.406-.458-1.682-.687-3.827-.687h-4.813v9.453zM243.86 211v-10.031h4.047V211h-4.047zm13.594 0v-9.063c0-2.416-.206-3.856-.617-4.32-.412-.463-1.685-.695-3.82-.695h-12.047l1.547-4.625h11.172c3.135 0 5.229.458 6.28 1.375a3.733 3.733 0 011.235 1.984c.198.792.297 2.177.297 4.156V211h-4.047zm-37.594 0l2.266-8.688c.417-1.593.625-2.692.625-3.296 0-1.24-1.057-2.907-3.172-5l3.61-2.094c1.145.958 2.124 2.265 2.937 3.922 1.667-2.615 3.667-3.922 6-3.922 1.76 0 3.167.67 4.219 2.008 1.052 1.338 1.677 3.257 1.875 5.757l.531 6.688-1.531 4.625h-9.031l1.546-4.625h4.922l-.36-4.797c-.25-3.354-1.348-5.031-3.296-5.031-1.125 0-2.07.56-2.836 1.68-.766 1.12-1.497 3.007-2.195 5.664L224.094 211h-4.235zm-7.453 0v-9.594c0-1.927-.32-3.252-.96-3.976-.641-.724-1.998-1.295-4.071-1.711l2-3.797c2.448.448 4.208 1.15 5.281 2.11.709.635 1.185 1.385 1.43 2.25.245.864.367 2.25.367 4.155V211h-4.047zm-27.75 0l1.547-4.625h4.031c-.823-2.115-1.234-4.708-1.234-7.781v-1.672h-2.328l1.547-4.625h8.578c3.135 0 5.229.458 6.281 1.375a3.733 3.733 0 011.234 1.984c.198.792.297 2.177.297 4.156V211h-4.047v-9.063c0-2.416-.203-3.856-.609-4.32-.406-.463-1.682-.695-3.828-.695h-3.063v1.375c0 3.354.48 6.047 1.438 8.078L192.969 211h-8.313zm-19.703 0v-.516c0-2.677.281-4.971.844-6.882.562-1.912 1.51-3.8 2.844-5.665l-.703-.671c-1.136-1.063-2.162-1.948-3.079-2.657l3.688-2.687c2.448 1.937 5.036 4.51 7.766 7.719.625-1.084 1.039-2.032 1.242-2.844.203-.813.304-1.927.304-3.344v-1.156h4.328v.906c0 3.521-1.182 6.568-3.546 9.14a41.618 41.618 0 014.422 6.47l-3.485 2.578c-2.062-3.709-4.864-7.355-8.406-10.938-1.26 1.958-1.89 4.948-1.89 8.969V211h-4.329zm-22.14 0l2.265-8.688c.417-1.593.625-2.692.625-3.296 0-1.24-1.057-2.907-3.172-5l3.61-2.094c1.145.958 2.125 2.265 2.937 3.922 1.667-2.615 3.667-3.922 6-3.922 1.76 0 3.167.67 4.219 2.008 1.052 1.338 1.677 3.257 1.875 5.757l.531 6.688-1.531 4.625h-9.031l1.547-4.625h4.921l-.359-4.797c-.25-3.354-1.349-5.031-3.297-5.031-1.125 0-2.07.56-2.836 1.68-.765 1.12-1.497 3.007-2.195 5.664L147.047 211h-4.234zm-23.282 0l1.547-4.625h4.031c-.823-2.115-1.234-4.708-1.234-7.781v-1.672h-2.328l1.547-4.625h8.578c3.135 0 5.229.458 6.281 1.375a3.733 3.733 0 011.234 1.984c.198.792.297 2.177.297 4.156V211h-4.047v-9.063c0-2.416-.203-3.856-.609-4.32-.406-.463-1.682-.695-3.828-.695h-3.063v1.375c0 3.354.48 6.047 1.438 8.078L127.844 211h-8.313zm318.844 38.39l1.594-4.718c2.041-.23 3.687-.839 4.937-1.828 1.948-1.542 2.922-3.406 2.922-5.594 0-.906-.32-1.52-.96-1.844-.641-.323-1.873-.484-3.696-.484h-5.563v-9.625l4.047-1.36v6.36h4.063c2.5 0 4.242.36 5.226 1.078.985.719 1.477 1.984 1.477 3.797 0 3.437-1.318 6.49-3.953 9.156-2.636 2.667-6 4.354-10.094 5.063zm-21.86-.39l-2.202-17.5 3.921-1.578 1.172 9.25c1.136-.281 1.933-.945 2.39-1.992.46-1.047.688-2.716.688-5.008v-1.875h4.344v1.719c0 3.093-.565 5.445-1.695 7.054-1.13 1.61-2.92 2.607-5.367 2.993l.28 2.312c2.72 0 4.891-.453 6.517-1.36 2.843-1.583 4.265-5.192 4.265-10.827v-1.891h4.328v1.562c0 5.615-1.58 9.875-4.742 12.782-3.161 2.906-7.794 4.359-13.898 4.359zm-6.546-6.266h-4.063c.73-2.666 1.094-4.573 1.094-5.718 0-.823-.36-1.474-1.078-1.953-.719-.48-1.964-.896-3.735-1.25l2.094-3.891c2.552.51 4.331 1.21 5.336 2.101s1.508 2.206 1.508 3.946c0 1.094-.25 2.76-.75 5l-.406 1.765zm-24.016 6.657l1.594-4.72c2.042-.228 3.687-.838 4.937-1.827 1.948-1.542 2.922-3.406 2.922-5.594 0-.906-.32-1.52-.96-1.844-.641-.323-1.873-.484-3.696-.484h-5.563v-9.625l4.047-1.36v6.36h4.063c2.5 0 4.242.36 5.226 1.078.985.719 1.477 1.984 1.477 3.797 0 3.437-1.318 6.49-3.953 9.156-2.636 2.667-6 4.354-10.094 5.063zm-8.89-.391v-9.594c0-1.927-.32-3.252-.961-3.976-.641-.724-1.998-1.295-4.07-1.711l2-3.797c2.447.448 4.208 1.15 5.28 2.11.709.635 1.185 1.385 1.43 2.25.245.864.367 2.25.367 4.155V249h-4.046zm-23.72 0l1.548-4.625h9.64v-4.438c0-2.416-.203-3.856-.61-4.32-.405-.463-1.681-.695-3.827-.695h-5.828l1.546-4.625h4.954c3.135 0 5.229.458 6.28 1.375a3.734 3.734 0 011.235 1.992c.198.797.297 2.18.297 4.149v6.562h2.5L369.547 249h-16.203zm-29.859 0l1.547-4.625h9.64v-4.438c0-2.416-.202-3.856-.608-4.32-.407-.463-1.683-.695-3.829-.695h-5.828l1.547-4.625h4.953c3.136 0 5.23.458 6.281 1.375a3.734 3.734 0 011.235 1.992c.198.797.297 2.18.297 4.149v6.562h2.5L339.688 249h-16.204zm-20.046 0v-.516c0-2.677.28-4.971.843-6.882.563-1.912 1.51-3.8 2.844-5.665l-.703-.671c-1.136-1.063-2.162-1.948-3.078-2.657l3.687-2.687c2.448 1.937 5.037 4.51 7.766 7.719.625-1.084 1.039-2.032 1.242-2.844.203-.813.305-1.927.305-3.344v-1.156h4.328v.906c0 3.521-1.182 6.568-3.547 9.14a41.618 41.618 0 014.422 6.47l-3.485 2.578c-2.062-3.709-4.864-7.355-8.406-10.938-1.26 1.958-1.89 4.948-1.89 8.969V249h-4.329zm-24.266 0l1.547-4.625h4.031c-.823-2.115-1.234-4.708-1.234-7.781v-1.672h-2.329l1.547-4.625h8.579c3.135 0 5.229.458 6.28 1.375a3.733 3.733 0 011.235 1.984c.198.792.297 2.177.297 4.156V249h-4.047v-9.063c0-2.416-.203-3.856-.61-4.32-.406-.463-1.682-.695-3.827-.695h-3.063v1.375c0 3.354.48 6.047 1.438 8.078L287.484 249h-8.312zm-7.094 0v-9.063c0-2.416-.203-3.856-.61-4.32-.406-.463-1.682-.695-3.827-.695h-5.891l1.531-4.625h5.047c3.136 0 5.23.458 6.281 1.375a3.773 3.773 0 011.22 1.992c.197.797.296 2.18.296 4.149V249h-4.047zm-14.047-6.266h-4.062c.729-2.666 1.094-4.573 1.094-5.718 0-.823-.36-1.474-1.079-1.953-.718-.48-1.963-.896-3.734-1.25l2.094-3.891c2.552.51 4.33 1.21 5.336 2.101 1.005.891 1.507 2.206 1.507 3.946 0 1.094-.25 2.76-.75 5l-.406 1.765zM219.86 249v-.516c0-2.677.282-4.971.844-6.882.563-1.912 1.51-3.8 2.844-5.665l-.703-.671c-1.136-1.063-2.162-1.948-3.078-2.657l3.687-2.687c2.448 1.937 5.037 4.51 7.766 7.719.625-1.084 1.039-2.032 1.242-2.844.203-.813.305-1.927.305-3.344v-1.156h4.328v.906c0 3.521-1.183 6.568-3.547 9.14a41.618 41.618 0 014.422 6.47l-3.485 2.578c-2.062-3.709-4.864-7.355-8.406-10.938-1.26 1.958-1.89 4.948-1.89 8.969V249h-4.329zm-4.937-6.266h-4.063c.73-2.666 1.094-4.573 1.094-5.718 0-.823-.36-1.474-1.078-1.953-.719-.48-1.964-.896-3.734-1.25l2.093-3.891c2.552.51 4.331 1.21 5.336 2.101 1.006.891 1.508 2.206 1.508 3.946 0 1.094-.25 2.76-.75 5l-.406 1.765zM192.75 249l1.563-4.625h5.515v-6.078c0-1.646-.354-2.724-1.062-3.234-.948-.678-2.224-1.245-3.828-1.704l1.843-3.437c1.73.427 3.297 1.047 4.703 1.86.907.53 1.532 1.182 1.875 1.952.344.771.516 1.922.516 3.453v7.188L202.328 249h-9.578zm-17.906 0l-2.235-17.688 3.922-1.39 1.797 14.453c2.667 0 4.794-.615 6.383-1.844 1.588-1.229 2.383-2.87 2.383-4.922 0-2.24-1.209-3.359-3.625-3.359-.646 0-1.339.104-2.078.313l1.406-4.36a9.102 9.102 0 012.234-.297c1.917 0 3.414.576 4.492 1.727 1.079 1.15 1.618 2.747 1.618 4.789 0 2.292-.698 4.437-2.094 6.437s-3.292 3.568-5.688 4.703c-2.01.959-4.849 1.438-8.515 1.438zm-9.938 0v-9.063c0-2.416-.203-3.856-.61-4.32-.405-.463-1.681-.695-3.827-.695h-5.89l1.53-4.625h5.047c3.136 0 5.23.458 6.281 1.375a3.773 3.773 0 011.22 1.992c.197.797.296 2.18.296 4.149V249h-4.047zm-24.625 0l1.563-4.625h5.515v-6.078c0-1.646-.354-2.724-1.062-3.234-.948-.678-2.224-1.245-3.828-1.704l1.844-3.437c1.729.427 3.296 1.047 4.703 1.86.906.53 1.53 1.182 1.875 1.952.343.771.515 1.922.515 3.453v7.188L149.86 249h-9.578zm-17.906 0l-2.234-17.688 3.921-1.39 1.797 14.453c2.667 0 4.795-.615 6.383-1.844 1.589-1.229 2.383-2.87 2.383-4.922 0-2.24-1.208-3.359-3.625-3.359-.646 0-1.339.104-2.078.313l1.406-4.36a9.102 9.102 0 012.234-.297c1.917 0 3.415.576 4.493 1.727 1.078 1.15 1.617 2.747 1.617 4.789 0 2.292-.698 4.437-2.094 6.437s-3.292 3.568-5.687 4.703c-2.01.959-4.85 1.438-8.516 1.438zm258.422 38v-9.594c0-1.927-.32-3.252-.961-3.976-.64-.724-1.997-1.295-4.07-1.711l2-3.797c2.448.448 4.208 1.15 5.28 2.11.71.635 1.186 1.385 1.43 2.25.245.864.368 2.25.368 4.156V287h-4.047zm-11.844 0v-9.063c0-2.416-.203-3.856-.61-4.32-.406-.463-1.682-.695-3.827-.695h-5.891l1.531-4.625h5.047c3.136 0 5.23.458 6.281 1.375a3.773 3.773 0 011.22 1.992c.197.797.296 2.18.296 4.149V287h-4.047zm-29.25 0l1.36-4.14h8.468c-3.833-3.709-6.713-8.162-8.64-13.36l4.093-1.578a28.973 28.973 0 004.938 8.875c1.469-1.781 2.203-3.943 2.203-6.485v-2.015h4.344v1.312c0 3.97-1.36 7.214-4.078 9.735 1.573 1.614 2.974 2.791 4.203 3.531l-1.39 4.125h-15.5zm-20.594 0v-10.031h4.047V287h-4.047zm13.594 0v-9.063c0-2.416-.206-3.856-.617-4.32-.412-.463-1.685-.695-3.82-.695h-12.047l1.547-4.625h11.171c3.136 0 5.23.458 6.282 1.375a3.733 3.733 0 011.234 1.984c.198.792.297 2.177.297 4.156V287h-4.047zm-48.61 2.781l1.563-4.672c1.667 0 3.459-.28 5.375-.843l-3.36-14.985 3.876-1.36 3.265 14.563c1.636-1.24 2.774-2.78 3.415-4.625.64-1.843.96-4.484.96-7.921v-1.641h4.344v1.156c0 3.99-.612 7.318-1.836 9.985-1.224 2.666-3.153 4.88-5.789 6.64-3.698 2.469-7.635 3.703-11.812 3.703zm-14.796-2.39l1.594-4.72c2.041-.228 3.687-.838 4.937-1.827 1.948-1.542 2.922-3.406 2.922-5.594 0-.906-.32-1.52-.96-1.844-.642-.323-1.873-.484-3.696-.484h-5.563v-9.625l4.047-1.36v6.36h4.063c2.5 0 4.242.36 5.226 1.078.985.719 1.477 1.984 1.477 3.797 0 3.437-1.318 6.49-3.953 9.156-2.636 2.667-6 4.354-10.094 5.063zm-15.938-6.657h-4.062c.729-2.666 1.094-4.573 1.094-5.718 0-.823-.36-1.474-1.078-1.954-.72-.479-1.964-.895-3.735-1.25l2.094-3.89c2.552.51 4.33 1.21 5.336 2.101 1.005.891 1.508 2.206 1.508 3.946 0 1.094-.25 2.76-.75 5l-.407 1.765zM236.656 287v-14.078h-9.531l1.547-4.625h16.094l-1.547 4.625h-2.516V287h-4.047zm-12.86-6.266h-4.062c.73-2.666 1.094-4.573 1.094-5.718 0-.823-.36-1.474-1.078-1.954-.719-.479-1.964-.895-3.734-1.25l2.093-3.89c2.552.51 4.331 1.21 5.336 2.101 1.006.891 1.508 2.206 1.508 3.946 0 1.094-.25 2.76-.75 5l-.406 1.765zM196.547 287v-14.078h-9.53l1.547-4.625h16.093l-1.547 4.625h-2.515V287h-4.047zm-28.25 0l1.392-4.234h10.468v-4.157c0-1.948-.192-3.205-.578-3.773-.385-.568-1.385-1.065-3-1.492l-2.984-.781-.235.671c-.135.396-.203.74-.203 1.032 0 1.01.87 1.583 2.61 1.718l-1.078 3.25c-3.5-.323-5.25-1.671-5.25-4.046 0-.917.374-2.438 1.125-4.563l.968-2.703 7.125 1.734c2.313.563 3.815 1.284 4.508 2.164.693.88 1.04 2.503 1.04 4.868v6.078L182.796 287h-14.5zm-8.75 0v-14.078h-9.53l1.547-4.625h16.093l-1.547 4.625h-2.515V287h-4.047zm-28.25 0l1.392-4.234h10.468v-4.157c0-1.948-.192-3.205-.578-3.773-.385-.568-1.385-1.065-3-1.492l-2.984-.781-.235.671c-.135.396-.203.74-.203 1.032 0 1.01.87 1.583 2.61 1.718l-1.078 3.25c-3.5-.323-5.25-1.671-5.25-4.046 0-.917.374-2.438 1.125-4.563l.968-2.703 7.125 1.734c2.313.563 3.815 1.284 4.508 2.164.693.88 1.04 2.503 1.04 4.868v6.078L145.796 287h-14.5zm-7.155 4.625v-14.281c0-2.032-.36-3.344-1.079-3.938-1.041-.875-2.328-1.552-3.859-2.031l1.86-3.453c1.875.562 3.53 1.37 4.968 2.422.834.614 1.401 1.364 1.703 2.25.302.885.454 2.255.454 4.11v14.921h-4.047zM426.797 325v-10.031h4.047V325h-4.047zm13.594 0v-9.063c0-2.416-.206-3.856-.618-4.32-.411-.463-1.684-.695-3.82-.695h-12.047l1.547-4.625h11.172c3.135 0 5.23.458 6.281 1.375a3.733 3.733 0 011.235 1.984c.198.792.296 2.177.296 4.156V325h-4.046zm-36.422 0v-.516c0-2.677.281-4.971.844-6.882.562-1.912 1.51-3.8 2.843-5.664l-.703-.672c-1.135-1.063-2.161-1.948-3.078-2.657l3.688-2.687c2.447 1.937 5.036 4.51 7.765 7.719.625-1.084 1.04-2.032 1.242-2.844.203-.813.305-1.927.305-3.344v-1.156h4.328v.906c0 3.521-1.182 6.568-3.547 9.14a41.618 41.618 0 014.422 6.47l-3.484 2.578c-2.063-3.709-4.865-7.355-8.406-10.938-1.26 1.958-1.891 4.948-1.891 8.969V325h-4.328zm-4.938-6.266h-4.062c.729-2.666 1.094-4.573 1.094-5.718 0-.823-.36-1.474-1.079-1.954-.718-.479-1.963-.895-3.734-1.25l2.094-3.89c2.552.51 4.33 1.21 5.336 2.101 1.005.891 1.507 2.206 1.507 3.946 0 1.094-.25 2.76-.75 5l-.406 1.765zM376.86 325l1.563-4.625h5.515v-6.078c0-1.646-.354-2.724-1.062-3.235-.948-.677-2.224-1.244-3.828-1.703l1.844-3.437c1.729.427 3.296 1.047 4.703 1.86.906.53 1.531 1.182 1.875 1.952.344.771.515 1.922.515 3.454v7.187L386.438 325h-9.579zm-17.906 0l-2.234-17.688 3.922-1.39 1.796 14.453c2.667 0 4.795-.615 6.383-1.844 1.589-1.229 2.383-2.87 2.383-4.922 0-2.24-1.208-3.359-3.625-3.359-.646 0-1.338.104-2.078.313l1.406-4.36a9.102 9.102 0 012.235-.297c1.916 0 3.414.576 4.492 1.727 1.078 1.15 1.617 2.747 1.617 4.789 0 2.292-.698 4.437-2.094 6.437s-3.291 3.568-5.687 4.704c-2.01.958-4.85 1.437-8.516 1.437zm-9.937 0v-9.063c0-2.416-.203-3.856-.61-4.32-.406-.463-1.682-.695-3.828-.695h-5.89l1.53-4.625h5.048c3.135 0 5.229.458 6.28 1.375a3.773 3.773 0 011.22 1.992c.198.797.296 2.18.296 4.149V325h-4.046zm-24.625 0l1.562-4.625h5.516v-6.078c0-1.646-.354-2.724-1.063-3.235-.948-.677-2.224-1.244-3.828-1.703l1.844-3.437c1.729.427 3.297 1.047 4.703 1.86.906.53 1.531 1.182 1.875 1.952.344.771.516 1.922.516 3.454v7.187L333.969 325h-9.578zm-17.907 0l-2.234-17.688 3.922-1.39 1.797 14.453c2.666 0 4.794-.615 6.383-1.844 1.588-1.229 2.382-2.87 2.382-4.922 0-2.24-1.208-3.359-3.625-3.359-.645 0-1.338.104-2.078.313l1.406-4.36a9.102 9.102 0 012.235-.297c1.917 0 3.414.576 4.492 1.727 1.078 1.15 1.617 2.747 1.617 4.789 0 2.292-.698 4.437-2.094 6.437-1.395 2-3.291 3.568-5.687 4.704-2.01.958-4.849 1.437-8.516 1.437zm-32.359 0l1.547-4.625h9.64v-4.438c0-2.416-.203-3.856-.609-4.32-.406-.463-1.682-.695-3.828-.695h-5.828l1.547-4.625h4.953c3.135 0 5.229.458 6.281 1.375a3.734 3.734 0 011.235 1.992c.197.797.296 2.18.296 4.149v6.562h2.5L290.33 325h-16.204zm-19.219 0l1.36-4.14h8.468c-3.833-3.709-6.713-8.162-8.64-13.36l4.094-1.578a28.973 28.973 0 004.937 8.875c1.469-1.781 2.203-3.943 2.203-6.485v-2.015h4.344v1.312c0 3.97-1.36 7.214-4.078 9.735 1.573 1.614 2.974 2.791 4.203 3.531l-1.39 4.125h-15.5zm-8.687 0v-14.078h-9.531l1.546-4.625h16.094l-1.547 4.625h-2.515V325h-4.047zm-40.422 0v-10.031h4.047V325h-4.047zm13.594 0v-9.063c0-2.416-.206-3.856-.618-4.32-.411-.463-1.684-.695-3.82-.695h-12.047l1.547-4.625h11.172c3.135 0 5.23.458 6.281 1.375a3.733 3.733 0 011.235 1.984c.198.792.297 2.177.297 4.156V325h-4.047zm-32.813.39l1.594-4.718c2.042-.23 3.687-.839 4.937-1.828 1.948-1.542 2.922-3.406 2.922-5.594 0-.906-.32-1.52-.96-1.844-.641-.323-1.873-.484-3.696-.484h-5.563v-9.625l4.047-1.36v6.36h4.063c2.5 0 4.242.36 5.226 1.078.985.719 1.477 1.984 1.477 3.797 0 3.437-1.318 6.49-3.953 9.156-2.636 2.667-6 4.354-10.094 5.063zm-21.125 4.235v-14.61h4.047v14.61h-4.047zm-2.516-18.703l1.547-4.625h10.844c1.99 0 3.39.088 4.203.265.813.178 1.495.542 2.047 1.094.802.813 1.203 1.98 1.203 3.5 0 3.052-1.12 5.901-3.36 8.547-2.239 2.646-5.13 4.537-8.671 5.672l1.672-4.969c1.656-.469 3.036-1.383 4.14-2.742 1.105-1.36 1.657-2.82 1.657-4.383 0-.937-.328-1.565-.985-1.883-.656-.317-1.958-.476-3.906-.476h-10.39zM155.625 325v-9.594c0-1.927-.32-3.252-.96-3.976-.642-.724-1.998-1.295-4.071-1.711l2-3.797c2.448.448 4.208 1.15 5.281 2.11.708.635 1.185 1.385 1.43 2.25.244.864.367 2.25.367 4.156V325h-4.047zm-25.516 0v-14.078h-2.53l1.562-4.625h10.89c3.136 0 5.23.458 6.281 1.375a3.734 3.734 0 011.235 1.992c.198.797.297 2.18.297 4.149V325h-4.047v-9.063c0-2.416-.203-3.856-.61-4.32-.406-.463-1.682-.695-3.828-.695h-5.203V325h-4.047zm-9.656 0v-5.016h5.016V325h-5.016zm249.906 38v-10.031h4.047V363h-4.047zm13.594 0v-9.063c0-2.416-.206-3.856-.617-4.32-.412-.463-1.685-.695-3.82-.695h-12.047l1.547-4.625h11.171c3.136 0 5.23.458 6.282 1.375a3.733 3.733 0 011.234 1.984c.198.792.297 2.177.297 4.156V363h-4.047zm-36.86 0l-2.202-17.5 3.921-1.578 1.172 9.25c1.136-.281 1.933-.945 2.391-1.992.458-1.047.688-2.716.688-5.008v-1.875h4.343v1.719c0 3.093-.565 5.445-1.695 7.054-1.13 1.61-2.92 2.607-5.367 2.993l.281 2.312c2.719 0 4.89-.453 6.516-1.36 2.843-1.583 4.265-5.192 4.265-10.827v-1.891h4.328v1.562c0 5.615-1.58 9.875-4.742 12.782-3.161 2.906-7.794 4.359-13.898 4.359zm-21.937 0l1.39-4.234h10.47v-4.157c0-1.948-.193-3.205-.579-3.773-.385-.568-1.385-1.065-3-1.492l-2.984-.781-.234.671c-.136.396-.203.74-.203 1.032 0 1.01.87 1.583 2.609 1.718l-1.078 3.25c-3.5-.323-5.25-1.671-5.25-4.046 0-.917.375-2.438 1.125-4.563l.969-2.703 7.125 1.734c2.312.563 3.815 1.284 4.507 2.164.693.88 1.04 2.503 1.04 4.868v6.078L339.656 363h-14.5zm-20.656 0v-10.031h4.047V363H304.5zm13.594 0v-9.063c0-2.416-.206-3.856-.617-4.32-.412-.463-1.685-.695-3.82-.695h-12.048l1.547-4.625h11.172c3.136 0 5.23.458 6.281 1.375a3.733 3.733 0 011.235 1.984c.198.792.297 2.177.297 4.156V363h-4.047zm-48.14 0l2.265-8.688c.416-1.593.625-2.692.625-3.296 0-1.24-1.058-2.907-3.172-5l3.61-2.094c1.145.958 2.124 2.265 2.937 3.922 1.666-2.615 3.666-3.922 6-3.922 1.76 0 3.166.67 4.219 2.008 1.052 1.338 1.677 3.257 1.875 5.757l.53 6.688-1.53 4.625h-9.032l1.547-4.625h4.922l-.36-4.797c-.25-3.354-1.348-5.031-3.296-5.031-1.125 0-2.07.56-2.836 1.68-.766 1.12-1.498 3.007-2.195 5.664L274.188 363h-4.235zm-7.376 0v-9.063c0-2.416-.203-3.856-.61-4.32-.406-.463-1.682-.695-3.827-.695h-5.891l1.531-4.625h5.047c3.136 0 5.23.458 6.281 1.375a3.773 3.773 0 011.22 1.992c.197.797.296 2.18.296 4.149V363h-4.047zm-31.14 0v-14.078h-2.532l1.563-4.625h10.89c3.136 0 5.23.458 6.282 1.375a3.734 3.734 0 011.234 1.992c.198.797.297 2.18.297 4.149V363h-4.047v-9.063c0-2.416-.203-3.856-.61-4.32-.406-.463-1.682-.695-3.827-.695h-5.204V363h-4.047zm-6.344-6.266h-4.063c.73-2.666 1.094-4.573 1.094-5.718 0-.823-.36-1.474-1.078-1.954-.719-.479-1.964-.895-3.734-1.25l2.093-3.89c2.552.51 4.331 1.21 5.336 2.101s1.508 2.206 1.508 3.946c0 1.094-.25 2.76-.75 5l-.406 1.765zM198.204 363l1.546-4.625h9.64v-4.438c0-2.416-.202-3.856-.609-4.32-.406-.463-1.682-.695-3.828-.695h-5.828l1.547-4.625h4.953c3.135 0 5.23.458 6.281 1.375a3.734 3.734 0 011.235 1.992c.198.797.297 2.18.297 4.149v6.562h2.5L214.405 363h-16.203zm-21.032 0v-10.031h4.047V363h-4.047zm13.594 0v-9.063c0-2.416-.206-3.856-.618-4.32-.411-.463-1.684-.695-3.82-.695h-12.047l1.547-4.625H187c3.135 0 5.23.458 6.281 1.375a3.733 3.733 0 011.235 1.984c.198.792.297 2.177.297 4.156V363h-4.047zm-46.97 0v-.516c0-2.677.282-4.971.845-6.882.562-1.912 1.51-3.8 2.843-5.664l-.703-.672c-1.135-1.063-2.161-1.948-3.078-2.657l3.688-2.687c2.448 1.937 5.036 4.51 7.765 7.719.625-1.084 1.04-2.032 1.242-2.844.204-.813.305-1.927.305-3.344v-1.156h4.328v.906c0 3.521-1.182 6.568-3.547 9.14a41.618 41.618 0 014.422 6.47l-3.484 2.578c-2.063-3.709-4.865-7.355-8.406-10.938-1.26 1.958-1.891 4.948-1.891 8.969V363h-4.328zm-24.265 0l1.547-4.625h4.031c-.823-2.115-1.234-4.708-1.234-7.781v-1.672h-2.328l1.547-4.625h8.578c3.135 0 5.229.458 6.281 1.375a3.733 3.733 0 011.234 1.984c.198.792.297 2.177.297 4.156V363h-4.047v-9.063c0-2.416-.203-3.856-.609-4.32-.406-.463-1.682-.695-3.828-.695h-3.063v1.375c0 3.354.48 6.047 1.438 8.078L127.844 363h-8.313zm285.016 31.734h-4.063c.73-2.666 1.094-4.573 1.094-5.718 0-.823-.36-1.474-1.078-1.954-.719-.479-1.964-.895-3.734-1.25l2.093-3.89c2.552.51 4.331 1.21 5.336 2.101 1.006.891 1.508 2.206 1.508 3.946 0 1.094-.25 2.76-.75 5l-.406 1.765zM378.812 401l1.532-4.625h8.734c.865-1.99 1.297-3.682 1.297-5.078 0-1.646-.38-2.787-1.14-3.422-.761-.635-2.13-.953-4.11-.953h-5.406l1.531-4.625h5.094c1.781 0 3.15.156 4.11.469.957.312 1.77.87 2.437 1.671 1.062 1.271 1.593 3.063 1.593 5.375 0 1.844-.49 4.032-1.468 6.563L391.5 401h-12.688zm-7.453 0v-9.594c0-1.927-.32-3.252-.96-3.976-.641-.724-1.998-1.295-4.07-1.711l2-3.797c2.447.448 4.207 1.15 5.28 2.11.709.635 1.185 1.385 1.43 2.25.245.864.367 2.25.367 4.156V401h-4.047zm-20.843.39l1.593-4.718c2.042-.23 3.688-.839 4.938-1.828 1.948-1.542 2.922-3.406 2.922-5.594 0-.906-.32-1.52-.961-1.844-.64-.323-1.873-.484-3.695-.484h-5.563v-9.625l4.047-1.36v6.36h4.062c2.5 0 4.243.36 5.227 1.078.984.719 1.476 1.984 1.476 3.797 0 3.437-1.317 6.49-3.953 9.156-2.635 2.667-6 4.354-10.093 5.063zm-8.891-.39v-9.594c0-1.927-.32-3.252-.96-3.976-.642-.724-1.998-1.295-4.071-1.711l2-3.797c2.448.448 4.208 1.15 5.281 2.11.708.635 1.185 1.385 1.43 2.25.244.864.367 2.25.367 4.156V401h-4.047zm-27.75 0l1.547-4.625h4.031c-.823-2.115-1.234-4.708-1.234-7.781v-1.672h-2.328l1.546-4.625h8.579c3.135 0 5.229.458 6.28 1.375a3.733 3.733 0 011.235 1.984c.198.792.297 2.177.297 4.156V401h-4.047v-9.063c0-2.416-.203-3.856-.61-4.32-.405-.463-1.681-.695-3.827-.695h-3.063v1.375c0 3.354.48 6.047 1.438 8.078L322.188 401h-8.313zm-30.688 0l-2.203-17.5 3.922-1.578 1.172 9.25c1.136-.281 1.932-.945 2.39-1.992.46-1.047.688-2.716.688-5.008v-1.875h4.344v1.719c0 3.093-.565 5.445-1.695 7.054-1.13 1.61-2.92 2.607-5.368 2.993l.282 2.312c2.719 0 4.89-.453 6.515-1.36 2.844-1.583 4.266-5.192 4.266-10.827v-1.891h4.328v1.562c0 5.615-1.58 9.875-4.742 12.782-3.162 2.906-7.794 4.359-13.899 4.359zm-21.937 0l1.39-4.234h10.47v-4.157c0-1.948-.193-3.205-.579-3.773-.385-.568-1.385-1.065-3-1.492l-2.984-.781-.235.671c-.135.396-.203.74-.203 1.032 0 1.01.87 1.583 2.61 1.718l-1.078 3.25c-3.5-.323-5.25-1.671-5.25-4.046 0-.917.375-2.438 1.125-4.563l.968-2.703 7.125 1.734c2.313.563 3.815 1.284 4.508 2.164.693.88 1.04 2.503 1.04 4.868v6.078L275.75 401h-14.5zm-22.969 0l1.547-4.625h4.031c-.823-2.115-1.234-4.708-1.234-7.781v-1.672h-2.328l1.547-4.625h8.578c3.135 0 5.229.458 6.281 1.375a3.733 3.733 0 011.235 1.984c.197.792.296 2.177.296 4.156V401h-4.046v-9.063c0-2.416-.204-3.856-.61-4.32-.406-.463-1.682-.695-3.828-.695h-3.063v1.375c0 3.354.48 6.047 1.438 8.078L246.594 401h-8.313zm-31.234 0v-10.031h4.047V401h-4.047zm13.594 0v-9.063c0-2.416-.206-3.856-.618-4.32-.411-.463-1.684-.695-3.82-.695h-12.047l1.547-4.625h11.172c3.135 0 5.23.458 6.281 1.375a3.733 3.733 0 011.235 1.984c.198.792.297 2.177.297 4.156V401h-4.047zm-39.72 0l1.548-4.625h4.031c-.823-2.115-1.234-4.708-1.234-7.781v-1.672h-2.328l1.546-4.625h8.578c3.136 0 5.23.458 6.282 1.375a3.733 3.733 0 011.234 1.984c.198.792.297 2.177.297 4.156V401h-4.047v-9.063c0-2.416-.203-3.856-.61-4.32-.406-.463-1.682-.695-3.827-.695h-3.063v1.375c0 3.354.48 6.047 1.438 8.078L189.234 401h-8.312zm-13.171.39l-1.594-3.859c2.334-1.135 4.724-2.724 7.172-4.765l-.39-2.485c-.23-1.427-.566-2.398-1.008-2.914-.443-.515-1.42-1.075-2.93-1.68l-.89-.359 1.75-3.406c2.562.844 4.317 1.687 5.265 2.531.625.563 1.055 1.177 1.29 1.844.233.667.517 2.094.85 4.281l.61 4c.448 2.938.89 5.078 1.328 6.422h-4.36c-.28-1.115-.577-2.594-.89-4.438-1.542 1.553-3.61 3.162-6.203 4.829zm-5.375-6.656h-4.063c.73-2.666 1.094-4.573 1.094-5.718 0-.823-.36-1.474-1.078-1.954-.719-.479-1.963-.895-3.734-1.25l2.094-3.89c2.552.51 4.33 1.21 5.335 2.101 1.006.891 1.508 2.206 1.508 3.946 0 1.094-.25 2.76-.75 5l-.406 1.765zM147.281 401v-9.594c0-1.927-.32-3.252-.96-3.976-.641-.724-1.998-1.295-4.071-1.711l2-3.797c2.448.448 4.208 1.15 5.281 2.11.709.635 1.185 1.385 1.43 2.25.245.864.367 2.25.367 4.156V401h-4.047zm-27.75 0l1.547-4.625h4.031c-.823-2.115-1.234-4.708-1.234-7.781v-1.672h-2.328l1.547-4.625h8.578c3.135 0 5.229.458 6.281 1.375a3.733 3.733 0 011.234 1.984c.198.792.297 2.177.297 4.156V401h-4.047v-9.063c0-2.416-.203-3.856-.609-4.32-.406-.463-1.682-.695-3.828-.695h-3.063v1.375c0 3.354.48 6.047 1.438 8.078L127.844 401h-8.313zm218.406 38v-10.031h4.047V439h-4.046zm13.594 0v-9.063c0-2.416-.205-3.856-.617-4.32-.411-.463-1.685-.695-3.82-.695h-12.047l1.547-4.625h11.172c3.135 0 5.229.458 6.28 1.375a3.733 3.733 0 011.235 1.984c.198.792.297 2.177.297 4.156V439h-4.047zm-35.687 0l1.547-4.625h9.64v-4.438c0-2.416-.203-3.856-.61-4.32-.405-.463-1.681-.695-3.827-.695h-5.828l1.546-4.625h4.954c3.135 0 5.229.458 6.28 1.375a3.734 3.734 0 011.235 1.992c.198.797.297 2.18.297 4.149v6.562h2.5L332.047 439h-16.203zm-18.61 0l-1.765-14.078h-2.516l1.547-4.625h11.078c2.094 0 3.578.078 4.453.234.875.157 1.573.469 2.094.938.875.791 1.313 2.047 1.313 3.765 0 2.292-.662 4.506-1.985 6.641s-3.104 3.854-5.344 5.156c-2.26 1.313-5.218 1.969-8.875 1.969zm3.454-4.625c2.333-.177 4.088-.687 5.265-1.531 1.938-1.407 2.906-3.25 2.906-5.531 0-.938-.328-1.57-.984-1.899-.656-.328-1.948-.492-3.875-.492h-4.469l1.156 9.453zm-11.125-1.64H285.5c.73-2.667 1.094-4.574 1.094-5.72 0-.822-.36-1.473-1.078-1.952-.72-.48-1.964-.896-3.735-1.25l2.094-3.891c2.552.51 4.33 1.21 5.336 2.101 1.005.891 1.508 2.206 1.508 3.946 0 1.094-.25 2.76-.75 5l-.406 1.765zM263.375 439l-1.766-14.078h-2.515l1.547-4.625h11.078c2.094 0 3.578.078 4.453.234.875.157 1.573.469 2.094.938.875.791 1.312 2.047 1.312 3.765 0 2.292-.661 4.506-1.984 6.641s-3.104 3.854-5.344 5.156c-2.26 1.313-5.219 1.969-8.875 1.969zm3.453-4.625c2.333-.177 4.089-.687 5.266-1.531 1.937-1.407 2.906-3.25 2.906-5.531 0-.938-.328-1.57-.984-1.899-.657-.328-1.948-.492-3.875-.492h-4.47l1.157 9.453zm-11.125-1.64h-4.062c.729-2.667 1.093-4.574 1.093-5.72 0-.822-.359-1.473-1.078-1.952-.719-.48-1.963-.896-3.734-1.25l2.094-3.891c2.552.51 4.33 1.21 5.336 2.101 1.005.891 1.507 2.206 1.507 3.946 0 1.094-.25 2.76-.75 5l-.406 1.765zM224.781 439l1.547-4.625h4.031c-.823-2.115-1.234-4.708-1.234-7.781v-1.672h-2.328l1.547-4.625h8.578c3.135 0 5.229.458 6.281 1.375a3.733 3.733 0 011.234 1.984c.198.792.297 2.177.297 4.156V439h-4.047v-9.063c0-2.416-.203-3.856-.609-4.32-.406-.463-1.682-.695-3.828-.695h-3.063v1.375c0 3.354.48 6.047 1.438 8.078L233.094 439h-8.313zm-102.89 0v-23.125h4.812v9.39h9.563v-9.39h4.812V439h-4.812v-10.547h-9.563V439h-4.812zm30.703 0v-19.953h-8.281v-3.172h21.39v3.172h-8.281V439h-4.828zm16.344 0v-23.125h6.375l5.562 16.266 5.734-16.266h5.594V439h-4.437v-17.453l-5.641 15.906h-3.875l-5.531-16.14V439h-3.781zm29.046 0v-23.125h4.813v19.844h10.422V439h-15.235zm204.094 38v-9.594c0-1.927-.32-3.252-.96-3.976-.641-.724-1.998-1.295-4.071-1.711l2-3.797c2.448.448 4.208 1.15 5.281 2.11.708.635 1.185 1.385 1.43 2.25.245.864.367 2.25.367 4.156V477h-4.047zm-25.625 0l2.266-8.688c.416-1.593.625-2.692.625-3.296 0-1.24-1.058-2.907-3.172-5l3.61-2.094c1.145.958 2.124 2.265 2.937 3.922 1.666-2.615 3.666-3.922 6-3.922 1.76 0 3.166.67 4.219 2.008 1.052 1.338 1.677 3.257 1.875 5.757l.53 6.688-1.53 4.625h-9.032l1.547-4.625h4.922l-.36-4.797c-.25-3.354-1.348-5.031-3.296-5.031-1.125 0-2.07.56-2.836 1.68-.766 1.12-1.498 3.007-2.195 5.664L380.688 477h-4.235zm-19.984 0v-.516c0-2.677.281-4.971.844-6.882.562-1.912 1.51-3.8 2.843-5.664l-.703-.672c-1.135-1.063-2.161-1.948-3.078-2.657l3.688-2.687c2.447 1.937 5.036 4.51 7.765 7.719.625-1.084 1.04-2.032 1.242-2.844.203-.813.305-1.927.305-3.344v-1.156h4.328v.906c0 3.521-1.182 6.568-3.547 9.14a41.618 41.618 0 014.422 6.47l-3.484 2.578c-2.063-3.709-4.865-7.355-8.406-10.938-1.26 1.958-1.891 4.948-1.891 8.969V477h-4.328zm-20.328 0l1.39-4.234H348v-4.157c0-1.948-.193-3.205-.578-3.773-.386-.568-1.386-1.065-3-1.492l-2.985-.781-.234.671c-.135.396-.203.74-.203 1.032 0 1.01.87 1.583 2.61 1.718l-1.079 3.25c-3.5-.323-5.25-1.671-5.25-4.046 0-.917.375-2.438 1.125-4.563l.969-2.703 7.125 1.734c2.313.563 3.815 1.284 4.508 2.164.693.88 1.039 2.503 1.039 4.868v6.078L350.64 477h-14.5zm-20.11 0l-2.203-17.5 3.922-1.578 1.172 9.25c1.135-.281 1.932-.945 2.39-1.992.459-1.047.688-2.716.688-5.008v-1.875h4.344v1.719c0 3.093-.565 5.445-1.696 7.054-1.13 1.61-2.919 2.607-5.367 2.993l.281 2.312c2.72 0 4.891-.453 6.516-1.36 2.844-1.583 4.266-5.192 4.266-10.827v-1.891h4.328v1.562c0 5.615-1.58 9.875-4.742 12.782-3.162 2.906-7.795 4.359-13.899 4.359zm-9.969 0v-9.063c0-2.416-.203-3.856-.609-4.32-.406-.463-1.682-.695-3.828-.695h-5.89l1.53-4.625h5.048c3.135 0 5.229.458 6.28 1.375a3.773 3.773 0 011.22 1.992c.197.797.296 2.18.296 4.149V477h-4.046zm-33.375 0l1.547-4.625h4.032c-.823-2.115-1.235-4.708-1.235-7.781v-1.672h-2.328l1.547-4.625h8.578c3.136 0 5.23.458 6.281 1.375a3.733 3.733 0 011.235 1.984c.198.792.297 2.177.297 4.156V477h-4.047v-9.063c0-2.416-.203-3.856-.61-4.32-.406-.463-1.682-.695-3.828-.695h-3.062v1.375c0 3.354.479 6.047 1.437 8.078L281 477h-8.313zm-29.515 0l1.547-4.625h9.64v-4.438c0-2.416-.203-3.856-.609-4.32-.406-.463-1.682-.695-3.828-.695h-5.828l1.547-4.625h4.953c3.135 0 5.229.458 6.281 1.375a3.734 3.734 0 011.234 1.992c.198.797.297 2.18.297 4.149v6.562h2.5L259.375 477h-16.203zm-18.156 0l1.53-4.625h8.735c.865-1.99 1.297-3.682 1.297-5.078 0-1.646-.38-2.787-1.14-3.422-.76-.635-2.13-.953-4.11-.953h-5.406l1.531-4.625h5.094c1.781 0 3.15.156 4.11.469.958.312 1.77.87 2.437 1.671 1.062 1.271 1.594 3.063 1.594 5.375 0 1.844-.49 4.032-1.47 6.563L237.704 477h-12.687zm-7.547 4.625v-18.703h-10l1.547-4.625h12.5v23.328h-4.047zm-36.453-4.234l1.593-4.72c2.042-.228 3.688-.838 4.938-1.827 1.948-1.542 2.922-3.406 2.922-5.594 0-.906-.32-1.52-.961-1.844-.64-.323-1.873-.484-3.696-.484h-5.562v-9.625l4.047-1.36v6.36h4.062c2.5 0 4.243.36 5.227 1.078.984.719 1.476 1.984 1.476 3.797 0 3.437-1.317 6.49-3.953 9.156-2.635 2.667-6 4.354-10.093 5.063zm-5.391-6.657h-4.063c.73-2.666 1.094-4.573 1.094-5.718 0-.823-.36-1.474-1.078-1.954-.719-.479-1.963-.895-3.734-1.25l2.094-3.89c2.552.51 4.33 1.21 5.335 2.101 1.006.891 1.508 2.206 1.508 3.946 0 1.094-.25 2.76-.75 5l-.406 1.765zM148.828 477l1.36-4.14h8.468c-3.833-3.709-6.713-8.162-8.64-13.36l4.093-1.578a28.973 28.973 0 004.938 8.875c1.469-1.781 2.203-3.943 2.203-6.485v-2.015h4.344v1.312c0 3.97-1.36 7.214-4.078 9.735 1.573 1.614 2.974 2.791 4.203 3.531l-1.39 4.125h-15.5zm-7.078 0v-9.594c0-1.927-.32-3.252-.96-3.976-.642-.724-1.998-1.295-4.071-1.711l2-3.797c2.448.448 4.208 1.15 5.281 2.11.708.635 1.185 1.385 1.43 2.25.244.864.367 2.25.367 4.156V477h-4.047zm-11.844 0v-9.063c0-2.416-.203-3.856-.61-4.32-.405-.463-1.681-.695-3.827-.695h-5.89l1.53-4.625h5.047c3.136 0 5.23.458 6.281 1.375a3.773 3.773 0 011.22 1.992c.197.797.296 2.18.296 4.149V477h-4.047zm207.406 31.734h-4.062c.73-2.666 1.094-4.573 1.094-5.718 0-.823-.36-1.474-1.078-1.954-.72-.479-1.964-.895-3.735-1.25l2.094-3.89c2.552.51 4.33 1.21 5.336 2.101 1.005.891 1.508 2.206 1.508 3.946 0 1.094-.25 2.76-.75 5l-.406 1.765zm-11.593 0h-4.063c.73-2.666 1.094-4.573 1.094-5.718 0-.823-.36-1.474-1.078-1.954-.719-.479-1.964-.895-3.735-1.25l2.094-3.89c2.552.51 4.331 1.21 5.336 2.101s1.508 2.206 1.508 3.946c0 1.094-.25 2.76-.75 5l-.406 1.765zM297.656 515l-2.203-17.5 3.922-1.578 1.172 9.25c1.135-.281 1.932-.945 2.39-1.992.459-1.047.688-2.716.688-5.008v-1.875h4.344v1.719c0 3.093-.565 5.445-1.696 7.054-1.13 1.61-2.919 2.607-5.367 2.993l.281 2.312c2.72 0 4.891-.453 6.516-1.36 2.844-1.583 4.266-5.192 4.266-10.827v-1.891h4.328v1.562c0 5.615-1.58 9.875-4.742 12.782-3.162 2.906-7.795 4.359-13.899 4.359zm-10.047 0v-9.594c0-1.927-.32-3.252-.96-3.976-.641-.724-1.998-1.295-4.07-1.711l2-3.797c2.447.448 4.207 1.15 5.28 2.11.709.635 1.185 1.385 1.43 2.25.245.864.367 2.25.367 4.156V515h-4.047zm-25.625 0l2.266-8.688c.417-1.593.625-2.692.625-3.296 0-1.24-1.057-2.907-3.172-5l3.61-2.094c1.145.958 2.124 2.265 2.937 3.922 1.667-2.615 3.667-3.922 6-3.922 1.76 0 3.167.67 4.219 2.008 1.052 1.338 1.677 3.257 1.875 5.757l.531 6.688-1.531 4.625h-9.031l1.546-4.625h4.922l-.36-4.797c-.25-3.354-1.348-5.031-3.296-5.031-1.125 0-2.07.56-2.836 1.68-.766 1.12-1.497 3.007-2.195 5.664L266.219 515h-4.235zm-3.953-6.266h-4.062c.729-2.666 1.094-4.573 1.094-5.718 0-.823-.36-1.474-1.079-1.954-.718-.479-1.963-.895-3.734-1.25l2.094-3.89c2.552.51 4.33 1.21 5.336 2.101 1.005.891 1.507 2.206 1.507 3.946 0 1.094-.25 2.76-.75 5l-.406 1.765zM219.86 515v-.516c0-2.677.282-4.971.844-6.882.563-1.912 1.51-3.8 2.844-5.664l-.703-.672c-1.136-1.063-2.162-1.948-3.078-2.657l3.687-2.687c2.448 1.937 5.037 4.51 7.766 7.719.625-1.084 1.039-2.032 1.242-2.844.203-.813.305-1.927.305-3.344v-1.156h4.328v.906c0 3.521-1.183 6.568-3.547 9.14a41.618 41.618 0 014.422 6.47l-3.485 2.578c-2.062-3.709-4.864-7.355-8.406-10.938-1.26 1.958-1.89 4.948-1.89 8.969V515h-4.329zm-4.937-6.266h-4.063c.73-2.666 1.094-4.573 1.094-5.718 0-.823-.36-1.474-1.078-1.954-.719-.479-1.964-.895-3.734-1.25l2.093-3.89c2.552.51 4.331 1.21 5.336 2.101 1.006.891 1.508 2.206 1.508 3.946 0 1.094-.25 2.76-.75 5l-.406 1.765zM192.75 515l1.563-4.625h5.515v-6.078c0-1.646-.354-2.724-1.062-3.235-.948-.677-2.224-1.244-3.828-1.703l1.843-3.437c1.73.427 3.297 1.047 4.703 1.86.907.53 1.532 1.182 1.875 1.952.344.771.516 1.922.516 3.454v7.187L202.328 515h-9.578zm-17.906 0l-2.235-17.688 3.922-1.39 1.797 14.453c2.667 0 4.794-.615 6.383-1.844 1.588-1.229 2.383-2.87 2.383-4.922 0-2.24-1.209-3.359-3.625-3.359-.646 0-1.339.104-2.078.313l1.406-4.36a9.102 9.102 0 012.234-.297c1.917 0 3.414.576 4.492 1.727 1.079 1.15 1.618 2.747 1.618 4.789 0 2.292-.698 4.437-2.094 6.437s-3.292 3.568-5.688 4.704c-2.01.958-4.849 1.437-8.515 1.437zm-9.938 0v-9.063c0-2.416-.203-3.856-.61-4.32-.405-.463-1.681-.695-3.827-.695h-5.89l1.53-4.625h5.047c3.136 0 5.23.458 6.281 1.375a3.773 3.773 0 011.22 1.992c.197.797.296 2.18.296 4.149V515h-4.047zm-24.625 0l1.563-4.625h5.515v-6.078c0-1.646-.354-2.724-1.062-3.235-.948-.677-2.224-1.244-3.828-1.703l1.844-3.437c1.729.427 3.296 1.047 4.703 1.86.906.53 1.53 1.182 1.875 1.952.343.771.515 1.922.515 3.454v7.187L149.86 515h-9.578zm-17.906 0l-2.234-17.688 3.921-1.39 1.797 14.453c2.667 0 4.795-.615 6.383-1.844 1.589-1.229 2.383-2.87 2.383-4.922 0-2.24-1.208-3.359-3.625-3.359-.646 0-1.339.104-2.078.313l1.406-4.36a9.102 9.102 0 012.234-.297c1.917 0 3.415.576 4.493 1.727 1.078 1.15 1.617 2.747 1.617 4.789 0 2.292-.698 4.437-2.094 6.437s-3.292 3.568-5.687 4.704c-2.01.958-4.85 1.437-8.516 1.437zm212.14 38l2.266-8.688c.417-1.593.625-2.692.625-3.296 0-1.24-1.057-2.907-3.172-5l3.61-2.094c1.146.958 2.125 2.265 2.937 3.922 1.667-2.615 3.667-3.922 6-3.922 1.76 0 3.167.67 4.219 2.008 1.052 1.338 1.677 3.257 1.875 5.758l.531 6.687-1.531 4.625h-9.031l1.547-4.625h4.921l-.359-4.797c-.25-3.354-1.349-5.031-3.297-5.031-1.125 0-2.07.56-2.836 1.68-.765 1.12-1.497 3.007-2.195 5.664L338.75 553h-4.234zm-23.28 0l1.546-4.625h4.031c-.822-2.115-1.234-4.708-1.234-7.781v-1.672h-2.328l1.547-4.625h8.578c3.135 0 5.23.458 6.281 1.375a3.733 3.733 0 011.235 1.984c.198.792.296 2.177.296 4.157V553h-4.046v-9.063c0-2.416-.203-3.856-.61-4.32-.406-.463-1.682-.695-3.828-.695h-3.062v1.375c0 3.354.479 6.047 1.437 8.078L319.547 553h-8.313zm-7.173 0v-9.594c0-1.927-.32-3.252-.96-3.976-.641-.724-1.998-1.295-4.07-1.711l2-3.797c2.447.448 4.208 1.15 5.28 2.11.709.635 1.185 1.385 1.43 2.25.245.864.367 2.25.367 4.155V553h-4.046zm-25.515 0v-14.078h-2.531l1.562-4.625h10.89c3.136 0 5.23.458 6.282 1.375a3.734 3.734 0 011.234 1.992c.198.797.297 2.18.297 4.149V553h-4.047v-9.063c0-2.416-.203-3.856-.609-4.32-.406-.463-1.682-.695-3.828-.695h-5.203V553h-4.047zm-20.485 0l1.532-4.625h8.734c.865-1.99 1.297-3.682 1.297-5.078 0-1.646-.38-2.787-1.14-3.422-.761-.635-2.13-.953-4.11-.953h-5.406l1.531-4.625h5.094c1.781 0 3.15.156 4.11.469.957.312 1.77.87 2.437 1.672 1.062 1.27 1.593 3.062 1.593 5.375 0 1.843-.49 4.03-1.468 6.562L270.75 553h-12.688zm-21.156 0l2.266-8.688c.417-1.593.625-2.692.625-3.296 0-1.24-1.057-2.907-3.172-5l3.61-2.094c1.145.958 2.124 2.265 2.937 3.922 1.667-2.615 3.667-3.922 6-3.922 1.76 0 3.167.67 4.219 2.008 1.052 1.338 1.677 3.257 1.875 5.758l.53 6.687-1.53 4.625h-9.032l1.547-4.625h4.922l-.36-4.797c-.25-3.354-1.348-5.031-3.296-5.031-1.125 0-2.07.56-2.836 1.68-.766 1.12-1.497 3.007-2.195 5.664L241.14 553h-4.235zm-3.953-6.266h-4.062c.729-2.666 1.093-4.573 1.093-5.718 0-.823-.359-1.474-1.078-1.953-.719-.48-1.963-.896-3.734-1.25l2.094-3.891c2.552.51 4.33 1.21 5.336 2.101 1.005.891 1.507 2.206 1.507 3.946 0 1.094-.25 2.76-.75 5l-.406 1.765zM204.641 553v-14.078h-2.485l1.547-4.625h10.484c3.136 0 5.23.458 6.282 1.375a3.734 3.734 0 011.234 1.992c.198.797.297 2.18.297 4.149v6.562L220.453 553h-15.812zm4.062-4.625h9.25v-4.438c0-2.427-.203-3.87-.61-4.328-.406-.458-1.682-.687-3.827-.687h-4.813v9.453zm-20.953-1.64h-4.063c.73-2.667 1.094-4.574 1.094-5.72 0-.822-.36-1.473-1.078-1.952-.719-.48-1.963-.896-3.734-1.25l2.094-3.891c2.552.51 4.33 1.21 5.335 2.101 1.006.891 1.508 2.206 1.508 3.946 0 1.094-.25 2.76-.75 5l-.406 1.765zM172.656 553v-9.594c0-1.927-.32-3.252-.96-3.976-.641-.724-1.998-1.295-4.071-1.711l2-3.797c2.448.448 4.208 1.15 5.281 2.11.709.635 1.185 1.385 1.43 2.25.245.864.367 2.25.367 4.155V553h-4.047zm-27.75 0l1.547-4.625h4.031c-.823-2.115-1.234-4.708-1.234-7.781v-1.672h-2.328l1.547-4.625h8.578c3.135 0 5.229.458 6.281 1.375a3.733 3.733 0 011.234 1.984c.198.792.297 2.177.297 4.157V553h-4.047v-9.063c0-2.416-.203-3.856-.609-4.32-.406-.463-1.682-.695-3.828-.695h-3.063v1.375c0 3.354.48 6.047 1.438 8.078L153.219 553h-8.313zm-7.094 0v-9.063c0-2.416-.203-3.856-.609-4.32-.406-.463-1.682-.695-3.828-.695h-5.89l1.53-4.625h5.048c3.135 0 5.229.458 6.28 1.375a3.773 3.773 0 011.22 1.992c.197.797.296 2.18.296 4.149V553h-4.047zm-17.359 0v-5.016h5.016V553h-5.016zm322.688 38.39l1.593-4.718c2.042-.23 3.688-.839 4.938-1.828 1.948-1.542 2.922-3.406 2.922-5.594 0-.906-.32-1.52-.961-1.844-.64-.323-1.873-.484-3.695-.484h-5.563v-9.625l4.047-1.36v6.36h4.062c2.5 0 4.243.36 5.227 1.078.984.719 1.476 1.984 1.476 3.797 0 3.437-1.317 6.49-3.953 9.156-2.635 2.667-6 4.354-10.093 5.063zm-22.594-.39l2.265-8.688c.417-1.593.625-2.692.625-3.296 0-1.24-1.057-2.907-3.171-5l3.609-2.094c1.146.958 2.125 2.265 2.938 3.922 1.666-2.615 3.666-3.922 6-3.922 1.76 0 3.166.67 4.218 2.008s1.677 3.257 1.875 5.758l.531 6.687-1.53 4.625h-9.032l1.547-4.625h4.922l-.36-4.797c-.25-3.354-1.349-5.031-3.296-5.031-1.126 0-2.07.56-2.836 1.68-.766 1.12-1.498 3.007-2.196 5.664L424.781 591h-4.234zm-21.625 2.781l1.562-4.672c1.667 0 3.459-.28 5.375-.843L402.5 573.28l3.875-1.36 3.266 14.563c1.635-1.24 2.773-2.78 3.414-4.625.64-1.843.96-4.484.96-7.922v-1.64h4.344v1.156c0 3.99-.612 7.318-1.836 9.985-1.224 2.666-3.153 4.88-5.789 6.64-3.698 2.469-7.635 3.703-11.812 3.703zM380.078 591l-2.203-17.5 3.922-1.578 1.172 9.25c1.135-.281 1.932-.945 2.39-1.992.459-1.047.688-2.716.688-5.008v-1.875h4.344v1.719c0 3.093-.565 5.445-1.696 7.054-1.13 1.61-2.919 2.607-5.367 2.992l.281 2.313c2.72 0 4.891-.453 6.516-1.36 2.844-1.583 4.266-5.192 4.266-10.827v-1.891h4.328v1.562c0 5.615-1.581 9.875-4.742 12.782-3.162 2.906-7.795 4.359-13.899 4.359zm-23.562 0v-10.031h4.046V591h-4.046zm13.593 0v-9.063c0-2.416-.205-3.856-.617-4.32-.411-.463-1.685-.695-3.82-.695h-12.047l1.547-4.625h11.172c3.135 0 5.229.458 6.281 1.375a3.733 3.733 0 011.234 1.984c.198.792.297 2.177.297 4.157V591h-4.047zm-21.78 0h-1.923v-5.016h5.016v3.891c0 4.094-1.672 6.14-5.016 6.14v-1.734c1.282 0 1.922-.927 1.922-2.781v-.5zm-31.204 0l1.531-4.625h8.735c.864-1.99 1.296-3.682 1.296-5.078 0-1.646-.38-2.787-1.14-3.422-.76-.635-2.13-.953-4.11-.953h-5.406l1.531-4.625h5.094c1.782 0 3.151.156 4.11.469.958.312 1.77.87 2.437 1.672 1.063 1.27 1.594 3.062 1.594 5.375 0 1.843-.49 4.03-1.469 6.562L329.813 591h-12.688zm-3.953-6.266h-4.063c.73-2.666 1.094-4.573 1.094-5.718 0-.823-.36-1.474-1.078-1.953-.719-.48-1.964-.896-3.734-1.25l2.093-3.891c2.552.51 4.331 1.21 5.336 2.101 1.006.891 1.508 2.206 1.508 3.946 0 1.094-.25 2.76-.75 5l-.406 1.765zM298.078 591v-9.594c0-1.927-.32-3.252-.96-3.976-.641-.724-1.998-1.295-4.071-1.711l2-3.797c2.448.448 4.208 1.15 5.281 2.11.708.635 1.185 1.385 1.43 2.25.245.864.367 2.25.367 4.155V591h-4.047zm-25.14 0v-14.078h-2.485l1.547-4.625h10.484c3.136 0 5.23.458 6.282 1.375a3.734 3.734 0 011.234 1.992c.198.797.297 2.18.297 4.149v6.562L288.75 591h-15.813zm4.062-4.625h9.25v-4.438c0-2.427-.203-3.87-.61-4.328-.406-.458-1.682-.687-3.827-.687H277v9.453zM265.203 591h-1.922v-5.016h5.016v3.891c0 4.094-1.672 6.14-5.016 6.14v-1.734c1.282 0 1.922-.927 1.922-2.781v-.5zm-20.484 0v-9.063c0-2.416-.203-3.856-.61-4.32-.406-.463-1.682-.695-3.828-.695h-5.89l1.53-4.625h5.048c3.135 0 5.229.458 6.281 1.375a3.773 3.773 0 011.219 1.992c.198.797.297 2.18.297 4.149V591h-4.047zm-17.547 0v-9.594c0-1.927-.32-3.252-.961-3.976-.64-.724-1.997-1.295-4.07-1.711l2-3.797c2.448.448 4.208 1.15 5.28 2.11.71.635 1.186 1.385 1.43 2.25.245.864.368 2.25.368 4.155V591h-4.047zm-23.719 0l1.547-4.625h9.64v-4.438c0-2.416-.202-3.856-.609-4.32-.406-.463-1.682-.695-3.828-.695h-5.828l1.547-4.625h4.953c3.135 0 5.23.458 6.281 1.375a3.734 3.734 0 011.235 1.992c.198.797.297 2.18.297 4.149v6.562h2.5L219.655 591h-16.203zm-30.594 0v-.516c0-2.677.282-4.971.844-6.882.563-1.912 1.51-3.8 2.844-5.664l-.703-.672c-1.136-1.063-2.162-1.948-3.078-2.657l3.687-2.687c2.448 1.937 5.037 4.51 7.766 7.719.625-1.084 1.039-2.032 1.242-2.844.203-.813.305-1.927.305-3.344v-1.156h4.328v.906c0 3.521-1.183 6.568-3.547 9.14a41.618 41.618 0 014.422 6.47l-3.485 2.578c-2.062-3.709-4.864-7.355-8.406-10.938-1.26 1.958-1.89 4.948-1.89 8.969V591h-4.329zm-24.265 0l1.547-4.625h4.03c-.822-2.115-1.233-4.708-1.233-7.781v-1.672h-2.329l1.547-4.625h8.578c3.136 0 5.23.458 6.282 1.375a3.733 3.733 0 011.234 1.984c.198.792.297 2.177.297 4.157V591H164.5v-9.063c0-2.416-.203-3.856-.61-4.32-.406-.463-1.682-.695-3.827-.695H157v1.375c0 3.354.48 6.047 1.438 8.078L156.905 591h-8.312zm-7.094 0v-9.063c0-2.416-.203-3.856-.61-4.32-.406-.463-1.682-.695-3.827-.695h-5.891l1.531-4.625h5.047c3.135 0 5.23.458 6.281 1.375a3.773 3.773 0 011.219 1.992c.198.797.297 2.18.297 4.149V591H141.5zm-14.047-6.266h-4.062c.729-2.666 1.093-4.573 1.093-5.718 0-.823-.359-1.474-1.078-1.953-.719-.48-1.963-.896-3.734-1.25l2.094-3.891c2.552.51 4.33 1.21 5.336 2.101 1.005.891 1.507 2.206 1.507 3.946 0 1.094-.25 2.76-.75 5l-.406 1.765zM406.016 629v-10.031h4.046V629h-4.046zm13.593 0v-9.063c0-2.416-.205-3.856-.617-4.32-.411-.463-1.685-.695-3.82-.695h-12.047l1.547-4.625h11.172c3.135 0 5.229.458 6.281 1.375a3.733 3.733 0 011.234 1.984c.198.792.297 2.177.297 4.157V629h-4.047zm-36.421 0v-.516c0-2.677.28-4.971.843-6.882.563-1.912 1.51-3.8 2.844-5.664l-.703-.672c-1.136-1.063-2.162-1.948-3.078-2.657l3.687-2.687c2.448 1.937 5.037 4.51 7.766 7.719.625-1.084 1.039-2.032 1.242-2.844.203-.813.305-1.927.305-3.344v-1.156h4.328v.906c0 3.521-1.182 6.568-3.547 9.14a41.618 41.618 0 014.422 6.47l-3.485 2.578c-2.062-3.709-4.864-7.355-8.406-10.938-1.26 1.958-1.89 4.948-1.89 8.969V629h-4.329zm-4.938-6.266h-4.063c.73-2.666 1.094-4.573 1.094-5.718 0-.823-.36-1.474-1.078-1.953-.719-.48-1.963-.896-3.734-1.25l2.094-3.891c2.552.51 4.33 1.21 5.335 2.101 1.006.891 1.508 2.206 1.508 3.946 0 1.094-.25 2.76-.75 5l-.406 1.765zM356.078 629l1.563-4.625h5.515v-6.078c0-1.646-.354-2.724-1.062-3.235-.948-.677-2.224-1.244-3.828-1.703l1.843-3.437c1.73.427 3.297 1.047 4.704 1.86.906.53 1.53 1.182 1.875 1.952.343.771.515 1.922.515 3.453v7.188L365.656 629h-9.578zm-17.906 0l-2.235-17.688 3.922-1.39 1.797 14.453c2.667 0 4.795-.615 6.383-1.844 1.589-1.229 2.383-2.87 2.383-4.922 0-2.24-1.208-3.359-3.625-3.359-.646 0-1.339.104-2.078.313l1.406-4.36a9.102 9.102 0 012.234-.297c1.917 0 3.414.576 4.493 1.727 1.078 1.15 1.617 2.747 1.617 4.789 0 2.292-.698 4.437-2.094 6.437s-3.292 3.568-5.688 4.703c-2.01.959-4.848 1.438-8.515 1.438zm-9.938 0v-9.063c0-2.416-.203-3.856-.609-4.32-.406-.463-1.682-.695-3.828-.695h-5.89l1.53-4.625h5.047c3.136 0 5.23.458 6.282 1.375a3.773 3.773 0 011.218 1.992c.198.797.297 2.18.297 4.149V629h-4.047zm-24.625 0l1.563-4.625h5.515v-6.078c0-1.646-.354-2.724-1.062-3.235-.948-.677-2.224-1.244-3.828-1.703l1.844-3.437c1.729.427 3.296 1.047 4.703 1.86.906.53 1.531 1.182 1.875 1.952.344.771.515 1.922.515 3.453v7.188L313.188 629h-9.579zm-17.906 0l-2.234-17.688 3.922-1.39 1.796 14.453c2.667 0 4.795-.615 6.383-1.844 1.589-1.229 2.383-2.87 2.383-4.922 0-2.24-1.208-3.359-3.625-3.359-.646 0-1.338.104-2.078.313l1.406-4.36a9.102 9.102 0 012.235-.297c1.916 0 3.414.576 4.492 1.727 1.078 1.15 1.617 2.747 1.617 4.789 0 2.292-.698 4.437-2.094 6.437s-3.291 3.568-5.687 4.703c-2.01.959-4.85 1.438-8.516 1.438zm-34.078 0v-10.031h4.047V629h-4.047zm13.594 0v-9.063c0-2.416-.206-3.856-.617-4.32-.412-.463-1.685-.695-3.82-.695h-12.048l1.547-4.625h11.172c3.136 0 5.23.458 6.281 1.375a3.733 3.733 0 011.235 1.984c.198.792.297 2.177.297 4.157V629h-4.047zm-37.594 0l2.266-8.688c.416-1.593.625-2.692.625-3.296 0-1.24-1.058-2.907-3.172-5l3.61-2.094c1.145.958 2.124 2.265 2.937 3.922 1.666-2.615 3.666-3.922 6-3.922 1.76 0 3.166.67 4.218 2.008s1.677 3.257 1.875 5.758l.532 6.687-1.532 4.625h-9.03l1.546-4.625h4.922l-.36-4.797c-.25-3.354-1.348-5.031-3.296-5.031-1.125 0-2.07.56-2.836 1.68-.766 1.12-1.498 3.007-2.196 5.664L231.86 629h-4.234zm-7.453 0v-9.594c0-1.927-.32-3.252-.961-3.976-.64-.724-1.997-1.295-4.07-1.711l2-3.797c2.448.448 4.208 1.15 5.28 2.11.71.635 1.186 1.385 1.43 2.25.245.864.368 2.25.368 4.155V629h-4.047zm-13.531 0v-14.078h-9.532l1.547-4.625h16.094l-1.547 4.625h-2.516V629h-4.046zm-16.282 0v-9.063c0-2.416-.203-3.856-.609-4.32-.406-.463-1.682-.695-3.828-.695h-5.89l1.53-4.625h5.047c3.136 0 5.23.458 6.282 1.375a3.773 3.773 0 011.218 1.992c.198.797.297 2.18.297 4.149V629h-4.047zm-24.625 0l1.563-4.625h5.516v-6.078c0-1.646-.355-2.724-1.063-3.235-.948-.677-2.224-1.244-3.828-1.703l1.844-3.437c1.729.427 3.296 1.047 4.703 1.86.906.53 1.531 1.182 1.875 1.952.344.771.515 1.922.515 3.453v7.188L175.312 629h-9.578zm-3.625-6.266h-4.062c.729-2.666 1.094-4.573 1.094-5.718 0-.823-.36-1.474-1.078-1.953-.72-.48-1.964-.896-3.735-1.25l2.094-3.891c2.552.51 4.33 1.21 5.336 2.101 1.005.891 1.508 2.206 1.508 3.946 0 1.094-.25 2.76-.75 5l-.407 1.765zm-11.593 0h-4.063c.73-2.666 1.094-4.573 1.094-5.718 0-.823-.36-1.474-1.078-1.953-.719-.48-1.964-.896-3.735-1.25l2.094-3.891c2.552.51 4.33 1.21 5.336 2.101 1.005.891 1.508 2.206 1.508 3.946 0 1.094-.25 2.76-.75 5l-.406 1.765zM122.203 629v-14.078h-2.484l1.547-4.625h10.484c3.135 0 5.23.458 6.281 1.375a3.734 3.734 0 011.235 1.992c.198.797.297 2.18.297 4.149v6.562L138.016 629h-15.813zm4.063-4.625h9.25v-4.438c0-2.427-.203-3.87-.61-4.328-.406-.458-1.682-.687-3.828-.687h-4.812v9.453zM401.844 667l2.265-8.688c.417-1.593.625-2.692.625-3.296 0-1.24-1.057-2.907-3.171-5l3.609-2.094c1.146.958 2.125 2.265 2.937 3.922 1.667-2.615 3.667-3.922 6-3.922 1.76 0 3.167.67 4.22 2.008 1.051 1.338 1.676 3.257 1.874 5.758l.531 6.687-1.53 4.625h-9.032l1.547-4.625h4.922l-.36-4.797c-.25-3.354-1.349-5.031-3.297-5.031-1.125 0-2.07.56-2.836 1.68-.765 1.12-1.497 3.007-2.195 5.664L406.078 667h-4.234zm-20.422 0l-2.203-17.5 3.922-1.578 1.171 9.25c1.136-.281 1.933-.945 2.391-1.992.458-1.047.688-2.716.688-5.008v-1.875h4.343v1.719c0 3.093-.565 5.445-1.695 7.054-1.13 1.61-2.92 2.607-5.367 2.992l.281 2.313c2.719 0 4.89-.453 6.516-1.36 2.844-1.583 4.265-5.192 4.265-10.827v-1.891h4.329v1.562c0 5.615-1.581 9.875-4.743 12.782-3.161 2.906-7.794 4.359-13.898 4.359zm-18.969.39l1.594-4.718c2.042-.23 3.687-.839 4.937-1.828 1.948-1.542 2.922-3.406 2.922-5.594 0-.906-.32-1.52-.96-1.844-.641-.323-1.873-.484-3.696-.484h-5.563v-9.625l4.047-1.36v6.36h4.063c2.5 0 4.242.36 5.226 1.078.985.719 1.477 1.984 1.477 3.797 0 3.437-1.318 6.49-3.953 9.156-2.636 2.667-6 4.354-10.094 5.063zm-20.687-.39l1.546-4.625h9.641v-4.438c0-2.416-.203-3.856-.61-4.32-.406-.463-1.682-.695-3.827-.695h-5.829l1.547-4.625h4.954c3.135 0 5.229.458 6.28 1.375a3.734 3.734 0 011.235 1.992c.198.797.297 2.18.297 4.149v6.562h2.5L357.969 667h-16.203zm-4.016-6.266h-4.063c.73-2.666 1.094-4.573 1.094-5.718 0-.823-.36-1.474-1.078-1.953-.719-.48-1.963-.896-3.734-1.25l2.094-3.891c2.552.51 4.33 1.21 5.335 2.101 1.006.891 1.508 2.206 1.508 3.946 0 1.094-.25 2.76-.75 5l-.406 1.765zM309.437 667v-14.078h-2.484l1.547-4.625h10.484c3.136 0 5.23.458 6.282 1.375a3.734 3.734 0 011.234 1.992c.198.797.297 2.18.297 4.149v6.562L325.25 667h-15.813zm4.063-4.625h9.25v-4.438c0-2.427-.203-3.87-.61-4.328-.406-.458-1.682-.687-3.827-.687H313.5v9.453zM276.078 667l-2.203-17.5 3.922-1.578 1.172 9.25c1.135-.281 1.932-.945 2.39-1.992.459-1.047.688-2.716.688-5.008v-1.875h4.344v1.719c0 3.093-.565 5.445-1.696 7.054-1.13 1.61-2.919 2.607-5.367 2.992l.281 2.313c2.72 0 4.891-.453 6.516-1.36 2.844-1.583 4.266-5.192 4.266-10.827v-1.891h4.328v1.562c0 5.615-1.581 9.875-4.742 12.782-3.162 2.906-7.795 4.359-13.899 4.359zm-21.937 0l1.39-4.234H266v-4.157c0-1.948-.193-3.205-.578-3.773-.386-.568-1.386-1.065-3-1.492l-2.985-.782-.234.672c-.135.396-.203.74-.203 1.032 0 1.01.87 1.583 2.61 1.718l-1.079 3.25c-3.5-.323-5.25-1.671-5.25-4.047 0-.916.375-2.437 1.125-4.562l.969-2.703 7.125 1.734c2.313.563 3.815 1.284 4.508 2.164.693.88 1.039 2.503 1.039 4.867v6.079L268.64 667h-14.5zm-20.657 0v-10.031h4.047V667h-4.047zm13.594 0v-9.063c0-2.416-.206-3.856-.617-4.32-.412-.463-1.685-.695-3.82-.695h-12.047l1.547-4.625h11.172c3.135 0 5.229.458 6.28 1.375a3.733 3.733 0 011.235 1.984c.198.792.297 2.177.297 4.157V667h-4.047zm-38.234 0v-7.016c0-2.354.682-4.343 2.047-5.968L206 651.938l1.719-4.016 11.094 4.719-1.672 4.062-3.125-1.36c-.75.938-1.125 2.256-1.125 3.954V667h-4.047zm-9.735 0v-9.594c0-1.927-.32-3.252-.96-3.976-.641-.724-1.998-1.295-4.07-1.711l2-3.797c2.447.448 4.207 1.15 5.28 2.11.709.635 1.185 1.385 1.43 2.25.245.864.367 2.25.367 4.155V667h-4.047zm-11.734 0v-5.016h5.016V667h-5.016zm-32.156 0v-10.031h4.047V667h-4.047zm13.594 0v-9.063c0-2.416-.206-3.856-.618-4.32-.411-.463-1.685-.695-3.82-.695h-12.047l1.547-4.625h11.172c3.135 0 5.229.458 6.281 1.375a3.733 3.733 0 011.234 1.984c.198.792.297 2.177.297 4.157V667h-4.047zm-20.391-6.266h-4.063c.73-2.666 1.094-4.573 1.094-5.718 0-.823-.36-1.474-1.078-1.953-.719-.48-1.964-.896-3.734-1.25l2.093-3.891c2.552.51 4.331 1.21 5.336 2.101 1.006.891 1.508 2.206 1.508 3.946 0 1.094-.25 2.76-.75 5l-.406 1.765zM120.797 667v-.516c0-2.677.281-4.971.844-6.882.562-1.912 1.51-3.8 2.843-5.664l-.703-.672c-1.135-1.063-2.161-1.948-3.078-2.657l3.688-2.687c2.448 1.937 5.036 4.51 7.765 7.719.625-1.084 1.04-2.032 1.242-2.844.204-.813.305-1.927.305-3.344v-1.156h4.328v.906c0 3.521-1.182 6.568-3.547 9.14a41.618 41.618 0 014.422 6.47l-3.484 2.578c-2.063-3.709-4.865-7.355-8.406-10.938-1.26 1.958-1.891 4.948-1.891 8.969V667h-4.328zm275.937 31.734h-4.062c.729-2.666 1.094-4.573 1.094-5.718 0-.823-.36-1.474-1.079-1.953-.718-.48-1.963-.896-3.734-1.25l2.094-3.891c2.552.51 4.33 1.21 5.336 2.101 1.005.891 1.508 2.206 1.508 3.946 0 1.094-.25 2.76-.75 5l-.407 1.765zM380.031 705v-14.078H370.5l1.547-4.625h16.094l-1.547 4.625h-2.516V705h-4.047zm-16.36 0v-9.594c0-1.927-.32-3.252-.96-3.976-.64-.724-1.997-1.295-4.07-1.711l2-3.797c2.448.448 4.208 1.15 5.28 2.11.71.635 1.186 1.385 1.43 2.25.245.864.368 2.25.368 4.155V705h-4.047zm-26.093 2.781l1.563-4.672c1.666 0 3.458-.28 5.375-.843l-3.36-14.985 3.875-1.36 3.266 14.563c1.635-1.24 2.773-2.78 3.414-4.625.64-1.843.96-4.484.96-7.922v-1.64h4.345v1.156c0 3.99-.612 7.318-1.836 9.985-1.224 2.666-3.154 4.88-5.79 6.64-3.697 2.469-7.635 3.703-11.812 3.703zM318.188 705v-10.031h4.046V705h-4.046zm13.593 0v-9.063c0-2.416-.205-3.856-.617-4.32-.411-.463-1.685-.695-3.82-.695h-12.047l1.547-4.625h11.172c3.135 0 5.229.458 6.28 1.375a3.733 3.733 0 011.235 1.984c.198.792.297 2.177.297 4.157V705h-4.047zm-46.234 0l1.547-4.625h9.64v-4.438c0-2.416-.203-3.856-.609-4.32-.406-.463-1.682-.695-3.828-.695h-5.828l1.547-4.625h4.953c3.135 0 5.229.458 6.281 1.375a3.734 3.734 0 011.234 1.992c.198.797.297 2.18.297 4.149v6.562h2.5L301.75 705h-16.203zm-21.688 2.781l1.563-4.672c1.667 0 3.458-.28 5.375-.843l-3.36-14.985 3.875-1.36 3.266 14.563c1.636-1.24 2.774-2.78 3.414-4.625.64-1.843.961-4.484.961-7.922v-1.64h4.344v1.156c0 3.99-.612 7.318-1.836 9.985-1.224 2.666-3.154 4.88-5.79 6.64-3.697 2.469-7.635 3.703-11.812 3.703zm-2.375-9.047h-4.062c.729-2.666 1.094-4.573 1.094-5.718 0-.823-.36-1.474-1.079-1.953-.718-.48-1.963-.896-3.734-1.25l2.094-3.891c2.552.51 4.33 1.21 5.336 2.101 1.005.891 1.508 2.206 1.508 3.946 0 1.094-.25 2.76-.75 5l-.407 1.765zm-27.328 10.891v-14.61h4.047v14.61h-4.047zm-2.515-18.703l1.547-4.625h10.843c1.99 0 3.39.088 4.203.265.813.178 1.495.542 2.047 1.094.802.813 1.203 1.98 1.203 3.5 0 3.052-1.12 5.901-3.359 8.547-2.24 2.646-5.13 4.537-8.672 5.672l1.672-4.969c1.656-.469 3.036-1.383 4.14-2.742 1.105-1.36 1.657-2.82 1.657-4.383 0-.937-.328-1.565-.984-1.883-.657-.317-1.959-.476-3.907-.476h-10.39zM224.406 705v-9.063c0-2.416-.203-3.856-.61-4.32-.405-.463-1.681-.695-3.827-.695h-5.89l1.53-4.625h5.047c3.136 0 5.23.458 6.281 1.375a3.773 3.773 0 011.22 1.992c.197.797.296 2.18.296 4.149V705h-4.047zm-38.734 0l1.531-4.625h8.734c.865-1.99 1.297-3.682 1.297-5.078 0-1.646-.38-2.787-1.14-3.422-.76-.635-2.13-.953-4.11-.953h-5.406l1.531-4.625h5.094c1.781 0 3.151.156 4.11.469.958.312 1.77.87 2.437 1.672 1.063 1.27 1.594 3.062 1.594 5.375 0 1.843-.49 4.03-1.469 6.562L198.359 705h-12.687zm-20.422 0l-2.203-17.5 3.922-1.578 1.172 9.25c1.135-.281 1.932-.945 2.39-1.992.459-1.047.688-2.716.688-5.008v-1.875h4.344v1.719c0 3.093-.566 5.445-1.696 7.054-1.13 1.61-2.92 2.607-5.367 2.992l.281 2.313c2.719 0 4.89-.453 6.516-1.36 2.844-1.583 4.266-5.192 4.266-10.827v-1.891h4.328v1.562c0 5.615-1.581 9.875-4.743 12.782-3.161 2.906-7.794 4.359-13.898 4.359zm-21.938 0l1.391-4.234h10.469v-4.157c0-1.948-.193-3.205-.578-3.773-.386-.568-1.386-1.065-3-1.492l-2.985-.782-.234.672c-.135.396-.203.74-.203 1.032 0 1.01.87 1.583 2.61 1.718l-1.079 3.25c-3.5-.323-5.25-1.671-5.25-4.047 0-.916.375-2.437 1.125-4.562l.969-2.703 7.125 1.734c2.312.563 3.815 1.284 4.508 2.164.692.88 1.039 2.503 1.039 4.867v6.079L157.813 705h-14.5zm-20.656 0v-10.031h4.047V705h-4.047zm13.594 0v-9.063c0-2.416-.206-3.856-.617-4.32-.412-.463-1.685-.695-3.82-.695h-12.047l1.546-4.625h11.172c3.136 0 5.23.458 6.282 1.375a3.733 3.733 0 011.234 1.984c.198.792.297 2.177.297 4.157V705h-4.047zm169.5 38v-10.031h4.047V743h-4.047zm13.594 0v-9.063c0-2.416-.206-3.856-.617-4.32-.412-.463-1.685-.695-3.82-.695h-12.048l1.547-4.625h11.172c3.136 0 5.23.458 6.281 1.375a3.733 3.733 0 011.235 1.984c.198.792.297 2.177.297 4.157V743h-4.047zm-37.594 0l2.266-8.688c.416-1.593.625-2.692.625-3.296 0-1.24-1.058-2.907-3.172-5l3.61-2.094c1.145.958 2.124 2.265 2.937 3.922 1.666-2.615 3.666-3.922 6-3.922 1.76 0 3.166.67 4.218 2.008s1.677 3.257 1.875 5.758l.532 6.687-1.532 4.625h-9.03l1.546-4.625h4.922l-.36-4.797c-.25-3.354-1.348-5.031-3.296-5.031-1.125 0-2.07.56-2.836 1.68-.766 1.12-1.498 3.007-2.196 5.664L285.984 743h-4.234zm-7.453 0v-9.594c0-1.927-.32-3.252-.961-3.976-.64-.724-1.997-1.295-4.07-1.711l2-3.797c2.448.448 4.208 1.15 5.28 2.11.71.635 1.186 1.385 1.43 2.25.245.864.368 2.25.368 4.155V743h-4.047zm-22.703 0l-2.235-17.688 3.922-1.39 1.797 14.453c2.667 0 4.794-.615 6.383-1.844 1.588-1.229 2.383-2.87 2.383-4.922 0-2.24-1.209-3.359-3.625-3.359-.646 0-1.339.104-2.078.313l1.406-4.36a9.102 9.102 0 012.234-.297c1.917 0 3.414.576 4.492 1.727 1.079 1.15 1.618 2.747 1.618 4.789 0 2.292-.698 4.437-2.094 6.437s-3.292 3.568-5.688 4.703c-2.01.959-4.849 1.438-8.515 1.438zm-21.813 0l1.547-4.625h9.64v-4.438c0-2.416-.202-3.856-.609-4.32-.406-.463-1.682-.695-3.828-.695h-5.828l1.547-4.625h4.953c3.136 0 5.23.458 6.281 1.375a3.734 3.734 0 011.235 1.992c.198.797.297 2.18.297 4.149v6.562h2.5L245.984 743h-16.203zm-21.687 2.781l1.562-4.672c1.667 0 3.459-.28 5.375-.843l-3.36-14.985 3.876-1.36 3.266 14.563c1.635-1.24 2.773-2.78 3.414-4.625.64-1.843.96-4.484.96-7.922v-1.64h4.344v1.156c0 3.99-.612 7.318-1.836 9.985-1.224 2.666-3.153 4.88-5.789 6.64-3.698 2.469-7.635 3.703-11.812 3.703zM186.39 743l1.547-4.625h4.03c-.822-2.115-1.234-4.708-1.234-7.781v-1.672h-2.328l1.547-4.625h8.578c3.136 0 5.23.458 6.281 1.375a3.733 3.733 0 011.235 1.984c.198.792.297 2.177.297 4.157V743h-4.047v-9.063c0-2.416-.203-3.856-.61-4.32-.406-.463-1.682-.695-3.828-.695h-3.062v1.375c0 3.354.479 6.047 1.437 8.078l-1.53 4.625h-8.313zm-29.516 0l1.547-4.625h9.64v-4.438c0-2.416-.203-3.856-.609-4.32-.406-.463-1.682-.695-3.828-.695h-5.828l1.547-4.625h4.953c3.135 0 5.229.458 6.281 1.375a3.734 3.734 0 011.234 1.992c.198.797.297 2.18.297 4.149v6.562h2.5L173.08 743h-16.204zm-9.125 0v-14.078h-9.531l1.547-4.625h16.093l-1.547 4.625h-2.515V743h-4.047zm-28.25 0l1.39-4.234h10.47v-4.157c0-1.948-.193-3.205-.579-3.773-.385-.568-1.385-1.065-3-1.492l-2.984-.782-.234.672c-.136.396-.204.74-.204 1.032 0 1.01.87 1.583 2.61 1.718l-1.078 3.25c-3.5-.323-5.25-1.671-5.25-4.047 0-.916.375-2.437 1.125-4.562l.968-2.703 7.125 1.734c2.313.563 3.815 1.284 4.508 2.164.693.88 1.04 2.503 1.04 4.867v6.079L134 743h-14.5z"/><path id="Rectangle-1" stroke="#EE6B47" stroke-width="2" d="M117 106h282v198H117z"/><g id="Rectangle-209-+-Rectangle-208" fill="#EBCB9D" transform="translate(15 14)"><path id="Rectangle-209" d="M0 1h50v300H0z"/><path id="Rectangle-208" d="M165.5-129.5h50v311h-50z" transform="rotate(-90 190.5 26)"/></g><path id="Rectangle-5" fill="url(#linearGradient-1)" d="M45-7h275v447H45z" transform="rotate(-180 182.5 216.5)"/><path id="Rectangle-6" fill="#FFF" d="M319 8h162v399H319z"/><g id="Group-2" transform="translate(65 65)"><rect id="Rectangle-19" width="20" height="239" x=".5" y=".5" fill="#F3F2F2" stroke="#E9E9E9" rx="3"/><g id="Rectangle-18-+-Triangle-1"><rect id="Rectangle-18" width="20" height="19" x=".5" y=".5" fill="url(#linearGradient-2)" stroke="#CFCFCF" rx="3"/><path id="Triangle-1" fill="#92979F" d="M10.5 7l4.2 6H6.3z"/></g><g id="Rectangle-18-+-Triangle-2" transform="matrix(1 0 0 -1 0 240)"><rect id="Rectangle-18" width="20" height="19" x=".5" y=".5" fill="url(#linearGradient-2)" stroke="#CFCFCF" rx="3"/><path id="Triangle-1" fill="#92979F" d="M10.5 7l4.2 6H6.3z"/></g><g id="Rectangle-18-+-Triangle-3-+-Group" transform="translate(0 50)"><g id="Rectangle-18-+-Triangle-3" fill="url(#linearGradient-3)" stroke="#CFCFCF" transform="matrix(1 0 0 -1 0 51)"><rect id="Rectangle-18" width="20" height="50" x=".5" y=".5" rx="3"/></g><g id="Group" fill="#D8D8D8" stroke="#979797" transform="translate(5.25 20)"><path id="Rectangle-22" d="M.5.5H10v1H.5z"/><path id="Rectangle-23" d="M.5 3.5H10v1H.5z"/><path id="Rectangle-24" d="M.5 6.5H10v1H.5z"/><path id="Rectangle-25" d="M.5 9.5H10v1H.5z"/></g></g></g><path id="Line-7" fill="#EE6B47" fill-rule="nonzero" d="M65.41 15.68l7 14h-6.001v20h6.001l-7 14-7-14h5.999v-20H58.41l7-14z"/><path id="Line-28" fill="#EE6B47" fill-rule="nonzero" d="M72 57.68l14 7-14 7-.001-6h-42.59l.001 6-14-7 14-7-.001 6h42.59l.001-6z"/><text id="clientTop:25px-=-bor" font-family="PTMono-Regular, PT Mono" font-size="12" font-weight="normal"><tspan x="78.7" y="43" fill="#EE6B47">clientTop:</tspan> <tspan x="150.7" y="43" fill="#3B86C4">25px </tspan> <tspan x="186.7" y="43" fill="#EE6B47">= border</tspan></text><text id="clientLeft:41px" font-family="PTMono-Regular, PT Mono" font-size="12" font-weight="normal" transform="rotate(-90 40.32 125)"><tspan x="-13.68" y="129" fill="#EE6B47">clientLeft:</tspan> <tspan x="65.52" y="129" fill="#3B86C4">41px</tspan></text><g id="Rectangle-8-+-Rectangle-7" transform="translate(-42 -3)"><path id="Rectangle-8" fill="url(#linearGradient-1)" d="M86.5-85.5h275v447h-275z" transform="rotate(-90 224 138)"/><path id="Rectangle-7" fill="#FFF" d="M152 156h162v399H152z" transform="rotate(90 233 355.5)"/></g></g></g></svg>