<svg xmlns="http://www.w3.org/2000/svg" width="409" height="467" viewBox="0 0 409 467"><defs><style>@import url(https://fonts.googleapis.com/css?family=Open+Sans:bold,italic,bolditalic%7CPT+Mono);@font-face{font-family:&apos;PT Mono&apos;;font-weight:700;font-style:normal;src:local(&apos;PT MonoBold&apos;),url(/font/PTMonoBold.woff2) format(&apos;woff2&apos;),url(/font/PTMonoBold.woff) format(&apos;woff&apos;),url(/font/PTMonoBold.ttf) format(&apos;truetype&apos;)}</style></defs><defs><linearGradient id="linearGradient-1" x1="50%" x2="50%" y1="0%" y2="100%"><stop offset="0%" stop-color="#FFF"/><stop offset="100%" stop-color="#F1F1F1"/></linearGradient><linearGradient id="linearGradient-2" x1="50%" x2="50%" y1="0%" y2="100%"><stop offset="0%" stop-color="#FFF"/><stop offset="100%" stop-color="#F1F1F1"/></linearGradient></defs><g id="dom" fill="none" fill-rule="evenodd" stroke="none" stroke-width="1"><g id="metric-client-width-nopadding.svg"><path fill="#FFF" d="M0 0h409v467H0z"/><path id="Rectangle-1" fill="#E8C48F" fill-opacity=".88" d="M389 131v250H35V131h354zm-25 25H60v200h304V156z"/><text id="clientWidth:284px-=-" font-family="PTMono-Regular, PT Mono" font-size="12" font-weight="normal"><tspan x="84.7" y="399.642" fill="#EE6B47">clientWidth:</tspan> <tspan x="171.1" y="399.642" fill="#3B86C4">284px </tspan> <tspan x="214.3" y="399.642" fill="#EE6B47">= content width</tspan></text><path id="Line-44" fill="#EE6B47" fill-rule="nonzero" d="M329.68 402.642l14 7-14 7-.001-6.001h-252l.001 6-14-7 14-7-.001 6h252l.001-6z"/><text id="CSS-width:-300px" font-family="PTMono-Regular, PT Mono" font-size="12" font-weight="normal"><tspan x="145.9" y="429.642" fill="#F38158">CSS width:</tspan> <tspan x="217.9" y="429.642" fill="#3B86C4"> 300px</tspan></text><path id="Line-47" fill="#EE6B47" fill-rule="nonzero" d="M349 427.642l14 7-14 7v-6.001H76.679l.001 6-14-7 14-7-.001 6H349v-6z"/><text id="Introduction-This-Ec" fill="#5A4739" font-family="OpenSans-Bold, Open Sans" font-size="16" font-weight="bold"><tspan x="62" y="173">Introduction</tspan>  <tspan x="62" y="201" font-family="OpenSans-Regular, Open Sans" font-size="14" font-weight="normal">This Ecma Standard is based on several </tspan> <tspan x="62" y="220" font-family="OpenSans-Regular, Open Sans" font-size="14" font-weight="normal">originating technologies, the most well </tspan> <tspan x="62" y="239" font-family="OpenSans-Regular, Open Sans" font-size="14" font-weight="normal">known being JavaScript (Netscape) and </tspan> <tspan x="62" y="258" font-family="OpenSans-Regular, Open Sans" font-size="14" font-weight="normal">JScript (Microsoft). The language was </tspan> <tspan x="62" y="277" font-family="OpenSans-Regular, Open Sans" font-size="14" font-weight="normal">invented by Brendan Eich at Netscape and </tspan> <tspan x="62" y="296" font-family="OpenSans-Regular, Open Sans" font-size="14" font-weight="normal">first appeared in that company’s Navigator </tspan> <tspan x="62" y="315" font-family="OpenSans-Regular, Open Sans" font-size="14" font-weight="normal">2.0 browser. It has appeared in all </tspan> <tspan x="62" y="334" font-family="OpenSans-Regular, Open Sans" font-size="14" font-weight="normal">subsequent browsers from Netscape and </tspan> <tspan x="62" y="353" font-family="OpenSans-Regular, Open Sans" font-size="14" font-weight="normal">in all browsers from Microsoft starting with </tspan></text><ellipse id="Oval-5" cx="191" cy="58.858" fill="#FFF9EB" stroke="#EE6B47" stroke-width="2" rx="76" ry="43.5"/><path id="Line" fill="#EE6B47" fill-rule="nonzero" d="M192 103v11.638h6l-7 14-7-14h6V103h2z"/><text id="padding:-0;" fill="#8A704D" font-family="PTMono-Regular, PT Mono" font-size="16" font-weight="normal"><tspan x="136" y="52">padding: 0;</tspan> <tspan x="136" y="70">width: 300px;</tspan></text><g id="Group-2" transform="translate(348 156)"><rect id="Rectangle-19" width="15" height="199" x=".5" y=".5" fill="#F3F2F2" stroke="#E9E9E9" rx="3"/><g id="Rectangle-18-+-Triangle-1"><rect id="Rectangle-18" width="15" height="19" x=".5" y=".5" fill="url(#linearGradient-1)" stroke="#CFCFCF" rx="3"/><path id="Triangle-1" fill="#92979F" d="M8 7l3.2 6H4.8z"/></g><g id="Rectangle-18-+-Triangle-2" transform="matrix(1 0 0 -1 0 200)"><rect id="Rectangle-18" width="15" height="19" x=".5" y=".5" fill="url(#linearGradient-1)" stroke="#CFCFCF" rx="3"/><path id="Triangle-1" fill="#92979F" d="M8 7l3.2 6H4.8z"/></g><g id="Rectangle-18-+-Triangle-3-+-Group" transform="translate(0 50)"><g id="Rectangle-18-+-Triangle-3" fill="url(#linearGradient-2)" stroke="#CFCFCF" transform="matrix(1 0 0 -1 0 51)"><rect id="Rectangle-18" width="15" height="50" x=".5" y=".5" rx="3"/></g><g id="Group" fill="#D8D8D8" stroke="#979797" transform="translate(4 20)"><path id="Rectangle-22" d="M.5.5h7v1h-7z"/><path id="Rectangle-23" d="M.5 3.5h7v1h-7z"/><path id="Rectangle-24" d="M.5 6.5h7v1h-7z"/><path id="Rectangle-25" d="M.5 9.5h7v1h-7z"/></g></g></g><path id="Line-46" stroke="#EE6B47" stroke-dasharray="3,6" stroke-linecap="square" stroke-width="2" d="M60.5 354.642v96"/><path id="Line-45" stroke="#EE6B47" stroke-dasharray="3,6" stroke-linecap="square" stroke-width="2" d="M345.5 354.642V414"/><path id="Line-48" stroke="#EE6B47" stroke-dasharray="3,6" stroke-linecap="square" stroke-width="2" d="M363.5 354.642v96"/></g></g></svg>