<svg xmlns="http://www.w3.org/2000/svg" width="489" height="542" viewBox="0 0 489 542"><defs><style>@import url(https://fonts.googleapis.com/css?family=Open+Sans:bold,italic,bolditalic%7CPT+Mono);@font-face{font-family:&apos;PT Mono&apos;;font-weight:700;font-style:normal;src:local(&apos;PT MonoBold&apos;),url(/font/PTMonoBold.woff2) format(&apos;woff2&apos;),url(/font/PTMonoBold.woff) format(&apos;woff&apos;),url(/font/PTMonoBold.ttf) format(&apos;truetype&apos;)}</style></defs><defs><linearGradient id="linearGradient-1" x1="50%" x2="50%" y1="0%" y2="100%"><stop offset="0%" stop-color="#FFF"/><stop offset="100%" stop-color="#F1F1F1"/></linearGradient><linearGradient id="linearGradient-2" x1="50%" x2="50%" y1="0%" y2="100%"><stop offset="0%" stop-color="#FFF"/><stop offset="100%" stop-color="#F1F1F1"/></linearGradient></defs><g id="dom" fill="none" fill-rule="evenodd" stroke="none" stroke-width="1"><g id="metric-scroll-top.svg"><path fill="#FFF" d="M0 0h489v542H0z"/><text id="Introduction" fill="#5A4739" font-family="OpenSans-Bold, Open Sans" font-size="16" font-weight="bold"><tspan x="94" y="54">Introduction</tspan>  <tspan x="94" y="82" font-family="OpenSans-Regular, Open Sans" font-size="14" font-weight="normal">This Ecma Standard is based on several </tspan> <tspan x="94" y="101" font-family="OpenSans-Regular, Open Sans" font-size="14" font-weight="normal">originating technologies, the most well </tspan> <tspan x="94" y="120" font-family="OpenSans-Regular, Open Sans" font-size="14" font-weight="normal">known being JavaScript (Netscape) and </tspan> <tspan x="94" y="139" font-family="OpenSans-Regular, Open Sans" font-size="14" font-weight="normal">JScript (Microsoft). The language was </tspan> <tspan x="94" y="158" font-family="OpenSans-Regular, Open Sans" font-size="14" font-weight="normal">invented by Brendan Eich at Netscape and </tspan> <tspan x="94" y="177" font-family="OpenSans-Regular, Open Sans" font-size="14" font-weight="normal">first appeared in that company’s Navigator </tspan> <tspan x="94" y="196" font-family="OpenSans-Regular, Open Sans" font-size="14" font-weight="normal">2.0 browser. It has appeared in all </tspan> <tspan x="94" y="215" font-family="OpenSans-Regular, Open Sans" font-size="14" font-weight="normal">subsequent browsers from Netscape and </tspan> <tspan x="94" y="234" font-family="OpenSans-Regular, Open Sans" font-size="14" font-weight="normal">in all browsers from Microsoft starting with </tspan> <tspan x="94" y="253" font-family="OpenSans-Regular, Open Sans" font-size="14" font-weight="normal">Internet Explorer 3.0.</tspan> <tspan x="94" y="272" font-family="OpenSans-Regular, Open Sans" font-size="14" font-weight="normal">The development of this Standard started </tspan> <tspan x="94" y="291" font-family="OpenSans-Regular, Open Sans" font-size="14" font-weight="normal">in November 1996. The first edition of this </tspan> <tspan x="94" y="310" font-family="OpenSans-Regular, Open Sans" font-size="14" font-weight="normal">Ecma Standard was adopted by the Ecma </tspan> <tspan x="94" y="329" font-family="OpenSans-Regular, Open Sans" font-size="14" font-weight="normal">General Assembly of June 1997.</tspan> <tspan x="94" y="348" font-family="OpenSans-Regular, Open Sans" font-size="14" font-weight="normal">That Ecma Standard was submitted to ISO/</tspan> <tspan x="94" y="367" font-family="OpenSans-Regular, Open Sans" font-size="14" font-weight="normal">IEC JTC 1 for adoption under the fast-track </tspan> <tspan x="94" y="386" font-family="OpenSans-Regular, Open Sans" font-size="14" font-weight="normal">procedure, and approved as international </tspan> <tspan x="94" y="405" font-family="OpenSans-Regular, Open Sans" font-size="14" font-weight="normal">standard ISO/IEC 16262, in April 1998. The </tspan> <tspan x="94" y="424" font-family="OpenSans-Regular, Open Sans" font-size="14" font-weight="normal">Ecma General Assembly of June 1998 </tspan> <tspan x="94" y="443" font-family="OpenSans-Regular, Open Sans" font-size="14" font-weight="normal">approved the second edition of ECMA-262 </tspan> <tspan x="94" y="462" font-family="OpenSans-Regular, Open Sans" font-size="14" font-weight="normal">to keep it fully aligned with ISO/IEC 16262. </tspan> <tspan x="94" y="481" font-family="OpenSans-Regular, Open Sans" font-size="14" font-weight="normal">Changes between the first and the second </tspan> <tspan x="94" y="500" font-family="OpenSans-Regular, Open Sans" font-size="14" font-weight="normal">edition are editorial in nature.</tspan></text><path id="Rectangle-1" fill="#E8C48F" fill-opacity=".88" d="M425 122v290H51V122h374zm-25 25H76v240h324V147z"/><path id="Rectangle-2" stroke="#E8C48F" stroke-opacity=".8" stroke-width="2" d="M75 22h326v500H75z"/><text id="scrollTop" fill="#EE6B47" font-family="PTMono-Regular, PT Mono" font-size="12" font-weight="normal" transform="rotate(-90 16.5 84)"><tspan x="-15.9" y="88">scrollTop</tspan></text><path id="Line-43" stroke="#EE6B47" stroke-dasharray="3,6" stroke-linecap="square" stroke-width="2" d="M9.5 147h66.14"/><path id="Line-42" stroke="#EE6B47" stroke-dasharray="3,6" stroke-linecap="square" stroke-width="2" d="M10.5 21h66.14"/><path id="Line-39" fill="#EE6B47" fill-rule="nonzero" d="M35 20.5l7 14h-6v97.819l6 .001-7 14-7-14 6-.001V34.5h-6l7-14z"/><path id="Rectangle-14" fill="#FFF" fill-opacity=".8" d="M88 33h312v89H88z"/><path id="Rectangle-15" fill="#FFF" fill-opacity=".8" d="M88 411h312v89H88z"/><text id="scrollHeight:723px" font-family="PTMono-Regular, PT Mono" font-size="14" font-weight="normal" transform="rotate(-90 449 270)"><tspan x="373.4" y="274.5" fill="#EE6B47">scrollHeight:</tspan> <tspan x="482.6" y="274.5" fill="#3B86C4">723px</tspan></text><path id="Line-27" stroke="#EE6B47" stroke-dasharray="3,6" stroke-linecap="square" stroke-width="2" d="M393.5 22h78.14"/><path id="Line-28" stroke="#EE6B47" stroke-dasharray="3,6" stroke-linecap="square" stroke-width="2" d="M393.5 522h78.14"/><path id="Line-25" fill="#EE6B47" fill-rule="nonzero" d="M462 24.5l7 14h-6v466h6l-7 14-7-14h6v-466h-6l7-14z"/><g id="Scrollbar" transform="translate(384 147)"><rect id="Rectangle-19" width="15" height="239" x=".5" y=".5" fill="#F3F2F2" stroke="#E9E9E9" rx="3"/><g id="Rectangle-18-+-Triangle-1"><rect id="Rectangle-18" width="15" height="19" x=".5" y=".5" fill="url(#linearGradient-1)" stroke="#CFCFCF" rx="3"/><path id="Triangle-1" fill="#92979F" d="M8 7l3.2 6H4.8z"/></g><g id="Rectangle-18-+-Triangle-2" transform="matrix(1 0 0 -1 0 240)"><rect id="Rectangle-18" width="15" height="19" x=".5" y=".5" fill="url(#linearGradient-1)" stroke="#CFCFCF" rx="3"/><path id="Triangle-1" fill="#92979F" d="M8 7l3.2 6H4.8z"/></g><g id="Rectangle-18-+-Triangle-3-+-Group" transform="translate(0 50)"><g id="Rectangle-18-+-Triangle-3" fill="url(#linearGradient-2)" stroke="#CFCFCF" transform="matrix(1 0 0 -1 0 51)"><rect id="Rectangle-18" width="15" height="50" x=".5" y=".5" rx="3"/></g><g id="Group" fill="#D8D8D8" stroke="#979797" transform="translate(4 20)"><path id="Rectangle-22" d="M.5.5h7v1h-7z"/><path id="Rectangle-23" d="M.5 3.5h7v1h-7z"/><path id="Rectangle-24" d="M.5 6.5h7v1h-7z"/><path id="Rectangle-25" d="M.5 9.5h7v1h-7z"/></g></g></g></g></g></svg>