<?xml version="1.0" encoding="UTF-8"?>
<svg width="489px" height="542px" viewBox="0 0 489 542" version="1.1" xmlns="http://www.w3.org/2000/svg" xmlns:xlink="http://www.w3.org/1999/xlink">
    <!-- Generator: sketchtool 55.2 (78181) - https://sketchapp.com -->
    <title>metric-scroll-top.svg</title>
    <desc>Created with sketchtool.</desc>
    <defs>
        <linearGradient x1="50%" y1="0%" x2="50%" y2="100%" id="linearGradient-1">
            <stop stop-color="#FFFFFF" offset="0%"></stop>
            <stop stop-color="#F1F1F1" offset="100%"></stop>
        </linearGradient>
        <linearGradient x1="50%" y1="0%" x2="50%" y2="100%" id="linearGradient-2">
            <stop stop-color="#FFFFFF" offset="0%"></stop>
            <stop stop-color="#F1F1F1" offset="100%"></stop>
        </linearGradient>
    </defs>
    <g id="dom" stroke="none" stroke-width="1" fill="none" fill-rule="evenodd">
        <g id="metric-scroll-top.svg">
            <rect fill="#FFFFFF" x="0" y="0" width="489" height="542"></rect>
            <text id="Introduction" font-family="OpenSans-Bold, Open Sans" font-size="16" font-weight="bold" fill="#5A4739">
                <tspan x="94" y="54">Introduction</tspan>
                <tspan x="194.726562" y="54" font-family="OpenSans-Regular, Open Sans" font-size="14" font-weight="normal"></tspan>
                <tspan x="94" y="82" font-family="OpenSans-Regular, Open Sans" font-size="14" font-weight="normal">This Ecma Standard is based on several </tspan>
                <tspan x="94" y="101" font-family="OpenSans-Regular, Open Sans" font-size="14" font-weight="normal">originating technologies, the most well </tspan>
                <tspan x="94" y="120" font-family="OpenSans-Regular, Open Sans" font-size="14" font-weight="normal">known being JavaScript (Netscape) and </tspan>
                <tspan x="94" y="139" font-family="OpenSans-Regular, Open Sans" font-size="14" font-weight="normal">JScript (Microsoft). The language was </tspan>
                <tspan x="94" y="158" font-family="OpenSans-Regular, Open Sans" font-size="14" font-weight="normal">invented by Brendan Eich at Netscape and </tspan>
                <tspan x="94" y="177" font-family="OpenSans-Regular, Open Sans" font-size="14" font-weight="normal">first appeared in that company’s Navigator </tspan>
                <tspan x="94" y="196" font-family="OpenSans-Regular, Open Sans" font-size="14" font-weight="normal">2.0 browser. It has appeared in all </tspan>
                <tspan x="94" y="215" font-family="OpenSans-Regular, Open Sans" font-size="14" font-weight="normal">subsequent browsers from Netscape and </tspan>
                <tspan x="94" y="234" font-family="OpenSans-Regular, Open Sans" font-size="14" font-weight="normal">in all browsers from Microsoft starting with </tspan>
                <tspan x="94" y="253" font-family="OpenSans-Regular, Open Sans" font-size="14" font-weight="normal">Internet Explorer 3.0.</tspan>
                <tspan x="94" y="272" font-family="OpenSans-Regular, Open Sans" font-size="14" font-weight="normal">The development of this Standard started </tspan>
                <tspan x="94" y="291" font-family="OpenSans-Regular, Open Sans" font-size="14" font-weight="normal">in November 1996. The first edition of this </tspan>
                <tspan x="94" y="310" font-family="OpenSans-Regular, Open Sans" font-size="14" font-weight="normal">Ecma Standard was adopted by the Ecma </tspan>
                <tspan x="94" y="329" font-family="OpenSans-Regular, Open Sans" font-size="14" font-weight="normal">General Assembly of June 1997.</tspan>
                <tspan x="94" y="348" font-family="OpenSans-Regular, Open Sans" font-size="14" font-weight="normal">That Ecma Standard was submitted to ISO/</tspan>
                <tspan x="94" y="367" font-family="OpenSans-Regular, Open Sans" font-size="14" font-weight="normal">IEC JTC 1 for adoption under the fast-track </tspan>
                <tspan x="94" y="386" font-family="OpenSans-Regular, Open Sans" font-size="14" font-weight="normal">procedure, and approved as international </tspan>
                <tspan x="94" y="405" font-family="OpenSans-Regular, Open Sans" font-size="14" font-weight="normal">standard ISO/IEC 16262, in April 1998. The </tspan>
                <tspan x="94" y="424" font-family="OpenSans-Regular, Open Sans" font-size="14" font-weight="normal">Ecma General Assembly of June 1998 </tspan>
                <tspan x="94" y="443" font-family="OpenSans-Regular, Open Sans" font-size="14" font-weight="normal">approved the second edition of ECMA-262 </tspan>
                <tspan x="94" y="462" font-family="OpenSans-Regular, Open Sans" font-size="14" font-weight="normal">to keep it fully aligned with ISO/IEC 16262. </tspan>
                <tspan x="94" y="481" font-family="OpenSans-Regular, Open Sans" font-size="14" font-weight="normal">Changes between the first and the second </tspan>
                <tspan x="94" y="500" font-family="OpenSans-Regular, Open Sans" font-size="14" font-weight="normal">edition are editorial in nature.</tspan>
            </text>
            <path d="M400,147 L76,147 L76,387 L400,387 L400,147 Z M51,122 L425,122 L425,412 L51,412 L51,122 Z" id="Rectangle-1" fill-opacity="0.88" fill="#E8C48F"></path>
            <rect id="Rectangle-2" stroke-opacity="0.8" stroke="#E8C48F" stroke-width="2" x="75" y="22" width="326" height="500"></rect>
            <text id="scrollTop" transform="translate(16.500000, 84.000000) rotate(-90.000000) translate(-16.500000, -84.000000) " font-family="PTMono-Regular, PT Mono" font-size="12" font-weight="normal" fill="#EE6B47">
                <tspan x="-15.9" y="88">scrollTop</tspan>
            </text>
            <path d="M9.5,147 L75.6399994,147" id="Line-43" stroke="#EE6B47" stroke-width="2" stroke-linecap="square" stroke-dasharray="3,6"></path>
            <path d="M10.5,21 L76.6399994,21" id="Line-42" stroke="#EE6B47" stroke-width="2" stroke-linecap="square" stroke-dasharray="3,6"></path>
            <path id="Line-39" d="M36,34.5 L36,132.32 L42,132.32 L35,146.32 L28,132.32 L34,132.32 L34,34.5 L28,34.5 L35,20.5 L42,34.5 L36,34.5 Z" fill="#EE6B47" fill-rule="nonzero"></path>
            <rect id="Rectangle-14" fill-opacity="0.8" fill="#FFFFFF" x="88" y="33" width="312" height="89"></rect>
            <rect id="Rectangle-15" fill-opacity="0.8" fill="#FFFFFF" x="88" y="411" width="312" height="89"></rect>
            <text id="scrollHeight:723px" transform="translate(449.000000, 270.000000) rotate(-90.000000) translate(-449.000000, -270.000000) " font-family="PTMono-Regular, PT Mono" font-size="14" font-weight="normal">
                <tspan x="373.4" y="274.5" fill="#EE6B47">scrollHeight:</tspan>
                <tspan x="482.6" y="274.5" fill="#3B86C4">723px</tspan>
            </text>
            <path d="M393.5,22 L471.639999,22" id="Line-27" stroke="#EE6B47" stroke-width="2" stroke-linecap="square" stroke-dasharray="3,6"></path>
            <path d="M393.5,522 L471.639999,522" id="Line-28" stroke="#EE6B47" stroke-width="2" stroke-linecap="square" stroke-dasharray="3,6"></path>
            <path id="Line-25" d="M463,38.5 L463,504.5 L469,504.5 L462,518.5 L455,504.5 L461,504.5 L461,38.5 L455,38.5 L462,24.5 L469,38.5 L463,38.5 Z" fill="#EE6B47" fill-rule="nonzero"></path>
            <g id="Scrollbar" transform="translate(384.000000, 147.000000)">
                <rect id="Rectangle-19" stroke="#E9E9E9" fill="#F3F2F2" x="0.5" y="0.5" width="15" height="239" rx="3"></rect>
                <g id="Rectangle-18-+-Triangle-1">
                    <rect id="Rectangle-18" stroke="#CFCFCF" fill="url(#linearGradient-1)" x="0.5" y="0.5" width="15" height="19" rx="3"></rect>
                    <polygon id="Triangle-1" fill="#92979F" points="8 7 11.2 13 4.8 13"></polygon>
                </g>
                <g id="Rectangle-18-+-Triangle-2" transform="translate(8.000000, 230.000000) scale(1, -1) translate(-8.000000, -230.000000) translate(0.000000, 220.000000)">
                    <rect id="Rectangle-18" stroke="#CFCFCF" fill="url(#linearGradient-1)" x="0.5" y="0.5" width="15" height="19" rx="3"></rect>
                    <polygon id="Triangle-1" fill="#92979F" points="8 7 11.2 13 4.8 13"></polygon>
                </g>
                <g id="Rectangle-18-+-Triangle-3-+-Group" transform="translate(0.000000, 50.000000)">
                    <g id="Rectangle-18-+-Triangle-3" transform="translate(8.000000, 25.500000) scale(1, -1) translate(-8.000000, -25.500000) " fill="url(#linearGradient-2)" stroke="#CFCFCF">
                        <rect id="Rectangle-18" x="0.5" y="0.5" width="15" height="50" rx="3"></rect>
                    </g>
                    <g id="Group" transform="translate(4.000000, 20.000000)" fill="#D8D8D8" stroke="#979797">
                        <rect id="Rectangle-22" x="0.5" y="0.5" width="7" height="1"></rect>
                        <rect id="Rectangle-23" x="0.5" y="3.5" width="7" height="1"></rect>
                        <rect id="Rectangle-24" x="0.5" y="6.5" width="7" height="1"></rect>
                        <rect id="Rectangle-25" x="0.5" y="9.5" width="7" height="1"></rect>
                    </g>
                </g>
            </g>
        </g>
    </g>
</svg>