<svg xmlns="http://www.w3.org/2000/svg" width="566" height="469" viewBox="0 0 566 469"><defs><style>@import url(https://fonts.googleapis.com/css?family=Open+Sans:bold,italic,bolditalic%7CPT+Mono);@font-face{font-family:&apos;PT Mono&apos;;font-weight:700;font-style:normal;src:local(&apos;PT MonoBold&apos;),url(/font/PTMonoBold.woff2) format(&apos;woff2&apos;),url(/font/PTMonoBold.woff) format(&apos;woff&apos;),url(/font/PTMonoBold.ttf) format(&apos;truetype&apos;)}</style></defs><defs><linearGradient id="linearGradient-1" x1="50%" x2="50%" y1="0%" y2="100%"><stop offset="0%" stop-color="#FFF"/><stop offset="100%" stop-color="#D1CFCD"/></linearGradient><linearGradient id="linearGradient-2" x1="50%" x2="50%" y1="0%" y2="100%"><stop offset="0%" stop-color="#FFF"/><stop offset="100%" stop-color="#D1CFCD"/></linearGradient></defs><g id="dom" fill="none" fill-rule="evenodd" stroke="none" stroke-width="1"><g id="metric-css.svg"><path id="Rectangle-1" stroke="#C06334" stroke-width="2" d="M460 184v199H177V184h283z"/><path id="Rectangle-1" fill="#DBAF88" d="M521 139v290H131V139h390zm-25 25H156v240h340V164z"/><g id="Group-2" transform="translate(480 163)"><rect id="Rectangle-19" width="15" height="239" x=".5" y=".5" fill="#D1CFCD" stroke="#D1CFCD" rx="3"/><g id="Rectangle-18-+-Triangle-1"><rect id="Rectangle-18" width="15" height="19" x=".5" y=".5" fill="url(#linearGradient-1)" stroke="#D1CFCD" rx="3"/><path id="Triangle-1" fill="#7E7C7B" d="M8 7l3.2 6H4.8z"/></g><g id="Rectangle-18-+-Triangle-2" transform="matrix(1 0 0 -1 0 240)"><rect id="Rectangle-18" width="15" height="19" x=".5" y=".5" fill="url(#linearGradient-1)" stroke="#D1CFCD" rx="3"/><path id="Triangle-1" fill="#7E7C7B" d="M8 7l3.2 6H4.8z"/></g><g id="Rectangle-18-+-Triangle-3-+-Group" transform="translate(0 50)"><g id="Rectangle-18-+-Triangle-3" fill="url(#linearGradient-2)" stroke="#D1CFCD" transform="matrix(1 0 0 -1 0 51)"><rect id="Rectangle-18" width="15" height="50" x=".5" y=".5" rx="3"/></g><g id="Group" fill="#D1CFCD" stroke="#7E7C7B" transform="translate(4 20)"><path id="Rectangle-22" d="M.5.5h7v1h-7z"/><path id="Rectangle-23" d="M.5 3.5h7v1h-7z"/><path id="Rectangle-24" d="M.5 6.5h7v1h-7z"/><path id="Rectangle-25" d="M.5 9.5h7v1h-7z"/></g></g></g><text id="padding:20px" font-family="PTMono-Regular, PT Mono" font-size="12" font-weight="normal"><tspan x="7" y="176" fill="#C06334">padding:</tspan> <tspan x="64.6" y="176" fill="#1C85B5">20px</tspan></text><text id="height:200px" font-family="PTMono-Regular, PT Mono" font-size="12" font-weight="normal" transform="rotate(-90 530.5 282)"><tspan x="487.3" y="286" fill="#C06334">height:</tspan> <tspan x="537.7" y="286" fill="#1C85B5">200px</tspan></text><path id="Line" stroke="#C06334" stroke-dasharray="3,6" stroke-linecap="square" stroke-width="2" d="M461.5 183h88.142"/><path id="Line-3" stroke="#C06334" stroke-dasharray="3,6" stroke-linecap="square" stroke-width="2" d="M93.5 184h88.142"/><path id="Line-4" stroke="#C06334" stroke-dasharray="3,6" stroke-linecap="square" stroke-width="2" d="M93.5 162h88.142"/><path id="Line-2" stroke="#C06334" stroke-dasharray="3,6" stroke-linecap="square" stroke-width="2" d="M461.5 385h88.142"/><path id="Line" fill="#C06334" fill-rule="nonzero" d="M543 185.5l7 14h-6V368h6l-7 14-7-14h6V199.5h-6l7-14z"/><text id="padding:20px-2" font-family="PTMono-Regular, PT Mono" font-size="12" font-weight="normal"><tspan x="7" y="396" fill="#C06334">padding:</tspan> <tspan x="64.6" y="396" fill="#1C85B5">20px</tspan></text><path id="Line-5" stroke="#C06334" stroke-dasharray="3,6" stroke-linecap="square" stroke-width="2" d="M93.5 404h88.142"/><path id="Line-6" stroke="#C06334" stroke-dasharray="3,6" stroke-linecap="square" stroke-width="2" d="M93.5 382h88.142"/><text id="border" font-family="PTMono-Regular, PT Mono" font-size="12" font-weight="normal"><tspan x="122.9" y="83" fill="#C06334">border</tspan> <tspan x="130.1" y="97" fill="#1C85B5">25px</tspan></text><text id="padding" font-family="PTMono-Regular, PT Mono" font-size="12" font-weight="normal"><tspan x="142.3" y="53" fill="#C06334">padding</tspan> <tspan x="153.1" y="67" fill="#1C85B5">20px</tspan></text><text id="content-width:284px" font-family="PTMono-Regular, PT Mono" font-size="12" font-weight="normal"><tspan x="249.1" y="117" fill="#C06334">content width:</tspan> <tspan x="349.9" y="117" fill="#1C85B5">284px</tspan></text><path id="Line-21" fill="#C06334" fill-rule="nonzero" d="M446.5 118l14 7-14 7v-6H192.679l.001 6-14-7 14-7-.001 6H446.5v-6z"/><path id="Line-14" stroke="#C06334" stroke-dasharray="3,6" stroke-linecap="square" stroke-width="2" d="M131.48 101v43"/><path id="Line-13" stroke="#C06334" stroke-dasharray="3,6" stroke-linecap="square" stroke-width="2" d="M157.48 101v41"/><text id="border-2" font-family="PTMono-Regular, PT Mono" font-size="12" font-weight="normal"><tspan x="486.9" y="84" fill="#C06334">border</tspan> <tspan x="494.1" y="98" fill="#1C85B5">25px</tspan></text><text id="padding-2" font-family="PTMono-Regular, PT Mono" font-size="12" font-weight="normal"><tspan x="449.3" y="24" fill="#C06334">padding</tspan> <tspan x="460.1" y="38" fill="#1C85B5">20px</tspan></text><text id="scrollbar" font-family="PTMono-Regular, PT Mono" font-size="12" font-weight="normal"><tspan x="459.1" y="56" fill="#C06334">scrollbar</tspan> <tspan x="477.1" y="70" fill="#1C85B5">16px</tspan></text><text id="Introduction" fill="#643B0C" font-family="OpenSans-Bold, Open Sans" font-size="16" font-weight="bold"><tspan x="178" y="200">Introduction</tspan>  <tspan x="178" y="228" font-family="OpenSans-Regular, Open Sans" font-size="14" font-weight="normal">This Ecma Standard is based on several </tspan> <tspan x="178" y="247" font-family="OpenSans-Regular, Open Sans" font-size="14" font-weight="normal">originating technologies, the most well </tspan> <tspan x="178" y="266" font-family="OpenSans-Regular, Open Sans" font-size="14" font-weight="normal">known being JavaScript (Netscape) and </tspan> <tspan x="178" y="285" font-family="OpenSans-Regular, Open Sans" font-size="14" font-weight="normal">JScript (Microsoft). The language was </tspan> <tspan x="178" y="304" font-family="OpenSans-Regular, Open Sans" font-size="14" font-weight="normal">invented by Brendan Eich at Netscape and </tspan> <tspan x="178" y="323" font-family="OpenSans-Regular, Open Sans" font-size="14" font-weight="normal">first appeared in that company’s Navigator </tspan> <tspan x="178" y="342" font-family="OpenSans-Regular, Open Sans" font-size="14" font-weight="normal">2.0 browser. It has appeared in all </tspan> <tspan x="178" y="361" font-family="OpenSans-Regular, Open Sans" font-size="14" font-weight="normal">subsequent browsers from Netscape and </tspan> <tspan x="178" y="380" font-family="OpenSans-Regular, Open Sans" font-size="14" font-weight="normal">in all browsers from Microsoft starting with</tspan> <tspan x="178" y="399" font-family="OpenSans-Regular, Open Sans" font-size="14" font-weight="normal"> </tspan></text><path id="Line-17" stroke="#C06334" stroke-dasharray="3,6" stroke-linecap="square" stroke-width="2" d="M481.48 101v43"/><path id="Line-20" stroke="#C06334" stroke-dasharray="3,6" stroke-linecap="square" stroke-width="2" d="M495.48 101v43"/><path id="Line-18" stroke="#C06334" stroke-dasharray="3,6" stroke-linecap="square" stroke-width="2" d="M520.48 101v41"/><path id="Line-16" stroke="#C06334" stroke-dasharray="3,6" stroke-linecap="square" stroke-width="2" d="M176.48 101v41"/><path id="Line-19" stroke="#C06334" stroke-dasharray="3,6" stroke-linecap="square" stroke-width="2" d="M463.48 101v41"/></g></g></svg>