<svg xmlns="http://www.w3.org/2000/svg" width="508" height="509" viewBox="0 0 508 509"><defs><style>@import url(https://fonts.googleapis.com/css?family=Open+Sans:bold,italic,bolditalic%7CPT+Mono);@font-face{font-family:&apos;PT Mono&apos;;font-weight:700;font-style:normal;src:local(&apos;PT MonoBold&apos;),url(/font/PTMonoBold.woff2) format(&apos;woff2&apos;),url(/font/PTMonoBold.woff) format(&apos;woff&apos;),url(/font/PTMonoBold.ttf) format(&apos;truetype&apos;)}</style></defs><defs><linearGradient id="linearGradient-1" x1="50%" x2="50%" y1="0%" y2="100%"><stop offset="0%" stop-color="#FFF"/><stop offset="100%" stop-color="#F1F1F1"/></linearGradient><linearGradient id="linearGradient-2" x1="50%" x2="50%" y1="0%" y2="100%"><stop offset="0%" stop-color="#FFF"/><stop offset="100%" stop-color="#F1F1F1"/></linearGradient></defs><g id="dom" fill="none" fill-rule="evenodd" stroke="none" stroke-width="1"><g id="metric-offset-width-height.svg"><path id="Rectangle-2" fill="#E8C48F" fill-opacity=".88" d="M420 130v290H30V130h390zm-25 25H55v240h340V155z"/><path id="Rectangle-1" stroke="#EE6B47" stroke-width="2" d="M76 177v199h283V177H76z"/><g id="Scrollbar" transform="translate(379 155)"><rect id="Rectangle-19" width="15" height="239" x=".5" y=".5" fill="#F3F2F2" stroke="#E9E9E9" rx="3"/><g id="Rectangle-18-+-Triangle-1"><rect id="Rectangle-18" width="15" height="19" x=".5" y=".5" fill="url(#linearGradient-1)" stroke="#CFCFCF" rx="3"/><path id="Triangle-1" fill="#92979F" d="M8 7l3.2 6H4.8z"/></g><g id="Rectangle-18-+-Triangle-2" transform="matrix(1 0 0 -1 0 240)"><rect id="Rectangle-18" width="15" height="19" x=".5" y=".5" fill="url(#linearGradient-1)" stroke="#CFCFCF" rx="3"/><path id="Triangle-1" fill="#92979F" d="M8 7l3.2 6H4.8z"/></g><g id="Rectangle-18-+-Triangle-3-+-Group" transform="translate(0 50)"><g id="Rectangle-18-+-Triangle-3" fill="url(#linearGradient-2)" stroke="#CFCFCF" transform="matrix(1 0 0 -1 0 51)"><rect id="Rectangle-18" width="15" height="50" x=".5" y=".5" rx="3"/></g><g id="Group" fill="#D8D8D8" stroke="#979797" transform="translate(4 20)"><path id="Rectangle-22" d="M.5.5h7v1h-7z"/><path id="Rectangle-23" d="M.5 3.5h7v1h-7z"/><path id="Rectangle-24" d="M.5 6.5h7v1h-7z"/><path id="Rectangle-25" d="M.5 9.5h7v1h-7z"/></g></g></g><text id="border" font-family="PTMono-Regular, PT Mono" font-size="12" font-weight="normal"><tspan x="21.9" y="75" fill="#EE6B47">border</tspan> <tspan x="29.1" y="89" fill="#3B86C4">25px</tspan></text><text id="padding" font-family="PTMono-Regular, PT Mono" font-size="12" font-weight="normal"><tspan x="41.3" y="45" fill="#EE6B47">padding</tspan> <tspan x="52.1" y="59" fill="#3B86C4">20px</tspan></text><text id="content-width:284px" font-family="PTMono-Regular, PT Mono" font-size="12" font-weight="normal"><tspan x="148.1" y="109" fill="#EE6B47">content width:</tspan> <tspan x="248.9" y="109" fill="#3B86C4">284px</tspan></text><text id="height:200px" font-family="PTMono-Regular, PT Mono" font-size="12" font-weight="normal" transform="rotate(-90 429.5 274)"><tspan x="386.3" y="278" fill="#EE6B47">height:</tspan> <tspan x="436.7" y="278" fill="#3B86C4">200px</tspan></text><path id="Line" stroke="#EE6B47" stroke-dasharray="3,6" stroke-linecap="square" stroke-width="2" d="M360.5 175h88.142"/><path id="Line-2" stroke="#EE6B47" stroke-dasharray="3,6" stroke-linecap="square" stroke-width="2" d="M360.5 377h88.142"/><path id="Line" fill="#EE6B47" fill-rule="nonzero" d="M442 177.5l7 14h-6V360h6l-7 14-7-14h6V191.5h-6l7-14z"/><path id="Line-15" fill="#EE6B47" fill-rule="nonzero" d="M345.5 110l14 7-14 7v-6H91.679l.001 6-14-7 14-7-.001 6H345.5v-6z"/><path id="Line-14" stroke="#EE6B47" stroke-dasharray="3,6" stroke-linecap="square" stroke-width="2" d="M30.48 93v43"/><path id="Line-13" stroke="#EE6B47" stroke-dasharray="3,6" stroke-linecap="square" stroke-width="2" d="M56.48 93v41"/><text id="border-2" font-family="PTMono-Regular, PT Mono" font-size="12" font-weight="normal"><tspan x="385.9" y="76" fill="#EE6B47">border</tspan> <tspan x="393.1" y="90" fill="#3B86C4">25px</tspan></text><text id="padding-2" font-family="PTMono-Regular, PT Mono" font-size="12" font-weight="normal"><tspan x="348.3" y="16" fill="#EE6B47">padding</tspan> <tspan x="359.1" y="30" fill="#3B86C4">20px</tspan></text><text id="scrollbar" font-family="PTMono-Regular, PT Mono" font-size="12" font-weight="normal"><tspan x="358.1" y="48" fill="#EE6B47">scrollbar</tspan> <tspan x="376.1" y="62" fill="#3B86C4">16px</tspan></text><path id="Line-17" stroke="#EE6B47" stroke-dasharray="3,6" stroke-linecap="square" stroke-width="2" d="M380.48 93v43"/><path id="Line-20" stroke="#EE6B47" stroke-dasharray="3,6" stroke-linecap="square" stroke-width="2" d="M394.48 93v43"/><path id="Line-18" stroke="#EE6B47" stroke-dasharray="3,6" stroke-linecap="square" stroke-width="2" d="M419.48 93v41"/><path id="Line-16" stroke="#EE6B47" stroke-dasharray="3,6" stroke-linecap="square" stroke-width="2" d="M75.48 93v41"/><path id="Line-19" stroke="#EE6B47" stroke-dasharray="3,6" stroke-linecap="square" stroke-width="2" d="M362.48 93v41"/><text id="offsetWidth-=-25+20+" font-family="PTMono-Regular, PT Mono" font-size="14" font-weight="normal"><tspan x="56.5" y="484" fill="#EE6B47">offsetWidth = </tspan> <tspan x="174.1" y="484" fill="#3B86C4">25+20+284+20+16+25 </tspan> <tspan x="333.7" y="484" fill="#F38158">=</tspan> <tspan x="342.1" y="484" fill="#3B86C4"> 390px</tspan></text><path id="Line-24" stroke="#EE6B47" stroke-dasharray="3,6" stroke-linecap="square" stroke-width="2" d="M30.5 419v78"/><path id="Line-25" stroke="#EE6B47" stroke-dasharray="3,6" stroke-linecap="square" stroke-width="2" d="M419.5 419v80"/><path id="Line-22" fill="#EE6B47" fill-rule="nonzero" d="M403 456.071l14 7-14 7v-6.001H47.089l.001 6.001-14-7 14-7-.001 5.999H403v-5.999z"/><text id="offsetHeight:290px" font-family="PTMono-Regular, PT Mono" font-size="14" font-weight="normal" transform="rotate(-90 483.5 280.5)"><tspan x="407.9" y="285" fill="#EE6B47">offsetHeight:</tspan> <tspan x="517.1" y="285" fill="#3B86C4">290px</tspan></text><path id="Line-27" stroke="#EE6B47" stroke-dasharray="3,6" stroke-linecap="square" stroke-width="2" d="M417.5 131h88.142"/><path id="Line-28" stroke="#EE6B47" stroke-dasharray="3,6" stroke-linecap="square" stroke-width="2" d="M417.5 420h88.142"/><path id="Line-26" fill="#EE6B47" fill-rule="nonzero" d="M469 132.59l7 14-6-.001V405.41h6l-7 14-7-14h6V146.589l-6 .001 7-14z"/><text id="Introduction" fill="#5A4739" font-family="OpenSans-Bold, Open Sans" font-size="16" font-weight="bold"><tspan x="79" y="193">Introduction</tspan>  <tspan x="79" y="221" font-family="OpenSans-Regular, Open Sans" font-size="14" font-weight="normal">This Ecma Standard is based on several </tspan> <tspan x="79" y="240" font-family="OpenSans-Regular, Open Sans" font-size="14" font-weight="normal">originating technologies, the most well </tspan> <tspan x="79" y="259" font-family="OpenSans-Regular, Open Sans" font-size="14" font-weight="normal">known being JavaScript (Netscape) and </tspan> <tspan x="79" y="278" font-family="OpenSans-Regular, Open Sans" font-size="14" font-weight="normal">JScript (Microsoft). The language was </tspan> <tspan x="79" y="297" font-family="OpenSans-Regular, Open Sans" font-size="14" font-weight="normal">invented by Brendan Eich at Netscape and </tspan> <tspan x="79" y="316" font-family="OpenSans-Regular, Open Sans" font-size="14" font-weight="normal">first appeared in that company’s Navigator </tspan> <tspan x="79" y="335" font-family="OpenSans-Regular, Open Sans" font-size="14" font-weight="normal">2.0 browser. It has appeared in all </tspan> <tspan x="79" y="354" font-family="OpenSans-Regular, Open Sans" font-size="14" font-weight="normal">subsequent browsers from Netscape and </tspan> <tspan x="79" y="373" font-family="OpenSans-Regular, Open Sans" font-size="14" font-weight="normal">in all browsers from Microsoft starting with </tspan></text></g></g></svg>