<svg xmlns="http://www.w3.org/2000/svg" width="353" height="316" viewBox="0 0 353 316"><defs><style>@import url(https://fonts.googleapis.com/css?family=Open+Sans:bold,italic,bolditalic%7CPT+Mono);@font-face{font-family:&apos;PT Mono&apos;;font-weight:700;font-style:normal;src:local(&apos;PT MonoBold&apos;),url(/font/PTMonoBold.woff2) format(&apos;woff2&apos;),url(/font/PTMonoBold.woff) format(&apos;woff&apos;),url(/font/PTMonoBold.ttf) format(&apos;truetype&apos;)}</style></defs><defs><linearGradient id="linearGradient-1" x1="0%" x2="62.299%" y1="47.096%" y2="47.096%"><stop offset="0%" stop-color="#FFF"/><stop offset="100%" stop-color="#FFF" stop-opacity="0"/></linearGradient></defs><g id="dom" fill="none" fill-rule="evenodd" stroke="none" stroke-width="1"><g id="metric-client-left-top.svg"><path fill="#FFF" d="M0 0h353v316H0z"/><path id="Rectangle-206" fill="#DBAF88" d="M12 15h50v300H12z"/><path id="Rectangle-207" fill="#DBAF88" d="M177.5-115.5h50v311h-50z" transform="rotate(-90 202.5 40)"/><text id="Introduction" fill="#643B0C" font-family="OpenSans-Bold, Open Sans" font-size="32" font-weight="bold"><tspan x="102" y="134">Introduction</tspan>  <tspan x="102" y="183" font-family="OpenSans-Regular, Open Sans" font-size="24" font-weight="normal">This Ecma Standard is based on </tspan> <tspan x="102" y="216" font-family="OpenSans-Regular, Open Sans" font-size="24" font-weight="normal">several originating </tspan> <tspan x="102" y="249" font-family="OpenSans-Regular, Open Sans" font-size="24" font-weight="normal">technologies, the most well </tspan> <tspan x="102" y="282" font-family="OpenSans-Regular, Open Sans" font-size="24" font-weight="normal">known being JavaScript </tspan> <tspan x="102" y="315" font-family="OpenSans-Regular, Open Sans" font-size="24" font-weight="normal">(Netscape) and JScript </tspan> <tspan x="102" y="348" font-family="OpenSans-Regular, Open Sans" font-size="24" font-weight="normal">(Microsoft). The language was </tspan> <tspan x="102" y="381" font-family="OpenSans-Regular, Open Sans" font-size="24" font-weight="normal">invented by Brendan Eich at </tspan> <tspan x="102" y="414" font-family="OpenSans-Regular, Open Sans" font-size="24" font-weight="normal">Netscape and first appeared in </tspan> <tspan x="102" y="447" font-family="OpenSans-Regular, Open Sans" font-size="24" font-weight="normal">that company’s Navigator 2.0 </tspan> <tspan x="102" y="480" font-family="OpenSans-Regular, Open Sans" font-size="24" font-weight="normal">browser. It has appeared in all </tspan> <tspan x="102" y="513" font-family="OpenSans-Regular, Open Sans" font-size="24" font-weight="normal">subsequent browsers from </tspan> <tspan x="102" y="546" font-family="OpenSans-Regular, Open Sans" font-size="24" font-weight="normal">Netscape and in all browsers </tspan> <tspan x="102" y="579" font-family="OpenSans-Regular, Open Sans" font-size="24" font-weight="normal">from Microsoft starting with </tspan> <tspan x="102" y="612" font-family="OpenSans-Regular, Open Sans" font-size="24" font-weight="normal">Internet Explorer 3.0.</tspan> <tspan x="102" y="645" font-family="OpenSans-Regular, Open Sans" font-size="24" font-weight="normal">The development of this </tspan> <tspan x="102" y="678" font-family="OpenSans-Regular, Open Sans" font-size="24" font-weight="normal">Standard started in November </tspan> <tspan x="102" y="711" font-family="OpenSans-Regular, Open Sans" font-size="24" font-weight="normal">1996. The first edition of this </tspan> <tspan x="102" y="744" font-family="OpenSans-Regular, Open Sans" font-size="24" font-weight="normal">Ecma Standard was adopted by </tspan> <tspan x="102" y="777" font-family="OpenSans-Regular, Open Sans" font-size="24" font-weight="normal">the Ecma General Assembly of </tspan> <tspan x="102" y="810" font-family="OpenSans-Regular, Open Sans" font-size="24" font-weight="normal">June 1997.</tspan></text><path id="Rectangle-5" fill="url(#linearGradient-1)" d="M42-7h275v447H42z" transform="rotate(-180 179.5 216.5)"/><path id="Rectangle-6" fill="#FFF" d="M316 8h162v399H316z"/><g id="Rectangle-8-+-Rectangle-7" transform="translate(-44.5 -2.5)"><path id="Rectangle-8" fill="url(#linearGradient-1)" d="M86-86h275v447H86z" transform="rotate(-90 223.5 137.5)"/><path id="Rectangle-7" fill="#FFF" d="M151.5 155.5h162v399h-162z" transform="rotate(90 232.5 355)"/></g><path id="Line-7" fill="#C06334" fill-rule="nonzero" d="M62.41 15.68l7 14h-6.001v20h6.001l-7 14-7-14h5.999v-20H55.41l7-14z"/><path id="Line-28" fill="#C06334" fill-rule="nonzero" d="M46.41 57.68l14 7-14 7-.001-6h-20l.001 6-14-7 14-7-.001 6h20l.001-6z"/><text id="clientTop:25px-=-bor" font-family="PTMono-Regular, PT Mono" font-size="12" font-weight="normal"><tspan x="75.7" y="43" fill="#643B0C">clientTop:</tspan> <tspan x="147.7" y="43" fill="#166388">25px</tspan> <tspan x="176.5" y="43" fill="#643B0C"> = border</tspan></text><text id="clientLeft:25px" font-family="PTMono-Regular, PT Mono" font-size="12" font-weight="normal" transform="rotate(-90 37.32 136)"><tspan x="-16.68" y="140" fill="#643B0C">clientLeft:</tspan> <tspan x="62.52" y="140" fill="#166388">25px</tspan></text></g></g></svg>