<svg xmlns="http://www.w3.org/2000/svg" width="463" height="524" viewBox="0 0 463 524"><defs><style>@import url(https://fonts.googleapis.com/css?family=Open+Sans:bold,italic,bolditalic%7CPT+Mono);@font-face{font-family:&apos;PT Mono&apos;;font-weight:700;font-style:normal;src:local(&apos;PT MonoBold&apos;),url(/font/PTMonoBold.woff2) format(&apos;woff2&apos;),url(/font/PTMonoBold.woff) format(&apos;woff&apos;),url(/font/PTMonoBold.ttf) format(&apos;truetype&apos;)}</style></defs><defs><linearGradient id="linearGradient-1" x1="50%" x2="50%" y1="0%" y2="100%"><stop offset="0%" stop-color="#FFF"/><stop offset="100%" stop-color="#F1F1F1"/></linearGradient><linearGradient id="linearGradient-2" x1="50%" x2="50%" y1="0%" y2="100%"><stop offset="0%" stop-color="#FFF"/><stop offset="100%" stop-color="#F1F1F1"/></linearGradient></defs><g id="dom" fill="none" fill-rule="evenodd" stroke="none" stroke-width="1"><g id="metric-scroll-width-height.svg"><path fill="#FFF" d="M0 0h463v524H0z"/><text id="Introduction" fill="#5A4739" font-family="OpenSans-Bold, Open Sans" font-size="16" font-weight="bold"><tspan x="66" y="54">Introduction</tspan>  <tspan x="66" y="82" font-family="OpenSans-Regular, Open Sans" font-size="14" font-weight="normal">This Ecma Standard is based on several </tspan> <tspan x="66" y="101" font-family="OpenSans-Regular, Open Sans" font-size="14" font-weight="normal">originating technologies, the most well </tspan> <tspan x="66" y="120" font-family="OpenSans-Regular, Open Sans" font-size="14" font-weight="normal">known being JavaScript (Netscape) and </tspan> <tspan x="66" y="139" font-family="OpenSans-Regular, Open Sans" font-size="14" font-weight="normal">JScript (Microsoft). The language was </tspan> <tspan x="66" y="158" font-family="OpenSans-Regular, Open Sans" font-size="14" font-weight="normal">invented by Brendan Eich at Netscape </tspan> <tspan x="66" y="177" font-family="OpenSans-Regular, Open Sans" font-size="14" font-weight="normal">and first appeared in that company’s </tspan> <tspan x="66" y="196" font-family="OpenSans-Regular, Open Sans" font-size="14" font-weight="normal">Navigator 2.0 browser. It has appeared </tspan> <tspan x="66" y="215" font-family="OpenSans-Regular, Open Sans" font-size="14" font-weight="normal">in all subsequent browsers from </tspan> <tspan x="66" y="234" font-family="OpenSans-Regular, Open Sans" font-size="14" font-weight="normal">Netscape and in all browsers from </tspan> <tspan x="66" y="253" font-family="OpenSans-Regular, Open Sans" font-size="14" font-weight="normal">Microsoft starting with Internet Explorer </tspan> <tspan x="66" y="272" font-family="OpenSans-Regular, Open Sans" font-size="14" font-weight="normal">3.0.</tspan> <tspan x="66" y="291" font-family="OpenSans-Regular, Open Sans" font-size="14" font-weight="normal">The development of this Standard </tspan> <tspan x="66" y="310" font-family="OpenSans-Regular, Open Sans" font-size="14" font-weight="normal">started in November 1996. The first </tspan> <tspan x="66" y="329" font-family="OpenSans-Regular, Open Sans" font-size="14" font-weight="normal">edition of this Ecma Standard was </tspan> <tspan x="66" y="348" font-family="OpenSans-Regular, Open Sans" font-size="14" font-weight="normal">adopted by the Ecma General Assembly </tspan> <tspan x="66" y="367" font-family="OpenSans-Regular, Open Sans" font-size="14" font-weight="normal">of June 1997.</tspan> <tspan x="66" y="386" font-family="OpenSans-Regular, Open Sans" font-size="14" font-weight="normal">That Ecma Standard was submitted to </tspan> <tspan x="66" y="405" font-family="OpenSans-Regular, Open Sans" font-size="14" font-weight="normal">ISO/IEC JTC 1 for adoption under the </tspan> <tspan x="66" y="424" font-family="OpenSans-Regular, Open Sans" font-size="14" font-weight="normal">fast-track procedure, and approved as </tspan> <tspan x="66" y="443" font-family="OpenSans-Regular, Open Sans" font-size="14" font-weight="normal">international standard ISO/IEC 16262, in </tspan> <tspan x="66" y="462" font-family="OpenSans-Regular, Open Sans" font-size="14" font-weight="normal">April 1998. The Ecma General Assembly </tspan> <tspan x="66" y="481" font-family="OpenSans-Regular, Open Sans" font-size="14" font-weight="normal">of June 1998 approved the second </tspan> <tspan x="66" y="500" font-family="OpenSans-Regular, Open Sans" font-size="14" font-weight="normal">edition of ECMA-262 to keep it fully </tspan> <tspan x="66" y="519" font-family="OpenSans-Regular, Open Sans" font-size="14" font-weight="normal">aligned with ISO/IEC 16262. Changes </tspan> <tspan x="66" y="538" font-family="OpenSans-Regular, Open Sans" font-size="14" font-weight="normal">between the first and the second </tspan> <tspan x="66" y="557" font-family="OpenSans-Regular, Open Sans" font-size="14" font-weight="normal">edition are editorial in nature.</tspan></text><path id="Rectangle-15" fill="#FFF" fill-opacity=".8" d="M58 410h312v111H58z"/><path id="Rectangle-14" fill="#FFF" fill-opacity=".8" d="M58 35h312v89H58z"/><path id="Rectangle-1" fill="#E8C48F" fill-opacity=".88" d="M395 123v290H21V123h374zm-25 25H46v240h324V148z"/><path id="Rectangle-2" stroke="#E8C48F" stroke-opacity=".8" stroke-width="2" d="M45 22h326v502H45z"/><text id="scrollHeight:723px" font-family="PTMono-Regular, PT Mono" font-size="14" font-weight="normal" transform="rotate(-90 426 270.5)"><tspan x="350.4" y="275" fill="#EE6B47">scrollHeight:</tspan> <tspan x="459.6" y="275" fill="#3B86C4">723px</tspan></text><path id="Line-27" stroke="#EE6B47" stroke-dasharray="3,6" stroke-linecap="square" stroke-width="2" d="M371 22h78"/><path id="Line-26" stroke="#EE6B47" stroke-dasharray="3,6" stroke-linecap="square" stroke-width="2" d="M371 524h78"/><path id="Line-25" fill="#EE6B47" fill-rule="nonzero" d="M439 26l7 14h-6v466h6l-7 14-7-14h6V40h-6l7-14z"/><path id="Line-39" fill="#EE6B47" fill-rule="nonzero" d="M335.36 102l14 7-14 7-.001-6H64v6l-14-7 14-7v6h271.359l.001-6z"/><path id="Line-42" stroke="#EE6B47" stroke-dasharray="3,6" stroke-linecap="square" stroke-width="2" d="M352 154v-54"/><path id="Line-43" stroke="#EE6B47" stroke-dasharray="3,6" stroke-linecap="square" stroke-width="2" d="M47 154v-54"/><text id="scrollWidth-=-324px" font-family="PTMono-Regular, PT Mono" font-size="14" font-weight="normal"><tspan x="149.2" y="105" fill="#EE6B47">scrollWidth = </tspan> <tspan x="266.8" y="105" fill="#3B86C4">324px</tspan></text><g id="Scrollbar" transform="translate(354 148)"><rect id="Rectangle-19" width="15" height="239" x=".5" y=".5" fill="#F3F2F2" stroke="#E9E9E9" rx="3"/><g id="Rectangle-18-+-Triangle-1"><rect id="Rectangle-18" width="15" height="19" x=".5" y=".5" fill="url(#linearGradient-1)" stroke="#CFCFCF" rx="3"/><path id="Triangle-1" fill="#92979F" d="M8 7l3.2 6H4.8z"/></g><g id="Rectangle-18-+-Triangle-2" transform="matrix(1 0 0 -1 0 240)"><rect id="Rectangle-18" width="15" height="19" x=".5" y=".5" fill="url(#linearGradient-1)" stroke="#CFCFCF" rx="3"/><path id="Triangle-1" fill="#92979F" d="M8 7l3.2 6H4.8z"/></g><g id="Rectangle-18-+-Triangle-3-+-Group" transform="translate(0 50)"><g id="Rectangle-18-+-Triangle-3" fill="url(#linearGradient-2)" stroke="#CFCFCF" transform="matrix(1 0 0 -1 0 51)"><rect id="Rectangle-18" width="15" height="50" x=".5" y=".5" rx="3"/></g><g id="Group" fill="#D8D8D8" stroke="#979797" transform="translate(4 20)"><path id="Rectangle-22" d="M.5.5h7v1h-7z"/><path id="Rectangle-23" d="M.5 3.5h7v1h-7z"/><path id="Rectangle-24" d="M.5 6.5h7v1h-7z"/><path id="Rectangle-25" d="M.5 9.5h7v1h-7z"/></g></g></g></g></g></svg>