<?xml version="1.0" encoding="UTF-8"?>
<svg width="508px" height="509px" viewBox="0 0 508 509" version="1.1" xmlns="http://www.w3.org/2000/svg" xmlns:xlink="http://www.w3.org/1999/xlink">
    <!-- Generator: sketchtool 55.2 (78181) - https://sketchapp.com -->
    <title>metric-offset-width-height.svg</title>
    <desc>Created with sketchtool.</desc>
    <defs>
        <linearGradient x1="50%" y1="0%" x2="50%" y2="100%" id="linearGradient-1">
            <stop stop-color="#FFFFFF" offset="0%"></stop>
            <stop stop-color="#F1F1F1" offset="100%"></stop>
        </linearGradient>
        <linearGradient x1="50%" y1="0%" x2="50%" y2="100%" id="linearGradient-2">
            <stop stop-color="#FFFFFF" offset="0%"></stop>
            <stop stop-color="#F1F1F1" offset="100%"></stop>
        </linearGradient>
    </defs>
    <g id="dom" stroke="none" stroke-width="1" fill="none" fill-rule="evenodd">
        <g id="metric-offset-width-height.svg">
            <path d="M395,155 L55,155 L55,395 L395,395 L395,155 Z M30,130 L420,130 L420,420 L30,420 L30,130 Z" id="Rectangle-2" fill-opacity="0.88" fill="#E8C48F"></path>
            <path d="M76,177 L76,376 L359,376 L359,177 L76,177 Z" id="Rectangle-1" stroke="#EE6B47" stroke-width="2"></path>
            <g id="Scrollbar" transform="translate(379.000000, 155.000000)">
                <rect id="Rectangle-19" stroke="#E9E9E9" fill="#F3F2F2" x="0.5" y="0.5" width="15" height="239" rx="3"></rect>
                <g id="Rectangle-18-+-Triangle-1">
                    <rect id="Rectangle-18" stroke="#CFCFCF" fill="url(#linearGradient-1)" x="0.5" y="0.5" width="15" height="19" rx="3"></rect>
                    <polygon id="Triangle-1" fill="#92979F" points="8 7 11.2 13 4.8 13"></polygon>
                </g>
                <g id="Rectangle-18-+-Triangle-2" transform="translate(8.000000, 230.000000) scale(1, -1) translate(-8.000000, -230.000000) translate(0.000000, 220.000000)">
                    <rect id="Rectangle-18" stroke="#CFCFCF" fill="url(#linearGradient-1)" x="0.5" y="0.5" width="15" height="19" rx="3"></rect>
                    <polygon id="Triangle-1" fill="#92979F" points="8 7 11.2 13 4.8 13"></polygon>
                </g>
                <g id="Rectangle-18-+-Triangle-3-+-Group" transform="translate(0.000000, 50.000000)">
                    <g id="Rectangle-18-+-Triangle-3" transform="translate(8.000000, 25.500000) scale(1, -1) translate(-8.000000, -25.500000) " fill="url(#linearGradient-2)" stroke="#CFCFCF">
                        <rect id="Rectangle-18" x="0.5" y="0.5" width="15" height="50" rx="3"></rect>
                    </g>
                    <g id="Group" transform="translate(4.000000, 20.000000)" fill="#D8D8D8" stroke="#979797">
                        <rect id="Rectangle-22" x="0.5" y="0.5" width="7" height="1"></rect>
                        <rect id="Rectangle-23" x="0.5" y="3.5" width="7" height="1"></rect>
                        <rect id="Rectangle-24" x="0.5" y="6.5" width="7" height="1"></rect>
                        <rect id="Rectangle-25" x="0.5" y="9.5" width="7" height="1"></rect>
                    </g>
                </g>
            </g>
            <text id="border" font-family="PTMono-Regular, PT Mono" font-size="12" font-weight="normal">
                <tspan x="21.9" y="75" fill="#EE6B47">border</tspan>
                <tspan x="29.1" y="89" fill="#3B86C4">25px</tspan>
            </text>
            <text id="padding" font-family="PTMono-Regular, PT Mono" font-size="12" font-weight="normal">
                <tspan x="41.3" y="45" fill="#EE6B47">padding</tspan>
                <tspan x="52.1" y="59" fill="#3B86C4">20px</tspan>
            </text>
            <text id="content-width:284px" font-family="PTMono-Regular, PT Mono" font-size="12" font-weight="normal">
                <tspan x="148.1" y="109" fill="#EE6B47">content width:</tspan>
                <tspan x="248.9" y="109" fill="#3B86C4">284px</tspan>
            </text>
            <text id="height:200px" transform="translate(429.500000, 274.000000) rotate(-90.000000) translate(-429.500000, -274.000000) " font-family="PTMono-Regular, PT Mono" font-size="12" font-weight="normal">
                <tspan x="386.3" y="278" fill="#EE6B47">height:</tspan>
                <tspan x="436.7" y="278" fill="#3B86C4">200px</tspan>
            </text>
            <path d="M360.5,175 L448.64193,175" id="Line" stroke="#EE6B47" stroke-width="2" stroke-linecap="square" stroke-dasharray="3,6"></path>
            <path d="M360.5,377 L448.64193,377" id="Line-2" stroke="#EE6B47" stroke-width="2" stroke-linecap="square" stroke-dasharray="3,6"></path>
            <path id="Line" d="M443,191.5 L443,360 L449,360 L442,374 L435,360 L441,360 L441,191.5 L435,191.5 L442,177.5 L449,191.5 L443,191.5 Z" fill="#EE6B47" fill-rule="nonzero"></path>
            <path id="Line-15" d="M91.6799927,116 L345.5,116 L345.5,110 L359.5,117 L345.5,124 L345.5,118 L91.6799927,118 L91.6799927,124 L77.6799927,117 L91.6799927,110 L91.6799927,116 Z" fill="#EE6B47" fill-rule="nonzero"></path>
            <path d="M8.53515625,114.945312 L51.5351562,114.945312" id="Line-14" stroke="#EE6B47" stroke-width="2" stroke-linecap="square" stroke-dasharray="3,6" transform="translate(30.480469, 114.945312) rotate(-270.000000) translate(-30.480469, -114.945312) "></path>
            <path d="M35.5351562,113.945312 L76.5351562,113.945312" id="Line-13" stroke="#EE6B47" stroke-width="2" stroke-linecap="square" stroke-dasharray="3,6" transform="translate(56.480469, 113.945312) rotate(-270.000000) translate(-56.480469, -113.945312) "></path>
            <text id="border-2" font-family="PTMono-Regular, PT Mono" font-size="12" font-weight="normal">
                <tspan x="385.9" y="76" fill="#EE6B47">border</tspan>
                <tspan x="393.1" y="90" fill="#3B86C4">25px</tspan>
            </text>
            <text id="padding-2" font-family="PTMono-Regular, PT Mono" font-size="12" font-weight="normal">
                <tspan x="348.3" y="16" fill="#EE6B47">padding</tspan>
                <tspan x="359.1" y="30" fill="#3B86C4">20px</tspan>
            </text>
            <text id="scrollbar" font-family="PTMono-Regular, PT Mono" font-size="12" font-weight="normal">
                <tspan x="358.1" y="48" fill="#EE6B47">scrollbar</tspan>
                <tspan x="376.1" y="62" fill="#3B86C4">16px</tspan>
            </text>
            <path d="M358.535156,114.945312 L401.535156,114.945312" id="Line-17" stroke="#EE6B47" stroke-width="2" stroke-linecap="square" stroke-dasharray="3,6" transform="translate(380.480469, 114.945312) rotate(-270.000000) translate(-380.480469, -114.945312) "></path>
            <path d="M372.535156,114.945312 L415.535156,114.945312" id="Line-20" stroke="#EE6B47" stroke-width="2" stroke-linecap="square" stroke-dasharray="3,6" transform="translate(394.480469, 114.945312) rotate(-270.000000) translate(-394.480469, -114.945312) "></path>
            <path d="M398.535156,113.945312 L439.535156,113.945312" id="Line-18" stroke="#EE6B47" stroke-width="2" stroke-linecap="square" stroke-dasharray="3,6" transform="translate(419.480469, 113.945312) rotate(-270.000000) translate(-419.480469, -113.945312) "></path>
            <path d="M54.5351562,113.945312 L95.5351562,113.945312" id="Line-16" stroke="#EE6B47" stroke-width="2" stroke-linecap="square" stroke-dasharray="3,6" transform="translate(75.480469, 113.945312) rotate(-270.000000) translate(-75.480469, -113.945312) "></path>
            <path d="M341.535156,113.945312 L382.535156,113.945312" id="Line-19" stroke="#EE6B47" stroke-width="2" stroke-linecap="square" stroke-dasharray="3,6" transform="translate(362.480469, 113.945312) rotate(-270.000000) translate(-362.480469, -113.945312) "></path>
            <text id="offsetWidth-=-25+20+" font-family="PTMono-Regular, PT Mono" font-size="14" font-weight="normal">
                <tspan x="56.5" y="484" fill="#EE6B47">offsetWidth = </tspan>
                <tspan x="174.1" y="484" fill="#3B86C4">25+20+284+20+16+25 </tspan>
                <tspan x="333.7" y="484" fill="#F38158">=</tspan>
                <tspan x="342.1" y="484" fill="#3B86C4"> 390px</tspan>
            </text>
            <path d="M30.5,419 L30.5,497" id="Line-24" stroke="#EE6B47" stroke-width="2" stroke-linecap="square" stroke-dasharray="3,6"></path>
            <path d="M419.5,419 L419.5,499" id="Line-25" stroke="#EE6B47" stroke-width="2" stroke-linecap="square" stroke-dasharray="3,6"></path>
            <path id="Line-22" d="M47.0899963,462.070965 L403,462.070965 L403,456.070965 L417,463.070965 L403,470.070965 L403,464.070965 L47.0899963,464.070965 L47.0899963,470.070965 L33.0899963,463.070965 L47.0899963,456.070965 L47.0899963,462.070965 Z" fill="#EE6B47" fill-rule="nonzero"></path>
            <text id="offsetHeight:290px" transform="translate(483.500000, 280.500000) rotate(-90.000000) translate(-483.500000, -280.500000) " font-family="PTMono-Regular, PT Mono" font-size="14" font-weight="normal">
                <tspan x="407.9" y="285" fill="#EE6B47">offsetHeight:</tspan>
                <tspan x="517.1" y="285" fill="#3B86C4">290px</tspan>
            </text>
            <path d="M417.5,131 L505.64193,131" id="Line-27" stroke="#EE6B47" stroke-width="2" stroke-linecap="square" stroke-dasharray="3,6"></path>
            <path d="M417.5,420 L505.64193,420" id="Line-28" stroke="#EE6B47" stroke-width="2" stroke-linecap="square" stroke-dasharray="3,6"></path>
            <path id="Line-26" d="M470,146.589996 L470,405.410004 L476,405.410004 L469,419.410004 L462,405.410004 L468,405.410004 L468,146.589996 L462,146.589996 L469,132.589996 L476,146.589996 L470,146.589996 Z" fill="#EE6B47" fill-rule="nonzero"></path>
            <text id="Introduction" font-family="OpenSans-Bold, Open Sans" font-size="16" font-weight="bold" fill="#5A4739">
                <tspan x="79" y="193">Introduction</tspan>
                <tspan x="179.726562" y="193" font-family="OpenSans-Regular, Open Sans" font-size="14" font-weight="normal"></tspan>
                <tspan x="79" y="221" font-family="OpenSans-Regular, Open Sans" font-size="14" font-weight="normal">This Ecma Standard is based on several </tspan>
                <tspan x="79" y="240" font-family="OpenSans-Regular, Open Sans" font-size="14" font-weight="normal">originating technologies, the most well </tspan>
                <tspan x="79" y="259" font-family="OpenSans-Regular, Open Sans" font-size="14" font-weight="normal">known being JavaScript (Netscape) and </tspan>
                <tspan x="79" y="278" font-family="OpenSans-Regular, Open Sans" font-size="14" font-weight="normal">JScript (Microsoft). The language was </tspan>
                <tspan x="79" y="297" font-family="OpenSans-Regular, Open Sans" font-size="14" font-weight="normal">invented by Brendan Eich at Netscape and </tspan>
                <tspan x="79" y="316" font-family="OpenSans-Regular, Open Sans" font-size="14" font-weight="normal">first appeared in that company’s Navigator </tspan>
                <tspan x="79" y="335" font-family="OpenSans-Regular, Open Sans" font-size="14" font-weight="normal">2.0 browser. It has appeared in all </tspan>
                <tspan x="79" y="354" font-family="OpenSans-Regular, Open Sans" font-size="14" font-weight="normal">subsequent browsers from Netscape and </tspan>
                <tspan x="79" y="373" font-family="OpenSans-Regular, Open Sans" font-size="14" font-weight="normal">in all browsers from Microsoft starting with </tspan>
            </text>
        </g>
    </g>
</svg>