<svg xmlns="http://www.w3.org/2000/svg" xmlns:xlink="http://www.w3.org/1999/xlink" height="120" width="320"><defs><linearGradient id="p"><stop offset="0" stop-color="#e59290"/><stop offset="1" stop-color="#e99890"/></linearGradient><linearGradient id="o"><stop offset="0" stop-color="#c0544f"/><stop offset="1" stop-color="#d08481"/></linearGradient><linearGradient id="n"><stop offset="0" stop-color="#ffa801" stop-opacity="0"/><stop offset="1" stop-color="#f0fb3d"/></linearGradient><linearGradient id="m"><stop offset="0" stop-color="#ffbd00" stop-opacity=".65"/><stop offset="1" stop-color="#fff" stop-opacity=".906"/></linearGradient><linearGradient><stop offset="0" stop-color="#a16a00"/><stop offset="1" stop-color="#c68200"/></linearGradient><linearGradient id="j"><stop offset="0" stop-color="#00d600" stop-opacity="0"/><stop offset="1" stop-color="#d8fc7b" stop-opacity=".812"/></linearGradient><linearGradient id="i"><stop offset="0" stop-color="#00ba00"/><stop offset="1" stop-color="#fff" stop-opacity=".906"/></linearGradient><linearGradient id="h"><stop offset="0" stop-color="#00a104"/><stop offset="1" stop-color="#00c605"/></linearGradient><linearGradient id="l"><stop offset="0" stop-color="#f00" stop-opacity="0"/><stop offset="1" stop-color="#f0cb68" stop-opacity=".709"/></linearGradient><linearGradient id="k"><stop offset="0" stop-color="#e60000" stop-opacity=".65"/><stop offset="1" stop-color="#fff" stop-opacity=".906"/></linearGradient><linearGradient><stop offset="0" stop-color="#f00"/><stop offset="1" stop-color="#9f0000"/></linearGradient><linearGradient id="g"><stop offset="0" stop-color="#a10000"/><stop offset="1" stop-color="#c60000"/></linearGradient><linearGradient><stop offset="0"/><stop offset="1" stop-opacity="0"/></linearGradient><linearGradient id="f"><stop offset="0"/><stop offset="1" stop-color="#5c5c5c"/></linearGradient><linearGradient id="e"><stop offset="0"/><stop offset="1" stop-color="#929292"/></linearGradient><linearGradient id="d"><stop offset="0" stop-color="#ac1f10"/><stop offset="1" stop-color="#f48f84"/></linearGradient><linearGradient id="c"><stop offset="0" stop-color="#d7687d"/><stop offset="1" stop-color="#b21402"/></linearGradient><linearGradient id="b"><stop offset="0" stop-color="#d76f7d"/><stop offset="1" stop-color="#b21402"/></linearGradient><clipPath><path d="M0 560h960V0H0v560z"/></clipPath><clipPath id="q"><path d="M160 296h16.125v-14H160v14z"/></clipPath><clipPath id="s"><path d="M358 303h22v-4h-22v4z"/></clipPath><clipPath id="r"><path d="M484.867 399.56h22.705v-19.12h-22.705v19.12z"/></clipPath><clipPath><path d="M0 560h960V0H0v560z"/></clipPath><clipPath id="t"><path d="M662 341c0-9.94 8.06-18 18-18 9.942 0 18 8.06 18 18s-8.058 18-18 18c-9.94 0-18-8.06-18-18"/></clipPath><radialGradient cx="0" cy="0" fx="0" fy="0" gradientTransform="matrix(18 0 0 -18 680 341)" gradientUnits="userSpaceOnUse" id="a" r="1" spreadMethod="pad"><stop offset="0"/><stop offset="1" stop-opacity="0"/></radialGradient><clipPath><path d="M0 560h960V0H0v560z"/></clipPath><radialGradient xlink:href="#a" gradientUnits="userSpaceOnUse" gradientTransform="matrix(18 0 0 -18 680 341)" spreadMethod="pad" cx="0" cy="0" fx="0" fy="0" r="1"/><radialGradient xlink:href="#a" gradientUnits="userSpaceOnUse" gradientTransform="matrix(18 0 0 -18 680 341)" spreadMethod="pad" cx="0" cy="0" fx="0" fy="0" r="1"/><radialGradient xlink:href="#a" id="u" gradientUnits="userSpaceOnUse" gradientTransform="matrix(18 0 0 -18 680 341)" spreadMethod="pad" cx="0" cy="0" fx="0" fy="0" r="1"/><linearGradient xlink:href="#b" x2="24" gradientUnits="userSpaceOnUse" gradientTransform="matrix(-1 0 0 -1 24 0)"/><linearGradient xlink:href="#b" gradientUnits="userSpaceOnUse" gradientTransform="matrix(-1 0 0 -1 24 0)" x2="24"/><linearGradient xlink:href="#b" gradientUnits="userSpaceOnUse" gradientTransform="matrix(-1 0 0 -1 24 0)" x2="24"/><linearGradient xlink:href="#b" gradientUnits="userSpaceOnUse" gradientTransform="matrix(-1 0 0 -1 24 0)" x2="24"/><linearGradient xlink:href="#b" gradientUnits="userSpaceOnUse" gradientTransform="matrix(-1 0 0 -1 24 0)" x2="24"/><linearGradient xlink:href="#c" gradientUnits="userSpaceOnUse" gradientTransform="matrix(-1 0 0 -1 24 0)" x2="24"/><linearGradient xlink:href="#b" gradientUnits="userSpaceOnUse" gradientTransform="matrix(-1 0 0 -1 24 0)" x2="24"/><linearGradient xlink:href="#c" gradientUnits="userSpaceOnUse" gradientTransform="matrix(-1 0 0 -1 24 0)" x2="24"/><linearGradient xlink:href="#c" gradientUnits="userSpaceOnUse" gradientTransform="matrix(-1 0 0 -1 24 0)" x2="24"/><linearGradient xlink:href="#b" gradientUnits="userSpaceOnUse" gradientTransform="matrix(-1 0 0 -1 24 0)" x2="24"/><linearGradient xlink:href="#d" x2="24" gradientUnits="userSpaceOnUse"/><linearGradient xlink:href="#c" gradientUnits="userSpaceOnUse" gradientTransform="matrix(0 -.583 -.583 0 120 111)" x2="24"/><linearGradient xlink:href="#e" x1="113" y1="104" x2="127" y2="104" gradientUnits="userSpaceOnUse"/><linearGradient xlink:href="#f" x1="113" y1="104" x2="127" y2="104" gradientUnits="userSpaceOnUse"/><linearGradient xlink:href="#c" id="v" gradientUnits="userSpaceOnUse" gradientTransform="matrix(0 -.583 -.583 0 120 111)" x2="24"/><linearGradient xlink:href="#c" id="y" gradientUnits="userSpaceOnUse" gradientTransform="matrix(0 -.583 -.583 0 120 111)" x2="24"/><linearGradient xlink:href="#g" id="z" gradientUnits="userSpaceOnUse" x1="227.875" y1="103.156" x2="235.125" y2="103.156"/><linearGradient xlink:href="#h" id="C" gradientUnits="userSpaceOnUse" x1="227.875" y1="103.156" x2="235.125" y2="103.156"/><linearGradient xlink:href="#i" id="D" gradientUnits="userSpaceOnUse" x1="227.875" y1="103.156" x2="235.125" y2="103.156"/><linearGradient xlink:href="#j" id="E" gradientUnits="userSpaceOnUse" x1="227.875" y1="103.156" x2="235.125" y2="103.156"/><linearGradient xlink:href="#k" id="A" gradientUnits="userSpaceOnUse" x1="227.875" y1="103.156" x2="235.125" y2="103.156"/><linearGradient xlink:href="#l" id="B" gradientUnits="userSpaceOnUse" x1="227.875" y1="103.156" x2="235.125" y2="103.156"/><linearGradient xlink:href="#m" id="F" gradientUnits="userSpaceOnUse" x1="227.875" y1="103.156" x2="235.125" y2="103.156"/><linearGradient xlink:href="#n" id="G" gradientUnits="userSpaceOnUse" x1="227.875" y1="103.156" x2="235.125" y2="103.156"/><linearGradient xlink:href="#o" x1="113" y1="104" x2="127" y2="104" gradientUnits="userSpaceOnUse" gradientTransform="matrix(0 -1 1 0 16 224)"/><linearGradient xlink:href="#o" gradientUnits="userSpaceOnUse" x1="113" y1="104" x2="127" y2="104" gradientTransform="matrix(0 -1 1 0 16 224)"/><linearGradient xlink:href="#p" x1="96.5" y1="103" x2="109.5" y2="103" gradientUnits="userSpaceOnUse" gradientTransform="matrix(0 1 -1 0 206 0)"/><linearGradient xlink:href="#o" id="w" gradientUnits="userSpaceOnUse" gradientTransform="matrix(0 -1 1 0 16 224)" x1="113" y1="104" x2="127" y2="104"/><linearGradient xlink:href="#o" gradientUnits="userSpaceOnUse" gradientTransform="matrix(0 -1 1 0 16 224)" x1="113" y1="104" x2="127" y2="104"/><linearGradient xlink:href="#p" gradientUnits="userSpaceOnUse" gradientTransform="matrix(0 1 -1 0 206 0)" x1="96.5" y1="103" x2="109.5" y2="103"/><linearGradient xlink:href="#p" id="x" gradientUnits="userSpaceOnUse" gradientTransform="matrix(0 1 -1 0 206 0)" x1="96.5" y1="103" x2="109.5" y2="103"/></defs><g clip-path="url(#q)" opacity=".5" transform="matrix(.5 0 0 -.51 -36.014 209.912)"><path d="M160 296l4-5v-9h8v9l4.125 5H160z" fill="#424242"/></g><g clip-path="url(#r)" opacity=".4" transform="matrix(.507 0 0 -.523 -41.086 214.007)"><path d="M491.55 386.362l-3.62 4.31-3.063-2.57 6.428-7.66 2.834 2.844 13.44 13.443-2.83 2.82-13.2-13.2z"/></g><path d="M57 12l-3.412-4H39v8h14.588M25 36l-3.638-4H19.57L14 40h7.362L25 36zM7 32v8h2.053L14 32H7zm2.668 12.547l-1.594-1.32L18.83 27.454l1.596 1.32L9.668 44.546zM16 15.1c-1.748 0-3.165-1.415-3.165-3.163 0-1.748 1.417-3.165 3.165-3.165V7c-2.762 0-5 2.238-5 5s2.238 5 5 5 5-2.238 5-5h-1.838c-.035 1.718-1.435 3.1-3.162 3.1M16 5l4.5 3-4.5 3m37 26H43v-5h10v5zm-12 5h14V30H41v12zM10 57H8v9h11v-2h-9v-7zm3-1h7v5h-7v-5zm7-2h-9v9h11v-9h-2zm66-21h-8v-2h8v2zm-14.5-1.563l4.2 4.313-4.2 4.313 1.4 1.437 4.2-4.312 1.4-1.438-1.4-1.438L72.9 30l-1.4 1.437zM86 37h-6v-2h6v2zm0 4h-8v-2h8v2zm-5.562-24.062c-2.486 0-4.5-2.015-4.5-4.5 0-.88.256-1.7.693-2.393l6.2 6.2c-.69.436-1.51.692-2.39.692m4.5-4.5c0 .88-.25 1.7-.69 2.393l-6.2-6.2c.7-.436 1.52-.693 2.4-.693 2.483 0 4.5 2.015 4.5 4.5M80.5 6C76.91 6 74 8.91 74 12.5s2.91 6.5 6.5 6.5 6.5-2.91 6.5-6.5S84.09 6 80.5 6M117 65h-10V55h10v10zm-1-28v4h-8v-3h-1v4h10v-5h-1zm-4.116-1.097l-1.832-2.255-1.552 1.345L111.756 39l1.435-1.488L120 30.48 118.568 29l-6.684 6.903zM149 8.333L147.667 7 144 10.667 140.333 7 139 8.333 142.667 12 139 15.667 140.333 17 144 13.333 147.667 17 149 15.667 145.333 12 149 8.333zM46.5 65.235c.32.134.844.242 1.466.242.592 0 1.144-.097 1.534-.263v-3.93l4-4.57v-.19h-11v.217l4 4.57v3.93zM47.966 67c-1.155 0-2.168-.287-2.71-.767L45 66.005v-4.117l-4-4.568V55h14v2.346l-4 4.568v4.133l-.31.228c-.624.46-1.617.725-2.724.725M86 60l-10-5v10"/><g clip-path="url(#s)" opacity=".2" transform="matrix(.5 0 0 -.5 -37 206.5)"><path d="M380 299h-22v4h22v-4z"/></g><path d="M135 54v-1h-2v14h2v-1h-1V54h1zm7 3h-6v-2h6v2zm3 3h-6v-2h6v2zm5 3h-6v-2h6v2zm2 3h-6v-2h6v2zm18 1h-2v-9h2v9zm3 0h-2V56h2v11zm3 0h-2V54h2v13zm3 0h-2v-4h2v4zm3 0h-2v-9h2v9zm3 0h-2V56h2v11zm23-10h-10v-2h10v2zm9 0h-5v-2h5v2zm-17 4h-2v-2h2v2zm13 0h-10v-2h10v2zm4 0h-2v-2h2v2zm-12 4h-7v-2h7v2zm12 0h-8v-2h8v2zm57-1h-7v-8h7v8zm-9 2h14V54h-14v12zm33-54c0 3.313 2.686 6 6 6s6-2.687 6-6-2.686-6-6-6-6 2.687-6 6"/><g clip-path="url(#t)" transform="matrix(.5 0 0 -.5 -36 206.5)"><path d="M662 341c0-9.94 8.06-18 18-18 9.942 0 18 8.06 18 18s-8.058 18-18 18c-9.94 0-18-8.06-18-18" fill="url(#u)"/></g><path d="M298 36c0 3.313 2.686 6 6 6s6-2.687 6-6-2.686-6-6-6-6 2.687-6 6"/><path d="M239.063 38.104c-1.68 0-3.042-1.36-3.042-3.04s1.37-3.043 3.05-3.043 3.04 1.37 3.04 3.05-1.36 3.04-3.04 3.04m7.938 3.46l-4.077-4.073c.443-.705.703-1.535.703-2.427 0-2.52-2.042-4.564-4.562-4.564-2.52 0-4.562 2.042-4.562 4.562s2.044 4.562 4.564 4.562c.89 0 1.72-.26 2.426-.704l4.076 4.08L247 41.57z"/><path d="M0 0l10.75 6.5L21.625 2l10.125 8.125" fill="none" stroke="#000" stroke-width="3" stroke-miterlimit="10" transform="matrix(.489 0 0 -.497 233.733 63.763)"/><path d="M231 67V54h-1v14h21.012v-1h-20.01zm6-56h-4V7h4v4zm10-2h-9V7h9v2zm0 2h-9v-1h9v1zm0 4h-9v-2h9v2zm-10 2h-4v-4h4v4zm10 0h-9v-1h9v1zm-71 21.133c-1.178 0-2.133-.955-2.133-2.133s.955-2.133 2.133-2.133 2.133.955 2.133 2.133-.955 2.133-2.133 2.133m8-3.733l-2.933-.533 1.72-2.392-2.262-2.263L178.067 31l-.467-3h-3.2l-.4 3.133-2.525-1.92-2.263 2.262 1.988 2.592-3.2.333v3.2l3.333.333-2.12 2.592 2.262 2.263 2.525-2.12.4 3.332h3.2l.4-3.2 2.525 1.988 2.263-2.263L181 38.067l3-.467v-3.2zm-9.03-15.775c0-.9.426-1.348 1.28-1.348.417 0 .737.117.957.353.22.234.33.566.33.995 0 .423-.11.758-.334 1.005-.223.246-.542.37-.954.37-.42 0-.73-.12-.95-.362-.22-.24-.33-.58-.33-1.013m.35-2.848v-.57c0-.656.11-1.2.35-1.635.23-.435.64-.884 1.22-1.35.69-.558 1.13-.993 1.33-1.302.2-.31.3-.68.3-1.108 0-.5-.162-.883-.487-1.15-.326-.27-.793-.403-1.403-.403-.55 0-1.06.08-1.53.24-.47.16-.93.35-1.377.58L173 7.51c1.18-.674 2.442-1.01 3.79-1.01 1.137 0 2.04.286 2.708.857.668.572 1.002 1.36 1.002 2.366 0 .447-.064.844-.19 1.192-.13.348-.323.68-.58.996-.26.32-.705.73-1.338 1.24-.54.44-.902.8-1.085 1.08-.183.29-.274.67-.274 1.15v.4h-1.707zm35.01 22.55c0 .793.08 1.387.24 1.78.16.394.42.59.78.59.71 0 1.062-.79 1.062-2.37 0-1.56-.356-2.34-1.067-2.34-.358 0-.617.193-.777.575-.16.384-.24.972-.24 1.765m3.663 0c0 1.224-.226 2.142-.676 2.755-.45.612-1.108.918-1.97.918-.826 0-1.466-.315-1.92-.946-.458-.63-.686-1.54-.686-2.727 0-2.432.867-3.65 2.604-3.65.836 0 1.486.315 1.95.944.464.63.696 1.53.696 2.71m-2.42-8.16l-6.6 11.68h-1.58l6.6-11.67h1.58zm-8.995 3.5c0 .8.08 1.39.233 1.77.16.39.416.59.775.59.716 0 1.074-.784 1.074-2.354s-.356-2.356-1.072-2.356c-.36 0-.616.192-.774.58-.157.388-.236.98-.236 1.773m3.664-.016c0 1.224-.224 2.14-.67 2.758-.45.616-1.11.923-1.983.923-.826 0-1.466-.32-1.92-.956-.454-.635-.68-1.544-.68-2.725 0-2.433.866-3.65 2.597-3.65.85 0 1.505.316 1.964.947.46.63.69 1.533.69 2.704M268 35.994c.42.23.71.494.87.8.16.306.24.83.24 1.57v1.02c0 .47.046.76.138.883.092.12.265.203.522.245.06.013.15.027.273.04.63.077.945.33.945.757 0 .21-.092.37-.275.5-.184.13-.428.19-.733.19-.39 0-.765-.05-1.128-.16-.364-.1-.665-.25-.904-.43-.26-.2-.445-.457-.553-.77-.11-.31-.163-.85-.163-1.61v-.82c0-.834-.46-1.313-1.382-1.44-.04-.01-.066-.01-.083-.01-.27-.037-.466-.117-.59-.238-.13-.123-.195-.298-.195-.527 0-.2.053-.36.162-.477.107-.118.28-.2.52-.253.105-.026.257-.056.457-.09.74-.113 1.11-.57 1.11-1.37v-.822c0-.706.04-1.202.13-1.486.08-.285.222-.533.422-.745.234-.237.546-.42.937-.553.39-.13.82-.2 1.292-.2.29 0 .53.064.706.19.178.128.267.296.267.504 0 .435-.337.697-1.01.785-.064.002-.107.007-.136.012-.28.04-.47.12-.578.254-.107.13-.16.43-.16.895v1.02c0 .693-.083 1.203-.25 1.527-.164.324-.45.593-.86.806m8.977-.008c-.404-.215-.687-.48-.854-.807-.168-.324-.25-.832-.25-1.526v-1.45c0-.214-.068-.377-.2-.49-.135-.112-.36-.187-.67-.223-.407-.048-.677-.127-.81-.24-.135-.11-.2-.28-.2-.51 0-.235.083-.417.252-.55.17-.13.41-.194.72-.194.41 0 .792.05 1.146.153.358.1.655.243.89.43.276.206.466.464.577.77.11.307.165.85.165 1.626v.82c0 .8.38 1.26 1.14 1.385.186.02.326.045.426.068.235.053.406.14.518.26.11.12.168.28.168.477 0 .206-.06.372-.177.5-.116.122-.29.21-.524.256l-.376.056c-.78.126-1.176.596-1.176 1.41v.806c0 .73-.04 1.24-.124 1.522-.08.286-.222.528-.422.727-.218.217-.53.394-.937.53-.404.137-.83.205-1.274.205-.31 0-.555-.066-.73-.2-.175-.13-.26-.315-.26-.552 0-.217.064-.38.195-.493.13-.11.403-.195.816-.25.34-.04.57-.12.69-.23.12-.11.18-.29.18-.534v-1.39c0-.74.08-1.262.24-1.564.16-.303.447-.568.86-.797m-1.743-21.297h-2.153v-5.38h2.152v5.384zm-4.307 0h-2.154v-5.38h2.15v5.384zm4-9.692h-5.846L265 9.04v5.844L269.077 19h5.846L279 14.882V9.038L274.923 5zM112.03 15.5c-1.932 0-3.5-1.567-3.5-3.5s1.568-3.5 3.5-3.5c1.934 0 3.5 1.567 3.5 3.5s-1.566 3.5-3.5 3.5M112 7c-2.437 0-4.625.834-9 5 4.312 4.167 6.563 5 9 5 2.437 0 4.625-.834 9-5-4.312-4.167-6.563-5-9-5m-1.5 5c0 .83.67 1.5 1.5 1.5s1.5-.67 1.5-1.5-.67-1.5-1.5-1.5-1.5.67-1.5 1.5m29 21h9L147 43h-6m6.5-13h-2v-1h-3v1h-2c-.552 0-1 .482-1 1v1h9v-1c0-.518-.448-1-1-1M317 69v-5l-5 5h5zM212 13v4h-8v-3h-1v4h10v-5h-1zM23 84l-8-5.002v10.004M13 89h-3V79h3v10zm34-1h-3v-8h3v8zm6 0h-3v-8h3v8zm25.5 1c0 1.107.897 2.004 2.004 2.004s2.004-.897 2.004-2.004-.897-2.004-2.004-2.004S78.5 87.893 78.5 89m2-3l4.498-4.01h-8.996M82 82h-3v-4h3v4zm28.5 7c0 1.107.897 2.004 2.004 2.004s2.004-.897 2.004-2.004-.897-2.004-2.004-2.004-2.004.897-2.004 2.004m2-11l4.498 4.01h-8.996M112.5 78l4.498 4.01h-8.996M114 82h-3v4h3v-4zm28.184 4.433c0 1.107.897 2.004 2.004 2.004s2.004-.897 2.004-2.004-.897-2.004-2.004-2.004-2.004.89-2.004 2"/><path d="M137.25 87.032c2.553-8.432 11.403-8.73 13.938 0" fill="none" stroke="#000" stroke-width="2.5"/><path d="M151.676 89l-4.538-2.77 6.682-2.097M151.676 89l-4.538-2.77 6.682-2.097M12 102l-7-4v8m19 0l4-7h-8M8 111l4 7H4"/><path d="M54 105v7H44v-7zm1 8v-11H43v11z"/><rect width="12" height="3" x="73" y="110" ry="0" opacity=".819"/><path fill="none" stroke="#000" stroke-width="1.937" d="M336.903 158.803h28.195v22.195h-28.195z" transform="matrix(.497 0 0 .537 1.211 -6.719)"/><path d="M179.8 84.516l-4.992-3.25v6.5"/><path d="M171.918 78.032h1v13.004h-1z"/><path fill="none" stroke="#000" stroke-width="1.937" d="M336.903 158.803h28.195v22.195h-28.195z" transform="matrix(.497 0 0 .537 33.211 -6.719)"/><path d="M206.808 84.515l4.993-3.25v6.5"/><path d="M203.918 77.953h1v12.992h-1z"/><path fill="none" stroke="#000" stroke-width="1.937" d="M336.903 158.803h28.195v22.195h-28.195z" transform="matrix(.497 0 0 .537 65.211 -6.719)"/><path d="M235.918 77.953h1v12.992h-1z"/><path fill="none" stroke="#000" stroke-width="1.937" d="M336.903 158.803h28.195v22.195h-28.195z" transform="matrix(-.497 0 0 .537 446.789 -6.719)"/><path d="M273.192 84.516l-4.993-3.25v6.5"/><path d="M276.082 78.032h-1v13.004h1z"/><path fill="none" stroke="#000" stroke-width="1.937" d="M336.903 158.803h28.195v22.195h-28.195z" transform="matrix(-.497 0 0 .537 477.789 -6.719)"/><path d="M299.2 84.516l4.992-3.25v6.5"/><path d="M307.082 78.032h-1v13.004h1z"/><path d="M120 97c-3.866 0-7 3.134-7 7s3.134 7 7 7 7-3.134 7-7-3.134-7-7-7" fill="url(#v)" transform="translate(-2 -1)"/><path d="M111.5 103c0 3.59 2.91 6.5 6.5 6.5s6.5-2.91 6.5-6.5-2.91-6.5-6.5-6.5-6.5 2.91-6.5 6.5" fill="#f27d82"/><path d="M121.5 100.933l-.933-.933-2.567 2.567-2.567-2.567-.933.933 2.566 2.567-2.566 2.567.933.933 2.567-2.567 2.567 2.567.933-.933-2.567-2.567 2.567-2.567z" fill-opacity=".364"/><path d="M121.5 100.433l-.933-.933-2.567 2.567-2.567-2.567-.933.933 2.566 2.567-2.566 2.567.933.933 2.567-2.567 2.567 2.567.933-.933-2.567-2.567 2.567-2.567z" fill="#fff"/><path d="M138.5 100.933l-.933-.933-2.567 2.567-2.567-2.567-.933.933 2.566 2.567-2.566 2.567.933.933 2.567-2.567 2.567 2.567.933-.933-2.567-2.567 2.567-2.567z" fill-opacity=".244"/><path d="M138.5 100.433l-.933-.933-2.567 2.567-2.567-2.567-.933.933 2.566 2.567-2.566 2.567.933.933 2.567-2.567 2.567 2.567.933-.933-2.567-2.567 2.567-2.567z" fill="#676767"/><path d="M120 97c-3.866 0-7 3.134-7 7s3.134 7 7 7 7-3.134 7-7-3.134-7-7-7" fill="url(#w)" transform="matrix(-1 0 0 -1 223 207)"/><path d="M103 96.5c-3.59 0-6.5 2.91-6.5 6.5s2.91 6.5 6.5 6.5 6.5-2.91 6.5-6.5-2.91-6.5-6.5-6.5" fill="url(#x)"/><path d="M106.5 100.933l-.933-.933-2.567 2.567-2.567-2.567-.933.933 2.567 2.567-2.567 2.567.933.933 2.567-2.567 2.567 2.567.933-.933-2.567-2.567 2.567-2.567z" fill="#993c35"/><path d="M106.5 100.433l-.933-.933-2.567 2.567-2.567-2.567-.933.933 2.567 2.567-2.567 2.567.933.933 2.567-2.567 2.567 2.567.933-.933-2.567-2.567 2.567-2.567z" fill="#fff"/><path d="M143 102.5c0 3.59 2.91 6.5 6.5 6.5s6.5-2.91 6.5-6.5-2.91-6.5-6.5-6.5-6.5 2.91-6.5 6.5" fill="#bebebe"/><path d="M153 100.433l-.933-.933-2.567 2.567-2.567-2.567-.933.933 2.566 2.567-2.566 2.567.933.933 2.567-2.567 2.567 2.567.933-.933-2.567-2.567 2.567-2.567z" fill-opacity=".373"/><path d="M153 99.933l-.933-.933-2.567 2.567L146.933 99l-.933.933 2.566 2.567-2.566 2.567.933.933 2.567-2.567 2.567 2.567.933-.933-2.567-2.567L153 99.933z" fill="#fff"/><path d="M160 102.5c0 3.59 2.91 6.5 6.5 6.5s6.5-2.91 6.5-6.5-2.91-6.5-6.5-6.5-6.5 2.91-6.5 6.5" fill="#9f9f9f"/><path d="M170 100.433l-.933-.933-2.567 2.567-2.567-2.567-.933.933 2.566 2.567-2.566 2.567.933.933 2.567-2.567 2.567 2.567.933-.933-2.567-2.567 2.567-2.567z" fill-opacity=".364"/><path d="M170 99.933l-.933-.933-2.567 2.567L163.933 99l-.933.933 2.566 2.567-2.566 2.567.933.933 2.567-2.567 2.567 2.567.933-.933-2.567-2.567L170 99.933z" fill="#fff"/><path d="M184.5 100.433l-.933-.933-2.567 2.567-2.567-2.567-.933.933 2.566 2.567-2.566 2.567.933.933 2.567-2.567 2.567 2.567.933-.933-2.567-2.567 2.567-2.567z" fill-opacity=".244"/><path d="M184.5 99.933l-.933-.933-2.567 2.567L178.433 99l-.933.933 2.566 2.567-2.566 2.567.933.933 2.567-2.567 2.567 2.567.933-.933-2.567-2.567 2.567-2.567z" fill="#676767"/><path d="M131.65 116.212l-1.436-2.03-1.214 1.212 2.548 3.606 1.124-1.34 5.328-6.328-1.12-1.332-5.23 6.212z"/><path d="M195.75 97.75l3.5 3.25-3.5 3.25" fill="none" stroke="#367cf1" stroke-width="1.5"/><path d="M195.75 108.75l3.5 3.25-3.5 3.25" fill="none" stroke="#939393" stroke-width="1.5"/><path d="M209 101c0 .55.446.996.996.996s.996-.446.996-.996-.446-.996-.996-.996-.996.446-.996.996" fill="#bababa"/><path d="M208.25 97.75l-3.5 3.25 3.5 3.25" fill="none" stroke="#bababa" stroke-width="1.5"/><path d="M120 97c-3.866 0-7 3.134-7 7s3.134 7 7 7 7-3.134 7-7-3.134-7-7-7" fill="url(#y)" transform="matrix(.714 0 0 .714 132.286 26.714)"/><path d="M213.357 101c0 2.564 2.08 4.643 4.643 4.643 2.564 0 4.643-2.08 4.643-4.643 0-2.564-2.08-4.643-4.643-4.643-2.564 0-4.643 2.08-4.643 4.643" fill="#eb3941"/><path d="M216 99l4 4m0-4l-4 4m0-4l4 4m0-4l-4 4" fill="none" stroke="#fff"/><path d="M203 116l4-7.778 4 7.778z" fill="none" stroke="#c19600" stroke-width="2" stroke-linecap="square" stroke-linejoin="round"/><path d="M203.017 116l4-7.778 4 7.778z" fill="#f4bd00" stroke="#f5be00" stroke-width="1.5" stroke-linecap="square" stroke-linejoin="round"/><text y="146.82" x="161.332" style="line-height:125%;-inkscape-font-specification:Times Bold" transform="scale(1.263 .792)" font-size="11.261" font-weight="bold" letter-spacing="0" word-spacing="0" fill="#ad8601" font-family="Sans"><tspan y="146.82" x="161.332">!</tspan></text><path style="line-height:125%;-inkscape-font-specification:Times Bold" d="M206 110h2v2.303l-.283 1.68h-1.434l-.283-1.68V110m0 4.57h2V116h-2v-1" font-size="9.677" font-weight="bold" letter-spacing="0" word-spacing="0" fill="#fff" font-family="Sans"/><path d="M235.125 103.156a3.625 3.844 0 1 1-7.25 0 3.625 3.844 0 1 1 7.25 0z" transform="matrix(0 1.379 -1.301 0 363.085 -218.353)" fill="url(#z)"/><path d="M233.5 101c0 3.463-3.748 5.63-6.75 3.898-1.39-.804-2.25-2.29-2.25-3.897 0-3.46 3.748-5.63 6.75-3.89 1.39.807 2.25 2.29 2.25 3.9z" fill="#d00"/><path d="M235.125 103.156a3.625 3.844 0 1 1-7.25 0 3.625 3.844 0 1 1 7.25 0z" transform="matrix(0 -.629 .927 0 133.469 244.528)" fill="url(#A)"/><path transform="matrix(0 .44 .78 0 148.487 2.121)" d="M235.125 103.156a3.625 3.844 0 1 1-7.25 0 3.625 3.844 0 1 1 7.25 0z" fill="url(#B)"/><path d="M235.125 103.156a3.625 3.844 0 1 1-7.25 0 3.625 3.844 0 1 1 7.25 0z" transform="matrix(-.015 1.379 -1.301 -.014 377.665 -216.821)" fill="url(#C)"/><path d="M244.5 101.05c-.038 3.463-3.812 5.587-6.792 3.822-1.384-.82-2.225-2.314-2.208-3.92.038-3.465 3.812-5.59 6.792-3.824 1.384.82 2.225 2.314 2.208 3.92z" fill="#00be00"/><path d="M235.125 103.156a3.625 3.844 0 1 1-7.25 0 3.625 3.844 0 1 1 7.25 0z" transform="matrix(.007 -.629 .927 .01 142.865 243.443)" fill="url(#D)"/><path transform="matrix(-.005 .44 .78 .009 160.603 1.16)" d="M235.125 103.156a3.625 3.844 0 1 1-7.25 0 3.625 3.844 0 1 1 7.25 0z" fill="url(#E)"/><path d="M251.002 106c-3.85 0-6.256-4.165-4.333-7.5.89-1.546 2.54-2.5 4.32-2.5 3.85 0 6.253 4.165 4.33 7.5-.893 1.546-2.543 2.5-4.33 2.5z" fill="#e5a600"/><path d="M255.5 101c0 3.463-3.748 5.63-6.75 3.898-1.39-.804-2.25-2.29-2.25-3.897 0-3.46 3.748-5.63 6.75-3.89 1.39.807 2.25 2.29 2.25 3.9z" fill="#ffbd00"/><path d="M235.125 103.156a3.625 3.844 0 1 1-7.25 0 3.625 3.844 0 1 1 7.25 0z" transform="matrix(0 -.629 .927 0 155.469 244.528)" fill="url(#F)"/><path transform="matrix(0 .44 .78 0 170.443 2.076)" d="M235.125 103.156a3.625 3.844 0 1 1-7.25 0 3.625 3.844 0 1 1 7.25 0z" fill="url(#G)"/></svg>