<svg width="233" height="388" viewBox="0 0 233 388" xmlns="http://www.w3.org/2000/svg"><title>elastic.svg</title><desc>Created with bin/sketchtool.</desc><g fill="none" fill-rule="evenodd"><path d="M34 365V22.16" stroke="#E8C48E" stroke-width="2" stroke-linecap="square"/><path d="M34 23l-3 10.8h6L34 23z" stroke="#E8C48E" stroke-width="2" stroke-linecap="square"/><path d="M24.5 194h184.01" stroke="#E8C48E" stroke-width="2" stroke-linecap="square"/><path d="M208.5 194l-10.8-3v6l10.8-3z" stroke="#E8C48E" stroke-width="2" stroke-linecap="square"/><path d="M34.88 192.698c3.442 0 11.656-1.502 18.614.34 8.527 2.258 8.02-3.415 33.52 1.3 13.1 2.424 13.41-10.73 28.147.562 20.16 15.445 18.718-35.537 33.36-.222 3.42 8.25 6.88 22.6 10.134 19.61 2.91-2.677 5.195-19.38 14.577-64.113 4.61-21.984 15.004 146.122 19.118 130.36 9.62-36.844 11.21-241.394 14.99-258.44" stroke="#EE6B47" stroke-width="3"/><text font-family="Consolas" font-size="14" font-weight="bold" fill="#8A704D"><tspan x="17" y="212">0</tspan></text><text font-family="Consolas" font-size="14" font-weight="bold" fill="#8A704D"><tspan x="17" y="36">1</tspan></text><text font-family="Consolas" font-size="14" font-weight="bold" fill="#8A704D"><tspan x="200" y="212">1</tspan></text></g></svg>