<?xml version="1.0" encoding="UTF-8"?>
<svg width="407px" height="391px" viewBox="0 0 407 391" version="1.1" xmlns="http://www.w3.org/2000/svg" xmlns:xlink="http://www.w3.org/1999/xlink">
    <!-- Generator: sketchtool 55.2 (78181) - https://sketchapp.com -->
    <title>eventLoop-full.svg</title>
    <desc>Created with sketchtool.</desc>
    <g id="promise" stroke="none" stroke-width="1" fill="none" fill-rule="evenodd">
        <g id="eventLoop-full.svg">
            <text id="..." font-family="PTMono-Regular, PT Mono" font-size="14" font-weight="normal" line-spacing="20" fill="#000000">
                <tspan x="257.4" y="71">...</tspan>
            </text>
            <rect id="Rectangle-1-Copy-6" stroke="#E8C48E" stroke-width="2" fill="#FFF9EB" x="216" y="86" width="108" height="28"></rect>
            <text id="setTimeout" font-family="PTMono-Regular, PT Mono" font-size="14" font-weight="normal" line-spacing="20" fill="#8A704D">
                <tspan x="228.5" y="105">setTimeout</tspan>
            </text>
            <rect id="Rectangle-1-Copy-8" stroke="#E8C48E" stroke-width="2" fill="#FFF9EB" x="216" y="195" width="108" height="28"></rect>
            <text id="mousemove" font-family="PTMono-Regular, PT Mono" font-size="14" font-weight="normal" line-spacing="20" fill="#8A704D">
                <tspan x="232.2" y="214">mousemove</tspan>
            </text>
            <rect id="Rectangle-1-Copy-9" stroke="#E8C48E" stroke-width="2" fill="#FFF9EB" x="216" y="302" width="108" height="28"></rect>
            <text id="script" font-family="PTMono-Regular, PT Mono" font-size="14" font-weight="normal" line-spacing="20" fill="#8A704D">
                <tspan x="245.3" y="321">script</tspan>
            </text>
            <text id="event-loop" font-family="OpenSans-Regular, Open Sans" font-size="24" font-weight="normal" fill="#000000">
                <tspan x="45.1621094" y="189">event</tspan>
                <tspan x="51.1152344" y="222">loop</tspan>
            </text>
            <g id="Group-Copy" transform="translate(256.000000, 267.000000)" fill="#EE6B47">
                <path d="M23.1454405,0.978488667 C21.7366033,0.348781349 20.1862777,-0.000633284678 18.5591614,8.61663483e-07 C15.9694405,-0.000633284678 13.5756265,0.885269154 11.6377196,2.37931793 L10.4743707,0.618927691 C10.4060451,0.515561837 10.2863242,0.466732569 10.1690219,0.494000862 C10.0523242,0.521269154 9.96404514,0.618927691 9.94288235,0.742586228 L8.7970684,7.77907403 C8.78195212,7.87229354 8.80734747,7.96678135 8.86781259,8.03717159 C8.92404514,8.10312281 9.0038591,8.13926915 9.08669631,8.13926915 C9.09274282,8.13926915 9.09939398,8.13863501 9.10544049,8.13863501 L12.2169754,7.93253745 L15.7209289,7.70043989 C15.8382312,7.69219598 15.9398126,7.61229354 15.9791149,7.49561062 C16.0184172,7.37892769 15.9887893,7.24956184 15.9011149,7.16648867 L14.4408824,5.75107403 C15.6217661,4.92922037 17.0354405,4.45043989 18.5591614,4.44980574 C19.6281847,4.44980574 20.6421847,4.68761062 21.5618591,5.11185452 C21.6344172,5.14546428 21.7178591,5.14609842 21.7916265,5.11502525 C21.8647893,5.08331793 21.9240451,5.02117159 21.9536731,4.94380574 L23.3032544,1.37609842 C23.3619056,1.22009842 23.2923707,1.04507403 23.1454405,0.978488667" id="Fill-52" transform="translate(16.058418, 4.069635) scale(-1, 1) translate(-16.058418, -4.069635) "></path>
                <path d="M12.7869128,13.3145374 C12.923564,14.9144887 13.36375,16.5119033 14.133471,18.0148301 C15.3584942,20.4080984 17.2341221,22.2014643 19.4066338,23.2858545 L18.4784942,25.1933667 C18.423471,25.3056106 18.4391919,25.4394155 18.5171919,25.5345374 C18.5951919,25.6290253 18.7191454,25.6651716 18.8334244,25.6252204 L25.2868663,23.3562448 C25.3721221,23.3258057 25.4398431,23.2579521 25.4700756,23.1691716 C25.4984942,23.0860984 25.4918431,22.9947813 25.4519361,22.9180496 C25.4489128,22.9123423 25.4464942,22.906635 25.4428663,22.9015618 L23.7982151,20.1233667 L21.945564,16.995757 C21.8826803,16.8911228 21.7677965,16.8353179 21.6510989,16.8537082 C21.5350058,16.8727326 21.4406803,16.9615131 21.411657,17.0820009 L20.9134244,19.1004887 C19.6642151,18.3984887 18.5927733,17.3179033 17.8720291,15.9100984 C17.3665407,14.9227326 17.0859826,13.8732204 17.0073779,12.823074 C17.0019361,12.7400009 16.9626338,12.6620009 16.901564,12.6087326 C16.8404942,12.5560984 16.7600756,12.5313667 16.681471,12.5408789 L13.0457035,12.9809765 C12.8872849,13.000635 12.7724012,13.1483911 12.7869128,13.3145374" id="Fill-54" transform="translate(19.136573, 19.090084) scale(-1, 1) translate(-19.136573, -19.090084) "></path>
                <path d="M2.64553278,22.3327326 C3.89716069,21.4081472 4.99581185,20.2089765 5.85139324,18.7574155 C7.21427696,16.4484887 7.75664906,13.8472204 7.56436999,11.3328301 L9.60325371,11.2212204 C9.72357929,11.2148789 9.82697464,11.1337082 9.86567231,11.0144887 C9.90497464,10.8965374 9.87292813,10.7659033 9.78223045,10.682196 L4.68078859,5.95780574 C4.61246301,5.89502525 4.52297464,5.86839111 4.43409092,5.8861472 C4.35125371,5.90073257 4.27990487,5.95273257 4.23576534,6.02692769 C4.23274208,6.03263501 4.22971882,6.03834233 4.22669557,6.04404964 L2.75618394,8.92687891 L1.10185836,12.1743423 C1.04623045,12.2840496 1.05771882,12.4159521 1.13209092,12.5129765 C1.20585836,12.6093667 1.32618394,12.6499521 1.43925371,12.6169765 L3.35539324,12.0589277 C3.40074208,13.5440984 3.0452072,15.0571716 2.24404441,16.4167813 C1.68171882,17.3699033 0.955532778,18.1492692 0.127160685,18.746635 C0.0618583596,18.7935618 0.0171141736,18.8671228 0.00381184799,18.9495618 C-0.00888582643,19.0313667 0.0104630108,19.1169765 0.0570211503,19.1835618 L2.2404165,22.2648789 C2.33595138,22.3993179 2.51492813,22.4284887 2.64553278,22.3327326" id="Fill-56" transform="translate(4.941093, 14.134846) scale(-1, 1) translate(-4.941093, -14.134846) "></path>
            </g>
            <text id="microtasks-copy" font-family="PTMono-Regular, PT Mono" font-size="14" font-weight="normal" fill="#000000">
                <tspan x="297.5" y="279">microtasks</tspan>
            </text>
            <text id="render-copy" font-family="PTMono-Regular, PT Mono" font-size="14" font-weight="normal" fill="#000000">
                <tspan x="297.3" y="251">render</tspan>
            </text>
            <text id="microtasks-copy-2" font-family="PTMono-Regular, PT Mono" font-size="14" font-weight="normal" fill="#000000">
                <tspan x="297.5" y="174">microtasks</tspan>
            </text>
            <text id="render-copy-2" font-family="PTMono-Regular, PT Mono" font-size="14" font-weight="normal" fill="#000000">
                <tspan x="297.3" y="142">render</tspan>
            </text>
            <g id="np_paint_2296353_000000-copy" transform="translate(256.000000, 233.000000)" fill="#EE6B47" fill-rule="nonzero">
                <path d="M3.07894737,0 C1.39113684,0 0,1.39113684 0,3.07894737 L0,22.9210526 C0,24.6088632 1.39113684,26 3.07894737,26 L22.9210526,26 C24.6088632,26 26,24.6088632 26,22.9210526 L26,3.07894737 C26,1.39113684 24.6088632,0 22.9210526,0 L3.07894737,0 Z M3.07894737,2.05252895 L22.9210526,2.05252895 C23.5076947,2.05252895 23.9473684,2.49230526 23.9473684,3.07894737 L23.9473684,16.1217105 L21.0608553,13.4383053 C20.8590679,13.2485429 20.5891263,13.1483163 20.3125,13.1603447 C20.0492397,13.1710355 19.8006763,13.2819529 19.6176158,13.4703776 L13.8979579,19.4250618 L8.86251053,15.2770355 C8.64735711,15.1006392 8.3694,15.0191189 8.09277368,15.0525289 C7.86158579,15.0805922 7.64642895,15.1848279 7.48341579,15.3518711 L2.05249474,20.7827921 L2.05249474,3.07884474 C2.05249474,2.49220263 2.49216842,2.05252895 3.07881053,2.05252895 L3.07894737,2.05252895 Z M6.15789474,3.42105263 C4.47008421,3.42105263 3.07894737,4.81218947 3.07894737,6.5 C3.07894737,8.18781053 4.47008421,9.57894737 6.15789474,9.57894737 C7.84570526,9.57894737 9.23684211,8.18781053 9.23684211,6.5 C9.23684211,4.81218947 7.84570526,3.42105263 6.15789474,3.42105263 Z M6.15789474,5.47368421 C6.73653158,5.47368421 7.18421053,5.92136316 7.18421053,6.5 C7.18421053,7.07863684 6.73653158,7.52631579 6.15789474,7.52631579 C5.57925789,7.52631579 5.13157895,7.07863684 5.13157895,6.5 C5.13157895,5.92136316 5.57925789,5.47368421 6.15789474,5.47368421 Z M20.3340526,6.04027895 C19.9571895,6.04027895 19.5749895,6.76191579 19.5749895,7.12003158 C19.1152684,7.23228316 18.8266342,7.47818158 18.8266342,7.83633158 C18.8266342,8.19448158 19.1981263,8.55263158 19.5749895,8.55263158 L22.2369789,8.55263158 C22.9666211,8.55263158 23.3461526,7.12006579 22.2155974,7.12006579 C22.1942158,6.44252632 21.7705868,6.2608 21.0823737,6.40376579 C20.8992926,6.12046158 20.7068447,6.01756316 20.3340184,6.04027895 L20.3340526,6.04027895 Z M16.7097895,9.23684211 C16.3957471,9.23684211 16.0790158,9.82081579 16.0790158,10.1134868 C15.6968158,10.2056945 15.4482421,10.4088195 15.4482421,10.7014974 C15.4482421,10.9941753 15.7649563,11.2895079 16.0790158,11.2895079 L18.2920263,11.2895079 C18.90005,11.2895079 19.2234763,10.1135211 18.2813355,10.1135211 C18.2639631,9.55893421 17.9031382,9.40792895 17.3298724,9.52551053 C17.1775295,9.29432263 17.0198395,9.21814947 16.7098066,9.23685921 L16.7097895,9.23684211 Z M20.3980263,15.6191579 L23.9473684,18.9119211 L23.9473684,22.9210526 C23.9473684,23.5076947 23.5076947,23.9473684 22.9210526,23.9473684 L3.07894737,23.9473684 C2.71279211,23.9473684 2.40407632,23.7709721 2.22368421,23.4983553 L8.27484211,17.4581447 L12.4762368,20.9113553 L11.2361053,22.2049237 L12.7114342,23.6267816 L20.3980263,15.6191579 Z" id="Shape"></path>
            </g>
            <g id="np_paint_2296353_000000-copy-2" transform="translate(256.000000, 124.000000)" fill="#EE6B47" fill-rule="nonzero">
                <path d="M3.07894737,0 C1.39113684,0 0,1.39113684 0,3.07894737 L0,22.9210526 C0,24.6088632 1.39113684,26 3.07894737,26 L22.9210526,26 C24.6088632,26 26,24.6088632 26,22.9210526 L26,3.07894737 C26,1.39113684 24.6088632,0 22.9210526,0 L3.07894737,0 Z M3.07894737,2.05252895 L22.9210526,2.05252895 C23.5076947,2.05252895 23.9473684,2.49230526 23.9473684,3.07894737 L23.9473684,16.1217105 L21.0608553,13.4383053 C20.8590679,13.2485429 20.5891263,13.1483163 20.3125,13.1603447 C20.0492397,13.1710355 19.8006763,13.2819529 19.6176158,13.4703776 L13.8979579,19.4250618 L8.86251053,15.2770355 C8.64735711,15.1006392 8.3694,15.0191189 8.09277368,15.0525289 C7.86158579,15.0805922 7.64642895,15.1848279 7.48341579,15.3518711 L2.05249474,20.7827921 L2.05249474,3.07884474 C2.05249474,2.49220263 2.49216842,2.05252895 3.07881053,2.05252895 L3.07894737,2.05252895 Z M6.15789474,3.42105263 C4.47008421,3.42105263 3.07894737,4.81218947 3.07894737,6.5 C3.07894737,8.18781053 4.47008421,9.57894737 6.15789474,9.57894737 C7.84570526,9.57894737 9.23684211,8.18781053 9.23684211,6.5 C9.23684211,4.81218947 7.84570526,3.42105263 6.15789474,3.42105263 Z M6.15789474,5.47368421 C6.73653158,5.47368421 7.18421053,5.92136316 7.18421053,6.5 C7.18421053,7.07863684 6.73653158,7.52631579 6.15789474,7.52631579 C5.57925789,7.52631579 5.13157895,7.07863684 5.13157895,6.5 C5.13157895,5.92136316 5.57925789,5.47368421 6.15789474,5.47368421 Z M20.3340526,6.04027895 C19.9571895,6.04027895 19.5749895,6.76191579 19.5749895,7.12003158 C19.1152684,7.23228316 18.8266342,7.47818158 18.8266342,7.83633158 C18.8266342,8.19448158 19.1981263,8.55263158 19.5749895,8.55263158 L22.2369789,8.55263158 C22.9666211,8.55263158 23.3461526,7.12006579 22.2155974,7.12006579 C22.1942158,6.44252632 21.7705868,6.2608 21.0823737,6.40376579 C20.8992926,6.12046158 20.7068447,6.01756316 20.3340184,6.04027895 L20.3340526,6.04027895 Z M16.7097895,9.23684211 C16.3957471,9.23684211 16.0790158,9.82081579 16.0790158,10.1134868 C15.6968158,10.2056945 15.4482421,10.4088195 15.4482421,10.7014974 C15.4482421,10.9941753 15.7649563,11.2895079 16.0790158,11.2895079 L18.2920263,11.2895079 C18.90005,11.2895079 19.2234763,10.1135211 18.2813355,10.1135211 C18.2639631,9.55893421 17.9031382,9.40792895 17.3298724,9.52551053 C17.1775295,9.29432263 17.0198395,9.21814947 16.7098066,9.23685921 L16.7097895,9.23684211 Z M20.3980263,15.6191579 L23.9473684,18.9119211 L23.9473684,22.9210526 C23.9473684,23.5076947 23.5076947,23.9473684 22.9210526,23.9473684 L3.07894737,23.9473684 C2.71279211,23.9473684 2.40407632,23.7709721 2.22368421,23.4983553 L8.27484211,17.4581447 L12.4762368,20.9113553 L11.2361053,22.2049237 L12.7114342,23.6267816 L20.3980263,15.6191579 Z" id="Shape"></path>
            </g>
            <g id="Group-Copy-2" transform="translate(256.000000, 159.000000)" fill="#EE6B47">
                <path d="M23.1454405,0.978488667 C21.7366033,0.348781349 20.1862777,-0.000633284678 18.5591614,8.61663483e-07 C15.9694405,-0.000633284678 13.5756265,0.885269154 11.6377196,2.37931793 L10.4743707,0.618927691 C10.4060451,0.515561837 10.2863242,0.466732569 10.1690219,0.494000862 C10.0523242,0.521269154 9.96404514,0.618927691 9.94288235,0.742586228 L8.7970684,7.77907403 C8.78195212,7.87229354 8.80734747,7.96678135 8.86781259,8.03717159 C8.92404514,8.10312281 9.0038591,8.13926915 9.08669631,8.13926915 C9.09274282,8.13926915 9.09939398,8.13863501 9.10544049,8.13863501 L12.2169754,7.93253745 L15.7209289,7.70043989 C15.8382312,7.69219598 15.9398126,7.61229354 15.9791149,7.49561062 C16.0184172,7.37892769 15.9887893,7.24956184 15.9011149,7.16648867 L14.4408824,5.75107403 C15.6217661,4.92922037 17.0354405,4.45043989 18.5591614,4.44980574 C19.6281847,4.44980574 20.6421847,4.68761062 21.5618591,5.11185452 C21.6344172,5.14546428 21.7178591,5.14609842 21.7916265,5.11502525 C21.8647893,5.08331793 21.9240451,5.02117159 21.9536731,4.94380574 L23.3032544,1.37609842 C23.3619056,1.22009842 23.2923707,1.04507403 23.1454405,0.978488667" id="Fill-52" transform="translate(16.058418, 4.069635) scale(-1, 1) translate(-16.058418, -4.069635) "></path>
                <path d="M12.7869128,13.3145374 C12.923564,14.9144887 13.36375,16.5119033 14.133471,18.0148301 C15.3584942,20.4080984 17.2341221,22.2014643 19.4066338,23.2858545 L18.4784942,25.1933667 C18.423471,25.3056106 18.4391919,25.4394155 18.5171919,25.5345374 C18.5951919,25.6290253 18.7191454,25.6651716 18.8334244,25.6252204 L25.2868663,23.3562448 C25.3721221,23.3258057 25.4398431,23.2579521 25.4700756,23.1691716 C25.4984942,23.0860984 25.4918431,22.9947813 25.4519361,22.9180496 C25.4489128,22.9123423 25.4464942,22.906635 25.4428663,22.9015618 L23.7982151,20.1233667 L21.945564,16.995757 C21.8826803,16.8911228 21.7677965,16.8353179 21.6510989,16.8537082 C21.5350058,16.8727326 21.4406803,16.9615131 21.411657,17.0820009 L20.9134244,19.1004887 C19.6642151,18.3984887 18.5927733,17.3179033 17.8720291,15.9100984 C17.3665407,14.9227326 17.0859826,13.8732204 17.0073779,12.823074 C17.0019361,12.7400009 16.9626338,12.6620009 16.901564,12.6087326 C16.8404942,12.5560984 16.7600756,12.5313667 16.681471,12.5408789 L13.0457035,12.9809765 C12.8872849,13.000635 12.7724012,13.1483911 12.7869128,13.3145374" id="Fill-54" transform="translate(19.136573, 19.090084) scale(-1, 1) translate(-19.136573, -19.090084) "></path>
                <path d="M2.64553278,22.3327326 C3.89716069,21.4081472 4.99581185,20.2089765 5.85139324,18.7574155 C7.21427696,16.4484887 7.75664906,13.8472204 7.56436999,11.3328301 L9.60325371,11.2212204 C9.72357929,11.2148789 9.82697464,11.1337082 9.86567231,11.0144887 C9.90497464,10.8965374 9.87292813,10.7659033 9.78223045,10.682196 L4.68078859,5.95780574 C4.61246301,5.89502525 4.52297464,5.86839111 4.43409092,5.8861472 C4.35125371,5.90073257 4.27990487,5.95273257 4.23576534,6.02692769 C4.23274208,6.03263501 4.22971882,6.03834233 4.22669557,6.04404964 L2.75618394,8.92687891 L1.10185836,12.1743423 C1.04623045,12.2840496 1.05771882,12.4159521 1.13209092,12.5129765 C1.20585836,12.6093667 1.32618394,12.6499521 1.43925371,12.6169765 L3.35539324,12.0589277 C3.40074208,13.5440984 3.0452072,15.0571716 2.24404441,16.4167813 C1.68171882,17.3699033 0.955532778,18.1492692 0.127160685,18.746635 C0.0618583596,18.7935618 0.0171141736,18.8671228 0.00381184799,18.9495618 C-0.00888582643,19.0313667 0.0104630108,19.1169765 0.0570211503,19.1835618 L2.2404165,22.2648789 C2.33595138,22.3993179 2.51492813,22.4284887 2.64553278,22.3327326" id="Fill-56" transform="translate(4.941093, 14.134846) scale(-1, 1) translate(-4.941093, -14.134846) "></path>
            </g>
            <path id="Path" d="M271.37688,54.2091068 L277.281818,43.0430224 L279.933822,44.4454762 L270.10532,63.030918 L259.326034,44.9802923 L261.901723,43.4421687 L268.37789,54.2869371 L268.114902,44.1533849 C266.186912,31.2365743 257.43807,26.5 240.535714,26.5 L189.464286,26.5 C170.419705,26.5 161.5,32.5455101 161.5,49.720739 L161.5,344.396487 C161.5,353.579279 164.161121,359.079115 169.381009,362.098821 C173.770528,364.638159 179.668177,365.5 189.464286,365.5 L240.535714,365.5 C250.331823,365.5 256.229472,364.638159 260.618991,362.098821 C265.838879,359.079115 268.5,353.579279 268.5,344.396487 L268.5,337.923831 L271.5,337.923831 L271.5,344.396487 C271.5,354.57926 268.348133,361.093339 262.12123,364.695603 C257.137794,367.578522 250.832047,368.5 240.535714,368.5 L189.464286,368.5 C179.167953,368.5 172.862206,367.578522 167.87877,364.695603 C161.651867,361.093339 158.5,354.57926 158.5,344.396487 L158.5,49.720739 C158.5,30.5855262 168.954172,23.5 189.464286,23.5 L240.535714,23.5 C258.785035,23.5 268.930165,29.0165608 271.096211,43.8064028 L271.111539,43.9848515 L271.37688,54.2091068 Z" fill="#EE6B47" fill-rule="nonzero"></path>
        </g>
    </g>
</svg>