<svg xmlns="http://www.w3.org/2000/svg" width="479" height="279" viewBox="0 0 479 279"><defs><style>@import url(https://fonts.googleapis.com/css?family=Open+Sans:bold,italic,bolditalic%7CPT+Mono);@font-face{font-family:&apos;PT Mono&apos;;font-weight:700;font-style:normal;src:local(&apos;PT MonoBold&apos;),url(/font/PTMonoBold.woff2) format(&apos;woff2&apos;),url(/font/PTMonoBold.woff) format(&apos;woff&apos;),url(/font/PTMonoBold.ttf) format(&apos;truetype&apos;)}</style></defs><g id="promise" fill="none" fill-rule="evenodd" stroke="none" stroke-width="1"><g id="eventLoop.svg"><path id="Rectangle-1-Copy-5" fill="#FFF9EB" stroke="#E8C48E" stroke-width="2" d="M218 173h108v28H218z"/><text id="..." fill="#8A704D" font-family="PTMono-Regular, PT Mono" font-size="14" font-weight="normal"><tspan x="258.9" y="189">...</tspan></text><path id="Rectangle-1-Copy-6" fill="#FFF9EB" stroke="#E8C48E" stroke-width="2" d="M218 90h108v28H218z"/><path id="Rectangle-1-Copy-8" fill="#FFF9EB" stroke="#E8C48E" stroke-width="2" d="M218 117h108v28H218z"/><text id="mousemove" fill="#8A704D" font-family="PTMono-Regular, PT Mono" font-size="14" font-weight="normal"><tspan x="233.7" y="136">mousemove</tspan></text><path id="Rectangle-1-Copy-9" fill="#FFF9EB" stroke="#E8C48E" stroke-width="2" d="M218 145h108v28H218z"/><text id="script" fill="#8A704D" font-family="PTMono-Regular, PT Mono" font-size="14" font-weight="normal"><tspan x="246.8" y="109">script</tspan></text><text id="event-loop" fill="#000" font-family="OpenSans-Regular, Open Sans" font-size="24" font-weight="normal"><tspan x="69.662" y="134">event</tspan> <tspan x="75.615" y="167">loop</tspan></text><text id="macrotask-queue" fill="#9B9B9B" font-family="OpenSans-Regular, Open Sans" font-size="24" font-weight="normal"><tspan x="345.111" y="136">macrotask</tspan> <tspan x="367.951" y="169">queue</tspan></text><path id="Path" fill="#EE6B47" fill-rule="nonzero" d="M192 40c22.467 0 43.818 7.359 61.285 20.712l.622.479.143.122 8.961 8.422-4.584-14.61 3.817-1.197 6.869 21.895 1.064 3.392-3.452-.852-22.278-5.5.959-3.883 14.864 3.669-8.886-8.352-.55-.424c-16.564-12.656-36.757-19.698-58.036-19.87L192 44c-30.748 0-59.095 14.403-77.315 38.412l-.549.73-3.208-2.387C129.87 55.303 159.664 40 192 40z"/><path id="Path-Copy-2" fill="#EE6B47" fill-rule="nonzero" d="M269.882 208.148l2.823 2.834-.366.365a533.245 533.245 0 00-3.982 4.033l-.333.34c-9.922 10.12-14.79 14.544-22.017 19.272-15.185 9.934-34.01 15.688-51.594 15.688-25.222 0-47.144-6.827-64.077-19.673l-.589-.45-.089-.07-.08-.078-8.854-8.581 4.36 14.68-3.835 1.138-6.532-21.998-1.012-3.409 3.439.906 22.19 5.841-1.018 3.868-14.808-3.898 8.766 8.497.488.374c16.02 12.15 36.782 18.698 60.792 18.85l.859.003c16.796 0 34.862-5.522 49.404-15.035 6.911-4.521 11.624-8.806 21.35-18.725l.334-.34c2.06-2.101 3.135-3.19 4.381-4.432z"/><text id="setTimeout" fill="#8A704D" font-family="PTMono-Regular, PT Mono" font-size="14" font-weight="normal"><tspan x="230" y="164">setTimeout</tspan></text></g></g></svg>