<svg xmlns="http://www.w3.org/2000/svg" width="407" height="391" viewBox="0 0 407 391"><defs><style>@import url(https://fonts.googleapis.com/css?family=Open+Sans:bold,italic,bolditalic%7CPT+Mono);@font-face{font-family:&apos;PT Mono&apos;;font-weight:700;font-style:normal;src:local(&apos;PT MonoBold&apos;),url(/font/PTMonoBold.woff2) format(&apos;woff2&apos;),url(/font/PTMonoBold.woff) format(&apos;woff&apos;),url(/font/PTMonoBold.ttf) format(&apos;truetype&apos;)}</style></defs><g id="promise" fill="none" fill-rule="evenodd" stroke="none" stroke-width="1"><g id="eventLoop-full.svg"><text id="..." fill="#000" font-family="PTMono-Regular, PT Mono" font-size="14" font-weight="normal"><tspan x="257.4" y="71">...</tspan></text><path id="Rectangle-1-Copy-6" fill="#FFF9EB" stroke="#E8C48E" stroke-width="2" d="M216 86h108v28H216z"/><path id="Rectangle-1-Copy-8" fill="#FFF9EB" stroke="#E8C48E" stroke-width="2" d="M216 195h108v28H216z"/><text id="mousemove" fill="#8A704D" font-family="PTMono-Regular, PT Mono" font-size="14" font-weight="normal"><tspan x="232.2" y="214">mousemove</tspan></text><path id="Rectangle-1-Copy-9" fill="#FFF9EB" stroke="#E8C48E" stroke-width="2" d="M216 302h108v28H216z"/><text id="event-loop" fill="#000" font-family="OpenSans-Regular, Open Sans" font-size="24" font-weight="normal"><tspan x="45.162" y="189">event</tspan> <tspan x="51.115" y="222">loop</tspan></text><g id="Group-Copy" fill="#EE6B47" transform="translate(256 267)"><path id="Fill-52" d="M23.145.978C21.737.348 20.186 0 18.56 0c-2.59 0-4.983.885-6.921 2.38L10.474.618a.286.286 0 00-.305-.125.303.303 0 00-.226.249L8.797 7.779a.317.317 0 00.07.258.287.287 0 00.22.102h.018l3.112-.206 3.504-.233a.296.296 0 00.258-.204.315.315 0 00-.078-.33l-1.46-1.415a7.18 7.18 0 014.118-1.301c1.07 0 2.083.238 3.003.662a.284.284 0 00.23.003.306.306 0 00.162-.171l1.35-3.568a.314.314 0 00-.159-.398" transform="matrix(-1 0 0 1 32.117 0)"/><path id="Fill-54" d="M12.787 13.315a12.66 12.66 0 001.346 4.7c1.225 2.393 3.101 4.186 5.274 5.27l-.929 1.908a.318.318 0 00.04.342c.077.094.201.13.315.09l6.454-2.269a.3.3 0 00.183-.187.32.32 0 00-.018-.251l-.01-.016-1.644-2.779-1.852-3.127a.29.29 0 00-.295-.142.298.298 0 00-.24.228l-.498 2.018a7.607 7.607 0 01-3.041-3.19 8.083 8.083 0 01-.865-3.087.314.314 0 00-.105-.214.286.286 0 00-.22-.068l-3.636.44a.305.305 0 00-.26.334" transform="matrix(-1 0 0 1 38.273 0)"/><path id="Fill-56" d="M2.646 22.333a12.003 12.003 0 003.205-3.576 12.684 12.684 0 001.713-7.424l2.04-.112a.293.293 0 00.262-.207.316.316 0 00-.084-.332L4.681 5.958a.28.28 0 00-.247-.072.291.291 0 00-.198.14l-.01.018-1.47 2.883-1.654 3.247a.32.32 0 00.03.339.285.285 0 00.307.104l1.916-.558a8.078 8.078 0 01-1.111 4.358 7.652 7.652 0 01-2.117 2.33.31.31 0 00-.123.203.325.325 0 00.053.234l2.183 3.08a.285.285 0 00.406.069" transform="matrix(-1 0 0 1 9.882 0)"/></g><text id="microtasks-copy" fill="#000" font-family="PTMono-Regular, PT Mono" font-size="14" font-weight="normal"><tspan x="297.5" y="282">microtasks</tspan></text><text id="render-copy" fill="#000" font-family="PTMono-Regular, PT Mono" font-size="14" font-weight="normal"><tspan x="297.3" y="251">render</tspan></text><text id="microtasks-copy-2" fill="#000" font-family="PTMono-Regular, PT Mono" font-size="14" font-weight="normal"><tspan x="297.5" y="175">microtasks</tspan></text><text id="render-copy-2" fill="#000" font-family="PTMono-Regular, PT Mono" font-size="14" font-weight="normal"><tspan x="297.3" y="142">render</tspan></text><g id="np_paint_2296353_000000-copy" fill="#EE6B47" fill-rule="nonzero" transform="translate(256 233)"><path id="Shape" d="M3.079 0A3.095 3.095 0 000 3.079V22.92A3.095 3.095 0 003.079 26H22.92A3.095 3.095 0 0026 22.921V3.08A3.095 3.095 0 0022.921 0H3.08zm0 2.053H22.92c.587 0 1.026.44 1.026 1.026v13.043l-2.886-2.684a1.027 1.027 0 00-1.443.032l-5.72 5.955-5.035-4.148a1.021 1.021 0 00-1.38.075l-5.43 5.43V3.08c0-.587.44-1.026 1.026-1.026zM6.158 3.42A3.095 3.095 0 003.078 6.5a3.095 3.095 0 003.08 3.079A3.095 3.095 0 009.237 6.5a3.095 3.095 0 00-3.08-3.079zm0 2.053c.579 0 1.026.447 1.026 1.026s-.447 1.026-1.026 1.026A1.012 1.012 0 015.132 6.5c0-.579.447-1.026 1.026-1.026zm14.176.566c-.377 0-.759.722-.759 1.08-.46.112-.748.358-.748.716s.371.717.748.717h2.662c.73 0 1.11-1.433-.021-1.433-.022-.677-.445-.86-1.134-.716-.183-.284-.375-.386-.748-.364zM16.71 9.237c-.314 0-.631.584-.631.876-.382.093-.63.296-.63.588 0 .293.316.589.63.589h2.213c.608 0 .931-1.176-.01-1.176-.018-.555-.379-.706-.952-.588-.152-.232-.31-.308-.62-.29zm3.688 6.382l3.55 3.293v4.01c0 .586-.44 1.025-1.027 1.025H3.08a1.01 1.01 0 01-.855-.449l6.05-6.04 4.202 3.453-1.24 1.294 1.475 1.422 7.687-8.008z"/></g><g id="np_paint_2296353_000000-copy-2" fill="#EE6B47" fill-rule="nonzero" transform="translate(256 124)"><path id="Shape" d="M3.079 0A3.095 3.095 0 000 3.079V22.92A3.095 3.095 0 003.079 26H22.92A3.095 3.095 0 0026 22.921V3.08A3.095 3.095 0 0022.921 0H3.08zm0 2.053H22.92c.587 0 1.026.44 1.026 1.026v13.043l-2.886-2.684a1.027 1.027 0 00-1.443.032l-5.72 5.955-5.035-4.148a1.021 1.021 0 00-1.38.075l-5.43 5.43V3.08c0-.587.44-1.026 1.026-1.026zM6.158 3.42A3.095 3.095 0 003.078 6.5a3.095 3.095 0 003.08 3.079A3.095 3.095 0 009.237 6.5a3.095 3.095 0 00-3.08-3.079zm0 2.053c.579 0 1.026.447 1.026 1.026s-.447 1.026-1.026 1.026A1.012 1.012 0 015.132 6.5c0-.579.447-1.026 1.026-1.026zm14.176.566c-.377 0-.759.722-.759 1.08-.46.112-.748.358-.748.716s.371.717.748.717h2.662c.73 0 1.11-1.433-.021-1.433-.022-.677-.445-.86-1.134-.716-.183-.284-.375-.386-.748-.364zM16.71 9.237c-.314 0-.631.584-.631.876-.382.093-.63.296-.63.588 0 .293.316.589.63.589h2.213c.608 0 .931-1.176-.01-1.176-.018-.555-.379-.706-.952-.588-.152-.232-.31-.308-.62-.29zm3.688 6.382l3.55 3.293v4.01c0 .586-.44 1.025-1.027 1.025H3.08a1.01 1.01 0 01-.855-.449l6.05-6.04 4.202 3.453-1.24 1.294 1.475 1.422 7.687-8.008z"/></g><g id="Group-Copy-2" fill="#EE6B47" transform="translate(256 159)"><path id="Fill-52" d="M23.145.978C21.737.348 20.186 0 18.56 0c-2.59 0-4.983.885-6.921 2.38L10.474.618a.286.286 0 00-.305-.125.303.303 0 00-.226.249L8.797 7.779a.317.317 0 00.07.258.287.287 0 00.22.102h.018l3.112-.206 3.504-.233a.296.296 0 00.258-.204.315.315 0 00-.078-.33l-1.46-1.415a7.18 7.18 0 014.118-1.301c1.07 0 2.083.238 3.003.662a.284.284 0 00.23.003.306.306 0 00.162-.171l1.35-3.568a.314.314 0 00-.159-.398" transform="matrix(-1 0 0 1 32.117 0)"/><path id="Fill-54" d="M12.787 13.315a12.66 12.66 0 001.346 4.7c1.225 2.393 3.101 4.186 5.274 5.27l-.929 1.908a.318.318 0 00.04.342c.077.094.201.13.315.09l6.454-2.269a.3.3 0 00.183-.187.32.32 0 00-.018-.251l-.01-.016-1.644-2.779-1.852-3.127a.29.29 0 00-.295-.142.298.298 0 00-.24.228l-.498 2.018a7.607 7.607 0 01-3.041-3.19 8.083 8.083 0 01-.865-3.087.314.314 0 00-.105-.214.286.286 0 00-.22-.068l-3.636.44a.305.305 0 00-.26.334" transform="matrix(-1 0 0 1 38.273 0)"/><path id="Fill-56" d="M2.646 22.333a12.003 12.003 0 003.205-3.576 12.684 12.684 0 001.713-7.424l2.04-.112a.293.293 0 00.262-.207.316.316 0 00-.084-.332L4.681 5.958a.28.28 0 00-.247-.072.291.291 0 00-.198.14l-.01.018-1.47 2.883-1.654 3.247a.32.32 0 00.03.339.285.285 0 00.307.104l1.916-.558a8.078 8.078 0 01-1.111 4.358 7.652 7.652 0 01-2.117 2.33.31.31 0 00-.123.203.325.325 0 00.053.234l2.183 3.08a.285.285 0 00.406.069" transform="matrix(-1 0 0 1 9.882 0)"/></g><path id="Path" fill="#EE6B47" fill-rule="nonzero" d="M240.536 23.5c18.067 0 28.19 5.407 30.493 19.865l.067.441.016.179.264 10.223 5.906-11.165 2.652 1.402-8.582 16.229-1.247 2.357-1.367-2.29-9.412-15.76 2.576-1.539 6.476 10.845-.263-10.128-.046-.305c-1.998-12.562-10.586-17.259-27.028-17.353l-.505-.001h-51.072c-18.854 0-27.785 5.925-27.961 22.709l-.003.512v294.675c0 9.183 2.661 14.683 7.881 17.703 4.3 2.487 10.047 3.365 19.488 3.4l.595.001h51.072c9.796 0 15.693-.862 20.083-3.401 5.127-2.966 7.785-8.324 7.878-17.214l.003-.489v-6.472h3v6.472c0 10.183-3.152 16.697-9.379 20.3-4.884 2.825-11.037 3.766-20.972 3.803l-.613.001h-51.072c-10.296 0-16.602-.921-21.585-3.804-6.122-3.542-9.271-9.897-9.376-19.785l-.003-.515V49.721c0-18.944 10.246-26.078 30.352-26.219l.612-.002h51.072z"/><text id="script" fill="#8A704D" font-family="PTMono-Regular, PT Mono" font-size="14" font-weight="normal"><tspan x="245.3" y="105">script</tspan></text><text id="setTimeout" fill="#8A704D" font-family="PTMono-Regular, PT Mono" font-size="14" font-weight="normal"><tspan x="228.5" y="321">setTimeout</tspan></text></g></g></svg>