<svg xmlns="http://www.w3.org/2000/svg" width="479" height="279" viewBox="0 0 479 279"><defs><style>@import url(https://fonts.googleapis.com/css?family=Open+Sans:bold,italic,bolditalic%7CPT+Mono);@font-face{font-family:&apos;PT Mono&apos;;font-weight:700;font-style:normal;src:local(&apos;PT MonoBold&apos;),url(/font/PTMonoBold.woff2) format(&apos;woff2&apos;),url(/font/PTMonoBold.woff) format(&apos;woff&apos;),url(/font/PTMonoBold.ttf) format(&apos;truetype&apos;)}</style></defs><g id="promise" fill="none" fill-rule="evenodd" stroke="none" stroke-width="1"><g id="eventLoop.svg"><path id="Rectangle-1-Copy-5" fill="#FFF9EB" stroke="#E8C48E" stroke-width="2" d="M218 173h108v28H218z"/><text id="..." fill="#8A704D" font-family="PTMono-Regular, PT Mono" font-size="14" font-weight="normal"><tspan x="258.9" y="189">...</tspan></text><path id="Rectangle-1-Copy-6" fill="#FFF9EB" stroke="#E8C48E" stroke-width="2" d="M218 90h108v28H218z"/><path id="Rectangle-1-Copy-8" fill="#FFF9EB" stroke="#E8C48E" stroke-width="2" d="M218 117h108v28H218z"/><text id="mousemove" fill="#8A704D" font-family="PTMono-Regular, PT Mono" font-size="14" font-weight="normal"><tspan x="233.7" y="136">mousemove</tspan></text><path id="Rectangle-1-Copy-9" fill="#FFF9EB" stroke="#E8C48E" stroke-width="2" d="M218 145h108v28H218z"/><text id="script" fill="#8A704D" font-family="PTMono-Regular, PT Mono" font-size="14" font-weight="normal"><tspan x="246.8" y="109">script</tspan></text><text id="event-loop" fill="#000" font-family="OpenSans-Regular, Open Sans" font-size="24" font-weight="normal"><tspan x="69.662" y="134">event</tspan> <tspan x="75.615" y="167">loop</tspan></text><text id="macrotask-queue" fill="#9B9B9B" font-family="OpenSans-Regular, Open Sans" font-size="24" font-weight="normal"><tspan x="345.111" y="136">macrotask</tspan> <tspan x="367.951" y="169">queue</tspan></text><path id="Path" fill="#EE6B47" fill-rule="nonzero" d="M263.01 69.735l-4.583-14.61 3.817-1.197 7.933 25.287-25.73-6.351.959-3.884 14.865 3.67-8.892-8.357C234.508 51.213 213.806 44 192 44c-31.059 0-59.667 14.695-77.864 39.143l-3.208-2.388C129.87 55.303 159.664 40 192 40c22.734 0 44.327 7.535 61.907 21.191l.143.122 8.96 8.422z"/><path id="Path-Copy-2" fill="#EE6B47" fill-rule="nonzero" d="M120.725 221.829l4.358 14.678-3.834 1.139-7.544-25.407 25.63 6.747-1.019 3.868-14.807-3.898 8.771 8.502c16.274 12.532 37.517 19.222 62.133 19.222 16.796 0 34.862-5.522 49.404-15.035 6.911-4.521 11.624-8.806 21.35-18.725l.334-.34c2.06-2.101 3.135-3.19 4.381-4.432l2.823 2.834a488.86 488.86 0 00-4.348 4.398l-.333.34c-9.922 10.12-14.79 14.544-22.017 19.272-15.185 9.934-34.01 15.688-51.594 15.688-25.515 0-47.653-6.986-64.666-20.124l-.089-.069-8.933-8.658z"/><text id="setTimeout" fill="#8A704D" font-family="PTMono-Regular, PT Mono" font-size="14" font-weight="normal"><tspan x="230" y="164">setTimeout</tspan></text></g></g></svg>