<svg xmlns="http://www.w3.org/2000/svg" width="599" height="260" viewBox="0 0 599 260"><defs><style>@import url(https://fonts.googleapis.com/css?family=Open+Sans:bold,italic,bolditalic%7CPT+Mono);@font-face{font-family:&apos;PT Mono&apos;;font-weight:700;font-style:normal;src:local(&apos;PT MonoBold&apos;),url(/font/PTMonoBold.woff2) format(&apos;woff2&apos;),url(/font/PTMonoBold.woff) format(&apos;woff&apos;),url(/font/PTMonoBold.ttf) format(&apos;truetype&apos;)}</style></defs><g id="combined" fill="none" fill-rule="evenodd" stroke="none" stroke-width="1"><g id="variable-copy-reference.svg"><g id="Group" transform="translate(11 125)"><g id="noun_1211_cc" fill="#DBAF88"><path id="Shape" d="M17 28.196h112.558v42.95c0 .373-.079.862-.279 1.294-.2.433-16.574 35.56-16.574 35.56V53.64l16.854-25.444L148 0H35.44L17 28.196zM17 57V29L2 57"/><path id="Shape" d="M0 59v54.73c0 3.42 1.484 5.27 4.387 5.27h100.086c3.122 0 5.527-2.548 5.527-3.476V59H0z"/></g><text id="user" fill="#FFF" font-family="OpenSans-Bold, Open Sans" font-size="18" font-weight="bold"><tspan x="35" y="96">user</tspan></text><g id="Rectangle-4-+-Shape-3" transform="translate(104 15)"><path id="Rectangle-4" fill="#FFF" d="M0 19h44v6H0z"/><path id="Shape-3" fill="#C06334" d="M7.854 20.322L21.633 6.846c1.613-1.274 5.185-4.427 3.572-5.702-1.613-1.275-2.664-.472-4.275.803L2.43 20.322c-1.613 1.275-1.613 2.845 0 4.12 0 0 21.483 20.067 22.774 20.067 3.005 0 2.677-1.821 1.064-3.096L7.854 23.587H85.028c2.281 0 3.75.279 3.75-1.524 0-1.804-1.469-1.741-3.75-1.741H7.854z" transform="matrix(-1 0 0 1 90 0)"/></g><g id="Rectangle-3-+-Shape" transform="translate(46 16)"><path id="Rectangle-3" fill="#FFF" d="M0 0h47v37H0z"/><path id="Shape" fill="#C06334" d="M44 33.772H4V4h40v29.772zM8.733 31.018h30.533L29.22 20.868l-1.902 1.889c-.824.812-2.003 1.277-3.242 1.277l-.021-.001c-1.244-.005-2.427-.48-3.246-1.304l-1.934-1.933-10.14 10.222zM6.791 8.726V29.04l10.122-10.202L6.79 8.726zm24.395 10.187L41.209 29.04V8.954l-10.023 9.96zM8.74 6.755l14.057 14.042c.304.305.766.48 1.27.482h.008c.496 0 .968-.173 1.264-.467L39.49 6.755H8.739z"/></g></g><g id="noun_1211_cc" fill="#DBAF88" transform="translate(418 125)"><path id="Shape" d="M17 28.196h112.558v42.95c0 .373-.079.862-.279 1.294-.2.433-16.574 35.56-16.574 35.56V53.64l16.854-25.444L148 0H35.44L17 28.196zM17 57V29L2 57"/><path id="Shape" d="M0 59v54.73c0 3.42 1.484 5.27 4.387 5.27h100.086c3.122 0 5.527-2.548 5.527-3.476V59H0z"/></g><text id="admin" fill="#FFF" font-family="OpenSans-Bold, Open Sans" font-size="18" font-weight="bold"><tspan x="446" y="221">admin</tspan></text><g id="Rectangle-4-+-Shape-3" transform="matrix(-1 0 0 1 451 140)"><path id="Rectangle-4" fill="#FFF" d="M0 19h44v6H0z"/><path id="Shape-3" fill="#C06334" d="M7.854 20.322L21.633 6.846c1.613-1.274 5.185-4.427 3.572-5.702-1.613-1.275-2.664-.472-4.275.803L2.43 20.322c-1.613 1.275-1.613 2.845 0 4.12 0 0 21.483 20.067 22.774 20.067 3.005 0 2.677-1.821 1.064-3.096L7.854 23.587H85.028c2.281 0 3.75.279 3.75-1.524 0-1.804-1.469-1.741-3.75-1.741H7.854z" transform="matrix(-1 0 0 1 90 0)"/></g><g id="Rectangle-3-+-Shape" transform="translate(464 141)"><path id="Rectangle-3" fill="#FFF" d="M0 0h47v37H0z"/><path id="Shape" fill="#C06334" d="M44 33.772H4V4h40v29.772zM8.733 31.018h30.533L29.22 20.868l-1.902 1.889c-.824.812-2.003 1.277-3.242 1.277l-.021-.001c-1.244-.005-2.427-.48-3.246-1.304l-1.934-1.933-10.14 10.222zM6.791 8.726V29.04l10.122-10.202L6.79 8.726zm24.395 10.187L41.209 29.04V8.954l-10.023 9.96zM8.74 6.755l14.057 14.042c.304.305.766.48 1.27.482h.008c.496 0 .968-.173 1.264-.467L39.49 6.755H8.739z"/></g><path id="Rectangle-4-Copy" fill="#DBAF88" stroke="#DBAF88" stroke-width="4" d="M333.063 125l16.667 20H219.27l16.667-20h97.126z" opacity=".5"/><g id="Group-2" transform="translate(265 18)"><g id="Group"><path id="Rectangle-7" fill="#FFF" d="M0 0h32v124H0z"/><path id="Combined-Shape" fill="#DBAF88" d="M32 0v124H0V0h32zM16.5 100a7.5 7.5 0 100 15 7.5 7.5 0 000-15zM28 5H4v87h24V5z"/></g><text id="name" fill="#C06334" font-family="PTMono-Bold, PT Mono" font-size="16" font-weight="bold" transform="rotate(-90 15.5 47.5)"><tspan x="-3.7" y="52.5">name</tspan></text></g><path id="Rectangle-4" fill="#FBF2EC" stroke="#DBAF88" stroke-width="4" d="M217 139h135v50H217z"/><path id="Rectangle-8" stroke="#DBAF88" stroke-width="3" d="M272.5 159.5h25v10h-25z"/></g></g></svg>