<?xml version="1.0" encoding="UTF-8" standalone="no"?>
<svg width="661px" height="399px" viewBox="0 0 661 399" version="1.1" xmlns="http://www.w3.org/2000/svg" xmlns:xlink="http://www.w3.org/1999/xlink" xmlns:sketch="http://www.bohemiancoding.com/sketch/ns">
    <!-- Generator: Sketch 3.2.2 (9983) - http://www.bohemiancoding.com/sketch -->
    <title>native-prototypes-classes</title>
    <desc>Created with Sketch.</desc>
    <defs></defs>
    <g id="native-prototypes-classes" stroke="none" stroke-width="1" fill="none" fill-rule="evenodd" sketch:type="MSPage">
        <g sketch:type="MSLayerGroup" transform="translate(1.000000, 0.000000)">
            <g id="Rectangle-1-+-eats:-true-+-animal" transform="translate(226.000000, 69.000000)">
                <rect id="Rectangle-1" stroke="#979797" sketch:type="MSShapeGroup" x="0" y="17" width="200" height="60"></rect>
                <text id="toString:-function" sketch:type="MSTextLayer" font-family="Consolas" font-size="14" font-weight="normal" fill="#000000">
                    <tspan x="11" y="41">toString: function</tspan>
                    <tspan x="11" y="57">другие методы объектов</tspan>
                </text>
                <text id="Object.prototype" sketch:type="MSTextLayer" font-family="Consolas" font-size="14" font-style="italic" font-weight="normal" fill="#000000">
                    <tspan x="0" y="10">Object.prototype</tspan>
                </text>
            </g>
            <path d="M286.5,62.5 L286.5,21.5" id="Line-2" stroke="#4990E2" stroke-linecap="square" fill="#4990E2" sketch:type="MSShapeGroup"></path>
            <path id="Line-2-decoration-1" d="M286.5,21.5 C285.45,25.28 284.55,28.52 283.5,32.3 C285.6,32.3 287.4,32.3 289.5,32.3 C288.45,28.52 287.55,25.28 286.5,21.5 C286.5,21.5 286.5,21.5 286.5,21.5 Z" stroke="#4990E2" stroke-linecap="square" fill="#4990E2"></path>
            <text id="__proto__-2" sketch:type="MSTextLayer" font-family="Consolas" font-size="14" font-weight="normal" fill="#4990E2">
                <tspan x="296" y="43">__proto__</tspan>
            </text>
            <path d="M286.5,195.5 L286.5,154.5" id="Line-3" stroke="#4990E2" stroke-linecap="square" fill="#4990E2" sketch:type="MSShapeGroup"></path>
            <path id="Line-3-decoration-1" d="M286.5,154.5 C285.45,158.28 284.55,161.52 283.5,165.3 C285.6,165.3 287.4,165.3 289.5,165.3 C288.45,161.52 287.55,158.28 286.5,154.5 C286.5,154.5 286.5,154.5 286.5,154.5 Z" stroke="#4990E2" stroke-linecap="square" fill="#4990E2"></path>
            <text id="null" sketch:type="MSTextLayer" font-family="Consolas" font-size="14" font-weight="normal" fill="#000000">
                <tspan x="272" y="10">null</tspan>
            </text>
            <g id="Rectangle-1-+-eats:-true-+-animal-2" transform="translate(0.000000, 166.000000)">
                <rect id="Rectangle-1" stroke="#979797" sketch:type="MSShapeGroup" x="0" y="51" width="200" height="60"></rect>
                <text id="slice:-function" sketch:type="MSTextLayer" font-family="Consolas" font-size="14" font-weight="normal" fill="#000000">
                    <tspan x="11" y="75">slice: function</tspan>
                    <tspan x="11" y="91">другие методы массивов</tspan>
                </text>
                <text id="__proto__-3" sketch:type="MSTextLayer" font-family="Consolas" font-size="14" font-weight="normal" fill="#4990E2">
                    <tspan x="68" y="10">__proto__</tspan>
                </text>
                <text id="Array.prototype" sketch:type="MSTextLayer" font-family="Consolas" font-size="14" font-style="italic" font-weight="normal" fill="#000000">
                    <tspan x="0" y="44">Array.prototype</tspan>
                </text>
            </g>
            <g id="Rectangle-1-+-eats:-true-+-animal-3" transform="translate(229.000000, 166.000000)">
                <rect id="Rectangle-1" stroke="#979797" sketch:type="MSShapeGroup" x="0" y="51" width="200" height="60"></rect>
                <text id="__proto__" sketch:type="MSTextLayer" font-family="Consolas" font-size="14" font-weight="normal" fill="#4990E2">
                    <tspan x="67" y="10">__proto__</tspan>
                </text>
                <text id="apply:-function" sketch:type="MSTextLayer" font-family="Consolas" font-size="14" font-weight="normal" fill="#000000">
                    <tspan x="11" y="75">apply: function</tspan>
                    <tspan x="11" y="91">другие методы функций</tspan>
                </text>
                <text id="Function.prototype" sketch:type="MSTextLayer" font-family="Consolas" font-size="14" font-style="italic" font-weight="normal" fill="#000000">
                    <tspan x="0" y="44">Function.prototype</tspan>
                </text>
            </g>
            <g id="Rectangle-1-+-eats:-true-+-animal-4" transform="translate(460.000000, 166.000000)">
                <rect id="Rectangle-1" stroke="#979797" sketch:type="MSShapeGroup" x="0" y="51" width="200" height="60"></rect>
                <text id="toFixed:-function" sketch:type="MSTextLayer" font-family="Consolas" font-size="14" font-weight="normal" fill="#000000">
                    <tspan x="11" y="75">toFixed: function</tspan>
                    <tspan x="11" y="91">другие методы чисел</tspan>
                </text>
                <text id="Number.prototype" sketch:type="MSTextLayer" font-family="Consolas" font-size="14" font-style="italic" font-weight="normal" fill="#000000">
                    <tspan x="0" y="44">Number.prototype</tspan>
                </text>
                <text id="__proto__-4" sketch:type="MSTextLayer" font-family="Consolas" font-size="14" font-weight="normal" fill="#4990E2">
                    <tspan x="68" y="10">__proto__</tspan>
                </text>
            </g>
            <path d="M129.5,187.5 L207.5,151.5" id="Line" stroke="#4990E2" stroke-linecap="square" fill="#4990E2" sketch:type="MSShapeGroup"></path>
            <path id="Line-decoration-1" d="M206.676548,151.880055 C202.80445,152.510737 199.485509,153.051323 195.613412,153.682005 C196.493434,155.58872 197.247739,157.223047 198.127761,159.129761 C201.119836,156.592364 203.684472,154.417452 206.676548,151.880055 C206.676548,151.880055 206.676548,151.880055 206.676548,151.880055 Z" stroke="#4990E2" stroke-linecap="square" fill="#4990E2"></path>
            <path d="M526.5,187.5 L449.5,151.5" id="Line" stroke="#4990E2" stroke-linecap="square" fill="#4990E2" sketch:type="MSShapeGroup"></path>
            <path id="Line-decoration-1" d="M449.5,151.5 C452.479529,154.052118 455.033412,156.239647 458.012941,158.791765 C458.902353,156.889412 459.664706,155.258824 460.554118,153.356471 C456.685176,152.706706 453.368941,152.149765 449.5,151.5 C449.5,151.5 449.5,151.5 449.5,151.5 Z" stroke="#4990E2" stroke-linecap="square" fill="#4990E2"></path>
            <rect id="Rectangle-5" stroke="#979797" sketch:type="MSShapeGroup" x="34" y="332" width="119" height="25"></rect>
            <text id="[1,-2,-3]" sketch:type="MSTextLayer" font-family="Consolas" font-size="14" font-weight="normal" fill="#000000">
                <tspan x="58" y="348">[1, 2, 3]</tspan>
            </text>
            <rect id="Rectangle-6" stroke="#979797" sketch:type="MSShapeGroup" x="237" y="332" width="181" height="67"></rect>
            <text id="function-f(args)-{" sketch:type="MSTextLayer" font-family="Consolas" font-size="14" font-weight="normal" fill="#000000">
                <tspan x="251" y="352">function f(args) {</tspan>
                <tspan x="251" y="368">  ...</tspan>
                <tspan x="251" y="384">}</tspan>
            </text>
            <rect id="Rectangle-7" stroke="#979797" sketch:type="MSShapeGroup" x="527" y="332" width="71" height="25"></rect>
            <text id="5" sketch:type="MSTextLayer" font-family="Consolas" font-size="14" font-weight="normal" fill="#000000">
                <tspan x="560" y="349">5</tspan>
            </text>
            <path d="M286.5,325.5 L286.5,284.5" id="Line-4" stroke="#4990E2" stroke-linecap="square" fill="#4990E2" sketch:type="MSShapeGroup"></path>
            <path id="Line-4-decoration-1" d="M286.5,284.5 C285.45,288.28 284.55,291.52 283.5,295.3 C285.6,295.3 287.4,295.3 289.5,295.3 C288.45,291.52 287.55,288.28 286.5,284.5 C286.5,284.5 286.5,284.5 286.5,284.5 Z" stroke="#4990E2" stroke-linecap="square" fill="#4990E2"></path>
            <text id="__proto__-5" sketch:type="MSTextLayer" font-family="Consolas" font-size="14" font-weight="normal" fill="#4990E2">
                <tspan x="296" y="306">__proto__</tspan>
            </text>
            <path d="M563.5,325.5 L563.5,284.5" id="Line-5" stroke="#4990E2" stroke-linecap="square" fill="#4990E2" sketch:type="MSShapeGroup"></path>
            <path id="Line-5-decoration-1" d="M563.5,284.5 C562.45,288.28 561.55,291.52 560.5,295.3 C562.6,295.3 564.4,295.3 566.5,295.3 C565.45,291.52 564.55,288.28 563.5,284.5 C563.5,284.5 563.5,284.5 563.5,284.5 Z" stroke="#4990E2" stroke-linecap="square" fill="#4990E2"></path>
            <text id="__proto__-6" sketch:type="MSTextLayer" font-family="Consolas" font-size="14" font-weight="normal" fill="#4990E2">
                <tspan x="573" y="306">__proto__</tspan>
            </text>
            <path d="M93.5,325.5 L93.5,284.5" id="Line-6" stroke="#4990E2" stroke-linecap="square" fill="#4990E2" sketch:type="MSShapeGroup"></path>
            <path id="Line-6-decoration-1" d="M93.5,284.5 C92.45,288.28 91.55,291.52 90.5,295.3 C92.6,295.3 94.4,295.3 96.5,295.3 C95.45,291.52 94.55,288.28 93.5,284.5 C93.5,284.5 93.5,284.5 93.5,284.5 Z" stroke="#4990E2" stroke-linecap="square" fill="#4990E2"></path>
            <text id="__proto__-7" sketch:type="MSTextLayer" font-family="Consolas" font-size="14" font-weight="normal" fill="#4990E2">
                <tspan x="103" y="306">__proto__</tspan>
            </text>
        </g>
    </g>
</svg>