<?xml version="1.0" encoding="UTF-8" standalone="no"?>
<svg width="225px" height="249px" viewBox="0 0 225 249" version="1.1" xmlns="http://www.w3.org/2000/svg" xmlns:xlink="http://www.w3.org/1999/xlink" xmlns:sketch="http://www.bohemiancoding.com/sketch/ns">
    <!-- Generator: bin/sketchtool 1.3 (252) - http://www.bohemiancoding.com/sketch -->
    <title>native-prototypes-object.svg</title>
    <desc>Created with bin/sketchtool.</desc>
    <defs></defs>
    <g id="combined" stroke="none" stroke-width="1" fill="none" fill-rule="evenodd" sketch:type="MSPage">
        <g id="native-prototypes-object.svg" sketch:type="MSArtboardGroup">
            <rect id="Rectangle-1" stroke="#E8C48E" stroke-width="2" sketch:type="MSShapeGroup" x="13" y="95" width="200" height="60"></rect>
            <text id="toString:-function" sketch:type="MSTextLayer" font-family="Consolas" font-size="14" font-weight="normal" fill="#8A704D">
                <tspan x="24" y="119">toString: function</tspan>
                <tspan x="24" y="135">другие методы объектов</tspan>
            </text>
            <text id="Object.prototype" sketch:type="MSTextLayer" font-family="Consolas" font-size="14" font-style="italic" font-weight="normal" fill="#8A704D">
                <tspan x="13" y="88">Object.prototype</tspan>
            </text>
            <rect id="Rectangle-1" stroke="#E8C48E" stroke-width="2" sketch:type="MSShapeGroup" x="13" y="212" width="200" height="30"></rect>
            <text id="obj" sketch:type="MSTextLayer" font-family="Consolas" font-size="14" font-style="italic" font-weight="normal" fill="#8A704D">
                <tspan x="13" y="205">obj</tspan>
            </text>
            <path d="M73.5,203.5 L73.5,162.5" id="Line" stroke="#EE6B47" stroke-width="2" stroke-linecap="square" fill="#EE6B47" sketch:type="MSShapeGroup"></path>
            <path id="Line-decoration-1" d="M73.5,162.5 C72.45,166.28 71.55,169.52 70.5,173.3 C72.6,173.3 74.4,173.3 76.5,173.3 C75.45,169.52 74.55,166.28 73.5,162.5 C73.5,162.5 73.5,162.5 73.5,162.5 Z" stroke="#EE6B47" stroke-width="2" stroke-linecap="square" fill="#EE6B47"></path>
            <text id="__proto__" sketch:type="MSTextLayer" font-family="Consolas" font-size="14" font-weight="normal" fill="#8A704D">
                <tspan x="83" y="184">__proto__</tspan>
            </text>
            <path d="M73.5,71.5 L73.5,30.5" id="Line-2" stroke="#EE6B47" stroke-width="2" stroke-linecap="square" fill="#EE6B47" sketch:type="MSShapeGroup"></path>
            <path id="Line-2-decoration-1" d="M73.5,30.5 C72.45,34.28 71.55,37.52 70.5,41.3 C72.6,41.3 74.4,41.3 76.5,41.3 C75.45,37.52 74.55,34.28 73.5,30.5 C73.5,30.5 73.5,30.5 73.5,30.5 Z" stroke="#EE6B47" stroke-width="2" stroke-linecap="square" fill="#EE6B47"></path>
            <text id="__proto__-2" sketch:type="MSTextLayer" font-family="Consolas" font-size="14" font-weight="normal" fill="#8A704D">
                <tspan x="83" y="52">__proto__</tspan>
            </text>
            <text id="null" sketch:type="MSTextLayer" font-family="Consolas" font-size="14" font-weight="normal" fill="#8A704D">
                <tspan x="59" y="19">null</tspan>
            </text>
        </g>
    </g>
</svg>