<?xml version="1.0" encoding="UTF-8" standalone="no"?>
<svg width="200px" height="233px" viewBox="0 0 200 233" version="1.1" xmlns="http://www.w3.org/2000/svg" xmlns:xlink="http://www.w3.org/1999/xlink" xmlns:sketch="http://www.bohemiancoding.com/sketch/ns">
    <!-- Generator: Sketch 3.2.2 (9983) - http://www.bohemiancoding.com/sketch -->
    <title>native-prototype-object</title>
    <desc>Created with Sketch.</desc>
    <defs></defs>
    <g id="native-prototype-object" stroke="none" stroke-width="1" fill="none" fill-rule="evenodd" sketch:type="MSPage">
        <g sketch:type="MSLayerGroup">
            <g id="Rectangle-1-+-eats:-true-+-animal" transform="translate(0.000000, 69.000000)">
                <rect id="Rectangle-1" stroke="#979797" sketch:type="MSShapeGroup" x="0" y="17" width="200" height="60"></rect>
                <text id="toString:-function" sketch:type="MSTextLayer" font-family="Consolas" font-size="14" font-weight="normal" fill="#000000">
                    <tspan x="11" y="41">toString: function</tspan>
                    <tspan x="11" y="57">другие методы объектов</tspan>
                </text>
                <text id="Object.prototype" sketch:type="MSTextLayer" font-family="Consolas" font-size="14" font-style="italic" font-weight="normal" fill="#000000">
                    <tspan x="0" y="10">Object.prototype</tspan>
                </text>
            </g>
            <g id="Rectangle-1-+-eats:-true-+-animal-2" transform="translate(0.000000, 186.000000)">
                <rect id="Rectangle-1" stroke="#979797" sketch:type="MSShapeGroup" x="0" y="17" width="200" height="30"></rect>
                <text id="obj" sketch:type="MSTextLayer" font-family="Consolas" font-size="14" font-style="italic" font-weight="normal" fill="#000000">
                    <tspan x="0" y="10">obj</tspan>
                </text>
            </g>
            <path d="M60.5,194.5 L60.5,153.5" id="Line" stroke="#4990E2" stroke-linecap="square" fill="#4990E2" sketch:type="MSShapeGroup"></path>
            <path id="Line-decoration-1" d="M60.5,153.5 C59.45,157.28 58.55,160.52 57.5,164.3 C59.6,164.3 61.4,164.3 63.5,164.3 C62.45,160.52 61.55,157.28 60.5,153.5 C60.5,153.5 60.5,153.5 60.5,153.5 Z" stroke="#4990E2" stroke-linecap="square" fill="#4990E2"></path>
            <text id="__proto__" sketch:type="MSTextLayer" font-family="Consolas" font-size="14" font-weight="normal" fill="#4990E2">
                <tspan x="70" y="175">__proto__</tspan>
            </text>
            <path d="M60.5,62.5 L60.5,21.5" id="Line-2" stroke="#4990E2" stroke-linecap="square" fill="#4990E2" sketch:type="MSShapeGroup"></path>
            <path id="Line-2-decoration-1" d="M60.5,21.5 C59.45,25.28 58.55,28.52 57.5,32.3 C59.6,32.3 61.4,32.3 63.5,32.3 C62.45,28.52 61.55,25.28 60.5,21.5 C60.5,21.5 60.5,21.5 60.5,21.5 Z" stroke="#4990E2" stroke-linecap="square" fill="#4990E2"></path>
            <text id="__proto__-2" sketch:type="MSTextLayer" font-family="Consolas" font-size="14" font-weight="normal" fill="#4990E2">
                <tspan x="70" y="43">__proto__</tspan>
            </text>
            <text id="null" sketch:type="MSTextLayer" font-family="Consolas" font-size="14" font-weight="normal" fill="#4990E2">
                <tspan x="46" y="10">null</tspan>
            </text>
        </g>
    </g>
</svg>