<svg xmlns="http://www.w3.org/2000/svg" width="410" height="150" viewBox="0 0 410 150"><defs><style>@import url(https://fonts.googleapis.com/css?family=Open+Sans:bold,italic,bolditalic%7CPT+Mono);@font-face{font-family:&apos;PT Mono&apos;;font-weight:700;font-style:normal;src:local(&apos;PT MonoBold&apos;),url(/font/PTMonoBold.woff2) format(&apos;woff2&apos;),url(/font/PTMonoBold.woff) format(&apos;woff&apos;),url(/font/PTMonoBold.ttf) format(&apos;truetype&apos;)}</style></defs><g id="combined" fill="none" fill-rule="evenodd" stroke="none" stroke-width="1"><g id="linked-list-split.svg"><path id="Rectangle-15" fill="#FBF2EC" stroke="#DBAF88" stroke-width="2" d="M89 30h78v32H89z"/><text id="value" fill="#AF6E24" font-family="PTMono-Regular, PT Mono" font-size="14" font-weight="normal"><tspan x="91" y="20">value</tspan></text><text id="-8" fill="#AF6E24" font-family="PTMono-Regular, PT Mono" font-size="14" font-weight="normal"><tspan x="123" y="50">1</tspan></text><path id="Line-21" fill="#C06334" fill-rule="nonzero" d="M211.27 38l14 7-14 7-.001-6H152.73v-2h58.539l.001-6z"/><text id="next" fill="#C06334" font-family="PTMono-Regular, PT Mono" font-size="14" font-weight="normal"><tspan x="177" y="34">next</tspan></text><path id="Rectangle-11" fill="#FBF2EC" stroke="#DBAF88" stroke-width="2" d="M229 30h78v32h-78z"/><text id="value-2" fill="#AF6E24" font-family="PTMono-Regular, PT Mono" font-size="14" font-weight="normal"><tspan x="231" y="20">value</tspan></text><text id="-9" fill="#AF6E24" font-family="PTMono-Regular, PT Mono" font-size="14" font-weight="normal"><tspan x="263" y="50">2</tspan></text><path id="Line-22" fill="#C06334" fill-rule="nonzero" d="M351.27 38l14 7-14 7v-6h-58.54v-2h58.54v-6z"/><text id="next-2" fill="#C06334" font-family="PTMono-Regular, PT Mono" font-size="14" font-weight="normal"><tspan x="317" y="34">next</tspan></text><path id="Rectangle-13" fill="#FBF2EC" stroke="#DBAF88" stroke-width="2" d="M88 95h78v32H88z"/><text id="value-3" fill="#AF6E24" font-family="PTMono-Regular, PT Mono" font-size="14" font-weight="normal"><tspan x="90" y="85">value</tspan></text><text id="-10" fill="#AF6E24" font-family="PTMono-Regular, PT Mono" font-size="14" font-weight="normal"><tspan x="122" y="115">3</tspan></text><path id="Line-23" fill="#C06334" fill-rule="nonzero" d="M210.27 103l14 7-14 7-.001-6H151.73v-2h58.539l.001-6z"/><text id="next-3" fill="#C06334" font-family="PTMono-Regular, PT Mono" font-size="14" font-weight="normal"><tspan x="176" y="99">next</tspan></text><path id="Rectangle-14" fill="#FBF2EC" stroke="#DBAF88" stroke-width="2" d="M228 95h78v32h-78z"/><text id="value-4" fill="#AF6E24" font-family="PTMono-Regular, PT Mono" font-size="14" font-weight="normal"><tspan x="230" y="85">value</tspan></text><text id="4" fill="#AF6E24" font-family="PTMono-Regular, PT Mono" font-size="14" font-weight="normal"><tspan x="262" y="115">4</tspan></text><path id="Line-24" fill="#C06334" fill-rule="nonzero" d="M350.27 103l14 7-14 7v-6h-58.54v-2h58.54v-6z"/><text id="next-4" fill="#C06334" font-family="PTMono-Regular, PT Mono" font-size="14" font-weight="normal"><tspan x="316" y="99">next</tspan></text><text id="null" fill="#AF6E24" font-family="PTMono-Regular, PT Mono" font-size="14" font-weight="normal"><tspan x="372" y="114">null</tspan></text><text id="null-copy" fill="#AF6E24" font-family="PTMono-Regular, PT Mono" font-size="14" font-weight="normal"><tspan x="372" y="49">null</tspan></text><text id="secondList" fill="#AF6E24" font-family="PTMono-Regular, PT Mono" font-size="14" font-weight="normal"><tspan x="0" y="114">secondList</tspan></text><text id="list" fill="#AF6E24" font-family="PTMono-Regular, PT Mono" font-size="14" font-weight="normal"><tspan x="51" y="49">list</tspan></text></g></g></svg>