<svg xmlns="http://www.w3.org/2000/svg" width="652" height="77" viewBox="0 0 652 77"><defs><style>@import url(https://fonts.googleapis.com/css?family=Open+Sans:bold,italic,bolditalic%7CPT+Mono);@font-face{font-family:&apos;PT Mono&apos;;font-weight:700;font-style:normal;src:local(&apos;PT MonoBold&apos;),url(/font/PTMonoBold.woff2) format(&apos;woff2&apos;),url(/font/PTMonoBold.woff) format(&apos;woff&apos;),url(/font/PTMonoBold.ttf) format(&apos;truetype&apos;)}</style></defs><g id="combined" fill="none" fill-rule="evenodd" stroke="none" stroke-width="1"><g id="linked-list.svg"><path id="Rectangle-15" fill="#FFF9EB" stroke="#E8C48E" stroke-width="2" d="M48 30h78v32H48z"/><text id="value" fill="#8A704D" font-family="PTMono-Regular, PT Mono" font-size="14" font-weight="normal"><tspan x="50" y="20">value</tspan></text><text id="-8" fill="#8A704D" font-family="PTMono-Regular, PT Mono" font-size="14" font-weight="normal"><tspan x="82" y="50">1</tspan></text><path id="Line-21" fill="#EE6B47" fill-rule="nonzero" d="M170.27 38l14 7-14 7-.001-6H111.73v-2h58.539l.001-6z"/><text id="next" fill="#EE6B47" font-family="PTMono-Regular, PT Mono" font-size="14" font-weight="normal"><tspan x="136" y="34">next</tspan></text><path id="Rectangle-11" fill="#FFF9EB" stroke="#E8C48E" stroke-width="2" d="M188 30h78v32h-78z"/><text id="value-2" fill="#8A704D" font-family="PTMono-Regular, PT Mono" font-size="14" font-weight="normal"><tspan x="190" y="20">value</tspan></text><text id="-9" fill="#8A704D" font-family="PTMono-Regular, PT Mono" font-size="14" font-weight="normal"><tspan x="222" y="50">2</tspan></text><path id="Line-22" fill="#EE6B47" fill-rule="nonzero" d="M310.27 38l14 7-14 7v-6h-58.54v-2h58.54v-6z"/><text id="next-2" fill="#EE6B47" font-family="PTMono-Regular, PT Mono" font-size="14" font-weight="normal"><tspan x="276" y="34">next</tspan></text><path id="Rectangle-13" fill="#FFF9EB" stroke="#E8C48E" stroke-width="2" d="M327 30h78v32h-78z"/><text id="value-3" fill="#8A704D" font-family="PTMono-Regular, PT Mono" font-size="14" font-weight="normal"><tspan x="329" y="20">value</tspan></text><text id="-10" fill="#8A704D" font-family="PTMono-Regular, PT Mono" font-size="14" font-weight="normal"><tspan x="361" y="50">3</tspan></text><path id="Line-23" fill="#EE6B47" fill-rule="nonzero" d="M449.27 38l14 7-14 7v-6h-58.54v-2h58.54v-6z"/><text id="next-3" fill="#EE6B47" font-family="PTMono-Regular, PT Mono" font-size="14" font-weight="normal"><tspan x="415" y="34">next</tspan></text><path id="Rectangle-14" fill="#FFF9EB" stroke="#E8C48E" stroke-width="2" d="M467 30h78v32h-78z"/><text id="value-4" fill="#8A704D" font-family="PTMono-Regular, PT Mono" font-size="14" font-weight="normal"><tspan x="469" y="20">value</tspan></text><text id="4" fill="#8A704D" font-family="PTMono-Regular, PT Mono" font-size="14" font-weight="normal"><tspan x="501" y="50">4</tspan></text><path id="Line-24" fill="#EE6B47" fill-rule="nonzero" d="M589.27 38l14 7-14 7v-6h-58.54v-2h58.54v-6z"/><text id="next-4" fill="#EE6B47" font-family="PTMono-Regular, PT Mono" font-size="14" font-weight="normal"><tspan x="555" y="34">next</tspan></text><text id="null" fill="#8A704D" font-family="PTMono-Regular, PT Mono" font-size="14" font-weight="normal"><tspan x="610" y="49">null</tspan></text><text id="list" fill="#8A704D" font-family="PTMono-Regular, PT Mono" font-size="14" font-weight="normal"><tspan x="10" y="49">list</tspan></text></g></g></svg>