<svg xmlns="http://www.w3.org/2000/svg" width="670" height="143" viewBox="0 0 670 143"><defs><style>@import url(https://fonts.googleapis.com/css?family=Open+Sans:bold,italic,bolditalic%7CPT+Mono);@font-face{font-family:&apos;PT Mono&apos;;font-weight:700;font-style:normal;src:local(&apos;PT MonoBold&apos;),url(/font/PTMonoBold.woff2) format(&apos;woff2&apos;),url(/font/PTMonoBold.woff) format(&apos;woff&apos;),url(/font/PTMonoBold.ttf) format(&apos;truetype&apos;)}</style></defs><g id="combined" fill="none" fill-rule="evenodd" stroke="none" stroke-width="1"><g id="linked-list-remove-1.svg"><path id="Rectangle-15" fill="#FFF9EB" stroke="#E8C48E" stroke-width="2" d="M47 30h90v32H47z"/><text id="value" fill="#8A704D" font-family="PTMono-Regular, PT Mono" font-size="14" font-weight="normal"><tspan x="43" y="20">value</tspan></text><text id="&quot;new-item&quot;" fill="#8A704D" font-family="PTMono-Regular, PT Mono" font-size="14" font-weight="normal"><tspan x="51" y="49">&quot;new item&quot;</tspan></text><path id="Line-21" fill="#EE6B47" fill-rule="nonzero" d="M190.27 38l14 7-14 7-.001-6H131.73v-2h58.539l.001-6z"/><text id="next" fill="#EE6B47" font-family="PTMono-Regular, PT Mono" font-size="14" font-weight="normal"><tspan x="156" y="34">next</tspan></text><path id="Rectangle-15-Copy" fill="#FFF9EB" stroke="#E8C48E" stroke-width="2" d="M117 104h78v32h-78z" opacity=".6"/><text id="value-copy" fill="#8A704D" font-family="PTMono-Regular, PT Mono" font-size="14" font-weight="normal" opacity=".6"><tspan x="118" y="94">value</tspan></text><text id="1" fill="#8A704D" font-family="PTMono-Regular, PT Mono" font-size="14" font-weight="normal" opacity=".6"><tspan x="149" y="124">1</tspan></text><path id="Line-21-Copy" fill="#EE6B47" fill-rule="nonzero" d="M229.5 75.5l-5.638 14.602-4.04-4.437-37.419 34.074-.74.674-1.346-1.48.74-.672 37.418-34.074-4.04-4.437L229.5 75.5z" opacity=".6"/><text id="next-copy" fill="#EE6B47" font-family="PTMono-Regular, PT Mono" font-size="14" font-weight="normal" opacity=".6"><tspan x="214" y="108">next</tspan></text><path id="Rectangle-11" fill="#FFF9EB" stroke="#E8C48E" stroke-width="2" d="M208 30h78v32h-78z"/><text id="value-2" fill="#8A704D" font-family="PTMono-Regular, PT Mono" font-size="14" font-weight="normal"><tspan x="210" y="20">value</tspan></text><text id="-9" fill="#8A704D" font-family="PTMono-Regular, PT Mono" font-size="14" font-weight="normal"><tspan x="242" y="50">2</tspan></text><path id="Line-22" fill="#EE6B47" fill-rule="nonzero" d="M330.27 38l14 7-14 7v-6h-58.54v-2h58.54v-6z"/><text id="next-2" fill="#EE6B47" font-family="PTMono-Regular, PT Mono" font-size="14" font-weight="normal"><tspan x="296" y="34">next</tspan></text><path id="Rectangle-13" fill="#FFF9EB" stroke="#E8C48E" stroke-width="2" d="M347 30h78v32h-78z"/><text id="value-3" fill="#8A704D" font-family="PTMono-Regular, PT Mono" font-size="14" font-weight="normal"><tspan x="349" y="20">value</tspan></text><text id="-10" fill="#8A704D" font-family="PTMono-Regular, PT Mono" font-size="14" font-weight="normal"><tspan x="381" y="50">3</tspan></text><path id="Line-23" fill="#EE6B47" fill-rule="nonzero" d="M469.27 38l14 7-14 7v-6h-58.54v-2h58.54v-6z"/><text id="next-3" fill="#EE6B47" font-family="PTMono-Regular, PT Mono" font-size="14" font-weight="normal"><tspan x="435" y="34">next</tspan></text><path id="Rectangle-14" fill="#FFF9EB" stroke="#E8C48E" stroke-width="2" d="M487 30h78v32h-78z"/><text id="value-4" fill="#8A704D" font-family="PTMono-Regular, PT Mono" font-size="14" font-weight="normal"><tspan x="489" y="20">value</tspan></text><text id="4" fill="#8A704D" font-family="PTMono-Regular, PT Mono" font-size="14" font-weight="normal"><tspan x="521" y="50">4</tspan></text><path id="Line-24" fill="#EE6B47" fill-rule="nonzero" d="M609.27 38l14 7-14 7v-6h-58.54v-2h58.54v-6z"/><text id="next-4" fill="#EE6B47" font-family="PTMono-Regular, PT Mono" font-size="14" font-weight="normal"><tspan x="575" y="34">next</tspan></text><text id="null" fill="#8A704D" font-family="PTMono-Regular, PT Mono" font-size="14" font-weight="normal"><tspan x="631" y="49">null</tspan></text><text id="list" fill="#8A704D" font-family="PTMono-Regular, PT Mono" font-size="14" font-weight="normal"><tspan x="8" y="49">list</tspan></text></g></g></svg>