<svg xmlns="http://www.w3.org/2000/svg" width="293" height="437" viewBox="0 0 293 437"><defs><style>@import url(https://fonts.googleapis.com/css?family=Open+Sans:bold,italic,bolditalic%7CPT+Mono);@font-face{font-family:&apos;PT Mono&apos;;font-weight:700;font-style:normal;src:local(&apos;PT MonoBold&apos;),url(/font/PTMonoBold.woff2) format(&apos;woff2&apos;),url(/font/PTMonoBold.woff) format(&apos;woff&apos;),url(/font/PTMonoBold.ttf) format(&apos;truetype&apos;)}</style></defs><g id="combined" fill="none" fill-rule="evenodd" stroke="none" stroke-width="1"><g id="recursive-salaries.svg"><g id="{" fill-rule="nonzero" transform="translate(130.107 17.102)"><path fill="#999" d="M5.024 12.701H4.52c-.88 0-1.534-.206-1.962-.618-.429-.413-.643-1.038-.643-1.877V7.854a2.18 2.18 0 00-.075-.598.978.978 0 00-.263-.444 1.224 1.224 0 00-.5-.277 2.706 2.706 0 00-.782-.096H0v-.95h.294c.333 0 .604-.027.813-.082.21-.054.374-.138.493-.25a.88.88 0 00.246-.427c.045-.173.068-.378.068-.615v-1.62c0-.383.046-.728.137-1.036.09-.307.24-.57.448-.786.207-.216.476-.382.806-.499C3.635.058 4.04 0 4.52 0h.505v.957h-.403c-1.057 0-1.586.513-1.586 1.538v1.593c0 1.112-.48 1.738-1.442 1.88.97.095 1.456.72 1.456 1.873v2.338c0 1.043.524 1.565 1.572 1.565h.403v.957z"/><path id="sales" fill="#000" d="M20.815 25.025a1.634 1.634 0 01-.458 1.16 2.084 2.084 0 01-.492.378 3.272 3.272 0 01-.598.26c-.212.069-.43.119-.653.15a4.637 4.637 0 01-.656.048 12.3 12.3 0 01-1.282-.061 8.646 8.646 0 01-1.145-.198v-1.094c.401.114.8.2 1.197.26.396.059.79.089 1.182.089.57 0 .991-.078 1.265-.233.273-.155.41-.376.41-.663a.812.812 0 00-.065-.331.753.753 0 00-.236-.28 2.254 2.254 0 00-.53-.278 11.81 11.81 0 00-.98-.328 6.963 6.963 0 01-.858-.31 2.877 2.877 0 01-.68-.414 1.776 1.776 0 01-.452-.56 1.649 1.649 0 01-.164-.76 1.744 1.744 0 01.588-1.264c.214-.196.504-.36.868-.49.365-.129.82-.194 1.367-.194.27 0 .568.015.896.045.328.03.67.08 1.025.153v1.06a9.803 9.803 0 00-1.063-.202 6.926 6.926 0 00-.871-.065c-.297 0-.546.023-.749.069a1.553 1.553 0 00-.492.188.734.734 0 00-.27.28.748.748 0 00-.082.345c0 .123.024.235.072.335.048.1.136.197.266.29.13.094.311.187.544.28.232.094.535.196.909.305.406.119.747.243 1.025.373.278.13.504.274.677.434.173.16.297.34.373.54.075.2.112.428.112.683zm6.672 1.873l-.027-.922c-.374.369-.753.635-1.138.8-.385.163-.79.245-1.214.245-.392 0-.726-.05-1.004-.15a1.883 1.883 0 01-.687-.413 1.603 1.603 0 01-.397-.62 2.289 2.289 0 01-.126-.772c0-.688.256-1.227.769-1.616.512-.39 1.27-.585 2.273-.585h1.421v-.601c0-.406-.13-.73-.39-.974-.259-.244-.655-.366-1.189-.366-.387 0-.769.043-1.145.13-.376.086-.764.21-1.165.369V20.35a7.36 7.36 0 011.087-.301 7.6 7.6 0 01.642-.1c.224-.024.45-.037.677-.037.415 0 .788.046 1.121.137.333.091.614.23.844.417.23.187.407.421.53.704.123.282.185.615.185.998v4.73h-1.067zm-.13-3.124h-1.51c-.297 0-.552.03-.766.09-.214.059-.39.143-.526.252-.137.11-.238.24-.305.393-.066.153-.099.325-.099.516 0 .133.02.259.062.38.04.12.107.228.198.321.091.093.21.168.356.222.145.055.323.082.533.082.273 0 .587-.083.94-.25.353-.166.725-.429 1.117-.789v-1.217zm5.756-5.557h-2.03v-.978h3.233v8.668h2.044v.991h-5.503v-.99h2.256v-7.691zm11.157 4.887c0 .17-.003.31-.007.424a6.37 6.37 0 01-.02.322h-4.82c0 .701.196 1.24.588 1.616.392.376.957.564 1.695.564.2 0 .401-.008.602-.024.2-.016.394-.037.58-.065.188-.027.366-.058.537-.092.171-.034.33-.072.475-.113v.978a9.161 9.161 0 01-2.365.308c-.588 0-1.094-.08-1.517-.24a2.597 2.597 0 01-1.043-.694 2.857 2.857 0 01-.601-1.114 5.273 5.273 0 01-.195-1.494c0-.483.07-.94.208-1.37a3.44 3.44 0 01.609-1.135c.266-.326.593-.584.98-.776a2.94 2.94 0 011.32-.287c.478 0 .902.075 1.271.226.37.15.68.363.933.639s.445.61.575 1.005c.13.394.195.835.195 1.322zm-1.238-.17a2.593 2.593 0 00-.089-.838 1.763 1.763 0 00-.338-.653 1.576 1.576 0 00-.57-.427 1.916 1.916 0 00-.794-.154c-.26 0-.497.05-.71.15-.215.101-.4.242-.554.425a2.19 2.19 0 00-.376.656 3.026 3.026 0 00-.178.84h3.61zm8.572 2.091a1.634 1.634 0 01-.458 1.16 2.084 2.084 0 01-.492.378 3.272 3.272 0 01-.598.26c-.212.069-.43.119-.653.15a4.637 4.637 0 01-.656.048 12.3 12.3 0 01-1.282-.061 8.646 8.646 0 01-1.145-.198v-1.094c.401.114.8.2 1.197.26.396.059.79.089 1.182.089.57 0 .991-.078 1.265-.233.273-.155.41-.376.41-.663a.812.812 0 00-.065-.331.753.753 0 00-.236-.28 2.254 2.254 0 00-.53-.278 11.81 11.81 0 00-.98-.328 6.963 6.963 0 01-.858-.31 2.877 2.877 0 01-.68-.414 1.776 1.776 0 01-.452-.56 1.649 1.649 0 01-.164-.76 1.744 1.744 0 01.588-1.264c.214-.196.504-.36.868-.49.365-.129.82-.194 1.367-.194.27 0 .568.015.896.045.328.03.67.08 1.025.153v1.06a9.803 9.803 0 00-1.063-.202 6.926 6.926 0 00-.871-.065c-.296 0-.546.023-.749.069a1.553 1.553 0 00-.492.188.734.734 0 00-.27.28.748.748 0 00-.082.345c0 .123.024.235.072.335.048.1.136.197.266.29.13.094.311.187.544.28.232.094.535.196.909.305.406.119.747.243 1.025.373.278.13.504.274.677.434.173.16.298.34.373.54.075.2.112.428.112.683z"/><path id=":[{" fill="#999" d="M56.622 19.912c.141 0 .276.029.403.086a1.107 1.107 0 01.564.564.978.978 0 01.086.403.971.971 0 01-.086.407 1.12 1.12 0 01-.229.331 1.058 1.058 0 01-.738.308c-.146 0-.281-.028-.407-.082a1.07 1.07 0 01-.557-.557 1.006 1.006 0 01-.082-.407 1.058 1.058 0 01.308-.738 1.12 1.12 0 01.331-.23.971.971 0 01.407-.085zm0 5.01c.141 0 .276.03.403.086a1.107 1.107 0 01.564.564.978.978 0 01.086.404.971.971 0 01-.086.406 1.12 1.12 0 01-.229.332 1.058 1.058 0 01-.738.307c-.146 0-.281-.027-.407-.082a1.07 1.07 0 01-.557-.557 1.006 1.006 0 01-.082-.406 1.058 1.058 0 01.308-.738 1.12 1.12 0 01.331-.23.971.971 0 01.407-.085zm17.274 4.78h-3.37V17h3.37v.957h-2.235v10.787h2.235v.957zm8.101 0h-.506c-.88 0-1.533-.207-1.962-.62-.428-.412-.642-1.037-.642-1.876v-2.352a2.18 2.18 0 00-.075-.598.978.978 0 00-.264-.444 1.224 1.224 0 00-.499-.277 2.706 2.706 0 00-.782-.096h-.294v-.95h.294c.332 0 .603-.027.813-.082.21-.054.374-.138.492-.25a.88.88 0 00.246-.427c.046-.173.069-.378.069-.615v-1.62c0-.383.045-.728.136-1.036.092-.307.24-.57.448-.786.208-.216.476-.382.807-.499.33-.116.735-.174 1.213-.174h.506v.957h-.403c-1.058 0-1.586.513-1.586 1.538v1.593c0 1.112-.481 1.738-1.443 1.88.971.095 1.456.72 1.456 1.873v2.338c0 1.043.525 1.565 1.573 1.565h.403v.957z"/><path id="name" fill="#000" d="M30.775 37.035h1.06l.048 1.108c.2-.237.394-.435.58-.592.188-.157.371-.283.551-.38a2.06 2.06 0 01.55-.2c.187-.04.381-.059.582-.059.706 0 1.24.209 1.603.626.362.417.543 1.044.543 1.883v4.477h-1.19v-4.381c0-.538-.1-.936-.3-1.193-.2-.258-.5-.386-.896-.386-.146 0-.288.021-.427.064a1.557 1.557 0 00-.434.226c-.15.107-.313.252-.489.434-.175.182-.372.41-.591.684v4.552h-1.19v-6.863zm12.107 6.863l-.028-.922c-.373.369-.753.635-1.138.8-.385.163-.79.245-1.213.245-.392 0-.727-.05-1.005-.15a1.883 1.883 0 01-.687-.413 1.603 1.603 0 01-.396-.62 2.289 2.289 0 01-.127-.772c0-.688.256-1.227.77-1.616.512-.39 1.27-.585 2.272-.585h1.422v-.601c0-.406-.13-.73-.39-.974s-.656-.366-1.19-.366c-.387 0-.768.043-1.144.13-.376.086-.765.21-1.166.369V37.35a7.36 7.36 0 011.087-.301 7.6 7.6 0 01.643-.1c.223-.024.449-.037.677-.037.414 0 .788.046 1.12.137.333.091.615.23.845.417.23.187.407.421.53.704.123.282.184.615.184.998v4.73h-1.066zm-.13-3.124h-1.51c-.297 0-.552.03-.766.09-.215.059-.39.143-.527.252-.137.11-.238.24-.304.393-.066.153-.1.325-.1.516 0 .133.021.259.062.38.041.12.108.228.199.321.09.093.21.168.355.222.146.055.324.082.533.082.274 0 .587-.083.94-.25.353-.166.726-.429 1.118-.789v-1.217zm8.312 3.124V38.97c0-.214-.008-.39-.023-.527a1.2 1.2 0 00-.076-.324.348.348 0 00-.13-.168.43.43 0 00-.448.034c-.077.055-.16.144-.249.267a4.216 4.216 0 00-.294.489c-.107.203-.233.452-.38.748v4.41h-1.086v-4.8c0-.25-.008-.453-.024-.608a1.42 1.42 0 00-.075-.362.34.34 0 00-.133-.178.431.431 0 00-.43.02.988.988 0 00-.244.247c-.089.118-.188.28-.297.485-.11.205-.24.467-.39.786v4.41h-1.094v-6.864h.91l.054 1.306c.119-.26.234-.481.345-.663.112-.183.227-.33.346-.441.118-.112.245-.194.38-.246.134-.053.283-.079.447-.079.369 0 .65.12.84.362.192.242.288.616.288 1.122.11-.237.216-.448.321-.633a2.31 2.31 0 01.338-.465c.121-.125.255-.22.4-.287.146-.066.315-.099.506-.099.862 0 1.292.663 1.292 1.99v4.996h-1.094zm8.6-3.794c0 .17-.002.31-.007.424a6.37 6.37 0 01-.02.322h-4.82c0 .701.196 1.24.588 1.616.392.376.957.564 1.696.564.2 0 .4-.008.601-.024.2-.016.394-.037.581-.065.187-.027.366-.058.537-.092.17-.034.33-.072.475-.113v.978a9.161 9.161 0 01-2.365.308c-.588 0-1.094-.08-1.518-.24a2.597 2.597 0 01-1.042-.694 2.857 2.857 0 01-.602-1.114 5.273 5.273 0 01-.195-1.494c0-.483.07-.94.209-1.37a3.44 3.44 0 01.608-1.135c.267-.326.594-.584.981-.776a2.94 2.94 0 011.32-.287c.478 0 .902.075 1.27.226.37.15.681.363.934.639s.444.61.574 1.005c.13.394.195.835.195 1.322zm-1.237-.17a2.593 2.593 0 00-.09-.838 1.763 1.763 0 00-.337-.653 1.576 1.576 0 00-.571-.427 1.916 1.916 0 00-.793-.154c-.26 0-.497.05-.711.15-.214.101-.399.242-.554.425a2.19 2.19 0 00-.376.656 3.026 3.026 0 00-.178.84h3.61z"/><path id=":" fill="#999" d="M64.32 36.912c.14 0 .275.029.403.086a1.107 1.107 0 01.564.564.978.978 0 01.085.403.971.971 0 01-.085.407 1.12 1.12 0 01-.23.331 1.058 1.058 0 01-.738.308c-.145 0-.281-.028-.406-.082a1.07 1.07 0 01-.558-.557 1.006 1.006 0 01-.082-.407 1.058 1.058 0 01.308-.738 1.12 1.12 0 01.332-.23.971.971 0 01.406-.085zm0 5.01c.14 0 .275.03.403.086a1.107 1.107 0 01.564.564.978.978 0 01.085.404.971.971 0 01-.085.406 1.12 1.12 0 01-.23.332 1.058 1.058 0 01-.738.307c-.145 0-.281-.027-.406-.082a1.07 1.07 0 01-.558-.557 1.006 1.006 0 01-.082-.406 1.058 1.058 0 01.308-.738 1.12 1.12 0 01.332-.23.971.971 0 01.406-.085z"/><path id="'John'" fill="#690" d="M80.5 34.24l-.198 3.205h-1.176l-.191-3.206H80.5zm9.058.724v6.207c0 .383-.057.746-.171 1.09a2.47 2.47 0 01-.52.9 2.49 2.49 0 01-.875.608c-.35.15-.763.225-1.237.225-.178 0-.359-.012-.544-.037a4.8 4.8 0 01-.533-.103 3.619 3.619 0 01-.482-.157 2.214 2.214 0 01-.39-.202v-1.224c.283.206.597.367.94.486.345.118.685.178 1.023.178.496 0 .88-.152 1.148-.455.269-.303.403-.74.403-1.31v-5.153h-3.397v-1.053h4.635zm8.77 5.448a4.55 4.55 0 01-.225 1.466c-.15.445-.367.825-.65 1.142a2.913 2.913 0 01-1.032.738 3.447 3.447 0 01-1.381.263c-.492 0-.933-.076-1.323-.229a2.617 2.617 0 01-.99-.673 2.98 2.98 0 01-.623-1.1c-.144-.438-.215-.942-.215-1.511 0-.533.075-1.02.225-1.46.15-.44.367-.818.65-1.134a2.913 2.913 0 011.032-.739 3.447 3.447 0 011.38-.263c.493 0 .934.076 1.324.23.39.152.72.375.99.669.272.294.48.66.623 1.097.143.438.215.939.215 1.504zm-1.217.055c0-.424-.046-.794-.14-1.111a2.237 2.237 0 00-.4-.793 1.65 1.65 0 00-.632-.479 2.077 2.077 0 00-.83-.16c-.356 0-.66.07-.913.208-.253.14-.46.325-.622.557a2.4 2.4 0 00-.356.81 4.06 4.06 0 00-.113.968c0 .424.047.795.14 1.114.094.32.227.585.4.796.174.212.383.372.63.479.246.107.524.16.833.16.356 0 .66-.069.913-.208.253-.139.46-.325.622-.557a2.4 2.4 0 00.356-.81 4.09 4.09 0 00.112-.974zm8.456 3.431h-1.19v-4.381c0-.529-.098-.924-.296-1.186-.199-.262-.482-.394-.852-.394-.159 0-.308.022-.447.065a1.557 1.557 0 00-.434.226 3.73 3.73 0 00-.493.434c-.177.182-.382.41-.615.684v4.552h-1.19V34.24h1.19v2.796l-.04 1.08c.186-.223.37-.411.55-.564.18-.152.36-.277.54-.372.18-.096.363-.164.55-.205.187-.041.38-.062.58-.062.684 0 1.213.209 1.587.626.374.417.56 1.044.56 1.883v4.477zm2.181-6.863h1.06l.047 1.108c.201-.237.395-.435.582-.592.186-.157.37-.283.55-.38a2.06 2.06 0 01.55-.2c.187-.04.38-.059.581-.059.707 0 1.24.209 1.603.626.362.417.544 1.044.544 1.883v4.477h-1.19v-4.381c0-.538-.1-.936-.3-1.193-.201-.258-.5-.386-.896-.386-.146 0-.288.021-.427.064a1.557 1.557 0 00-.434.226c-.15.107-.314.252-.49.434-.175.182-.372.41-.59.684v4.552h-1.19v-6.863zm11.238-2.796l-.198 3.206h-1.176l-.191-3.206h1.565z"/><path id="," fill="#999" d="M123.676 45.3c.232.009.458-.012.677-.062a2.02 2.02 0 00.577-.222c.167-.098.3-.22.4-.366a.86.86 0 00.15-.499.95.95 0 00-.099-.464 2.238 2.238 0 00-.222-.329 2.438 2.438 0 01-.222-.32.91.91 0 01-.1-.459.915.915 0 01.223-.588.857.857 0 01.287-.212 1.12 1.12 0 01.875.017c.148.066.278.168.39.305.111.136.2.307.266.512.066.205.1.447.1.725 0 .378-.07.742-.209 1.09a2.657 2.657 0 01-.622.926c-.276.27-.62.484-1.032.643-.413.16-.892.24-1.44.24V45.3z"/><path id="salary" fill="#000" d="M36.21 59.025a1.634 1.634 0 01-.458 1.16 2.084 2.084 0 01-.492.378 3.272 3.272 0 01-.598.26c-.212.069-.43.119-.653.15a4.637 4.637 0 01-.656.048 12.3 12.3 0 01-1.282-.061 8.646 8.646 0 01-1.145-.198v-1.094c.4.114.8.2 1.196.26.397.059.79.089 1.183.089.57 0 .99-.078 1.264-.233.274-.155.41-.376.41-.663a.812.812 0 00-.064-.331.753.753 0 00-.236-.28 2.254 2.254 0 00-.53-.278 11.81 11.81 0 00-.981-.328 6.963 6.963 0 01-.858-.31 2.877 2.877 0 01-.68-.414 1.776 1.776 0 01-.451-.56 1.649 1.649 0 01-.164-.76 1.744 1.744 0 01.588-1.264c.214-.196.503-.36.868-.49.364-.129.82-.194 1.367-.194.269 0 .567.015.895.045.329.03.67.08 1.026.153v1.06a9.803 9.803 0 00-1.063-.202 6.926 6.926 0 00-.872-.065c-.296 0-.546.023-.748.069a1.553 1.553 0 00-.493.188.734.734 0 00-.27.28.748.748 0 00-.082.345c0 .123.024.235.072.335.048.1.137.197.267.29.13.094.31.187.543.28.233.094.536.196.91.305.405.119.747.243 1.025.373.278.13.503.274.677.434.173.16.297.34.372.54.075.2.113.428.113.683zm6.672 1.873l-.028-.922c-.373.369-.753.635-1.138.8-.385.163-.79.245-1.213.245-.392 0-.727-.05-1.005-.15a1.883 1.883 0 01-.687-.413 1.603 1.603 0 01-.396-.62 2.289 2.289 0 01-.127-.772c0-.688.256-1.227.77-1.616.512-.39 1.27-.585 2.272-.585h1.422v-.601c0-.406-.13-.73-.39-.974s-.656-.366-1.19-.366c-.387 0-.768.043-1.144.13-.376.086-.765.21-1.166.369V54.35a7.36 7.36 0 011.087-.301 7.6 7.6 0 01.643-.1c.223-.024.449-.037.677-.037.414 0 .788.046 1.12.137.333.091.615.23.845.417.23.187.407.421.53.704.123.282.184.615.184.998v4.73h-1.066zm-.13-3.124h-1.51c-.297 0-.552.03-.766.09-.215.059-.39.143-.527.252-.137.11-.238.24-.304.393-.066.153-.1.325-.1.516 0 .133.021.259.062.38.041.12.108.228.199.321.09.093.21.168.355.222.146.055.324.082.533.082.274 0 .587-.083.94-.25.353-.166.726-.429 1.118-.789v-1.217zm5.756-5.557h-2.03v-.978h3.233v8.668h2.044v.991h-5.503v-.99h2.256v-7.691zm9.768 8.681l-.027-.922c-.374.369-.753.635-1.138.8-.385.163-.79.245-1.214.245-.391 0-.726-.05-1.004-.15a1.883 1.883 0 01-.687-.413 1.603 1.603 0 01-.397-.62 2.289 2.289 0 01-.126-.772c0-.688.256-1.227.769-1.616.512-.39 1.27-.585 2.273-.585h1.421v-.601c0-.406-.13-.73-.39-.974-.259-.244-.655-.366-1.189-.366-.387 0-.769.043-1.145.13-.376.086-.764.21-1.165.369V54.35a7.36 7.36 0 011.087-.301 7.6 7.6 0 01.642-.1c.224-.024.45-.037.677-.037.415 0 .788.046 1.121.137.333.091.614.23.844.417.23.187.407.421.53.704.123.282.185.615.185.998v4.73h-1.067zm-.13-3.124h-1.51c-.296 0-.552.03-.766.09-.214.059-.39.143-.526.252-.137.11-.238.24-.304.393-.067.153-.1.325-.1.516 0 .133.02.259.062.38.041.12.107.228.198.321.091.093.21.168.356.222.145.055.323.082.533.082.273 0 .587-.083.94-.25.353-.166.726-.429 1.117-.789v-1.217zm3.699-3.739h1.087l.034 1.265c.405-.488.805-.841 1.2-1.06a2.436 2.436 0 011.192-.328c.711 0 1.25.23 1.617.69.367.46.537 1.144.51 2.051H66.28c.014-.601-.074-1.038-.263-1.309-.19-.27-.466-.407-.83-.407-.16 0-.32.029-.482.086a1.947 1.947 0 00-.5.273 4.47 4.47 0 00-.543.482 8.898 8.898 0 00-.615.711v4.41h-1.203v-6.864zm13.521 0l-2.338 6.139a12.037 12.037 0 01-.748 1.613 4.784 4.784 0 01-.844 1.11c-.306.29-.64.503-1.005.64a3.463 3.463 0 01-1.224.205 6.81 6.81 0 01-.636-.027v-1.08c.1.013.21.026.328.037.119.012.244.017.376.017.22 0 .423-.031.612-.095.19-.064.368-.168.537-.311.168-.144.33-.33.485-.557.155-.228.306-.504.451-.828l-2.74-6.863h1.353l1.736 4.54.349 1.066.396-1.094 1.607-4.512h1.305z"/><path id=":" fill="#999" d="M79.714 53.912c.141 0 .276.029.403.086a1.107 1.107 0 01.564.564.978.978 0 01.086.403.971.971 0 01-.086.407 1.12 1.12 0 01-.229.331 1.058 1.058 0 01-.738.308c-.146 0-.282-.028-.407-.082a1.07 1.07 0 01-.557-.557 1.006 1.006 0 01-.082-.407 1.058 1.058 0 01.308-.738 1.12 1.12 0 01.331-.23.971.971 0 01.407-.085zm0 5.01c.141 0 .276.03.403.086a1.107 1.107 0 01.564.564.978.978 0 01.086.404.971.971 0 01-.086.406 1.12 1.12 0 01-.229.332 1.058 1.058 0 01-.738.307c-.146 0-.282-.027-.407-.082a1.07 1.07 0 01-.557-.557 1.006 1.006 0 01-.082-.406 1.058 1.058 0 01.308-.738 1.12 1.12 0 01.331-.23.971.971 0 01.407-.085z"/><path id="1000" fill="#905" d="M98.075 60.898h-5.612v-1.107h2.297V53.27l-2.14 1.162-.437-1.012 2.843-1.497h1.053v7.868h1.996v1.107zm7.978-4.463c0 .683-.069 1.306-.205 1.87a4.33 4.33 0 01-.622 1.448 2.925 2.925 0 01-1.036.937c-.412.221-.897.331-1.453.331-.478 0-.913-.09-1.305-.27a2.594 2.594 0 01-1.005-.83c-.278-.374-.492-.85-.643-1.429-.15-.579-.225-1.264-.225-2.057 0-.684.07-1.308.208-1.873.14-.566.346-1.05.622-1.453s.621-.716 1.036-.937c.415-.22.898-.331 1.449-.331.479 0 .914.09 1.306.27.392.18.727.458 1.005.834.278.376.492.853.642 1.432.15.579.226 1.265.226 2.058zm-1.203.04c0-.154-.006-.308-.017-.46a23.678 23.678 0 00-.038-.449l-3.78 2.81c.068.237.155.456.26.656.104.2.23.373.379.516.148.144.317.256.506.335.189.08.404.12.646.12.31 0 .591-.075.844-.226.253-.15.468-.373.646-.67.178-.296.314-.664.41-1.104.096-.44.144-.949.144-1.527zm-4.088-.081c0 .14 0 .282.003.423.002.142.01.278.024.41l3.78-2.795a3.198 3.198 0 00-.26-.636 2.016 2.016 0 00-.375-.496 1.612 1.612 0 00-.5-.324 1.628 1.628 0 00-.628-.117c-.31 0-.592.076-.845.226-.253.15-.468.375-.646.673a3.697 3.697 0 00-.41 1.108 7.24 7.24 0 00-.143 1.528zm12.988.04c0 .684-.068 1.307-.205 1.87a4.33 4.33 0 01-.622 1.45 2.925 2.925 0 01-1.036.936c-.412.221-.896.331-1.452.331-.479 0-.914-.09-1.306-.27a2.594 2.594 0 01-1.005-.83c-.278-.374-.492-.85-.643-1.429-.15-.579-.225-1.264-.225-2.057 0-.684.07-1.308.208-1.873.14-.566.347-1.05.622-1.453.276-.403.621-.716 1.036-.937.415-.22.898-.331 1.45-.331.478 0 .913.09 1.305.27.392.18.727.458 1.005.834.278.376.492.853.642 1.432.15.579.226 1.265.226 2.058zm-1.203.042c0-.155-.006-.31-.017-.462a23.678 23.678 0 00-.038-.448l-3.78 2.81c.068.237.155.456.26.656.104.2.231.373.38.516.147.144.316.256.505.335.19.08.404.12.646.12.31 0 .591-.075.844-.226.253-.15.468-.373.646-.67.178-.296.315-.664.41-1.104.096-.44.144-.949.144-1.527zm-4.088-.082l.003.423c.003.142.01.278.024.41l3.78-2.795a3.198 3.198 0 00-.26-.636 2.016 2.016 0 00-.375-.496 1.612 1.612 0 00-.5-.324 1.628 1.628 0 00-.628-.117c-.31 0-.591.076-.844.226-.253.15-.469.375-.646.673a3.697 3.697 0 00-.41 1.108 7.24 7.24 0 00-.144 1.528zm12.988.04c0 .684-.068 1.307-.205 1.87a4.33 4.33 0 01-.622 1.45 2.925 2.925 0 01-1.036.936c-.412.221-.896.331-1.452.331-.479 0-.914-.09-1.306-.27a2.594 2.594 0 01-1.005-.83c-.278-.374-.492-.85-.642-1.429-.15-.579-.226-1.264-.226-2.057 0-.684.07-1.308.209-1.873.139-.566.346-1.05.622-1.453.275-.403.62-.716 1.035-.937.415-.22.898-.331 1.45-.331.478 0 .913.09 1.305.27.392.18.727.458 1.005.834.278.376.492.853.643 1.432.15.579.225 1.265.225 2.058zm-1.203.042c0-.155-.006-.31-.017-.462a23.678 23.678 0 00-.038-.448l-3.78 2.81c.069.237.155.456.26.656.105.2.231.373.38.516.147.144.316.256.505.335.19.08.405.12.646.12.31 0 .592-.075.844-.226.253-.15.469-.373.646-.67.178-.296.315-.664.41-1.104.096-.44.144-.949.144-1.527zm-4.088-.082c0 .14.001.282.004.423.002.142.01.278.024.41l3.78-2.795a3.198 3.198 0 00-.26-.636 2.016 2.016 0 00-.376-.496 1.612 1.612 0 00-.499-.324 1.628 1.628 0 00-.629-.117c-.31 0-.591.076-.844.226-.253.15-.468.375-.646.673a3.697 3.697 0 00-.41 1.108 7.24 7.24 0 00-.144 1.528z"/><path id="},{" fill="#999" d="M15.853 68h.505c.88 0 1.534.206 1.962.619.429.412.643 1.038.643 1.876v1.58c0 .223.025.422.075.597.05.176.138.324.263.445.126.12.293.213.503.277.21.063.471.095.786.095h.294v.95h-.294c-.333 0-.605.028-.817.082a1.116 1.116 0 00-.496.25.88.88 0 00-.246.427 2.438 2.438 0 00-.068.615v2.393c0 .383-.046.728-.137 1.036-.091.307-.24.57-.444.786a1.993 1.993 0 01-.807.499c-.332.116-.738.174-1.217.174h-.505v-.957h.41c1.052 0 1.579-.513 1.579-1.538v-2.365c0-1.112.48-1.737 1.442-1.873-.97-.105-1.456-.732-1.456-1.88v-1.566c0-1.043-.522-1.565-1.565-1.565h-.41V68zm7.758 11.3c.233.009.458-.012.677-.062a2.02 2.02 0 00.578-.222c.166-.098.3-.22.4-.366a.86.86 0 00.15-.499.95.95 0 00-.1-.464 2.238 2.238 0 00-.221-.329 2.438 2.438 0 01-.222-.32.91.91 0 01-.1-.459.915.915 0 01.223-.588.857.857 0 01.287-.212 1.12 1.12 0 01.875.017c.148.066.278.168.39.305.111.136.2.307.266.512.066.205.1.447.1.725 0 .378-.07.742-.21 1.09a2.657 2.657 0 01-.621.926c-.276.27-.62.484-1.033.643-.412.16-.892.24-1.439.24V79.3zm19.9 1.401h-.506c-.88 0-1.534-.206-1.962-.618-.428-.413-.643-1.038-.643-1.877v-2.352a2.18 2.18 0 00-.075-.598.978.978 0 00-.263-.444 1.224 1.224 0 00-.499-.277 2.706 2.706 0 00-.783-.096h-.294v-.95h.294c.333 0 .604-.027.814-.082.21-.054.373-.138.492-.25a.88.88 0 00.246-.427c.046-.173.068-.378.068-.615v-1.62c0-.383.046-.728.137-1.036.091-.307.24-.57.448-.786.207-.216.476-.382.807-.499.33-.116.734-.174 1.213-.174h.506v.957h-.404c-1.057 0-1.586.513-1.586 1.538v1.593c0 1.112-.48 1.738-1.442 1.88.97.095 1.456.72 1.456 1.873v2.338c0 1.043.524 1.565 1.572 1.565h.404v.957z"/><path id="name" fill="#000" d="M30.775 88.035h1.06l.048 1.108c.2-.237.394-.435.58-.592.188-.157.371-.283.551-.38a2.06 2.06 0 01.55-.2c.187-.04.381-.059.582-.059.706 0 1.24.209 1.603.626.362.417.543 1.044.543 1.883v4.477h-1.19v-4.381c0-.538-.1-.936-.3-1.193-.2-.258-.5-.386-.896-.386-.146 0-.288.021-.427.064a1.557 1.557 0 00-.434.226c-.15.107-.313.252-.489.434-.175.182-.372.41-.591.684v4.552h-1.19v-6.863zm12.107 6.863l-.028-.922c-.373.369-.753.635-1.138.8-.385.163-.79.245-1.213.245-.392 0-.727-.05-1.005-.15a1.883 1.883 0 01-.687-.413 1.603 1.603 0 01-.396-.62 2.289 2.289 0 01-.127-.772c0-.688.256-1.227.77-1.616.512-.39 1.27-.585 2.272-.585h1.422v-.601c0-.406-.13-.73-.39-.974s-.656-.366-1.19-.366c-.387 0-.768.043-1.144.13-.376.086-.765.21-1.166.369V88.35a7.36 7.36 0 011.087-.301 7.6 7.6 0 01.643-.1c.223-.024.449-.037.677-.037.414 0 .788.046 1.12.137.333.091.615.23.845.417.23.187.407.421.53.704.123.282.184.615.184.998v4.73h-1.066zm-.13-3.124h-1.51c-.297 0-.552.03-.766.09-.215.059-.39.143-.527.252-.137.11-.238.24-.304.393-.066.153-.1.325-.1.516 0 .133.021.259.062.38.041.12.108.228.199.321.09.093.21.168.355.222.146.055.324.082.533.082.274 0 .587-.083.94-.25.353-.166.726-.429 1.118-.789v-1.217zm8.312 3.124V89.97c0-.214-.008-.39-.023-.527a1.2 1.2 0 00-.076-.324.348.348 0 00-.13-.168.43.43 0 00-.448.034c-.077.055-.16.144-.249.267a4.216 4.216 0 00-.294.489c-.107.203-.233.452-.38.748v4.41h-1.086v-4.8c0-.25-.008-.453-.024-.608a1.42 1.42 0 00-.075-.362.34.34 0 00-.133-.178.431.431 0 00-.43.02.988.988 0 00-.244.247c-.089.118-.188.28-.297.485-.11.205-.24.467-.39.786v4.41h-1.094v-6.864h.91l.054 1.306c.119-.26.234-.481.345-.663.112-.183.227-.33.346-.441.118-.112.245-.194.38-.246.134-.053.283-.079.447-.079.369 0 .65.12.84.362.192.242.288.616.288 1.122.11-.237.216-.448.321-.633a2.31 2.31 0 01.338-.465c.121-.125.255-.22.4-.287.146-.066.315-.099.506-.099.862 0 1.292.663 1.292 1.99v4.996h-1.094zm8.6-3.794c0 .17-.002.31-.007.424a6.37 6.37 0 01-.02.322h-4.82c0 .701.196 1.24.588 1.616.392.376.957.564 1.696.564.2 0 .4-.008.601-.024.2-.016.394-.037.581-.065.187-.027.366-.058.537-.092.17-.034.33-.072.475-.113v.978a9.161 9.161 0 01-2.365.308c-.588 0-1.094-.08-1.518-.24a2.597 2.597 0 01-1.042-.694 2.857 2.857 0 01-.602-1.114 5.273 5.273 0 01-.195-1.494c0-.483.07-.94.209-1.37a3.44 3.44 0 01.608-1.135c.267-.326.594-.584.981-.776a2.94 2.94 0 011.32-.287c.478 0 .902.075 1.27.226.37.15.681.363.934.639s.444.61.574 1.005c.13.394.195.835.195 1.322zm-1.237-.17a2.593 2.593 0 00-.09-.838 1.763 1.763 0 00-.337-.653 1.576 1.576 0 00-.571-.427 1.916 1.916 0 00-.793-.154c-.26 0-.497.05-.711.15-.214.101-.399.242-.554.425a2.19 2.19 0 00-.376.656 3.026 3.026 0 00-.178.84h3.61z"/><path id=":" fill="#999" d="M64.32 87.912c.14 0 .275.029.403.086a1.107 1.107 0 01.564.564.978.978 0 01.085.403.971.971 0 01-.085.407 1.12 1.12 0 01-.23.331 1.058 1.058 0 01-.738.308c-.145 0-.281-.028-.406-.082a1.07 1.07 0 01-.558-.557 1.006 1.006 0 01-.082-.407 1.058 1.058 0 01.308-.738 1.12 1.12 0 01.332-.23.971.971 0 01.406-.085zm0 5.01c.14 0 .275.03.403.086a1.107 1.107 0 01.564.564.978.978 0 01.085.404.971.971 0 01-.085.406 1.12 1.12 0 01-.23.332 1.058 1.058 0 01-.738.307c-.145 0-.281-.027-.406-.082a1.07 1.07 0 01-.558-.557 1.006 1.006 0 01-.082-.406 1.058 1.058 0 01.308-.738 1.12 1.12 0 01.332-.23.971.971 0 01.406-.085z"/><path id="'Alice'" fill="#690" d="M80.5 85.24l-.198 3.205h-1.176l-.191-3.206H80.5zm10.691 9.658h-1.326l-.622-1.948h-3.719l-.628 1.948H83.63l2.967-8.934h1.668l2.925 8.934zm-2.296-3.035l-1.511-4.778-1.511 4.778h3.022zm5.796-5.646h-2.03v-.978h3.234v8.668h2.043v.991h-5.502v-.99h2.255v-7.691zm7.698 2.803h-2.03v-.985h3.233v5.872h2.044v.991h-5.503v-.99h2.256V89.02zm.417-3.863c.132 0 .255.024.369.072a.893.893 0 01.297.202.919.919 0 01.27.663.96.96 0 01-.27.663.893.893 0 01-.297.201.944.944 0 01-.37.072.944.944 0 01-.368-.072.893.893 0 01-.298-.201.96.96 0 01-.27-.663.919.919 0 01.27-.663.893.893 0 01.298-.202.944.944 0 01.369-.072zm10.274 9.489c-.31.118-.628.206-.954.263a5.845 5.845 0 01-1.008.085c-1.084 0-1.92-.294-2.505-.882-.586-.588-.879-1.447-.879-2.577 0-.542.085-1.034.253-1.476.169-.442.406-.82.711-1.135.306-.315.67-.557 1.094-.728.424-.171.89-.257 1.401-.257.356 0 .689.026.998.076.31.05.607.132.89.246v1.135a3.77 3.77 0 00-.907-.339 4.248 4.248 0 00-.953-.106c-.306 0-.594.058-.865.174-.271.117-.51.284-.714.503a2.38 2.38 0 00-.486.8c-.118.314-.177.67-.177 1.066 0 .83.201 1.45.604 1.863.404.412.963.619 1.679.619a3.897 3.897 0 001.818-.438v1.108zm8.162-3.542c0 .17-.002.31-.007.424a6.372 6.372 0 01-.02.322h-4.82c0 .701.196 1.24.588 1.616.392.376.957.564 1.696.564.2 0 .4-.008.601-.024.2-.016.394-.037.581-.065.187-.027.366-.058.537-.092.17-.034.33-.072.475-.113v.978a9.161 9.161 0 01-2.365.308c-.588 0-1.094-.08-1.518-.24a2.597 2.597 0 01-1.042-.694 2.857 2.857 0 01-.602-1.114 5.273 5.273 0 01-.195-1.494c0-.483.07-.94.209-1.37a3.44 3.44 0 01.608-1.135c.267-.326.594-.584.981-.776a2.94 2.94 0 011.32-.287c.478 0 .902.075 1.271.226.37.15.68.363.933.639s.444.61.574 1.005c.13.394.195.835.195 1.322zm-1.237-.17a2.593 2.593 0 00-.089-.838 1.763 1.763 0 00-.338-.653 1.576 1.576 0 00-.571-.427 1.916 1.916 0 00-.793-.154c-.26 0-.497.05-.711.15-.214.101-.399.242-.554.425a2.19 2.19 0 00-.376.656 3.026 3.026 0 00-.177.84h3.609zm6.679-5.695l-.199 3.206h-1.175l-.192-3.206h1.566z"/><path id="," fill="#999" d="M131.373 96.3c.232.009.458-.012.677-.062a2.02 2.02 0 00.577-.222c.167-.098.3-.22.4-.366a.86.86 0 00.15-.499.95.95 0 00-.098-.464 2.238 2.238 0 00-.223-.329 2.438 2.438 0 01-.222-.32.91.91 0 01-.099-.459.915.915 0 01.222-.588.857.857 0 01.287-.212 1.12 1.12 0 01.875.017c.149.066.278.168.39.305.112.136.2.307.267.512.066.205.099.447.099.725 0 .378-.07.742-.209 1.09a2.657 2.657 0 01-.622.926c-.275.27-.62.484-1.032.643-.412.16-.892.24-1.439.24V96.3z"/><path id="salary" fill="#000" d="M36.21 110.025a1.634 1.634 0 01-.458 1.16 2.084 2.084 0 01-.492.378 3.272 3.272 0 01-.598.26c-.212.069-.43.119-.653.15a4.638 4.638 0 01-.656.048 12.3 12.3 0 01-1.282-.061 8.646 8.646 0 01-1.145-.198v-1.094c.4.114.8.2 1.196.26.397.059.79.089 1.183.089.57 0 .99-.078 1.264-.233.274-.155.41-.376.41-.663a.812.812 0 00-.064-.331.753.753 0 00-.236-.28 2.254 2.254 0 00-.53-.278 11.81 11.81 0 00-.981-.328 6.963 6.963 0 01-.858-.31 2.877 2.877 0 01-.68-.414 1.776 1.776 0 01-.451-.56 1.649 1.649 0 01-.164-.76 1.744 1.744 0 01.588-1.264c.214-.196.503-.36.868-.49.364-.129.82-.194 1.367-.194.269 0 .567.015.895.045.329.03.67.08 1.026.153v1.06a9.803 9.803 0 00-1.063-.202 6.926 6.926 0 00-.872-.065c-.296 0-.546.023-.748.069a1.553 1.553 0 00-.493.188.734.734 0 00-.27.28.748.748 0 00-.082.345c0 .123.024.235.072.335.048.1.137.197.267.29.13.094.31.187.543.28.233.094.536.196.91.305.405.119.747.243 1.025.373.278.13.503.274.677.434.173.16.297.34.372.54.075.2.113.428.113.683zm6.672 1.873l-.028-.922c-.373.369-.753.635-1.138.8-.385.163-.79.245-1.213.245-.392 0-.727-.05-1.005-.15a1.883 1.883 0 01-.687-.413 1.603 1.603 0 01-.396-.62 2.289 2.289 0 01-.127-.772c0-.688.256-1.227.77-1.616.512-.39 1.27-.585 2.272-.585h1.422v-.601c0-.406-.13-.73-.39-.974s-.656-.366-1.19-.366c-.387 0-.768.043-1.144.13-.376.086-.765.21-1.166.369v-1.073a7.36 7.36 0 011.087-.301 7.6 7.6 0 01.643-.1c.223-.024.449-.037.677-.037.414 0 .788.046 1.12.137.333.091.615.23.845.417.23.187.407.421.53.704.123.282.184.615.184.998v4.73h-1.066zm-.13-3.124h-1.51c-.297 0-.552.03-.766.09-.215.059-.39.143-.527.252-.137.11-.238.24-.304.393-.066.153-.1.325-.1.516 0 .133.021.259.062.38.041.12.108.228.199.321.09.093.21.168.355.222.146.055.324.082.533.082.274 0 .587-.083.94-.25.353-.166.726-.429 1.118-.789v-1.217zm5.756-5.557h-2.03v-.978h3.233v8.668h2.044v.991h-5.503v-.99h2.256v-7.691zm9.768 8.681l-.027-.922c-.374.369-.753.635-1.138.8-.385.163-.79.245-1.214.245-.391 0-.726-.05-1.004-.15a1.883 1.883 0 01-.687-.413 1.603 1.603 0 01-.397-.62 2.289 2.289 0 01-.126-.772c0-.688.256-1.227.769-1.616.512-.39 1.27-.585 2.273-.585h1.421v-.601c0-.406-.13-.73-.39-.974-.259-.244-.655-.366-1.189-.366-.387 0-.769.043-1.145.13-.376.086-.764.21-1.165.369v-1.073a7.36 7.36 0 011.087-.301 7.6 7.6 0 01.642-.1c.224-.024.45-.037.677-.037.415 0 .788.046 1.121.137.333.091.614.23.844.417.23.187.407.421.53.704.123.282.185.615.185.998v4.73h-1.067zm-.13-3.124h-1.51c-.296 0-.552.03-.766.09-.214.059-.39.143-.526.252-.137.11-.238.24-.304.393-.067.153-.1.325-.1.516 0 .133.02.259.062.38.041.12.107.228.198.321.091.093.21.168.356.222.145.055.323.082.533.082.273 0 .587-.083.94-.25.353-.166.726-.429 1.117-.789v-1.217zm3.699-3.739h1.087l.034 1.265c.405-.488.805-.841 1.2-1.06a2.436 2.436 0 011.192-.328c.711 0 1.25.23 1.617.69.367.46.537 1.144.51 2.051H66.28c.014-.601-.074-1.038-.263-1.309-.19-.27-.466-.406-.83-.406-.16 0-.32.028-.482.085a1.947 1.947 0 00-.5.273 4.47 4.47 0 00-.543.482 8.898 8.898 0 00-.615.711v4.41h-1.203v-6.864zm13.521 0l-2.338 6.139a12.037 12.037 0 01-.748 1.613 4.784 4.784 0 01-.844 1.11c-.306.29-.64.503-1.005.64a3.463 3.463 0 01-1.224.205 6.811 6.811 0 01-.636-.027v-1.08c.1.013.21.026.328.037.119.012.244.017.376.017.22 0 .423-.031.612-.095.19-.064.368-.168.537-.311.168-.144.33-.33.485-.557.155-.228.306-.504.451-.828l-2.74-6.863h1.353l1.736 4.54.349 1.066.396-1.094 1.607-4.512h1.305z"/><path id=":" fill="#999" d="M79.714 104.912c.141 0 .276.029.403.086a1.107 1.107 0 01.564.564.978.978 0 01.086.403.971.971 0 01-.086.407 1.12 1.12 0 01-.229.331 1.058 1.058 0 01-.738.308c-.146 0-.282-.028-.407-.082a1.07 1.07 0 01-.557-.557 1.006 1.006 0 01-.082-.407 1.058 1.058 0 01.308-.738 1.12 1.12 0 01.331-.23.971.971 0 01.407-.085zm0 5.01c.141 0 .276.03.403.086a1.107 1.107 0 01.564.564.978.978 0 01.086.404.971.971 0 01-.086.406 1.12 1.12 0 01-.229.332 1.058 1.058 0 01-.738.307c-.146 0-.282-.027-.407-.082a1.07 1.07 0 01-.557-.557 1.006 1.006 0 01-.082-.406 1.058 1.058 0 01.308-.738 1.12 1.12 0 01.331-.23.971.971 0 01.407-.085z"/><path id="600" fill="#905" d="M98.26 109.068c0 .41-.074.796-.222 1.156-.149.36-.36.673-.633.94a2.957 2.957 0 01-.988.628 3.45 3.45 0 01-1.281.23c-.492 0-.928-.08-1.306-.236a2.32 2.32 0 01-.95-.725c-.255-.326-.449-.737-.581-1.234-.132-.497-.198-1.084-.198-1.764 0-.455.03-.897.088-1.326.06-.428.158-.831.294-1.21.137-.378.32-.724.547-1.039.228-.314.512-.584.851-.81.34-.225.74-.4 1.2-.526.46-.125.994-.188 1.6-.188h.882v1.039h-.958c-.533 0-.995.064-1.387.191-.392.128-.72.308-.985.54a2.334 2.334 0 00-.608.841c-.141.328-.23.695-.267 1.1l-.027.281c.287-.169.619-.304.995-.407a4.624 4.624 0 011.22-.153c.451 0 .846.066 1.186.198.34.132.622.315.848.55.225.235.395.516.509.844.114.328.17.688.17 1.08zm-1.244.076c0-.274-.033-.521-.1-.742a1.402 1.402 0 00-.31-.56 1.42 1.42 0 00-.537-.356 2.137 2.137 0 00-.776-.127c-.173 0-.349.016-.526.048a3.742 3.742 0 00-.523.134c-.171.056-.334.121-.49.194-.154.073-.295.15-.423.233 0 .588.041 1.079.123 1.473.082.394.204.71.366.947s.361.405.598.506c.237.1.51.15.82.15.26 0 .498-.042.715-.127a1.54 1.54 0 00.56-.372c.157-.164.28-.364.37-.598.088-.235.133-.503.133-.803zm9.037-1.71c0 .684-.069 1.307-.205 1.87a4.33 4.33 0 01-.622 1.45 2.925 2.925 0 01-1.036.936c-.412.221-.897.331-1.453.331-.478 0-.913-.09-1.305-.27a2.594 2.594 0 01-1.005-.83c-.278-.374-.492-.85-.643-1.429-.15-.579-.225-1.264-.225-2.057 0-.684.07-1.308.208-1.873.14-.566.346-1.05.622-1.453s.621-.716 1.036-.937c.415-.22.898-.331 1.449-.331.479 0 .914.09 1.306.27.392.18.727.458 1.005.834.278.376.492.853.642 1.432.15.579.226 1.265.226 2.058zm-1.203.042c0-.155-.006-.31-.017-.462a23.678 23.678 0 00-.038-.448l-3.78 2.81c.068.237.155.456.26.656.104.2.23.373.379.516.148.144.317.256.506.335.189.08.404.12.646.12.31 0 .591-.075.844-.226.253-.15.468-.373.646-.67.178-.296.314-.664.41-1.104.096-.44.144-.949.144-1.527zm-4.088-.082c0 .14 0 .282.003.423.002.142.01.278.024.41l3.78-2.795a3.198 3.198 0 00-.26-.636 2.016 2.016 0 00-.375-.496 1.612 1.612 0 00-.5-.324 1.628 1.628 0 00-.628-.117c-.31 0-.592.076-.845.226-.253.15-.468.375-.646.673a3.697 3.697 0 00-.41 1.108 7.24 7.24 0 00-.143 1.528zm12.988.04c0 .684-.068 1.307-.205 1.87a4.33 4.33 0 01-.622 1.45 2.925 2.925 0 01-1.036.936c-.412.221-.896.331-1.452.331-.479 0-.914-.09-1.306-.27a2.594 2.594 0 01-1.005-.83c-.278-.374-.492-.85-.643-1.429-.15-.579-.225-1.264-.225-2.057 0-.684.07-1.308.208-1.873.14-.566.347-1.05.622-1.453.276-.403.621-.716 1.036-.937.415-.22.898-.331 1.45-.331.478 0 .913.09 1.305.27.392.18.727.458 1.005.834.278.376.492.853.642 1.432.15.579.226 1.265.226 2.058zm-1.203.042c0-.155-.006-.31-.017-.462a23.678 23.678 0 00-.038-.448l-3.78 2.81c.068.237.155.456.26.656.104.2.231.373.38.516.147.144.316.256.505.335.19.08.404.12.646.12.31 0 .591-.075.844-.226.253-.15.468-.373.646-.67.178-.296.315-.664.41-1.104.096-.44.144-.949.144-1.527zm-4.088-.082l.003.423c.003.142.01.278.024.41l3.78-2.795a3.198 3.198 0 00-.26-.636 2.016 2.016 0 00-.375-.496 1.612 1.612 0 00-.5-.324 1.628 1.628 0 00-.628-.117c-.31 0-.591.076-.844.226-.253.15-.469.375-.646.673a3.697 3.697 0 00-.41 1.108 7.24 7.24 0 00-.144 1.528z"/><path id="}]," fill="#999" d="M15.853 119h.505c.88 0 1.534.206 1.962.619.429.412.643 1.038.643 1.876v1.58c0 .223.025.422.075.597.05.176.138.324.263.445.126.12.293.213.503.277.21.063.471.095.786.095h.294v.95h-.294c-.333 0-.605.028-.817.082a1.116 1.116 0 00-.496.25.88.88 0 00-.246.427 2.438 2.438 0 00-.068.615v2.393c0 .383-.046.728-.137 1.036-.091.307-.24.57-.444.786a1.993 1.993 0 01-.807.499c-.332.116-.738.174-1.217.174h-.505v-.957h.41c1.052 0 1.579-.513 1.579-1.538v-2.365c0-1.112.48-1.737 1.442-1.873-.97-.105-1.456-.732-1.456-1.88v-1.566c0-1.043-.522-1.565-1.565-1.565h-.41V119zm11.47 12.701h-3.37v-.957h2.222v-10.787h-2.222V119h3.37v12.701zm3.986-1.401c.232.009.458-.012.676-.062a2.02 2.02 0 00.578-.222c.166-.098.3-.22.4-.366a.86.86 0 00.15-.499.95.95 0 00-.099-.464 2.238 2.238 0 00-.222-.329 2.438 2.438 0 01-.222-.32.91.91 0 01-.1-.459.915.915 0 01.223-.588.857.857 0 01.287-.212 1.12 1.12 0 01.875.017c.148.066.278.168.39.305.111.136.2.307.266.512.066.205.1.447.1.725 0 .378-.07.742-.21 1.09a2.657 2.657 0 01-.621.926c-.276.27-.62.484-1.032.643-.413.16-.893.24-1.44.24v-.937z"/><path id="development" fill="#000" d="M15.032 159.61c0-.583.08-1.101.24-1.555.159-.453.386-.836.68-1.148.294-.312.647-.55 1.06-.711a3.743 3.743 0 011.377-.243c.218 0 .434.014.646.041.212.027.42.07.625.13v-2.885h1.196v9.66H19.79l-.041-1.3c-.333.484-.693.841-1.08 1.074a2.401 2.401 0 01-1.258.348c-.392 0-.737-.082-1.036-.246a2.104 2.104 0 01-.745-.693 3.33 3.33 0 01-.447-1.077 6 6 0 01-.15-1.395zm1.217-.075c0 .83.122 1.448.366 1.856.244.408.589.612 1.035.612.301 0 .619-.135.954-.403.335-.27.687-.668 1.056-1.197v-3.185a2.892 2.892 0 00-.65-.209 3.55 3.55 0 00-.703-.071c-.647 0-1.152.21-1.515.628-.362.42-.543 1.076-.543 1.97zm12.626-.43c0 .168-.002.31-.007.423a6.37 6.37 0 01-.02.322h-4.82c0 .701.196 1.24.588 1.616.392.376.957.564 1.696.564.2 0 .4-.008.601-.024.2-.016.394-.037.581-.065.187-.027.366-.058.537-.092.17-.034.329-.072.475-.113v.978a9.161 9.161 0 01-2.365.308c-.588 0-1.094-.08-1.518-.24a2.597 2.597 0 01-1.042-.694 2.857 2.857 0 01-.602-1.114 5.273 5.273 0 01-.195-1.494c0-.483.07-.94.209-1.37a3.44 3.44 0 01.608-1.135c.267-.326.594-.584.981-.776a2.94 2.94 0 011.32-.287c.478 0 .902.075 1.27.226.37.15.681.363.934.639s.444.61.574 1.005c.13.394.195.835.195 1.322zm-1.237-.171a2.593 2.593 0 00-.09-.838 1.763 1.763 0 00-.338-.653 1.576 1.576 0 00-.57-.427 1.916 1.916 0 00-.793-.154c-.26 0-.497.05-.711.15-.214.101-.399.242-.554.425a2.19 2.19 0 00-.376.656 3.026 3.026 0 00-.178.84h3.61zm2.495-2.899h1.353l1.682 4.54.362 1.107.376-1.135 1.668-4.512h1.306l-2.693 6.863h-1.368l-2.686-6.863zm14.137 3.07c0 .168-.003.31-.007.423a6.37 6.37 0 01-.02.322h-4.82c0 .701.196 1.24.588 1.616.392.376.957.564 1.695.564.2 0 .401-.008.602-.024.2-.016.394-.037.58-.065.188-.027.366-.058.537-.092.171-.034.33-.072.475-.113v.978a9.161 9.161 0 01-2.365.308c-.588 0-1.094-.08-1.517-.24a2.597 2.597 0 01-1.043-.694 2.857 2.857 0 01-.601-1.114 5.273 5.273 0 01-.195-1.494c0-.483.07-.94.208-1.37a3.44 3.44 0 01.609-1.135c.266-.326.593-.584.98-.776a2.94 2.94 0 011.32-.287c.478 0 .902.075 1.271.226.37.15.68.363.933.639s.445.61.575 1.005c.13.394.195.835.195 1.322zm-1.238-.171a2.593 2.593 0 00-.089-.838 1.763 1.763 0 00-.338-.653 1.576 1.576 0 00-.57-.427 1.916 1.916 0 00-.794-.154c-.26 0-.497.05-.71.15-.215.101-.4.242-.554.425a2.19 2.19 0 00-.376.656 3.026 3.026 0 00-.178.84h3.61zm5.476-4.717h-2.03v-.978h3.233v8.668h2.044v.991h-5.503v-.99h2.256v-7.691zm11.334 5.195a4.55 4.55 0 01-.226 1.466c-.15.445-.367.825-.65 1.142a2.913 2.913 0 01-1.031.738 3.447 3.447 0 01-1.381.263c-.492 0-.933-.076-1.323-.229a2.617 2.617 0 01-.991-.673 2.98 2.98 0 01-.622-1.1c-.144-.438-.216-.942-.216-1.511 0-.533.076-1.02.226-1.46.15-.44.367-.818.65-1.134a2.913 2.913 0 011.032-.739 3.447 3.447 0 011.38-.263c.493 0 .934.076 1.323.23.39.152.72.375.991.669.272.294.479.66.622 1.097.144.438.216.939.216 1.504zm-1.217.055c0-.424-.047-.794-.14-1.111a2.237 2.237 0 00-.4-.793 1.65 1.65 0 00-.632-.479 2.077 2.077 0 00-.83-.16c-.356 0-.66.07-.914.208-.252.14-.46.325-.622.557a2.4 2.4 0 00-.355.81 4.06 4.06 0 00-.113.968c0 .424.047.795.14 1.114.094.32.227.585.4.796.173.212.383.372.63.479.245.107.523.16.833.16.356 0 .66-.069.913-.208.253-.139.46-.325.622-.557a2.4 2.4 0 00.355-.81 4.09 4.09 0 00.113-.974zm8.805-.123c0 .61-.086 1.144-.257 1.6-.17.455-.406.833-.707 1.134a2.9 2.9 0 01-1.067.677c-.41.15-.854.225-1.333.225-.218 0-.436-.01-.652-.034a4.952 4.952 0 01-.66-.116v2.871h-1.19v-9.666h1.06l.075 1.149c.342-.47.707-.8 1.094-.988.387-.19.807-.284 1.258-.284.392 0 .736.082 1.032.246.296.164.545.396.745.694.2.299.351.659.451 1.08.1.422.15.892.15 1.412zm-1.217.054c0-.36-.026-.69-.079-.99a2.586 2.586 0 00-.25-.773 1.37 1.37 0 00-.437-.503 1.104 1.104 0 00-.635-.18c-.15 0-.304.023-.458.07a1.857 1.857 0 00-.482.24 3.59 3.59 0 00-.527.445 7 7 0 00-.591.687v3.329c.219.09.449.163.69.215.242.052.479.079.711.079.643 0 1.146-.218 1.511-.653.365-.435.547-1.09.547-1.966zm7.943 3.5v-4.928c0-.214-.008-.39-.024-.527a1.2 1.2 0 00-.075-.324.348.348 0 00-.13-.168.43.43 0 00-.448.034c-.077.055-.16.144-.249.267a4.216 4.216 0 00-.294.489 30.3 30.3 0 00-.38.748v4.41H71.47v-4.8c0-.25-.008-.453-.024-.608a1.42 1.42 0 00-.075-.362.34.34 0 00-.134-.178.431.431 0 00-.43.02.988.988 0 00-.243.247c-.089.118-.188.28-.297.485-.11.205-.24.467-.39.786v4.41h-1.094v-6.864h.91l.054 1.306c.119-.26.234-.481.345-.663.112-.183.227-.33.346-.441.118-.112.244-.194.379-.246.134-.053.284-.079.448-.079.369 0 .65.12.84.362.192.242.288.616.288 1.122.109-.237.216-.448.32-.633a2.31 2.31 0 01.34-.465c.12-.125.253-.22.4-.287.145-.066.314-.099.505-.099.861 0 1.292.663 1.292 1.99v4.996h-1.094zm8.6-3.794c0 .17-.002.31-.007.424a6.37 6.37 0 01-.02.322h-4.82c0 .701.196 1.24.588 1.616.392.376.957.564 1.695.564.2 0 .401-.008.602-.024.2-.016.394-.037.581-.065.187-.027.366-.058.537-.092.17-.034.329-.072.475-.113v.978a9.161 9.161 0 01-2.365.308c-.588 0-1.094-.08-1.518-.24a2.597 2.597 0 01-1.043-.694 2.857 2.857 0 01-.601-1.114 5.273 5.273 0 01-.195-1.494c0-.483.07-.94.209-1.37a3.44 3.44 0 01.608-1.135c.267-.326.594-.584.98-.776a2.94 2.94 0 011.32-.287c.479 0 .903.075 1.272.226.369.15.68.363.933.639s.444.61.574 1.005c.13.394.195.835.195 1.322zm-1.237-.17a2.593 2.593 0 00-.09-.838 1.763 1.763 0 00-.338-.653 1.576 1.576 0 00-.57-.427 1.916 1.916 0 00-.793-.154c-.26 0-.497.05-.711.15-.215.101-.4.242-.554.425a2.19 2.19 0 00-.376.656 3.026 3.026 0 00-.178.84h3.61zm3.137-2.899h1.06l.048 1.108c.2-.237.394-.435.58-.592.188-.157.371-.283.551-.38a2.06 2.06 0 01.55-.2c.187-.04.38-.059.581-.059.707 0 1.241.209 1.603.626.363.417.544 1.044.544 1.883v4.477h-1.19v-4.381c0-.538-.1-.936-.3-1.193-.2-.258-.5-.387-.896-.387-.146 0-.288.022-.427.065a1.557 1.557 0 00-.434.226c-.15.107-.314.252-.489.434s-.373.41-.591.684v4.552h-1.19v-6.863zm13.228 6.768a5.793 5.793 0 01-.834.147 8.52 8.52 0 01-.875.044c-.862 0-1.504-.195-1.928-.584-.424-.39-.636-.988-.636-1.795v-3.582h-1.92v-.998h1.92v-1.887l1.19-.307v2.194h3.083v.998H94.8v3.487c0 .492.13.86.393 1.104.262.243.648.365 1.159.365.218 0 .458-.017.717-.051.26-.034.531-.088.814-.16v1.025z"/><path id=":{" fill="#999" d="M102.806 155.912c.14 0 .275.029.403.086a1.107 1.107 0 01.564.564.978.978 0 01.085.403.971.971 0 01-.085.407 1.12 1.12 0 01-.23.331 1.058 1.058 0 01-.737.308c-.146 0-.282-.028-.407-.082a1.07 1.07 0 01-.557-.557 1.006 1.006 0 01-.082-.407 1.058 1.058 0 01.308-.738 1.12 1.12 0 01.33-.23.971.971 0 01.408-.085zm0 5.01c.14 0 .275.03.403.086a1.107 1.107 0 01.564.564.978.978 0 01.085.404.971.971 0 01-.085.406 1.12 1.12 0 01-.23.332 1.058 1.058 0 01-.737.307c-.146 0-.282-.027-.407-.082a1.07 1.07 0 01-.557-.557 1.006 1.006 0 01-.082-.406 1.058 1.058 0 01.308-.738 1.12 1.12 0 01.33-.23.971.971 0 01.408-.085zm17.677 4.78h-.505c-.88 0-1.534-.207-1.962-.62-.429-.412-.643-1.037-.643-1.876v-2.352a2.18 2.18 0 00-.075-.598.978.978 0 00-.263-.444 1.224 1.224 0 00-.5-.277 2.706 2.706 0 00-.782-.096h-.294v-.95h.294c.333 0 .604-.027.813-.082.21-.054.374-.138.493-.25a.88.88 0 00.246-.427c.045-.173.068-.378.068-.615v-1.62c0-.383.046-.728.137-1.036.09-.307.24-.57.448-.786.207-.216.476-.382.806-.499.33-.116.735-.174 1.214-.174h.505v.957h-.403c-1.057 0-1.586.513-1.586 1.538v1.593c0 1.112-.48 1.738-1.442 1.88.97.095 1.456.72 1.456 1.873v2.338c0 1.043.524 1.565 1.572 1.565h.403v.957z"/><path id="sites" fill="#000" d="M36.21 178.025a1.634 1.634 0 01-.458 1.16 2.084 2.084 0 01-.492.378 3.272 3.272 0 01-.598.26c-.212.069-.43.119-.653.15a4.638 4.638 0 01-.656.048 12.3 12.3 0 01-1.282-.061 8.646 8.646 0 01-1.145-.198v-1.094c.4.114.8.2 1.196.26.397.059.79.089 1.183.089.57 0 .99-.078 1.264-.233.274-.155.41-.376.41-.663a.812.812 0 00-.064-.331.753.753 0 00-.236-.28 2.254 2.254 0 00-.53-.278 11.81 11.81 0 00-.981-.328 6.963 6.963 0 01-.858-.31 2.877 2.877 0 01-.68-.414 1.776 1.776 0 01-.451-.56 1.649 1.649 0 01-.164-.76 1.744 1.744 0 01.588-1.264c.214-.196.503-.36.868-.49.364-.129.82-.194 1.367-.194.269 0 .567.015.895.045.329.03.67.08 1.026.153v1.06a9.803 9.803 0 00-1.063-.202 6.926 6.926 0 00-.872-.065c-.296 0-.546.023-.748.069a1.553 1.553 0 00-.493.188.734.734 0 00-.27.28.748.748 0 00-.082.345c0 .123.024.235.072.335.048.1.137.197.267.29.13.094.31.187.543.28.233.094.536.196.91.305.405.119.747.243 1.025.373.278.13.503.274.677.434.173.16.297.34.372.54.075.2.113.428.113.683zm4.6-4.005h-2.03v-.985h3.234v5.872h2.044v.991h-5.503v-.99h2.256v-4.888zm.418-3.863c.132 0 .255.024.369.072a.893.893 0 01.297.202.919.919 0 01.27.663.96.96 0 01-.27.663.893.893 0 01-.297.201.944.944 0 01-.37.072.944.944 0 01-.369-.072.893.893 0 01-.297-.201.96.96 0 01-.27-.663.919.919 0 01.27-.663.893.893 0 01.297-.202.944.944 0 01.37-.072zm10.472 9.646a5.793 5.793 0 01-.834.147 8.52 8.52 0 01-.875.044c-.861 0-1.504-.195-1.928-.584-.423-.39-.635-.988-.635-1.795v-3.582h-1.921v-.998h1.92v-1.887l1.19-.307v2.194H51.7v.998h-3.083v3.487c0 .492.131.86.393 1.104.262.243.649.365 1.159.365.219 0 .458-.017.718-.051.26-.034.53-.088.813-.16v1.025zm7.964-3.699c0 .17-.002.31-.007.424a6.37 6.37 0 01-.02.322h-4.82c0 .701.196 1.24.588 1.616.392.376.957.564 1.696.564.2 0 .4-.008.601-.024.2-.016.394-.037.581-.065.187-.027.366-.058.537-.092.17-.034.33-.072.475-.113v.978a9.161 9.161 0 01-2.365.308c-.588 0-1.094-.08-1.518-.24a2.597 2.597 0 01-1.042-.694 2.857 2.857 0 01-.602-1.114 5.273 5.273 0 01-.195-1.494c0-.483.07-.94.209-1.37a3.44 3.44 0 01.608-1.135c.267-.326.594-.584.981-.776a2.94 2.94 0 011.32-.287c.478 0 .902.075 1.27.226.37.15.681.363.934.639s.444.61.574 1.005c.13.394.195.835.195 1.322zm-1.237-.17a2.593 2.593 0 00-.09-.838 1.763 1.763 0 00-.337-.653 1.576 1.576 0 00-.571-.427 1.916 1.916 0 00-.793-.154c-.26 0-.497.05-.711.15-.214.101-.399.242-.554.425a2.19 2.19 0 00-.376.656 3.026 3.026 0 00-.178.84h3.61zm8.572 2.091a1.634 1.634 0 01-.458 1.16 2.084 2.084 0 01-.492.378 3.272 3.272 0 01-.598.26c-.212.069-.43.119-.653.15a4.638 4.638 0 01-.656.048 12.3 12.3 0 01-1.282-.061 8.646 8.646 0 01-1.145-.198v-1.094c.4.114.8.2 1.196.26.397.059.79.089 1.183.089.57 0 .991-.078 1.264-.233.274-.155.41-.376.41-.663a.812.812 0 00-.064-.331.753.753 0 00-.236-.28 2.254 2.254 0 00-.53-.278 11.81 11.81 0 00-.981-.328 6.963 6.963 0 01-.858-.31 2.877 2.877 0 01-.68-.414 1.776 1.776 0 01-.451-.56 1.649 1.649 0 01-.164-.76 1.744 1.744 0 01.588-1.264c.214-.196.503-.36.868-.49.364-.129.82-.194 1.367-.194.269 0 .567.015.895.045.329.03.67.08 1.026.153v1.06a9.803 9.803 0 00-1.063-.202 6.926 6.926 0 00-.872-.065c-.296 0-.545.023-.748.069a1.553 1.553 0 00-.492.188.734.734 0 00-.27.28.748.748 0 00-.082.345c0 .123.023.235.071.335.048.1.137.197.267.29.13.094.31.187.543.28.233.094.536.196.91.305.405.119.747.243 1.025.373.278.13.503.274.677.434.173.16.297.34.372.54.075.2.113.428.113.683z"/><path id=":[{" fill="#999" d="M72.017 172.912c.14 0 .275.029.403.086a1.107 1.107 0 01.564.564.978.978 0 01.085.403.971.971 0 01-.085.407 1.12 1.12 0 01-.23.331 1.058 1.058 0 01-.737.308c-.146 0-.282-.028-.407-.082a1.07 1.07 0 01-.557-.557 1.006 1.006 0 01-.082-.407 1.058 1.058 0 01.308-.738 1.12 1.12 0 01.33-.23.971.971 0 01.408-.085zm0 5.01c.14 0 .275.03.403.086a1.107 1.107 0 01.564.564.978.978 0 01.085.404.971.971 0 01-.085.406 1.12 1.12 0 01-.23.332 1.058 1.058 0 01-.737.307c-.146 0-.282-.027-.407-.082a1.07 1.07 0 01-.557-.557 1.006 1.006 0 01-.082-.406 1.058 1.058 0 01.308-.738 1.12 1.12 0 01.33-.23.971.971 0 01.408-.085zm17.274 4.78h-3.37V170h3.37v.957h-2.235v10.787h2.235v.957zm8.1 0h-.505c-.88 0-1.534-.207-1.962-.62-.429-.412-.643-1.037-.643-1.876v-2.352a2.18 2.18 0 00-.075-.598.978.978 0 00-.263-.444 1.224 1.224 0 00-.5-.277 2.706 2.706 0 00-.782-.096h-.294v-.95h.294c.333 0 .604-.027.814-.082.21-.054.373-.138.492-.25a.88.88 0 00.246-.427c.045-.173.068-.378.068-.615v-1.62c0-.383.046-.728.137-1.036.091-.307.24-.57.448-.786.207-.216.476-.382.806-.499.33-.116.735-.174 1.214-.174h.506v.957h-.404c-1.057 0-1.586.513-1.586 1.538v1.593c0 1.112-.48 1.738-1.442 1.88.97.095 1.456.72 1.456 1.873v2.338c0 1.043.524 1.565 1.572 1.565h.404v.957z"/><path id="name" fill="#000" d="M46.17 190.035h1.06l.047 1.108c.2-.237.395-.435.581-.592.187-.157.37-.283.55-.38a2.06 2.06 0 01.551-.2c.187-.04.38-.059.581-.059.706 0 1.24.209 1.603.626.362.417.544 1.044.544 1.883v4.477h-1.19v-4.381c0-.538-.1-.936-.3-1.193-.201-.258-.5-.387-.896-.387-.146 0-.288.022-.427.065a1.557 1.557 0 00-.435.226c-.15.107-.313.252-.488.434-.176.182-.373.41-.592.684v4.552h-1.19v-6.863zm12.106 6.863l-.027-.922c-.374.369-.753.635-1.138.8-.385.163-.79.245-1.214.245-.391 0-.726-.05-1.004-.15a1.883 1.883 0 01-.687-.413 1.603 1.603 0 01-.397-.62 2.289 2.289 0 01-.126-.772c0-.688.256-1.227.769-1.616.512-.39 1.27-.585 2.273-.585h1.421v-.601c0-.406-.13-.73-.39-.974-.259-.244-.655-.366-1.189-.366-.387 0-.769.043-1.145.13-.376.086-.764.21-1.165.369v-1.073a7.36 7.36 0 011.087-.301 7.6 7.6 0 01.642-.1c.224-.024.45-.037.677-.037.415 0 .788.046 1.121.137.333.091.614.23.844.417.23.187.407.421.53.704.123.282.185.615.185.998v4.73h-1.067zm-.13-3.124h-1.51c-.296 0-.552.03-.766.09-.214.059-.39.143-.526.252-.137.11-.238.24-.304.393-.067.153-.1.325-.1.516 0 .133.02.259.062.38.041.12.107.228.198.321.091.093.21.168.356.222.145.055.323.082.533.082.273 0 .587-.083.94-.25.353-.166.726-.429 1.117-.789v-1.217zm8.313 3.124v-4.928c0-.214-.008-.39-.024-.527a1.2 1.2 0 00-.075-.324.348.348 0 00-.13-.168.43.43 0 00-.448.034c-.077.055-.16.144-.25.267a4.216 4.216 0 00-.293.489 30.3 30.3 0 00-.38.748v4.41h-1.087v-4.8c0-.25-.008-.453-.023-.608a1.42 1.42 0 00-.076-.362.34.34 0 00-.133-.178.431.431 0 00-.43.02.988.988 0 00-.243.247c-.09.118-.188.28-.298.485-.109.205-.239.467-.39.786v4.41h-1.093v-6.864h.91l.054 1.306c.118-.26.233-.481.345-.663.112-.183.227-.33.345-.441.119-.112.245-.194.38-.246.134-.053.283-.079.447-.079.37 0 .65.12.841.362.192.242.287.616.287 1.122.11-.237.217-.448.322-.633a2.31 2.31 0 01.338-.465c.12-.125.254-.22.4-.287.146-.066.314-.099.506-.099.861 0 1.292.663 1.292 1.99v4.996h-1.094zm8.6-3.794c0 .17-.003.31-.007.424a6.37 6.37 0 01-.02.322h-4.82c0 .701.196 1.24.588 1.616.392.376.957.564 1.695.564.2 0 .401-.008.602-.024.2-.016.394-.037.58-.065.188-.027.366-.058.537-.092.171-.034.33-.072.475-.113v.978a9.161 9.161 0 01-2.365.308c-.588 0-1.094-.08-1.517-.24a2.597 2.597 0 01-1.043-.694 2.857 2.857 0 01-.601-1.114 5.273 5.273 0 01-.195-1.494c0-.483.07-.94.208-1.37a3.44 3.44 0 01.609-1.135c.266-.326.593-.584.98-.776a2.94 2.94 0 011.32-.287c.478 0 .902.075 1.271.226.37.15.68.363.934.639.252.276.444.61.574 1.005.13.394.195.835.195 1.322zm-1.238-.17a2.593 2.593 0 00-.089-.838 1.763 1.763 0 00-.338-.653 1.576 1.576 0 00-.57-.427 1.916 1.916 0 00-.794-.154c-.26 0-.496.05-.71.15-.215.101-.4.242-.554.425a2.19 2.19 0 00-.376.656 3.026 3.026 0 00-.178.84h3.61z"/><path id=":" fill="#999" d="M79.714 189.912c.141 0 .276.029.403.086a1.107 1.107 0 01.564.564.978.978 0 01.086.403.971.971 0 01-.086.407 1.12 1.12 0 01-.229.331 1.058 1.058 0 01-.738.308c-.146 0-.282-.028-.407-.082a1.07 1.07 0 01-.557-.557 1.006 1.006 0 01-.082-.407 1.058 1.058 0 01.308-.738 1.12 1.12 0 01.331-.23.971.971 0 01.407-.085zm0 5.01c.141 0 .276.03.403.086a1.107 1.107 0 01.564.564.978.978 0 01.086.404.971.971 0 01-.086.406 1.12 1.12 0 01-.229.332 1.058 1.058 0 01-.738.307c-.146 0-.282-.027-.407-.082a1.07 1.07 0 01-.557-.557 1.006 1.006 0 01-.082-.406 1.058 1.058 0 01.308-.738 1.12 1.12 0 01.331-.23.971.971 0 01.407-.085z"/><path id="'Peter'" fill="#690" d="M95.895 187.24l-.199 3.205h-1.175l-.192-3.206h1.566zm10.007 3.458c0 .365-.068.726-.205 1.084a2.68 2.68 0 01-.635.96 3.227 3.227 0 01-1.101.687c-.447.176-.98.263-1.6.263h-1.107v3.206h-1.217v-8.934h2.516c.442 0 .866.049 1.271.147.406.098.762.256 1.07.475.308.219.553.501.735.848.182.346.273.767.273 1.264zm-1.264.055c0-.574-.188-1.014-.564-1.32-.376-.305-.901-.457-1.576-.457h-1.244v3.677h1.135c.72 0 1.275-.157 1.664-.471.39-.315.585-.791.585-1.43zm8.907 2.351c0 .17-.002.31-.007.424a6.37 6.37 0 01-.02.322h-4.82c0 .701.196 1.24.588 1.616.392.376.957.564 1.695.564.201 0 .401-.008.602-.024.2-.016.394-.037.581-.065.187-.027.366-.058.537-.092.17-.034.329-.072.475-.113v.978a9.161 9.161 0 01-2.365.308c-.588 0-1.094-.08-1.518-.24a2.597 2.597 0 01-1.043-.694 2.857 2.857 0 01-.601-1.114 5.273 5.273 0 01-.195-1.494c0-.483.07-.94.209-1.37a3.44 3.44 0 01.608-1.135c.267-.326.594-.584.981-.776a2.94 2.94 0 011.32-.287c.478 0 .902.075 1.27.226.37.15.68.363.934.639.253.276.444.61.574 1.005.13.394.195.835.195 1.322zm-1.237-.17a2.593 2.593 0 00-.09-.838 1.763 1.763 0 00-.338-.653 1.576 1.576 0 00-.57-.427 1.916 1.916 0 00-.793-.154c-.26 0-.497.05-.711.15-.215.101-.4.242-.554.425a2.19 2.19 0 00-.376.656 3.026 3.026 0 00-.178.84h3.61zm8.668 3.869a5.793 5.793 0 01-.834.147 8.52 8.52 0 01-.875.044c-.862 0-1.504-.195-1.928-.584-.424-.39-.636-.988-.636-1.795v-3.582h-1.92v-.998h1.92v-1.887l1.19-.307v2.194h3.083v.998h-3.083v3.487c0 .492.13.86.393 1.104.262.243.648.365 1.158.365.22 0 .458-.017.718-.051.26-.034.531-.088.814-.16v1.025zm7.963-3.699c0 .17-.002.31-.006.424a6.37 6.37 0 01-.02.322h-4.82c0 .701.196 1.24.588 1.616.392.376.957.564 1.695.564.2 0 .401-.008.602-.024.2-.016.394-.037.58-.065.187-.027.366-.058.537-.092.171-.034.33-.072.475-.113v.978a9.161 9.161 0 01-2.365.308c-.588 0-1.094-.08-1.517-.24a2.597 2.597 0 01-1.043-.694 2.857 2.857 0 01-.602-1.114 5.273 5.273 0 01-.194-1.494c0-.483.07-.94.208-1.37a3.44 3.44 0 01.609-1.135c.266-.326.593-.584.98-.776a2.94 2.94 0 011.32-.287c.478 0 .902.075 1.271.226.37.15.68.363.933.639s.445.61.575 1.005c.13.394.194.835.194 1.322zm-1.237-.17a2.593 2.593 0 00-.089-.838 1.763 1.763 0 00-.338-.653 1.576 1.576 0 00-.57-.427 1.916 1.916 0 00-.794-.154c-.26 0-.497.05-.71.15-.215.101-.4.242-.555.425a2.19 2.19 0 00-.375.656 3.026 3.026 0 00-.178.84h3.61zm3.418-2.899h1.087l.034 1.265c.406-.488.806-.841 1.2-1.06a2.436 2.436 0 011.193-.328c.71 0 1.25.23 1.616.69.367.46.537 1.144.51 2.051h-1.203c.013-.601-.074-1.038-.264-1.309-.189-.27-.466-.406-.83-.406-.16 0-.32.028-.482.085a1.947 1.947 0 00-.5.273 4.47 4.47 0 00-.543.482 8.898 8.898 0 00-.615.711v4.41h-1.203v-6.864zm10.958-2.796l-.198 3.206h-1.176l-.191-3.206h1.565z"/><path id="," fill="#999" d="M146.768 198.3c.232.009.458-.012.676-.062a2.02 2.02 0 00.578-.222c.166-.098.3-.22.4-.366a.86.86 0 00.15-.499.95.95 0 00-.099-.464 2.238 2.238 0 00-.222-.329 2.438 2.438 0 01-.222-.32.91.91 0 01-.1-.459.915.915 0 01.223-.588.857.857 0 01.287-.212 1.12 1.12 0 01.875.017c.148.066.278.168.39.305.111.136.2.307.266.512.066.205.1.447.1.725 0 .378-.07.742-.21 1.09a2.657 2.657 0 01-.621.926c-.276.27-.62.484-1.032.643-.413.16-.893.24-1.44.24v-.937z"/><path id="salary" fill="#000" d="M51.604 212.025a1.634 1.634 0 01-.458 1.16 2.084 2.084 0 01-.492.378 3.272 3.272 0 01-.598.26c-.212.069-.43.119-.653.15a4.638 4.638 0 01-.656.048 12.3 12.3 0 01-1.282-.061 8.646 8.646 0 01-1.145-.198v-1.094c.401.114.8.2 1.197.26.396.059.79.089 1.182.089.57 0 .991-.078 1.265-.233.273-.155.41-.376.41-.663a.812.812 0 00-.065-.331.753.753 0 00-.236-.28 2.254 2.254 0 00-.53-.278 11.81 11.81 0 00-.98-.328 6.963 6.963 0 01-.858-.31 2.877 2.877 0 01-.68-.414 1.776 1.776 0 01-.452-.56 1.649 1.649 0 01-.164-.76 1.744 1.744 0 01.588-1.264c.214-.196.504-.36.868-.49.365-.129.82-.194 1.367-.194.27 0 .568.015.896.045.328.03.67.08 1.025.153v1.06a9.803 9.803 0 00-1.063-.202 6.926 6.926 0 00-.871-.065c-.296 0-.546.023-.749.069a1.553 1.553 0 00-.492.188.734.734 0 00-.27.28.748.748 0 00-.082.345c0 .123.024.235.072.335.048.1.136.197.266.29.13.094.311.187.544.28.232.094.535.196.909.305.406.119.747.243 1.025.373.278.13.504.274.677.434.173.16.298.34.373.54.075.2.112.428.112.683zm6.672 1.873l-.027-.922c-.374.369-.753.635-1.138.8-.385.163-.79.245-1.214.245-.391 0-.726-.05-1.004-.15a1.883 1.883 0 01-.687-.413 1.603 1.603 0 01-.397-.62 2.289 2.289 0 01-.126-.772c0-.688.256-1.227.769-1.616.512-.39 1.27-.585 2.273-.585h1.421v-.601c0-.406-.13-.73-.39-.974-.259-.244-.655-.366-1.189-.366-.387 0-.769.043-1.145.13-.376.086-.764.21-1.165.369v-1.073a7.36 7.36 0 011.087-.301 7.6 7.6 0 01.642-.1c.224-.024.45-.037.677-.037.415 0 .788.046 1.121.137.333.091.614.23.844.417.23.187.407.421.53.704.123.282.185.615.185.998v4.73h-1.067zm-.13-3.124h-1.51c-.296 0-.552.03-.766.09-.214.059-.39.143-.526.252-.137.11-.238.24-.304.393-.067.153-.1.325-.1.516 0 .133.02.259.062.38.041.12.107.228.198.321.091.093.21.168.356.222.145.055.323.082.533.082.273 0 .587-.083.94-.25.353-.166.726-.429 1.117-.789v-1.217zm5.756-5.557h-2.03v-.978h3.233v8.668h2.044v.991h-5.503v-.99h2.256v-7.691zm9.769 8.681l-.027-.922c-.374.369-.754.635-1.139.8-.385.163-.79.245-1.213.245-.392 0-.727-.05-1.005-.15a1.883 1.883 0 01-.687-.413 1.603 1.603 0 01-.396-.62 2.289 2.289 0 01-.127-.772c0-.688.256-1.227.77-1.616.512-.39 1.27-.585 2.272-.585h1.422v-.601c0-.406-.13-.73-.39-.974s-.656-.366-1.19-.366c-.386 0-.768.043-1.144.13-.376.086-.765.21-1.166.369v-1.073a7.36 7.36 0 011.087-.301 7.6 7.6 0 01.643-.1c.223-.024.449-.037.677-.037.414 0 .788.046 1.12.137.333.091.615.23.845.417.23.187.407.421.53.704.123.282.184.615.184.998v4.73h-1.066zm-.13-3.124h-1.51c-.297 0-.552.03-.766.09-.215.059-.39.143-.527.252-.136.11-.238.24-.304.393-.066.153-.099.325-.099.516 0 .133.02.259.061.38.042.12.108.228.199.321.09.093.21.168.355.222.146.055.324.082.533.082.274 0 .587-.083.94-.25.354-.166.726-.429 1.118-.789v-1.217zm3.698-3.739h1.087l.034 1.265c.406-.488.806-.841 1.2-1.06a2.436 2.436 0 011.193-.328c.71 0 1.25.23 1.617.69.366.46.536 1.144.509 2.051h-1.203c.013-.601-.074-1.038-.263-1.309-.19-.27-.466-.406-.831-.406-.16 0-.32.028-.482.085a1.947 1.947 0 00-.499.273 4.47 4.47 0 00-.543.482 8.898 8.898 0 00-.616.711v4.41H77.24v-6.864zm13.522 0l-2.338 6.139a12.037 12.037 0 01-.749 1.613 4.784 4.784 0 01-.844 1.11c-.305.29-.64.503-1.005.64a3.463 3.463 0 01-1.223.205 6.811 6.811 0 01-.636-.027v-1.08c.1.013.21.026.328.037.118.012.244.017.376.017.219 0 .423-.031.612-.095s.368-.168.536-.311c.169-.144.33-.33.486-.557.155-.228.305-.504.45-.828l-2.74-6.863h1.353l1.737 4.54.348 1.066.397-1.094 1.606-4.512h1.306z"/><path id=":" fill="#999" d="M95.108 206.912c.142 0 .276.029.404.086a1.107 1.107 0 01.564.564.978.978 0 01.085.403.971.971 0 01-.085.407 1.12 1.12 0 01-.23.331 1.058 1.058 0 01-.738.308c-.145 0-.281-.028-.406-.082a1.07 1.07 0 01-.557-.557 1.006 1.006 0 01-.082-.407 1.058 1.058 0 01.308-.738 1.12 1.12 0 01.33-.23.971.971 0 01.407-.085zm0 5.01c.142 0 .276.03.404.086a1.107 1.107 0 01.564.564.978.978 0 01.085.404.971.971 0 01-.085.406 1.12 1.12 0 01-.23.332 1.058 1.058 0 01-.738.307c-.145 0-.281-.027-.406-.082a1.07 1.07 0 01-.557-.557 1.006 1.006 0 01-.082-.406 1.058 1.058 0 01.308-.738 1.12 1.12 0 01.33-.23.971.971 0 01.407-.085z"/><path id="2000" fill="#905" d="M113.545 213.898h-5.886v-1.066l2.31-2.297c.379-.374.687-.697.924-.97.237-.274.421-.523.553-.75a2.28 2.28 0 00.267-.638c.045-.2.068-.417.068-.65 0-.218-.03-.427-.089-.625a1.49 1.49 0 00-.273-.523 1.268 1.268 0 00-.479-.356 1.734 1.734 0 00-.704-.13c-.378 0-.722.085-1.032.253-.31.17-.595.388-.854.657l-.657-.786c.338-.356.726-.64 1.166-.855.44-.214.951-.321 1.535-.321.396 0 .757.06 1.083.178.326.118.607.289.844.512.237.224.42.497.55.82.13.324.195.689.195 1.094 0 .342-.045.659-.136.95a3.646 3.646 0 01-.414.872c-.184.29-.417.59-.697.899-.28.31-.612.65-.995 1.019l-1.62 1.579h4.34v1.134zm7.902-4.463c0 .683-.068 1.306-.205 1.87a4.33 4.33 0 01-.622 1.448 2.925 2.925 0 01-1.036.937c-.412.221-.896.331-1.452.331-.479 0-.914-.09-1.306-.27a2.594 2.594 0 01-1.005-.83c-.278-.374-.492-.85-.642-1.429-.15-.579-.226-1.264-.226-2.057 0-.684.07-1.308.209-1.873.139-.566.346-1.05.622-1.453.275-.403.62-.716 1.035-.937.415-.22.898-.331 1.45-.331.478 0 .913.09 1.305.27.392.18.727.458 1.005.834.278.376.492.853.643 1.432.15.579.225 1.265.225 2.058zm-1.203.04c0-.154-.006-.308-.017-.46a23.678 23.678 0 00-.038-.449l-3.78 2.81c.069.237.155.456.26.656.105.2.231.373.38.516.147.144.316.256.505.335.19.08.405.12.646.12.31 0 .592-.075.844-.226.253-.15.469-.373.646-.67.178-.296.315-.664.41-1.104.096-.44.144-.949.144-1.527zm-4.088-.081c0 .14.001.282.004.423.002.142.01.278.024.41l3.78-2.795a3.198 3.198 0 00-.26-.636 2.016 2.016 0 00-.376-.496 1.612 1.612 0 00-.499-.324 1.628 1.628 0 00-.629-.117c-.31 0-.591.076-.844.226-.253.15-.468.375-.646.673a3.697 3.697 0 00-.41 1.108 7.24 7.24 0 00-.144 1.528zm12.989.04c0 .684-.069 1.307-.206 1.87a4.33 4.33 0 01-.622 1.45 2.925 2.925 0 01-1.035.936c-.413.221-.897.331-1.453.331-.478 0-.914-.09-1.306-.27a2.594 2.594 0 01-1.004-.83c-.278-.374-.493-.85-.643-1.429-.15-.579-.226-1.264-.226-2.057 0-.684.07-1.308.209-1.873.139-.566.346-1.05.622-1.453s.62-.716 1.036-.937c.414-.22.897-.331 1.449-.331.478 0 .914.09 1.305.27.392.18.727.458 1.005.834.278.376.493.853.643 1.432.15.579.226 1.265.226 2.058zm-1.204.042c0-.155-.005-.31-.017-.462a23.67 23.67 0 00-.037-.448l-3.78 2.81c.068.237.154.456.26.656.104.2.23.373.379.516.148.144.316.256.505.335.19.08.405.12.646.12.31 0 .592-.075.845-.226.253-.15.468-.373.646-.67.177-.296.314-.664.41-1.104.096-.44.143-.949.143-1.527zm-4.087-.082c0 .14 0 .282.003.423.002.142.01.278.024.41l3.78-2.795a3.198 3.198 0 00-.26-.636 2.016 2.016 0 00-.376-.496 1.612 1.612 0 00-.499-.324 1.628 1.628 0 00-.629-.117c-.31 0-.59.076-.844.226-.253.15-.468.375-.646.673a3.697 3.697 0 00-.41 1.108 7.24 7.24 0 00-.143 1.528zm12.988.04c0 .684-.069 1.307-.205 1.87a4.33 4.33 0 01-.622 1.45 2.925 2.925 0 01-1.036.936c-.412.221-.897.331-1.453.331-.478 0-.913-.09-1.305-.27a2.594 2.594 0 01-1.005-.83c-.278-.374-.492-.85-.643-1.429-.15-.579-.225-1.264-.225-2.057 0-.684.07-1.308.208-1.873.14-.566.347-1.05.622-1.453.276-.403.621-.716 1.036-.937.415-.22.898-.331 1.45-.331.478 0 .913.09 1.305.27.392.18.727.458 1.005.834.278.376.492.853.642 1.432.15.579.226 1.265.226 2.058zm-1.203.042c0-.155-.006-.31-.017-.462a23.67 23.67 0 00-.038-.448l-3.78 2.81c.068.237.155.456.26.656.104.2.23.373.379.516.148.144.317.256.506.335.189.08.404.12.646.12.31 0 .591-.075.844-.226.253-.15.468-.373.646-.67.178-.296.314-.664.41-1.104.096-.44.144-.949.144-1.527zm-4.088-.082c0 .14 0 .282.003.423.002.142.01.278.024.41l3.78-2.795a3.198 3.198 0 00-.26-.636 2.016 2.016 0 00-.375-.496 1.612 1.612 0 00-.5-.324 1.628 1.628 0 00-.628-.117c-.31 0-.592.076-.845.226-.252.15-.468.375-.646.673a3.697 3.697 0 00-.41 1.108 7.24 7.24 0 00-.143 1.528z"/><path id="},{" fill="#999" d="M31.247 221h.506c.88 0 1.533.206 1.962.619.428.412.642 1.038.642 1.876v1.58c0 .223.025.422.076.597.05.176.137.324.263.445.125.12.293.213.502.277.21.063.472.095.786.095h.294v.95h-.294c-.332 0-.605.028-.817.082a1.116 1.116 0 00-.495.25.88.88 0 00-.246.427 2.438 2.438 0 00-.069.615v2.393c0 .383-.045.728-.136 1.036-.091.307-.24.57-.445.786a1.993 1.993 0 01-.806.499c-.333.116-.739.174-1.217.174h-.506v-.957h.41c1.053 0 1.58-.513 1.58-1.538v-2.365c0-1.112.48-1.737 1.442-1.873-.971-.105-1.456-.732-1.456-1.88v-1.566c0-1.043-.522-1.565-1.566-1.565h-.41V221zm7.759 11.3c.232.009.458-.012.677-.062a2.02 2.02 0 00.577-.222c.167-.098.3-.22.4-.366a.86.86 0 00.15-.499.95.95 0 00-.099-.464 2.238 2.238 0 00-.222-.329 2.438 2.438 0 01-.222-.32.91.91 0 01-.099-.459.915.915 0 01.222-.588.857.857 0 01.287-.212 1.12 1.12 0 01.875.017c.148.066.278.168.39.305.112.136.2.307.266.512.067.205.1.447.1.725 0 .378-.07.742-.209 1.09a2.657 2.657 0 01-.622.926c-.276.27-.62.484-1.032.643-.413.16-.892.24-1.44.24v-.937zm19.9 1.401h-.507c-.88 0-1.533-.206-1.962-.618-.428-.413-.642-1.038-.642-1.877v-2.352a2.18 2.18 0 00-.075-.598.978.978 0 00-.263-.444 1.224 1.224 0 00-.5-.277 2.706 2.706 0 00-.782-.096h-.294v-.95h.294c.332 0 .604-.027.813-.082.21-.054.374-.138.492-.25a.88.88 0 00.247-.427c.045-.173.068-.378.068-.615v-1.62c0-.383.045-.728.137-1.036.09-.307.24-.57.447-.786.208-.216.477-.382.807-.499.33-.116.735-.174 1.213-.174h.506v.957h-.403c-1.057 0-1.586.513-1.586 1.538v1.593c0 1.112-.48 1.738-1.442 1.88.97.095 1.456.72 1.456 1.873v2.338c0 1.043.524 1.565 1.572 1.565h.403v.957z"/><path id="name" fill="#000" d="M46.17 241.035h1.06l.047 1.108c.2-.237.395-.435.581-.592.187-.157.37-.283.55-.38a2.06 2.06 0 01.551-.2c.187-.04.38-.059.581-.059.706 0 1.24.209 1.603.626.362.417.544 1.044.544 1.883v4.477h-1.19v-4.381c0-.538-.1-.936-.3-1.193-.201-.258-.5-.387-.896-.387-.146 0-.288.022-.427.065a1.557 1.557 0 00-.435.226c-.15.107-.313.252-.488.434-.176.182-.373.41-.592.684v4.552h-1.19v-6.863zm12.106 6.863l-.027-.922c-.374.369-.753.635-1.138.8-.385.163-.79.245-1.214.245-.391 0-.726-.05-1.004-.15a1.883 1.883 0 01-.687-.413 1.603 1.603 0 01-.397-.62 2.289 2.289 0 01-.126-.772c0-.688.256-1.227.769-1.616.512-.39 1.27-.585 2.273-.585h1.421v-.601c0-.406-.13-.73-.39-.974-.259-.244-.655-.366-1.189-.366-.387 0-.769.043-1.145.13-.376.086-.764.21-1.165.369v-1.073a7.36 7.36 0 011.087-.301 7.6 7.6 0 01.642-.1c.224-.024.45-.037.677-.037.415 0 .788.046 1.121.137.333.091.614.23.844.417.23.187.407.421.53.704.123.282.185.615.185.998v4.73h-1.067zm-.13-3.124h-1.51c-.296 0-.552.03-.766.09-.214.059-.39.143-.526.252-.137.11-.238.24-.304.393-.067.153-.1.325-.1.516 0 .133.02.259.062.38.041.12.107.228.198.321.091.093.21.168.356.222.145.055.323.082.533.082.273 0 .587-.083.94-.25.353-.166.726-.429 1.117-.789v-1.217zm8.313 3.124v-4.928c0-.214-.008-.39-.024-.527a1.2 1.2 0 00-.075-.324.348.348 0 00-.13-.168.43.43 0 00-.448.034c-.077.055-.16.144-.25.267a4.216 4.216 0 00-.293.489 30.3 30.3 0 00-.38.748v4.41h-1.087v-4.8c0-.25-.008-.453-.023-.608a1.42 1.42 0 00-.076-.362.34.34 0 00-.133-.178.431.431 0 00-.43.02.988.988 0 00-.243.247c-.09.118-.188.28-.298.485-.109.205-.239.467-.39.786v4.41h-1.093v-6.864h.91l.054 1.306c.118-.26.233-.481.345-.663.112-.183.227-.33.345-.441.119-.112.245-.194.38-.246.134-.053.283-.079.447-.079.37 0 .65.12.841.362.192.242.287.616.287 1.122.11-.237.217-.448.322-.633a2.31 2.31 0 01.338-.465c.12-.125.254-.22.4-.287.146-.066.314-.099.506-.099.861 0 1.292.663 1.292 1.99v4.996h-1.094zm8.6-3.794c0 .17-.003.31-.007.424a6.37 6.37 0 01-.02.322h-4.82c0 .701.196 1.24.588 1.616.392.376.957.564 1.695.564.2 0 .401-.008.602-.024.2-.016.394-.037.58-.065.188-.027.366-.058.537-.092.171-.034.33-.072.475-.113v.978a9.161 9.161 0 01-2.365.308c-.588 0-1.094-.08-1.517-.24a2.597 2.597 0 01-1.043-.694 2.857 2.857 0 01-.601-1.114 5.273 5.273 0 01-.195-1.494c0-.483.07-.94.208-1.37a3.44 3.44 0 01.609-1.135c.266-.326.593-.584.98-.776a2.94 2.94 0 011.32-.287c.478 0 .902.075 1.271.226.37.15.68.363.934.639.252.276.444.61.574 1.005.13.394.195.835.195 1.322zm-1.238-.17a2.593 2.593 0 00-.089-.838 1.763 1.763 0 00-.338-.653 1.576 1.576 0 00-.57-.427 1.916 1.916 0 00-.794-.154c-.26 0-.496.05-.71.15-.215.101-.4.242-.554.425a2.19 2.19 0 00-.376.656 3.026 3.026 0 00-.178.84h3.61z"/><path id=":" fill="#999" d="M79.714 240.912c.141 0 .276.029.403.086a1.107 1.107 0 01.564.564.978.978 0 01.086.403.971.971 0 01-.086.407 1.12 1.12 0 01-.229.331 1.058 1.058 0 01-.738.308c-.146 0-.282-.028-.407-.082a1.07 1.07 0 01-.557-.557 1.006 1.006 0 01-.082-.407 1.058 1.058 0 01.308-.738 1.12 1.12 0 01.331-.23.971.971 0 01.407-.085zm0 5.01c.141 0 .276.03.403.086a1.107 1.107 0 01.564.564.978.978 0 01.086.404.971.971 0 01-.086.406 1.12 1.12 0 01-.229.332 1.058 1.058 0 01-.738.307c-.146 0-.282-.027-.407-.082a1.07 1.07 0 01-.557-.557 1.006 1.006 0 01-.082-.406 1.058 1.058 0 01.308-.738 1.12 1.12 0 01.331-.23.971.971 0 01.407-.085z"/><path id="'Alex'" fill="#690" d="M95.895 238.24l-.199 3.205h-1.175l-.192-3.206h1.566zm10.69 9.658h-1.325l-.622-1.948h-3.72l-.628 1.948h-1.265l2.967-8.934h1.668l2.926 8.934zm-2.296-3.035l-1.51-4.778-1.511 4.778h3.021zm5.797-5.646h-2.03v-.978h3.233v8.668h2.044v.991h-5.503v-.99h2.256v-7.691zm11.156 4.887c0 .17-.002.31-.007.424a6.372 6.372 0 01-.02.322h-4.82c0 .701.196 1.24.588 1.616.392.376.957.564 1.696.564.2 0 .4-.008.601-.024.2-.016.394-.037.581-.065.187-.027.366-.058.537-.092.17-.034.33-.072.475-.113v.978a9.161 9.161 0 01-2.365.308c-.588 0-1.094-.08-1.518-.24a2.597 2.597 0 01-1.042-.694 2.857 2.857 0 01-.602-1.114 5.273 5.273 0 01-.195-1.494c0-.483.07-.94.209-1.37a3.44 3.44 0 01.608-1.135c.267-.326.594-.584.981-.776a2.94 2.94 0 011.32-.287c.478 0 .902.075 1.271.226.37.15.68.363.933.639s.444.61.574 1.005c.13.394.195.835.195 1.322zm-1.237-.17a2.593 2.593 0 00-.089-.838 1.763 1.763 0 00-.338-.653 1.576 1.576 0 00-.571-.427 1.916 1.916 0 00-.793-.154c-.26 0-.497.05-.711.15-.214.101-.399.242-.554.425a2.19 2.19 0 00-.376.656 3.026 3.026 0 00-.177.84h3.609zm9.324 3.964h-1.579l-1.853-2.618-1.832 2.618h-1.538l2.66-3.445-2.537-3.418h1.525l1.804 2.639 1.771-2.639h1.47l-2.577 3.445 2.686 3.418zm5.052-9.659l-.198 3.206h-1.176l-.192-3.206h1.566z"/><path id="," fill="#999" d="M139.07 249.3c.233.009.458-.012.677-.062a2.02 2.02 0 00.578-.222c.166-.098.3-.22.4-.366a.86.86 0 00.15-.499.95.95 0 00-.1-.464 2.238 2.238 0 00-.221-.329 2.438 2.438 0 01-.222-.32.91.91 0 01-.1-.459.915.915 0 01.223-.588.857.857 0 01.287-.212 1.12 1.12 0 01.875.017c.148.066.278.168.39.305.111.136.2.307.266.512.066.205.1.447.1.725 0 .378-.07.742-.21 1.09a2.657 2.657 0 01-.621.926c-.276.27-.62.484-1.033.643-.412.16-.892.24-1.439.24v-.937z"/><path id="salary" fill="#000" d="M51.604 263.025a1.634 1.634 0 01-.458 1.16 2.084 2.084 0 01-.492.378 3.272 3.272 0 01-.598.26c-.212.069-.43.119-.653.15a4.638 4.638 0 01-.656.048 12.3 12.3 0 01-1.282-.061 8.646 8.646 0 01-1.145-.198v-1.094c.401.114.8.2 1.197.26.396.059.79.089 1.182.089.57 0 .991-.078 1.265-.233.273-.155.41-.376.41-.663a.812.812 0 00-.065-.331.753.753 0 00-.236-.28 2.254 2.254 0 00-.53-.278 11.81 11.81 0 00-.98-.328 6.963 6.963 0 01-.858-.31 2.877 2.877 0 01-.68-.414 1.776 1.776 0 01-.452-.56 1.649 1.649 0 01-.164-.76 1.744 1.744 0 01.588-1.264c.214-.196.504-.36.868-.49.365-.129.82-.194 1.367-.194.27 0 .568.015.896.045.328.03.67.08 1.025.153v1.06a9.803 9.803 0 00-1.063-.202 6.926 6.926 0 00-.871-.065c-.296 0-.546.023-.749.069a1.553 1.553 0 00-.492.188.734.734 0 00-.27.28.748.748 0 00-.082.345c0 .123.024.235.072.335.048.1.136.197.266.29.13.094.311.187.544.28.232.094.535.196.909.305.406.119.747.243 1.025.373.278.13.504.274.677.434.173.16.298.34.373.54.075.2.112.428.112.683zm6.672 1.873l-.027-.922c-.374.369-.753.635-1.138.8-.385.163-.79.245-1.214.245-.391 0-.726-.05-1.004-.15a1.883 1.883 0 01-.687-.413 1.603 1.603 0 01-.397-.62 2.289 2.289 0 01-.126-.772c0-.688.256-1.227.769-1.616.512-.39 1.27-.585 2.273-.585h1.421v-.601c0-.406-.13-.73-.39-.974-.259-.244-.655-.366-1.189-.366-.387 0-.769.043-1.145.13-.376.086-.764.21-1.165.369v-1.073a7.36 7.36 0 011.087-.301 7.6 7.6 0 01.642-.1c.224-.024.45-.037.677-.037.415 0 .788.046 1.121.137.333.091.614.23.844.417.23.187.407.421.53.704.123.282.185.615.185.998v4.73h-1.067zm-.13-3.124h-1.51c-.296 0-.552.03-.766.09-.214.059-.39.143-.526.252-.137.11-.238.24-.304.393-.067.153-.1.325-.1.516 0 .133.02.259.062.38.041.12.107.228.198.321.091.093.21.168.356.222.145.055.323.082.533.082.273 0 .587-.083.94-.25.353-.166.726-.429 1.117-.789v-1.217zm5.756-5.557h-2.03v-.978h3.233v8.668h2.044v.991h-5.503v-.99h2.256v-7.691zm9.769 8.681l-.027-.922c-.374.369-.754.635-1.139.8-.385.163-.79.245-1.213.245-.392 0-.727-.05-1.005-.15a1.883 1.883 0 01-.687-.413 1.603 1.603 0 01-.396-.62 2.289 2.289 0 01-.127-.772c0-.688.256-1.227.77-1.616.512-.39 1.27-.585 2.272-.585h1.422v-.601c0-.406-.13-.73-.39-.974s-.656-.366-1.19-.366c-.386 0-.768.043-1.144.13-.376.086-.765.21-1.166.369v-1.073a7.36 7.36 0 011.087-.301 7.6 7.6 0 01.643-.1c.223-.024.449-.037.677-.037.414 0 .788.046 1.12.137.333.091.615.23.845.417.23.187.407.421.53.704.123.282.184.615.184.998v4.73h-1.066zm-.13-3.124h-1.51c-.297 0-.552.03-.766.09-.215.059-.39.143-.527.252-.136.11-.238.24-.304.393-.066.153-.099.325-.099.516 0 .133.02.259.061.38.042.12.108.228.199.321.09.093.21.168.355.222.146.055.324.082.533.082.274 0 .587-.083.94-.25.354-.166.726-.429 1.118-.789v-1.217zm3.698-3.739h1.087l.034 1.265c.406-.488.806-.841 1.2-1.06a2.436 2.436 0 011.193-.328c.71 0 1.25.23 1.617.69.366.46.536 1.144.509 2.051h-1.203c.013-.601-.074-1.038-.263-1.309-.19-.27-.466-.406-.831-.406-.16 0-.32.028-.482.085a1.947 1.947 0 00-.499.273 4.47 4.47 0 00-.543.482 8.898 8.898 0 00-.616.711v4.41H77.24v-6.864zm13.522 0l-2.338 6.139a12.037 12.037 0 01-.749 1.613 4.784 4.784 0 01-.844 1.11c-.305.29-.64.503-1.005.64a3.463 3.463 0 01-1.223.205 6.811 6.811 0 01-.636-.027v-1.08c.1.013.21.026.328.037.118.012.244.017.376.017.219 0 .423-.031.612-.095s.368-.168.536-.311c.169-.144.33-.33.486-.557.155-.228.305-.504.45-.828l-2.74-6.863h1.353l1.737 4.54.348 1.066.397-1.094 1.606-4.512h1.306z"/><path id=":" fill="#999" d="M95.108 257.912c.142 0 .276.029.404.086a1.107 1.107 0 01.564.564.978.978 0 01.085.403.971.971 0 01-.085.407 1.12 1.12 0 01-.23.331 1.058 1.058 0 01-.738.308c-.145 0-.281-.028-.406-.082a1.07 1.07 0 01-.557-.557 1.006 1.006 0 01-.082-.407 1.058 1.058 0 01.308-.738 1.12 1.12 0 01.33-.23.971.971 0 01.407-.085zm0 5.01c.142 0 .276.03.404.086a1.107 1.107 0 01.564.564.978.978 0 01.085.404.971.971 0 01-.085.406 1.12 1.12 0 01-.23.332 1.058 1.058 0 01-.738.307c-.145 0-.281-.027-.406-.082a1.07 1.07 0 01-.557-.557 1.006 1.006 0 01-.082-.406 1.058 1.058 0 01.308-.738 1.12 1.12 0 01.33-.23.971.971 0 01.407-.085z"/><path id="1800" fill="#905" d="M113.47 264.898h-5.613v-1.107h2.297v-6.521l-2.14 1.162-.437-1.012 2.844-1.497h1.053v7.868h1.996v1.107zm7.772-2.242c0 .379-.077.715-.232 1.009a2.13 2.13 0 01-.65.741c-.278.2-.606.353-.984.458a4.594 4.594 0 01-1.23.157c-.488 0-.918-.054-1.29-.164a2.768 2.768 0 01-.932-.458 1.93 1.93 0 01-.759-1.586c0-.546.153-1.018.458-1.415.305-.396.777-.756 1.415-1.08-.583-.296-1.01-.625-1.278-.987a2.038 2.038 0 01-.404-1.248 2.047 2.047 0 01.715-1.552c.24-.21.539-.377.899-.502.36-.126.784-.188 1.271-.188.46 0 .865.049 1.214.147.348.098.641.238.878.42s.415.404.533.663c.119.26.178.55.178.868 0 .52-.145.962-.434 1.327-.29.364-.7.683-1.234.957.264.132.51.278.738.437a3.2 3.2 0 01.595.533c.169.196.3.415.393.657.093.241.14.51.14.806zm-1.415-4.62c0-.406-.142-.708-.427-.907-.285-.198-.685-.297-1.2-.297-.51 0-.908.098-1.193.294-.285.196-.427.49-.427.882a1.175 1.175 0 00.42.916c.144.132.323.262.537.39.214.127.47.257.766.39.515-.242.898-.494 1.148-.756a1.28 1.28 0 00.376-.913zm.123 4.71c0-.17-.027-.334-.082-.493a1.367 1.367 0 00-.294-.472 2.951 2.951 0 00-.567-.465 6.682 6.682 0 00-.903-.478c-.31.15-.57.3-.782.448a2.698 2.698 0 00-.513.45c-.13.153-.222.312-.277.476a1.632 1.632 0 00-.082.52c0 .205.045.386.133.543.09.157.211.29.366.4.155.11.34.191.554.246.214.055.447.082.697.082.242 0 .47-.025.684-.075.214-.05.4-.127.557-.23.157-.102.281-.232.372-.389.092-.157.137-.345.137-.564zm9.195-2.311c0 .683-.069 1.306-.206 1.87a4.33 4.33 0 01-.622 1.448 2.925 2.925 0 01-1.035.937c-.413.221-.897.331-1.453.331-.478 0-.914-.09-1.306-.27a2.594 2.594 0 01-1.004-.83c-.278-.374-.493-.85-.643-1.429-.15-.579-.226-1.264-.226-2.057 0-.684.07-1.308.209-1.873.139-.566.346-1.05.622-1.453s.62-.716 1.036-.937c.414-.22.897-.331 1.449-.331.478 0 .914.09 1.305.27.392.18.727.458 1.005.834.278.376.493.853.643 1.432.15.579.226 1.265.226 2.058zm-1.204.04c0-.154-.005-.308-.017-.46a23.67 23.67 0 00-.037-.449l-3.78 2.81c.068.237.154.456.26.656.104.2.23.373.379.516.148.144.316.256.505.335.19.08.405.12.646.12.31 0 .592-.075.845-.226.253-.15.468-.373.646-.67.177-.296.314-.664.41-1.104.096-.44.143-.949.143-1.527zm-4.087-.081c0 .14 0 .282.003.423.002.142.01.278.024.41l3.78-2.795a3.198 3.198 0 00-.26-.636 2.016 2.016 0 00-.376-.496 1.612 1.612 0 00-.499-.324 1.628 1.628 0 00-.629-.117c-.31 0-.59.076-.844.226-.253.15-.468.375-.646.673a3.697 3.697 0 00-.41 1.108 7.24 7.24 0 00-.143 1.528zm12.988.04c0 .684-.069 1.307-.205 1.87a4.33 4.33 0 01-.622 1.45 2.925 2.925 0 01-1.036.936c-.412.221-.897.331-1.453.331-.478 0-.913-.09-1.305-.27a2.594 2.594 0 01-1.005-.83c-.278-.374-.492-.85-.643-1.429-.15-.579-.225-1.264-.225-2.057 0-.684.07-1.308.208-1.873.14-.566.347-1.05.622-1.453.276-.403.621-.716 1.036-.937.415-.22.898-.331 1.45-.331.478 0 .913.09 1.305.27.392.18.727.458 1.005.834.278.376.492.853.642 1.432.15.579.226 1.265.226 2.058zm-1.203.042c0-.155-.006-.31-.017-.462a23.67 23.67 0 00-.038-.448l-3.78 2.81c.068.237.155.456.26.656.104.2.23.373.379.516.148.144.317.256.506.335.189.08.404.12.646.12.31 0 .591-.075.844-.226.253-.15.468-.373.646-.67.178-.296.314-.664.41-1.104.096-.44.144-.949.144-1.527zm-4.088-.082c0 .14 0 .282.003.423.002.142.01.278.024.41l3.78-2.795a3.198 3.198 0 00-.26-.636 2.016 2.016 0 00-.375-.496 1.612 1.612 0 00-.5-.324 1.628 1.628 0 00-.628-.117c-.31 0-.592.076-.845.226-.252.15-.468.375-.646.673a3.697 3.697 0 00-.41 1.108 7.24 7.24 0 00-.143 1.528z"/><path id="}]," fill="#999" d="M31.247 272h.506c.88 0 1.533.206 1.962.619.428.412.642 1.038.642 1.876v1.58c0 .223.025.422.076.597.05.176.137.324.263.445.125.12.293.213.502.277.21.063.472.095.786.095h.294v.95h-.294c-.332 0-.605.028-.817.082a1.116 1.116 0 00-.495.25.88.88 0 00-.246.427 2.438 2.438 0 00-.069.615v2.393c0 .383-.045.728-.136 1.036-.091.307-.24.57-.445.786a1.993 1.993 0 01-.806.499c-.333.116-.739.174-1.217.174h-.506v-.957h.41c1.053 0 1.58-.513 1.58-1.538v-2.365c0-1.112.48-1.737 1.442-1.873-.971-.105-1.456-.732-1.456-1.88v-1.566c0-1.043-.522-1.565-1.566-1.565h-.41V272zm11.47 12.701h-3.37v-.957h2.222v-10.787h-2.221V272h3.37v12.701zm3.986-1.401c.233.009.458-.012.677-.062a2.02 2.02 0 00.578-.222c.166-.098.3-.22.4-.366a.86.86 0 00.15-.499.95.95 0 00-.1-.464 2.238 2.238 0 00-.221-.329 2.438 2.438 0 01-.223-.32.91.91 0 01-.099-.459.915.915 0 01.222-.588.857.857 0 01.288-.212 1.12 1.12 0 01.875.017c.148.066.278.168.39.305.11.136.2.307.266.512.066.205.099.447.099.725 0 .378-.07.742-.209 1.09a2.657 2.657 0 01-.622.926c-.275.27-.62.484-1.032.643-.412.16-.892.24-1.439.24v-.937z"/><path id="internals" fill="#000" d="M33.113 310.02h-2.03v-.985h3.233v5.872h2.044v.991h-5.503v-.99h2.256v-4.888zm.417-3.863c.132 0 .255.024.37.072a.893.893 0 01.297.202.919.919 0 01.27.663.96.96 0 01-.27.663.893.893 0 01-.298.201.944.944 0 01-.369.072.944.944 0 01-.369-.072.893.893 0 01-.297-.201.96.96 0 01-.27-.663.919.919 0 01.27-.663.893.893 0 01.297-.202.944.944 0 01.37-.072zm4.943 2.878h1.06l.047 1.108c.2-.237.394-.435.581-.592.187-.157.37-.283.55-.38a2.06 2.06 0 01.55-.2c.188-.04.381-.059.582-.059.706 0 1.24.209 1.603.626.362.417.543 1.044.543 1.883v4.477H42.8v-4.381c0-.538-.1-.936-.3-1.193-.2-.258-.499-.387-.895-.387-.146 0-.289.022-.428.065a1.557 1.557 0 00-.434.226c-.15.107-.313.252-.489.434-.175.182-.372.41-.59.684v4.552h-1.19v-6.863zm13.227 6.768a5.793 5.793 0 01-.834.147 8.52 8.52 0 01-.875.044c-.861 0-1.504-.195-1.928-.584-.423-.39-.635-.988-.635-1.795v-3.582h-1.921v-.998h1.92v-1.887l1.19-.307v2.194H51.7v.998h-3.083v3.487c0 .492.131.86.393 1.104.262.243.649.365 1.159.365.219 0 .458-.017.718-.051.26-.034.53-.088.813-.16v1.025zm7.964-3.699c0 .17-.002.31-.007.424a6.37 6.37 0 01-.02.322h-4.82c0 .701.196 1.24.588 1.616.392.376.957.564 1.696.564.2 0 .4-.008.601-.024.2-.016.394-.037.581-.065.187-.027.366-.058.537-.092.17-.034.33-.072.475-.113v.978a9.161 9.161 0 01-2.365.308c-.588 0-1.094-.08-1.518-.24a2.597 2.597 0 01-1.042-.694 2.857 2.857 0 01-.602-1.114 5.273 5.273 0 01-.195-1.494c0-.483.07-.94.209-1.37a3.44 3.44 0 01.608-1.135c.267-.326.594-.584.981-.776a2.94 2.94 0 011.32-.287c.478 0 .902.075 1.27.226.37.15.681.363.934.639s.444.61.574 1.005c.13.394.195.835.195 1.322zm-1.237-.17a2.593 2.593 0 00-.09-.838 1.763 1.763 0 00-.337-.653 1.576 1.576 0 00-.571-.427 1.916 1.916 0 00-.793-.154c-.26 0-.497.05-.711.15-.214.101-.399.242-.554.425a2.19 2.19 0 00-.376.656 3.026 3.026 0 00-.178.84h3.61zm3.418-2.899h1.087l.034 1.265c.405-.488.805-.841 1.2-1.06a2.436 2.436 0 011.192-.328c.711 0 1.25.23 1.617.69.367.46.537 1.144.51 2.051H66.28c.014-.601-.074-1.038-.263-1.309-.19-.27-.466-.406-.83-.406-.16 0-.32.028-.482.085a1.947 1.947 0 00-.5.273 4.47 4.47 0 00-.543.482 8.898 8.898 0 00-.615.711v4.41h-1.203v-6.864zm7.417 0h1.06l.047 1.108c.2-.237.394-.435.581-.592.187-.157.37-.283.55-.38a2.06 2.06 0 01.55-.2c.188-.04.381-.059.582-.059.706 0 1.24.209 1.603.626.362.417.543 1.044.543 1.883v4.477h-1.19v-4.381c0-.538-.1-.936-.3-1.193-.2-.258-.499-.387-.895-.387-.146 0-.289.022-.428.065a1.557 1.557 0 00-.434.226c-.15.107-.313.252-.489.434-.175.182-.372.41-.59.684v4.552h-1.19v-6.863zm12.106 6.863l-.027-.922c-.374.369-.753.635-1.138.8-.385.163-.79.245-1.214.245-.392 0-.727-.05-1.005-.15a1.883 1.883 0 01-.687-.413 1.603 1.603 0 01-.396-.62 2.289 2.289 0 01-.127-.772c0-.688.257-1.227.77-1.616.512-.39 1.27-.585 2.272-.585h1.422v-.601c0-.406-.13-.73-.39-.974s-.656-.366-1.189-.366c-.387 0-.769.043-1.145.13-.376.086-.764.21-1.165.369v-1.073a7.36 7.36 0 011.087-.301 7.6 7.6 0 01.642-.1c.223-.024.449-.037.677-.037.415 0 .788.046 1.121.137.333.091.614.23.844.417.23.187.407.421.53.704.123.282.185.615.185.998v4.73h-1.067zm-.13-3.124h-1.51c-.297 0-.552.03-.766.09-.214.059-.39.143-.526.252-.137.11-.239.24-.305.393-.066.153-.099.325-.099.516 0 .133.02.259.062.38.04.12.107.228.198.321.091.093.21.168.355.222.146.055.324.082.534.082.273 0 .586-.083.94-.25.353-.166.725-.429 1.117-.789v-1.217zm5.756-5.557h-2.03v-.978h3.233v8.668h2.044v.991h-5.503v-.99h2.256v-7.691zm10.794 6.808a1.634 1.634 0 01-.458 1.16 2.084 2.084 0 01-.492.378 3.272 3.272 0 01-.598.26c-.212.069-.43.119-.653.15a4.638 4.638 0 01-.656.048 12.3 12.3 0 01-1.282-.061 8.646 8.646 0 01-1.145-.198v-1.094c.4.114.8.2 1.196.26.397.059.79.089 1.183.089.57 0 .991-.078 1.264-.233.274-.155.41-.376.41-.663a.812.812 0 00-.064-.331.753.753 0 00-.236-.28 2.254 2.254 0 00-.53-.278 11.81 11.81 0 00-.98-.328 6.963 6.963 0 01-.859-.31 2.877 2.877 0 01-.68-.414 1.776 1.776 0 01-.451-.56 1.649 1.649 0 01-.164-.76 1.744 1.744 0 01.588-1.264c.214-.196.503-.36.868-.49.364-.129.82-.194 1.367-.194.269 0 .567.015.896.045.328.03.67.08 1.025.153v1.06a9.803 9.803 0 00-1.063-.202 6.926 6.926 0 00-.872-.065c-.296 0-.545.023-.748.069a1.553 1.553 0 00-.492.188.734.734 0 00-.27.28.748.748 0 00-.082.345c0 .123.023.235.071.335.048.1.137.197.267.29.13.094.311.187.543.28.233.094.536.196.91.305.405.119.747.243 1.025.373.278.13.504.274.677.434.173.16.297.34.372.54.075.2.113.428.113.683z"/><path id=":[{" fill="#999" d="M102.806 308.912c.14 0 .275.029.403.086a1.107 1.107 0 01.564.564.978.978 0 01.085.403.971.971 0 01-.085.407 1.12 1.12 0 01-.23.331 1.058 1.058 0 01-.737.308c-.146 0-.282-.028-.407-.082a1.07 1.07 0 01-.557-.557 1.006 1.006 0 01-.082-.407 1.058 1.058 0 01.308-.738 1.12 1.12 0 01.33-.23.971.971 0 01.408-.085zm0 5.01c.14 0 .275.03.403.086a1.107 1.107 0 01.564.564.978.978 0 01.085.404.971.971 0 01-.085.406 1.12 1.12 0 01-.23.332 1.058 1.058 0 01-.737.307c-.146 0-.282-.027-.407-.082a1.07 1.07 0 01-.557-.557 1.006 1.006 0 01-.082-.406 1.058 1.058 0 01.308-.738 1.12 1.12 0 01.33-.23.971.971 0 01.408-.085zm17.274 4.78h-3.37V306h3.37v.957h-2.235v10.787h2.235v.957zm8.1 0h-.505c-.88 0-1.534-.207-1.962-.62-.428-.412-.643-1.037-.643-1.876v-2.352a2.18 2.18 0 00-.075-.598.978.978 0 00-.263-.444 1.224 1.224 0 00-.5-.277 2.706 2.706 0 00-.782-.096h-.294v-.95h.294c.333 0 .604-.027.814-.082.21-.054.373-.138.492-.25a.88.88 0 00.246-.427c.046-.173.068-.378.068-.615v-1.62c0-.383.046-.728.137-1.036.091-.307.24-.57.448-.786.207-.216.476-.382.806-.499.33-.116.735-.174 1.214-.174h.506v.957h-.404c-1.057 0-1.586.513-1.586 1.538v1.593c0 1.112-.48 1.738-1.442 1.88.97.095 1.456.72 1.456 1.873v2.338c0 1.043.524 1.565 1.572 1.565h.404v.957z"/><path id="name" fill="#000" d="M46.17 326.035h1.06l.047 1.108c.2-.237.395-.435.581-.592.187-.157.37-.283.55-.38a2.06 2.06 0 01.551-.2c.187-.04.38-.059.581-.059.706 0 1.24.209 1.603.626.362.417.544 1.044.544 1.883v4.477h-1.19v-4.381c0-.538-.1-.936-.3-1.193-.201-.258-.5-.387-.896-.387-.146 0-.288.022-.427.065a1.557 1.557 0 00-.435.226c-.15.107-.313.252-.488.434-.176.182-.373.41-.592.684v4.552h-1.19v-6.863zm12.106 6.863l-.027-.922c-.374.369-.753.635-1.138.8-.385.163-.79.245-1.214.245-.391 0-.726-.05-1.004-.15a1.883 1.883 0 01-.687-.413 1.603 1.603 0 01-.397-.62 2.289 2.289 0 01-.126-.772c0-.688.256-1.227.769-1.616.512-.39 1.27-.585 2.273-.585h1.421v-.601c0-.406-.13-.73-.39-.974-.259-.244-.655-.366-1.189-.366-.387 0-.769.043-1.145.13-.376.086-.764.21-1.165.369v-1.073a7.36 7.36 0 011.087-.301 7.6 7.6 0 01.642-.1c.224-.024.45-.037.677-.037.415 0 .788.046 1.121.137.333.091.614.23.844.417.23.187.407.421.53.704.123.282.185.615.185.998v4.73h-1.067zm-.13-3.124h-1.51c-.296 0-.552.03-.766.09-.214.059-.39.143-.526.252-.137.11-.238.24-.304.393-.067.153-.1.325-.1.516 0 .133.02.259.062.38.041.12.107.228.198.321.091.093.21.168.356.222.145.055.323.082.533.082.273 0 .587-.083.94-.25.353-.166.726-.429 1.117-.789v-1.217zm8.313 3.124v-4.928c0-.214-.008-.39-.024-.527a1.2 1.2 0 00-.075-.324.348.348 0 00-.13-.168.43.43 0 00-.448.034c-.077.055-.16.144-.25.267a4.216 4.216 0 00-.293.489 30.3 30.3 0 00-.38.748v4.41h-1.087v-4.8c0-.25-.008-.453-.023-.608a1.42 1.42 0 00-.076-.362.34.34 0 00-.133-.178.431.431 0 00-.43.02.988.988 0 00-.243.247c-.09.118-.188.28-.298.485-.109.205-.239.467-.39.786v4.41h-1.093v-6.864h.91l.054 1.306c.118-.26.233-.481.345-.663.112-.183.227-.33.345-.441.119-.112.245-.194.38-.246.134-.053.283-.079.447-.079.37 0 .65.12.841.362.192.242.287.616.287 1.122.11-.237.217-.448.322-.633a2.31 2.31 0 01.338-.465c.12-.125.254-.22.4-.287.146-.066.314-.099.506-.099.861 0 1.292.663 1.292 1.99v4.996h-1.094zm8.6-3.794c0 .17-.003.31-.007.424a6.37 6.37 0 01-.02.322h-4.82c0 .701.196 1.24.588 1.616.392.376.957.564 1.695.564.2 0 .401-.008.602-.024.2-.016.394-.037.58-.065.188-.027.366-.058.537-.092.171-.034.33-.072.475-.113v.978a9.161 9.161 0 01-2.365.308c-.588 0-1.094-.08-1.517-.24a2.597 2.597 0 01-1.043-.694 2.857 2.857 0 01-.601-1.114 5.273 5.273 0 01-.195-1.494c0-.483.07-.94.208-1.37a3.44 3.44 0 01.609-1.135c.266-.326.593-.584.98-.776a2.94 2.94 0 011.32-.287c.478 0 .902.075 1.271.226.37.15.68.363.934.639.252.276.444.61.574 1.005.13.394.195.835.195 1.322zm-1.238-.17a2.593 2.593 0 00-.089-.838 1.763 1.763 0 00-.338-.653 1.576 1.576 0 00-.57-.427 1.916 1.916 0 00-.794-.154c-.26 0-.496.05-.71.15-.215.101-.4.242-.554.425a2.19 2.19 0 00-.376.656 3.026 3.026 0 00-.178.84h3.61z"/><path id=":" fill="#999" d="M79.714 325.912c.141 0 .276.029.403.086a1.107 1.107 0 01.564.564.978.978 0 01.086.403.971.971 0 01-.086.407 1.12 1.12 0 01-.229.331 1.058 1.058 0 01-.738.308c-.146 0-.282-.028-.407-.082a1.07 1.07 0 01-.557-.557 1.006 1.006 0 01-.082-.407 1.058 1.058 0 01.308-.738 1.12 1.12 0 01.331-.23.971.971 0 01.407-.085zm0 5.01c.141 0 .276.03.403.086a1.107 1.107 0 01.564.564.978.978 0 01.086.404.971.971 0 01-.086.406 1.12 1.12 0 01-.229.332 1.058 1.058 0 01-.738.307c-.146 0-.282-.027-.407-.082a1.07 1.07 0 01-.557-.557 1.006 1.006 0 01-.082-.406 1.058 1.058 0 01.308-.738 1.12 1.12 0 01.331-.23.971.971 0 01.407-.085z"/><path id="'Jack'" fill="#690" d="M95.895 323.24l-.199 3.205h-1.175l-.192-3.206h1.566zm9.057.724v6.207c0 .383-.057.746-.17 1.09a2.47 2.47 0 01-.52.9 2.49 2.49 0 01-.875.608c-.351.15-.764.225-1.238.225-.177 0-.358-.012-.543-.037a4.8 4.8 0 01-.533-.103 3.619 3.619 0 01-.482-.157 2.214 2.214 0 01-.39-.202v-1.224c.283.206.596.367.94.486.344.118.685.178 1.022.178.497 0 .88-.152 1.149-.455.268-.303.403-.74.403-1.31v-5.153h-3.398v-1.053h4.635zm7.205 8.934l-.027-.922c-.374.369-.753.635-1.138.8-.385.163-.79.245-1.214.245-.392 0-.727-.05-1.005-.15a1.883 1.883 0 01-.687-.413 1.603 1.603 0 01-.396-.62 2.289 2.289 0 01-.127-.772c0-.688.257-1.227.77-1.616.512-.39 1.27-.585 2.272-.585h1.422v-.601c0-.406-.13-.73-.39-.974s-.656-.366-1.189-.366c-.387 0-.769.043-1.145.13-.376.086-.764.21-1.165.369v-1.073a7.36 7.36 0 011.087-.301 7.6 7.6 0 01.642-.1c.223-.024.45-.037.677-.037.415 0 .788.046 1.121.137.333.091.614.23.844.417.23.187.407.421.53.704.123.282.185.615.185.998v4.73h-1.067zm-.13-3.124h-1.51c-.297 0-.552.03-.766.09-.214.059-.39.143-.526.252-.137.11-.239.24-.305.393-.066.153-.099.325-.099.516 0 .133.02.259.062.38.04.12.107.228.198.321.091.093.21.168.356.222.145.055.323.082.533.082.273 0 .586-.083.94-.25.353-.166.725-.429 1.117-.789v-1.217zm8.75 2.872c-.31.118-.627.206-.953.263a5.845 5.845 0 01-1.009.085c-1.084 0-1.92-.294-2.505-.882-.586-.588-.878-1.447-.878-2.577 0-.542.084-1.034.253-1.476.168-.442.405-.82.71-1.135.306-.315.67-.557 1.094-.728.424-.171.891-.257 1.402-.257.355 0 .688.026.998.076.31.05.606.132.888.246v1.135a3.77 3.77 0 00-.905-.339 4.248 4.248 0 00-.954-.106c-.305 0-.594.058-.865.174-.27.117-.51.284-.714.503a2.38 2.38 0 00-.485.8c-.119.314-.178.67-.178 1.066 0 .83.201 1.45.605 1.863.403.412.962.619 1.678.619a3.897 3.897 0 001.818-.438v1.108zm8.538.252h-1.633l-3.2-3.677v3.677h-1.189v-9.659h1.19v5.934l3.082-3.138h1.573l-3.22 3.165 3.397 3.698zm5.066-9.659l-.198 3.206h-1.176l-.192-3.206h1.566z"/><path id="," fill="#999" d="M139.07 334.3c.233.009.458-.012.677-.062a2.02 2.02 0 00.578-.222c.166-.098.3-.22.4-.366a.86.86 0 00.15-.499.95.95 0 00-.1-.464 2.238 2.238 0 00-.221-.329 2.438 2.438 0 01-.222-.32.91.91 0 01-.1-.459.915.915 0 01.223-.588.857.857 0 01.287-.212 1.12 1.12 0 01.875.017c.148.066.278.168.39.305.111.136.2.307.266.512.066.205.1.447.1.725 0 .378-.07.742-.21 1.09a2.657 2.657 0 01-.621.926c-.276.27-.62.484-1.033.643-.412.16-.892.24-1.439.24v-.937z"/><path id="salary" fill="#000" d="M51.604 348.025a1.634 1.634 0 01-.458 1.16 2.084 2.084 0 01-.492.378 3.272 3.272 0 01-.598.26c-.212.069-.43.119-.653.15a4.638 4.638 0 01-.656.048 12.3 12.3 0 01-1.282-.061 8.646 8.646 0 01-1.145-.198v-1.094c.401.114.8.2 1.197.26.396.059.79.089 1.182.089.57 0 .991-.078 1.265-.233.273-.155.41-.376.41-.663a.812.812 0 00-.065-.331.753.753 0 00-.236-.28 2.254 2.254 0 00-.53-.278 11.81 11.81 0 00-.98-.328 6.963 6.963 0 01-.858-.31 2.877 2.877 0 01-.68-.414 1.776 1.776 0 01-.452-.56 1.649 1.649 0 01-.164-.76 1.744 1.744 0 01.588-1.264c.214-.196.504-.36.868-.49.365-.129.82-.194 1.367-.194.27 0 .568.015.896.045.328.03.67.08 1.025.153v1.06a9.803 9.803 0 00-1.063-.202 6.926 6.926 0 00-.871-.065c-.296 0-.546.023-.749.069a1.553 1.553 0 00-.492.188.734.734 0 00-.27.28.748.748 0 00-.082.345c0 .123.024.235.072.335.048.1.136.197.266.29.13.094.311.187.544.28.232.094.535.196.909.305.406.119.747.243 1.025.373.278.13.504.274.677.434.173.16.298.34.373.54.075.2.112.428.112.683zm6.672 1.873l-.027-.922c-.374.369-.753.635-1.138.8-.385.163-.79.245-1.214.245-.391 0-.726-.05-1.004-.15a1.883 1.883 0 01-.687-.413 1.603 1.603 0 01-.397-.62 2.289 2.289 0 01-.126-.772c0-.688.256-1.227.769-1.616.512-.39 1.27-.585 2.273-.585h1.421v-.601c0-.406-.13-.73-.39-.974-.259-.244-.655-.366-1.189-.366-.387 0-.769.043-1.145.13-.376.086-.764.21-1.165.369v-1.073a7.36 7.36 0 011.087-.301 7.6 7.6 0 01.642-.1c.224-.024.45-.037.677-.037.415 0 .788.046 1.121.137.333.091.614.23.844.417.23.187.407.421.53.704.123.282.185.615.185.998v4.73h-1.067zm-.13-3.124h-1.51c-.296 0-.552.03-.766.09-.214.059-.39.143-.526.252-.137.11-.238.24-.304.393-.067.153-.1.325-.1.516 0 .133.02.259.062.38.041.12.107.228.198.321.091.093.21.168.356.222.145.055.323.082.533.082.273 0 .587-.083.94-.25.353-.166.726-.429 1.117-.789v-1.217zm5.756-5.557h-2.03v-.978h3.233v8.668h2.044v.991h-5.503v-.99h2.256v-7.691zm9.769 8.681l-.027-.922c-.374.369-.754.635-1.139.8-.385.163-.79.245-1.213.245-.392 0-.727-.05-1.005-.15a1.883 1.883 0 01-.687-.413 1.603 1.603 0 01-.396-.62 2.289 2.289 0 01-.127-.772c0-.688.256-1.227.77-1.616.512-.39 1.27-.585 2.272-.585h1.422v-.601c0-.406-.13-.73-.39-.974s-.656-.366-1.19-.366c-.386 0-.768.043-1.144.13-.376.086-.765.21-1.166.369v-1.073a7.36 7.36 0 011.087-.301 7.6 7.6 0 01.643-.1c.223-.024.449-.037.677-.037.414 0 .788.046 1.12.137.333.091.615.23.845.417.23.187.407.421.53.704.123.282.184.615.184.998v4.73h-1.066zm-.13-3.124h-1.51c-.297 0-.552.03-.766.09-.215.059-.39.143-.527.252-.136.11-.238.24-.304.393-.066.153-.099.325-.099.516 0 .133.02.259.061.38.042.12.108.228.199.321.09.093.21.168.355.222.146.055.324.082.533.082.274 0 .587-.083.94-.25.354-.166.726-.429 1.118-.789v-1.217zm3.698-3.739h1.087l.034 1.265c.406-.488.806-.841 1.2-1.06a2.436 2.436 0 011.193-.328c.71 0 1.25.23 1.617.69.366.46.536 1.144.509 2.051h-1.203c.013-.601-.074-1.038-.263-1.309-.19-.27-.466-.406-.831-.406-.16 0-.32.028-.482.085a1.947 1.947 0 00-.499.273 4.47 4.47 0 00-.543.482 8.898 8.898 0 00-.616.711v4.41H77.24v-6.864zm13.522 0l-2.338 6.139a12.037 12.037 0 01-.749 1.613 4.784 4.784 0 01-.844 1.11c-.305.29-.64.503-1.005.64a3.463 3.463 0 01-1.223.205 6.811 6.811 0 01-.636-.027v-1.08c.1.013.21.026.328.037.118.012.244.017.376.017.219 0 .423-.031.612-.095s.368-.168.536-.311c.169-.144.33-.33.486-.557.155-.228.305-.504.45-.828l-2.74-6.863h1.353l1.737 4.54.348 1.066.397-1.094 1.606-4.512h1.306z"/><path id=":" fill="#999" d="M95.108 342.912c.142 0 .276.029.404.086a1.107 1.107 0 01.564.564.978.978 0 01.085.403.971.971 0 01-.085.407 1.12 1.12 0 01-.23.331 1.058 1.058 0 01-.738.308c-.145 0-.281-.028-.406-.082a1.07 1.07 0 01-.557-.557 1.006 1.006 0 01-.082-.407 1.058 1.058 0 01.308-.738 1.12 1.12 0 01.33-.23.971.971 0 01.407-.085zm0 5.01c.142 0 .276.03.404.086a1.107 1.107 0 01.564.564.978.978 0 01.085.404.971.971 0 01-.085.406 1.12 1.12 0 01-.23.332 1.058 1.058 0 01-.738.307c-.145 0-.281-.027-.406-.082a1.07 1.07 0 01-.557-.557 1.006 1.006 0 01-.082-.406 1.058 1.058 0 01.308-.738 1.12 1.12 0 01.33-.23.971.971 0 01.407-.085z"/><path id="1300" fill="#905" d="M113.47 349.898h-5.613v-1.107h2.297v-6.521l-2.14 1.162-.437-1.012 2.844-1.497h1.053v7.868h1.996v1.107zm7.601-2.713c0 .391-.08.76-.239 1.104-.16.344-.399.644-.718.902-.319.257-.72.46-1.203.608-.483.148-1.046.222-1.688.222a12.014 12.014 0 01-1.75-.123v-1.066a11.124 11.124 0 001.86.157c.446 0 .827-.04 1.144-.12.317-.08.575-.194.776-.345.2-.15.346-.332.437-.546.092-.215.137-.456.137-.725 0-.246-.055-.46-.164-.643a1.365 1.365 0 00-.461-.458 2.281 2.281 0 00-.711-.277 4.16 4.16 0 00-.906-.092h-1.019v-.977h1.033c.269 0 .513-.036.734-.106.222-.07.41-.172.568-.304.157-.133.278-.296.362-.49.084-.193.127-.413.127-.659 0-.478-.146-.827-.438-1.046-.292-.219-.72-.328-1.285-.328-.3 0-.61.03-.93.089-.319.06-.66.148-1.025.267v-1.04c.155-.054.32-.103.496-.147a7.2 7.2 0 011.049-.177c.173-.016.34-.024.499-.024.474 0 .89.051 1.25.154.36.102.662.25.903.44.242.192.424.424.547.698.123.273.185.58.185.923 0 .51-.131.938-.393 1.285-.262.346-.621.622-1.077.827.232.036.461.11.687.219.225.11.428.25.608.42.18.171.326.373.438.605.111.233.167.49.167.773zm8.074-1.75c0 .683-.069 1.306-.206 1.87a4.33 4.33 0 01-.622 1.448 2.925 2.925 0 01-1.035.937c-.413.221-.897.331-1.453.331-.478 0-.914-.09-1.306-.27a2.594 2.594 0 01-1.004-.83c-.278-.374-.493-.85-.643-1.429-.15-.579-.226-1.264-.226-2.057 0-.684.07-1.308.209-1.873.139-.566.346-1.05.622-1.453s.62-.716 1.036-.937c.414-.22.897-.331 1.449-.331.478 0 .914.09 1.305.27.392.18.727.458 1.005.834.278.376.493.853.643 1.432.15.579.226 1.265.226 2.058zm-1.204.04c0-.154-.005-.308-.017-.46a23.67 23.67 0 00-.037-.449l-3.78 2.81c.068.237.154.456.26.656.104.2.23.373.379.516.148.144.316.256.505.335.19.08.405.12.646.12.31 0 .592-.075.845-.226.253-.15.468-.373.646-.67.177-.296.314-.664.41-1.104.096-.44.143-.949.143-1.527zm-4.087-.081c0 .14 0 .282.003.423.002.142.01.278.024.41l3.78-2.795a3.198 3.198 0 00-.26-.636 2.016 2.016 0 00-.376-.496 1.612 1.612 0 00-.499-.324 1.628 1.628 0 00-.629-.117c-.31 0-.59.076-.844.226-.253.15-.468.375-.646.673a3.697 3.697 0 00-.41 1.108 7.24 7.24 0 00-.143 1.528zm12.988.04c0 .684-.069 1.307-.205 1.87a4.33 4.33 0 01-.622 1.45 2.925 2.925 0 01-1.036.936c-.412.221-.897.331-1.453.331-.478 0-.913-.09-1.305-.27a2.594 2.594 0 01-1.005-.83c-.278-.374-.492-.85-.643-1.429-.15-.579-.225-1.264-.225-2.057 0-.684.07-1.308.208-1.873.14-.566.347-1.05.622-1.453.276-.403.621-.716 1.036-.937.415-.22.898-.331 1.45-.331.478 0 .913.09 1.305.27.392.18.727.458 1.005.834.278.376.492.853.642 1.432.15.579.226 1.265.226 2.058zm-1.203.042c0-.155-.006-.31-.017-.462a23.67 23.67 0 00-.038-.448l-3.78 2.81c.068.237.155.456.26.656.104.2.23.373.379.516.148.144.317.256.506.335.189.08.404.12.646.12.31 0 .591-.075.844-.226.253-.15.468-.373.646-.67.178-.296.314-.664.41-1.104.096-.44.144-.949.144-1.527zm-4.088-.082c0 .14 0 .282.003.423.002.142.01.278.024.41l3.78-2.795a3.198 3.198 0 00-.26-.636 2.016 2.016 0 00-.375-.496 1.612 1.612 0 00-.5-.324 1.628 1.628 0 00-.628-.117c-.31 0-.592.076-.845.226-.252.15-.468.375-.646.673a3.697 3.697 0 00-.41 1.108 7.24 7.24 0 00-.143 1.528z"/><path id="}]}};" fill="#999" d="M31.247 357h.506c.88 0 1.533.206 1.962.619.428.412.642 1.038.642 1.876v1.58c0 .223.025.422.076.597.05.176.137.324.263.445.125.12.293.213.502.277.21.063.472.095.786.095h.294v.95h-.294c-.332 0-.605.028-.817.082a1.116 1.116 0 00-.495.25.88.88 0 00-.246.427 2.438 2.438 0 00-.069.615v2.393c0 .383-.045.728-.136 1.036-.091.307-.24.57-.445.786a1.993 1.993 0 01-.806.499c-.333.116-.739.174-1.217.174h-.506v-.957h.41c1.053 0 1.58-.513 1.58-1.538v-2.365c0-1.112.48-1.737 1.442-1.873-.971-.105-1.456-.732-1.456-1.88v-1.566c0-1.043-.522-1.565-1.566-1.565h-.41V357zm11.47 12.701h-3.37v-.957h2.222v-10.787h-2.221V357h3.37v12.701zM15.854 374h.505c.88 0 1.534.206 1.962.619.429.412.643 1.038.643 1.876v1.58c0 .223.025.422.075.597.05.176.138.324.263.445.126.12.293.213.503.277.21.063.471.095.786.095h.294v.95h-.294c-.333 0-.605.028-.817.082a1.116 1.116 0 00-.496.25.88.88 0 00-.246.427 2.438 2.438 0 00-.068.615v2.393c0 .383-.046.728-.137 1.036-.091.307-.24.57-.444.786a1.993 1.993 0 01-.807.499c-.332.116-.738.174-1.217.174h-.505v-.957h.41c1.052 0 1.579-.513 1.579-1.538v-2.365c0-1.112.48-1.737 1.442-1.873-.97-.105-1.456-.732-1.456-1.88v-1.566c0-1.043-.522-1.565-1.565-1.565h-.41V374zM.458 391h.506c.88 0 1.533.206 1.962.619.428.412.642 1.038.642 1.876v1.58c0 .223.025.422.076.597.05.176.137.324.263.445.125.12.293.213.502.277.21.063.472.095.786.095h.294v.95h-.294c-.332 0-.605.028-.817.082a1.116 1.116 0 00-.495.25.88.88 0 00-.246.427 2.438 2.438 0 00-.069.615v2.393c0 .383-.045.728-.136 1.036-.092.307-.24.57-.445.786a1.993 1.993 0 01-.806.499c-.333.116-.739.174-1.217.174H.458v-.957h.41c1.053 0 1.58-.513 1.58-1.538v-2.365c0-1.112.48-1.737 1.442-1.873-.971-.105-1.456-.732-1.456-1.88v-1.566c0-1.043-.522-1.565-1.566-1.565h-.41V391zm7.84 11.3c.233.009.459-.012.678-.062a2.02 2.02 0 00.577-.222c.167-.098.3-.22.4-.366a.86.86 0 00.15-.499.95.95 0 00-.099-.464 2.238 2.238 0 00-.222-.329 2.438 2.438 0 01-.222-.32.91.91 0 01-.1-.459.915.915 0 01.223-.588.857.857 0 01.287-.212 1.12 1.12 0 01.875.017c.148.066.278.168.39.305.112.136.2.307.266.512.067.205.1.447.1.725 0 .378-.07.742-.209 1.09a2.657 2.657 0 01-.622.926c-.276.27-.62.484-1.032.643-.413.16-.892.24-1.44.24v-.937zm2.14-8.388c.142 0 .276.029.404.086a1.107 1.107 0 01.564.564.978.978 0 01.085.403.971.971 0 01-.085.407 1.12 1.12 0 01-.23.331 1.058 1.058 0 01-.738.308c-.145 0-.28-.028-.406-.082a1.07 1.07 0 01-.557-.557 1.006 1.006 0 01-.082-.407 1.058 1.058 0 01.308-.738 1.12 1.12 0 01.33-.23.971.971 0 01.407-.085z"/></g><g id="Group-5" stroke="#EE6B47" stroke-linecap="square" transform="matrix(-1 0 0 1 105 37)"><path id="Line" d="M.589 1.244h13.948"/><path id="Line-Copy" d="M.589 110.756h13.948"/><path id="Line-Copy-2" d="M15.508 1.244v109.512"/></g><g id="Group-5-Copy-4" stroke="#EE6B47" stroke-linecap="square" transform="matrix(-1 0 0 1 105 168)"><path id="Line" d="M.589 2.811h13.948"/><path id="Line-Copy" d="M.589 250.189h13.948"/><path id="Line-Copy-2" d="M15.508 2.811v247.378"/></g><g id="Group-5-Copy-3" stroke="#EE6B47" stroke-linecap="square" transform="matrix(-1 0 0 1 38 9)"><path id="Line" d="M.589 4.722h13.948"/><path id="Line-Copy" d="M.589 420.278h13.948"/><path id="Line-Copy-2" d="M15.508 4.722v415.556"/></g><g id="Group-5-Copy" stroke="#EE6B47" stroke-linecap="square" transform="matrix(-1 0 0 1 153 189)"><path id="Line" d="M.589 1.244h13.948"/><path id="Line-Copy" d="M.589 110.756h13.948"/><path id="Line-Copy-2" d="M15.508 1.244v109.512"/></g><g id="Group-5-Copy-2" stroke="#EE6B47" stroke-linecap="square" transform="matrix(-1 0 0 1 153 315)"><path id="Line" d="M.589.844h13.948"/><path id="Line-Copy" d="M.589 75.156h13.948"/><path id="Line-Copy-2" d="M15.508.844v74.312"/></g><path id="Line-Copy-7" fill="#EE6B47" fill-rule="nonzero" d="M71.5 213.5l-.344 15.649-5.307-2.801-31.465 59.619-.466.884-1.77-.933.468-.885 31.464-59.619-5.305-2.8L71.5 213.5z"/><path id="Line-Copy-8" fill="#EE6B47" fill-rule="nonzero" d="M129.5 323.5l-5.848 14.519-3.976-4.494-15.513 13.724-.75.663-1.325-1.498.75-.663 15.513-13.724-3.975-4.494L129.5 323.5z"/><path id="Line-Copy-9" fill="#EE6B47" fill-rule="nonzero" d="M129.5 239.5l-5.848 14.519-3.976-4.494-15.513 13.724-.75.663-1.325-1.498.75-.663 15.513-13.724-3.975-4.494L129.5 239.5z"/><path id="Line" fill="#EE6B47" fill-rule="nonzero" d="M71.5 110.5l-.344 15.649-5.307-2.801-31.465 59.619-.466.884-1.77-.933.468-.885 31.464-59.619-5.305-2.8L71.5 110.5z"/></g></g></svg>