<svg xmlns="http://www.w3.org/2000/svg" width="502" height="225" viewBox="0 0 502 225"><defs><style>@import url(https://fonts.googleapis.com/css?family=Open+Sans:bold,italic,bolditalic%7CPT+Mono);@font-face{font-family:&apos;PT Mono&apos;;font-weight:700;font-style:normal;src:local(&apos;PT MonoBold&apos;),url(/font/PTMonoBold.woff2) format(&apos;woff2&apos;),url(/font/PTMonoBold.woff) format(&apos;woff&apos;),url(/font/PTMonoBold.ttf) format(&apos;truetype&apos;)}</style></defs><g id="combined" fill="none" fill-rule="evenodd" stroke="none" stroke-width="1"><g id="recursion-pow.svg"><g id="Rectangle-1-+-Корень" transform="translate(159 2)"><rect id="Rectangle-1" width="78" height="28" x="1" y="1" fill="#FBF2EC" stroke="#DBAF88" stroke-width="2" rx="14"/><text id="pow(x,n)" fill="#AF6E24" font-family="PTMono-Regular, PT Mono" font-size="14" font-weight="normal"><tspan x="8" y="19">pow(x,n)</tspan></text></g><g id="Rectangle-1-+-Корень-Copy-2" fill="#FBF2EC" stroke="#DBAF88" stroke-width="2" transform="translate(5 192)"><rect id="Rectangle-1" width="85" height="28" x="1" y="1" rx="14"/></g><text id="x" fill="#AF6E24" font-family="PTMono-Regular, PT Mono" font-size="14" font-weight="normal"><tspan x="46.5" y="210">x</tspan></text><g id="Rectangle-1-+-Корень-Copy-3" fill="#FBF2EC" stroke="#DBAF88" stroke-width="2" transform="translate(353 120)"><rect id="Rectangle-1" width="140" height="28" x="1" y="1" rx="14"/></g><text id="x-*-pow(x,-n-1)" fill="#AF6E24" font-family="PTMono-Regular, PT Mono" font-size="14" font-weight="normal"><tspan x="362.5" y="138">x * pow(x, n-1)</tspan></text><path id="Line" fill="#C06334" fill-rule="nonzero" d="M201 32v41h8l-9.5 19-9.5-19h8V32h3z"/><path id="Path-1218" fill="#C06334" fill-rule="nonzero" d="M110.691 129.367v3l-59.302-.001v35.181h8l-9.5 19-9.5-19h8v-38.18h62.302z"/><path id="Rectangle-356" fill="#FFF" d="M18 143h60v20H18z"/><g id="Rectangle-354-+-Каково-“официальное”" transform="translate(117 100)"><path id="Rectangle-354" fill="#FBF2EC" stroke="#DBAF88" stroke-width="2" d="M82.5 1.089L162.47 35.5 82.5 69.911 2.53 35.5 82.5 1.089z"/><text id="n-==-1-?" fill="#AF6E24" font-family="PTMono-Regular, PT Mono" font-size="14" font-weight="normal"><tspan x="54.9" y="40">n == 1 ?</tspan></text></g><text id="Yes" fill="#AF6E24" font-family="OpenSans-Regular, Open Sans" font-size="14" font-weight="normal"><tspan x="40" y="156">Yes</tspan></text><text id="No" fill="#AF6E24" font-family="OpenSans-Regular, Open Sans" font-size="14" font-weight="normal"><tspan x="299" y="123">No</tspan></text><path id="Line" fill="#C06334" fill-rule="nonzero" d="M324 124l19 9.5-19 9.5v-8h-38v-3h38v-8z"/><path id="Line-decoration-1" fill="#C06334" stroke="#C06334" stroke-width="3" d="M219 59l10.8-3v6z"/><path id="Line" stroke="#C06334" stroke-dasharray="5,5" stroke-linecap="square" stroke-width="3" d="M420.5 111.5v-53"/><text id="recursive-call-until" fill="#AF6E24" font-family="OpenSans-Regular, Open Sans" font-size="14" font-weight="normal"><tspan x="233.5" y="49">recursive call until n==1</tspan></text><path id="Line-Copy" stroke="#C06334" stroke-dasharray="5,5" stroke-linecap="square" stroke-width="3" d="M232.5 58.5h189"/></g></g></svg>