<svg xmlns="http://www.w3.org/2000/svg" width="463" height="150" viewBox="0 0 463 150"><defs><style>@import url(https://fonts.googleapis.com/css?family=Open+Sans:bold,italic,bolditalic%7CPT+Mono);@font-face{font-family:&apos;PT Mono&apos;;font-weight:700;font-style:normal;src:local(&apos;PT MonoBold&apos;),url(/font/PTMonoBold.woff2) format(&apos;woff2&apos;),url(/font/PTMonoBold.woff) format(&apos;woff&apos;),url(/font/PTMonoBold.ttf) format(&apos;truetype&apos;)}</style></defs><g id="dom" fill="none" fill-rule="evenodd" stroke="none" stroke-width="1"><g id="form-navigation.svg"><path id="Rectangle-6" fill="#FFF9EB" stroke="#E8C48E" stroke-width="2" d="M174 14h78v28h-78z"/><text id="form" fill="#8A704D" font-family="PTMono-Regular, PT Mono" font-size="14" font-weight="normal"><tspan x="197.204" y="33">form</tspan></text><path id="Rectangle-6-Copy" fill="#FFF9EB" stroke="#E8C48E" stroke-width="2" d="M32 109h101v28H32z"/><text id="elements[0]" fill="#8A704D" font-family="PTMono-Regular, PT Mono" font-size="14" font-weight="normal"><tspan x="37.3" y="127">elements[0]</tspan></text><path id="Rectangle-6-Copy-2" fill="#FFF9EB" stroke="#E8C48E" stroke-width="2" d="M162 109h101v28H162z"/><text id="elements[1]" fill="#8A704D" font-family="PTMono-Regular, PT Mono" font-size="14" font-weight="normal"><tspan x="167.3" y="127">elements[1]</tspan></text><path id="Rectangle-6-Copy-3" fill="#FFF9EB" stroke="#E8C48E" stroke-width="2" d="M342 109h101v28H342z"/><text id="elements[n]" fill="#8A704D" font-family="PTMono-Regular, PT Mono" font-size="14" font-weight="normal"><tspan x="347.3" y="127">elements[n]</tspan></text><text id="..." fill="#8A704D" font-family="PTMono-Bold, PT Mono" font-size="14" font-weight="bold"><tspan x="292.4" y="129">...</tspan></text><path id="Line-Copy-4" fill="#EE6B47" fill-rule="nonzero" d="M335.214 92.973L231.19 49.033l.778-1.843L335.993 91.13l2.334-5.527L348.5 97.5l-15.62 1 2.334-5.527z"/><path id="Line-Copy-6" fill="#EE6B47" fill-rule="nonzero" d="M273.786 50.027l2.661 1.124-.778 1.842-2.662-1.124-2.334 5.527L260.5 45.5l15.62-1-2.334 5.527zm5.568 4.523l.778-1.843 4.606 1.946-.778 1.842-4.606-1.945zm8.29 3.502l.779-1.843 4.605 1.946-.778 1.842-4.606-1.945zm8.291 3.502l.778-1.843 4.606 1.946-.778 1.842-4.606-1.945zm8.29 3.502l.779-1.842 4.606 1.945-.778 1.842-4.606-1.945zm8.291 3.502l.779-1.842 4.606 1.945-.779 1.843-4.606-1.946zm8.291 3.502l.778-1.842 4.606 1.945-.778 1.843-4.606-1.946zm8.29 3.502l.779-1.842 4.606 1.945-.778 1.843-4.606-1.946zm8.291 3.502l.779-1.842 4.606 1.945-.779 1.843-4.606-1.946zm8.291 3.502l.778-1.842 4.606 1.946-.778 1.842-4.606-1.946zm8.29 3.502l.779-1.842 4.606 1.946-.778 1.842-4.606-1.946zm8.291 3.503l.779-1.843 4.606 1.946-.779 1.842-4.606-1.945zm8.291 3.502l.778-1.843 4.606 1.946-.778 1.842-4.606-1.945z"/><path id="Line-Copy-5" fill="#EE6B47" fill-rule="nonzero" d="M112.169 89.7l74.705-42.564.99 1.738-74.705 42.564 2.97 5.213-15.629.849 8.699-13.013 2.97 5.213z"/><path id="Line-Copy" fill="#EE6B47" fill-rule="nonzero" d="M149.438 50.958l-2.95 1.735-1.014-1.724 2.95-1.735-3.04-5.173L161 43l-8.52 13.13-3.042-5.172zm-88.293 51.91l-1.014-1.723 4.31-2.534 1.014 1.724-4.31 2.534zm7.758-4.56l-1.013-1.725 4.31-2.534 1.013 1.724-4.31 2.534zm7.759-4.562l-1.014-1.724 4.31-2.534 1.014 1.724-4.31 2.534zm7.758-4.562l-1.014-1.724 4.31-2.534 1.014 1.724-4.31 2.534zm7.758-4.561l-1.013-1.724 4.31-2.534 1.014 1.724-4.31 2.534zm7.759-4.562l-1.014-1.724 4.31-2.534 1.014 1.724-4.31 2.534zm7.758-4.561l-1.013-1.724 4.31-2.534 1.013 1.724-4.31 2.534zm7.759-4.561l-1.014-1.725 4.31-2.534 1.014 1.724-4.31 2.535zm7.758-4.562l-1.014-1.724 4.31-2.534 1.014 1.724-4.31 2.534zm7.758-4.561l-1.013-1.725 4.31-2.534 1.014 1.724-4.31 2.535zm7.759-4.562l-1.014-1.724 4.31-2.534 1.014 1.724-4.31 2.534z"/><text id="form" fill="#8A704D" font-family="PTMono-Regular, PT Mono" font-size="14" font-weight="normal"><tspan x="78.7" y="61">form</tspan></text><text id="form-copy" fill="#8A704D" font-family="PTMono-Regular, PT Mono" font-size="14" font-weight="normal"><tspan x="319.7" y="61">form</tspan></text><path id="Line" fill="#EE6B47" fill-rule="nonzero" d="M216.5 87.5v-37h2v37h6l-7 14-7-14h6z"/><path id="Line-Copy-3" fill="#EE6B47" fill-rule="nonzero" d="M203.5 65.5v3h-2v-3h-6l7-14 7 14h-6zm-2 7h2v5h-2v-5zm0 9h2v5h-2v-5zm0 9h2v5h-2v-5zm0 9h2v3h-2v-3z"/></g></g></svg>