<svg xmlns="http://www.w3.org/2000/svg" width="463" height="150" viewBox="0 0 463 150"><defs><style>@import url(https://fonts.googleapis.com/css?family=Open+Sans:bold,italic,bolditalic%7CPT+Mono);@font-face{font-family:&apos;PT Mono&apos;;font-weight:700;font-style:normal;src:local(&apos;PT MonoBold&apos;),url(/font/PTMonoBold.woff2) format(&apos;woff2&apos;),url(/font/PTMonoBold.woff) format(&apos;woff&apos;),url(/font/PTMonoBold.ttf) format(&apos;truetype&apos;)}</style></defs><g id="dom" fill="none" fill-rule="evenodd" stroke="none" stroke-width="1"><g id="form-navigation.svg"><path id="Rectangle-6" fill="#FFF9EB" stroke="#E8C48E" stroke-width="2" d="M174 14h78v28h-78z"/><text id="form" fill="#8A704D" font-family="PTMono-Regular, PT Mono" font-size="14" font-weight="normal"><tspan x="197.204" y="33">form</tspan></text><path id="Rectangle-6-Copy" fill="#FFF9EB" stroke="#E8C48E" stroke-width="2" d="M32 109h101v28H32z"/><text id="elements[0]" fill="#8A704D" font-family="PTMono-Regular, PT Mono" font-size="14" font-weight="normal"><tspan x="37.3" y="127">elements[0]</tspan></text><path id="Rectangle-6-Copy-2" fill="#FFF9EB" stroke="#E8C48E" stroke-width="2" d="M162 109h101v28H162z"/><text id="elements[1]" fill="#8A704D" font-family="PTMono-Regular, PT Mono" font-size="14" font-weight="normal"><tspan x="167.3" y="127">elements[1]</tspan></text><path id="Rectangle-6-Copy-3" fill="#FFF9EB" stroke="#E8C48E" stroke-width="2" d="M342 109h101v28H342z"/><text id="elements[n]" fill="#8A704D" font-family="PTMono-Regular, PT Mono" font-size="14" font-weight="normal"><tspan x="347.3" y="127">elements[n]</tspan></text><text id="..." fill="#8A704D" font-family="PTMono-Bold, PT Mono" font-size="14" font-weight="bold"><tspan x="292.4" y="129">...</tspan></text><path id="Line-Copy-4" fill="#EE6B47" fill-rule="nonzero" d="M231.968 47.19l.921.389L335.992 91.13l2.335-5.527L348.5 97.5l-15.62 1 2.334-5.527-103.103-43.552-.921-.389.778-1.842z"/><path id="Line-Copy-6" fill="#EE6B47" fill-rule="nonzero" d="M371.33 91.23l.92.39 2.764 1.167.921.389-.778 1.842-.921-.389-2.764-1.167-.92-.39.777-1.842zm-8.291-3.502l.92.39 2.764 1.167.922.389-.779 1.842-.92-.389-2.764-1.167-.922-.39.779-1.842zm-8.291-3.502l.921.39 3.685 1.556-.778 1.842-.922-.39-2.763-1.166-.921-.39.778-1.842zm-8.29-3.502l.92.39 2.764 1.166.921.39-.778 1.842-4.606-1.946.778-1.842zm-8.291-3.502l.92.389 2.764 1.167.922.39-.779 1.842-.92-.39-2.764-1.167-.922-.389.779-1.842zm-8.291-3.502l.921.389 2.764 1.167.92.39-.777 1.842-.922-.39-2.763-1.167-.921-.389.778-1.842zm-8.29-3.502l.92.389 2.764 1.167.921.39-.778 1.842-4.606-1.946.778-1.842zm-8.291-3.502l.92.389 2.764 1.167.922.39-.779 1.842-.92-.39-2.764-1.167-.922-.389.779-1.842zm-8.291-3.502l.921.389 2.764 1.167.92.39-.777 1.841-.922-.389-2.763-1.167-.921-.39.778-1.841zm-8.29-3.503l3.684 1.557.921.389-.778 1.842-.921-.389-2.764-1.167-.921-.39.778-1.842zm-8.291-3.502l.92.39 2.764 1.167.921.389-.778 1.842-.92-.389-2.765-1.167-.92-.39.778-1.842zM276.12 44.5l-2.335 5.527 1.74.736.922.389-.778 1.842-.921-.389-1.741-.736-2.334 5.528L260.5 45.5l15.62-1zm4.012 8.208l.921.39 3.685 1.556-.778 1.842-.922-.389-2.763-1.167-.921-.39.778-1.842z"/><path id="Line-Copy-5" fill="#EE6B47" fill-rule="nonzero" d="M186.874 47.136l.99 1.738-.869.495-73.837 42.068 2.971 5.214-15.629.849 8.699-13.013 2.969 5.213 73.837-42.069.869-.495z"/><path id="Line-Copy" fill="#EE6B47" fill-rule="nonzero" d="M64.441 98.61l1.014 1.725-.862.507-2.586 1.52-.862.507-1.014-1.724.862-.507 2.586-1.52.862-.507zm7.759-4.56l1.013 1.723-.862.507-2.586 1.52-.862.507-1.013-1.724 3.448-2.027.862-.507zm7.758-4.562l1.014 1.724-3.448 2.027-.862.507-1.014-1.724.862-.507 2.586-1.52.862-.507zm7.759-4.562l1.013 1.724-.862.507-2.586 1.52-.862.507-1.014-1.724.862-.506 2.587-1.521.862-.507zm7.758-4.561l1.014 1.724-3.449 2.027-.862.507-1.013-1.724.862-.507 3.448-2.027zm7.758-4.562l1.014 1.724-.862.507-2.586 1.52-.862.507-1.014-1.724.862-.506 2.586-1.52.862-.508zm7.759-4.561l1.013 1.724-4.31 2.534-1.013-1.724.862-.507 3.448-2.027zm7.758-4.562l1.014 1.724-.862.507-2.586 1.52-.862.508-1.014-1.725.862-.506 2.586-1.52.862-.508zm7.759-4.561l1.013 1.724-4.31 2.534-1.014-1.724.862-.507 3.449-2.027zm7.758-4.562l1.014 1.724-.862.507-2.586 1.52-.863.508-1.013-1.725.862-.506 2.586-1.52.862-.508zm7.758-4.561l1.014 1.724-.862.507-2.586 1.52-.862.507-1.014-1.724 4.31-2.534zM161 43l-8.52 13.13-3.042-5.173-2.089 1.229-.862.507-1.013-1.724.862-.507 2.088-1.229-3.04-5.172L161 43z"/><text id="form" fill="#8A704D" font-family="PTMono-Regular, PT Mono" font-size="14" font-weight="normal"><tspan x="78.7" y="61">form</tspan></text><text id="form-copy" fill="#8A704D" font-family="PTMono-Regular, PT Mono" font-size="14" font-weight="normal"><tspan x="319.7" y="61">form</tspan></text><path id="Line" fill="#EE6B47" fill-rule="nonzero" d="M218.5 50.5v37h6l-7 14-7-14h6v-37h2z"/><path id="Line-Copy-3" fill="#EE6B47" fill-rule="nonzero" d="M203.5 99.5v3h-2v-3h2zm0-9v5h-2v-5h2zm0-9v5h-2v-5h2zm0-9v5h-2v-5h2zm-1-21l7 14h-6v3h-2v-3h-6l7-14z"/></g></g></svg>