<?xml version="1.0" encoding="UTF-8"?>
<svg width="353px" height="150px" viewBox="0 0 353 150" version="1.1" xmlns="http://www.w3.org/2000/svg" xmlns:xlink="http://www.w3.org/1999/xlink">
    <!-- Generator: sketchtool 55.2 (78181) - https://sketchapp.com -->
    <title>generateSequence-1.svg</title>
    <desc>Created with sketchtool.</desc>
    <g id="generator" stroke="none" stroke-width="1" fill="none" fill-rule="evenodd">
        <g id="generateSequence-1.svg">
            <rect id="Rectangle-1" stroke="#E8C48E" stroke-width="2" fill="#FFF9EB" x="26" y="19" width="271" height="110"></rect>
            <path id="Line" d="M304.5,36.5 L336.5,36.5 L336.5,38.5 L304.5,38.5 L304.5,44.5 L290.5,37.5 L304.5,30.5 L304.5,36.5 Z" fill="#EE6B47" fill-rule="nonzero"></path>
            <g id="function*-generateSe" transform="translate(39.120000, 30.990000)" fill-rule="nonzero">
                <path d="M0.112,10.01 L0.112,9.072 L1.778,9.072 L1.778,3.948 L0.112,3.948 L0.112,3.01 L1.778,3.01 L1.778,2.618 C1.778,1.74066228 2.00666438,1.10600196 2.464,0.714 C2.92133562,0.32199804 3.57466242,0.126 4.424,0.126 C4.73200154,0.126 5.00733212,0.14466648 5.25,0.182 C5.49266788,0.21933352 5.7539986,0.29399944 6.034,0.406 L5.782,1.316 C5.53933212,1.21333282 5.30600112,1.14566683 5.082,1.113 C4.85799888,1.08033317 4.6526676,1.064 4.466,1.064 C3.84999692,1.064 3.43000112,1.21566515 3.206,1.519 C2.98199888,1.82233485 2.87,2.31932988 2.87,3.01 L5.768,3.01 L5.768,3.948 L2.87,3.948 L2.87,9.072 L5.768,9.072 L5.768,10.01 L0.112,10.01 Z M12.362,3.01 L14.35,3.01 L14.35,7.784 C14.35,8.24133562 14.3779997,8.6799979 14.434,9.1 L15.372,9.1 L15.372,10.01 L13.51,10.01 L13.468,8.82 L13.412,8.82 C13.1693321,9.22133534 12.8473353,9.54799874 12.446,9.8 C12.0446647,10.0520013 11.5593362,10.178 10.99,10.178 C10.5606645,10.178 10.1943349,10.1290005 9.891,10.031 C9.58766515,9.93299951 9.33800098,9.76266788 9.142,9.52 C8.94599902,9.27733212 8.8013338,8.95300203 8.708,8.547 C8.6146662,8.14099797 8.568,7.6346697 8.568,7.028 L8.568,3.948 L7.63,3.948 L7.63,3.01 L9.66,3.01 L9.66,6.804 C9.66,7.18666858 9.67633317,7.52966515 9.709,7.833 C9.74166683,8.13633485 9.80933282,8.39299895 9.912,8.603 C10.0146672,8.81300105 10.1663323,8.97166613 10.367,9.079 C10.5676677,9.18633387 10.8359983,9.24 11.172,9.24 C11.6573358,9.24 12.0796649,9.08133492 12.439,8.764 C12.7983351,8.44666508 13.0713324,8.05000238 13.258,7.574 L13.258,3.948 L12.362,3.948 L12.362,3.01 Z M16.982,5.46 C16.982,5.37599958 16.9796667,5.26633401 16.975,5.131 C16.9703333,4.99566599 16.9633334,4.85566739 16.954,4.711 C16.9446666,4.56633261 16.9330001,4.4240007 16.919,4.284 C16.9049999,4.1439993 16.8886668,4.02266718 16.87,3.92 L15.932,3.92 L15.932,3.01 L17.808,3.01 L17.934,4.144 L18.004,4.144 C18.0973338,3.98533254 18.2209992,3.82900077 18.375,3.675 C18.5290008,3.52099923 18.7086656,3.38100063 18.914,3.255 C19.1193344,3.12899937 19.3479987,3.02866704 19.6,2.954 C19.8520013,2.87933296 20.1179986,2.842 20.398,2.842 C20.8273355,2.842 21.207665,2.8886662 21.539,2.982 C21.870335,3.0753338 22.1456656,3.24099881 22.365,3.479 C22.5843344,3.71700119 22.7499994,4.03899797 22.862,4.445 C22.9740006,4.85100203 23.03,5.36666354 23.03,5.992 L23.03,10.01 L21.938,10.01 L21.938,6.202 C21.938,5.42732946 21.8120013,4.84400196 21.56,4.452 C21.3079987,4.05999804 20.85067,3.864 20.188,3.864 C19.9453321,3.864 19.7096678,3.91299951 19.481,4.011 C19.2523322,4.10900049 19.0446676,4.23733254 18.858,4.396 C18.6713324,4.55466746 18.5080007,4.73899895 18.368,4.949 C18.2279993,5.15900105 18.1253337,5.3806655 18.06,5.614 L18.06,10.01 L16.982,10.01 L16.982,5.46 Z M30.226,4.088 C30.0113323,4.01333296 29.7803346,3.95033359 29.533,3.899 C29.2856654,3.84766641 29.0406679,3.822 28.798,3.822 C27.8833288,3.822 27.2020022,4.03666452 26.754,4.466 C26.3059978,4.89533548 26.082,5.576662 26.082,6.51 C26.082,6.92066872 26.1473327,7.28699839 26.278,7.609 C26.4086673,7.93100161 26.5953321,8.20399888 26.838,8.428 C27.0806679,8.65200112 27.3723316,8.82466606 27.713,8.946 C28.0536684,9.06733394 28.4293313,9.128 28.84,9.128 C29.2786689,9.128 29.7056646,9.05333408 30.121,8.904 C30.5363354,8.75466592 30.8839986,8.55866788 31.164,8.316 L31.654,9.128 C31.5233327,9.24000056 31.360001,9.35666606 31.164,9.478 C30.967999,9.59933394 30.741668,9.71366613 30.485,9.821 C30.2283321,9.92833387 29.9436682,10.0146663 29.631,10.08 C29.3183318,10.1453337 28.9800018,10.178 28.616,10.178 C28.0093303,10.178 27.4750023,10.0916675 27.013,9.919 C26.5509977,9.74633247 26.1660015,9.49900161 25.858,9.177 C25.5499985,8.85499839 25.3166675,8.46766893 25.158,8.015 C24.9993325,7.56233107 24.92,7.06066942 24.92,6.51 C24.92,5.92199706 25.0016659,5.39933562 25.165,4.942 C25.3283342,4.48466438 25.5639985,4.10200154 25.872,3.794 C26.1800015,3.48599846 26.5533311,3.25033415 26.992,3.087 C27.4306689,2.92366585 27.920664,2.842 28.462,2.842 C29.1526701,2.842 29.7149978,2.90266606 30.149,3.024 C30.5830022,3.14533394 30.9493318,3.28066592 31.248,3.43 L31.234,3.472 L31.234,5.418 L30.226,5.418 L30.226,4.088 Z M32.914,3.01 L34.58,3.01 L34.58,1.624 L35.672,1.316 L35.672,3.01 L39.41,3.01 L39.41,3.948 L35.672,3.948 L35.672,7.252 C35.672,7.93333674 35.837665,8.4373317 36.169,8.764 C36.500335,9.0906683 36.9739969,9.254 37.59,9.254 C38.0100021,9.254 38.3763318,9.17466746 38.689,9.016 C39.0016682,8.85733254 39.2839987,8.6846676 39.536,8.498 L39.9,9.324 C39.5733317,9.58533464 39.1836689,9.79533254 38.731,9.954 C38.2783311,10.1126675 37.8140024,10.192 37.338,10.192 C36.9646648,10.192 36.612335,10.1383339 36.281,10.031 C35.949665,9.92366613 35.6580013,9.75800112 35.406,9.534 C35.1539987,9.30999888 34.9533341,9.02300175 34.804,8.673 C34.6546659,8.32299825 34.58,7.90533576 34.58,7.42 L34.58,3.948 L32.914,3.948 L32.914,3.01 Z M42.35,10.01 L42.35,9.072 L44.786,9.072 L44.786,3.948 L42.35,3.948 L42.35,3.01 L45.906,3.01 L45.906,9.072 L48.286,9.072 L48.286,10.01 L42.35,10.01 Z M44.408,1.022 C44.408,0.76999874 44.4919992,0.55300091 44.66,0.371 C44.8280008,0.18899909 45.0426654,0.098 45.304,0.098 C45.574668,0.098 45.8009991,0.18899909 45.983,0.371 C46.1650009,0.55300091 46.256,0.76999874 46.256,1.022 C46.256,1.26466788 46.1650009,1.46999916 45.983,1.638 C45.8009991,1.80600084 45.574668,1.89 45.304,1.89 C45.0426654,1.89 44.8280008,1.80600084 44.66,1.638 C44.4919992,1.46999916 44.408,1.26466788 44.408,1.022 Z M50.078,6.51 C50.078,5.38066102 50.3719971,4.48700329 50.96,3.829 C51.5480029,3.17099671 52.3879945,2.842 53.48,2.842 C54.0680029,2.842 54.5743312,2.93766571 54.999,3.129 C55.4236688,3.32033429 55.7759986,3.5793317 56.056,3.906 C56.3360014,4.2326683 56.543666,4.61999776 56.679,5.068 C56.814334,5.51600224 56.882,5.9966641 56.882,6.51 C56.882,7.0700028 56.8073341,7.57633107 56.658,8.029 C56.5086659,8.48166893 56.2893348,8.86666508 56,9.184 C55.7106652,9.50133492 55.3536688,9.74633247 54.929,9.919 C54.5043312,10.0916675 54.021336,10.178 53.48,10.178 C52.9013304,10.178 52.3973355,10.0823343 51.968,9.891 C51.5386645,9.69966571 51.1840014,9.4406683 50.904,9.114 C50.6239986,8.7873317 50.416334,8.40000224 50.281,7.952 C50.145666,7.50399776 50.078,7.0233359 50.078,6.51 Z M51.24,6.51 C51.24,6.8366683 51.2796663,7.1633317 51.359,7.49 C51.4383337,7.8166683 51.5666658,8.11066536 51.744,8.372 C51.9213342,8.63333464 52.1523319,8.84333254 52.437,9.002 C52.7216681,9.16066746 53.0693313,9.24 53.48,9.24 C54.2266704,9.24 54.7889981,9.00900231 55.167,8.547 C55.5450019,8.08499769 55.734,7.40600448 55.734,6.51 C55.734,6.17399832 55.6943337,5.84500161 55.615,5.523 C55.5356663,5.20099839 55.4050009,4.90933464 55.223,4.648 C55.0409991,4.38666536 54.8076681,4.17666746 54.523,4.018 C54.2383319,3.85933254 53.8906687,3.78 53.48,3.78 C52.7333296,3.78 52.1733352,4.00866438 51.8,4.466 C51.4266648,4.92333562 51.24,5.60466214 51.24,6.51 Z M58.982,5.46 C58.982,5.37599958 58.9796667,5.26633401 58.975,5.131 C58.9703333,4.99566599 58.9633334,4.85566739 58.954,4.711 C58.9446666,4.56633261 58.9330001,4.4240007 58.919,4.284 C58.9049999,4.1439993 58.8886668,4.02266718 58.87,3.92 L57.932,3.92 L57.932,3.01 L59.808,3.01 L59.934,4.144 L60.004,4.144 C60.0973338,3.98533254 60.2209992,3.82900077 60.375,3.675 C60.5290008,3.52099923 60.7086656,3.38100063 60.914,3.255 C61.1193344,3.12899937 61.3479987,3.02866704 61.6,2.954 C61.8520013,2.87933296 62.1179986,2.842 62.398,2.842 C62.8273355,2.842 63.207665,2.8886662 63.539,2.982 C63.870335,3.0753338 64.1456656,3.24099881 64.365,3.479 C64.5843344,3.71700119 64.7499994,4.03899797 64.862,4.445 C64.9740006,4.85100203 65.03,5.36666354 65.03,5.992 L65.03,10.01 L63.938,10.01 L63.938,6.202 C63.938,5.42732946 63.8120013,4.84400196 63.56,4.452 C63.3079987,4.05999804 62.85067,3.864 62.188,3.864 C61.9453321,3.864 61.7096678,3.91299951 61.481,4.011 C61.2523322,4.10900049 61.0446676,4.23733254 60.858,4.396 C60.6713324,4.55466746 60.5080007,4.73899895 60.368,4.949 C60.2279993,5.15900105 60.1253337,5.3806655 60.06,5.614 L60.06,10.01 L58.982,10.01 L58.982,5.46 Z" id="function" fill="#0077AA"></path>
                <polygon id="*" fill="#A67F59" points="69.062 0.014 70.308 2.464 71.512 9.16600129e-13 72.478 0.518 70.784 2.884 73.626 2.674 73.626 3.808 70.868 3.584 72.492 5.838 71.554 6.384 70.252 3.878 69.02 6.384 68.012 5.838 69.706 3.584 66.934 3.808 66.934 2.674 69.706 2.912 68.096 0.56"></polygon>
                <path d="M90.216,10.36 C90.216,10.7986689 90.1320008,11.183665 89.964,11.515 C89.7959992,11.846335 89.5650015,12.1193323 89.271,12.334 C88.9769985,12.5486677 88.634002,12.7096661 88.242,12.817 C87.849998,12.9243339 87.4253356,12.978 86.968,12.978 C86.4173306,12.978 85.9366687,12.9220006 85.526,12.81 C85.1153313,12.6979994 84.7606682,12.5533342 84.462,12.376 L84.994,11.382 C85.0780004,11.456667 85.187666,11.5289997 85.323,11.599 C85.458334,11.6690004 85.6146658,11.734333 85.792,11.795 C85.9693342,11.855667 86.1583323,11.9046665 86.359,11.942 C86.5596677,11.9793335 86.757999,11.998 86.954,11.998 C87.3646687,11.998 87.7076653,11.960667 87.983,11.886 C88.2583347,11.811333 88.4799992,11.6946675 88.648,11.536 C88.8160008,11.3773325 88.937333,11.1720013 89.012,10.92 C89.086667,10.6679987 89.124,10.3600018 89.124,9.996 L89.124,9.212 L89.068,9.212 C88.8533323,9.52000154 88.5780017,9.75799916 88.242,9.926 C87.9059983,10.0940008 87.4720027,10.178 86.94,10.178 C85.8759947,10.178 85.0943358,9.88166963 84.595,9.289 C84.0956642,8.69633037 83.846,7.77467292 83.846,6.524 C83.846,5.32932736 84.1633302,4.42633639 84.798,3.815 C85.4326698,3.20366361 86.3753271,2.898 87.626,2.898 C88.2046696,2.898 88.696998,2.93766627 89.103,3.017 C89.509002,3.09633373 89.8799983,3.19666606 90.216,3.318 L90.216,10.36 Z M87.094,9.24 C87.6633362,9.24 88.1113317,9.09300147 88.438,8.799 C88.7646683,8.50499853 88.9933327,8.0546697 89.124,7.448 L89.124,4.13 C88.7133313,3.93399902 88.139337,3.836 87.402,3.836 C86.6553296,3.836 86.0673355,4.05533114 85.638,4.494 C85.2086645,4.93266886 84.994,5.60466214 84.994,6.51 C84.994,6.91133534 85.031333,7.27766501 85.106,7.609 C85.180667,7.94033499 85.2996658,8.22733212 85.463,8.47 C85.6263342,8.71266788 85.8409987,8.90166599 86.107,9.037 C86.3730013,9.17233401 86.701998,9.24 87.094,9.24 Z M98.686,9.128 C98.5179992,9.27733408 98.3196678,9.41733268 98.091,9.548 C97.8623322,9.67866732 97.612668,9.7906662 97.342,9.884 C97.071332,9.9773338 96.7890015,10.0496664 96.495,10.101 C96.2009985,10.1523336 95.9046682,10.178 95.606,10.178 C95.0459972,10.178 94.5513355,10.0916675 94.122,9.919 C93.6926645,9.74633247 93.3333348,9.49900161 93.044,9.177 C92.7546652,8.85499839 92.5353341,8.47000224 92.386,8.022 C92.2366659,7.57399776 92.162,7.0700028 92.162,6.51 C92.162,5.92199706 92.2436659,5.39933562 92.407,4.942 C92.5703342,4.48466438 92.8059985,4.10200154 93.114,3.794 C93.4220015,3.48599846 93.7953311,3.25033415 94.234,3.087 C94.6726689,2.92366585 95.162664,2.842 95.704,2.842 C96.096002,2.842 96.4833314,2.89333282 96.866,2.996 C97.2486686,3.09866718 97.5869985,3.29233191 97.881,3.577 C98.1750015,3.86166809 98.4013325,4.25366417 98.56,4.753 C98.7186675,5.25233583 98.7746669,5.8986627 98.728,6.692 L93.31,6.692 C93.31,7.5320042 93.5363311,8.15966459 93.989,8.575 C94.4416689,8.99033541 95.0459962,9.198 95.802,9.198 C96.0540013,9.198 96.3036654,9.16766697 96.551,9.107 C96.7983346,9.04633303 97.0339989,8.97400042 97.258,8.89 C97.4820011,8.80599958 97.6803325,8.71266718 97.853,8.61 C98.0256675,8.50733282 98.1586662,8.41400042 98.252,8.33 L98.686,9.128 Z M95.732,3.766 C95.4239985,3.766 95.1323347,3.79866634 94.857,3.864 C94.5816653,3.92933366 94.3390011,4.03899923 94.129,4.193 C93.918999,4.34700077 93.746334,4.54766543 93.611,4.795 C93.475666,5.04233457 93.3893335,5.34799818 93.352,5.712 L97.706,5.712 C97.6593331,5.09599692 97.4610018,4.61766837 97.111,4.277 C96.7609983,3.93633163 96.3013362,3.766 95.732,3.766 Z M100.982,5.46 C100.982,5.37599958 100.979667,5.26633401 100.975,5.131 C100.970333,4.99566599 100.963333,4.85566739 100.954,4.711 C100.944667,4.56633261 100.933,4.4240007 100.919,4.284 C100.905,4.1439993 100.888667,4.02266718 100.87,3.92 L99.932,3.92 L99.932,3.01 L101.808,3.01 L101.934,4.144 L102.004,4.144 C102.097334,3.98533254 102.220999,3.82900077 102.375,3.675 C102.529001,3.52099923 102.708666,3.38100063 102.914,3.255 C103.119334,3.12899937 103.347999,3.02866704 103.6,2.954 C103.852001,2.87933296 104.117999,2.842 104.398,2.842 C104.827335,2.842 105.207665,2.8886662 105.539,2.982 C105.870335,3.0753338 106.145666,3.24099881 106.365,3.479 C106.584334,3.71700119 106.749999,4.03899797 106.862,4.445 C106.974001,4.85100203 107.03,5.36666354 107.03,5.992 L107.03,10.01 L105.938,10.01 L105.938,6.202 C105.938,5.42732946 105.812001,4.84400196 105.56,4.452 C105.307999,4.05999804 104.85067,3.864 104.188,3.864 C103.945332,3.864 103.709668,3.91299951 103.481,4.011 C103.252332,4.10900049 103.044668,4.23733254 102.858,4.396 C102.671332,4.55466746 102.508001,4.73899895 102.368,4.949 C102.227999,5.15900105 102.125334,5.3806655 102.06,5.614 L102.06,10.01 L100.982,10.01 L100.982,5.46 Z M115.486,9.128 C115.317999,9.27733408 115.119668,9.41733268 114.891,9.548 C114.662332,9.67866732 114.412668,9.7906662 114.142,9.884 C113.871332,9.9773338 113.589001,10.0496664 113.295,10.101 C113.000999,10.1523336 112.704668,10.178 112.406,10.178 C111.845997,10.178 111.351335,10.0916675 110.922,9.919 C110.492665,9.74633247 110.133335,9.49900161 109.844,9.177 C109.554665,8.85499839 109.335334,8.47000224 109.186,8.022 C109.036666,7.57399776 108.962,7.0700028 108.962,6.51 C108.962,5.92199706 109.043666,5.39933562 109.207,4.942 C109.370334,4.48466438 109.605998,4.10200154 109.914,3.794 C110.222002,3.48599846 110.595331,3.25033415 111.034,3.087 C111.472669,2.92366585 111.962664,2.842 112.504,2.842 C112.896002,2.842 113.283331,2.89333282 113.666,2.996 C114.048669,3.09866718 114.386999,3.29233191 114.681,3.577 C114.975001,3.86166809 115.201333,4.25366417 115.36,4.753 C115.518667,5.25233583 115.574667,5.8986627 115.528,6.692 L110.11,6.692 C110.11,7.5320042 110.336331,8.15966459 110.789,8.575 C111.241669,8.99033541 111.845996,9.198 112.602,9.198 C112.854001,9.198 113.103665,9.16766697 113.351,9.107 C113.598335,9.04633303 113.833999,8.97400042 114.058,8.89 C114.282001,8.80599958 114.480332,8.71266718 114.653,8.61 C114.825668,8.50733282 114.958666,8.41400042 115.052,8.33 L115.486,9.128 Z M112.532,3.766 C112.223998,3.766 111.932335,3.79866634 111.657,3.864 C111.381665,3.92933366 111.139001,4.03899923 110.929,4.193 C110.718999,4.34700077 110.546334,4.54766543 110.411,4.795 C110.275666,5.04233457 110.189334,5.34799818 110.152,5.712 L114.506,5.712 C114.459333,5.09599692 114.261002,4.61766837 113.911,4.277 C113.560998,3.93633163 113.101336,3.766 112.532,3.766 Z M117.404,10.01 L117.404,9.072 L119.294,9.072 L119.294,3.948 L117.404,3.948 L117.404,3.01 L120.022,3.01 L120.246,3.92 L120.316,3.92 C120.633335,3.63066522 120.987998,3.38333436 121.38,3.178 C121.772002,2.97266564 122.238664,2.87 122.78,2.87 C123.097335,2.87 123.351666,2.93066606 123.543,3.052 C123.734334,3.17333394 123.883666,3.3506655 123.991,3.584 C124.098334,3.8173345 124.170666,4.09966501 124.208,4.431 C124.245334,4.76233499 124.264,5.1379979 124.264,5.558 L123.284,5.572 C123.284,4.97466368 123.225667,4.5360014 123.109,4.256 C122.992333,3.9759986 122.780002,3.836 122.472,3.836 C122.182665,3.836 121.921335,3.87799958 121.688,3.962 C121.454666,4.04600042 121.251668,4.14866606 121.079,4.27 C120.906332,4.39133394 120.759334,4.51266606 120.638,4.634 C120.516666,4.75533394 120.428,4.85799958 120.372,4.942 L120.372,9.072 L123.06,9.072 L123.06,10.01 L117.404,10.01 Z M126.392,3.556 C126.793335,3.3226655 127.245997,3.15466718 127.75,3.052 C128.254003,2.94933282 128.748664,2.898 129.234,2.898 C129.710002,2.898 130.099665,2.97266592 130.403,3.122 C130.706335,3.27133408 130.944332,3.46499881 131.117,3.703 C131.289668,3.94100119 131.406333,4.21166515 131.467,4.515 C131.527667,4.81833485 131.558,5.12399846 131.558,5.432 C131.558,5.78666844 131.548667,6.16466466 131.53,6.566 C131.511333,6.96733534 131.497333,7.36866466 131.488,7.77 C131.488,8.236669 131.516,8.6799979 131.572,9.1 L132.51,9.1 L132.51,10.01 L130.648,10.01 L130.522,8.96 L130.452,8.96 C130.396,9.04400042 130.312001,9.15133268 130.2,9.282 C130.087999,9.41266732 129.941001,9.54099937 129.759,9.667 C129.576999,9.79300063 129.355335,9.9026662 129.094,9.996 C128.832665,10.0893338 128.524668,10.136 128.17,10.136 C127.47933,10.136 126.933335,9.95866844 126.532,9.604 C126.130665,9.24933156 125.93,8.76400308 125.93,8.148 C125.93,7.67199762 126.034999,7.27533492 126.245,6.958 C126.455001,6.64066508 126.755998,6.398 127.148,6.23 C127.540002,6.06199916 128.013664,5.96400014 128.569,5.936 C129.124336,5.90799986 129.74733,5.94533282 130.438,6.048 C130.484667,5.61866452 130.491667,5.26166809 130.459,4.977 C130.426333,4.69233191 130.351667,4.46600084 130.235,4.298 C130.118333,4.12999916 129.955001,4.01100035 129.745,3.941 C129.534999,3.87099965 129.276002,3.836 128.968,3.836 C128.547998,3.836 128.146669,3.89433275 127.764,4.011 C127.381331,4.12766725 127.040668,4.24666606 126.742,4.368 L126.392,3.556 Z M128.45,9.198 C128.711335,9.198 128.953999,9.15600042 129.178,9.072 C129.402001,8.98799958 129.597999,8.88066732 129.766,8.75 C129.934001,8.61933268 130.073999,8.47700077 130.186,8.323 C130.298001,8.16899923 130.382,8.0220007 130.438,7.882 L130.438,6.902 C129.952664,6.81799958 129.504669,6.776 129.094,6.776 C128.683331,6.776 128.328668,6.82033289 128.03,6.909 C127.731332,6.99766711 127.498001,7.1353324 127.33,7.322 C127.161999,7.5086676 127.078,7.75133184 127.078,8.05 C127.078,8.35800154 127.182999,8.62633219 127.393,8.855 C127.603001,9.08366781 127.955331,9.198 128.45,9.198 Z M133.714,3.01 L135.38,3.01 L135.38,1.624 L136.472,1.316 L136.472,3.01 L140.21,3.01 L140.21,3.948 L136.472,3.948 L136.472,7.252 C136.472,7.93333674 136.637665,8.4373317 136.969,8.764 C137.300335,9.0906683 137.773997,9.254 138.39,9.254 C138.810002,9.254 139.176332,9.17466746 139.489,9.016 C139.801668,8.85733254 140.083999,8.6846676 140.336,8.498 L140.7,9.324 C140.373332,9.58533464 139.983669,9.79533254 139.531,9.954 C139.078331,10.1126675 138.614002,10.192 138.138,10.192 C137.764665,10.192 137.412335,10.1383339 137.081,10.031 C136.749665,9.92366613 136.458001,9.75800112 136.206,9.534 C135.953999,9.30999888 135.753334,9.02300175 135.604,8.673 C135.454666,8.32299825 135.38,7.90533576 135.38,7.42 L135.38,3.948 L133.714,3.948 L133.714,3.01 Z M149.086,9.128 C148.917999,9.27733408 148.719668,9.41733268 148.491,9.548 C148.262332,9.67866732 148.012668,9.7906662 147.742,9.884 C147.471332,9.9773338 147.189001,10.0496664 146.895,10.101 C146.600999,10.1523336 146.304668,10.178 146.006,10.178 C145.445997,10.178 144.951335,10.0916675 144.522,9.919 C144.092665,9.74633247 143.733335,9.49900161 143.444,9.177 C143.154665,8.85499839 142.935334,8.47000224 142.786,8.022 C142.636666,7.57399776 142.562,7.0700028 142.562,6.51 C142.562,5.92199706 142.643666,5.39933562 142.807,4.942 C142.970334,4.48466438 143.205998,4.10200154 143.514,3.794 C143.822002,3.48599846 144.195331,3.25033415 144.634,3.087 C145.072669,2.92366585 145.562664,2.842 146.104,2.842 C146.496002,2.842 146.883331,2.89333282 147.266,2.996 C147.648669,3.09866718 147.986999,3.29233191 148.281,3.577 C148.575001,3.86166809 148.801333,4.25366417 148.96,4.753 C149.118667,5.25233583 149.174667,5.8986627 149.128,6.692 L143.71,6.692 C143.71,7.5320042 143.936331,8.15966459 144.389,8.575 C144.841669,8.99033541 145.445996,9.198 146.202,9.198 C146.454001,9.198 146.703665,9.16766697 146.951,9.107 C147.198335,9.04633303 147.433999,8.97400042 147.658,8.89 C147.882001,8.80599958 148.080332,8.71266718 148.253,8.61 C148.425668,8.50733282 148.558666,8.41400042 148.652,8.33 L149.086,9.128 Z M146.132,3.766 C145.823998,3.766 145.532335,3.79866634 145.257,3.864 C144.981665,3.92933366 144.739001,4.03899923 144.529,4.193 C144.318999,4.34700077 144.146334,4.54766543 144.011,4.795 C143.875666,5.04233457 143.789334,5.34799818 143.752,5.712 L148.106,5.712 C148.059333,5.09599692 147.861002,4.61766837 147.511,4.277 C147.160998,3.93633163 146.701336,3.766 146.132,3.766 Z M152.18,8.624 C152.460001,8.77333408 152.774998,8.89699951 153.125,8.995 C153.475002,9.09300049 153.827332,9.142 154.182,9.142 C154.490002,9.142 154.779332,9.11166697 155.05,9.051 C155.320668,8.99033303 155.556332,8.89233401 155.757,8.757 C155.957668,8.62166599 156.116333,8.45133436 156.233,8.246 C156.349667,8.04066564 156.408,7.7980014 156.408,7.518 C156.408,7.13533142 156.279668,6.82266788 156.023,6.58 C155.766332,6.33733212 155.446669,6.1226676 155.064,5.936 C154.681331,5.7493324 154.266002,5.56733422 153.818,5.39 C153.369998,5.21266578 152.954669,5.00266788 152.572,4.76 C152.189331,4.51733212 151.869668,4.22100175 151.613,3.871 C151.356332,3.52099825 151.228,3.07533604 151.228,2.534 C151.228,2.15133142 151.304999,1.80600154 151.459,1.498 C151.613001,1.18999846 151.829999,0.92866774 152.11,0.714 C152.390001,0.49933226 152.728331,0.33366725 153.125,0.217 C153.521669,0.10033275 153.962664,0.042 154.448,0.042 C155.008003,0.042 155.516664,0.08166627 155.974,0.161 C156.431336,0.24033373 156.795332,0.34533268 157.066,0.476 L157.094,0.462 L157.094,0.49 L157.108,0.49 L157.094,0.532 L157.094,2.772 L156.058,2.772 L156.058,1.274 C155.824666,1.21799972 155.568001,1.17133352 155.288,1.134 C155.007999,1.09666648 154.709335,1.078 154.392,1.078 C154.083998,1.078 153.806335,1.11533296 153.559,1.19 C153.311665,1.26466704 153.101668,1.36499937 152.929,1.491 C152.756332,1.61700063 152.623334,1.76399916 152.53,1.932 C152.436666,2.10000084 152.39,2.2773324 152.39,2.464 C152.39,2.82800182 152.518332,3.13133212 152.775,3.374 C153.031668,3.61666788 153.351331,3.83366571 153.734,4.025 C154.116669,4.21633429 154.531998,4.4053324 154.98,4.592 C155.428002,4.7786676 155.843331,4.99566543 156.226,5.243 C156.608669,5.49033457 156.928332,5.78666494 157.185,6.132 C157.441668,6.47733506 157.57,6.9066641 157.57,7.42 C157.57,7.8400021 157.493001,8.21799832 157.339,8.554 C157.184999,8.89000168 156.965668,9.17933212 156.681,9.422 C156.396332,9.66466788 156.046335,9.85133268 155.631,9.982 C155.215665,10.1126673 154.746669,10.178 154.224,10.178 C153.869332,10.178 153.533335,10.1500003 153.216,10.094 C152.898665,10.0379997 152.607001,9.96800042 152.341,9.884 C152.074999,9.79999958 151.837001,9.7113338 151.627,9.618 C151.416999,9.5246662 151.251334,9.44533366 151.13,9.38 L151.144,9.338 L151.144,7.07 L152.18,7.07 L152.18,8.624 Z M165.886,9.128 C165.717999,9.27733408 165.519668,9.41733268 165.291,9.548 C165.062332,9.67866732 164.812668,9.7906662 164.542,9.884 C164.271332,9.9773338 163.989001,10.0496664 163.695,10.101 C163.400999,10.1523336 163.104668,10.178 162.806,10.178 C162.245997,10.178 161.751335,10.0916675 161.322,9.919 C160.892665,9.74633247 160.533335,9.49900161 160.244,9.177 C159.954665,8.85499839 159.735334,8.47000224 159.586,8.022 C159.436666,7.57399776 159.362,7.0700028 159.362,6.51 C159.362,5.92199706 159.443666,5.39933562 159.607,4.942 C159.770334,4.48466438 160.005998,4.10200154 160.314,3.794 C160.622002,3.48599846 160.995331,3.25033415 161.434,3.087 C161.872669,2.92366585 162.362664,2.842 162.904,2.842 C163.296002,2.842 163.683331,2.89333282 164.066,2.996 C164.448669,3.09866718 164.786999,3.29233191 165.081,3.577 C165.375001,3.86166809 165.601333,4.25366417 165.76,4.753 C165.918667,5.25233583 165.974667,5.8986627 165.928,6.692 L160.51,6.692 C160.51,7.5320042 160.736331,8.15966459 161.189,8.575 C161.641669,8.99033541 162.245996,9.198 163.002,9.198 C163.254001,9.198 163.503665,9.16766697 163.751,9.107 C163.998335,9.04633303 164.233999,8.97400042 164.458,8.89 C164.682001,8.80599958 164.880332,8.71266718 165.053,8.61 C165.225668,8.50733282 165.358666,8.41400042 165.452,8.33 L165.886,9.128 Z M162.932,3.766 C162.623998,3.766 162.332335,3.79866634 162.057,3.864 C161.781665,3.92933366 161.539001,4.03899923 161.329,4.193 C161.118999,4.34700077 160.946334,4.54766543 160.811,4.795 C160.675666,5.04233457 160.589334,5.34799818 160.552,5.712 L164.906,5.712 C164.859333,5.09599692 164.661002,4.61766837 164.311,4.277 C163.960998,3.93633163 163.501336,3.766 162.932,3.766 Z M174.09,12.81 L172.998,12.81 L172.998,9.226 L172.942,9.226 C172.727332,9.53400154 172.452002,9.76966585 172.116,9.933 C171.779998,10.0963342 171.346003,10.178 170.814,10.178 C169.749995,10.178 168.968336,9.88166963 168.469,9.289 C167.969664,8.69633037 167.72,7.77467292 167.72,6.524 C167.72,5.32932736 168.03733,4.42633639 168.672,3.815 C169.30667,3.20366361 170.249327,2.898 171.5,2.898 C172.050669,2.898 172.563998,2.9446662 173.04,3.038 C173.516002,3.1313338 173.865999,3.22933282 174.09,3.332 L174.09,12.81 Z M170.982,9.24 C172.092672,9.24 172.764666,8.6566725 172.998,7.49 L172.998,4.116 C172.792666,4.01333282 172.547668,3.94100021 172.263,3.899 C171.978332,3.85699979 171.654002,3.836 171.29,3.836 C170.54333,3.836 169.955335,4.05066452 169.526,4.48 C169.096665,4.90933548 168.882,5.58599538 168.882,6.51 C168.882,6.91133534 168.917,7.27766501 168.987,7.609 C169.057,7.94033499 169.175999,8.22733212 169.344,8.47 C169.512001,8.71266788 169.728999,8.90166599 169.995,9.037 C170.261001,9.17233401 170.589998,9.24 170.982,9.24 Z M180.362,3.01 L182.35,3.01 L182.35,7.784 C182.35,8.24133562 182.378,8.6799979 182.434,9.1 L183.372,9.1 L183.372,10.01 L181.51,10.01 L181.468,8.82 L181.412,8.82 C181.169332,9.22133534 180.847335,9.54799874 180.446,9.8 C180.044665,10.0520013 179.559336,10.178 178.99,10.178 C178.560665,10.178 178.194335,10.1290005 177.891,10.031 C177.587665,9.93299951 177.338001,9.76266788 177.142,9.52 C176.945999,9.27733212 176.801334,8.95300203 176.708,8.547 C176.614666,8.14099797 176.568,7.6346697 176.568,7.028 L176.568,3.948 L175.63,3.948 L175.63,3.01 L177.66,3.01 L177.66,6.804 C177.66,7.18666858 177.676333,7.52966515 177.709,7.833 C177.741667,8.13633485 177.809333,8.39299895 177.912,8.603 C178.014667,8.81300105 178.166332,8.97166613 178.367,9.079 C178.567668,9.18633387 178.835998,9.24 179.172,9.24 C179.657336,9.24 180.079665,9.08133492 180.439,8.764 C180.798335,8.44666508 181.071332,8.05000238 181.258,7.574 L181.258,3.948 L180.362,3.948 L180.362,3.01 Z M191.086,9.128 C190.917999,9.27733408 190.719668,9.41733268 190.491,9.548 C190.262332,9.67866732 190.012668,9.7906662 189.742,9.884 C189.471332,9.9773338 189.189001,10.0496664 188.895,10.101 C188.600999,10.1523336 188.304668,10.178 188.006,10.178 C187.445997,10.178 186.951335,10.0916675 186.522,9.919 C186.092665,9.74633247 185.733335,9.49900161 185.444,9.177 C185.154665,8.85499839 184.935334,8.47000224 184.786,8.022 C184.636666,7.57399776 184.562,7.0700028 184.562,6.51 C184.562,5.92199706 184.643666,5.39933562 184.807,4.942 C184.970334,4.48466438 185.205998,4.10200154 185.514,3.794 C185.822002,3.48599846 186.195331,3.25033415 186.634,3.087 C187.072669,2.92366585 187.562664,2.842 188.104,2.842 C188.496002,2.842 188.883331,2.89333282 189.266,2.996 C189.648669,3.09866718 189.986999,3.29233191 190.281,3.577 C190.575001,3.86166809 190.801333,4.25366417 190.96,4.753 C191.118667,5.25233583 191.174667,5.8986627 191.128,6.692 L185.71,6.692 C185.71,7.5320042 185.936331,8.15966459 186.389,8.575 C186.841669,8.99033541 187.445996,9.198 188.202,9.198 C188.454001,9.198 188.703665,9.16766697 188.951,9.107 C189.198335,9.04633303 189.433999,8.97400042 189.658,8.89 C189.882001,8.80599958 190.080332,8.71266718 190.253,8.61 C190.425668,8.50733282 190.558666,8.41400042 190.652,8.33 L191.086,9.128 Z M188.132,3.766 C187.823998,3.766 187.532335,3.79866634 187.257,3.864 C186.981665,3.92933366 186.739001,4.03899923 186.529,4.193 C186.318999,4.34700077 186.146334,4.54766543 186.011,4.795 C185.875666,5.04233457 185.789334,5.34799818 185.752,5.712 L190.106,5.712 C190.059333,5.09599692 189.861002,4.61766837 189.511,4.277 C189.160998,3.93633163 188.701336,3.766 188.132,3.766 Z M193.382,5.46 C193.382,5.37599958 193.379667,5.26633401 193.375,5.131 C193.370333,4.99566599 193.363333,4.85566739 193.354,4.711 C193.344667,4.56633261 193.333,4.4240007 193.319,4.284 C193.305,4.1439993 193.288667,4.02266718 193.27,3.92 L192.332,3.92 L192.332,3.01 L194.208,3.01 L194.334,4.144 L194.404,4.144 C194.497334,3.98533254 194.620999,3.82900077 194.775,3.675 C194.929001,3.52099923 195.108666,3.38100063 195.314,3.255 C195.519334,3.12899937 195.747999,3.02866704 196,2.954 C196.252001,2.87933296 196.517999,2.842 196.798,2.842 C197.227335,2.842 197.607665,2.8886662 197.939,2.982 C198.270335,3.0753338 198.545666,3.24099881 198.765,3.479 C198.984334,3.71700119 199.149999,4.03899797 199.262,4.445 C199.374001,4.85100203 199.43,5.36666354 199.43,5.992 L199.43,10.01 L198.338,10.01 L198.338,6.202 C198.338,5.42732946 198.212001,4.84400196 197.96,4.452 C197.707999,4.05999804 197.25067,3.864 196.588,3.864 C196.345332,3.864 196.109668,3.91299951 195.881,4.011 C195.652332,4.10900049 195.444668,4.23733254 195.258,4.396 C195.071332,4.55466746 194.908001,4.73899895 194.768,4.949 C194.627999,5.15900105 194.525334,5.3806655 194.46,5.614 L194.46,10.01 L193.382,10.01 L193.382,5.46 Z M206.626,4.088 C206.411332,4.01333296 206.180335,3.95033359 205.933,3.899 C205.685665,3.84766641 205.440668,3.822 205.198,3.822 C204.283329,3.822 203.602002,4.03666452 203.154,4.466 C202.705998,4.89533548 202.482,5.576662 202.482,6.51 C202.482,6.92066872 202.547333,7.28699839 202.678,7.609 C202.808667,7.93100161 202.995332,8.20399888 203.238,8.428 C203.480668,8.65200112 203.772332,8.82466606 204.113,8.946 C204.453668,9.06733394 204.829331,9.128 205.24,9.128 C205.678669,9.128 206.105665,9.05333408 206.521,8.904 C206.936335,8.75466592 207.283999,8.55866788 207.564,8.316 L208.054,9.128 C207.923333,9.24000056 207.760001,9.35666606 207.564,9.478 C207.367999,9.59933394 207.141668,9.71366613 206.885,9.821 C206.628332,9.92833387 206.343668,10.0146663 206.031,10.08 C205.718332,10.1453337 205.380002,10.178 205.016,10.178 C204.40933,10.178 203.875002,10.0916675 203.413,9.919 C202.950998,9.74633247 202.566002,9.49900161 202.258,9.177 C201.949998,8.85499839 201.716667,8.46766893 201.558,8.015 C201.399333,7.56233107 201.32,7.06066942 201.32,6.51 C201.32,5.92199706 201.401666,5.39933562 201.565,4.942 C201.728334,4.48466438 201.963998,4.10200154 202.272,3.794 C202.580002,3.48599846 202.953331,3.25033415 203.392,3.087 C203.830669,2.92366585 204.320664,2.842 204.862,2.842 C205.55267,2.842 206.114998,2.90266606 206.549,3.024 C206.983002,3.14533394 207.349332,3.28066592 207.648,3.43 L207.634,3.472 L207.634,5.418 L206.626,5.418 L206.626,4.088 Z M216.286,9.128 C216.117999,9.27733408 215.919668,9.41733268 215.691,9.548 C215.462332,9.67866732 215.212668,9.7906662 214.942,9.884 C214.671332,9.9773338 214.389001,10.0496664 214.095,10.101 C213.800999,10.1523336 213.504668,10.178 213.206,10.178 C212.645997,10.178 212.151335,10.0916675 211.722,9.919 C211.292665,9.74633247 210.933335,9.49900161 210.644,9.177 C210.354665,8.85499839 210.135334,8.47000224 209.986,8.022 C209.836666,7.57399776 209.762,7.0700028 209.762,6.51 C209.762,5.92199706 209.843666,5.39933562 210.007,4.942 C210.170334,4.48466438 210.405998,4.10200154 210.714,3.794 C211.022002,3.48599846 211.395331,3.25033415 211.834,3.087 C212.272669,2.92366585 212.762664,2.842 213.304,2.842 C213.696002,2.842 214.083331,2.89333282 214.466,2.996 C214.848669,3.09866718 215.186999,3.29233191 215.481,3.577 C215.775001,3.86166809 216.001333,4.25366417 216.16,4.753 C216.318667,5.25233583 216.374667,5.8986627 216.328,6.692 L210.91,6.692 C210.91,7.5320042 211.136331,8.15966459 211.589,8.575 C212.041669,8.99033541 212.645996,9.198 213.402,9.198 C213.654001,9.198 213.903665,9.16766697 214.151,9.107 C214.398335,9.04633303 214.633999,8.97400042 214.858,8.89 C215.082001,8.80599958 215.280332,8.71266718 215.453,8.61 C215.625668,8.50733282 215.758666,8.41400042 215.852,8.33 L216.286,9.128 Z M213.332,3.766 C213.023998,3.766 212.732335,3.79866634 212.457,3.864 C212.181665,3.92933366 211.939001,4.03899923 211.729,4.193 C211.518999,4.34700077 211.346334,4.54766543 211.211,4.795 C211.075666,5.04233457 210.989334,5.34799818 210.952,5.712 L215.306,5.712 C215.259333,5.09599692 215.061002,4.61766837 214.711,4.277 C214.360998,3.93633163 213.901336,3.766 213.332,3.766 Z" id="generateSequence" fill="#000000"></path>
                <path d="M223.328,12.978 C222.702664,12.8193325 222.117003,12.5836682 221.571,12.271 C221.024997,11.9583318 220.549002,11.5500025 220.143,11.046 C219.736998,10.5419975 219.415001,9.92600364 219.177,9.198 C218.938999,8.46999636 218.82,7.60667166 218.82,6.608 C218.82,5.61866172 218.941332,4.75300371 219.184,4.011 C219.426668,3.26899629 219.753331,2.63900259 220.164,2.121 C220.574669,1.60299741 221.052997,1.18766823 221.599,0.875 C222.145003,0.56233177 222.72133,0.34066732 223.328,0.21 L223.678,1.092 C223.127331,1.25066746 222.623336,1.45833205 222.166,1.715 C221.708664,1.97166795 221.314335,2.31233121 220.983,2.737 C220.651665,3.16166879 220.395001,3.68899685 220.213,4.319 C220.030999,4.94900315 219.94,5.71199552 219.94,6.608 C219.94,7.51333786 220.049666,8.28566347 220.269,8.925 C220.488334,9.56433653 220.777665,10.0963312 221.137,10.521 C221.496335,10.9456688 221.897664,11.2769988 222.341,11.515 C222.784336,11.7530012 223.229998,11.9186662 223.678,12.012 L223.328,12.978 Z M227.682,12.012 C228.130002,11.9186662 228.575664,11.7530012 229.019,11.515 C229.462336,11.2769988 229.863665,10.9456688 230.223,10.521 C230.582335,10.0963312 230.871666,9.56433653 231.091,8.925 C231.310334,8.28566347 231.42,7.51333786 231.42,6.608 C231.42,5.71199552 231.329001,4.94900315 231.147,4.319 C230.964999,3.68899685 230.708335,3.16166879 230.377,2.737 C230.045665,2.31233121 229.651336,1.97166795 229.194,1.715 C228.736664,1.45833205 228.232669,1.25066746 227.682,1.092 L228.032,0.21 C228.63867,0.34066732 229.214997,0.56233177 229.761,0.875 C230.307003,1.18766823 230.785331,1.60299741 231.196,2.121 C231.606669,2.63900259 231.933332,3.26899629 232.176,4.011 C232.418668,4.75300371 232.54,5.61866172 232.54,6.608 C232.54,7.60667166 232.421001,8.46999636 232.183,9.198 C231.944999,9.92600364 231.623002,10.5419975 231.217,11.046 C230.810998,11.5500025 230.335003,11.9583318 229.789,12.271 C229.242997,12.5836682 228.657336,12.8193325 228.032,12.978 L227.682,12.012 Z M245.56,9.562 C245.56,9.16066466 245.492334,8.81300147 245.357,8.519 C245.221666,8.22499853 245.053668,7.98000098 244.853,7.784 C244.652332,7.58799902 244.437668,7.4433338 244.209,7.35 C243.980332,7.2566662 243.777334,7.21 243.6,7.21 L243.6,6.23 C243.777334,6.23 243.980332,6.19033373 244.209,6.111 C244.437668,6.03166627 244.652332,5.90100091 244.853,5.719 C245.053668,5.53699909 245.221666,5.30133478 245.357,5.012 C245.492334,4.72266522 245.56,4.36333548 245.56,3.934 L245.56,2.506 C245.56,2.16999832 245.613666,1.8620014 245.721,1.582 C245.828334,1.3019986 245.977666,1.05933436 246.169,0.854 C246.360334,0.64866564 246.588999,0.48766725 246.855,0.371 C247.121001,0.25433275 247.412665,0.196 247.73,0.196 L249.76,0.196 L249.76,1.176 L248.22,1.176 C247.631997,1.176 247.223668,1.3159986 246.995,1.596 C246.766332,1.8760014 246.652,2.29133058 246.652,2.842 L246.652,4.2 C246.652,4.58266858 246.582001,4.92333184 246.442,5.222 C246.301999,5.52066816 246.134001,5.77033233 245.938,5.971 C245.741999,6.17166767 245.541334,6.33033275 245.336,6.447 C245.130666,6.56366725 244.962667,6.63133324 244.832,6.65 L244.832,6.734 C244.953334,6.75266676 245.116666,6.82499937 245.322,6.951 C245.527334,7.07700063 245.727999,7.24966557 245.924,7.469 C246.120001,7.68833443 246.290333,7.94733184 246.435,8.246 C246.579667,8.54466816 246.652,8.87599818 246.652,9.24 L246.652,10.584 C246.652,11.1533362 246.773332,11.573332 247.016,11.844 C247.258668,12.114668 247.664664,12.25 248.234,12.25 L249.76,12.25 L249.76,13.23 L247.73,13.23 C247.076663,13.23 246.551669,13.0363353 246.155,12.649 C245.758331,12.2616647 245.56,11.6900038 245.56,10.934 L245.56,9.562 Z" id="(){" fill="#999999"></path>
                <path d="M20.034,25.932 L20.566,25.932 L22.302,20.01 L23.436,20.01 L21.49,26.296 C21.3873328,26.6226683 21.2823339,26.9936646 21.175,27.409 C21.0676661,27.8243354 20.916001,28.2139982 20.72,28.578 C20.523999,28.9420018 20.2580017,29.2499987 19.922,29.502 C19.5859983,29.7540013 19.147336,29.88 18.606,29.88 C18.4846661,29.88 18.356334,29.8660001 18.221,29.838 C18.085666,29.8099999 17.9526673,29.7750002 17.822,29.733 C17.6913327,29.6909998 17.5700006,29.6420003 17.458,29.586 C17.3459994,29.5299997 17.2620003,29.4740003 17.206,29.418 L17.598,28.41 C17.6540003,28.4566669 17.7309995,28.5033331 17.829,28.55 C17.9270005,28.5966669 18.0343327,28.6363332 18.151,28.669 C18.2676672,28.7016668 18.3819994,28.7296665 18.494,28.753 C18.6060006,28.7763334 18.699333,28.788 18.774,28.788 C19.4740035,28.788 19.9499987,28.1953393 20.202,27.01 L19.264,27.01 L16.324,20.01 L17.584,20.01 L20.034,25.932 Z M25.55,27.01 L25.55,26.072 L27.986,26.072 L27.986,20.948 L25.55,20.948 L25.55,20.01 L29.106,20.01 L29.106,26.072 L31.486,26.072 L31.486,27.01 L25.55,27.01 Z M27.608,18.022 C27.608,17.7699987 27.6919992,17.5530009 27.86,17.371 C28.0280008,17.1889991 28.2426654,17.098 28.504,17.098 C28.774668,17.098 29.0009991,17.1889991 29.183,17.371 C29.3650009,17.5530009 29.456,17.7699987 29.456,18.022 C29.456,18.2646679 29.3650009,18.4699992 29.183,18.638 C29.0009991,18.8060008 28.774668,18.89 28.504,18.89 C28.2426654,18.89 28.0280008,18.8060008 27.86,18.638 C27.6919992,18.4699992 27.608,18.2646679 27.608,18.022 Z M39.886,26.128 C39.7179992,26.2773341 39.5196678,26.4173327 39.291,26.548 C39.0623322,26.6786673 38.812668,26.7906662 38.542,26.884 C38.271332,26.9773338 37.9890015,27.0496664 37.695,27.101 C37.4009985,27.1523336 37.1046682,27.178 36.806,27.178 C36.2459972,27.178 35.7513355,27.0916675 35.322,26.919 C34.8926645,26.7463325 34.5333348,26.4990016 34.244,26.177 C33.9546652,25.8549984 33.7353341,25.4700022 33.586,25.022 C33.4366659,24.5739978 33.362,24.0700028 33.362,23.51 C33.362,22.9219971 33.4436658,22.3993356 33.607,21.942 C33.7703341,21.4846644 34.0059985,21.1020015 34.314,20.794 C34.6220015,20.4859985 34.9953311,20.2503341 35.434,20.087 C35.8726689,19.9236658 36.362664,19.842 36.904,19.842 C37.296002,19.842 37.6833314,19.8933328 38.066,19.996 C38.4486686,20.0986672 38.7869985,20.2923319 39.081,20.577 C39.3750015,20.8616681 39.6013325,21.2536642 39.76,21.753 C39.9186675,22.2523358 39.9746669,22.8986627 39.928,23.692 L34.51,23.692 C34.51,24.5320042 34.7363311,25.1596646 35.189,25.575 C35.6416689,25.9903354 36.2459962,26.198 37.002,26.198 C37.2540013,26.198 37.5036654,26.167667 37.751,26.107 C37.9983346,26.046333 38.2339989,25.9740004 38.458,25.89 C38.6820011,25.8059996 38.8803325,25.7126672 39.053,25.61 C39.2256675,25.5073328 39.3586662,25.4140004 39.452,25.33 L39.886,26.128 Z M36.932,20.766 C36.6239985,20.766 36.3323347,20.7986663 36.057,20.864 C35.7816653,20.9293337 35.539001,21.0389992 35.329,21.193 C35.1189989,21.3470008 34.946334,21.5476654 34.811,21.795 C34.675666,22.0423346 34.5893335,22.3479982 34.552,22.712 L38.906,22.712 C38.8593331,22.0959969 38.6610017,21.6176684 38.311,21.277 C37.9609982,20.9363316 37.5013362,20.766 36.932,20.766 Z M42.546,17.21 L44.87,17.21 L44.87,24.658 C44.87,25.2273362 44.9656657,25.6286655 45.157,25.862 C45.3483343,26.0953345 45.6306648,26.212 46.004,26.212 C46.2653346,26.212 46.5149988,26.1653338 46.753,26.072 C46.9910012,25.9786662 47.2546652,25.8200011 47.544,25.596 L48.048,26.366 C47.8986659,26.4966673 47.7353342,26.6133328 47.558,26.716 C47.3806658,26.8186672 47.1986676,26.9049996 47.012,26.975 C46.8253324,27.0450003 46.6386676,27.0986665 46.452,27.136 C46.2653324,27.1733335 46.0926675,27.192 45.934,27.192 C45.5886649,27.192 45.280668,27.1476671 45.01,27.059 C44.739332,26.9703329 44.5130009,26.828001 44.331,26.632 C44.1489991,26.435999 44.0113338,26.1770016 43.918,25.855 C43.8246662,25.5329984 43.778,25.1340024 43.778,24.658 L43.778,18.148 L42.546,18.148 L42.546,17.21 Z M54.166,17.21 L56.434,17.21 L56.434,24.616 C56.434,24.7000004 56.4386666,24.8049994 56.448,24.931 C56.4573334,25.0570006 56.4689999,25.1899993 56.483,25.33 C56.4970001,25.4700007 56.5133332,25.607666 56.532,25.743 C56.5506668,25.878334 56.5693332,25.9973328 56.588,26.1 L57.526,26.1 L57.526,27.01 L55.664,27.01 L55.524,25.932 L55.468,25.932 C55.2626656,26.2866684 54.957002,26.5829988 54.551,26.821 C54.144998,27.0590012 53.6760027,27.178 53.144,27.178 C52.0893281,27.178 51.3123358,26.8816696 50.813,26.289 C50.3136642,25.6963304 50.064,24.7746729 50.064,23.524 C50.064,22.9359971 50.1479992,22.4156689 50.316,21.963 C50.4840008,21.5103311 50.7243318,21.1323348 51.037,20.829 C51.3496682,20.5256651 51.7253311,20.2946675 52.164,20.136 C52.6026689,19.9773325 53.092664,19.898 53.634,19.898 C53.830001,19.898 54.0049992,19.9026666 54.159,19.912 C54.3130008,19.9213334 54.4553327,19.9353332 54.586,19.954 C54.7166673,19.9726668 54.8403327,19.9983332 54.957,20.031 C55.0736672,20.0636668 55.2019993,20.0986665 55.342,20.136 L55.342,18.148 L54.166,18.148 L54.166,17.21 Z M53.326,26.24 C53.8953362,26.24 54.3433317,26.0930015 54.67,25.799 C54.9966683,25.5049985 55.2206661,25.0640029 55.342,24.476 L55.342,21.228 C55.1366656,21.0879993 54.9056679,20.9853337 54.649,20.92 C54.392332,20.8546663 54.0540021,20.822 53.634,20.822 C52.8873296,20.822 52.2993355,21.0389978 51.87,21.473 C51.4406645,21.9070022 51.226,22.590662 51.226,23.524 C51.226,23.9066686 51.2609996,24.263665 51.331,24.595 C51.4010003,24.926335 51.5176658,25.2133321 51.681,25.456 C51.8443341,25.6986679 52.061332,25.8899993 52.332,26.03 C52.602668,26.1700007 52.933998,26.24 53.326,26.24 Z" id="yield" fill="#0077AA"></path>
                <polygon id="1" fill="#990055" points="67.858 26.002 70.056 26.002 70.056 18.638 67.816 20.206 67.27 19.408 70.35 17.21 71.134 17.21 71.134 26.002 73.29 26.002 73.29 27.01 67.858 27.01"></polygon>
                <path d="M77.686,26.24 C77.686,25.9599986 77.7769991,25.7336675 77.959,25.561 C78.1410009,25.3883325 78.3766652,25.302 78.666,25.302 C79.0206684,25.302 79.295999,25.4256654 79.492,25.673 C79.688001,25.9203346 79.786,26.2679978 79.786,26.716 C79.786,27.0800018 79.7253339,27.3996653 79.604,27.675 C79.4826661,27.9503347 79.3310009,28.1836657 79.149,28.375 C78.9669991,28.5663343 78.771001,28.7203328 78.561,28.837 C78.3509989,28.9536673 78.1573342,29.0399997 77.98,29.096 L77.63,28.55 C77.9660017,28.4193327 78.2553321,28.2326679 78.498,27.99 C78.7406679,27.7473321 78.862,27.4533351 78.862,27.108 C78.7313327,27.1360001 78.628667,27.15 78.554,27.15 C78.283332,27.15 78.0710008,27.0730008 77.917,26.919 C77.7629992,26.7649992 77.686,26.5386682 77.686,26.24 Z M77.812,20.738 C77.812,20.4393318 77.8959992,20.2083342 78.064,20.045 C78.2320008,19.8816659 78.4559986,19.8 78.736,19.8 C79.0346682,19.8 79.2679992,19.8816659 79.436,20.045 C79.6040008,20.2083342 79.688,20.4393318 79.688,20.738 C79.688,21.008668 79.6040008,21.2326658 79.436,21.41 C79.2679992,21.5873342 79.0346682,21.676 78.736,21.676 C78.4559986,21.676 78.2320008,21.5873342 78.064,21.41 C77.8959992,21.2326658 77.812,21.008668 77.812,20.738 Z" id=";" fill="#999999"></path>
                <path d="M20.034,42.932 L20.566,42.932 L22.302,37.01 L23.436,37.01 L21.49,43.296 C21.3873328,43.6226683 21.2823339,43.9936646 21.175,44.409 C21.0676661,44.8243354 20.916001,45.2139982 20.72,45.578 C20.523999,45.9420018 20.2580017,46.2499987 19.922,46.502 C19.5859983,46.7540013 19.147336,46.88 18.606,46.88 C18.4846661,46.88 18.356334,46.8660001 18.221,46.838 C18.085666,46.8099999 17.9526673,46.7750002 17.822,46.733 C17.6913327,46.6909998 17.5700006,46.6420003 17.458,46.586 C17.3459994,46.5299997 17.2620003,46.4740003 17.206,46.418 L17.598,45.41 C17.6540003,45.4566669 17.7309995,45.5033331 17.829,45.55 C17.9270005,45.5966669 18.0343327,45.6363332 18.151,45.669 C18.2676672,45.7016668 18.3819994,45.7296665 18.494,45.753 C18.6060006,45.7763334 18.699333,45.788 18.774,45.788 C19.4740035,45.788 19.9499987,45.1953393 20.202,44.01 L19.264,44.01 L16.324,37.01 L17.584,37.01 L20.034,42.932 Z M25.55,44.01 L25.55,43.072 L27.986,43.072 L27.986,37.948 L25.55,37.948 L25.55,37.01 L29.106,37.01 L29.106,43.072 L31.486,43.072 L31.486,44.01 L25.55,44.01 Z M27.608,35.022 C27.608,34.7699987 27.6919992,34.5530009 27.86,34.371 C28.0280008,34.1889991 28.2426654,34.098 28.504,34.098 C28.774668,34.098 29.0009991,34.1889991 29.183,34.371 C29.3650009,34.5530009 29.456,34.7699987 29.456,35.022 C29.456,35.2646679 29.3650009,35.4699992 29.183,35.638 C29.0009991,35.8060008 28.774668,35.89 28.504,35.89 C28.2426654,35.89 28.0280008,35.8060008 27.86,35.638 C27.6919992,35.4699992 27.608,35.2646679 27.608,35.022 Z M39.886,43.128 C39.7179992,43.2773341 39.5196678,43.4173327 39.291,43.548 C39.0623322,43.6786673 38.812668,43.7906662 38.542,43.884 C38.271332,43.9773338 37.9890015,44.0496664 37.695,44.101 C37.4009985,44.1523336 37.1046682,44.178 36.806,44.178 C36.2459972,44.178 35.7513355,44.0916675 35.322,43.919 C34.8926645,43.7463325 34.5333348,43.4990016 34.244,43.177 C33.9546652,42.8549984 33.7353341,42.4700022 33.586,42.022 C33.4366659,41.5739978 33.362,41.0700028 33.362,40.51 C33.362,39.9219971 33.4436658,39.3993356 33.607,38.942 C33.7703341,38.4846644 34.0059985,38.1020015 34.314,37.794 C34.6220015,37.4859985 34.9953311,37.2503341 35.434,37.087 C35.8726689,36.9236658 36.362664,36.842 36.904,36.842 C37.296002,36.842 37.6833314,36.8933328 38.066,36.996 C38.4486686,37.0986672 38.7869985,37.2923319 39.081,37.577 C39.3750015,37.8616681 39.6013325,38.2536642 39.76,38.753 C39.9186675,39.2523358 39.9746669,39.8986627 39.928,40.692 L34.51,40.692 C34.51,41.5320042 34.7363311,42.1596646 35.189,42.575 C35.6416689,42.9903354 36.2459962,43.198 37.002,43.198 C37.2540013,43.198 37.5036654,43.167667 37.751,43.107 C37.9983346,43.046333 38.2339989,42.9740004 38.458,42.89 C38.6820011,42.8059996 38.8803325,42.7126672 39.053,42.61 C39.2256675,42.5073328 39.3586662,42.4140004 39.452,42.33 L39.886,43.128 Z M36.932,37.766 C36.6239985,37.766 36.3323347,37.7986663 36.057,37.864 C35.7816653,37.9293337 35.539001,38.0389992 35.329,38.193 C35.1189989,38.3470008 34.946334,38.5476654 34.811,38.795 C34.675666,39.0423346 34.5893335,39.3479982 34.552,39.712 L38.906,39.712 C38.8593331,39.0959969 38.6610017,38.6176684 38.311,38.277 C37.9609982,37.9363316 37.5013362,37.766 36.932,37.766 Z M42.546,34.21 L44.87,34.21 L44.87,41.658 C44.87,42.2273362 44.9656657,42.6286655 45.157,42.862 C45.3483343,43.0953345 45.6306648,43.212 46.004,43.212 C46.2653346,43.212 46.5149988,43.1653338 46.753,43.072 C46.9910012,42.9786662 47.2546652,42.8200011 47.544,42.596 L48.048,43.366 C47.8986659,43.4966673 47.7353342,43.6133328 47.558,43.716 C47.3806658,43.8186672 47.1986676,43.9049996 47.012,43.975 C46.8253324,44.0450003 46.6386676,44.0986665 46.452,44.136 C46.2653324,44.1733335 46.0926675,44.192 45.934,44.192 C45.5886649,44.192 45.280668,44.1476671 45.01,44.059 C44.739332,43.9703329 44.5130009,43.828001 44.331,43.632 C44.1489991,43.435999 44.0113338,43.1770016 43.918,42.855 C43.8246662,42.5329984 43.778,42.1340024 43.778,41.658 L43.778,35.148 L42.546,35.148 L42.546,34.21 Z M54.166,34.21 L56.434,34.21 L56.434,41.616 C56.434,41.7000004 56.4386666,41.8049994 56.448,41.931 C56.4573334,42.0570006 56.4689999,42.1899993 56.483,42.33 C56.4970001,42.4700007 56.5133332,42.607666 56.532,42.743 C56.5506668,42.878334 56.5693332,42.9973328 56.588,43.1 L57.526,43.1 L57.526,44.01 L55.664,44.01 L55.524,42.932 L55.468,42.932 C55.2626656,43.2866684 54.957002,43.5829988 54.551,43.821 C54.144998,44.0590012 53.6760027,44.178 53.144,44.178 C52.0893281,44.178 51.3123358,43.8816696 50.813,43.289 C50.3136642,42.6963304 50.064,41.7746729 50.064,40.524 C50.064,39.9359971 50.1479992,39.4156689 50.316,38.963 C50.4840008,38.5103311 50.7243318,38.1323348 51.037,37.829 C51.3496682,37.5256651 51.7253311,37.2946675 52.164,37.136 C52.6026689,36.9773325 53.092664,36.898 53.634,36.898 C53.830001,36.898 54.0049992,36.9026666 54.159,36.912 C54.3130008,36.9213334 54.4553327,36.9353332 54.586,36.954 C54.7166673,36.9726668 54.8403327,36.9983332 54.957,37.031 C55.0736672,37.0636668 55.2019993,37.0986665 55.342,37.136 L55.342,35.148 L54.166,35.148 L54.166,34.21 Z M53.326,43.24 C53.8953362,43.24 54.3433317,43.0930015 54.67,42.799 C54.9966683,42.5049985 55.2206661,42.0640029 55.342,41.476 L55.342,38.228 C55.1366656,38.0879993 54.9056679,37.9853337 54.649,37.92 C54.392332,37.8546663 54.0540021,37.822 53.634,37.822 C52.8873296,37.822 52.2993355,38.0389978 51.87,38.473 C51.4406645,38.9070022 51.226,39.590662 51.226,40.524 C51.226,40.9066686 51.2609996,41.263665 51.331,41.595 C51.4010003,41.926335 51.5176658,42.2133321 51.681,42.456 C51.8443341,42.6986679 52.061332,42.8899993 52.332,43.03 C52.602668,43.1700007 52.933998,43.24 53.326,43.24 Z" id="yield" fill="#0077AA"></path>
                <path d="M73.08,36.688 C73.08,37.546671 72.6740041,38.5033281 71.862,39.558 C71.0499959,40.6126719 69.9160073,41.7606605 68.46,43.002 L73.388,43.002 L73.388,44.01 L67.172,44.01 L67.172,43.002 C67.3493342,42.8339992 67.5919985,42.614668 67.9,42.344 C68.2080015,42.073332 68.5393316,41.772335 68.894,41.441 C69.2486684,41.109665 69.6103315,40.7526686 69.979,40.37 C70.3476685,39.9873314 70.6813318,39.5953353 70.98,39.194 C71.2786682,38.7926647 71.5213324,38.3913353 71.708,37.99 C71.8946676,37.5886647 71.988,37.2013352 71.988,36.828 C71.988,36.2679972 71.8410015,35.8270016 71.547,35.505 C71.2529985,35.1829984 70.8120029,35.022 70.224,35.022 C69.7199975,35.022 69.2953351,35.0779994 68.95,35.19 C68.6046649,35.3020006 68.2920014,35.4653323 68.012,35.68 L67.536,34.91 C67.9560021,34.6113318 68.4016643,34.3920007 68.873,34.252 C69.3443357,34.1119993 69.8599972,34.042 70.42,34.042 C71.2973377,34.042 71.9599978,34.2799976 72.408,34.756 C72.8560022,35.2320024 73.08,35.8759959 73.08,36.688 Z" id="2" fill="#990055"></path>
                <path d="M77.686,43.24 C77.686,42.9599986 77.7769991,42.7336675 77.959,42.561 C78.1410009,42.3883325 78.3766652,42.302 78.666,42.302 C79.0206684,42.302 79.295999,42.4256654 79.492,42.673 C79.688001,42.9203346 79.786,43.2679978 79.786,43.716 C79.786,44.0800018 79.7253339,44.3996653 79.604,44.675 C79.4826661,44.9503347 79.3310009,45.1836657 79.149,45.375 C78.9669991,45.5663343 78.771001,45.7203328 78.561,45.837 C78.3509989,45.9536673 78.1573342,46.0399997 77.98,46.096 L77.63,45.55 C77.9660017,45.4193327 78.2553321,45.2326679 78.498,44.99 C78.7406679,44.7473321 78.862,44.4533351 78.862,44.108 C78.7313327,44.1360001 78.628667,44.15 78.554,44.15 C78.283332,44.15 78.0710008,44.0730008 77.917,43.919 C77.7629992,43.7649992 77.686,43.5386682 77.686,43.24 Z M77.812,37.738 C77.812,37.4393318 77.8959992,37.2083342 78.064,37.045 C78.2320008,36.8816659 78.4559986,36.8 78.736,36.8 C79.0346682,36.8 79.2679992,36.8816659 79.436,37.045 C79.6040008,37.2083342 79.688,37.4393318 79.688,37.738 C79.688,38.008668 79.6040008,38.2326658 79.436,38.41 C79.2679992,38.5873342 79.0346682,38.676 78.736,38.676 C78.4559986,38.676 78.2320008,38.5873342 78.064,38.41 C77.8959992,38.2326658 77.812,38.008668 77.812,37.738 Z" id=";" fill="#999999"></path>
                <path d="M16.604,61.01 L16.604,60.072 L18.494,60.072 L18.494,54.948 L16.604,54.948 L16.604,54.01 L19.222,54.01 L19.446,54.92 L19.516,54.92 C19.8333349,54.6306652 20.187998,54.3833344 20.58,54.178 C20.972002,53.9726656 21.438664,53.87 21.98,53.87 C22.2973349,53.87 22.5516657,53.9306661 22.743,54.052 C22.9343343,54.1733339 23.0836661,54.3506655 23.191,54.584 C23.2983339,54.8173345 23.3706665,55.099665 23.408,55.431 C23.4453335,55.762335 23.464,56.1379979 23.464,56.558 L22.484,56.572 C22.484,55.9746637 22.4256673,55.5360014 22.309,55.256 C22.1923328,54.9759986 21.9800015,54.836 21.672,54.836 C21.3826652,54.836 21.1213345,54.8779996 20.888,54.962 C20.6546655,55.0460004 20.4516675,55.1486661 20.279,55.27 C20.1063325,55.3913339 19.9593339,55.5126661 19.838,55.634 C19.7166661,55.7553339 19.6280003,55.8579996 19.572,55.942 L19.572,60.072 L22.26,60.072 L22.26,61.01 L16.604,61.01 Z M31.486,60.128 C31.3179992,60.2773341 31.1196678,60.4173327 30.891,60.548 C30.6623322,60.6786673 30.412668,60.7906662 30.142,60.884 C29.871332,60.9773338 29.5890015,61.0496664 29.295,61.101 C29.0009985,61.1523336 28.7046682,61.178 28.406,61.178 C27.8459972,61.178 27.3513355,61.0916675 26.922,60.919 C26.4926645,60.7463325 26.1333348,60.4990016 25.844,60.177 C25.5546652,59.8549984 25.3353341,59.4700022 25.186,59.022 C25.0366659,58.5739978 24.962,58.0700028 24.962,57.51 C24.962,56.9219971 25.0436659,56.3993356 25.207,55.942 C25.3703342,55.4846644 25.6059985,55.1020015 25.914,54.794 C26.2220015,54.4859985 26.5953311,54.2503342 27.034,54.087 C27.4726689,53.9236659 27.962664,53.842 28.504,53.842 C28.896002,53.842 29.2833314,53.8933328 29.666,53.996 C30.0486686,54.0986672 30.3869985,54.2923319 30.681,54.577 C30.9750015,54.8616681 31.2013325,55.2536642 31.36,55.753 C31.5186675,56.2523358 31.5746669,56.8986627 31.528,57.692 L26.11,57.692 C26.11,58.5320042 26.3363311,59.1596646 26.789,59.575 C27.2416689,59.9903354 27.8459962,60.198 28.602,60.198 C28.8540013,60.198 29.1036654,60.167667 29.351,60.107 C29.5983346,60.046333 29.8339989,59.9740004 30.058,59.89 C30.2820011,59.8059996 30.4803325,59.7126672 30.653,59.61 C30.8256675,59.5073328 30.9586662,59.4140004 31.052,59.33 L31.486,60.128 Z M28.532,54.766 C28.2239985,54.766 27.9323347,54.7986663 27.657,54.864 C27.3816653,54.9293337 27.1390011,55.0389992 26.929,55.193 C26.718999,55.3470008 26.546334,55.5476654 26.411,55.795 C26.275666,56.0423346 26.1893335,56.3479982 26.152,56.712 L30.506,56.712 C30.4593331,56.0959969 30.2610018,55.6176684 29.911,55.277 C29.5609983,54.9363316 29.1013362,54.766 28.532,54.766 Z M32.914,54.01 L34.58,54.01 L34.58,52.624 L35.672,52.316 L35.672,54.01 L39.41,54.01 L39.41,54.948 L35.672,54.948 L35.672,58.252 C35.672,58.9333367 35.837665,59.4373317 36.169,59.764 C36.500335,60.0906683 36.9739969,60.254 37.59,60.254 C38.0100021,60.254 38.3763318,60.1746675 38.689,60.016 C39.0016682,59.8573325 39.2839987,59.6846676 39.536,59.498 L39.9,60.324 C39.5733317,60.5853346 39.1836689,60.7953325 38.731,60.954 C38.2783311,61.1126675 37.8140024,61.192 37.338,61.192 C36.9646648,61.192 36.612335,61.1383339 36.281,61.031 C35.949665,60.9236661 35.6580013,60.7580011 35.406,60.534 C35.1539987,60.3099989 34.9533341,60.0230018 34.804,59.673 C34.6546659,59.3229983 34.58,58.9053358 34.58,58.42 L34.58,54.948 L32.914,54.948 L32.914,54.01 Z M45.962,54.01 L47.95,54.01 L47.95,58.784 C47.95,59.2413356 47.9779997,59.6799979 48.034,60.1 L48.972,60.1 L48.972,61.01 L47.11,61.01 L47.068,59.82 L47.012,59.82 C46.7693321,60.2213353 46.4473353,60.5479987 46.046,60.8 C45.6446647,61.0520013 45.1593362,61.178 44.59,61.178 C44.1606645,61.178 43.7943349,61.1290005 43.491,61.031 C43.1876652,60.9329995 42.938001,60.7626679 42.742,60.52 C42.545999,60.2773321 42.4013338,59.953002 42.308,59.547 C42.2146662,59.140998 42.168,58.6346697 42.168,58.028 L42.168,54.948 L41.23,54.948 L41.23,54.01 L43.26,54.01 L43.26,57.804 C43.26,58.1866686 43.2763332,58.5296652 43.309,58.833 C43.3416668,59.1363349 43.4093328,59.392999 43.512,59.603 C43.6146672,59.8130011 43.7663323,59.9716661 43.967,60.079 C44.1676677,60.1863339 44.4359983,60.24 44.772,60.24 C45.2573358,60.24 45.6796649,60.0813349 46.039,59.764 C46.3983351,59.4466651 46.6713324,59.0500024 46.858,58.574 L46.858,54.948 L45.962,54.948 L45.962,54.01 Z M50.204,61.01 L50.204,60.072 L52.094,60.072 L52.094,54.948 L50.204,54.948 L50.204,54.01 L52.822,54.01 L53.046,54.92 L53.116,54.92 C53.4333349,54.6306652 53.787998,54.3833344 54.18,54.178 C54.572002,53.9726656 55.038664,53.87 55.58,53.87 C55.8973349,53.87 56.1516657,53.9306661 56.343,54.052 C56.5343343,54.1733339 56.6836661,54.3506655 56.791,54.584 C56.8983339,54.8173345 56.9706665,55.099665 57.008,55.431 C57.0453335,55.762335 57.064,56.1379979 57.064,56.558 L56.084,56.572 C56.084,55.9746637 56.0256672,55.5360014 55.909,55.256 C55.7923327,54.9759986 55.5800015,54.836 55.272,54.836 C54.9826652,54.836 54.7213345,54.8779996 54.488,54.962 C54.2546655,55.0460004 54.0516675,55.1486661 53.879,55.27 C53.7063325,55.3913339 53.5593339,55.5126661 53.438,55.634 C53.3166661,55.7553339 53.2280003,55.8579996 53.172,55.942 L53.172,60.072 L55.86,60.072 L55.86,61.01 L50.204,61.01 Z M58.982,56.46 C58.982,56.3759996 58.9796667,56.266334 58.975,56.131 C58.9703333,55.995666 58.9633334,55.8556674 58.954,55.711 C58.9446666,55.5663326 58.9330001,55.4240007 58.919,55.284 C58.9049999,55.1439993 58.8886668,55.0226672 58.87,54.92 L57.932,54.92 L57.932,54.01 L59.808,54.01 L59.934,55.144 L60.004,55.144 C60.0973338,54.9853325 60.2209992,54.8290008 60.375,54.675 C60.5290008,54.5209992 60.7086656,54.3810006 60.914,54.255 C61.1193344,54.1289994 61.3479987,54.028667 61.6,53.954 C61.8520013,53.879333 62.1179986,53.842 62.398,53.842 C62.8273355,53.842 63.207665,53.8886662 63.539,53.982 C63.870335,54.0753338 64.1456656,54.2409988 64.365,54.479 C64.5843344,54.7170012 64.7499994,55.038998 64.862,55.445 C64.9740006,55.851002 65.03,56.3666635 65.03,56.992 L65.03,61.01 L63.938,61.01 L63.938,57.202 C63.938,56.4273295 63.8120013,55.844002 63.56,55.452 C63.3079987,55.059998 62.85067,54.864 62.188,54.864 C61.9453321,54.864 61.7096678,54.9129995 61.481,55.011 C61.2523322,55.1090005 61.0446676,55.2373325 60.858,55.396 C60.6713324,55.5546675 60.5080007,55.738999 60.368,55.949 C60.2279993,56.1590011 60.1253337,56.3806655 60.06,56.614 L60.06,61.01 L58.982,61.01 L58.982,56.46 Z" id="return" fill="#0077AA"></path>
                <path d="M77.952,60.212 C78.3253352,60.212 78.6683318,60.1630005 78.981,60.065 C79.2936682,59.9669995 79.5666655,59.8293342 79.8,59.652 C80.0333345,59.4746658 80.2153327,59.2600013 80.346,59.008 C80.4766673,58.7559987 80.542,58.4760015 80.542,58.168 C80.542,57.5239968 80.3156689,57.0643347 79.863,56.789 C79.4103311,56.5136653 78.8013372,56.376 78.036,56.376 L77.14,56.376 L77.14,55.704 L79.898,52.218 L75.712,52.218 L75.712,51.21 L81.242,51.21 L81.242,52.218 L78.484,55.452 L78.708,55.452 C79.1373355,55.452 79.5293316,55.5126661 79.884,55.634 C80.2386684,55.7553339 80.5466654,55.9279989 80.808,56.152 C81.0693346,56.3760011 81.2723326,56.6466651 81.417,56.964 C81.5616674,57.2813349 81.634,57.6406647 81.634,58.042 C81.634,58.5460025 81.536001,58.993998 81.34,59.386 C81.143999,59.778002 80.8780017,60.1069987 80.542,60.373 C80.2059983,60.6390013 79.8116689,60.839666 79.359,60.975 C78.9063311,61.110334 78.4233359,61.178 77.91,61.178 C77.4339976,61.178 77.0210017,61.1430003 76.671,61.073 C76.3209982,61.0029996 76.0013348,60.9166672 75.712,60.814 L75.992,59.834 C76.2346679,59.9460006 76.5193317,60.0369996 76.846,60.107 C77.1726683,60.1770003 77.5413313,60.212 77.952,60.212 Z" id="3" fill="#990055"></path>
                <path d="M86.086,60.24 C86.086,59.9599986 86.1769991,59.7336675 86.359,59.561 C86.5410009,59.3883325 86.7766652,59.302 87.066,59.302 C87.4206684,59.302 87.695999,59.4256654 87.892,59.673 C88.088001,59.9203346 88.186,60.2679978 88.186,60.716 C88.186,61.0800018 88.1253339,61.3996653 88.004,61.675 C87.8826661,61.9503347 87.7310009,62.1836657 87.549,62.375 C87.3669991,62.5663343 87.171001,62.7203327 86.961,62.837 C86.7509989,62.9536672 86.5573342,63.0399997 86.38,63.096 L86.03,62.55 C86.3660017,62.4193327 86.6553321,62.2326679 86.898,61.99 C87.1406679,61.7473321 87.262,61.4533351 87.262,61.108 C87.1313327,61.1360001 87.028667,61.15 86.954,61.15 C86.683332,61.15 86.4710008,61.0730008 86.317,60.919 C86.1629992,60.7649992 86.086,60.5386682 86.086,60.24 Z M86.212,54.738 C86.212,54.4393318 86.2959992,54.2083341 86.464,54.045 C86.6320008,53.8816658 86.8559986,53.8 87.136,53.8 C87.4346682,53.8 87.6679992,53.8816658 87.836,54.045 C88.0040008,54.2083341 88.088,54.4393318 88.088,54.738 C88.088,55.008668 88.0040008,55.2326658 87.836,55.41 C87.6679992,55.5873342 87.4346682,55.676 87.136,55.676 C86.8559986,55.676 86.6320008,55.5873342 86.464,55.41 C86.2959992,55.2326658 86.212,55.008668 86.212,54.738 Z M4.2,78.934 C4.2,79.6900038 4.00166865,80.2616647 3.605,80.649 C3.20833135,81.0363353 2.6833366,81.23 2.03,81.23 L-4.26325641e-14,81.23 L-4.26325641e-14,80.25 L1.526,80.25 C2.09533618,80.25 2.50133212,80.114668 2.744,79.844 C2.98666788,79.573332 3.108,79.1533362 3.108,78.584 L3.108,77.24 C3.108,76.8759982 3.1779993,76.5446682 3.318,76.246 C3.4580007,75.9473318 3.62599902,75.6883344 3.822,75.469 C4.01800098,75.2496656 4.21866564,75.0770006 4.424,74.951 C4.62933436,74.8249994 4.79733268,74.7526668 4.928,74.734 L4.928,74.65 C4.79733268,74.6313332 4.62933436,74.5636672 4.424,74.447 C4.21866564,74.3303327 4.01800098,74.1716677 3.822,73.971 C3.62599902,73.7703323 3.4580007,73.5206682 3.318,73.222 C3.1779993,72.9233318 3.108,72.5826686 3.108,72.2 L3.108,70.842 C3.108,70.2913306 2.99366781,69.8760014 2.765,69.596 C2.53633219,69.3159986 2.12800294,69.176 1.54,69.176 L-4.26325641e-14,69.176 L-4.26325641e-14,68.196 L2.03,68.196 C2.34733492,68.196 2.63899867,68.2543327 2.905,68.371 C3.17100133,68.4876672 3.39966571,68.6486656 3.591,68.854 C3.78233429,69.0593344 3.93166613,69.3019986 4.039,69.582 C4.14633387,69.8620014 4.2,70.1699983 4.2,70.506 L4.2,71.934 C4.2,72.3633355 4.26766599,72.7226652 4.403,73.012 C4.53833401,73.3013348 4.70633233,73.5369991 4.907,73.719 C5.10766767,73.9010009 5.32233219,74.0316663 5.551,74.111 C5.77966781,74.1903337 5.98266578,74.23 6.16,74.23 L6.16,75.21 C5.98266578,75.21 5.77966781,75.2566662 5.551,75.35 C5.32233219,75.4433338 5.10766767,75.587999 4.907,75.784 C4.70633233,75.980001 4.53833401,76.2249985 4.403,76.519 C4.26766599,76.8130015 4.2,77.1606647 4.2,77.562 L4.2,78.934 Z" id=";}" fill="#999999"></path>
            </g>
        </g>
    </g>
</svg>