<svg xmlns="http://www.w3.org/2000/svg" width="519" height="150" viewBox="0 0 519 150"><defs><style>@import url(https://fonts.googleapis.com/css?family=Open+Sans:bold,italic,bolditalic%7CPT+Mono);@font-face{font-family:&apos;PT Mono&apos;;font-weight:700;font-style:normal;src:local(&apos;PT MonoBold&apos;),url(/font/PTMonoBold.woff2) format(&apos;woff2&apos;),url(/font/PTMonoBold.woff) format(&apos;woff&apos;),url(/font/PTMonoBold.ttf) format(&apos;truetype&apos;)}</style></defs><g id="generator" fill="none" fill-rule="evenodd" stroke="none" stroke-width="1"><g id="generateSequence-2.svg"><path id="Rectangle-1" fill="#FBF2EC" stroke="#DBAF88" stroke-width="2" d="M26 17h271v110H26z"/><g id="function*-generateSe" fill-rule="nonzero" transform="translate(40.12 26.99)"><path id="function" fill="#1C85B5" d="M.112 10.01v-.938h1.666V3.948H.112V3.01h1.666v-.392c0-.877.229-1.512.686-1.904.457-.392 1.11-.588 1.96-.588.308 0 .583.019.826.056.243.037.504.112.784.224l-.252.91a2.862 2.862 0 00-.7-.203 4.295 4.295 0 00-.616-.049c-.616 0-1.036.152-1.26.455-.224.303-.336.8-.336 1.491h2.898v.938H2.87v5.124h2.898v.938H.112zm12.25-7h1.988v4.774c0 .457.028.896.084 1.316h.938v.91H13.51l-.042-1.19h-.056a2.938 2.938 0 01-.966.98c-.401.252-.887.378-1.456.378-.43 0-.796-.049-1.099-.147a1.556 1.556 0 01-.749-.511c-.196-.243-.34-.567-.434-.973-.093-.406-.14-.912-.14-1.519v-3.08H7.63V3.01h2.03v3.794c0 .383.016.726.049 1.029.033.303.1.56.203.77.103.21.254.369.455.476.2.107.469.161.805.161.485 0 .908-.159 1.267-.476.36-.317.632-.714.819-1.19V3.948h-.896V3.01zm4.62 2.45a14.05 14.05 0 00-.063-1.176 4.657 4.657 0 00-.049-.364h-.938v-.91h1.876l.126 1.134h.07c.093-.159.217-.315.371-.469a2.91 2.91 0 011.225-.721c.252-.075.518-.112.798-.112.43 0 .81.047 1.141.14.331.093.607.259.826.497.22.238.385.56.497.966.112.406.168.922.168 1.547v4.018h-1.092V6.202c0-.775-.126-1.358-.378-1.75-.252-.392-.71-.588-1.372-.588-.243 0-.478.049-.707.147a2.44 2.44 0 00-.623.385c-.187.159-.35.343-.49.553-.14.21-.243.432-.308.665v4.396h-1.078V5.46zm13.244-1.372a5.531 5.531 0 00-.693-.189 3.61 3.61 0 00-.735-.077c-.915 0-1.596.215-2.044.644-.448.43-.672 1.11-.672 2.044 0 .41.065.777.196 1.099.13.322.317.595.56.819.243.224.534.397.875.518.34.121.716.182 1.127.182.439 0 .866-.075 1.281-.224.415-.15.763-.345 1.043-.588l.49.812c-.13.112-.294.229-.49.35a4.837 4.837 0 01-1.533.602 4.962 4.962 0 01-1.015.098c-.607 0-1.141-.086-1.603-.259a3.045 3.045 0 01-1.155-.742 3.176 3.176 0 01-.7-1.162 4.525 4.525 0 01-.238-1.505c0-.588.082-1.11.245-1.568.163-.457.399-.84.707-1.148a3.08 3.08 0 011.12-.707 4.187 4.187 0 011.47-.245c.69 0 1.253.06 1.687.182.434.121.8.257 1.099.406l-.014.042v1.946h-1.008v-1.33zm2.688-1.078h1.666V1.624l1.092-.308V3.01h3.738v.938h-3.738v3.304c0 .681.166 1.185.497 1.512.331.327.805.49 1.421.49.42 0 .786-.08 1.099-.238.313-.159.595-.331.847-.518l.364.826a3.938 3.938 0 01-1.169.63 4.182 4.182 0 01-1.393.238 3.41 3.41 0 01-1.057-.161 2.426 2.426 0 01-.875-.497 2.38 2.38 0 01-.602-.861c-.15-.35-.224-.768-.224-1.253V3.948h-1.666V3.01zm9.436 7v-.938h2.436V3.948H42.35V3.01h3.556v6.062h2.38v.938H42.35zm2.058-8.988c0-.252.084-.469.252-.651a.838.838 0 01.644-.273c.27 0 .497.091.679.273a.889.889 0 01.273.651.806.806 0 01-.273.616.963.963 0 01-.679.252.872.872 0 01-.644-.252.838.838 0 01-.252-.616zm5.67 5.488c0-1.13.294-2.023.882-2.681.588-.658 1.428-.987 2.52-.987.588 0 1.094.096 1.519.287.425.191.777.45 1.057.777.28.327.488.714.623 1.162.135.448.203.929.203 1.442 0 .56-.075 1.066-.224 1.519-.15.453-.369.838-.658 1.155-.29.317-.646.562-1.071.735a3.82 3.82 0 01-1.449.259c-.579 0-1.083-.096-1.512-.287a2.967 2.967 0 01-1.064-.777 3.168 3.168 0 01-.623-1.162 4.963 4.963 0 01-.203-1.442zm1.162 0c0 .327.04.653.119.98.08.327.208.62.385.882.177.261.408.471.693.63.285.159.632.238 1.043.238.747 0 1.309-.231 1.687-.693.378-.462.567-1.141.567-2.037 0-.336-.04-.665-.119-.987a2.608 2.608 0 00-.392-.875 2.066 2.066 0 00-.7-.63c-.285-.159-.632-.238-1.043-.238-.747 0-1.307.229-1.68.686-.373.457-.56 1.139-.56 2.044zm7.742-1.05a14.05 14.05 0 00-.063-1.176 4.657 4.657 0 00-.049-.364h-.938v-.91h1.876l.126 1.134h.07c.093-.159.217-.315.371-.469a2.91 2.91 0 011.225-.721c.252-.075.518-.112.798-.112.43 0 .81.047 1.141.14.331.093.607.259.826.497.22.238.385.56.497.966.112.406.168.922.168 1.547v4.018h-1.092V6.202c0-.775-.126-1.358-.378-1.75-.252-.392-.71-.588-1.372-.588-.243 0-.478.049-.707.147a2.44 2.44 0 00-.623.385c-.187.159-.35.343-.49.553-.14.21-.243.432-.308.665v4.396h-1.078V5.46z"/><path id="*" fill="#DBAF88" d="M69.062.014l1.246 2.45L71.512 0l.966.518-1.694 2.366 2.842-.21v1.134l-2.758-.224 1.624 2.254-.938.546-1.302-2.506-1.232 2.506-1.008-.546 1.694-2.254-2.772.224V2.674l2.772.238L68.096.56z"/><path id="generateSequence" fill="#181717" d="M90.216 10.36c0 .439-.084.824-.252 1.155a2.269 2.269 0 01-.693.819 3.127 3.127 0 01-1.029.483 4.81 4.81 0 01-1.274.161c-.55 0-1.031-.056-1.442-.168a4.29 4.29 0 01-1.064-.434l.532-.994c.084.075.194.147.329.217s.292.135.469.196c.177.06.366.11.567.147.2.037.399.056.595.056.41 0 .754-.037 1.029-.112.275-.075.497-.191.665-.35.168-.159.29-.364.364-.616a3.29 3.29 0 00.112-.924v-.784h-.056a2.18 2.18 0 01-.826.714c-.336.168-.77.252-1.302.252-1.064 0-1.846-.296-2.345-.889-.5-.593-.749-1.514-.749-2.765 0-1.195.317-2.098.952-2.709.635-.611 1.577-.917 2.828-.917.579 0 1.071.04 1.477.119.406.08.777.18 1.113.301v7.042zm-3.122-1.12c.57 0 1.017-.147 1.344-.441.327-.294.555-.744.686-1.351V4.13c-.41-.196-.985-.294-1.722-.294-.747 0-1.335.22-1.764.658-.43.439-.644 1.11-.644 2.016 0 .401.037.768.112 1.099.075.331.194.618.357.861.163.243.378.432.644.567.266.135.595.203.987.203zm11.592-.112c-.168.15-.366.29-.595.42a4.39 4.39 0 01-.749.336c-.27.093-.553.166-.847.217-.294.051-.59.077-.889.077-.56 0-1.055-.086-1.484-.259a2.858 2.858 0 01-1.078-.742 3.234 3.234 0 01-.658-1.155 4.767 4.767 0 01-.224-1.512c0-.588.082-1.11.245-1.568.163-.457.399-.84.707-1.148a3.08 3.08 0 011.12-.707 4.187 4.187 0 011.47-.245c.392 0 .78.051 1.162.154.383.103.721.296 1.015.581.294.285.52.677.679 1.176.159.5.215 1.146.168 1.939H93.31c0 .84.226 1.468.679 1.883.453.415 1.057.623 1.813.623.252 0 .502-.03.749-.091.247-.06.483-.133.707-.217a3.72 3.72 0 00.595-.28c.173-.103.306-.196.399-.28l.434.798zm-2.954-5.362c-.308 0-.6.033-.875.098a1.995 1.995 0 00-.728.329c-.21.154-.383.355-.518.602s-.222.553-.259.917h4.354c-.047-.616-.245-1.094-.595-1.435-.35-.34-.81-.511-1.379-.511zm5.25 1.694a14.051 14.051 0 00-.063-1.176 4.657 4.657 0 00-.049-.364h-.938v-.91h1.876l.126 1.134h.07c.093-.159.217-.315.371-.469a2.91 2.91 0 011.225-.721c.252-.075.518-.112.798-.112.43 0 .81.047 1.141.14.331.093.607.259.826.497.22.238.385.56.497.966.112.406.168.922.168 1.547v4.018h-1.092V6.202c0-.775-.126-1.358-.378-1.75-.252-.392-.71-.588-1.372-.588-.243 0-.478.049-.707.147a2.44 2.44 0 00-.623.385c-.187.159-.35.343-.49.553-.14.21-.243.432-.308.665v4.396h-1.078V5.46zm14.504 3.668c-.168.15-.366.29-.595.42a4.39 4.39 0 01-.749.336c-.27.093-.553.166-.847.217-.294.051-.59.077-.889.077-.56 0-1.055-.086-1.484-.259a2.858 2.858 0 01-1.078-.742 3.234 3.234 0 01-.658-1.155 4.767 4.767 0 01-.224-1.512c0-.588.082-1.11.245-1.568.163-.457.399-.84.707-1.148a3.08 3.08 0 011.12-.707 4.187 4.187 0 011.47-.245c.392 0 .78.051 1.162.154.383.103.721.296 1.015.581.294.285.52.677.679 1.176.159.5.215 1.146.168 1.939h-5.418c0 .84.226 1.468.679 1.883.453.415 1.057.623 1.813.623.252 0 .502-.03.749-.091.247-.06.483-.133.707-.217a3.72 3.72 0 00.595-.28c.173-.103.306-.196.399-.28l.434.798zm-2.954-5.362c-.308 0-.6.033-.875.098a1.995 1.995 0 00-.728.329c-.21.154-.383.355-.518.602s-.222.553-.259.917h4.354c-.047-.616-.245-1.094-.595-1.435-.35-.34-.81-.511-1.379-.511zm4.872 6.244v-.938h1.89V3.948h-1.89V3.01h2.618l.224.91h.07c.317-.29.672-.537 1.064-.742.392-.205.859-.308 1.4-.308.317 0 .572.06.763.182.191.121.34.299.448.532.107.233.18.516.217.847.037.331.056.707.056 1.127l-.98.014c0-.597-.058-1.036-.175-1.316-.117-.28-.329-.42-.637-.42-.29 0-.55.042-.784.126a2.565 2.565 0 00-.609.308c-.173.121-.32.243-.441.364s-.21.224-.266.308v4.13h2.688v.938h-5.656zm8.988-6.454a4.447 4.447 0 011.358-.504 7.423 7.423 0 011.484-.154c.476 0 .866.075 1.169.224.303.15.541.343.714.581.173.238.29.509.35.812.06.303.091.609.091.917 0 .355-.01.733-.028 1.134-.019.401-.033.803-.042 1.204 0 .467.028.91.084 1.33h.938v.91h-1.862l-.126-1.05h-.07c-.056.084-.14.191-.252.322-.112.13-.259.259-.441.385a2.749 2.749 0 01-1.589.469c-.69 0-1.237-.177-1.638-.532-.401-.355-.602-.84-.602-1.456 0-.476.105-.873.315-1.19.21-.317.511-.56.903-.728.392-.168.866-.266 1.421-.294a9.544 9.544 0 011.869.112c.047-.43.054-.786.021-1.071-.033-.285-.107-.511-.224-.679a.938.938 0 00-.49-.357 2.482 2.482 0 00-.777-.105c-.42 0-.821.058-1.204.175-.383.117-.723.236-1.022.357l-.35-.812zm2.058 5.642c.261 0 .504-.042.728-.126a2.22 2.22 0 00.588-.322 2.133 2.133 0 00.672-.868v-.98a7.92 7.92 0 00-1.344-.126c-.41 0-.765.044-1.064.133-.299.089-.532.226-.7.413-.168.187-.252.43-.252.728 0 .308.105.576.315.805.21.229.562.343 1.057.343zm5.264-6.188h1.666V1.624l1.092-.308V3.01h3.738v.938h-3.738v3.304c0 .681.166 1.185.497 1.512.331.327.805.49 1.421.49.42 0 .786-.08 1.099-.238.313-.159.595-.331.847-.518l.364.826a3.938 3.938 0 01-1.169.63 4.182 4.182 0 01-1.393.238 3.41 3.41 0 01-1.057-.161 2.426 2.426 0 01-.875-.497 2.38 2.38 0 01-.602-.861c-.15-.35-.224-.768-.224-1.253V3.948h-1.666V3.01zm15.372 6.118c-.168.15-.366.29-.595.42a4.39 4.39 0 01-.749.336c-.27.093-.553.166-.847.217-.294.051-.59.077-.889.077-.56 0-1.055-.086-1.484-.259a2.858 2.858 0 01-1.078-.742 3.234 3.234 0 01-.658-1.155 4.767 4.767 0 01-.224-1.512c0-.588.082-1.11.245-1.568.163-.457.399-.84.707-1.148a3.08 3.08 0 011.12-.707 4.187 4.187 0 011.47-.245c.392 0 .78.051 1.162.154.383.103.721.296 1.015.581.294.285.52.677.679 1.176.159.5.215 1.146.168 1.939h-5.418c0 .84.226 1.468.679 1.883.453.415 1.057.623 1.813.623.252 0 .502-.03.749-.091.247-.06.483-.133.707-.217a3.72 3.72 0 00.595-.28c.173-.103.306-.196.399-.28l.434.798zm-2.954-5.362c-.308 0-.6.033-.875.098a1.995 1.995 0 00-.728.329c-.21.154-.383.355-.518.602s-.222.553-.259.917h4.354c-.047-.616-.245-1.094-.595-1.435-.35-.34-.81-.511-1.379-.511zm6.048 4.858c.28.15.595.273.945.371.35.098.702.147 1.057.147.308 0 .597-.03.868-.091.27-.06.506-.159.707-.294.2-.135.36-.306.476-.511a1.45 1.45 0 00.175-.728c0-.383-.128-.695-.385-.938a3.824 3.824 0 00-.959-.644 17.73 17.73 0 00-1.246-.546 7.417 7.417 0 01-1.246-.63 3.498 3.498 0 01-.959-.889c-.257-.35-.385-.796-.385-1.337 0-.383.077-.728.231-1.036a2.24 2.24 0 01.651-.784c.28-.215.618-.38 1.015-.497a4.68 4.68 0 011.323-.175c.56 0 1.069.04 1.526.119.457.08.821.184 1.092.315l.028-.014V.49h.014l-.014.042v2.24h-1.036V1.274a7.635 7.635 0 00-.77-.14 6.788 6.788 0 00-.896-.056c-.308 0-.586.037-.833.112a2.08 2.08 0 00-.63.301 1.37 1.37 0 00-.399.441 1.08 1.08 0 00-.14.532c0 .364.128.667.385.91s.576.46.959.651.798.38 1.246.567c.448.187.863.404 1.246.651s.702.544.959.889.385.775.385 1.288c0 .42-.077.798-.231 1.134a2.494 2.494 0 01-.658.868 2.97 2.97 0 01-1.05.56c-.415.13-.884.196-1.407.196-.355 0-.69-.028-1.008-.084a6.883 6.883 0 01-1.589-.476 7.642 7.642 0 01-.497-.238l.014-.042V7.07h1.036v1.554zm13.706.504c-.168.15-.366.29-.595.42a4.39 4.39 0 01-.749.336c-.27.093-.553.166-.847.217-.294.051-.59.077-.889.077-.56 0-1.055-.086-1.484-.259a2.858 2.858 0 01-1.078-.742 3.234 3.234 0 01-.658-1.155 4.767 4.767 0 01-.224-1.512c0-.588.082-1.11.245-1.568.163-.457.399-.84.707-1.148a3.08 3.08 0 011.12-.707 4.187 4.187 0 011.47-.245c.392 0 .78.051 1.162.154.383.103.721.296 1.015.581.294.285.52.677.679 1.176.159.5.215 1.146.168 1.939h-5.418c0 .84.226 1.468.679 1.883.453.415 1.057.623 1.813.623.252 0 .502-.03.749-.091.247-.06.483-.133.707-.217a3.72 3.72 0 00.595-.28c.173-.103.306-.196.399-.28l.434.798zm-2.954-5.362c-.308 0-.6.033-.875.098a1.995 1.995 0 00-.728.329c-.21.154-.383.355-.518.602s-.222.553-.259.917h4.354c-.047-.616-.245-1.094-.595-1.435-.35-.34-.81-.511-1.379-.511zm11.158 9.044h-1.092V9.226h-.056c-.215.308-.49.544-.826.707-.336.163-.77.245-1.302.245-1.064 0-1.846-.296-2.345-.889-.5-.593-.749-1.514-.749-2.765 0-1.195.317-2.098.952-2.709.635-.611 1.577-.917 2.828-.917.55 0 1.064.047 1.54.14.476.093.826.191 1.05.294v9.478zm-3.108-3.57c1.11 0 1.783-.583 2.016-1.75V4.116a2.435 2.435 0 00-.735-.217 6.723 6.723 0 00-.973-.063c-.747 0-1.335.215-1.764.644-.43.43-.644 1.106-.644 2.03 0 .401.035.768.105 1.099.07.331.189.618.357.861.168.243.385.432.651.567.266.135.595.203.987.203zm9.38-6.23h1.988v4.774c0 .457.028.896.084 1.316h.938v.91h-1.862l-.042-1.19h-.056a2.938 2.938 0 01-.966.98c-.401.252-.887.378-1.456.378-.43 0-.796-.049-1.099-.147a1.556 1.556 0 01-.749-.511c-.196-.243-.34-.567-.434-.973-.093-.406-.14-.912-.14-1.519v-3.08h-.938V3.01h2.03v3.794c0 .383.016.726.049 1.029.033.303.1.56.203.77.103.21.254.369.455.476.2.107.469.161.805.161.485 0 .908-.159 1.267-.476.36-.317.632-.714.819-1.19V3.948h-.896V3.01zm10.724 6.118c-.168.15-.366.29-.595.42a4.39 4.39 0 01-.749.336c-.27.093-.553.166-.847.217-.294.051-.59.077-.889.077-.56 0-1.055-.086-1.484-.259a2.858 2.858 0 01-1.078-.742 3.234 3.234 0 01-.658-1.155 4.767 4.767 0 01-.224-1.512c0-.588.082-1.11.245-1.568.163-.457.399-.84.707-1.148a3.08 3.08 0 011.12-.707 4.187 4.187 0 011.47-.245c.392 0 .78.051 1.162.154.383.103.721.296 1.015.581.294.285.52.677.679 1.176.159.5.215 1.146.168 1.939h-5.418c0 .84.226 1.468.679 1.883.453.415 1.057.623 1.813.623.252 0 .502-.03.749-.091.247-.06.483-.133.707-.217a3.72 3.72 0 00.595-.28c.173-.103.306-.196.399-.28l.434.798zm-2.954-5.362c-.308 0-.6.033-.875.098a1.995 1.995 0 00-.728.329c-.21.154-.383.355-.518.602s-.222.553-.259.917h4.354c-.047-.616-.245-1.094-.595-1.435-.35-.34-.81-.511-1.379-.511zm5.25 1.694a14.051 14.051 0 00-.063-1.176 4.657 4.657 0 00-.049-.364h-.938v-.91h1.876l.126 1.134h.07c.093-.159.217-.315.371-.469A2.91 2.91 0 01196 2.954c.252-.075.518-.112.798-.112.43 0 .81.047 1.141.14.331.093.607.259.826.497.22.238.385.56.497.966.112.406.168.922.168 1.547v4.018h-1.092V6.202c0-.775-.126-1.358-.378-1.75-.252-.392-.71-.588-1.372-.588-.243 0-.478.049-.707.147a2.44 2.44 0 00-.623.385c-.187.159-.35.343-.49.553-.14.21-.243.432-.308.665v4.396h-1.078V5.46zm13.244-1.372a5.531 5.531 0 00-.693-.189 3.61 3.61 0 00-.735-.077c-.915 0-1.596.215-2.044.644-.448.43-.672 1.11-.672 2.044 0 .41.065.777.196 1.099.13.322.317.595.56.819.243.224.534.397.875.518.34.121.716.182 1.127.182.439 0 .866-.075 1.281-.224.415-.15.763-.345 1.043-.588l.49.812c-.13.112-.294.229-.49.35a4.837 4.837 0 01-1.533.602 4.962 4.962 0 01-1.015.098c-.607 0-1.141-.086-1.603-.259a3.045 3.045 0 01-1.155-.742 3.176 3.176 0 01-.7-1.162 4.525 4.525 0 01-.238-1.505c0-.588.082-1.11.245-1.568.163-.457.399-.84.707-1.148a3.08 3.08 0 011.12-.707 4.187 4.187 0 011.47-.245c.69 0 1.253.06 1.687.182.434.121.8.257 1.099.406l-.014.042v1.946h-1.008v-1.33zm9.66 5.04c-.168.15-.366.29-.595.42a4.39 4.39 0 01-.749.336c-.27.093-.553.166-.847.217-.294.051-.59.077-.889.077-.56 0-1.055-.086-1.484-.259a2.858 2.858 0 01-1.078-.742 3.234 3.234 0 01-.658-1.155 4.767 4.767 0 01-.224-1.512c0-.588.082-1.11.245-1.568.163-.457.399-.84.707-1.148a3.08 3.08 0 011.12-.707 4.187 4.187 0 011.47-.245c.392 0 .78.051 1.162.154.383.103.721.296 1.015.581.294.285.52.677.679 1.176.159.5.215 1.146.168 1.939h-5.418c0 .84.226 1.468.679 1.883.453.415 1.057.623 1.813.623.252 0 .502-.03.749-.091.247-.06.483-.133.707-.217a3.72 3.72 0 00.595-.28c.173-.103.306-.196.399-.28l.434.798zm-2.954-5.362c-.308 0-.6.033-.875.098a1.995 1.995 0 00-.728.329c-.21.154-.383.355-.518.602s-.222.553-.259.917h4.354c-.047-.616-.245-1.094-.595-1.435-.35-.34-.81-.511-1.379-.511z"/><path id="(){" fill="#7E7C7B" d="M223.328 12.978a6.964 6.964 0 01-1.757-.707 5.036 5.036 0 01-1.428-1.225c-.406-.504-.728-1.12-.966-1.848s-.357-1.591-.357-2.59c0-.99.121-1.855.364-2.597s.57-1.372.98-1.89c.41-.518.889-.933 1.435-1.246a6.005 6.005 0 011.729-.665l.35.882a7.086 7.086 0 00-1.512.623 3.928 3.928 0 00-1.183 1.022c-.331.425-.588.952-.77 1.582-.182.63-.273 1.393-.273 2.289 0 .905.11 1.678.329 2.317.22.64.509 1.171.868 1.596.36.425.76.756 1.204.994.443.238.889.404 1.337.497l-.35.966zm4.354-.966a4.965 4.965 0 001.337-.497 4.15 4.15 0 001.204-.994c.36-.425.649-.957.868-1.596.22-.64.329-1.412.329-2.317 0-.896-.091-1.659-.273-2.289-.182-.63-.439-1.157-.77-1.582a3.928 3.928 0 00-1.183-1.022 7.086 7.086 0 00-1.512-.623l.35-.882c.607.13 1.183.352 1.729.665a4.984 4.984 0 011.435 1.246c.41.518.737 1.148.98 1.89s.364 1.608.364 2.597c0 .999-.119 1.862-.357 2.59-.238.728-.56 1.344-.966 1.848a5.036 5.036 0 01-1.428 1.225 6.964 6.964 0 01-1.757.707l-.35-.966zm17.878-2.45c0-.401-.068-.749-.203-1.043a2.44 2.44 0 00-.504-.735c-.2-.196-.415-.34-.644-.434a1.641 1.641 0 00-.609-.14v-.98c.177 0 .38-.04.609-.119.229-.08.443-.21.644-.392.2-.182.369-.418.504-.707.135-.29.203-.649.203-1.078V2.506c0-.336.054-.644.161-.924a2.22 2.22 0 01.448-.728c.191-.205.42-.366.686-.483.266-.117.558-.175.875-.175h2.03v.98h-1.54c-.588 0-.996.14-1.225.42-.229.28-.343.695-.343 1.246V4.2c0 .383-.07.723-.21 1.022a2.7 2.7 0 01-1.106 1.225c-.205.117-.373.184-.504.203v.084c.121.019.285.091.49.217.205.126.406.299.602.518.196.22.366.478.511.777.145.299.217.63.217.994v1.344c0 .57.121.99.364 1.26s.649.406 1.218.406h1.526v.98h-2.03c-.653 0-1.178-.194-1.575-.581-.397-.387-.595-.959-.595-1.715V9.562z"/><path id="yield" fill="#1C85B5" d="M20.034 25.932h.532l1.736-5.922h1.134l-1.946 6.286c-.103.327-.208.698-.315 1.113a5.2 5.2 0 01-.455 1.169 2.807 2.807 0 01-.798.924c-.336.252-.775.378-1.316.378-.121 0-.25-.014-.385-.042a3.856 3.856 0 01-.399-.105 2.574 2.574 0 01-.364-.147.977.977 0 01-.252-.168l.392-1.008c.056.047.133.093.231.14.098.047.205.086.322.119.117.033.231.06.343.084.112.023.205.035.28.035.7 0 1.176-.593 1.428-1.778h-.938l-2.94-7h1.26l2.45 5.922zm5.516 1.078v-.938h2.436v-5.124H25.55v-.938h3.556v6.062h2.38v.938H25.55zm2.058-8.988c0-.252.084-.469.252-.651a.838.838 0 01.644-.273c.27 0 .497.091.679.273a.889.889 0 01.273.651.806.806 0 01-.273.616.963.963 0 01-.679.252.872.872 0 01-.644-.252.838.838 0 01-.252-.616zm12.278 8.106c-.168.15-.366.29-.595.42a4.39 4.39 0 01-.749.336c-.27.093-.553.166-.847.217-.294.051-.59.077-.889.077-.56 0-1.055-.086-1.484-.259a2.858 2.858 0 01-1.078-.742 3.234 3.234 0 01-.658-1.155 4.767 4.767 0 01-.224-1.512c0-.588.082-1.11.245-1.568.163-.457.399-.84.707-1.148a3.08 3.08 0 011.12-.707 4.187 4.187 0 011.47-.245c.392 0 .78.051 1.162.154.383.103.721.296 1.015.581.294.285.52.677.679 1.176.159.5.215 1.146.168 1.939H34.51c0 .84.226 1.468.679 1.883.453.415 1.057.623 1.813.623.252 0 .502-.03.749-.091.247-.06.483-.133.707-.217a3.72 3.72 0 00.595-.28c.173-.103.306-.196.399-.28l.434.798zm-2.954-5.362c-.308 0-.6.033-.875.098a1.995 1.995 0 00-.728.329c-.21.154-.383.355-.518.602s-.222.553-.259.917h4.354c-.047-.616-.245-1.094-.595-1.435-.35-.34-.81-.511-1.379-.511zm5.614-3.556h2.324v7.448c0 .57.096.97.287 1.204.191.233.474.35.847.35.261 0 .511-.047.749-.14.238-.093.502-.252.791-.476l.504.77c-.15.13-.313.247-.49.35a3.638 3.638 0 01-1.106.42 2.963 2.963 0 01-1.442-.077 1.579 1.579 0 01-.679-.427 1.897 1.897 0 01-.413-.777c-.093-.322-.14-.721-.14-1.197v-6.51h-1.232v-.938zm11.62 0h2.268v7.406c0 .084.005.189.014.315a15.6 15.6 0 00.084.812c.019.135.037.254.056.357h.938v.91h-1.862l-.14-1.078h-.056c-.205.355-.511.651-.917.889s-.875.357-1.407.357c-1.055 0-1.832-.296-2.331-.889-.5-.593-.749-1.514-.749-2.765 0-.588.084-1.108.252-1.561.168-.453.408-.83.721-1.134a3.118 3.118 0 011.127-.693 4.298 4.298 0 011.47-.238c.196 0 .371.005.525.014.154.01.296.023.427.042.13.019.254.044.371.077.117.033.245.068.385.105v-1.988h-1.176v-.938zm-.84 9.03c.57 0 1.017-.147 1.344-.441.327-.294.55-.735.672-1.323v-3.248a2.168 2.168 0 00-.693-.308c-.257-.065-.595-.098-1.015-.098-.747 0-1.335.217-1.764.651-.43.434-.644 1.118-.644 2.051 0 .383.035.74.105 1.071.07.331.187.618.35.861.163.243.38.434.651.574.27.14.602.21.994.21z"/><path id="1" fill="#A7333A" d="M67.858 26.002h2.198v-7.364l-2.24 1.568-.546-.798 3.08-2.198h.784v8.792h2.156v1.008h-5.432z"/><path id=";" fill="#7E7C7B" d="M77.686 26.24c0-.28.091-.506.273-.679.182-.173.418-.259.707-.259.355 0 .63.124.826.371.196.247.294.595.294 1.043a2.36 2.36 0 01-.637 1.659 2.465 2.465 0 01-.588.462c-.21.117-.404.203-.581.259l-.35-.546c.336-.13.625-.317.868-.56.243-.243.364-.537.364-.882-.13.028-.233.042-.308.042-.27 0-.483-.077-.637-.231-.154-.154-.231-.38-.231-.679zm.126-5.502c0-.299.084-.53.252-.693.168-.163.392-.245.672-.245.299 0 .532.082.7.245.168.163.252.394.252.693 0 .27-.084.495-.252.672-.168.177-.401.266-.7.266-.28 0-.504-.089-.672-.266a.938.938 0 01-.252-.672z"/><path id="yield" fill="#1C85B5" d="M20.034 42.932h.532l1.736-5.922h1.134l-1.946 6.286c-.103.327-.208.698-.315 1.113a5.2 5.2 0 01-.455 1.169 2.807 2.807 0 01-.798.924c-.336.252-.775.378-1.316.378-.121 0-.25-.014-.385-.042a3.856 3.856 0 01-.399-.105 2.574 2.574 0 01-.364-.147.977.977 0 01-.252-.168l.392-1.008c.056.047.133.093.231.14.098.047.205.086.322.119.117.033.231.06.343.084.112.023.205.035.28.035.7 0 1.176-.593 1.428-1.778h-.938l-2.94-7h1.26l2.45 5.922zm5.516 1.078v-.938h2.436v-5.124H25.55v-.938h3.556v6.062h2.38v.938H25.55zm2.058-8.988c0-.252.084-.469.252-.651a.838.838 0 01.644-.273c.27 0 .497.091.679.273a.889.889 0 01.273.651.806.806 0 01-.273.616.963.963 0 01-.679.252.872.872 0 01-.644-.252.838.838 0 01-.252-.616zm12.278 8.106c-.168.15-.366.29-.595.42a4.39 4.39 0 01-.749.336c-.27.093-.553.166-.847.217-.294.051-.59.077-.889.077-.56 0-1.055-.086-1.484-.259a2.858 2.858 0 01-1.078-.742 3.234 3.234 0 01-.658-1.155 4.767 4.767 0 01-.224-1.512c0-.588.082-1.11.245-1.568.163-.457.399-.84.707-1.148a3.08 3.08 0 011.12-.707 4.187 4.187 0 011.47-.245c.392 0 .78.051 1.162.154.383.103.721.296 1.015.581.294.285.52.677.679 1.176.159.5.215 1.146.168 1.939H34.51c0 .84.226 1.468.679 1.883.453.415 1.057.623 1.813.623.252 0 .502-.03.749-.091.247-.06.483-.133.707-.217a3.72 3.72 0 00.595-.28c.173-.103.306-.196.399-.28l.434.798zm-2.954-5.362c-.308 0-.6.033-.875.098a1.995 1.995 0 00-.728.329c-.21.154-.383.355-.518.602s-.222.553-.259.917h4.354c-.047-.616-.245-1.094-.595-1.435-.35-.34-.81-.511-1.379-.511zm5.614-3.556h2.324v7.448c0 .57.096.97.287 1.204.191.233.474.35.847.35.261 0 .511-.047.749-.14.238-.093.502-.252.791-.476l.504.77c-.15.13-.313.247-.49.35a3.638 3.638 0 01-1.106.42 2.963 2.963 0 01-1.442-.077 1.579 1.579 0 01-.679-.427 1.897 1.897 0 01-.413-.777c-.093-.322-.14-.721-.14-1.197v-6.51h-1.232v-.938zm11.62 0h2.268v7.406c0 .084.005.189.014.315a15.6 15.6 0 00.084.812c.019.135.037.254.056.357h.938v.91h-1.862l-.14-1.078h-.056c-.205.355-.511.651-.917.889s-.875.357-1.407.357c-1.055 0-1.832-.296-2.331-.889-.5-.593-.749-1.514-.749-2.765 0-.588.084-1.108.252-1.561.168-.453.408-.83.721-1.134a3.118 3.118 0 011.127-.693 4.298 4.298 0 011.47-.238c.196 0 .371.005.525.014.154.01.296.023.427.042.13.019.254.044.371.077.117.033.245.068.385.105v-1.988h-1.176v-.938zm-.84 9.03c.57 0 1.017-.147 1.344-.441.327-.294.55-.735.672-1.323v-3.248a2.168 2.168 0 00-.693-.308c-.257-.065-.595-.098-1.015-.098-.747 0-1.335.217-1.764.651-.43.434-.644 1.118-.644 2.051 0 .383.035.74.105 1.071.07.331.187.618.35.861.163.243.38.434.651.574.27.14.602.21.994.21z"/><path id="2" fill="#A7333A" d="M73.08 36.688c0 .859-.406 1.815-1.218 2.87-.812 1.055-1.946 2.203-3.402 3.444h4.928v1.008h-6.216v-1.008c.177-.168.42-.387.728-.658.308-.27.64-.572.994-.903a29.01 29.01 0 001.085-1.071c.369-.383.702-.775 1.001-1.176.299-.401.541-.803.728-1.204a2.75 2.75 0 00.28-1.162c0-.56-.147-1.001-.441-1.323-.294-.322-.735-.483-1.323-.483-.504 0-.929.056-1.274.168a3.101 3.101 0 00-.938.49l-.476-.77c.42-.299.866-.518 1.337-.658s.987-.21 1.547-.21c.877 0 1.54.238 1.988.714.448.476.672 1.12.672 1.932z"/><path id=";" fill="#7E7C7B" d="M77.686 43.24c0-.28.091-.506.273-.679.182-.173.418-.259.707-.259.355 0 .63.124.826.371.196.247.294.595.294 1.043a2.36 2.36 0 01-.637 1.659 2.465 2.465 0 01-.588.462c-.21.117-.404.203-.581.259l-.35-.546c.336-.13.625-.317.868-.56.243-.243.364-.537.364-.882-.13.028-.233.042-.308.042-.27 0-.483-.077-.637-.231-.154-.154-.231-.38-.231-.679zm.126-5.502c0-.299.084-.53.252-.693.168-.163.392-.245.672-.245.299 0 .532.082.7.245.168.163.252.394.252.693 0 .27-.084.495-.252.672-.168.177-.401.266-.7.266-.28 0-.504-.089-.672-.266a.938.938 0 01-.252-.672z"/><path id="return" fill="#1C85B5" d="M16.604 61.01v-.938h1.89v-5.124h-1.89v-.938h2.618l.224.91h.07c.317-.29.672-.537 1.064-.742.392-.205.859-.308 1.4-.308.317 0 .572.06.763.182.191.121.34.299.448.532.107.233.18.516.217.847.037.331.056.707.056 1.127l-.98.014c0-.597-.058-1.036-.175-1.316-.117-.28-.329-.42-.637-.42-.29 0-.55.042-.784.126a2.565 2.565 0 00-.609.308c-.173.121-.32.243-.441.364s-.21.224-.266.308v4.13h2.688v.938h-5.656zm14.882-.882c-.168.15-.366.29-.595.42a4.39 4.39 0 01-.749.336c-.27.093-.553.166-.847.217-.294.051-.59.077-.889.077-.56 0-1.055-.086-1.484-.259a2.858 2.858 0 01-1.078-.742 3.234 3.234 0 01-.658-1.155 4.767 4.767 0 01-.224-1.512c0-.588.082-1.11.245-1.568.163-.457.399-.84.707-1.148a3.08 3.08 0 011.12-.707 4.187 4.187 0 011.47-.245c.392 0 .78.051 1.162.154.383.103.721.296 1.015.581.294.285.52.677.679 1.176.159.5.215 1.146.168 1.939H26.11c0 .84.226 1.468.679 1.883.453.415 1.057.623 1.813.623.252 0 .502-.03.749-.091.247-.06.483-.133.707-.217a3.72 3.72 0 00.595-.28c.173-.103.306-.196.399-.28l.434.798zm-2.954-5.362c-.308 0-.6.033-.875.098a1.995 1.995 0 00-.728.329c-.21.154-.383.355-.518.602s-.222.553-.259.917h4.354c-.047-.616-.245-1.094-.595-1.435-.35-.34-.81-.511-1.379-.511zm4.382-.756h1.666v-1.386l1.092-.308v1.694h3.738v.938h-3.738v3.304c0 .681.166 1.185.497 1.512.331.327.805.49 1.421.49.42 0 .786-.08 1.099-.238.313-.159.595-.331.847-.518l.364.826a3.938 3.938 0 01-1.169.63 4.182 4.182 0 01-1.393.238 3.41 3.41 0 01-1.057-.161 2.426 2.426 0 01-.875-.497 2.38 2.38 0 01-.602-.861c-.15-.35-.224-.768-.224-1.253v-3.472h-1.666v-.938zm13.048 0h1.988v4.774c0 .457.028.896.084 1.316h.938v.91H47.11l-.042-1.19h-.056a2.938 2.938 0 01-.966.98c-.401.252-.887.378-1.456.378-.43 0-.796-.049-1.099-.147a1.556 1.556 0 01-.749-.511c-.196-.243-.34-.567-.434-.973-.093-.406-.14-.912-.14-1.519v-3.08h-.938v-.938h2.03v3.794c0 .383.016.726.049 1.029.033.303.1.56.203.77.103.21.254.369.455.476.2.107.469.161.805.161.485 0 .908-.159 1.267-.476.36-.317.632-.714.819-1.19v-3.626h-.896v-.938zm4.242 7v-.938h1.89v-5.124h-1.89v-.938h2.618l.224.91h.07c.317-.29.672-.537 1.064-.742.392-.205.859-.308 1.4-.308.317 0 .572.06.763.182.191.121.34.299.448.532.107.233.18.516.217.847.037.331.056.707.056 1.127l-.98.014c0-.597-.058-1.036-.175-1.316-.117-.28-.329-.42-.637-.42-.29 0-.55.042-.784.126a2.565 2.565 0 00-.609.308c-.173.121-.32.243-.441.364s-.21.224-.266.308v4.13h2.688v.938h-5.656zm8.778-4.55a14.05 14.05 0 00-.063-1.176 4.657 4.657 0 00-.049-.364h-.938v-.91h1.876l.126 1.134h.07c.093-.159.217-.315.371-.469a2.91 2.91 0 011.225-.721c.252-.075.518-.112.798-.112.43 0 .81.047 1.141.14.331.093.607.259.826.497.22.238.385.56.497.966.112.406.168.922.168 1.547v4.018h-1.092v-3.808c0-.775-.126-1.358-.378-1.75-.252-.392-.71-.588-1.372-.588-.243 0-.478.049-.707.147a2.44 2.44 0 00-.623.385c-.187.159-.35.343-.49.553-.14.21-.243.432-.308.665v4.396h-1.078v-4.55z"/><path id="3" fill="#A7333A" d="M77.952 60.212c.373 0 .716-.049 1.029-.147a2.65 2.65 0 00.819-.413 1.9 1.9 0 00.546-.644c.13-.252.196-.532.196-.84 0-.644-.226-1.104-.679-1.379-.453-.275-1.062-.413-1.827-.413h-.896v-.672l2.758-3.486h-4.186V51.21h5.53v1.008l-2.758 3.234h.224c.43 0 .821.06 1.176.182.355.121.663.294.924.518.261.224.464.495.609.812.145.317.217.677.217 1.078 0 .504-.098.952-.294 1.344a2.89 2.89 0 01-.798.987c-.336.266-.73.467-1.183.602a5.034 5.034 0 01-1.449.203c-.476 0-.889-.035-1.239-.105-.35-.07-.67-.156-.959-.259l.28-.98c.243.112.527.203.854.273a5.3 5.3 0 001.106.105z"/><path id=";}" fill="#7E7C7B" d="M86.086 60.24c0-.28.091-.506.273-.679.182-.173.418-.259.707-.259.355 0 .63.124.826.371.196.247.294.595.294 1.043a2.36 2.36 0 01-.637 1.659 2.465 2.465 0 01-.588.462c-.21.117-.404.203-.581.259l-.35-.546c.336-.13.625-.317.868-.56.243-.243.364-.537.364-.882-.13.028-.233.042-.308.042-.27 0-.483-.077-.637-.231-.154-.154-.231-.38-.231-.679zm.126-5.502c0-.299.084-.53.252-.693.168-.163.392-.245.672-.245.299 0 .532.082.7.245.168.163.252.394.252.693 0 .27-.084.495-.252.672-.168.177-.401.266-.7.266-.28 0-.504-.089-.672-.266a.938.938 0 01-.252-.672zM4.2 78.934c0 .756-.198 1.328-.595 1.715-.397.387-.922.581-1.575.581H0v-.98h1.526c.57 0 .975-.135 1.218-.406.243-.27.364-.69.364-1.26V77.24c0-.364.07-.695.21-.994.14-.299.308-.558.504-.777.196-.22.397-.392.602-.518.205-.126.373-.198.504-.217v-.084c-.13-.019-.299-.086-.504-.203a2.7 2.7 0 01-1.106-1.225c-.14-.299-.21-.64-.21-1.022v-1.358c0-.55-.114-.966-.343-1.246-.229-.28-.637-.42-1.225-.42H0v-.98h2.03c.317 0 .609.058.875.175.266.117.495.278.686.483.191.205.34.448.448.728.107.28.161.588.161.924v1.428c0 .43.068.789.203 1.078.135.29.303.525.504.707.2.182.415.313.644.392.229.08.432.119.609.119v.98c-.177 0-.38.047-.609.14a2.011 2.011 0 00-.644.434 2.44 2.44 0 00-.504.735c-.135.294-.203.642-.203 1.043v1.372z"/></g><path id="Line" fill="#C06334" fill-rule="nonzero" d="M286.5 42.5v6h32v2h-32v6l-14-7 14-7z" transform="matrix(-1 0 0 1 590 0)"/><text id="{value:-1,-done:-fal" fill="#AF6E24" font-family="PTMono-Regular, PT Mono" font-size="14" font-weight="normal"><tspan x="326" y="54">{value: 1, done: false}</tspan></text></g></g></svg>