<?xml version="1.0" encoding="UTF-8"?>
<svg width="442px" height="305px" viewBox="0 0 442 305" version="1.1" xmlns="http://www.w3.org/2000/svg" xmlns:xlink="http://www.w3.org/1999/xlink">
    <!-- Generator: sketchtool 55.2 (78181) - https://sketchapp.com -->
    <title>genYield2-2.svg</title>
    <desc>Created with sketchtool.</desc>
    <g id="generator" stroke="none" stroke-width="1" fill="none" fill-rule="evenodd">
        <g id="genYield2-2.svg">
            <rect id="Rectangle-1" stroke="#E8C48E" stroke-width="2" fill="#FFF9EB" x="31" y="34" width="262" height="239"></rect>
            <g id="function*-gen()-{-le" transform="translate(52.120000, 51.990000)" fill-rule="nonzero">
                <path d="M0.112,10.01 L0.112,9.072 L1.778,9.072 L1.778,3.948 L0.112,3.948 L0.112,3.01 L1.778,3.01 L1.778,2.618 C1.778,1.74066228 2.00666438,1.10600196 2.464,0.714 C2.92133562,0.32199804 3.57466242,0.126 4.424,0.126 C4.73200154,0.126 5.00733212,0.14466648 5.25,0.182 C5.49266788,0.21933352 5.7539986,0.29399944 6.034,0.406 L5.782,1.316 C5.53933212,1.21333282 5.30600112,1.14566683 5.082,1.113 C4.85799888,1.08033317 4.6526676,1.064 4.466,1.064 C3.84999692,1.064 3.43000112,1.21566515 3.206,1.519 C2.98199888,1.82233485 2.87,2.31932988 2.87,3.01 L5.768,3.01 L5.768,3.948 L2.87,3.948 L2.87,9.072 L5.768,9.072 L5.768,10.01 L0.112,10.01 Z M12.362,3.01 L14.35,3.01 L14.35,7.784 C14.35,8.24133562 14.3779997,8.6799979 14.434,9.1 L15.372,9.1 L15.372,10.01 L13.51,10.01 L13.468,8.82 L13.412,8.82 C13.1693321,9.22133534 12.8473353,9.54799874 12.446,9.8 C12.0446647,10.0520013 11.5593362,10.178 10.99,10.178 C10.5606645,10.178 10.1943349,10.1290005 9.891,10.031 C9.58766515,9.93299951 9.33800098,9.76266788 9.142,9.52 C8.94599902,9.27733212 8.8013338,8.95300203 8.708,8.547 C8.6146662,8.14099797 8.568,7.6346697 8.568,7.028 L8.568,3.948 L7.63,3.948 L7.63,3.01 L9.66,3.01 L9.66,6.804 C9.66,7.18666858 9.67633317,7.52966515 9.709,7.833 C9.74166683,8.13633485 9.80933282,8.39299895 9.912,8.603 C10.0146672,8.81300105 10.1663323,8.97166613 10.367,9.079 C10.5676677,9.18633387 10.8359983,9.24 11.172,9.24 C11.6573358,9.24 12.0796649,9.08133492 12.439,8.764 C12.7983351,8.44666508 13.0713324,8.05000238 13.258,7.574 L13.258,3.948 L12.362,3.948 L12.362,3.01 Z M16.982,5.46 C16.982,5.37599958 16.9796667,5.26633401 16.975,5.131 C16.9703333,4.99566599 16.9633334,4.85566739 16.954,4.711 C16.9446666,4.56633261 16.9330001,4.4240007 16.919,4.284 C16.9049999,4.1439993 16.8886668,4.02266718 16.87,3.92 L15.932,3.92 L15.932,3.01 L17.808,3.01 L17.934,4.144 L18.004,4.144 C18.0973338,3.98533254 18.2209992,3.82900077 18.375,3.675 C18.5290008,3.52099923 18.7086656,3.38100063 18.914,3.255 C19.1193344,3.12899937 19.3479987,3.02866704 19.6,2.954 C19.8520013,2.87933296 20.1179986,2.842 20.398,2.842 C20.8273355,2.842 21.207665,2.8886662 21.539,2.982 C21.870335,3.0753338 22.1456656,3.24099881 22.365,3.479 C22.5843344,3.71700119 22.7499994,4.03899797 22.862,4.445 C22.9740006,4.85100203 23.03,5.36666354 23.03,5.992 L23.03,10.01 L21.938,10.01 L21.938,6.202 C21.938,5.42732946 21.8120013,4.84400196 21.56,4.452 C21.3079987,4.05999804 20.85067,3.864 20.188,3.864 C19.9453321,3.864 19.7096678,3.91299951 19.481,4.011 C19.2523322,4.10900049 19.0446676,4.23733254 18.858,4.396 C18.6713324,4.55466746 18.5080007,4.73899895 18.368,4.949 C18.2279993,5.15900105 18.1253337,5.3806655 18.06,5.614 L18.06,10.01 L16.982,10.01 L16.982,5.46 Z M30.226,4.088 C30.0113323,4.01333296 29.7803346,3.95033359 29.533,3.899 C29.2856654,3.84766641 29.0406679,3.822 28.798,3.822 C27.8833288,3.822 27.2020022,4.03666452 26.754,4.466 C26.3059978,4.89533548 26.082,5.576662 26.082,6.51 C26.082,6.92066872 26.1473327,7.28699839 26.278,7.609 C26.4086673,7.93100161 26.5953321,8.20399888 26.838,8.428 C27.0806679,8.65200112 27.3723316,8.82466606 27.713,8.946 C28.0536684,9.06733394 28.4293313,9.128 28.84,9.128 C29.2786689,9.128 29.7056646,9.05333408 30.121,8.904 C30.5363354,8.75466592 30.8839986,8.55866788 31.164,8.316 L31.654,9.128 C31.5233327,9.24000056 31.360001,9.35666606 31.164,9.478 C30.967999,9.59933394 30.741668,9.71366613 30.485,9.821 C30.2283321,9.92833387 29.9436682,10.0146663 29.631,10.08 C29.3183318,10.1453337 28.9800018,10.178 28.616,10.178 C28.0093303,10.178 27.4750023,10.0916675 27.013,9.919 C26.5509977,9.74633247 26.1660015,9.49900161 25.858,9.177 C25.5499985,8.85499839 25.3166675,8.46766893 25.158,8.015 C24.9993325,7.56233107 24.92,7.06066942 24.92,6.51 C24.92,5.92199706 25.0016659,5.39933562 25.165,4.942 C25.3283342,4.48466438 25.5639985,4.10200154 25.872,3.794 C26.1800015,3.48599846 26.5533311,3.25033415 26.992,3.087 C27.4306689,2.92366585 27.920664,2.842 28.462,2.842 C29.1526701,2.842 29.7149978,2.90266606 30.149,3.024 C30.5830022,3.14533394 30.9493318,3.28066592 31.248,3.43 L31.234,3.472 L31.234,5.418 L30.226,5.418 L30.226,4.088 Z M32.914,3.01 L34.58,3.01 L34.58,1.624 L35.672,1.316 L35.672,3.01 L39.41,3.01 L39.41,3.948 L35.672,3.948 L35.672,7.252 C35.672,7.93333674 35.837665,8.4373317 36.169,8.764 C36.500335,9.0906683 36.9739969,9.254 37.59,9.254 C38.0100021,9.254 38.3763318,9.17466746 38.689,9.016 C39.0016682,8.85733254 39.2839987,8.6846676 39.536,8.498 L39.9,9.324 C39.5733317,9.58533464 39.1836689,9.79533254 38.731,9.954 C38.2783311,10.1126675 37.8140024,10.192 37.338,10.192 C36.9646648,10.192 36.612335,10.1383339 36.281,10.031 C35.949665,9.92366613 35.6580013,9.75800112 35.406,9.534 C35.1539987,9.30999888 34.9533341,9.02300175 34.804,8.673 C34.6546659,8.32299825 34.58,7.90533576 34.58,7.42 L34.58,3.948 L32.914,3.948 L32.914,3.01 Z M42.35,10.01 L42.35,9.072 L44.786,9.072 L44.786,3.948 L42.35,3.948 L42.35,3.01 L45.906,3.01 L45.906,9.072 L48.286,9.072 L48.286,10.01 L42.35,10.01 Z M44.408,1.022 C44.408,0.76999874 44.4919992,0.55300091 44.66,0.371 C44.8280008,0.18899909 45.0426654,0.098 45.304,0.098 C45.574668,0.098 45.8009991,0.18899909 45.983,0.371 C46.1650009,0.55300091 46.256,0.76999874 46.256,1.022 C46.256,1.26466788 46.1650009,1.46999916 45.983,1.638 C45.8009991,1.80600084 45.574668,1.89 45.304,1.89 C45.0426654,1.89 44.8280008,1.80600084 44.66,1.638 C44.4919992,1.46999916 44.408,1.26466788 44.408,1.022 Z M50.078,6.51 C50.078,5.38066102 50.3719971,4.48700329 50.96,3.829 C51.5480029,3.17099671 52.3879945,2.842 53.48,2.842 C54.0680029,2.842 54.5743312,2.93766571 54.999,3.129 C55.4236688,3.32033429 55.7759986,3.5793317 56.056,3.906 C56.3360014,4.2326683 56.543666,4.61999776 56.679,5.068 C56.814334,5.51600224 56.882,5.9966641 56.882,6.51 C56.882,7.0700028 56.8073341,7.57633107 56.658,8.029 C56.5086659,8.48166893 56.2893348,8.86666508 56,9.184 C55.7106652,9.50133492 55.3536688,9.74633247 54.929,9.919 C54.5043312,10.0916675 54.021336,10.178 53.48,10.178 C52.9013304,10.178 52.3973355,10.0823343 51.968,9.891 C51.5386645,9.69966571 51.1840014,9.4406683 50.904,9.114 C50.6239986,8.7873317 50.416334,8.40000224 50.281,7.952 C50.145666,7.50399776 50.078,7.0233359 50.078,6.51 Z M51.24,6.51 C51.24,6.8366683 51.2796663,7.1633317 51.359,7.49 C51.4383337,7.8166683 51.5666658,8.11066536 51.744,8.372 C51.9213342,8.63333464 52.1523319,8.84333254 52.437,9.002 C52.7216681,9.16066746 53.0693313,9.24 53.48,9.24 C54.2266704,9.24 54.7889981,9.00900231 55.167,8.547 C55.5450019,8.08499769 55.734,7.40600448 55.734,6.51 C55.734,6.17399832 55.6943337,5.84500161 55.615,5.523 C55.5356663,5.20099839 55.4050009,4.90933464 55.223,4.648 C55.0409991,4.38666536 54.8076681,4.17666746 54.523,4.018 C54.2383319,3.85933254 53.8906687,3.78 53.48,3.78 C52.7333296,3.78 52.1733352,4.00866438 51.8,4.466 C51.4266648,4.92333562 51.24,5.60466214 51.24,6.51 Z M58.982,5.46 C58.982,5.37599958 58.9796667,5.26633401 58.975,5.131 C58.9703333,4.99566599 58.9633334,4.85566739 58.954,4.711 C58.9446666,4.56633261 58.9330001,4.4240007 58.919,4.284 C58.9049999,4.1439993 58.8886668,4.02266718 58.87,3.92 L57.932,3.92 L57.932,3.01 L59.808,3.01 L59.934,4.144 L60.004,4.144 C60.0973338,3.98533254 60.2209992,3.82900077 60.375,3.675 C60.5290008,3.52099923 60.7086656,3.38100063 60.914,3.255 C61.1193344,3.12899937 61.3479987,3.02866704 61.6,2.954 C61.8520013,2.87933296 62.1179986,2.842 62.398,2.842 C62.8273355,2.842 63.207665,2.8886662 63.539,2.982 C63.870335,3.0753338 64.1456656,3.24099881 64.365,3.479 C64.5843344,3.71700119 64.7499994,4.03899797 64.862,4.445 C64.9740006,4.85100203 65.03,5.36666354 65.03,5.992 L65.03,10.01 L63.938,10.01 L63.938,6.202 C63.938,5.42732946 63.8120013,4.84400196 63.56,4.452 C63.3079987,4.05999804 62.85067,3.864 62.188,3.864 C61.9453321,3.864 61.7096678,3.91299951 61.481,4.011 C61.2523322,4.10900049 61.0446676,4.23733254 60.858,4.396 C60.6713324,4.55466746 60.5080007,4.73899895 60.368,4.949 C60.2279993,5.15900105 60.1253337,5.3806655 60.06,5.614 L60.06,10.01 L58.982,10.01 L58.982,5.46 Z" id="function" fill="#0077AA"></path>
                <polygon id="*" fill="#A67F59" points="69.062 0.014 70.308 2.464 71.512 9.23705556e-13 72.478 0.518 70.784 2.884 73.626 2.674 73.626 3.808 70.868 3.584 72.492 5.838 71.554 6.384 70.252 3.878 69.02 6.384 68.012 5.838 69.706 3.584 66.934 3.808 66.934 2.674 69.706 2.912 68.096 0.56"></polygon>
                <path d="M90.216,10.36 C90.216,10.7986689 90.1320008,11.183665 89.964,11.515 C89.7959992,11.846335 89.5650015,12.1193323 89.271,12.334 C88.9769985,12.5486677 88.634002,12.7096661 88.242,12.817 C87.849998,12.9243339 87.4253356,12.978 86.968,12.978 C86.4173306,12.978 85.9366687,12.9220006 85.526,12.81 C85.1153313,12.6979994 84.7606682,12.5533342 84.462,12.376 L84.994,11.382 C85.0780004,11.456667 85.187666,11.5289996 85.323,11.599 C85.458334,11.6690003 85.6146658,11.734333 85.792,11.795 C85.9693342,11.855667 86.1583323,11.9046665 86.359,11.942 C86.5596677,11.9793335 86.757999,11.998 86.954,11.998 C87.3646687,11.998 87.7076653,11.960667 87.983,11.886 C88.2583347,11.811333 88.4799992,11.6946675 88.648,11.536 C88.8160008,11.3773325 88.937333,11.1720013 89.012,10.92 C89.086667,10.6679987 89.124,10.3600018 89.124,9.996 L89.124,9.212 L89.068,9.212 C88.8533323,9.52000154 88.5780017,9.75799916 88.242,9.926 C87.9059983,10.0940008 87.4720027,10.178 86.94,10.178 C85.8759947,10.178 85.0943358,9.88166963 84.595,9.289 C84.0956642,8.69633037 83.846,7.77467292 83.846,6.524 C83.846,5.32932736 84.1633302,4.42633639 84.798,3.815 C85.4326698,3.20366361 86.3753271,2.898 87.626,2.898 C88.2046696,2.898 88.696998,2.93766627 89.103,3.017 C89.509002,3.09633373 89.8799983,3.19666606 90.216,3.318 L90.216,10.36 Z M87.094,9.24 C87.6633362,9.24 88.1113317,9.09300147 88.438,8.799 C88.7646683,8.50499853 88.9933327,8.0546697 89.124,7.448 L89.124,4.13 C88.7133313,3.93399902 88.139337,3.836 87.402,3.836 C86.6553296,3.836 86.0673355,4.05533114 85.638,4.494 C85.2086645,4.93266886 84.994,5.60466214 84.994,6.51 C84.994,6.91133534 85.031333,7.27766501 85.106,7.609 C85.180667,7.94033499 85.2996659,8.22733212 85.463,8.47 C85.6263342,8.71266788 85.8409987,8.90166599 86.107,9.037 C86.3730013,9.17233401 86.701998,9.24 87.094,9.24 Z M98.686,9.128 C98.5179992,9.27733408 98.3196678,9.41733268 98.091,9.548 C97.8623322,9.67866732 97.612668,9.7906662 97.342,9.884 C97.071332,9.9773338 96.7890015,10.0496664 96.495,10.101 C96.2009985,10.1523336 95.9046682,10.178 95.606,10.178 C95.0459972,10.178 94.5513355,10.0916675 94.122,9.919 C93.6926645,9.74633247 93.3333348,9.49900161 93.044,9.177 C92.7546652,8.85499839 92.5353341,8.47000224 92.386,8.022 C92.2366659,7.57399776 92.162,7.0700028 92.162,6.51 C92.162,5.92199706 92.2436659,5.39933562 92.407,4.942 C92.5703342,4.48466438 92.8059985,4.10200154 93.114,3.794 C93.4220015,3.48599846 93.7953311,3.25033415 94.234,3.087 C94.6726689,2.92366585 95.162664,2.842 95.704,2.842 C96.096002,2.842 96.4833314,2.89333282 96.866,2.996 C97.2486686,3.09866718 97.5869985,3.29233191 97.881,3.577 C98.1750015,3.86166809 98.4013325,4.25366417 98.56,4.753 C98.7186675,5.25233583 98.7746669,5.8986627 98.728,6.692 L93.31,6.692 C93.31,7.5320042 93.5363311,8.15966459 93.989,8.575 C94.4416689,8.99033541 95.0459962,9.198 95.802,9.198 C96.0540013,9.198 96.3036654,9.16766697 96.551,9.107 C96.7983346,9.04633303 97.0339989,8.97400042 97.258,8.89 C97.4820011,8.80599958 97.6803325,8.71266718 97.853,8.61 C98.0256675,8.50733282 98.1586662,8.41400042 98.252,8.33 L98.686,9.128 Z M95.732,3.766 C95.4239985,3.766 95.1323347,3.79866634 94.857,3.864 C94.5816653,3.92933366 94.3390011,4.03899923 94.129,4.193 C93.918999,4.34700077 93.746334,4.54766543 93.611,4.795 C93.475666,5.04233457 93.3893335,5.34799818 93.352,5.712 L97.706,5.712 C97.6593331,5.09599692 97.4610018,4.61766837 97.111,4.277 C96.7609983,3.93633163 96.3013362,3.766 95.732,3.766 Z M100.982,5.46 C100.982,5.37599958 100.979667,5.26633401 100.975,5.131 C100.970333,4.99566599 100.963333,4.85566739 100.954,4.711 C100.944667,4.56633261 100.933,4.4240007 100.919,4.284 C100.905,4.1439993 100.888667,4.02266718 100.87,3.92 L99.932,3.92 L99.932,3.01 L101.808,3.01 L101.934,4.144 L102.004,4.144 C102.097334,3.98533254 102.220999,3.82900077 102.375,3.675 C102.529001,3.52099923 102.708666,3.38100063 102.914,3.255 C103.119334,3.12899937 103.347999,3.02866704 103.6,2.954 C103.852001,2.87933296 104.117999,2.842 104.398,2.842 C104.827335,2.842 105.207665,2.8886662 105.539,2.982 C105.870335,3.0753338 106.145666,3.24099881 106.365,3.479 C106.584334,3.71700119 106.749999,4.03899797 106.862,4.445 C106.974001,4.85100203 107.03,5.36666354 107.03,5.992 L107.03,10.01 L105.938,10.01 L105.938,6.202 C105.938,5.42732946 105.812001,4.84400196 105.56,4.452 C105.307999,4.05999804 104.85067,3.864 104.188,3.864 C103.945332,3.864 103.709668,3.91299951 103.481,4.011 C103.252332,4.10900049 103.044668,4.23733254 102.858,4.396 C102.671332,4.55466746 102.508001,4.73899895 102.368,4.949 C102.227999,5.15900105 102.125334,5.3806655 102.06,5.614 L102.06,10.01 L100.982,10.01 L100.982,5.46 Z" id="gen" fill="#000000"></path>
                <path d="M114.128,12.978 C113.502664,12.8193325 112.917003,12.5836682 112.371,12.271 C111.824997,11.9583318 111.349002,11.5500025 110.943,11.046 C110.536998,10.5419975 110.215001,9.92600364 109.977,9.198 C109.738999,8.46999636 109.62,7.60667166 109.62,6.608 C109.62,5.61866172 109.741332,4.75300371 109.984,4.011 C110.226668,3.26899629 110.553331,2.63900259 110.964,2.121 C111.374669,1.60299741 111.852997,1.18766823 112.399,0.875 C112.945003,0.56233177 113.52133,0.34066732 114.128,0.21 L114.478,1.092 C113.927331,1.25066746 113.423336,1.45833205 112.966,1.715 C112.508664,1.97166795 112.114335,2.31233121 111.783,2.737 C111.451665,3.16166879 111.195001,3.68899685 111.013,4.319 C110.830999,4.94900315 110.74,5.71199552 110.74,6.608 C110.74,7.51333786 110.849666,8.28566347 111.069,8.925 C111.288334,9.56433653 111.577665,10.0963312 111.937,10.521 C112.296335,10.9456688 112.697664,11.2769988 113.141,11.515 C113.584336,11.7530012 114.029998,11.9186662 114.478,12.012 L114.128,12.978 Z M118.482,12.012 C118.930002,11.9186662 119.375664,11.7530012 119.819,11.515 C120.262336,11.2769988 120.663665,10.9456688 121.023,10.521 C121.382335,10.0963312 121.671666,9.56433653 121.891,8.925 C122.110334,8.28566347 122.22,7.51333786 122.22,6.608 C122.22,5.71199552 122.129001,4.94900315 121.947,4.319 C121.764999,3.68899685 121.508335,3.16166879 121.177,2.737 C120.845665,2.31233121 120.451336,1.97166795 119.994,1.715 C119.536664,1.45833205 119.032669,1.25066746 118.482,1.092 L118.832,0.21 C119.43867,0.34066732 120.014997,0.56233177 120.561,0.875 C121.107003,1.18766823 121.585331,1.60299741 121.996,2.121 C122.406669,2.63900259 122.733332,3.26899629 122.976,4.011 C123.218668,4.75300371 123.34,5.61866172 123.34,6.608 C123.34,7.60667166 123.221001,8.46999636 122.983,9.198 C122.744999,9.92600364 122.423002,10.5419975 122.017,11.046 C121.610998,11.5500025 121.135003,11.9583318 120.589,12.271 C120.042997,12.5836682 119.457336,12.8193325 118.832,12.978 L118.482,12.012 Z M136.36,9.562 C136.36,9.16066466 136.292334,8.81300147 136.157,8.519 C136.021666,8.22499853 135.853668,7.98000098 135.653,7.784 C135.452332,7.58799902 135.237668,7.4433338 135.009,7.35 C134.780332,7.2566662 134.577334,7.21 134.4,7.21 L134.4,6.23 C134.577334,6.23 134.780332,6.19033373 135.009,6.111 C135.237668,6.03166627 135.452332,5.90100091 135.653,5.719 C135.853668,5.53699909 136.021666,5.30133478 136.157,5.012 C136.292334,4.72266522 136.36,4.36333548 136.36,3.934 L136.36,2.506 C136.36,2.16999832 136.413666,1.8620014 136.521,1.582 C136.628334,1.3019986 136.777666,1.05933436 136.969,0.854 C137.160334,0.64866564 137.388999,0.48766725 137.655,0.371 C137.921001,0.25433275 138.212665,0.196 138.53,0.196 L140.56,0.196 L140.56,1.176 L139.02,1.176 C138.431997,1.176 138.023668,1.3159986 137.795,1.596 C137.566332,1.8760014 137.452,2.29133058 137.452,2.842 L137.452,4.2 C137.452,4.58266858 137.382001,4.92333184 137.242,5.222 C137.101999,5.52066816 136.934001,5.77033233 136.738,5.971 C136.541999,6.17166767 136.341334,6.33033275 136.136,6.447 C135.930666,6.56366725 135.762667,6.63133324 135.632,6.65 L135.632,6.734 C135.753334,6.75266676 135.916666,6.82499937 136.122,6.951 C136.327334,7.07700063 136.527999,7.24966557 136.724,7.469 C136.920001,7.68833443 137.090333,7.94733184 137.235,8.246 C137.379667,8.54466816 137.452,8.87599818 137.452,9.24 L137.452,10.584 C137.452,11.1533362 137.573332,11.573332 137.816,11.844 C138.058668,12.114668 138.464664,12.25 139.034,12.25 L140.56,12.25 L140.56,13.23 L138.53,13.23 C137.876663,13.23 137.351669,13.0363353 136.955,12.649 C136.558331,12.2616647 136.36,11.6900038 136.36,10.934 L136.36,9.562 Z" id="(){" fill="#999999"></path>
                <path d="M17.346,17.21 L19.67,17.21 L19.67,24.658 C19.67,25.2273362 19.7656657,25.6286655 19.957,25.862 C20.1483343,26.0953345 20.4306648,26.212 20.804,26.212 C21.0653346,26.212 21.3149988,26.1653338 21.553,26.072 C21.7910012,25.9786662 22.0546652,25.8200011 22.344,25.596 L22.848,26.366 C22.6986659,26.4966673 22.5353342,26.6133328 22.358,26.716 C22.1806658,26.8186672 21.9986676,26.9049997 21.812,26.975 C21.6253324,27.0450004 21.4386676,27.0986665 21.252,27.136 C21.0653324,27.1733335 20.8926675,27.192 20.734,27.192 C20.3886649,27.192 20.080668,27.1476671 19.81,27.059 C19.539332,26.9703329 19.3130009,26.828001 19.131,26.632 C18.9489991,26.435999 18.8113338,26.1770016 18.718,25.855 C18.6246662,25.5329984 18.578,25.1340024 18.578,24.658 L18.578,18.148 L17.346,18.148 L17.346,17.21 Z M31.486,26.128 C31.3179992,26.2773341 31.1196678,26.4173327 30.891,26.548 C30.6623322,26.6786673 30.412668,26.7906662 30.142,26.884 C29.871332,26.9773338 29.5890015,27.0496664 29.295,27.101 C29.0009985,27.1523336 28.7046682,27.178 28.406,27.178 C27.8459972,27.178 27.3513355,27.0916675 26.922,26.919 C26.4926645,26.7463325 26.1333348,26.4990016 25.844,26.177 C25.5546652,25.8549984 25.3353341,25.4700022 25.186,25.022 C25.0366659,24.5739978 24.962,24.0700028 24.962,23.51 C24.962,22.9219971 25.0436659,22.3993356 25.207,21.942 C25.3703342,21.4846644 25.6059985,21.1020015 25.914,20.794 C26.2220015,20.4859985 26.5953311,20.2503342 27.034,20.087 C27.4726689,19.9236659 27.962664,19.842 28.504,19.842 C28.896002,19.842 29.2833314,19.8933328 29.666,19.996 C30.0486686,20.0986672 30.3869985,20.2923319 30.681,20.577 C30.9750015,20.8616681 31.2013325,21.2536642 31.36,21.753 C31.5186675,22.2523358 31.5746669,22.8986627 31.528,23.692 L26.11,23.692 C26.11,24.5320042 26.3363311,25.1596646 26.789,25.575 C27.2416689,25.9903354 27.8459962,26.198 28.602,26.198 C28.8540013,26.198 29.1036654,26.167667 29.351,26.107 C29.5983346,26.046333 29.8339989,25.9740004 30.058,25.89 C30.2820011,25.8059996 30.4803325,25.7126672 30.653,25.61 C30.8256675,25.5073328 30.9586662,25.4140004 31.052,25.33 L31.486,26.128 Z M28.532,20.766 C28.2239985,20.766 27.9323347,20.7986663 27.657,20.864 C27.3816653,20.9293337 27.1390011,21.0389992 26.929,21.193 C26.718999,21.3470008 26.546334,21.5476654 26.411,21.795 C26.275666,22.0423346 26.1893335,22.3479982 26.152,22.712 L30.506,22.712 C30.4593331,22.0959969 30.2610018,21.6176684 29.911,21.277 C29.5609983,20.9363316 29.1013362,20.766 28.532,20.766 Z M32.914,20.01 L34.58,20.01 L34.58,18.624 L35.672,18.316 L35.672,20.01 L39.41,20.01 L39.41,20.948 L35.672,20.948 L35.672,24.252 C35.672,24.9333367 35.837665,25.4373317 36.169,25.764 C36.500335,26.0906683 36.9739969,26.254 37.59,26.254 C38.0100021,26.254 38.3763318,26.1746675 38.689,26.016 C39.0016682,25.8573325 39.2839987,25.6846676 39.536,25.498 L39.9,26.324 C39.5733317,26.5853346 39.1836689,26.7953325 38.731,26.954 C38.2783311,27.1126675 37.8140024,27.192 37.338,27.192 C36.9646648,27.192 36.612335,27.1383339 36.281,27.031 C35.949665,26.9236661 35.6580013,26.7580011 35.406,26.534 C35.1539987,26.3099989 34.9533341,26.0230018 34.804,25.673 C34.6546659,25.3229983 34.58,24.9053358 34.58,24.42 L34.58,20.948 L32.914,20.948 L32.914,20.01 Z" id="let" fill="#0077AA"></path>
                <path d="M50.792,20.556 C51.1933353,20.3226655 51.6459975,20.1546672 52.15,20.052 C52.6540025,19.9493328 53.1486642,19.898 53.634,19.898 C54.1100024,19.898 54.4996652,19.9726659 54.803,20.122 C55.1063349,20.2713341 55.3443325,20.4649988 55.517,20.703 C55.6896675,20.9410012 55.806333,21.2116651 55.867,21.515 C55.927667,21.8183348 55.958,22.1239985 55.958,22.432 C55.958,22.7866684 55.9486668,23.1646647 55.93,23.566 C55.9113332,23.9673353 55.8973334,24.3686647 55.888,24.77 C55.888,25.236669 55.9159997,25.6799979 55.972,26.1 L56.91,26.1 L56.91,27.01 L55.048,27.01 L54.922,25.96 L54.852,25.96 C54.7959997,26.0440004 54.7120006,26.1513327 54.6,26.282 C54.4879994,26.4126673 54.3410009,26.5409994 54.159,26.667 C53.9769991,26.7930006 53.7553346,26.9026662 53.494,26.996 C53.2326654,27.0893338 52.9246684,27.136 52.57,27.136 C51.8793299,27.136 51.3333353,26.9586684 50.932,26.604 C50.5306647,26.2493316 50.33,25.7640031 50.33,25.148 C50.33,24.6719976 50.434999,24.2753349 50.645,23.958 C50.8550011,23.6406651 51.155998,23.398 51.548,23.23 C51.940002,23.0619992 52.4136639,22.9640001 52.969,22.936 C53.5243361,22.9079999 54.1473299,22.9453328 54.838,23.048 C54.8846669,22.6186645 54.8916668,22.2616681 54.859,21.977 C54.8263332,21.6923319 54.7516673,21.4660008 54.635,21.298 C54.5183328,21.1299992 54.3550011,21.0110003 54.145,20.941 C53.934999,20.8709996 53.6760015,20.836 53.368,20.836 C52.9479979,20.836 52.5466686,20.8943327 52.164,21.011 C51.7813314,21.1276672 51.4406682,21.2466661 51.142,21.368 L50.792,20.556 Z M52.85,26.198 C53.1113346,26.198 53.3539989,26.1560004 53.578,26.072 C53.8020011,25.9879996 53.9979992,25.8806673 54.166,25.75 C54.3340008,25.6193327 54.4739994,25.4770008 54.586,25.323 C54.6980006,25.1689992 54.7819997,25.0220007 54.838,24.882 L54.838,23.902 C54.3526642,23.8179996 53.9046687,23.776 53.494,23.776 C53.0833313,23.776 52.7286682,23.8203329 52.43,23.909 C52.1313318,23.9976671 51.8980008,24.1353324 51.73,24.322 C51.5619992,24.5086676 51.478,24.7513318 51.478,25.05 C51.478,25.3580015 51.582999,25.6263322 51.793,25.855 C52.0030011,26.0836678 52.3553309,26.198 52.85,26.198 Z M63.812,25.12 C63.812,24.8213318 63.6953345,24.5903341 63.462,24.427 C63.2286655,24.2636658 62.9393351,24.1330005 62.594,24.035 C62.2486649,23.9369995 61.873002,23.8460004 61.467,23.762 C61.060998,23.6779996 60.6853351,23.5660007 60.34,23.426 C59.9946649,23.2859993 59.7053345,23.0970012 59.472,22.859 C59.2386655,22.6209988 59.122,22.2873355 59.122,21.858 C59.122,21.5033316 59.1989992,21.2000013 59.353,20.948 C59.5070008,20.6959987 59.7099987,20.4883341 59.962,20.325 C60.2140013,20.1616658 60.5079983,20.0403337 60.844,19.961 C61.1800017,19.8816663 61.5299982,19.842 61.894,19.842 C62.5473366,19.842 63.1096643,19.9236658 63.581,20.087 C64.0523357,20.2503341 64.4279986,20.4206658 64.708,20.598 L64.26,21.48 C63.9519985,21.3119992 63.6183351,21.1510008 63.259,20.997 C62.8996649,20.8429992 62.449336,20.766 61.908,20.766 C61.7026656,20.766 61.4996677,20.7869998 61.299,20.829 C61.0983323,20.8710002 60.9163342,20.9339996 60.753,21.018 C60.5896659,21.1020004 60.4590005,21.211666 60.361,21.347 C60.2629995,21.482334 60.214,21.647999 60.214,21.844 C60.214,22.0866679 60.3306655,22.2733327 60.564,22.404 C60.7973345,22.5346673 61.0866649,22.6443329 61.432,22.733 C61.7773351,22.8216671 62.152998,22.9056663 62.559,22.985 C62.965002,23.0643337 63.3406649,23.1786659 63.686,23.328 C64.0313351,23.4773341 64.3206655,23.6779987 64.554,23.93 C64.7873345,24.1820013 64.904,24.5226645 64.904,24.952 C64.904,25.5960032 64.6496692,26.1279979 64.141,26.548 C63.6323308,26.9680021 62.8693384,27.178 61.852,27.178 C61.5439985,27.178 61.2406682,27.1500003 60.942,27.094 C60.6433318,27.0379997 60.3633346,26.9633338 60.102,26.87 C59.8406654,26.7766662 59.6026677,26.6716672 59.388,26.555 C59.1733323,26.4383327 58.9960007,26.3193339 58.856,26.198 L59.416,25.288 C59.5280006,25.4000006 59.6773324,25.5143327 59.864,25.631 C60.0506676,25.7476672 60.2559989,25.8526662 60.48,25.946 C60.7040011,26.0393338 60.9443321,26.1139997 61.201,26.17 C61.457668,26.2260003 61.7166654,26.254 61.978,26.254 C62.2300013,26.254 62.4656656,26.2330002 62.685,26.191 C62.9043344,26.1489998 63.0979992,26.0836671 63.266,25.995 C63.4340008,25.9063329 63.5669995,25.7896674 63.665,25.645 C63.7630005,25.5003326 63.812,25.3253344 63.812,25.12 Z M66.416,17.21 L68.684,17.21 L68.684,23.006 L69.454,23.006 L72.212,20.01 L73.528,20.01 L70.434,23.328 L72.982,26.072 L73.892,26.072 L73.892,27.01 L72.45,27.01 L69.454,23.846 L68.684,23.846 L68.684,27.01 L67.606,27.01 L67.606,18.148 L66.416,18.148 L66.416,17.21 Z M76.258,26.002 L78.456,26.002 L78.456,18.638 L76.216,20.206 L75.67,19.408 L78.75,17.21 L79.534,17.21 L79.534,26.002 L81.69,26.002 L81.69,27.01 L76.258,27.01 L76.258,26.002 Z" id="ask1" fill="#000000"></path>
                <path d="M92.232,20.612 L98.728,20.612 L98.728,21.62 L92.232,21.62 L92.232,20.612 Z M92.232,22.908 L98.728,22.908 L98.728,23.916 L92.232,23.916 L92.232,22.908 Z" id="=" fill="#A67F59"></path>
                <path d="M112.434,25.932 L112.966,25.932 L114.702,20.01 L115.836,20.01 L113.89,26.296 C113.787333,26.6226683 113.682334,26.9936646 113.575,27.409 C113.467666,27.8243354 113.316001,28.2139982 113.12,28.578 C112.923999,28.9420018 112.658002,29.2499987 112.322,29.502 C111.985998,29.7540013 111.547336,29.88 111.006,29.88 C110.884666,29.88 110.756334,29.8660001 110.621,29.838 C110.485666,29.8099999 110.352667,29.7750002 110.222,29.733 C110.091333,29.6909998 109.970001,29.6420003 109.858,29.586 C109.745999,29.5299997 109.662,29.4740003 109.606,29.418 L109.998,28.41 C110.054,28.4566669 110.131,28.5033331 110.229,28.55 C110.327,28.5966669 110.434333,28.6363332 110.551,28.669 C110.667667,28.7016668 110.781999,28.7296665 110.894,28.753 C111.006001,28.7763334 111.099333,28.788 111.174,28.788 C111.874004,28.788 112.349999,28.1953393 112.602,27.01 L111.664,27.01 L108.724,20.01 L109.984,20.01 L112.434,25.932 Z M117.95,27.01 L117.95,26.072 L120.386,26.072 L120.386,20.948 L117.95,20.948 L117.95,20.01 L121.506,20.01 L121.506,26.072 L123.886,26.072 L123.886,27.01 L117.95,27.01 Z M120.008,18.022 C120.008,17.7699987 120.091999,17.5530009 120.26,17.371 C120.428001,17.1889991 120.642665,17.098 120.904,17.098 C121.174668,17.098 121.400999,17.1889991 121.583,17.371 C121.765001,17.5530009 121.856,17.7699987 121.856,18.022 C121.856,18.2646679 121.765001,18.4699992 121.583,18.638 C121.400999,18.8060008 121.174668,18.89 120.904,18.89 C120.642665,18.89 120.428001,18.8060008 120.26,18.638 C120.091999,18.4699992 120.008,18.2646679 120.008,18.022 Z M132.286,26.128 C132.117999,26.2773341 131.919668,26.4173327 131.691,26.548 C131.462332,26.6786673 131.212668,26.7906662 130.942,26.884 C130.671332,26.9773338 130.389001,27.0496664 130.095,27.101 C129.800999,27.1523336 129.504668,27.178 129.206,27.178 C128.645997,27.178 128.151335,27.0916675 127.722,26.919 C127.292665,26.7463325 126.933335,26.4990016 126.644,26.177 C126.354665,25.8549984 126.135334,25.4700022 125.986,25.022 C125.836666,24.5739978 125.762,24.0700028 125.762,23.51 C125.762,22.9219971 125.843666,22.3993356 126.007,21.942 C126.170334,21.4846644 126.405998,21.1020015 126.714,20.794 C127.022002,20.4859985 127.395331,20.2503341 127.834,20.087 C128.272669,19.9236658 128.762664,19.842 129.304,19.842 C129.696002,19.842 130.083331,19.8933328 130.466,19.996 C130.848669,20.0986672 131.186999,20.2923319 131.481,20.577 C131.775001,20.8616681 132.001333,21.2536642 132.16,21.753 C132.318667,22.2523358 132.374667,22.8986627 132.328,23.692 L126.91,23.692 C126.91,24.5320042 127.136331,25.1596646 127.589,25.575 C128.041669,25.9903354 128.645996,26.198 129.402,26.198 C129.654001,26.198 129.903665,26.167667 130.151,26.107 C130.398335,26.046333 130.633999,25.9740004 130.858,25.89 C131.082001,25.8059996 131.280332,25.7126672 131.453,25.61 C131.625668,25.5073328 131.758666,25.4140004 131.852,25.33 L132.286,26.128 Z M129.332,20.766 C129.023998,20.766 128.732335,20.7986663 128.457,20.864 C128.181665,20.9293337 127.939001,21.0389992 127.729,21.193 C127.518999,21.3470008 127.346334,21.5476654 127.211,21.795 C127.075666,22.0423346 126.989334,22.3479982 126.952,22.712 L131.306,22.712 C131.259333,22.0959969 131.061002,21.6176684 130.711,21.277 C130.360998,20.9363316 129.901336,20.766 129.332,20.766 Z M134.946,17.21 L137.27,17.21 L137.27,24.658 C137.27,25.2273362 137.365666,25.6286655 137.557,25.862 C137.748334,26.0953345 138.030665,26.212 138.404,26.212 C138.665335,26.212 138.914999,26.1653338 139.153,26.072 C139.391001,25.9786662 139.654665,25.8200011 139.944,25.596 L140.448,26.366 C140.298666,26.4966673 140.135334,26.6133328 139.958,26.716 C139.780666,26.8186672 139.598668,26.9049996 139.412,26.975 C139.225332,27.0450003 139.038668,27.0986665 138.852,27.136 C138.665332,27.1733335 138.492667,27.192 138.334,27.192 C137.988665,27.192 137.680668,27.1476671 137.41,27.059 C137.139332,26.9703329 136.913001,26.828001 136.731,26.632 C136.548999,26.435999 136.411334,26.1770016 136.318,25.855 C136.224666,25.5329984 136.178,25.1340024 136.178,24.658 L136.178,18.148 L134.946,18.148 L134.946,17.21 Z M146.566,17.21 L148.834,17.21 L148.834,24.616 C148.834,24.7000004 148.838667,24.8049994 148.848,24.931 C148.857333,25.0570006 148.869,25.1899993 148.883,25.33 C148.897,25.4700007 148.913333,25.607666 148.932,25.743 C148.950667,25.878334 148.969333,25.9973328 148.988,26.1 L149.926,26.1 L149.926,27.01 L148.064,27.01 L147.924,25.932 L147.868,25.932 C147.662666,26.2866684 147.357002,26.5829988 146.951,26.821 C146.544998,27.0590012 146.076003,27.178 145.544,27.178 C144.489328,27.178 143.712336,26.8816696 143.213,26.289 C142.713664,25.6963304 142.464,24.7746729 142.464,23.524 C142.464,22.9359971 142.547999,22.4156689 142.716,21.963 C142.884001,21.5103311 143.124332,21.1323348 143.437,20.829 C143.749668,20.5256651 144.125331,20.2946675 144.564,20.136 C145.002669,19.9773325 145.492664,19.898 146.034,19.898 C146.230001,19.898 146.404999,19.9026666 146.559,19.912 C146.713001,19.9213334 146.855333,19.9353332 146.986,19.954 C147.116667,19.9726668 147.240333,19.9983332 147.357,20.031 C147.473667,20.0636668 147.601999,20.0986665 147.742,20.136 L147.742,18.148 L146.566,18.148 L146.566,17.21 Z M145.726,26.24 C146.295336,26.24 146.743332,26.0930015 147.07,25.799 C147.396668,25.5049985 147.620666,25.0640029 147.742,24.476 L147.742,21.228 C147.536666,21.0879993 147.305668,20.9853337 147.049,20.92 C146.792332,20.8546663 146.454002,20.822 146.034,20.822 C145.28733,20.822 144.699335,21.0389978 144.27,21.473 C143.840665,21.9070022 143.626,22.590662 143.626,23.524 C143.626,23.9066686 143.661,24.263665 143.731,24.595 C143.801,24.926335 143.917666,25.2133321 144.081,25.456 C144.244334,25.6986679 144.461332,25.8899993 144.732,26.03 C145.002668,26.1700007 145.333998,26.24 145.726,26.24 Z" id="yield" fill="#0077AA"></path>
                <path d="M163.506,17.21 L164.738,17.21 L164.304,21.452 L163.506,21.452 L163.506,17.21 Z M160.608,17.21 L161.84,17.21 L161.406,21.452 L160.608,21.452 L160.608,17.21 Z M173.88,19.688 C173.88,20.546671 173.474004,21.5033281 172.662,22.558 C171.849996,23.6126719 170.716007,24.7606605 169.26,26.002 L174.188,26.002 L174.188,27.01 L167.972,27.01 L167.972,26.002 C168.149334,25.8339992 168.391998,25.614668 168.7,25.344 C169.008002,25.073332 169.339332,24.772335 169.694,24.441 C170.048668,24.109665 170.410331,23.7526686 170.779,23.37 C171.147669,22.9873314 171.481332,22.5953353 171.78,22.194 C172.078668,21.7926647 172.321332,21.3913353 172.508,20.99 C172.694668,20.5886647 172.788,20.2013352 172.788,19.828 C172.788,19.2679972 172.641001,18.8270016 172.347,18.505 C172.052999,18.1829984 171.612003,18.022 171.024,18.022 C170.519997,18.022 170.095335,18.0779994 169.75,18.19 C169.404665,18.3020006 169.092001,18.4653323 168.812,18.68 L168.336,17.91 C168.756002,17.6113318 169.201664,17.3920007 169.673,17.252 C170.144336,17.1119993 170.659997,17.042 171.22,17.042 C172.097338,17.042 172.759998,17.2799976 173.208,17.756 C173.656002,18.2320024 173.88,18.8759959 173.88,19.688 Z M184.352,21.774 L187.376,21.774 L187.376,18.68 L188.384,18.68 L188.384,21.774 L191.408,21.774 L191.408,22.782 L188.384,22.782 L188.384,25.876 L187.376,25.876 L187.376,22.782 L184.352,22.782 L184.352,21.774 Z M207.48,19.688 C207.48,20.546671 207.074004,21.5033281 206.262,22.558 C205.449996,23.6126719 204.316007,24.7606605 202.86,26.002 L207.788,26.002 L207.788,27.01 L201.572,27.01 L201.572,26.002 C201.749334,25.8339992 201.991998,25.614668 202.3,25.344 C202.608002,25.073332 202.939332,24.772335 203.294,24.441 C203.648668,24.109665 204.010331,23.7526686 204.379,23.37 C204.747669,22.9873314 205.081332,22.5953353 205.38,22.194 C205.678668,21.7926647 205.921332,21.3913353 206.108,20.99 C206.294668,20.5886647 206.388,20.2013352 206.388,19.828 C206.388,19.2679972 206.241001,18.8270016 205.947,18.505 C205.652999,18.1829984 205.212003,18.022 204.624,18.022 C204.119997,18.022 203.695335,18.0779994 203.35,18.19 C203.004665,18.3020006 202.692001,18.4653323 202.412,18.68 L201.936,17.91 C202.356002,17.6113318 202.801664,17.3920007 203.273,17.252 C203.744336,17.1119993 204.259997,17.042 204.82,17.042 C205.697338,17.042 206.359998,17.2799976 206.808,17.756 C207.256002,18.2320024 207.48,18.8759959 207.48,19.688 Z M212.128,24.532 C212.118667,24.4853331 212.114,24.4340003 212.114,24.378 L212.114,24.224 C212.114,23.831998 212.186333,23.4960014 212.331,23.216 C212.475667,22.9359986 212.655332,22.6863344 212.87,22.467 C213.084668,22.2476656 213.315665,22.0493342 213.563,21.872 C213.810335,21.6946658 214.041332,21.5056677 214.256,21.305 C214.470668,21.1043323 214.650333,20.8826679 214.795,20.64 C214.939667,20.3973321 215.012,20.1080017 215.012,19.772 C215.012,19.5946658 214.97,19.4033344 214.886,19.198 C214.802,18.9926656 214.673668,18.8013342 214.501,18.624 C214.328332,18.4466658 214.104335,18.3020006 213.829,18.19 C213.553665,18.0779994 213.224669,18.022 212.842,18.022 C212.533998,18.022 212.256335,18.059333 212.009,18.134 C211.761665,18.208667 211.537668,18.3019994 211.337,18.414 C211.136332,18.5260006 210.954334,18.649666 210.791,18.785 C210.627666,18.920334 210.480667,19.0486661 210.35,19.17 L209.636,18.526 C210.028002,18.0313309 210.53433,17.6603346 211.155,17.413 C211.77567,17.1656654 212.487329,17.042 213.29,17.042 C213.775336,17.042 214.199998,17.1213325 214.564,17.28 C214.928002,17.4386675 215.228999,17.6416654 215.467,17.889 C215.705001,18.1363346 215.882333,18.4116652 215.999,18.715 C216.115667,19.0183349 216.174,19.3146652 216.174,19.604 C216.174,20.0520022 216.097001,20.4276652 215.943,20.731 C215.788999,21.0343349 215.595335,21.3049988 215.362,21.543 C215.128666,21.7810012 214.879001,21.9956657 214.613,22.187 C214.346999,22.3783343 214.097335,22.5836656 213.864,22.803 C213.630666,23.0223344 213.437001,23.267332 213.283,23.538 C213.128999,23.808668 213.052,24.139998 213.052,24.532 L212.128,24.532 Z M211.848,26.366 C211.848,26.1139987 211.920333,25.9156674 212.065,25.771 C212.209667,25.6263326 212.403332,25.554 212.646,25.554 C212.898001,25.554 213.098666,25.6263326 213.248,25.771 C213.397334,25.9156674 213.472,26.1139987 213.472,26.366 C213.472,26.6086679 213.397334,26.8046659 213.248,26.954 C213.098666,27.1033341 212.898001,27.178 212.646,27.178 C212.403332,27.178 212.209667,27.1033341 212.065,26.954 C211.920333,26.8046659 211.848,26.6086679 211.848,26.366 Z M222.306,17.21 L223.538,17.21 L223.104,21.452 L222.306,21.452 L222.306,17.21 Z M219.408,17.21 L220.64,17.21 L220.206,21.452 L219.408,21.452 L219.408,17.21 Z" id="&quot;2+2?&quot;" fill="#669900"></path>
                <path d="M228.886,26.24 C228.886,25.9599986 228.976999,25.7336675 229.159,25.561 C229.341001,25.3883325 229.576665,25.302 229.866,25.302 C230.220668,25.302 230.495999,25.4256654 230.692,25.673 C230.888001,25.9203346 230.986,26.2679978 230.986,26.716 C230.986,27.0800018 230.925334,27.3996653 230.804,27.675 C230.682666,27.9503347 230.531001,28.1836657 230.349,28.375 C230.166999,28.5663343 229.971001,28.7203328 229.761,28.837 C229.550999,28.9536673 229.357334,29.0399997 229.18,29.096 L228.83,28.55 C229.166002,28.4193327 229.455332,28.2326679 229.698,27.99 C229.940668,27.7473321 230.062,27.4533351 230.062,27.108 C229.931333,27.1360001 229.828667,27.15 229.754,27.15 C229.483332,27.15 229.271001,27.0730008 229.117,26.919 C228.962999,26.7649992 228.886,26.5386682 228.886,26.24 Z M229.012,20.738 C229.012,20.4393318 229.095999,20.2083342 229.264,20.045 C229.432001,19.8816659 229.655999,19.8 229.936,19.8 C230.234668,19.8 230.467999,19.8816659 230.636,20.045 C230.804001,20.2083342 230.888,20.4393318 230.888,20.738 C230.888,21.008668 230.804001,21.2326658 230.636,21.41 C230.467999,21.5873342 230.234668,21.676 229.936,21.676 C229.655999,21.676 229.432001,21.5873342 229.264,21.41 C229.095999,21.2326658 229.012,21.008668 229.012,20.738 Z" id=";" fill="#999999"></path>
                <path d="M17.192,71.556 C17.5933353,71.3226655 18.0459975,71.1546672 18.55,71.052 C19.0540025,70.9493328 19.5486642,70.898 20.034,70.898 C20.5100024,70.898 20.8996652,70.9726659 21.203,71.122 C21.5063349,71.2713341 21.7443325,71.4649988 21.917,71.703 C22.0896675,71.9410012 22.206333,72.2116652 22.267,72.515 C22.327667,72.8183349 22.358,73.1239985 22.358,73.432 C22.358,73.7866684 22.3486668,74.1646647 22.33,74.566 C22.3113332,74.9673353 22.2973334,75.3686647 22.288,75.77 C22.288,76.236669 22.3159997,76.6799979 22.372,77.1 L23.31,77.1 L23.31,78.01 L21.448,78.01 L21.322,76.96 L21.252,76.96 C21.1959997,77.0440004 21.1120006,77.1513327 21,77.282 C20.8879994,77.4126673 20.7410009,77.5409994 20.559,77.667 C20.3769991,77.7930006 20.1553346,77.9026662 19.894,77.996 C19.6326654,78.0893338 19.3246684,78.136 18.97,78.136 C18.2793299,78.136 17.7333353,77.9586684 17.332,77.604 C16.9306647,77.2493316 16.73,76.7640031 16.73,76.148 C16.73,75.6719976 16.834999,75.2753349 17.045,74.958 C17.2550011,74.6406651 17.555998,74.398 17.948,74.23 C18.340002,74.0619992 18.8136639,73.9640001 19.369,73.936 C19.9243361,73.9079999 20.5473299,73.9453328 21.238,74.048 C21.2846669,73.6186645 21.2916668,73.2616681 21.259,72.977 C21.2263332,72.6923319 21.1516673,72.4660008 21.035,72.298 C20.9183328,72.1299992 20.7550011,72.0110004 20.545,71.941 C20.334999,71.8709997 20.0760015,71.836 19.768,71.836 C19.3479979,71.836 18.9466686,71.8943328 18.564,72.011 C18.1813314,72.1276673 17.8406682,72.2466661 17.542,72.368 L17.192,71.556 Z M19.25,77.198 C19.5113346,77.198 19.7539989,77.1560004 19.978,77.072 C20.2020011,76.9879996 20.3979992,76.8806673 20.566,76.75 C20.7340008,76.6193327 20.8739994,76.4770008 20.986,76.323 C21.0980006,76.1689992 21.1819997,76.0220007 21.238,75.882 L21.238,74.902 C20.7526642,74.8179996 20.3046687,74.776 19.894,74.776 C19.4833313,74.776 19.1286682,74.8203329 18.83,74.909 C18.5313318,74.9976671 18.2980008,75.1353324 18.13,75.322 C17.9619992,75.5086676 17.878,75.7513318 17.878,76.05 C17.878,76.3580015 17.982999,76.6263322 18.193,76.855 C18.4030011,77.0836678 18.7553309,77.198 19.25,77.198 Z M25.746,68.21 L28.07,68.21 L28.07,75.658 C28.07,76.2273362 28.1656657,76.6286655 28.357,76.862 C28.5483343,77.0953345 28.8306648,77.212 29.204,77.212 C29.4653346,77.212 29.7149988,77.1653338 29.953,77.072 C30.1910012,76.9786662 30.4546652,76.8200011 30.744,76.596 L31.248,77.366 C31.0986659,77.4966673 30.9353342,77.6133328 30.758,77.716 C30.5806658,77.8186672 30.3986676,77.9049997 30.212,77.975 C30.0253324,78.0450004 29.8386676,78.0986665 29.652,78.136 C29.4653324,78.1733335 29.2926675,78.192 29.134,78.192 C28.7886649,78.192 28.480668,78.1476671 28.21,78.059 C27.939332,77.9703329 27.7130009,77.828001 27.531,77.632 C27.3489991,77.435999 27.2113338,77.1770016 27.118,76.855 C27.0246662,76.5329984 26.978,76.1340024 26.978,75.658 L26.978,69.148 L25.746,69.148 L25.746,68.21 Z M39.886,77.128 C39.7179992,77.2773341 39.5196678,77.4173327 39.291,77.548 C39.0623322,77.6786673 38.812668,77.7906662 38.542,77.884 C38.271332,77.9773338 37.9890015,78.0496664 37.695,78.101 C37.4009985,78.1523336 37.1046682,78.178 36.806,78.178 C36.2459972,78.178 35.7513355,78.0916675 35.322,77.919 C34.8926645,77.7463325 34.5333348,77.4990016 34.244,77.177 C33.9546652,76.8549984 33.7353341,76.4700022 33.586,76.022 C33.4366659,75.5739978 33.362,75.0700028 33.362,74.51 C33.362,73.9219971 33.4436659,73.3993356 33.607,72.942 C33.7703342,72.4846644 34.0059985,72.1020015 34.314,71.794 C34.6220015,71.4859985 34.9953311,71.2503342 35.434,71.087 C35.8726689,70.9236659 36.362664,70.842 36.904,70.842 C37.296002,70.842 37.6833314,70.8933328 38.066,70.996 C38.4486686,71.0986672 38.7869985,71.2923319 39.081,71.577 C39.3750015,71.8616681 39.6013325,72.2536642 39.76,72.753 C39.9186675,73.2523358 39.9746669,73.8986627 39.928,74.692 L34.51,74.692 C34.51,75.5320042 34.7363311,76.1596646 35.189,76.575 C35.6416689,76.9903354 36.2459962,77.198 37.002,77.198 C37.2540013,77.198 37.5036654,77.167667 37.751,77.107 C37.9983346,77.046333 38.2339989,76.9740004 38.458,76.89 C38.6820011,76.8059996 38.8803325,76.7126672 39.053,76.61 C39.2256675,76.5073328 39.3586662,76.4140004 39.452,76.33 L39.886,77.128 Z M36.932,71.766 C36.6239985,71.766 36.3323347,71.7986663 36.057,71.864 C35.7816653,71.9293337 35.5390011,72.0389992 35.329,72.193 C35.118999,72.3470008 34.946334,72.5476654 34.811,72.795 C34.675666,73.0423346 34.5893335,73.3479982 34.552,73.712 L38.906,73.712 C38.8593331,73.0959969 38.6610018,72.6176684 38.311,72.277 C37.9609983,71.9363316 37.5013362,71.766 36.932,71.766 Z M41.804,78.01 L41.804,77.072 L43.694,77.072 L43.694,71.948 L41.804,71.948 L41.804,71.01 L44.422,71.01 L44.646,71.92 L44.716,71.92 C45.0333349,71.6306652 45.387998,71.3833344 45.78,71.178 C46.172002,70.9726656 46.638664,70.87 47.18,70.87 C47.4973349,70.87 47.7516657,70.9306661 47.943,71.052 C48.1343343,71.1733339 48.2836661,71.3506655 48.391,71.584 C48.4983339,71.8173345 48.5706665,72.099665 48.608,72.431 C48.6453335,72.762335 48.664,73.1379979 48.664,73.558 L47.684,73.572 C47.684,72.9746637 47.6256673,72.5360014 47.509,72.256 C47.3923328,71.9759986 47.1800015,71.836 46.872,71.836 C46.5826652,71.836 46.3213345,71.8779996 46.088,71.962 C45.8546655,72.0460004 45.6516675,72.1486661 45.479,72.27 C45.3063325,72.3913339 45.1593339,72.5126661 45.038,72.634 C44.9166661,72.7553339 44.8280003,72.8579996 44.772,72.942 L44.772,77.072 L47.46,77.072 L47.46,78.01 L41.804,78.01 Z M49.714,71.01 L51.38,71.01 L51.38,69.624 L52.472,69.316 L52.472,71.01 L56.21,71.01 L56.21,71.948 L52.472,71.948 L52.472,75.252 C52.472,75.9333367 52.637665,76.4373317 52.969,76.764 C53.300335,77.0906683 53.7739969,77.254 54.39,77.254 C54.8100021,77.254 55.1763318,77.1746675 55.489,77.016 C55.8016682,76.8573325 56.0839987,76.6846676 56.336,76.498 L56.7,77.324 C56.3733317,77.5853346 55.9836689,77.7953325 55.531,77.954 C55.0783311,78.1126675 54.6140024,78.192 54.138,78.192 C53.7646648,78.192 53.412335,78.1383339 53.081,78.031 C52.749665,77.9236661 52.4580013,77.7580011 52.206,77.534 C51.9539987,77.3099989 51.7533341,77.0230018 51.604,76.673 C51.4546659,76.3229983 51.38,75.9053358 51.38,75.42 L51.38,71.948 L49.714,71.948 L49.714,71.01 Z" id="alert" fill="#000000"></path>
                <path d="M63.728,80.978 C63.1026635,80.8193325 62.5170027,80.5836682 61.971,80.271 C61.4249973,79.9583318 60.949002,79.5500025 60.543,79.046 C60.136998,78.5419975 59.8150012,77.9260036 59.577,77.198 C59.3389988,76.4699964 59.22,75.6066717 59.22,74.608 C59.22,73.6186617 59.3413321,72.7530037 59.584,72.011 C59.8266679,71.2689963 60.1533313,70.6390026 60.564,70.121 C60.9746687,69.6029974 61.4529973,69.1876682 61.999,68.875 C62.5450027,68.5623318 63.1213303,68.3406673 63.728,68.21 L64.078,69.092 C63.5273306,69.2506675 63.0233356,69.4583321 62.566,69.715 C62.1086644,69.971668 61.714335,70.3123312 61.383,70.737 C61.051665,71.1616688 60.7950009,71.6889969 60.613,72.319 C60.4309991,72.9490032 60.34,73.7119955 60.34,74.608 C60.34,75.5133379 60.4496656,76.2856635 60.669,76.925 C60.8883344,77.5643365 61.1776649,78.0963312 61.537,78.521 C61.8963351,78.9456688 62.2976645,79.2769988 62.741,79.515 C63.1843356,79.7530012 63.6299978,79.9186662 64.078,80.012 L63.728,80.978 Z" id="(" fill="#999999"></path>
                <path d="M67.592,71.556 C67.9933353,71.3226655 68.4459975,71.1546672 68.95,71.052 C69.4540025,70.9493328 69.9486642,70.898 70.434,70.898 C70.9100024,70.898 71.2996652,70.9726659 71.603,71.122 C71.9063349,71.2713341 72.1443325,71.4649988 72.317,71.703 C72.4896675,71.9410012 72.606333,72.2116651 72.667,72.515 C72.727667,72.8183348 72.758,73.1239985 72.758,73.432 C72.758,73.7866684 72.7486668,74.1646647 72.73,74.566 C72.7113332,74.9673353 72.6973334,75.3686647 72.688,75.77 C72.688,76.236669 72.7159997,76.6799979 72.772,77.1 L73.71,77.1 L73.71,78.01 L71.848,78.01 L71.722,76.96 L71.652,76.96 C71.5959997,77.0440004 71.5120006,77.1513327 71.4,77.282 C71.2879994,77.4126673 71.1410009,77.5409994 70.959,77.667 C70.7769991,77.7930006 70.5553346,77.9026662 70.294,77.996 C70.0326654,78.0893338 69.7246684,78.136 69.37,78.136 C68.6793299,78.136 68.1333353,77.9586684 67.732,77.604 C67.3306647,77.2493316 67.13,76.7640031 67.13,76.148 C67.13,75.6719976 67.234999,75.2753349 67.445,74.958 C67.6550011,74.6406651 67.955998,74.398 68.348,74.23 C68.740002,74.0619992 69.2136639,73.9640001 69.769,73.936 C70.3243361,73.9079999 70.9473299,73.9453328 71.638,74.048 C71.6846669,73.6186645 71.6916668,73.2616681 71.659,72.977 C71.6263332,72.6923319 71.5516673,72.4660008 71.435,72.298 C71.3183328,72.1299992 71.1550011,72.0110003 70.945,71.941 C70.734999,71.8709996 70.4760015,71.836 70.168,71.836 C69.7479979,71.836 69.3466686,71.8943327 68.964,72.011 C68.5813314,72.1276672 68.2406682,72.2466661 67.942,72.368 L67.592,71.556 Z M69.65,77.198 C69.9113346,77.198 70.1539989,77.1560004 70.378,77.072 C70.6020011,76.9879996 70.7979992,76.8806673 70.966,76.75 C71.1340008,76.6193327 71.2739994,76.4770008 71.386,76.323 C71.4980006,76.1689992 71.5819997,76.0220007 71.638,75.882 L71.638,74.902 C71.1526642,74.8179996 70.7046687,74.776 70.294,74.776 C69.8833313,74.776 69.5286682,74.8203329 69.23,74.909 C68.9313318,74.9976671 68.6980008,75.1353324 68.53,75.322 C68.3619992,75.5086676 68.278,75.7513318 68.278,76.05 C68.278,76.3580015 68.382999,76.6263322 68.593,76.855 C68.8030011,77.0836678 69.1553309,77.198 69.65,77.198 Z M80.612,76.12 C80.612,75.8213318 80.4953345,75.5903341 80.262,75.427 C80.0286655,75.2636658 79.7393351,75.1330005 79.394,75.035 C79.0486649,74.9369995 78.673002,74.8460004 78.267,74.762 C77.860998,74.6779996 77.4853351,74.5660007 77.14,74.426 C76.7946649,74.2859993 76.5053345,74.0970012 76.272,73.859 C76.0386655,73.6209988 75.922,73.2873355 75.922,72.858 C75.922,72.5033316 75.9989992,72.2000013 76.153,71.948 C76.3070008,71.6959987 76.5099987,71.4883341 76.762,71.325 C77.0140013,71.1616658 77.3079983,71.0403337 77.644,70.961 C77.9800017,70.8816663 78.3299982,70.842 78.694,70.842 C79.3473366,70.842 79.9096643,70.9236658 80.381,71.087 C80.8523357,71.2503341 81.2279986,71.4206658 81.508,71.598 L81.06,72.48 C80.7519985,72.3119992 80.4183351,72.1510008 80.059,71.997 C79.6996649,71.8429992 79.249336,71.766 78.708,71.766 C78.5026656,71.766 78.2996677,71.7869998 78.099,71.829 C77.8983323,71.8710002 77.7163342,71.9339996 77.553,72.018 C77.3896659,72.1020004 77.2590005,72.211666 77.161,72.347 C77.0629995,72.482334 77.014,72.647999 77.014,72.844 C77.014,73.0866679 77.1306655,73.2733327 77.364,73.404 C77.5973345,73.5346673 77.8866649,73.6443329 78.232,73.733 C78.5773351,73.8216671 78.952998,73.9056663 79.359,73.985 C79.765002,74.0643337 80.1406649,74.1786659 80.486,74.328 C80.8313351,74.4773341 81.1206655,74.6779987 81.354,74.93 C81.5873345,75.1820013 81.704,75.5226645 81.704,75.952 C81.704,76.5960032 81.4496692,77.1279979 80.941,77.548 C80.4323308,77.9680021 79.6693384,78.178 78.652,78.178 C78.3439985,78.178 78.0406682,78.1500003 77.742,78.094 C77.4433318,78.0379997 77.1633346,77.9633338 76.902,77.87 C76.6406654,77.7766662 76.4026677,77.6716672 76.188,77.555 C75.9733323,77.4383327 75.7960007,77.3193339 75.656,77.198 L76.216,76.288 C76.3280006,76.4000006 76.4773324,76.5143327 76.664,76.631 C76.8506676,76.7476672 77.0559989,76.8526662 77.28,76.946 C77.5040011,77.0393338 77.7443321,77.1139997 78.001,77.17 C78.257668,77.2260003 78.5166654,77.254 78.778,77.254 C79.0300013,77.254 79.2656656,77.2330002 79.485,77.191 C79.7043344,77.1489998 79.8979992,77.0836671 80.066,76.995 C80.2340008,76.9063329 80.3669995,76.7896674 80.465,76.645 C80.5630005,76.5003326 80.612,76.3253344 80.612,76.12 Z M83.216,68.21 L85.484,68.21 L85.484,74.006 L86.254,74.006 L89.012,71.01 L90.328,71.01 L87.234,74.328 L89.782,77.072 L90.692,77.072 L90.692,78.01 L89.25,78.01 L86.254,74.846 L85.484,74.846 L85.484,78.01 L84.406,78.01 L84.406,69.148 L83.216,69.148 L83.216,68.21 Z M93.058,77.002 L95.256,77.002 L95.256,69.638 L93.016,71.206 L92.47,70.408 L95.55,68.21 L96.334,68.21 L96.334,77.002 L98.49,77.002 L98.49,78.01 L93.058,78.01 L93.058,77.002 Z" id="ask1" fill="#000000"></path>
                <path d="M101.682,80.012 C102.130002,79.9186662 102.575664,79.7530012 103.019,79.515 C103.462336,79.2769988 103.863665,78.9456688 104.223,78.521 C104.582335,78.0963312 104.871666,77.5643365 105.091,76.925 C105.310334,76.2856635 105.42,75.5133379 105.42,74.608 C105.42,73.7119955 105.329001,72.9490032 105.147,72.319 C104.964999,71.6889969 104.708335,71.1616688 104.377,70.737 C104.045665,70.3123312 103.651336,69.971668 103.194,69.715 C102.736664,69.4583321 102.232669,69.2506675 101.682,69.092 L102.032,68.21 C102.63867,68.3406673 103.214997,68.5623318 103.761,68.875 C104.307003,69.1876682 104.785331,69.6029974 105.196,70.121 C105.606669,70.6390026 105.933332,71.2689963 106.176,72.011 C106.418668,72.7530037 106.54,73.6186617 106.54,74.608 C106.54,75.6066717 106.421001,76.4699964 106.183,77.198 C105.944999,77.9260036 105.623002,78.5419975 105.217,79.046 C104.810998,79.5500025 104.335003,79.9583318 103.789,80.271 C103.242997,80.5836682 102.657336,80.8193325 102.032,80.978 L101.682,80.012 Z M111.286,77.24 C111.286,76.9599986 111.376999,76.7336675 111.559,76.561 C111.741001,76.3883325 111.976665,76.302 112.266,76.302 C112.620668,76.302 112.895999,76.4256654 113.092,76.673 C113.288001,76.9203346 113.386,77.2679978 113.386,77.716 C113.386,78.0800018 113.325334,78.3996653 113.204,78.675 C113.082666,78.9503347 112.931001,79.1836657 112.749,79.375 C112.566999,79.5663343 112.371001,79.7203328 112.161,79.837 C111.950999,79.9536673 111.757334,80.0399997 111.58,80.096 L111.23,79.55 C111.566002,79.4193327 111.855332,79.2326679 112.098,78.99 C112.340668,78.7473321 112.462,78.4533351 112.462,78.108 C112.331333,78.1360001 112.228667,78.15 112.154,78.15 C111.883332,78.15 111.671001,78.0730008 111.517,77.919 C111.362999,77.7649992 111.286,77.5386682 111.286,77.24 Z M111.412,71.738 C111.412,71.4393318 111.495999,71.2083342 111.664,71.045 C111.832001,70.8816659 112.055999,70.8 112.336,70.8 C112.634668,70.8 112.867999,70.8816659 113.036,71.045 C113.204001,71.2083342 113.288,71.4393318 113.288,71.738 C113.288,72.008668 113.204001,72.2326658 113.036,72.41 C112.867999,72.5873342 112.634668,72.676 112.336,72.676 C112.055999,72.676 111.832001,72.5873342 111.664,72.41 C111.495999,72.2326658 111.412,72.008668 111.412,71.738 Z" id=");" fill="#999999"></path>
                <path d="M131.194,68.042 L132.076,68.434 L126.966,79.97 L126.084,79.578 L131.194,68.042 Z M139.594,68.042 L140.476,68.434 L135.366,79.97 L134.484,79.578 L139.594,68.042 Z M158.2,74.958 L156.31,74.958 L156.31,78.01 L155.218,78.01 L155.218,74.958 L150.696,74.958 L150.696,74.146 L155.386,68.21 L156.31,68.21 L156.31,74.034 L158.2,74.034 L158.2,74.958 Z M155.218,69.96 L151.984,74.034 L155.218,74.034 L155.218,69.96 Z" id="//4" fill="#708090"></path>
                <path d="M17.346,102.21 L19.67,102.21 L19.67,109.658 C19.67,110.227336 19.7656657,110.628666 19.957,110.862 C20.1483343,111.095335 20.4306648,111.212 20.804,111.212 C21.0653346,111.212 21.3149988,111.165334 21.553,111.072 C21.7910012,110.978666 22.0546652,110.820001 22.344,110.596 L22.848,111.366 C22.6986659,111.496667 22.5353342,111.613333 22.358,111.716 C22.1806658,111.818667 21.9986676,111.905 21.812,111.975 C21.6253324,112.045 21.4386676,112.098666 21.252,112.136 C21.0653324,112.173334 20.8926675,112.192 20.734,112.192 C20.3886649,112.192 20.080668,112.147667 19.81,112.059 C19.539332,111.970333 19.3130009,111.828001 19.131,111.632 C18.9489991,111.435999 18.8113338,111.177002 18.718,110.855 C18.6246662,110.532998 18.578,110.134002 18.578,109.658 L18.578,103.148 L17.346,103.148 L17.346,102.21 Z M31.486,111.128 C31.3179992,111.277334 31.1196678,111.417333 30.891,111.548 C30.6623322,111.678667 30.412668,111.790666 30.142,111.884 C29.871332,111.977334 29.5890015,112.049666 29.295,112.101 C29.0009985,112.152334 28.7046682,112.178 28.406,112.178 C27.8459972,112.178 27.3513355,112.091668 26.922,111.919 C26.4926645,111.746332 26.1333348,111.499002 25.844,111.177 C25.5546652,110.854998 25.3353341,110.470002 25.186,110.022 C25.0366659,109.573998 24.962,109.070003 24.962,108.51 C24.962,107.921997 25.0436659,107.399336 25.207,106.942 C25.3703342,106.484664 25.6059985,106.102002 25.914,105.794 C26.2220015,105.485998 26.5953311,105.250334 27.034,105.087 C27.4726689,104.923666 27.962664,104.842 28.504,104.842 C28.896002,104.842 29.2833314,104.893333 29.666,104.996 C30.0486686,105.098667 30.3869985,105.292332 30.681,105.577 C30.9750015,105.861668 31.2013325,106.253664 31.36,106.753 C31.5186675,107.252336 31.5746669,107.898663 31.528,108.692 L26.11,108.692 C26.11,109.532004 26.3363311,110.159665 26.789,110.575 C27.2416689,110.990335 27.8459962,111.198 28.602,111.198 C28.8540013,111.198 29.1036654,111.167667 29.351,111.107 C29.5983346,111.046333 29.8339989,110.974 30.058,110.89 C30.2820011,110.806 30.4803325,110.712667 30.653,110.61 C30.8256675,110.507333 30.9586662,110.414 31.052,110.33 L31.486,111.128 Z M28.532,105.766 C28.2239985,105.766 27.9323347,105.798666 27.657,105.864 C27.3816653,105.929334 27.1390011,106.038999 26.929,106.193 C26.718999,106.347001 26.546334,106.547665 26.411,106.795 C26.275666,107.042335 26.1893335,107.347998 26.152,107.712 L30.506,107.712 C30.4593331,107.095997 30.2610018,106.617668 29.911,106.277 C29.5609983,105.936332 29.1013362,105.766 28.532,105.766 Z M32.914,105.01 L34.58,105.01 L34.58,103.624 L35.672,103.316 L35.672,105.01 L39.41,105.01 L39.41,105.948 L35.672,105.948 L35.672,109.252 C35.672,109.933337 35.837665,110.437332 36.169,110.764 C36.500335,111.090668 36.9739969,111.254 37.59,111.254 C38.0100021,111.254 38.3763318,111.174667 38.689,111.016 C39.0016682,110.857333 39.2839987,110.684668 39.536,110.498 L39.9,111.324 C39.5733317,111.585335 39.1836689,111.795333 38.731,111.954 C38.2783311,112.112667 37.8140024,112.192 37.338,112.192 C36.9646648,112.192 36.612335,112.138334 36.281,112.031 C35.949665,111.923666 35.6580013,111.758001 35.406,111.534 C35.1539987,111.309999 34.9533341,111.023002 34.804,110.673 C34.6546659,110.322998 34.58,109.905336 34.58,109.42 L34.58,105.948 L32.914,105.948 L32.914,105.01 Z" id="let" fill="#0077AA"></path>
                <path d="M50.792,105.556 C51.1933353,105.322666 51.6459975,105.154667 52.15,105.052 C52.6540025,104.949333 53.1486642,104.898 53.634,104.898 C54.1100024,104.898 54.4996652,104.972666 54.803,105.122 C55.1063349,105.271334 55.3443325,105.464999 55.517,105.703 C55.6896675,105.941001 55.806333,106.211665 55.867,106.515 C55.927667,106.818335 55.958,107.123998 55.958,107.432 C55.958,107.786668 55.9486668,108.164665 55.93,108.566 C55.9113332,108.967335 55.8973334,109.368665 55.888,109.77 C55.888,110.236669 55.9159997,110.679998 55.972,111.1 L56.91,111.1 L56.91,112.01 L55.048,112.01 L54.922,110.96 L54.852,110.96 C54.7959997,111.044 54.7120006,111.151333 54.6,111.282 C54.4879994,111.412667 54.3410009,111.540999 54.159,111.667 C53.9769991,111.793001 53.7553346,111.902666 53.494,111.996 C53.2326654,112.089334 52.9246684,112.136 52.57,112.136 C51.8793299,112.136 51.3333353,111.958668 50.932,111.604 C50.5306647,111.249332 50.33,110.764003 50.33,110.148 C50.33,109.671998 50.434999,109.275335 50.645,108.958 C50.8550011,108.640665 51.155998,108.398 51.548,108.23 C51.940002,108.061999 52.4136639,107.964 52.969,107.936 C53.5243361,107.908 54.1473299,107.945333 54.838,108.048 C54.8846669,107.618665 54.8916668,107.261668 54.859,106.977 C54.8263332,106.692332 54.7516673,106.466001 54.635,106.298 C54.5183328,106.129999 54.3550011,106.011 54.145,105.941 C53.934999,105.871 53.6760015,105.836 53.368,105.836 C52.9479979,105.836 52.5466686,105.894333 52.164,106.011 C51.7813314,106.127667 51.4406682,106.246666 51.142,106.368 L50.792,105.556 Z M52.85,111.198 C53.1113346,111.198 53.3539989,111.156 53.578,111.072 C53.8020011,110.988 53.9979992,110.880667 54.166,110.75 C54.3340008,110.619333 54.4739994,110.477001 54.586,110.323 C54.6980006,110.168999 54.7819997,110.022001 54.838,109.882 L54.838,108.902 C54.3526642,108.818 53.9046687,108.776 53.494,108.776 C53.0833313,108.776 52.7286682,108.820333 52.43,108.909 C52.1313318,108.997667 51.8980008,109.135332 51.73,109.322 C51.5619992,109.508668 51.478,109.751332 51.478,110.05 C51.478,110.358002 51.582999,110.626332 51.793,110.855 C52.0030011,111.083668 52.3553309,111.198 52.85,111.198 Z M63.812,110.12 C63.812,109.821332 63.6953345,109.590334 63.462,109.427 C63.2286655,109.263666 62.9393351,109.133 62.594,109.035 C62.2486649,108.937 61.873002,108.846 61.467,108.762 C61.060998,108.678 60.6853351,108.566001 60.34,108.426 C59.9946649,108.285999 59.7053345,108.097001 59.472,107.859 C59.2386655,107.620999 59.122,107.287335 59.122,106.858 C59.122,106.503332 59.1989992,106.200001 59.353,105.948 C59.5070008,105.695999 59.7099987,105.488334 59.962,105.325 C60.2140013,105.161666 60.5079983,105.040334 60.844,104.961 C61.1800017,104.881666 61.5299982,104.842 61.894,104.842 C62.5473366,104.842 63.1096643,104.923666 63.581,105.087 C64.0523357,105.250334 64.4279986,105.420666 64.708,105.598 L64.26,106.48 C63.9519985,106.311999 63.6183351,106.151001 63.259,105.997 C62.8996649,105.842999 62.449336,105.766 61.908,105.766 C61.7026656,105.766 61.4996677,105.787 61.299,105.829 C61.0983323,105.871 60.9163342,105.934 60.753,106.018 C60.5896659,106.102 60.4590005,106.211666 60.361,106.347 C60.2629995,106.482334 60.214,106.647999 60.214,106.844 C60.214,107.086668 60.3306655,107.273333 60.564,107.404 C60.7973345,107.534667 61.0866649,107.644333 61.432,107.733 C61.7773351,107.821667 62.152998,107.905666 62.559,107.985 C62.965002,108.064334 63.3406649,108.178666 63.686,108.328 C64.0313351,108.477334 64.3206655,108.677999 64.554,108.93 C64.7873345,109.182001 64.904,109.522665 64.904,109.952 C64.904,110.596003 64.6496692,111.127998 64.141,111.548 C63.6323308,111.968002 62.8693384,112.178 61.852,112.178 C61.5439985,112.178 61.2406682,112.15 60.942,112.094 C60.6433318,112.038 60.3633346,111.963334 60.102,111.87 C59.8406654,111.776666 59.6026677,111.671667 59.388,111.555 C59.1733323,111.438333 58.9960007,111.319334 58.856,111.198 L59.416,110.288 C59.5280006,110.400001 59.6773324,110.514333 59.864,110.631 C60.0506676,110.747667 60.2559989,110.852666 60.48,110.946 C60.7040011,111.039334 60.9443321,111.114 61.201,111.17 C61.457668,111.226 61.7166654,111.254 61.978,111.254 C62.2300013,111.254 62.4656656,111.233 62.685,111.191 C62.9043344,111.149 63.0979992,111.083667 63.266,110.995 C63.4340008,110.906333 63.5669995,110.789667 63.665,110.645 C63.7630005,110.500333 63.812,110.325334 63.812,110.12 Z M66.416,102.21 L68.684,102.21 L68.684,108.006 L69.454,108.006 L72.212,105.01 L73.528,105.01 L70.434,108.328 L72.982,111.072 L73.892,111.072 L73.892,112.01 L72.45,112.01 L69.454,108.846 L68.684,108.846 L68.684,112.01 L67.606,112.01 L67.606,103.148 L66.416,103.148 L66.416,102.21 Z M81.48,104.688 C81.48,105.546671 81.0740041,106.503328 80.262,107.558 C79.4499959,108.612672 78.3160073,109.76066 76.86,111.002 L81.788,111.002 L81.788,112.01 L75.572,112.01 L75.572,111.002 C75.7493342,110.833999 75.9919985,110.614668 76.3,110.344 C76.6080015,110.073332 76.9393316,109.772335 77.294,109.441 C77.6486684,109.109665 78.0103315,108.752669 78.379,108.37 C78.7476685,107.987331 79.0813318,107.595335 79.38,107.194 C79.6786682,106.792665 79.9213324,106.391335 80.108,105.99 C80.2946676,105.588665 80.388,105.201335 80.388,104.828 C80.388,104.267997 80.2410015,103.827002 79.947,103.505 C79.6529985,103.182998 79.2120029,103.022 78.624,103.022 C78.1199975,103.022 77.6953351,103.077999 77.35,103.19 C77.0046649,103.302001 76.6920014,103.465332 76.412,103.68 L75.936,102.91 C76.3560021,102.611332 76.8016643,102.392001 77.273,102.252 C77.7443357,102.111999 78.2599972,102.042 78.82,102.042 C79.6973377,102.042 80.3599978,102.279998 80.808,102.756 C81.2560022,103.232002 81.48,103.875996 81.48,104.688 Z" id="ask2" fill="#000000"></path>
                <path d="M92.232,105.612 L98.728,105.612 L98.728,106.62 L92.232,106.62 L92.232,105.612 Z M92.232,107.908 L98.728,107.908 L98.728,108.916 L92.232,108.916 L92.232,107.908 Z" id="=" fill="#A67F59"></path>
                <path d="M112.434,110.932 L112.966,110.932 L114.702,105.01 L115.836,105.01 L113.89,111.296 C113.787333,111.622668 113.682334,111.993665 113.575,112.409 C113.467666,112.824335 113.316001,113.213998 113.12,113.578 C112.923999,113.942002 112.658002,114.249999 112.322,114.502 C111.985998,114.754001 111.547336,114.88 111.006,114.88 C110.884666,114.88 110.756334,114.866 110.621,114.838 C110.485666,114.81 110.352667,114.775 110.222,114.733 C110.091333,114.691 109.970001,114.642 109.858,114.586 C109.745999,114.53 109.662,114.474 109.606,114.418 L109.998,113.41 C110.054,113.456667 110.131,113.503333 110.229,113.55 C110.327,113.596667 110.434333,113.636333 110.551,113.669 C110.667667,113.701667 110.781999,113.729667 110.894,113.753 C111.006001,113.776333 111.099333,113.788 111.174,113.788 C111.874004,113.788 112.349999,113.195339 112.602,112.01 L111.664,112.01 L108.724,105.01 L109.984,105.01 L112.434,110.932 Z M117.95,112.01 L117.95,111.072 L120.386,111.072 L120.386,105.948 L117.95,105.948 L117.95,105.01 L121.506,105.01 L121.506,111.072 L123.886,111.072 L123.886,112.01 L117.95,112.01 Z M120.008,103.022 C120.008,102.769999 120.091999,102.553001 120.26,102.371 C120.428001,102.188999 120.642665,102.098 120.904,102.098 C121.174668,102.098 121.400999,102.188999 121.583,102.371 C121.765001,102.553001 121.856,102.769999 121.856,103.022 C121.856,103.264668 121.765001,103.469999 121.583,103.638 C121.400999,103.806001 121.174668,103.89 120.904,103.89 C120.642665,103.89 120.428001,103.806001 120.26,103.638 C120.091999,103.469999 120.008,103.264668 120.008,103.022 Z M132.286,111.128 C132.117999,111.277334 131.919668,111.417333 131.691,111.548 C131.462332,111.678667 131.212668,111.790666 130.942,111.884 C130.671332,111.977334 130.389001,112.049666 130.095,112.101 C129.800999,112.152334 129.504668,112.178 129.206,112.178 C128.645997,112.178 128.151335,112.091668 127.722,111.919 C127.292665,111.746332 126.933335,111.499002 126.644,111.177 C126.354665,110.854998 126.135334,110.470002 125.986,110.022 C125.836666,109.573998 125.762,109.070003 125.762,108.51 C125.762,107.921997 125.843666,107.399336 126.007,106.942 C126.170334,106.484664 126.405998,106.102002 126.714,105.794 C127.022002,105.485998 127.395331,105.250334 127.834,105.087 C128.272669,104.923666 128.762664,104.842 129.304,104.842 C129.696002,104.842 130.083331,104.893333 130.466,104.996 C130.848669,105.098667 131.186999,105.292332 131.481,105.577 C131.775001,105.861668 132.001333,106.253664 132.16,106.753 C132.318667,107.252336 132.374667,107.898663 132.328,108.692 L126.91,108.692 C126.91,109.532004 127.136331,110.159665 127.589,110.575 C128.041669,110.990335 128.645996,111.198 129.402,111.198 C129.654001,111.198 129.903665,111.167667 130.151,111.107 C130.398335,111.046333 130.633999,110.974 130.858,110.89 C131.082001,110.806 131.280332,110.712667 131.453,110.61 C131.625668,110.507333 131.758666,110.414 131.852,110.33 L132.286,111.128 Z M129.332,105.766 C129.023998,105.766 128.732335,105.798666 128.457,105.864 C128.181665,105.929334 127.939001,106.038999 127.729,106.193 C127.518999,106.347001 127.346334,106.547665 127.211,106.795 C127.075666,107.042335 126.989334,107.347998 126.952,107.712 L131.306,107.712 C131.259333,107.095997 131.061002,106.617668 130.711,106.277 C130.360998,105.936332 129.901336,105.766 129.332,105.766 Z M134.946,102.21 L137.27,102.21 L137.27,109.658 C137.27,110.227336 137.365666,110.628665 137.557,110.862 C137.748334,111.095334 138.030665,111.212 138.404,111.212 C138.665335,111.212 138.914999,111.165334 139.153,111.072 C139.391001,110.978666 139.654665,110.820001 139.944,110.596 L140.448,111.366 C140.298666,111.496667 140.135334,111.613333 139.958,111.716 C139.780666,111.818667 139.598668,111.905 139.412,111.975 C139.225332,112.045 139.038668,112.098666 138.852,112.136 C138.665332,112.173334 138.492667,112.192 138.334,112.192 C137.988665,112.192 137.680668,112.147667 137.41,112.059 C137.139332,111.970333 136.913001,111.828001 136.731,111.632 C136.548999,111.435999 136.411334,111.177002 136.318,110.855 C136.224666,110.532998 136.178,110.134002 136.178,109.658 L136.178,103.148 L134.946,103.148 L134.946,102.21 Z M146.566,102.21 L148.834,102.21 L148.834,109.616 C148.834,109.7 148.838667,109.804999 148.848,109.931 C148.857333,110.057001 148.869,110.189999 148.883,110.33 C148.897,110.470001 148.913333,110.607666 148.932,110.743 C148.950667,110.878334 148.969333,110.997333 148.988,111.1 L149.926,111.1 L149.926,112.01 L148.064,112.01 L147.924,110.932 L147.868,110.932 C147.662666,111.286668 147.357002,111.582999 146.951,111.821 C146.544998,112.059001 146.076003,112.178 145.544,112.178 C144.489328,112.178 143.712336,111.88167 143.213,111.289 C142.713664,110.69633 142.464,109.774673 142.464,108.524 C142.464,107.935997 142.547999,107.415669 142.716,106.963 C142.884001,106.510331 143.124332,106.132335 143.437,105.829 C143.749668,105.525665 144.125331,105.294667 144.564,105.136 C145.002669,104.977333 145.492664,104.898 146.034,104.898 C146.230001,104.898 146.404999,104.902667 146.559,104.912 C146.713001,104.921333 146.855333,104.935333 146.986,104.954 C147.116667,104.972667 147.240333,104.998333 147.357,105.031 C147.473667,105.063667 147.601999,105.098666 147.742,105.136 L147.742,103.148 L146.566,103.148 L146.566,102.21 Z M145.726,111.24 C146.295336,111.24 146.743332,111.093001 147.07,110.799 C147.396668,110.504999 147.620666,110.064003 147.742,109.476 L147.742,106.228 C147.536666,106.087999 147.305668,105.985334 147.049,105.92 C146.792332,105.854666 146.454002,105.822 146.034,105.822 C145.28733,105.822 144.699335,106.038998 144.27,106.473 C143.840665,106.907002 143.626,107.590662 143.626,108.524 C143.626,108.906669 143.661,109.263665 143.731,109.595 C143.801,109.926335 143.917666,110.213332 144.081,110.456 C144.244334,110.698668 144.461332,110.889999 144.732,111.03 C145.002668,111.170001 145.333998,111.24 145.726,111.24 Z" id="yield" fill="#0077AA"></path>
                <path d="M163.506,102.21 L164.738,102.21 L164.304,106.452 L163.506,106.452 L163.506,102.21 Z M160.608,102.21 L161.84,102.21 L161.406,106.452 L160.608,106.452 L160.608,102.21 Z M170.352,111.212 C170.725335,111.212 171.068332,111.163 171.381,111.065 C171.693668,110.967 171.966666,110.829334 172.2,110.652 C172.433335,110.474666 172.615333,110.260001 172.746,110.008 C172.876667,109.755999 172.942,109.476002 172.942,109.168 C172.942,108.523997 172.715669,108.064335 172.263,107.789 C171.810331,107.513665 171.201337,107.376 170.436,107.376 L169.54,107.376 L169.54,106.704 L172.298,103.218 L168.112,103.218 L168.112,102.21 L173.642,102.21 L173.642,103.218 L170.884,106.452 L171.108,106.452 C171.537335,106.452 171.929332,106.512666 172.284,106.634 C172.638668,106.755334 172.946665,106.927999 173.208,107.152 C173.469335,107.376001 173.672333,107.646665 173.817,107.964 C173.961667,108.281335 174.034,108.640665 174.034,109.042 C174.034,109.546003 173.936001,109.993998 173.74,110.386 C173.543999,110.778002 173.278002,111.106999 172.942,111.373 C172.605998,111.639001 172.211669,111.839666 171.759,111.975 C171.306331,112.110334 170.823336,112.178 170.31,112.178 C169.833998,112.178 169.421002,112.143 169.071,112.073 C168.720998,112.003 168.401335,111.916667 168.112,111.814 L168.392,110.834 C168.634668,110.946001 168.919332,111.037 169.246,111.107 C169.572668,111.177 169.941331,111.212 170.352,111.212 Z M186.662,102.014 L187.908,104.464 L189.112,102 L190.078,102.518 L188.384,104.884 L191.226,104.674 L191.226,105.808 L188.468,105.584 L190.092,107.838 L189.154,108.384 L187.852,105.878 L186.62,108.384 L185.612,107.838 L187.306,105.584 L184.534,105.808 L184.534,104.674 L187.306,104.912 L185.696,102.56 L186.662,102.014 Z M203.952,111.212 C204.325335,111.212 204.668332,111.163 204.981,111.065 C205.293668,110.967 205.566666,110.829334 205.8,110.652 C206.033335,110.474666 206.215333,110.260001 206.346,110.008 C206.476667,109.755999 206.542,109.476002 206.542,109.168 C206.542,108.523997 206.315669,108.064335 205.863,107.789 C205.410331,107.513665 204.801337,107.376 204.036,107.376 L203.14,107.376 L203.14,106.704 L205.898,103.218 L201.712,103.218 L201.712,102.21 L207.242,102.21 L207.242,103.218 L204.484,106.452 L204.708,106.452 C205.137335,106.452 205.529332,106.512666 205.884,106.634 C206.238668,106.755334 206.546665,106.927999 206.808,107.152 C207.069335,107.376001 207.272333,107.646665 207.417,107.964 C207.561667,108.281335 207.634,108.640665 207.634,109.042 C207.634,109.546003 207.536001,109.993998 207.34,110.386 C207.143999,110.778002 206.878002,111.106999 206.542,111.373 C206.205998,111.639001 205.811669,111.839666 205.359,111.975 C204.906331,112.110334 204.423336,112.178 203.91,112.178 C203.433998,112.178 203.021002,112.143 202.671,112.073 C202.320998,112.003 202.001335,111.916667 201.712,111.814 L201.992,110.834 C202.234668,110.946001 202.519332,111.037 202.846,111.107 C203.172668,111.177 203.541331,111.212 203.952,111.212 Z M212.128,109.532 C212.118667,109.485333 212.114,109.434 212.114,109.378 L212.114,109.224 C212.114,108.831998 212.186333,108.496001 212.331,108.216 C212.475667,107.935999 212.655332,107.686334 212.87,107.467 C213.084668,107.247666 213.315665,107.049334 213.563,106.872 C213.810335,106.694666 214.041332,106.505668 214.256,106.305 C214.470668,106.104332 214.650333,105.882668 214.795,105.64 C214.939667,105.397332 215.012,105.108002 215.012,104.772 C215.012,104.594666 214.97,104.403334 214.886,104.198 C214.802,103.992666 214.673668,103.801334 214.501,103.624 C214.328332,103.446666 214.104335,103.302001 213.829,103.19 C213.553665,103.077999 213.224669,103.022 212.842,103.022 C212.533998,103.022 212.256335,103.059333 212.009,103.134 C211.761665,103.208667 211.537668,103.301999 211.337,103.414 C211.136332,103.526001 210.954334,103.649666 210.791,103.785 C210.627666,103.920334 210.480667,104.048666 210.35,104.17 L209.636,103.526 C210.028002,103.031331 210.53433,102.660335 211.155,102.413 C211.77567,102.165665 212.487329,102.042 213.29,102.042 C213.775336,102.042 214.199998,102.121333 214.564,102.28 C214.928002,102.438667 215.228999,102.641665 215.467,102.889 C215.705001,103.136335 215.882333,103.411665 215.999,103.715 C216.115667,104.018335 216.174,104.314665 216.174,104.604 C216.174,105.052002 216.097001,105.427665 215.943,105.731 C215.788999,106.034335 215.595335,106.304999 215.362,106.543 C215.128666,106.781001 214.879001,106.995666 214.613,107.187 C214.346999,107.378334 214.097335,107.583666 213.864,107.803 C213.630666,108.022334 213.437001,108.267332 213.283,108.538 C213.128999,108.808668 213.052,109.139998 213.052,109.532 L212.128,109.532 Z M211.848,111.366 C211.848,111.113999 211.920333,110.915667 212.065,110.771 C212.209667,110.626333 212.403332,110.554 212.646,110.554 C212.898001,110.554 213.098666,110.626333 213.248,110.771 C213.397334,110.915667 213.472,111.113999 213.472,111.366 C213.472,111.608668 213.397334,111.804666 213.248,111.954 C213.098666,112.103334 212.898001,112.178 212.646,112.178 C212.403332,112.178 212.209667,112.103334 212.065,111.954 C211.920333,111.804666 211.848,111.608668 211.848,111.366 Z M222.306,102.21 L223.538,102.21 L223.104,106.452 L222.306,106.452 L222.306,102.21 Z M219.408,102.21 L220.64,102.21 L220.206,106.452 L219.408,106.452 L219.408,102.21 Z" id="&quot;3*3?&quot;" fill="#669900"></path>
                <path d="M17.192,156.556 C17.5933353,156.322666 18.0459975,156.154667 18.55,156.052 C19.0540025,155.949333 19.5486642,155.898 20.034,155.898 C20.5100024,155.898 20.8996652,155.972666 21.203,156.122 C21.5063349,156.271334 21.7443325,156.464999 21.917,156.703 C22.0896675,156.941001 22.206333,157.211665 22.267,157.515 C22.327667,157.818335 22.358,158.123998 22.358,158.432 C22.358,158.786668 22.3486668,159.164665 22.33,159.566 C22.3113332,159.967335 22.2973334,160.368665 22.288,160.77 C22.288,161.236669 22.3159997,161.679998 22.372,162.1 L23.31,162.1 L23.31,163.01 L21.448,163.01 L21.322,161.96 L21.252,161.96 C21.1959997,162.044 21.1120006,162.151333 21,162.282 C20.8879994,162.412667 20.7410009,162.540999 20.559,162.667 C20.3769991,162.793001 20.1553346,162.902666 19.894,162.996 C19.6326654,163.089334 19.3246684,163.136 18.97,163.136 C18.2793299,163.136 17.7333353,162.958668 17.332,162.604 C16.9306647,162.249332 16.73,161.764003 16.73,161.148 C16.73,160.671998 16.834999,160.275335 17.045,159.958 C17.2550011,159.640665 17.555998,159.398 17.948,159.23 C18.340002,159.061999 18.8136639,158.964 19.369,158.936 C19.9243361,158.908 20.5473299,158.945333 21.238,159.048 C21.2846669,158.618665 21.2916668,158.261668 21.259,157.977 C21.2263332,157.692332 21.1516673,157.466001 21.035,157.298 C20.9183328,157.129999 20.7550011,157.011 20.545,156.941 C20.334999,156.871 20.0760015,156.836 19.768,156.836 C19.3479979,156.836 18.9466686,156.894333 18.564,157.011 C18.1813314,157.127667 17.8406682,157.246666 17.542,157.368 L17.192,156.556 Z M19.25,162.198 C19.5113346,162.198 19.7539989,162.156 19.978,162.072 C20.2020011,161.988 20.3979992,161.880667 20.566,161.75 C20.7340008,161.619333 20.8739994,161.477001 20.986,161.323 C21.0980006,161.168999 21.1819997,161.022001 21.238,160.882 L21.238,159.902 C20.7526642,159.818 20.3046687,159.776 19.894,159.776 C19.4833313,159.776 19.1286682,159.820333 18.83,159.909 C18.5313318,159.997667 18.2980008,160.135332 18.13,160.322 C17.9619992,160.508668 17.878,160.751332 17.878,161.05 C17.878,161.358002 17.982999,161.626332 18.193,161.855 C18.4030011,162.083668 18.7553309,162.198 19.25,162.198 Z M25.746,153.21 L28.07,153.21 L28.07,160.658 C28.07,161.227336 28.1656657,161.628666 28.357,161.862 C28.5483343,162.095335 28.8306648,162.212 29.204,162.212 C29.4653346,162.212 29.7149988,162.165334 29.953,162.072 C30.1910012,161.978666 30.4546652,161.820001 30.744,161.596 L31.248,162.366 C31.0986659,162.496667 30.9353342,162.613333 30.758,162.716 C30.5806658,162.818667 30.3986676,162.905 30.212,162.975 C30.0253324,163.045 29.8386676,163.098666 29.652,163.136 C29.4653324,163.173334 29.2926675,163.192 29.134,163.192 C28.7886649,163.192 28.480668,163.147667 28.21,163.059 C27.939332,162.970333 27.7130009,162.828001 27.531,162.632 C27.3489991,162.435999 27.2113338,162.177002 27.118,161.855 C27.0246662,161.532998 26.978,161.134002 26.978,160.658 L26.978,154.148 L25.746,154.148 L25.746,153.21 Z M39.886,162.128 C39.7179992,162.277334 39.5196678,162.417333 39.291,162.548 C39.0623322,162.678667 38.812668,162.790666 38.542,162.884 C38.271332,162.977334 37.9890015,163.049666 37.695,163.101 C37.4009985,163.152334 37.1046682,163.178 36.806,163.178 C36.2459972,163.178 35.7513355,163.091668 35.322,162.919 C34.8926645,162.746332 34.5333348,162.499002 34.244,162.177 C33.9546652,161.854998 33.7353341,161.470002 33.586,161.022 C33.4366659,160.573998 33.362,160.070003 33.362,159.51 C33.362,158.921997 33.4436659,158.399336 33.607,157.942 C33.7703342,157.484664 34.0059985,157.102002 34.314,156.794 C34.6220015,156.485998 34.9953311,156.250334 35.434,156.087 C35.8726689,155.923666 36.362664,155.842 36.904,155.842 C37.296002,155.842 37.6833314,155.893333 38.066,155.996 C38.4486686,156.098667 38.7869985,156.292332 39.081,156.577 C39.3750015,156.861668 39.6013325,157.253664 39.76,157.753 C39.9186675,158.252336 39.9746669,158.898663 39.928,159.692 L34.51,159.692 C34.51,160.532004 34.7363311,161.159665 35.189,161.575 C35.6416689,161.990335 36.2459962,162.198 37.002,162.198 C37.2540013,162.198 37.5036654,162.167667 37.751,162.107 C37.9983346,162.046333 38.2339989,161.974 38.458,161.89 C38.6820011,161.806 38.8803325,161.712667 39.053,161.61 C39.2256675,161.507333 39.3586662,161.414 39.452,161.33 L39.886,162.128 Z M36.932,156.766 C36.6239985,156.766 36.3323347,156.798666 36.057,156.864 C35.7816653,156.929334 35.5390011,157.038999 35.329,157.193 C35.118999,157.347001 34.946334,157.547665 34.811,157.795 C34.675666,158.042335 34.5893335,158.347998 34.552,158.712 L38.906,158.712 C38.8593331,158.095997 38.6610018,157.617668 38.311,157.277 C37.9609983,156.936332 37.5013362,156.766 36.932,156.766 Z M41.804,163.01 L41.804,162.072 L43.694,162.072 L43.694,156.948 L41.804,156.948 L41.804,156.01 L44.422,156.01 L44.646,156.92 L44.716,156.92 C45.0333349,156.630665 45.387998,156.383334 45.78,156.178 C46.172002,155.972666 46.638664,155.87 47.18,155.87 C47.4973349,155.87 47.7516657,155.930666 47.943,156.052 C48.1343343,156.173334 48.2836661,156.350666 48.391,156.584 C48.4983339,156.817335 48.5706665,157.099665 48.608,157.431 C48.6453335,157.762335 48.664,158.137998 48.664,158.558 L47.684,158.572 C47.684,157.974664 47.6256673,157.536001 47.509,157.256 C47.3923328,156.975999 47.1800015,156.836 46.872,156.836 C46.5826652,156.836 46.3213345,156.878 46.088,156.962 C45.8546655,157.046 45.6516675,157.148666 45.479,157.27 C45.3063325,157.391334 45.1593339,157.512666 45.038,157.634 C44.9166661,157.755334 44.8280003,157.858 44.772,157.942 L44.772,162.072 L47.46,162.072 L47.46,163.01 L41.804,163.01 Z M49.714,156.01 L51.38,156.01 L51.38,154.624 L52.472,154.316 L52.472,156.01 L56.21,156.01 L56.21,156.948 L52.472,156.948 L52.472,160.252 C52.472,160.933337 52.637665,161.437332 52.969,161.764 C53.300335,162.090668 53.7739969,162.254 54.39,162.254 C54.8100021,162.254 55.1763318,162.174667 55.489,162.016 C55.8016682,161.857333 56.0839987,161.684668 56.336,161.498 L56.7,162.324 C56.3733317,162.585335 55.9836689,162.795333 55.531,162.954 C55.0783311,163.112667 54.6140024,163.192 54.138,163.192 C53.7646648,163.192 53.412335,163.138334 53.081,163.031 C52.749665,162.923666 52.4580013,162.758001 52.206,162.534 C51.9539987,162.309999 51.7533341,162.023002 51.604,161.673 C51.4546659,161.322998 51.38,160.905336 51.38,160.42 L51.38,156.948 L49.714,156.948 L49.714,156.01 Z" id="alert" fill="#000000"></path>
                <path d="M63.728,165.978 C63.1026635,165.819333 62.5170027,165.583668 61.971,165.271 C61.4249973,164.958332 60.949002,164.550003 60.543,164.046 C60.136998,163.541997 59.8150012,162.926004 59.577,162.198 C59.3389988,161.469996 59.22,160.606672 59.22,159.608 C59.22,158.618662 59.3413321,157.753004 59.584,157.011 C59.8266679,156.268996 60.1533313,155.639003 60.564,155.121 C60.9746687,154.602997 61.4529973,154.187668 61.999,153.875 C62.5450027,153.562332 63.1213303,153.340667 63.728,153.21 L64.078,154.092 C63.5273306,154.250667 63.0233356,154.458332 62.566,154.715 C62.1086644,154.971668 61.714335,155.312331 61.383,155.737 C61.051665,156.161669 60.7950009,156.688997 60.613,157.319 C60.4309991,157.949003 60.34,158.711996 60.34,159.608 C60.34,160.513338 60.4496656,161.285663 60.669,161.925 C60.8883344,162.564337 61.1776649,163.096331 61.537,163.521 C61.8963351,163.945669 62.2976645,164.276999 62.741,164.515 C63.1843356,164.753001 63.6299978,164.918666 64.078,165.012 L63.728,165.978 Z" id="(" fill="#999999"></path>
                <path d="M67.592,156.556 C67.9933353,156.322666 68.4459975,156.154667 68.95,156.052 C69.4540025,155.949333 69.9486642,155.898 70.434,155.898 C70.9100024,155.898 71.2996652,155.972666 71.603,156.122 C71.9063349,156.271334 72.1443325,156.464999 72.317,156.703 C72.4896675,156.941001 72.606333,157.211665 72.667,157.515 C72.727667,157.818335 72.758,158.123998 72.758,158.432 C72.758,158.786668 72.7486668,159.164665 72.73,159.566 C72.7113332,159.967335 72.6973334,160.368665 72.688,160.77 C72.688,161.236669 72.7159997,161.679998 72.772,162.1 L73.71,162.1 L73.71,163.01 L71.848,163.01 L71.722,161.96 L71.652,161.96 C71.5959997,162.044 71.5120006,162.151333 71.4,162.282 C71.2879994,162.412667 71.1410009,162.540999 70.959,162.667 C70.7769991,162.793001 70.5553346,162.902666 70.294,162.996 C70.0326654,163.089334 69.7246684,163.136 69.37,163.136 C68.6793299,163.136 68.1333353,162.958668 67.732,162.604 C67.3306647,162.249332 67.13,161.764003 67.13,161.148 C67.13,160.671998 67.234999,160.275335 67.445,159.958 C67.6550011,159.640665 67.955998,159.398 68.348,159.23 C68.740002,159.061999 69.2136639,158.964 69.769,158.936 C70.3243361,158.908 70.9473299,158.945333 71.638,159.048 C71.6846669,158.618665 71.6916668,158.261668 71.659,157.977 C71.6263332,157.692332 71.5516673,157.466001 71.435,157.298 C71.3183328,157.129999 71.1550011,157.011 70.945,156.941 C70.734999,156.871 70.4760015,156.836 70.168,156.836 C69.7479979,156.836 69.3466686,156.894333 68.964,157.011 C68.5813314,157.127667 68.2406682,157.246666 67.942,157.368 L67.592,156.556 Z M69.65,162.198 C69.9113346,162.198 70.1539989,162.156 70.378,162.072 C70.6020011,161.988 70.7979992,161.880667 70.966,161.75 C71.1340008,161.619333 71.2739994,161.477001 71.386,161.323 C71.4980006,161.168999 71.5819997,161.022001 71.638,160.882 L71.638,159.902 C71.1526642,159.818 70.7046687,159.776 70.294,159.776 C69.8833313,159.776 69.5286682,159.820333 69.23,159.909 C68.9313318,159.997667 68.6980008,160.135332 68.53,160.322 C68.3619992,160.508668 68.278,160.751332 68.278,161.05 C68.278,161.358002 68.382999,161.626332 68.593,161.855 C68.8030011,162.083668 69.1553309,162.198 69.65,162.198 Z M80.612,161.12 C80.612,160.821332 80.4953345,160.590334 80.262,160.427 C80.0286655,160.263666 79.7393351,160.133 79.394,160.035 C79.0486649,159.937 78.673002,159.846 78.267,159.762 C77.860998,159.678 77.4853351,159.566001 77.14,159.426 C76.7946649,159.285999 76.5053345,159.097001 76.272,158.859 C76.0386655,158.620999 75.922,158.287335 75.922,157.858 C75.922,157.503332 75.9989992,157.200001 76.153,156.948 C76.3070008,156.695999 76.5099987,156.488334 76.762,156.325 C77.0140013,156.161666 77.3079983,156.040334 77.644,155.961 C77.9800017,155.881666 78.3299982,155.842 78.694,155.842 C79.3473366,155.842 79.9096643,155.923666 80.381,156.087 C80.8523357,156.250334 81.2279986,156.420666 81.508,156.598 L81.06,157.48 C80.7519985,157.311999 80.4183351,157.151001 80.059,156.997 C79.6996649,156.842999 79.249336,156.766 78.708,156.766 C78.5026656,156.766 78.2996677,156.787 78.099,156.829 C77.8983323,156.871 77.7163342,156.934 77.553,157.018 C77.3896659,157.102 77.2590005,157.211666 77.161,157.347 C77.0629995,157.482334 77.014,157.647999 77.014,157.844 C77.014,158.086668 77.1306655,158.273333 77.364,158.404 C77.5973345,158.534667 77.8866649,158.644333 78.232,158.733 C78.5773351,158.821667 78.952998,158.905666 79.359,158.985 C79.765002,159.064334 80.1406649,159.178666 80.486,159.328 C80.8313351,159.477334 81.1206655,159.677999 81.354,159.93 C81.5873345,160.182001 81.704,160.522665 81.704,160.952 C81.704,161.596003 81.4496692,162.127998 80.941,162.548 C80.4323308,162.968002 79.6693384,163.178 78.652,163.178 C78.3439985,163.178 78.0406682,163.15 77.742,163.094 C77.4433318,163.038 77.1633346,162.963334 76.902,162.87 C76.6406654,162.776666 76.4026677,162.671667 76.188,162.555 C75.9733323,162.438333 75.7960007,162.319334 75.656,162.198 L76.216,161.288 C76.3280006,161.400001 76.4773324,161.514333 76.664,161.631 C76.8506676,161.747667 77.0559989,161.852666 77.28,161.946 C77.5040011,162.039334 77.7443321,162.114 78.001,162.17 C78.257668,162.226 78.5166654,162.254 78.778,162.254 C79.0300013,162.254 79.2656656,162.233 79.485,162.191 C79.7043344,162.149 79.8979992,162.083667 80.066,161.995 C80.2340008,161.906333 80.3669995,161.789667 80.465,161.645 C80.5630005,161.500333 80.612,161.325334 80.612,161.12 Z M83.216,153.21 L85.484,153.21 L85.484,159.006 L86.254,159.006 L89.012,156.01 L90.328,156.01 L87.234,159.328 L89.782,162.072 L90.692,162.072 L90.692,163.01 L89.25,163.01 L86.254,159.846 L85.484,159.846 L85.484,163.01 L84.406,163.01 L84.406,154.148 L83.216,154.148 L83.216,153.21 Z M98.28,155.688 C98.28,156.546671 97.8740041,157.503328 97.062,158.558 C96.2499959,159.612672 95.1160073,160.76066 93.66,162.002 L98.588,162.002 L98.588,163.01 L92.372,163.01 L92.372,162.002 C92.5493342,161.833999 92.7919985,161.614668 93.1,161.344 C93.4080015,161.073332 93.7393316,160.772335 94.094,160.441 C94.4486684,160.109665 94.8103315,159.752669 95.179,159.37 C95.5476685,158.987331 95.8813318,158.595335 96.18,158.194 C96.4786682,157.792665 96.7213324,157.391335 96.908,156.99 C97.0946676,156.588665 97.188,156.201335 97.188,155.828 C97.188,155.267997 97.0410015,154.827002 96.747,154.505 C96.4529985,154.182998 96.0120029,154.022 95.424,154.022 C94.9199975,154.022 94.4953351,154.077999 94.15,154.19 C93.8046649,154.302001 93.4920014,154.465332 93.212,154.68 L92.736,153.91 C93.1560021,153.611332 93.6016643,153.392001 94.073,153.252 C94.5443357,153.111999 95.0599972,153.042 95.62,153.042 C96.4973377,153.042 97.1599978,153.279998 97.608,153.756 C98.0560022,154.232002 98.28,154.875996 98.28,155.688 Z" id="ask2" fill="#000000"></path>
                <path d="M101.682,165.012 C102.130002,164.918666 102.575664,164.753001 103.019,164.515 C103.462336,164.276999 103.863665,163.945669 104.223,163.521 C104.582335,163.096331 104.871666,162.564337 105.091,161.925 C105.310334,161.285663 105.42,160.513338 105.42,159.608 C105.42,158.711996 105.329001,157.949003 105.147,157.319 C104.964999,156.688997 104.708335,156.161669 104.377,155.737 C104.045665,155.312331 103.651336,154.971668 103.194,154.715 C102.736664,154.458332 102.232669,154.250667 101.682,154.092 L102.032,153.21 C102.63867,153.340667 103.214997,153.562332 103.761,153.875 C104.307003,154.187668 104.785331,154.602997 105.196,155.121 C105.606669,155.639003 105.933332,156.268996 106.176,157.011 C106.418668,157.753004 106.54,158.618662 106.54,159.608 C106.54,160.606672 106.421001,161.469996 106.183,162.198 C105.944999,162.926004 105.623002,163.541997 105.217,164.046 C104.810998,164.550003 104.335003,164.958332 103.789,165.271 C103.242997,165.583668 102.657336,165.819333 102.032,165.978 L101.682,165.012 Z M111.286,162.24 C111.286,161.959999 111.376999,161.733668 111.559,161.561 C111.741001,161.388332 111.976665,161.302 112.266,161.302 C112.620668,161.302 112.895999,161.425665 113.092,161.673 C113.288001,161.920335 113.386,162.267998 113.386,162.716 C113.386,163.080002 113.325334,163.399665 113.204,163.675 C113.082666,163.950335 112.931001,164.183666 112.749,164.375 C112.566999,164.566334 112.371001,164.720333 112.161,164.837 C111.950999,164.953667 111.757334,165.04 111.58,165.096 L111.23,164.55 C111.566002,164.419333 111.855332,164.232668 112.098,163.99 C112.340668,163.747332 112.462,163.453335 112.462,163.108 C112.331333,163.136 112.228667,163.15 112.154,163.15 C111.883332,163.15 111.671001,163.073001 111.517,162.919 C111.362999,162.764999 111.286,162.538668 111.286,162.24 Z M111.412,156.738 C111.412,156.439332 111.495999,156.208334 111.664,156.045 C111.832001,155.881666 112.055999,155.8 112.336,155.8 C112.634668,155.8 112.867999,155.881666 113.036,156.045 C113.204001,156.208334 113.288,156.439332 113.288,156.738 C113.288,157.008668 113.204001,157.232666 113.036,157.41 C112.867999,157.587334 112.634668,157.676 112.336,157.676 C112.055999,157.676 111.832001,157.587334 111.664,157.41 C111.495999,157.232666 111.412,157.008668 111.412,156.738 Z" id=");" fill="#999999"></path>
                <path d="M131.194,153.042 L132.076,153.434 L126.966,164.97 L126.084,164.578 L131.194,153.042 Z M139.594,153.042 L140.476,153.434 L135.366,164.97 L134.484,164.578 L139.594,153.042 Z M150.934,156.164 C150.934,155.734665 151.003999,155.331002 151.144,154.953 C151.284001,154.574998 151.496332,154.243668 151.781,153.959 C152.065668,153.674332 152.417998,153.450334 152.838,153.287 C153.258002,153.123666 153.747997,153.042 154.308,153.042 C154.830669,153.042 155.297331,153.125999 155.708,153.294 C156.118669,153.462001 156.466332,153.697665 156.751,154.001 C157.035668,154.304335 157.252666,154.672998 157.402,155.107 C157.551334,155.541002 157.626,156.023997 157.626,156.556 C157.626,157.601339 157.495335,158.520663 157.234,159.314 C156.972665,160.107337 156.608669,160.779331 156.142,161.33 C155.675331,161.880669 155.122337,162.309998 154.483,162.618 C153.843663,162.926002 153.15067,163.112666 152.404,163.178 L152.194,162.296 C152.810003,162.230666 153.360664,162.081334 153.846,161.848 C154.331336,161.614665 154.751332,161.316002 155.106,160.952 C155.460668,160.587998 155.749999,160.168002 155.974,159.692 C156.198001,159.215998 156.352,158.707336 156.436,158.166 C156.286666,158.324667 156.135001,158.457666 155.981,158.565 C155.826999,158.672334 155.656668,158.758666 155.47,158.824 C155.283332,158.889334 155.078001,158.936 154.854,158.964 C154.629999,158.992 154.373335,159.006 154.084,159.006 C153.654665,159.006 153.248669,158.940667 152.866,158.81 C152.483331,158.679333 152.149668,158.490335 151.865,158.243 C151.580332,157.995665 151.354001,157.697002 151.186,157.347 C151.017999,156.996998 150.934,156.602669 150.934,156.164 Z M152.082,156.052 C152.082,156.724003 152.284998,157.227998 152.691,157.564 C153.097002,157.900002 153.635997,158.068 154.308,158.068 C154.840003,158.068 155.299665,157.986334 155.687,157.823 C156.074335,157.659666 156.347333,157.456668 156.506,157.214 C156.524667,157.083333 156.534,156.978334 156.534,156.899 C156.534,156.819666 156.534,156.728667 156.534,156.626 C156.534,156.299332 156.489667,155.977335 156.401,155.66 C156.312333,155.342665 156.174668,155.058001 155.988,154.806 C155.801332,154.553999 155.561001,154.351001 155.267,154.197 C154.972999,154.042999 154.620669,153.966 154.21,153.966 C153.537997,153.966 153.015335,154.147998 152.642,154.512 C152.268665,154.876002 152.082,155.38933 152.082,156.052 Z" id="//9" fill="#708090"></path>
                <path d="M4.2,180.934 C4.2,181.690004 4.00166865,182.261665 3.605,182.649 C3.20833135,183.036335 2.6833366,183.23 2.03,183.23 L1.52766688e-13,183.23 L1.52766688e-13,182.25 L1.526,182.25 C2.09533618,182.25 2.50133212,182.114668 2.744,181.844 C2.98666788,181.573332 3.108,181.153336 3.108,180.584 L3.108,179.24 C3.108,178.875998 3.1779993,178.544668 3.318,178.246 C3.4580007,177.947332 3.62599902,177.688334 3.822,177.469 C4.01800098,177.249666 4.21866564,177.077001 4.424,176.951 C4.62933436,176.824999 4.79733268,176.752667 4.928,176.734 L4.928,176.65 C4.79733268,176.631333 4.62933436,176.563667 4.424,176.447 C4.21866564,176.330333 4.01800098,176.171668 3.822,175.971 C3.62599902,175.770332 3.4580007,175.520668 3.318,175.222 C3.1779993,174.923332 3.108,174.582669 3.108,174.2 L3.108,172.842 C3.108,172.291331 2.99366781,171.876001 2.765,171.596 C2.53633219,171.315999 2.12800294,171.176 1.54,171.176 L1.52766688e-13,171.176 L1.52766688e-13,170.196 L2.03,170.196 C2.34733492,170.196 2.63899867,170.254333 2.905,170.371 C3.17100133,170.487667 3.39966571,170.648666 3.591,170.854 C3.78233429,171.059334 3.93166613,171.301999 4.039,171.582 C4.14633387,171.862001 4.2,172.169998 4.2,172.506 L4.2,173.934 C4.2,174.363335 4.26766599,174.722665 4.403,175.012 C4.53833401,175.301335 4.70633233,175.536999 4.907,175.719 C5.10766767,175.901001 5.32233219,176.031666 5.551,176.111 C5.77966781,176.190334 5.98266578,176.23 6.16,176.23 L6.16,177.21 C5.98266578,177.21 5.77966781,177.256666 5.551,177.35 C5.32233219,177.443334 5.10766767,177.587999 4.907,177.784 C4.70633233,177.980001 4.53833401,178.224999 4.403,178.519 C4.26766599,178.813001 4.2,179.160665 4.2,179.562 L4.2,180.934 Z" id="}" fill="#999999"></path>
            </g>
            <text id="&quot;2-+-2?&quot;" font-family="PTMono-Regular, PT Mono" font-size="14" font-weight="normal" fill="#558A03">
                <tspan x="351" y="77">"2 + 2?"</tspan>
            </text>
            <path id="Line-Copy-8" d="M329.5,172.5 L282.5,172.5 L282.5,170.5 L329.5,170.5 L329.5,164.5 L343.5,171.5 L329.5,178.5 L329.5,172.5 Z" fill="#EE6B47" fill-rule="nonzero"></path>
            <path id="Line-Copy-9" d="M330.5,75.5 L285.5,75.5 L285.5,73.5 L330.5,73.5 L330.5,67.5 L344.5,74.5 L330.5,81.5 L330.5,75.5 Z" fill="#EE6B47" fill-rule="nonzero"></path>
            <text id="&quot;3-*-3?&quot;" font-family="PTMono-Regular, PT Mono" font-size="14" font-weight="normal" fill="#558A03">
                <tspan x="351" y="174">"3 * 3?"</tspan>
            </text>
            <text id=".next(4)" font-family="PTMono-Regular, PT Mono" font-size="14" font-weight="normal">
                <tspan x="351" y="114" fill="#878787">.</tspan>
                <tspan x="359.4" y="114" fill="#000000">next</tspan>
                <tspan x="393" y="114" fill="#878787">(</tspan>
                <tspan x="401.4" y="114" fill="#850043">4</tspan>
                <tspan x="409.8" y="114" fill="#878787">)</tspan>
            </text>
            <path id="Line-Copy-2" d="M113,100 L113,111.554662 L340.5,111.554662 L340.5,113.554662 L111,113.554662 L111,100 L105,100 L112,86 L119,100 L113,100 Z" fill="#EE6B47" fill-rule="nonzero"></path>
            <path id="Line-Copy-3" d="M113,187 L113,198.554662 L340.5,198.554662 L340.5,200.554662 L111,200.554662 L111,187 L105,187 L112,173 L119,187 L113,187 Z" fill="#EE6B47" fill-rule="nonzero"></path>
            <text id=".next(9)" font-family="PTMono-Regular, PT Mono" font-size="14" font-weight="normal">
                <tspan x="351" y="200" fill="#878787">.</tspan>
                <tspan x="359.4" y="200" fill="#000000">next</tspan>
                <tspan x="393" y="200" fill="#878787">(</tspan>
                <tspan x="401.4" y="200" fill="#850043">9</tspan>
                <tspan x="409.8" y="200" fill="#878787">)</tspan>
            </text>
            <text id="Generator" font-family="OpenSans-Regular, Open Sans" font-size="14" font-weight="normal" fill="#000000">
                <tspan x="95" y="15">Generator</tspan>
            </text>
            <text id="Calling-code" font-family="OpenSans-Regular, Open Sans" font-size="14" font-weight="normal" fill="#000000">
                <tspan x="345" y="15">Calling code</tspan>
            </text>
        </g>
    </g>
</svg>