<?xml version="1.0" encoding="UTF-8"?>
<svg width="528px" height="216px" viewBox="0 0 528 216" version="1.1" xmlns="http://www.w3.org/2000/svg" xmlns:xlink="http://www.w3.org/1999/xlink">
    <!-- Generator: sketchtool 55.2 (78181) - https://sketchapp.com -->
    <title>genYield2.svg</title>
    <desc>Created with sketchtool.</desc>
    <g id="generator" stroke="none" stroke-width="1" fill="none" fill-rule="evenodd">
        <g id="genYield2.svg">
            <rect id="Rectangle-1" stroke="#E8C48E" stroke-width="2" fill="#FFF9EB" x="32" y="45" width="277" height="138"></rect>
            <g id="function*-gen()-{-le" transform="translate(53.120000, 62.990000)" fill-rule="nonzero">
                <path d="M0.112,10.01 L0.112,9.072 L1.778,9.072 L1.778,3.948 L0.112,3.948 L0.112,3.01 L1.778,3.01 L1.778,2.618 C1.778,1.74066228 2.00666438,1.10600196 2.464,0.714 C2.92133562,0.32199804 3.57466242,0.126 4.424,0.126 C4.73200154,0.126 5.00733212,0.14466648 5.25,0.182 C5.49266788,0.21933352 5.7539986,0.29399944 6.034,0.406 L5.782,1.316 C5.53933212,1.21333282 5.30600112,1.14566683 5.082,1.113 C4.85799888,1.08033317 4.6526676,1.064 4.466,1.064 C3.84999692,1.064 3.43000112,1.21566515 3.206,1.519 C2.98199888,1.82233485 2.87,2.31932988 2.87,3.01 L5.768,3.01 L5.768,3.948 L2.87,3.948 L2.87,9.072 L5.768,9.072 L5.768,10.01 L0.112,10.01 Z M12.362,3.01 L14.35,3.01 L14.35,7.784 C14.35,8.24133562 14.3779997,8.6799979 14.434,9.1 L15.372,9.1 L15.372,10.01 L13.51,10.01 L13.468,8.82 L13.412,8.82 C13.1693321,9.22133534 12.8473353,9.54799874 12.446,9.8 C12.0446647,10.0520013 11.5593362,10.178 10.99,10.178 C10.5606645,10.178 10.1943348,10.1290005 9.891,10.031 C9.58766515,9.93299951 9.33800098,9.76266788 9.142,9.52 C8.94599902,9.27733212 8.8013338,8.95300203 8.708,8.547 C8.6146662,8.14099797 8.568,7.6346697 8.568,7.028 L8.568,3.948 L7.63,3.948 L7.63,3.01 L9.66,3.01 L9.66,6.804 C9.66,7.18666858 9.67633317,7.52966515 9.709,7.833 C9.74166683,8.13633485 9.80933282,8.39299895 9.912,8.603 C10.0146672,8.81300105 10.1663323,8.97166613 10.367,9.079 C10.5676677,9.18633387 10.8359983,9.24 11.172,9.24 C11.6573358,9.24 12.0796649,9.08133492 12.439,8.764 C12.7983351,8.44666508 13.0713324,8.05000238 13.258,7.574 L13.258,3.948 L12.362,3.948 L12.362,3.01 Z M16.982,5.46 C16.982,5.37599958 16.9796667,5.26633401 16.975,5.131 C16.9703333,4.99566599 16.9633334,4.85566739 16.954,4.711 C16.9446666,4.56633261 16.9330001,4.4240007 16.919,4.284 C16.9049999,4.1439993 16.8886668,4.02266718 16.87,3.92 L15.932,3.92 L15.932,3.01 L17.808,3.01 L17.934,4.144 L18.004,4.144 C18.0973338,3.98533254 18.2209992,3.82900077 18.375,3.675 C18.5290008,3.52099923 18.7086656,3.38100063 18.914,3.255 C19.1193344,3.12899937 19.3479987,3.02866704 19.6,2.954 C19.8520013,2.87933296 20.1179986,2.842 20.398,2.842 C20.8273355,2.842 21.207665,2.8886662 21.539,2.982 C21.870335,3.0753338 22.1456656,3.24099881 22.365,3.479 C22.5843344,3.71700119 22.7499994,4.03899797 22.862,4.445 C22.9740006,4.85100203 23.03,5.36666354 23.03,5.992 L23.03,10.01 L21.938,10.01 L21.938,6.202 C21.938,5.42732946 21.8120013,4.84400196 21.56,4.452 C21.3079987,4.05999804 20.85067,3.864 20.188,3.864 C19.9453321,3.864 19.7096678,3.91299951 19.481,4.011 C19.2523322,4.10900049 19.0446676,4.23733254 18.858,4.396 C18.6713324,4.55466746 18.5080007,4.73899895 18.368,4.949 C18.2279993,5.15900105 18.1253337,5.3806655 18.06,5.614 L18.06,10.01 L16.982,10.01 L16.982,5.46 Z M30.226,4.088 C30.0113323,4.01333296 29.7803346,3.95033359 29.533,3.899 C29.2856654,3.84766641 29.0406679,3.822 28.798,3.822 C27.8833288,3.822 27.2020022,4.03666452 26.754,4.466 C26.3059978,4.89533548 26.082,5.576662 26.082,6.51 C26.082,6.92066872 26.1473327,7.28699839 26.278,7.609 C26.4086673,7.93100161 26.5953321,8.20399888 26.838,8.428 C27.0806679,8.65200112 27.3723316,8.82466606 27.713,8.946 C28.0536684,9.06733394 28.4293313,9.128 28.84,9.128 C29.2786689,9.128 29.7056646,9.05333408 30.121,8.904 C30.5363354,8.75466592 30.8839986,8.55866788 31.164,8.316 L31.654,9.128 C31.5233327,9.24000056 31.360001,9.35666606 31.164,9.478 C30.967999,9.59933394 30.7416679,9.71366613 30.485,9.821 C30.228332,9.92833387 29.9436682,10.0146663 29.631,10.08 C29.3183318,10.1453337 28.9800018,10.178 28.616,10.178 C28.0093303,10.178 27.4750023,10.0916675 27.013,9.919 C26.5509977,9.74633247 26.1660015,9.49900161 25.858,9.177 C25.5499985,8.85499839 25.3166675,8.46766893 25.158,8.015 C24.9993325,7.56233107 24.92,7.06066942 24.92,6.51 C24.92,5.92199706 25.0016658,5.39933562 25.165,4.942 C25.3283341,4.48466438 25.5639985,4.10200154 25.872,3.794 C26.1800015,3.48599846 26.5533311,3.25033415 26.992,3.087 C27.4306689,2.92366585 27.920664,2.842 28.462,2.842 C29.1526701,2.842 29.7149978,2.90266606 30.149,3.024 C30.5830022,3.14533394 30.9493318,3.28066592 31.248,3.43 L31.234,3.472 L31.234,5.418 L30.226,5.418 L30.226,4.088 Z M32.914,3.01 L34.58,3.01 L34.58,1.624 L35.672,1.316 L35.672,3.01 L39.41,3.01 L39.41,3.948 L35.672,3.948 L35.672,7.252 C35.672,7.93333674 35.837665,8.4373317 36.169,8.764 C36.500335,9.0906683 36.9739969,9.254 37.59,9.254 C38.0100021,9.254 38.3763318,9.17466746 38.689,9.016 C39.0016682,8.85733254 39.2839987,8.6846676 39.536,8.498 L39.9,9.324 C39.5733317,9.58533464 39.1836689,9.79533254 38.731,9.954 C38.2783311,10.1126675 37.8140024,10.192 37.338,10.192 C36.9646648,10.192 36.612335,10.1383339 36.281,10.031 C35.949665,9.92366613 35.6580013,9.75800112 35.406,9.534 C35.1539987,9.30999888 34.9533341,9.02300175 34.804,8.673 C34.6546659,8.32299825 34.58,7.90533576 34.58,7.42 L34.58,3.948 L32.914,3.948 L32.914,3.01 Z M42.35,10.01 L42.35,9.072 L44.786,9.072 L44.786,3.948 L42.35,3.948 L42.35,3.01 L45.906,3.01 L45.906,9.072 L48.286,9.072 L48.286,10.01 L42.35,10.01 Z M44.408,1.022 C44.408,0.76999874 44.4919992,0.55300091 44.66,0.371 C44.8280008,0.18899909 45.0426654,0.098 45.304,0.098 C45.574668,0.098 45.8009991,0.18899909 45.983,0.371 C46.1650009,0.55300091 46.256,0.76999874 46.256,1.022 C46.256,1.26466788 46.1650009,1.46999916 45.983,1.638 C45.8009991,1.80600084 45.574668,1.89 45.304,1.89 C45.0426654,1.89 44.8280008,1.80600084 44.66,1.638 C44.4919992,1.46999916 44.408,1.26466788 44.408,1.022 Z M50.078,6.51 C50.078,5.38066102 50.3719971,4.48700329 50.96,3.829 C51.5480029,3.17099671 52.3879945,2.842 53.48,2.842 C54.0680029,2.842 54.5743312,2.93766571 54.999,3.129 C55.4236688,3.32033429 55.7759986,3.5793317 56.056,3.906 C56.3360014,4.2326683 56.543666,4.61999776 56.679,5.068 C56.814334,5.51600224 56.882,5.9966641 56.882,6.51 C56.882,7.0700028 56.8073341,7.57633107 56.658,8.029 C56.5086659,8.48166893 56.2893348,8.86666508 56,9.184 C55.7106652,9.50133492 55.3536688,9.74633247 54.929,9.919 C54.5043312,10.0916675 54.021336,10.178 53.48,10.178 C52.9013304,10.178 52.3973355,10.0823343 51.968,9.891 C51.5386645,9.69966571 51.1840014,9.4406683 50.904,9.114 C50.6239986,8.7873317 50.416334,8.40000224 50.281,7.952 C50.145666,7.50399776 50.078,7.0233359 50.078,6.51 Z M51.24,6.51 C51.24,6.8366683 51.2796663,7.1633317 51.359,7.49 C51.4383337,7.8166683 51.5666658,8.11066536 51.744,8.372 C51.9213342,8.63333464 52.1523319,8.84333254 52.437,9.002 C52.7216681,9.16066746 53.0693313,9.24 53.48,9.24 C54.2266704,9.24 54.7889981,9.00900231 55.167,8.547 C55.5450019,8.08499769 55.734,7.40600448 55.734,6.51 C55.734,6.17399832 55.6943337,5.84500161 55.615,5.523 C55.5356663,5.20099839 55.4050009,4.90933464 55.223,4.648 C55.0409991,4.38666536 54.8076681,4.17666746 54.523,4.018 C54.2383319,3.85933254 53.8906687,3.78 53.48,3.78 C52.7333296,3.78 52.1733352,4.00866438 51.8,4.466 C51.4266648,4.92333562 51.24,5.60466214 51.24,6.51 Z M58.982,5.46 C58.982,5.37599958 58.9796667,5.26633401 58.975,5.131 C58.9703333,4.99566599 58.9633334,4.85566739 58.954,4.711 C58.9446666,4.56633261 58.9330001,4.4240007 58.919,4.284 C58.9049999,4.1439993 58.8886668,4.02266718 58.87,3.92 L57.932,3.92 L57.932,3.01 L59.808,3.01 L59.934,4.144 L60.004,4.144 C60.0973338,3.98533254 60.2209992,3.82900077 60.375,3.675 C60.5290008,3.52099923 60.7086656,3.38100063 60.914,3.255 C61.1193344,3.12899937 61.3479987,3.02866704 61.6,2.954 C61.8520013,2.87933296 62.1179986,2.842 62.398,2.842 C62.8273355,2.842 63.207665,2.8886662 63.539,2.982 C63.870335,3.0753338 64.1456656,3.24099881 64.365,3.479 C64.5843344,3.71700119 64.7499994,4.03899797 64.862,4.445 C64.9740006,4.85100203 65.03,5.36666354 65.03,5.992 L65.03,10.01 L63.938,10.01 L63.938,6.202 C63.938,5.42732946 63.8120013,4.84400196 63.56,4.452 C63.3079987,4.05999804 62.85067,3.864 62.188,3.864 C61.9453321,3.864 61.7096678,3.91299951 61.481,4.011 C61.2523322,4.10900049 61.0446676,4.23733254 60.858,4.396 C60.6713324,4.55466746 60.5080007,4.73899895 60.368,4.949 C60.2279993,5.15900105 60.1253337,5.3806655 60.06,5.614 L60.06,10.01 L58.982,10.01 L58.982,5.46 Z" id="function" fill="#0077AA"></path>
                <polygon id="*" fill="#A67F59" points="69.062 0.014 70.308 2.464 71.512 9.23705556e-13 72.478 0.518 70.784 2.884 73.626 2.674 73.626 3.808 70.868 3.584 72.492 5.838 71.554 6.384 70.252 3.878 69.02 6.384 68.012 5.838 69.706 3.584 66.934 3.808 66.934 2.674 69.706 2.912 68.096 0.56"></polygon>
                <path d="M90.216,10.36 C90.216,10.7986689 90.1320008,11.183665 89.964,11.515 C89.7959992,11.846335 89.5650015,12.1193323 89.271,12.334 C88.9769985,12.5486677 88.634002,12.7096661 88.242,12.817 C87.849998,12.9243339 87.4253356,12.978 86.968,12.978 C86.4173306,12.978 85.9366687,12.9220006 85.526,12.81 C85.1153313,12.6979994 84.7606682,12.5533342 84.462,12.376 L84.994,11.382 C85.0780004,11.456667 85.187666,11.5289996 85.323,11.599 C85.458334,11.6690003 85.6146658,11.734333 85.792,11.795 C85.9693342,11.855667 86.1583323,11.9046665 86.359,11.942 C86.5596677,11.9793335 86.757999,11.998 86.954,11.998 C87.3646687,11.998 87.7076653,11.960667 87.983,11.886 C88.2583347,11.811333 88.4799992,11.6946675 88.648,11.536 C88.8160008,11.3773325 88.937333,11.1720013 89.012,10.92 C89.086667,10.6679987 89.124,10.3600018 89.124,9.996 L89.124,9.212 L89.068,9.212 C88.8533323,9.52000154 88.5780017,9.75799916 88.242,9.926 C87.9059983,10.0940008 87.4720027,10.178 86.94,10.178 C85.8759947,10.178 85.0943358,9.88166963 84.595,9.289 C84.0956642,8.69633037 83.846,7.77467292 83.846,6.524 C83.846,5.32932736 84.1633302,4.42633639 84.798,3.815 C85.4326698,3.20366361 86.3753271,2.898 87.626,2.898 C88.2046696,2.898 88.696998,2.93766627 89.103,3.017 C89.509002,3.09633373 89.8799983,3.19666606 90.216,3.318 L90.216,10.36 Z M87.094,9.24 C87.6633362,9.24 88.1113317,9.09300147 88.438,8.799 C88.7646683,8.50499853 88.9933327,8.0546697 89.124,7.448 L89.124,4.13 C88.7133313,3.93399902 88.139337,3.836 87.402,3.836 C86.6553296,3.836 86.0673355,4.05533114 85.638,4.494 C85.2086645,4.93266886 84.994,5.60466214 84.994,6.51 C84.994,6.91133534 85.031333,7.27766501 85.106,7.609 C85.180667,7.94033499 85.2996659,8.22733212 85.463,8.47 C85.6263342,8.71266788 85.8409987,8.90166599 86.107,9.037 C86.3730013,9.17233401 86.701998,9.24 87.094,9.24 Z M98.686,9.128 C98.5179992,9.27733408 98.3196678,9.41733268 98.091,9.548 C97.8623322,9.67866732 97.612668,9.7906662 97.342,9.884 C97.071332,9.9773338 96.7890015,10.0496664 96.495,10.101 C96.2009985,10.1523336 95.9046682,10.178 95.606,10.178 C95.0459972,10.178 94.5513355,10.0916675 94.122,9.919 C93.6926645,9.74633247 93.3333348,9.49900161 93.044,9.177 C92.7546652,8.85499839 92.5353341,8.47000224 92.386,8.022 C92.2366659,7.57399776 92.162,7.0700028 92.162,6.51 C92.162,5.92199706 92.2436659,5.39933562 92.407,4.942 C92.5703342,4.48466438 92.8059985,4.10200154 93.114,3.794 C93.4220015,3.48599846 93.7953311,3.25033415 94.234,3.087 C94.6726689,2.92366585 95.162664,2.842 95.704,2.842 C96.096002,2.842 96.4833314,2.89333282 96.866,2.996 C97.2486686,3.09866718 97.5869985,3.29233191 97.881,3.577 C98.1750015,3.86166809 98.4013325,4.25366417 98.56,4.753 C98.7186675,5.25233583 98.7746669,5.8986627 98.728,6.692 L93.31,6.692 C93.31,7.5320042 93.5363311,8.15966459 93.989,8.575 C94.4416689,8.99033541 95.0459962,9.198 95.802,9.198 C96.0540013,9.198 96.3036654,9.16766697 96.551,9.107 C96.7983346,9.04633303 97.0339989,8.97400042 97.258,8.89 C97.4820011,8.80599958 97.6803325,8.71266718 97.853,8.61 C98.0256675,8.50733282 98.1586662,8.41400042 98.252,8.33 L98.686,9.128 Z M95.732,3.766 C95.4239985,3.766 95.1323347,3.79866634 94.857,3.864 C94.5816653,3.92933366 94.3390011,4.03899923 94.129,4.193 C93.918999,4.34700077 93.746334,4.54766543 93.611,4.795 C93.475666,5.04233457 93.3893335,5.34799818 93.352,5.712 L97.706,5.712 C97.6593331,5.09599692 97.4610018,4.61766837 97.111,4.277 C96.7609983,3.93633163 96.3013362,3.766 95.732,3.766 Z M100.982,5.46 C100.982,5.37599958 100.979667,5.26633401 100.975,5.131 C100.970333,4.99566599 100.963333,4.85566739 100.954,4.711 C100.944667,4.56633261 100.933,4.4240007 100.919,4.284 C100.905,4.1439993 100.888667,4.02266718 100.87,3.92 L99.932,3.92 L99.932,3.01 L101.808,3.01 L101.934,4.144 L102.004,4.144 C102.097334,3.98533254 102.220999,3.82900077 102.375,3.675 C102.529001,3.52099923 102.708666,3.38100063 102.914,3.255 C103.119334,3.12899937 103.347999,3.02866704 103.6,2.954 C103.852001,2.87933296 104.117999,2.842 104.398,2.842 C104.827335,2.842 105.207665,2.8886662 105.539,2.982 C105.870335,3.0753338 106.145666,3.24099881 106.365,3.479 C106.584334,3.71700119 106.749999,4.03899797 106.862,4.445 C106.974001,4.85100203 107.03,5.36666354 107.03,5.992 L107.03,10.01 L105.938,10.01 L105.938,6.202 C105.938,5.42732946 105.812001,4.84400196 105.56,4.452 C105.307999,4.05999804 104.85067,3.864 104.188,3.864 C103.945332,3.864 103.709668,3.91299951 103.481,4.011 C103.252332,4.10900049 103.044668,4.23733254 102.858,4.396 C102.671332,4.55466746 102.508001,4.73899895 102.368,4.949 C102.227999,5.15900105 102.125334,5.3806655 102.06,5.614 L102.06,10.01 L100.982,10.01 L100.982,5.46 Z" id="gen" fill="#000000"></path>
                <path d="M114.128,12.978 C113.502664,12.8193325 112.917003,12.5836682 112.371,12.271 C111.824997,11.9583318 111.349002,11.5500025 110.943,11.046 C110.536998,10.5419975 110.215001,9.92600364 109.977,9.198 C109.738999,8.46999636 109.62,7.60667166 109.62,6.608 C109.62,5.61866172 109.741332,4.75300371 109.984,4.011 C110.226668,3.26899629 110.553331,2.63900259 110.964,2.121 C111.374669,1.60299741 111.852997,1.18766823 112.399,0.875 C112.945003,0.56233177 113.52133,0.34066732 114.128,0.21 L114.478,1.092 C113.927331,1.25066746 113.423336,1.45833205 112.966,1.715 C112.508664,1.97166795 112.114335,2.31233121 111.783,2.737 C111.451665,3.16166879 111.195001,3.68899685 111.013,4.319 C110.830999,4.94900315 110.74,5.71199552 110.74,6.608 C110.74,7.51333786 110.849666,8.28566347 111.069,8.925 C111.288334,9.56433653 111.577665,10.0963312 111.937,10.521 C112.296335,10.9456688 112.697664,11.2769988 113.141,11.515 C113.584336,11.7530012 114.029998,11.9186662 114.478,12.012 L114.128,12.978 Z M118.482,12.012 C118.930002,11.9186662 119.375664,11.7530012 119.819,11.515 C120.262336,11.2769988 120.663665,10.9456688 121.023,10.521 C121.382335,10.0963312 121.671666,9.56433653 121.891,8.925 C122.110334,8.28566347 122.22,7.51333786 122.22,6.608 C122.22,5.71199552 122.129001,4.94900315 121.947,4.319 C121.764999,3.68899685 121.508335,3.16166879 121.177,2.737 C120.845665,2.31233121 120.451336,1.97166795 119.994,1.715 C119.536664,1.45833205 119.032669,1.25066746 118.482,1.092 L118.832,0.21 C119.43867,0.34066732 120.014997,0.56233177 120.561,0.875 C121.107003,1.18766823 121.585331,1.60299741 121.996,2.121 C122.406669,2.63900259 122.733332,3.26899629 122.976,4.011 C123.218668,4.75300371 123.34,5.61866172 123.34,6.608 C123.34,7.60667166 123.221001,8.46999636 122.983,9.198 C122.744999,9.92600364 122.423002,10.5419975 122.017,11.046 C121.610998,11.5500025 121.135003,11.9583318 120.589,12.271 C120.042997,12.5836682 119.457336,12.8193325 118.832,12.978 L118.482,12.012 Z M136.36,9.562 C136.36,9.16066466 136.292334,8.81300147 136.157,8.519 C136.021666,8.22499853 135.853668,7.98000098 135.653,7.784 C135.452332,7.58799902 135.237668,7.4433338 135.009,7.35 C134.780332,7.2566662 134.577334,7.21 134.4,7.21 L134.4,6.23 C134.577334,6.23 134.780332,6.19033373 135.009,6.111 C135.237668,6.03166627 135.452332,5.90100091 135.653,5.719 C135.853668,5.53699909 136.021666,5.30133478 136.157,5.012 C136.292334,4.72266522 136.36,4.36333548 136.36,3.934 L136.36,2.506 C136.36,2.16999832 136.413666,1.8620014 136.521,1.582 C136.628334,1.3019986 136.777666,1.05933436 136.969,0.854 C137.160334,0.64866564 137.388999,0.48766725 137.655,0.371 C137.921001,0.25433275 138.212665,0.196 138.53,0.196 L140.56,0.196 L140.56,1.176 L139.02,1.176 C138.431997,1.176 138.023668,1.3159986 137.795,1.596 C137.566332,1.8760014 137.452,2.29133058 137.452,2.842 L137.452,4.2 C137.452,4.58266858 137.382001,4.92333184 137.242,5.222 C137.101999,5.52066816 136.934001,5.77033233 136.738,5.971 C136.541999,6.17166767 136.341334,6.33033275 136.136,6.447 C135.930666,6.56366725 135.762667,6.63133324 135.632,6.65 L135.632,6.734 C135.753334,6.75266676 135.916666,6.82499937 136.122,6.951 C136.327334,7.07700063 136.527999,7.24966557 136.724,7.469 C136.920001,7.68833443 137.090333,7.94733184 137.235,8.246 C137.379667,8.54466816 137.452,8.87599818 137.452,9.24 L137.452,10.584 C137.452,11.1533362 137.573332,11.573332 137.816,11.844 C138.058668,12.114668 138.464664,12.25 139.034,12.25 L140.56,12.25 L140.56,13.23 L138.53,13.23 C137.876663,13.23 137.351669,13.0363353 136.955,12.649 C136.558331,12.2616647 136.36,11.6900038 136.36,10.934 L136.36,9.562 Z" id="(){" fill="#999999"></path>
                <path d="M17.346,17.21 L19.67,17.21 L19.67,24.658 C19.67,25.2273362 19.7656657,25.6286655 19.957,25.862 C20.1483343,26.0953345 20.4306648,26.212 20.804,26.212 C21.0653346,26.212 21.3149988,26.1653338 21.553,26.072 C21.7910012,25.9786662 22.0546652,25.8200011 22.344,25.596 L22.848,26.366 C22.6986659,26.4966673 22.5353342,26.6133328 22.358,26.716 C22.1806658,26.8186672 21.9986676,26.9049997 21.812,26.975 C21.6253324,27.0450004 21.4386676,27.0986665 21.252,27.136 C21.0653324,27.1733335 20.8926675,27.192 20.734,27.192 C20.3886649,27.192 20.080668,27.1476671 19.81,27.059 C19.539332,26.9703329 19.3130009,26.828001 19.131,26.632 C18.9489991,26.435999 18.8113338,26.1770016 18.718,25.855 C18.6246662,25.5329984 18.578,25.1340024 18.578,24.658 L18.578,18.148 L17.346,18.148 L17.346,17.21 Z M31.486,26.128 C31.3179992,26.2773341 31.1196678,26.4173327 30.891,26.548 C30.6623322,26.6786673 30.412668,26.7906662 30.142,26.884 C29.871332,26.9773338 29.5890015,27.0496664 29.295,27.101 C29.0009985,27.1523336 28.7046682,27.178 28.406,27.178 C27.8459972,27.178 27.3513355,27.0916675 26.922,26.919 C26.4926645,26.7463325 26.1333348,26.4990016 25.844,26.177 C25.5546652,25.8549984 25.3353341,25.4700022 25.186,25.022 C25.0366659,24.5739978 24.962,24.0700028 24.962,23.51 C24.962,22.9219971 25.0436659,22.3993356 25.207,21.942 C25.3703342,21.4846644 25.6059985,21.1020015 25.914,20.794 C26.2220015,20.4859985 26.5953311,20.2503342 27.034,20.087 C27.4726689,19.9236659 27.962664,19.842 28.504,19.842 C28.896002,19.842 29.2833314,19.8933328 29.666,19.996 C30.0486686,20.0986672 30.3869985,20.2923319 30.681,20.577 C30.9750015,20.8616681 31.2013325,21.2536642 31.36,21.753 C31.5186675,22.2523358 31.5746669,22.8986627 31.528,23.692 L26.11,23.692 C26.11,24.5320042 26.3363311,25.1596646 26.789,25.575 C27.2416689,25.9903354 27.8459962,26.198 28.602,26.198 C28.8540013,26.198 29.1036654,26.167667 29.351,26.107 C29.5983346,26.046333 29.8339989,25.9740004 30.058,25.89 C30.2820011,25.8059996 30.4803325,25.7126672 30.653,25.61 C30.8256675,25.5073328 30.9586662,25.4140004 31.052,25.33 L31.486,26.128 Z M28.532,20.766 C28.2239985,20.766 27.9323347,20.7986663 27.657,20.864 C27.3816653,20.9293337 27.1390011,21.0389992 26.929,21.193 C26.718999,21.3470008 26.546334,21.5476654 26.411,21.795 C26.275666,22.0423346 26.1893335,22.3479982 26.152,22.712 L30.506,22.712 C30.4593331,22.0959969 30.2610018,21.6176684 29.911,21.277 C29.5609983,20.9363316 29.1013362,20.766 28.532,20.766 Z M32.914,20.01 L34.58,20.01 L34.58,18.624 L35.672,18.316 L35.672,20.01 L39.41,20.01 L39.41,20.948 L35.672,20.948 L35.672,24.252 C35.672,24.9333367 35.837665,25.4373317 36.169,25.764 C36.500335,26.0906683 36.9739969,26.254 37.59,26.254 C38.0100021,26.254 38.3763318,26.1746675 38.689,26.016 C39.0016682,25.8573325 39.2839987,25.6846676 39.536,25.498 L39.9,26.324 C39.5733317,26.5853346 39.1836689,26.7953325 38.731,26.954 C38.2783311,27.1126675 37.8140024,27.192 37.338,27.192 C36.9646648,27.192 36.612335,27.1383339 36.281,27.031 C35.949665,26.9236661 35.6580013,26.7580011 35.406,26.534 C35.1539987,26.3099989 34.9533341,26.0230018 34.804,25.673 C34.6546659,25.3229983 34.58,24.9053358 34.58,24.42 L34.58,20.948 L32.914,20.948 L32.914,20.01 Z" id="let" fill="#0077AA"></path>
                <path d="M50.204,27.01 L50.204,26.072 L52.094,26.072 L52.094,20.948 L50.204,20.948 L50.204,20.01 L52.822,20.01 L53.046,20.92 L53.116,20.92 C53.4333349,20.6306652 53.787998,20.3833344 54.18,20.178 C54.572002,19.9726656 55.038664,19.87 55.58,19.87 C55.8973349,19.87 56.1516657,19.9306661 56.343,20.052 C56.5343343,20.1733339 56.6836661,20.3506655 56.791,20.584 C56.8983339,20.8173345 56.9706665,21.099665 57.008,21.431 C57.0453335,21.762335 57.064,22.1379979 57.064,22.558 L56.084,22.572 C56.084,21.9746637 56.0256673,21.5360014 55.909,21.256 C55.7923328,20.9759986 55.5800015,20.836 55.272,20.836 C54.9826652,20.836 54.7213345,20.8779996 54.488,20.962 C54.2546655,21.0460004 54.0516675,21.1486661 53.879,21.27 C53.7063325,21.3913339 53.5593339,21.5126661 53.438,21.634 C53.3166661,21.7553339 53.2280003,21.8579996 53.172,21.942 L53.172,26.072 L55.86,26.072 L55.86,27.01 L50.204,27.01 Z M65.086,26.128 C64.9179992,26.2773341 64.7196678,26.4173327 64.491,26.548 C64.2623322,26.6786673 64.012668,26.7906662 63.742,26.884 C63.471332,26.9773338 63.1890015,27.0496664 62.895,27.101 C62.6009985,27.1523336 62.3046682,27.178 62.006,27.178 C61.4459972,27.178 60.9513355,27.0916675 60.522,26.919 C60.0926645,26.7463325 59.7333348,26.4990016 59.444,26.177 C59.1546652,25.8549984 58.9353341,25.4700022 58.786,25.022 C58.6366659,24.5739978 58.562,24.0700028 58.562,23.51 C58.562,22.9219971 58.6436659,22.3993356 58.807,21.942 C58.9703342,21.4846644 59.2059985,21.1020015 59.514,20.794 C59.8220015,20.4859985 60.1953311,20.2503342 60.634,20.087 C61.0726689,19.9236659 61.562664,19.842 62.104,19.842 C62.496002,19.842 62.8833314,19.8933328 63.266,19.996 C63.6486686,20.0986672 63.9869985,20.2923319 64.281,20.577 C64.5750015,20.8616681 64.8013325,21.2536642 64.96,21.753 C65.1186675,22.2523358 65.1746669,22.8986627 65.128,23.692 L59.71,23.692 C59.71,24.5320042 59.9363311,25.1596646 60.389,25.575 C60.8416689,25.9903354 61.4459962,26.198 62.202,26.198 C62.4540013,26.198 62.7036654,26.167667 62.951,26.107 C63.1983346,26.046333 63.4339989,25.9740004 63.658,25.89 C63.8820011,25.8059996 64.0803325,25.7126672 64.253,25.61 C64.4256675,25.5073328 64.5586662,25.4140004 64.652,25.33 L65.086,26.128 Z M62.132,20.766 C61.8239985,20.766 61.5323347,20.7986663 61.257,20.864 C60.9816653,20.9293337 60.7390011,21.0389992 60.529,21.193 C60.318999,21.3470008 60.146334,21.5476654 60.011,21.795 C59.875666,22.0423346 59.7893335,22.3479982 59.752,22.712 L64.106,22.712 C64.0593331,22.0959969 63.8610018,21.6176684 63.511,21.277 C63.1609983,20.9363316 62.7013362,20.766 62.132,20.766 Z M72.212,25.12 C72.212,24.8213318 72.0953345,24.5903342 71.862,24.427 C71.6286655,24.2636659 71.3393351,24.1330005 70.994,24.035 C70.6486649,23.9369995 70.273002,23.8460004 69.867,23.762 C69.460998,23.6779996 69.0853351,23.5660007 68.74,23.426 C68.3946649,23.2859993 68.1053345,23.0970012 67.872,22.859 C67.6386655,22.6209988 67.522,22.2873355 67.522,21.858 C67.522,21.5033316 67.5989992,21.2000013 67.753,20.948 C67.9070008,20.6959987 68.1099987,20.4883342 68.362,20.325 C68.6140013,20.1616659 68.9079983,20.0403337 69.244,19.961 C69.5800017,19.8816663 69.9299982,19.842 70.294,19.842 C70.9473366,19.842 71.5096643,19.9236659 71.981,20.087 C72.4523357,20.2503342 72.8279986,20.4206658 73.108,20.598 L72.66,21.48 C72.3519985,21.3119992 72.0183351,21.1510008 71.659,20.997 C71.2996649,20.8429992 70.849336,20.766 70.308,20.766 C70.1026656,20.766 69.8996677,20.7869998 69.699,20.829 C69.4983323,20.8710002 69.3163342,20.9339996 69.153,21.018 C68.9896659,21.1020004 68.8590005,21.211666 68.761,21.347 C68.6629995,21.482334 68.614,21.647999 68.614,21.844 C68.614,22.0866679 68.7306655,22.2733327 68.964,22.404 C69.1973345,22.5346673 69.4866649,22.6443329 69.832,22.733 C70.1773351,22.8216671 70.552998,22.9056663 70.959,22.985 C71.365002,23.0643337 71.7406649,23.1786659 72.086,23.328 C72.4313351,23.4773341 72.7206655,23.6779987 72.954,23.93 C73.1873345,24.1820013 73.304,24.5226645 73.304,24.952 C73.304,25.5960032 73.0496692,26.1279979 72.541,26.548 C72.0323308,26.9680021 71.2693384,27.178 70.252,27.178 C69.9439985,27.178 69.6406682,27.1500003 69.342,27.094 C69.0433318,27.0379997 68.7633346,26.9633338 68.502,26.87 C68.2406654,26.7766662 68.0026677,26.6716673 67.788,26.555 C67.5733323,26.4383328 67.3960007,26.3193339 67.256,26.198 L67.816,25.288 C67.9280006,25.4000006 68.0773324,25.5143328 68.264,25.631 C68.4506676,25.7476673 68.6559989,25.8526662 68.88,25.946 C69.1040011,26.0393338 69.3443321,26.1139997 69.601,26.17 C69.857668,26.2260003 70.1166654,26.254 70.378,26.254 C70.6300013,26.254 70.8656656,26.2330002 71.085,26.191 C71.3043344,26.1489998 71.4979992,26.0836671 71.666,25.995 C71.8340008,25.9063329 71.9669995,25.7896674 72.065,25.645 C72.1630005,25.5003326 72.212,25.3253344 72.212,25.12 Z M79.562,20.01 L81.55,20.01 L81.55,24.784 C81.55,25.2413356 81.5779997,25.6799979 81.634,26.1 L82.572,26.1 L82.572,27.01 L80.71,27.01 L80.668,25.82 L80.612,25.82 C80.3693321,26.2213353 80.0473353,26.5479987 79.646,26.8 C79.2446647,27.0520013 78.7593362,27.178 78.19,27.178 C77.7606645,27.178 77.3943349,27.1290005 77.091,27.031 C76.7876652,26.9329995 76.538001,26.7626679 76.342,26.52 C76.145999,26.2773321 76.0013338,25.953002 75.908,25.547 C75.8146662,25.140998 75.768,24.6346697 75.768,24.028 L75.768,20.948 L74.83,20.948 L74.83,20.01 L76.86,20.01 L76.86,23.804 C76.86,24.1866686 76.8763332,24.5296652 76.909,24.833 C76.9416668,25.1363349 77.0093328,25.392999 77.112,25.603 C77.2146672,25.8130011 77.3663323,25.9716661 77.567,26.079 C77.7676677,26.1863339 78.0359983,26.24 78.372,26.24 C78.8573358,26.24 79.2796649,26.0813349 79.639,25.764 C79.9983351,25.4466651 80.2713324,25.0500024 80.458,24.574 L80.458,20.948 L79.562,20.948 L79.562,20.01 Z M84.546,17.21 L86.87,17.21 L86.87,24.658 C86.87,25.2273362 86.9656657,25.6286655 87.157,25.862 C87.3483343,26.0953345 87.6306648,26.212 88.004,26.212 C88.2653346,26.212 88.5149988,26.1653338 88.753,26.072 C88.9910012,25.9786662 89.2546652,25.8200011 89.544,25.596 L90.048,26.366 C89.8986659,26.4966673 89.7353342,26.6133328 89.558,26.716 C89.3806658,26.8186672 89.1986676,26.9049997 89.012,26.975 C88.8253324,27.0450004 88.6386676,27.0986665 88.452,27.136 C88.2653324,27.1733335 88.0926675,27.192 87.934,27.192 C87.5886649,27.192 87.280668,27.1476671 87.01,27.059 C86.739332,26.9703329 86.5130009,26.828001 86.331,26.632 C86.1489991,26.435999 86.0113338,26.1770016 85.918,25.855 C85.8246662,25.5329984 85.778,25.1340024 85.778,24.658 L85.778,18.148 L84.546,18.148 L84.546,17.21 Z M91.714,20.01 L93.38,20.01 L93.38,18.624 L94.472,18.316 L94.472,20.01 L98.21,20.01 L98.21,20.948 L94.472,20.948 L94.472,24.252 C94.472,24.9333367 94.637665,25.4373317 94.969,25.764 C95.300335,26.0906683 95.7739969,26.254 96.39,26.254 C96.8100021,26.254 97.1763318,26.1746675 97.489,26.016 C97.8016682,25.8573325 98.0839987,25.6846676 98.336,25.498 L98.7,26.324 C98.3733317,26.5853346 97.9836689,26.7953325 97.531,26.954 C97.0783311,27.1126675 96.6140024,27.192 96.138,27.192 C95.7646648,27.192 95.412335,27.1383339 95.081,27.031 C94.749665,26.9236661 94.4580013,26.7580011 94.206,26.534 C93.9539987,26.3099989 93.7533341,26.0230018 93.604,25.673 C93.4546659,25.3229983 93.38,24.9053358 93.38,24.42 L93.38,20.948 L91.714,20.948 L91.714,20.01 Z" id="result" fill="#000000"></path>
                <path d="M109.032,20.612 L115.528,20.612 L115.528,21.62 L109.032,21.62 L109.032,20.612 Z M109.032,22.908 L115.528,22.908 L115.528,23.916 L109.032,23.916 L109.032,22.908 Z" id="=" fill="#A67F59"></path>
                <path d="M129.234,25.932 L129.766,25.932 L131.502,20.01 L132.636,20.01 L130.69,26.296 C130.587333,26.6226683 130.482334,26.9936646 130.375,27.409 C130.267666,27.8243354 130.116001,28.2139982 129.92,28.578 C129.723999,28.9420018 129.458002,29.2499987 129.122,29.502 C128.785998,29.7540013 128.347336,29.88 127.806,29.88 C127.684666,29.88 127.556334,29.8660001 127.421,29.838 C127.285666,29.8099999 127.152667,29.7750002 127.022,29.733 C126.891333,29.6909998 126.770001,29.6420003 126.658,29.586 C126.545999,29.5299997 126.462,29.4740003 126.406,29.418 L126.798,28.41 C126.854,28.4566669 126.931,28.5033331 127.029,28.55 C127.127,28.5966669 127.234333,28.6363332 127.351,28.669 C127.467667,28.7016668 127.581999,28.7296665 127.694,28.753 C127.806001,28.7763334 127.899333,28.788 127.974,28.788 C128.674003,28.788 129.149999,28.1953393 129.402,27.01 L128.464,27.01 L125.524,20.01 L126.784,20.01 L129.234,25.932 Z M134.75,27.01 L134.75,26.072 L137.186,26.072 L137.186,20.948 L134.75,20.948 L134.75,20.01 L138.306,20.01 L138.306,26.072 L140.686,26.072 L140.686,27.01 L134.75,27.01 Z M136.808,18.022 C136.808,17.7699987 136.891999,17.5530009 137.06,17.371 C137.228001,17.1889991 137.442665,17.098 137.704,17.098 C137.974668,17.098 138.200999,17.1889991 138.383,17.371 C138.565001,17.5530009 138.656,17.7699987 138.656,18.022 C138.656,18.2646679 138.565001,18.4699992 138.383,18.638 C138.200999,18.8060008 137.974668,18.89 137.704,18.89 C137.442665,18.89 137.228001,18.8060008 137.06,18.638 C136.891999,18.4699992 136.808,18.2646679 136.808,18.022 Z M149.086,26.128 C148.917999,26.2773341 148.719668,26.4173327 148.491,26.548 C148.262332,26.6786673 148.012668,26.7906662 147.742,26.884 C147.471332,26.9773338 147.189001,27.0496664 146.895,27.101 C146.600999,27.1523336 146.304668,27.178 146.006,27.178 C145.445997,27.178 144.951335,27.0916675 144.522,26.919 C144.092665,26.7463325 143.733335,26.4990016 143.444,26.177 C143.154665,25.8549984 142.935334,25.4700022 142.786,25.022 C142.636666,24.5739978 142.562,24.0700028 142.562,23.51 C142.562,22.9219971 142.643666,22.3993356 142.807,21.942 C142.970334,21.4846644 143.205998,21.1020015 143.514,20.794 C143.822002,20.4859985 144.195331,20.2503341 144.634,20.087 C145.072669,19.9236658 145.562664,19.842 146.104,19.842 C146.496002,19.842 146.883331,19.8933328 147.266,19.996 C147.648669,20.0986672 147.986999,20.2923319 148.281,20.577 C148.575001,20.8616681 148.801333,21.2536642 148.96,21.753 C149.118667,22.2523358 149.174667,22.8986627 149.128,23.692 L143.71,23.692 C143.71,24.5320042 143.936331,25.1596646 144.389,25.575 C144.841669,25.9903354 145.445996,26.198 146.202,26.198 C146.454001,26.198 146.703665,26.167667 146.951,26.107 C147.198335,26.046333 147.433999,25.9740004 147.658,25.89 C147.882001,25.8059996 148.080332,25.7126672 148.253,25.61 C148.425668,25.5073328 148.558666,25.4140004 148.652,25.33 L149.086,26.128 Z M146.132,20.766 C145.823998,20.766 145.532335,20.7986663 145.257,20.864 C144.981665,20.9293337 144.739001,21.0389992 144.529,21.193 C144.318999,21.3470008 144.146334,21.5476654 144.011,21.795 C143.875666,22.0423346 143.789334,22.3479982 143.752,22.712 L148.106,22.712 C148.059333,22.0959969 147.861002,21.6176684 147.511,21.277 C147.160998,20.9363316 146.701336,20.766 146.132,20.766 Z M151.746,17.21 L154.07,17.21 L154.07,24.658 C154.07,25.2273362 154.165666,25.6286655 154.357,25.862 C154.548334,26.0953345 154.830665,26.212 155.204,26.212 C155.465335,26.212 155.714999,26.1653338 155.953,26.072 C156.191001,25.9786662 156.454665,25.8200011 156.744,25.596 L157.248,26.366 C157.098666,26.4966673 156.935334,26.6133328 156.758,26.716 C156.580666,26.8186672 156.398668,26.9049996 156.212,26.975 C156.025332,27.0450003 155.838668,27.0986665 155.652,27.136 C155.465332,27.1733335 155.292667,27.192 155.134,27.192 C154.788665,27.192 154.480668,27.1476671 154.21,27.059 C153.939332,26.9703329 153.713001,26.828001 153.531,26.632 C153.348999,26.435999 153.211334,26.1770016 153.118,25.855 C153.024666,25.5329984 152.978,25.1340024 152.978,24.658 L152.978,18.148 L151.746,18.148 L151.746,17.21 Z M163.366,17.21 L165.634,17.21 L165.634,24.616 C165.634,24.7000004 165.638667,24.8049994 165.648,24.931 C165.657333,25.0570006 165.669,25.1899993 165.683,25.33 C165.697,25.4700007 165.713333,25.607666 165.732,25.743 C165.750667,25.878334 165.769333,25.9973328 165.788,26.1 L166.726,26.1 L166.726,27.01 L164.864,27.01 L164.724,25.932 L164.668,25.932 C164.462666,26.2866684 164.157002,26.5829988 163.751,26.821 C163.344998,27.0590012 162.876003,27.178 162.344,27.178 C161.289328,27.178 160.512336,26.8816696 160.013,26.289 C159.513664,25.6963304 159.264,24.7746729 159.264,23.524 C159.264,22.9359971 159.347999,22.4156689 159.516,21.963 C159.684001,21.5103311 159.924332,21.1323348 160.237,20.829 C160.549668,20.5256651 160.925331,20.2946675 161.364,20.136 C161.802669,19.9773325 162.292664,19.898 162.834,19.898 C163.030001,19.898 163.204999,19.9026666 163.359,19.912 C163.513001,19.9213334 163.655333,19.9353332 163.786,19.954 C163.916667,19.9726668 164.040333,19.9983332 164.157,20.031 C164.273667,20.0636668 164.401999,20.0986665 164.542,20.136 L164.542,18.148 L163.366,18.148 L163.366,17.21 Z M162.526,26.24 C163.095336,26.24 163.543332,26.0930015 163.87,25.799 C164.196668,25.5049985 164.420666,25.0640029 164.542,24.476 L164.542,21.228 C164.336666,21.0879993 164.105668,20.9853337 163.849,20.92 C163.592332,20.8546663 163.254002,20.822 162.834,20.822 C162.08733,20.822 161.499335,21.0389978 161.07,21.473 C160.640665,21.9070022 160.426,22.590662 160.426,23.524 C160.426,23.9066686 160.461,24.263665 160.531,24.595 C160.601,24.926335 160.717666,25.2133321 160.881,25.456 C161.044334,25.6986679 161.261332,25.8899993 161.532,26.03 C161.802668,26.1700007 162.133998,26.24 162.526,26.24 Z" id="yield" fill="#0077AA"></path>
                <path d="M180.306,17.21 L181.538,17.21 L181.104,21.452 L180.306,21.452 L180.306,17.21 Z M177.408,17.21 L178.64,17.21 L178.206,21.452 L177.408,21.452 L177.408,17.21 Z M190.68,19.688 C190.68,20.546671 190.274004,21.5033281 189.462,22.558 C188.649996,23.6126719 187.516007,24.7606605 186.06,26.002 L190.988,26.002 L190.988,27.01 L184.772,27.01 L184.772,26.002 C184.949334,25.8339992 185.191998,25.614668 185.5,25.344 C185.808002,25.073332 186.139332,24.772335 186.494,24.441 C186.848668,24.109665 187.210331,23.7526686 187.579,23.37 C187.947669,22.9873314 188.281332,22.5953353 188.58,22.194 C188.878668,21.7926647 189.121332,21.3913353 189.308,20.99 C189.494668,20.5886647 189.588,20.2013352 189.588,19.828 C189.588,19.2679972 189.441001,18.8270016 189.147,18.505 C188.852999,18.1829984 188.412003,18.022 187.824,18.022 C187.319997,18.022 186.895335,18.0779994 186.55,18.19 C186.204665,18.3020006 185.892001,18.4653323 185.612,18.68 L185.136,17.91 C185.556002,17.6113318 186.001664,17.3920007 186.473,17.252 C186.944336,17.1119993 187.459997,17.042 188.02,17.042 C188.897338,17.042 189.559998,17.2799976 190.008,17.756 C190.456002,18.2320024 190.68,18.8759959 190.68,19.688 Z M201.152,21.774 L204.176,21.774 L204.176,18.68 L205.184,18.68 L205.184,21.774 L208.208,21.774 L208.208,22.782 L205.184,22.782 L205.184,25.876 L204.176,25.876 L204.176,22.782 L201.152,22.782 L201.152,21.774 Z M224.28,19.688 C224.28,20.546671 223.874004,21.5033281 223.062,22.558 C222.249996,23.6126719 221.116007,24.7606605 219.66,26.002 L224.588,26.002 L224.588,27.01 L218.372,27.01 L218.372,26.002 C218.549334,25.8339992 218.791998,25.614668 219.1,25.344 C219.408002,25.073332 219.739332,24.772335 220.094,24.441 C220.448668,24.109665 220.810331,23.7526686 221.179,23.37 C221.547669,22.9873314 221.881332,22.5953353 222.18,22.194 C222.478668,21.7926647 222.721332,21.3913353 222.908,20.99 C223.094668,20.5886647 223.188,20.2013352 223.188,19.828 C223.188,19.2679972 223.041001,18.8270016 222.747,18.505 C222.452999,18.1829984 222.012003,18.022 221.424,18.022 C220.919997,18.022 220.495335,18.0779994 220.15,18.19 C219.804665,18.3020006 219.492001,18.4653323 219.212,18.68 L218.736,17.91 C219.156002,17.6113318 219.601664,17.3920007 220.073,17.252 C220.544336,17.1119993 221.059997,17.042 221.62,17.042 C222.497338,17.042 223.159998,17.2799976 223.608,17.756 C224.056002,18.2320024 224.28,18.8759959 224.28,19.688 Z M228.928,24.532 C228.918667,24.4853331 228.914,24.4340003 228.914,24.378 L228.914,24.224 C228.914,23.831998 228.986333,23.4960014 229.131,23.216 C229.275667,22.9359986 229.455332,22.6863344 229.67,22.467 C229.884668,22.2476656 230.115665,22.0493342 230.363,21.872 C230.610335,21.6946658 230.841332,21.5056677 231.056,21.305 C231.270668,21.1043323 231.450333,20.8826679 231.595,20.64 C231.739667,20.3973321 231.812,20.1080017 231.812,19.772 C231.812,19.5946658 231.77,19.4033344 231.686,19.198 C231.602,18.9926656 231.473668,18.8013342 231.301,18.624 C231.128332,18.4466658 230.904335,18.3020006 230.629,18.19 C230.353665,18.0779994 230.024669,18.022 229.642,18.022 C229.333998,18.022 229.056335,18.059333 228.809,18.134 C228.561665,18.208667 228.337668,18.3019994 228.137,18.414 C227.936332,18.5260006 227.754334,18.649666 227.591,18.785 C227.427666,18.920334 227.280667,19.0486661 227.15,19.17 L226.436,18.526 C226.828002,18.0313309 227.33433,17.6603346 227.955,17.413 C228.57567,17.1656654 229.287329,17.042 230.09,17.042 C230.575336,17.042 230.999998,17.1213325 231.364,17.28 C231.728002,17.4386675 232.028999,17.6416654 232.267,17.889 C232.505001,18.1363346 232.682333,18.4116652 232.799,18.715 C232.915667,19.0183349 232.974,19.3146652 232.974,19.604 C232.974,20.0520022 232.897001,20.4276652 232.743,20.731 C232.588999,21.0343349 232.395335,21.3049988 232.162,21.543 C231.928665,21.7810012 231.679001,21.9956657 231.413,22.187 C231.146999,22.3783343 230.897335,22.5836656 230.664,22.803 C230.430666,23.0223344 230.237001,23.267332 230.083,23.538 C229.928999,23.808668 229.852,24.139998 229.852,24.532 L228.928,24.532 Z M228.648,26.366 C228.648,26.1139987 228.720333,25.9156674 228.865,25.771 C229.009667,25.6263326 229.203332,25.554 229.446,25.554 C229.698001,25.554 229.898666,25.6263326 230.048,25.771 C230.197334,25.9156674 230.272,26.1139987 230.272,26.366 C230.272,26.6086679 230.197334,26.8046659 230.048,26.954 C229.898666,27.1033341 229.698001,27.178 229.446,27.178 C229.203332,27.178 229.009667,27.1033341 228.865,26.954 C228.720333,26.8046659 228.648,26.6086679 228.648,26.366 Z M239.106,17.21 L240.338,17.21 L239.904,21.452 L239.106,21.452 L239.106,17.21 Z M236.208,17.21 L237.44,17.21 L237.006,21.452 L236.208,21.452 L236.208,17.21 Z" id="&quot;2+2?&quot;" fill="#669900"></path>
                <path d="M245.686,26.24 C245.686,25.9599986 245.776999,25.7336675 245.959,25.561 C246.141001,25.3883325 246.376665,25.302 246.666,25.302 C247.020668,25.302 247.295999,25.4256654 247.492,25.673 C247.688001,25.9203346 247.786,26.2679978 247.786,26.716 C247.786,27.0800018 247.725334,27.3996653 247.604,27.675 C247.482666,27.9503347 247.331001,28.1836657 247.149,28.375 C246.966999,28.5663343 246.771001,28.7203328 246.561,28.837 C246.350999,28.9536673 246.157334,29.0399997 245.98,29.096 L245.63,28.55 C245.966002,28.4193327 246.255332,28.2326679 246.498,27.99 C246.740668,27.7473321 246.862,27.4533351 246.862,27.108 C246.731333,27.1360001 246.628667,27.15 246.554,27.15 C246.283332,27.15 246.071001,27.0730008 245.917,26.919 C245.762999,26.7649992 245.686,26.5386682 245.686,26.24 Z M245.812,20.738 C245.812,20.4393318 245.895999,20.2083342 246.064,20.045 C246.232001,19.8816659 246.455999,19.8 246.736,19.8 C247.034668,19.8 247.267999,19.8816659 247.436,20.045 C247.604001,20.2083342 247.688,20.4393318 247.688,20.738 C247.688,21.008668 247.604001,21.2326658 247.436,21.41 C247.267999,21.5873342 247.034668,21.676 246.736,21.676 C246.455999,21.676 246.232001,21.5873342 246.064,21.41 C245.895999,21.2326658 245.812,21.008668 245.812,20.738 Z" id=";" fill="#999999"></path>
                <path d="M17.192,71.556 C17.5933353,71.3226655 18.0459975,71.1546672 18.55,71.052 C19.0540025,70.9493328 19.5486642,70.898 20.034,70.898 C20.5100024,70.898 20.8996652,70.9726659 21.203,71.122 C21.5063349,71.2713341 21.7443325,71.4649988 21.917,71.703 C22.0896675,71.9410012 22.206333,72.2116652 22.267,72.515 C22.327667,72.8183349 22.358,73.1239985 22.358,73.432 C22.358,73.7866684 22.3486668,74.1646647 22.33,74.566 C22.3113332,74.9673353 22.2973334,75.3686647 22.288,75.77 C22.288,76.236669 22.3159997,76.6799979 22.372,77.1 L23.31,77.1 L23.31,78.01 L21.448,78.01 L21.322,76.96 L21.252,76.96 C21.1959997,77.0440004 21.1120006,77.1513327 21,77.282 C20.8879994,77.4126673 20.7410009,77.5409994 20.559,77.667 C20.3769991,77.7930006 20.1553346,77.9026662 19.894,77.996 C19.6326654,78.0893338 19.3246684,78.136 18.97,78.136 C18.2793299,78.136 17.7333353,77.9586684 17.332,77.604 C16.9306647,77.2493316 16.73,76.7640031 16.73,76.148 C16.73,75.6719976 16.834999,75.2753349 17.045,74.958 C17.2550011,74.6406651 17.555998,74.398 17.948,74.23 C18.340002,74.0619992 18.8136639,73.9640001 19.369,73.936 C19.9243361,73.9079999 20.5473299,73.9453328 21.238,74.048 C21.2846669,73.6186645 21.2916668,73.2616681 21.259,72.977 C21.2263332,72.6923319 21.1516673,72.4660008 21.035,72.298 C20.9183328,72.1299992 20.7550011,72.0110004 20.545,71.941 C20.334999,71.8709997 20.0760015,71.836 19.768,71.836 C19.3479979,71.836 18.9466686,71.8943328 18.564,72.011 C18.1813314,72.1276673 17.8406682,72.2466661 17.542,72.368 L17.192,71.556 Z M19.25,77.198 C19.5113346,77.198 19.7539989,77.1560004 19.978,77.072 C20.2020011,76.9879996 20.3979992,76.8806673 20.566,76.75 C20.7340008,76.6193327 20.8739994,76.4770008 20.986,76.323 C21.0980006,76.1689992 21.1819997,76.0220007 21.238,75.882 L21.238,74.902 C20.7526642,74.8179996 20.3046687,74.776 19.894,74.776 C19.4833313,74.776 19.1286682,74.8203329 18.83,74.909 C18.5313318,74.9976671 18.2980008,75.1353324 18.13,75.322 C17.9619992,75.5086676 17.878,75.7513318 17.878,76.05 C17.878,76.3580015 17.982999,76.6263322 18.193,76.855 C18.4030011,77.0836678 18.7553309,77.198 19.25,77.198 Z M25.746,68.21 L28.07,68.21 L28.07,75.658 C28.07,76.2273362 28.1656657,76.6286655 28.357,76.862 C28.5483343,77.0953345 28.8306648,77.212 29.204,77.212 C29.4653346,77.212 29.7149988,77.1653338 29.953,77.072 C30.1910012,76.9786662 30.4546652,76.8200011 30.744,76.596 L31.248,77.366 C31.0986659,77.4966673 30.9353342,77.6133328 30.758,77.716 C30.5806658,77.8186672 30.3986676,77.9049997 30.212,77.975 C30.0253324,78.0450004 29.8386676,78.0986665 29.652,78.136 C29.4653324,78.1733335 29.2926675,78.192 29.134,78.192 C28.7886649,78.192 28.480668,78.1476671 28.21,78.059 C27.939332,77.9703329 27.7130009,77.828001 27.531,77.632 C27.3489991,77.435999 27.2113338,77.1770016 27.118,76.855 C27.0246662,76.5329984 26.978,76.1340024 26.978,75.658 L26.978,69.148 L25.746,69.148 L25.746,68.21 Z M39.886,77.128 C39.7179992,77.2773341 39.5196678,77.4173327 39.291,77.548 C39.0623322,77.6786673 38.812668,77.7906662 38.542,77.884 C38.271332,77.9773338 37.9890015,78.0496664 37.695,78.101 C37.4009985,78.1523336 37.1046682,78.178 36.806,78.178 C36.2459972,78.178 35.7513355,78.0916675 35.322,77.919 C34.8926645,77.7463325 34.5333348,77.4990016 34.244,77.177 C33.9546652,76.8549984 33.7353341,76.4700022 33.586,76.022 C33.4366659,75.5739978 33.362,75.0700028 33.362,74.51 C33.362,73.9219971 33.4436659,73.3993356 33.607,72.942 C33.7703342,72.4846644 34.0059985,72.1020015 34.314,71.794 C34.6220015,71.4859985 34.9953311,71.2503342 35.434,71.087 C35.8726689,70.9236659 36.362664,70.842 36.904,70.842 C37.296002,70.842 37.6833314,70.8933328 38.066,70.996 C38.4486686,71.0986672 38.7869985,71.2923319 39.081,71.577 C39.3750015,71.8616681 39.6013325,72.2536642 39.76,72.753 C39.9186675,73.2523358 39.9746669,73.8986627 39.928,74.692 L34.51,74.692 C34.51,75.5320042 34.7363311,76.1596646 35.189,76.575 C35.6416689,76.9903354 36.2459962,77.198 37.002,77.198 C37.2540013,77.198 37.5036654,77.167667 37.751,77.107 C37.9983346,77.046333 38.2339989,76.9740004 38.458,76.89 C38.6820011,76.8059996 38.8803325,76.7126672 39.053,76.61 C39.2256675,76.5073328 39.3586662,76.4140004 39.452,76.33 L39.886,77.128 Z M36.932,71.766 C36.6239985,71.766 36.3323347,71.7986663 36.057,71.864 C35.7816653,71.9293337 35.5390011,72.0389992 35.329,72.193 C35.118999,72.3470008 34.946334,72.5476654 34.811,72.795 C34.675666,73.0423346 34.5893335,73.3479982 34.552,73.712 L38.906,73.712 C38.8593331,73.0959969 38.6610018,72.6176684 38.311,72.277 C37.9609983,71.9363316 37.5013362,71.766 36.932,71.766 Z M41.804,78.01 L41.804,77.072 L43.694,77.072 L43.694,71.948 L41.804,71.948 L41.804,71.01 L44.422,71.01 L44.646,71.92 L44.716,71.92 C45.0333349,71.6306652 45.387998,71.3833344 45.78,71.178 C46.172002,70.9726656 46.638664,70.87 47.18,70.87 C47.4973349,70.87 47.7516657,70.9306661 47.943,71.052 C48.1343343,71.1733339 48.2836661,71.3506655 48.391,71.584 C48.4983339,71.8173345 48.5706665,72.099665 48.608,72.431 C48.6453335,72.762335 48.664,73.1379979 48.664,73.558 L47.684,73.572 C47.684,72.9746637 47.6256673,72.5360014 47.509,72.256 C47.3923328,71.9759986 47.1800015,71.836 46.872,71.836 C46.5826652,71.836 46.3213345,71.8779996 46.088,71.962 C45.8546655,72.0460004 45.6516675,72.1486661 45.479,72.27 C45.3063325,72.3913339 45.1593339,72.5126661 45.038,72.634 C44.9166661,72.7553339 44.8280003,72.8579996 44.772,72.942 L44.772,77.072 L47.46,77.072 L47.46,78.01 L41.804,78.01 Z M49.714,71.01 L51.38,71.01 L51.38,69.624 L52.472,69.316 L52.472,71.01 L56.21,71.01 L56.21,71.948 L52.472,71.948 L52.472,75.252 C52.472,75.9333367 52.637665,76.4373317 52.969,76.764 C53.300335,77.0906683 53.7739969,77.254 54.39,77.254 C54.8100021,77.254 55.1763318,77.1746675 55.489,77.016 C55.8016682,76.8573325 56.0839987,76.6846676 56.336,76.498 L56.7,77.324 C56.3733317,77.5853346 55.9836689,77.7953325 55.531,77.954 C55.0783311,78.1126675 54.6140024,78.192 54.138,78.192 C53.7646648,78.192 53.412335,78.1383339 53.081,78.031 C52.749665,77.9236661 52.4580013,77.7580011 52.206,77.534 C51.9539987,77.3099989 51.7533341,77.0230018 51.604,76.673 C51.4546659,76.3229983 51.38,75.9053358 51.38,75.42 L51.38,71.948 L49.714,71.948 L49.714,71.01 Z" id="alert" fill="#000000"></path>
                <path d="M63.728,80.978 C63.1026635,80.8193325 62.5170027,80.5836682 61.971,80.271 C61.4249973,79.9583318 60.949002,79.5500025 60.543,79.046 C60.136998,78.5419975 59.8150012,77.9260036 59.577,77.198 C59.3389988,76.4699964 59.22,75.6066717 59.22,74.608 C59.22,73.6186617 59.3413321,72.7530037 59.584,72.011 C59.8266679,71.2689963 60.1533313,70.6390026 60.564,70.121 C60.9746687,69.6029974 61.4529973,69.1876682 61.999,68.875 C62.5450027,68.5623318 63.1213303,68.3406673 63.728,68.21 L64.078,69.092 C63.5273306,69.2506675 63.0233356,69.4583321 62.566,69.715 C62.1086644,69.971668 61.714335,70.3123312 61.383,70.737 C61.051665,71.1616688 60.7950009,71.6889969 60.613,72.319 C60.4309991,72.9490032 60.34,73.7119955 60.34,74.608 C60.34,75.5133379 60.4496656,76.2856635 60.669,76.925 C60.8883344,77.5643365 61.1776649,78.0963312 61.537,78.521 C61.8963351,78.9456688 62.2976645,79.2769988 62.741,79.515 C63.1843356,79.7530012 63.6299978,79.9186662 64.078,80.012 L63.728,80.978 Z" id="(" fill="#999999"></path>
                <path d="M67.004,78.01 L67.004,77.072 L68.894,77.072 L68.894,71.948 L67.004,71.948 L67.004,71.01 L69.622,71.01 L69.846,71.92 L69.916,71.92 C70.2333349,71.6306652 70.587998,71.3833344 70.98,71.178 C71.372002,70.9726656 71.838664,70.87 72.38,70.87 C72.6973349,70.87 72.9516657,70.9306661 73.143,71.052 C73.3343343,71.1733339 73.4836661,71.3506655 73.591,71.584 C73.6983339,71.8173345 73.7706665,72.099665 73.808,72.431 C73.8453335,72.762335 73.864,73.1379979 73.864,73.558 L72.884,73.572 C72.884,72.9746637 72.8256672,72.5360014 72.709,72.256 C72.5923327,71.9759986 72.3800015,71.836 72.072,71.836 C71.7826652,71.836 71.5213345,71.8779996 71.288,71.962 C71.0546655,72.0460004 70.8516675,72.1486661 70.679,72.27 C70.5063325,72.3913339 70.3593339,72.5126661 70.238,72.634 C70.1166661,72.7553339 70.0280003,72.8579996 69.972,72.942 L69.972,77.072 L72.66,77.072 L72.66,78.01 L67.004,78.01 Z M81.886,77.128 C81.7179992,77.2773341 81.5196678,77.4173327 81.291,77.548 C81.0623322,77.6786673 80.812668,77.7906662 80.542,77.884 C80.271332,77.9773338 79.9890015,78.0496664 79.695,78.101 C79.4009985,78.1523336 79.1046682,78.178 78.806,78.178 C78.2459972,78.178 77.7513355,78.0916675 77.322,77.919 C76.8926645,77.7463325 76.5333348,77.4990016 76.244,77.177 C75.9546652,76.8549984 75.7353341,76.4700022 75.586,76.022 C75.4366659,75.5739978 75.362,75.0700028 75.362,74.51 C75.362,73.9219971 75.4436658,73.3993356 75.607,72.942 C75.7703341,72.4846644 76.0059985,72.1020015 76.314,71.794 C76.6220015,71.4859985 76.9953311,71.2503342 77.434,71.087 C77.8726689,70.9236659 78.362664,70.842 78.904,70.842 C79.296002,70.842 79.6833314,70.8933328 80.066,70.996 C80.4486686,71.0986672 80.7869985,71.2923319 81.081,71.577 C81.3750015,71.8616681 81.6013325,72.2536642 81.76,72.753 C81.9186675,73.2523358 81.9746669,73.8986627 81.928,74.692 L76.51,74.692 C76.51,75.5320042 76.7363311,76.1596646 77.189,76.575 C77.6416689,76.9903354 78.2459962,77.198 79.002,77.198 C79.2540013,77.198 79.5036654,77.167667 79.751,77.107 C79.9983346,77.046333 80.2339989,76.9740004 80.458,76.89 C80.6820011,76.8059996 80.8803325,76.7126672 81.053,76.61 C81.2256675,76.5073328 81.3586662,76.4140004 81.452,76.33 L81.886,77.128 Z M78.932,71.766 C78.6239985,71.766 78.3323347,71.7986663 78.057,71.864 C77.7816653,71.9293337 77.539001,72.0389992 77.329,72.193 C77.1189989,72.3470008 76.946334,72.5476654 76.811,72.795 C76.675666,73.0423346 76.5893335,73.3479982 76.552,73.712 L80.906,73.712 C80.8593331,73.0959969 80.6610017,72.6176684 80.311,72.277 C79.9609982,71.9363316 79.5013362,71.766 78.932,71.766 Z M89.012,76.12 C89.012,75.8213318 88.8953345,75.5903342 88.662,75.427 C88.4286655,75.2636659 88.1393351,75.1330005 87.794,75.035 C87.4486649,74.9369995 87.073002,74.8460004 86.667,74.762 C86.260998,74.6779996 85.8853351,74.5660007 85.54,74.426 C85.1946649,74.2859993 84.9053345,74.0970012 84.672,73.859 C84.4386655,73.6209988 84.322,73.2873355 84.322,72.858 C84.322,72.5033316 84.3989992,72.2000013 84.553,71.948 C84.7070008,71.6959987 84.9099987,71.4883342 85.162,71.325 C85.4140013,71.1616659 85.7079983,71.0403337 86.044,70.961 C86.3800017,70.8816663 86.7299982,70.842 87.094,70.842 C87.7473366,70.842 88.3096643,70.9236659 88.781,71.087 C89.2523357,71.2503342 89.6279986,71.4206658 89.908,71.598 L89.46,72.48 C89.1519985,72.3119992 88.8183351,72.1510008 88.459,71.997 C88.0996649,71.8429992 87.649336,71.766 87.108,71.766 C86.9026656,71.766 86.6996677,71.7869998 86.499,71.829 C86.2983323,71.8710002 86.1163341,71.9339996 85.953,72.018 C85.7896658,72.1020004 85.6590005,72.211666 85.561,72.347 C85.4629995,72.482334 85.414,72.647999 85.414,72.844 C85.414,73.0866679 85.5306655,73.2733327 85.764,73.404 C85.9973345,73.5346673 86.2866649,73.6443329 86.632,73.733 C86.9773351,73.8216671 87.352998,73.9056663 87.759,73.985 C88.165002,74.0643337 88.5406649,74.1786659 88.886,74.328 C89.2313351,74.4773341 89.5206655,74.6779987 89.754,74.93 C89.9873345,75.1820013 90.104,75.5226645 90.104,75.952 C90.104,76.5960032 89.8496692,77.1279979 89.341,77.548 C88.8323308,77.9680021 88.0693384,78.178 87.052,78.178 C86.7439985,78.178 86.4406682,78.1500003 86.142,78.094 C85.8433318,78.0379997 85.5633346,77.9633338 85.302,77.87 C85.0406654,77.7766662 84.8026677,77.6716673 84.588,77.555 C84.3733323,77.4383328 84.1960007,77.3193339 84.056,77.198 L84.616,76.288 C84.7280006,76.4000006 84.8773324,76.5143328 85.064,76.631 C85.2506676,76.7476673 85.4559989,76.8526662 85.68,76.946 C85.9040011,77.0393338 86.144332,77.1139997 86.401,77.17 C86.6576679,77.2260003 86.9166654,77.254 87.178,77.254 C87.4300013,77.254 87.6656656,77.2330002 87.885,77.191 C88.1043344,77.1489998 88.2979992,77.0836671 88.466,76.995 C88.6340008,76.9063329 88.7669995,76.7896674 88.865,76.645 C88.9630005,76.5003326 89.012,76.3253344 89.012,76.12 Z M96.362,71.01 L98.35,71.01 L98.35,75.784 C98.35,76.2413356 98.3779997,76.6799979 98.434,77.1 L99.372,77.1 L99.372,78.01 L97.51,78.01 L97.468,76.82 L97.412,76.82 C97.1693321,77.2213353 96.8473353,77.5479987 96.446,77.8 C96.0446647,78.0520013 95.5593362,78.178 94.99,78.178 C94.5606645,78.178 94.1943348,78.1290005 93.891,78.031 C93.5876651,77.9329995 93.338001,77.7626679 93.142,77.52 C92.945999,77.2773321 92.8013338,76.953002 92.708,76.547 C92.6146662,76.140998 92.568,75.6346697 92.568,75.028 L92.568,71.948 L91.63,71.948 L91.63,71.01 L93.66,71.01 L93.66,74.804 C93.66,75.1866686 93.6763332,75.5296652 93.709,75.833 C93.7416668,76.1363349 93.8093328,76.392999 93.912,76.603 C94.0146672,76.8130011 94.1663323,76.9716661 94.367,77.079 C94.5676677,77.1863339 94.8359983,77.24 95.172,77.24 C95.6573358,77.24 96.0796649,77.0813349 96.439,76.764 C96.7983351,76.4466651 97.0713324,76.0500024 97.258,75.574 L97.258,71.948 L96.362,71.948 L96.362,71.01 Z M101.346,68.21 L103.67,68.21 L103.67,75.658 C103.67,76.2273362 103.765666,76.6286655 103.957,76.862 C104.148334,77.0953345 104.430665,77.212 104.804,77.212 C105.065335,77.212 105.314999,77.1653338 105.553,77.072 C105.791001,76.9786662 106.054665,76.8200011 106.344,76.596 L106.848,77.366 C106.698666,77.4966673 106.535334,77.6133328 106.358,77.716 C106.180666,77.8186672 105.998668,77.9049997 105.812,77.975 C105.625332,78.0450004 105.438668,78.0986665 105.252,78.136 C105.065332,78.1733335 104.892667,78.192 104.734,78.192 C104.388665,78.192 104.080668,78.1476671 103.81,78.059 C103.539332,77.9703329 103.313001,77.828001 103.131,77.632 C102.948999,77.435999 102.811334,77.1770016 102.718,76.855 C102.624666,76.5329984 102.578,76.1340024 102.578,75.658 L102.578,69.148 L101.346,69.148 L101.346,68.21 Z M108.514,71.01 L110.18,71.01 L110.18,69.624 L111.272,69.316 L111.272,71.01 L115.01,71.01 L115.01,71.948 L111.272,71.948 L111.272,75.252 C111.272,75.9333367 111.437665,76.4373317 111.769,76.764 C112.100335,77.0906683 112.573997,77.254 113.19,77.254 C113.610002,77.254 113.976332,77.1746675 114.289,77.016 C114.601668,76.8573325 114.883999,76.6846676 115.136,76.498 L115.5,77.324 C115.173332,77.5853346 114.783669,77.7953325 114.331,77.954 C113.878331,78.1126675 113.414002,78.192 112.938,78.192 C112.564665,78.192 112.212335,78.1383339 111.881,78.031 C111.549665,77.9236661 111.258001,77.7580011 111.006,77.534 C110.753999,77.3099989 110.553334,77.0230018 110.404,76.673 C110.254666,76.3229983 110.18,75.9053358 110.18,75.42 L110.18,71.948 L108.514,71.948 L108.514,71.01 Z" id="result" fill="#000000"></path>
                <path d="M118.482,80.012 C118.930002,79.9186662 119.375664,79.7530012 119.819,79.515 C120.262336,79.2769988 120.663665,78.9456688 121.023,78.521 C121.382335,78.0963312 121.671666,77.5643365 121.891,76.925 C122.110334,76.2856635 122.22,75.5133379 122.22,74.608 C122.22,73.7119955 122.129001,72.9490032 121.947,72.319 C121.764999,71.6889969 121.508335,71.1616688 121.177,70.737 C120.845665,70.3123312 120.451336,69.971668 119.994,69.715 C119.536664,69.4583321 119.032669,69.2506675 118.482,69.092 L118.832,68.21 C119.43867,68.3406673 120.014997,68.5623318 120.561,68.875 C121.107003,69.1876682 121.585331,69.6029974 121.996,70.121 C122.406669,70.6390026 122.733332,71.2689963 122.976,72.011 C123.218668,72.7530037 123.34,73.6186617 123.34,74.608 C123.34,75.6066717 123.221001,76.4699964 122.983,77.198 C122.744999,77.9260036 122.423002,78.5419975 122.017,79.046 C121.610998,79.5500025 121.135003,79.9583318 120.589,80.271 C120.042997,80.5836682 119.457336,80.8193325 118.832,80.978 L118.482,80.012 Z M128.086,77.24 C128.086,76.9599986 128.176999,76.7336675 128.359,76.561 C128.541001,76.3883325 128.776665,76.302 129.066,76.302 C129.420668,76.302 129.695999,76.4256654 129.892,76.673 C130.088001,76.9203346 130.186,77.2679978 130.186,77.716 C130.186,78.0800018 130.125334,78.3996653 130.004,78.675 C129.882666,78.9503347 129.731001,79.1836657 129.549,79.375 C129.366999,79.5663343 129.171001,79.7203328 128.961,79.837 C128.750999,79.9536673 128.557334,80.0399997 128.38,80.096 L128.03,79.55 C128.366002,79.4193327 128.655332,79.2326679 128.898,78.99 C129.140668,78.7473321 129.262,78.4533351 129.262,78.108 C129.131333,78.1360001 129.028667,78.15 128.954,78.15 C128.683332,78.15 128.471001,78.0730008 128.317,77.919 C128.162999,77.7649992 128.086,77.5386682 128.086,77.24 Z M128.212,71.738 C128.212,71.4393318 128.295999,71.2083342 128.464,71.045 C128.632001,70.8816659 128.855999,70.8 129.136,70.8 C129.434668,70.8 129.667999,70.8816659 129.836,71.045 C130.004001,71.2083342 130.088,71.4393318 130.088,71.738 C130.088,72.008668 130.004001,72.2326658 129.836,72.41 C129.667999,72.5873342 129.434668,72.676 129.136,72.676 C128.855999,72.676 128.632001,72.5873342 128.464,72.41 C128.295999,72.2326658 128.212,72.008668 128.212,71.738 Z M147.994,68.042 L148.876,68.434 L143.766,79.97 L142.884,79.578 L147.994,68.042 Z M156.394,68.042 L157.276,68.434 L152.166,79.97 L151.284,79.578 L156.394,68.042 Z M175,74.958 L173.11,74.958 L173.11,78.01 L172.018,78.01 L172.018,74.958 L167.496,74.958 L167.496,74.146 L172.186,68.21 L173.11,68.21 L173.11,74.034 L175,74.034 L175,74.958 Z M172.018,69.96 L168.784,74.034 L172.018,74.034 L172.018,69.96 Z M4.2,95.934 C4.2,96.6900038 4.00166865,97.2616647 3.605,97.649 C3.20833135,98.0363353 2.6833366,98.23 2.03,98.23 L-2.84217094e-14,98.23 L-2.84217094e-14,97.25 L1.526,97.25 C2.09533618,97.25 2.50133212,97.114668 2.744,96.844 C2.98666788,96.573332 3.108,96.1533362 3.108,95.584 L3.108,94.24 C3.108,93.8759982 3.1779993,93.5446682 3.318,93.246 C3.4580007,92.9473318 3.62599902,92.6883344 3.822,92.469 C4.01800098,92.2496656 4.21866564,92.0770006 4.424,91.951 C4.62933436,91.8249994 4.79733268,91.7526668 4.928,91.734 L4.928,91.65 C4.79733268,91.6313332 4.62933436,91.5636673 4.424,91.447 C4.21866564,91.3303328 4.01800098,91.1716677 3.822,90.971 C3.62599902,90.7703323 3.4580007,90.5206682 3.318,90.222 C3.1779993,89.9233318 3.108,89.5826686 3.108,89.2 L3.108,87.842 C3.108,87.2913306 2.99366781,86.8760014 2.765,86.596 C2.53633219,86.3159986 2.12800294,86.176 1.54,86.176 L-2.84217094e-14,86.176 L-2.84217094e-14,85.196 L2.03,85.196 C2.34733492,85.196 2.63899867,85.2543328 2.905,85.371 C3.17100133,85.4876673 3.39966571,85.6486656 3.591,85.854 C3.78233429,86.0593344 3.93166613,86.3019986 4.039,86.582 C4.14633387,86.8620014 4.2,87.1699983 4.2,87.506 L4.2,88.934 C4.2,89.3633355 4.26766599,89.7226652 4.403,90.012 C4.53833401,90.3013348 4.70633233,90.5369991 4.907,90.719 C5.10766767,90.9010009 5.32233219,91.0316663 5.551,91.111 C5.77966781,91.1903337 5.98266578,91.23 6.16,91.23 L6.16,92.21 C5.98266578,92.21 5.77966781,92.2566662 5.551,92.35 C5.32233219,92.4433338 5.10766767,92.587999 4.907,92.784 C4.70633233,92.980001 4.53833401,93.2249985 4.403,93.519 C4.26766599,93.8130015 4.2,94.1606647 4.2,94.562 L4.2,95.934 Z" id=");//4}" fill="#999999"></path>
            </g>
            <text id="question-=-&quot;2-+-2?&quot;" font-family="PTMono-Regular, PT Mono" font-size="14" font-weight="normal" fill="#000000">
                <tspan x="360" y="88">question = "2 + 2?"</tspan>
            </text>
            <path id="Line" d="M333.5,87.5 L301.5,87.5 L301.5,85.5 L333.5,85.5 L333.5,79.5 L347.5,86.5 L333.5,93.5 L333.5,87.5 Z" fill="#EE6B47" fill-rule="nonzero"></path>
            <path id="Line" d="M121.828522,111.575413 L121.828522,124.5 L347.370547,124.5 L347.370547,126.5 L346.370547,126.5 L120.828522,126.5 L119.828522,126.5 L119.828522,111.575413 L113.828522,111.575413 L120.828522,97.5754129 L127.828522,111.575413 L121.828522,111.575413 Z" fill="#EE6B47" fill-rule="nonzero"></path>
            <text id="Generator" font-family="OpenSans-Regular, Open Sans" font-size="14" font-weight="normal" fill="#000000">
                <tspan x="122" y="22">Generator</tspan>
            </text>
            <text id="Calling-code" font-family="OpenSans-Regular, Open Sans" font-size="14" font-weight="normal" fill="#000000">
                <tspan x="376" y="22">Calling code</tspan>
            </text>
            <text id=".next(4)" font-family="PTMono-Regular, PT Mono" font-size="14" font-weight="normal" fill="#000000">
                <tspan x="360" y="127">.next(4)</tspan>
            </text>
        </g>
    </g>
</svg>