<?xml version="1.0" encoding="UTF-8"?>
<svg width="486px" height="94px" viewBox="0 0 486 94" version="1.1" xmlns="http://www.w3.org/2000/svg" xmlns:xlink="http://www.w3.org/1999/xlink">
    <!-- Generator: sketchtool 55.2 (78181) - https://sketchapp.com -->
    <title>class-user.svg</title>
    <desc>Created with sketchtool.</desc>
    <g id="inheritance" stroke="none" stroke-width="1" fill="none" fill-rule="evenodd">
        <g id="class-user.svg">
            <rect id="Rectangle-1" stroke="#E8C48E" stroke-width="2" fill="#FFF9EB" x="298" y="22" width="178" height="68"></rect>
            <text id="sayHi:-function" font-family="PTMono-Regular, PT Mono" font-size="14" font-weight="normal" fill="#8A704D">
                <tspan x="303" y="42">sayHi: function</tspan>
            </text>
            <rect id="Rectangle-1-Copy-2" stroke="#E8C48E" stroke-width="2" fill="#FFF9EB" x="8" y="22" width="178" height="68"></rect>
            <text id="User" font-family="PTMono-Regular, PT Mono" font-size="14" font-weight="normal" fill="#8A704D">
                <tspan x="17" y="15">User</tspan>
            </text>
            <text id="User.prototype" font-family="PTMono-Regular, PT Mono" font-size="14" font-weight="normal" fill="#8A704D">
                <tspan x="302" y="15">User.prototype</tspan>
            </text>
            <path id="Line-Copy" d="M273,45 L197,45 L197,43 L273,43 L273,37 L287,44 L273,51 L273,45 Z" fill="#EE6B47" fill-rule="nonzero"></path>
            <text id="prototype" font-family="PTMono-Regular, PT Mono" font-size="14" font-weight="normal" fill="#8A704D">
                <tspan x="203" y="32">prototype</tspan>
            </text>
            <text id="constructor:-User" font-family="PTMono-Regular, PT Mono" font-size="14" font-weight="normal" fill="#8A704D">
                <tspan x="303" y="60">constructor: User</tspan>
            </text>
            <path d="M23.146,35.078 C22.9313323,35.003333 22.7003346,34.9403336 22.453,34.889 C22.2056654,34.8376664 21.9606679,34.812 21.718,34.812 C20.8033288,34.812 20.1220022,35.0266645 19.674,35.456 C19.2259978,35.8853355 19.002,36.566662 19.002,37.5 C19.002,37.9106687 19.0673327,38.2769984 19.198,38.599 C19.3286673,38.9210016 19.5153321,39.1939989 19.758,39.418 C20.0006679,39.6420011 20.2923316,39.8146661 20.633,39.936 C20.9736684,40.0573339 21.3493313,40.118 21.76,40.118 C22.1986689,40.118 22.6256646,40.0433341 23.041,39.894 C23.4563354,39.7446659 23.8039986,39.5486679 24.084,39.306 L24.574,40.118 C24.4433327,40.2300006 24.280001,40.3466661 24.084,40.468 C23.887999,40.5893339 23.661668,40.7036661 23.405,40.811 C23.1483321,40.9183339 22.8636682,41.0046663 22.551,41.07 C22.2383318,41.1353337 21.9000018,41.168 21.536,41.168 C20.9293303,41.168 20.3950023,41.0816675 19.933,40.909 C19.4709977,40.7363325 19.0860015,40.4890016 18.778,40.167 C18.4699985,39.8449984 18.2366675,39.4576689 18.078,39.005 C17.9193325,38.5523311 17.84,38.0506694 17.84,37.5 C17.84,36.9119971 17.9216659,36.3893356 18.085,35.932 C18.2483342,35.4746644 18.4839985,35.0920015 18.792,34.784 C19.1000015,34.4759985 19.4733311,34.2403341 19.912,34.077 C20.3506689,33.9136659 20.840664,33.832 21.382,33.832 C22.0726701,33.832 22.6349978,33.8926661 23.069,34.014 C23.5030022,34.1353339 23.8693318,34.2706659 24.168,34.42 L24.154,34.462 L24.154,36.408 L23.146,36.408 L23.146,35.078 Z M26.198,37.5 C26.198,36.370661 26.4919971,35.4770033 27.08,34.819 C27.6680029,34.1609967 28.5079945,33.832 29.6,33.832 C30.1880029,33.832 30.6943312,33.9276657 31.119,34.119 C31.5436688,34.3103343 31.8959986,34.5693317 32.176,34.896 C32.4560014,35.2226683 32.663666,35.6099978 32.799,36.058 C32.934334,36.5060022 33.002,36.9866641 33.002,37.5 C33.002,38.0600028 32.9273341,38.5663311 32.778,39.019 C32.6286659,39.4716689 32.4093348,39.8566651 32.12,40.174 C31.8306652,40.4913349 31.4736688,40.7363325 31.049,40.909 C30.6243312,41.0816675 30.141336,41.168 29.6,41.168 C29.0213304,41.168 28.5173355,41.0723343 28.088,40.881 C27.6586645,40.6896657 27.3040014,40.4306683 27.024,40.104 C26.7439986,39.7773317 26.536334,39.3900022 26.401,38.942 C26.265666,38.4939978 26.198,38.0133359 26.198,37.5 Z M27.36,37.5 C27.36,37.8266683 27.3996663,38.1533317 27.479,38.48 C27.5583337,38.8066683 27.6866658,39.1006654 27.864,39.362 C28.0413342,39.6233346 28.2723319,39.8333325 28.557,39.992 C28.8416681,40.1506675 29.1893313,40.23 29.6,40.23 C30.3466704,40.23 30.9089981,39.9990023 31.287,39.537 C31.6650019,39.0749977 31.854,38.3960045 31.854,37.5 C31.854,37.1639983 31.8143337,36.8350016 31.735,36.513 C31.6556663,36.1909984 31.5250009,35.8993346 31.343,35.638 C31.1609991,35.3766654 30.9276681,35.1666675 30.643,35.008 C30.3583319,34.8493325 30.0106687,34.77 29.6,34.77 C28.8533296,34.77 28.2933352,34.9986644 27.92,35.456 C27.5466648,35.9133356 27.36,36.5946621 27.36,37.5 Z M35.102,36.45 C35.102,36.3659996 35.0996667,36.256334 35.095,36.121 C35.0903333,35.985666 35.0833334,35.8456674 35.074,35.701 C35.0646666,35.5563326 35.0530001,35.4140007 35.039,35.274 C35.0249999,35.1339993 35.0086668,35.0126672 34.99,34.91 L34.052,34.91 L34.052,34 L35.928,34 L36.054,35.134 L36.124,35.134 C36.2173338,34.9753325 36.3409992,34.8190008 36.495,34.665 C36.6490008,34.5109992 36.8286656,34.3710006 37.034,34.245 C37.2393344,34.1189994 37.4679987,34.018667 37.72,33.944 C37.9720013,33.869333 38.2379986,33.832 38.518,33.832 C38.9473355,33.832 39.327665,33.8786662 39.659,33.972 C39.990335,34.0653338 40.2656656,34.2309988 40.485,34.469 C40.7043344,34.7070012 40.8699994,35.028998 40.982,35.435 C41.0940006,35.841002 41.15,36.3566635 41.15,36.982 L41.15,41 L40.058,41 L40.058,37.192 C40.058,36.4173295 39.9320013,35.834002 39.68,35.442 C39.4279987,35.049998 38.97067,34.854 38.308,34.854 C38.0653321,34.854 37.8296678,34.9029995 37.601,35.001 C37.3723322,35.0990005 37.1646676,35.2273325 36.978,35.386 C36.7913324,35.5446675 36.6280007,35.728999 36.488,35.939 C36.3479993,36.149001 36.2453337,36.3706655 36.18,36.604 L36.18,41 L35.102,41 L35.102,36.45 Z M48.332,39.11 C48.332,38.8113318 48.2153345,38.5803341 47.982,38.417 C47.7486655,38.2536659 47.4593351,38.1230005 47.114,38.025 C46.7686649,37.9269995 46.393002,37.8360004 45.987,37.752 C45.580998,37.6679996 45.2053351,37.5560007 44.86,37.416 C44.5146649,37.2759993 44.2253345,37.0870012 43.992,36.849 C43.7586655,36.6109988 43.642,36.2773355 43.642,35.848 C43.642,35.4933316 43.7189992,35.1900013 43.873,34.938 C44.0270008,34.6859987 44.2299987,34.4783342 44.482,34.315 C44.7340013,34.1516659 45.0279983,34.0303337 45.364,33.951 C45.7000017,33.8716663 46.0499982,33.832 46.414,33.832 C47.0673366,33.832 47.6296643,33.9136659 48.101,34.077 C48.5723357,34.2403341 48.9479986,34.4106658 49.228,34.588 L48.78,35.47 C48.4719985,35.3019992 48.1383351,35.1410008 47.779,34.987 C47.4196649,34.8329992 46.969336,34.756 46.428,34.756 C46.2226656,34.756 46.0196677,34.7769998 45.819,34.819 C45.6183323,34.8610002 45.4363342,34.9239996 45.273,35.008 C45.1096658,35.0920004 44.9790005,35.201666 44.881,35.337 C44.7829995,35.472334 44.734,35.637999 44.734,35.834 C44.734,36.0766679 44.8506655,36.2633327 45.084,36.394 C45.3173345,36.5246673 45.6066649,36.6343329 45.952,36.723 C46.2973351,36.8116671 46.672998,36.8956663 47.079,36.975 C47.485002,37.0543337 47.8606649,37.1686659 48.206,37.318 C48.5513351,37.4673341 48.8406655,37.6679987 49.074,37.92 C49.3073345,38.1720013 49.424,38.5126645 49.424,38.942 C49.424,39.5860032 49.1696692,40.1179979 48.661,40.538 C48.1523308,40.9580021 47.3893384,41.168 46.372,41.168 C46.0639985,41.168 45.7606682,41.1400003 45.462,41.084 C45.1633318,41.0279997 44.8833346,40.9533338 44.622,40.86 C44.3606654,40.7666662 44.1226677,40.6616673 43.908,40.545 C43.6933323,40.4283327 43.5160007,40.3093339 43.376,40.188 L43.936,39.278 C44.0480006,39.3900006 44.1973324,39.5043328 44.384,39.621 C44.5706676,39.7376673 44.7759989,39.8426662 45,39.936 C45.2240011,40.0293338 45.464332,40.1039997 45.721,40.16 C45.9776679,40.2160003 46.2366654,40.244 46.498,40.244 C46.7500013,40.244 46.9856656,40.2230002 47.205,40.181 C47.4243344,40.1389998 47.6179992,40.0736671 47.786,39.985 C47.9540008,39.8963329 48.0869995,39.7796674 48.185,39.635 C48.2830005,39.4903326 48.332,39.3153344 48.332,39.11 Z M51.034,34 L52.7,34 L52.7,32.614 L53.792,32.306 L53.792,34 L57.53,34 L57.53,34.938 L53.792,34.938 L53.792,38.242 C53.792,38.9233367 53.957665,39.4273317 54.289,39.754 C54.620335,40.0806683 55.0939969,40.244 55.71,40.244 C56.1300021,40.244 56.4963318,40.1646675 56.809,40.006 C57.1216682,39.8473325 57.4039987,39.6746676 57.656,39.488 L58.02,40.314 C57.6933317,40.5753346 57.3036689,40.7853325 56.851,40.944 C56.3983311,41.1026675 55.9340024,41.182 55.458,41.182 C55.0846648,41.182 54.732335,41.1283339 54.401,41.021 C54.069665,40.9136661 53.7780013,40.7480011 53.526,40.524 C53.2739987,40.2999989 53.0733341,40.0130018 52.924,39.663 C52.7746659,39.3129982 52.7,38.8953358 52.7,38.41 L52.7,34.938 L51.034,34.938 L51.034,34 Z M59.924,41 L59.924,40.062 L61.814,40.062 L61.814,34.938 L59.924,34.938 L59.924,34 L62.542,34 L62.766,34.91 L62.836,34.91 C63.1533349,34.6206652 63.507998,34.3733344 63.9,34.168 C64.292002,33.9626656 64.758664,33.86 65.3,33.86 C65.6173349,33.86 65.8716657,33.9206661 66.063,34.042 C66.2543343,34.1633339 66.4036661,34.3406655 66.511,34.574 C66.6183339,34.8073345 66.6906665,35.089665 66.728,35.421 C66.7653335,35.752335 66.784,36.1279979 66.784,36.548 L65.804,36.562 C65.804,35.9646637 65.7456672,35.5260014 65.629,35.246 C65.5123327,34.9659986 65.3000015,34.826 64.992,34.826 C64.7026652,34.826 64.4413345,34.8679996 64.208,34.952 C63.9746655,35.0360004 63.7716675,35.1386661 63.599,35.26 C63.4263325,35.3813339 63.2793339,35.5026661 63.158,35.624 C63.0366661,35.7453339 62.9480003,35.8479996 62.892,35.932 L62.892,40.062 L65.58,40.062 L65.58,41 L59.924,41 Z M72.482,34 L74.47,34 L74.47,38.774 C74.47,39.2313356 74.4979997,39.6699979 74.554,40.09 L75.492,40.09 L75.492,41 L73.63,41 L73.588,39.81 L73.532,39.81 C73.2893321,40.2113353 72.9673353,40.5379987 72.566,40.79 C72.1646647,41.0420013 71.6793362,41.168 71.11,41.168 C70.6806645,41.168 70.3143348,41.1190005 70.011,41.021 C69.7076651,40.9229995 69.458001,40.7526679 69.262,40.51 C69.065999,40.2673321 68.9213338,39.943002 68.828,39.537 C68.7346662,39.130998 68.688,38.6246697 68.688,38.018 L68.688,34.938 L67.75,34.938 L67.75,34 L69.78,34 L69.78,37.794 C69.78,38.1766686 69.7963332,38.5196652 69.829,38.823 C69.8616668,39.1263348 69.9293328,39.382999 70.032,39.593 C70.1346672,39.803001 70.2863323,39.9616661 70.487,40.069 C70.6876677,40.1763339 70.9559983,40.23 71.292,40.23 C71.7773358,40.23 72.1996649,40.0713349 72.559,39.754 C72.9183351,39.4366651 73.1913324,39.0400024 73.378,38.564 L73.378,34.938 L72.482,34.938 L72.482,34 Z M81.946,35.078 C81.7313323,35.003333 81.5003346,34.9403336 81.253,34.889 C81.0056654,34.8376664 80.7606679,34.812 80.518,34.812 C79.6033288,34.812 78.9220022,35.0266645 78.474,35.456 C78.0259978,35.8853355 77.802,36.566662 77.802,37.5 C77.802,37.9106687 77.8673327,38.2769984 77.998,38.599 C78.1286673,38.9210016 78.3153321,39.1939989 78.558,39.418 C78.8006679,39.6420011 79.0923316,39.8146661 79.433,39.936 C79.7736684,40.0573339 80.1493313,40.118 80.56,40.118 C80.9986689,40.118 81.4256646,40.0433341 81.841,39.894 C82.2563354,39.7446659 82.6039986,39.5486679 82.884,39.306 L83.374,40.118 C83.2433327,40.2300006 83.080001,40.3466661 82.884,40.468 C82.687999,40.5893339 82.4616679,40.7036661 82.205,40.811 C81.9483321,40.9183339 81.6636682,41.0046663 81.351,41.07 C81.0383318,41.1353337 80.7000018,41.168 80.336,41.168 C79.7293303,41.168 79.1950023,41.0816675 78.733,40.909 C78.2709977,40.7363325 77.8860015,40.4890016 77.578,40.167 C77.2699985,39.8449984 77.0366675,39.4576689 76.878,39.005 C76.7193325,38.5523311 76.64,38.0506694 76.64,37.5 C76.64,36.9119971 76.7216658,36.3893356 76.885,35.932 C77.0483342,35.4746644 77.2839985,35.0920015 77.592,34.784 C77.9000015,34.4759985 78.2733311,34.2403341 78.712,34.077 C79.1506689,33.9136659 79.640664,33.832 80.182,33.832 C80.8726701,33.832 81.4349978,33.8926661 81.869,34.014 C82.3030022,34.1353339 82.6693318,34.2706659 82.968,34.42 L82.954,34.462 L82.954,36.408 L81.946,36.408 L81.946,35.078 Z M84.634,34 L86.3,34 L86.3,32.614 L87.392,32.306 L87.392,34 L91.13,34 L91.13,34.938 L87.392,34.938 L87.392,38.242 C87.392,38.9233367 87.557665,39.4273317 87.889,39.754 C88.220335,40.0806683 88.6939969,40.244 89.31,40.244 C89.7300021,40.244 90.0963318,40.1646675 90.409,40.006 C90.7216682,39.8473325 91.0039987,39.6746676 91.256,39.488 L91.62,40.314 C91.2933317,40.5753346 90.9036689,40.7853325 90.451,40.944 C89.9983311,41.1026675 89.5340024,41.182 89.058,41.182 C88.6846648,41.182 88.332335,41.1283339 88.001,41.021 C87.669665,40.9136661 87.3780013,40.7480011 87.126,40.524 C86.8739987,40.2999989 86.6733341,40.0130018 86.524,39.663 C86.3746659,39.3129982 86.3,38.8953358 86.3,38.41 L86.3,34.938 L84.634,34.938 L84.634,34 Z M93.398,37.5 C93.398,36.370661 93.6919971,35.4770033 94.28,34.819 C94.8680029,34.1609967 95.7079945,33.832 96.8,33.832 C97.3880029,33.832 97.8943312,33.9276657 98.319,34.119 C98.7436688,34.3103343 99.0959986,34.5693317 99.376,34.896 C99.6560014,35.2226683 99.863666,35.6099978 99.999,36.058 C100.134334,36.5060022 100.202,36.9866641 100.202,37.5 C100.202,38.0600028 100.127334,38.5663311 99.978,39.019 C99.8286659,39.4716689 99.6093348,39.8566651 99.32,40.174 C99.0306652,40.4913349 98.6736688,40.7363325 98.249,40.909 C97.8243312,41.0816675 97.341336,41.168 96.8,41.168 C96.2213304,41.168 95.7173355,41.0723343 95.288,40.881 C94.8586645,40.6896657 94.5040014,40.4306683 94.224,40.104 C93.9439986,39.7773317 93.736334,39.3900022 93.601,38.942 C93.465666,38.4939978 93.398,38.0133359 93.398,37.5 Z M94.56,37.5 C94.56,37.8266683 94.5996663,38.1533317 94.679,38.48 C94.7583337,38.8066683 94.8866658,39.1006654 95.064,39.362 C95.2413342,39.6233346 95.4723319,39.8333325 95.757,39.992 C96.0416681,40.1506675 96.3893313,40.23 96.8,40.23 C97.5466704,40.23 98.1089981,39.9990023 98.487,39.537 C98.8650019,39.0749977 99.054,38.3960045 99.054,37.5 C99.054,37.1639983 99.0143337,36.8350016 98.935,36.513 C98.8556663,36.1909984 98.7250009,35.8993346 98.543,35.638 C98.3609991,35.3766654 98.1276681,35.1666675 97.843,35.008 C97.5583319,34.8493325 97.2106687,34.77 96.8,34.77 C96.0533296,34.77 95.4933352,34.9986644 95.12,35.456 C94.7466648,35.9133356 94.56,36.5946621 94.56,37.5 Z M101.924,41 L101.924,40.062 L103.814,40.062 L103.814,34.938 L101.924,34.938 L101.924,34 L104.542,34 L104.766,34.91 L104.836,34.91 C105.153335,34.6206652 105.507998,34.3733344 105.9,34.168 C106.292002,33.9626656 106.758664,33.86 107.3,33.86 C107.617335,33.86 107.871666,33.9206661 108.063,34.042 C108.254334,34.1633339 108.403666,34.3406655 108.511,34.574 C108.618334,34.8073345 108.690666,35.089665 108.728,35.421 C108.765334,35.752335 108.784,36.1279979 108.784,36.548 L107.804,36.562 C107.804,35.9646637 107.745667,35.5260014 107.629,35.246 C107.512333,34.9659986 107.300002,34.826 106.992,34.826 C106.702665,34.826 106.441334,34.8679996 106.208,34.952 C105.974666,35.0360004 105.771668,35.1386661 105.599,35.26 C105.426332,35.3813339 105.279334,35.5026661 105.158,35.624 C105.036666,35.7453339 104.948,35.8479996 104.892,35.932 L104.892,40.062 L107.58,40.062 L107.58,41 L101.924,41 Z M115.448,43.968 C114.822664,43.8093325 114.237003,43.5736682 113.691,43.261 C113.144997,42.9483318 112.669002,42.5400025 112.263,42.036 C111.856998,41.5319975 111.535001,40.9160036 111.297,40.188 C111.058999,39.4599964 110.94,38.5966717 110.94,37.598 C110.94,36.6086617 111.061332,35.7430037 111.304,35.001 C111.546668,34.2589963 111.873331,33.6290026 112.284,33.111 C112.694669,32.5929974 113.172997,32.1776682 113.719,31.865 C114.265003,31.5523318 114.84133,31.3306673 115.448,31.2 L115.798,32.082 C115.247331,32.2406675 114.743336,32.4483321 114.286,32.705 C113.828664,32.961668 113.434335,33.3023312 113.103,33.727 C112.771665,34.1516688 112.515001,34.6789968 112.333,35.309 C112.150999,35.9390031 112.06,36.7019955 112.06,37.598 C112.06,38.5033379 112.169666,39.2756635 112.389,39.915 C112.608334,40.5543365 112.897665,41.0863312 113.257,41.511 C113.616335,41.9356688 114.017664,42.2669988 114.461,42.505 C114.904336,42.7430012 115.349998,42.9086662 115.798,43.002 L115.448,43.968 Z M119.102,36.45 C119.102,36.3659996 119.099667,36.256334 119.095,36.121 C119.090333,35.985666 119.083333,35.8456674 119.074,35.701 C119.064667,35.5563326 119.053,35.4140007 119.039,35.274 C119.025,35.1339993 119.008667,35.0126672 118.99,34.91 L118.052,34.91 L118.052,34 L119.928,34 L120.054,35.134 L120.124,35.134 C120.217334,34.9753325 120.340999,34.8190008 120.495,34.665 C120.649001,34.5109992 120.828666,34.3710006 121.034,34.245 C121.239334,34.1189994 121.467999,34.018667 121.72,33.944 C121.972001,33.869333 122.237999,33.832 122.518,33.832 C122.947335,33.832 123.327665,33.8786662 123.659,33.972 C123.990335,34.0653338 124.265666,34.2309988 124.485,34.469 C124.704334,34.7070012 124.869999,35.028998 124.982,35.435 C125.094001,35.841002 125.15,36.3566635 125.15,36.982 L125.15,41 L124.058,41 L124.058,37.192 C124.058,36.4173295 123.932001,35.834002 123.68,35.442 C123.427999,35.049998 122.97067,34.854 122.308,34.854 C122.065332,34.854 121.829668,34.9029995 121.601,35.001 C121.372332,35.0990005 121.164668,35.2273325 120.978,35.386 C120.791332,35.5446675 120.628001,35.728999 120.488,35.939 C120.347999,36.149001 120.245334,36.3706655 120.18,36.604 L120.18,41 L119.102,41 L119.102,36.45 Z M127.712,34.546 C128.113335,34.3126655 128.565997,34.1446672 129.07,34.042 C129.574003,33.9393328 130.068664,33.888 130.554,33.888 C131.030002,33.888 131.419665,33.9626659 131.723,34.112 C132.026335,34.2613341 132.264332,34.4549988 132.437,34.693 C132.609668,34.9310012 132.726333,35.2016651 132.787,35.505 C132.847667,35.8083349 132.878,36.1139985 132.878,36.422 C132.878,36.7766684 132.868667,37.1546647 132.85,37.556 C132.831333,37.9573353 132.817333,38.3586647 132.808,38.76 C132.808,39.226669 132.836,39.6699979 132.892,40.09 L133.83,40.09 L133.83,41 L131.968,41 L131.842,39.95 L131.772,39.95 C131.716,40.0340004 131.632001,40.1413327 131.52,40.272 C131.407999,40.4026673 131.261001,40.5309994 131.079,40.657 C130.896999,40.7830006 130.675335,40.8926662 130.414,40.986 C130.152665,41.0793338 129.844668,41.126 129.49,41.126 C128.79933,41.126 128.253335,40.9486684 127.852,40.594 C127.450665,40.2393316 127.25,39.7540031 127.25,39.138 C127.25,38.6619976 127.354999,38.2653349 127.565,37.948 C127.775001,37.6306651 128.075998,37.388 128.468,37.22 C128.860002,37.0519992 129.333664,36.9540001 129.889,36.926 C130.444336,36.8979999 131.06733,36.9353328 131.758,37.038 C131.804667,36.6086645 131.811667,36.2516681 131.779,35.967 C131.746333,35.6823319 131.671667,35.4560008 131.555,35.288 C131.438333,35.1199992 131.275001,35.0010003 131.065,34.931 C130.854999,34.8609996 130.596002,34.826 130.288,34.826 C129.867998,34.826 129.466669,34.8843327 129.084,35.001 C128.701331,35.1176672 128.360668,35.2366661 128.062,35.358 L127.712,34.546 Z M129.77,40.188 C130.031335,40.188 130.273999,40.1460004 130.498,40.062 C130.722001,39.9779996 130.917999,39.8706673 131.086,39.74 C131.254001,39.6093327 131.393999,39.4670008 131.506,39.313 C131.618001,39.1589992 131.702,39.0120007 131.758,38.872 L131.758,37.892 C131.272664,37.8079996 130.824669,37.766 130.414,37.766 C130.003331,37.766 129.648668,37.8103329 129.35,37.899 C129.051332,37.9876671 128.818001,38.1253324 128.65,38.312 C128.481999,38.4986676 128.398,38.7413318 128.398,39.04 C128.398,39.3480015 128.502999,39.6163322 128.713,39.845 C128.923001,40.0736678 129.275331,40.188 129.77,40.188 Z M138.268,41 L138.268,36.338 C138.268,36.141999 138.261,35.9530009 138.247,35.771 C138.233,35.5889991 138.200334,35.4256674 138.149,35.281 C138.097666,35.1363326 138.023,35.0220004 137.925,34.938 C137.827,34.8539996 137.698667,34.812 137.54,34.812 C137.222665,34.812 136.954334,34.9426654 136.735,35.204 C136.515666,35.4653346 136.350001,35.791998 136.238,36.184 L136.238,41 L135.174,41 L135.174,34 L135.902,34 L136.112,34.854 L136.168,34.854 C136.261334,34.7139993 136.352333,34.5810006 136.441,34.455 C136.529667,34.3289994 136.632333,34.2193338 136.749,34.126 C136.865667,34.0326662 137.003333,33.9603336 137.162,33.909 C137.320667,33.8576664 137.521332,33.832 137.764,33.832 C137.904001,33.832 138.048666,33.8529998 138.198,33.895 C138.347334,33.9370002 138.484999,34.0023329 138.611,34.091 C138.737001,34.1796671 138.846666,34.2986659 138.94,34.448 C139.033334,34.5973341 139.094,34.7793323 139.122,34.994 C139.336668,34.6299982 139.576999,34.3453344 139.843,34.14 C140.109001,33.9346656 140.475331,33.832 140.942,33.832 C141.250002,33.832 141.499666,33.8833328 141.691,33.986 C141.882334,34.0886672 142.031666,34.2356657 142.139,34.427 C142.246334,34.6183343 142.321,34.8469987 142.363,35.113 C142.405,35.3790013 142.426,35.6753317 142.426,36.002 L142.426,41 L141.362,41 L141.362,36.24 C141.362,36.043999 141.352667,35.8596675 141.334,35.687 C141.315333,35.5143325 141.280334,35.3626673 141.229,35.232 C141.177666,35.1013327 141.107667,34.998667 141.019,34.924 C140.930333,34.849333 140.811334,34.812 140.662,34.812 C140.335332,34.812 140.060001,34.9426654 139.836,35.204 C139.611999,35.4653346 139.444001,35.8386642 139.332,36.324 L139.332,41 L138.268,41 Z M150.406,40.118 C150.237999,40.2673341 150.039668,40.4073327 149.811,40.538 C149.582332,40.6686673 149.332668,40.7806662 149.062,40.874 C148.791332,40.9673338 148.509001,41.0396664 148.215,41.091 C147.920999,41.1423336 147.624668,41.168 147.326,41.168 C146.765997,41.168 146.271335,41.0816675 145.842,40.909 C145.412665,40.7363325 145.053335,40.4890016 144.764,40.167 C144.474665,39.8449984 144.255334,39.4600022 144.106,39.012 C143.956666,38.5639978 143.882,38.0600028 143.882,37.5 C143.882,36.9119971 143.963666,36.3893356 144.127,35.932 C144.290334,35.4746644 144.525998,35.0920015 144.834,34.784 C145.142002,34.4759985 145.515331,34.2403341 145.954,34.077 C146.392669,33.9136659 146.882664,33.832 147.424,33.832 C147.816002,33.832 148.203331,33.8833328 148.586,33.986 C148.968669,34.0886672 149.306999,34.2823319 149.601,34.567 C149.895001,34.8516681 150.121333,35.2436642 150.28,35.743 C150.438667,36.2423358 150.494667,36.8886627 150.448,37.682 L145.03,37.682 C145.03,38.5220042 145.256331,39.1496646 145.709,39.565 C146.161669,39.9803354 146.765996,40.188 147.522,40.188 C147.774001,40.188 148.023665,40.157667 148.271,40.097 C148.518335,40.036333 148.753999,39.9640004 148.978,39.88 C149.202001,39.7959996 149.400332,39.7026672 149.573,39.6 C149.745668,39.4973328 149.878666,39.4040004 149.972,39.32 L150.406,40.118 Z M147.452,34.756 C147.143998,34.756 146.852335,34.7886663 146.577,34.854 C146.301665,34.9193337 146.059001,35.0289992 145.849,35.183 C145.638999,35.3370008 145.466334,35.5376654 145.331,35.785 C145.195666,36.0323346 145.109334,36.3379982 145.072,36.702 L149.426,36.702 C149.379333,36.0859969 149.181002,35.6076684 148.831,35.267 C148.480998,34.9263316 148.021336,34.756 147.452,34.756 Z M153.402,43.002 C153.850002,42.9086662 154.295664,42.7430012 154.739,42.505 C155.182336,42.2669988 155.583665,41.9356688 155.943,41.511 C156.302335,41.0863312 156.591666,40.5543365 156.811,39.915 C157.030334,39.2756635 157.14,38.5033379 157.14,37.598 C157.14,36.7019955 157.049001,35.9390031 156.867,35.309 C156.684999,34.6789968 156.428335,34.1516688 156.097,33.727 C155.765665,33.3023312 155.371336,32.961668 154.914,32.705 C154.456664,32.4483321 153.952669,32.2406675 153.402,32.082 L153.752,31.2 C154.35867,31.3306673 154.934997,31.5523318 155.481,31.865 C156.027003,32.1776682 156.505331,32.5929974 156.916,33.111 C157.326669,33.6290026 157.653332,34.2589963 157.896,35.001 C158.138668,35.7430037 158.26,36.6086617 158.26,37.598 C158.26,38.5966717 158.141001,39.4599964 157.903,40.188 C157.664999,40.9160036 157.343002,41.5319975 156.937,42.036 C156.530998,42.5400025 156.055003,42.9483318 155.509,43.261 C154.962997,43.5736682 154.377336,43.8093325 153.752,43.968 L153.402,43.002 Z M171.28,40.552 C171.28,40.1506647 171.212334,39.8030015 171.077,39.509 C170.941666,39.2149985 170.773668,38.970001 170.573,38.774 C170.372332,38.577999 170.157668,38.4333338 169.929,38.34 C169.700332,38.2466662 169.497334,38.2 169.32,38.2 L169.32,37.22 C169.497334,37.22 169.700332,37.1803337 169.929,37.101 C170.157668,37.0216663 170.372332,36.8910009 170.573,36.709 C170.773668,36.5269991 170.941666,36.2913348 171.077,36.002 C171.212334,35.7126652 171.28,35.3533355 171.28,34.924 L171.28,33.496 C171.28,33.1599983 171.333666,32.8520014 171.441,32.572 C171.548334,32.2919986 171.697666,32.0493344 171.889,31.844 C172.080334,31.6386656 172.308999,31.4776673 172.575,31.361 C172.841001,31.2443328 173.132665,31.186 173.45,31.186 L175.48,31.186 L175.48,32.166 L173.94,32.166 C173.351997,32.166 172.943668,32.3059986 172.715,32.586 C172.486332,32.8660014 172.372,33.2813306 172.372,33.832 L172.372,35.19 C172.372,35.5726686 172.302001,35.9133318 172.162,36.212 C172.021999,36.5106682 171.854001,36.7603323 171.658,36.961 C171.461999,37.1616677 171.261334,37.3203327 171.056,37.437 C170.850666,37.5536672 170.682667,37.6213332 170.552,37.64 L170.552,37.724 C170.673334,37.7426668 170.836666,37.8149994 171.042,37.941 C171.247334,38.0670006 171.447999,38.2396656 171.644,38.459 C171.840001,38.6783344 172.010333,38.9373318 172.155,39.236 C172.299667,39.5346682 172.372,39.8659982 172.372,40.23 L172.372,41.574 C172.372,42.1433362 172.493332,42.563332 172.736,42.834 C172.978668,43.104668 173.384664,43.24 173.954,43.24 L175.48,43.24 L175.48,44.22 L173.45,44.22 C172.796663,44.22 172.271669,44.0263353 171.875,43.639 C171.478331,43.2516647 171.28,42.6800038 171.28,41.924 L171.28,40.552 Z M34.234,49 L35.9,49 L35.9,47.614 L36.992,47.306 L36.992,49 L40.73,49 L40.73,49.938 L36.992,49.938 L36.992,53.242 C36.992,53.9233367 37.157665,54.4273317 37.489,54.754 C37.820335,55.0806683 38.2939969,55.244 38.91,55.244 C39.3300021,55.244 39.6963318,55.1646675 40.009,55.006 C40.3216682,54.8473325 40.6039987,54.6746676 40.856,54.488 L41.22,55.314 C40.8933317,55.5753346 40.5036689,55.7853325 40.051,55.944 C39.5983311,56.1026675 39.1340024,56.182 38.658,56.182 C38.2846648,56.182 37.932335,56.1283339 37.601,56.021 C37.269665,55.9136661 36.9780013,55.7480011 36.726,55.524 C36.4739987,55.2999989 36.2733341,55.0130018 36.124,54.663 C35.9746659,54.3129983 35.9,53.8953358 35.9,53.41 L35.9,49.938 L34.234,49.938 L34.234,49 Z M42.256,46.2 L44.44,46.2 L44.44,49.868 L44.51,49.868 C44.7993348,49.5413317 45.1353314,49.2870009 45.518,49.105 C45.9006686,48.9229991 46.3766638,48.832 46.946,48.832 C47.3940022,48.832 47.783665,48.8786662 48.115,48.972 C48.446335,49.0653338 48.716999,49.2286655 48.927,49.462 C49.1370011,49.6953345 49.2933328,50.014998 49.396,50.421 C49.4986672,50.827002 49.55,51.3426635 49.55,51.968 L49.55,56 L48.458,56 L48.458,52.178 C48.458,51.7766647 48.4346669,51.4266682 48.388,51.128 C48.3413331,50.8293318 48.250334,50.5796677 48.115,50.379 C47.979666,50.1783323 47.7953345,50.0266672 47.562,49.924 C47.3286655,49.8213328 47.0300018,49.77 46.666,49.77 C46.4139987,49.77 46.1666679,49.8143329 45.924,49.903 C45.6813321,49.9916671 45.4596677,50.1129992 45.259,50.267 C45.0583323,50.4210008 44.8856674,50.6076656 44.741,50.827 C44.5963326,51.0463344 44.4960003,51.2866654 44.44,51.548 L44.44,56 L43.362,56 L43.362,47.138 L42.256,47.138 L42.256,46.2 Z M52.07,56 L52.07,55.062 L54.506,55.062 L54.506,49.938 L52.07,49.938 L52.07,49 L55.626,49 L55.626,55.062 L58.006,55.062 L58.006,56 L52.07,56 Z M54.128,47.012 C54.128,46.7599987 54.2119992,46.5430009 54.38,46.361 C54.5480008,46.1789991 54.7626654,46.088 55.024,46.088 C55.294668,46.088 55.5209991,46.1789991 55.703,46.361 C55.8850009,46.5430009 55.976,46.7599987 55.976,47.012 C55.976,47.2546679 55.8850009,47.4599992 55.703,47.628 C55.5209991,47.7960008 55.294668,47.88 55.024,47.88 C54.7626654,47.88 54.5480008,47.7960008 54.38,47.628 C54.2119992,47.4599992 54.128,47.2546679 54.128,47.012 Z M65.132,54.11 C65.132,53.8113318 65.0153345,53.5803341 64.782,53.417 C64.5486655,53.2536659 64.2593351,53.1230005 63.914,53.025 C63.5686649,52.9269995 63.193002,52.8360004 62.787,52.752 C62.380998,52.6679996 62.0053351,52.5560007 61.66,52.416 C61.3146649,52.2759993 61.0253345,52.0870012 60.792,51.849 C60.5586655,51.6109988 60.442,51.2773355 60.442,50.848 C60.442,50.4933316 60.5189992,50.1900013 60.673,49.938 C60.8270008,49.6859987 61.0299987,49.4783341 61.282,49.315 C61.5340013,49.1516659 61.8279983,49.0303337 62.164,48.951 C62.5000017,48.8716663 62.8499982,48.832 63.214,48.832 C63.8673366,48.832 64.4296643,48.9136659 64.901,49.077 C65.3723357,49.2403341 65.7479986,49.4106658 66.028,49.588 L65.58,50.47 C65.2719985,50.3019992 64.9383351,50.1410008 64.579,49.987 C64.2196649,49.8329992 63.769336,49.756 63.228,49.756 C63.0226656,49.756 62.8196677,49.7769998 62.619,49.819 C62.4183323,49.8610002 62.2363342,49.9239996 62.073,50.008 C61.9096659,50.0920004 61.7790005,50.201666 61.681,50.337 C61.5829995,50.472334 61.534,50.637999 61.534,50.834 C61.534,51.0766679 61.6506655,51.2633327 61.884,51.394 C62.1173345,51.5246673 62.4066649,51.6343329 62.752,51.723 C63.0973351,51.8116671 63.472998,51.8956663 63.879,51.975 C64.285002,52.0543337 64.6606649,52.1686659 65.006,52.318 C65.3513351,52.4673341 65.6406655,52.6679987 65.874,52.92 C66.1073345,53.1720013 66.224,53.5126645 66.224,53.942 C66.224,54.5860032 65.9696692,55.1179979 65.461,55.538 C64.9523308,55.9580021 64.1893384,56.168 63.172,56.168 C62.8639985,56.168 62.5606682,56.1400003 62.262,56.084 C61.9633318,56.0279997 61.6833346,55.9533338 61.422,55.86 C61.1606654,55.7666662 60.9226677,55.6616673 60.708,55.545 C60.4933323,55.4283328 60.3160007,55.3093339 60.176,55.188 L60.736,54.278 C60.8480006,54.3900006 60.9973324,54.5043328 61.184,54.621 C61.3706676,54.7376673 61.5759989,54.8426662 61.8,54.936 C62.0240011,55.0293338 62.2643321,55.1039997 62.521,55.16 C62.777668,55.2160003 63.0366654,55.244 63.298,55.244 C63.5500013,55.244 63.7856656,55.2230002 64.005,55.181 C64.2243344,55.1389998 64.4179992,55.0736671 64.586,54.985 C64.7540008,54.8963329 64.8869995,54.7796674 64.985,54.635 C65.0830005,54.4903326 65.132,54.3153344 65.132,54.11 Z M70.662,55.23 C70.662,54.9313318 70.7459992,54.7003342 70.914,54.537 C71.0820008,54.3736659 71.3059986,54.292 71.586,54.292 C71.8846682,54.292 72.1179992,54.3736659 72.286,54.537 C72.4540008,54.7003342 72.538,54.9313318 72.538,55.23 C72.538,55.500668 72.4540008,55.7246658 72.286,55.902 C72.1179992,56.0793342 71.8846682,56.168 71.586,56.168 C71.3059986,56.168 71.0820008,56.0793342 70.914,55.902 C70.7459992,55.7246658 70.662,55.500668 70.662,55.23 Z M77.102,51.45 C77.102,51.3659996 77.0996667,51.256334 77.095,51.121 C77.0903333,50.985666 77.0833334,50.8456674 77.074,50.701 C77.0646666,50.5563326 77.0530001,50.4140007 77.039,50.274 C77.0249999,50.1339993 77.0086668,50.0126672 76.99,49.91 L76.052,49.91 L76.052,49 L77.928,49 L78.054,50.134 L78.124,50.134 C78.2173338,49.9753325 78.3409992,49.8190008 78.495,49.665 C78.6490008,49.5109992 78.8286656,49.3710006 79.034,49.245 C79.2393344,49.1189994 79.4679987,49.018667 79.72,48.944 C79.9720013,48.869333 80.2379986,48.832 80.518,48.832 C80.9473355,48.832 81.327665,48.8786662 81.659,48.972 C81.990335,49.0653338 82.2656656,49.2309988 82.485,49.469 C82.7043344,49.7070012 82.8699994,50.028998 82.982,50.435 C83.0940006,50.841002 83.15,51.3566635 83.15,51.982 L83.15,56 L82.058,56 L82.058,52.192 C82.058,51.4173295 81.9320013,50.834002 81.68,50.442 C81.4279987,50.049998 80.97067,49.854 80.308,49.854 C80.0653321,49.854 79.8296678,49.9029995 79.601,50.001 C79.3723322,50.0990005 79.1646676,50.2273325 78.978,50.386 C78.7913324,50.5446675 78.6280007,50.7289989 78.488,50.939 C78.3479993,51.149001 78.2453337,51.3706655 78.18,51.604 L78.18,56 L77.102,56 L77.102,51.45 Z M85.712,49.546 C86.1133353,49.3126655 86.5659975,49.1446672 87.07,49.042 C87.5740025,48.9393328 88.0686642,48.888 88.554,48.888 C89.0300024,48.888 89.4196652,48.9626659 89.723,49.112 C90.0263348,49.2613341 90.2643325,49.4549988 90.437,49.693 C90.6096675,49.9310012 90.726333,50.2016651 90.787,50.505 C90.847667,50.8083349 90.878,51.1139985 90.878,51.422 C90.878,51.7766684 90.8686668,52.1546647 90.85,52.556 C90.8313332,52.9573353 90.8173334,53.3586647 90.808,53.76 C90.808,54.226669 90.8359997,54.6699979 90.892,55.09 L91.83,55.09 L91.83,56 L89.968,56 L89.842,54.95 L89.772,54.95 C89.7159997,55.0340004 89.6320006,55.1413327 89.52,55.272 C89.4079994,55.4026673 89.2610009,55.5309994 89.079,55.657 C88.8969991,55.7830006 88.6753346,55.8926662 88.414,55.986 C88.1526654,56.0793338 87.8446684,56.126 87.49,56.126 C86.7993299,56.126 86.2533353,55.9486684 85.852,55.594 C85.4506647,55.2393316 85.25,54.7540031 85.25,54.138 C85.25,53.6619976 85.354999,53.2653349 85.565,52.948 C85.7750011,52.6306651 86.075998,52.388 86.468,52.22 C86.860002,52.0519992 87.3336639,51.9540001 87.889,51.926 C88.4443361,51.8979999 89.0673299,51.9353328 89.758,52.038 C89.8046669,51.6086645 89.8116668,51.2516681 89.779,50.967 C89.7463332,50.6823319 89.6716672,50.4560008 89.555,50.288 C89.4383328,50.1199992 89.275001,50.0010003 89.065,49.931 C88.8549989,49.8609997 88.5960015,49.826 88.288,49.826 C87.8679979,49.826 87.4666686,49.8843327 87.084,50.001 C86.7013314,50.1176672 86.3606682,50.2366661 86.062,50.358 L85.712,49.546 Z M87.77,55.188 C88.0313346,55.188 88.2739989,55.1460004 88.498,55.062 C88.7220011,54.9779996 88.9179992,54.8706673 89.086,54.74 C89.2540008,54.6093327 89.3939994,54.4670008 89.506,54.313 C89.6180006,54.1589992 89.7019997,54.0120007 89.758,53.872 L89.758,52.892 C89.2726642,52.8079996 88.8246687,52.766 88.414,52.766 C88.0033313,52.766 87.6486682,52.8103329 87.35,52.899 C87.0513318,52.9876671 86.8180008,53.1253324 86.65,53.312 C86.4819992,53.4986676 86.398,53.7413318 86.398,54.04 C86.398,54.3480015 86.502999,54.6163322 86.713,54.845 C86.9230011,55.0736678 87.2753309,55.188 87.77,55.188 Z M96.268,56 L96.268,51.338 C96.268,51.141999 96.2610001,50.9530009 96.247,50.771 C96.2329999,50.5889991 96.2003336,50.4256674 96.149,50.281 C96.0976664,50.1363326 96.0230005,50.0220004 95.925,49.938 C95.8269995,49.8539996 95.6986675,49.812 95.54,49.812 C95.2226651,49.812 94.9543344,49.9426654 94.735,50.204 C94.5156656,50.4653346 94.3500006,50.791998 94.238,51.184 L94.238,56 L93.174,56 L93.174,49 L93.902,49 L94.112,49.854 L94.168,49.854 C94.2613338,49.7139993 94.3523329,49.5810006 94.441,49.455 C94.5296671,49.3289994 94.6323328,49.2193338 94.749,49.126 C94.8656673,49.0326662 95.0033325,48.9603336 95.162,48.909 C95.3206675,48.8576664 95.5213321,48.832 95.764,48.832 C95.9040007,48.832 96.0486659,48.8529998 96.198,48.895 C96.3473341,48.9370002 96.4849994,49.0023329 96.611,49.091 C96.7370006,49.1796671 96.8466662,49.2986659 96.94,49.448 C97.0333338,49.5973341 97.0939999,49.7793323 97.122,49.994 C97.3366677,49.6299982 97.5769987,49.3453344 97.843,49.14 C98.1090013,48.9346656 98.475331,48.832 98.942,48.832 C99.2500015,48.832 99.4996657,48.8833328 99.691,48.986 C99.8823343,49.0886672 100.031666,49.2356657 100.139,49.427 C100.246334,49.6183343 100.321,49.8469987 100.363,50.113 C100.405,50.3790013 100.426,50.6753317 100.426,51.002 L100.426,56 L99.362,56 L99.362,51.24 C99.362,51.043999 99.3526668,50.8596675 99.334,50.687 C99.3153332,50.5143325 99.2803336,50.3626673 99.229,50.232 C99.1776664,50.1013327 99.1076671,49.998667 99.019,49.924 C98.9303329,49.849333 98.8113341,49.812 98.662,49.812 C98.3353317,49.812 98.0600011,49.9426654 97.836,50.204 C97.6119989,50.4653346 97.4440006,50.8386642 97.332,51.324 L97.332,56 L96.268,56 Z M108.406,55.118 C108.237999,55.2673341 108.039668,55.4073327 107.811,55.538 C107.582332,55.6686673 107.332668,55.7806662 107.062,55.874 C106.791332,55.9673338 106.509001,56.0396664 106.215,56.091 C105.920999,56.1423336 105.624668,56.168 105.326,56.168 C104.765997,56.168 104.271335,56.0816675 103.842,55.909 C103.412665,55.7363325 103.053335,55.4890016 102.764,55.167 C102.474665,54.8449984 102.255334,54.4600022 102.106,54.012 C101.956666,53.5639978 101.882,53.0600028 101.882,52.5 C101.882,51.9119971 101.963666,51.3893356 102.127,50.932 C102.290334,50.4746644 102.525998,50.0920015 102.834,49.784 C103.142002,49.4759985 103.515331,49.2403341 103.954,49.077 C104.392669,48.9136659 104.882664,48.832 105.424,48.832 C105.816002,48.832 106.203331,48.8833328 106.586,48.986 C106.968669,49.0886672 107.306999,49.2823319 107.601,49.567 C107.895001,49.8516681 108.121333,50.2436642 108.28,50.743 C108.438667,51.2423358 108.494667,51.8886627 108.448,52.682 L103.03,52.682 C103.03,53.5220042 103.256331,54.1496646 103.709,54.565 C104.161669,54.9803354 104.765996,55.188 105.522,55.188 C105.774001,55.188 106.023665,55.157667 106.271,55.097 C106.518335,55.036333 106.753999,54.9640004 106.978,54.88 C107.202001,54.7959996 107.400332,54.7026672 107.573,54.6 C107.745668,54.4973328 107.878666,54.4040004 107.972,54.32 L108.406,55.118 Z M105.452,49.756 C105.143998,49.756 104.852335,49.7886663 104.577,49.854 C104.301665,49.9193337 104.059001,50.0289992 103.849,50.183 C103.638999,50.3370008 103.466334,50.5376654 103.331,50.785 C103.195666,51.0323346 103.109334,51.3379982 103.072,51.702 L107.426,51.702 C107.379333,51.0859969 107.181002,50.6076684 106.831,50.267 C106.480998,49.9263316 106.021336,49.756 105.452,49.756 Z M118.752,49.602 L125.248,49.602 L125.248,50.61 L118.752,50.61 L118.752,49.602 Z M118.752,51.898 L125.248,51.898 L125.248,52.906 L118.752,52.906 L118.752,51.898 Z M135.902,51.45 C135.902,51.3659996 135.899667,51.256334 135.895,51.121 C135.890333,50.985666 135.883333,50.8456674 135.874,50.701 C135.864667,50.5563326 135.853,50.4140007 135.839,50.274 C135.825,50.1339993 135.808667,50.0126672 135.79,49.91 L134.852,49.91 L134.852,49 L136.728,49 L136.854,50.134 L136.924,50.134 C137.017334,49.9753325 137.140999,49.8190008 137.295,49.665 C137.449001,49.5109992 137.628666,49.3710006 137.834,49.245 C138.039334,49.1189994 138.267999,49.018667 138.52,48.944 C138.772001,48.869333 139.037999,48.832 139.318,48.832 C139.747335,48.832 140.127665,48.8786662 140.459,48.972 C140.790335,49.0653338 141.065666,49.2309988 141.285,49.469 C141.504334,49.7070012 141.669999,50.028998 141.782,50.435 C141.894001,50.841002 141.95,51.3566635 141.95,51.982 L141.95,56 L140.858,56 L140.858,52.192 C140.858,51.4173295 140.732001,50.834002 140.48,50.442 C140.227999,50.049998 139.77067,49.854 139.108,49.854 C138.865332,49.854 138.629668,49.9029995 138.401,50.001 C138.172332,50.0990005 137.964668,50.2273325 137.778,50.386 C137.591332,50.5446675 137.428001,50.7289989 137.288,50.939 C137.147999,51.149001 137.045334,51.3706655 136.98,51.604 L136.98,56 L135.902,56 L135.902,51.45 Z M144.512,49.546 C144.913335,49.3126655 145.365997,49.1446672 145.87,49.042 C146.374003,48.9393328 146.868664,48.888 147.354,48.888 C147.830002,48.888 148.219665,48.9626659 148.523,49.112 C148.826335,49.2613341 149.064332,49.4549988 149.237,49.693 C149.409668,49.9310012 149.526333,50.2016651 149.587,50.505 C149.647667,50.8083349 149.678,51.1139985 149.678,51.422 C149.678,51.7766684 149.668667,52.1546647 149.65,52.556 C149.631333,52.9573353 149.617333,53.3586647 149.608,53.76 C149.608,54.226669 149.636,54.6699979 149.692,55.09 L150.63,55.09 L150.63,56 L148.768,56 L148.642,54.95 L148.572,54.95 C148.516,55.0340004 148.432001,55.1413327 148.32,55.272 C148.207999,55.4026673 148.061001,55.5309994 147.879,55.657 C147.696999,55.7830006 147.475335,55.8926662 147.214,55.986 C146.952665,56.0793338 146.644668,56.126 146.29,56.126 C145.59933,56.126 145.053335,55.9486684 144.652,55.594 C144.250665,55.2393316 144.05,54.7540031 144.05,54.138 C144.05,53.6619976 144.154999,53.2653349 144.365,52.948 C144.575001,52.6306651 144.875998,52.388 145.268,52.22 C145.660002,52.0519992 146.133664,51.9540001 146.689,51.926 C147.244336,51.8979999 147.86733,51.9353328 148.558,52.038 C148.604667,51.6086645 148.611667,51.2516681 148.579,50.967 C148.546333,50.6823319 148.471667,50.4560008 148.355,50.288 C148.238333,50.1199992 148.075001,50.0010003 147.865,49.931 C147.654999,49.8609997 147.396002,49.826 147.088,49.826 C146.667998,49.826 146.266669,49.8843327 145.884,50.001 C145.501331,50.1176672 145.160668,50.2366661 144.862,50.358 L144.512,49.546 Z M146.57,55.188 C146.831335,55.188 147.073999,55.1460004 147.298,55.062 C147.522001,54.9779996 147.717999,54.8706673 147.886,54.74 C148.054001,54.6093327 148.193999,54.4670008 148.306,54.313 C148.418001,54.1589992 148.502,54.0120007 148.558,53.872 L148.558,52.892 C148.072664,52.8079996 147.624669,52.766 147.214,52.766 C146.803331,52.766 146.448668,52.8103329 146.15,52.899 C145.851332,52.9876671 145.618001,53.1253324 145.45,53.312 C145.281999,53.4986676 145.198,53.7413318 145.198,54.04 C145.198,54.3480015 145.302999,54.6163322 145.513,54.845 C145.723001,55.0736678 146.075331,55.188 146.57,55.188 Z M155.068,56 L155.068,51.338 C155.068,51.141999 155.061,50.9530009 155.047,50.771 C155.033,50.5889991 155.000334,50.4256674 154.949,50.281 C154.897666,50.1363326 154.823,50.0220004 154.725,49.938 C154.627,49.8539996 154.498667,49.812 154.34,49.812 C154.022665,49.812 153.754334,49.9426654 153.535,50.204 C153.315666,50.4653346 153.150001,50.791998 153.038,51.184 L153.038,56 L151.974,56 L151.974,49 L152.702,49 L152.912,49.854 L152.968,49.854 C153.061334,49.7139993 153.152333,49.5810006 153.241,49.455 C153.329667,49.3289994 153.432333,49.2193338 153.549,49.126 C153.665667,49.0326662 153.803333,48.9603336 153.962,48.909 C154.120667,48.8576664 154.321332,48.832 154.564,48.832 C154.704001,48.832 154.848666,48.8529998 154.998,48.895 C155.147334,48.9370002 155.284999,49.0023329 155.411,49.091 C155.537001,49.1796671 155.646666,49.2986659 155.74,49.448 C155.833334,49.5973341 155.894,49.7793323 155.922,49.994 C156.136668,49.6299982 156.376999,49.3453344 156.643,49.14 C156.909001,48.9346656 157.275331,48.832 157.742,48.832 C158.050002,48.832 158.299666,48.8833328 158.491,48.986 C158.682334,49.0886672 158.831666,49.2356657 158.939,49.427 C159.046334,49.6183343 159.121,49.8469987 159.163,50.113 C159.205,50.3790013 159.226,50.6753317 159.226,51.002 L159.226,56 L158.162,56 L158.162,51.24 C158.162,51.043999 158.152667,50.8596675 158.134,50.687 C158.115333,50.5143325 158.080334,50.3626673 158.029,50.232 C157.977666,50.1013327 157.907667,49.998667 157.819,49.924 C157.730333,49.849333 157.611334,49.812 157.462,49.812 C157.135332,49.812 156.860001,49.9426654 156.636,50.204 C156.411999,50.4653346 156.244001,50.8386642 156.132,51.324 L156.132,56 L155.068,56 Z M167.206,55.118 C167.037999,55.2673341 166.839668,55.4073327 166.611,55.538 C166.382332,55.6686673 166.132668,55.7806662 165.862,55.874 C165.591332,55.9673338 165.309001,56.0396664 165.015,56.091 C164.720999,56.1423336 164.424668,56.168 164.126,56.168 C163.565997,56.168 163.071335,56.0816675 162.642,55.909 C162.212665,55.7363325 161.853335,55.4890016 161.564,55.167 C161.274665,54.8449984 161.055334,54.4600022 160.906,54.012 C160.756666,53.5639978 160.682,53.0600028 160.682,52.5 C160.682,51.9119971 160.763666,51.3893356 160.927,50.932 C161.090334,50.4746644 161.325998,50.0920015 161.634,49.784 C161.942002,49.4759985 162.315331,49.2403341 162.754,49.077 C163.192669,48.9136659 163.682664,48.832 164.224,48.832 C164.616002,48.832 165.003331,48.8833328 165.386,48.986 C165.768669,49.0886672 166.106999,49.2823319 166.401,49.567 C166.695001,49.8516681 166.921333,50.2436642 167.08,50.743 C167.238667,51.2423358 167.294667,51.8886627 167.248,52.682 L161.83,52.682 C161.83,53.5220042 162.056331,54.1496646 162.509,54.565 C162.961669,54.9803354 163.565996,55.188 164.322,55.188 C164.574001,55.188 164.823665,55.157667 165.071,55.097 C165.318335,55.036333 165.553999,54.9640004 165.778,54.88 C166.002001,54.7959996 166.200332,54.7026672 166.373,54.6 C166.545668,54.4973328 166.678666,54.4040004 166.772,54.32 L167.206,55.118 Z M164.252,49.756 C163.943998,49.756 163.652335,49.7886663 163.377,49.854 C163.101665,49.9193337 162.859001,50.0289992 162.649,50.183 C162.438999,50.3370008 162.266334,50.5376654 162.131,50.785 C161.995666,51.0323346 161.909334,51.3379982 161.872,51.702 L166.226,51.702 C166.179333,51.0859969 165.981002,50.6076684 165.631,50.267 C165.280998,49.9263316 164.821336,49.756 164.252,49.756 Z M171.406,55.23 C171.406,54.9499986 171.496999,54.7236675 171.679,54.551 C171.861001,54.3783325 172.096665,54.292 172.386,54.292 C172.740668,54.292 173.015999,54.4156654 173.212,54.663 C173.408001,54.9103346 173.506,55.2579978 173.506,55.706 C173.506,56.0700018 173.445334,56.3896653 173.324,56.665 C173.202666,56.9403347 173.051001,57.1736657 172.869,57.365 C172.686999,57.5563343 172.491001,57.7103327 172.281,57.827 C172.070999,57.9436673 171.877334,58.0299997 171.7,58.086 L171.35,57.54 C171.686002,57.4093327 171.975332,57.2226679 172.218,56.98 C172.460668,56.7373321 172.582,56.4433351 172.582,56.098 C172.451333,56.1260001 172.348667,56.14 172.274,56.14 C172.003332,56.14 171.791001,56.0630008 171.637,55.909 C171.482999,55.7549992 171.406,55.5286682 171.406,55.23 Z M171.532,49.728 C171.532,49.4293318 171.615999,49.1983342 171.784,49.035 C171.952001,48.8716658 172.175999,48.79 172.456,48.79 C172.754668,48.79 172.987999,48.8716658 173.156,49.035 C173.324001,49.1983342 173.408,49.4293318 173.408,49.728 C173.408,49.998668 173.324001,50.2226658 173.156,50.4 C172.987999,50.5773342 172.754668,50.666 172.456,50.666 C172.175999,50.666 171.952001,50.5773342 171.784,50.4 C171.615999,50.2226658 171.532,49.998668 171.532,49.728 Z M22.32,71.924 C22.32,72.6800038 22.1216687,73.2516647 21.725,73.639 C21.3283313,74.0263353 20.8033366,74.22 20.15,74.22 L18.12,74.22 L18.12,73.24 L19.646,73.24 C20.2153362,73.24 20.6213321,73.104668 20.864,72.834 C21.1066679,72.563332 21.228,72.1433362 21.228,71.574 L21.228,70.23 C21.228,69.8659982 21.2979993,69.5346682 21.438,69.236 C21.5780007,68.9373318 21.745999,68.6783344 21.942,68.459 C22.138001,68.2396656 22.3386656,68.0670006 22.544,67.941 C22.7493344,67.8149994 22.9173327,67.7426668 23.048,67.724 L23.048,67.64 C22.9173327,67.6213332 22.7493344,67.5536672 22.544,67.437 C22.3386656,67.3203328 22.138001,67.1616677 21.942,66.961 C21.745999,66.7603323 21.5780007,66.5106682 21.438,66.212 C21.2979993,65.9133318 21.228,65.5726686 21.228,65.19 L21.228,63.832 C21.228,63.2813306 21.1136678,62.8660014 20.885,62.586 C20.6563322,62.3059986 20.2480029,62.166 19.66,62.166 L18.12,62.166 L18.12,61.186 L20.15,61.186 C20.4673349,61.186 20.7589987,61.2443327 21.025,61.361 C21.2910013,61.4776672 21.5196657,61.6386656 21.711,61.844 C21.9023343,62.0493344 22.0516661,62.2919986 22.159,62.572 C22.2663339,62.8520014 22.32,63.1599983 22.32,63.496 L22.32,64.924 C22.32,65.3533355 22.387666,65.7126652 22.523,66.002 C22.658334,66.2913348 22.8263323,66.5269991 23.027,66.709 C23.2276677,66.8910009 23.4423322,67.0216663 23.671,67.101 C23.8996678,67.1803337 24.1026658,67.22 24.28,67.22 L24.28,68.2 C24.1026658,68.2 23.8996678,68.2466662 23.671,68.34 C23.4423322,68.4333338 23.2276677,68.577999 23.027,68.774 C22.8263323,68.970001 22.658334,69.2149985 22.523,69.509 C22.387666,69.8030015 22.32,70.1506647 22.32,70.552 L22.32,71.924 Z" id="constructor(name){this.name=name;}" fill="#8A704D" fill-rule="nonzero"></path>
        </g>
    </g>
</svg>