<?xml version="1.0" encoding="UTF-8"?>
<svg width="639px" height="246px" viewBox="0 0 639 246" version="1.1" xmlns="http://www.w3.org/2000/svg" xmlns:xlink="http://www.w3.org/1999/xlink">
    <!-- Generator: sketchtool 55.2 (78181) - https://sketchapp.com -->
    <title>carousel2.svg</title>
    <desc>Created with sketchtool.</desc>
    <g id="dom" stroke="none" stroke-width="1" fill="none" fill-rule="evenodd">
        <g id="carousel2.svg">
            <rect id="Rectangle-18" stroke="#8A704D" stroke-width="3" fill="#FFF9EB" opacity="0.5" x="41.5" y="98.5" width="63" height="63" rx="10"></rect>
            <rect id="Rectangle-19" stroke="#8A704D" stroke-width="3" fill="#FFF9EB" opacity="0.5" x="109.5" y="98.5" width="63" height="63" rx="10"></rect>
            <rect id="Rectangle-20" stroke="#8A704D" stroke-width="3" fill="#FFF9EB" opacity="0.5" x="177.5" y="98.5" width="63" height="63" rx="10"></rect>
            <rect id="Rectangle-21" stroke="#8A704D" stroke-width="3" fill="#FFF9EB" x="245.5" y="98.5" width="63" height="63" rx="10"></rect>
            <rect id="Rectangle-22" stroke="#8A704D" stroke-width="3" fill="#FFF9EB" x="313.5" y="98.5" width="63" height="63" rx="10"></rect>
            <rect id="Rectangle-23" stroke="#8A704D" stroke-width="3" fill="#FFF9EB" x="381.5" y="98.5" width="63" height="63" rx="10"></rect>
            <rect id="Rectangle-26" stroke="#8A704D" stroke-width="3" fill="#FFF9EB" opacity="0.5" x="449.5" y="98.5" width="63" height="63" rx="10"></rect>
            <rect id="Rectangle-25" stroke="#8A704D" stroke-width="3" fill="#FFF9EB" opacity="0.5" x="517.5" y="98.5" width="63" height="63" rx="10"></rect>
            <text id="…-3" font-family="PTMono-Regular, PT Mono" font-size="24" font-weight="normal" fill="#8A704D">
                <tspan x="542" y="131">…</tspan>
            </text>
            <rect id="Rectangle-24" stroke="#EE6B47" stroke-width="2" x="38" y="95" width="546" height="70"></rect>
            <path d="M450,59 L242,59 L242,196 L450,196 L450,59 Z M225,42 L467,42 L467,213 L225,213 L225,42 Z" id="Rectangle-1" fill-opacity="0.88" fill="#E8C48F"></path>
            <text id="div-(container)" font-family="PTMono-Regular, PT Mono" font-size="14" font-weight="normal" fill="#8A704D">
                <tspan x="288.5" y="32">div (container)</tspan>
            </text>
            <text id="130x130" font-family="PTMono-Regular, PT Mono" font-size="13" font-weight="normal" fill="#8A704D">
                <tspan x="252" y="133">130x130</tspan>
            </text>
            <text id="ul-(margin-left:--35" font-family="PTMono-Regular, PT Mono" font-size="14" font-weight="normal" fill="#EE6B47">
                <tspan x="246.5" y="82">ul (margin-left: -350px)</tspan>
            </text>
            <rect id="Rectangle-36" fill="#FFFFFF" x="582" y="83" width="16" height="84"></rect>
        </g>
    </g>
</svg>