<svg xmlns="http://www.w3.org/2000/svg" width="639" height="246" viewBox="0 0 639 246"><defs><style>@import url(https://fonts.googleapis.com/css?family=Open+Sans:bold,italic,bolditalic%7CPT+Mono);@font-face{font-family:&apos;PT Mono&apos;;font-weight:700;font-style:normal;src:local(&apos;PT MonoBold&apos;),url(/font/PTMonoBold.woff2) format(&apos;woff2&apos;),url(/font/PTMonoBold.woff) format(&apos;woff&apos;),url(/font/PTMonoBold.ttf) format(&apos;truetype&apos;)}</style></defs><g id="dom" fill="none" fill-rule="evenodd" stroke="none" stroke-width="1"><g id="carousel2.svg"><rect id="Rectangle-18" width="63" height="63" x="41.5" y="98.5" fill="#FFF9EB" stroke="#8A704D" stroke-width="3" opacity=".5" rx="10"/><rect id="Rectangle-19" width="63" height="63" x="109.5" y="98.5" fill="#FFF9EB" stroke="#8A704D" stroke-width="3" opacity=".5" rx="10"/><rect id="Rectangle-20" width="63" height="63" x="177.5" y="98.5" fill="#FFF9EB" stroke="#8A704D" stroke-width="3" opacity=".5" rx="10"/><rect id="Rectangle-21" width="63" height="63" x="245.5" y="98.5" fill="#FFF9EB" stroke="#8A704D" stroke-width="3" rx="10"/><rect id="Rectangle-22" width="63" height="63" x="313.5" y="98.5" fill="#FFF9EB" stroke="#8A704D" stroke-width="3" rx="10"/><rect id="Rectangle-23" width="63" height="63" x="381.5" y="98.5" fill="#FFF9EB" stroke="#8A704D" stroke-width="3" rx="10"/><rect id="Rectangle-26" width="63" height="63" x="449.5" y="98.5" fill="#FFF9EB" stroke="#8A704D" stroke-width="3" opacity=".5" rx="10"/><rect id="Rectangle-25" width="63" height="63" x="517.5" y="98.5" fill="#FFF9EB" stroke="#8A704D" stroke-width="3" opacity=".5" rx="10"/><text id="…-3" fill="#8A704D" font-family="PTMono-Regular, PT Mono" font-size="24" font-weight="normal"><tspan x="542" y="131">…</tspan></text><path id="Rectangle-24" stroke="#EE6B47" stroke-width="2" d="M38 95h546v70H38z"/><path id="Rectangle-1" fill="#E8C48F" fill-opacity=".88" d="M467 42v171H225V42h242zm-17 17H242v137h208V59z"/><text id="div-(container)" fill="#8A704D" font-family="PTMono-Regular, PT Mono" font-size="14" font-weight="normal"><tspan x="288.5" y="32">div (container)</tspan></text><text id="130x130" fill="#8A704D" font-family="PTMono-Regular, PT Mono" font-size="13" font-weight="normal"><tspan x="252" y="133">130x130</tspan></text><text id="ul-(margin-left:--35" fill="#EE6B47" font-family="PTMono-Regular, PT Mono" font-size="14" font-weight="normal"><tspan x="246.5" y="82">ul (margin-left: -350px)</tspan></text><path id="Rectangle-36" fill="#FFF" d="M582 83h16v84h-16z"/></g></g></svg>