<svg xmlns="http://www.w3.org/2000/svg" width="566" height="173" viewBox="0 0 566 173"><defs><style>@import url(https://fonts.googleapis.com/css?family=Open+Sans:bold,italic,bolditalic%7CPT+Mono);@font-face{font-family:&apos;PT Mono&apos;;font-weight:700;font-style:normal;src:local(&apos;PT MonoBold&apos;),url(/font/PTMonoBold.woff2) format(&apos;woff2&apos;),url(/font/PTMonoBold.woff) format(&apos;woff&apos;),url(/font/PTMonoBold.ttf) format(&apos;truetype&apos;)}</style></defs><g id="combined" fill="none" fill-rule="evenodd" stroke="none" stroke-width="1"><g id="setinterval-interval.svg"><path id="Line" stroke="#DBAF88" stroke-linecap="square" stroke-width="2" d="M10.5 104h550"/><path id="Rectangle-1" fill="#FFF" stroke="#DBAF88" stroke-width="2" d="M110 89h88v28h-88z"/><text id="func(1)" fill="#AF6E24" font-family="PTMono-Regular, PT Mono" font-size="14" font-weight="normal"><tspan x="131" y="107">func(1)</tspan></text><path id="Shape" fill="#C06334" stroke="#C06334" stroke-linecap="square" stroke-width="3" d="M118.911 26.438l7.58-16.164-20.02 20.822L116.192 34l-5.907 15.89 18.296-20.548-9.67-2.904zm4.391-11.506l-5.697 12.11 9.252 2.739L112.9 45.616l4.548-12.219-9.253-2.74 15.107-15.725z"/><path id="Line" stroke="#DBAF88" stroke-linecap="square" stroke-width="2" d="M109 137.5v-70"/><path id="Rectangle-1" fill="#FFF" stroke="#DBAF88" stroke-width="2" d="M253 89h88v28h-88z"/><text id="func(2)" fill="#AF6E24" font-family="PTMono-Regular, PT Mono" font-size="14" font-weight="normal"><tspan x="274" y="107">func(2)</tspan></text><path id="Shape" fill="#C06334" stroke="#C06334" stroke-linecap="square" stroke-width="3" d="M271.582 29.342l-9.67-2.904 7.579-16.164-20.02 20.822L259.192 34l-5.907 15.89 18.296-20.548h0zm-20.387 1.316l15.107-15.726-5.697 12.11 9.252 2.739L255.9 45.616l4.548-12.219-9.253-2.74h0z"/><path id="Line" stroke="#DBAF88" stroke-linecap="square" stroke-width="2" d="M252 137.5v-70"/><path id="Rectangle-1" fill="#FFF" stroke="#DBAF88" stroke-width="2" d="M387 89h88v28h-88z"/><text id="func(3)" fill="#AF6E24" font-family="PTMono-Regular, PT Mono" font-size="14" font-weight="normal"><tspan x="408" y="107">func(3)</tspan></text><path id="Shape" fill="#C06334" stroke="#C06334" stroke-linecap="square" stroke-width="3" d="M405.582 29.342l-9.67-2.904 7.579-16.164-20.02 20.822L393.192 34l-5.907 15.89 18.296-20.548h0zm-20.387 1.316l15.107-15.726-5.697 12.11 9.252 2.739L389.9 45.616l4.548-12.219-9.253-2.74h0z"/><path id="Line" stroke="#DBAF88" stroke-linecap="square" stroke-width="2" d="M386 137.5v-70"/><text id="100" fill="#AF6E24" font-family="PTMono-Regular, PT Mono" font-size="18" font-weight="normal"><tspan x="93" y="165">100</tspan></text><text id="200" fill="#AF6E24" font-family="PTMono-Regular, PT Mono" font-size="18" font-weight="normal"><tspan x="237" y="165">200</tspan></text><text id="300" fill="#AF6E24" font-family="PTMono-Regular, PT Mono" font-size="18" font-weight="normal"><tspan x="372" y="165">300</tspan></text><path id="Line" stroke="#C06334" stroke-linecap="square" stroke-width="3" d="M199.5 104.5h50"/><path id="Line-2" stroke="#C06334" stroke-linecap="square" stroke-width="3" d="M342.5 104.5h41"/></g></g></svg>