<svg xmlns="http://www.w3.org/2000/svg" width="566" height="183" viewBox="0 0 566 183"><defs><style>@import url(https://fonts.googleapis.com/css?family=Open+Sans:bold,italic,bolditalic%7CPT+Mono);@font-face{font-family:&apos;PT Mono&apos;;font-weight:700;font-style:normal;src:local(&apos;PT MonoBold&apos;),url(/font/PTMonoBold.woff2) format(&apos;woff2&apos;),url(/font/PTMonoBold.woff) format(&apos;woff&apos;),url(/font/PTMonoBold.ttf) format(&apos;truetype&apos;)}</style></defs><g id="combined" fill="none" fill-rule="evenodd" stroke="none" stroke-width="1"><g id="settimeout-interval.svg"><path id="Line" stroke="#BCA68E" stroke-linecap="square" stroke-width="2" d="M11.5 102h550"/><path id="Rectangle-1" fill="#FFF" stroke="#BCA68E" stroke-width="2" d="M61 87h88v28H61z"/><text id="func(1)" fill="#8A704D" font-family="PTMono-Regular, PT Mono" font-size="14" font-weight="normal"><tspan x="82" y="105">func(1)</tspan></text><path id="Shape" fill="#EE6B47" stroke="#EE6B47" stroke-linecap="square" stroke-width="3" d="M79.582 27.342l-9.67-2.904L77.49 8.274 57.47 29.096 67.192 32l-5.907 15.89 18.296-20.548h0zm-20.387 1.316l15.107-15.726-5.697 12.11 9.252 2.739L63.9 43.616l4.548-12.219-9.253-2.74h0z"/><path id="Line" stroke="#BCA68E" stroke-linecap="square" stroke-width="2" d="M60 135.5v-70"/><path id="Rectangle-1" fill="#FFF" stroke="#BCA68E" stroke-width="2" d="M254 87h88v28h-88z"/><text id="func(2)" fill="#8A704D" font-family="PTMono-Regular, PT Mono" font-size="14" font-weight="normal"><tspan x="275" y="105">func(2)</tspan></text><path id="Shape" fill="#EE6B47" stroke="#EE6B47" stroke-linecap="square" stroke-width="3" d="M262.911 24.438l7.58-16.164-20.02 20.822L260.192 32l-5.907 15.89 18.296-20.548-9.67-2.904zm4.391-11.506l-5.697 12.11 9.252 2.739L256.9 43.616l4.548-12.219-9.253-2.74 15.107-15.725z"/><path id="Line" stroke="#BCA68E" stroke-linecap="square" stroke-width="2" d="M253 135.5v-70"/><path id="Rectangle-1" fill="#FFF" stroke="#BCA68E" stroke-width="2" d="M447 87h88v28h-88z"/><text id="func(3)" fill="#8A704D" font-family="PTMono-Regular, PT Mono" font-size="14" font-weight="normal"><tspan x="468" y="105">func(3)</tspan></text><path id="Shape" fill="#EE6B47" stroke="#EE6B47" stroke-linecap="square" stroke-width="3" d="M465.582 27.342l-9.67-2.904 7.579-16.164-20.02 20.822L453.192 32l-5.907 15.89 18.296-20.548h0zm-20.387 1.316l15.107-15.726-5.697 12.11 9.252 2.739L449.9 43.616l4.548-12.219-9.253-2.74h0z"/><path id="Line" stroke="#BCA68E" stroke-linecap="square" stroke-width="2" d="M446 135.5v-70"/><path id="Line" stroke="#EE6B47" stroke-linecap="square" stroke-width="3" d="M150.5 102.5h100"/><path id="Line-2" stroke="#EE6B47" stroke-linecap="square" stroke-width="3" d="M343.5 102.5h100"/><text id="100" fill="#000" font-family="PTMono-Regular, PT Mono" font-size="18" font-weight="normal"><tspan x="187" y="177">100</tspan></text><text id="100" fill="#000" font-family="PTMono-Regular, PT Mono" font-size="18" font-weight="normal"><tspan x="380" y="177">100</tspan></text><path id="Line-3" fill="#EE6B47" fill-rule="nonzero" d="M237.5 145.5l14 7-14 7v-6h-72v6l-14-7 14-7v6h72v-6z"/><path id="Line-3-Copy" fill="#EE6B47" fill-rule="nonzero" d="M427.5 145.5l14 7-14 7v-6h-72v6l-14-7 14-7v6h72v-6z"/></g></g></svg>