<svg xmlns="http://www.w3.org/2000/svg" width="440" height="285" viewBox="0 0 440 285"><defs><style>@import url(https://fonts.googleapis.com/css?family=Open+Sans:bold,italic,bolditalic%7CPT+Mono);@font-face{font-family:&apos;PT Mono&apos;;font-weight:700;font-style:normal;src:local(&apos;PT MonoBold&apos;),url(/font/PTMonoBold.woff2) format(&apos;woff2&apos;),url(/font/PTMonoBold.woff) format(&apos;woff&apos;),url(/font/PTMonoBold.ttf) format(&apos;truetype&apos;)}</style></defs><g id="dom" fill="none" fill-rule="evenodd" stroke="none" stroke-width="1"><g id="shadow-dom-user-card.svg"><g id="&lt;user-card&gt;-#shadow-" fill-rule="nonzero" transform="translate(16.63 37.2)"><path id="&lt;" fill="#999" d="M0 5.53v-.406l6.594-4.018.532.868-5.558 3.29L7.14 8.498l-.532.84z"/><path id="user-card" fill="#905" d="M12.852 2.8h1.988v4.774c0 .457.028.896.084 1.316h.938v.91H14l-.042-1.19h-.056a2.938 2.938 0 01-.966.98c-.401.252-.887.378-1.456.378-.43 0-.796-.049-1.099-.147a1.556 1.556 0 01-.749-.511c-.196-.243-.34-.567-.434-.973-.093-.406-.14-.912-.14-1.519v-3.08H8.12V2.8h2.03v3.794c0 .383.016.726.049 1.029.033.303.1.56.203.77.103.21.254.369.455.476.2.107.469.161.805.161.485 0 .908-.159 1.267-.476.36-.317.632-.714.819-1.19V3.738h-.896V2.8zm9.45 5.11a.796.796 0 00-.35-.693 2.872 2.872 0 00-.868-.392 16.056 16.056 0 00-1.127-.273 6.502 6.502 0 01-1.127-.336 2.525 2.525 0 01-.868-.567c-.233-.238-.35-.572-.35-1.001 0-.355.077-.658.231-.91a1.94 1.94 0 01.609-.623c.252-.163.546-.285.882-.364.336-.08.686-.119 1.05-.119.653 0 1.216.082 1.687.245.471.163.847.334 1.127.511l-.448.882a11.79 11.79 0 00-1.001-.483c-.36-.154-.81-.231-1.351-.231-.205 0-.408.021-.609.063-.2.042-.383.105-.546.189a1.088 1.088 0 00-.392.329.825.825 0 00-.147.497c0 .243.117.43.35.56.233.13.523.24.868.329.345.089.721.173 1.127.252.406.08.782.194 1.127.343.345.15.635.35.868.602.233.252.35.593.35 1.022 0 .644-.254 1.176-.763 1.596-.509.42-1.272.63-2.289.63-.308 0-.611-.028-.91-.084a5.52 5.52 0 01-.84-.224 5.054 5.054 0 01-.714-.315 3.002 3.002 0 01-.532-.357l.56-.91c.112.112.261.226.448.343a4.229 4.229 0 001.337.539 3.76 3.76 0 001.484.021c.22-.042.413-.107.581-.196a1.08 1.08 0 00.399-.35.914.914 0 00.147-.525zm9.674 1.008c-.168.15-.366.29-.595.42a4.39 4.39 0 01-.749.336c-.27.093-.553.166-.847.217-.294.051-.59.077-.889.077-.56 0-1.055-.086-1.484-.259a2.858 2.858 0 01-1.078-.742 3.234 3.234 0 01-.658-1.155 4.767 4.767 0 01-.224-1.512c0-.588.082-1.11.245-1.568.163-.457.399-.84.707-1.148a3.08 3.08 0 011.12-.707 4.187 4.187 0 011.47-.245c.392 0 .78.051 1.162.154.383.103.721.296 1.015.581.294.285.52.677.679 1.176.159.5.215 1.146.168 1.939H26.6c0 .84.226 1.468.679 1.883.453.415 1.057.623 1.813.623.252 0 .502-.03.749-.091.247-.06.483-.133.707-.217a3.72 3.72 0 00.595-.28c.173-.103.306-.196.399-.28l.434.798zm-2.954-5.362c-.308 0-.6.033-.875.098a1.995 1.995 0 00-.728.329c-.21.154-.383.355-.518.602s-.222.553-.259.917h4.354c-.047-.616-.245-1.094-.595-1.435-.35-.34-.81-.511-1.379-.511zM33.894 9.8v-.938h1.89V3.738h-1.89V2.8h2.618l.224.91h.07c.317-.29.672-.537 1.064-.742.392-.205.859-.308 1.4-.308.317 0 .572.06.763.182.191.121.34.299.448.532.107.233.18.516.217.847.037.331.056.707.056 1.127l-.98.014c0-.597-.058-1.036-.175-1.316-.117-.28-.329-.42-.637-.42-.29 0-.55.042-.784.126a2.565 2.565 0 00-.609.308c-.173.121-.32.243-.441.364s-.21.224-.266.308v4.13h2.688V9.8h-5.656zm9.282-4.55h4.788v1.036h-4.788V5.25zm12.74-1.372a5.531 5.531 0 00-.693-.189 3.61 3.61 0 00-.735-.077c-.915 0-1.596.215-2.044.644-.448.43-.672 1.11-.672 2.044 0 .41.065.777.196 1.099.13.322.317.595.56.819.243.224.534.397.875.518.34.121.716.182 1.127.182.439 0 .866-.075 1.281-.224.415-.15.763-.345 1.043-.588l.49.812c-.13.112-.294.229-.49.35a4.837 4.837 0 01-1.533.602 4.962 4.962 0 01-1.015.098c-.607 0-1.141-.086-1.603-.259a3.045 3.045 0 01-1.155-.742 3.176 3.176 0 01-.7-1.162A4.525 4.525 0 0150.61 6.3c0-.588.082-1.11.245-1.568.163-.457.399-.84.707-1.148a3.08 3.08 0 011.12-.707 4.187 4.187 0 011.47-.245c.69 0 1.253.06 1.687.182.434.121.8.257 1.099.406l-.014.042v1.946h-1.008v-1.33zm3.766-.532a4.447 4.447 0 011.358-.504 7.423 7.423 0 011.484-.154c.476 0 .866.075 1.169.224.303.15.541.343.714.581.173.238.29.509.35.812.06.303.091.609.091.917 0 .355-.01.733-.028 1.134-.019.401-.033.803-.042 1.204 0 .467.028.91.084 1.33h.938v.91h-1.862l-.126-1.05h-.07c-.056.084-.14.191-.252.322-.112.13-.259.259-.441.385a2.749 2.749 0 01-1.589.469c-.69 0-1.237-.177-1.638-.532-.401-.355-.602-.84-.602-1.456 0-.476.105-.873.315-1.19.21-.317.511-.56.903-.728.392-.168.866-.266 1.421-.294a9.544 9.544 0 011.869.112c.047-.43.054-.786.021-1.071-.033-.285-.107-.511-.224-.679a.938.938 0 00-.49-.357 2.482 2.482 0 00-.777-.105c-.42 0-.821.058-1.204.175-.383.117-.723.236-1.022.357l-.35-.812zm2.058 5.642c.261 0 .504-.042.728-.126a2.22 2.22 0 00.588-.322 2.133 2.133 0 00.672-.868v-.98a7.92 7.92 0 00-1.344-.126c-.41 0-.765.044-1.064.133-.299.089-.532.226-.7.413-.168.187-.252.43-.252.728 0 .308.105.576.315.805.21.229.562.343 1.057.343zm5.754.812v-.938h1.89V3.738h-1.89V2.8h2.618l.224.91h.07c.317-.29.672-.537 1.064-.742.392-.205.859-.308 1.4-.308.317 0 .572.06.763.182.191.121.34.299.448.532.107.233.18.516.217.847.037.331.056.707.056 1.127l-.98.014c0-.597-.058-1.036-.175-1.316-.117-.28-.329-.42-.637-.42-.29 0-.55.042-.784.126a2.565 2.565 0 00-.609.308c-.173.121-.32.243-.441.364s-.21.224-.266.308v4.13h2.688V9.8h-5.656zM79.856 0h2.268v7.406c0 .084.005.189.014.315a15.6 15.6 0 00.084.812c.019.135.037.254.056.357h.938v.91h-1.862l-.14-1.078h-.056c-.205.355-.511.651-.917.889s-.875.357-1.407.357c-1.055 0-1.832-.296-2.331-.889-.5-.593-.749-1.514-.749-2.765 0-.588.084-1.108.252-1.561.168-.453.408-.83.721-1.134a3.118 3.118 0 011.127-.693 4.298 4.298 0 011.47-.238c.196 0 .371.005.525.014.154.01.296.023.427.042.13.019.254.044.371.077.117.033.245.068.385.105V.938h-1.176V0zm-.84 9.03c.57 0 1.017-.147 1.344-.441.327-.294.55-.735.672-1.323V4.018a2.168 2.168 0 00-.693-.308c-.257-.065-.595-.098-1.015-.098-.747 0-1.335.217-1.764.651-.43.434-.644 1.118-.644 2.051 0 .383.035.74.105 1.071.07.331.187.618.35.861.163.243.38.434.651.574.27.14.602.21.994.21z"/><path id="&gt;" fill="#999" d="M84.532 9.338L84 8.498l5.572-3.234-5.558-3.29.532-.868 6.594 4.018v.406z"/><path id="#shadow-root" fill="#000" d="M20.958 26.65h-2.03l-.546 2.338h-.966l.546-2.338H16.59l.196-.896h1.386l.434-1.834H17.29l.196-.896h1.33l.532-2.212h.966l-.532 2.212h2.03l.532-2.212h.966l-.532 2.212h1.358l-.224.896h-1.344l-.434 1.834h1.302l-.224.896h-1.288l-.546 2.338h-.966l.546-2.338zm-1.82-.896h2.03l.434-1.834h-2.03l-.434 1.834zm11.564 2.156a.796.796 0 00-.35-.693 2.872 2.872 0 00-.868-.392 16.056 16.056 0 00-1.127-.273 6.502 6.502 0 01-1.127-.336 2.525 2.525 0 01-.868-.567c-.233-.238-.35-.572-.35-1.001 0-.355.077-.658.231-.91a1.94 1.94 0 01.609-.623c.252-.163.546-.285.882-.364.336-.08.686-.119 1.05-.119.653 0 1.216.082 1.687.245.471.163.847.334 1.127.511l-.448.882a11.79 11.79 0 00-1.001-.483c-.36-.154-.81-.231-1.351-.231-.205 0-.408.021-.609.063-.2.042-.383.105-.546.189a1.088 1.088 0 00-.392.329.825.825 0 00-.147.497c0 .243.117.43.35.56.233.13.523.24.868.329.345.089.721.173 1.127.252.406.08.782.194 1.127.343.345.15.635.35.868.602.233.252.35.593.35 1.022 0 .644-.254 1.176-.763 1.596-.509.42-1.272.63-2.289.63-.308 0-.611-.028-.91-.084a5.52 5.52 0 01-.84-.224 5.054 5.054 0 01-.714-.315 3.002 3.002 0 01-.532-.357l.56-.91c.112.112.261.226.448.343a4.229 4.229 0 001.337.539 3.76 3.76 0 001.484.021c.22-.042.413-.107.581-.196a1.08 1.08 0 00.399-.35.914.914 0 00.147-.525zM33.026 20h2.184v3.668h.07c.29-.327.625-.581 1.008-.763.383-.182.859-.273 1.428-.273.448 0 .838.047 1.169.14.331.093.602.257.812.49.21.233.366.553.469.959.103.406.154.922.154 1.547V29.8h-1.092v-3.822c0-.401-.023-.751-.07-1.05a1.829 1.829 0 00-.273-.749c-.135-.2-.32-.352-.553-.455-.233-.103-.532-.154-.896-.154-.252 0-.5.044-.742.133-.243.089-.464.21-.665.364-.2.154-.373.34-.518.56-.145.22-.245.46-.301.721V29.8h-1.078v-8.862h-1.106V20zm9.856 3.346a4.447 4.447 0 011.358-.504 7.423 7.423 0 011.484-.154c.476 0 .866.075 1.169.224.303.15.541.343.714.581.173.238.29.509.35.812.06.303.091.609.091.917 0 .355-.01.733-.028 1.134-.019.401-.033.803-.042 1.204 0 .467.028.91.084 1.33H49v.91h-1.862l-.126-1.05h-.07c-.056.084-.14.191-.252.322-.112.13-.259.259-.441.385a2.749 2.749 0 01-1.589.469c-.69 0-1.237-.177-1.638-.532-.401-.355-.602-.84-.602-1.456 0-.476.105-.873.315-1.19.21-.317.511-.56.903-.728.392-.168.866-.266 1.421-.294a9.544 9.544 0 011.869.112c.047-.43.054-.786.021-1.071-.033-.285-.107-.511-.224-.679a.938.938 0 00-.49-.357 2.482 2.482 0 00-.777-.105c-.42 0-.821.058-1.204.175-.383.117-.723.236-1.022.357l-.35-.812zm2.058 5.642c.261 0 .504-.042.728-.126a2.22 2.22 0 00.588-.322 2.133 2.133 0 00.672-.868v-.98a7.92 7.92 0 00-1.344-.126c-.41 0-.765.044-1.064.133-.299.089-.532.226-.7.413-.168.187-.252.43-.252.728 0 .308.105.576.315.805.21.229.562.343 1.057.343zM54.656 20h2.268v7.406c0 .084.005.189.014.315a15.6 15.6 0 00.084.812c.019.135.037.254.056.357h.938v.91h-1.862l-.14-1.078h-.056c-.205.355-.511.651-.917.889s-.875.357-1.407.357c-1.055 0-1.832-.296-2.331-.889-.5-.593-.749-1.514-.749-2.765 0-.588.084-1.108.252-1.561.168-.453.408-.83.721-1.134a3.118 3.118 0 011.127-.693 4.298 4.298 0 011.47-.238c.196 0 .371.005.525.014.154.01.296.023.427.042.13.019.254.044.371.077.117.033.245.068.385.105v-1.988h-1.176V20zm-.84 9.03c.57 0 1.017-.147 1.344-.441.327-.294.55-.735.672-1.323v-3.248a2.168 2.168 0 00-.693-.308c-.257-.065-.595-.098-1.015-.098-.747 0-1.335.217-1.764.651-.43.434-.644 1.118-.644 2.051 0 .383.035.74.105 1.071.07.331.187.618.35.861.163.243.38.434.651.574.27.14.602.21.994.21zm5.152-2.73c0-1.13.294-2.023.882-2.681.588-.658 1.428-.987 2.52-.987.588 0 1.094.096 1.519.287.425.191.777.45 1.057.777.28.327.488.714.623 1.162.135.448.203.929.203 1.442 0 .56-.075 1.066-.224 1.519-.15.453-.369.838-.658 1.155-.29.317-.646.562-1.071.735a3.82 3.82 0 01-1.449.259c-.579 0-1.083-.096-1.512-.287a2.967 2.967 0 01-1.064-.777 3.168 3.168 0 01-.623-1.162 4.963 4.963 0 01-.203-1.442zm1.162 0c0 .327.04.653.119.98.08.327.208.62.385.882.177.261.408.471.693.63.285.159.632.238 1.043.238.747 0 1.309-.231 1.687-.693.378-.462.567-1.141.567-2.037 0-.336-.04-.665-.119-.987a2.608 2.608 0 00-.392-.875 2.066 2.066 0 00-.7-.63c-.285-.159-.632-.238-1.043-.238-.747 0-1.307.229-1.68.686-.373.457-.56 1.139-.56 2.044zm11.186-1.96l1.4 3.892h.098l.994-5.432h1.022l-1.372 7h-1.246l-1.344-3.864h-.042l-1.4 3.864H68.18l-1.47-7h1.078l1.134 5.46h.084l1.358-3.92h.952zm5.46.91h4.788v1.036h-4.788V25.25zm7.518 4.55v-.938h1.89v-5.124h-1.89V22.8h2.618l.224.91h.07c.317-.29.672-.537 1.064-.742.392-.205.859-.308 1.4-.308.317 0 .572.06.763.182.191.121.34.299.448.532.107.233.18.516.217.847.037.331.056.707.056 1.127l-.98.014c0-.597-.058-1.036-.175-1.316-.117-.28-.329-.42-.637-.42-.29 0-.55.042-.784.126a2.565 2.565 0 00-.609.308c-.173.121-.32.243-.441.364s-.21.224-.266.308v4.13h2.688v.938h-5.656zm8.274-3.5c0-1.13.294-2.023.882-2.681.588-.658 1.428-.987 2.52-.987.588 0 1.094.096 1.519.287.425.191.777.45 1.057.777.28.327.488.714.623 1.162.135.448.203.929.203 1.442 0 .56-.075 1.066-.224 1.519-.15.453-.369.838-.658 1.155-.29.317-.646.562-1.071.735a3.82 3.82 0 01-1.449.259c-.579 0-1.083-.096-1.512-.287a2.967 2.967 0 01-1.064-.777 3.168 3.168 0 01-.623-1.162 4.963 4.963 0 01-.203-1.442zm1.162 0c0 .327.04.653.119.98.08.327.208.62.385.882.177.261.408.471.693.63.285.159.632.238 1.043.238.747 0 1.309-.231 1.687-.693.378-.462.567-1.141.567-2.037 0-.336-.04-.665-.119-.987a2.608 2.608 0 00-.392-.875 2.066 2.066 0 00-.7-.63c-.285-.159-.632-.238-1.043-.238-.747 0-1.307.229-1.68.686-.373.457-.56 1.139-.56 2.044zm7.238 0c0-1.13.294-2.023.882-2.681.588-.658 1.428-.987 2.52-.987.588 0 1.094.096 1.519.287.425.191.777.45 1.057.777.28.327.488.714.623 1.162.135.448.203.929.203 1.442 0 .56-.075 1.066-.224 1.519-.15.453-.369.838-.658 1.155-.29.317-.646.562-1.071.735a3.82 3.82 0 01-1.449.259c-.579 0-1.083-.096-1.512-.287a2.967 2.967 0 01-1.064-.777 3.168 3.168 0 01-.623-1.162 4.963 4.963 0 01-.203-1.442zm1.162 0c0 .327.04.653.119.98.08.327.208.62.385.882.177.261.408.471.693.63.285.159.632.238 1.043.238.747 0 1.309-.231 1.687-.693.378-.462.567-1.141.567-2.037 0-.336-.04-.665-.119-.987a2.608 2.608 0 00-.392-.875 2.066 2.066 0 00-.7-.63c-.285-.159-.632-.238-1.043-.238-.747 0-1.307.229-1.68.686-.373.457-.56 1.139-.56 2.044zm6.874-3.5h1.666v-1.386l1.092-.308V22.8h3.738v.938h-3.738v3.304c0 .681.166 1.185.497 1.512.331.327.805.49 1.421.49.42 0 .786-.08 1.099-.238.313-.159.595-.331.847-.518l.364.826a3.938 3.938 0 01-1.169.63 4.182 4.182 0 01-1.393.238 3.41 3.41 0 01-1.057-.161 2.426 2.426 0 01-.875-.497 2.38 2.38 0 01-.602-.861c-.15-.35-.224-.768-.224-1.253v-3.472h-1.666V22.8z"/><path id="&lt;" fill="#999" d="M33.6 45.53v-.406l6.594-4.018.532.868-5.558 3.29 5.572 3.234-.532.84z"/><path id="div" fill="#905" d="M46.256 40h2.268v7.406c0 .084.005.189.014.315a15.6 15.6 0 00.084.812c.019.135.037.254.056.357h.938v.91h-1.862l-.14-1.078h-.056c-.205.355-.511.651-.917.889s-.875.357-1.407.357c-1.055 0-1.832-.296-2.331-.889-.5-.593-.749-1.514-.749-2.765 0-.588.084-1.108.252-1.561.168-.453.408-.83.721-1.134a3.118 3.118 0 011.127-.693 4.298 4.298 0 011.47-.238c.196 0 .371.005.525.014.154.01.296.023.427.042.13.019.254.044.371.077.117.033.245.068.385.105v-1.988h-1.176V40zm-.84 9.03c.57 0 1.017-.147 1.344-.441.327-.294.55-.735.672-1.323v-3.248a2.168 2.168 0 00-.693-.308c-.257-.065-.595-.098-1.015-.098-.747 0-1.335.217-1.764.651-.43.434-.644 1.118-.644 2.051 0 .383.035.74.105 1.071.07.331.187.618.35.861.163.243.38.434.651.574.27.14.602.21.994.21zm5.824.77v-.938h2.436v-5.124H51.24V42.8h3.556v6.062h2.38v.938H51.24zm2.058-8.988c0-.252.084-.469.252-.651a.838.838 0 01.644-.273c.27 0 .497.091.679.273a.889.889 0 01.273.651.806.806 0 01-.273.616.963.963 0 01-.679.252.872.872 0 01-.644-.252.838.838 0 01-.252-.616zm9.1 7.63h.154L64.75 42.8h1.218l-2.954 7h-1.232l-3.01-7h1.288l2.338 5.642z"/><path id="&gt;" fill="#999" d="M67.732 49.338l-.532-.84 5.572-3.234-5.558-3.29.532-.868 6.594 4.018v.406z"/><path id="Name:" fill="#333" d="M77.714 43.668l-.756-1.414h-.056l.14 1.414V49.8H75.95V40h.756l3.948 6.104.728 1.344h.07l-.154-1.344V40h1.092v9.8h-.756l-3.92-6.132zm7.168-.322a4.447 4.447 0 011.358-.504 7.423 7.423 0 011.484-.154c.476 0 .866.075 1.169.224.303.15.541.343.714.581.173.238.29.509.35.812.06.303.091.609.091.917 0 .355-.01.733-.028 1.134-.019.401-.033.803-.042 1.204 0 .467.028.91.084 1.33H91v.91h-1.862l-.126-1.05h-.07c-.056.084-.14.191-.252.322-.112.13-.259.259-.441.385a2.749 2.749 0 01-1.589.469c-.69 0-1.237-.177-1.638-.532-.401-.355-.602-.84-.602-1.456 0-.476.105-.873.315-1.19.21-.317.511-.56.903-.728.392-.168.866-.266 1.421-.294a9.544 9.544 0 011.869.112c.047-.43.054-.786.021-1.071-.033-.285-.107-.511-.224-.679a.938.938 0 00-.49-.357 2.482 2.482 0 00-.777-.105c-.42 0-.821.058-1.204.175-.383.117-.723.236-1.022.357l-.35-.812zm2.058 5.642c.261 0 .504-.042.728-.126a2.22 2.22 0 00.588-.322 2.133 2.133 0 00.672-.868v-.98a7.92 7.92 0 00-1.344-.126c-.41 0-.765.044-1.064.133-.299.089-.532.226-.7.413-.168.187-.252.43-.252.728 0 .308.105.576.315.805.21.229.562.343 1.057.343zm8.498.812v-4.662c0-.196-.007-.385-.021-.567a1.9 1.9 0 00-.098-.49.786.786 0 00-.224-.343.57.57 0 00-.385-.126c-.317 0-.586.13-.805.392-.22.261-.385.588-.497.98V49.8h-1.064v-7h.728l.21.854h.056c.093-.14.184-.273.273-.399.089-.126.191-.236.308-.329.117-.093.254-.166.413-.217.159-.051.36-.077.602-.077.14 0 .285.021.434.063.15.042.287.107.413.196.126.089.236.208.329.357.093.15.154.331.182.546.215-.364.455-.649.721-.854.266-.205.632-.308 1.099-.308.308 0 .558.051.749.154.191.103.34.25.448.441.107.191.182.42.224.686.042.266.063.562.063.889V49.8h-1.064v-4.76c0-.196-.01-.38-.028-.553a1.764 1.764 0 00-.105-.455.752.752 0 00-.21-.308.536.536 0 00-.357-.112c-.327 0-.602.13-.826.392-.224.261-.392.635-.504 1.12V49.8h-1.064zm12.138-.882c-.168.15-.366.29-.595.42a4.39 4.39 0 01-.749.336c-.27.093-.553.166-.847.217-.294.051-.59.077-.889.077-.56 0-1.055-.086-1.484-.259a2.858 2.858 0 01-1.078-.742 3.234 3.234 0 01-.658-1.155 4.767 4.767 0 01-.224-1.512c0-.588.082-1.11.245-1.568.163-.457.399-.84.707-1.148a3.08 3.08 0 011.12-.707 4.187 4.187 0 011.47-.245c.392 0 .78.051 1.162.154.383.103.721.296 1.015.581.294.285.52.677.679 1.176.159.5.215 1.146.168 1.939H102.2c0 .84.226 1.468.679 1.883.453.415 1.057.623 1.813.623.252 0 .502-.03.749-.091.247-.06.483-.133.707-.217a3.72 3.72 0 00.595-.28c.173-.103.306-.196.399-.28l.434.798zm-2.954-5.362c-.308 0-.6.033-.875.098a1.995 1.995 0 00-.728.329c-.21.154-.383.355-.518.602s-.222.553-.259.917h4.354c-.047-.616-.245-1.094-.595-1.435-.35-.34-.81-.511-1.379-.511zm7.21-.028c0-.299.084-.53.252-.693.168-.163.392-.245.672-.245.299 0 .532.082.7.245.168.163.252.394.252.693 0 .27-.084.495-.252.672-.168.177-.401.266-.7.266-.28 0-.504-.089-.672-.266a.938.938 0 01-.252-.672zm0 5.502c0-.299.084-.53.252-.693.168-.163.392-.245.672-.245.299 0 .532.082.7.245.168.163.252.394.252.693 0 .27-.084.495-.252.672-.168.177-.401.266-.7.266-.28 0-.504-.089-.672-.266a.938.938 0 01-.252-.672z"/><path id="&lt;" fill="#999" d="M50.4 65.53v-.406l6.594-4.018.532.868-5.558 3.29 5.572 3.234-.532.84z"/><path id="slot" fill="#905" d="M64.302 67.91a.796.796 0 00-.35-.693 2.872 2.872 0 00-.868-.392 16.056 16.056 0 00-1.127-.273 6.502 6.502 0 01-1.127-.336 2.525 2.525 0 01-.868-.567c-.233-.238-.35-.572-.35-1.001 0-.355.077-.658.231-.91a1.94 1.94 0 01.609-.623c.252-.163.546-.285.882-.364.336-.08.686-.119 1.05-.119.653 0 1.216.082 1.687.245.471.163.847.334 1.127.511l-.448.882a11.79 11.79 0 00-1.001-.483c-.36-.154-.81-.231-1.351-.231-.205 0-.408.021-.609.063-.2.042-.383.105-.546.189a1.088 1.088 0 00-.392.329.825.825 0 00-.147.497c0 .243.117.43.35.56.233.13.523.24.868.329.345.089.721.173 1.127.252.406.08.782.194 1.127.343.345.15.635.35.868.602.233.252.35.593.35 1.022 0 .644-.254 1.176-.763 1.596-.509.42-1.272.63-2.289.63-.308 0-.611-.028-.91-.084a5.52 5.52 0 01-.84-.224 5.054 5.054 0 01-.714-.315 3.002 3.002 0 01-.532-.357l.56-.91c.112.112.261.226.448.343a4.229 4.229 0 001.337.539 3.76 3.76 0 001.484.021c.22-.042.413-.107.581-.196a1.08 1.08 0 00.399-.35.914.914 0 00.147-.525zM68.236 60h2.324v7.448c0 .57.096.97.287 1.204.191.233.474.35.847.35.261 0 .511-.047.749-.14.238-.093.502-.252.791-.476l.504.77c-.15.13-.313.247-.49.35a3.638 3.638 0 01-1.106.42 2.963 2.963 0 01-1.442-.077 1.579 1.579 0 01-.679-.427 1.897 1.897 0 01-.413-.777c-.093-.322-.14-.721-.14-1.197v-6.51h-1.232V60zm7.532 6.3c0-1.13.294-2.023.882-2.681.588-.658 1.428-.987 2.52-.987.588 0 1.094.096 1.519.287.425.191.777.45 1.057.777.28.327.488.714.623 1.162.135.448.203.929.203 1.442 0 .56-.075 1.066-.224 1.519-.15.453-.369.838-.658 1.155-.29.317-.646.562-1.071.735a3.82 3.82 0 01-1.449.259c-.579 0-1.083-.096-1.512-.287a2.967 2.967 0 01-1.064-.777 3.168 3.168 0 01-.623-1.162 4.963 4.963 0 01-.203-1.442zm1.162 0c0 .327.04.653.119.98.08.327.208.62.385.882.177.261.408.471.693.63.285.159.632.238 1.043.238.747 0 1.309-.231 1.687-.693.378-.462.567-1.141.567-2.037 0-.336-.04-.665-.119-.987a2.608 2.608 0 00-.392-.875 2.066 2.066 0 00-.7-.63c-.285-.159-.632-.238-1.043-.238-.747 0-1.307.229-1.68.686-.373.457-.56 1.139-.56 2.044zm6.874-3.5h1.666v-1.386l1.092-.308V62.8H90.3v.938h-3.738v3.304c0 .681.166 1.185.497 1.512.331.327.805.49 1.421.49.42 0 .786-.08 1.099-.238.313-.159.595-.331.847-.518l.364.826a3.938 3.938 0 01-1.169.63 4.182 4.182 0 01-1.393.238 3.41 3.41 0 01-1.057-.161 2.426 2.426 0 01-.875-.497 2.38 2.38 0 01-.602-.861c-.15-.35-.224-.768-.224-1.253v-3.472h-1.666V62.8z"/><path id="name" fill="#669A00" d="M101.472 65.25a14.051 14.051 0 00-.063-1.176 4.657 4.657 0 00-.049-.364h-.938v-.91h1.876l.126 1.134h.07c.093-.159.217-.315.371-.469a2.91 2.91 0 011.225-.721c.252-.075.518-.112.798-.112.43 0 .81.047 1.141.14.331.093.607.259.826.497.22.238.385.56.497.966.112.406.168.922.168 1.547V69.8h-1.092v-3.808c0-.775-.126-1.358-.378-1.75-.252-.392-.71-.588-1.372-.588-.243 0-.478.049-.707.147a2.44 2.44 0 00-.623.385c-.187.159-.35.343-.49.553-.14.21-.243.432-.308.665V69.8h-1.078v-4.55zm8.61-1.904a4.447 4.447 0 011.358-.504 7.423 7.423 0 011.484-.154c.476 0 .866.075 1.169.224.303.15.541.343.714.581.173.238.29.509.35.812.06.303.091.609.091.917 0 .355-.01.733-.028 1.134-.019.401-.033.803-.042 1.204 0 .467.028.91.084 1.33h.938v.91h-1.862l-.126-1.05h-.07c-.056.084-.14.191-.252.322-.112.13-.259.259-.441.385a2.749 2.749 0 01-1.589.469c-.69 0-1.237-.177-1.638-.532-.401-.355-.602-.84-.602-1.456 0-.476.105-.873.315-1.19.21-.317.511-.56.903-.728.392-.168.866-.266 1.421-.294a9.544 9.544 0 011.869.112c.047-.43.054-.786.021-1.071-.033-.285-.107-.511-.224-.679a.938.938 0 00-.49-.357 2.482 2.482 0 00-.777-.105c-.42 0-.821.058-1.204.175-.383.117-.723.236-1.022.357l-.35-.812zm2.058 5.642c.261 0 .504-.042.728-.126a2.22 2.22 0 00.588-.322 2.133 2.133 0 00.672-.868v-.98a7.92 7.92 0 00-1.344-.126c-.41 0-.765.044-1.064.133-.299.089-.532.226-.7.413-.168.187-.252.43-.252.728 0 .308.105.576.315.805.21.229.562.343 1.057.343zm8.498.812v-4.662c0-.196-.007-.385-.021-.567a1.9 1.9 0 00-.098-.49.786.786 0 00-.224-.343.57.57 0 00-.385-.126c-.317 0-.586.13-.805.392-.22.261-.385.588-.497.98V69.8h-1.064v-7h.728l.21.854h.056c.093-.14.184-.273.273-.399.089-.126.191-.236.308-.329.117-.093.254-.166.413-.217.159-.051.36-.077.602-.077.14 0 .285.021.434.063.15.042.287.107.413.196.126.089.236.208.329.357.093.15.154.331.182.546.215-.364.455-.649.721-.854.266-.205.632-.308 1.099-.308.308 0 .558.051.749.154.191.103.34.25.448.441.107.191.182.42.224.686.042.266.063.562.063.889V69.8h-1.064v-4.76c0-.196-.01-.38-.028-.553a1.764 1.764 0 00-.105-.455.752.752 0 00-.21-.308.536.536 0 00-.357-.112c-.327 0-.602.13-.826.392-.224.261-.392.635-.504 1.12V69.8h-1.064zm12.138-.882c-.168.15-.366.29-.595.42a4.39 4.39 0 01-.749.336c-.27.093-.553.166-.847.217-.294.051-.59.077-.889.077-.56 0-1.055-.086-1.484-.259a2.858 2.858 0 01-1.078-.742 3.234 3.234 0 01-.658-1.155 4.767 4.767 0 01-.224-1.512c0-.588.082-1.11.245-1.568.163-.457.399-.84.707-1.148a3.08 3.08 0 011.12-.707 4.187 4.187 0 011.47-.245c.392 0 .78.051 1.162.154.383.103.721.296 1.015.581.294.285.52.677.679 1.176.159.5.215 1.146.168 1.939H127.4c0 .84.226 1.468.679 1.883.453.415 1.057.623 1.813.623.252 0 .502-.03.749-.091.247-.06.483-.133.707-.217a3.72 3.72 0 00.595-.28c.173-.103.306-.196.399-.28l.434.798zm-2.954-5.362c-.308 0-.6.033-.875.098a1.995 1.995 0 00-.728.329c-.21.154-.383.355-.518.602s-.222.553-.259.917h4.354c-.047-.616-.245-1.094-.595-1.435-.35-.34-.81-.511-1.379-.511z"/><path id="=&quot;" fill="#999" d="M134.722 63.402h6.496v1.008h-6.496v-1.008zm0 2.296h6.496v1.008h-6.496v-1.008zM147.196 60h1.232l-.434 4.242h-.798V60zm-2.898 0h1.232l-.434 4.242h-.798V60z"/><path id="username" fill="#0376AA" d="M155.652 62.8h1.988v4.774c0 .457.028.896.084 1.316h.938v.91H156.8l-.042-1.19h-.056a2.938 2.938 0 01-.966.98c-.401.252-.887.378-1.456.378-.43 0-.796-.049-1.099-.147a1.556 1.556 0 01-.749-.511c-.196-.243-.34-.567-.434-.973-.093-.406-.14-.912-.14-1.519v-3.08h-.938V62.8h2.03v3.794c0 .383.016.726.049 1.029.033.303.1.56.203.77.103.21.254.369.455.476.2.107.469.161.805.161.485 0 .908-.159 1.267-.476.36-.317.632-.714.819-1.19v-3.626h-.896V62.8zm9.45 5.11a.796.796 0 00-.35-.693 2.872 2.872 0 00-.868-.392 16.056 16.056 0 00-1.127-.273 6.502 6.502 0 01-1.127-.336 2.525 2.525 0 01-.868-.567c-.233-.238-.35-.572-.35-1.001 0-.355.077-.658.231-.91a1.94 1.94 0 01.609-.623c.252-.163.546-.285.882-.364.336-.08.686-.119 1.05-.119.653 0 1.216.082 1.687.245.471.163.847.334 1.127.511l-.448.882a11.79 11.79 0 00-1.001-.483c-.36-.154-.81-.231-1.351-.231-.205 0-.408.021-.609.063-.2.042-.383.105-.546.189a1.088 1.088 0 00-.392.329.825.825 0 00-.147.497c0 .243.117.43.35.56.233.13.523.24.868.329.345.089.721.173 1.127.252.406.08.782.194 1.127.343.345.15.635.35.868.602.233.252.35.593.35 1.022 0 .644-.254 1.176-.763 1.596-.509.42-1.272.63-2.289.63-.308 0-.611-.028-.91-.084a5.52 5.52 0 01-.84-.224 5.054 5.054 0 01-.714-.315 3.002 3.002 0 01-.532-.357l.56-.91c.112.112.261.226.448.343a4.229 4.229 0 001.337.539 3.76 3.76 0 001.484.021c.22-.042.413-.107.581-.196a1.08 1.08 0 00.399-.35.914.914 0 00.147-.525zm9.674 1.008c-.168.15-.366.29-.595.42a4.39 4.39 0 01-.749.336c-.27.093-.553.166-.847.217-.294.051-.59.077-.889.077-.56 0-1.055-.086-1.484-.259a2.858 2.858 0 01-1.078-.742 3.234 3.234 0 01-.658-1.155 4.767 4.767 0 01-.224-1.512c0-.588.082-1.11.245-1.568.163-.457.399-.84.707-1.148a3.08 3.08 0 011.12-.707 4.187 4.187 0 011.47-.245c.392 0 .78.051 1.162.154.383.103.721.296 1.015.581.294.285.52.677.679 1.176.159.5.215 1.146.168 1.939H169.4c0 .84.226 1.468.679 1.883.453.415 1.057.623 1.813.623.252 0 .502-.03.749-.091.247-.06.483-.133.707-.217a3.72 3.72 0 00.595-.28c.173-.103.306-.196.399-.28l.434.798zm-2.954-5.362c-.308 0-.6.033-.875.098a1.995 1.995 0 00-.728.329c-.21.154-.383.355-.518.602s-.222.553-.259.917h4.354c-.047-.616-.245-1.094-.595-1.435-.35-.34-.81-.511-1.379-.511zm4.872 6.244v-.938h1.89v-5.124h-1.89V62.8h2.618l.224.91h.07c.317-.29.672-.537 1.064-.742.392-.205.859-.308 1.4-.308.317 0 .572.06.763.182.191.121.34.299.448.532.107.233.18.516.217.847.037.331.056.707.056 1.127l-.98.014c0-.597-.058-1.036-.175-1.316-.117-.28-.329-.42-.637-.42-.29 0-.55.042-.784.126a2.565 2.565 0 00-.609.308c-.173.121-.32.243-.441.364s-.21.224-.266.308v4.13h2.688v.938h-5.656zm8.778-4.55a14.051 14.051 0 00-.063-1.176 4.657 4.657 0 00-.049-.364h-.938v-.91h1.876l.126 1.134h.07c.093-.159.217-.315.371-.469a2.91 2.91 0 011.225-.721c.252-.075.518-.112.798-.112.43 0 .81.047 1.141.14.331.093.607.259.826.497.22.238.385.56.497.966.112.406.168.922.168 1.547V69.8h-1.092v-3.808c0-.775-.126-1.358-.378-1.75-.252-.392-.71-.588-1.372-.588-.243 0-.478.049-.707.147a2.44 2.44 0 00-.623.385c-.187.159-.35.343-.49.553-.14.21-.243.432-.308.665V69.8h-1.078v-4.55zm8.61-1.904a4.447 4.447 0 011.358-.504 7.423 7.423 0 011.484-.154c.476 0 .866.075 1.169.224.303.15.541.343.714.581.173.238.29.509.35.812.06.303.091.609.091.917 0 .355-.01.733-.028 1.134-.019.401-.033.803-.042 1.204 0 .467.028.91.084 1.33h.938v.91h-1.862l-.126-1.05h-.07c-.056.084-.14.191-.252.322-.112.13-.259.259-.441.385a2.749 2.749 0 01-1.589.469c-.69 0-1.237-.177-1.638-.532-.401-.355-.602-.84-.602-1.456 0-.476.105-.873.315-1.19.21-.317.511-.56.903-.728.392-.168.866-.266 1.421-.294a9.544 9.544 0 011.869.112c.047-.43.054-.786.021-1.071-.033-.285-.107-.511-.224-.679a.938.938 0 00-.49-.357 2.482 2.482 0 00-.777-.105c-.42 0-.821.058-1.204.175-.383.117-.723.236-1.022.357l-.35-.812zm2.058 5.642c.261 0 .504-.042.728-.126a2.22 2.22 0 00.588-.322 2.133 2.133 0 00.672-.868v-.98a7.92 7.92 0 00-1.344-.126c-.41 0-.765.044-1.064.133-.299.089-.532.226-.7.413-.168.187-.252.43-.252.728 0 .308.105.576.315.805.21.229.562.343 1.057.343zm8.498.812v-4.662c0-.196-.007-.385-.021-.567a1.9 1.9 0 00-.098-.49.786.786 0 00-.224-.343.57.57 0 00-.385-.126c-.317 0-.586.13-.805.392-.22.261-.385.588-.497.98V69.8h-1.064v-7h.728l.21.854h.056c.093-.14.184-.273.273-.399.089-.126.191-.236.308-.329.117-.093.254-.166.413-.217.159-.051.36-.077.602-.077.14 0 .285.021.434.063.15.042.287.107.413.196.126.089.236.208.329.357.093.15.154.331.182.546.215-.364.455-.649.721-.854.266-.205.632-.308 1.099-.308.308 0 .558.051.749.154.191.103.34.25.448.441.107.191.182.42.224.686.042.266.063.562.063.889V69.8h-1.064v-4.76c0-.196-.01-.38-.028-.553a1.764 1.764 0 00-.105-.455.752.752 0 00-.21-.308.536.536 0 00-.357-.112c-.327 0-.602.13-.826.392-.224.261-.392.635-.504 1.12V69.8h-1.064zm12.138-.882c-.168.15-.366.29-.595.42a4.39 4.39 0 01-.749.336c-.27.093-.553.166-.847.217-.294.051-.59.077-.889.077-.56 0-1.055-.086-1.484-.259a2.858 2.858 0 01-1.078-.742 3.234 3.234 0 01-.658-1.155 4.767 4.767 0 01-.224-1.512c0-.588.082-1.11.245-1.568.163-.457.399-.84.707-1.148a3.08 3.08 0 011.12-.707 4.187 4.187 0 011.47-.245c.392 0 .78.051 1.162.154.383.103.721.296 1.015.581.294.285.52.677.679 1.176.159.5.215 1.146.168 1.939H211.4c0 .84.226 1.468.679 1.883.453.415 1.057.623 1.813.623.252 0 .502-.03.749-.091.247-.06.483-.133.707-.217a3.72 3.72 0 00.595-.28c.173-.103.306-.196.399-.28l.434.798zm-2.954-5.362c-.308 0-.6.033-.875.098a1.995 1.995 0 00-.728.329c-.21.154-.383.355-.518.602s-.222.553-.259.917h4.354c-.047-.616-.245-1.094-.595-1.435-.35-.34-.81-.511-1.379-.511z"/><path id="&quot;&gt;&lt;/" fill="#999" d="M222.796 60h1.232l-.434 4.242h-.798V60zm-2.898 0h1.232l-.434 4.242h-.798V60zm7.434 9.338l-.532-.84 5.572-3.234-5.558-3.29.532-.868 6.594 4.018v.406l-6.608 3.808zm7.868-3.808v-.406l6.594-4.018.532.868-5.558 3.29 5.572 3.234-.532.84-6.608-3.808zm14.084-5.698l.882.392-5.11 11.536-.882-.392 5.11-11.536z"/><path id="slot" fill="#905" d="M257.502 67.91a.796.796 0 00-.35-.693 2.872 2.872 0 00-.868-.392 16.056 16.056 0 00-1.127-.273 6.502 6.502 0 01-1.127-.336 2.525 2.525 0 01-.868-.567c-.233-.238-.35-.572-.35-1.001 0-.355.077-.658.231-.91a1.94 1.94 0 01.609-.623c.252-.163.546-.285.882-.364.336-.08.686-.119 1.05-.119.653 0 1.216.082 1.687.245.471.163.847.334 1.127.511l-.448.882a11.79 11.79 0 00-1.001-.483c-.36-.154-.81-.231-1.351-.231-.205 0-.408.021-.609.063-.2.042-.383.105-.546.189a1.088 1.088 0 00-.392.329.825.825 0 00-.147.497c0 .243.117.43.35.56.233.13.523.24.868.329.345.089.721.173 1.127.252.406.08.782.194 1.127.343.345.15.635.35.868.602.233.252.35.593.35 1.022 0 .644-.254 1.176-.763 1.596-.509.42-1.272.63-2.289.63-.308 0-.611-.028-.91-.084a5.52 5.52 0 01-.84-.224 5.054 5.054 0 01-.714-.315 3.002 3.002 0 01-.532-.357l.56-.91c.112.112.261.226.448.343a4.229 4.229 0 001.337.539 3.76 3.76 0 001.484.021c.22-.042.413-.107.581-.196a1.08 1.08 0 00.399-.35.914.914 0 00.147-.525zm3.934-7.91h2.324v7.448c0 .57.096.97.287 1.204.191.233.474.35.847.35.261 0 .511-.047.749-.14.238-.093.502-.252.791-.476l.504.77c-.15.13-.313.247-.49.35a3.638 3.638 0 01-1.106.42 2.963 2.963 0 01-1.442-.077 1.579 1.579 0 01-.679-.427 1.897 1.897 0 01-.413-.777c-.093-.322-.14-.721-.14-1.197v-6.51h-1.232V60zm7.532 6.3c0-1.13.294-2.023.882-2.681.588-.658 1.428-.987 2.52-.987.588 0 1.094.096 1.519.287.425.191.777.45 1.057.777.28.327.488.714.623 1.162.135.448.203.929.203 1.442 0 .56-.075 1.066-.224 1.519-.15.453-.369.838-.658 1.155-.29.317-.646.562-1.071.735a3.82 3.82 0 01-1.449.259c-.579 0-1.083-.096-1.512-.287a2.967 2.967 0 01-1.064-.777 3.168 3.168 0 01-.623-1.162 4.963 4.963 0 01-.203-1.442zm1.162 0c0 .327.04.653.119.98.08.327.208.62.385.882.177.261.408.471.693.63.285.159.632.238 1.043.238.747 0 1.309-.231 1.687-.693.378-.462.567-1.141.567-2.037 0-.336-.04-.665-.119-.987a2.608 2.608 0 00-.392-.875 2.066 2.066 0 00-.7-.63c-.285-.159-.632-.238-1.043-.238-.747 0-1.307.229-1.68.686-.373.457-.56 1.139-.56 2.044zm6.874-3.5h1.666v-1.386l1.092-.308V62.8h3.738v.938h-3.738v3.304c0 .681.166 1.185.497 1.512.331.327.805.49 1.421.49.42 0 .786-.08 1.099-.238.313-.159.595-.331.847-.518l.364.826a3.938 3.938 0 01-1.169.63 4.182 4.182 0 01-1.393.238 3.41 3.41 0 01-1.057-.161 2.426 2.426 0 01-.875-.497 2.38 2.38 0 01-.602-.861c-.15-.35-.224-.768-.224-1.253v-3.472h-1.666V62.8z"/><path id="&gt;&lt;/" fill="#999" d="M286.132 69.338l-.532-.84 5.572-3.234-5.558-3.29.532-.868 6.594 4.018v.406l-6.608 3.808zM33.6 85.53v-.406l6.594-4.018.532.868-5.558 3.29 5.572 3.234-.532.84L33.6 85.53zm14.084-5.698l.882.392-5.11 11.536-.882-.392 5.11-11.536z"/><path id="div" fill="#905" d="M54.656 80h2.268v7.406c0 .084.005.189.014.315a15.6 15.6 0 00.084.812c.019.135.037.254.056.357h.938v.91h-1.862l-.14-1.078h-.056c-.205.355-.511.651-.917.889s-.875.357-1.407.357c-1.055 0-1.832-.296-2.331-.889-.5-.593-.749-1.514-.749-2.765 0-.588.084-1.108.252-1.561.168-.453.408-.83.721-1.134a3.118 3.118 0 011.127-.693 4.298 4.298 0 011.47-.238c.196 0 .371.005.525.014.154.01.296.023.427.042.13.019.254.044.371.077.117.033.245.068.385.105v-1.988h-1.176V80zm-.84 9.03c.57 0 1.017-.147 1.344-.441.327-.294.55-.735.672-1.323v-3.248a2.168 2.168 0 00-.693-.308c-.257-.065-.595-.098-1.015-.098-.747 0-1.335.217-1.764.651-.43.434-.644 1.118-.644 2.051 0 .383.035.74.105 1.071.07.331.187.618.35.861.163.243.38.434.651.574.27.14.602.21.994.21zm5.824.77v-.938h2.436v-5.124H59.64V82.8h3.556v6.062h2.38v.938H59.64zm2.058-8.988c0-.252.084-.469.252-.651a.838.838 0 01.644-.273c.27 0 .497.091.679.273a.889.889 0 01.273.651.806.806 0 01-.273.616.963.963 0 01-.679.252.872.872 0 01-.644-.252.838.838 0 01-.252-.616zm9.1 7.63h.154L73.15 82.8h1.218l-2.954 7h-1.232l-3.01-7h1.288l2.338 5.642z"/><path id="&gt;&lt;" fill="#999" d="M76.132 89.338l-.532-.84 5.572-3.234-5.558-3.29.532-.868 6.594 4.018v.406l-6.608 3.808zM33.6 105.53v-.406l6.594-4.018.532.868-5.558 3.29 5.572 3.234-.532.84-6.608-3.808z"/><path id="div" fill="#905" d="M46.256 100h2.268v7.406c0 .084.005.189.014.315a15.6 15.6 0 00.084.812c.019.135.037.254.056.357h.938v.91h-1.862l-.14-1.078h-.056c-.205.355-.511.651-.917.889s-.875.357-1.407.357c-1.055 0-1.832-.296-2.331-.889-.5-.593-.749-1.514-.749-2.765 0-.588.084-1.108.252-1.561.168-.453.408-.83.721-1.134a3.118 3.118 0 011.127-.693 4.298 4.298 0 011.47-.238c.196 0 .371.005.525.014.154.01.296.023.427.042.13.019.254.044.371.077.117.033.245.068.385.105v-1.988h-1.176V100zm-.84 9.03c.57 0 1.017-.147 1.344-.441.327-.294.55-.735.672-1.323v-3.248a2.168 2.168 0 00-.693-.308c-.257-.065-.595-.098-1.015-.098-.747 0-1.335.217-1.764.651-.43.434-.644 1.118-.644 2.051 0 .383.035.74.105 1.071.07.331.187.618.35.861.163.243.38.434.651.574.27.14.602.21.994.21zm5.824.77v-.938h2.436v-5.124H51.24v-.938h3.556v6.062h2.38v.938H51.24zm2.058-8.988c0-.252.084-.469.252-.651a.838.838 0 01.644-.273c.27 0 .497.091.679.273a.889.889 0 01.273.651.806.806 0 01-.273.616.963.963 0 01-.679.252.872.872 0 01-.644-.252.838.838 0 01-.252-.616zm9.1 7.63h.154l2.198-5.642h1.218l-2.954 7h-1.232l-3.01-7h1.288l2.338 5.642z"/><path id="&gt;" fill="#999" d="M67.732 109.338l-.532-.84 5.572-3.234-5.558-3.29.532-.868 6.594 4.018v.406z"/><path id="Birthday:" fill="#333" d="M82.278 102.24a2.42 2.42 0 01-.448 1.393c-.15.21-.34.394-.574.553-.233.159-.509.28-.826.364v.056c.28.047.548.126.805.238a2.19 2.19 0 011.155 1.176c.121.28.182.611.182.994 0 .504-.105.94-.315 1.309-.21.369-.485.67-.826.903-.34.233-.73.406-1.169.518a5.411 5.411 0 01-1.344.168h-.56c-.215 0-.439-.007-.672-.021a17.67 17.67 0 01-.7-.056 4.007 4.007 0 01-.616-.105v-9.646c.345-.056.747-.103 1.204-.14.457-.037.957-.056 1.498-.056.364 0 .735.03 1.113.091.378.06.721.177 1.029.35.308.173.562.413.763.721.2.308.301.705.301 1.19zm-3.248 6.664c.299 0 .588-.037.868-.112.28-.075.527-.187.742-.336.215-.15.385-.336.511-.56.126-.224.189-.49.189-.798 0-.383-.077-.69-.231-.924a1.613 1.613 0 00-.602-.546 2.605 2.605 0 00-.833-.266 6.16 6.16 0 00-.924-.07h-1.218v3.514c.065.019.159.033.28.042.121.01.252.019.392.028a12.31 12.31 0 00.826.028zm-.77-4.592c.159 0 .35-.005.574-.014.224-.01.41-.023.56-.042a3.83 3.83 0 00.63-.273c.196-.107.371-.236.525-.385.154-.15.275-.317.364-.504.089-.187.133-.392.133-.616 0-.308-.058-.565-.175-.77a1.35 1.35 0 00-.469-.49 1.932 1.932 0 00-.672-.252 4.22 4.22 0 00-.77-.07c-.308 0-.59.007-.847.021a4.04 4.04 0 00-.581.063v3.332h.728zm6.58 5.488v-.938h2.436v-5.124H84.84v-.938h3.556v6.062h2.38v.938H84.84zm2.058-8.988c0-.252.084-.469.252-.651a.838.838 0 01.644-.273c.27 0 .497.091.679.273a.889.889 0 01.273.651.806.806 0 01-.273.616.963.963 0 01-.679.252.872.872 0 01-.644-.252.838.838 0 01-.252-.616zm5.796 8.988v-.938h1.89v-5.124h-1.89v-.938h2.618l.224.91h.07c.317-.29.672-.537 1.064-.742.392-.205.859-.308 1.4-.308.317 0 .572.06.763.182.191.121.34.299.448.532.107.233.18.516.217.847.037.331.056.707.056 1.127l-.98.014c0-.597-.058-1.036-.175-1.316-.117-.28-.329-.42-.637-.42-.29 0-.55.042-.784.126a2.565 2.565 0 00-.609.308c-.173.121-.32.243-.441.364s-.21.224-.266.308v4.13h2.688v.938h-5.656zm7.91-7h1.666v-1.386l1.092-.308v1.694h3.738v.938h-3.738v3.304c0 .681.166 1.185.497 1.512.331.327.805.49 1.421.49.42 0 .786-.08 1.099-.238.313-.159.595-.331.847-.518l.364.826a3.938 3.938 0 01-1.169.63 4.182 4.182 0 01-1.393.238 3.41 3.41 0 01-1.057-.161 2.426 2.426 0 01-.875-.497 2.38 2.38 0 01-.602-.861c-.15-.35-.224-.768-.224-1.253v-3.472h-1.666v-.938zm8.022-2.8h2.184v3.668h.07c.29-.327.625-.581 1.008-.763.383-.182.859-.273 1.428-.273.448 0 .838.047 1.169.14.331.093.602.257.812.49.21.233.366.553.469.959.103.406.154.922.154 1.547v4.032h-1.092v-3.822c0-.401-.023-.751-.07-1.05a1.829 1.829 0 00-.273-.749c-.135-.2-.32-.352-.553-.455-.233-.103-.532-.154-.896-.154-.252 0-.5.044-.742.133-.243.089-.464.21-.665.364-.2.154-.373.34-.518.56-.145.22-.245.46-.301.721v4.452h-1.078v-8.862h-1.106V100zm13.23 0h2.268v7.406c0 .084.005.189.014.315a15.6 15.6 0 00.084.812c.019.135.037.254.056.357h.938v.91h-1.862l-.14-1.078h-.056c-.205.355-.511.651-.917.889s-.875.357-1.407.357c-1.055 0-1.832-.296-2.331-.889-.5-.593-.749-1.514-.749-2.765 0-.588.084-1.108.252-1.561.168-.453.408-.83.721-1.134a3.118 3.118 0 011.127-.693 4.298 4.298 0 011.47-.238c.196 0 .371.005.525.014.154.01.296.023.427.042.13.019.254.044.371.077.117.033.245.068.385.105v-1.988h-1.176V100zm-.84 9.03c.57 0 1.017-.147 1.344-.441.327-.294.55-.735.672-1.323v-3.248a2.168 2.168 0 00-.693-.308c-.257-.065-.595-.098-1.015-.098-.747 0-1.335.217-1.764.651-.43.434-.644 1.118-.644 2.051 0 .383.035.74.105 1.071.07.331.187.618.35.861.163.243.38.434.651.574.27.14.602.21.994.21zm5.866-5.684a4.447 4.447 0 011.358-.504 7.423 7.423 0 011.484-.154c.476 0 .866.075 1.169.224.303.15.541.343.714.581.173.238.29.509.35.812.06.303.091.609.091.917 0 .355-.01.733-.028 1.134-.019.401-.033.803-.042 1.204 0 .467.028.91.084 1.33H133v.91h-1.862l-.126-1.05h-.07c-.056.084-.14.191-.252.322-.112.13-.259.259-.441.385a2.749 2.749 0 01-1.589.469c-.69 0-1.237-.177-1.638-.532-.401-.355-.602-.84-.602-1.456 0-.476.105-.873.315-1.19.21-.317.511-.56.903-.728.392-.168.866-.266 1.421-.294a9.544 9.544 0 011.869.112c.047-.43.054-.786.021-1.071-.033-.285-.107-.511-.224-.679a.938.938 0 00-.49-.357 2.482 2.482 0 00-.777-.105c-.42 0-.821.058-1.204.175-.383.117-.723.236-1.022.357l-.35-.812zm2.058 5.642c.261 0 .504-.042.728-.126a2.22 2.22 0 00.588-.322 2.133 2.133 0 00.672-.868v-.98a7.92 7.92 0 00-1.344-.126c-.41 0-.765.044-1.064.133-.299.089-.532.226-.7.413-.168.187-.252.43-.252.728 0 .308.105.576.315.805.21.229.562.343 1.057.343zm9.184-.266h.532l1.736-5.922h1.134l-1.946 6.286c-.103.327-.208.698-.315 1.113a5.2 5.2 0 01-.455 1.169 2.807 2.807 0 01-.798.924c-.336.252-.775.378-1.316.378-.121 0-.25-.014-.385-.042a3.856 3.856 0 01-.399-.105 2.575 2.575 0 01-.364-.147.977.977 0 01-.252-.168l.392-1.008c.056.047.133.093.231.14.098.047.205.086.322.119.117.033.231.06.343.084.112.023.205.035.28.035.7 0 1.176-.593 1.428-1.778h-.938l-2.94-7h1.26l2.45 5.922zm7.308-5.194c0-.299.084-.53.252-.693.168-.163.392-.245.672-.245.299 0 .532.082.7.245.168.163.252.394.252.693 0 .27-.084.495-.252.672-.168.177-.401.266-.7.266-.28 0-.504-.089-.672-.266a.938.938 0 01-.252-.672zm0 5.502c0-.299.084-.53.252-.693.168-.163.392-.245.672-.245.299 0 .532.082.7.245.168.163.252.394.252.693 0 .27-.084.495-.252.672-.168.177-.401.266-.7.266-.28 0-.504-.089-.672-.266a.938.938 0 01-.252-.672z"/><path id="&lt;" fill="#999" d="M50.4 125.53v-.406l6.594-4.018.532.868-5.558 3.29 5.572 3.234-.532.84z"/><path id="slot" fill="#905" d="M64.302 127.91a.796.796 0 00-.35-.693 2.872 2.872 0 00-.868-.392 16.056 16.056 0 00-1.127-.273 6.502 6.502 0 01-1.127-.336 2.525 2.525 0 01-.868-.567c-.233-.238-.35-.572-.35-1.001 0-.355.077-.658.231-.91a1.94 1.94 0 01.609-.623c.252-.163.546-.285.882-.364.336-.08.686-.119 1.05-.119.653 0 1.216.082 1.687.245.471.163.847.334 1.127.511l-.448.882a11.79 11.79 0 00-1.001-.483c-.36-.154-.81-.231-1.351-.231-.205 0-.408.021-.609.063-.2.042-.383.105-.546.189a1.088 1.088 0 00-.392.329.825.825 0 00-.147.497c0 .243.117.43.35.56.233.13.523.24.868.329.345.089.721.173 1.127.252.406.08.782.194 1.127.343.345.15.635.35.868.602.233.252.35.593.35 1.022 0 .644-.254 1.176-.763 1.596-.509.42-1.272.63-2.289.63-.308 0-.611-.028-.91-.084a5.52 5.52 0 01-.84-.224 5.054 5.054 0 01-.714-.315 3.002 3.002 0 01-.532-.357l.56-.91c.112.112.261.226.448.343a4.229 4.229 0 001.337.539 3.76 3.76 0 001.484.021c.22-.042.413-.107.581-.196a1.08 1.08 0 00.399-.35.914.914 0 00.147-.525zm3.934-7.91h2.324v7.448c0 .57.096.97.287 1.204.191.233.474.35.847.35.261 0 .511-.047.749-.14.238-.093.502-.252.791-.476l.504.77c-.15.13-.313.247-.49.35a3.638 3.638 0 01-1.106.42 2.963 2.963 0 01-1.442-.077 1.579 1.579 0 01-.679-.427 1.897 1.897 0 01-.413-.777c-.093-.322-.14-.721-.14-1.197v-6.51h-1.232V120zm7.532 6.3c0-1.13.294-2.023.882-2.681.588-.658 1.428-.987 2.52-.987.588 0 1.094.096 1.519.287.425.191.777.45 1.057.777.28.327.488.714.623 1.162.135.448.203.929.203 1.442 0 .56-.075 1.066-.224 1.519-.15.453-.369.838-.658 1.155-.29.317-.646.562-1.071.735a3.82 3.82 0 01-1.449.259c-.579 0-1.083-.096-1.512-.287a2.967 2.967 0 01-1.064-.777 3.168 3.168 0 01-.623-1.162 4.963 4.963 0 01-.203-1.442zm1.162 0c0 .327.04.653.119.98.08.327.208.62.385.882.177.261.408.471.693.63.285.159.632.238 1.043.238.747 0 1.309-.231 1.687-.693.378-.462.567-1.141.567-2.037 0-.336-.04-.665-.119-.987a2.608 2.608 0 00-.392-.875 2.066 2.066 0 00-.7-.63c-.285-.159-.632-.238-1.043-.238-.747 0-1.307.229-1.68.686-.373.457-.56 1.139-.56 2.044zm6.874-3.5h1.666v-1.386l1.092-.308v1.694H90.3v.938h-3.738v3.304c0 .681.166 1.185.497 1.512.331.327.805.49 1.421.49.42 0 .786-.08 1.099-.238.313-.159.595-.331.847-.518l.364.826a3.938 3.938 0 01-1.169.63 4.182 4.182 0 01-1.393.238 3.41 3.41 0 01-1.057-.161 2.426 2.426 0 01-.875-.497 2.38 2.38 0 01-.602-.861c-.15-.35-.224-.768-.224-1.253v-3.472h-1.666v-.938z"/><path id="name" fill="#669A00" d="M101.472 125.25a14.051 14.051 0 00-.063-1.176 4.657 4.657 0 00-.049-.364h-.938v-.91h1.876l.126 1.134h.07c.093-.159.217-.315.371-.469a2.91 2.91 0 011.225-.721c.252-.075.518-.112.798-.112.43 0 .81.047 1.141.14.331.093.607.259.826.497.22.238.385.56.497.966.112.406.168.922.168 1.547v4.018h-1.092v-3.808c0-.775-.126-1.358-.378-1.75-.252-.392-.71-.588-1.372-.588-.243 0-.478.049-.707.147a2.44 2.44 0 00-.623.385c-.187.159-.35.343-.49.553-.14.21-.243.432-.308.665v4.396h-1.078v-4.55zm8.61-1.904a4.447 4.447 0 011.358-.504 7.423 7.423 0 011.484-.154c.476 0 .866.075 1.169.224.303.15.541.343.714.581.173.238.29.509.35.812.06.303.091.609.091.917 0 .355-.01.733-.028 1.134-.019.401-.033.803-.042 1.204 0 .467.028.91.084 1.33h.938v.91h-1.862l-.126-1.05h-.07c-.056.084-.14.191-.252.322-.112.13-.259.259-.441.385a2.749 2.749 0 01-1.589.469c-.69 0-1.237-.177-1.638-.532-.401-.355-.602-.84-.602-1.456 0-.476.105-.873.315-1.19.21-.317.511-.56.903-.728.392-.168.866-.266 1.421-.294a9.544 9.544 0 011.869.112c.047-.43.054-.786.021-1.071-.033-.285-.107-.511-.224-.679a.938.938 0 00-.49-.357 2.482 2.482 0 00-.777-.105c-.42 0-.821.058-1.204.175-.383.117-.723.236-1.022.357l-.35-.812zm2.058 5.642c.261 0 .504-.042.728-.126a2.22 2.22 0 00.588-.322 2.133 2.133 0 00.672-.868v-.98a7.92 7.92 0 00-1.344-.126c-.41 0-.765.044-1.064.133-.299.089-.532.226-.7.413-.168.187-.252.43-.252.728 0 .308.105.576.315.805.21.229.562.343 1.057.343zm8.498.812v-4.662c0-.196-.007-.385-.021-.567a1.9 1.9 0 00-.098-.49.786.786 0 00-.224-.343.57.57 0 00-.385-.126c-.317 0-.586.13-.805.392-.22.261-.385.588-.497.98v4.816h-1.064v-7h.728l.21.854h.056c.093-.14.184-.273.273-.399.089-.126.191-.236.308-.329.117-.093.254-.166.413-.217.159-.051.36-.077.602-.077.14 0 .285.021.434.063.15.042.287.107.413.196.126.089.236.208.329.357.093.15.154.331.182.546.215-.364.455-.649.721-.854.266-.205.632-.308 1.099-.308.308 0 .558.051.749.154.191.103.34.25.448.441.107.191.182.42.224.686.042.266.063.562.063.889v4.998h-1.064v-4.76c0-.196-.01-.38-.028-.553a1.764 1.764 0 00-.105-.455.752.752 0 00-.21-.308.536.536 0 00-.357-.112c-.327 0-.602.13-.826.392-.224.261-.392.635-.504 1.12v4.676h-1.064zm12.138-.882c-.168.15-.366.29-.595.42a4.39 4.39 0 01-.749.336c-.27.093-.553.166-.847.217-.294.051-.59.077-.889.077-.56 0-1.055-.086-1.484-.259a2.858 2.858 0 01-1.078-.742 3.234 3.234 0 01-.658-1.155 4.767 4.767 0 01-.224-1.512c0-.588.082-1.11.245-1.568.163-.457.399-.84.707-1.148a3.08 3.08 0 011.12-.707 4.187 4.187 0 011.47-.245c.392 0 .78.051 1.162.154.383.103.721.296 1.015.581.294.285.52.677.679 1.176.159.5.215 1.146.168 1.939H127.4c0 .84.226 1.468.679 1.883.453.415 1.057.623 1.813.623.252 0 .502-.03.749-.091.247-.06.483-.133.707-.217a3.72 3.72 0 00.595-.28c.173-.103.306-.196.399-.28l.434.798zm-2.954-5.362c-.308 0-.6.033-.875.098a1.995 1.995 0 00-.728.329c-.21.154-.383.355-.518.602s-.222.553-.259.917h4.354c-.047-.616-.245-1.094-.595-1.435-.35-.34-.81-.511-1.379-.511z"/><path id="=&quot;" fill="#999" d="M134.722 123.402h6.496v1.008h-6.496v-1.008zm0 2.296h6.496v1.008h-6.496v-1.008zM147.196 120h1.232l-.434 4.242h-.798V120zm-2.898 0h1.232l-.434 4.242h-.798V120z"/><path id="birthday" fill="#0376AA" d="M150.598 120h2.24v3.598h.07c.243-.308.555-.546.938-.714a3.065 3.065 0 011.246-.252c2.053 0 3.08 1.185 3.08 3.556 0 1.204-.331 2.126-.994 2.765-.663.64-1.605.959-2.828.959a6.731 6.731 0 01-1.568-.168c-.467-.112-.807-.243-1.022-.392v-8.414h-1.162V120zm4.354 3.57c-.56 0-1.013.159-1.358.476-.345.317-.597.765-.756 1.344v3.22c.215.112.471.2.77.266.299.065.611.098.938.098.373 0 .712-.054 1.015-.161.303-.107.562-.275.777-.504.215-.229.38-.52.497-.875.117-.355.175-.775.175-1.26 0-.355-.037-.69-.112-1.008a2.447 2.447 0 00-.357-.833 1.717 1.717 0 00-.637-.56c-.261-.135-.579-.203-.952-.203zm5.488 6.23v-.938h2.436v-5.124h-2.436v-.938h3.556v6.062h2.38v.938h-5.936zm2.058-8.988c0-.252.084-.469.252-.651a.838.838 0 01.644-.273c.27 0 .497.091.679.273a.889.889 0 01.273.651.806.806 0 01-.273.616.963.963 0 01-.679.252.872.872 0 01-.644-.252.838.838 0 01-.252-.616zm5.796 8.988v-.938h1.89v-5.124h-1.89v-.938h2.618l.224.91h.07c.317-.29.672-.537 1.064-.742.392-.205.859-.308 1.4-.308.317 0 .572.06.763.182.191.121.34.299.448.532.107.233.18.516.217.847.037.331.056.707.056 1.127l-.98.014c0-.597-.058-1.036-.175-1.316-.117-.28-.329-.42-.637-.42-.29 0-.55.042-.784.126a2.565 2.565 0 00-.609.308c-.173.121-.32.243-.441.364s-.21.224-.266.308v4.13h2.688v.938h-5.656zm7.91-7h1.666v-1.386l1.092-.308v1.694h3.738v.938h-3.738v3.304c0 .681.166 1.185.497 1.512.331.327.805.49 1.421.49.42 0 .786-.08 1.099-.238.313-.159.595-.331.847-.518l.364.826a3.938 3.938 0 01-1.169.63 4.182 4.182 0 01-1.393.238 3.41 3.41 0 01-1.057-.161 2.426 2.426 0 01-.875-.497 2.38 2.38 0 01-.602-.861c-.15-.35-.224-.768-.224-1.253v-3.472h-1.666v-.938zm8.022-2.8h2.184v3.668h.07c.29-.327.625-.581 1.008-.763.383-.182.859-.273 1.428-.273.448 0 .838.047 1.169.14.331.093.602.257.812.49.21.233.366.553.469.959.103.406.154.922.154 1.547v4.032h-1.092v-3.822c0-.401-.023-.751-.07-1.05a1.829 1.829 0 00-.273-.749c-.135-.2-.32-.352-.553-.455-.233-.103-.532-.154-.896-.154-.252 0-.5.044-.742.133-.243.089-.464.21-.665.364-.2.154-.373.34-.518.56-.145.22-.245.46-.301.721v4.452h-1.078v-8.862h-1.106V120zm13.23 0h2.268v7.406c0 .084.005.189.014.315a15.6 15.6 0 00.084.812c.019.135.037.254.056.357h.938v.91h-1.862l-.14-1.078h-.056c-.205.355-.511.651-.917.889s-.875.357-1.407.357c-1.055 0-1.832-.296-2.331-.889-.5-.593-.749-1.514-.749-2.765 0-.588.084-1.108.252-1.561.168-.453.408-.83.721-1.134a3.118 3.118 0 011.127-.693 4.298 4.298 0 011.47-.238c.196 0 .371.005.525.014.154.01.296.023.427.042.13.019.254.044.371.077.117.033.245.068.385.105v-1.988h-1.176V120zm-.84 9.03c.57 0 1.017-.147 1.344-.441.327-.294.55-.735.672-1.323v-3.248a2.168 2.168 0 00-.693-.308c-.257-.065-.595-.098-1.015-.098-.747 0-1.335.217-1.764.651-.43.434-.644 1.118-.644 2.051 0 .383.035.74.105 1.071.07.331.187.618.35.861.163.243.38.434.651.574.27.14.602.21.994.21zm5.866-5.684a4.447 4.447 0 011.358-.504 7.423 7.423 0 011.484-.154c.476 0 .866.075 1.169.224.303.15.541.343.714.581.173.238.29.509.35.812.06.303.091.609.091.917 0 .355-.01.733-.028 1.134-.019.401-.033.803-.042 1.204 0 .467.028.91.084 1.33h.938v.91h-1.862l-.126-1.05h-.07c-.056.084-.14.191-.252.322-.112.13-.259.259-.441.385a2.749 2.749 0 01-1.589.469c-.69 0-1.237-.177-1.638-.532-.401-.355-.602-.84-.602-1.456 0-.476.105-.873.315-1.19.21-.317.511-.56.903-.728.392-.168.866-.266 1.421-.294a9.544 9.544 0 011.869.112c.047-.43.054-.786.021-1.071-.033-.285-.107-.511-.224-.679a.938.938 0 00-.49-.357 2.482 2.482 0 00-.777-.105c-.42 0-.821.058-1.204.175-.383.117-.723.236-1.022.357l-.35-.812zm2.058 5.642c.261 0 .504-.042.728-.126a2.22 2.22 0 00.588-.322 2.133 2.133 0 00.672-.868v-.98a7.92 7.92 0 00-1.344-.126c-.41 0-.765.044-1.064.133-.299.089-.532.226-.7.413-.168.187-.252.43-.252.728 0 .308.105.576.315.805.21.229.562.343 1.057.343zm9.184-.266h.532l1.736-5.922h1.134l-1.946 6.286c-.103.327-.208.698-.315 1.113a5.2 5.2 0 01-.455 1.169 2.807 2.807 0 01-.798.924c-.336.252-.775.378-1.316.378-.121 0-.25-.014-.385-.042a3.856 3.856 0 01-.399-.105 2.575 2.575 0 01-.364-.147.977.977 0 01-.252-.168l.392-1.008c.056.047.133.093.231.14.098.047.205.086.322.119.117.033.231.06.343.084.112.023.205.035.28.035.7 0 1.176-.593 1.428-1.778h-.938l-2.94-7h1.26l2.45 5.922z"/><path id="&quot;&gt;&lt;/" fill="#999" d="M222.796 120h1.232l-.434 4.242h-.798V120zm-2.898 0h1.232l-.434 4.242h-.798V120zm7.434 9.338l-.532-.84 5.572-3.234-5.558-3.29.532-.868 6.594 4.018v.406l-6.608 3.808zm7.868-3.808v-.406l6.594-4.018.532.868-5.558 3.29 5.572 3.234-.532.84-6.608-3.808zm14.084-5.698l.882.392-5.11 11.536-.882-.392 5.11-11.536z"/><path id="slot" fill="#905" d="M257.502 127.91a.796.796 0 00-.35-.693 2.872 2.872 0 00-.868-.392 16.056 16.056 0 00-1.127-.273 6.502 6.502 0 01-1.127-.336 2.525 2.525 0 01-.868-.567c-.233-.238-.35-.572-.35-1.001 0-.355.077-.658.231-.91a1.94 1.94 0 01.609-.623c.252-.163.546-.285.882-.364.336-.08.686-.119 1.05-.119.653 0 1.216.082 1.687.245.471.163.847.334 1.127.511l-.448.882a11.79 11.79 0 00-1.001-.483c-.36-.154-.81-.231-1.351-.231-.205 0-.408.021-.609.063-.2.042-.383.105-.546.189a1.088 1.088 0 00-.392.329.825.825 0 00-.147.497c0 .243.117.43.35.56.233.13.523.24.868.329.345.089.721.173 1.127.252.406.08.782.194 1.127.343.345.15.635.35.868.602.233.252.35.593.35 1.022 0 .644-.254 1.176-.763 1.596-.509.42-1.272.63-2.289.63-.308 0-.611-.028-.91-.084a5.52 5.52 0 01-.84-.224 5.054 5.054 0 01-.714-.315 3.002 3.002 0 01-.532-.357l.56-.91c.112.112.261.226.448.343a4.229 4.229 0 001.337.539 3.76 3.76 0 001.484.021c.22-.042.413-.107.581-.196a1.08 1.08 0 00.399-.35.914.914 0 00.147-.525zm3.934-7.91h2.324v7.448c0 .57.096.97.287 1.204.191.233.474.35.847.35.261 0 .511-.047.749-.14.238-.093.502-.252.791-.476l.504.77c-.15.13-.313.247-.49.35a3.638 3.638 0 01-1.106.42 2.963 2.963 0 01-1.442-.077 1.579 1.579 0 01-.679-.427 1.897 1.897 0 01-.413-.777c-.093-.322-.14-.721-.14-1.197v-6.51h-1.232V120zm7.532 6.3c0-1.13.294-2.023.882-2.681.588-.658 1.428-.987 2.52-.987.588 0 1.094.096 1.519.287.425.191.777.45 1.057.777.28.327.488.714.623 1.162.135.448.203.929.203 1.442 0 .56-.075 1.066-.224 1.519-.15.453-.369.838-.658 1.155-.29.317-.646.562-1.071.735a3.82 3.82 0 01-1.449.259c-.579 0-1.083-.096-1.512-.287a2.967 2.967 0 01-1.064-.777 3.168 3.168 0 01-.623-1.162 4.963 4.963 0 01-.203-1.442zm1.162 0c0 .327.04.653.119.98.08.327.208.62.385.882.177.261.408.471.693.63.285.159.632.238 1.043.238.747 0 1.309-.231 1.687-.693.378-.462.567-1.141.567-2.037 0-.336-.04-.665-.119-.987a2.608 2.608 0 00-.392-.875 2.066 2.066 0 00-.7-.63c-.285-.159-.632-.238-1.043-.238-.747 0-1.307.229-1.68.686-.373.457-.56 1.139-.56 2.044zm6.874-3.5h1.666v-1.386l1.092-.308v1.694h3.738v.938h-3.738v3.304c0 .681.166 1.185.497 1.512.331.327.805.49 1.421.49.42 0 .786-.08 1.099-.238.313-.159.595-.331.847-.518l.364.826a3.938 3.938 0 01-1.169.63 4.182 4.182 0 01-1.393.238 3.41 3.41 0 01-1.057-.161 2.426 2.426 0 01-.875-.497 2.38 2.38 0 01-.602-.861c-.15-.35-.224-.768-.224-1.253v-3.472h-1.666v-.938z"/><path id="&gt;&lt;/" fill="#999" d="M286.132 129.338l-.532-.84 5.572-3.234-5.558-3.29.532-.868 6.594 4.018v.406l-6.608 3.808zM33.6 145.53v-.406l6.594-4.018.532.868-5.558 3.29 5.572 3.234-.532.84-6.608-3.808zm14.084-5.698l.882.392-5.11 11.536-.882-.392 5.11-11.536z"/><path id="div" fill="#905" d="M54.656 140h2.268v7.406c0 .084.005.189.014.315a15.6 15.6 0 00.084.812c.019.135.037.254.056.357h.938v.91h-1.862l-.14-1.078h-.056c-.205.355-.511.651-.917.889s-.875.357-1.407.357c-1.055 0-1.832-.296-2.331-.889-.5-.593-.749-1.514-.749-2.765 0-.588.084-1.108.252-1.561.168-.453.408-.83.721-1.134a3.118 3.118 0 011.127-.693 4.298 4.298 0 011.47-.238c.196 0 .371.005.525.014.154.01.296.023.427.042.13.019.254.044.371.077.117.033.245.068.385.105v-1.988h-1.176V140zm-.84 9.03c.57 0 1.017-.147 1.344-.441.327-.294.55-.735.672-1.323v-3.248a2.168 2.168 0 00-.693-.308c-.257-.065-.595-.098-1.015-.098-.747 0-1.335.217-1.764.651-.43.434-.644 1.118-.644 2.051 0 .383.035.74.105 1.071.07.331.187.618.35.861.163.243.38.434.651.574.27.14.602.21.994.21zm5.824.77v-.938h2.436v-5.124H59.64v-.938h3.556v6.062h2.38v.938H59.64zm2.058-8.988c0-.252.084-.469.252-.651a.838.838 0 01.644-.273c.27 0 .497.091.679.273a.889.889 0 01.273.651.806.806 0 01-.273.616.963.963 0 01-.679.252.872.872 0 01-.644-.252.838.838 0 01-.252-.616zm9.1 7.63h.154l2.198-5.642h1.218l-2.954 7h-1.232l-3.01-7h1.288l2.338 5.642z"/><path id="&gt;&lt;" fill="#999" d="M76.132 149.338l-.532-.84 5.572-3.234-5.558-3.29.532-.868 6.594 4.018v.406l-6.608 3.808zM16.8 165.53v-.406l6.594-4.018.532.868-5.558 3.29 5.572 3.234-.532.84-6.608-3.808z"/><path id="span" fill="#905" d="M30.702 167.91a.796.796 0 00-.35-.693 2.872 2.872 0 00-.868-.392 16.056 16.056 0 00-1.127-.273 6.502 6.502 0 01-1.127-.336 2.525 2.525 0 01-.868-.567c-.233-.238-.35-.572-.35-1.001 0-.355.077-.658.231-.91a1.94 1.94 0 01.609-.623c.252-.163.546-.285.882-.364.336-.08.686-.119 1.05-.119.653 0 1.216.082 1.687.245.471.163.847.334 1.127.511l-.448.882a11.79 11.79 0 00-1.001-.483c-.36-.154-.81-.231-1.351-.231-.205 0-.408.021-.609.063-.2.042-.383.105-.546.189a1.088 1.088 0 00-.392.329.825.825 0 00-.147.497c0 .243.117.43.35.56.233.13.523.24.868.329.345.089.721.173 1.127.252.406.08.782.194 1.127.343.345.15.635.35.868.602.233.252.35.593.35 1.022 0 .644-.254 1.176-.763 1.596-.509.42-1.272.63-2.289.63-.308 0-.611-.028-.91-.084a5.52 5.52 0 01-.84-.224 5.054 5.054 0 01-.714-.315 3.002 3.002 0 01-.532-.357l.56-.91c.112.112.261.226.448.343a4.229 4.229 0 001.337.539 3.76 3.76 0 001.484.021c.22-.042.413-.107.581-.196a1.08 1.08 0 00.399-.35.914.914 0 00.147-.525zm3.612-2.66a14.05 14.05 0 00-.063-1.176 4.657 4.657 0 00-.049-.364h-.938v-.91h1.862l.14.98h.07c.252-.327.572-.6.959-.819.387-.22.861-.329 1.421-.329.999 0 1.75.275 2.254.826.504.55.756 1.451.756 2.702 0 .588-.086 1.118-.259 1.589a3.34 3.34 0 01-.735 1.197 3.24 3.24 0 01-1.148.756 3.999 3.999 0 01-1.484.266c-.196 0-.371-.007-.525-.021a4.613 4.613 0 01-.42-.056 3.31 3.31 0 01-.371-.091 5.104 5.104 0 01-.392-.14v2.94h-1.078v-7.35zm3.22-1.596c-.28 0-.544.051-.791.154a2.36 2.36 0 00-1.127.966c-.121.205-.196.41-.224.616v3.192c.205.14.436.25.693.329.257.08.595.119 1.015.119.747 0 1.344-.245 1.792-.735.448-.49.672-1.206.672-2.149 0-.793-.156-1.407-.469-1.841-.313-.434-.833-.651-1.561-.651zm5.348-.308a4.447 4.447 0 011.358-.504 7.423 7.423 0 011.484-.154c.476 0 .866.075 1.169.224.303.15.541.343.714.581.173.238.29.509.35.812.06.303.091.609.091.917 0 .355-.01.733-.028 1.134-.019.401-.033.803-.042 1.204 0 .467.028.91.084 1.33H49v.91h-1.862l-.126-1.05h-.07c-.056.084-.14.191-.252.322-.112.13-.259.259-.441.385a2.749 2.749 0 01-1.589.469c-.69 0-1.237-.177-1.638-.532-.401-.355-.602-.84-.602-1.456 0-.476.105-.873.315-1.19.21-.317.511-.56.903-.728.392-.168.866-.266 1.421-.294a9.544 9.544 0 011.869.112c.047-.43.054-.786.021-1.071-.033-.285-.107-.511-.224-.679a.938.938 0 00-.49-.357 2.482 2.482 0 00-.777-.105c-.42 0-.821.058-1.204.175-.383.117-.723.236-1.022.357l-.35-.812zm2.058 5.642c.261 0 .504-.042.728-.126a2.22 2.22 0 00.588-.322 2.133 2.133 0 00.672-.868v-.98a7.92 7.92 0 00-1.344-.126c-.41 0-.765.044-1.064.133-.299.089-.532.226-.7.413-.168.187-.252.43-.252.728 0 .308.105.576.315.805.21.229.562.343 1.057.343zm6.132-3.738a14.05 14.05 0 00-.063-1.176 4.657 4.657 0 00-.049-.364h-.938v-.91h1.876l.126 1.134h.07c.093-.159.217-.315.371-.469a2.91 2.91 0 011.225-.721c.252-.075.518-.112.798-.112.43 0 .81.047 1.141.14.331.093.607.259.826.497.22.238.385.56.497.966.112.406.168.922.168 1.547v4.018h-1.092v-3.808c0-.775-.126-1.358-.378-1.75-.252-.392-.71-.588-1.372-.588-.243 0-.478.049-.707.147a2.44 2.44 0 00-.623.385c-.187.159-.35.343-.49.553-.14.21-.243.432-.308.665v4.396h-1.078v-4.55z"/><path id="slot" fill="#690" d="M72.702 167.91a.796.796 0 00-.35-.693 2.872 2.872 0 00-.868-.392 16.056 16.056 0 00-1.127-.273 6.502 6.502 0 01-1.127-.336 2.525 2.525 0 01-.868-.567c-.233-.238-.35-.572-.35-1.001 0-.355.077-.658.231-.91a1.94 1.94 0 01.609-.623c.252-.163.546-.285.882-.364.336-.08.686-.119 1.05-.119.653 0 1.216.082 1.687.245.471.163.847.334 1.127.511l-.448.882a11.79 11.79 0 00-1.001-.483c-.36-.154-.81-.231-1.351-.231-.205 0-.408.021-.609.063-.2.042-.383.105-.546.189a1.088 1.088 0 00-.392.329.825.825 0 00-.147.497c0 .243.117.43.35.56.233.13.523.24.868.329.345.089.721.173 1.127.252.406.08.782.194 1.127.343.345.15.635.35.868.602.233.252.35.593.35 1.022 0 .644-.254 1.176-.763 1.596-.509.42-1.272.63-2.289.63-.308 0-.611-.028-.91-.084a5.52 5.52 0 01-.84-.224 5.054 5.054 0 01-.714-.315 3.002 3.002 0 01-.532-.357l.56-.91c.112.112.261.226.448.343a4.229 4.229 0 001.337.539 3.76 3.76 0 001.484.021c.22-.042.413-.107.581-.196a1.08 1.08 0 00.399-.35.914.914 0 00.147-.525zm3.934-7.91h2.324v7.448c0 .57.096.97.287 1.204.191.233.474.35.847.35.261 0 .511-.047.749-.14.238-.093.502-.252.791-.476l.504.77c-.15.13-.313.247-.49.35a3.638 3.638 0 01-1.106.42 2.963 2.963 0 01-1.442-.077 1.579 1.579 0 01-.679-.427 1.897 1.897 0 01-.413-.777c-.093-.322-.14-.721-.14-1.197v-6.51h-1.232V160zm7.532 6.3c0-1.13.294-2.023.882-2.681.588-.658 1.428-.987 2.52-.987.588 0 1.094.096 1.519.287.425.191.777.45 1.057.777.28.327.488.714.623 1.162.135.448.203.929.203 1.442 0 .56-.075 1.066-.224 1.519-.15.453-.369.838-.658 1.155-.29.317-.646.562-1.071.735a3.82 3.82 0 01-1.449.259c-.579 0-1.083-.096-1.512-.287a2.967 2.967 0 01-1.064-.777 3.168 3.168 0 01-.623-1.162 4.963 4.963 0 01-.203-1.442zm1.162 0c0 .327.04.653.119.98.08.327.208.62.385.882.177.261.408.471.693.63.285.159.632.238 1.043.238.747 0 1.309-.231 1.687-.693.378-.462.567-1.141.567-2.037 0-.336-.04-.665-.119-.987a2.608 2.608 0 00-.392-.875 2.066 2.066 0 00-.7-.63c-.285-.159-.632-.238-1.043-.238-.747 0-1.307.229-1.68.686-.373.457-.56 1.139-.56 2.044zm6.874-3.5h1.666v-1.386l1.092-.308v1.694H98.7v.938h-3.738v3.304c0 .681.166 1.185.497 1.512.331.327.805.49 1.421.49.42 0 .786-.08 1.099-.238.313-.159.595-.331.847-.518l.364.826a3.938 3.938 0 01-1.169.63 4.182 4.182 0 01-1.393.238 3.41 3.41 0 01-1.057-.161 2.426 2.426 0 01-.875-.497 2.38 2.38 0 01-.602-.861c-.15-.35-.224-.768-.224-1.253v-3.472h-1.666v-.938z"/><path id="=&quot;" fill="#999" d="M101.122 163.402h6.496v1.008h-6.496v-1.008zm0 2.296h6.496v1.008h-6.496v-1.008zM113.596 160h1.232l-.434 4.242h-.798V160zm-2.898 0h1.232l-.434 4.242h-.798V160z"/><path id="username" fill="#07A" d="M122.052 162.8h1.988v4.774c0 .457.028.896.084 1.316h.938v.91H123.2l-.042-1.19h-.056a2.938 2.938 0 01-.966.98c-.401.252-.887.378-1.456.378-.43 0-.796-.049-1.099-.147a1.556 1.556 0 01-.749-.511c-.196-.243-.34-.567-.434-.973-.093-.406-.14-.912-.14-1.519v-3.08h-.938v-.938h2.03v3.794c0 .383.016.726.049 1.029.033.303.1.56.203.77.103.21.254.369.455.476.2.107.469.161.805.161.485 0 .908-.159 1.267-.476.36-.317.632-.714.819-1.19v-3.626h-.896v-.938zm9.45 5.11a.796.796 0 00-.35-.693 2.872 2.872 0 00-.868-.392 16.056 16.056 0 00-1.127-.273 6.502 6.502 0 01-1.127-.336 2.525 2.525 0 01-.868-.567c-.233-.238-.35-.572-.35-1.001 0-.355.077-.658.231-.91a1.94 1.94 0 01.609-.623c.252-.163.546-.285.882-.364.336-.08.686-.119 1.05-.119.653 0 1.216.082 1.687.245.471.163.847.334 1.127.511l-.448.882a11.79 11.79 0 00-1.001-.483c-.36-.154-.81-.231-1.351-.231-.205 0-.408.021-.609.063-.2.042-.383.105-.546.189a1.088 1.088 0 00-.392.329.825.825 0 00-.147.497c0 .243.117.43.35.56.233.13.523.24.868.329.345.089.721.173 1.127.252.406.08.782.194 1.127.343.345.15.635.35.868.602.233.252.35.593.35 1.022 0 .644-.254 1.176-.763 1.596-.509.42-1.272.63-2.289.63-.308 0-.611-.028-.91-.084a5.52 5.52 0 01-.84-.224 5.054 5.054 0 01-.714-.315 3.002 3.002 0 01-.532-.357l.56-.91c.112.112.261.226.448.343a4.229 4.229 0 001.337.539 3.76 3.76 0 001.484.021c.22-.042.413-.107.581-.196a1.08 1.08 0 00.399-.35.914.914 0 00.147-.525zm9.674 1.008c-.168.15-.366.29-.595.42a4.39 4.39 0 01-.749.336c-.27.093-.553.166-.847.217-.294.051-.59.077-.889.077-.56 0-1.055-.086-1.484-.259a2.858 2.858 0 01-1.078-.742 3.234 3.234 0 01-.658-1.155 4.767 4.767 0 01-.224-1.512c0-.588.082-1.11.245-1.568.163-.457.399-.84.707-1.148a3.08 3.08 0 011.12-.707 4.187 4.187 0 011.47-.245c.392 0 .78.051 1.162.154.383.103.721.296 1.015.581.294.285.52.677.679 1.176.159.5.215 1.146.168 1.939H135.8c0 .84.226 1.468.679 1.883.453.415 1.057.623 1.813.623.252 0 .502-.03.749-.091.247-.06.483-.133.707-.217a3.72 3.72 0 00.595-.28c.173-.103.306-.196.399-.28l.434.798zm-2.954-5.362c-.308 0-.6.033-.875.098a1.995 1.995 0 00-.728.329c-.21.154-.383.355-.518.602s-.222.553-.259.917h4.354c-.047-.616-.245-1.094-.595-1.435-.35-.34-.81-.511-1.379-.511zm4.872 6.244v-.938h1.89v-5.124h-1.89v-.938h2.618l.224.91h.07c.317-.29.672-.537 1.064-.742.392-.205.859-.308 1.4-.308.317 0 .572.06.763.182.191.121.34.299.448.532.107.233.18.516.217.847.037.331.056.707.056 1.127l-.98.014c0-.597-.058-1.036-.175-1.316-.117-.28-.329-.42-.637-.42-.29 0-.55.042-.784.126a2.565 2.565 0 00-.609.308c-.173.121-.32.243-.441.364s-.21.224-.266.308v4.13h2.688v.938h-5.656zm8.778-4.55a14.051 14.051 0 00-.063-1.176 4.657 4.657 0 00-.049-.364h-.938v-.91h1.876l.126 1.134h.07c.093-.159.217-.315.371-.469a2.91 2.91 0 011.225-.721c.252-.075.518-.112.798-.112.43 0 .81.047 1.141.14.331.093.607.259.826.497.22.238.385.56.497.966.112.406.168.922.168 1.547v4.018h-1.092v-3.808c0-.775-.126-1.358-.378-1.75-.252-.392-.71-.588-1.372-.588-.243 0-.478.049-.707.147a2.44 2.44 0 00-.623.385c-.187.159-.35.343-.49.553-.14.21-.243.432-.308.665v4.396h-1.078v-4.55zm8.61-1.904a4.447 4.447 0 011.358-.504 7.423 7.423 0 011.484-.154c.476 0 .866.075 1.169.224.303.15.541.343.714.581.173.238.29.509.35.812.06.303.091.609.091.917 0 .355-.01.733-.028 1.134-.019.401-.033.803-.042 1.204 0 .467.028.91.084 1.33h.938v.91h-1.862l-.126-1.05h-.07c-.056.084-.14.191-.252.322-.112.13-.259.259-.441.385a2.749 2.749 0 01-1.589.469c-.69 0-1.237-.177-1.638-.532-.401-.355-.602-.84-.602-1.456 0-.476.105-.873.315-1.19.21-.317.511-.56.903-.728.392-.168.866-.266 1.421-.294a9.544 9.544 0 011.869.112c.047-.43.054-.786.021-1.071-.033-.285-.107-.511-.224-.679a.938.938 0 00-.49-.357 2.482 2.482 0 00-.777-.105c-.42 0-.821.058-1.204.175-.383.117-.723.236-1.022.357l-.35-.812zm2.058 5.642c.261 0 .504-.042.728-.126a2.22 2.22 0 00.588-.322 2.133 2.133 0 00.672-.868v-.98a7.92 7.92 0 00-1.344-.126c-.41 0-.765.044-1.064.133-.299.089-.532.226-.7.413-.168.187-.252.43-.252.728 0 .308.105.576.315.805.21.229.562.343 1.057.343zm8.498.812v-4.662c0-.196-.007-.385-.021-.567a1.9 1.9 0 00-.098-.49.786.786 0 00-.224-.343.57.57 0 00-.385-.126c-.317 0-.586.13-.805.392-.22.261-.385.588-.497.98v4.816h-1.064v-7h.728l.21.854h.056c.093-.14.184-.273.273-.399.089-.126.191-.236.308-.329.117-.093.254-.166.413-.217.159-.051.36-.077.602-.077.14 0 .285.021.434.063.15.042.287.107.413.196.126.089.236.208.329.357.093.15.154.331.182.546.215-.364.455-.649.721-.854.266-.205.632-.308 1.099-.308.308 0 .558.051.749.154.191.103.34.25.448.441.107.191.182.42.224.686.042.266.063.562.063.889v4.998h-1.064v-4.76c0-.196-.01-.38-.028-.553a1.764 1.764 0 00-.105-.455.752.752 0 00-.21-.308.536.536 0 00-.357-.112c-.327 0-.602.13-.826.392-.224.261-.392.635-.504 1.12v4.676h-1.064zm12.138-.882c-.168.15-.366.29-.595.42a4.39 4.39 0 01-.749.336c-.27.093-.553.166-.847.217-.294.051-.59.077-.889.077-.56 0-1.055-.086-1.484-.259a2.858 2.858 0 01-1.078-.742 3.234 3.234 0 01-.658-1.155 4.767 4.767 0 01-.224-1.512c0-.588.082-1.11.245-1.568.163-.457.399-.84.707-1.148a3.08 3.08 0 011.12-.707 4.187 4.187 0 011.47-.245c.392 0 .78.051 1.162.154.383.103.721.296 1.015.581.294.285.52.677.679 1.176.159.5.215 1.146.168 1.939H177.8c0 .84.226 1.468.679 1.883.453.415 1.057.623 1.813.623.252 0 .502-.03.749-.091.247-.06.483-.133.707-.217a3.72 3.72 0 00.595-.28c.173-.103.306-.196.399-.28l.434.798zm-2.954-5.362c-.308 0-.6.033-.875.098a1.995 1.995 0 00-.728.329c-.21.154-.383.355-.518.602s-.222.553-.259.917h4.354c-.047-.616-.245-1.094-.595-1.435-.35-.34-.81-.511-1.379-.511z"/><path id="&quot;&gt;" fill="#999" d="M189.196 160h1.232l-.434 4.242h-.798V160zm-2.898 0h1.232l-.434 4.242h-.798V160zm7.434 9.338l-.532-.84 5.572-3.234-5.558-3.29.532-.868 6.594 4.018v.406l-6.608 3.808z"/><path id="JohnSmith" fill="#333" d="M202.328 160h5.544v6.328c0 1.176-.28 2.072-.84 2.688-.56.616-1.367.924-2.422.924a4.603 4.603 0 01-1.526-.259 3.593 3.593 0 01-.581-.259 1.437 1.437 0 01-.357-.266l.504-.924c.103.065.217.135.343.21.126.075.266.147.42.217a2.756 2.756 0 001.169.245c.7 0 1.23-.22 1.589-.658.36-.439.539-1.148.539-2.128v-5.082h-4.382V160zm7.84 6.3c0-1.13.294-2.023.882-2.681.588-.658 1.428-.987 2.52-.987.588 0 1.094.096 1.519.287.425.191.777.45 1.057.777.28.327.488.714.623 1.162.135.448.203.929.203 1.442 0 .56-.075 1.066-.224 1.519-.15.453-.369.838-.658 1.155-.29.317-.646.562-1.071.735a3.82 3.82 0 01-1.449.259c-.579 0-1.083-.096-1.512-.287a2.967 2.967 0 01-1.064-.777 3.168 3.168 0 01-.623-1.162 4.963 4.963 0 01-.203-1.442zm1.162 0c0 .327.04.653.119.98.08.327.208.62.385.882.177.261.408.471.693.63.285.159.632.238 1.043.238.747 0 1.309-.231 1.687-.693.378-.462.567-1.141.567-2.037 0-.336-.04-.665-.119-.987a2.608 2.608 0 00-.392-.875 2.066 2.066 0 00-.7-.63c-.285-.159-.632-.238-1.043-.238-.747 0-1.307.229-1.68.686-.373.457-.56 1.139-.56 2.044zm6.496-6.3h2.184v3.668h.07c.29-.327.625-.581 1.008-.763.383-.182.859-.273 1.428-.273.448 0 .838.047 1.169.14.331.093.602.257.812.49.21.233.366.553.469.959.103.406.154.922.154 1.547v4.032h-1.092v-3.822c0-.401-.023-.751-.07-1.05a1.829 1.829 0 00-.273-.749c-.135-.2-.32-.352-.553-.455-.233-.103-.532-.154-.896-.154-.252 0-.5.044-.742.133-.243.089-.464.21-.665.364-.2.154-.373.34-.518.56-.145.22-.245.46-.301.721v4.452h-1.078v-8.862h-1.106V160zm9.646 5.25a14.051 14.051 0 00-.063-1.176 4.657 4.657 0 00-.049-.364h-.938v-.91h1.876l.126 1.134h.07c.093-.159.217-.315.371-.469a2.91 2.91 0 011.225-.721c.252-.075.518-.112.798-.112.43 0 .81.047 1.141.14.331.093.607.259.826.497.22.238.385.56.497.966.112.406.168.922.168 1.547v4.018h-1.092v-3.808c0-.775-.126-1.358-.378-1.75-.252-.392-.71-.588-1.372-.588-.243 0-.478.049-.707.147a2.44 2.44 0 00-.623.385c-.187.159-.35.343-.49.553-.14.21-.243.432-.308.665v4.396h-1.078v-4.55zm17.598 3.164c.28.15.595.273.945.371.35.098.702.147 1.057.147.308 0 .597-.03.868-.091.27-.06.506-.159.707-.294.2-.135.36-.306.476-.511a1.45 1.45 0 00.175-.728c0-.383-.128-.695-.385-.938a3.824 3.824 0 00-.959-.644 17.73 17.73 0 00-1.246-.546 7.417 7.417 0 01-1.246-.63 3.498 3.498 0 01-.959-.889c-.257-.35-.385-.796-.385-1.337 0-.383.077-.728.231-1.036a2.24 2.24 0 01.651-.784c.28-.215.618-.38 1.015-.497a4.68 4.68 0 011.323-.175c.56 0 1.069.04 1.526.119.457.08.821.184 1.092.315l.028-.014v.028h.014l-.014.042v2.24h-1.036v-1.498a7.635 7.635 0 00-.77-.14 6.787 6.787 0 00-.896-.056c-.308 0-.586.037-.833.112a2.08 2.08 0 00-.63.301 1.37 1.37 0 00-.399.441 1.08 1.08 0 00-.14.532c0 .364.128.667.385.91s.576.46.959.651.798.38 1.246.567c.448.187.863.404 1.246.651s.702.544.959.889.385.775.385 1.288c0 .42-.077.798-.231 1.134a2.494 2.494 0 01-.658.868 2.97 2.97 0 01-1.05.56c-.415.13-.884.196-1.407.196-.355 0-.69-.028-1.008-.084a6.883 6.883 0 01-1.589-.476 7.642 7.642 0 01-.497-.238l.014-.042v-2.268h1.036v1.554zm9.968 1.386v-4.662c0-.196-.007-.385-.021-.567a1.9 1.9 0 00-.098-.49.786.786 0 00-.224-.343.57.57 0 00-.385-.126c-.317 0-.586.13-.805.392-.22.261-.385.588-.497.98v4.816h-1.064v-7h.728l.21.854h.056c.093-.14.184-.273.273-.399.089-.126.191-.236.308-.329.117-.093.254-.166.413-.217.159-.051.36-.077.602-.077.14 0 .285.021.434.063.15.042.287.107.413.196.126.089.236.208.329.357.093.15.154.331.182.546.215-.364.455-.649.721-.854.266-.205.632-.308 1.099-.308.308 0 .558.051.749.154.191.103.34.25.448.441.107.191.182.42.224.686.042.266.063.562.063.889v4.998h-1.064v-4.76c0-.196-.01-.38-.028-.553a1.764 1.764 0 00-.105-.455.752.752 0 00-.21-.308.536.536 0 00-.357-.112c-.327 0-.602.13-.826.392-.224.261-.392.635-.504 1.12v4.676h-1.064zm6.202 0v-.938h2.436v-5.124h-2.436v-.938h3.556v6.062h2.38v.938h-5.936zm2.058-8.988c0-.252.084-.469.252-.651a.838.838 0 01.644-.273c.27 0 .497.091.679.273a.889.889 0 01.273.651.806.806 0 01-.273.616.963.963 0 01-.679.252.872.872 0 01-.644-.252.838.838 0 01-.252-.616zm5.306 1.988h1.666v-1.386l1.092-.308v1.694h3.738v.938h-3.738v3.304c0 .681.166 1.185.497 1.512.331.327.805.49 1.421.49.42 0 .786-.08 1.099-.238.313-.159.595-.331.847-.518l.364.826a3.938 3.938 0 01-1.169.63 4.182 4.182 0 01-1.393.238 3.41 3.41 0 01-1.057-.161 2.426 2.426 0 01-.875-.497 2.38 2.38 0 01-.602-.861c-.15-.35-.224-.768-.224-1.253v-3.472h-1.666v-.938zm8.022-2.8h2.184v3.668h.07c.29-.327.625-.581 1.008-.763.383-.182.859-.273 1.428-.273.448 0 .838.047 1.169.14.331.093.602.257.812.49.21.233.366.553.469.959.103.406.154.922.154 1.547v4.032h-1.092v-3.822c0-.401-.023-.751-.07-1.05a1.829 1.829 0 00-.273-.749c-.135-.2-.32-.352-.553-.455-.233-.103-.532-.154-.896-.154-.252 0-.5.044-.742.133-.243.089-.464.21-.665.364-.2.154-.373.34-.518.56-.145.22-.245.46-.301.721v4.452h-1.078v-8.862h-1.106V160z"/><path id="&lt;/" fill="#999" d="M285.6 165.53v-.406l6.594-4.018.532.868-5.558 3.29 5.572 3.234-.532.84-6.608-3.808zm14.084-5.698l.882.392-5.11 11.536-.882-.392 5.11-11.536z"/><path id="span" fill="#905" d="M307.902 167.91a.796.796 0 00-.35-.693 2.872 2.872 0 00-.868-.392 16.056 16.056 0 00-1.127-.273 6.502 6.502 0 01-1.127-.336 2.525 2.525 0 01-.868-.567c-.233-.238-.35-.572-.35-1.001 0-.355.077-.658.231-.91a1.94 1.94 0 01.609-.623c.252-.163.546-.285.882-.364.336-.08.686-.119 1.05-.119.653 0 1.216.082 1.687.245.471.163.847.334 1.127.511l-.448.882a11.79 11.79 0 00-1.001-.483c-.36-.154-.81-.231-1.351-.231-.205 0-.408.021-.609.063-.2.042-.383.105-.546.189a1.088 1.088 0 00-.392.329.825.825 0 00-.147.497c0 .243.117.43.35.56.233.13.523.24.868.329.345.089.721.173 1.127.252.406.08.782.194 1.127.343.345.15.635.35.868.602.233.252.35.593.35 1.022 0 .644-.254 1.176-.763 1.596-.509.42-1.272.63-2.289.63-.308 0-.611-.028-.91-.084a5.52 5.52 0 01-.84-.224 5.054 5.054 0 01-.714-.315 3.002 3.002 0 01-.532-.357l.56-.91c.112.112.261.226.448.343a4.229 4.229 0 001.337.539 3.76 3.76 0 001.484.021c.22-.042.413-.107.581-.196a1.08 1.08 0 00.399-.35.914.914 0 00.147-.525zm3.612-2.66a14.051 14.051 0 00-.063-1.176 4.657 4.657 0 00-.049-.364h-.938v-.91h1.862l.14.98h.07c.252-.327.572-.6.959-.819.387-.22.861-.329 1.421-.329.999 0 1.75.275 2.254.826.504.55.756 1.451.756 2.702 0 .588-.086 1.118-.259 1.589a3.34 3.34 0 01-.735 1.197 3.24 3.24 0 01-1.148.756 3.999 3.999 0 01-1.484.266c-.196 0-.371-.007-.525-.021a4.613 4.613 0 01-.42-.056 3.31 3.31 0 01-.371-.091 5.104 5.104 0 01-.392-.14v2.94h-1.078v-7.35zm3.22-1.596c-.28 0-.544.051-.791.154a2.36 2.36 0 00-1.127.966c-.121.205-.196.41-.224.616v3.192c.205.14.436.25.693.329.257.08.595.119 1.015.119.747 0 1.344-.245 1.792-.735.448-.49.672-1.206.672-2.149 0-.793-.156-1.407-.469-1.841-.313-.434-.833-.651-1.561-.651zm5.348-.308a4.447 4.447 0 011.358-.504 7.423 7.423 0 011.484-.154c.476 0 .866.075 1.169.224.303.15.541.343.714.581.173.238.29.509.35.812.06.303.091.609.091.917 0 .355-.01.733-.028 1.134-.019.401-.033.803-.042 1.204 0 .467.028.91.084 1.33h.938v.91h-1.862l-.126-1.05h-.07c-.056.084-.14.191-.252.322-.112.13-.259.259-.441.385a2.749 2.749 0 01-1.589.469c-.69 0-1.237-.177-1.638-.532-.401-.355-.602-.84-.602-1.456 0-.476.105-.873.315-1.19.21-.317.511-.56.903-.728.392-.168.866-.266 1.421-.294a9.544 9.544 0 011.869.112c.047-.43.054-.786.021-1.071-.033-.285-.107-.511-.224-.679a.938.938 0 00-.49-.357 2.482 2.482 0 00-.777-.105c-.42 0-.821.058-1.204.175-.383.117-.723.236-1.022.357l-.35-.812zm2.058 5.642c.261 0 .504-.042.728-.126a2.22 2.22 0 00.588-.322 2.133 2.133 0 00.672-.868v-.98a7.92 7.92 0 00-1.344-.126c-.41 0-.765.044-1.064.133-.299.089-.532.226-.7.413-.168.187-.252.43-.252.728 0 .308.105.576.315.805.21.229.562.343 1.057.343zm6.132-3.738a14.051 14.051 0 00-.063-1.176 4.657 4.657 0 00-.049-.364h-.938v-.91h1.876l.126 1.134h.07c.093-.159.217-.315.371-.469a2.91 2.91 0 011.225-.721c.252-.075.518-.112.798-.112.43 0 .81.047 1.141.14.331.093.607.259.826.497.22.238.385.56.497.966.112.406.168.922.168 1.547v4.018h-1.092v-3.808c0-.775-.126-1.358-.378-1.75-.252-.392-.71-.588-1.372-.588-.243 0-.478.049-.707.147a2.44 2.44 0 00-.623.385c-.187.159-.35.343-.49.553-.14.21-.243.432-.308.665v4.396h-1.078v-4.55z"/><path id="&gt;&lt;" fill="#999" d="M336.532 169.338l-.532-.84 5.572-3.234-5.558-3.29.532-.868 6.594 4.018v.406l-6.608 3.808zM16.8 185.53v-.406l6.594-4.018.532.868-5.558 3.29 5.572 3.234-.532.84-6.608-3.808z"/><path id="span" fill="#905" d="M30.702 187.91a.796.796 0 00-.35-.693 2.872 2.872 0 00-.868-.392 16.056 16.056 0 00-1.127-.273 6.502 6.502 0 01-1.127-.336 2.525 2.525 0 01-.868-.567c-.233-.238-.35-.572-.35-1.001 0-.355.077-.658.231-.91a1.94 1.94 0 01.609-.623c.252-.163.546-.285.882-.364.336-.08.686-.119 1.05-.119.653 0 1.216.082 1.687.245.471.163.847.334 1.127.511l-.448.882a11.79 11.79 0 00-1.001-.483c-.36-.154-.81-.231-1.351-.231-.205 0-.408.021-.609.063-.2.042-.383.105-.546.189a1.088 1.088 0 00-.392.329.825.825 0 00-.147.497c0 .243.117.43.35.56.233.13.523.24.868.329.345.089.721.173 1.127.252.406.08.782.194 1.127.343.345.15.635.35.868.602.233.252.35.593.35 1.022 0 .644-.254 1.176-.763 1.596-.509.42-1.272.63-2.289.63-.308 0-.611-.028-.91-.084a5.52 5.52 0 01-.84-.224 5.054 5.054 0 01-.714-.315 3.002 3.002 0 01-.532-.357l.56-.91c.112.112.261.226.448.343a4.229 4.229 0 001.337.539 3.76 3.76 0 001.484.021c.22-.042.413-.107.581-.196a1.08 1.08 0 00.399-.35.914.914 0 00.147-.525zm3.612-2.66a14.05 14.05 0 00-.063-1.176 4.657 4.657 0 00-.049-.364h-.938v-.91h1.862l.14.98h.07c.252-.327.572-.6.959-.819.387-.22.861-.329 1.421-.329.999 0 1.75.275 2.254.826.504.55.756 1.451.756 2.702 0 .588-.086 1.118-.259 1.589a3.34 3.34 0 01-.735 1.197 3.24 3.24 0 01-1.148.756 3.999 3.999 0 01-1.484.266c-.196 0-.371-.007-.525-.021a4.613 4.613 0 01-.42-.056 3.31 3.31 0 01-.371-.091 5.104 5.104 0 01-.392-.14v2.94h-1.078v-7.35zm3.22-1.596c-.28 0-.544.051-.791.154a2.36 2.36 0 00-1.127.966c-.121.205-.196.41-.224.616v3.192c.205.14.436.25.693.329.257.08.595.119 1.015.119.747 0 1.344-.245 1.792-.735.448-.49.672-1.206.672-2.149 0-.793-.156-1.407-.469-1.841-.313-.434-.833-.651-1.561-.651zm5.348-.308a4.447 4.447 0 011.358-.504 7.423 7.423 0 011.484-.154c.476 0 .866.075 1.169.224.303.15.541.343.714.581.173.238.29.509.35.812.06.303.091.609.091.917 0 .355-.01.733-.028 1.134-.019.401-.033.803-.042 1.204 0 .467.028.91.084 1.33H49v.91h-1.862l-.126-1.05h-.07c-.056.084-.14.191-.252.322-.112.13-.259.259-.441.385a2.749 2.749 0 01-1.589.469c-.69 0-1.237-.177-1.638-.532-.401-.355-.602-.84-.602-1.456 0-.476.105-.873.315-1.19.21-.317.511-.56.903-.728.392-.168.866-.266 1.421-.294a9.544 9.544 0 011.869.112c.047-.43.054-.786.021-1.071-.033-.285-.107-.511-.224-.679a.938.938 0 00-.49-.357 2.482 2.482 0 00-.777-.105c-.42 0-.821.058-1.204.175-.383.117-.723.236-1.022.357l-.35-.812zm2.058 5.642c.261 0 .504-.042.728-.126a2.22 2.22 0 00.588-.322 2.133 2.133 0 00.672-.868v-.98a7.92 7.92 0 00-1.344-.126c-.41 0-.765.044-1.064.133-.299.089-.532.226-.7.413-.168.187-.252.43-.252.728 0 .308.105.576.315.805.21.229.562.343 1.057.343zm6.132-3.738a14.05 14.05 0 00-.063-1.176 4.657 4.657 0 00-.049-.364h-.938v-.91h1.876l.126 1.134h.07c.093-.159.217-.315.371-.469a2.91 2.91 0 011.225-.721c.252-.075.518-.112.798-.112.43 0 .81.047 1.141.14.331.093.607.259.826.497.22.238.385.56.497.966.112.406.168.922.168 1.547v4.018h-1.092v-3.808c0-.775-.126-1.358-.378-1.75-.252-.392-.71-.588-1.372-.588-.243 0-.478.049-.707.147a2.44 2.44 0 00-.623.385c-.187.159-.35.343-.49.553-.14.21-.243.432-.308.665v4.396h-1.078v-4.55z"/><path id="slot" fill="#690" d="M72.702 187.91a.796.796 0 00-.35-.693 2.872 2.872 0 00-.868-.392 16.056 16.056 0 00-1.127-.273 6.502 6.502 0 01-1.127-.336 2.525 2.525 0 01-.868-.567c-.233-.238-.35-.572-.35-1.001 0-.355.077-.658.231-.91a1.94 1.94 0 01.609-.623c.252-.163.546-.285.882-.364.336-.08.686-.119 1.05-.119.653 0 1.216.082 1.687.245.471.163.847.334 1.127.511l-.448.882a11.79 11.79 0 00-1.001-.483c-.36-.154-.81-.231-1.351-.231-.205 0-.408.021-.609.063-.2.042-.383.105-.546.189a1.088 1.088 0 00-.392.329.825.825 0 00-.147.497c0 .243.117.43.35.56.233.13.523.24.868.329.345.089.721.173 1.127.252.406.08.782.194 1.127.343.345.15.635.35.868.602.233.252.35.593.35 1.022 0 .644-.254 1.176-.763 1.596-.509.42-1.272.63-2.289.63-.308 0-.611-.028-.91-.084a5.52 5.52 0 01-.84-.224 5.054 5.054 0 01-.714-.315 3.002 3.002 0 01-.532-.357l.56-.91c.112.112.261.226.448.343a4.229 4.229 0 001.337.539 3.76 3.76 0 001.484.021c.22-.042.413-.107.581-.196a1.08 1.08 0 00.399-.35.914.914 0 00.147-.525zm3.934-7.91h2.324v7.448c0 .57.096.97.287 1.204.191.233.474.35.847.35.261 0 .511-.047.749-.14.238-.093.502-.252.791-.476l.504.77c-.15.13-.313.247-.49.35a3.638 3.638 0 01-1.106.42 2.963 2.963 0 01-1.442-.077 1.579 1.579 0 01-.679-.427 1.897 1.897 0 01-.413-.777c-.093-.322-.14-.721-.14-1.197v-6.51h-1.232V180zm7.532 6.3c0-1.13.294-2.023.882-2.681.588-.658 1.428-.987 2.52-.987.588 0 1.094.096 1.519.287.425.191.777.45 1.057.777.28.327.488.714.623 1.162.135.448.203.929.203 1.442 0 .56-.075 1.066-.224 1.519-.15.453-.369.838-.658 1.155-.29.317-.646.562-1.071.735a3.82 3.82 0 01-1.449.259c-.579 0-1.083-.096-1.512-.287a2.967 2.967 0 01-1.064-.777 3.168 3.168 0 01-.623-1.162 4.963 4.963 0 01-.203-1.442zm1.162 0c0 .327.04.653.119.98.08.327.208.62.385.882.177.261.408.471.693.63.285.159.632.238 1.043.238.747 0 1.309-.231 1.687-.693.378-.462.567-1.141.567-2.037 0-.336-.04-.665-.119-.987a2.608 2.608 0 00-.392-.875 2.066 2.066 0 00-.7-.63c-.285-.159-.632-.238-1.043-.238-.747 0-1.307.229-1.68.686-.373.457-.56 1.139-.56 2.044zm6.874-3.5h1.666v-1.386l1.092-.308v1.694H98.7v.938h-3.738v3.304c0 .681.166 1.185.497 1.512.331.327.805.49 1.421.49.42 0 .786-.08 1.099-.238.313-.159.595-.331.847-.518l.364.826a3.938 3.938 0 01-1.169.63 4.182 4.182 0 01-1.393.238 3.41 3.41 0 01-1.057-.161 2.426 2.426 0 01-.875-.497 2.38 2.38 0 01-.602-.861c-.15-.35-.224-.768-.224-1.253v-3.472h-1.666v-.938z"/><path id="=&quot;" fill="#999" d="M101.122 183.402h6.496v1.008h-6.496v-1.008zm0 2.296h6.496v1.008h-6.496v-1.008zM113.596 180h1.232l-.434 4.242h-.798V180zm-2.898 0h1.232l-.434 4.242h-.798V180z"/><path id="birthday" fill="#07A" d="M116.998 180h2.24v3.598h.07c.243-.308.555-.546.938-.714a3.065 3.065 0 011.246-.252c2.053 0 3.08 1.185 3.08 3.556 0 1.204-.331 2.126-.994 2.765-.663.64-1.605.959-2.828.959a6.731 6.731 0 01-1.568-.168c-.467-.112-.807-.243-1.022-.392v-8.414h-1.162V180zm4.354 3.57c-.56 0-1.013.159-1.358.476-.345.317-.597.765-.756 1.344v3.22c.215.112.471.2.77.266.299.065.611.098.938.098.373 0 .712-.054 1.015-.161.303-.107.562-.275.777-.504.215-.229.38-.52.497-.875.117-.355.175-.775.175-1.26 0-.355-.037-.69-.112-1.008a2.447 2.447 0 00-.357-.833 1.717 1.717 0 00-.637-.56c-.261-.135-.579-.203-.952-.203zm5.488 6.23v-.938h2.436v-5.124h-2.436v-.938h3.556v6.062h2.38v.938h-5.936zm2.058-8.988c0-.252.084-.469.252-.651a.838.838 0 01.644-.273c.27 0 .497.091.679.273a.889.889 0 01.273.651.806.806 0 01-.273.616.963.963 0 01-.679.252.872.872 0 01-.644-.252.838.838 0 01-.252-.616zm5.796 8.988v-.938h1.89v-5.124h-1.89v-.938h2.618l.224.91h.07c.317-.29.672-.537 1.064-.742.392-.205.859-.308 1.4-.308.317 0 .572.06.763.182.191.121.34.299.448.532.107.233.18.516.217.847.037.331.056.707.056 1.127l-.98.014c0-.597-.058-1.036-.175-1.316-.117-.28-.329-.42-.637-.42-.29 0-.55.042-.784.126a2.565 2.565 0 00-.609.308c-.173.121-.32.243-.441.364s-.21.224-.266.308v4.13h2.688v.938h-5.656zm7.91-7h1.666v-1.386l1.092-.308v1.694h3.738v.938h-3.738v3.304c0 .681.166 1.185.497 1.512.331.327.805.49 1.421.49.42 0 .786-.08 1.099-.238.313-.159.595-.331.847-.518l.364.826a3.938 3.938 0 01-1.169.63 4.182 4.182 0 01-1.393.238 3.41 3.41 0 01-1.057-.161 2.426 2.426 0 01-.875-.497 2.38 2.38 0 01-.602-.861c-.15-.35-.224-.768-.224-1.253v-3.472h-1.666v-.938zm8.022-2.8h2.184v3.668h.07c.29-.327.625-.581 1.008-.763.383-.182.859-.273 1.428-.273.448 0 .838.047 1.169.14.331.093.602.257.812.49.21.233.366.553.469.959.103.406.154.922.154 1.547v4.032h-1.092v-3.822c0-.401-.023-.751-.07-1.05a1.829 1.829 0 00-.273-.749c-.135-.2-.32-.352-.553-.455-.233-.103-.532-.154-.896-.154-.252 0-.5.044-.742.133-.243.089-.464.21-.665.364-.2.154-.373.34-.518.56-.145.22-.245.46-.301.721v4.452h-1.078v-8.862h-1.106V180zm13.23 0h2.268v7.406c0 .084.005.189.014.315a15.6 15.6 0 00.084.812c.019.135.037.254.056.357h.938v.91h-1.862l-.14-1.078h-.056c-.205.355-.511.651-.917.889s-.875.357-1.407.357c-1.055 0-1.832-.296-2.331-.889-.5-.593-.749-1.514-.749-2.765 0-.588.084-1.108.252-1.561.168-.453.408-.83.721-1.134a3.118 3.118 0 011.127-.693 4.298 4.298 0 011.47-.238c.196 0 .371.005.525.014.154.01.296.023.427.042.13.019.254.044.371.077.117.033.245.068.385.105v-1.988h-1.176V180zm-.84 9.03c.57 0 1.017-.147 1.344-.441.327-.294.55-.735.672-1.323v-3.248a2.168 2.168 0 00-.693-.308c-.257-.065-.595-.098-1.015-.098-.747 0-1.335.217-1.764.651-.43.434-.644 1.118-.644 2.051 0 .383.035.74.105 1.071.07.331.187.618.35.861.163.243.38.434.651.574.27.14.602.21.994.21zm5.866-5.684a4.447 4.447 0 011.358-.504 7.423 7.423 0 011.484-.154c.476 0 .866.075 1.169.224.303.15.541.343.714.581.173.238.29.509.35.812.06.303.091.609.091.917 0 .355-.01.733-.028 1.134-.019.401-.033.803-.042 1.204 0 .467.028.91.084 1.33H175v.91h-1.862l-.126-1.05h-.07c-.056.084-.14.191-.252.322-.112.13-.259.259-.441.385a2.749 2.749 0 01-1.589.469c-.69 0-1.237-.177-1.638-.532-.401-.355-.602-.84-.602-1.456 0-.476.105-.873.315-1.19.21-.317.511-.56.903-.728.392-.168.866-.266 1.421-.294a9.544 9.544 0 011.869.112c.047-.43.054-.786.021-1.071-.033-.285-.107-.511-.224-.679a.938.938 0 00-.49-.357 2.482 2.482 0 00-.777-.105c-.42 0-.821.058-1.204.175-.383.117-.723.236-1.022.357l-.35-.812zm2.058 5.642c.261 0 .504-.042.728-.126a2.22 2.22 0 00.588-.322 2.133 2.133 0 00.672-.868v-.98a7.92 7.92 0 00-1.344-.126c-.41 0-.765.044-1.064.133-.299.089-.532.226-.7.413-.168.187-.252.43-.252.728 0 .308.105.576.315.805.21.229.562.343 1.057.343zm9.184-.266h.532l1.736-5.922h1.134l-1.946 6.286c-.103.327-.208.698-.315 1.113a5.2 5.2 0 01-.455 1.169 2.807 2.807 0 01-.798.924c-.336.252-.775.378-1.316.378-.121 0-.25-.014-.385-.042a3.856 3.856 0 01-.399-.105 2.575 2.575 0 01-.364-.147.977.977 0 01-.252-.168l.392-1.008c.056.047.133.093.231.14.098.047.205.086.322.119.117.033.231.06.343.084.112.023.205.035.28.035.7 0 1.176-.593 1.428-1.778h-.938l-2.94-7h1.26l2.45 5.922z"/><path id="&quot;&gt;" fill="#999" d="M189.196 180h1.232l-.434 4.242h-.798V180zm-2.898 0h1.232l-.434 4.242h-.798V180zm7.434 9.338l-.532-.84 5.572-3.234-5.558-3.29.532-.868 6.594 4.018v.406l-6.608 3.808z"/><path id="01.01.2001" fill="#333" d="M201.74 184.9c0-.793.07-1.505.21-2.135.14-.63.35-1.162.63-1.596.28-.434.635-.765 1.064-.994.43-.229.938-.343 1.526-.343.625 0 1.155.112 1.589.336.434.224.786.55 1.057.98.27.43.467.959.588 1.589.121.63.182 1.351.182 2.163a9.88 9.88 0 01-.21 2.135c-.14.63-.35 1.162-.63 1.596-.28.434-.635.765-1.064.994-.43.229-.938.343-1.526.343-.616 0-1.141-.124-1.575-.371a2.956 2.956 0 01-1.064-1.043c-.275-.448-.474-.982-.595-1.603a10.713 10.713 0 01-.182-2.051zm5.698 0c0-.495-.028-.966-.084-1.414l-4.158 3.794c.159.532.397.957.714 1.274.317.317.733.476 1.246.476.821 0 1.407-.34 1.757-1.022.35-.681.525-1.717.525-3.108zm-4.536 0c0 .233.007.457.021.672.014.215.03.425.049.63l4.172-3.78c-.159-.504-.394-.905-.707-1.204-.313-.299-.735-.448-1.267-.448-.83 0-1.416.343-1.757 1.029-.34.686-.511 1.72-.511 3.101zm8.246 3.892h2.198v-7.364l-2.24 1.568-.546-.798 3.08-2.198h.784v8.792h2.156v1.008h-5.432v-1.008zm9.884.238c0-.299.084-.53.252-.693.168-.163.392-.245.672-.245.299 0 .532.082.7.245.168.163.252.394.252.693 0 .27-.084.495-.252.672-.168.177-.401.266-.7.266-.28 0-.504-.089-.672-.266a.938.938 0 01-.252-.672zm5.908-4.13c0-.793.07-1.505.21-2.135.14-.63.35-1.162.63-1.596.28-.434.635-.765 1.064-.994.43-.229.938-.343 1.526-.343.625 0 1.155.112 1.589.336.434.224.786.55 1.057.98.27.43.467.959.588 1.589.121.63.182 1.351.182 2.163a9.88 9.88 0 01-.21 2.135c-.14.63-.35 1.162-.63 1.596-.28.434-.635.765-1.064.994-.43.229-.938.343-1.526.343-.616 0-1.141-.124-1.575-.371a2.956 2.956 0 01-1.064-1.043c-.275-.448-.474-.982-.595-1.603a10.713 10.713 0 01-.182-2.051zm5.698 0c0-.495-.028-.966-.084-1.414l-4.158 3.794c.159.532.397.957.714 1.274.317.317.733.476 1.246.476.821 0 1.407-.34 1.757-1.022.35-.681.525-1.717.525-3.108zm-4.536 0c0 .233.007.457.021.672.014.215.03.425.049.63l4.172-3.78c-.159-.504-.394-.905-.707-1.204-.313-.299-.735-.448-1.267-.448-.83 0-1.416.343-1.757 1.029-.34.686-.511 1.72-.511 3.101zm8.246 3.892h2.198v-7.364l-2.24 1.568-.546-.798 3.08-2.198h.784v8.792h2.156v1.008h-5.432v-1.008zm9.884.238c0-.299.084-.53.252-.693.168-.163.392-.245.672-.245.299 0 .532.082.7.245.168.163.252.394.252.693 0 .27-.084.495-.252.672-.168.177-.401.266-.7.266-.28 0-.504-.089-.672-.266a.938.938 0 01-.252-.672zm12.138-6.552c0 .859-.406 1.815-1.218 2.87-.812 1.055-1.946 2.203-3.402 3.444h4.928v1.008h-6.216v-1.008c.177-.168.42-.387.728-.658.308-.27.64-.572.994-.903a29.01 29.01 0 001.085-1.071c.369-.383.702-.775 1.001-1.176.299-.401.541-.803.728-1.204a2.75 2.75 0 00.28-1.162c0-.56-.147-1.001-.441-1.323-.294-.322-.735-.483-1.323-.483-.504 0-.929.056-1.274.168a3.101 3.101 0 00-.938.49l-.476-.77c.42-.299.866-.518 1.337-.658s.987-.21 1.547-.21c.877 0 1.54.238 1.988.714.448.476.672 1.12.672 1.932zm2.17 2.422c0-.793.07-1.505.21-2.135.14-.63.35-1.162.63-1.596.28-.434.635-.765 1.064-.994.43-.229.938-.343 1.526-.343.625 0 1.155.112 1.589.336.434.224.786.55 1.057.98.27.43.467.959.588 1.589.121.63.182 1.351.182 2.163a9.88 9.88 0 01-.21 2.135c-.14.63-.35 1.162-.63 1.596-.28.434-.635.765-1.064.994-.43.229-.938.343-1.526.343-.616 0-1.141-.124-1.575-.371a2.956 2.956 0 01-1.064-1.043c-.275-.448-.474-.982-.595-1.603a10.713 10.713 0 01-.182-2.051zm5.698 0c0-.495-.028-.966-.084-1.414l-4.158 3.794c.159.532.397.957.714 1.274.317.317.733.476 1.246.476.821 0 1.407-.34 1.757-1.022.35-.681.525-1.717.525-3.108zm-4.536 0c0 .233.007.457.021.672.014.215.03.425.049.63l4.172-3.78c-.159-.504-.394-.905-.707-1.204-.313-.299-.735-.448-1.267-.448-.83 0-1.416.343-1.757 1.029-.34.686-.511 1.72-.511 3.101zm7.238 0c0-.793.07-1.505.21-2.135.14-.63.35-1.162.63-1.596.28-.434.635-.765 1.064-.994.43-.229.938-.343 1.526-.343.625 0 1.155.112 1.589.336.434.224.786.55 1.057.98.27.43.467.959.588 1.589.121.63.182 1.351.182 2.163a9.88 9.88 0 01-.21 2.135c-.14.63-.35 1.162-.63 1.596-.28.434-.635.765-1.064.994-.43.229-.938.343-1.526.343-.616 0-1.141-.124-1.575-.371a2.956 2.956 0 01-1.064-1.043c-.275-.448-.474-.982-.595-1.603a10.713 10.713 0 01-.182-2.051zm5.698 0c0-.495-.028-.966-.084-1.414l-4.158 3.794c.159.532.397.957.714 1.274.317.317.733.476 1.246.476.821 0 1.407-.34 1.757-1.022.35-.681.525-1.717.525-3.108zm-4.536 0c0 .233.007.457.021.672.014.215.03.425.049.63l4.172-3.78c-.159-.504-.394-.905-.707-1.204-.313-.299-.735-.448-1.267-.448-.83 0-1.416.343-1.757 1.029-.34.686-.511 1.72-.511 3.101zm8.246 3.892h2.198v-7.364l-2.24 1.568-.546-.798 3.08-2.198h.784v8.792h2.156v1.008h-5.432v-1.008z"/><path id="&lt;/" fill="#999" d="M285.6 185.53v-.406l6.594-4.018.532.868-5.558 3.29 5.572 3.234-.532.84-6.608-3.808zm14.084-5.698l.882.392-5.11 11.536-.882-.392 5.11-11.536z"/><path id="span" fill="#905" d="M307.902 187.91a.796.796 0 00-.35-.693 2.872 2.872 0 00-.868-.392 16.056 16.056 0 00-1.127-.273 6.502 6.502 0 01-1.127-.336 2.525 2.525 0 01-.868-.567c-.233-.238-.35-.572-.35-1.001 0-.355.077-.658.231-.91a1.94 1.94 0 01.609-.623c.252-.163.546-.285.882-.364.336-.08.686-.119 1.05-.119.653 0 1.216.082 1.687.245.471.163.847.334 1.127.511l-.448.882a11.79 11.79 0 00-1.001-.483c-.36-.154-.81-.231-1.351-.231-.205 0-.408.021-.609.063-.2.042-.383.105-.546.189a1.088 1.088 0 00-.392.329.825.825 0 00-.147.497c0 .243.117.43.35.56.233.13.523.24.868.329.345.089.721.173 1.127.252.406.08.782.194 1.127.343.345.15.635.35.868.602.233.252.35.593.35 1.022 0 .644-.254 1.176-.763 1.596-.509.42-1.272.63-2.289.63-.308 0-.611-.028-.91-.084a5.52 5.52 0 01-.84-.224 5.054 5.054 0 01-.714-.315 3.002 3.002 0 01-.532-.357l.56-.91c.112.112.261.226.448.343a4.229 4.229 0 001.337.539 3.76 3.76 0 001.484.021c.22-.042.413-.107.581-.196a1.08 1.08 0 00.399-.35.914.914 0 00.147-.525zm3.612-2.66a14.051 14.051 0 00-.063-1.176 4.657 4.657 0 00-.049-.364h-.938v-.91h1.862l.14.98h.07c.252-.327.572-.6.959-.819.387-.22.861-.329 1.421-.329.999 0 1.75.275 2.254.826.504.55.756 1.451.756 2.702 0 .588-.086 1.118-.259 1.589a3.34 3.34 0 01-.735 1.197 3.24 3.24 0 01-1.148.756 3.999 3.999 0 01-1.484.266c-.196 0-.371-.007-.525-.021a4.613 4.613 0 01-.42-.056 3.31 3.31 0 01-.371-.091 5.104 5.104 0 01-.392-.14v2.94h-1.078v-7.35zm3.22-1.596c-.28 0-.544.051-.791.154a2.36 2.36 0 00-1.127.966c-.121.205-.196.41-.224.616v3.192c.205.14.436.25.693.329.257.08.595.119 1.015.119.747 0 1.344-.245 1.792-.735.448-.49.672-1.206.672-2.149 0-.793-.156-1.407-.469-1.841-.313-.434-.833-.651-1.561-.651zm5.348-.308a4.447 4.447 0 011.358-.504 7.423 7.423 0 011.484-.154c.476 0 .866.075 1.169.224.303.15.541.343.714.581.173.238.29.509.35.812.06.303.091.609.091.917 0 .355-.01.733-.028 1.134-.019.401-.033.803-.042 1.204 0 .467.028.91.084 1.33h.938v.91h-1.862l-.126-1.05h-.07c-.056.084-.14.191-.252.322-.112.13-.259.259-.441.385a2.749 2.749 0 01-1.589.469c-.69 0-1.237-.177-1.638-.532-.401-.355-.602-.84-.602-1.456 0-.476.105-.873.315-1.19.21-.317.511-.56.903-.728.392-.168.866-.266 1.421-.294a9.544 9.544 0 011.869.112c.047-.43.054-.786.021-1.071-.033-.285-.107-.511-.224-.679a.938.938 0 00-.49-.357 2.482 2.482 0 00-.777-.105c-.42 0-.821.058-1.204.175-.383.117-.723.236-1.022.357l-.35-.812zm2.058 5.642c.261 0 .504-.042.728-.126a2.22 2.22 0 00.588-.322 2.133 2.133 0 00.672-.868v-.98a7.92 7.92 0 00-1.344-.126c-.41 0-.765.044-1.064.133-.299.089-.532.226-.7.413-.168.187-.252.43-.252.728 0 .308.105.576.315.805.21.229.562.343 1.057.343zm6.132-3.738a14.051 14.051 0 00-.063-1.176 4.657 4.657 0 00-.049-.364h-.938v-.91h1.876l.126 1.134h.07c.093-.159.217-.315.371-.469a2.91 2.91 0 011.225-.721c.252-.075.518-.112.798-.112.43 0 .81.047 1.141.14.331.093.607.259.826.497.22.238.385.56.497.966.112.406.168.922.168 1.547v4.018h-1.092v-3.808c0-.775-.126-1.358-.378-1.75-.252-.392-.71-.588-1.372-.588-.243 0-.478.049-.707.147a2.44 2.44 0 00-.623.385c-.187.159-.35.343-.49.553-.14.21-.243.432-.308.665v4.396h-1.078v-4.55z"/><path id="&gt;&lt;/" fill="#999" d="M336.532 189.338l-.532-.84 5.572-3.234-5.558-3.29.532-.868 6.594 4.018v.406l-6.608 3.808zM0 205.53v-.406l6.594-4.018.532.868-5.558 3.29 5.572 3.234-.532.84L0 205.53zm14.084-5.698l.882.392-5.11 11.536-.882-.392 5.11-11.536z"/><path id="user-card" fill="#905" d="M21.252 202.8h1.988v4.774c0 .457.028.896.084 1.316h.938v.91H22.4l-.042-1.19h-.056a2.938 2.938 0 01-.966.98c-.401.252-.887.378-1.456.378-.43 0-.796-.049-1.099-.147a1.556 1.556 0 01-.749-.511c-.196-.243-.34-.567-.434-.973-.093-.406-.14-.912-.14-1.519v-3.08h-.938v-.938h2.03v3.794c0 .383.016.726.049 1.029.033.303.1.56.203.77.103.21.254.369.455.476.2.107.469.161.805.161.485 0 .908-.159 1.267-.476.36-.317.632-.714.819-1.19v-3.626h-.896v-.938zm9.45 5.11a.796.796 0 00-.35-.693 2.872 2.872 0 00-.868-.392 16.056 16.056 0 00-1.127-.273 6.502 6.502 0 01-1.127-.336 2.525 2.525 0 01-.868-.567c-.233-.238-.35-.572-.35-1.001 0-.355.077-.658.231-.91a1.94 1.94 0 01.609-.623c.252-.163.546-.285.882-.364.336-.08.686-.119 1.05-.119.653 0 1.216.082 1.687.245.471.163.847.334 1.127.511l-.448.882a11.79 11.79 0 00-1.001-.483c-.36-.154-.81-.231-1.351-.231-.205 0-.408.021-.609.063-.2.042-.383.105-.546.189a1.088 1.088 0 00-.392.329.825.825 0 00-.147.497c0 .243.117.43.35.56.233.13.523.24.868.329.345.089.721.173 1.127.252.406.08.782.194 1.127.343.345.15.635.35.868.602.233.252.35.593.35 1.022 0 .644-.254 1.176-.763 1.596-.509.42-1.272.63-2.289.63-.308 0-.611-.028-.91-.084a5.52 5.52 0 01-.84-.224 5.054 5.054 0 01-.714-.315 3.002 3.002 0 01-.532-.357l.56-.91c.112.112.261.226.448.343a4.229 4.229 0 001.337.539 3.76 3.76 0 001.484.021c.22-.042.413-.107.581-.196a1.08 1.08 0 00.399-.35.914.914 0 00.147-.525zm9.674 1.008c-.168.15-.366.29-.595.42a4.39 4.39 0 01-.749.336c-.27.093-.553.166-.847.217-.294.051-.59.077-.889.077-.56 0-1.055-.086-1.484-.259a2.858 2.858 0 01-1.078-.742 3.234 3.234 0 01-.658-1.155 4.767 4.767 0 01-.224-1.512c0-.588.082-1.11.245-1.568.163-.457.399-.84.707-1.148a3.08 3.08 0 011.12-.707 4.187 4.187 0 011.47-.245c.392 0 .78.051 1.162.154.383.103.721.296 1.015.581.294.285.52.677.679 1.176.159.5.215 1.146.168 1.939H35c0 .84.226 1.468.679 1.883.453.415 1.057.623 1.813.623.252 0 .502-.03.749-.091.247-.06.483-.133.707-.217a3.72 3.72 0 00.595-.28c.173-.103.306-.196.399-.28l.434.798zm-2.954-5.362c-.308 0-.6.033-.875.098a1.995 1.995 0 00-.728.329c-.21.154-.383.355-.518.602s-.222.553-.259.917h4.354c-.047-.616-.245-1.094-.595-1.435-.35-.34-.81-.511-1.379-.511zm4.872 6.244v-.938h1.89v-5.124h-1.89v-.938h2.618l.224.91h.07c.317-.29.672-.537 1.064-.742.392-.205.859-.308 1.4-.308.317 0 .572.06.763.182.191.121.34.299.448.532.107.233.18.516.217.847.037.331.056.707.056 1.127l-.98.014c0-.597-.058-1.036-.175-1.316-.117-.28-.329-.42-.637-.42-.29 0-.55.042-.784.126a2.565 2.565 0 00-.609.308c-.173.121-.32.243-.441.364s-.21.224-.266.308v4.13h2.688v.938h-5.656zm9.282-4.55h4.788v1.036h-4.788v-1.036zm12.74-1.372a5.531 5.531 0 00-.693-.189 3.61 3.61 0 00-.735-.077c-.915 0-1.596.215-2.044.644-.448.43-.672 1.11-.672 2.044 0 .41.065.777.196 1.099.13.322.317.595.56.819.243.224.534.397.875.518.34.121.716.182 1.127.182.439 0 .866-.075 1.281-.224.415-.15.763-.345 1.043-.588l.49.812c-.13.112-.294.229-.49.35a4.837 4.837 0 01-1.533.602 4.962 4.962 0 01-1.015.098c-.607 0-1.141-.086-1.603-.259a3.045 3.045 0 01-1.155-.742 3.176 3.176 0 01-.7-1.162 4.525 4.525 0 01-.238-1.505c0-.588.082-1.11.245-1.568.163-.457.399-.84.707-1.148a3.08 3.08 0 011.12-.707 4.187 4.187 0 011.47-.245c.69 0 1.253.06 1.687.182.434.121.8.257 1.099.406l-.014.042v1.946h-1.008v-1.33zm3.766-.532a4.447 4.447 0 011.358-.504 7.423 7.423 0 011.484-.154c.476 0 .866.075 1.169.224.303.15.541.343.714.581.173.238.29.509.35.812.06.303.091.609.091.917 0 .355-.01.733-.028 1.134-.019.401-.033.803-.042 1.204 0 .467.028.91.084 1.33h.938v.91h-1.862l-.126-1.05h-.07c-.056.084-.14.191-.252.322-.112.13-.259.259-.441.385a2.749 2.749 0 01-1.589.469c-.69 0-1.237-.177-1.638-.532-.401-.355-.602-.84-.602-1.456 0-.476.105-.873.315-1.19.21-.317.511-.56.903-.728.392-.168.866-.266 1.421-.294a9.544 9.544 0 011.869.112c.047-.43.054-.786.021-1.071-.033-.285-.107-.511-.224-.679a.938.938 0 00-.49-.357 2.482 2.482 0 00-.777-.105c-.42 0-.821.058-1.204.175-.383.117-.723.236-1.022.357l-.35-.812zm2.058 5.642c.261 0 .504-.042.728-.126a2.22 2.22 0 00.588-.322 2.133 2.133 0 00.672-.868v-.98a7.92 7.92 0 00-1.344-.126c-.41 0-.765.044-1.064.133-.299.089-.532.226-.7.413-.168.187-.252.43-.252.728 0 .308.105.576.315.805.21.229.562.343 1.057.343zm5.754.812v-.938h1.89v-5.124h-1.89v-.938h2.618l.224.91h.07c.317-.29.672-.537 1.064-.742.392-.205.859-.308 1.4-.308.317 0 .572.06.763.182.191.121.34.299.448.532.107.233.18.516.217.847.037.331.056.707.056 1.127l-.98.014c0-.597-.058-1.036-.175-1.316-.117-.28-.329-.42-.637-.42-.29 0-.55.042-.784.126a2.565 2.565 0 00-.609.308c-.173.121-.32.243-.441.364s-.21.224-.266.308v4.13h2.688v.938h-5.656zm12.362-9.8h2.268v7.406c0 .084.005.189.014.315a15.6 15.6 0 00.084.812c.019.135.037.254.056.357h.938v.91h-1.862l-.14-1.078h-.056c-.205.355-.511.651-.917.889s-.875.357-1.407.357c-1.055 0-1.832-.296-2.331-.889-.5-.593-.749-1.514-.749-2.765 0-.588.084-1.108.252-1.561.168-.453.408-.83.721-1.134a3.118 3.118 0 011.127-.693 4.298 4.298 0 011.47-.238c.196 0 .371.005.525.014.154.01.296.023.427.042.13.019.254.044.371.077.117.033.245.068.385.105v-1.988h-1.176V200zm-.84 9.03c.57 0 1.017-.147 1.344-.441.327-.294.55-.735.672-1.323v-3.248a2.168 2.168 0 00-.693-.308c-.257-.065-.595-.098-1.015-.098-.747 0-1.335.217-1.764.651-.43.434-.644 1.118-.644 2.051 0 .383.035.74.105 1.071.07.331.187.618.35.861.163.243.38.434.651.574.27.14.602.21.994.21z"/><path id="&gt;" fill="#999" d="M92.932 209.338l-.532-.84 5.572-3.234-5.558-3.29.532-.868 6.594 4.018v.406z"/></g><path id="Rectangle-Copy-4" stroke="#EE6B47" d="M27.5 193.5h334v17h-334z"/><path id="Rectangle-Copy-5" stroke="#EE6B47" d="M27.5 214.5h334v17h-334z"/><g id="Line-Copy-5-+-Line-Copy-4-+-Line-Copy-3" stroke="#EE6B47" stroke-linecap="square" stroke-width="3" transform="matrix(1 0 0 -1 361 202)"><path id="Line-Copy-5" d="M3 0s46 0 46 50-46 50-46 50"/><path id="Line-Copy-4" d="M1.5 99.6l8-7.2"/><path id="Line-Copy-3" d="M.5 100.429l7 5.142"/></g><g id="Line-Copy-5-+-Line-Copy-4-+-Line-Copy-3-Copy" stroke="#EE6B47" stroke-linecap="square" stroke-width="3" transform="matrix(1 0 0 -1 362 225)"><path id="Line-Copy-5" d="M2 0s31 0 31 30.5S2 61 2 61"/><path id="Line-Copy-4" d="M1.333 60.75l5.334-4.5"/><path id="Line-Copy-3" d="M.313 61.286l4.375 3.428"/></g></g></g></svg>