<svg xmlns="http://www.w3.org/2000/svg" width="460" height="157" viewBox="0 0 460 157"><defs><style>@import url(https://fonts.googleapis.com/css?family=Open+Sans:bold,italic,bolditalic%7CPT+Mono);@font-face{font-family:&apos;PT Mono&apos;;font-weight:700;font-style:normal;src:local(&apos;PT MonoBold&apos;),url(/font/PTMonoBold.woff2) format(&apos;woff2&apos;),url(/font/PTMonoBold.woff) format(&apos;woff&apos;),url(/font/PTMonoBold.ttf) format(&apos;truetype&apos;)}</style></defs><g id="inheritance" fill="none" fill-rule="evenodd" stroke="none" stroke-width="1"><g id="rabbit-prototype-constructor.svg"><g id="Line-Copy-5-+-Line-Copy-4-+-Line-Copy-3" stroke="#C06334" stroke-linecap="square" stroke-width="2" transform="matrix(1 0 0 -1 224 108)"><path id="Line-Copy-5" stroke-dasharray="1,2,1,8" d="M86.372 4.412v14.926c0 30.925-85.263 30.925-85.263 30.925"/><path id="Line-Copy-4" d="M1.663 49.76l8.872-9.047"/><path id="Line-Copy-3" d="M.554 50.766l7.763 6.031"/></g><path id="Rectangle-1" fill="#FBF2EC" stroke="#DBAF88" stroke-width="2" d="M248 23h158v28H248V23z"/><text id="default-&quot;prototype&quot;" fill="#AF6E24" font-family="PTMono-Regular, PT Mono" font-size="14" font-weight="normal"><tspan x="248.2" y="15">default &quot;prototype&quot;</tspan></text><path id="Rectangle-1-Copy" fill="#FBF2EC" stroke="#DBAF88" stroke-width="2" d="M248 121h158v28H248z"/><path id="Rectangle-1-Copy-2" fill="#FBF2EC" stroke="#DBAF88" stroke-width="2" d="M10 23h99v28H10z"/><text id="Rabbit" fill="#AF6E24" font-family="PTMono-Regular, PT Mono" font-size="14" font-weight="normal"><tspan x="9" y="15">Rabbit</tspan></text><text id="rabbit" fill="#AF6E24" font-family="PTMono-Regular, PT Mono" font-size="14" font-weight="normal"><tspan x="248" y="112">rabbit</tspan></text><path id="Line" fill="#C06334" fill-rule="nonzero" d="M323.5 65.5l7 14h-6v28h-2v-28h-6l7-14z"/><path id="Line-Copy" fill="#C06334" fill-rule="nonzero" d="M207 27l14 7-14 7v-6h-80v-2h80v-6z"/><path id="Line-Copy-2" fill="#C06334" fill-rule="nonzero" d="M142 37v6h80v2h-80v6l-14-7 14-7z"/><text id="[[Prototype]]" fill="#AF6E24" font-family="PTMono-Regular, PT Mono" font-size="14" font-weight="normal"><tspan x="333" y="89">[[Prototype]]</tspan></text><text id="prototype" fill="#AF6E24" font-family="PTMono-Regular, PT Mono" font-size="14" font-weight="normal"><tspan x="134" y="22">prototype</tspan></text><text id="constructor" fill="#AF6E24" font-family="PTMono-Regular, PT Mono" font-size="14" font-weight="normal"><tspan x="128" y="62">constructor</tspan></text></g></g></svg>