<?xml version="1.0" encoding="UTF-8" standalone="no"?>
<svg width="320px" height="216px" viewBox="0 0 320 216" version="1.1" xmlns="http://www.w3.org/2000/svg" xmlns:xlink="http://www.w3.org/1999/xlink" xmlns:sketch="http://www.bohemiancoding.com/sketch/ns">
    <!-- Generator: bin/sketchtool 1.3 (252) - http://www.bohemiancoding.com/sketch -->
    <title>bagua-bubble.svg</title>
    <desc>Created with bin/sketchtool.</desc>
    <defs></defs>
    <g id="combined" stroke="none" stroke-width="1" fill="none" fill-rule="evenodd" sketch:type="MSPage">
        <g id="bagua-bubble.svg" sketch:type="MSArtboardGroup">
            <path d="M202.48764,140 L217,186 L103,186 L117.51236,140 L202.48764,140 Z" id="Rectangle-210" fill="#FFDE99" sketch:type="MSShapeGroup"></path>
            <path d="M223.23146,72 L245,141 L74,141 L95.76854,72 L223.23146,72 Z" id="Rectangle-209" stroke="#CFCE95" stroke-width="18" sketch:type="MSShapeGroup"></path>
            <path d="M242.611787,20 L271,110 L48,110 L76.388213,20 L242.611787,20 Z" id="Rectangle-208" stroke="#99C0C3" stroke-width="18" sketch:type="MSShapeGroup"></path>
            <path d="M155.500875,123 L155.500875,110 L155.500875,110 L164.499875,110 L164.499875,123 L155.500875,123 Z M155.500875,141 L155.500875,154.816139 C155.500875,157.302139 157.514875,159.316139 160.000875,159.316139 C162.484875,159.316139 164.499875,157.302139 164.499875,154.816139 L164.499875,141 L155.500875,141 Z M155.500875,92 L155.500875,35.6981394 L145.361875,45.8351394 C143.605875,47.5921394 140.756875,47.5921394 138.998875,45.8351394 C137.240875,44.0771394 137.240875,41.2281394 138.998875,39.4711394 L156.637875,21.8311394 C157.563875,20.9071394 158.789875,20.4821394 160.000875,20.5311394 C161.210875,20.4821394 162.437875,20.9071394 163.361875,21.8311394 L181.001875,39.4711394 C182.758875,41.2281394 182.758875,44.0771394 181.001875,45.8351394 C179.243875,47.5921394 176.394875,47.5921394 174.637875,45.8351394 L164.499875,35.6981394 L164.499875,92 L155.500875,92 Z" id="Fill-46" fill="#5A4739" sketch:type="MSShapeGroup"></path>
            <text id="&lt;table&gt;" sketch:type="MSTextLayer" font-family="Consolas" font-size="14" font-weight="bold" fill="#99C0C3">
                <tspan x="9" y="30">&lt;table&gt;</tspan>
            </text>
            <text id="&lt;td&gt;" sketch:type="MSTextLayer" font-family="Consolas" font-size="14" font-weight="bold" fill="#CFCE95">
                <tspan x="36" y="136">&lt;td&gt;</tspan>
            </text>
            <text id="&lt;strong&gt;" sketch:type="MSTextLayer" font-family="Consolas" font-size="14" font-weight="bold" fill="#E8C48E">
                <tspan x="35" y="181">&lt;strong&gt;</tspan>
            </text>
        </g>
    </g>
</svg>