<svg width="331" height="162" viewBox="0 0 331 162" xmlns="http://www.w3.org/2000/svg"><title>Slice 1</title><desc>Created with Sketch.</desc><g fill="none" fill-rule="evenodd"><path stroke="#9B9B9B" d="M107 108h37v54h-37zm36 0h37v54h-37z"/><text font-family="Consolas" font-size="14" fill="#000"><tspan x="122" y="139">0</tspan></text><text font-family="Consolas" font-size="14" fill="#000"><tspan x="159" y="139">1</tspan></text><path stroke="#9B9B9B" d="M179 108h37v54h-37z"/><text font-family="Consolas" font-size="14" fill="#000"><tspan x="195" y="139">2</tspan></text><path stroke="#9B9B9B" d="M215 108h37v54h-37z"/><text font-family="Consolas" font-size="14" fill="#000"><tspan x="231" y="139">3</tspan></text><path d="M331 121l-6.192-4.5v3H309v3h15.808v3L331 121z" fill="#979797"/><path stroke="#979797" d="M262 112h48v19h-48z"/><text font-family="Consolas" font-size="14" fill="#000"><tspan x="270" y="125">pop</tspan></text><path d="M101 121l-6.192-4.5v3H79v3h15.808v3L101 121z" fill="#979797"/><path stroke="#979797" d="M17 112h63v19H17z"/><text font-family="Consolas" font-size="14" fill="#000"><tspan x="21" y="126">unshift</tspan></text><path d="M309 146l6.192-4.5v3H331v3h-15.808v3L309 146z" fill="#979797"/><path stroke="#979797" d="M310 137h-48v19h48z"/><text font-family="Consolas" font-size="14" fill="#000"><tspan x="269" y="150">push</tspan></text><path d="M78 146l6.192-4.5v3H100v3H84.192v3L78 146z" fill="#979797"/><path stroke="#979797" d="M79 137H16v19h63z"/><text font-family="Consolas" font-size="14" fill="#000"><tspan x="26" y="151">shift</tspan></text><path d="M287.195 98c-.01 0-1.165-.012-1.665-.43l-.005-.004c-.05.02-.104.04-.162.055-.083.02-.172.035-.273.035-.447 0-1.504-.27-1.973-.697-.168.074-.378.125-.64.13h-.062l-.062-.01c-1.687-.314-6.394-8.24-6.433-8.317-.215-.43-.224-1.023-.234-1.71-.008-.61-.02-1.302-.193-1.792-.244-.684-.945-1.03-1.408-1.26-.13-.064-.238-.12-.32-.168l-.298-.18c-1.604-.96-3.152-1.9-3.604-2.268-2.058-1.666-3.485-4.78-3.82-8.328-.085-.896-.41-5.568 1.49-9.66 1.968-4.23 6.53-10.22 13.565-17.803.23-.246.402-.432.504-.545.304-.337 1.2-1.197 2.234-2.196 1.045-1.01 2.23-2.15 2.635-2.595.405-.44.87-1.29 1.277-2.035.354-.647.688-1.256 1.006-1.675 1.003-1.315 4.058-3.838 4.896-4.377l.08-.05c.763-.49 2.794-1.795 3.673-3.397.612-.97 1.194-3.48 1.37-4.365l.043-.138c.154-.347.465-1.392.047-2.032-.438-.67-1.24-1.368-2.105-1.832l-.115-.034c-.846-.245-1.803-.52-3.14-1.306-1.272-.75-2.556-2.896-3.323-4.18-.136-.226-.25-.417-.34-.557-.4-.627-.68-1.277-1.065-2.177-.185-.43-.394-.92-.654-1.49-.495-1.096-.372-2.098.304-2.436.19-.096.434-.143.743-.143.653 0 1.503.207 1.9.35 1.362.5 3.956 1.62 5.112 2.51.903.696 1.823 1.837 2.796 3.046 1.115 1.383 2.268 2.814 3.5 3.732.217.162.773.41.992.44.82.12 2.395-.002 3.867-.134 1.494-.135 3.063-.257 3.998-.137.03.004 2.678.35 3.713.998.873.55 2.3 1.77 3.557 2.85.638.55 1.243 1.07 1.685 1.42l.05.045c3.345 3.29 3.185 5.482 3.056 6.075-.043.218-.12.406-.22.56l.013.135c.19 1.768-3.91 3.897-6.072 4.497-.706.195-1.41.258-1.976.31-.397.036-.774.07-.978.138-2.015.672-3.27 2.573-3.563 3.39-.224.617-.847 2.57-.935 3.31-.095.775-.073 1.935-.048 3.16.032 1.71.065 3.477-.2 4.623-.73 3.137-2.975 5.965-3.07 6.084l-.027.034-1.975 2.146c.002.258 0 .53-.018.688-.232 2.18-.68 6.98-.715 8.738-.01.56.033 1.123.076 1.668.065.855.13 1.662-.013 2.42-.084.44-.682 1.424-1.045 1.63l-.135.08-.156.003c-1.284 0-3.474-2.046-4.09-3.28-.204-.404-.298-1.703-.288-1.916.008-.188.014-.48.02-.826-.08.18-.143.317-.18.392-.313.626-1.764 3.29-2.258 4.112-.437.73-5.116 6.56-7.814 7.992l-.04.02c-.15 1.196-.73 2.665-1.15 3.42-.312.565-.79 1.14-1.298 1.747-.59.71-1.2 1.443-1.565 2.18l-.045.074c-.11.162-.244.36.438.916 1.144.93 4.553 3.755 4.553 3.755.46.41 1.51 1.402 1.715 2.05l.023.1c.1.716-.064 2.1-.267 2.687l-.053.113c-.105.18-.702.92-1.332.88-.05.065-.108.126-.176.18-.14.112-.825.565-1.33.565zm-.734-1.352c.188.045.506.094.717.096.11-.023.388-.164.533-.266.055-.137.083-.508.1-.69.006-.1.013-.194.022-.276l.2-1.844.96 1.586c.013.018.02.033.03.053.08-.492.133-1.125.098-1.488-.123-.25-.718-.906-1.322-1.447 0 0-3.387-2.803-4.525-3.73-1.273-1.037-1.097-1.957-.706-2.56.432-.854 1.11-1.67 1.71-2.386.466-.564.908-1.093 1.163-1.554.414-.75 1.004-2.314 1.03-3.3l.005-.067c.1-.745-.64-3.26-1.036-4.608-.33-1.12-.4-1.38-.4-1.577v-.626l.633-.024c.448 0 .6 0 1.518 2.94.27.854.573 1.92.74 2.804 2.424-1.806 6.09-6.27 6.534-7.01.485-.808 1.907-3.417 2.21-4.028.404-.8 1.22-3.11 1.065-3.91-.05-.264-.69-1.168-1.37-1.938l.936-.838 1.77 1.95c.067.02.155.013.185-.007l1.83-1.35-.88 2.096c-.156.373-.49.617-.955.71-.002 1.134-.01 3.55-.04 4.33-.007.2.097 1.132.167 1.327.484.965 2.01 2.238 2.7 2.508.15-.21.33-.52.362-.644.11-.587.054-1.313-.007-2.083-.045-.574-.092-1.17-.078-1.79.032-1.796.485-6.647.72-8.85.02-.173.01-.75-.004-1.106l-.177-3.036 1.247-.12.24 1.814.995-1.083c.174-.225 2.176-2.828 2.814-5.568.23-.997.196-2.76.167-4.315-.024-1.27-.048-2.472.056-3.333.106-.923.81-3.064.997-3.587.443-1.234 1.967-3.36 4.35-4.154.342-.115.77-.153 1.262-.198.54-.05 1.153-.105 1.753-.27 2.004-.556 4.143-1.896 4.887-2.706-.722-.305-1.153-1.01-1.21-1.11l-1.723-2.963 2.66 2.16c.22.176.562.37.767.417.125-.456.04-2.255-2.676-4.94-.456-.365-1.058-.883-1.696-1.43-1.223-1.05-2.61-2.24-3.406-2.74-.574-.357-2.37-.707-3.203-.815-.804-.104-2.314.014-3.728.14-1.56.14-3.195.267-4.158.127-.463-.067-1.207-.412-1.563-.676-1.36-1.012-2.562-2.506-3.726-3.95-.926-1.15-1.8-2.235-2.586-2.84-.977-.75-3.43-1.83-4.78-2.325-.303-.11-1-.27-1.467-.27-.034 0-.064 0-.09.004-.01.147.023.433.19.8.265.58.478 1.077.665 1.516.363.845.626 1.455.97 1.997.094.148.215.35.355.587.613 1.024 1.89 3.155 2.885 3.742 1.197.703 2.037.944 2.85 1.18l.295.1c1.082.565 2.064 1.42 2.63 2.286.792 1.216.224 2.8.077 3.163-.1.49-.725 3.46-1.51 4.7-1.012 1.845-3.24 3.273-4.076 3.81l-.077.05c-.686.44-3.66 2.88-4.576 4.083-.263.342-.575.912-.905 1.515-.465.85-.945 1.726-1.446 2.276-.434.476-1.582 1.583-2.693 2.653-.933.898-1.897 1.828-2.172 2.133-.106.114-.28.306-.52.56-6.944 7.488-11.435 13.367-13.345 17.48-1.766 3.8-1.46 8.174-1.38 9.01.304 3.223 1.56 6.016 3.36 7.475.445.36 2.557 1.625 3.458 2.166l.3.18c.06.035.14.072.23.12.567.28 1.62.802 2.034 1.962.246.686.258 1.488.27 2.197.005.44.014.99.1 1.163.464.926 4.455 7.033 5.515 7.625.022-.004.036-.008.042-.01-.01-.01.03-.18-.096-.615l-.636-2.184 1.666 1.55c.5.463.5 1.04.5 1.387 0 .045 0 .096.003.14.165.097.59.243.882.292.016-.08.033-.18.05-.267.02-.124.044-.263.073-.415l.29-1.46.844 1.228c.29.42.284.87.282 1.166-.002.004-.002.012-.002.017zm18.35-77.204h-.003c-.73 0-1.383-.06-1.834-.168l-.363-.088-.097-.36c-.274-1.032-1.42-3.03-2.433-4.79-.615-1.07-1.195-2.08-1.572-2.852l-.027-.066c-.853-2.416-.855-6.602-.59-8.67.06-.43.45-1.112.88-1.347.33-.182.79-.196.92-.196.394 0 .696.09.907.27 1.477 1.256 3.434 3.64 4.016 5.296.33.943.552 2.37.77 3.75.196 1.262.4 2.568.667 3.36.942 2.77 1.745 3.89 2.253 4.34l.77.683-.96.372c-.89.343-2.29.466-3.302.466zm-1.206-1.327c.332.047.75.07 1.205.07.687 0 1.37-.054 1.935-.15-.648-.907-1.27-2.245-1.885-4.052-.306-.893-.507-2.193-.72-3.57-.21-1.322-.42-2.692-.717-3.526-.488-1.4-2.244-3.55-3.596-4.72-.027-.005-.074-.01-.14-.01-.155 0-.29.03-.327.046-.053.045-.21.303-.23.41-.255 1.957-.216 5.94.517 8.048.36.733.922 1.71 1.518 2.745.988 1.72 2.01 3.5 2.436 4.704zm2.12 53.353l-.294-.077c-1.228-.32-2.614-1.81-2.767-1.98l-.14-.15-.022-.206c-.363-3.424.236-8.53.947-11.83l.03-.145.095-.117c.774-.953 2.32-2.873 2.64-3.33l2.633-3.744-1.525 4.318c-.146.414-.313.938-.352 1.125.615 3.753.36 7.38.156 10.3-.113 1.656-.215 3.088-.152 4.27l.01.18-.088.16c-.317.566-.583.793-.925 1.05l-.243.182zm-1.993-2.753c.444.457 1.165 1.086 1.74 1.357.08-.078.153-.168.235-.3-.047-1.216.05-2.62.162-4.23.2-2.827.422-6.005-.045-9.374-.496.625-.98 1.22-1.18 1.47-.68 3.23-1.197 7.975-.91 11.077zM295.7 92.67c-.366 0-.722-.004-1.044-.008-.262-.004-.498-.006-.7-.006h-.19l-.108-.04c-1.014-.382-3.653-1.444-6.097-2.517-4.724-2.08-4.87-2.48-4.98-2.8-.175-.487.14-.97.44-1.433.086-.13.184-.28.22-.364l.05-.088c.186-.278.454-.62.74-.98.376-.48.8-1.02.983-1.36l.073-.135c.557-1.036 1.248-2.33 1.574-3.95l.06-.307.283-.135c1.82-.87 3.728-3.063 5.57-5.184.433-.496.864-.994 1.298-1.477l1.148-1.28-.05 1.718c-.105 3.435-.52 6.81-.76 7.624-.542 1.836-1.93 2.94-3.044 3.824-.666.53-1.242.988-1.504 1.47.236.038.634.038.85.038.3 0 .56 0 .767.037.486.087 1.254.173 2.064.265 1.77.2 2.97.35 3.498.574l.107.056c1.043.706 2.39 2.876 2.717 4.09l.02.13c.023.44-.1 1.084-.28 1.5l-.083.197-.19.102c-.544.3-1.57.43-3.427.43zm-1.706-1.27c.197 0 .428.004.678.006.316.004.668.01 1.03.01 1.536 0 2.276-.096 2.628-.2.057-.21.098-.466.1-.645-.285-.95-1.39-2.715-2.135-3.27-.47-.16-1.98-.332-3.094-.46-.83-.093-1.613-.18-2.14-.274-.1-.018-.34-.018-.55-.018-.75-.002-1.524-.002-1.922-.492-.32-.393-.207-1.05-.075-1.313.373-.75 1.1-1.327 1.873-1.94 1.078-.855 2.19-1.742 2.62-3.197.157-.535.466-2.844.628-5.533-.036.04-.073.08-.11.124-1.84 2.115-3.74 4.3-5.695 5.35-.386 1.664-1.103 3.002-1.635 3.994l-.07.136c-.234.438-.68 1-1.105 1.545-.257.325-.5.634-.66.866-.074.152-.177.31-.284.477-.062.092-.147.225-.21.336 1.244.863 7.527 3.517 10.134 4.503zm-24-10.658l-1.497-.477c-5.026-1.604-5.472-6.94-5.49-8.54l-.007-.838.807.23c1.19.335 2.262 1.065 2.873 1.952.307.445.64 1.68.732 2.045l.62 2.05 1.962 3.574zm-5.68-8.082c.158 1.662.77 4.13 2.88 5.59l-.346-.656-.646-2.14c-.174-.677-.436-1.495-.56-1.675-.245-.36-.7-.795-1.328-1.12zm35.368-51.544c-.688 0-1.633-.238-2.828-.714l.463-1.167c.865.345 1.838.598 2.334.625-.76-2.218-6.195-6.74-9.89-8.968l.647-1.075c2.654 1.6 10.408 7.263 10.586 10.382l.01.16-.067.143c-.196.407-.612.61-1.25.61zm13.11 2.964c0 .216-.015.862 0 1.04-.23.047-.757.21-.847.252-.18.083-.375.11-.627.11-.473 0-.895-.213-1.164-.542-.098-.117-.6-.617-.664-.684.066-.1.445-.738.605-.962.266-.373.715-.618 1.223-.618.817 0 1.475.627 1.475 1.403zM93.48 47.312c-1.718-.655-2.69-2.014-3.896-1.94-2.367.143-3.856 2.247-7.963 3.223-1.34.32-1.65.263-3.023 1.027-1.375.763-3.147 2.563-4.98 2.258-.363-2.083-.232-4.932-2.67-5.954-3.182-1.334-19.938-1.964-28.28-1.13-11.808 1.184-25.635 8.9-28.08 10.884-2.442 1.983-6.364 4.516-7.11 9.084-.304 1.863.438 4.825.71 5.287-2.63.36-7.616 4.317-8.074 4.62-.456.31 8.366-1.432 9.19-1.23.805 1.016 2.41 3.34 4.282 4.5-1.374.616-2.164 1.078-3.908 1.786-1.39.564-5.272 2.927-5.477 3.953-.334 1.664 1.234 2.423 1.692 3.796.46 1.375-.41 3.604-.256 4.67.153 1.07 1.045 2.327 2.104 2.466.662.086 2.054.153 2.824-.463.05.41.256.975.102 1.436 1.23-.203 1.49-1.52 1.72-2.095.692-.01.694 1.3.847 1.788 2.31-.77 1.86-1.98 1.95-2.567.67 0 .81.125 1.03.465.223.347.17 1.036.103 1.438 1.067-.318 1.81-1.62 2.053-2.827.254-1.282.394-2.802-.464-3.438-1.746-1.296 1.045-.876 2.578-1.202 1.502-.32 2.916-1.427 3.487-2.036.67-.715 1.45-1.765 1.83-2.29 10.656 1.4 25.87-.157 32.064-1.834 5.13-1.388 7.79-5.047 9.16-5.038 1 .005 1.77-.046 1.77-.046.305 1.527.98 5.694 1.744 6.457.762.764 3.663 1.83 4.58 1.68.916-.15 2.596 0 2.9-.765.304-.764 1.1-.027 1.707.736.572-.552.344-2.192-.573-2.805.295-.375.975-.198 1.35.325.704-.99-.182-2.17-.832-2.8.916-.055.796.182 1.193.56.178-.835-.053-2.08-1.63-2.493-1.217-.32-1.824.067-2.74-1.46-.915-1.526-1.373-4.122-2.748-5.344-1.375-1.222-2.443-1.068-1.526-2.137.916-1.07 3.205-2.673 4.885-3.092 1.68-.42 3.97-.116 6.413-.726 2.44-.613 3.356-1.987 5.036-3.208 1.68-1.222 5.802-3.666 6.87-6.87 1.067-3.21.345-5.78-1.943-6.65zm-20.808 7.99c-.763.122-5.497-.807-6.138-1.746-.64-.938.26-1.58.336-2.344.075-.764-1.617-1.52-.688-1.986 1.07-.534 5.728.61 6.49.917.763.305.763 5.038 0 5.16zm-8.795-9.926c.687.04 6.02.356 7.21 1.315 1.13.916 1.627 2.865 1.21 2.68-.28-.123-5.65-.89-6.164-.98-.433-.076-2.93-3.05-2.256-3.01zM23.222 54.74c-.142-.44-2.03-.598-1.65-1.29.38-.69 5.813-2.903 6.5-3.12.687-.217 4.61-.76 4.77.08.218 1.156-.28 8.063-.775 8.164-.648.13-4.208 4.242-4.972 4.297-.763.06-4.1-1.692-4.096-2.445.002-1.08.4-5.125.22-5.683zm-1.317 6.118c-.116 1.042-5.55 6.276-5.852 6.26-.3-.015-2.913-3.812-3.29-4.645-.413-.908.36-3.13.89-3.676.348-.357 5.287-2.97 6.205-3.254 2.293-.712 2.714-.665 2.047 5.315zm6.342 3.3c.004-.83 3.82-4.55 4.88-4.55.766 0 4.74 1.566 5.293 2.662.374.74.833 8.938.356 9.167-4.047 1.942-5.28 1.662-9.848.3-.65-.194-.688-6.14-.68-7.58zm9.96-3.876c-.494.14-3.835-1.607-4.206-1.708-.37-.1-.87-6.14-.064-7.668.808-1.527.852-1.357-.148-1.973-.96-.59 2.36-1.317 3.13-1.55 1.48-.45 4.99.164 5.83.393.84.23.324.015.324 1.083s-.51 7.15-.69 8.035c-.138.67-3.68 3.245-4.17 3.384zm4.913-2.09c.918.004 5.372 1.417 5.732 2.09.354.658 1.938 9.16 1.64 9.24-4.522 1.24-6.41 1.513-9.587 1.053-.943-.138-1.252-7.71-1.286-9.16-.02-.782 2.25-3.23 3.5-3.223zm.823-9.105c-.075-.286.706-1.302.92-1.47 1.428-1.117 4.13-1.582 6.537-.476 1.265.586 3.224-.63 1.494 1.327-.684.774.487 6.962.152 7.336-.93 1.04-3.332 2.787-3.81 2.775-1.038-.025-5.6-.955-5.754-1.676-.15-.72.538-7.524.46-7.81zm5.98 10.828c-.022-.572 3.094-2.883 3.795-2.75.993.186 7.905 2.036 7.728 3.118-.738 4.48-3.323 8.175-9.335 8.79-.93.096-2.143-8.01-2.184-9.158zm4.492-3.548c-.458-.708-1.31-7.03-.575-7.64.647-.534 1.273-1.332 2.19-1.56.915-.23 6.183 1.22 7.632 1.296 1.18.062 1.123.405 2.102 2.258.677 1.288-3.628 7.82-4.318 7.72-.695-.1-6.575-1.363-7.03-2.07zm2.462-11.295c.61-.215 4.17.115 5.45.454.67.177 2.415 2.23 1.88 2.322-.446.08-4.22-.828-4.98-.98-.76-.15-2.71-1.668-2.35-1.796zm-7.882-.068c.625-.11 4.937-.263 6.69 0 .582.086 1.49 1.2 1.147 1.425-.368.24-4.13.4-4.74.114-.612-.285-3.602-1.455-3.097-1.543zm-10.788 1.17c.443-.282 5.002-1.033 8.084-1.17 1.758-.078 2.837.613 2.65.774-.296.256-3.51.294-5.132.92-.947.366-6.3-.08-5.598-.524zm-5.69 1.444c.305-.312 4.374-1.35 4.623-1.335.25.013.998.516.768.505-1.465-.07-4.845 1.368-5.06 1.313-.205-.05-.657-.15-.332-.48zm-9.738 3.894c.284-.484 8.22-3.525 8.75-3.525.24 0 1.877 1.46 1.583 1.43-4.622-.47-7.438 1.372-8.246 1.695-1.863.744-2.38.883-2.09.4zm-6.45 3.72c.203-.38 4.185-2.746 5.61-3.095 1.05-.257-1.89.404-.877 2.348.193.37-1.7.257-4.248 1.93-.393.26-.62-.936-.486-1.183zm-3.494 2.545c.498-.51 2.75-2.378 2.778-2.29.17.543.205.386.27 1.143.02.25-2.45 1.768-2.62 1.776-.145.01-.67-.38-.43-.63zm-1.92 1.832c1.757-1.548 1.025-1.405 1.726-.606.128.146-.516 1.892-.865 2.32-.258.313-1.07-.153-2.74 1.013-.295.205.945-1.91 1.88-2.73zm-2.303 9.445c-.552-.62-.813-4.03-.482-4.9.346-.9 2.573-2.35 3.31-1.978.46.227 2.09 3.69 1.987 4.147-.1.457-4.606 2.962-4.814 2.73zm3.518 6.67C9.373 73.965 9.038 71 9.038 70.32c0-.747 4.15-2.894 5.167-2.97.488-.035 1.61 1.408 1.38 2.17-.23.765-3.112 6.424-3.452 6.208zm1.006.785c-.286-1 3.323-6.766 4.06-6.766 1.145.002 3.818 1.23 3.866 2.452.028.723-1.523 6.572-2.578 7.725-.46.505-5.06-2.4-5.348-3.41zm13.726 5.8c-.25.56-6.577-.393-6.955-1.44-.404-1.12 1.66-7.95 2.3-8.114 1.024-.264 5.096.108 5.17.473.34 1.704 0 7.93-.515 9.08zm.306-10.8c-3.668 1.153-8.817-1.894-9.58-4-.256-.71 4.26-5.038 5.264-5.038 1.937 0 4.038 1.302 4.163 1.686.353 1.082.937 7.105.152 7.352zm7.18 10.525c-.754.525-5.09.773-5.98.396-.724-.303.073-6.542.197-7.77.128-1.28 1.41-1.22 2.025-1.26 1.304-.083 2.574-.02 3.13 1.26.368.85 1.697 6.63.628 7.376zm7.75-1.796c-.15.61-4.557 1.88-5.385 1.442-.734-.385-1.988-6.73-1.988-7.545 0-.817 4.273-1.443 4.854-1.148.613.312 2.67 6.637 2.52 7.247zm5.846-1.566c-.93.83-3.81 1.427-4.42 1.197-.61-.23-2.77-7.21-2.388-7.82.382-.61 3.66-.63 4.23-.314.685.38 3.18 6.4 2.576 6.938zm6.146-1.492c-.735.435-3.864 1.37-4.627 1.216-.765-.15-3.022-6.278-2.45-6.963.593-.708 3.874-.82 4.427-.523.35.187 2.91 6.114 2.65 6.27zm6.59-1.925c-.513.55-4.393 1.696-5.232 1.392-.84-.31-2.677-5.568-2.372-6.33.308-.765 3.34-1.114 3.867-1.023 1.267.223 4.03 5.647 3.74 5.96zm1.854-.765c-.918 0-3.914-4.963-3.914-5.793 0-.83 1.513-3.056 2.826-3.056.713 0 5.902 3.953 5.922 4.673.018.668-3.59 4.177-4.835 4.176zm9.61-11.057c-.306.915-3.105 6.306-3.868 6.075-.765-.23-4.88-3.81-5.96-4.56-.423-.295.054-4.646.904-4.876.7-.188 9.228 2.446 8.922 3.36zm.14-1.694c-.765-.15-8.016-2.52-8.856-2.976-.84-.46 1.087-2.506 1.986-3.458.63-.666 6.945.63 7.634 1.32.686.686 0 5.266-.764 5.113zM88 57.008c-3.202 0-4.247-2.434-3.883-2.468.705-.067.93-.044 1.326-.09.4-.043.63 1.764 2.433 1.638 1.705-.12 2.15-1.275 2.344-2.123.057-.243 1.24-.09 1.947-.178.308.524-1.54 3.22-4.167 3.22zm4.2-3.92c-.747.042-1.314.08-1.845.125-.53.044-.978-.96-2.453-.875-1.878.107-2.15 1.45-2.402 1.45-.42 0-.866.137-1.423.133-.445-.003.49-3.33 4.05-3.705 3.1-.328 4.525 2.847 4.074 2.872z" fill="#000"/></g></svg>