<?xml version="1.0" encoding="UTF-8" standalone="no"?>
<svg width="331px" height="162px" viewBox="0 0 331 162" version="1.1" xmlns="http://www.w3.org/2000/svg" xmlns:xlink="http://www.w3.org/1999/xlink" xmlns:sketch="http://www.bohemiancoding.com/sketch/ns">
    <!-- Generator: Sketch 3.2.2 (9983) - http://www.bohemiancoding.com/sketch -->
    <title>Slice 1</title>
    <desc>Created with Sketch.</desc>
    <defs></defs>
    <g id="array-speed" stroke="none" stroke-width="1" fill="none" fill-rule="evenodd" sketch:type="MSPage">
        <rect id="Rectangle-1" stroke="#9B9B9B" sketch:type="MSShapeGroup" x="107" y="108" width="37" height="54"></rect>
        <rect id="Rectangle-2" stroke="#9B9B9B" sketch:type="MSShapeGroup" x="143" y="108" width="37" height="54"></rect>
        <text id="0" sketch:type="MSTextLayer" font-family="Consolas" font-size="14" font-weight="normal" fill="#000000">
            <tspan x="122" y="139">0</tspan>
        </text>
        <text id="1" sketch:type="MSTextLayer" font-family="Consolas" font-size="14" font-weight="normal" fill="#000000">
            <tspan x="159" y="139">1</tspan>
        </text>
        <rect id="Rectangle-3" stroke="#9B9B9B" sketch:type="MSShapeGroup" x="179" y="108" width="37" height="54"></rect>
        <text id="2" sketch:type="MSTextLayer" font-family="Consolas" font-size="14" font-weight="normal" fill="#000000">
            <tspan x="195" y="139">2</tspan>
        </text>
        <rect id="Rectangle-4" stroke="#9B9B9B" sketch:type="MSShapeGroup" x="215" y="108" width="37" height="54"></rect>
        <text id="3" sketch:type="MSTextLayer" font-family="Consolas" font-size="14" font-weight="normal" fill="#000000">
            <tspan x="231" y="139">3</tspan>
        </text>
        <path d="M320,132 L324.5,125.80787 L321.5,125.80787 L321.5,110 L318.5,110 L318.5,125.80787 L315.5,125.80787 L320,132 Z" id="Shape" fill="#979797" sketch:type="MSShapeGroup" transform="translate(320.000000, 121.000000) rotate(-90.000000) translate(-320.000000, -121.000000) "></path>
        <rect id="Rectangle-5" stroke="#979797" sketch:type="MSShapeGroup" x="262" y="112" width="48" height="19"></rect>
        <text id="pop" sketch:type="MSTextLayer" font-family="Consolas" font-size="14" font-weight="normal" fill="#000000">
            <tspan x="270" y="125">pop</tspan>
        </text>
        <path d="M90,132 L94.5,125.80787 L91.5,125.80787 L91.5,110 L88.5,110 L88.5,125.80787 L85.5,125.80787 L90,132 Z" id="Shape-2" fill="#979797" sketch:type="MSShapeGroup" transform="translate(90.000000, 121.000000) rotate(-90.000000) translate(-90.000000, -121.000000) "></path>
        <rect id="Rectangle-6" stroke="#979797" sketch:type="MSShapeGroup" x="17" y="112" width="63" height="19"></rect>
        <text id="unshift" sketch:type="MSTextLayer" font-family="Consolas" font-size="14" font-weight="normal" fill="#000000">
            <tspan x="21" y="126">unshift</tspan>
        </text>
        <path d="M320,157 L324.5,150.80787 L321.5,150.80787 L321.5,135 L318.5,135 L318.5,150.80787 L315.5,150.80787 L320,157 Z" id="Shape-3" fill="#979797" sketch:type="MSShapeGroup" transform="translate(320.000000, 146.000000) scale(-1, 1) rotate(-90.000000) translate(-320.000000, -146.000000) "></path>
        <rect id="Rectangle-7" stroke="#979797" sketch:type="MSShapeGroup" transform="translate(286.000000, 146.500000) scale(-1, 1) translate(-286.000000, -146.500000) " x="262" y="137" width="48" height="19"></rect>
        <text id="push" sketch:type="MSTextLayer" font-family="Consolas" font-size="14" font-weight="normal" fill="#000000">
            <tspan x="269" y="150">push</tspan>
        </text>
        <path d="M89,157 L93.5,150.80787 L90.5,150.80787 L90.5,135 L87.5,135 L87.5,150.80787 L84.5,150.80787 L89,157 Z" id="Shape-4" fill="#979797" sketch:type="MSShapeGroup" transform="translate(89.000000, 146.000000) scale(-1, 1) rotate(-90.000000) translate(-89.000000, -146.000000) "></path>
        <rect id="Rectangle-8" stroke="#979797" sketch:type="MSShapeGroup" transform="translate(47.500000, 146.500000) scale(-1, 1) translate(-47.500000, -146.500000) " x="16" y="137" width="63" height="19"></rect>
        <text id="shift" sketch:type="MSTextLayer" font-family="Consolas" font-size="14" font-weight="normal" fill="#000000">
            <tspan x="26" y="151">shift</tspan>
        </text>
        <g id="noun_26675_cc" sketch:type="MSLayerGroup" transform="translate(263.000000, 0.000000)" fill="#000000">
            <g id="Group" sketch:type="MSShapeGroup">
                <path d="M24.195,98 C24.185,98 23.03,97.988 22.53,97.57 C22.529,97.57 22.527,97.568 22.525,97.566 C22.475,97.587 22.421,97.607 22.363,97.621 C22.28,97.641 22.191,97.652 22.09,97.652 C21.643,97.652 20.586,97.382 20.117,96.955 C19.949,97.029 19.739,97.08 19.478,97.084 L19.415,97.086 L19.353,97.074 C17.666,96.761 12.959,88.836 12.92,88.758 C12.705,88.328 12.696,87.735 12.686,87.049 C12.678,86.44 12.666,85.746 12.493,85.256 C12.249,84.572 11.548,84.225 11.085,83.996 C10.956,83.932 10.847,83.877 10.766,83.828 L10.467,83.648 C8.863,82.687 7.315,81.748 6.863,81.382 C4.805,79.716 3.378,76.603 3.042,73.054 C2.958,72.158 2.632,67.486 4.534,63.394 C6.501,59.164 11.063,53.173 18.098,45.591 C18.328,45.342 18.5,45.156 18.602,45.043 C18.906,44.706 19.801,43.846 20.836,42.847 C21.881,41.84 23.066,40.7 23.471,40.254 C23.872,39.813 24.336,38.965 24.744,38.219 C25.098,37.573 25.432,36.964 25.75,36.545 C26.752,35.23 29.807,32.707 30.645,32.168 L30.725,32.117 C31.489,31.627 33.52,30.324 34.399,28.722 C35.012,27.752 35.594,25.243 35.77,24.355 L35.813,24.217 C35.967,23.87 36.278,22.825 35.86,22.185 C35.422,21.515 34.62,20.817 33.755,20.353 L33.64,20.319 C32.794,20.076 31.837,19.8 30.501,19.015 C29.228,18.265 27.944,16.119 27.177,14.835 C27.042,14.609 26.928,14.418 26.839,14.278 C26.439,13.651 26.161,13.001 25.775,12.101 C25.59,11.669 25.381,11.18 25.121,10.611 C24.623,9.514 24.746,8.512 25.422,8.174 C25.611,8.078 25.856,8.031 26.165,8.031 C26.818,8.031 27.668,8.235 28.064,8.379 C29.427,8.878 32.021,10 33.177,10.889 C34.081,11.584 35.001,12.725 35.974,13.934 C37.089,15.317 38.242,16.748 39.474,17.666 C39.691,17.828 40.247,18.075 40.466,18.106 C41.286,18.225 42.861,18.104 44.333,17.972 C45.827,17.837 47.396,17.715 48.331,17.835 C48.358,17.839 51.007,18.186 52.042,18.833 C52.915,19.382 54.341,20.604 55.599,21.683 C56.238,22.234 56.843,22.752 57.285,23.104 L57.336,23.148 C60.68,26.439 60.52,28.631 60.391,29.224 C60.346,29.442 60.27,29.63 60.168,29.784 L60.182,29.919 C60.373,31.687 56.272,33.816 54.11,34.416 C53.403,34.611 52.7,34.674 52.133,34.725 C51.737,34.762 51.36,34.795 51.156,34.864 C49.14,35.536 47.885,37.437 47.592,38.253 C47.369,38.871 46.746,40.823 46.658,41.565 C46.564,42.339 46.586,43.499 46.611,44.724 C46.642,46.434 46.675,48.201 46.41,49.347 C45.68,52.484 43.435,55.312 43.34,55.431 L43.313,55.464 L41.338,57.61 C41.34,57.868 41.338,58.139 41.32,58.298 C41.088,60.478 40.64,65.278 40.605,67.036 C40.595,67.597 40.638,68.159 40.681,68.704 C40.745,69.559 40.81,70.366 40.667,71.124 C40.583,71.565 39.985,72.548 39.622,72.755 L39.487,72.833 L39.331,72.837 L39.33,72.837 C38.047,72.839 35.857,70.794 35.24,69.56 C35.037,69.156 34.943,67.857 34.953,67.644 C34.961,67.456 34.967,67.165 34.973,66.818 C34.893,67 34.83,67.136 34.793,67.211 C34.48,67.836 33.029,70.5 32.535,71.322 C32.099,72.051 27.42,77.883 24.722,79.314 L24.683,79.335 C24.531,80.53 23.951,81.999 23.533,82.755 C23.22,83.319 22.742,83.894 22.234,84.501 C21.644,85.21 21.033,85.942 20.669,86.679 L20.625,86.753 C20.516,86.915 20.381,87.114 21.063,87.669 C22.207,88.601 25.616,91.425 25.616,91.425 C26.076,91.835 27.126,92.827 27.331,93.474 L27.353,93.576 C27.454,94.291 27.288,95.674 27.085,96.262 L27.033,96.375 C26.928,96.555 26.331,97.295 25.701,97.254 C25.65,97.32 25.592,97.381 25.524,97.436 C25.383,97.547 24.701,98 24.195,98 L24.195,98 Z M23.461,96.648 C23.645,96.693 23.963,96.742 24.174,96.744 C24.285,96.721 24.562,96.58 24.707,96.478 C24.763,96.341 24.791,95.97 24.807,95.787 C24.814,95.687 24.821,95.594 24.83,95.512 L25.028,93.668 L25.99,95.254 C26.002,95.272 26.011,95.287 26.021,95.307 C26.101,94.815 26.152,94.182 26.117,93.819 C25.994,93.569 25.399,92.917 24.795,92.376 L24.795,92.376 C24.795,92.376 21.408,89.573 20.27,88.646 C18.996,87.609 19.172,86.689 19.563,86.087 C19.995,85.232 20.672,84.417 21.272,83.7 C21.739,83.137 22.181,82.608 22.436,82.147 C22.85,81.397 23.44,79.833 23.465,78.846 L23.471,78.78 C23.571,78.036 22.83,75.522 22.434,74.173 C22.104,73.054 22.034,72.794 22.034,72.597 L22.034,71.97 L22.669,71.947 C23.117,71.947 23.268,71.947 24.187,74.886 C24.455,75.741 24.759,76.806 24.927,77.691 C27.35,75.884 31.015,71.421 31.46,70.679 C31.944,69.872 33.366,67.263 33.671,66.652 C34.073,65.851 34.89,63.543 34.734,62.742 C34.683,62.478 34.043,61.574 33.365,60.804 L34.301,59.966 L36.069,61.917 C36.137,61.935 36.225,61.929 36.255,61.909 L38.085,60.561 L37.204,62.657 C37.048,63.03 36.716,63.274 36.249,63.368 C36.247,64.501 36.241,66.917 36.21,67.696 C36.202,67.895 36.306,68.829 36.376,69.024 C36.86,69.989 38.386,71.262 39.077,71.532 C39.225,71.323 39.405,71.011 39.438,70.887 C39.547,70.299 39.493,69.573 39.432,68.803 C39.387,68.229 39.34,67.633 39.354,67.012 C39.387,65.217 39.84,60.366 40.075,58.164 C40.093,57.99 40.085,57.412 40.071,57.057 L39.893,54.02 L41.141,53.901 L41.379,55.715 L42.375,54.633 C42.549,54.408 44.551,51.805 45.189,49.065 C45.421,48.069 45.386,46.307 45.357,44.751 C45.334,43.48 45.31,42.278 45.414,41.417 C45.521,40.495 46.223,38.354 46.412,37.831 C46.855,36.595 48.379,34.47 50.762,33.675 C51.104,33.561 51.532,33.523 52.024,33.478 C52.565,33.43 53.178,33.374 53.778,33.209 C55.782,32.653 57.921,31.313 58.665,30.503 C57.942,30.199 57.511,29.492 57.454,29.393 L55.731,26.431 L58.391,28.589 C58.61,28.766 58.952,28.96 59.157,29.007 C59.282,28.552 59.198,26.753 56.481,24.069 C56.024,23.704 55.422,23.186 54.784,22.639 C53.561,21.59 52.173,20.399 51.378,19.901 C50.804,19.542 49.009,19.192 48.175,19.084 C47.372,18.981 45.862,19.099 44.448,19.226 C42.889,19.367 41.253,19.492 40.29,19.352 C39.827,19.285 39.083,18.94 38.727,18.676 C37.368,17.663 36.164,16.169 35,14.725 C34.074,13.576 33.201,12.49 32.414,11.886 C31.437,11.134 28.984,10.054 27.635,9.56 C27.331,9.449 26.634,9.289 26.167,9.289 C26.132,9.289 26.102,9.29 26.077,9.292 C26.066,9.439 26.099,9.725 26.266,10.091 C26.531,10.671 26.744,11.169 26.931,11.608 C27.293,12.454 27.556,13.064 27.9,13.606 C27.994,13.753 28.115,13.955 28.255,14.192 C28.868,15.216 30.144,17.347 31.14,17.934 C32.337,18.638 33.177,18.879 33.99,19.114 L34.285,19.213 C35.367,19.78 36.349,20.635 36.914,21.501 C37.707,22.716 37.139,24.301 36.992,24.663 C36.892,25.152 36.267,28.122 35.482,29.362 C34.47,31.209 32.242,32.637 31.406,33.175 L31.328,33.226 C30.644,33.664 27.67,36.103 26.754,37.307 C26.492,37.65 26.18,38.22 25.85,38.823 C25.386,39.672 24.906,40.549 24.405,41.099 C23.971,41.576 22.823,42.683 21.712,43.753 C20.778,44.651 19.814,45.581 19.539,45.886 C19.435,45.999 19.259,46.191 19.022,46.445 C12.077,53.933 7.586,59.812 5.676,63.925 C3.91,67.724 4.217,72.099 4.295,72.937 C4.6,76.158 5.856,78.951 7.656,80.41 C8.101,80.769 10.213,82.033 11.114,82.574 L11.415,82.754 C11.473,82.789 11.553,82.826 11.645,82.873 C12.21,83.154 13.263,83.676 13.677,84.836 C13.922,85.522 13.934,86.324 13.945,87.033 C13.951,87.474 13.96,88.023 14.047,88.197 C14.51,89.123 18.501,95.23 19.561,95.822 C19.582,95.818 19.596,95.814 19.602,95.812 C19.592,95.802 19.633,95.632 19.506,95.197 L18.869,93.013 L20.535,94.562 C21.035,95.027 21.035,95.605 21.037,95.951 C21.037,95.994 21.037,96.045 21.039,96.088 C21.207,96.186 21.631,96.332 21.924,96.381 C21.94,96.299 21.957,96.201 21.973,96.113 C21.994,95.988 22.018,95.849 22.047,95.697 L22.338,94.236 L23.181,95.465 C23.469,95.885 23.465,96.334 23.463,96.631 C23.461,96.635 23.461,96.643 23.461,96.648 L23.461,96.648 Z" id="Shape"></path>
                <path d="M41.807,19.444 C41.805,19.444 41.807,19.444 41.805,19.444 C41.075,19.444 40.422,19.384 39.971,19.276 L39.606,19.188 L39.51,18.827 C39.235,17.796 38.088,15.799 37.076,14.038 C36.461,12.969 35.881,11.959 35.504,11.186 L35.477,11.12 C34.622,8.704 34.62,4.518 34.887,2.451 C34.944,2.02 35.338,1.338 35.766,1.103 C36.098,0.921 36.555,0.907 36.686,0.907 C37.079,0.907 37.381,0.997 37.592,1.176 C39.069,2.433 41.026,4.816 41.608,6.473 C41.94,7.416 42.161,8.844 42.378,10.223 C42.575,11.485 42.778,12.791 43.046,13.582 C43.989,16.353 44.792,17.472 45.3,17.922 L46.07,18.606 L45.111,18.978 C44.219,19.321 42.818,19.444 41.807,19.444 L41.807,19.444 Z M40.602,18.117 C40.934,18.164 41.352,18.188 41.807,18.188 C42.495,18.188 43.178,18.133 43.743,18.037 C43.095,17.13 42.472,15.792 41.858,13.985 C41.553,13.092 41.352,11.792 41.137,10.416 C40.93,9.093 40.717,7.723 40.422,6.889 C39.934,5.491 38.178,3.339 36.826,2.173 C36.799,2.168 36.752,2.163 36.685,2.163 C36.531,2.163 36.396,2.192 36.359,2.209 C36.308,2.255 36.152,2.513 36.13,2.621 C35.876,4.577 35.915,8.561 36.648,10.668 C37.007,11.401 37.57,12.378 38.166,13.413 C39.154,15.134 40.176,16.911 40.602,18.117 L40.602,18.117 Z" id="Shape"></path>
                <path d="M42.723,71.471 L42.428,71.393 C41.201,71.073 39.815,69.582 39.662,69.414 L39.523,69.262 L39.5,69.057 C39.135,65.633 39.734,60.526 40.445,57.227 L40.476,57.082 L40.57,56.965 C41.343,56.012 42.89,54.092 43.211,53.635 L45.842,49.891 L44.317,54.205 C44.171,54.619 44.004,55.143 43.965,55.33 C44.58,59.082 44.324,62.711 44.121,65.631 C44.006,67.285 43.904,68.717 43.967,69.901 L43.977,70.081 L43.889,70.239 C43.573,70.805 43.307,71.032 42.965,71.288 L42.723,71.471 L42.723,71.471 Z M40.729,68.717 C41.174,69.174 41.895,69.803 42.469,70.074 C42.551,69.996 42.623,69.906 42.705,69.775 C42.658,68.558 42.756,67.154 42.867,65.543 C43.066,62.717 43.289,59.539 42.822,56.17 C42.324,56.795 41.842,57.391 41.64,57.639 C40.959,60.869 40.443,65.615 40.729,68.717 L40.729,68.717 Z" id="Shape"></path>
                <path d="M32.701,92.67 C32.334,92.67 31.978,92.666 31.656,92.662 C31.394,92.658 31.158,92.656 30.955,92.656 L30.767,92.656 L30.658,92.615 C29.644,92.234 27.005,91.172 24.561,90.099 C19.833,88.021 19.691,87.624 19.576,87.304 C19.402,86.816 19.715,86.335 20.017,85.87 C20.103,85.739 20.201,85.591 20.238,85.507 L20.287,85.419 C20.474,85.142 20.742,84.8 21.027,84.439 C21.404,83.96 21.829,83.419 22.011,83.08 L22.083,82.945 C22.64,81.908 23.331,80.615 23.657,78.996 L23.72,78.687 L24.002,78.552 C25.823,77.681 27.73,75.489 29.573,73.368 C30.005,72.872 30.436,72.374 30.87,71.891 L32.016,70.612 L31.965,72.329 C31.861,75.765 31.445,79.14 31.205,79.954 C30.664,81.792 29.277,82.895 28.162,83.78 C27.496,84.309 26.92,84.768 26.658,85.249 C26.895,85.288 27.293,85.288 27.508,85.288 C27.809,85.288 28.067,85.288 28.276,85.325 C28.762,85.413 29.53,85.499 30.34,85.591 C32.111,85.792 33.311,85.941 33.836,86.165 L33.943,86.222 C34.986,86.927 36.332,89.097 36.66,90.312 L36.681,90.443 C36.702,90.882 36.581,91.525 36.4,91.941 L36.316,92.138 L36.128,92.24 C35.584,92.541 34.557,92.67 32.701,92.67 L32.701,92.67 Z M30.994,91.4 C31.191,91.4 31.422,91.404 31.672,91.406 C31.988,91.41 32.34,91.416 32.701,91.416 C34.238,91.416 34.978,91.32 35.33,91.217 C35.387,91.006 35.428,90.75 35.43,90.571 C35.145,89.62 34.041,87.852 33.295,87.301 C32.824,87.137 31.315,86.965 30.201,86.84 C29.369,86.744 28.584,86.656 28.058,86.563 C27.956,86.545 27.718,86.545 27.507,86.545 C26.758,86.543 25.983,86.543 25.585,86.053 C25.265,85.66 25.378,85.004 25.51,84.74 C25.882,83.99 26.611,83.412 27.382,82.799 C28.46,81.944 29.573,81.057 30.003,79.602 C30.159,79.067 30.468,76.758 30.63,74.069 C30.593,74.11 30.556,74.151 30.521,74.194 C28.681,76.309 26.781,78.495 24.824,79.544 C24.439,81.208 23.722,82.546 23.19,83.538 L23.119,83.673 C22.885,84.111 22.441,84.673 22.014,85.218 C21.758,85.542 21.516,85.851 21.356,86.083 C21.281,86.235 21.178,86.392 21.071,86.56 C21.008,86.652 20.923,86.785 20.86,86.896 C22.104,87.76 28.387,90.414 30.994,91.4 L30.994,91.4 Z" id="Shape"></path>
                <path d="M6.994,80.742 L5.497,80.265 C0.471,78.661 0.025,73.324 0.008,71.724 L0,70.887 L0.807,71.116 C1.996,71.452 3.069,72.182 3.68,73.069 C3.987,73.518 4.319,74.749 4.412,75.118 L5.031,77.169 L6.994,80.742 L6.994,80.742 Z M1.314,72.66 C1.472,74.322 2.084,76.791 4.193,78.25 L3.848,77.594 L3.202,75.453 C3.028,74.777 2.766,73.959 2.643,73.779 C2.397,73.42 1.943,72.988 1.314,72.66 L1.314,72.66 Z" id="Shape"></path>
                <path d="M36.682,21.116 C35.994,21.116 35.049,20.878 33.854,20.402 L34.317,19.235 C35.182,19.58 36.155,19.833 36.651,19.86 C35.891,17.642 30.452,13.12 26.757,10.892 L27.404,9.817 C30.058,11.417 37.812,17.08 37.99,20.199 L38,20.36 L37.932,20.506 C37.736,20.913 37.32,21.116 36.682,21.116 L36.682,21.116 Z" id="Shape"></path>
                <path d="M49.793,24.079 C49.793,24.296 49.777,24.942 49.793,25.12 C49.563,25.167 49.035,25.329 48.945,25.372 C48.765,25.455 48.57,25.481 48.318,25.481 C47.845,25.481 47.423,25.269 47.154,24.94 C47.056,24.823 46.554,24.323 46.49,24.256 C46.556,24.156 46.935,23.518 47.095,23.294 C47.361,22.921 47.81,22.676 48.318,22.676 C49.135,22.676 49.793,23.303 49.793,24.079 L49.793,24.079 Z" id="Shape"></path>
            </g>
        </g>
        <g id="noun_27985_cc" sketch:type="MSLayerGroup" transform="translate(0.000000, 44.000000)" fill="#000000">
            <path d="M93.479,3.312 C91.762,2.657 90.791,1.298 89.584,1.372 C87.217,1.515 85.728,3.619 81.621,4.595 C80.276,4.915 79.969,4.858 78.594,5.622 C77.219,6.385 75.447,8.185 73.615,7.88 C73.251,5.797 73.382,2.948 70.945,1.926 C67.762,0.592 51.006,-0.038 42.663,0.797 C30.858,1.978 17.03,9.694 14.587,11.679 C12.144,13.663 8.222,16.196 7.477,20.764 C7.172,22.627 7.914,25.589 8.185,26.051 C5.554,26.41 0.57,30.364 0.112,30.671 C-0.345,30.977 8.477,29.235 9.3,29.439 C10.106,30.453 11.712,32.776 13.583,33.941 C12.209,34.553 11.419,35.015 9.675,35.723 C8.285,36.287 4.403,38.65 4.198,39.676 C3.865,41.341 5.433,42.1 5.891,43.473 C6.349,44.848 5.481,47.077 5.634,48.144 C5.787,49.213 6.679,50.47 7.738,50.609 C8.4,50.695 9.792,50.762 10.562,50.146 C10.613,50.557 10.818,51.122 10.664,51.583 C11.895,51.38 12.153,50.063 12.384,49.488 C13.076,49.479 13.078,50.789 13.231,51.276 C15.54,50.505 15.09,49.297 15.181,48.709 C15.849,48.709 15.988,48.835 16.208,49.175 C16.432,49.522 16.378,50.211 16.312,50.613 C17.379,50.295 18.122,48.993 18.365,47.786 C18.621,46.504 18.761,44.984 17.903,44.348 C16.157,43.052 18.948,43.472 20.481,43.146 C21.982,42.825 23.396,41.719 23.967,41.11 C24.637,40.397 25.418,39.347 25.799,38.82 C36.454,40.22 51.667,38.665 57.862,36.988 C62.991,35.6 65.651,31.941 67.023,31.95 C68.021,31.956 68.792,31.905 68.792,31.905 C69.097,33.432 69.773,37.599 70.536,38.362 C71.299,39.127 74.2,40.194 75.117,40.042 C76.033,39.89 77.713,40.042 78.017,39.278 C78.321,38.514 79.115,39.251 79.724,40.014 C80.296,39.461 80.068,37.821 79.151,37.208 C79.445,36.833 80.125,37.01 80.5,37.533 C81.204,36.542 80.318,35.363 79.668,34.731 C80.584,34.676 80.464,34.913 80.861,35.292 C81.038,34.456 80.807,33.213 79.231,32.798 C78.013,32.478 77.406,32.865 76.489,31.339 C75.575,29.812 75.117,27.216 73.742,25.994 C72.367,24.772 71.299,24.926 72.216,23.857 C73.133,22.788 75.422,21.184 77.102,20.765 C78.782,20.344 81.071,20.649 83.515,20.039 C85.957,19.428 86.872,18.054 88.552,16.833 C90.232,15.611 94.354,13.167 95.423,9.962 C96.489,6.753 95.767,4.184 93.479,3.312 L93.479,3.312 Z M72.672,11.303 C71.909,11.424 67.175,10.495 66.534,9.556 C65.895,8.618 66.793,7.975 66.87,7.212 C66.945,6.448 65.253,5.691 66.182,5.226 C67.252,4.692 71.91,5.836 72.672,6.143 C73.435,6.448 73.435,11.181 72.672,11.303 L72.672,11.303 Z M63.877,1.376 C64.564,1.416 69.896,1.732 71.086,2.691 C72.218,3.603 72.714,5.552 72.297,5.368 C72.016,5.244 66.647,4.477 66.133,4.387 C65.7,4.311 63.202,1.337 63.877,1.376 L63.877,1.376 Z M23.222,10.739 C23.08,10.301 21.191,10.142 21.572,9.45 C21.953,8.759 27.385,6.547 28.072,6.33 C28.759,6.113 32.682,5.57 32.841,6.411 C33.06,7.566 32.562,14.473 32.067,14.574 C31.419,14.705 27.859,18.816 27.095,18.871 C26.332,18.93 22.995,17.175 22.999,16.422 C23.005,15.343 23.403,11.297 23.222,10.739 L23.222,10.739 Z M21.905,16.858 C21.789,17.9 16.355,23.134 16.053,23.119 C15.753,23.103 13.14,19.306 12.762,18.473 C12.35,17.565 13.122,15.343 13.654,14.797 C14.001,14.44 18.94,11.827 19.858,11.543 C22.151,10.831 22.572,10.878 21.905,16.858 L21.905,16.858 Z M28.247,20.158 C28.251,19.329 32.067,15.609 33.127,15.609 C33.893,15.609 37.868,17.174 38.42,18.27 C38.794,19.011 39.253,27.208 38.776,27.437 C34.729,29.379 33.495,29.099 28.928,27.737 C28.278,27.543 28.24,21.596 28.247,20.158 L28.247,20.158 Z M38.207,16.282 C37.713,16.422 34.372,14.675 34.001,14.574 C33.63,14.473 33.126,8.433 33.933,6.906 C34.741,5.379 34.785,5.549 33.785,4.933 C32.826,4.342 36.146,3.616 36.915,3.382 C38.395,2.932 41.905,3.547 42.745,3.776 C43.585,4.005 43.069,3.791 43.069,4.859 C43.069,5.928 42.56,12.011 42.378,12.898 C42.241,13.568 38.7,16.143 38.207,16.282 L38.207,16.282 Z M43.12,14.192 C44.038,14.196 48.492,15.609 48.852,16.282 C49.206,16.94 50.79,25.441 50.492,25.523 C45.97,26.762 44.082,27.035 40.905,26.575 C39.962,26.437 39.653,18.864 39.619,17.415 C39.601,16.633 41.873,14.186 43.12,14.192 L43.12,14.192 Z M43.943,5.087 C43.868,4.801 44.649,3.785 44.864,3.618 C46.291,2.5 48.994,2.035 51.4,3.141 C52.665,3.723 54.624,2.509 52.894,4.464 C52.21,5.238 53.381,11.426 53.046,11.8 C52.116,12.84 49.714,14.586 49.236,14.574 C48.198,14.549 43.635,13.619 43.482,12.898 C43.331,12.177 44.02,5.374 43.943,5.087 L43.943,5.087 Z M49.923,15.915 C49.901,15.343 53.017,13.032 53.718,13.164 C54.711,13.351 61.623,15.201 61.446,16.283 C60.708,20.763 58.123,24.458 52.111,25.073 C51.18,25.169 49.964,17.063 49.923,15.915 L49.923,15.915 Z M54.415,12.367 C53.957,11.659 53.104,5.337 53.84,4.727 C54.487,4.193 55.113,3.395 56.029,3.166 C56.945,2.937 62.213,4.388 63.662,4.463 C64.843,4.525 64.785,4.868 65.764,6.721 C66.441,8.005 62.136,14.539 61.446,14.439 C60.751,14.339 54.871,13.074 54.415,12.367 L54.415,12.367 Z M56.877,1.072 C57.487,0.857 61.047,1.187 62.328,1.526 C62.996,1.703 64.742,3.755 64.206,3.848 C63.761,3.927 59.987,3.02 59.227,2.869 C58.466,2.718 56.517,1.2 56.877,1.072 L56.877,1.072 Z M48.995,1.004 C49.62,0.893 53.932,0.741 55.685,1.004 C56.267,1.09 57.174,2.204 56.832,2.429 C56.464,2.672 52.702,2.831 52.093,2.547 C51.48,2.262 48.49,1.092 48.995,1.004 L48.995,1.004 Z M38.207,2.174 C38.65,1.892 43.209,1.141 46.291,1.004 C48.045,0.926 49.124,1.617 48.937,1.778 C48.641,2.034 45.426,2.072 43.805,2.698 C42.858,3.064 37.505,2.617 38.207,2.174 L38.207,2.174 Z M32.516,3.618 C32.822,3.306 36.891,2.269 37.14,2.283 C37.389,2.296 38.138,2.799 37.908,2.788 C36.443,2.717 33.063,4.156 32.847,4.101 C32.643,4.047 32.191,3.95 32.516,3.618 L32.516,3.618 Z M22.779,7.512 C23.067,7.028 31,3.987 31.534,3.987 C31.775,3.987 33.41,5.448 33.116,5.418 C28.494,4.947 25.678,6.789 24.87,7.112 C23.008,7.856 22.491,7.995 22.779,7.512 L22.779,7.512 Z M16.332,11.232 C16.536,10.852 20.518,8.486 21.943,8.137 C22.994,7.88 20.054,8.541 21.066,10.485 C21.259,10.855 19.367,10.742 16.818,12.416 C16.425,12.674 16.199,11.479 16.332,11.232 L16.332,11.232 Z M12.839,13.777 C13.338,13.266 15.59,11.399 15.618,11.487 C15.787,12.03 15.823,11.873 15.887,12.63 C15.908,12.881 13.438,14.398 13.268,14.406 C13.123,14.415 12.597,14.025 12.839,13.777 L12.839,13.777 Z M10.921,15.609 C12.677,14.065 11.945,14.208 12.646,15.007 C12.774,15.153 12.13,16.899 11.781,17.326 C11.523,17.64 10.712,17.174 9.04,18.34 C8.746,18.546 9.986,16.431 10.921,15.609 L10.921,15.609 Z M8.617,25.058 C8.065,24.439 7.804,21.027 8.135,20.159 C8.48,19.259 10.707,17.809 11.446,18.18 C11.904,18.408 13.533,21.869 13.431,22.328 C13.33,22.785 8.825,25.29 8.617,25.058 L8.617,25.058 Z M12.135,31.729 C9.376,29.968 9.04,27.003 9.04,26.321 C9.04,25.574 13.191,23.427 14.207,23.352 C14.695,23.316 15.817,24.759 15.588,25.523 C15.358,26.286 12.475,31.945 12.135,31.729 L12.135,31.729 Z M13.14,32.513 C12.854,31.513 16.463,25.746 17.199,25.746 C18.345,25.748 21.018,26.976 21.066,28.198 C21.094,28.921 19.543,34.77 18.488,35.923 C18.027,36.426 13.428,33.523 13.14,32.513 L13.14,32.513 Z M26.866,38.313 C26.616,38.874 20.289,37.919 19.911,36.871 C19.507,35.749 21.572,28.922 22.21,28.757 C23.235,28.493 27.307,28.865 27.379,29.23 C27.719,30.936 27.38,37.163 26.866,38.313 L26.866,38.313 Z M27.172,27.513 C23.505,28.665 18.356,25.618 17.594,23.511 C17.337,22.799 21.855,18.473 22.857,18.473 C24.794,18.473 26.895,19.775 27.02,20.159 C27.373,21.243 27.957,27.266 27.172,27.513 L27.172,27.513 Z M34.353,38.037 C33.599,38.562 29.261,38.81 28.374,38.433 C27.649,38.128 28.446,31.889 28.57,30.663 C28.698,29.384 29.981,29.442 30.595,29.403 C31.899,29.318 33.169,29.383 33.725,30.663 C34.093,31.513 35.422,37.292 34.353,38.037 L34.353,38.037 Z M42.103,36.241 C41.951,36.852 37.546,38.12 36.718,37.684 C35.984,37.299 34.73,30.954 34.73,30.139 C34.73,29.324 39.003,28.698 39.584,28.993 C40.197,29.306 42.255,35.631 42.103,36.241 L42.103,36.241 Z M47.949,34.676 C47.02,35.505 44.139,36.103 43.529,35.873 C42.919,35.643 40.76,28.663 41.142,28.053 C41.525,27.443 44.801,27.421 45.371,27.738 C46.058,28.118 48.553,34.138 47.949,34.676 L47.949,34.676 Z M54.096,33.184 C53.361,33.619 50.232,34.553 49.469,34.4 C48.705,34.249 46.448,28.123 47.021,27.438 C47.613,26.73 50.894,26.619 51.447,26.915 C51.796,27.102 54.357,33.029 54.096,33.184 L54.096,33.184 Z M60.687,31.259 C60.173,31.809 56.293,32.957 55.454,32.653 C54.614,32.345 52.776,27.086 53.081,26.322 C53.388,25.559 56.42,25.21 56.947,25.301 C58.214,25.523 60.977,30.947 60.687,31.259 L60.687,31.259 Z M62.54,30.496 C61.622,30.496 58.626,25.533 58.626,24.703 C58.626,23.872 60.139,21.648 61.452,21.648 C62.166,21.648 67.355,25.601 67.375,26.321 C67.393,26.988 63.785,30.497 62.54,30.496 L62.54,30.496 Z M72.149,19.439 C71.844,20.355 69.045,25.746 68.282,25.515 C67.518,25.286 63.402,21.703 62.324,20.954 C61.9,20.659 62.377,16.308 63.227,16.078 C63.926,15.89 72.455,18.524 72.149,19.439 L72.149,19.439 Z M72.29,17.746 C71.525,17.594 64.274,15.227 63.434,14.769 C62.595,14.311 64.52,12.264 65.419,11.312 C66.049,10.647 72.365,11.944 73.054,12.631 C73.74,13.319 73.054,17.899 72.29,17.746 L72.29,17.746 Z M88.007,13.012 C84.804,13.012 83.759,10.578 84.123,10.544 C84.829,10.478 85.052,10.501 85.45,10.456 C85.849,10.412 86.08,12.219 87.883,12.093 C89.589,11.974 90.032,10.818 90.228,9.97 C90.285,9.727 91.468,9.879 92.175,9.792 C92.482,10.317 90.634,13.012 88.007,13.012 L88.007,13.012 Z M92.207,9.092 C91.459,9.134 90.892,9.173 90.361,9.217 C89.83,9.261 89.382,8.257 87.907,8.342 C86.029,8.449 85.756,9.792 85.505,9.792 C85.085,9.792 84.639,9.929 84.082,9.925 C83.638,9.921 84.571,6.594 88.131,6.219 C91.234,5.892 92.658,9.067 92.207,9.092 L92.207,9.092 Z" id="Shape" sketch:type="MSShapeGroup"></path>
        </g>
    </g>
</svg>