<svg width="331" height="162" viewBox="0 0 331 162" xmlns="http://www.w3.org/2000/svg"><title>Slice 1</title><desc>Created with Sketch.</desc><g fill="none" fill-rule="evenodd"><path stroke="#9B9B9B" d="M107 108h37v54h-37zm36 0h37v54h-37z"/><text font-family="Consolas" font-size="14" fill="#000"><tspan x="122" y="139">0</tspan></text><text font-family="Consolas" font-size="14" fill="#000"><tspan x="159" y="139">1</tspan></text><path stroke="#9B9B9B" d="M179 108h37v54h-37z"/><text font-family="Consolas" font-size="14" fill="#000"><tspan x="195" y="139">2</tspan></text><path stroke="#9B9B9B" d="M215 108h37v54h-37z"/><text font-family="Consolas" font-size="14" fill="#000"><tspan x="231" y="139">3</tspan></text><path d="M331 121l-6.192-4.5v3H309v3h15.808v3L331 121z" fill="#979797"/><path stroke="#979797" d="M262 112h48v19h-48z"/><text font-family="Consolas" font-size="14" fill="#000"><tspan x="270" y="125">pop</tspan></text><path d="M101 121l-6.192-4.5v3H79v3h15.808v3L101 121z" fill="#979797"/><path stroke="#979797" d="M17 112h63v19H17z"/><text font-family="Consolas" font-size="14" fill="#000"><tspan x="21" y="126">unshift</tspan></text><path d="M309 146l6.192-4.5v3H331v3h-15.808v3L309 146z" fill="#979797"/><path stroke="#979797" d="M310 137h-48v19h48z"/><text font-family="Consolas" font-size="14" fill="#000"><tspan x="269" y="150">push</tspan></text><path d="M78 146l6.192-4.5v3H100v3H84.192v3L78 146z" fill="#979797"/><path stroke="#979797" d="M79 137H16v19h63z"/><text font-family="Consolas" font-size="14" fill="#000"><tspan x="26" y="151">shift</tspan></text><path d="M287.195 98c-.01 0-1.165-.012-1.665-.43l-.005-.004c-.05.02-.104.04-.162.055-.083.02-.172.038-.273.038-.447 0-1.504-.27-1.973-.697-.168.074-.378.125-.64.13h-.062l-.062-.01c-1.687-.314-6.394-8.24-6.433-8.317-.215-.43-.224-1.023-.234-1.71-.008-.61-.02-1.302-.193-1.792-.244-.683-.945-1.03-1.408-1.26-.13-.063-.238-.12-.32-.167l-.298-.18c-1.604-.96-3.152-1.9-3.604-2.268-2.058-1.666-3.485-4.78-3.82-8.328-.085-.896-.41-5.568 1.49-9.66 1.968-4.23 6.53-10.22 13.565-17.803.23-.246.402-.432.504-.545.304-.338 1.2-1.198 2.234-2.197 1.045-1.01 2.23-2.15 2.635-2.595.408-.44.87-1.29 1.28-2.035.354-.647.688-1.256 1.006-1.675 1.003-1.315 4.058-3.838 4.896-4.377l.08-.05c.764-.49 2.795-1.794 3.674-3.396.612-.97 1.194-3.48 1.37-4.365l.043-.14c.153-.346.464-1.39.046-2.03-.438-.67-1.24-1.37-2.105-1.833l-.115-.034c-.846-.245-1.803-.52-3.14-1.306-1.272-.75-2.556-2.896-3.323-4.18-.135-.226-.25-.417-.34-.557-.4-.63-.68-1.28-1.064-2.18-.185-.43-.394-.92-.654-1.49-.494-1.095-.37-2.097.305-2.435.19-.096.433-.143.742-.143.653 0 1.503.207 1.9.35 1.362.5 3.956 1.62 5.112 2.51.903.696 1.823 1.837 2.796 3.046 1.115 1.382 2.268 2.813 3.5 3.73.217.163.773.41.992.44.82.12 2.395 0 3.867-.133 1.493-.135 3.062-.257 3.997-.137.03.004 2.678.35 3.713.998.873.55 2.3 1.77 3.557 2.85.638.55 1.243 1.07 1.685 1.42l.05.045c3.345 3.29 3.185 5.484 3.056 6.077-.043.218-.12.406-.22.56l.013.135c.19 1.77-3.91 3.898-6.072 4.498-.706.195-1.41.258-1.976.31-.397.036-.774.07-.98.138-2.013.672-3.27 2.573-3.56 3.39-.225.617-.848 2.57-.936 3.31-.095.775-.073 1.935-.048 3.16.032 1.71.065 3.477-.2 4.623-.73 3.138-2.975 5.966-3.07 6.085l-.027.034-1.975 2.144c.002.258 0 .53-.018.688-.232 2.18-.68 6.98-.715 8.74-.01.56.034 1.123.077 1.67.064.853.13 1.66-.014 2.42-.084.44-.682 1.422-1.045 1.63l-.135.08h-.156c-1.285 0-3.475-2.045-4.09-3.28-.205-.403-.3-1.702-.29-1.915.008-.188.014-.48.02-.826-.08.18-.143.317-.18.39-.313.628-1.764 3.29-2.26 4.114-.435.73-5.114 6.56-7.812 7.992l-.04.02c-.15 1.196-.73 2.665-1.15 3.42-.312.565-.79 1.14-1.298 1.747-.59.71-1.2 1.443-1.567 2.18l-.045.074c-.11.162-.245.36.437.916 1.144.93 4.553 3.755 4.553 3.755.46.41 1.51 1.402 1.715 2.05l.023.1c.1.716-.064 2.1-.267 2.687l-.054.113c-.105.18-.702.92-1.332.88-.05.065-.108.126-.176.18-.14.112-.826.565-1.33.565zm-.734-1.352c.19.045.51.094.72.096.11-.023.388-.164.533-.266.056-.137.084-.508.1-.69.007-.1.014-.194.023-.276l.2-1.844.96 1.586c.013.018.02.033.03.053.08-.492.133-1.125.098-1.488-.122-.25-.717-.91-1.32-1.45 0 0-3.388-2.803-4.526-3.73-1.273-1.037-1.097-1.957-.706-2.56.433-.854 1.11-1.67 1.71-2.386.467-.564.91-1.093 1.164-1.554.415-.75 1.005-2.313 1.03-3.3l.006-.066c.1-.745-.64-3.26-1.036-4.608-.33-1.12-.4-1.38-.4-1.577v-.628l.633-.024c.447 0 .6 0 1.517 2.94.27.853.574 1.92.74 2.803 2.425-1.805 6.09-6.27 6.535-7.01.485-.807 1.907-3.416 2.21-4.027.404-.8 1.22-3.11 1.065-3.91-.05-.264-.69-1.168-1.37-1.938l.936-.838 1.77 1.95c.068.02.156.012.186-.008l1.83-1.35-.88 2.095c-.156.372-.49.616-.955.71-.002 1.133-.01 3.55-.04 4.33-.007.2.097 1.13.167 1.326.483.966 2.01 2.24 2.7 2.51.15-.21.33-.52.36-.645.11-.587.055-1.313-.006-2.083-.045-.574-.092-1.17-.078-1.79.032-1.796.485-6.647.72-8.85.02-.173.01-.75-.004-1.106l-.177-3.036 1.246-.12.24 1.814.996-1.084c.174-.225 2.176-2.828 2.814-5.568.23-.997.197-2.76.168-4.315-.024-1.27-.048-2.47.056-3.332.106-.923.81-3.064.997-3.587.444-1.233 1.968-3.36 4.35-4.153.343-.116.77-.154 1.263-.2.54-.05 1.153-.104 1.753-.27 2.005-.555 4.144-1.895 4.888-2.705-.722-.305-1.153-1.01-1.21-1.11l-1.723-2.963 2.66 2.16c.22.175.562.37.767.416.126-.457.04-2.256-2.675-4.94-.456-.366-1.058-.884-1.696-1.43-1.223-1.05-2.61-2.24-3.406-2.74-.575-.358-2.37-.708-3.204-.816-.804-.104-2.314.014-3.728.14-1.56.14-3.195.267-4.158.127-.463-.066-1.207-.41-1.563-.675-1.36-1.013-2.56-2.507-3.724-3.95-.926-1.15-1.8-2.236-2.586-2.84-.978-.75-3.43-1.83-4.78-2.326-.304-.11-1-.27-1.468-.27-.034 0-.064 0-.09.004-.01.148.023.434.19.8.265.58.478 1.078.665 1.517.363.845.626 1.455.97 1.997.094.148.215.35.355.587.613 1.024 1.89 3.155 2.885 3.742 1.197.703 2.037.944 2.85 1.18l.295.1c1.082.565 2.064 1.42 2.63 2.286.792 1.215.224 2.8.077 3.162-.1.49-.727 3.46-1.51 4.7-1.014 1.845-3.24 3.273-4.078 3.81l-.077.05c-.685.44-3.66 2.88-4.575 4.083-.263.342-.575.912-.905 1.515-.465.85-.945 1.726-1.446 2.276-.436.475-1.584 1.582-2.695 2.652-.933.898-1.897 1.828-2.172 2.133-.106.114-.28.306-.52.56-6.944 7.49-11.435 13.367-13.345 17.48-1.767 3.8-1.46 8.174-1.38 9.01.303 3.223 1.56 6.016 3.36 7.475.444.36 2.556 1.625 3.457 2.166l.3.18c.06.036.14.073.23.12.567.28 1.62.803 2.034 1.963.246.686.26 1.488.27 2.197.005.44.014.99.1 1.164.464.926 4.455 7.033 5.515 7.625.022-.006.036-.01.042-.01-.01-.01.03-.18-.096-.617L281.88 93l1.666 1.55c.5.463.5 1.04.5 1.387 0 .046 0 .097.003.14.163.098.59.244.88.293.016-.08.033-.18.05-.267.02-.124.044-.263.073-.415l.29-1.46.844 1.23c.29.42.284.87.282 1.165-.003.004-.003.012-.003.017zm18.35-77.204c-.73 0-1.383-.06-1.834-.168l-.363-.088-.096-.36c-.274-1.032-1.42-3.03-2.433-4.79-.614-1.07-1.194-2.08-1.57-2.852l-.028-.066c-.853-2.416-.855-6.602-.59-8.67.06-.43.45-1.112.88-1.347.33-.182.79-.196.92-.196.394 0 .696.09.907.27 1.476 1.256 3.433 3.64 4.015 5.296.33.943.552 2.37.77 3.75.196 1.262.4 2.568.667 3.36.942 2.77 1.745 3.89 2.253 4.34l.77.683-.96.372c-.89.343-2.29.466-3.302.466zm-1.203-1.327c.332.047.75.07 1.205.07.688 0 1.37-.054 1.936-.15-.648-.907-1.27-2.245-1.885-4.052-.305-.893-.506-2.193-.72-3.57-.21-1.322-.42-2.692-.716-3.526-.488-1.4-2.244-3.55-3.596-4.72-.026-.008-.073-.01-.14-.01-.154 0-.29.03-.326.043-.052.045-.21.303-.23.41-.254 1.957-.215 5.94.518 8.048.36.734.922 1.71 1.518 2.746.988 1.72 2.01 3.5 2.436 4.704zm2.12 53.353l-.294-.077c-1.227-.32-2.613-1.81-2.766-1.98l-.14-.15-.022-.206c-.363-3.424.236-8.53.947-11.83l.03-.145.095-.117c.774-.953 2.32-2.873 2.64-3.33l2.633-3.744-1.525 4.32c-.146.415-.313.94-.352 1.126.616 3.753.36 7.38.157 10.3-.113 1.656-.215 3.088-.152 4.27l.01.18-.088.16c-.317.566-.583.793-.925 1.05l-.242.182zm-1.993-2.753c.444.457 1.165 1.086 1.74 1.357.08-.078.153-.168.235-.3-.048-1.216.05-2.62.16-4.23.2-2.827.42-6.005-.045-9.374-.496.625-.98 1.22-1.18 1.47-.68 3.23-1.197 7.975-.91 11.077zM295.7 92.67c-.366 0-.722-.004-1.044-.008-.262-.004-.498-.006-.7-.006h-.19l-.108-.04c-1.014-.382-3.653-1.444-6.097-2.517-4.72-2.08-4.87-2.48-4.98-2.8-.172-.49.14-.97.44-1.436.09-.13.187-.28.22-.364l.05-.087c.19-.278.457-.62.74-.98.38-.48.8-1.02.986-1.36l.073-.135c.556-1.037 1.247-2.33 1.573-3.95l.06-.308.284-.135c1.82-.87 3.728-3.063 5.57-5.184.433-.494.864-.992 1.298-1.475l1.148-1.28-.05 1.718c-.105 3.435-.52 6.81-.76 7.624-.542 1.836-1.93 2.94-3.044 3.824-.667.53-1.243.99-1.505 1.47.236.04.634.04.85.04.3 0 .56 0 .767.036.486.087 1.254.173 2.064.265 1.77.2 2.97.35 3.498.575l.108.056c1.043.707 2.39 2.877 2.717 4.09l.02.13c.022.44-.1 1.085-.28 1.5l-.084.198-.19.1c-.544.3-1.57.43-3.427.43zm-1.706-1.27c.197 0 .428.004.678.006.316.004.668.01 1.03.01 1.536 0 2.276-.096 2.628-.2.057-.21.098-.466.1-.645-.285-.95-1.39-2.712-2.135-3.27-.47-.16-1.98-.33-3.094-.46-.83-.09-1.61-.18-2.14-.27-.1-.02-.34-.02-.55-.02-.75-.002-1.52-.002-1.92-.492-.32-.393-.206-1.05-.074-1.313.373-.75 1.1-1.327 1.873-1.94 1.077-.855 2.19-1.742 2.62-3.197.156-.535.465-2.844.627-5.533-.036.04-.073.08-.11.124-1.84 2.114-3.74 4.3-5.695 5.35-.385 1.663-1.102 3-1.634 3.993l-.07.136c-.234.437-.68 1-1.105 1.544-.256.325-.5.634-.66.866-.073.15-.176.31-.283.475-.062.092-.147.225-.21.336 1.244.865 7.527 3.52 10.134 4.505zm-24-10.658l-1.497-.477c-5.026-1.604-5.472-6.94-5.49-8.54l-.007-.838.807.23c1.19.335 2.262 1.065 2.873 1.952.307.442.64 1.68.732 2.042l.62 2.05 1.962 3.574zm-5.68-8.082c.158 1.662.77 4.13 2.88 5.59l-.346-.656-.646-2.14c-.174-.677-.436-1.495-.56-1.675-.245-.36-.7-.798-1.328-1.12zm35.368-51.544c-.688 0-1.633-.238-2.828-.714l.463-1.167c.865.345 1.838.598 2.334.625-.76-2.218-6.192-6.74-9.89-8.968l.65-1.075c2.654 1.6 10.408 7.263 10.586 10.382l.01.16-.067.14c-.197.407-.613.61-1.25.61zm13.11 2.964c0 .216-.015.862 0 1.04-.23.047-.757.21-.847.252-.18.083-.375.11-.627.11-.473 0-.895-.213-1.164-.542-.098-.117-.6-.617-.664-.684.066-.1.445-.738.605-.962.266-.373.715-.618 1.223-.618.817 0 1.475.627 1.475 1.403zM93.48 47.312c-1.718-.655-2.69-2.014-3.896-1.94-2.367.143-3.856 2.247-7.963 3.223-1.34.32-1.65.263-3.02 1.027-1.375.763-3.147 2.563-4.98 2.258-.363-2.083-.232-4.932-2.67-5.954-3.182-1.334-19.94-1.964-28.28-1.13-11.81 1.184-25.635 8.9-28.08 10.884-2.442 1.983-6.364 4.516-7.11 9.084-.304 1.863.438 4.825.71 5.287-2.63.36-7.616 4.32-8.074 4.62-.456.31 8.366-1.43 9.19-1.23.805 1.02 2.41 3.34 4.282 4.5-1.374.62-2.164 1.08-3.908 1.79-1.39.563-5.273 2.926-5.478 3.952-.333 1.665 1.235 2.424 1.693 3.797.46 1.374-.41 3.603-.256 4.67.15 1.07 1.043 2.326 2.102 2.465.663.086 2.055.153 2.825-.463.05.41.256.974.102 1.435 1.23-.203 1.49-1.52 1.72-2.095.69-.01.693 1.3.846 1.788 2.31-.77 1.86-1.98 1.95-2.567.67 0 .81.127 1.03.467.223.347.17 1.036.103 1.438 1.066-.318 1.81-1.62 2.052-2.827.254-1.28.394-2.8-.464-3.437-1.747-1.297 1.044-.877 2.577-1.203 1.502-.32 2.916-1.427 3.487-2.036.67-.713 1.45-1.763 1.83-2.29 10.657 1.4 25.87-.155 32.065-1.832C63 79.6 65.66 75.94 67.03 75.95c1 .004 1.77-.047 1.77-.047.304 1.527.98 5.694 1.743 6.457.76.764 3.662 1.83 4.58 1.68.915-.15 2.595 0 2.9-.765.303-.764 1.1-.027 1.706.736.57-.55.342-2.19-.575-2.802.295-.375.975-.198 1.35.325.704-.99-.182-2.17-.832-2.8.917-.054.797.183 1.194.56.178-.834-.053-2.08-1.63-2.492-1.217-.32-1.824.068-2.74-1.46-.915-1.525-1.373-4.12-2.748-5.343-1.376-1.222-2.444-1.068-1.527-2.137.916-1.07 3.205-2.674 4.885-3.093 1.68-.42 3.97-.116 6.412-.726 2.44-.612 3.356-1.986 5.036-3.21 1.68-1.22 5.802-3.663 6.87-6.87 1.067-3.21.345-5.78-1.943-6.65zm-20.808 7.99c-.763.122-5.497-.807-6.138-1.746-.64-.938.26-1.58.336-2.344.075-.764-1.617-1.52-.688-1.986 1.07-.534 5.728.61 6.49.917.763.305.763 5.038 0 5.16zm-8.795-9.926c.687.04 6.02.356 7.21 1.315 1.13.92 1.627 2.868 1.21 2.68-.28-.12-5.65-.89-6.164-.98-.433-.073-2.93-3.05-2.256-3.01zM23.222 54.74c-.142-.44-2.03-.598-1.65-1.29.38-.69 5.813-2.903 6.5-3.12.687-.217 4.61-.76 4.77.08.218 1.156-.28 8.063-.775 8.164-.648.13-4.208 4.242-4.972 4.297-.763.06-4.1-1.69-4.096-2.442 0-1.08.4-5.125.22-5.683zm-1.317 6.118c-.116 1.042-5.55 6.276-5.852 6.26-.3-.015-2.913-3.812-3.29-4.645-.413-.908.36-3.13.89-3.676.348-.357 5.287-2.97 6.205-3.254 2.293-.712 2.714-.665 2.047 5.315zm6.342 3.3c.004-.83 3.82-4.55 4.88-4.55.766 0 4.74 1.566 5.293 2.662.374.74.833 8.938.356 9.167-4.047 1.942-5.28 1.662-9.848.3-.65-.194-.688-6.14-.68-7.58zm9.96-3.876c-.494.14-3.835-1.607-4.206-1.708-.37-.1-.87-6.14-.06-7.668.807-1.527.85-1.357-.15-1.973-.96-.59 2.36-1.317 3.13-1.55 1.48-.45 4.99.164 5.83.393.84.23.324.015.324 1.083s-.51 7.15-.69 8.032c-.138.67-3.68 3.245-4.17 3.384zm4.913-2.09c.918.004 5.372 1.417 5.732 2.09.354.658 1.938 9.16 1.64 9.24-4.522 1.24-6.41 1.513-9.587 1.053-.943-.138-1.252-7.71-1.286-9.16-.02-.782 2.25-3.23 3.5-3.223zm.823-9.105c-.075-.286.706-1.302.92-1.47 1.428-1.117 4.13-1.582 6.537-.476 1.265.59 3.224-.63 1.494 1.33-.684.774.487 6.96.152 7.336-.93 1.04-3.332 2.787-3.81 2.775-1.038-.025-5.6-.955-5.754-1.676-.15-.72.538-7.524.46-7.81zm5.98 10.828c-.022-.572 3.094-2.883 3.795-2.75.993.186 7.905 2.036 7.728 3.118-.738 4.48-3.323 8.175-9.335 8.79-.93.096-2.14-8.01-2.18-9.158zm4.492-3.548c-.458-.708-1.31-7.03-.575-7.64.647-.534 1.273-1.332 2.19-1.56.915-.23 6.183 1.22 7.632 1.296 1.18.062 1.123.405 2.102 2.258.677 1.29-3.628 7.82-4.318 7.72-.695-.1-6.575-1.36-7.03-2.07zm2.462-11.295c.61-.215 4.17.115 5.45.454.67.177 2.415 2.23 1.88 2.322-.446.08-4.22-.828-4.98-.98-.76-.15-2.71-1.668-2.35-1.796zm-7.882-.068c.625-.11 4.937-.263 6.69 0 .582.086 1.49 1.2 1.147 1.425-.368.24-4.13.4-4.74.11-.612-.284-3.602-1.454-3.097-1.542zm-10.788 1.17c.443-.282 5.002-1.033 8.084-1.17 1.76-.078 2.84.613 2.65.774-.293.256-3.51.294-5.13.92-.946.366-6.3-.08-5.6-.524zm-5.69 1.444c.305-.312 4.374-1.35 4.623-1.335.25.013.998.516.768.505-1.465-.07-4.845 1.368-5.06 1.313-.205-.05-.657-.15-.332-.48zm-9.738 3.894c.28-.484 8.22-3.525 8.75-3.525.24 0 1.874 1.46 1.58 1.43-4.62-.47-7.438 1.372-8.246 1.695-1.863.744-2.38.883-2.09.4zm-6.45 3.72c.2-.38 4.182-2.746 5.61-3.095 1.05-.257-1.89.404-.88 2.348.193.37-1.7.257-4.248 1.93-.393.26-.62-.936-.486-1.183zm-3.497 2.545c.498-.51 2.75-2.378 2.778-2.29.17.543.206.386.27 1.143.02.25-2.45 1.768-2.62 1.776-.144.01-.67-.38-.43-.63zm-1.92 1.832c1.757-1.55 1.025-1.408 1.726-.61.13.147-.516 1.893-.865 2.32-.258.314-1.07-.152-2.74 1.014-.295.205.945-1.91 1.88-2.73zM8.61 69.05c-.55-.62-.812-4.03-.48-4.9.345-.9 2.572-2.35 3.31-1.978.46.227 2.09 3.69 1.986 4.147-.1.458-4.606 2.963-4.814 2.73zm3.52 6.67C9.372 73.962 9.037 71 9.037 70.32c0-.747 4.15-2.894 5.167-2.97.488-.035 1.61 1.408 1.38 2.17-.23.765-3.112 6.424-3.452 6.208zm1.005.785c-.286-1 3.323-6.767 4.06-6.767 1.145.003 3.818 1.23 3.866 2.453.03.723-1.52 6.572-2.576 7.725-.46.505-5.06-2.4-5.348-3.41zm13.726 5.8c-.25.56-6.575-.394-6.953-1.44-.404-1.12 1.66-7.95 2.3-8.115 1.024-.264 5.096.108 5.17.473.34 1.704 0 7.93-.515 9.08zm.308-10.8c-3.668 1.152-8.817-1.895-9.58-4-.256-.71 4.26-5.04 5.264-5.04 1.938 0 4.04 1.303 4.164 1.687.353 1.082.937 7.105.152 7.352zm7.18 10.524c-.754.526-5.09.774-5.98.397-.724-.303.073-6.542.197-7.77.128-1.28 1.41-1.22 2.025-1.26 1.303-.083 2.573-.02 3.13 1.26.367.85 1.696 6.63.627 7.376zm7.75-1.795c-.15.61-4.557 1.88-5.385 1.442-.734-.385-1.988-6.73-1.988-7.545 0-.817 4.273-1.443 4.854-1.148.61.312 2.67 6.637 2.52 7.247zm5.846-1.566c-.93.83-3.81 1.426-4.42 1.196-.61-.23-2.77-7.21-2.388-7.82.382-.61 3.66-.63 4.23-.315.685.38 3.18 6.4 2.576 6.94zm6.146-1.493c-.736.435-3.865 1.37-4.628 1.216-.765-.15-3.022-6.278-2.45-6.963.593-.707 3.874-.82 4.427-.522.35.187 2.91 6.114 2.65 6.27zm6.59-1.925c-.514.55-4.394 1.696-5.233 1.392-.84-.31-2.677-5.568-2.372-6.33.308-.765 3.34-1.114 3.867-1.023 1.267.224 4.03 5.648 3.74 5.96zm1.853-.765c-.918 0-3.914-4.963-3.914-5.793 0-.83 1.51-3.056 2.824-3.056.713 0 5.902 3.953 5.922 4.673.018.67-3.59 4.178-4.835 4.177zm9.61-11.057c-.306.916-3.105 6.307-3.868 6.076-.765-.23-4.88-3.81-5.96-4.56-.423-.295.054-4.646.904-4.876.7-.188 9.226 2.446 8.92 3.36zm.14-1.693c-.765-.15-8.016-2.52-8.856-2.977-.84-.46 1.087-2.506 1.986-3.458.63-.666 6.945.63 7.634 1.32.686.686 0 5.266-.764 5.113zM88 57.007c-3.202 0-4.247-2.434-3.883-2.468.705-.07.93-.046 1.326-.09.4-.045.63 1.762 2.433 1.636 1.705-.12 2.15-1.275 2.344-2.123.057-.243 1.24-.09 1.947-.178.308.524-1.54 3.22-4.167 3.22zm4.2-3.92c-.747.042-1.314.08-1.845.125-.53.044-.978-.96-2.453-.875-1.878.107-2.15 1.45-2.402 1.45-.42 0-.866.137-1.423.133-.445-.002.49-3.33 4.05-3.704 3.1-.328 4.525 2.847 4.074 2.872z" fill="#000"/></g></svg>