<?xml version="1.0" encoding="UTF-8" standalone="no"?>
<svg width="168px" height="93px" viewBox="0 0 168 93" version="1.1" xmlns="http://www.w3.org/2000/svg" xmlns:xlink="http://www.w3.org/1999/xlink" xmlns:sketch="http://www.bohemiancoding.com/sketch/ns">
    <!-- Generator: Sketch 3.2.2 (9983) - http://www.bohemiancoding.com/sketch -->
    <title>Slice 1</title>
    <desc>Created with Sketch.</desc>
    <defs></defs>
    <g id="queue" stroke="none" stroke-width="1" fill="none" fill-rule="evenodd" sketch:type="MSPage">
        <g id="noun_21323_cc" sketch:type="MSLayerGroup" transform="translate(51.000000, 0.000000)" fill="#000000">
            <g id="Group" sketch:type="MSShapeGroup">
                <path d="M31.795,34.15 C30.575,34.15 29.455,33.343 29.111,32.11 C28.696,30.626 29.563,29.088 31.047,28.674 L53.439,22.421 C54.922,22.006 56.46,22.874 56.876,24.357 C57.29,25.841 56.423,27.379 54.939,27.793 L32.547,34.046 C32.296,34.117 32.043,34.15 31.795,34.15 L31.795,34.15 Z" id="Shape"></path>
                <path d="M31.795,45.188 C30.575,45.188 29.455,44.381 29.111,43.148 C28.696,41.664 29.563,40.126 31.047,39.712 L53.439,33.459 C54.922,33.045 56.46,33.912 56.876,35.395 C57.29,36.879 56.423,38.417 54.939,38.831 L32.547,45.084 C32.296,45.155 32.043,45.188 31.795,45.188 L31.795,45.188 Z" id="Shape"></path>
                <path d="M31.795,55.557 C30.575,55.557 29.455,54.75 29.111,53.517 C28.696,52.034 29.563,50.496 31.047,50.081 L53.439,43.828 C54.922,43.414 56.46,44.281 56.876,45.764 C57.29,47.248 56.423,48.786 54.939,49.2 L32.547,55.453 C32.296,55.523 32.043,55.557 31.795,55.557 L31.795,55.557 Z" id="Shape"></path>
                <path d="M55.837,8.439 L55.837,6.655 C55.837,3.042 52.816,-0.669 49.286,0.104 C39.874,2.164 18.568,9.063 7.433,11.457 C3.902,12.216 0.881,15.193 0.881,18.806 L0.881,79.758 C0.881,83.371 3.857,86.819 7.433,86.31 C9.432,86.026 11.7,85.563 14.161,84.97 L14.161,86.398 C14.161,90.011 17.136,93.459 20.712,92.95 C24.888,92.356 47.3919992,85.5499983 53.1949992,83.8389983 L53.1949992,78.4649977 C47.6279992,80.1029977 25.161,86.773 20.712,87.814 C19.951,87.993 19.296,87.179 19.296,86.398 L19.296,26.74 C19.218,24.948 19.915,23.453 22.011,22.893 C28.081,21.27 43.963,16.948 53.955,14.225 L55.836,13.713 C59.871,12.613 62.564,11.879 62.564,11.879 C63.345,11.879 63.98,12.514 63.98,13.295 L63.98,74.248 C63.98,75.029 63.315,75.451 62.564,75.664 C59.968,76.402 56.744,77.377 53.182,78.465 L53.195,83.839 C56.6,82.72 59.797,81.669 62.564,80.8 C66.01,79.717 69.116,78.431 69.116,74.248 L69.116,13.294 C69.117,9.682 66.095,5.97 62.565,6.743 C60.724,7.146 58.423,7.736 55.837,8.439 Z M20.713,18.096 C17.182,18.856 14.162,21.833 14.162,25.445 L14.162,79.46 C11.772,80.108 9.511,80.689 7.434,81.175 C6.673,81.353 6.018,80.539 6.018,79.758 L6.018,20.1 C5.94,18.308 6.637,16.813 8.733,16.253 C17.876,13.81 49.287,5.239 49.287,5.239 C50.068,5.239 50.703,5.874 50.703,6.655 L50.703,9.872 C40.644,12.732 28.312,16.462 20.713,18.096 L20.713,18.096 Z" id="Shape"></path>
            </g>
        </g>
        <path d="M146.682617,63.3173828 L158.682617,51.3173828 L150.682617,51.3173828 L150.682617,20.6826172 L142.682617,20.6826172 L142.682617,51.3173828 L134.682617,51.3173828 L146.682617,63.3173828 Z" id="Shape" fill="#000000" sketch:type="MSShapeGroup" transform="translate(146.682617, 42.000000) rotate(-90.000000) translate(-146.682617, -42.000000) "></path>
        <path d="M21.6826172,63.3173828 L33.6826172,51.3173828 L25.6826172,51.3173828 L25.6826172,20.6826172 L17.6826172,20.6826172 L17.6826172,51.3173828 L9.68261719,51.3173828 L21.6826172,63.3173828 Z" id="Shape-2" fill="#000000" sketch:type="MSShapeGroup" transform="translate(21.682617, 42.000000) rotate(-90.000000) translate(-21.682617, -42.000000) "></path>
    </g>
</svg>