<svg width="168" height="93" viewBox="0 0 168 93" xmlns="http://www.w3.org/2000/svg"><title>Slice 1</title><desc>Created with Sketch.</desc><path d="M82.795 34.15c-1.22 0-2.34-.807-2.684-2.04-.41-1.484.46-3.022 1.94-3.436l22.39-6.253c1.487-.41 3.02.46 3.44 1.94.415 1.487-.452 3.02-1.936 3.44l-22.396 6.25c-.25.07-.504.103-.752.103zm0 11.038c-1.22 0-2.34-.807-2.684-2.04-.41-1.484.46-3.022 1.94-3.436l22.39-6.253c1.487-.42 3.02.45 3.44 1.93.415 1.483-.452 3.02-1.936 3.435L83.548 45.08c-.25.07-.504.105-.752.105zm0 10.37c-1.22 0-2.34-.808-2.684-2.04-.41-1.484.46-3.02 1.94-3.437l22.39-6.25c1.487-.41 3.02.457 3.44 1.94.415 1.484-.452 3.02-1.936 3.436L83.55 55.458c-.25.07-.505.104-.753.104zM106.837 8.44V6.654c0-3.613-3.02-7.324-6.55-6.55-9.413 2.06-30.72 8.958-41.854 11.352-3.53.76-6.552 3.736-6.552 7.35v60.95c0 3.614 2.98 7.062 6.56 6.553 2-.29 4.266-.75 6.727-1.34v1.422c0 3.613 2.976 7.06 6.552 6.552 4.175-.595 26.68-7.4 32.482-9.11V78.46c-5.567 1.64-28.034 8.31-32.483 9.35-.76.18-1.417-.635-1.417-1.416V26.74c-.08-1.792.62-3.287 2.715-3.847 6.07-1.623 21.953-5.945 31.945-8.668l1.88-.512 6.73-1.834c.78 0 1.412.63 1.412 1.41V74.24c0 .78-.665 1.203-1.416 1.416-2.597.74-5.82 1.713-9.383 2.8l.013 5.375c3.404-1.12 6.6-2.17 9.37-3.04 3.444-1.083 6.55-2.37 6.55-6.552V13.29c0-3.612-3.02-7.324-6.55-6.55-1.84.4-4.143.99-6.73 1.695zm-35.124 9.656c-3.53.76-6.55 3.737-6.55 7.35V79.46c-2.39.648-4.652 1.23-6.73 1.715-.76.178-1.415-.636-1.415-1.417V20.1c-.078-1.792.62-3.287 2.715-3.847C68.876 13.81 100.287 5.24 100.287 5.24c.78 0 1.416.634 1.416 1.415v3.217c-10.06 2.86-22.39 6.59-29.99 8.224zM168 42l-12-12v8h-30.634v8H156v8l12-12zM43 42L31 30v8H.366v8H31v8l12-12z" fill-rule="evenodd"/></svg>