<svg width="90" height="97" viewBox="0 0 90 97" xmlns="http://www.w3.org/2000/svg"><title>Slice 1</title><desc>Created with Sketch.</desc><path d="M19.785 54.07c-1.07.41-2.213.374-2.757-.14-.655-.62-.196-1.7 1.026-2.41l18.438-10.737c1.22-.71 2.742-.786 3.398-.167.654.62.195 1.7-1.027 2.41L20.425 53.763c-.207.12-.422.222-.64.306zm7 5c-1.07.41-2.213.374-2.757-.14-.655-.62-.196-1.7 1.026-2.41l18.438-10.737c1.22-.71 2.742-.786 3.398-.167.654.62.195 1.7-1.027 2.41L27.425 58.763c-.207.12-.422.222-.64.306zm7 4c-1.07.41-2.213.374-2.757-.14-.655-.62-.196-1.7 1.026-2.41l18.438-10.737c1.22-.71 2.742-.786 3.398-.167.654.62.195 1.7-1.027 2.41L34.425 62.763c-.207.12-.422.222-.64.306zM90 67.92c0-.394-.213-.758-.555-.955l-3.647-2.105 3.647-2.107c.342-.197.554-.562.554-.956 0-.396-.216-.76-.558-.956L38.02 31.15c-.342-.197-.763-.197-1.105 0L.552 52.143C.21 52.34 0 52.705 0 53.1c0 .395.21.76.552.956L4.2 56.163.552 58.27c-.342.196-.552.56-.552.955 0 .396.21.76.552.958l3.65 2.106-3.65 2.102C.21 64.59 0 64.956 0 65.35c0 .396.21.76.552.957l51.427 29.69c.17.1.36.15.55.15.19 0 .38-.05.55-.15l36.363-20.993c.342-.197.554-.562.554-.957 0-.395-.213-.76-.555-.956l-3.648-2.104 3.648-2.106c.34-.2.553-.565.553-.96zM37.466 33.38l49.217 28.416-34.153 19.72L3.314 53.1l34.154-19.72zm46.27 38.966l2.947 1.702-34.153 19.72L3.314 65.352l3.096-1.788 45.57 26.31c.17.1.36.147.55.147.192 0 .383-.045.554-.143l30.52-17.623c.042.035.085.07.133.096zM52.53 87.64L3.37 59.26l-.057-.033L6.41 57.44l45.57 26.31c.17.1.36.148.55.148.19 0 .382-.05.553-.148l30.6-17.668c.09.12.202.227.34.307l2.66 1.532-34.153 19.72zM36.535 40.267c-.218.245-.484.36-.766.36-.57 0-1.2-.462-1.648-1.294L27.29 26.66c-.596-1.11-.213-2.414.595-2.414.1 0 .208.02.322.063l3.318 1.28.05-25.59 9.096 5.975v23.167l3.32 1.285c1.02.392 1.32 1.314.667 2.05l-8.12 7.786zm23-22.907c-.218-.244-.484-.36-.766-.36-.57 0-1.2.463-1.648 1.295L50.29 30.967c-.596 1.11-.213 2.415.595 2.415.1 0 .208-.02.322-.063l3.318-1.287.05 25.592 9.096 5.592V28.483l3.32-1.285c1.02-.396 1.32-1.318.667-2.053l-8.12-7.787z" fill-rule="evenodd"/></svg>