<svg width="166" height="145" viewBox="0 0 166 145" xmlns="http://www.w3.org/2000/svg"><title>variable.svg</title><desc>Created with bin/sketchtool.</desc><g fill="none" fill-rule="evenodd"><path d="M30 40.196h112.558v42.95c0 .373-.08.862-.28 1.294-.2.433-16.573 35.56-16.573 35.56V65.64l16.854-25.444L161 12H48.44L30 40.196zM30 69V41L15 69" fill="#E8C48F"/><path d="M46.91 3.395l54.505 58.45L83.09 78.93 28.584 20.484 46.91 3.394z" stroke="#8A704D" stroke-width="2" fill="#FFF9EB"/><text transform="matrix(.682 .731 -.731 .682 28 3)" font-family="Open Sans" font-size="14" font-weight="526" fill="#8A704D"><tspan x="10.393" y="46.282">&amp;quot;Hello!&amp;quot;</tspan></text><path d="M13 71v54.73c0 3.42 1.484 5.27 4.387 5.27h100.086c3.122 0 5.527-2.548 5.527-3.476V71H13z" fill="#E8C48F"/><text font-family="Open Sans" font-size="18" font-weight="526" fill="#fff" transform="translate(13 3)"><tspan x="17" y="105">Message</tspan></text></g></svg>