<svg width="392" height="192" viewBox="0 0 392 192" xmlns="http://www.w3.org/2000/svg"><title>variable-change.svg</title><desc>Created with bin/sketchtool.</desc><g fill="none" fill-rule="evenodd"><path d="M77 89.196h112.558v42.95c0 .373-.08.862-.28 1.294-.2.433-16.573 35.56-16.573 35.56v-54.36l16.854-25.444L208 61H95.44L77 89.196zM77 118V90l-15 28" id="Shape" fill="#E8C48F"/><path d="M70.91 52.395l54.505 58.45-18.326 17.087-54.506-58.448 18.326-17.09z" stroke="#8A704D" stroke-width="2" fill="#FFF9EB"/><text transform="matrix(.682 .731 -.731 .682 52 52)" font-family="Open Sans" font-size="14" font-weight="526" fill="#8A704D"><tspan x="10.393" y="46.282">&amp;quot;World!&amp;quot;</tspan></text><path d="M149.937 46.212l75.142-27.345 8.57 23.56-75.14 27.344-8.574-23.557z" stroke="#8A704D" stroke-width="2.002" fill="#FFF9EB"/><text transform="matrix(.94 -.342 .342 .94 102.5 -95.134)" font-family="Open Sans" font-size="14" font-weight="526" fill="#8A704D"><tspan x="10.393" y="46.282">&amp;quot;Hello!&amp;quot;</tspan></text><path d="M60 120v54.73c0 3.42 1.484 5.27 4.387 5.27h100.086c3.122 0 5.527-2.548 5.527-3.476V120H60z" id="Shape" fill="#E8C48F"/><text font-family="Open Sans" font-size="18" font-weight="526" fill="#fff"><tspan x="77" y="157">Message</tspan></text><path d="M56.836 56.667s-8.13-12.98-14.09-18.693l-1.554 5.345c-10.97-3.19-22.604-3.89-34.04-1.94L9.14 53.01c9.66-1.65 19.49-1.056 28.76 1.638-.52 1.78-1.037 3.562-1.555 5.344 6.116-2.202 20.49-3.327 20.49-3.327m230.788-27.58s-10.052-11.54-16.827-16.245l-.698 5.518c-11.325-1.432-22.917-.306-33.896 3.41 1.26 3.72 2.518 7.443 3.778 11.166 9.276-3.14 19.07-4.09 28.64-2.88l-.7 5.52c5.692-3.13 19.703-6.488 19.703-6.488" fill="#E8C48F"/><path d="M348.983 11h-14.967c-.56 0-1.016.626-1.016 1.395V17h17v-4.605c0-.77-.457-1.395-1.017-1.395z"/><path d="M382.193 14.36h-26.39v-3.275c0-3.356-2.814-6.085-6.275-6.085H334.47c-3.46 0-6.274 2.73-6.274 6.085v3.275h-26.39c-2.1 0-3.806 1.652-3.806 3.69v.26c0 2.038 1.705 3.69 3.807 3.69h80.386c2.102 0 3.807-1.652 3.807-3.69v-.26c0-2.038-1.706-3.69-3.807-3.69zM351 17h-17v-4.605c0-.77.457-1.395 1.016-1.395h14.968c.56 0 1.016.626 1.016 1.395V17zm21.955 8.045h-66.91c-3.89 0-7.045-.68-7.045 3.266l5.282 78.384c0 3.943 3.155 7.307 7.045 7.307h56.347c3.89 0 7.044-3.363 7.044-7.306L380 28.31c0-3.946-3.155-3.265-7.045-3.265zM324.757 104c-1.283.038-2.353-.8-2.396-1.88L320 41.027c-.04-1.078.965-1.985 2.243-2.025 1.283-.04 2.353.802 2.396 1.88l2.36 61.096c.04 1.076-.965 1.984-2.244 2.023zM341 102.05c0 1.076-.672 1.95-1.5 1.95s-1.5-.876-1.5-1.95v-61.1c0-1.077.672-1.95 1.5-1.95s1.5.873 1.5 1.95v61.1zm18.64.07c-.043 1.08-1.114 1.918-2.397 1.88-1.28-.04-2.283-.948-2.242-2.025l2.36-61.095c.044-1.078 1.114-1.92 2.396-1.88 1.28.043 2.285.948 2.244 2.026l-2.36 61.095z" fill="#E8C48F"/></g></svg>