<svg width="148" height="128" viewBox="0 0 148 128" xmlns="http://www.w3.org/2000/svg"><title>noun_1211_cc + Message</title><desc>Created with Sketch.</desc><g fill="none" fill-rule="evenodd"><path d="M17 37.196h112.558v42.95c0 .373-.08.862-.28 1.294-.2.433-16.573 35.56-16.573 35.56V62.64l16.854-25.444L148 9H35.44L17 37.196zM17 66V38L2 66" fill="#CFCE95"/><path d="M33.91.395l54.505 58.45L70.09 75.93 15.584 17.484 33.91.394z" stroke="#8A704D" stroke-width="2" fill="#FFF9EB"/><text transform="matrix(.682 .731 -.731 .682 15 0)" font-family="Open Sans" font-size="14" font-weight="526" fill="#8A704D"><tspan x="10.393" y="46.282">&amp;quot;Hello!&amp;quot;</tspan></text><path d="M0 68v54.73c0 3.42 1.484 5.27 4.387 5.27h100.086c3.122 0 5.527-2.548 5.527-3.476V68H0z" fill="#CFCE95"/><text font-family="Open Sans" font-size="18" font-weight="526" fill="#fff" transform="translate(-161 -71) translate(161 71)"><tspan x="17" y="105">Message</tspan></text></g></svg>