<svg width="253" height="176" viewBox="0 0 253 176" xmlns="http://www.w3.org/2000/svg"><title>Diagrams 2</title><desc>Created with Sketch.</desc><g fill="none" fill-rule="evenodd"><path stroke="#979797" fill="#E8E8E8" d="M124.865 3.774l54.504 58.42-18.32 17.09-54.505-58.42z"/><text opacity=".7" transform="rotate(47 146.5 43.5)" font-family="Open Sans" font-size="14" fill="#373535"><tspan x="122" y="49">&amp;quot;Hello!&amp;quot;</tspan></text><g fill="#979797"><path d="M242.667 10.63h1.476v25.815h-1.476zm-5.905 0h1.476v25.815h-1.476zm-5.905 0h1.476v25.815h-1.476zM247.095 6.074h-2.952V3.037c0-1.67-1.33-3.037-2.953-3.037h-7.38c-1.624 0-2.953 1.367-2.953 3.037v3.037H222v1.52h2.952v28.85c0 2.582 1.92 4.556 4.43 4.556h16.237c2.51 0 4.425-1.974 4.425-4.556V7.594H253v-1.52h-5.905zm-14.762-3.037c0-.91.59-1.518 1.477-1.518h7.38c.886 0 1.477.603 1.477 1.514V6.07h-10.334V3.038zm16.238 33.407c0 1.67-1.324 3.037-2.95 3.037h-16.24c-1.62 0-2.95-1.362-2.95-3.033V7.597h22.14v28.85z"/></g><path d="M198.796 17.55l.213-6.078c.02-.562.414-1.057 1.01-1.26.597-.2 1.277-.072 1.73.33l14.47 12.855c.313.278.482.655.47 1.042-.015.383-.21.75-.54 1.002l-15.336 11.81c-.312.242-.714.36-1.116.346-.216-.007-.43-.053-.63-.137-.584-.242-.947-.764-.927-1.326l.197-5.595c-1.327-.065-3.35-.16-5.507-.234-1.988-.07-3.732-.112-5.184-.126-7.945-.074-17.388 4.87-17.48 4.92-.517.27-1.165.268-1.68-.013-.514-.28-.81-.788-.763-1.315 1.184-13.563 24.76-15.852 31.068-16.222zm-11.14 9.815c1.482.013 3.257.056 5.277.127 3.75.13 7.114.317 7.148.32.875.047 1.55.696 1.52 1.46l-.13 3.713 11.28-8.685-10.64-9.45-.144 4.1c-.026.74-.7 1.33-1.545 1.35-.26.01-24.1.746-28.742 10.89 3.71-1.594 10.072-3.88 15.98-3.823zM35.196 52.383l4.23-4.376c.39-.404 1.02-.505 1.598-.256.578.25.996.805 1.063 1.407L44.233 68.4c.047.414-.08.807-.35 1.086-.27.28-.658.42-1.074.386l-19.31-1.49c-.395-.03-.77-.21-1.06-.49-.156-.15-.285-.328-.378-.526-.27-.57-.19-1.2.2-1.605l3.893-4.024c-.943-.937-2.385-2.363-3.936-3.862-1.43-1.382-2.7-2.582-3.77-3.564-5.854-5.377-16.18-8.026-16.286-8.05-.566-.145-1.044-.58-1.238-1.134-.196-.553-.075-1.13.312-1.49 9.96-9.286 29.015 4.8 33.95 8.75zm-14.85-.167c1.09 1.002 2.383 2.223 3.837 3.628 2.7 2.61 5.075 5 5.1 5.024.614.62.68 1.554.148 2.104l-2.58 2.672L41.05 66.74l-1.58-14.15-2.85 2.95c-.515.537-1.413.52-2.054-.025-.198-.17-18.408-15.587-28.652-11.156 3.826 1.297 10.085 3.86 14.44 7.86z" fill="#979797"/><path d="M44.5 117h102m-144 56.5l42-56m89 55l42-56M44.5 77h132m-174 56.5l42-56m89 56l42-56M44 117.5v-40" stroke="#979797" stroke-width="2" stroke-linecap="square"/><path stroke="#979797" stroke-width="2" fill="#E8E8E8" d="M64.865 70.774l54.504 58.42-18.32 17.09-54.505-58.42z"/><text transform="rotate(47 86.5 110.5)" font-family="Open Sans" font-size="14" fill="#373535"><tspan x="59" y="116">&amp;quot;World!&amp;quot;</tspan></text><path d="M176 116V77.5" stroke="#979797" stroke-width="2" stroke-linecap="square"/><path stroke="#979797" stroke-width="2" fill="#fff" d="M1 134h133v40H1z"/><g transform="translate(38 147)"><path stroke="#979797" fill="#fff" d="M0 0h63v16H0z"/><circle stroke="#979797" cx="3.5" cy="3.5" r="1.5"/><text font-family="Consolas" font-size="14" fill="#373535"><tspan x="7" y="12">message</tspan></text></g></g></svg>