<svg width="253" height="176" viewBox="0 0 253 176" xmlns="http://www.w3.org/2000/svg"><title>Diagrams 2</title><desc>Created with Sketch.</desc><g fill="none" fill-rule="evenodd"><path stroke="#979797" fill="#E8E8E8" d="M124.865 3.774l54.504 58.42-18.32 17.09-54.508-58.42z"/><text opacity=".7" transform="rotate(47 146.5 43.5)" font-family="Open Sans" font-size="14" fill="#373535"><tspan x="122" y="49">&amp;quot;Hello!&amp;quot;</tspan></text><path d="M242.667 10.63h1.476v25.815h-1.476zm-5.905 0h1.476v25.815h-1.476zm-5.905 0h1.476v25.815h-1.476zm16.238-4.556h-2.952V3.037c0-1.67-1.33-3.037-2.953-3.037h-7.38c-1.624 0-2.953 1.367-2.953 3.037v3.037H222v1.52h2.952v28.85c0 2.582 1.92 4.556 4.43 4.556h16.237c2.51 0 4.422-1.974 4.422-4.556V7.594H253v-1.52h-5.905zm-14.762-3.037c0-.91.59-1.518 1.477-1.518h7.38c.886 0 1.477.6 1.477 1.51v3.04h-10.334V3.038zm16.238 33.407c0 1.67-1.32 3.037-2.95 3.037h-16.24c-1.62 0-2.95-1.36-2.95-3.03V7.598h22.14v28.85zM198.798 17.55l.213-6.078c.02-.562.412-1.057 1.01-1.26.595-.2 1.275-.072 1.73.33l14.47 12.855c.31.278.48.655.47 1.042-.017.38-.21.75-.54 1l-15.34 11.81c-.312.242-.714.36-1.116.346-.216-.007-.43-.053-.63-.137-.584-.244-.947-.766-.927-1.328l.196-5.595c-1.327-.066-3.35-.16-5.507-.235-1.99-.07-3.733-.112-5.185-.126-7.944-.075-17.387 4.87-17.48 4.92-.516.27-1.164.267-1.68-.014-.513-.28-.81-.788-.762-1.315 1.184-13.562 24.76-15.85 31.068-16.22zm-11.14 9.815c1.482.013 3.257.056 5.277.127 3.75.13 7.114.317 7.148.32.877.047 1.55.696 1.52 1.46l-.13 3.713 11.28-8.685-10.64-9.45-.142 4.1c-.026.74-.7 1.33-1.545 1.35-.26.01-24.1.746-28.742 10.89 3.71-1.594 10.073-3.88 15.98-3.823zM35.197 52.383l4.23-4.376c.39-.404 1.02-.505 1.597-.256.578.25.996.808 1.063 1.41l2.146 19.24c.047.415-.08.808-.35 1.087-.27.28-.658.42-1.074.386l-19.31-1.49c-.398-.03-.77-.21-1.06-.49-.16-.15-.288-.328-.38-.526-.27-.57-.19-1.2.2-1.605l3.892-4.022c-.943-.937-2.385-2.363-3.936-3.862-1.43-1.382-2.7-2.582-3.77-3.564-5.854-5.376-16.18-8.025-16.286-8.05-.565-.144-1.043-.58-1.237-1.133-.196-.553-.075-1.13.312-1.49 9.96-9.286 29.015 4.8 33.95 8.75zm-14.85-.167c1.09 1.002 2.382 2.223 3.836 3.628 2.7 2.61 5.075 5 5.1 5.024.614.62.68 1.554.148 2.104l-2.58 2.672 14.2 1.096-1.58-14.15-2.85 2.95c-.513.537-1.41.52-2.052-.025-.198-.17-18.408-15.587-28.652-11.156C9.74 45.653 16 48.22 20.356 52.22z" fill="#979797"/><path d="M44.5 117h102m-144 56.5l42-56m89 55l42-56M44.5 77h132m-174 56.5l42-56m89 56l42-56M44 117.5v-40" stroke="#979797" stroke-width="2" stroke-linecap="square"/><path stroke="#979797" stroke-width="2" fill="#E8E8E8" d="M64.865 70.774l54.504 58.42-18.32 17.09-54.508-58.42z"/><text transform="rotate(47 86.5 110.5)" font-family="Open Sans" font-size="14" fill="#373535"><tspan x="59" y="116">&amp;quot;World!&amp;quot;</tspan></text><path d="M176 116V77.5" stroke="#979797" stroke-width="2" stroke-linecap="square"/><path stroke="#979797" stroke-width="2" fill="#fff" d="M1 134h133v40H1z"/><g transform="translate(38 147)"><path stroke="#979797" fill="#fff" d="M0 0h63v16H0z"/><circle stroke="#979797" cx="3.5" cy="3.5" r="1.5"/><text font-family="Consolas" font-size="14" fill="#373535"><tspan x="7" y="12">message</tspan></text></g></g></svg>