<svg xmlns="http://www.w3.org/2000/svg" width="236" height="52" viewBox="0 0 236 52"><defs><style>@import url(https://fonts.googleapis.com/css?family=Open+Sans:bold,italic,bolditalic%7CPT+Mono);@font-face{font-family:&apos;PT Mono&apos;;font-weight:700;font-style:normal;src:local(&apos;PT MonoBold&apos;),url(/font/PTMonoBold.woff2) format(&apos;woff2&apos;),url(/font/PTMonoBold.woff) format(&apos;woff&apos;),url(/font/PTMonoBold.ttf) format(&apos;truetype&apos;)}</style></defs><g id="regexp" fill="none" fill-rule="evenodd" stroke="none" stroke-width="1"><g id="love-html5-classes.svg" fill-rule="nonzero"><path id="IloveHTML5" fill="#8A704D" d="M10.32 23.6h10.56v1.628h-4.378v12.144h4.378V39H10.32v-1.628h4.356V25.228H10.32V23.6zm36.865 0h3.652v11.704c0 .895.15 1.525.45 1.892.301.367.745.55 1.332.55.41 0 .803-.073 1.177-.22.374-.147.788-.396 1.243-.748l.792 1.21a4.874 4.874 0 01-.77.55 5.717 5.717 0 01-1.738.66 4.17 4.17 0 01-.814.088c-.543 0-1.027-.07-1.452-.209a2.481 2.481 0 01-1.067-.671c-.286-.308-.503-.715-.65-1.221-.146-.506-.22-1.133-.22-1.881v-10.23h-1.935V23.6zm16.419 9.9c0-1.775.462-3.179 1.386-4.213.924-1.034 2.244-1.551 3.96-1.551.924 0 1.72.15 2.387.451.667.3 1.221.708 1.661 1.221.44.513.766 1.122.979 1.826.213.704.319 1.46.319 2.266 0 .88-.117 1.676-.352 2.387a4.959 4.959 0 01-1.034 1.815 4.569 4.569 0 01-1.683 1.155c-.667.271-1.426.407-2.277.407-.91 0-1.701-.15-2.376-.451a4.663 4.663 0 01-1.672-1.221 4.979 4.979 0 01-.979-1.826 7.799 7.799 0 01-.319-2.266zm1.826 0c0 .513.062 1.027.187 1.54.125.513.326.975.605 1.386.279.41.642.74 1.089.99.447.25.994.374 1.639.374 1.173 0 2.057-.363 2.651-1.089.594-.726.891-1.793.891-3.201a6.46 6.46 0 00-.187-1.551 4.098 4.098 0 00-.616-1.375 3.247 3.247 0 00-1.1-.99c-.447-.25-.994-.374-1.639-.374-1.173 0-2.053.36-2.64 1.078-.587.719-.88 1.79-.88 3.212zm21.347 3.366h.242L90.473 28h1.914l-4.642 11H85.81l-4.73-11h2.024l3.674 8.866zm22.778.748a5.537 5.537 0 01-.935.66 6.9 6.9 0 01-1.177.528c-.426.147-.87.26-1.331.341-.462.08-.928.121-1.397.121-.88 0-1.658-.136-2.332-.407a4.49 4.49 0 01-1.694-1.166 5.081 5.081 0 01-1.034-1.815c-.235-.704-.352-1.496-.352-2.376 0-.924.128-1.745.385-2.464.256-.719.627-1.32 1.11-1.804a4.839 4.839 0 011.76-1.111c.69-.257 1.46-.385 2.31-.385.617 0 1.225.08 1.827.242a3.606 3.606 0 011.595.913c.462.447.817 1.063 1.067 1.848.249.785.337 1.8.264 3.047h-8.514c0 1.32.355 2.306 1.067 2.959.711.653 1.66.979 2.849.979.396 0 .788-.048 1.177-.143a9.833 9.833 0 001.11-.341c.353-.132.664-.279.936-.44.271-.161.48-.308.627-.44l.682 1.254zm-4.642-8.426a5.94 5.94 0 00-1.375.154 3.134 3.134 0 00-1.144.517c-.33.242-.602.557-.814.946-.213.389-.349.869-.407 1.441h6.842c-.074-.968-.385-1.72-.935-2.255-.55-.535-1.273-.803-2.167-.803zm38.624 2.75h-6.908V39h-1.826V23.6h1.826v6.71h6.908V23.6h1.826V39h-1.826v-7.062zm8.61-8.338h11.44v4.026h-1.628v-2.398h-3.19v12.144h2.42V39h-6.666v-1.628h2.42V25.228h-3.168v2.398h-1.628V23.6zm26.957 5.17l.22-2.09h-.11l-1.056 1.892-2.244 3.762h-.55l-2.354-3.784-1.012-1.87h-.11l.264 2.068V39h-1.782V23.6h1.694l3.652 5.852h.044l3.52-5.852h1.65V39h-1.826V28.77zm9.71-5.17h1.825v13.772h6.226v-3.828h1.628V39h-9.68V23.6zm21.435 14.124c.557 0 1.07-.07 1.54-.209.469-.14.869-.352 1.199-.638.33-.286.586-.642.77-1.067.183-.425.275-.924.275-1.496 0-1.056-.378-1.859-1.133-2.409-.756-.55-1.786-.825-3.091-.825l-2.068.11V23.6h7.546v1.584h-5.896v4.466l1.1-.044c1.628 0 2.911.396 3.85 1.188.938.792 1.408 1.921 1.408 3.388 0 .821-.143 1.547-.43 2.178a4.59 4.59 0 01-1.176 1.595 5.016 5.016 0 01-1.771.979c-.682.22-1.427.33-2.233.33-.44 0-.858-.033-1.254-.099a9.096 9.096 0 01-1.078-.242 6.533 6.533 0 01-.847-.308c-.242-.11-.415-.209-.517-.297l.704-1.43c.249.147.63.323 1.144.528.513.205 1.166.308 1.958.308z"/><path id="\s\w\w\w\w\d" fill="#F38158" d="M120.216 17.332l-.792.348-4.44-9.888.804-.336 4.428 9.876zm5.04-2.952c0-.256-.1-.454-.3-.594-.2-.14-.448-.252-.744-.336a13.762 13.762 0 00-.966-.234 5.573 5.573 0 01-.966-.288 2.164 2.164 0 01-.744-.486c-.2-.204-.3-.49-.3-.858 0-.304.066-.564.198-.78.132-.216.306-.394.522-.534.216-.14.468-.244.756-.312s.588-.102.9-.102c.56 0 1.042.07 1.446.21.404.14.726.286.966.438l-.384.756c-.264-.144-.55-.282-.858-.414-.308-.132-.694-.198-1.158-.198-.176 0-.35.018-.522.054-.172.036-.328.09-.468.162a.933.933 0 00-.336.282.707.707 0 00-.126.426c0 .208.1.368.3.48.2.112.448.206.744.282.296.076.618.148.966.216s.67.166.966.294c.296.128.544.3.744.516.2.216.3.508.3.876 0 .552-.218 1.008-.654 1.368-.436.36-1.09.54-1.962.54-.264 0-.524-.024-.78-.072a4.73 4.73 0 01-.72-.192 4.332 4.332 0 01-.612-.27 2.574 2.574 0 01-.456-.306l.48-.78c.096.096.224.194.384.294a3.625 3.625 0 001.146.462 3.222 3.222 0 001.272.018c.188-.036.354-.092.498-.168a.926.926 0 00.342-.3.783.783 0 00.126-.45zm12.96 2.952l-.792.348-4.44-9.888.804-.336 4.428 9.876zm3.852-6.012l1.2 3.336h.084l.852-4.656h.876l-1.176 6h-1.068l-1.152-3.312h-.036l-1.2 3.312h-1.068l-1.26-6h.924l.972 4.68h.072l1.164-3.36h.816zm14.148 6.012l-.792.348-4.44-9.888.804-.336 4.428 9.876zm3.852-6.012l1.2 3.336h.084l.852-4.656h.876l-1.176 6h-1.068l-1.152-3.312h-.036l-1.2 3.312h-1.068l-1.26-6h.924l.972 4.68h.072l1.164-3.36h.816zm14.148 6.012l-.792.348-4.44-9.888.804-.336 4.428 9.876zm3.852-6.012l1.2 3.336h.084l.852-4.656h.876l-1.176 6h-1.068l-1.152-3.312h-.036l-1.2 3.312h-1.068l-1.26-6h.924l.972 4.68h.072l1.164-3.36h.816zm14.148 6.012l-.792.348-4.44-9.888.804-.336 4.428 9.876zm3.852-6.012l1.2 3.336h.084l.852-4.656h.876l-1.176 6h-1.068l-1.152-3.312h-.036l-1.2 3.312h-1.068l-1.26-6h.924l.972 4.68h.072l1.164-3.36h.816zm14.148 6.012l-.792.348-4.44-9.888.804-.336 4.428 9.876zm3.972-9.732h1.944v6.348c0 .072.004.162.012.27a13.372 13.372 0 00.072.696c.016.116.032.218.048.306h.804V16h-1.596l-.12-.924h-.048a2.119 2.119 0 01-.786.762 2.34 2.34 0 01-1.206.306c-.904 0-1.57-.254-1.998-.762-.428-.508-.642-1.298-.642-2.37 0-.504.072-.95.216-1.338.144-.388.35-.712.618-.972s.59-.458.966-.594a3.684 3.684 0 011.26-.204c.168 0 .318.004.45.012s.254.02.366.036c.112.016.218.038.318.066l.33.09V8.404h-1.008V7.6zm-.72 7.74c.488 0 .872-.126 1.152-.378.28-.252.472-.63.576-1.134v-2.784a1.858 1.858 0 00-.594-.264 3.645 3.645 0 00-.87-.084c-.64 0-1.144.186-1.512.558-.368.372-.552.958-.552 1.758 0 .328.03.634.09.918.06.284.16.53.3.738.14.208.326.372.558.492.232.12.516.18.852.18z"/></g></g></svg>