<svg xmlns="http://www.w3.org/2000/svg" width="236" height="38" viewBox="0 0 236 38"><defs><style>@import url(https://fonts.googleapis.com/css?family=Open+Sans:bold,italic,bolditalic%7CPT+Mono);@font-face{font-family:&apos;PT Mono&apos;;font-weight:700;font-style:normal;src:local(&apos;PT MonoBold&apos;),url(/font/PTMonoBold.woff2) format(&apos;woff2&apos;),url(/font/PTMonoBold.woff) format(&apos;woff&apos;),url(/font/PTMonoBold.ttf) format(&apos;truetype&apos;)}</style></defs><g id="regexp" fill="none" fill-rule="evenodd" stroke="none" stroke-width="1"><g id="love-html5-classes.svg" fill-rule="nonzero"><path id="IloveHTML5" fill="#8A704D" d="M11 19h10.538v1.66h-4.369v12.388h4.369v1.66H11v-1.66h4.347V20.66H11V19zm36.788 0h3.644v11.938c0 .913.15 1.556.45 1.93.3.374.743.561 1.328.561.41 0 .802-.075 1.175-.224.373-.15.787-.404 1.24-.763l.79 1.234c-.233.21-.49.396-.768.561a5.651 5.651 0 01-1.734.673c-.293.06-.564.09-.812.09a4.554 4.554 0 01-1.45-.213 2.47 2.47 0 01-1.064-.685c-.286-.314-.501-.729-.648-1.245-.146-.516-.22-1.156-.22-1.919V20.504h-1.931V19zm16.385 10.098c0-1.81.46-3.242 1.383-4.297.922-1.055 2.24-1.582 3.952-1.582.922 0 1.716.153 2.382.46a4.683 4.683 0 011.657 1.245c.44.524.765 1.145.977 1.863a8.12 8.12 0 01.319 2.311c0 .898-.118 1.71-.352 2.435-.234.726-.578 1.343-1.032 1.851a4.558 4.558 0 01-1.68 1.178c-.665.277-1.422.416-2.271.416-.908 0-1.698-.154-2.371-.46a4.66 4.66 0 01-1.669-1.246 5.115 5.115 0 01-.977-1.862 8.12 8.12 0 01-.318-2.312zm1.822 0c0 .524.062 1.047.187 1.571.124.524.325.995.603 1.414.278.419.64.755 1.087 1.01.446.254.992.381 1.636.381 1.17 0 2.052-.37 2.645-1.11.593-.741.89-1.83.89-3.266 0-.538-.063-1.066-.187-1.582a4.226 4.226 0 00-.615-1.402 3.266 3.266 0 00-1.098-1.01c-.446-.255-.991-.382-1.635-.382-1.171 0-2.05.367-2.635 1.1-.585.733-.878 1.825-.878 3.276zm21.303 3.434h.241l3.447-9.044h1.91l-4.632 11.22h-1.932l-4.72-11.22h2.02l3.666 9.044zm22.73.763c-.264.239-.575.463-.933.673-.359.21-.75.389-1.175.538a8.46 8.46 0 01-1.328.348 7.92 7.92 0 01-1.394.124c-.878 0-1.654-.139-2.327-.416a4.48 4.48 0 01-1.69-1.189 5.213 5.213 0 01-1.033-1.851c-.234-.718-.351-1.526-.351-2.424 0-.942.128-1.78.384-2.513.256-.733.626-1.347 1.109-1.84a4.816 4.816 0 011.756-1.133c.688-.262 1.456-.393 2.305-.393a6.86 6.86 0 011.823.247c.6.164 1.13.475 1.591.93.461.457.816 1.086 1.065 1.886.249.8.337 1.836.263 3.108h-8.496c0 1.346.355 2.352 1.065 3.018.71.666 1.658.999 2.843.999.395 0 .787-.049 1.175-.146a9.656 9.656 0 001.108-.348c.352-.135.663-.284.933-.449.271-.164.48-.314.626-.449l.68 1.28zm-4.633-8.595c-.483 0-.94.052-1.372.157-.432.105-.812.28-1.141.527-.33.247-.6.569-.813.965-.212.397-.347.887-.406 1.47h6.828c-.073-.987-.384-1.754-.933-2.3-.55-.546-1.27-.82-2.163-.82zm38.544 2.805h-6.893v7.203h-1.822V19h1.822v6.844h6.893V19h1.823v15.708h-1.823v-7.203zM152.531 19h11.416v4.107h-1.625V20.66h-3.183v12.387h2.415v1.66h-6.652v-1.66h2.415V20.66h-3.162v2.446h-1.624V19zm26.9 5.273l.22-2.131h-.11l-1.053 1.93-2.24 3.837h-.548l-2.35-3.86-1.01-1.907h-.11l.264 2.11v10.456h-1.778V19h1.69l3.645 5.97h.044l3.512-5.97h1.647v15.708h-1.822V24.273zm9.69-5.273h1.822v14.048h6.213v-3.905h1.625v5.565h-9.66V19zm21.39 14.407c.557 0 1.069-.071 1.537-.213a3.16 3.16 0 001.197-.651c.33-.292.585-.655.768-1.089.183-.433.275-.942.275-1.526 0-1.077-.377-1.896-1.131-2.457-.754-.56-1.782-.841-3.085-.841l-2.063.112V19h7.53v1.616h-5.884v4.555l1.098-.045c1.625 0 2.905.404 3.842 1.212.937.808 1.405 1.96 1.405 3.456 0 .838-.143 1.578-.428 2.221a4.677 4.677 0 01-1.175 1.627 4.976 4.976 0 01-1.767.999 7.079 7.079 0 01-2.228.337c-.44 0-.857-.034-1.252-.101a8.91 8.91 0 01-1.075-.247 6.429 6.429 0 01-.846-.314c-.241-.113-.413-.214-.516-.303l.703-1.459c.249.15.63.33 1.142.539.512.209 1.163.314 1.953.314z"/><path id="\s\w\w\w\w\d" fill="#F38158" d="M122.288 13.776l-1.056.464-5.92-13.184 1.072-.448 5.904 13.168zm4.563-3.936c0-.341-.133-.605-.4-.792a3.282 3.282 0 00-.992-.448 18.35 18.35 0 00-1.288-.312 7.43 7.43 0 01-1.288-.384 2.886 2.886 0 01-.992-.648c-.267-.272-.4-.653-.4-1.144 0-.405.088-.752.264-1.04.176-.288.408-.525.696-.712a3.181 3.181 0 011.008-.416c.384-.09.784-.136 1.2-.136.747 0 1.39.093 1.928.28.539.187.968.381 1.288.584l-.512 1.008a13.475 13.475 0 00-1.144-.552c-.41-.176-.925-.264-1.544-.264-.235 0-.467.024-.696.072a2.46 2.46 0 00-.624.216 1.244 1.244 0 00-.448.376.943.943 0 00-.168.568c0 .277.133.49.4.64.267.15.597.275.992.376.395.101.824.197 1.288.288.464.09.893.221 1.288.392.395.17.725.4.992.688.267.288.4.677.4 1.168 0 .736-.29 1.344-.872 1.824-.581.48-1.453.72-2.616.72-.352 0-.699-.032-1.04-.096a6.308 6.308 0 01-.96-.256 5.776 5.776 0 01-.816-.36 3.431 3.431 0 01-.608-.408l.64-1.04c.128.128.299.259.512.392a4.833 4.833 0 001.528.616 4.296 4.296 0 001.696.024c.25-.048.472-.123.664-.224.192-.101.344-.235.456-.4.112-.165.168-.365.168-.6zm12.966 3.936l-1.056.464-5.92-13.184 1.072-.448 5.904 13.168zm2.978-8.016l1.6 4.448h.112L145.643 4h1.168l-1.568 8h-1.424l-1.536-4.416h-.048l-1.6 4.416h-1.424l-1.68-8h1.232l1.296 6.24h.096l1.552-4.48h1.088zm14.55 8.016l-1.056.464-5.92-13.184 1.072-.448 5.904 13.168zm2.979-8.016l1.6 4.448h.112L163.172 4h1.168l-1.568 8h-1.424l-1.536-4.416h-.048l-1.6 4.416h-1.424l-1.68-8h1.232l1.296 6.24h.096l1.552-4.48h1.088zm14.55 8.016l-1.056.464-5.92-13.184 1.072-.448 5.904 13.168zm2.979-8.016l1.6 4.448h.112L180.7 4h1.168l-1.568 8h-1.424l-1.536-4.416h-.048l-1.6 4.416h-1.424l-1.68-8h1.232l1.296 6.24h.096l1.552-4.48h1.088zm14.55 8.016l-1.057.464-5.92-13.184 1.072-.448 5.904 13.168zm2.978-8.016l1.6 4.448h.112L198.23 4h1.168l-1.568 8h-1.424l-1.536-4.416h-.048l-1.6 4.416h-1.424l-1.68-8h1.232l1.296 6.24h.096l1.552-4.48h1.088zm14.55 8.016l-1.056.464-5.92-13.184 1.072-.448 5.904 13.168zM213.07.8h2.592v8.464c0 .096.005.216.016.36a17.83 17.83 0 00.096.928c.021.155.042.29.064.408h1.072V12h-2.128l-.16-1.232h-.064c-.235.405-.584.744-1.048 1.016-.464.272-1 .408-1.608.408-1.206 0-2.094-.339-2.664-1.016-.571-.677-.856-1.73-.856-3.16 0-.672.096-1.267.288-1.784.192-.517.466-.95.824-1.296.357-.347.786-.61 1.288-.792a4.912 4.912 0 011.68-.272c.224 0 .424.005.6.016.176.01.338.027.488.048.149.021.29.05.424.088l.44.12V1.872h-1.344V.8zm-.96 10.32c.65 0 1.162-.168 1.536-.504.373-.336.629-.84.768-1.512V5.392a2.478 2.478 0 00-.792-.352c-.294-.075-.68-.112-1.16-.112-.854 0-1.526.248-2.016.744-.491.496-.736 1.277-.736 2.344 0 .437.04.845.12 1.224.08.379.213.707.4.984.186.277.434.496.744.656.309.16.688.24 1.136.24z"/></g></g></svg>