<?xml version="1.0" encoding="UTF-8"?>
<svg width="692px" height="411px" viewBox="0 0 692 411" version="1.1" xmlns="http://www.w3.org/2000/svg" xmlns:xlink="http://www.w3.org/1999/xlink">
    <!-- Generator: sketchtool 55.2 (78181) - https://sketchapp.com -->
    <title>native-prototypes-classes.svg</title>
    <desc>Created with sketchtool.</desc>
    <g id="inheritance" stroke="none" stroke-width="1" fill="none" fill-rule="evenodd">
        <g id="native-prototypes-classes.svg">
            <rect id="Rectangle-1" stroke="#E8C48E" stroke-width="2" fill="#FFF9EB" x="240" y="93" width="198" height="58"></rect>
            <text id="toString:-function" font-family="PTMono-Regular, PT Mono" font-size="14" font-weight="normal" fill="#8A704D">
                <tspan x="250" y="116">toString: function</tspan>
                <tspan x="250" y="131">other object methods</tspan>
            </text>
            <text id="Object.prototype" font-family="PTMono-Regular, PT Mono" font-size="14" font-weight="normal" fill="#8A704D">
                <tspan x="239" y="85">Object.prototype</tspan>
            </text>
            <path id="Line-2" d="M300.5,41.5 L300.5,69.5 L298.5,69.5 L298.5,41.5 L292.5,41.5 L299.5,27.5 L306.5,41.5 L300.5,41.5 Z" fill="#EE6B47" fill-rule="nonzero"></path>
            <path id="Line-3" d="M300.5,174.5 L300.5,202.5 L298.5,202.5 L298.5,174.5 L292.5,174.5 L299.5,160.5 L306.5,174.5 L300.5,174.5 Z" fill="#EE6B47" fill-rule="nonzero"></path>
            <text id="null" font-family="PTMono-Regular, PT Mono" font-size="14" font-weight="normal" fill="#8A704D">
                <tspan x="285" y="16">null</tspan>
            </text>
            <rect id="Rectangle-1" stroke="#E8C48E" stroke-width="2" fill="#FFF9EB" x="14" y="224" width="198" height="58"></rect>
            <text id="slice:-function" font-family="PTMono-Regular, PT Mono" font-size="14" font-weight="normal" fill="#8A704D">
                <tspan x="24" y="247">slice: function</tspan>
                <tspan x="24" y="262">other array methods</tspan>
            </text>
            <text id="[[Prototype]]" font-family="PTMono-Regular, PT Mono" font-size="14" font-weight="normal" fill="#8A704D">
                <tspan x="66" y="174">[[Prototype]]</tspan>
            </text>
            <text id="[[Prototype]]-Copy-6" font-family="PTMono-Regular, PT Mono" font-size="14" font-weight="normal" fill="#8A704D">
                <tspan x="518" y="175">[[Prototype]]</tspan>
            </text>
            <text id="[[Prototype]]-Copy" font-family="PTMono-Regular, PT Mono" font-size="14" font-weight="normal" fill="#8A704D">
                <tspan x="310" y="187">[[Prototype]]</tspan>
            </text>
            <text id="[[Prototype]]-Copy-2" font-family="PTMono-Regular, PT Mono" font-size="14" font-weight="normal" fill="#8A704D">
                <tspan x="310" y="54">[[Prototype]]</tspan>
            </text>
            <text id="[[Prototype]]" font-family="PTMono-Regular, PT Mono" font-size="14" font-weight="normal" fill="#8A704D">
                <tspan x="310" y="317">[[Prototype]]</tspan>
            </text>
            <text id="[[Prototype]]-Copy-4" font-family="PTMono-Regular, PT Mono" font-size="14" font-weight="normal" fill="#8A704D">
                <tspan x="582" y="317">[[Prototype]]</tspan>
            </text>
            <text id="[[Prototype]]-Copy-5" font-family="PTMono-Regular, PT Mono" font-size="14" font-weight="normal" fill="#8A704D">
                <tspan x="117" y="317">[[Prototype]]</tspan>
            </text>
            <text id="Array.prototype" font-family="PTMono-Regular, PT Mono" font-size="14" font-weight="normal" fill="#8A704D">
                <tspan x="13" y="216">Array.prototype</tspan>
            </text>
            <rect id="Rectangle-1" stroke="#E8C48E" stroke-width="2" fill="#FFF9EB" x="243" y="224" width="198" height="58"></rect>
            <text id="call:-function-other" font-family="PTMono-Regular, PT Mono" font-size="14" font-weight="normal" fill="#8A704D">
                <tspan x="253" y="247">call: function</tspan>
                <tspan x="253" y="262">other function methods</tspan>
            </text>
            <text id="Function.prototype" font-family="PTMono-Regular, PT Mono" font-size="14" font-weight="normal" fill="#8A704D">
                <tspan x="242" y="216">Function.prototype</tspan>
            </text>
            <rect id="Rectangle-1" stroke="#E8C48E" stroke-width="2" fill="#FFF9EB" x="474" y="224" width="198" height="58"></rect>
            <text id="toFixed:-function" font-family="PTMono-Regular, PT Mono" font-size="14" font-weight="normal" fill="#8A704D">
                <tspan x="484" y="247">toFixed: function</tspan>
                <tspan x="484" y="262">other number methods</tspan>
            </text>
            <text id="Number.prototype" font-family="PTMono-Regular, PT Mono" font-size="14" font-weight="normal" fill="#8A704D">
                <tspan x="473" y="216">Number.prototype</tspan>
            </text>
            <path id="Line" d="M208.207627,164.274774 L142.011099,194.827018 L141.172982,193.011099 L207.36951,162.458855 L204.855161,157.011099 L220.5,157.5 L210.721976,169.72253 L208.207627,164.274774 Z" fill="#EE6B47" fill-rule="nonzero"></path>
            <path id="Line" d="M475.605882,162.523529 L540.829412,193.017647 L539.982353,194.829412 L474.758824,164.335294 L472.217647,169.770588 L462.5,157.5 L478.147059,157.088235 L475.605882,162.523529 Z" fill="#EE6B47" fill-rule="nonzero"></path>
            <rect id="Rectangle-5" stroke="#E8C48E" stroke-width="2" fill="#FFF9EB" x="48" y="339" width="117" height="23"></rect>
            <text id="[1,-2,-3]" font-family="PTMono-Regular, PT Mono" font-size="14" font-weight="normal" fill="#8A704D">
                <tspan x="71" y="354">[1, 2, 3]</tspan>
            </text>
            <rect id="Rectangle-6" stroke="#E8C48E" stroke-width="2" fill="#FFF9EB" x="243" y="339" width="198" height="65"></rect>
            <text id="function-f(args)-{" font-family="PTMono-Regular, PT Mono" font-size="14" font-weight="normal" fill="#8A704D">
                <tspan x="264" y="358">function f(args) {</tspan>
                <tspan x="264" y="373">  ...</tspan>
                <tspan x="264" y="388">}</tspan>
            </text>
            <rect id="Rectangle-7" stroke="#E8C48E" stroke-width="2" fill="#FFF9EB" x="541" y="339" width="69" height="23"></rect>
            <text id="5" font-family="PTMono-Regular, PT Mono" font-size="14" font-weight="normal" fill="#8A704D">
                <tspan x="573" y="355">5</tspan>
            </text>
            <path id="Line-4" d="M300.5,304.5 L300.5,332.5 L298.5,332.5 L298.5,304.5 L292.5,304.5 L299.5,290.5 L306.5,304.5 L300.5,304.5 Z" fill="#EE6B47" fill-rule="nonzero"></path>
            <path id="Line-5" d="M577.5,304.5 L577.5,332.5 L575.5,332.5 L575.5,304.5 L569.5,304.5 L576.5,290.5 L583.5,304.5 L577.5,304.5 Z" fill="#EE6B47" fill-rule="nonzero"></path>
            <path id="Line-6" d="M107.5,304.5 L107.5,332.5 L105.5,332.5 L105.5,304.5 L99.5,304.5 L106.5,290.5 L113.5,304.5 L107.5,304.5 Z" fill="#EE6B47" fill-rule="nonzero"></path>
        </g>
    </g>
</svg>