<?xml version="1.0" encoding="UTF-8"?>
<svg width="449px" height="157px" viewBox="0 0 449 157" version="1.1" xmlns="http://www.w3.org/2000/svg" xmlns:xlink="http://www.w3.org/1999/xlink">
    <!-- Generator: sketchtool 55.2 (78181) - https://sketchapp.com -->
    <title>rabbit-prototype-constructor.svg</title>
    <desc>Created with sketchtool.</desc>
    <g id="inheritance" stroke="none" stroke-width="1" fill="none" fill-rule="evenodd">
        <g id="rabbit-prototype-constructor.svg">
            <g id="Line-Copy-5-+-Line-Copy-4-+-Line-Copy-3" transform="translate(267.500000, 79.000000) scale(-1, 1) rotate(-180.000000) translate(-267.500000, -79.000000) translate(224.000000, 50.000000)" stroke="#EC6B4E" stroke-linecap="square" stroke-width="2">
                <path d="M86.372208,4.4122072 C86.372208,4.4122072 86.372208,-11.5862 86.372208,19.3384447 C86.372208,50.2630894 1.10897436,50.2630894 1.10897436,50.2630894" id="Line-Copy-5" stroke-dasharray="1,2,1,8"></path>
                <path d="M1.66346154,49.7604585 L10.5352564,40.7131024" id="Line-Copy-4"></path>
                <path d="M0.554487179,50.7657203 L8.31730769,56.797291" id="Line-Copy-3"></path>
            </g>
            <path d="M248,23 L248,51 L406,51 L406,23 L248,23 Z" id="Rectangle-1" stroke="#E8C48E" stroke-width="2" fill="#FFF9EB"></path>
            <text id="default-&quot;prototype&quot;" font-family="PTMono-Regular, PT Mono" font-size="14" font-weight="normal" fill="#8A704D">
                <tspan x="248.2" y="15">default "prototype"</tspan>
            </text>
            <rect id="Rectangle-1-Copy" stroke="#E8C48E" stroke-width="2" fill="#FFF9EB" x="248" y="121" width="158" height="28"></rect>
            <rect id="Rectangle-1-Copy-2" stroke="#E8C48E" stroke-width="2" fill="#FFF9EB" x="10" y="23" width="99" height="28"></rect>
            <text id="Rabbit" font-family="PTMono-Regular, PT Mono" font-size="14" font-weight="normal" fill="#8A704D">
                <tspan x="9" y="15">Rabbit</tspan>
            </text>
            <text id="rabbit" font-family="PTMono-Regular, PT Mono" font-size="14" font-weight="normal" fill="#8A704D">
                <tspan x="248" y="112">rabbit</tspan>
            </text>
            <path id="Line" d="M324.5,79.5 L324.5,107.5 L322.5,107.5 L322.5,79.5 L316.5,79.5 L323.5,65.5 L330.5,79.5 L324.5,79.5 Z" fill="#EE6B47" fill-rule="nonzero"></path>
            <path id="Line-Copy" d="M197,35 L127,35 L127,33 L197,33 L197,27 L211,34 L197,41 L197,35 Z" fill="#EE6B47" fill-rule="nonzero"></path>
            <path id="Line-Copy-2" d="M142,43 L212,43 L212,45 L142,45 L142,51 L128,44 L142,37 L142,43 Z" fill="#EE6B47" fill-rule="nonzero"></path>
            <text id="[[Prototype]]" font-family="PTMono-Regular, PT Mono" font-size="14" font-weight="normal" fill="#8A704D">
                <tspan x="333" y="89">[[Prototype]]</tspan>
            </text>
            <text id="prototype" font-family="PTMono-Regular, PT Mono" font-size="14" font-weight="normal" fill="#8A704D">
                <tspan x="134" y="22">prototype</tspan>
            </text>
            <text id="constructor" font-family="PTMono-Regular, PT Mono" font-size="14" font-weight="normal" fill="#8A704D">
                <tspan x="128" y="62">constructor</tspan>
            </text>
        </g>
    </g>
</svg>