<svg xmlns="http://www.w3.org/2000/svg" width="668" height="192" viewBox="0 0 668 192"><defs><style>@import url(https://fonts.googleapis.com/css?family=Open+Sans:bold,italic,bolditalic%7CPT+Mono);@font-face{font-family:&apos;PT Mono&apos;;font-weight:700;font-style:normal;src:local(&apos;PT MonoBold&apos;),url(/font/PTMonoBold.woff2) format(&apos;woff2&apos;),url(/font/PTMonoBold.woff) format(&apos;woff&apos;),url(/font/PTMonoBold.ttf) format(&apos;truetype&apos;)}</style></defs><g id="data-storage" fill="none" fill-rule="evenodd" stroke="none" stroke-width="1"><g id="cookie-third-party.svg"><path id="Rectangle-1" fill="#FFF9EB" stroke="#E8C48E" stroke-width="2" d="M38 48h282v99H38z"/><text id="&lt;img-src=&quot;https://ad" fill="#8A704D" font-family="OpenSans-Regular, Open Sans" font-size="14" font-weight="normal"><tspan x="42" y="70">&lt;img src=&quot;https://ads.com/banner.png&quot;&gt;</tspan></text><text id="site.com" fill="#8A704D" font-family="OpenSans-Bold, Open Sans" font-size="14" font-weight="bold"><tspan x="149" y="36">site.com</tspan></text><path id="Rectangle-1-Copy" fill="#FFF9EB" stroke="#E8C48E" stroke-width="2" d="M505 48h140v99H505z"/><text id="ads.com" fill="#8A704D" font-family="OpenSans-Bold, Open Sans" font-size="14" font-weight="bold"><tspan x="543" y="36">ads.com</tspan></text><path id="Line" fill="#EE6B47" fill-rule="nonzero" d="M321.643 64.375l.991.134 163.127 22.119.806-5.946L499.5 89.5l-14.814 5.055.806-5.945-163.126-22.12-.991-.133.268-1.982z"/><path id="Line-Copy" fill="#EE6B47" fill-rule="nonzero" d="M500.366 105.882l.252 1.984-.992.126-163.112 20.734.757 5.953L322.5 129.5l13.006-8.71.755 5.952 163.113-20.734.992-.126z"/><text id="GET-/banner.png" fill="#8A704D" font-family="OpenSans-Regular, Open Sans" font-size="14" font-weight="normal" transform="rotate(7 416.568 65.382)"><tspan x="361.068" y="70.882">GET /banner.png</tspan></text><text id="Set-Cookie:-id=123" fill="#8A704D" font-family="OpenSans-Regular, Open Sans" font-size="14" font-weight="normal" transform="rotate(-7 413.469 128.991)"><tspan x="352.969" y="134.491">Set-Cookie: id=123</tspan></text></g></g></svg>