<?xml version="1.0" encoding="UTF-8" standalone="no"?>
<svg width="570px" height="183px" viewBox="0 0 570 183" version="1.1" xmlns="http://www.w3.org/2000/svg" xmlns:xlink="http://www.w3.org/1999/xlink" xmlns:sketch="http://www.bohemiancoding.com/sketch/ns">
    <!-- Generator: bin/sketchtool 1.3 (252) - http://www.bohemiancoding.com/sketch -->
    <title>setinterval-interval.svg</title>
    <desc>Created with bin/sketchtool.</desc>
    <defs></defs>
    <g id="combined" stroke="none" stroke-width="1" fill="none" fill-rule="evenodd" sketch:type="MSPage">
        <g id="setinterval-interval.svg" sketch:type="MSArtboardGroup">
            <path d="M10.5,109 L560.5,109" id="Line" stroke="#BCA68E" stroke-width="2" stroke-linecap="square" sketch:type="MSShapeGroup"></path>
            <rect id="Rectangle-1" stroke="#BCA68E" stroke-width="2" fill="#FFFFFF" sketch:type="MSShapeGroup" x="109" y="88" width="90" height="40"></rect>
            <text id="func(1)" sketch:type="MSTextLayer" font-family="Consolas" font-size="14" font-weight="normal" fill="#8A704D">
                <tspan x="131" y="112">func(1)</tspan>
            </text>
            <path d="M128.581818,34.3424658 L118.911364,31.4383562 L126.490909,15.2739726 L106.470455,36.0958904 L116.193182,39 L110.286364,54.890411 L128.581818,34.3424658 L128.581818,34.3424658 Z M108.195455,35.6575342 L123.302273,19.9315068 L117.604545,32.0410959 L126.856818,34.7808219 L112.9,50.6164384 L117.447727,38.3972603 L108.195455,35.6575342 L108.195455,35.6575342 Z" id="Shape" stroke="#EE6B47" stroke-width="3" stroke-linecap="square" fill="#EE6B47" sketch:type="MSShapeGroup"></path>
            <path d="M109,142.5 L109,72.5" id="Line" stroke="#BCA68E" stroke-width="2" stroke-linecap="square" sketch:type="MSShapeGroup"></path>
            <rect id="Rectangle-1" stroke="#BCA68E" stroke-width="2" fill="#FFFFFF" sketch:type="MSShapeGroup" x="252" y="88" width="90" height="40"></rect>
            <text id="func(2)" sketch:type="MSTextLayer" font-family="Consolas" font-size="14" font-weight="normal" fill="#8A704D">
                <tspan x="274" y="112">func(2)</tspan>
            </text>
            <path d="M271.581818,34.3424658 L261.911364,31.4383562 L269.490909,15.2739726 L249.470455,36.0958904 L259.193182,39 L253.286364,54.890411 L271.581818,34.3424658 L271.581818,34.3424658 Z M251.195455,35.6575342 L266.302273,19.9315068 L260.604545,32.0410959 L269.856818,34.7808219 L255.9,50.6164384 L260.447727,38.3972603 L251.195455,35.6575342 L251.195455,35.6575342 Z" id="Shape" stroke="#EE6B47" stroke-width="3" stroke-linecap="square" fill="#EE6B47" sketch:type="MSShapeGroup"></path>
            <path d="M252,142.5 L252,72.5" id="Line" stroke="#BCA68E" stroke-width="2" stroke-linecap="square" sketch:type="MSShapeGroup"></path>
            <rect id="Rectangle-1" stroke="#BCA68E" stroke-width="2" fill="#FFFFFF" sketch:type="MSShapeGroup" x="386" y="88" width="90" height="40"></rect>
            <text id="func(3)" sketch:type="MSTextLayer" font-family="Consolas" font-size="14" font-weight="normal" fill="#8A704D">
                <tspan x="408" y="112">func(3)</tspan>
            </text>
            <path d="M405.581818,34.3424658 L395.911364,31.4383562 L403.490909,15.2739726 L383.470455,36.0958904 L393.193182,39 L387.286364,54.890411 L405.581818,34.3424658 L405.581818,34.3424658 Z M385.195455,35.6575342 L400.302273,19.9315068 L394.604545,32.0410959 L403.856818,34.7808219 L389.9,50.6164384 L394.447727,38.3972603 L385.195455,35.6575342 L385.195455,35.6575342 Z" id="Shape" stroke="#EE6B47" stroke-width="3" stroke-linecap="square" fill="#EE6B47" sketch:type="MSShapeGroup"></path>
            <path d="M386,142.5 L386,72.5" id="Line" stroke="#BCA68E" stroke-width="2" stroke-linecap="square" sketch:type="MSShapeGroup"></path>
            <text id="100" sketch:type="MSTextLayer" font-family="Consolas" font-size="18" font-weight="normal" fill="#8A704D">
                <tspan x="93" y="170">100</tspan>
            </text>
            <text id="200" sketch:type="MSTextLayer" font-family="Consolas" font-size="18" font-weight="normal" fill="#8A704D">
                <tspan x="237" y="170">200</tspan>
            </text>
            <text id="300" sketch:type="MSTextLayer" font-family="Consolas" font-size="18" font-weight="normal" fill="#8A704D">
                <tspan x="372" y="170">300</tspan>
            </text>
            <path d="M199.5,109.5 L249.5,109.5" id="Line" stroke="#EE6B47" stroke-width="3" stroke-linecap="square" sketch:type="MSShapeGroup"></path>
            <path d="M342.5,109.5 L383.5,109.5" id="Line-2" stroke="#EE6B47" stroke-width="3" stroke-linecap="square" sketch:type="MSShapeGroup"></path>
        </g>
    </g>
</svg>