<svg width="631" height="223" viewBox="0 0 631 223" xmlns="http://www.w3.org/2000/svg"><title>setinterval-interval</title><desc>Created with Sketch.</desc><g fill="none" fill-rule="evenodd"><path d="M32.5 122.5h550" id="Line" stroke="#979797" stroke-linecap="square"/><path stroke="#979797" fill="#fff" d="M131 101h90v40h-90z"/><text font-family="Consolas" font-size="14" fill="#000" transform="translate(128 41)"><tspan x="25" y="84">func(1)</tspan></text><path d="M150.582 60.342l-9.67-2.904 7.58-16.164-20.022 20.822L138.193 65l-5.907 15.89 18.296-20.548zm-20.387 1.316l15.107-15.726-5.697 12.11 9.252 2.74L134.9 76.615l4.548-12.22-9.253-2.738z" fill="#000"/><path d="M131 155.5v-70" stroke="#373535" stroke-width="2" stroke-linecap="square"/><path stroke="#979797" fill="#fff" d="M274 101h90v40h-90z"/><text font-family="Consolas" font-size="14" fill="#000" transform="translate(271 41)"><tspan x="25" y="84">func(2)</tspan></text><path d="M293.582 60.342l-9.67-2.904 7.58-16.164-20.022 20.822L281.193 65l-5.907 15.89 18.296-20.548zm-20.387 1.316l15.107-15.726-5.697 12.11 9.252 2.74L277.9 76.615l4.548-12.22-9.253-2.738z" fill="#000"/><path d="M274 155.5v-70" stroke="#373535" stroke-width="2" stroke-linecap="square"/><path stroke="#979797" fill="#fff" d="M408 101h90v40h-90z"/><text font-family="Consolas" font-size="14" fill="#000" transform="translate(405 41)"><tspan x="25" y="84">func(3)</tspan></text><path d="M427.582 60.342l-9.67-2.904 7.58-16.164-20.022 20.822L415.193 65l-5.907 15.89 18.296-20.548zm-20.387 1.316l15.107-15.726-5.697 12.11 9.252 2.74L411.9 76.615l4.548-12.22-9.253-2.738z" fill="#000"/><path d="M408 155.5v-70" stroke="#373535" stroke-width="2" stroke-linecap="square"/><text font-family="Consolas" font-size="18" fill="#000"><tspan x="115" y="183">100</tspan></text><text font-family="Consolas" font-size="18" fill="#000"><tspan x="259" y="183">200</tspan></text><text font-family="Consolas" font-size="18" fill="#000"><tspan x="394" y="183">300</tspan></text><path d="M221.5 122.5h50m93 0h41" stroke="#4990E2" stroke-width="3" stroke-linecap="square"/></g></svg>