<svg width="570" height="183" viewBox="0 0 570 183" xmlns="http://www.w3.org/2000/svg"><title>setinterval-interval.svg</title><desc>Created with bin/sketchtool.</desc><g fill="none" fill-rule="evenodd"><g><path d="M10.5 109h550" id="Line" stroke="#BCA68E" stroke-width="2" stroke-linecap="square"/><path id="Rectangle-1" stroke="#BCA68E" stroke-width="2" fill="#fff" d="M109 88h90v40h-90z"/><text font-family="Consolas" font-size="14" fill="#8A704D"><tspan x="131" y="112">func(1)</tspan></text><path d="M128.582 34.342l-9.67-2.904 7.58-16.164-20.022 20.822L116.193 39l-5.907 15.89 18.296-20.548zm-20.387 1.316l15.107-15.726-5.697 12.11 9.252 2.74L112.9 50.615l4.548-12.22-9.253-2.738z" id="Shape" stroke="#EE6B47" stroke-linecap="square" fill="#EE6B47"/><path d="M109 142.5v-70" id="Line" stroke="#BCA68E" stroke-width="2" stroke-linecap="square"/><path id="Rectangle-1" stroke="#BCA68E" stroke-width="2" fill="#fff" d="M252 88h90v40h-90z"/><text font-family="Consolas" font-size="14" fill="#8A704D"><tspan x="274" y="112">func(2)</tspan></text><path d="M271.582 34.342l-9.67-2.904 7.58-16.164-20.022 20.822L259.193 39l-5.907 15.89 18.296-20.548zm-20.387 1.316l15.107-15.726-5.697 12.11 9.252 2.74L255.9 50.615l4.548-12.22-9.253-2.738z" id="Shape" stroke="#EE6B47" stroke-linecap="square" fill="#EE6B47"/><path d="M252 142.5v-70" id="Line" stroke="#BCA68E" stroke-width="2" stroke-linecap="square"/><path stroke="#BCA68E" stroke-width="2" fill="#fff" d="M386 88h90v40h-90z"/><text font-family="Consolas" font-size="14" fill="#8A704D"><tspan x="408" y="112">func(3)</tspan></text><path d="M405.582 34.342l-9.67-2.904 7.58-16.164-20.022 20.822L393.193 39l-5.907 15.89 18.296-20.548zm-20.387 1.316l15.107-15.726-5.697 12.11 9.252 2.74L389.9 50.615l4.548-12.22-9.253-2.738z" stroke="#EE6B47" stroke-linecap="square" fill="#EE6B47"/><path d="M386 142.5v-70" id="Line" stroke="#BCA68E" stroke-width="2" stroke-linecap="square"/><text font-family="Consolas" font-size="18" fill="#8A704D"><tspan x="93" y="170">100</tspan></text><text font-family="Consolas" font-size="18" fill="#8A704D"><tspan x="237" y="170">200</tspan></text><text font-family="Consolas" font-size="18" fill="#8A704D"><tspan x="372" y="170">300</tspan></text><path d="M199.5 109.5h50" stroke="#EE6B47" stroke-width="3" stroke-linecap="square"/><path d="M342.5 109.5h41" stroke="#EE6B47" stroke-width="3" stroke-linecap="square"/></g></g></svg>