<svg width="631" height="223" viewBox="0 0 631 223" xmlns="http://www.w3.org/2000/svg"><title>settimeout-interval</title><desc>Created with Sketch.</desc><g fill="none" fill-rule="evenodd"><path d="M32.5 122.5h550" id="Line" stroke="#979797" stroke-linecap="square"/><path stroke="#979797" fill="#fff" d="M51 101h90v40H51z"/><text font-family="Consolas" font-size="14" fill="#000" transform="translate(48 41)"><tspan x="25" y="84">func(1)</tspan></text><path d="M70.582 60.342l-9.67-2.904 7.58-16.164L48.47 62.096 58.193 65l-5.907 15.89 18.296-20.548zm-20.387 1.316l15.107-15.726-5.697 12.11 9.252 2.74L54.9 76.615l4.548-12.22-9.253-2.738z" fill="#000"/><path d="M51 155.5v-70" id="Line" stroke="#373535" stroke-width="2" stroke-linecap="square"/><path stroke="#979797" fill="#fff" d="M245 101h90v40h-90z"/><text font-family="Consolas" font-size="14" fill="#000" transform="translate(242 41)"><tspan x="25" y="84">func(2)</tspan></text><path d="M264.582 60.342l-9.67-2.904 7.58-16.164-20.022 20.822L252.193 65l-5.907 15.89 18.296-20.548zm-20.387 1.316l15.107-15.726-5.697 12.11 9.252 2.74L248.9 76.615l4.548-12.22-9.253-2.738z" fill="#000"/><path d="M245 155.5v-70" id="Line" stroke="#373535" stroke-width="2" stroke-linecap="square"/><path stroke="#979797" fill="#fff" d="M439 101h90v40h-90z"/><text font-family="Consolas" font-size="14" fill="#000" transform="translate(436 41)"><tspan x="25" y="84">func(3)</tspan></text><path d="M458.582 60.342l-9.67-2.904 7.58-16.164-20.022 20.822L446.193 65l-5.907 15.89 18.296-20.548zm-20.387 1.316l15.107-15.726-5.697 12.11 9.252 2.74L442.9 76.615l4.548-12.22-9.253-2.738z" fill="#000"/><path d="M439 155.5v-70" stroke="#373535" stroke-width="2" stroke-linecap="square"/><text font-family="Consolas" font-size="18" fill="#000"><tspan x="179" y="201">100</tspan></text><text font-family="Consolas" font-size="18" fill="#000"><tspan x="372" y="201">100</tspan></text><path d="M142.5 122.5h100" stroke="#4990E2" stroke-width="3" stroke-linecap="square"/><path d="M142.5 176.5h100m0 0l-8-5m-84 10l-8-5m92 5l8-5m-100 0l8-5M336.5 176.5h100m0 0l-8-5m-84 10l-8-5m92 5l8-5m-100 0l8-5" stroke-linecap="square" stroke="#4990E2"/><path d="M336.5 122.5h100" stroke="#4990E2" stroke-width="3" stroke-linecap="square"/></g></svg>