<svg width="574" height="204" viewBox="0 0 574 204" xmlns="http://www.w3.org/2000/svg"><title>settimeout-interval.svg</title><desc>Created with bin/sketchtool.</desc><g fill="none" fill-rule="evenodd"><g><path d="M11.5 108h550" id="Line" stroke="#BCA68E" stroke-width="2" stroke-linecap="square"/><path id="Rectangle-1" stroke="#BCA68E" stroke-width="2" fill="#fff" d="M60 87h90v40H60z"/><text font-family="Consolas" font-size="14" fill="#8A704D"><tspan x="82" y="111">func(1)</tspan></text><path d="M79.582 33.342l-9.67-2.904 7.58-16.164L57.47 35.096 67.193 38l-5.907 15.89 18.296-20.548zm-20.387 1.316l15.107-15.726-5.697 12.11 9.252 2.74L63.9 49.615l4.548-12.22-9.253-2.738z" id="Shape" stroke="#EE6B47" stroke-linecap="square" fill="#EE6B47"/><path d="M60 141.5v-70" id="Line" stroke="#BCA68E" stroke-width="2" stroke-linecap="square"/><path id="Rectangle-1" stroke="#BCA68E" stroke-width="2" fill="#fff" d="M253 87h90v40h-90z"/><text font-family="Consolas" font-size="14" fill="#8A704D"><tspan x="275" y="111">func(2)</tspan></text><path d="M272.582 33.342l-9.67-2.904 7.58-16.164-20.022 20.822L260.193 38l-5.907 15.89 18.296-20.548zm-20.387 1.316l15.107-15.726-5.697 12.11 9.252 2.74L256.9 49.615l4.548-12.22-9.253-2.738z" id="Shape" stroke="#EE6B47" stroke-linecap="square" fill="#EE6B47"/><path d="M253 141.5v-70" id="Line" stroke="#BCA68E" stroke-width="2" stroke-linecap="square"/><path stroke="#BCA68E" stroke-width="2" fill="#fff" d="M446 87h90v40h-90z"/><text font-family="Consolas" font-size="14" fill="#8A704D"><tspan x="468" y="111">func(3)</tspan></text><path d="M465.582 33.342l-9.67-2.904 7.58-16.164-20.022 20.822L453.193 38l-5.907 15.89 18.296-20.548zm-20.387 1.316l15.107-15.726-5.697 12.11 9.252 2.74L449.9 49.615l4.548-12.22-9.253-2.738z" stroke="#EE6B47" stroke-linecap="square" fill="#EE6B47"/><path d="M446 141.5v-70" id="Line" stroke="#BCA68E" stroke-width="2" stroke-linecap="square"/><path d="M150.5 108.5h100" id="Line" stroke="#EE6B47" stroke-width="3" stroke-linecap="square"/><path d="M343.5 108.5h100" stroke="#EE6B47" stroke-width="3" stroke-linecap="square"/><text id="100" font-family="Consolas" font-size="18" fill="#000"><tspan x="187" y="190">100</tspan></text><text font-family="Consolas" font-size="18" fill="#000"><tspan x="380" y="190">100</tspan></text><path d="M150.5 165.5h100" id="Line-3" stroke="#EE6B47" stroke-linecap="square" fill="#EE6B47"/><path d="M250.5 165.5l-8-5" id="Line-5" stroke="#EE6B47" stroke-linecap="square" fill="#EE6B47"/><path d="M158.5 170.5l-8-5" id="Line-6" stroke="#EE6B47" stroke-linecap="square" fill="#EE6B47"/><path d="M242.5 170.5l8-5" id="Line" stroke="#EE6B47" stroke-linecap="square" fill="#EE6B47"/><path d="M150.5 165.5l8-5" id="Line-4" stroke="#EE6B47" stroke-linecap="square" fill="#EE6B47"/><path d="M344.5 165.5h100" stroke="#EE6B47" stroke-linecap="square" fill="#EE6B47"/><path d="M444.5 165.5l-8-5" stroke="#EE6B47" stroke-linecap="square" fill="#EE6B47"/><path d="M352.5 170.5l-8-5" stroke="#EE6B47" stroke-linecap="square" fill="#EE6B47"/><path d="M436.5 170.5l8-5" stroke="#EE6B47" stroke-linecap="square" fill="#EE6B47"/><path d="M344.5 165.5l8-5" stroke="#EE6B47" stroke-linecap="square" fill="#EE6B47"/></g></g></svg>