<?xml version="1.0" encoding="UTF-8" standalone="no"?>
<svg width="631px" height="223px" viewBox="0 0 631 223" version="1.1" xmlns="http://www.w3.org/2000/svg" xmlns:xlink="http://www.w3.org/1999/xlink" xmlns:sketch="http://www.bohemiancoding.com/sketch/ns">
    <!-- Generator: Sketch 3.2.2 (9983) - http://www.bohemiancoding.com/sketch -->
    <title>settimeout-interval</title>
    <desc>Created with Sketch.</desc>
    <defs></defs>
    <g id="settimeout-interval" stroke="none" stroke-width="1" fill="none" fill-rule="evenodd" sketch:type="MSPage">
        <path d="M32.5,122.5 L582.5,122.5" id="Line" stroke="#979797" stroke-linecap="square" sketch:type="MSShapeGroup"></path>
        <g id="Rectangle-1-+-func(1)-+-noun_60230_cc" sketch:type="MSLayerGroup" transform="translate(48.000000, 41.000000)">
            <rect id="Rectangle-1" stroke="#979797" fill="#FFFFFF" sketch:type="MSShapeGroup" x="3" y="60" width="90" height="40"></rect>
            <text id="func(1)" sketch:type="MSTextLayer" font-family="Consolas" font-size="14" font-weight="normal" fill="#000000">
                <tspan x="25" y="84">func(1)</tspan>
            </text>
            <g id="noun_60230_cc" fill="#000000" sketch:type="MSShapeGroup">
                <path d="M22.5818182,19.3424658 L12.9113636,16.4383562 L20.4909091,0.273972603 L0.470454545,21.0958904 L10.1931818,24 L4.28636364,39.890411 L22.5818182,19.3424658 L22.5818182,19.3424658 Z M2.19545455,20.6575342 L17.3022727,4.93150685 L11.6045455,17.0410959 L20.8568182,19.7808219 L6.9,35.6164384 L11.4477273,23.3972603 L2.19545455,20.6575342 L2.19545455,20.6575342 Z" id="Shape"></path>
            </g>
            <path d="M3,114.5 L3,44.5" id="Line" stroke="#373535" stroke-width="2" stroke-linecap="square" sketch:type="MSShapeGroup"></path>
        </g>
        <g id="Rectangle-1-+-func(1)-+-noun_60230_cc-2" sketch:type="MSLayerGroup" transform="translate(242.000000, 41.000000)">
            <rect id="Rectangle-1" stroke="#979797" fill="#FFFFFF" sketch:type="MSShapeGroup" x="3" y="60" width="90" height="40"></rect>
            <text id="func(2)" sketch:type="MSTextLayer" font-family="Consolas" font-size="14" font-weight="normal" fill="#000000">
                <tspan x="25" y="84">func(2)</tspan>
            </text>
            <g id="noun_60230_cc" fill="#000000" sketch:type="MSShapeGroup">
                <path d="M22.5818182,19.3424658 L12.9113636,16.4383562 L20.4909091,0.273972603 L0.470454545,21.0958904 L10.1931818,24 L4.28636364,39.890411 L22.5818182,19.3424658 L22.5818182,19.3424658 Z M2.19545455,20.6575342 L17.3022727,4.93150685 L11.6045455,17.0410959 L20.8568182,19.7808219 L6.9,35.6164384 L11.4477273,23.3972603 L2.19545455,20.6575342 L2.19545455,20.6575342 Z" id="Shape"></path>
            </g>
            <path d="M3,114.5 L3,44.5" id="Line" stroke="#373535" stroke-width="2" stroke-linecap="square" sketch:type="MSShapeGroup"></path>
        </g>
        <g id="Rectangle-1-+-func(1)-+-noun_60230_cc-3" sketch:type="MSLayerGroup" transform="translate(436.000000, 41.000000)">
            <rect id="Rectangle-1" stroke="#979797" fill="#FFFFFF" sketch:type="MSShapeGroup" x="3" y="60" width="90" height="40"></rect>
            <text id="func(3)" sketch:type="MSTextLayer" font-family="Consolas" font-size="14" font-weight="normal" fill="#000000">
                <tspan x="25" y="84">func(3)</tspan>
            </text>
            <g id="noun_60230_cc" fill="#000000" sketch:type="MSShapeGroup">
                <path d="M22.5818182,19.3424658 L12.9113636,16.4383562 L20.4909091,0.273972603 L0.470454545,21.0958904 L10.1931818,24 L4.28636364,39.890411 L22.5818182,19.3424658 L22.5818182,19.3424658 Z M2.19545455,20.6575342 L17.3022727,4.93150685 L11.6045455,17.0410959 L20.8568182,19.7808219 L6.9,35.6164384 L11.4477273,23.3972603 L2.19545455,20.6575342 L2.19545455,20.6575342 Z" id="Shape"></path>
            </g>
            <path d="M3,114.5 L3,44.5" id="Line" stroke="#373535" stroke-width="2" stroke-linecap="square" sketch:type="MSShapeGroup"></path>
        </g>
        <text id="100" sketch:type="MSTextLayer" font-family="Consolas" font-size="18" font-weight="normal" fill="#000000">
            <tspan x="179" y="201">100</tspan>
        </text>
        <text id="100" sketch:type="MSTextLayer" font-family="Consolas" font-size="18" font-weight="normal" fill="#000000">
            <tspan x="372" y="201">100</tspan>
        </text>
        <path d="M142.5,122.5 L242.5,122.5" id="Line" stroke="#4990E2" stroke-width="3" stroke-linecap="square" sketch:type="MSShapeGroup"></path>
        <g id="Line-3" sketch:type="MSLayerGroup" transform="translate(142.000000, 171.000000)" stroke-linecap="square" stroke="#4990E2">
            <path d="M0.5,5.5 L100.5,5.5" sketch:type="MSShapeGroup"></path>
            <path d="M92.5,5.5 L100.5,0.5" id="Line-5" sketch:type="MSShapeGroup" transform="translate(96.500000, 3.000000) scale(-1, 1) translate(-96.500000, -3.000000) "></path>
            <path d="M0.5,10.5 L8.5,5.5" id="Line-6" sketch:type="MSShapeGroup" transform="translate(4.500000, 8.000000) scale(-1, 1) translate(-4.500000, -8.000000) "></path>
            <path d="M92.5,10.5 L100.5,5.5" id="Line" sketch:type="MSShapeGroup"></path>
            <path d="M0.5,5.5 L8.5,0.5" id="Line-4" sketch:type="MSShapeGroup"></path>
        </g>
        <g id="Line-7" sketch:type="MSLayerGroup" transform="translate(336.000000, 171.000000)" stroke="#4990E2" stroke-linecap="square">
            <path d="M0.5,5.5 L100.5,5.5" id="Line-3" sketch:type="MSShapeGroup"></path>
            <path d="M92.5,5.5 L100.5,0.5" id="Line-5" sketch:type="MSShapeGroup" transform="translate(96.500000, 3.000000) scale(-1, 1) translate(-96.500000, -3.000000) "></path>
            <path d="M0.5,10.5 L8.5,5.5" id="Line-6" sketch:type="MSShapeGroup" transform="translate(4.500000, 8.000000) scale(-1, 1) translate(-4.500000, -8.000000) "></path>
            <path d="M92.5,10.5 L100.5,5.5" id="Line" sketch:type="MSShapeGroup"></path>
            <path d="M0.5,5.5 L8.5,0.5" id="Line-4" sketch:type="MSShapeGroup"></path>
        </g>
        <path d="M336.5,122.5 L436.5,122.5" id="Line-2" stroke="#4990E2" stroke-width="3" stroke-linecap="square" sketch:type="MSShapeGroup"></path>
    </g>
</svg>