<svg xmlns="http://www.w3.org/2000/svg" width="369" height="216" viewBox="0 0 369 216"><defs><style>@import url(https://fonts.googleapis.com/css?family=Open+Sans:bold,italic,bolditalic%7CPT+Mono);@font-face{font-family:&apos;PT Mono&apos;;font-weight:700;font-style:normal;src:local(&apos;PT MonoBold&apos;),url(/font/PTMonoBold.woff2) format(&apos;woff2&apos;),url(/font/PTMonoBold.woff) format(&apos;woff&apos;),url(/font/PTMonoBold.ttf) format(&apos;truetype&apos;)}</style></defs><g id="dom" fill="none" fill-rule="evenodd" stroke="none" stroke-width="1"><g id="bagua-bubble.svg"><path id="Rectangle-210" fill="#FFDE99" d="M202.488 140L217 186H103l14.512-46z"/><path id="Rectangle-209" stroke="#CFCE95" stroke-width="18" d="M216.634 81H102.366l-16.09 51h146.447l-16.09-51z"/><path id="Rectangle-208" stroke="#99C0C3" stroke-width="18" d="M236.014 29H82.986l-22.71 72h198.448l-22.71-72z"/><path id="Fill-46" fill="#5A4739" d="M164.5 141v13.816a4.5 4.5 0 11-9 0V141h9zm0-31v13h-9v-13h9zM160 20.53a4.471 4.471 0 013.362 1.3l17.64 17.64a4.5 4.5 0 01-6.364 6.364L164.5 35.698V92h-9V35.7l-10.138 10.136a4.5 4.5 0 11-6.363-6.364l17.639-17.64a4.477 4.477 0 013.363-1.3z"/><text id="&lt;table&gt;" fill="#99C0C3" font-family="PTMono-Bold, PT Mono" font-size="14" font-weight="bold"><tspan x="9" y="30">&lt;table&gt;</tspan></text><text id="&lt;td&gt;" fill="#CFCE95" font-family="PTMono-Bold, PT Mono" font-size="14" font-weight="bold"><tspan x="36" y="136">&lt;td&gt;</tspan></text><text id="&lt;strong&gt;" fill="#E8C48E" font-family="PTMono-Bold, PT Mono" font-size="14" font-weight="bold"><tspan x="35" y="181">&lt;strong&gt;</tspan></text><text id="event.target" fill="#8A704D" font-family="OpenSans-Bold, Open Sans" font-size="14" font-weight="bold"><tspan x="271.746" y="181">event.target</tspan></text><path id="Line-30" stroke="#EE6B47" stroke-dasharray="3,6" stroke-linecap="square" stroke-width="2" d="M229.5 177.5h30"/></g></g></svg>