<svg xmlns="http://www.w3.org/2000/svg" width="392" height="192" viewBox="0 0 392 192"><defs><style>@import url(https://fonts.googleapis.com/css?family=Open+Sans:bold,italic,bolditalic%7CPT+Mono);@font-face{font-family:&apos;PT Mono&apos;;font-weight:700;font-style:normal;src:local(&apos;PT MonoBold&apos;),url(/font/PTMonoBold.woff2) format(&apos;woff2&apos;),url(/font/PTMonoBold.woff) format(&apos;woff&apos;),url(/font/PTMonoBold.ttf) format(&apos;truetype&apos;)}</style></defs><g id="combined" fill="none" fill-rule="evenodd" stroke="none" stroke-width="1"><g id="variable-change.svg"><g id="noun_1211_cc" transform="translate(52 -5)"><path id="Shape" fill="#E8C48F" d="M25 94.196h112.558v42.95c0 .373-.079.862-.279 1.294-.2.433-16.574 35.56-16.574 35.56v-54.36l16.854-25.444L156 66H43.44L25 94.196zM25 123V95l-15 28"/><g id="Rectangle-5-+-&quot;World!&quot;" transform="translate(0 57)"><path id="Rectangle-5" fill="#FFF9EB" stroke="#8A704D" stroke-width="2" d="M18.861 1.809L2 17.533l53.14 56.986L72 58.794 18.861 1.81z"/><text id="&quot;World!&quot;" fill="#8A704D" font-family="OpenSans-Bold, Open Sans" font-size="14" font-weight="bold" transform="rotate(47 40.083 39.762)"><tspan x="10.591" y="46.262">&quot;World!&quot;</tspan></text></g><g id="Rectangle-5-+-&quot;World!&quot;-2" transform="rotate(-67 96.824 -33.912)"><path id="Rectangle-5" fill="#FFF9EB" stroke="#8A704D" stroke-width="2" d="M18.861 1.809L2 17.533l53.14 56.986L72 58.794 18.861 1.81z"/><text id="&quot;Hello!&quot;" fill="#8A704D" font-family="OpenSans-Bold, Open Sans" font-size="14" font-weight="bold" transform="rotate(47 40.083 39.762)"><tspan x="10.591" y="46.262">&quot;Hello!&quot;</tspan></text></g><path id="Shape" fill="#E8C48F" d="M8 125v54.73c0 3.42 1.484 5.27 4.387 5.27h100.086c3.122 0 5.527-2.548 5.527-3.476V125H8z"/></g><text id="message" fill="#FFF" font-family="OpenSans-Bold, Open Sans" font-size="18" font-weight="bold"><tspan x="77" y="157">message</tspan></text><path id="Fill-54" fill="#E8C48F" d="M58.112 51.808S47.657 40.623 40.719 36.155l-.505 5.542a76.036 76.036 0 00-33.769 4.595l4.169 11.032a64.248 64.248 0 0128.531-3.882l-.505 5.542c5.581-3.329 19.472-7.176 19.472-7.176" transform="rotate(11 32.278 47.57)"/><path id="Fill-54" fill="#E8C48F" d="M287.797 28.186s-10.454-11.185-17.393-15.653l-.505 5.541a76.036 76.036 0 00-33.769 4.596l4.169 11.032a64.248 64.248 0 0128.531-3.882l-.504 5.541c5.58-3.328 19.47-7.175 19.47-7.175" transform="rotate(2 261.964 23.947)"/><g id="noun_48910_cc" transform="translate(298 5)"><path id="Shape" d="M50.983 6H36.016C35.456 6 35 6.626 35 7.395V12h17V7.395C52 6.626 51.543 6 50.983 6z"/><path id="Shape" fill="#E8C48F" d="M84.193 9.36h-26.39V6.085C57.803 2.729 54.99 0 51.528 0H36.47c-3.46 0-6.275 2.729-6.275 6.085V9.36H3.807C1.705 9.36 0 11.012 0 13.05v.26C0 15.348 1.705 17 3.807 17h80.386C86.295 17 88 15.348 88 13.31v-.26c0-2.038-1.706-3.69-3.807-3.69zM53 12H36V7.395C36 6.626 36.457 6 37.016 6h14.968C52.544 6 53 6.626 53 7.395V12zM74.955 20.045H8.044c-3.89 0-7.044-.68-7.044 3.266l5.282 78.382c0 3.943 3.155 7.307 7.045 7.307h56.347c3.89 0 7.044-3.364 7.044-7.307L82 23.31c-.001-3.947-3.155-3.266-7.045-3.266zM26.757 98.999c-1.283.039-2.353-.8-2.396-1.878l-2.36-61.095c-.041-1.078.964-1.985 2.242-2.025 1.283-.04 2.353.801 2.396 1.879l2.36 61.096c.041 1.076-.963 1.984-2.242 2.023zM43 97.049C43 98.126 42.328 99 41.5 99s-1.5-.876-1.5-1.951V35.95c0-1.078.672-1.951 1.5-1.951s1.5.873 1.5 1.951V97.05zm18.639.072c-.042 1.078-1.113 1.917-2.396 1.878-1.28-.04-2.283-.947-2.242-2.024l2.36-61.095c.042-1.078 1.112-1.919 2.394-1.879 1.28.042 2.285.947 2.244 2.025l-2.36 61.095z"/></g></g></g></svg>