<svg xmlns="http://www.w3.org/2000/svg" width="166" height="145" viewBox="0 0 166 145"><defs><style>@import url(https://fonts.googleapis.com/css?family=Open+Sans:bold,italic,bolditalic%7CPT+Mono);@font-face{font-family:&apos;PT Mono&apos;;font-weight:700;font-style:normal;src:local(&apos;PT MonoBold&apos;),url(/font/PTMonoBold.woff2) format(&apos;woff2&apos;),url(/font/PTMonoBold.woff) format(&apos;woff&apos;),url(/font/PTMonoBold.ttf) format(&apos;truetype&apos;)}</style></defs><g id="combined" fill="none" fill-rule="evenodd" stroke="none" stroke-width="1"><g id="noun_1211_cc-+-Message" transform="translate(13 3)"><g id="noun_1211_cc"><path id="Shape" fill="#DBAF88" d="M17 37.196h112.558v42.95c0 .373-.079.862-.279 1.294-.2.433-16.574 35.56-16.574 35.56V62.64l16.854-25.444L148 9H35.44L17 37.196zM17 66V38L2 66"/><g id="Rectangle-5-+-&quot;World!&quot;" transform="translate(15)"><path id="Rectangle-5" fill="#FBF2EC" stroke="#AF6E24" stroke-width="2" d="M18.861 1.809l53.14 56.985L55.14 74.52 1.999 17.533 18.86 1.81z"/><text id="&quot;Hello!&quot;" fill="#AF6E24" font-family="OpenSans-Bold, Open Sans" font-size="14" font-weight="bold" transform="rotate(47 40.083 39.762)"><tspan x="10.591" y="46.262">&quot;Hello!&quot;</tspan></text></g><path id="Shape" fill="#DBAF88" d="M0 68v54.73c0 3.42 1.484 5.27 4.387 5.27h100.086c3.122 0 5.527-2.548 5.527-3.476V68H0z"/></g><text id="message" fill="#FFF" font-family="OpenSans-Bold, Open Sans" font-size="18" font-weight="bold"><tspan x="17" y="105">message</tspan></text></g></g></svg>