<?xml version="1.0" encoding="UTF-8" standalone="no"?>
<svg width="226px" height="324px" viewBox="0 0 226 324" version="1.1" xmlns="http://www.w3.org/2000/svg" xmlns:xlink="http://www.w3.org/1999/xlink">
    <defs></defs>
    <g id="combined" stroke="none" stroke-width="1" fill="none" fill-rule="evenodd">
        <g id="class-inheritance-rabbit-animal">
            <rect id="Rectangle-1" stroke="#E8C48E" stroke-width="2" x="14" y="160" width="200" height="30"></rect>
            <text id="jump:-function" font-family="Consolas" font-size="14" font-weight="normal" fill="#8A704D">
                <tspan x="25" y="179">jump: function</tspan>
            </text>
            <text id="Rabbit.prototype" font-family="Consolas" font-size="14" font-style="italic" font-weight="normal" fill="#8A704D">
                <tspan x="14" y="153">Rabbit.prototype</tspan>
            </text>
            <text id="rabbit" font-family="Consolas" font-size="14" font-style="italic" font-weight="normal" fill="#8A704D">
                <tspan x="14" y="249">rabbit</tspan>
            </text>
            <rect id="Rectangle-1" stroke="#E8C48E" stroke-width="2" x="14" y="27" width="200" height="50"></rect>
            <text id="run:-function" font-family="Consolas" font-size="14" font-weight="normal" fill="#8A704D">
                <tspan x="25" y="48">run: function</tspan>
                <tspan x="25" y="64">stop: function</tspan>
            </text>
            <text id="Animal.prototype" font-family="Consolas" font-size="14" font-style="italic" font-weight="normal" fill="#8A704D">
                <tspan x="14" y="20">Animal.prototype</tspan>
            </text>
            <rect id="Rectangle-1" stroke="#E8C48E" stroke-width="2" x="14" y="257" width="200" height="50"></rect>
            <path d="M74.5,244.5 L74.5,203.5" id="Line" stroke="#EE6B47" stroke-width="2" stroke-linecap="square" fill="#EE6B47"></path>
            <path id="Line-decoration-1" d="M74.5,203.5 C73.45,207.28 72.55,210.52 71.5,214.3 C73.6,214.3 75.4,214.3 77.5,214.3 C76.45,210.52 75.55,207.28 74.5,203.5 C74.5,203.5 74.5,203.5 74.5,203.5 Z" stroke="#EE6B47" stroke-width="2" stroke-linecap="square" fill="#EE6B47"></path>
            <text id="__proto__" font-family="Consolas" font-size="14" font-weight="normal" fill="#EE6B47">
                <tspan x="84" y="225">__proto__</tspan>
            </text>
            <path d="M74.5,136.5 L74.5,95.5" id="Line-2" stroke="#EE6B47" stroke-width="2" stroke-linecap="square" fill="#EE6B47"></path>
            <path id="Line-2-decoration-1" d="M74.5,95.5 C73.45,99.28 72.55,102.52 71.5,106.3 C73.6,106.3 75.4,106.3 77.5,106.3 C76.45,102.52 75.55,99.28 74.5,95.5 C74.5,95.5 74.5,95.5 74.5,95.5 Z" stroke="#EE6B47" stroke-width="2" stroke-linecap="square" fill="#EE6B47"></path>
            <text id="__proto__-2" font-family="Consolas" font-size="14" font-weight="normal" fill="#EE6B47">
                <tspan x="84" y="117">__proto__</tspan>
            </text>
            <text id="name:-&quot;Кроль&quot;" font-family="Consolas" font-size="14" font-weight="normal" fill="#8A704D">
                <tspan x="22" y="278">name: "Кроль"</tspan>
                <tspan x="22" y="294">speed: 0</tspan>
            </text>
        </g>
    </g>
</svg>