<?xml version="1.0" encoding="UTF-8" standalone="no"?>
<svg width="223px" height="316px" viewBox="0 0 223 316" version="1.1" xmlns="http://www.w3.org/2000/svg" xmlns:xlink="http://www.w3.org/1999/xlink">
    <defs></defs>
    <g id="combined" stroke="none" stroke-width="1" fill="none" fill-rule="evenodd">
        <g id="class-inheritance-array-object">
            <rect id="Rectangle-1" stroke="#E8C48E" stroke-width="2" x="12" y="157.109589" width="200" height="60"></rect>
            <text id="slice:-function" font-family="Consolas" font-size="14" font-weight="normal" fill="#8A704D">
                <tspan x="23" y="181.109589">slice: function</tspan>
                <tspan x="23" y="197.109589">...</tspan>
            </text>
            <text id="Array.prototype" font-family="Consolas" font-size="14" font-style="italic" font-weight="normal" fill="#8A704D">
                <tspan x="12" y="150.109589">Array.prototype</tspan>
            </text>
            <text id="arr" font-family="Consolas" font-size="14" font-style="italic" font-weight="normal" fill="#8A704D">
                <tspan x="12" y="267.109589">arr</tspan>
            </text>
            <rect id="Rectangle-1" stroke="#E8C48E" stroke-width="2" x="12" y="24.109589" width="200" height="60"></rect>
            <text id="hasOwnProperty:-func" font-family="Consolas" font-size="14" font-weight="normal" fill="#8A704D">
                <tspan x="23" y="48.109589">hasOwnProperty: function</tspan>
                <tspan x="23" y="64.109589">...</tspan>
            </text>
            <text id="Object.prototype" font-family="Consolas" font-size="14" font-style="italic" font-weight="normal" fill="#8A704D">
                <tspan x="12" y="17.109589">Object.prototype</tspan>
            </text>
            <rect id="Rectangle-1" stroke="#E8C48E" stroke-width="2" x="12" y="274.109589" width="200" height="30"></rect>
            <path d="M72.5,265.609589 L72.5,224.609589" id="Line" stroke="#EE6B47" stroke-width="2" stroke-linecap="square" fill="#EE6B47"></path>
            <path id="Line-decoration-1" d="M72.5,224.609589 C71.45,228.389589 70.55,231.629589 69.5,235.409589 C71.6,235.409589 73.4,235.409589 75.5,235.409589 C74.45,231.629589 73.55,228.389589 72.5,224.609589 C72.5,224.609589 72.5,224.609589 72.5,224.609589 Z" stroke="#EE6B47" stroke-width="2" stroke-linecap="square" fill="#EE6B47"></path>
            <text id="__proto__" font-family="Consolas" font-size="14" font-weight="normal" fill="#EE6B47">
                <tspan x="82" y="246.109589">__proto__</tspan>
            </text>
            <path d="M72.5,133.609589 L72.5,92.609589" id="Line-2" stroke="#EE6B47" stroke-width="2" stroke-linecap="square" fill="#EE6B47"></path>
            <path id="Line-2-decoration-1" d="M72.5,92.609589 C71.45,96.389589 70.55,99.629589 69.5,103.409589 C71.6,103.409589 73.4,103.409589 75.5,103.409589 C74.45,99.629589 73.55,96.389589 72.5,92.609589 C72.5,92.609589 72.5,92.609589 72.5,92.609589 Z" stroke="#EE6B47" stroke-width="2" stroke-linecap="square" fill="#EE6B47"></path>
            <text id="__proto__-2" font-family="Consolas" font-size="14" font-weight="normal" fill="#EE6B47">
                <tspan x="82" y="114.109589">__proto__</tspan>
            </text>
            <text id="[1,-2,-3]" font-family="Consolas" font-size="14" font-weight="normal" fill="#8A704D">
                <tspan x="20" y="293.109589">[1, 2, 3]</tspan>
            </text>
        </g>
    </g>
</svg>