<svg xmlns="http://www.w3.org/2000/svg" width="245" height="74" viewBox="0 0 245 74"><defs><style>@import url(https://fonts.googleapis.com/css?family=Open+Sans:bold,italic,bolditalic%7CPT+Mono);@font-face{font-family:&apos;PT Mono&apos;;font-weight:700;font-style:normal;src:local(&apos;PT MonoBold&apos;),url(/font/PTMonoBold.woff2) format(&apos;woff2&apos;),url(/font/PTMonoBold.woff) format(&apos;woff&apos;),url(/font/PTMonoBold.ttf) format(&apos;truetype&apos;)}</style></defs><g id="regexp" fill="none" fill-rule="evenodd" stroke="none" stroke-width="1"><g id="hello-java-boundaries.svg" fill-rule="nonzero"><path id="Hello,Java!" fill="#8A704D" d="M30.054 53.938h-6.908V61H21.32V45.6h1.826v6.71h6.908V45.6h1.826V61h-1.826v-7.062zm19.367 5.676a5.537 5.537 0 01-.935.66 6.9 6.9 0 01-1.177.528c-.425.147-.869.26-1.33.341-.463.08-.928.121-1.398.121-.88 0-1.657-.136-2.332-.407a4.49 4.49 0 01-1.694-1.166 5.081 5.081 0 01-1.034-1.815c-.234-.704-.352-1.496-.352-2.376 0-.924.129-1.745.385-2.464.257-.719.627-1.32 1.111-1.804a4.839 4.839 0 011.76-1.111c.69-.257 1.46-.385 2.31-.385.616 0 1.225.08 1.826.242a3.606 3.606 0 011.595.913c.462.447.818 1.063 1.067 1.848.25.785.338 1.8.264 3.047h-8.514c0 1.32.356 2.306 1.067 2.959.712.653 1.661.979 2.85.979.395 0 .788-.048 1.176-.143a9.833 9.833 0 001.111-.341c.352-.132.664-.279.935-.44.272-.161.48-.308.627-.44l.682 1.254zm-4.642-8.426a5.94 5.94 0 00-1.375.154 3.134 3.134 0 00-1.144.517c-.33.242-.601.557-.814.946-.212.389-.348.869-.407 1.441h6.842c-.073-.968-.385-1.72-.935-2.255-.55-.535-1.272-.803-2.167-.803zM58.185 45.6h3.652v11.704c0 .895.15 1.525.45 1.892.301.367.745.55 1.332.55.41 0 .803-.073 1.177-.22.374-.147.788-.396 1.243-.748l.792 1.21a4.874 4.874 0 01-.77.55 5.717 5.717 0 01-1.738.66 4.17 4.17 0 01-.814.088c-.543 0-1.027-.07-1.452-.209a2.481 2.481 0 01-1.067-.671c-.286-.308-.503-.715-.65-1.221-.146-.506-.22-1.133-.22-1.881v-10.23h-1.935V45.6zm17.783 0h3.652v11.704c0 .895.15 1.525.451 1.892.3.367.744.55 1.331.55.41 0 .803-.073 1.177-.22.374-.147.788-.396 1.243-.748l.792 1.21a4.874 4.874 0 01-.77.55 5.717 5.717 0 01-1.738.66 4.17 4.17 0 01-.814.088c-.543 0-1.027-.07-1.452-.209a2.481 2.481 0 01-1.067-.671c-.286-.308-.502-.715-.649-1.221-.147-.506-.22-1.133-.22-1.881v-10.23h-1.936V45.6zm16.42 9.9c0-1.775.461-3.179 1.385-4.213.924-1.034 2.244-1.551 3.96-1.551.924 0 1.72.15 2.387.451.668.3 1.221.708 1.661 1.221.44.513.767 1.122.98 1.826.212.704.318 1.46.318 2.266 0 .88-.117 1.676-.352 2.387a4.959 4.959 0 01-1.034 1.815 4.569 4.569 0 01-1.683 1.155c-.667.271-1.426.407-2.277.407-.909 0-1.701-.15-2.376-.451a4.663 4.663 0 01-1.672-1.221 4.979 4.979 0 01-.979-1.826 7.799 7.799 0 01-.319-2.266zm1.825 0c0 .513.063 1.027.187 1.54.125.513.327.975.605 1.386.279.41.642.74 1.09.99.447.25.993.374 1.638.374 1.174 0 2.057-.363 2.651-1.089.594-.726.891-1.793.891-3.201a6.46 6.46 0 00-.187-1.551 4.098 4.098 0 00-.616-1.375 3.247 3.247 0 00-1.1-.99c-.447-.25-.993-.374-1.639-.374-1.173 0-2.053.36-2.64 1.078-.586.719-.88 1.79-.88 3.212zm19.742 4.29c0-.44.143-.796.429-1.067.286-.271.656-.407 1.11-.407.558 0 .99.194 1.299.583.308.389.462.935.462 1.639 0 .572-.096 1.074-.286 1.507a3.802 3.802 0 01-1.64 1.826c-.33.183-.634.319-.912.407l-.55-.858a3.904 3.904 0 001.364-.88c.381-.381.572-.843.572-1.386a2.463 2.463 0 01-.484.066c-.426 0-.76-.121-1.001-.363-.242-.242-.363-.598-.363-1.067zm32.662-14.19h8.712v9.944c0 1.848-.44 3.256-1.32 4.224-.88.968-2.148 1.452-3.806 1.452a7.12 7.12 0 01-1.254-.11 7.234 7.234 0 01-1.144-.297 5.646 5.646 0 01-.913-.407c-.256-.147-.443-.286-.56-.418l.791-1.452c.162.103.341.213.54.33.197.117.417.231.66.341a4.331 4.331 0 001.837.385c1.1 0 1.932-.345 2.496-1.034.565-.69.847-1.804.847-3.344v-7.986h-6.886V45.6zm18.026 5.258a6.988 6.988 0 012.134-.792c.792-.161 1.569-.242 2.332-.242.748 0 1.36.117 1.837.352.476.235.85.539 1.122.913.271.374.454.8.55 1.276.095.477.143.957.143 1.441 0 .557-.015 1.151-.044 1.782a81.5 81.5 0 00-.066 1.892c0 .733.044 1.43.132 2.09h1.474V61h-2.926l-.198-1.65h-.11c-.088.132-.22.3-.396.506a3.623 3.623 0 01-.693.605c-.286.198-.635.37-1.045.517-.411.147-.895.22-1.452.22-1.086 0-1.944-.279-2.574-.836-.631-.557-.946-1.32-.946-2.288 0-.748.165-1.371.495-1.87.33-.499.803-.88 1.419-1.144.616-.264 1.36-.418 2.233-.462.872-.044 1.851.015 2.937.176.073-.675.084-1.236.033-1.683-.052-.447-.169-.803-.352-1.067a1.474 1.474 0 00-.77-.561c-.33-.11-.737-.165-1.221-.165-.66 0-1.291.092-1.892.275-.602.183-1.137.37-1.606.561l-.55-1.276zm3.234 8.866c.41 0 .792-.066 1.144-.198.352-.132.66-.3.924-.506.264-.205.484-.429.66-.671.176-.242.308-.473.396-.693v-1.54a12.447 12.447 0 00-2.112-.198c-.646 0-1.203.07-1.672.209-.47.14-.836.356-1.1.649-.264.293-.396.675-.396 1.144 0 .484.165.906.495 1.265.33.36.883.539 1.66.539zm18.817-.858h.242L190.39 50h1.914l-4.642 11h-1.936l-4.73-11h2.024l3.674 8.866zm13.515-8.008a6.988 6.988 0 012.134-.792c.792-.161 1.57-.242 2.332-.242.748 0 1.36.117 1.837.352.477.235.851.539 1.122.913.272.374.455.8.55 1.276.096.477.143.957.143 1.441 0 .557-.014 1.151-.044 1.782-.029.63-.051 1.261-.066 1.892 0 .733.044 1.43.132 2.09h1.474V61h-2.926l-.198-1.65h-.11c-.088.132-.22.3-.396.506a3.623 3.623 0 01-.693.605c-.286.198-.634.37-1.045.517-.41.147-.894.22-1.452.22-1.085 0-1.943-.279-2.574-.836-.63-.557-.946-1.32-.946-2.288 0-.748.165-1.371.495-1.87.33-.499.803-.88 1.42-1.144.615-.264 1.36-.418 2.232-.462.873-.044 1.852.015 2.937.176.074-.675.085-1.236.033-1.683-.051-.447-.168-.803-.352-1.067a1.474 1.474 0 00-.77-.561c-.33-.11-.737-.165-1.22-.165-.66 0-1.291.092-1.893.275-.601.183-1.136.37-1.606.561l-.55-1.276zm3.234 8.866c.411 0 .792-.066 1.144-.198.352-.132.66-.3.924-.506.264-.205.484-.429.66-.671.176-.242.308-.473.396-.693v-1.54a12.447 12.447 0 00-2.112-.198c-.645 0-1.202.07-1.672.209-.469.14-.836.356-1.1.649-.264.293-.396.675-.396 1.144 0 .484.165.906.495 1.265.33.36.884.539 1.661.539zM221.315 45.6h1.826v7.634l-.374 3.872h-1.078l-.374-3.872V45.6zm-.374 14.388c0-.396.113-.708.34-.935.228-.227.532-.341.914-.341.396 0 .711.114.946.341.234.227.352.539.352.935 0 .381-.118.69-.352.924-.235.235-.55.352-.946.352-.382 0-.686-.117-.913-.352-.228-.235-.341-.543-.341-.924z"/><path id="Line" fill="#EE6B47" d="M17.5 8.5v17h6l-7 14-7-14h6v-17h2z"/><path id="Line-2" fill="#EE6B47" d="M112.5 8.5v17h6l-7 14-7-14h6v-17h2z"/><path id="Line-3" fill="#EE6B47" d="M144.5 8.5v17h6l-7 14-7-14h6v-17h2z"/><path id="Line-4" fill="#EE6B47" d="M218.5 8.5v17h6l-7 14-7-14h6v-17h2z"/></g></g></svg>