<?xml version="1.0" encoding="UTF-8" standalone="no"?>
<svg width="508px" height="509px" viewBox="0 0 508 509" version="1.1" xmlns="http://www.w3.org/2000/svg" xmlns:xlink="http://www.w3.org/1999/xlink" xmlns:sketch="http://www.bohemiancoding.com/sketch/ns">
    <!-- Generator: bin/sketchtool 1.3 (252) - http://www.bohemiancoding.com/sketch -->
    <title>metric-offset-width-height.svg</title>
    <desc>Created with bin/sketchtool.</desc>
    <defs>
        <linearGradient x1="50%" y1="0%" x2="50%" y2="100%" id="linearGradient-1">
            <stop stop-color="#FFFFFF" offset="0%"></stop>
            <stop stop-color="#F1F1F1" offset="100%"></stop>
        </linearGradient>
    </defs>
    <g id="combined" stroke="none" stroke-width="1" fill="none" fill-rule="evenodd" sketch:type="MSPage">
        <g id="metric-offset-width-height.svg" sketch:type="MSArtboardGroup">
            <path d="M394,155 L394,395 L54,395 L54,155 L394,155 Z M29,130 L419,130 L419,420 L29,420 L29,130 Z" id="Rectangle-2" fill-opacity="0.88" fill="#E8C48F" sketch:type="MSShapeGroup"></path>
            <path d="M74,176 L359,176 L359,377 L258.361727,377 L74,377 L74,176 Z" id="Rectangle-1" stroke="#EE6B47" stroke-width="2" sketch:type="MSShapeGroup"></path>
            <g id="scrollbar" sketch:type="MSLayerGroup" transform="translate(378.000000, 155.000000)">
                <rect id="Rectangle-19" stroke="#E9E9E9" fill="#F3F3F3" sketch:type="MSShapeGroup" x="0" y="0" width="16" height="240" rx="3"></rect>
                <g id="Rectangle-18-+-Triangle-1" sketch:type="MSShapeGroup">
                    <rect id="Rectangle-18" stroke="#CFCFCF" fill="url(#linearGradient-1)" x="0" y="0" width="16" height="20" rx="3"></rect>
                    <polygon id="Triangle-1" fill="#92979F" points="8 7 11.2 13 4.8 13 "></polygon>
                </g>
                <g id="Rectangle-18-+-Triangle-2" transform="translate(8.000000, 230.000000) scale(1, -1) translate(-8.000000, -230.000000) translate(0.000000, 220.000000)" sketch:type="MSShapeGroup">
                    <rect id="Rectangle-18" stroke="#CFCFCF" fill="url(#linearGradient-1)" x="0" y="0" width="16" height="20" rx="3"></rect>
                    <polygon id="Triangle-1" fill="#92979F" points="8 7 11.2 13 4.8 13 "></polygon>
                </g>
                <g id="Rectangle-18-+-Triangle-3-+-Group" transform="translate(0.000000, 50.000000)" sketch:type="MSShapeGroup">
                    <g id="Rectangle-18-+-Triangle-3" transform="translate(8.000000, 25.500000) scale(1, -1) translate(-8.000000, -25.500000) " stroke="#CFCFCF" fill="url(#linearGradient-1)">
                        <rect id="Rectangle-18" x="0" y="0" width="16" height="51" rx="3"></rect>
                    </g>
                    <g id="Group" transform="translate(4.000000, 20.000000)" stroke="#979797" fill="#D8D8D8">
                        <rect id="Rectangle-22" x="0" y="0" width="8" height="2"></rect>
                        <rect id="Rectangle-23" x="0" y="3" width="8" height="2"></rect>
                        <rect id="Rectangle-24" x="0" y="6" width="8" height="2"></rect>
                        <rect id="Rectangle-25" x="0" y="9" width="8" height="2"></rect>
                    </g>
                </g>
            </g>
            <text id="border" sketch:type="MSTextLayer" font-family="Consolas" font-size="12" font-weight="normal" sketch:alignment="middle">
                <tspan x="22.7070312" y="75" fill="#EE6B47">border</tspan>
                <tspan x="29.3046875" y="89" fill="#3B86C4">25px</tspan>
            </text>
            <text id="padding" sketch:type="MSTextLayer" font-family="Consolas" font-size="12" font-weight="normal" sketch:alignment="middle">
                <tspan x="42.4082031" y="45" fill="#EE6B47">padding</tspan>
                <tspan x="52.3046875" y="59" fill="#3B86C4">20px</tspan>
            </text>
            <text id="content-width:284px" sketch:type="MSTextLayer" font-family="Consolas" font-size="12" font-weight="normal" sketch:alignment="middle">
                <tspan x="152.822266" y="109" fill="#EE6B47">content width:</tspan>
                <tspan x="245.189453" y="109" fill="#3B86C4">284px</tspan>
            </text>
            <text id="height:200px" sketch:type="MSTextLayer" transform="translate(430.500000, 274.000000) rotate(-90.000000) translate(-430.500000, -274.000000) " font-family="Consolas" font-size="12" font-weight="normal" sketch:alignment="middle">
                <tspan x="390.914062" y="276" fill="#EE6B47">height:</tspan>
                <tspan x="437.097656" y="276" fill="#3B86C4">200px</tspan>
            </text>
            <path d="M359.5,175 L447.64193,175" id="Line" stroke="#EE6B47" stroke-width="2" stroke-linecap="square" stroke-dasharray="3,6" sketch:type="MSShapeGroup"></path>
            <path d="M359.5,377 L447.64193,377" id="Line-2" stroke="#EE6B47" stroke-width="2" stroke-linecap="square" stroke-dasharray="3,6" sketch:type="MSShapeGroup"></path>
            <path d="M441,177.5 L441,374" id="Line" stroke="#EE6B47" stroke-width="2" stroke-linecap="square" sketch:type="MSShapeGroup"></path>
            <path id="Line-decoration-1" d="M441,178.3 C442.05,182.08 442.95,185.32 444,189.1 C441.9,189.1 440.1,189.1 438,189.1 C439.05,185.32 439.95,182.08 441,178.3 C441,178.3 441,178.3 441,178.3 Z" stroke="#EE6B47" stroke-width="2" stroke-linecap="square"></path>
            <path id="Line-decoration-2" d="M441,373.5 C442.05,369.72 442.95,366.48 444,362.7 C441.9,362.7 440.1,362.7 438,362.7 C439.05,366.48 439.95,369.72 441,373.5 C441,373.5 441,373.5 441,373.5 Z" stroke="#EE6B47" stroke-width="2" stroke-linecap="square"></path>
            <path d="M76.6799927,117 L358.5,117" id="Line-15" stroke="#EE6B47" stroke-width="2" stroke-linecap="square" sketch:type="MSShapeGroup"></path>
            <path id="Line-15-decoration-1" d="M77.4799927,117 C81.2599927,115.95 84.4999927,115.05 88.2799927,114 C88.2799927,116.1 88.2799927,117.9 88.2799927,120 C84.4999927,118.95 81.2599927,118.05 77.4799927,117 C77.4799927,117 77.4799927,117 77.4799927,117 Z" stroke="#EE6B47" stroke-width="2" stroke-linecap="square"></path>
            <path id="Line-15-decoration-2" d="M357.679993,117 C353.899993,115.95 350.659993,115.05 346.879993,114 C346.879993,116.1 346.879993,117.9 346.879993,120 C350.659993,118.95 353.899993,118.05 357.679993,117 C357.679993,117 357.679993,117 357.679993,117 Z" stroke="#EE6B47" stroke-width="2" stroke-linecap="square"></path>
            <path d="M7.53515625,114.945312 L50.5351562,114.945312" id="Line-14" stroke="#EE6B47" stroke-width="2" stroke-linecap="square" stroke-dasharray="3,6" sketch:type="MSShapeGroup" transform="translate(29.480469, 114.945312) rotate(-270.000000) translate(-29.480469, -114.945312) "></path>
            <path d="M34.5351562,113.945312 L75.5351562,113.945312" id="Line-13" stroke="#EE6B47" stroke-width="2" stroke-linecap="square" stroke-dasharray="3,6" sketch:type="MSShapeGroup" transform="translate(55.480469, 113.945312) rotate(-270.000000) translate(-55.480469, -113.945312) "></path>
            <text id="border-2" sketch:type="MSTextLayer" font-family="Consolas" font-size="12" font-weight="normal" sketch:alignment="middle">
                <tspan x="386.707031" y="76" fill="#EE6B47">border</tspan>
                <tspan x="393.304688" y="90" fill="#3B86C4">25px</tspan>
            </text>
            <text id="padding-2" sketch:type="MSTextLayer" font-family="Consolas" font-size="12" font-weight="normal" sketch:alignment="middle">
                <tspan x="349.408203" y="16" fill="#EE6B47">padding</tspan>
                <tspan x="359.304688" y="30" fill="#3B86C4">20px</tspan>
            </text>
            <text id="scrollbar" sketch:type="MSTextLayer" font-family="Consolas" font-size="12" font-weight="normal" sketch:alignment="middle">
                <tspan x="359.810547" y="48" fill="#EE6B47">scrollbar</tspan>
                <tspan x="376.304688" y="62" fill="#3B86C4">16px</tspan>
            </text>
            <path d="M357.535156,114.945312 L400.535156,114.945312" id="Line-17" stroke="#EE6B47" stroke-width="2" stroke-linecap="square" stroke-dasharray="3,6" sketch:type="MSShapeGroup" transform="translate(379.480469, 114.945312) rotate(-270.000000) translate(-379.480469, -114.945312) "></path>
            <path d="M371.535156,114.945312 L414.535156,114.945312" id="Line-20" stroke="#EE6B47" stroke-width="2" stroke-linecap="square" stroke-dasharray="3,6" sketch:type="MSShapeGroup" transform="translate(393.480469, 114.945312) rotate(-270.000000) translate(-393.480469, -114.945312) "></path>
            <path d="M397.535156,113.945312 L438.535156,113.945312" id="Line-18" stroke="#EE6B47" stroke-width="2" stroke-linecap="square" stroke-dasharray="3,6" sketch:type="MSShapeGroup" transform="translate(418.480469, 113.945312) rotate(-270.000000) translate(-418.480469, -113.945312) "></path>
            <path d="M53.5351562,113.945312 L94.5351562,113.945312" id="Line-16" stroke="#EE6B47" stroke-width="2" stroke-linecap="square" stroke-dasharray="3,6" sketch:type="MSShapeGroup" transform="translate(74.480469, 113.945312) rotate(-270.000000) translate(-74.480469, -113.945312) "></path>
            <path d="M340.535156,113.945312 L381.535156,113.945312" id="Line-19" stroke="#EE6B47" stroke-width="2" stroke-linecap="square" stroke-dasharray="3,6" sketch:type="MSShapeGroup" transform="translate(361.480469, 113.945312) rotate(-270.000000) translate(-361.480469, -113.945312) "></path>
            <text id="offsetWidth-=-25+20+" sketch:type="MSTextLayer" font-family="Consolas" font-size="16" font-weight="normal" sketch:alignment="middle">
                <tspan x="47.5625" y="484" fill="#EE6B47">offsetWidth = </tspan>
                <tspan x="170.71875" y="484" fill="#3B86C4">25+20+284+20+16+25 </tspan>
                <tspan x="337.859375" y="484" fill="#F48158">=</tspan>
                <tspan x="346.65625" y="484" fill="#3B86C4"> 390px</tspan>
            </text>
            <path d="M29.5,419 L29.5,497" id="Line-24" stroke="#EE6B47" stroke-width="2" stroke-linecap="square" stroke-dasharray="3,6" sketch:type="MSShapeGroup"></path>
            <path d="M418.5,419 L418.5,499" id="Line-25" stroke="#EE6B47" stroke-width="2" stroke-linecap="square" stroke-dasharray="3,6" sketch:type="MSShapeGroup"></path>
            <path d="M32.0899963,463.070965 L416,463.070965" id="Line-22" stroke="#EE6B47" stroke-width="2" stroke-linecap="square" sketch:type="MSShapeGroup"></path>
            <path id="Line-22-decoration-1" d="M32.8899963,463.070965 C36.6699963,462.020965 39.9099963,461.120965 43.6899963,460.070965 C43.6899963,462.170965 43.6899963,463.970965 43.6899963,466.070965 C39.9099963,465.020965 36.6699963,464.120965 32.8899963,463.070965 C32.8899963,463.070965 32.8899963,463.070965 32.8899963,463.070965 Z" stroke="#EE6B47" stroke-width="2" stroke-linecap="square"></path>
            <path id="Line-22-decoration-2" d="M415.089996,463.070965 C411.309996,462.020965 408.069996,461.120965 404.289996,460.070965 C404.289996,462.170965 404.289996,463.970965 404.289996,466.070965 C408.069996,465.020965 411.309996,464.120965 415.089996,463.070965 C415.089996,463.070965 415.089996,463.070965 415.089996,463.070965 Z" stroke="#EE6B47" stroke-width="2" stroke-linecap="square"></path>
            <text id="offsetHeight:290px" sketch:type="MSTextLayer" transform="translate(485.500000, 279.500000) rotate(-90.000000) translate(-485.500000, -279.500000) " font-family="Consolas" font-size="16" font-weight="normal" sketch:alignment="middle">
                <tspan x="406.328125" y="282" fill="#EE6B47">offsetHeight:</tspan>
                <tspan x="520.6875" y="282" fill="#3B86C4">290px</tspan>
            </text>
            <path d="M416.5,131 L504.64193,131" id="Line-27" stroke="#EE6B47" stroke-width="2" stroke-linecap="square" stroke-dasharray="3,6" sketch:type="MSShapeGroup"></path>
            <path d="M416.5,420 L504.64193,420" id="Line-28" stroke="#EE6B47" stroke-width="2" stroke-linecap="square" stroke-dasharray="3,6" sketch:type="MSShapeGroup"></path>
            <path d="M468,132.589996 L468,419.410004" id="Line-26" stroke="#EE6B47" stroke-width="2" stroke-linecap="square" sketch:type="MSShapeGroup"></path>
            <path id="Line-26-decoration-1" d="M468,133.389996 C469.05,137.169996 469.95,140.409996 471,144.189996 C468.9,144.189996 467.1,144.189996 465,144.189996 C466.05,140.409996 466.95,137.169996 468,133.389996 C468,133.389996 468,133.389996 468,133.389996 Z" stroke="#EE6B47" stroke-width="2" stroke-linecap="square"></path>
            <path id="Line-26-decoration-2" d="M468,418.589996 C469.05,414.809996 469.95,411.569996 471,407.789996 C468.9,407.789996 467.1,407.789996 465,407.789996 C466.05,411.569996 466.95,414.809996 468,418.589996 C468,418.589996 468,418.589996 468,418.589996 Z" stroke="#EE6B47" stroke-width="2" stroke-linecap="square"></path>
            <text id="Introduction" sketch:type="MSTextLayer" font-family="Times" font-size="18" font-weight="bold" fill="#5A4739">
                <tspan x="78" y="193">Introduction</tspan>
                <tspan x="175.699219" y="193" font-size="16" font-weight="normal"></tspan>
                <tspan x="78" y="222" font-size="16" font-weight="normal">This Ecma Standard is based on several </tspan>
                <tspan x="78" y="241" font-size="16" font-weight="normal">originating technologies, the most well </tspan>
                <tspan x="78" y="260" font-size="16" font-weight="normal">known being JavaScript (Netscape) and </tspan>
                <tspan x="78" y="279" font-size="16" font-weight="normal">JScript (Microsoft). The language was </tspan>
                <tspan x="78" y="298" font-size="16" font-weight="normal">invented by Brendan Eich at Netscape and </tspan>
                <tspan x="78" y="317" font-size="16" font-weight="normal">first appeared in that company’s Navigator </tspan>
                <tspan x="78" y="336" font-size="16" font-weight="normal">2.0 browser. It has appeared in all </tspan>
                <tspan x="78" y="355" font-size="16" font-weight="normal">subsequent browsers from Netscape and in </tspan>
                <tspan x="78" y="374" font-size="16" font-weight="normal">all browsers from Microsoft starting with </tspan>
            </text>
        </g>
    </g>
</svg>