<?xml version="1.0" encoding="UTF-8" standalone="no"?>
<svg width="353px" height="316px" viewBox="0 0 353 316" version="1.1" xmlns="http://www.w3.org/2000/svg" xmlns:xlink="http://www.w3.org/1999/xlink" xmlns:sketch="http://www.bohemiancoding.com/sketch/ns">
    <!-- Generator: bin/sketchtool 1.3 (252) - http://www.bohemiancoding.com/sketch -->
    <title>metric-client-left-top.svg</title>
    <desc>Created with bin/sketchtool.</desc>
    <defs>
        <linearGradient x1="0%" y1="47.0960915%" x2="62.2987085%" y2="47.0960918%" id="linearGradient-1">
            <stop stop-color="#FFFFFF" offset="0%"></stop>
            <stop stop-color="#FFFFFF" stop-opacity="0" offset="100%"></stop>
        </linearGradient>
    </defs>
    <g id="combined" stroke="none" stroke-width="1" fill="none" fill-rule="evenodd" sketch:type="MSPage">
        <g id="metric-client-left-top.svg" sketch:type="MSArtboardGroup">
            <rect id="Rectangle-206" fill="#EBCB9D" sketch:type="MSShapeGroup" x="12" y="15" width="50" height="300"></rect>
            <rect id="Rectangle-207" fill="#EBCB9D" sketch:type="MSShapeGroup" transform="translate(202.500000, 40.000000) rotate(-90.000000) translate(-202.500000, -40.000000) " x="177.5" y="-115.5" width="50" height="311"></rect>
            <text id="Introduction" sketch:type="MSTextLayer" font-family="Times" font-size="32" font-weight="bold" fill="#5A4739">
                <tspan x="102" y="134">Introduction</tspan>
                <tspan x="275.6875" y="134" font-size="24" font-weight="normal"></tspan>
                <tspan x="102" y="178" font-size="24" font-weight="normal">This Ecma Standard is based on </tspan>
                <tspan x="102" y="207" font-size="24" font-weight="normal">several originating technologies, the </tspan>
                <tspan x="102" y="236" font-size="24" font-weight="normal">most well known being JavaScript </tspan>
                <tspan x="102" y="265" font-size="24" font-weight="normal">(Netscape) and JScript (Microsoft). </tspan>
                <tspan x="102" y="294" font-size="24" font-weight="normal">The language was invented by </tspan>
                <tspan x="102" y="323" font-size="24" font-weight="normal">Brendan Eich at Netscape and first </tspan>
                <tspan x="102" y="352" font-size="24" font-weight="normal">appeared in that company’s </tspan>
                <tspan x="102" y="381" font-size="24" font-weight="normal">Navigator 2.0 browser. It has </tspan>
                <tspan x="102" y="410" font-size="24" font-weight="normal">appeared in all subsequent browsers </tspan>
                <tspan x="102" y="439" font-size="24" font-weight="normal">from Netscape and in all browsers </tspan>
                <tspan x="102" y="468" font-size="24" font-weight="normal">from Microsoft starting with Internet </tspan>
                <tspan x="102" y="497" font-size="24" font-weight="normal">Explorer 3.0.</tspan>
                <tspan x="102" y="526" font-size="24" font-weight="normal">The development of this Standard </tspan>
                <tspan x="102" y="555" font-size="24" font-weight="normal">started in November 1996. The first </tspan>
                <tspan x="102" y="584" font-size="24" font-weight="normal">edition of this Ecma Standard was </tspan>
                <tspan x="102" y="613" font-size="24" font-weight="normal">adopted by the Ecma General </tspan>
                <tspan x="102" y="642" font-size="24" font-weight="normal">Assembly of June 1997.</tspan>
            </text>
            <rect id="Rectangle-5" fill="url(#linearGradient-1)" sketch:type="MSShapeGroup" transform="translate(179.500000, 216.500000) rotate(-180.000000) translate(-179.500000, -216.500000) " x="42" y="-7" width="275" height="447"></rect>
            <rect id="Rectangle-6" fill="#FFFFFF" sketch:type="MSShapeGroup" x="316" y="8" width="162" height="399"></rect>
            <path d="M62.4099998,15.6800003 L62.4099998,63.6800003" id="Line-7" stroke="#EE6B47" stroke-width="2" stroke-linecap="square" sketch:type="MSShapeGroup"></path>
            <path id="Line-7-decoration-1" d="M62.4099998,62.6800003 C63.4599998,58.9000003 64.3599998,55.6600003 65.4099998,51.8800003 C63.3099998,51.8800003 61.5099998,51.8800003 59.4099998,51.8800003 C60.4599998,55.6600003 61.3599998,58.9000003 62.4099998,62.6800003 C62.4099998,62.6800003 62.4099998,62.6800003 62.4099998,62.6800003 Z" stroke="#EE6B47" stroke-width="2" stroke-linecap="square"></path>
            <path id="Line-7-decoration-2" d="M62.4099998,16.4800003 C63.4599998,20.2600003 64.3599998,23.5000003 65.4099998,27.2800003 C63.3099998,27.2800003 61.5099998,27.2800003 59.4099998,27.2800003 C60.4599998,23.5000003 61.3599998,20.2600003 62.4099998,16.4800003 C62.4099998,16.4800003 62.4099998,16.4800003 62.4099998,16.4800003 Z" stroke="#EE6B47" stroke-width="2" stroke-linecap="square"></path>
            <path d="M12.4099998,64.6800003 L60.4099998,64.6800003" id="Line-28" stroke="#EE6B47" stroke-width="2" stroke-linecap="square" sketch:type="MSShapeGroup"></path>
            <path id="Line-28-decoration-1" d="M60.4099998,64.6800003 C56.6299998,63.6300003 53.3899998,62.7300003 49.6099998,61.6800003 C49.6099998,63.7800003 49.6099998,65.5800003 49.6099998,67.6800003 C53.3899998,66.6300003 56.6299998,65.7300003 60.4099998,64.6800003 C60.4099998,64.6800003 60.4099998,64.6800003 60.4099998,64.6800003 Z" stroke="#EE6B47" stroke-width="2" stroke-linecap="square"></path>
            <path id="Line-28-decoration-2" d="M13.2099998,64.6800003 C16.9899998,63.6300003 20.2299998,62.7300003 24.0099998,61.6800003 C24.0099998,63.7800003 24.0099998,65.5800003 24.0099998,67.6800003 C20.2299998,66.6300003 16.9899998,65.7300003 13.2099998,64.6800003 C13.2099998,64.6800003 13.2099998,64.6800003 13.2099998,64.6800003 Z" stroke="#EE6B47" stroke-width="2" stroke-linecap="square"></path>
            <text id="clientTop:25px-=-bor" sketch:type="MSTextLayer" font-family="Consolas" font-size="12" font-weight="normal" sketch:alignment="middle">
                <tspan x="82.6269531" y="43" fill="#EE6B47">clientTop:</tspan>
                <tspan x="148.603516" y="43" fill="#3B86C4">25px </tspan>
                <tspan x="181.591797" y="43" fill="#EE6B47">= border</tspan>
            </text>
            <text id="clientLeft:25px" sketch:type="MSTextLayer" transform="translate(39.320000, 136.000000) rotate(-90.000000) translate(-39.320000, -136.000000) " font-family="Consolas" font-size="12" font-weight="normal" sketch:alignment="middle">
                <tspan x="-10.1624222" y="138" fill="#EE6B47">clientLeft:</tspan>
                <tspan x="62.4117966" y="138" fill="#3B86C4">25px</tspan>
            </text>
            <g id="Rectangle-8-+-Rectangle-7" sketch:type="MSLayerGroup" transform="translate(-45.000000, -3.000000)">
                <rect id="Rectangle-8" fill="url(#linearGradient-1)" sketch:type="MSShapeGroup" transform="translate(224.000000, 138.000000) rotate(-90.000000) translate(-224.000000, -138.000000) " x="86.5" y="-85.5" width="275" height="447"></rect>
                <rect id="Rectangle-7" fill="#FFFFFF" sketch:type="MSShapeGroup" transform="translate(233.000000, 355.500000) rotate(-270.000000) translate(-233.000000, -355.500000) " x="152" y="156" width="162" height="399"></rect>
            </g>
        </g>
    </g>
</svg>