<?xml version="1.0" encoding="UTF-8" standalone="no"?>
<svg width="500px" height="493px" viewBox="0 0 500 493" version="1.1" xmlns="http://www.w3.org/2000/svg" xmlns:xlink="http://www.w3.org/1999/xlink" xmlns:sketch="http://www.bohemiancoding.com/sketch/ns">
    <!-- Generator: bin/sketchtool 1.3 (252) - http://www.bohemiancoding.com/sketch -->
    <title>metric-client-width-height.svg</title>
    <desc>Created with bin/sketchtool.</desc>
    <defs>
        <linearGradient x1="50%" y1="0%" x2="50%" y2="100%" id="linearGradient-1">
            <stop stop-color="#FFFFFF" offset="0%"></stop>
            <stop stop-color="#F1F1F1" offset="100%"></stop>
        </linearGradient>
    </defs>
    <g id="combined" stroke="none" stroke-width="1" fill="none" fill-rule="evenodd" sketch:type="MSPage">
        <g id="metric-client-width-height.svg" sketch:type="MSArtboardGroup">
            <path d="M386,155 L386,395 L46,395 L46,155 L386,155 Z M21,130 L411,130 L411,420 L21,420 L21,130 Z" id="Rectangle-2" fill-opacity="0.88" fill="#E8C48F" sketch:type="MSShapeGroup"></path>
            <path d="M66,176 L351,176 L351,377 L250.361727,377 L66,377 L66,176 Z" id="Rectangle-1" stroke="#EE6B47" stroke-width="2" sketch:type="MSShapeGroup"></path>
            <g id="Group-2" sketch:type="MSLayerGroup" transform="translate(370.000000, 155.000000)">
                <rect id="Rectangle-19" stroke="#E9E9E9" fill="#F3F3F3" sketch:type="MSShapeGroup" x="0" y="0" width="16" height="240" rx="3"></rect>
                <g id="Rectangle-18-+-Triangle-1" sketch:type="MSShapeGroup">
                    <rect id="Rectangle-18" stroke="#CFCFCF" fill="url(#linearGradient-1)" x="0" y="0" width="16" height="20" rx="3"></rect>
                    <polygon id="Triangle-1" fill="#92979F" points="8 7 11.2 13 4.8 13 "></polygon>
                </g>
                <g id="Rectangle-18-+-Triangle-2" transform="translate(8.000000, 230.000000) scale(1, -1) translate(-8.000000, -230.000000) translate(0.000000, 220.000000)" sketch:type="MSShapeGroup">
                    <rect id="Rectangle-18" stroke="#CFCFCF" fill="url(#linearGradient-1)" x="0" y="0" width="16" height="20" rx="3"></rect>
                    <polygon id="Triangle-1" fill="#92979F" points="8 7 11.2 13 4.8 13 "></polygon>
                </g>
                <g id="Rectangle-18-+-Triangle-3-+-Group" transform="translate(0.000000, 50.000000)" sketch:type="MSShapeGroup">
                    <g id="Rectangle-18-+-Triangle-3" transform="translate(8.000000, 25.500000) scale(1, -1) translate(-8.000000, -25.500000) " stroke="#CFCFCF" fill="url(#linearGradient-1)">
                        <rect id="Rectangle-18" x="0" y="0" width="16" height="51" rx="3"></rect>
                    </g>
                    <g id="Group" transform="translate(4.000000, 20.000000)" stroke="#979797" fill="#D8D8D8">
                        <rect id="Rectangle-22" x="0" y="0" width="8" height="2"></rect>
                        <rect id="Rectangle-23" x="0" y="3" width="8" height="2"></rect>
                        <rect id="Rectangle-24" x="0" y="6" width="8" height="2"></rect>
                        <rect id="Rectangle-25" x="0" y="9" width="8" height="2"></rect>
                    </g>
                </g>
            </g>
            <text id="border" sketch:type="MSTextLayer" font-family="Consolas" font-size="12" font-weight="normal" sketch:alignment="middle">
                <tspan x="14.7070312" y="75" fill="#EE6B47">border</tspan>
                <tspan x="21.3046875" y="89" fill="#3B86C4">25px</tspan>
            </text>
            <text id="padding" sketch:type="MSTextLayer" font-family="Consolas" font-size="12" font-weight="normal" sketch:alignment="middle">
                <tspan x="34.4082031" y="45" fill="#EE6B47">padding</tspan>
                <tspan x="44.3046875" y="59" fill="#3B86C4">20px</tspan>
            </text>
            <text id="content-width:284px" sketch:type="MSTextLayer" font-family="Consolas" font-size="12" font-weight="normal" sketch:alignment="middle">
                <tspan x="144.822266" y="109" fill="#EE6B47">content width:</tspan>
                <tspan x="237.189453" y="109" fill="#3B86C4">284px</tspan>
            </text>
            <path d="M68.6799927,117 L350.5,117" id="Line-15" stroke="#EE6B47" stroke-width="2" stroke-linecap="square" sketch:type="MSShapeGroup"></path>
            <path id="Line-15-decoration-1" d="M69.4799927,117 C73.2599927,115.95 76.4999927,115.05 80.2799927,114 C80.2799927,116.1 80.2799927,117.9 80.2799927,120 C76.4999927,118.95 73.2599927,118.05 69.4799927,117 C69.4799927,117 69.4799927,117 69.4799927,117 Z" stroke="#EE6B47" stroke-width="2" stroke-linecap="square"></path>
            <path id="Line-15-decoration-2" d="M349.679993,117 C345.899993,115.95 342.659993,115.05 338.879993,114 C338.879993,116.1 338.879993,117.9 338.879993,120 C342.659993,118.95 345.899993,118.05 349.679993,117 C349.679993,117 349.679993,117 349.679993,117 Z" stroke="#EE6B47" stroke-width="2" stroke-linecap="square"></path>
            <path d="M-0.46484375,114.945312 L42.5351562,114.945312" id="Line-14" stroke="#EE6B47" stroke-width="2" stroke-linecap="square" stroke-dasharray="3,6" sketch:type="MSShapeGroup" transform="translate(21.480469, 114.945312) rotate(-270.000000) translate(-21.480469, -114.945312) "></path>
            <path d="M26.5351562,113.945312 L67.5351562,113.945312" id="Line-13" stroke="#EE6B47" stroke-width="2" stroke-linecap="square" stroke-dasharray="3,6" sketch:type="MSShapeGroup" transform="translate(47.480469, 113.945312) rotate(-270.000000) translate(-47.480469, -113.945312) "></path>
            <text id="border-2" sketch:type="MSTextLayer" font-family="Consolas" font-size="12" font-weight="normal" sketch:alignment="middle">
                <tspan x="378.707031" y="76" fill="#EE6B47">border</tspan>
                <tspan x="385.304688" y="90" fill="#3B86C4">25px</tspan>
            </text>
            <text id="padding-2" sketch:type="MSTextLayer" font-family="Consolas" font-size="12" font-weight="normal" sketch:alignment="middle">
                <tspan x="341.408203" y="16" fill="#EE6B47">padding</tspan>
                <tspan x="351.304688" y="30" fill="#3B86C4">20px</tspan>
            </text>
            <text id="scrollbar" sketch:type="MSTextLayer" font-family="Consolas" font-size="12" font-weight="normal" sketch:alignment="middle">
                <tspan x="351.810547" y="48" fill="#EE6B47">scrollbar</tspan>
                <tspan x="368.304688" y="62" fill="#3B86C4">16px</tspan>
            </text>
            <path d="M349.535156,114.945312 L392.535156,114.945312" id="Line-17" stroke="#EE6B47" stroke-width="2" stroke-linecap="square" stroke-dasharray="3,6" sketch:type="MSShapeGroup" transform="translate(371.480469, 114.945312) rotate(-270.000000) translate(-371.480469, -114.945312) "></path>
            <path d="M363.535156,114.945312 L406.535156,114.945312" id="Line-20" stroke="#EE6B47" stroke-width="2" stroke-linecap="square" stroke-dasharray="3,6" sketch:type="MSShapeGroup" transform="translate(385.480469, 114.945312) rotate(-270.000000) translate(-385.480469, -114.945312) "></path>
            <path d="M389.535156,113.945312 L430.535156,113.945312" id="Line-18" stroke="#EE6B47" stroke-width="2" stroke-linecap="square" stroke-dasharray="3,6" sketch:type="MSShapeGroup" transform="translate(410.480469, 113.945312) rotate(-270.000000) translate(-410.480469, -113.945312) "></path>
            <path d="M45.5351562,113.945312 L86.5351562,113.945312" id="Line-16" stroke="#EE6B47" stroke-width="2" stroke-linecap="square" stroke-dasharray="3,6" sketch:type="MSShapeGroup" transform="translate(66.480469, 113.945312) rotate(-270.000000) translate(-66.480469, -113.945312) "></path>
            <path d="M332.535156,113.945312 L373.535156,113.945312" id="Line-19" stroke="#EE6B47" stroke-width="2" stroke-linecap="square" stroke-dasharray="3,6" sketch:type="MSShapeGroup" transform="translate(353.480469, 113.945312) rotate(-270.000000) translate(-353.480469, -113.945312) "></path>
            <text id="clientWidth-=-20+284" sketch:type="MSTextLayer" font-family="Consolas" font-size="12" font-weight="normal" sketch:alignment="middle">
                <tspan x="108.236328" y="473" fill="#EE6B47">clientWidth = </tspan>
                <tspan x="200.603516" y="473" fill="#3B86C4">20+284+20 </tspan>
                <tspan x="266.580078" y="473" fill="#F48158">=</tspan>
                <tspan x="273.177734" y="473" fill="#3B86C4"> 324px</tspan>
            </text>
            <path d="M46.5,376 L46.5,464.14193" id="Line-24" stroke="#EE6B47" stroke-width="2" stroke-linecap="square" stroke-dasharray="3,6" sketch:type="MSShapeGroup"></path>
            <path d="M370.5,376 L370.5,464.14193" id="Line-25" stroke="#EE6B47" stroke-width="2" stroke-linecap="square" stroke-dasharray="3,6" sketch:type="MSShapeGroup"></path>
            <path d="M48,452.070965 L368,452.070965" id="Line-22" stroke="#EE6B47" stroke-width="2" stroke-linecap="square" sketch:type="MSShapeGroup"></path>
            <path id="Line-22-decoration-1" d="M48.8,452.070965 C52.58,451.020965 55.82,450.120965 59.6,449.070965 C59.6,451.170965 59.6,452.970965 59.6,455.070965 C55.82,454.020965 52.58,453.120965 48.8,452.070965 C48.8,452.070965 48.8,452.070965 48.8,452.070965 Z" stroke="#EE6B47" stroke-width="2" stroke-linecap="square"></path>
            <path id="Line-22-decoration-2" d="M368,452.070965 C364.22,451.020965 360.98,450.120965 357.2,449.070965 C357.2,451.170965 357.2,452.970965 357.2,455.070965 C360.98,454.020965 364.22,453.120965 368,452.070965 C368,452.070965 368,452.070965 368,452.070965 Z" stroke="#EE6B47" stroke-width="2" stroke-linecap="square"></path>
            <text id="clientHeight:240px" sketch:type="MSTextLayer" transform="translate(489.500000, 277.000000) rotate(-90.000000) translate(-489.500000, -277.000000) " font-family="Consolas" font-size="12" font-weight="normal" sketch:alignment="middle">
                <tspan x="430.121094" y="279" fill="#EE6B47">clientHeight:</tspan>
                <tspan x="515.890625" y="279" fill="#3B86C4">240px</tspan>
            </text>
            <path d="M365.5,156 L485.5,156" id="Line-27" stroke="#EE6B47" stroke-width="2" stroke-linecap="square" stroke-dasharray="3,6" sketch:type="MSShapeGroup"></path>
            <path d="M365.5,394 L485.5,394" id="Line-28" stroke="#EE6B47" stroke-width="2" stroke-linecap="square" stroke-dasharray="3,6" sketch:type="MSShapeGroup"></path>
            <path d="M476,160 L476,389" id="Line-26" stroke="#EE6B47" stroke-width="2" stroke-linecap="square" sketch:type="MSShapeGroup"></path>
            <path id="Line-26-decoration-1" d="M476,160.8 C477.05,164.58 477.95,167.82 479,171.6 C476.9,171.6 475.1,171.6 473,171.6 C474.05,167.82 474.95,164.58 476,160.8 C476,160.8 476,160.8 476,160.8 Z" stroke="#EE6B47" stroke-width="2" stroke-linecap="square"></path>
            <path id="Line-26-decoration-2" d="M476,389 C477.05,385.22 477.95,381.98 479,378.2 C476.9,378.2 475.1,378.2 473,378.2 C474.05,381.98 474.95,385.22 476,389 C476,389 476,389 476,389 Z" stroke="#EE6B47" stroke-width="2" stroke-linecap="square"></path>
            <text id="height:200px" sketch:type="MSTextLayer" transform="translate(424.500000, 274.000000) rotate(-90.000000) translate(-424.500000, -274.000000) " font-family="Consolas" font-size="12" font-weight="normal" sketch:alignment="middle">
                <tspan x="384.914062" y="276" fill="#EE6B47">height:</tspan>
                <tspan x="431.097656" y="276" fill="#3B86C4">200px</tspan>
            </text>
            <path d="M353.5,175 L441.64193,175" id="Line-3" stroke="#EE6B47" stroke-width="2" stroke-linecap="square" stroke-dasharray="3,6" sketch:type="MSShapeGroup"></path>
            <path d="M353.5,377 L441.64193,377" id="Line-2" stroke="#EE6B47" stroke-width="2" stroke-linecap="square" stroke-dasharray="3,6" sketch:type="MSShapeGroup"></path>
            <path d="M435,177.5 L435,374" id="Line" stroke="#EE6B47" stroke-width="2" stroke-linecap="square" sketch:type="MSShapeGroup"></path>
            <path id="Line-decoration-1" d="M435,178.3 C436.05,182.08 436.95,185.32 438,189.1 C435.9,189.1 434.1,189.1 432,189.1 C433.05,185.32 433.95,182.08 435,178.3 C435,178.3 435,178.3 435,178.3 Z" stroke="#EE6B47" stroke-width="2" stroke-linecap="square"></path>
            <path id="Line-decoration-2" d="M435,373.5 C436.05,369.72 436.95,366.48 438,362.7 C435.9,362.7 434.1,362.7 432,362.7 C433.05,366.48 433.95,369.72 435,373.5 C435,373.5 435,373.5 435,373.5 Z" stroke="#EE6B47" stroke-width="2" stroke-linecap="square"></path>
            <text id="Introduction" sketch:type="MSTextLayer" font-family="Times" font-size="18" font-weight="bold" fill="#5A4739">
                <tspan x="69" y="193">Introduction</tspan>
                <tspan x="166.699219" y="193" font-size="16" font-weight="normal"></tspan>
                <tspan x="69" y="222" font-size="16" font-weight="normal">This Ecma Standard is based on several </tspan>
                <tspan x="69" y="241" font-size="16" font-weight="normal">originating technologies, the most well </tspan>
                <tspan x="69" y="260" font-size="16" font-weight="normal">known being JavaScript (Netscape) and </tspan>
                <tspan x="69" y="279" font-size="16" font-weight="normal">JScript (Microsoft). The language was </tspan>
                <tspan x="69" y="298" font-size="16" font-weight="normal">invented by Brendan Eich at Netscape and </tspan>
                <tspan x="69" y="317" font-size="16" font-weight="normal">first appeared in that company’s Navigator </tspan>
                <tspan x="69" y="336" font-size="16" font-weight="normal">2.0 browser. It has appeared in all </tspan>
                <tspan x="69" y="355" font-size="16" font-weight="normal">subsequent browsers from Netscape and in </tspan>
                <tspan x="69" y="374" font-size="16" font-weight="normal">all browsers from Microsoft starting with </tspan>
            </text>
        </g>
    </g>
</svg>