<?xml version="1.0" encoding="UTF-8" standalone="no"?>
<svg width="641px" height="562px" viewBox="0 0 641 562" version="1.1" xmlns="http://www.w3.org/2000/svg" xmlns:xlink="http://www.w3.org/1999/xlink" xmlns:sketch="http://www.bohemiancoding.com/sketch/ns">
    <!-- Generator: bin/sketchtool 1.3 (252) - http://www.bohemiancoding.com/sketch -->
    <title>metric-offset-parent.svg</title>
    <desc>Created with bin/sketchtool.</desc>
    <defs>
        <rect id="path-1" x="40" y="40" width="561" height="482"></rect>
        <linearGradient x1="50%" y1="0%" x2="50%" y2="100%" id="linearGradient-2">
            <stop stop-color="#FFFFFF" offset="0%"></stop>
            <stop stop-color="#F1F1F1" offset="100%"></stop>
        </linearGradient>
    </defs>
    <g id="combined" stroke="none" stroke-width="1" fill="none" fill-rule="evenodd" sketch:type="MSPage">
        <g id="metric-offset-parent.svg" sketch:type="MSArtboardGroup">
            <g id="Rectangle-10">
                <use stroke="#E9E9E9" stroke-width="3" fill-opacity="0.5" fill-rule="evenodd" sketch:type="MSShapeGroup" xlink:href="#path-1"></use>
                <use stroke="none" xlink:href="#path-1"></use>
            </g>
            <path d="M549,226 L549,466 L225,466 L225,226 L549,226 Z M200,201 L574,201 L574,491 L200,491 L200,201 Z" id="Rectangle-1" fill-opacity="0.88" fill="#E8C48F" sketch:type="MSShapeGroup"></path>
            <text id="offsetTop:180px" sketch:type="MSTextLayer" transform="translate(187.500000, 120.320000) rotate(-90.000000) translate(-187.500000, -120.320000) " font-family="Consolas" font-size="14" font-weight="normal" sketch:alignment="middle">
                <tspan x="129.770508" y="122.32" fill="#EE6B47">offsetTop:</tspan>
                <tspan x="206.743164" y="122.32" fill="#3B86C4">180px</tspan>
            </text>
            <text id="offsetLeft:180px" sketch:type="MSTextLayer" font-family="Consolas" font-size="14" font-weight="normal" sketch:alignment="middle">
                <tspan x="61.921875" y="195.32" fill="#EE6B47">offsetLeft:</tspan>
                <tspan x="146.591797" y="195.32" fill="#3B86C4">180px</tspan>
            </text>
            <text id="Introduction" sketch:type="MSTextLayer" font-family="Times" font-size="18" font-weight="bold" fill="#5A4739">
                <tspan x="245" y="263">Introduction</tspan>
                <tspan x="342.699219" y="263" font-size="16" font-weight="normal"></tspan>
                <tspan x="245" y="292" font-size="16" font-weight="normal">This Ecma Standard is based on several </tspan>
                <tspan x="245" y="311" font-size="16" font-weight="normal">originating technologies, the most well </tspan>
                <tspan x="245" y="330" font-size="16" font-weight="normal">known being JavaScript (Netscape) and </tspan>
                <tspan x="245" y="349" font-size="16" font-weight="normal">JScript (Microsoft). The language was </tspan>
                <tspan x="245" y="368" font-size="16" font-weight="normal">invented by Brendan Eich at Netscape </tspan>
                <tspan x="245" y="387" font-size="16" font-weight="normal">and first appeared in that company’s </tspan>
                <tspan x="245" y="406" font-size="16" font-weight="normal">Navigator 2.0 browser. It has appeared in </tspan>
                <tspan x="245" y="425" font-size="16" font-weight="normal">all subsequent browsers from Netscape </tspan>
                <tspan x="245" y="444" font-size="16" font-weight="normal">and in all browsers from Microsoft</tspan>
            </text>
            <path d="M201,42.5 L201,199.320007" id="Line-40" stroke="#EE6B47" stroke-width="2" stroke-linecap="square" fill="#EE6B47" sketch:type="MSShapeGroup"></path>
            <path id="Line-40-decoration-1" d="M201,198.5 C202.05,194.72 202.95,191.48 204,187.7 C201.9,187.7 200.1,187.7 198,187.7 C199.05,191.48 199.95,194.72 201,198.5 C201,198.5 201,198.5 201,198.5 Z" stroke="#EE6B47" stroke-width="2" stroke-linecap="square" fill="#EE6B47"></path>
            <path id="Line-40-decoration-2" d="M201,43.3 C202.05,47.08 202.95,50.32 204,54.1 C201.9,54.1 200.1,54.1 198,54.1 C199.05,50.32 199.95,47.08 201,43.3 C201,43.3 201,43.3 201,43.3 Z" stroke="#EE6B47" stroke-width="2" stroke-linecap="square" fill="#EE6B47"></path>
            <path d="M42.5899963,202.910004 L199.410004,202.910004" id="Line-41" stroke="#EE6B47" stroke-width="2" stroke-linecap="square" fill="#EE6B47" sketch:type="MSShapeGroup"></path>
            <path id="Line-41-decoration-1" d="M198.589996,202.910004 C194.809996,201.860004 191.569996,200.960004 187.789996,199.910004 C187.789996,202.010004 187.789996,203.810004 187.789996,205.910004 C191.569996,204.860004 194.809996,203.960004 198.589996,202.910004 C198.589996,202.910004 198.589996,202.910004 198.589996,202.910004 Z" stroke="#EE6B47" stroke-width="2" stroke-linecap="square" fill="#EE6B47"></path>
            <path id="Line-41-decoration-2" d="M43.3899963,202.910004 C47.1699963,201.860004 50.4099963,200.960004 54.1899963,199.910004 C54.1899963,202.010004 54.1899963,203.810004 54.1899963,205.910004 C50.4099963,204.860004 47.1699963,203.960004 43.3899963,202.910004 C43.3899963,202.910004 43.3899963,202.910004 43.3899963,202.910004 Z" stroke="#EE6B47" stroke-width="2" stroke-linecap="square" fill="#EE6B47"></path>
            <circle id="Oval-2" fill="#3B86C4" sketch:type="MSShapeGroup" cx="225" cy="227" r="2"></circle>
            <circle id="Oval-2" fill="#3B86C4" sketch:type="MSShapeGroup" cx="201" cy="202" r="3"></circle>
            <ellipse id="Oval-6" stroke="#EE6B47" stroke-width="2" fill="#FFF9EB" sketch:type="MSShapeGroup" cx="386.25" cy="120" rx="100" ry="50"></ellipse>
            <path d="M387,173.378593 L387,198.017216" id="Line" stroke="#EE6B47" stroke-width="2" stroke-linecap="square" sketch:type="MSShapeGroup"></path>
            <path id="Line-decoration-1" d="M387,197.378593 C388.05,193.598593 388.95,190.358593 390,186.578593 C387.9,186.578593 386.1,186.578593 384,186.578593 C385.05,190.358593 385.95,193.598593 387,197.378593 C387,197.378593 387,197.378593 387,197.378593 Z" stroke="#EE6B47" stroke-width="2" stroke-linecap="square"></path>
            <text id="position:-absolute;" sketch:type="MSTextLayer" font-family="Consolas" font-size="14" font-weight="bold" fill="#8A704D">
                <tspan x="318.5" y="111.792656">position: absolute;</tspan>
                <tspan x="318.5" y="127.792656">left: 180px;</tspan>
                <tspan x="318.5" y="143.792656">top: 180px;</tspan>
            </text>
            <text id="offsetParent-&lt;MAIN&gt;-" sketch:type="MSTextLayer" font-family="Consolas" font-size="18" font-weight="bold" fill="#8A704D">
                <tspan x="42.5" y="37.3785934">offsetParent &lt;MAIN&gt; </tspan>
            </text>
            <text id="&lt;DIV&gt;" sketch:type="MSTextLayer" font-family="Consolas" font-size="18" font-weight="bold" fill="#8A704D">
                <tspan x="205.5" y="196.378593">&lt;DIV&gt;</tspan>
            </text>
            <g id="Scrollbar" sketch:type="MSLayerGroup" transform="translate(533.000000, 226.000000)">
                <rect id="Rectangle-19" stroke="#E9E9E9" fill="#F3F3F3" sketch:type="MSShapeGroup" x="0" y="0" width="16" height="240" rx="3"></rect>
                <g id="Rectangle-18-+-Triangle-1" sketch:type="MSShapeGroup">
                    <rect id="Rectangle-18" stroke="#CFCFCF" fill="url(#linearGradient-2)" x="0" y="0" width="16" height="20" rx="3"></rect>
                    <polygon id="Triangle-1" fill="#92979F" points="8 7 11.2 13 4.8 13 "></polygon>
                </g>
                <g id="Rectangle-18-+-Triangle-2" transform="translate(8.000000, 230.000000) scale(1, -1) translate(-8.000000, -230.000000) translate(0.000000, 220.000000)" sketch:type="MSShapeGroup">
                    <rect id="Rectangle-18" stroke="#CFCFCF" fill="url(#linearGradient-2)" x="0" y="0" width="16" height="20" rx="3"></rect>
                    <polygon id="Triangle-1" fill="#92979F" points="8 7 11.2 13 4.8 13 "></polygon>
                </g>
                <g id="Rectangle-18-+-Triangle-3-+-Group" transform="translate(0.000000, 50.000000)" sketch:type="MSShapeGroup">
                    <g id="Rectangle-18-+-Triangle-3" transform="translate(8.000000, 25.500000) scale(1, -1) translate(-8.000000, -25.500000) " stroke="#CFCFCF" fill="url(#linearGradient-2)">
                        <rect id="Rectangle-18" x="0" y="0" width="16" height="51" rx="3"></rect>
                    </g>
                    <g id="Group" transform="translate(4.000000, 20.000000)" stroke="#979797" fill="#D8D8D8">
                        <rect id="Rectangle-22" x="0" y="0" width="8" height="2"></rect>
                        <rect id="Rectangle-23" x="0" y="3" width="8" height="2"></rect>
                        <rect id="Rectangle-24" x="0" y="6" width="8" height="2"></rect>
                        <rect id="Rectangle-25" x="0" y="9" width="8" height="2"></rect>
                    </g>
                </g>
            </g>
        </g>
    </g>
</svg>