<?xml version="1.0" encoding="UTF-8" standalone="no"?>
<svg width="463px" height="536px" viewBox="0 0 463 536" version="1.1" xmlns="http://www.w3.org/2000/svg" xmlns:xlink="http://www.w3.org/1999/xlink" xmlns:sketch="http://www.bohemiancoding.com/sketch/ns">
    <!-- Generator: bin/sketchtool 1.3 (252) - http://www.bohemiancoding.com/sketch -->
    <title>metric-scroll-width-height.svg</title>
    <desc>Created with bin/sketchtool.</desc>
    <defs>
        <rect id="path-1" x="46" y="23" width="324" height="498"></rect>
        <linearGradient x1="50%" y1="0%" x2="50%" y2="100%" id="linearGradient-2">
            <stop stop-color="#FFFFFF" offset="0%"></stop>
            <stop stop-color="#F1F1F1" offset="100%"></stop>
        </linearGradient>
    </defs>
    <g id="combined" stroke="none" stroke-width="1" fill="none" fill-rule="evenodd" sketch:type="MSPage">
        <g id="metric-scroll-width-height.svg" sketch:type="MSArtboardGroup">
            <text id="Introduction" sketch:type="MSTextLayer" font-family="Times" font-size="18" font-weight="bold" fill="#5A4739">
                <tspan x="66" y="54">Introduction</tspan>
                <tspan x="163.699219" y="54" font-size="16" font-weight="normal"></tspan>
                <tspan x="66" y="83" font-size="16" font-weight="normal">This Ecma Standard is based on several </tspan>
                <tspan x="66" y="102" font-size="16" font-weight="normal">originating technologies, the most well </tspan>
                <tspan x="66" y="121" font-size="16" font-weight="normal">known being JavaScript (Netscape) and </tspan>
                <tspan x="66" y="140" font-size="16" font-weight="normal">JScript (Microsoft). The language was </tspan>
                <tspan x="66" y="159" font-size="16" font-weight="normal">invented by Brendan Eich at Netscape and </tspan>
                <tspan x="66" y="178" font-size="16" font-weight="normal">first appeared in that company’s Navigator </tspan>
                <tspan x="66" y="197" font-size="16" font-weight="normal">2.0 browser. It has appeared in all </tspan>
                <tspan x="66" y="216" font-size="16" font-weight="normal">subsequent browsers from Netscape and in </tspan>
                <tspan x="66" y="235" font-size="16" font-weight="normal">all browsers from Microsoft starting with </tspan>
                <tspan x="66" y="254" font-size="16" font-weight="normal">Internet Explorer 3.0.</tspan>
                <tspan x="66" y="273" font-size="16" font-weight="normal">The development of this Standard started in </tspan>
                <tspan x="66" y="292" font-size="16" font-weight="normal">November 1996. The first edition of this </tspan>
                <tspan x="66" y="311" font-size="16" font-weight="normal">Ecma Standard was adopted by the Ecma </tspan>
                <tspan x="66" y="330" font-size="16" font-weight="normal">General Assembly of June 1997.</tspan>
                <tspan x="66" y="349" font-size="16" font-weight="normal">That Ecma Standard was submitted to ISO/</tspan>
                <tspan x="66" y="368" font-size="16" font-weight="normal">IEC JTC 1 for adoption under the fast-track </tspan>
                <tspan x="66" y="387" font-size="16" font-weight="normal">procedure, and approved as international </tspan>
                <tspan x="66" y="406" font-size="16" font-weight="normal">standard ISO/IEC 16262, in April 1998. </tspan>
                <tspan x="66" y="425" font-size="16" font-weight="normal">The Ecma General Assembly of June 1998 </tspan>
                <tspan x="66" y="444" font-size="16" font-weight="normal">approved the second edition of ECMA-262 </tspan>
                <tspan x="66" y="463" font-size="16" font-weight="normal">to keep it fully aligned with ISO/IEC </tspan>
                <tspan x="66" y="482" font-size="16" font-weight="normal">16262. Changes between the first and the </tspan>
                <tspan x="66" y="501" font-size="16" font-weight="normal">second edition are editorial in nature.</tspan>
            </text>
            <path d="M370,148 L370,388 L46,388 L46,148 L370,148 Z M21,123 L395,123 L395,413 L21,413 L21,123 Z" id="Rectangle-1" fill-opacity="0.88" fill="#E8C48F" sketch:type="MSShapeGroup"></path>
            <g id="Rectangle-2">
                <use stroke="none" sketch:type="MSShapeGroup" xlink:href="#path-1"></use>
                <use stroke-opacity="0.8" stroke="#E8C48F" stroke-width="2" xlink:href="#path-1"></use>
                <use stroke="none" xlink:href="#path-1"></use>
                <use stroke="none" xlink:href="#path-1"></use>
            </g>
            <text id="scrollHeight:723px" sketch:type="MSTextLayer" transform="translate(428.500000, 270.000000) rotate(-90.000000) translate(-428.500000, -270.000000) " font-family="Consolas" font-size="14" font-weight="normal" sketch:alignment="middle">
                <tspan x="359.224609" y="272" fill="#EE6B47">scrollHeight:</tspan>
                <tspan x="459.289062" y="272" fill="#3B86C4">723px</tspan>
            </text>
            <path d="M370.5,22 L448.639999,22" id="Line-27" stroke="#EE6B47" stroke-width="2" stroke-linecap="square" stroke-dasharray="3,6" sketch:type="MSShapeGroup"></path>
            <path d="M370.5,521 L448.639999,521" id="Line-26" stroke="#EE6B47" stroke-width="2" stroke-linecap="square" stroke-dasharray="3,6" sketch:type="MSShapeGroup"></path>
            <path d="M439,24.5 L439,518.5" id="Line-25" stroke="#EE6B47" stroke-width="2" stroke-linecap="square" sketch:type="MSShapeGroup"></path>
            <path id="Line-25-decoration-1" d="M439,25.3 C440.05,29.08 440.95,32.32 442,36.1 C439.9,36.1 438.1,36.1 436,36.1 C437.05,32.32 437.95,29.08 439,25.3 C439,25.3 439,25.3 439,25.3 Z" stroke="#EE6B47" stroke-width="2" stroke-linecap="square"></path>
            <path id="Line-25-decoration-2" d="M439,518.5 C440.05,514.72 440.95,511.48 442,507.7 C439.9,507.7 438.1,507.7 436,507.7 C437.05,511.48 437.95,514.72 439,518.5 C439,518.5 439,518.5 439,518.5 Z" stroke="#EE6B47" stroke-width="2" stroke-linecap="square"></path>
            <rect id="Rectangle-14" fill-opacity="0.8" fill="#FFFFFF" sketch:type="MSShapeGroup" x="58" y="33" width="312" height="89"></rect>
            <rect id="Rectangle-15" fill-opacity="0.8" fill="#FFFFFF" sketch:type="MSShapeGroup" x="58" y="411" width="312" height="89"></rect>
            <path d="M49.6399994,109.09 L348.999985,109.09" id="Line-39" stroke="#EE6B47" stroke-width="2" stroke-linecap="square" sketch:type="MSShapeGroup"></path>
            <path id="Line-39-decoration-1" d="M50.4399994,109.09 C54.2199994,108.04 57.4599994,107.14 61.2399994,106.09 C61.2399994,108.19 61.2399994,109.99 61.2399994,112.09 C57.4599994,111.04 54.2199994,110.14 50.4399994,109.09 C50.4399994,109.09 50.4399994,109.09 50.4399994,109.09 Z" stroke="#EE6B47" stroke-width="2" stroke-linecap="square"></path>
            <path id="Line-39-decoration-2" d="M348.639999,109.09 C344.859999,108.04 341.619999,107.14 337.839999,106.09 C337.839999,108.19 337.839999,109.99 337.839999,112.09 C341.619999,111.04 344.859999,110.14 348.639999,109.09 C348.639999,109.09 348.639999,109.09 348.639999,109.09 Z" stroke="#EE6B47" stroke-width="2" stroke-linecap="square"></path>
            <path d="M351.639999,154 L351.639999,100" id="Line-42" stroke="#EE6B47" stroke-width="2" stroke-linecap="square" stroke-dasharray="3,6" sketch:type="MSShapeGroup"></path>
            <path d="M46.6399994,154 L46.6399994,100" id="Line-43" stroke="#EE6B47" stroke-width="2" stroke-linecap="square" stroke-dasharray="3,6" sketch:type="MSShapeGroup"></path>
            <text id="scrollWidth-=-324px" sketch:type="MSTextLayer" font-family="Consolas" font-size="14" font-weight="normal" sketch:alignment="middle">
                <tspan x="155.375977" y="105" fill="#EE6B47">scrollWidth = </tspan>
                <tspan x="263.137695" y="105" fill="#3B86C4">324px</tspan>
            </text>
            <g id="Group-2" sketch:type="MSLayerGroup" transform="translate(354.000000, 148.000000)">
                <rect id="Rectangle-19" stroke="#E9E9E9" fill="#F3F3F3" sketch:type="MSShapeGroup" x="0" y="0" width="16" height="240" rx="3"></rect>
                <g id="Rectangle-18-+-Triangle-1" sketch:type="MSShapeGroup">
                    <rect id="Rectangle-18" stroke="#CFCFCF" fill="url(#linearGradient-2)" x="0" y="0" width="16" height="20" rx="3"></rect>
                    <polygon id="Triangle-1" fill="#92979F" points="8 7 11.2 13 4.8 13 "></polygon>
                </g>
                <g id="Rectangle-18-+-Triangle-2" transform="translate(8.000000, 230.000000) scale(1, -1) translate(-8.000000, -230.000000) translate(0.000000, 220.000000)" sketch:type="MSShapeGroup">
                    <rect id="Rectangle-18" stroke="#CFCFCF" fill="url(#linearGradient-2)" x="0" y="0" width="16" height="20" rx="3"></rect>
                    <polygon id="Triangle-1" fill="#92979F" points="8 7 11.2 13 4.8 13 "></polygon>
                </g>
                <g id="Rectangle-18-+-Triangle-3-+-Group" transform="translate(0.000000, 50.000000)" sketch:type="MSShapeGroup">
                    <g id="Rectangle-18-+-Triangle-3" transform="translate(8.000000, 25.500000) scale(1, -1) translate(-8.000000, -25.500000) " stroke="#CFCFCF" fill="url(#linearGradient-2)">
                        <rect id="Rectangle-18" x="0" y="0" width="16" height="51" rx="3"></rect>
                    </g>
                    <g id="Group" transform="translate(4.000000, 20.000000)" stroke="#979797" fill="#D8D8D8">
                        <rect id="Rectangle-22" x="0" y="0" width="8" height="2"></rect>
                        <rect id="Rectangle-23" x="0" y="3" width="8" height="2"></rect>
                        <rect id="Rectangle-24" x="0" y="6" width="8" height="2"></rect>
                        <rect id="Rectangle-25" x="0" y="9" width="8" height="2"></rect>
                    </g>
                </g>
            </g>
        </g>
    </g>
</svg>