<svg xmlns="http://www.w3.org/2000/svg" width="640" height="225" viewBox="0 0 640 225"><defs><style>@import url(https://fonts.googleapis.com/css?family=Open+Sans:bold,italic,bolditalic%7CPT+Mono);@font-face{font-family:&apos;PT Mono&apos;;font-weight:700;font-style:normal;src:local(&apos;PT MonoBold&apos;),url(/font/PTMonoBold.woff2) format(&apos;woff2&apos;),url(/font/PTMonoBold.woff) format(&apos;woff&apos;),url(/font/PTMonoBold.ttf) format(&apos;truetype&apos;)}</style></defs><g id="combined" fill="none" fill-rule="evenodd" stroke="none" stroke-width="1"><g id="fibonacci-recursion-tree.svg"><text id="fib(5)" font-family="PTMono-Regular, PT Mono" font-size="14" font-weight="normal"><tspan x="355" y="12" fill="#000">fib</tspan> <tspan x="380.2" y="12" fill="#999">(</tspan> <tspan x="388.6" y="12" fill="#000">5</tspan> <tspan x="397" y="12" fill="#999">)</tspan></text><path id="Line-Copy-4" fill="#EE6B47" fill-rule="nonzero" d="M494.818 45.369l-82.566-25.205.584-1.912 82.566 25.204 1.752-5.738L508.5 48.5l-15.434 2.608 1.752-5.739z"/><path id="Line-Copy-18" fill="#EE6B47" fill-rule="nonzero" d="M266.51 43.233l77.133-24.993.617 1.903-77.133 24.993 1.849 5.708L253.5 48.5l11.16-10.975 1.85 5.708z"/><path id="Line-Copy-13" fill="#EE6B47" fill-rule="nonzero" d="M170.047 139.386l-17.954-14.748 1.269-1.545 17.955 14.748 3.808-4.636L181.5 147.5l-15.261-3.477 3.808-4.637z"/><path id="Line-Copy-14" fill="#EE6B47" fill-rule="nonzero" d="M512.047 139.386l-17.954-14.748 1.269-1.545 17.955 14.748 3.808-4.636L523.5 147.5l-15.261-3.477 3.808-4.637z"/><path id="Line-Copy-17" fill="#EE6B47" fill-rule="nonzero" d="M443.36 137.29l14.662-14.204 1.392 1.436-14.663 14.205 4.175 4.31L434 147.75l5.185-14.769 4.175 4.31z"/><path id="Line-Copy-20" fill="#EE6B47" fill-rule="nonzero" d="M265.36 137.29l14.662-14.204 1.392 1.436-14.663 14.205 4.175 4.31L256 147.75l5.185-14.769 4.175 4.31z"/><path id="Line-Copy-21" fill="#EE6B47" fill-rule="nonzero" d="M95.36 137.29l14.662-14.204 1.392 1.436-14.663 14.205 4.175 4.31L86 147.75l5.185-14.769 4.175 4.31z"/><path id="Line-Copy-15" fill="#EE6B47" fill-rule="nonzero" d="M337.047 139.386l-17.954-14.748 1.269-1.545 17.955 14.748 3.808-4.636L348.5 147.5l-15.261-3.477 3.808-4.637z"/><path id="Line-Copy-16" fill="#EE6B47" fill-rule="nonzero" d="M107.047 190.386l-17.954-14.748 1.269-1.545 17.955 14.748 3.808-4.636L118.5 198.5l-15.261-3.477 3.808-4.637z"/><path id="Line-Copy-22" fill="#EE6B47" fill-rule="nonzero" d="M40.683 188.84l17.955-14.747 1.27 1.545-17.955 14.748 3.808 4.637L30.5 198.5l6.375-14.295 3.808 4.636z"/><path id="Line-Copy-8" fill="#EE6B47" fill-rule="nonzero" d="M277.442 93.352L241.166 75.97l.864-1.804 36.277 17.383 2.592-5.411L290.5 98.5l-15.65.263 2.592-5.41z"/><path id="Line-Copy-9" fill="#EE6B47" fill-rule="nonzero" d="M581.442 93.352L545.166 75.97l.864-1.804 36.277 17.383 2.592-5.411L594.5 98.5l-15.65.263 2.592-5.41z"/><path id="Line-Copy-7" fill="#EE6B47" fill-rule="nonzero" d="M498.337 90.957l31.067-16.812.951 1.759-31.066 16.812 2.855 5.277-15.644.507 8.981-12.82 2.856 5.277z"/><path id="Line-Copy-19" fill="#EE6B47" fill-rule="nonzero" d="M164.337 90.957l31.067-16.812.951 1.759-31.066 16.812 2.855 5.277-15.644.507 8.981-12.82 2.856 5.277z"/><text id="fib(4)" fill="#000" font-family="PTMono-Regular, PT Mono" font-size="14" font-weight="normal"><tspan x="198" y="68">fib(4)</tspan></text><text id="fib(3)" fill="#000" font-family="PTMono-Regular, PT Mono" font-size="14" font-weight="normal"><tspan x="518" y="68">fib(3)</tspan></text><text id="fib(3)" fill="#000" font-family="PTMono-Regular, PT Mono" font-size="14" font-weight="normal"><tspan x="111" y="117">fib(3)</tspan></text><text id="fib(2)" fill="#000" font-family="PTMono-Regular, PT Mono" font-size="14" font-weight="normal"><tspan x="277" y="117">fib(2)</tspan></text><text id="fib(0)" fill="#000" font-family="PTMono-Regular, PT Mono" font-size="14" font-weight="normal"><tspan x="328" y="164">fib(0)</tspan></text><text id="fib(1)" fill="#000" font-family="PTMono-Regular, PT Mono" font-size="14" font-weight="normal"><tspan x="239" y="164">fib(1)</tspan></text><text id="fib(1)" fill="#000" font-family="PTMono-Regular, PT Mono" font-size="14" font-weight="normal"><tspan x="164" y="164">fib(1)</tspan></text><text id="fib(2)-copy-2" fill="#000" font-family="PTMono-Regular, PT Mono" font-size="14" font-weight="normal"><tspan x="456" y="117">fib(2)</tspan></text><text id="fib(0)-copy-2" fill="#000" font-family="PTMono-Regular, PT Mono" font-size="14" font-weight="normal"><tspan x="514" y="164">fib(0)</tspan></text><text id="fib(1)-copy-2" fill="#000" font-family="PTMono-Regular, PT Mono" font-size="14" font-weight="normal"><tspan x="409" y="164">fib(1)</tspan></text><text id="fib(1)-copy-3" fill="#000" font-family="PTMono-Regular, PT Mono" font-size="14" font-weight="normal"><tspan x="580" y="117">fib(1)</tspan></text><text id="fib(2)-copy" fill="#000" font-family="PTMono-Regular, PT Mono" font-size="14" font-weight="normal"><tspan x="54" y="164">fib(2)</tspan></text><text id="fib(0)-copy" fill="#000" font-family="PTMono-Regular, PT Mono" font-size="14" font-weight="normal"><tspan x="102" y="218">fib(0)</tspan></text><text id="fib(1)-copy" fill="#000" font-family="PTMono-Regular, PT Mono" font-size="14" font-weight="normal"><tspan x="5" y="219">fib(1)</tspan></text></g></g></svg>