<svg xmlns="http://www.w3.org/2000/svg" width="566" height="183" viewBox="0 0 566 183"><defs><style>@import url(https://fonts.googleapis.com/css?family=Open+Sans:bold,italic,bolditalic%7CPT+Mono);@font-face{font-family:&apos;PT Mono&apos;;font-weight:700;font-style:normal;src:local(&apos;PT MonoBold&apos;),url(/font/PTMonoBold.woff2) format(&apos;woff2&apos;),url(/font/PTMonoBold.woff) format(&apos;woff&apos;),url(/font/PTMonoBold.ttf) format(&apos;truetype&apos;)}</style></defs><g id="closure" fill="none" fill-rule="evenodd" stroke="none" stroke-width="1"><g id="lexenv-makearmy-while-fixed.svg"><g id="shooters-=-[-functio" fill-rule="nonzero" transform="translate(7.176 15.2)"><path id="shooters" fill="#181717" d="M2.996 9.968c1.017 0 1.78-.21 2.289-.63.509-.42.763-.952.763-1.596 0-.43-.117-.77-.35-1.022a2.536 2.536 0 00-.868-.602 5.479 5.479 0 00-1.127-.343 19.87 19.87 0 01-1.127-.252 3.633 3.633 0 01-.868-.329c-.233-.13-.35-.317-.35-.56 0-.196.049-.362.147-.497.098-.135.229-.245.392-.329.163-.084.345-.147.546-.189.2-.042.404-.063.609-.063.541 0 .992.077 1.351.231.36.154.693.315 1.001.483l.448-.882c-.28-.177-.656-.348-1.127-.511-.471-.163-1.034-.245-1.687-.245-.364 0-.714.04-1.05.119-.336.08-.63.2-.882.364a1.94 1.94 0 00-.609.623c-.154.252-.231.555-.231.91 0 .43.117.763.35 1.001.233.238.523.427.868.567.345.14.721.252 1.127.336.406.084.782.175 1.127.273.345.098.635.229.868.392.233.163.35.394.35.693 0 .205-.049.38-.147.525a1.08 1.08 0 01-.399.35 2.075 2.075 0 01-.581.196 3.76 3.76 0 01-1.484-.021 4.197 4.197 0 01-1.337-.539 2.536 2.536 0 01-.448-.343l-.56.91c.14.121.317.24.532.357.215.117.453.222.714.315.261.093.541.168.84.224.299.056.602.084.91.084zM9.464 9.8V5.348c.056-.261.156-.502.301-.721.145-.22.317-.406.518-.56.2-.154.422-.275.665-.364.243-.089.49-.133.742-.133.364 0 .663.051.896.154.233.103.418.254.553.455.135.2.226.45.273.749.047.299.07.649.07 1.05V9.8h1.092V5.768c0-.625-.051-1.141-.154-1.547-.103-.406-.259-.726-.469-.959a1.676 1.676 0 00-.812-.49 4.338 4.338 0 00-1.169-.14c-.57 0-1.045.091-1.428.273a3.135 3.135 0 00-1.008.763h-.07V0H7.28v.938h1.106V9.8h1.078zm10.36.168a3.82 3.82 0 001.449-.259 2.907 2.907 0 001.071-.735c.29-.317.509-.702.658-1.155.15-.453.224-.959.224-1.519 0-.513-.068-.994-.203-1.442a3.168 3.168 0 00-.623-1.162 2.981 2.981 0 00-1.057-.777c-.425-.191-.931-.287-1.519-.287-1.092 0-1.932.329-2.52.987-.588.658-.882 1.552-.882 2.681 0 .513.068.994.203 1.442.135.448.343.835.623 1.162.28.327.635.586 1.064.777.43.191.933.287 1.512.287zm0-.938c-.41 0-.758-.08-1.043-.238a2.001 2.001 0 01-.693-.63 2.683 2.683 0 01-.385-.882 4.14 4.14 0 01-.119-.98c0-.905.187-1.587.56-2.044.373-.457.933-.686 1.68-.686.41 0 .758.08 1.043.238.285.159.518.369.7.63.182.261.313.553.392.875.08.322.119.651.119.987 0 .896-.189 1.575-.567 2.037-.378.462-.94.693-1.687.693zm8.4.938a3.82 3.82 0 001.449-.259 2.907 2.907 0 001.071-.735c.29-.317.509-.702.658-1.155.15-.453.224-.959.224-1.519 0-.513-.068-.994-.203-1.442a3.168 3.168 0 00-.623-1.162 2.981 2.981 0 00-1.057-.777c-.425-.191-.931-.287-1.519-.287-1.092 0-1.932.329-2.52.987-.588.658-.882 1.552-.882 2.681 0 .513.068.994.203 1.442.135.448.343.835.623 1.162.28.327.635.586 1.064.777.43.191.933.287 1.512.287zm0-.938c-.41 0-.758-.08-1.043-.238a2.001 2.001 0 01-.693-.63 2.683 2.683 0 01-.385-.882 4.14 4.14 0 01-.119-.98c0-.905.187-1.587.56-2.044.373-.457.933-.686 1.68-.686.41 0 .758.08 1.043.238.285.159.518.369.7.63.182.261.313.553.392.875.08.322.119.651.119.987 0 .896-.189 1.575-.567 2.037-.378.462-.94.693-1.687.693zm9.058.952c.476 0 .94-.08 1.393-.238a3.938 3.938 0 001.169-.63l-.364-.826c-.252.187-.534.36-.847.518-.313.159-.679.238-1.099.238-.616 0-1.09-.163-1.421-.49-.331-.327-.497-.83-.497-1.512V3.738h3.738V2.8h-3.738V1.106l-1.092.308V2.8h-1.666v.938h1.666V7.21c0 .485.075.903.224 1.253.15.35.35.637.602.861.252.224.544.39.875.497a3.41 3.41 0 001.057.161zm7.868-.014c.299 0 .595-.026.889-.077.294-.051.576-.124.847-.217.27-.093.52-.205.749-.336.229-.13.427-.27.595-.42l-.434-.798a2.585 2.585 0 01-.399.28 3.72 3.72 0 01-.595.28c-.224.084-.46.156-.707.217-.247.06-.497.091-.749.091-.756 0-1.36-.208-1.813-.623-.453-.415-.679-1.043-.679-1.883h5.418c.047-.793-.01-1.44-.168-1.939-.159-.5-.385-.891-.679-1.176a2.295 2.295 0 00-1.015-.581 4.466 4.466 0 00-1.162-.154c-.541 0-1.031.082-1.47.245a3.08 3.08 0 00-1.12.707c-.308.308-.544.69-.707 1.148-.163.457-.245.98-.245 1.568 0 .56.075 1.064.224 1.512.15.448.369.833.658 1.155.29.322.649.57 1.078.742.43.173.924.259 1.484.259zm2.1-4.466h-4.354c.037-.364.124-.67.259-.917s.308-.448.518-.602c.21-.154.453-.264.728-.329a3.78 3.78 0 01.875-.098c.57 0 1.029.17 1.379.511.35.34.548.819.595 1.435zM55.804 9.8v-.938h-2.688v-4.13c.056-.084.145-.187.266-.308.121-.121.268-.243.441-.364s.376-.224.609-.308c.233-.084.495-.126.784-.126.308 0 .52.14.637.42.117.28.175.719.175 1.316l.98-.014c0-.42-.019-.796-.056-1.127a2.771 2.771 0 00-.217-.847 1.206 1.206 0 00-.448-.532c-.191-.121-.446-.182-.763-.182-.541 0-1.008.103-1.4.308a5.046 5.046 0 00-1.064.742h-.07l-.224-.91h-2.618v.938h1.89v5.124h-1.89V9.8h5.656zm5.992.168c1.017 0 1.78-.21 2.289-.63.509-.42.763-.952.763-1.596 0-.43-.117-.77-.35-1.022a2.536 2.536 0 00-.868-.602 5.479 5.479 0 00-1.127-.343 19.87 19.87 0 01-1.127-.252 3.633 3.633 0 01-.868-.329c-.233-.13-.35-.317-.35-.56 0-.196.049-.362.147-.497.098-.135.229-.245.392-.329.163-.084.345-.147.546-.189.2-.042.404-.063.609-.063.541 0 .992.077 1.351.231.36.154.693.315 1.001.483l.448-.882c-.28-.177-.656-.348-1.127-.511-.471-.163-1.034-.245-1.687-.245-.364 0-.714.04-1.05.119-.336.08-.63.2-.882.364a1.94 1.94 0 00-.609.623c-.154.252-.231.555-.231.91 0 .43.117.763.35 1.001.233.238.523.427.868.567.345.14.721.252 1.127.336.406.084.782.175 1.127.273.345.098.635.229.868.392.233.163.35.394.35.693 0 .205-.049.38-.147.525a1.08 1.08 0 01-.399.35 2.075 2.075 0 01-.581.196 3.76 3.76 0 01-1.484-.021 4.197 4.197 0 01-1.337-.539 2.536 2.536 0 01-.448-.343l-.56.91c.14.121.317.24.532.357.215.117.453.222.714.315.261.093.541.168.84.224.299.056.602.084.91.084z"/><path id="=" fill="#DBAF88" d="M81.872 4.41V3.402h-6.496V4.41h6.496zm0 2.296V5.698h-6.496v1.008h6.496z"/><path id="[" fill="#7E7C7B" d="M98.084 13.02v-.98h-3.682V.98h3.682V0H93.31v13.02z"/><path id="function" fill="#1C85B5" d="M22.512 33.8v-.938h-2.898v-5.124h2.898V26.8h-2.898c0-.69.112-1.188.336-1.491.224-.303.644-.455 1.26-.455.187 0 .392.016.616.049.224.033.457.1.7.203l.252-.91a3.603 3.603 0 00-.784-.224 5.473 5.473 0 00-.826-.056c-.85 0-1.503.196-1.96.588-.457.392-.686 1.027-.686 1.904v.392h-1.666v.938h1.666v5.124h-1.666v.938h5.656zm5.222.168c.57 0 1.055-.126 1.456-.378s.723-.579.966-.98h.056l.042 1.19h1.862v-.91h-.938a9.956 9.956 0 01-.084-1.316V26.8h-1.988v.938h.896v3.626c-.187.476-.46.873-.819 1.19-.36.317-.782.476-1.267.476-.336 0-.604-.054-.805-.161a1.046 1.046 0 01-.455-.476 2.317 2.317 0 01-.203-.77 9.693 9.693 0 01-.049-1.029V26.8h-2.03v.938h.938v3.08c0 .607.047 1.113.14 1.519.093.406.238.73.434.973s.446.413.749.511c.303.098.67.147 1.099.147zm7.07-.168v-4.396c.065-.233.168-.455.308-.665.14-.21.303-.394.49-.553a2.44 2.44 0 01.623-.385c.229-.098.464-.147.707-.147.663 0 1.12.196 1.372.588.252.392.378.975.378 1.75V33.8h1.092v-4.018c0-.625-.056-1.141-.168-1.547-.112-.406-.278-.728-.497-.966a1.738 1.738 0 00-.826-.497 4.219 4.219 0 00-1.141-.14 2.856 2.856 0 00-2.023.833c-.154.154-.278.31-.371.469h-.07l-.126-1.134h-1.876v.91h.938c.019.103.035.224.049.364a12.159 12.159 0 01.056.847c.005.135.007.245.007.329v4.55h1.078zm10.556.168c.364 0 .702-.033 1.015-.098a4.708 4.708 0 002.023-.952l-.49-.812c-.28.243-.628.439-1.043.588-.415.15-.842.224-1.281.224-.41 0-.786-.06-1.127-.182a2.517 2.517 0 01-.875-.518 2.248 2.248 0 01-.56-.819 2.902 2.902 0 01-.196-1.099c0-.933.224-1.615.672-2.044.448-.43 1.13-.644 2.044-.644.243 0 .488.026.735.077.247.051.478.114.693.189v1.33h1.008v-1.946l.014-.042a6.232 6.232 0 00-1.099-.406c-.434-.121-.996-.182-1.687-.182-.541 0-1.031.082-1.47.245a3.08 3.08 0 00-1.12.707c-.308.308-.544.69-.707 1.148-.163.457-.245.98-.245 1.568 0 .55.08 1.052.238 1.505.159.453.392.84.7 1.162.308.322.693.57 1.155.742.462.173.996.259 1.603.259zm8.722.014c.476 0 .94-.08 1.393-.238a3.938 3.938 0 001.169-.63l-.364-.826c-.252.187-.534.36-.847.518-.313.159-.679.238-1.099.238-.616 0-1.09-.163-1.421-.49-.331-.327-.497-.83-.497-1.512v-3.304h3.738V26.8h-3.738v-1.694l-1.092.308V26.8h-1.666v.938h1.666v3.472c0 .485.075.903.224 1.253.15.35.35.637.602.861.252.224.544.39.875.497a3.41 3.41 0 001.057.161zm7.966-8.302c.27 0 .497-.084.679-.252a.806.806 0 00.273-.616.889.889 0 00-.273-.651.922.922 0 00-.679-.273.838.838 0 00-.644.273.927.927 0 00-.252.651c0 .243.084.448.252.616a.872.872 0 00.644.252zm2.982 8.12v-.938h-2.38V26.8h-3.556v.938h2.436v5.124h-2.436v.938h5.936zm5.194.168a3.82 3.82 0 001.449-.259 2.907 2.907 0 001.071-.735c.29-.317.509-.702.658-1.155.15-.453.224-.959.224-1.519 0-.513-.068-.994-.203-1.442a3.168 3.168 0 00-.623-1.162 2.981 2.981 0 00-1.057-.777c-.425-.191-.931-.287-1.519-.287-1.092 0-1.932.329-2.52.987-.588.658-.882 1.552-.882 2.681 0 .513.068.994.203 1.442.135.448.343.835.623 1.162.28.327.635.586 1.064.777.43.191.933.287 1.512.287zm0-.938c-.41 0-.758-.08-1.043-.238a2.001 2.001 0 01-.693-.63 2.683 2.683 0 01-.385-.882 4.14 4.14 0 01-.119-.98c0-.905.187-1.587.56-2.044.373-.457.933-.686 1.68-.686.41 0 .758.08 1.043.238.285.159.518.369.7.63.182.261.313.553.392.875.08.322.119.651.119.987 0 .896-.189 1.575-.567 2.037-.378.462-.94.693-1.687.693zm6.58.77v-4.396c.065-.233.168-.455.308-.665.14-.21.303-.394.49-.553a2.44 2.44 0 01.623-.385c.229-.098.464-.147.707-.147.663 0 1.12.196 1.372.588.252.392.378.975.378 1.75V33.8h1.092v-4.018c0-.625-.056-1.141-.168-1.547-.112-.406-.278-.728-.497-.966a1.738 1.738 0 00-.826-.497 4.219 4.219 0 00-1.141-.14 2.856 2.856 0 00-2.023.833c-.154.154-.278.31-.371.469h-.07l-.126-1.134h-1.876v.91h.938c.019.103.035.224.049.364a12.159 12.159 0 01.056.847c.005.135.007.245.007.329v4.55h1.078z"/><path id="(){" fill="#7E7C7B" d="M97.272 36.768l.35-.966a4.965 4.965 0 01-1.337-.497 4.15 4.15 0 01-1.204-.994c-.36-.425-.649-.957-.868-1.596-.22-.64-.329-1.412-.329-2.317 0-.896.091-1.659.273-2.289.182-.63.439-1.157.77-1.582a3.928 3.928 0 011.183-1.022 7.086 7.086 0 011.512-.623l-.35-.882a6.005 6.005 0 00-1.729.665 4.984 4.984 0 00-1.435 1.246c-.41.518-.737 1.148-.98 1.89s-.364 1.608-.364 2.597c0 .999.119 1.862.357 2.59.238.728.56 1.344.966 1.848.406.504.882.912 1.428 1.225a6.964 6.964 0 001.757.707zm4.704 0a6.964 6.964 0 001.757-.707 5.036 5.036 0 001.428-1.225c.406-.504.728-1.12.966-1.848s.357-1.591.357-2.59c0-.99-.121-1.855-.364-2.597s-.57-1.372-.98-1.89a4.984 4.984 0 00-1.435-1.246 6.005 6.005 0 00-1.729-.665l-.35.882c.55.159 1.055.366 1.512.623.457.257.852.597 1.183 1.022.331.425.588.952.77 1.582.182.63.273 1.393.273 2.289 0 .905-.11 1.678-.329 2.317-.22.64-.509 1.171-.868 1.596a4.15 4.15 0 01-1.204.994 4.965 4.965 0 01-1.337.497l.35.966zm21.728.252v-.98h-1.526c-.57 0-.975-.135-1.218-.406-.243-.27-.364-.69-.364-1.26V33.03a2.25 2.25 0 00-.217-.994 3.347 3.347 0 00-.511-.777 2.744 2.744 0 00-.602-.518c-.205-.126-.369-.198-.49-.217v-.084c.13-.019.299-.086.504-.203a2.7 2.7 0 001.106-1.225c.14-.299.21-.64.21-1.022v-1.358c0-.55.114-.966.343-1.246.229-.28.637-.42 1.225-.42h1.54v-.98h-2.03c-.317 0-.609.058-.875.175a2.053 2.053 0 00-.686.483 2.22 2.22 0 00-.448.728c-.107.28-.161.588-.161.924v1.428c0 .43-.068.789-.203 1.078-.135.29-.303.525-.504.707a1.87 1.87 0 01-.644.392c-.229.08-.432.119-.609.119V31c.177 0 .38.047.609.14.229.093.443.238.644.434.2.196.369.441.504.735s.203.642.203 1.043v1.372c0 .756.198 1.328.595 1.715.397.387.922.581 1.575.581h2.03z"/><path id="alert" fill="#181717" d="M136.514 33.926a2.749 2.749 0 001.589-.469c.182-.126.329-.254.441-.385.112-.13.196-.238.252-.322h.07l.126 1.05h1.862v-.91h-.938c-.056-.42-.084-.863-.084-1.33.01-.401.023-.803.042-1.204.019-.401.028-.78.028-1.134 0-.308-.03-.614-.091-.917a2.049 2.049 0 00-.35-.812 1.893 1.893 0 00-.714-.581c-.303-.15-.693-.224-1.169-.224-.485 0-.98.051-1.484.154-.504.103-.957.27-1.358.504l.35.812c.299-.121.64-.24 1.022-.357a4.106 4.106 0 011.204-.175c.308 0 .567.035.777.105.21.07.373.189.49.357.117.168.191.394.224.679.033.285.026.642-.021 1.071a9.544 9.544 0 00-1.869-.112c-.555.028-1.029.126-1.421.294-.392.168-.693.41-.903.728-.21.317-.315.714-.315 1.19 0 .616.2 1.101.602 1.456.401.355.947.532 1.638.532zm.28-.938c-.495 0-.847-.114-1.057-.343a1.152 1.152 0 01-.315-.805c0-.299.084-.541.252-.728.168-.187.401-.324.7-.413a3.763 3.763 0 011.064-.133c.41 0 .859.042 1.344.126v.98a2.133 2.133 0 01-.672.868 2.22 2.22 0 01-.588.322 2.057 2.057 0 01-.728.126zm9.884.994c.159 0 .331-.019.518-.056a3.61 3.61 0 001.106-.42c.177-.103.34-.22.49-.35l-.504-.77c-.29.224-.553.383-.791.476-.238.093-.488.14-.749.14-.373 0-.656-.117-.847-.35-.191-.233-.287-.635-.287-1.204V24h-2.324v.938h1.232v6.51c0 .476.047.875.14 1.197.093.322.231.581.413.777.182.196.408.338.679.427.27.089.579.133.924.133zm7.672-.014c.299 0 .595-.026.889-.077.294-.051.576-.124.847-.217.27-.093.52-.205.749-.336.229-.13.427-.27.595-.42l-.434-.798a2.585 2.585 0 01-.399.28 3.72 3.72 0 01-.595.28c-.224.084-.46.156-.707.217-.247.06-.497.091-.749.091-.756 0-1.36-.208-1.813-.623-.453-.415-.679-1.043-.679-1.883h5.418c.047-.793-.01-1.44-.168-1.939-.159-.5-.385-.891-.679-1.176a2.295 2.295 0 00-1.015-.581 4.466 4.466 0 00-1.162-.154c-.541 0-1.031.082-1.47.245a3.08 3.08 0 00-1.12.707c-.308.308-.544.69-.707 1.148-.163.457-.245.98-.245 1.568 0 .56.075 1.064.224 1.512.15.448.369.833.658 1.155.29.322.649.57 1.078.742.43.173.924.259 1.484.259zm2.1-4.466h-4.354c.037-.364.124-.67.259-.917s.308-.448.518-.602c.21-.154.453-.264.728-.329a3.78 3.78 0 01.875-.098c.57 0 1.029.17 1.379.511.35.34.548.819.595 1.435zm8.554 4.298v-.938h-2.688v-4.13c.056-.084.145-.187.266-.308.121-.121.268-.243.441-.364s.376-.224.609-.308c.233-.084.495-.126.784-.126.308 0 .52.14.637.42.117.28.175.719.175 1.316l.98-.014c0-.42-.019-.796-.056-1.127a2.771 2.771 0 00-.217-.847 1.206 1.206 0 00-.448-.532c-.191-.121-.446-.182-.763-.182-.541 0-1.008.103-1.4.308a5.046 5.046 0 00-1.064.742h-.07l-.224-.91h-2.618v.938h1.89v5.124h-1.89v.938h5.656zm6.678.182c.476 0 .94-.08 1.393-.238a3.938 3.938 0 001.169-.63l-.364-.826c-.252.187-.534.36-.847.518-.313.159-.679.238-1.099.238-.616 0-1.09-.163-1.421-.49-.331-.327-.497-.83-.497-1.512v-3.304h3.738V26.8h-3.738v-1.694l-1.092.308V26.8h-1.666v.938h1.666v3.472c0 .485.075.903.224 1.253.15.35.35.637.602.861.252.224.544.39.875.497a3.41 3.41 0 001.057.161z"/><path id="(" fill="#7E7C7B" d="M181.272 36.768l.35-.966a4.965 4.965 0 01-1.337-.497 4.15 4.15 0 01-1.204-.994c-.36-.425-.649-.957-.868-1.596-.22-.64-.329-1.412-.329-2.317 0-.896.091-1.659.273-2.289.182-.63.439-1.157.77-1.582a3.928 3.928 0 011.183-1.022 7.086 7.086 0 011.512-.623l-.35-.882a6.005 6.005 0 00-1.729.665 4.984 4.984 0 00-1.435 1.246c-.41.518-.737 1.148-.98 1.89s-.364 1.608-.364 2.597c0 .999.119 1.862.357 2.59.238.728.56 1.344.966 1.848.406.504.882.912 1.428 1.225a6.964 6.964 0 001.757.707z"/><path id="j" fill="#181717" d="M188.636 25.68c.27 0 .497-.084.679-.252a.806.806 0 00.273-.616.889.889 0 00-.273-.651.922.922 0 00-.679-.273.838.838 0 00-.644.273.927.927 0 00-.252.651c0 .243.084.448.252.616a.872.872 0 00.644.252zm-1.904 11.088c.85 0 1.514-.231 1.995-.693.48-.462.721-1.164.721-2.107V26.8h-4.508v.938h3.388v6.02c0 .616-.119 1.099-.357 1.449-.238.35-.637.525-1.197.525-.345 0-.679-.07-1.001-.21a4.362 4.362 0 01-.861-.49l-.462.91a4.501 4.501 0 00.882.497c.205.089.427.166.665.231.238.065.483.098.735.098z"/><path id=");}," fill="#7E7C7B" d="M194.376 36.768a6.964 6.964 0 001.757-.707 5.036 5.036 0 001.428-1.225c.406-.504.728-1.12.966-1.848s.357-1.591.357-2.59c0-.99-.121-1.855-.364-2.597s-.57-1.372-.98-1.89a4.984 4.984 0 00-1.435-1.246 6.005 6.005 0 00-1.729-.665l-.35.882c.55.159 1.055.366 1.512.623.457.257.852.597 1.183 1.022.331.425.588.952.77 1.582.182.63.273 1.393.273 2.289 0 .905-.11 1.678-.329 2.317-.22.64-.509 1.171-.868 1.596a4.15 4.15 0 01-1.204.994 4.965 4.965 0 01-1.337.497l.35.966zm10.304-8.302c.299 0 .532-.089.7-.266a.938.938 0 00.252-.672c0-.299-.084-.53-.252-.693-.168-.163-.401-.245-.7-.245-.28 0-.504.082-.672.245-.168.163-.252.394-.252.693 0 .27.084.495.252.672.168.177.392.266.672.266zm-.756 7.42c.177-.056.371-.142.581-.259a2.42 2.42 0 001.043-1.162 2.36 2.36 0 00.182-.959c0-.448-.098-.796-.294-1.043-.196-.247-.471-.371-.826-.371-.29 0-.525.086-.707.259a.893.893 0 00-.273.679c0 .299.077.525.231.679.154.154.366.231.637.231.075 0 .177-.014.308-.042 0 .345-.121.64-.364.882-.243.243-.532.43-.868.56l.35.546zm16.45 1.134c.653 0 1.178-.194 1.575-.581.397-.387.595-.959.595-1.715v-1.372c0-.401.068-.749.203-1.043a2.44 2.44 0 01.504-.735c.2-.196.415-.34.644-.434.229-.093.432-.14.609-.14v-.98c-.177 0-.38-.04-.609-.119a1.87 1.87 0 01-.644-.392 2.193 2.193 0 01-.504-.707c-.135-.29-.203-.649-.203-1.078v-1.428c0-.336-.054-.644-.161-.924a2.22 2.22 0 00-.448-.728 2.053 2.053 0 00-.686-.483 2.155 2.155 0 00-.875-.175h-2.03v.98h1.54c.588 0 .996.14 1.225.42.229.28.343.695.343 1.246v1.358c0 .383.07.723.21 1.022a2.7 2.7 0 001.106 1.225c.205.117.373.184.504.203v.084c-.13.019-.299.091-.504.217a2.744 2.744 0 00-.602.518c-.196.22-.364.478-.504.777-.14.299-.21.63-.21.994v1.344c0 .57-.121.99-.364 1.26s-.649.406-1.218.406h-1.526v.98h2.03zm8.75-1.134c.177-.056.371-.142.581-.259a2.42 2.42 0 001.043-1.162 2.36 2.36 0 00.182-.959c0-.448-.098-.796-.294-1.043-.196-.247-.471-.371-.826-.371-.29 0-.525.086-.707.259a.893.893 0 00-.273.679c0 .299.077.525.231.679.154.154.366.231.637.231.075 0 .177-.014.308-.042 0 .345-.121.64-.364.882-.243.243-.532.43-.868.56l.35.546z"/><path id="function" fill="#1C85B5" d="M22.512 57.8v-.938h-2.898v-5.124h2.898V50.8h-2.898c0-.69.112-1.188.336-1.491.224-.303.644-.455 1.26-.455.187 0 .392.016.616.049.224.033.457.1.7.203l.252-.91a3.603 3.603 0 00-.784-.224 5.473 5.473 0 00-.826-.056c-.85 0-1.503.196-1.96.588-.457.392-.686 1.027-.686 1.904v.392h-1.666v.938h1.666v5.124h-1.666v.938h5.656zm5.222.168c.57 0 1.055-.126 1.456-.378s.723-.579.966-.98h.056l.042 1.19h1.862v-.91h-.938a9.956 9.956 0 01-.084-1.316V50.8h-1.988v.938h.896v3.626c-.187.476-.46.873-.819 1.19-.36.317-.782.476-1.267.476-.336 0-.604-.054-.805-.161a1.046 1.046 0 01-.455-.476 2.317 2.317 0 01-.203-.77 9.693 9.693 0 01-.049-1.029V50.8h-2.03v.938h.938v3.08c0 .607.047 1.113.14 1.519.093.406.238.73.434.973s.446.413.749.511c.303.098.67.147 1.099.147zm7.07-.168v-4.396c.065-.233.168-.455.308-.665.14-.21.303-.394.49-.553a2.44 2.44 0 01.623-.385c.229-.098.464-.147.707-.147.663 0 1.12.196 1.372.588.252.392.378.975.378 1.75V57.8h1.092v-4.018c0-.625-.056-1.141-.168-1.547-.112-.406-.278-.728-.497-.966a1.738 1.738 0 00-.826-.497 4.219 4.219 0 00-1.141-.14 2.856 2.856 0 00-2.023.833c-.154.154-.278.31-.371.469h-.07l-.126-1.134h-1.876v.91h.938c.019.103.035.224.049.364a12.159 12.159 0 01.056.847c.005.135.007.245.007.329v4.55h1.078zm10.556.168c.364 0 .702-.033 1.015-.098a4.708 4.708 0 002.023-.952l-.49-.812c-.28.243-.628.439-1.043.588-.415.15-.842.224-1.281.224-.41 0-.786-.06-1.127-.182a2.517 2.517 0 01-.875-.518 2.248 2.248 0 01-.56-.819 2.902 2.902 0 01-.196-1.099c0-.933.224-1.615.672-2.044.448-.43 1.13-.644 2.044-.644.243 0 .488.026.735.077.247.051.478.114.693.189v1.33h1.008v-1.946l.014-.042a6.232 6.232 0 00-1.099-.406c-.434-.121-.996-.182-1.687-.182-.541 0-1.031.082-1.47.245a3.08 3.08 0 00-1.12.707c-.308.308-.544.69-.707 1.148-.163.457-.245.98-.245 1.568 0 .55.08 1.052.238 1.505.159.453.392.84.7 1.162.308.322.693.57 1.155.742.462.173.996.259 1.603.259zm8.722.014c.476 0 .94-.08 1.393-.238a3.938 3.938 0 001.169-.63l-.364-.826c-.252.187-.534.36-.847.518-.313.159-.679.238-1.099.238-.616 0-1.09-.163-1.421-.49-.331-.327-.497-.83-.497-1.512v-3.304h3.738V50.8h-3.738v-1.694l-1.092.308V50.8h-1.666v.938h1.666v3.472c0 .485.075.903.224 1.253.15.35.35.637.602.861.252.224.544.39.875.497a3.41 3.41 0 001.057.161zm7.966-8.302c.27 0 .497-.084.679-.252a.806.806 0 00.273-.616.889.889 0 00-.273-.651.922.922 0 00-.679-.273.838.838 0 00-.644.273.927.927 0 00-.252.651c0 .243.084.448.252.616a.872.872 0 00.644.252zm2.982 8.12v-.938h-2.38V50.8h-3.556v.938h2.436v5.124h-2.436v.938h5.936zm5.194.168a3.82 3.82 0 001.449-.259 2.907 2.907 0 001.071-.735c.29-.317.509-.702.658-1.155.15-.453.224-.959.224-1.519 0-.513-.068-.994-.203-1.442a3.168 3.168 0 00-.623-1.162 2.981 2.981 0 00-1.057-.777c-.425-.191-.931-.287-1.519-.287-1.092 0-1.932.329-2.52.987-.588.658-.882 1.552-.882 2.681 0 .513.068.994.203 1.442.135.448.343.835.623 1.162.28.327.635.586 1.064.777.43.191.933.287 1.512.287zm0-.938c-.41 0-.758-.08-1.043-.238a2.001 2.001 0 01-.693-.63 2.683 2.683 0 01-.385-.882 4.14 4.14 0 01-.119-.98c0-.905.187-1.587.56-2.044.373-.457.933-.686 1.68-.686.41 0 .758.08 1.043.238.285.159.518.369.7.63.182.261.313.553.392.875.08.322.119.651.119.987 0 .896-.189 1.575-.567 2.037-.378.462-.94.693-1.687.693zm6.58.77v-4.396c.065-.233.168-.455.308-.665.14-.21.303-.394.49-.553a2.44 2.44 0 01.623-.385c.229-.098.464-.147.707-.147.663 0 1.12.196 1.372.588.252.392.378.975.378 1.75V57.8h1.092v-4.018c0-.625-.056-1.141-.168-1.547-.112-.406-.278-.728-.497-.966a1.738 1.738 0 00-.826-.497 4.219 4.219 0 00-1.141-.14 2.856 2.856 0 00-2.023.833c-.154.154-.278.31-.371.469h-.07l-.126-1.134h-1.876v.91h.938c.019.103.035.224.049.364a12.159 12.159 0 01.056.847c.005.135.007.245.007.329v4.55h1.078z"/><path id="(){" fill="#7E7C7B" d="M97.272 60.768l.35-.966a4.965 4.965 0 01-1.337-.497 4.15 4.15 0 01-1.204-.994c-.36-.425-.649-.957-.868-1.596-.22-.64-.329-1.412-.329-2.317 0-.896.091-1.659.273-2.289.182-.63.439-1.157.77-1.582a3.928 3.928 0 011.183-1.022 7.086 7.086 0 011.512-.623l-.35-.882a6.005 6.005 0 00-1.729.665 4.984 4.984 0 00-1.435 1.246c-.41.518-.737 1.148-.98 1.89s-.364 1.608-.364 2.597c0 .999.119 1.862.357 2.59.238.728.56 1.344.966 1.848.406.504.882.912 1.428 1.225a6.964 6.964 0 001.757.707zm4.704 0a6.964 6.964 0 001.757-.707 5.036 5.036 0 001.428-1.225c.406-.504.728-1.12.966-1.848s.357-1.591.357-2.59c0-.99-.121-1.855-.364-2.597s-.57-1.372-.98-1.89a4.984 4.984 0 00-1.435-1.246 6.005 6.005 0 00-1.729-.665l-.35.882c.55.159 1.055.366 1.512.623.457.257.852.597 1.183 1.022.331.425.588.952.77 1.582.182.63.273 1.393.273 2.289 0 .905-.11 1.678-.329 2.317-.22.64-.509 1.171-.868 1.596a4.15 4.15 0 01-1.204.994 4.965 4.965 0 01-1.337.497l.35.966zm21.728.252v-.98h-1.526c-.57 0-.975-.135-1.218-.406-.243-.27-.364-.69-.364-1.26V57.03a2.25 2.25 0 00-.217-.994 3.347 3.347 0 00-.511-.777 2.744 2.744 0 00-.602-.518c-.205-.126-.369-.198-.49-.217v-.084c.13-.019.299-.086.504-.203a2.7 2.7 0 001.106-1.225c.14-.299.21-.64.21-1.022v-1.358c0-.55.114-.966.343-1.246.229-.28.637-.42 1.225-.42h1.54v-.98h-2.03c-.317 0-.609.058-.875.175a2.053 2.053 0 00-.686.483 2.22 2.22 0 00-.448.728c-.107.28-.161.588-.161.924v1.428c0 .43-.068.789-.203 1.078-.135.29-.303.525-.504.707a1.87 1.87 0 01-.644.392c-.229.08-.432.119-.609.119V55c.177 0 .38.047.609.14.229.093.443.238.644.434.2.196.369.441.504.735s.203.642.203 1.043v1.372c0 .756.198 1.328.595 1.715.397.387.922.581 1.575.581h2.03z"/><path id="alert" fill="#181717" d="M136.514 57.926a2.749 2.749 0 001.589-.469c.182-.126.329-.254.441-.385.112-.13.196-.238.252-.322h.07l.126 1.05h1.862v-.91h-.938c-.056-.42-.084-.863-.084-1.33.01-.401.023-.803.042-1.204.019-.401.028-.78.028-1.134 0-.308-.03-.614-.091-.917a2.049 2.049 0 00-.35-.812 1.893 1.893 0 00-.714-.581c-.303-.15-.693-.224-1.169-.224-.485 0-.98.051-1.484.154-.504.103-.957.27-1.358.504l.35.812c.299-.121.64-.24 1.022-.357a4.106 4.106 0 011.204-.175c.308 0 .567.035.777.105.21.07.373.189.49.357.117.168.191.394.224.679.033.285.026.642-.021 1.071a9.544 9.544 0 00-1.869-.112c-.555.028-1.029.126-1.421.294-.392.168-.693.41-.903.728-.21.317-.315.714-.315 1.19 0 .616.2 1.101.602 1.456.401.355.947.532 1.638.532zm.28-.938c-.495 0-.847-.114-1.057-.343a1.152 1.152 0 01-.315-.805c0-.299.084-.541.252-.728.168-.187.401-.324.7-.413a3.763 3.763 0 011.064-.133c.41 0 .859.042 1.344.126v.98a2.133 2.133 0 01-.672.868 2.22 2.22 0 01-.588.322 2.057 2.057 0 01-.728.126zm9.884.994c.159 0 .331-.019.518-.056a3.61 3.61 0 001.106-.42c.177-.103.34-.22.49-.35l-.504-.77c-.29.224-.553.383-.791.476-.238.093-.488.14-.749.14-.373 0-.656-.117-.847-.35-.191-.233-.287-.635-.287-1.204V48h-2.324v.938h1.232v6.51c0 .476.047.875.14 1.197.093.322.231.581.413.777.182.196.408.338.679.427.27.089.579.133.924.133zm7.672-.014c.299 0 .595-.026.889-.077.294-.051.576-.124.847-.217.27-.093.52-.205.749-.336.229-.13.427-.27.595-.42l-.434-.798a2.585 2.585 0 01-.399.28 3.72 3.72 0 01-.595.28c-.224.084-.46.156-.707.217-.247.06-.497.091-.749.091-.756 0-1.36-.208-1.813-.623-.453-.415-.679-1.043-.679-1.883h5.418c.047-.793-.01-1.44-.168-1.939-.159-.5-.385-.891-.679-1.176a2.295 2.295 0 00-1.015-.581 4.466 4.466 0 00-1.162-.154c-.541 0-1.031.082-1.47.245a3.08 3.08 0 00-1.12.707c-.308.308-.544.69-.707 1.148-.163.457-.245.98-.245 1.568 0 .56.075 1.064.224 1.512.15.448.369.833.658 1.155.29.322.649.57 1.078.742.43.173.924.259 1.484.259zm2.1-4.466h-4.354c.037-.364.124-.67.259-.917s.308-.448.518-.602c.21-.154.453-.264.728-.329a3.78 3.78 0 01.875-.098c.57 0 1.029.17 1.379.511.35.34.548.819.595 1.435zm8.554 4.298v-.938h-2.688v-4.13c.056-.084.145-.187.266-.308.121-.121.268-.243.441-.364s.376-.224.609-.308c.233-.084.495-.126.784-.126.308 0 .52.14.637.42.117.28.175.719.175 1.316l.98-.014c0-.42-.019-.796-.056-1.127a2.771 2.771 0 00-.217-.847 1.206 1.206 0 00-.448-.532c-.191-.121-.446-.182-.763-.182-.541 0-1.008.103-1.4.308a5.046 5.046 0 00-1.064.742h-.07l-.224-.91h-2.618v.938h1.89v5.124h-1.89v.938h5.656zm6.678.182c.476 0 .94-.08 1.393-.238a3.938 3.938 0 001.169-.63l-.364-.826c-.252.187-.534.36-.847.518-.313.159-.679.238-1.099.238-.616 0-1.09-.163-1.421-.49-.331-.327-.497-.83-.497-1.512v-3.304h3.738V50.8h-3.738v-1.694l-1.092.308V50.8h-1.666v.938h1.666v3.472c0 .485.075.903.224 1.253.15.35.35.637.602.861.252.224.544.39.875.497a3.41 3.41 0 001.057.161z"/><path id="(" fill="#7E7C7B" d="M181.272 60.768l.35-.966a4.965 4.965 0 01-1.337-.497 4.15 4.15 0 01-1.204-.994c-.36-.425-.649-.957-.868-1.596-.22-.64-.329-1.412-.329-2.317 0-.896.091-1.659.273-2.289.182-.63.439-1.157.77-1.582a3.928 3.928 0 011.183-1.022 7.086 7.086 0 011.512-.623l-.35-.882a6.005 6.005 0 00-1.729.665 4.984 4.984 0 00-1.435 1.246c-.41.518-.737 1.148-.98 1.89s-.364 1.608-.364 2.597c0 .999.119 1.862.357 2.59.238.728.56 1.344.966 1.848.406.504.882.912 1.428 1.225a6.964 6.964 0 001.757.707z"/><path id="j" fill="#181717" d="M188.636 49.68c.27 0 .497-.084.679-.252a.806.806 0 00.273-.616.889.889 0 00-.273-.651.922.922 0 00-.679-.273.838.838 0 00-.644.273.927.927 0 00-.252.651c0 .243.084.448.252.616a.872.872 0 00.644.252zm-1.904 11.088c.85 0 1.514-.231 1.995-.693.48-.462.721-1.164.721-2.107V50.8h-4.508v.938h3.388v6.02c0 .616-.119 1.099-.357 1.449-.238.35-.637.525-1.197.525-.345 0-.679-.07-1.001-.21a4.362 4.362 0 01-.861-.49l-.462.91a4.501 4.501 0 00.882.497c.205.089.427.166.665.231.238.065.483.098.735.098z"/><path id=");}," fill="#7E7C7B" d="M194.376 60.768a6.964 6.964 0 001.757-.707 5.036 5.036 0 001.428-1.225c.406-.504.728-1.12.966-1.848s.357-1.591.357-2.59c0-.99-.121-1.855-.364-2.597s-.57-1.372-.98-1.89a4.984 4.984 0 00-1.435-1.246 6.005 6.005 0 00-1.729-.665l-.35.882c.55.159 1.055.366 1.512.623.457.257.852.597 1.183 1.022.331.425.588.952.77 1.582.182.63.273 1.393.273 2.289 0 .905-.11 1.678-.329 2.317-.22.64-.509 1.171-.868 1.596a4.15 4.15 0 01-1.204.994 4.965 4.965 0 01-1.337.497l.35.966zm10.304-8.302c.299 0 .532-.089.7-.266a.938.938 0 00.252-.672c0-.299-.084-.53-.252-.693-.168-.163-.401-.245-.7-.245-.28 0-.504.082-.672.245-.168.163-.252.394-.252.693 0 .27.084.495.252.672.168.177.392.266.672.266zm-.756 7.42c.177-.056.371-.142.581-.259a2.42 2.42 0 001.043-1.162 2.36 2.36 0 00.182-.959c0-.448-.098-.796-.294-1.043-.196-.247-.471-.371-.826-.371-.29 0-.525.086-.707.259a.893.893 0 00-.273.679c0 .299.077.525.231.679.154.154.366.231.637.231.075 0 .177-.014.308-.042 0 .345-.121.64-.364.882-.243.243-.532.43-.868.56l.35.546zm16.45 1.134c.653 0 1.178-.194 1.575-.581.397-.387.595-.959.595-1.715v-1.372c0-.401.068-.749.203-1.043a2.44 2.44 0 01.504-.735c.2-.196.415-.34.644-.434.229-.093.432-.14.609-.14v-.98c-.177 0-.38-.04-.609-.119a1.87 1.87 0 01-.644-.392 2.193 2.193 0 01-.504-.707c-.135-.29-.203-.649-.203-1.078v-1.428c0-.336-.054-.644-.161-.924a2.22 2.22 0 00-.448-.728 2.053 2.053 0 00-.686-.483 2.155 2.155 0 00-.875-.175h-2.03v.98h1.54c.588 0 .996.14 1.225.42.229.28.343.695.343 1.246v1.358c0 .383.07.723.21 1.022a2.7 2.7 0 001.106 1.225c.205.117.373.184.504.203v.084c-.13.019-.299.091-.504.217a2.744 2.744 0 00-.602.518c-.196.22-.364.478-.504.777-.14.299-.21.63-.21.994v1.344c0 .57-.121.99-.364 1.26s-.649.406-1.218.406h-1.526v.98h2.03zm8.75-1.134c.177-.056.371-.142.581-.259a2.42 2.42 0 001.043-1.162 2.36 2.36 0 00.182-.959c0-.448-.098-.796-.294-1.043-.196-.247-.471-.371-.826-.371-.29 0-.525.086-.707.259a.893.893 0 00-.273.679c0 .299.077.525.231.679.154.154.366.231.637.231.075 0 .177-.014.308-.042 0 .345-.121.64-.364.882-.243.243-.532.43-.868.56l.35.546z"/><path id="function" fill="#1C85B5" d="M22.512 81.8v-.938h-2.898v-5.124h2.898V74.8h-2.898c0-.69.112-1.188.336-1.491.224-.303.644-.455 1.26-.455.187 0 .392.016.616.049.224.033.457.1.7.203l.252-.91a3.603 3.603 0 00-.784-.224 5.473 5.473 0 00-.826-.056c-.85 0-1.503.196-1.96.588-.457.392-.686 1.027-.686 1.904v.392h-1.666v.938h1.666v5.124h-1.666v.938h5.656zm5.222.168c.57 0 1.055-.126 1.456-.378s.723-.579.966-.98h.056l.042 1.19h1.862v-.91h-.938a9.956 9.956 0 01-.084-1.316V74.8h-1.988v.938h.896v3.626c-.187.476-.46.873-.819 1.19-.36.317-.782.476-1.267.476-.336 0-.604-.054-.805-.161a1.046 1.046 0 01-.455-.476 2.317 2.317 0 01-.203-.77 9.693 9.693 0 01-.049-1.029V74.8h-2.03v.938h.938v3.08c0 .607.047 1.113.14 1.519.093.406.238.73.434.973s.446.413.749.511c.303.098.67.147 1.099.147zm7.07-.168v-4.396c.065-.233.168-.455.308-.665.14-.21.303-.394.49-.553a2.44 2.44 0 01.623-.385c.229-.098.464-.147.707-.147.663 0 1.12.196 1.372.588.252.392.378.975.378 1.75V81.8h1.092v-4.018c0-.625-.056-1.141-.168-1.547-.112-.406-.278-.728-.497-.966a1.738 1.738 0 00-.826-.497 4.219 4.219 0 00-1.141-.14 2.856 2.856 0 00-2.023.833c-.154.154-.278.31-.371.469h-.07l-.126-1.134h-1.876v.91h.938c.019.103.035.224.049.364a12.159 12.159 0 01.056.847c.005.135.007.245.007.329v4.55h1.078zm10.556.168c.364 0 .702-.033 1.015-.098a4.708 4.708 0 002.023-.952l-.49-.812c-.28.243-.628.439-1.043.588-.415.15-.842.224-1.281.224-.41 0-.786-.06-1.127-.182a2.517 2.517 0 01-.875-.518 2.248 2.248 0 01-.56-.819 2.902 2.902 0 01-.196-1.099c0-.933.224-1.615.672-2.044.448-.43 1.13-.644 2.044-.644.243 0 .488.026.735.077.247.051.478.114.693.189v1.33h1.008v-1.946l.014-.042a6.232 6.232 0 00-1.099-.406c-.434-.121-.996-.182-1.687-.182-.541 0-1.031.082-1.47.245a3.08 3.08 0 00-1.12.707c-.308.308-.544.69-.707 1.148-.163.457-.245.98-.245 1.568 0 .55.08 1.052.238 1.505.159.453.392.84.7 1.162.308.322.693.57 1.155.742.462.173.996.259 1.603.259zm8.722.014c.476 0 .94-.08 1.393-.238a3.938 3.938 0 001.169-.63l-.364-.826c-.252.187-.534.36-.847.518-.313.159-.679.238-1.099.238-.616 0-1.09-.163-1.421-.49-.331-.327-.497-.83-.497-1.512v-3.304h3.738V74.8h-3.738v-1.694l-1.092.308V74.8h-1.666v.938h1.666v3.472c0 .485.075.903.224 1.253.15.35.35.637.602.861.252.224.544.39.875.497a3.41 3.41 0 001.057.161zm7.966-8.302c.27 0 .497-.084.679-.252a.806.806 0 00.273-.616.889.889 0 00-.273-.651.922.922 0 00-.679-.273.838.838 0 00-.644.273.927.927 0 00-.252.651c0 .243.084.448.252.616a.872.872 0 00.644.252zm2.982 8.12v-.938h-2.38V74.8h-3.556v.938h2.436v5.124h-2.436v.938h5.936zm5.194.168a3.82 3.82 0 001.449-.259 2.907 2.907 0 001.071-.735c.29-.317.509-.702.658-1.155.15-.453.224-.959.224-1.519 0-.513-.068-.994-.203-1.442a3.168 3.168 0 00-.623-1.162 2.981 2.981 0 00-1.057-.777c-.425-.191-.931-.287-1.519-.287-1.092 0-1.932.329-2.52.987-.588.658-.882 1.552-.882 2.681 0 .513.068.994.203 1.442.135.448.343.835.623 1.162.28.327.635.586 1.064.777.43.191.933.287 1.512.287zm0-.938c-.41 0-.758-.08-1.043-.238a2.001 2.001 0 01-.693-.63 2.683 2.683 0 01-.385-.882 4.14 4.14 0 01-.119-.98c0-.905.187-1.587.56-2.044.373-.457.933-.686 1.68-.686.41 0 .758.08 1.043.238.285.159.518.369.7.63.182.261.313.553.392.875.08.322.119.651.119.987 0 .896-.189 1.575-.567 2.037-.378.462-.94.693-1.687.693zm6.58.77v-4.396c.065-.233.168-.455.308-.665.14-.21.303-.394.49-.553a2.44 2.44 0 01.623-.385c.229-.098.464-.147.707-.147.663 0 1.12.196 1.372.588.252.392.378.975.378 1.75V81.8h1.092v-4.018c0-.625-.056-1.141-.168-1.547-.112-.406-.278-.728-.497-.966a1.738 1.738 0 00-.826-.497 4.219 4.219 0 00-1.141-.14 2.856 2.856 0 00-2.023.833c-.154.154-.278.31-.371.469h-.07l-.126-1.134h-1.876v.91h.938c.019.103.035.224.049.364a12.159 12.159 0 01.056.847c.005.135.007.245.007.329v4.55h1.078z"/><path id="(){" fill="#7E7C7B" d="M97.272 84.768l.35-.966a4.965 4.965 0 01-1.337-.497 4.15 4.15 0 01-1.204-.994c-.36-.425-.649-.957-.868-1.596-.22-.64-.329-1.412-.329-2.317 0-.896.091-1.659.273-2.289.182-.63.439-1.157.77-1.582a3.928 3.928 0 011.183-1.022 7.086 7.086 0 011.512-.623l-.35-.882a6.005 6.005 0 00-1.729.665 4.984 4.984 0 00-1.435 1.246c-.41.518-.737 1.148-.98 1.89s-.364 1.608-.364 2.597c0 .999.119 1.862.357 2.59.238.728.56 1.344.966 1.848.406.504.882.912 1.428 1.225a6.964 6.964 0 001.757.707zm4.704 0a6.964 6.964 0 001.757-.707 5.036 5.036 0 001.428-1.225c.406-.504.728-1.12.966-1.848s.357-1.591.357-2.59c0-.99-.121-1.855-.364-2.597s-.57-1.372-.98-1.89a4.984 4.984 0 00-1.435-1.246 6.005 6.005 0 00-1.729-.665l-.35.882c.55.159 1.055.366 1.512.623.457.257.852.597 1.183 1.022.331.425.588.952.77 1.582.182.63.273 1.393.273 2.289 0 .905-.11 1.678-.329 2.317-.22.64-.509 1.171-.868 1.596a4.15 4.15 0 01-1.204.994 4.965 4.965 0 01-1.337.497l.35.966zm21.728.252v-.98h-1.526c-.57 0-.975-.135-1.218-.406-.243-.27-.364-.69-.364-1.26V81.03a2.25 2.25 0 00-.217-.994 3.347 3.347 0 00-.511-.777 2.744 2.744 0 00-.602-.518c-.205-.126-.369-.198-.49-.217v-.084c.13-.019.299-.086.504-.203a2.7 2.7 0 001.106-1.225c.14-.299.21-.64.21-1.022v-1.358c0-.55.114-.966.343-1.246.229-.28.637-.42 1.225-.42h1.54v-.98h-2.03c-.317 0-.609.058-.875.175a2.053 2.053 0 00-.686.483 2.22 2.22 0 00-.448.728c-.107.28-.161.588-.161.924v1.428c0 .43-.068.789-.203 1.078-.135.29-.303.525-.504.707a1.87 1.87 0 01-.644.392c-.229.08-.432.119-.609.119V79c.177 0 .38.047.609.14.229.093.443.238.644.434.2.196.369.441.504.735s.203.642.203 1.043v1.372c0 .756.198 1.328.595 1.715.397.387.922.581 1.575.581h2.03z"/><path id="alert" fill="#181717" d="M136.514 81.926a2.749 2.749 0 001.589-.469c.182-.126.329-.254.441-.385.112-.13.196-.238.252-.322h.07l.126 1.05h1.862v-.91h-.938c-.056-.42-.084-.863-.084-1.33.01-.401.023-.803.042-1.204.019-.401.028-.78.028-1.134 0-.308-.03-.614-.091-.917a2.049 2.049 0 00-.35-.812 1.893 1.893 0 00-.714-.581c-.303-.15-.693-.224-1.169-.224-.485 0-.98.051-1.484.154-.504.103-.957.27-1.358.504l.35.812c.299-.121.64-.24 1.022-.357a4.106 4.106 0 011.204-.175c.308 0 .567.035.777.105.21.07.373.189.49.357.117.168.191.394.224.679.033.285.026.642-.021 1.071a9.544 9.544 0 00-1.869-.112c-.555.028-1.029.126-1.421.294-.392.168-.693.41-.903.728-.21.317-.315.714-.315 1.19 0 .616.2 1.101.602 1.456.401.355.947.532 1.638.532zm.28-.938c-.495 0-.847-.114-1.057-.343a1.152 1.152 0 01-.315-.805c0-.299.084-.541.252-.728.168-.187.401-.324.7-.413a3.763 3.763 0 011.064-.133c.41 0 .859.042 1.344.126v.98a2.133 2.133 0 01-.672.868 2.22 2.22 0 01-.588.322 2.057 2.057 0 01-.728.126zm9.884.994c.159 0 .331-.019.518-.056a3.61 3.61 0 001.106-.42c.177-.103.34-.22.49-.35l-.504-.77c-.29.224-.553.383-.791.476-.238.093-.488.14-.749.14-.373 0-.656-.117-.847-.35-.191-.233-.287-.635-.287-1.204V72h-2.324v.938h1.232v6.51c0 .476.047.875.14 1.197.093.322.231.581.413.777.182.196.408.338.679.427.27.089.579.133.924.133zm7.672-.014c.299 0 .595-.026.889-.077.294-.051.576-.124.847-.217.27-.093.52-.205.749-.336.229-.13.427-.27.595-.42l-.434-.798a2.585 2.585 0 01-.399.28 3.72 3.72 0 01-.595.28c-.224.084-.46.156-.707.217-.247.06-.497.091-.749.091-.756 0-1.36-.208-1.813-.623-.453-.415-.679-1.043-.679-1.883h5.418c.047-.793-.01-1.44-.168-1.939-.159-.5-.385-.891-.679-1.176a2.295 2.295 0 00-1.015-.581 4.466 4.466 0 00-1.162-.154c-.541 0-1.031.082-1.47.245a3.08 3.08 0 00-1.12.707c-.308.308-.544.69-.707 1.148-.163.457-.245.98-.245 1.568 0 .56.075 1.064.224 1.512.15.448.369.833.658 1.155.29.322.649.57 1.078.742.43.173.924.259 1.484.259zm2.1-4.466h-4.354c.037-.364.124-.67.259-.917s.308-.448.518-.602c.21-.154.453-.264.728-.329a3.78 3.78 0 01.875-.098c.57 0 1.029.17 1.379.511.35.34.548.819.595 1.435zm8.554 4.298v-.938h-2.688v-4.13c.056-.084.145-.187.266-.308.121-.121.268-.243.441-.364s.376-.224.609-.308c.233-.084.495-.126.784-.126.308 0 .52.14.637.42.117.28.175.719.175 1.316l.98-.014c0-.42-.019-.796-.056-1.127a2.771 2.771 0 00-.217-.847 1.206 1.206 0 00-.448-.532c-.191-.121-.446-.182-.763-.182-.541 0-1.008.103-1.4.308a5.046 5.046 0 00-1.064.742h-.07l-.224-.91h-2.618v.938h1.89v5.124h-1.89v.938h5.656zm6.678.182c.476 0 .94-.08 1.393-.238a3.938 3.938 0 001.169-.63l-.364-.826c-.252.187-.534.36-.847.518-.313.159-.679.238-1.099.238-.616 0-1.09-.163-1.421-.49-.331-.327-.497-.83-.497-1.512v-3.304h3.738V74.8h-3.738v-1.694l-1.092.308V74.8h-1.666v.938h1.666v3.472c0 .485.075.903.224 1.253.15.35.35.637.602.861.252.224.544.39.875.497a3.41 3.41 0 001.057.161z"/><path id="(" fill="#7E7C7B" d="M181.272 84.768l.35-.966a4.965 4.965 0 01-1.337-.497 4.15 4.15 0 01-1.204-.994c-.36-.425-.649-.957-.868-1.596-.22-.64-.329-1.412-.329-2.317 0-.896.091-1.659.273-2.289.182-.63.439-1.157.77-1.582a3.928 3.928 0 011.183-1.022 7.086 7.086 0 011.512-.623l-.35-.882a6.005 6.005 0 00-1.729.665 4.984 4.984 0 00-1.435 1.246c-.41.518-.737 1.148-.98 1.89s-.364 1.608-.364 2.597c0 .999.119 1.862.357 2.59.238.728.56 1.344.966 1.848.406.504.882.912 1.428 1.225a6.964 6.964 0 001.757.707z"/><path id="j" fill="#181717" d="M188.636 73.68c.27 0 .497-.084.679-.252a.806.806 0 00.273-.616.889.889 0 00-.273-.651.922.922 0 00-.679-.273.838.838 0 00-.644.273.927.927 0 00-.252.651c0 .243.084.448.252.616a.872.872 0 00.644.252zm-1.904 11.088c.85 0 1.514-.231 1.995-.693.48-.462.721-1.164.721-2.107V74.8h-4.508v.938h3.388v6.02c0 .616-.119 1.099-.357 1.449-.238.35-.637.525-1.197.525-.345 0-.679-.07-1.001-.21a4.362 4.362 0 01-.861-.49l-.462.91a4.501 4.501 0 00.882.497c.205.089.427.166.665.231.238.065.483.098.735.098z"/><path id=");}," fill="#7E7C7B" d="M194.376 84.768a6.964 6.964 0 001.757-.707 5.036 5.036 0 001.428-1.225c.406-.504.728-1.12.966-1.848s.357-1.591.357-2.59c0-.99-.121-1.855-.364-2.597s-.57-1.372-.98-1.89a4.984 4.984 0 00-1.435-1.246 6.005 6.005 0 00-1.729-.665l-.35.882c.55.159 1.055.366 1.512.623.457.257.852.597 1.183 1.022.331.425.588.952.77 1.582.182.63.273 1.393.273 2.289 0 .905-.11 1.678-.329 2.317-.22.64-.509 1.171-.868 1.596a4.15 4.15 0 01-1.204.994 4.965 4.965 0 01-1.337.497l.35.966zm10.304-8.302c.299 0 .532-.089.7-.266a.938.938 0 00.252-.672c0-.299-.084-.53-.252-.693-.168-.163-.401-.245-.7-.245-.28 0-.504.082-.672.245-.168.163-.252.394-.252.693 0 .27.084.495.252.672.168.177.392.266.672.266zm-.756 7.42c.177-.056.371-.142.581-.259a2.42 2.42 0 001.043-1.162 2.36 2.36 0 00.182-.959c0-.448-.098-.796-.294-1.043-.196-.247-.471-.371-.826-.371-.29 0-.525.086-.707.259a.893.893 0 00-.273.679c0 .299.077.525.231.679.154.154.366.231.637.231.075 0 .177-.014.308-.042 0 .345-.121.64-.364.882-.243.243-.532.43-.868.56l.35.546zm16.45 1.134c.653 0 1.178-.194 1.575-.581.397-.387.595-.959.595-1.715v-1.372c0-.401.068-.749.203-1.043a2.44 2.44 0 01.504-.735c.2-.196.415-.34.644-.434.229-.093.432-.14.609-.14v-.98c-.177 0-.38-.04-.609-.119a1.87 1.87 0 01-.644-.392 2.193 2.193 0 01-.504-.707c-.135-.29-.203-.649-.203-1.078v-1.428c0-.336-.054-.644-.161-.924a2.22 2.22 0 00-.448-.728 2.053 2.053 0 00-.686-.483 2.155 2.155 0 00-.875-.175h-2.03v.98h1.54c.588 0 .996.14 1.225.42.229.28.343.695.343 1.246v1.358c0 .383.07.723.21 1.022a2.7 2.7 0 001.106 1.225c.205.117.373.184.504.203v.084c-.13.019-.299.091-.504.217a2.744 2.744 0 00-.602.518c-.196.22-.364.478-.504.777-.14.299-.21.63-.21.994v1.344c0 .57-.121.99-.364 1.26s-.649.406-1.218.406h-1.526v.98h2.03zm8.75-1.134c.177-.056.371-.142.581-.259a2.42 2.42 0 001.043-1.162 2.36 2.36 0 00.182-.959c0-.448-.098-.796-.294-1.043-.196-.247-.471-.371-.826-.371-.29 0-.525.086-.707.259a.893.893 0 00-.273.679c0 .299.077.525.231.679.154.154.366.231.637.231.075 0 .177-.014.308-.042 0 .345-.121.64-.364.882-.243.243-.532.43-.868.56l.35.546z"/><path id="..." fill="#181717" d="M19.81 105.968c.299 0 .532-.089.7-.266a.938.938 0 00.252-.672c0-.299-.084-.53-.252-.693-.168-.163-.401-.245-.7-.245-.28 0-.504.082-.672.245-.168.163-.252.394-.252.693 0 .27.084.495.252.672.168.177.392.266.672.266zm8.4 0c.299 0 .532-.089.7-.266a.938.938 0 00.252-.672c0-.299-.084-.53-.252-.693-.168-.163-.401-.245-.7-.245-.28 0-.504.082-.672.245-.168.163-.252.394-.252.693 0 .27.084.495.252.672.168.177.392.266.672.266zm8.4 0c.299 0 .532-.089.7-.266a.938.938 0 00.252-.672c0-.299-.084-.53-.252-.693-.168-.163-.401-.245-.7-.245-.28 0-.504.082-.672.245-.168.163-.252.394-.252.693 0 .27.084.495.252.672.168.177.392.266.672.266z"/><path id="function" fill="#1C85B5" d="M22.512 129.8v-.938h-2.898v-5.124h2.898v-.938h-2.898c0-.69.112-1.188.336-1.491.224-.303.644-.455 1.26-.455.187 0 .392.016.616.049.224.033.457.1.7.203l.252-.91a3.603 3.603 0 00-.784-.224 5.473 5.473 0 00-.826-.056c-.85 0-1.503.196-1.96.588-.457.392-.686 1.027-.686 1.904v.392h-1.666v.938h1.666v5.124h-1.666v.938h5.656zm5.222.168c.57 0 1.055-.126 1.456-.378s.723-.579.966-.98h.056l.042 1.19h1.862v-.91h-.938a9.956 9.956 0 01-.084-1.316V122.8h-1.988v.938h.896v3.626c-.187.476-.46.873-.819 1.19-.36.317-.782.476-1.267.476-.336 0-.604-.054-.805-.161a1.046 1.046 0 01-.455-.476 2.317 2.317 0 01-.203-.77 9.693 9.693 0 01-.049-1.029V122.8h-2.03v.938h.938v3.08c0 .607.047 1.113.14 1.519.093.406.238.73.434.973s.446.413.749.511c.303.098.67.147 1.099.147zm7.07-.168v-4.396c.065-.233.168-.455.308-.665.14-.21.303-.394.49-.553a2.44 2.44 0 01.623-.385c.229-.098.464-.147.707-.147.663 0 1.12.196 1.372.588.252.392.378.975.378 1.75v3.808h1.092v-4.018c0-.625-.056-1.141-.168-1.547-.112-.406-.278-.728-.497-.966a1.738 1.738 0 00-.826-.497 4.219 4.219 0 00-1.141-.14 2.856 2.856 0 00-2.023.833c-.154.154-.278.31-.371.469h-.07l-.126-1.134h-1.876v.91h.938c.019.103.035.224.049.364a12.158 12.158 0 01.056.847c.005.135.007.245.007.329v4.55h1.078zm10.556.168c.364 0 .702-.033 1.015-.098a4.708 4.708 0 002.023-.952l-.49-.812c-.28.243-.628.439-1.043.588-.415.15-.842.224-1.281.224-.41 0-.786-.06-1.127-.182a2.517 2.517 0 01-.875-.518 2.248 2.248 0 01-.56-.819 2.902 2.902 0 01-.196-1.099c0-.933.224-1.615.672-2.044.448-.43 1.13-.644 2.044-.644.243 0 .488.026.735.077.247.051.478.114.693.189v1.33h1.008v-1.946l.014-.042a6.232 6.232 0 00-1.099-.406c-.434-.121-.996-.182-1.687-.182-.541 0-1.031.082-1.47.245a3.08 3.08 0 00-1.12.707c-.308.308-.544.69-.707 1.148-.163.457-.245.98-.245 1.568 0 .55.08 1.052.238 1.505.159.453.392.84.7 1.162.308.322.693.57 1.155.742.462.173.996.259 1.603.259zm8.722.014c.476 0 .94-.08 1.393-.238a3.938 3.938 0 001.169-.63l-.364-.826c-.252.187-.534.36-.847.518-.313.159-.679.238-1.099.238-.616 0-1.09-.163-1.421-.49-.331-.327-.497-.83-.497-1.512v-3.304h3.738v-.938h-3.738v-1.694l-1.092.308v1.386h-1.666v.938h1.666v3.472c0 .485.075.903.224 1.253.15.35.35.637.602.861.252.224.544.39.875.497a3.41 3.41 0 001.057.161zm7.966-8.302c.27 0 .497-.084.679-.252a.806.806 0 00.273-.616.889.889 0 00-.273-.651.922.922 0 00-.679-.273.838.838 0 00-.644.273.927.927 0 00-.252.651c0 .243.084.448.252.616a.872.872 0 00.644.252zm2.982 8.12v-.938h-2.38V122.8h-3.556v.938h2.436v5.124h-2.436v.938h5.936zm5.194.168a3.82 3.82 0 001.449-.259 2.908 2.908 0 001.071-.735c.29-.317.509-.702.658-1.155.15-.453.224-.959.224-1.519 0-.513-.068-.994-.203-1.442a3.168 3.168 0 00-.623-1.162 2.981 2.981 0 00-1.057-.777c-.425-.191-.931-.287-1.519-.287-1.092 0-1.932.329-2.52.987-.588.658-.882 1.552-.882 2.681 0 .513.068.994.203 1.442.135.448.343.835.623 1.162.28.327.635.586 1.064.777.43.191.933.287 1.512.287zm0-.938c-.41 0-.758-.08-1.043-.238a2.001 2.001 0 01-.693-.63 2.683 2.683 0 01-.385-.882 4.14 4.14 0 01-.119-.98c0-.905.187-1.587.56-2.044.373-.457.933-.686 1.68-.686.41 0 .758.08 1.043.238.285.159.518.369.7.63.182.261.313.553.392.875.08.322.119.651.119.987 0 .896-.189 1.575-.567 2.037-.378.462-.94.693-1.687.693zm6.58.77v-4.396c.065-.233.168-.455.308-.665.14-.21.303-.394.49-.553a2.44 2.44 0 01.623-.385c.229-.098.464-.147.707-.147.663 0 1.12.196 1.372.588.252.392.378.975.378 1.75v3.808h1.092v-4.018c0-.625-.056-1.141-.168-1.547-.112-.406-.278-.728-.497-.966a1.738 1.738 0 00-.826-.497 4.219 4.219 0 00-1.141-.14 2.856 2.856 0 00-2.023.833c-.154.154-.278.31-.371.469h-.07l-.126-1.134h-1.876v.91h.938c.019.103.035.224.049.364a12.158 12.158 0 01.056.847c.005.135.007.245.007.329v4.55h1.078z"/><path id="(){" fill="#7E7C7B" d="M97.272 132.768l.35-.966a4.965 4.965 0 01-1.337-.497 4.15 4.15 0 01-1.204-.994c-.36-.425-.649-.957-.868-1.596-.22-.64-.329-1.412-.329-2.317 0-.896.091-1.659.273-2.289.182-.63.439-1.157.77-1.582a3.928 3.928 0 011.183-1.022 7.086 7.086 0 011.512-.623l-.35-.882a6.005 6.005 0 00-1.729.665 4.984 4.984 0 00-1.435 1.246c-.41.518-.737 1.148-.98 1.89s-.364 1.608-.364 2.597c0 .999.119 1.862.357 2.59.238.728.56 1.344.966 1.848.406.504.882.912 1.428 1.225a6.964 6.964 0 001.757.707zm4.704 0a6.964 6.964 0 001.757-.707 5.036 5.036 0 001.428-1.225c.406-.504.728-1.12.966-1.848s.357-1.591.357-2.59c0-.99-.121-1.855-.364-2.597s-.57-1.372-.98-1.89a4.984 4.984 0 00-1.435-1.246 6.005 6.005 0 00-1.729-.665l-.35.882c.55.159 1.055.366 1.512.623.457.257.852.597 1.183 1.022.331.425.588.952.77 1.582.182.63.273 1.393.273 2.289 0 .905-.11 1.678-.329 2.317-.22.64-.509 1.171-.868 1.596a4.15 4.15 0 01-1.204.994 4.965 4.965 0 01-1.337.497l.35.966zm21.728.252v-.98h-1.526c-.57 0-.975-.135-1.218-.406-.243-.27-.364-.69-.364-1.26v-1.344a2.25 2.25 0 00-.217-.994 3.347 3.347 0 00-.511-.777 2.744 2.744 0 00-.602-.518c-.205-.126-.369-.198-.49-.217v-.084c.13-.019.299-.086.504-.203a2.7 2.7 0 001.106-1.225c.14-.299.21-.64.21-1.022v-1.358c0-.55.114-.966.343-1.246.229-.28.637-.42 1.225-.42h1.54v-.98h-2.03c-.317 0-.609.058-.875.175a2.053 2.053 0 00-.686.483 2.22 2.22 0 00-.448.728c-.107.28-.161.588-.161.924v1.428c0 .43-.068.789-.203 1.078-.135.29-.303.525-.504.707a1.87 1.87 0 01-.644.392c-.229.08-.432.119-.609.119v.98c.177 0 .38.047.609.14.229.093.443.238.644.434.2.196.369.441.504.735s.203.642.203 1.043v1.372c0 .756.198 1.328.595 1.715.397.387.922.581 1.575.581h2.03z"/><path id="alert" fill="#181717" d="M136.514 129.926a2.749 2.749 0 001.589-.469c.182-.126.329-.254.441-.385.112-.13.196-.238.252-.322h.07l.126 1.05h1.862v-.91h-.938c-.056-.42-.084-.863-.084-1.33.01-.401.023-.803.042-1.204.019-.401.028-.78.028-1.134 0-.308-.03-.614-.091-.917a2.049 2.049 0 00-.35-.812 1.893 1.893 0 00-.714-.581c-.303-.15-.693-.224-1.169-.224-.485 0-.98.051-1.484.154-.504.103-.957.27-1.358.504l.35.812c.299-.121.64-.24 1.022-.357a4.106 4.106 0 011.204-.175c.308 0 .567.035.777.105.21.07.373.189.49.357.117.168.191.394.224.679.033.285.026.642-.021 1.071a9.544 9.544 0 00-1.869-.112c-.555.028-1.029.126-1.421.294-.392.168-.693.41-.903.728-.21.317-.315.714-.315 1.19 0 .616.2 1.101.602 1.456.401.355.947.532 1.638.532zm.28-.938c-.495 0-.847-.114-1.057-.343a1.152 1.152 0 01-.315-.805c0-.299.084-.541.252-.728.168-.187.401-.324.7-.413a3.763 3.763 0 011.064-.133c.41 0 .859.042 1.344.126v.98a2.133 2.133 0 01-.672.868 2.22 2.22 0 01-.588.322 2.057 2.057 0 01-.728.126zm9.884.994c.159 0 .331-.019.518-.056a3.61 3.61 0 001.106-.42c.177-.103.34-.22.49-.35l-.504-.77c-.29.224-.553.383-.791.476-.238.093-.488.14-.749.14-.373 0-.656-.117-.847-.35-.191-.233-.287-.635-.287-1.204V120h-2.324v.938h1.232v6.51c0 .476.047.875.14 1.197.093.322.231.581.413.777.182.196.408.338.679.427.27.089.579.133.924.133zm7.672-.014c.299 0 .595-.026.889-.077.294-.051.576-.124.847-.217.27-.093.52-.205.749-.336.229-.13.427-.27.595-.42l-.434-.798a2.585 2.585 0 01-.399.28 3.72 3.72 0 01-.595.28c-.224.084-.46.156-.707.217-.247.06-.497.091-.749.091-.756 0-1.36-.208-1.813-.623-.453-.415-.679-1.043-.679-1.883h5.418c.047-.793-.01-1.44-.168-1.939-.159-.5-.385-.891-.679-1.176a2.295 2.295 0 00-1.015-.581 4.466 4.466 0 00-1.162-.154c-.541 0-1.031.082-1.47.245a3.08 3.08 0 00-1.12.707c-.308.308-.544.69-.707 1.148-.163.457-.245.98-.245 1.568 0 .56.075 1.064.224 1.512.15.448.369.833.658 1.155.29.322.649.57 1.078.742.43.173.924.259 1.484.259zm2.1-4.466h-4.354c.037-.364.124-.67.259-.917s.308-.448.518-.602c.21-.154.453-.264.728-.329a3.78 3.78 0 01.875-.098c.57 0 1.029.17 1.379.511.35.34.548.819.595 1.435zm8.554 4.298v-.938h-2.688v-4.13c.056-.084.145-.187.266-.308.121-.121.268-.243.441-.364s.376-.224.609-.308c.233-.084.495-.126.784-.126.308 0 .52.14.637.42.117.28.175.719.175 1.316l.98-.014c0-.42-.019-.796-.056-1.127a2.771 2.771 0 00-.217-.847 1.206 1.206 0 00-.448-.532c-.191-.121-.446-.182-.763-.182-.541 0-1.008.103-1.4.308a5.046 5.046 0 00-1.064.742h-.07l-.224-.91h-2.618v.938h1.89v5.124h-1.89v.938h5.656zm6.678.182c.476 0 .94-.08 1.393-.238a3.938 3.938 0 001.169-.63l-.364-.826c-.252.187-.534.36-.847.518-.313.159-.679.238-1.099.238-.616 0-1.09-.163-1.421-.49-.331-.327-.497-.83-.497-1.512v-3.304h3.738v-.938h-3.738v-1.694l-1.092.308v1.386h-1.666v.938h1.666v3.472c0 .485.075.903.224 1.253.15.35.35.637.602.861.252.224.544.39.875.497a3.41 3.41 0 001.057.161z"/><path id="(" fill="#7E7C7B" d="M181.272 132.768l.35-.966a4.965 4.965 0 01-1.337-.497 4.15 4.15 0 01-1.204-.994c-.36-.425-.649-.957-.868-1.596-.22-.64-.329-1.412-.329-2.317 0-.896.091-1.659.273-2.289.182-.63.439-1.157.77-1.582a3.928 3.928 0 011.183-1.022 7.086 7.086 0 011.512-.623l-.35-.882a6.005 6.005 0 00-1.729.665 4.984 4.984 0 00-1.435 1.246c-.41.518-.737 1.148-.98 1.89s-.364 1.608-.364 2.597c0 .999.119 1.862.357 2.59.238.728.56 1.344.966 1.848.406.504.882.912 1.428 1.225a6.964 6.964 0 001.757.707z"/><path id="j" fill="#181717" d="M188.636 121.68c.27 0 .497-.084.679-.252a.806.806 0 00.273-.616.889.889 0 00-.273-.651.922.922 0 00-.679-.273.838.838 0 00-.644.273.927.927 0 00-.252.651c0 .243.084.448.252.616a.872.872 0 00.644.252zm-1.904 11.088c.85 0 1.514-.231 1.995-.693.48-.462.721-1.164.721-2.107V122.8h-4.508v.938h3.388v6.02c0 .616-.119 1.099-.357 1.449-.238.35-.637.525-1.197.525-.345 0-.679-.07-1.001-.21a4.362 4.362 0 01-.861-.49l-.462.91a4.501 4.501 0 00.882.497c.205.089.427.166.665.231.238.065.483.098.735.098z"/><path id=");}];" fill="#7E7C7B" d="M194.376 132.768a6.964 6.964 0 001.757-.707 5.036 5.036 0 001.428-1.225c.406-.504.728-1.12.966-1.848s.357-1.591.357-2.59c0-.99-.121-1.855-.364-2.597s-.57-1.372-.98-1.89a4.984 4.984 0 00-1.435-1.246 6.005 6.005 0 00-1.729-.665l-.35.882c.55.159 1.055.366 1.512.623.457.257.852.597 1.183 1.022.331.425.588.952.77 1.582.182.63.273 1.393.273 2.289 0 .905-.11 1.678-.329 2.317-.22.64-.509 1.171-.868 1.596a4.15 4.15 0 01-1.204.994 4.965 4.965 0 01-1.337.497l.35.966zm10.304-8.302c.299 0 .532-.089.7-.266a.938.938 0 00.252-.672c0-.299-.084-.53-.252-.693-.168-.163-.401-.245-.7-.245-.28 0-.504.082-.672.245-.168.163-.252.394-.252.693 0 .27.084.495.252.672.168.177.392.266.672.266zm-.756 7.42c.177-.056.371-.142.581-.259a2.42 2.42 0 001.043-1.162 2.36 2.36 0 00.182-.959c0-.448-.098-.796-.294-1.043-.196-.247-.471-.371-.826-.371-.29 0-.525.086-.707.259a.893.893 0 00-.273.679c0 .299.077.525.231.679.154.154.366.231.637.231.075 0 .177-.014.308-.042 0 .345-.121.64-.364.882-.243.243-.532.43-.868.56l.35.546zm16.45 1.134c.653 0 1.178-.194 1.575-.581.397-.387.595-.959.595-1.715v-1.372c0-.401.068-.749.203-1.043a2.44 2.44 0 01.504-.735c.2-.196.415-.34.644-.434.229-.093.432-.14.609-.14v-.98c-.177 0-.38-.04-.609-.119a1.87 1.87 0 01-.644-.392 2.193 2.193 0 01-.504-.707c-.135-.29-.203-.649-.203-1.078v-1.428c0-.336-.054-.644-.161-.924a2.22 2.22 0 00-.448-.728 2.053 2.053 0 00-.686-.483 2.155 2.155 0 00-.875-.175h-2.03v.98h1.54c.588 0 .996.14 1.225.42.229.28.343.695.343 1.246v1.358c0 .383.07.723.21 1.022a2.7 2.7 0 001.106 1.225c.205.117.373.184.504.203v.084c-.13.019-.299.091-.504.217a2.744 2.744 0 00-.602.518c-.196.22-.364.478-.504.777-.14.299-.21.63-.21.994v1.344c0 .57-.121.99-.364 1.26s-.649.406-1.218.406h-1.526v.98h2.03zm-215.236 24V144H.35v.98h3.696v11.06H.35v.98h4.788zm6.342-8.554c.299 0 .532-.089.7-.266a.938.938 0 00.252-.672c0-.299-.084-.53-.252-.693-.168-.163-.401-.245-.7-.245-.28 0-.504.082-.672.245-.168.163-.252.394-.252.693 0 .27.084.495.252.672.168.177.392.266.672.266zm-.756 7.42c.177-.056.371-.142.581-.259a2.42 2.42 0 001.043-1.162 2.36 2.36 0 00.182-.959c0-.448-.098-.796-.294-1.043-.196-.247-.471-.371-.826-.371-.29 0-.525.086-.707.259a.893.893 0 00-.273.679c0 .299.077.525.231.679.154.154.366.231.637.231.075 0 .177-.014.308-.042 0 .345-.121.64-.364.882-.243.243-.532.43-.868.56l.35.546z"/></g><g id="Group-Copy" transform="translate(354 66)"><path id="Line" fill="#C06334" fill-rule="nonzero" d="M16.5 15.5l14 7-14 7v-6h-14v-2h14v-6z"/><text id="outer" fill="#AF6E24" font-family="PTMono-Regular, PT Mono" font-size="12" font-weight="normal"><tspan x="0" y="11">outer</tspan></text></g><g id="Group-Copy-2" fill="#C06334" fill-rule="nonzero" transform="translate(242 44)"><path id="Line" d="M13.5-5.5l14 7-14 7v-6h-14v-2h14v-6z"/></g><g id="Group-3" transform="translate(279 36)"><path id="Rectangle-1" fill="#FBF2EC" stroke="#DBAF88" stroke-width="2" d="M1 1h52v18H1z"/><text id="j:-0" fill="#AF6E24" font-family="PTMono-Regular, PT Mono" font-size="14" font-weight="normal"><tspan x="8" y="14">j: 0</tspan></text></g><g id="Group-Copy-3" fill="#C06334" fill-rule="nonzero" transform="translate(242 67)"><path id="Line" d="M13.5-5.5l14 7-14 7v-6h-14v-2h14v-6z"/></g><g id="Group-3-Copy" transform="translate(279 59)"><path id="Rectangle-1" fill="#FBF2EC" stroke="#DBAF88" stroke-width="2" d="M1 1h52v18H1z"/><text id="j:-1" fill="#AF6E24" font-family="PTMono-Regular, PT Mono" font-size="14" font-weight="normal"><tspan x="8" y="14">j: 1</tspan></text></g><g id="Group-Copy-4" fill="#C06334" fill-rule="nonzero" transform="translate(242 90)"><path id="Line" d="M13.5-5.5l14 7-14 7v-6h-14v-2h14v-6z"/></g><g id="Group-3-Copy-2" transform="translate(279 82)"><path id="Rectangle-1" fill="#FBF2EC" stroke="#DBAF88" stroke-width="2" d="M1 1h52v18H1z"/><text id="j:-2" fill="#AF6E24" font-family="PTMono-Regular, PT Mono" font-size="14" font-weight="normal"><tspan x="8" y="14">j: 2</tspan></text></g><g id="Group-Copy-5" fill="#C06334" fill-rule="nonzero" transform="translate(242 139)"><path id="Line" d="M13.5-5.5l14 7-14 7v-6h-14v-2h14v-6z"/></g><g id="Group-3-Copy-3" transform="translate(279 131)"><path id="Rectangle-1" fill="#FBF2EC" stroke="#DBAF88" stroke-width="2" d="M1 1h52v18H1z"/><text id="j:-10" fill="#AF6E24" font-family="PTMono-Regular, PT Mono" font-size="14" font-weight="normal"><tspan x="7.447" y="13.51">j: 10</tspan></text></g><text id="..." fill="#AF6E24" font-family="PTMono-Regular, PT Mono" font-size="14" font-weight="normal"><tspan x="403" y="94">...</tspan></text><text id="makeArmy()-LexicalEn" fill="#AF6E24" font-family="PTMono-Bold, PT Mono" font-size="14" font-weight="bold"><tspan x="403" y="62">makeArmy()</tspan>  <tspan x="403" y="77" font-family="PTMono-Regular, PT Mono" font-weight="normal">LexicalEnvironment</tspan></text><text id="while-iteration-Lexi" fill="#AF6E24" font-family="PTMono-Bold, PT Mono" font-size="14" font-weight="bold"><tspan x="278" y="14">while iteration</tspan>  <tspan x="278" y="29" font-family="PTMono-Regular, PT Mono" font-weight="normal">LexicalEnvironment</tspan></text></g></g></svg>