<?xml version="1.0" encoding="UTF-8"?>
<svg id="svg524" width="566" height="183" version="1.1" viewBox="0 0 566 183" xmlns="http://www.w3.org/2000/svg" xmlns:cc="http://creativecommons.org/ns#" xmlns:dc="http://purl.org/dc/elements/1.1/" xmlns:rdf="http://www.w3.org/1999/02/22-rdf-syntax-ns#">
 <metadata id="metadata528">
  <rdf:RDF>
   <cc:Work rdf:about="">
    <dc:format>image/svg+xml</dc:format>
    <dc:type rdf:resource="http://purl.org/dc/dcmitype/StillImage"/>
    <dc:title/>
   </cc:Work>
  </rdf:RDF>
 </metadata>
 <defs id="defs420">
  <style id="style418">@import url(https://fonts.googleapis.com/css?family=Open+Sans:bold,italic,bolditalic%7CPT+Mono);@font-face{font-family:'PT Mono';font-weight:700;font-style:normal;src:local('PT MonoBold'),url(/font/PTMonoBold.woff2) format('woff2'),url(/font/PTMonoBold.woff) format('woff'),url(/font/PTMonoBold.ttf) format('truetype')}</style>
 </defs>
 <g id="closure" fill="none" fill-rule="evenodd">
  <g id="task-while-lexenv-makearmy.svg">
   <g id="shooters-=-[" transform="translate(6.176,15.2)" fill-rule="nonzero">
    <path id="shooters" d="m4.956 7.91a0.796 0.796 0 0 0-0.35-0.693 2.872 2.872 0 0 0-0.868-0.392 16.056 16.056 0 0 0-1.127-0.273 6.502 6.502 0 0 1-1.127-0.336 2.525 2.525 0 0 1-0.868-0.567c-0.233-0.238-0.35-0.572-0.35-1.001 0-0.355 0.077-0.658 0.231-0.91a1.94 1.94 0 0 1 0.609-0.623c0.252-0.163 0.546-0.285 0.882-0.364 0.336-0.08 0.686-0.119 1.05-0.119 0.653 0 1.216 0.082 1.687 0.245s0.847 0.334 1.127 0.511l-0.448 0.882a11.79 11.79 0 0 0-1.001-0.483c-0.36-0.154-0.81-0.231-1.351-0.231-0.205 0-0.408 0.021-0.609 0.063-0.2 0.042-0.383 0.105-0.546 0.189a1.088 1.088 0 0 0-0.392 0.329 0.825 0.825 0 0 0-0.147 0.497c0 0.243 0.117 0.43 0.35 0.56s0.523 0.24 0.868 0.329 0.721 0.173 1.127 0.252c0.406 0.08 0.782 0.194 1.127 0.343 0.345 0.15 0.635 0.35 0.868 0.602s0.35 0.593 0.35 1.022c0 0.644-0.254 1.176-0.763 1.596s-1.272 0.63-2.289 0.63c-0.308 0-0.611-0.028-0.91-0.084a5.52 5.52 0 0 1-0.84-0.224 5.054 5.054 0 0 1-0.714-0.315 3.002 3.002 0 0 1-0.532-0.357l0.56-0.91c0.112 0.112 0.261 0.226 0.448 0.343a4.229 4.229 0 0 0 1.337 0.539 3.76 3.76 0 0 0 1.484 0.021c0.22-0.042 0.413-0.107 0.581-0.196a1.08 1.08 0 0 0 0.399-0.35 0.914 0.914 0 0 0 0.147-0.525zm2.324-7.91h2.184v3.668h0.07c0.29-0.327 0.625-0.581 1.008-0.763s0.859-0.273 1.428-0.273c0.448 0 0.838 0.047 1.169 0.14s0.602 0.257 0.812 0.49 0.366 0.553 0.469 0.959 0.154 0.922 0.154 1.547v4.032h-1.092v-3.822c0-0.401-0.023-0.751-0.07-1.05a1.829 1.829 0 0 0-0.273-0.749c-0.135-0.2-0.32-0.352-0.553-0.455s-0.532-0.154-0.896-0.154c-0.252 0-0.5 0.044-0.742 0.133-0.243 0.089-0.464 0.21-0.665 0.364-0.2 0.154-0.373 0.34-0.518 0.56s-0.245 0.46-0.301 0.721v4.452h-1.078v-8.862h-1.106zm9.142 6.3c0-1.13 0.294-2.023 0.882-2.681s1.428-0.987 2.52-0.987c0.588 0 1.094 0.096 1.519 0.287s0.777 0.45 1.057 0.777 0.488 0.714 0.623 1.162 0.203 0.929 0.203 1.442c0 0.56-0.075 1.066-0.224 1.519-0.15 0.453-0.369 0.838-0.658 1.155-0.29 0.317-0.646 0.562-1.071 0.735a3.82 3.82 0 0 1-1.449 0.259c-0.579 0-1.083-0.096-1.512-0.287a2.967 2.967 0 0 1-1.064-0.777 3.168 3.168 0 0 1-0.623-1.162 4.963 4.963 0 0 1-0.203-1.442zm1.162 0c0 0.327 0.04 0.653 0.119 0.98 0.08 0.327 0.208 0.62 0.385 0.882 0.177 0.261 0.408 0.471 0.693 0.63s0.632 0.238 1.043 0.238c0.747 0 1.309-0.231 1.687-0.693s0.567-1.141 0.567-2.037c0-0.336-0.04-0.665-0.119-0.987a2.608 2.608 0 0 0-0.392-0.875 2.066 2.066 0 0 0-0.7-0.63c-0.285-0.159-0.632-0.238-1.043-0.238-0.747 0-1.307 0.229-1.68 0.686s-0.56 1.139-0.56 2.044zm7.238 0c0-1.13 0.294-2.023 0.882-2.681s1.428-0.987 2.52-0.987c0.588 0 1.094 0.096 1.519 0.287s0.777 0.45 1.057 0.777 0.488 0.714 0.623 1.162 0.203 0.929 0.203 1.442c0 0.56-0.075 1.066-0.224 1.519-0.15 0.453-0.369 0.838-0.658 1.155-0.29 0.317-0.646 0.562-1.071 0.735a3.82 3.82 0 0 1-1.449 0.259c-0.579 0-1.083-0.096-1.512-0.287a2.967 2.967 0 0 1-1.064-0.777 3.168 3.168 0 0 1-0.623-1.162 4.963 4.963 0 0 1-0.203-1.442zm1.162 0c0 0.327 0.04 0.653 0.119 0.98 0.08 0.327 0.208 0.62 0.385 0.882 0.177 0.261 0.408 0.471 0.693 0.63s0.632 0.238 1.043 0.238c0.747 0 1.309-0.231 1.687-0.693s0.567-1.141 0.567-2.037c0-0.336-0.04-0.665-0.119-0.987a2.608 2.608 0 0 0-0.392-0.875 2.066 2.066 0 0 0-0.7-0.63c-0.285-0.159-0.632-0.238-1.043-0.238-0.747 0-1.307 0.229-1.68 0.686s-0.56 1.139-0.56 2.044zm6.874-3.5h1.666v-1.386l1.092-0.308v1.694h3.738v0.938h-3.738v3.304c0 0.681 0.166 1.185 0.497 1.512s0.805 0.49 1.421 0.49c0.42 0 0.786-0.08 1.099-0.238 0.313-0.159 0.595-0.331 0.847-0.518l0.364 0.826a3.938 3.938 0 0 1-1.169 0.63 4.182 4.182 0 0 1-1.393 0.238 3.41 3.41 0 0 1-1.057-0.161 2.426 2.426 0 0 1-0.875-0.497 2.38 2.38 0 0 1-0.602-0.861c-0.15-0.35-0.224-0.768-0.224-1.253v-3.472h-1.666zm15.372 6.118c-0.168 0.15-0.366 0.29-0.595 0.42a4.39 4.39 0 0 1-0.749 0.336c-0.27 0.093-0.553 0.166-0.847 0.217s-0.59 0.077-0.889 0.077c-0.56 0-1.055-0.086-1.484-0.259a2.858 2.858 0 0 1-1.078-0.742 3.234 3.234 0 0 1-0.658-1.155 4.767 4.767 0 0 1-0.224-1.512c0-0.588 0.082-1.11 0.245-1.568 0.163-0.457 0.399-0.84 0.707-1.148a3.08 3.08 0 0 1 1.12-0.707 4.187 4.187 0 0 1 1.47-0.245c0.392 0 0.78 0.051 1.162 0.154 0.383 0.103 0.721 0.296 1.015 0.581s0.52 0.677 0.679 1.176c0.159 0.5 0.215 1.146 0.168 1.939h-5.418c0 0.84 0.226 1.468 0.679 1.883s1.057 0.623 1.813 0.623c0.252 0 0.502-0.03 0.749-0.091 0.247-0.06 0.483-0.133 0.707-0.217a3.72 3.72 0 0 0 0.595-0.28c0.173-0.103 0.306-0.196 0.399-0.28zm-2.954-5.362c-0.308 0-0.6 0.033-0.875 0.098a1.995 1.995 0 0 0-0.728 0.329c-0.21 0.154-0.383 0.355-0.518 0.602s-0.222 0.553-0.259 0.917h4.354c-0.047-0.616-0.245-1.094-0.595-1.435-0.35-0.34-0.81-0.511-1.379-0.511zm4.872 6.244v-0.938h1.89v-5.124h-1.89v-0.938h2.618l0.224 0.91h0.07c0.317-0.29 0.672-0.537 1.064-0.742s0.859-0.308 1.4-0.308c0.317 0 0.572 0.06 0.763 0.182 0.191 0.121 0.34 0.299 0.448 0.532 0.107 0.233 0.18 0.516 0.217 0.847s0.056 0.707 0.056 1.127l-0.98 0.014c0-0.597-0.058-1.036-0.175-1.316s-0.329-0.42-0.637-0.42c-0.29 0-0.55 0.042-0.784 0.126a2.565 2.565 0 0 0-0.609 0.308c-0.173 0.121-0.32 0.243-0.441 0.364s-0.21 0.224-0.266 0.308v4.13h2.688v0.938zm13.608-1.89a0.796 0.796 0 0 0-0.35-0.693 2.872 2.872 0 0 0-0.868-0.392 16.056 16.056 0 0 0-1.127-0.273 6.502 6.502 0 0 1-1.127-0.336 2.525 2.525 0 0 1-0.868-0.567c-0.233-0.238-0.35-0.572-0.35-1.001 0-0.355 0.077-0.658 0.231-0.91a1.94 1.94 0 0 1 0.609-0.623c0.252-0.163 0.546-0.285 0.882-0.364 0.336-0.08 0.686-0.119 1.05-0.119 0.653 0 1.216 0.082 1.687 0.245s0.847 0.334 1.127 0.511l-0.448 0.882a11.79 11.79 0 0 0-1.001-0.483c-0.36-0.154-0.81-0.231-1.351-0.231-0.205 0-0.408 0.021-0.609 0.063-0.2 0.042-0.383 0.105-0.546 0.189a1.088 1.088 0 0 0-0.392 0.329 0.825 0.825 0 0 0-0.147 0.497c0 0.243 0.117 0.43 0.35 0.56s0.523 0.24 0.868 0.329 0.721 0.173 1.127 0.252c0.406 0.08 0.782 0.194 1.127 0.343 0.345 0.15 0.635 0.35 0.868 0.602s0.35 0.593 0.35 1.022c0 0.644-0.254 1.176-0.763 1.596s-1.272 0.63-2.289 0.63c-0.308 0-0.611-0.028-0.91-0.084a5.52 5.52 0 0 1-0.84-0.224 5.054 5.054 0 0 1-0.714-0.315 3.002 3.002 0 0 1-0.532-0.357l0.56-0.91c0.112 0.112 0.261 0.226 0.448 0.343a4.229 4.229 0 0 0 1.337 0.539 3.76 3.76 0 0 0 1.484 0.021c0.22-0.042 0.413-0.107 0.581-0.196a1.08 1.08 0 0 0 0.399-0.35 0.914 0.914 0 0 0 0.147-0.525z" fill="#000"/>
    <path id="=" d="m75.376 3.402h6.496v1.008h-6.496zm0 2.296h6.496v1.008h-6.496z" fill="#A67F59"/>
    <path id="[" d="m93.31 0h4.774v0.98h-3.682v11.06h3.682v0.98h-4.774z" fill="#999"/>
    <path id="function" d="m16.856 38.8v-0.938h1.666v-5.124h-1.666v-0.938h1.666v-0.392c0-0.877 0.229-1.512 0.686-1.904s1.11-0.588 1.96-0.588c0.308 0 0.583 0.019 0.826 0.056s0.504 0.112 0.784 0.224l-0.252 0.91a2.862 2.862 0 0 0-0.7-0.203 4.295 4.295 0 0 0-0.616-0.049c-0.616 0-1.036 0.152-1.26 0.455s-0.336 0.8-0.336 1.491h2.898v0.938h-2.898v5.124h2.898v0.938zm12.25-7h1.988v4.774c0 0.457 0.028 0.896 0.084 1.316h0.938v0.91h-1.862l-0.042-1.19h-0.056a2.938 2.938 0 0 1-0.966 0.98c-0.401 0.252-0.887 0.378-1.456 0.378-0.43 0-0.796-0.049-1.099-0.147a1.556 1.556 0 0 1-0.749-0.511c-0.196-0.243-0.34-0.567-0.434-0.973-0.093-0.406-0.14-0.912-0.14-1.519v-3.08h-0.938v-0.938h2.03v3.794c0 0.383 0.016 0.726 0.049 1.029s0.1 0.56 0.203 0.77 0.254 0.369 0.455 0.476c0.2 0.107 0.469 0.161 0.805 0.161 0.485 0 0.908-0.159 1.267-0.476 0.36-0.317 0.632-0.714 0.819-1.19v-3.626h-0.896zm4.62 2.45a14.05 14.05 0 0 0-0.063-1.176 4.657 4.657 0 0 0-0.049-0.364h-0.938v-0.91h1.876l0.126 1.134h0.07c0.093-0.159 0.217-0.315 0.371-0.469a2.91 2.91 0 0 1 1.225-0.721c0.252-0.075 0.518-0.112 0.798-0.112 0.43 0 0.81 0.047 1.141 0.14s0.607 0.259 0.826 0.497c0.22 0.238 0.385 0.56 0.497 0.966s0.168 0.922 0.168 1.547v4.018h-1.092v-3.808c0-0.775-0.126-1.358-0.378-1.75s-0.71-0.588-1.372-0.588c-0.243 0-0.478 0.049-0.707 0.147a2.44 2.44 0 0 0-0.623 0.385c-0.187 0.159-0.35 0.343-0.49 0.553s-0.243 0.432-0.308 0.665v4.396h-1.078zm13.244-1.372a5.531 5.531 0 0 0-0.693-0.189 3.61 3.61 0 0 0-0.735-0.077c-0.915 0-1.596 0.215-2.044 0.644-0.448 0.43-0.672 1.11-0.672 2.044 0 0.41 0.065 0.777 0.196 1.099 0.13 0.322 0.317 0.595 0.56 0.819s0.534 0.397 0.875 0.518c0.34 0.121 0.716 0.182 1.127 0.182 0.439 0 0.866-0.075 1.281-0.224 0.415-0.15 0.763-0.345 1.043-0.588l0.49 0.812c-0.13 0.112-0.294 0.229-0.49 0.35a4.837 4.837 0 0 1-1.533 0.602 4.962 4.962 0 0 1-1.015 0.098c-0.607 0-1.141-0.086-1.603-0.259a3.045 3.045 0 0 1-1.155-0.742 3.176 3.176 0 0 1-0.7-1.162 4.525 4.525 0 0 1-0.238-1.505c0-0.588 0.082-1.11 0.245-1.568 0.163-0.457 0.399-0.84 0.707-1.148a3.08 3.08 0 0 1 1.12-0.707 4.187 4.187 0 0 1 1.47-0.245c0.69 0 1.253 0.06 1.687 0.182 0.434 0.121 0.8 0.257 1.099 0.406l-0.014 0.042v1.946h-1.008zm2.688-1.078h1.666v-1.386l1.092-0.308v1.694h3.738v0.938h-3.738v3.304c0 0.681 0.166 1.185 0.497 1.512s0.805 0.49 1.421 0.49c0.42 0 0.786-0.08 1.099-0.238 0.313-0.159 0.595-0.331 0.847-0.518l0.364 0.826a3.938 3.938 0 0 1-1.169 0.63 4.182 4.182 0 0 1-1.393 0.238 3.41 3.41 0 0 1-1.057-0.161 2.426 2.426 0 0 1-0.875-0.497 2.38 2.38 0 0 1-0.602-0.861c-0.15-0.35-0.224-0.768-0.224-1.253v-3.472h-1.666zm9.436 7v-0.938h2.436v-5.124h-2.436v-0.938h3.556v6.062h2.38v0.938zm2.058-8.988c0-0.252 0.084-0.469 0.252-0.651a0.838 0.838 0 0 1 0.644-0.273c0.27 0 0.497 0.091 0.679 0.273a0.889 0.889 0 0 1 0.273 0.651 0.806 0.806 0 0 1-0.273 0.616 0.963 0.963 0 0 1-0.679 0.252 0.872 0.872 0 0 1-0.644-0.252 0.838 0.838 0 0 1-0.252-0.616zm5.67 5.488c0-1.13 0.294-2.023 0.882-2.681s1.428-0.987 2.52-0.987c0.588 0 1.094 0.096 1.519 0.287s0.777 0.45 1.057 0.777 0.488 0.714 0.623 1.162 0.203 0.929 0.203 1.442c0 0.56-0.075 1.066-0.224 1.519-0.15 0.453-0.369 0.838-0.658 1.155-0.29 0.317-0.646 0.562-1.071 0.735a3.82 3.82 0 0 1-1.449 0.259c-0.579 0-1.083-0.096-1.512-0.287a2.967 2.967 0 0 1-1.064-0.777 3.168 3.168 0 0 1-0.623-1.162 4.963 4.963 0 0 1-0.203-1.442zm1.162 0c0 0.327 0.04 0.653 0.119 0.98 0.08 0.327 0.208 0.62 0.385 0.882 0.177 0.261 0.408 0.471 0.693 0.63s0.632 0.238 1.043 0.238c0.747 0 1.309-0.231 1.687-0.693s0.567-1.141 0.567-2.037c0-0.336-0.04-0.665-0.119-0.987a2.608 2.608 0 0 0-0.392-0.875 2.066 2.066 0 0 0-0.7-0.63c-0.285-0.159-0.632-0.238-1.043-0.238-0.747 0-1.307 0.229-1.68 0.686s-0.56 1.139-0.56 2.044zm7.742-1.05a14.05 14.05 0 0 0-0.063-1.176 4.657 4.657 0 0 0-0.049-0.364h-0.938v-0.91h1.876l0.126 1.134h0.07c0.093-0.159 0.217-0.315 0.371-0.469a2.91 2.91 0 0 1 1.225-0.721c0.252-0.075 0.518-0.112 0.798-0.112 0.43 0 0.81 0.047 1.141 0.14s0.607 0.259 0.826 0.497c0.22 0.238 0.385 0.56 0.497 0.966s0.168 0.922 0.168 1.547v4.018h-1.092v-3.808c0-0.775-0.126-1.358-0.378-1.75s-0.71-0.588-1.372-0.588c-0.243 0-0.478 0.049-0.707 0.147a2.44 2.44 0 0 0-0.623 0.385c-0.187 0.159-0.35 0.343-0.49 0.553s-0.243 0.432-0.308 0.665v4.396h-1.078z" fill="#07a"/>
    <path id="(){" d="m97.272 41.768a6.964 6.964 0 0 1-1.757-0.707 5.036 5.036 0 0 1-1.428-1.225c-0.406-0.504-0.728-1.12-0.966-1.848s-0.357-1.591-0.357-2.59c0-0.99 0.121-1.855 0.364-2.597s0.57-1.372 0.98-1.89 0.889-0.933 1.435-1.246a6.005 6.005 0 0 1 1.729-0.665l0.35 0.882a7.086 7.086 0 0 0-1.512 0.623 3.928 3.928 0 0 0-1.183 1.022c-0.331 0.425-0.588 0.952-0.77 1.582s-0.273 1.393-0.273 2.289c0 0.905 0.11 1.678 0.329 2.317 0.22 0.64 0.509 1.171 0.868 1.596 0.36 0.425 0.76 0.756 1.204 0.994 0.443 0.238 0.889 0.404 1.337 0.497zm4.354-0.966a4.965 4.965 0 0 0 1.337-0.497 4.15 4.15 0 0 0 1.204-0.994c0.36-0.425 0.649-0.957 0.868-1.596 0.22-0.64 0.329-1.412 0.329-2.317 0-0.896-0.091-1.659-0.273-2.289s-0.439-1.157-0.77-1.582a3.928 3.928 0 0 0-1.183-1.022 7.086 7.086 0 0 0-1.512-0.623l0.35-0.882c0.607 0.13 1.183 0.352 1.729 0.665a4.984 4.984 0 0 1 1.435 1.246c0.41 0.518 0.737 1.148 0.98 1.89s0.364 1.608 0.364 2.597c0 0.999-0.119 1.862-0.357 2.59s-0.56 1.344-0.966 1.848a5.036 5.036 0 0 1-1.428 1.225 6.964 6.964 0 0 1-1.757 0.707zm17.878-2.45c0-0.401-0.068-0.749-0.203-1.043a2.44 2.44 0 0 0-0.504-0.735c-0.2-0.196-0.415-0.34-0.644-0.434a1.641 1.641 0 0 0-0.609-0.14v-0.98c0.177 0 0.38-0.04 0.609-0.119 0.229-0.08 0.443-0.21 0.644-0.392 0.2-0.182 0.369-0.418 0.504-0.707 0.135-0.29 0.203-0.649 0.203-1.078v-1.428c0-0.336 0.054-0.644 0.161-0.924a2.22 2.22 0 0 1 0.448-0.728c0.191-0.205 0.42-0.366 0.686-0.483s0.558-0.175 0.875-0.175h2.03v0.98h-1.54c-0.588 0-0.996 0.14-1.225 0.42s-0.343 0.695-0.343 1.246v1.358c0 0.383-0.07 0.723-0.21 1.022a2.7 2.7 0 0 1-1.106 1.225c-0.205 0.117-0.373 0.184-0.504 0.203v0.084c0.121 0.019 0.285 0.091 0.49 0.217s0.406 0.299 0.602 0.518c0.196 0.22 0.366 0.478 0.511 0.777s0.217 0.63 0.217 0.994v1.344c0 0.57 0.121 0.99 0.364 1.26s0.649 0.406 1.218 0.406h1.526v0.98h-2.03c-0.653 0-1.178-0.194-1.575-0.581s-0.595-0.959-0.595-1.715z" fill="#999"/>
    <path id="alert" d="m134.74 32.346a4.447 4.447 0 0 1 1.358-0.504 7.423 7.423 0 0 1 1.484-0.154c0.476 0 0.866 0.075 1.169 0.224 0.303 0.15 0.541 0.343 0.714 0.581s0.29 0.509 0.35 0.812 0.091 0.609 0.091 0.917c0 0.355-0.01 0.733-0.028 1.134-0.019 0.401-0.033 0.803-0.042 1.204 0 0.467 0.028 0.91 0.084 1.33h0.938v0.91h-1.862l-0.126-1.05h-0.07c-0.056 0.084-0.14 0.191-0.252 0.322-0.112 0.13-0.259 0.259-0.441 0.385a2.749 2.749 0 0 1-1.589 0.469c-0.69 0-1.237-0.177-1.638-0.532s-0.602-0.84-0.602-1.456c0-0.476 0.105-0.873 0.315-1.19s0.511-0.56 0.903-0.728 0.866-0.266 1.421-0.294a9.544 9.544 0 0 1 1.869 0.112c0.047-0.43 0.054-0.786 0.021-1.071s-0.107-0.511-0.224-0.679a0.938 0.938 0 0 0-0.49-0.357 2.482 2.482 0 0 0-0.777-0.105c-0.42 0-0.821 0.058-1.204 0.175s-0.723 0.236-1.022 0.357zm2.058 5.642c0.261 0 0.504-0.042 0.728-0.126a2.22 2.22 0 0 0 0.588-0.322 2.133 2.133 0 0 0 0.672-0.868v-0.98a7.92 7.92 0 0 0-1.344-0.126c-0.41 0-0.765 0.044-1.064 0.133s-0.532 0.226-0.7 0.413-0.252 0.43-0.252 0.728c0 0.308 0.105 0.576 0.315 0.805s0.562 0.343 1.057 0.343zm6.496-8.988h2.324v7.448c0 0.57 0.096 0.97 0.287 1.204 0.191 0.233 0.474 0.35 0.847 0.35 0.261 0 0.511-0.047 0.749-0.14s0.502-0.252 0.791-0.476l0.504 0.77c-0.15 0.13-0.313 0.247-0.49 0.35a3.638 3.638 0 0 1-1.106 0.42 2.963 2.963 0 0 1-1.442-0.077 1.579 1.579 0 0 1-0.679-0.427 1.897 1.897 0 0 1-0.413-0.777c-0.093-0.322-0.14-0.721-0.14-1.197v-6.51h-1.232zm14.14 8.918c-0.168 0.15-0.366 0.29-0.595 0.42a4.39 4.39 0 0 1-0.749 0.336c-0.27 0.093-0.553 0.166-0.847 0.217s-0.59 0.077-0.889 0.077c-0.56 0-1.055-0.086-1.484-0.259a2.858 2.858 0 0 1-1.078-0.742 3.234 3.234 0 0 1-0.658-1.155 4.767 4.767 0 0 1-0.224-1.512c0-0.588 0.082-1.11 0.245-1.568 0.163-0.457 0.399-0.84 0.707-1.148a3.08 3.08 0 0 1 1.12-0.707 4.187 4.187 0 0 1 1.47-0.245c0.392 0 0.78 0.051 1.162 0.154 0.383 0.103 0.721 0.296 1.015 0.581s0.52 0.677 0.679 1.176c0.159 0.5 0.215 1.146 0.168 1.939h-5.418c0 0.84 0.226 1.468 0.679 1.883s1.057 0.623 1.813 0.623c0.252 0 0.502-0.03 0.749-0.091 0.247-0.06 0.483-0.133 0.707-0.217a3.72 3.72 0 0 0 0.595-0.28c0.173-0.103 0.306-0.196 0.399-0.28zm-2.954-5.362c-0.308 0-0.6 0.033-0.875 0.098a1.995 1.995 0 0 0-0.728 0.329c-0.21 0.154-0.383 0.355-0.518 0.602s-0.222 0.553-0.259 0.917h4.354c-0.047-0.616-0.245-1.094-0.595-1.435-0.35-0.34-0.81-0.511-1.379-0.511zm4.872 6.244v-0.938h1.89v-5.124h-1.89v-0.938h2.618l0.224 0.91h0.07c0.317-0.29 0.672-0.537 1.064-0.742s0.859-0.308 1.4-0.308c0.317 0 0.572 0.06 0.763 0.182 0.191 0.121 0.34 0.299 0.448 0.532 0.107 0.233 0.18 0.516 0.217 0.847s0.056 0.707 0.056 1.127l-0.98 0.014c0-0.597-0.058-1.036-0.175-1.316s-0.329-0.42-0.637-0.42c-0.29 0-0.55 0.042-0.784 0.126a2.565 2.565 0 0 0-0.609 0.308c-0.173 0.121-0.32 0.243-0.441 0.364s-0.21 0.224-0.266 0.308v4.13h2.688v0.938zm7.91-7h1.666v-1.386l1.092-0.308v1.694h3.738v0.938h-3.738v3.304c0 0.681 0.166 1.185 0.497 1.512s0.805 0.49 1.421 0.49c0.42 0 0.786-0.08 1.099-0.238 0.313-0.159 0.595-0.331 0.847-0.518l0.364 0.826a3.938 3.938 0 0 1-1.169 0.63 4.182 4.182 0 0 1-1.393 0.238 3.41 3.41 0 0 1-1.057-0.161 2.426 2.426 0 0 1-0.875-0.497 2.38 2.38 0 0 1-0.602-0.861c-0.15-0.35-0.224-0.768-0.224-1.253v-3.472h-1.666z" fill="#000"/>
    <path id="(" d="m181.27 41.768a6.964 6.964 0 0 1-1.757-0.707 5.036 5.036 0 0 1-1.428-1.225c-0.406-0.504-0.728-1.12-0.966-1.848s-0.357-1.591-0.357-2.59c0-0.99 0.121-1.855 0.364-2.597s0.57-1.372 0.98-1.89 0.889-0.933 1.435-1.246a6.005 6.005 0 0 1 1.729-0.665l0.35 0.882a7.086 7.086 0 0 0-1.512 0.623 3.928 3.928 0 0 0-1.183 1.022c-0.331 0.425-0.588 0.952-0.77 1.582s-0.273 1.393-0.273 2.289c0 0.905 0.11 1.678 0.329 2.317 0.22 0.64 0.509 1.171 0.868 1.596 0.36 0.425 0.76 0.756 1.204 0.994 0.443 0.238 0.889 0.404 1.337 0.497z" fill="#999"/>
    <path id="i" d="m185.09 38.8v-0.938h2.436v-5.124h-2.436v-0.938h3.556v6.062h2.38v0.938zm2.058-8.988c0-0.252 0.084-0.469 0.252-0.651a0.838 0.838 0 0 1 0.644-0.273c0.27 0 0.497 0.091 0.679 0.273a0.889 0.889 0 0 1 0.273 0.651 0.806 0.806 0 0 1-0.273 0.616 0.963 0.963 0 0 1-0.679 0.252 0.872 0.872 0 0 1-0.644-0.252 0.838 0.838 0 0 1-0.252-0.616z" fill="#000"/>
    <path id=");}," d="m194.03 40.802a4.965 4.965 0 0 0 1.337-0.497 4.15 4.15 0 0 0 1.204-0.994c0.36-0.425 0.649-0.957 0.868-1.596 0.22-0.64 0.329-1.412 0.329-2.317 0-0.896-0.091-1.659-0.273-2.289s-0.439-1.157-0.77-1.582a3.928 3.928 0 0 0-1.183-1.022 7.086 7.086 0 0 0-1.512-0.623l0.35-0.882c0.607 0.13 1.183 0.352 1.729 0.665a4.984 4.984 0 0 1 1.435 1.246c0.41 0.518 0.737 1.148 0.98 1.89s0.364 1.608 0.364 2.597c0 0.999-0.119 1.862-0.357 2.59s-0.56 1.344-0.966 1.848a5.036 5.036 0 0 1-1.428 1.225 6.964 6.964 0 0 1-1.757 0.707zm9.604-2.772c0-0.28 0.091-0.506 0.273-0.679s0.418-0.259 0.707-0.259c0.355 0 0.63 0.124 0.826 0.371s0.294 0.595 0.294 1.043a2.36 2.36 0 0 1-0.637 1.659 2.465 2.465 0 0 1-0.588 0.462c-0.21 0.117-0.404 0.203-0.581 0.259l-0.35-0.546c0.336-0.13 0.625-0.317 0.868-0.56s0.364-0.537 0.364-0.882c-0.13 0.028-0.233 0.042-0.308 0.042-0.27 0-0.483-0.077-0.637-0.231s-0.231-0.38-0.231-0.679zm0.126-5.502c0-0.299 0.084-0.53 0.252-0.693s0.392-0.245 0.672-0.245c0.299 0 0.532 0.082 0.7 0.245s0.252 0.394 0.252 0.693c0 0.27-0.084 0.495-0.252 0.672s-0.401 0.266-0.7 0.266c-0.28 0-0.504-0.089-0.672-0.266a0.938 0.938 0 0 1-0.252-0.672zm18.788 7.196c0 0.756-0.198 1.328-0.595 1.715s-0.922 0.581-1.575 0.581h-2.03v-0.98h1.526c0.57 0 0.975-0.135 1.218-0.406 0.243-0.27 0.364-0.69 0.364-1.26v-1.344c0-0.364 0.07-0.695 0.21-0.994s0.308-0.558 0.504-0.777c0.196-0.22 0.397-0.392 0.602-0.518s0.373-0.198 0.504-0.217v-0.084c-0.13-0.019-0.299-0.086-0.504-0.203a2.7 2.7 0 0 1-1.106-1.225c-0.14-0.299-0.21-0.64-0.21-1.022v-1.358c0-0.55-0.114-0.966-0.343-1.246s-0.637-0.42-1.225-0.42h-1.54v-0.98h2.03c0.317 0 0.609 0.058 0.875 0.175s0.495 0.278 0.686 0.483 0.34 0.448 0.448 0.728c0.107 0.28 0.161 0.588 0.161 0.924v1.428c0 0.43 0.068 0.789 0.203 1.078 0.135 0.29 0.303 0.525 0.504 0.707 0.2 0.182 0.415 0.313 0.644 0.392 0.229 0.08 0.432 0.119 0.609 0.119v0.98c-0.177 0-0.38 0.047-0.609 0.14a2.011 2.011 0 0 0-0.644 0.434 2.44 2.44 0 0 0-0.504 0.735c-0.135 0.294-0.203 0.642-0.203 1.043zm6.286-1.694c0-0.28 0.091-0.506 0.273-0.679s0.418-0.259 0.707-0.259c0.355 0 0.63 0.124 0.826 0.371s0.294 0.595 0.294 1.043a2.36 2.36 0 0 1-0.637 1.659 2.465 2.465 0 0 1-0.588 0.462c-0.21 0.117-0.404 0.203-0.581 0.259l-0.35-0.546c0.336-0.13 0.625-0.317 0.868-0.56s0.364-0.537 0.364-0.882c-0.13 0.028-0.233 0.042-0.308 0.042-0.27 0-0.483-0.077-0.637-0.231s-0.231-0.38-0.231-0.679z" fill="#999"/>
    <path id="path431" d="m16.856 65.005v-0.938h1.666v-5.124h-1.666v-0.938h1.666v-0.392c0-0.877 0.229-1.512 0.686-1.904s1.11-0.588 1.96-0.588c0.308 0 0.583 0.019 0.826 0.056s0.504 0.112 0.784 0.224l-0.252 0.91a2.862 2.862 0 0 0-0.7-0.203 4.295 4.295 0 0 0-0.616-0.049c-0.616 0-1.036 0.152-1.26 0.455s-0.336 0.8-0.336 1.491h2.898v0.938h-2.898v5.124h2.898v0.938zm12.25-7h1.988v4.774c0 0.457 0.028 0.896 0.084 1.316h0.938v0.91h-1.862l-0.042-1.19h-0.056a2.938 2.938 0 0 1-0.966 0.98c-0.401 0.252-0.887 0.378-1.456 0.378-0.43 0-0.796-0.049-1.099-0.147a1.556 1.556 0 0 1-0.749-0.511c-0.196-0.243-0.34-0.567-0.434-0.973-0.093-0.406-0.14-0.912-0.14-1.519v-3.08h-0.938v-0.938h2.03v3.794c0 0.383 0.016 0.726 0.049 1.029s0.1 0.56 0.203 0.77 0.254 0.369 0.455 0.476c0.2 0.107 0.469 0.161 0.805 0.161 0.485 0 0.908-0.159 1.267-0.476 0.36-0.317 0.632-0.714 0.819-1.19v-3.626h-0.896zm4.62 2.45a14.05 14.05 0 0 0-0.063-1.176 4.657 4.657 0 0 0-0.049-0.364h-0.938v-0.91h1.876l0.126 1.134h0.07c0.093-0.159 0.217-0.315 0.371-0.469a2.91 2.91 0 0 1 1.225-0.721c0.252-0.075 0.518-0.112 0.798-0.112 0.43 0 0.81 0.047 1.141 0.14s0.607 0.259 0.826 0.497c0.22 0.238 0.385 0.56 0.497 0.966s0.168 0.922 0.168 1.547v4.018h-1.092v-3.808c0-0.775-0.126-1.358-0.378-1.75s-0.71-0.588-1.372-0.588c-0.243 0-0.478 0.049-0.707 0.147a2.44 2.44 0 0 0-0.623 0.385c-0.187 0.159-0.35 0.343-0.49 0.553s-0.243 0.432-0.308 0.665v4.396h-1.078zm13.244-1.372a5.531 5.531 0 0 0-0.693-0.189 3.61 3.61 0 0 0-0.735-0.077c-0.915 0-1.596 0.215-2.044 0.644-0.448 0.43-0.672 1.11-0.672 2.044 0 0.41 0.065 0.777 0.196 1.099 0.13 0.322 0.317 0.595 0.56 0.819s0.534 0.397 0.875 0.518c0.34 0.121 0.716 0.182 1.127 0.182 0.439 0 0.866-0.075 1.281-0.224 0.415-0.15 0.763-0.345 1.043-0.588l0.49 0.812c-0.13 0.112-0.294 0.229-0.49 0.35a4.837 4.837 0 0 1-1.533 0.602 4.962 4.962 0 0 1-1.015 0.098c-0.607 0-1.141-0.086-1.603-0.259a3.045 3.045 0 0 1-1.155-0.742 3.176 3.176 0 0 1-0.7-1.162 4.525 4.525 0 0 1-0.238-1.505c0-0.588 0.082-1.11 0.245-1.568 0.163-0.457 0.399-0.84 0.707-1.148a3.08 3.08 0 0 1 1.12-0.707 4.187 4.187 0 0 1 1.47-0.245c0.69 0 1.253 0.06 1.687 0.182 0.434 0.121 0.8 0.257 1.099 0.406l-0.014 0.042v1.946h-1.008zm2.688-1.078h1.666v-1.386l1.092-0.308v1.694h3.738v0.938h-3.738v3.304c0 0.681 0.166 1.185 0.497 1.512s0.805 0.49 1.421 0.49c0.42 0 0.786-0.08 1.099-0.238 0.313-0.159 0.595-0.331 0.847-0.518l0.364 0.826a3.938 3.938 0 0 1-1.169 0.63 4.182 4.182 0 0 1-1.393 0.238 3.41 3.41 0 0 1-1.057-0.161 2.426 2.426 0 0 1-0.875-0.497 2.38 2.38 0 0 1-0.602-0.861c-0.15-0.35-0.224-0.768-0.224-1.253v-3.472h-1.666zm9.436 7v-0.938h2.436v-5.124h-2.436v-0.938h3.556v6.062h2.38v0.938zm2.058-8.988c0-0.252 0.084-0.469 0.252-0.651a0.838 0.838 0 0 1 0.644-0.273c0.27 0 0.497 0.091 0.679 0.273a0.889 0.889 0 0 1 0.273 0.651 0.806 0.806 0 0 1-0.273 0.616 0.963 0.963 0 0 1-0.679 0.252 0.872 0.872 0 0 1-0.644-0.252 0.838 0.838 0 0 1-0.252-0.616zm5.67 5.488c0-1.13 0.294-2.023 0.882-2.681s1.428-0.987 2.52-0.987c0.588 0 1.094 0.096 1.519 0.287s0.777 0.45 1.057 0.777 0.488 0.714 0.623 1.162 0.203 0.929 0.203 1.442c0 0.56-0.075 1.066-0.224 1.519-0.15 0.453-0.369 0.838-0.658 1.155-0.29 0.317-0.646 0.562-1.071 0.735a3.82 3.82 0 0 1-1.449 0.259c-0.579 0-1.083-0.096-1.512-0.287a2.967 2.967 0 0 1-1.064-0.777 3.168 3.168 0 0 1-0.623-1.162 4.963 4.963 0 0 1-0.203-1.442zm1.162 0c0 0.327 0.04 0.653 0.119 0.98 0.08 0.327 0.208 0.62 0.385 0.882 0.177 0.261 0.408 0.471 0.693 0.63s0.632 0.238 1.043 0.238c0.747 0 1.309-0.231 1.687-0.693s0.567-1.141 0.567-2.037c0-0.336-0.04-0.665-0.119-0.987a2.608 2.608 0 0 0-0.392-0.875 2.066 2.066 0 0 0-0.7-0.63c-0.285-0.159-0.632-0.238-1.043-0.238-0.747 0-1.307 0.229-1.68 0.686s-0.56 1.139-0.56 2.044zm7.742-1.05a14.05 14.05 0 0 0-0.063-1.176 4.657 4.657 0 0 0-0.049-0.364h-0.938v-0.91h1.876l0.126 1.134h0.07c0.093-0.159 0.217-0.315 0.371-0.469a2.91 2.91 0 0 1 1.225-0.721c0.252-0.075 0.518-0.112 0.798-0.112 0.43 0 0.81 0.047 1.141 0.14s0.607 0.259 0.826 0.497c0.22 0.238 0.385 0.56 0.497 0.966s0.168 0.922 0.168 1.547v4.018h-1.092v-3.808c0-0.775-0.126-1.358-0.378-1.75s-0.71-0.588-1.372-0.588c-0.243 0-0.478 0.049-0.707 0.147a2.44 2.44 0 0 0-0.623 0.385c-0.187 0.159-0.35 0.343-0.49 0.553s-0.243 0.432-0.308 0.665v4.396h-1.078z" fill="#07a"/>
    <path id="path433" d="m97.272 67.973a6.964 6.964 0 0 1-1.757-0.707 5.036 5.036 0 0 1-1.428-1.225c-0.406-0.504-0.728-1.12-0.966-1.848s-0.357-1.591-0.357-2.59c0-0.99 0.121-1.855 0.364-2.597s0.57-1.372 0.98-1.89 0.889-0.933 1.435-1.246a6.005 6.005 0 0 1 1.729-0.665l0.35 0.882a7.086 7.086 0 0 0-1.512 0.623 3.928 3.928 0 0 0-1.183 1.022c-0.331 0.425-0.588 0.952-0.77 1.582s-0.273 1.393-0.273 2.289c0 0.905 0.11 1.678 0.329 2.317 0.22 0.64 0.509 1.171 0.868 1.596 0.36 0.425 0.76 0.756 1.204 0.994 0.443 0.238 0.889 0.404 1.337 0.497zm4.354-0.966a4.965 4.965 0 0 0 1.337-0.497 4.15 4.15 0 0 0 1.204-0.994c0.36-0.425 0.649-0.957 0.868-1.596 0.22-0.64 0.329-1.412 0.329-2.317 0-0.896-0.091-1.659-0.273-2.289s-0.439-1.157-0.77-1.582a3.928 3.928 0 0 0-1.183-1.022 7.086 7.086 0 0 0-1.512-0.623l0.35-0.882c0.607 0.13 1.183 0.352 1.729 0.665a4.984 4.984 0 0 1 1.435 1.246c0.41 0.518 0.737 1.148 0.98 1.89s0.364 1.608 0.364 2.597c0 0.999-0.119 1.862-0.357 2.59s-0.56 1.344-0.966 1.848a5.036 5.036 0 0 1-1.428 1.225 6.964 6.964 0 0 1-1.757 0.707zm17.878-2.45c0-0.401-0.068-0.749-0.203-1.043a2.44 2.44 0 0 0-0.504-0.735c-0.2-0.196-0.415-0.34-0.644-0.434a1.641 1.641 0 0 0-0.609-0.14v-0.98c0.177 0 0.38-0.04 0.609-0.119 0.229-0.08 0.443-0.21 0.644-0.392 0.2-0.182 0.369-0.418 0.504-0.707 0.135-0.29 0.203-0.649 0.203-1.078v-1.428c0-0.336 0.054-0.644 0.161-0.924a2.22 2.22 0 0 1 0.448-0.728c0.191-0.205 0.42-0.366 0.686-0.483s0.558-0.175 0.875-0.175h2.03v0.98h-1.54c-0.588 0-0.996 0.14-1.225 0.42s-0.343 0.695-0.343 1.246v1.358c0 0.383-0.07 0.723-0.21 1.022a2.7 2.7 0 0 1-1.106 1.225c-0.205 0.117-0.373 0.184-0.504 0.203v0.084c0.121 0.019 0.285 0.091 0.49 0.217s0.406 0.299 0.602 0.518c0.196 0.22 0.366 0.478 0.511 0.777s0.217 0.63 0.217 0.994v1.344c0 0.57 0.121 0.99 0.364 1.26s0.649 0.406 1.218 0.406h1.526v0.98h-2.03c-0.653 0-1.178-0.194-1.575-0.581s-0.595-0.959-0.595-1.715z" fill="#999"/>
    <path id="path435" d="m134.74 58.551a4.447 4.447 0 0 1 1.358-0.504 7.423 7.423 0 0 1 1.484-0.154c0.476 0 0.866 0.075 1.169 0.224 0.303 0.15 0.541 0.343 0.714 0.581s0.29 0.509 0.35 0.812 0.091 0.609 0.091 0.917c0 0.355-0.01 0.733-0.028 1.134-0.019 0.401-0.033 0.803-0.042 1.204 0 0.467 0.028 0.91 0.084 1.33h0.938v0.91h-1.862l-0.126-1.05h-0.07c-0.056 0.084-0.14 0.191-0.252 0.322-0.112 0.13-0.259 0.259-0.441 0.385a2.749 2.749 0 0 1-1.589 0.469c-0.69 0-1.237-0.177-1.638-0.532s-0.602-0.84-0.602-1.456c0-0.476 0.105-0.873 0.315-1.19s0.511-0.56 0.903-0.728 0.866-0.266 1.421-0.294a9.544 9.544 0 0 1 1.869 0.112c0.047-0.43 0.054-0.786 0.021-1.071s-0.107-0.511-0.224-0.679a0.938 0.938 0 0 0-0.49-0.357 2.482 2.482 0 0 0-0.777-0.105c-0.42 0-0.821 0.058-1.204 0.175s-0.723 0.236-1.022 0.357zm2.058 5.642c0.261 0 0.504-0.042 0.728-0.126a2.22 2.22 0 0 0 0.588-0.322 2.133 2.133 0 0 0 0.672-0.868v-0.98a7.92 7.92 0 0 0-1.344-0.126c-0.41 0-0.765 0.044-1.064 0.133s-0.532 0.226-0.7 0.413-0.252 0.43-0.252 0.728c0 0.308 0.105 0.576 0.315 0.805s0.562 0.343 1.057 0.343zm6.496-8.988h2.324v7.448c0 0.57 0.096 0.97 0.287 1.204 0.191 0.233 0.474 0.35 0.847 0.35 0.261 0 0.511-0.047 0.749-0.14s0.502-0.252 0.791-0.476l0.504 0.77c-0.15 0.13-0.313 0.247-0.49 0.35a3.638 3.638 0 0 1-1.106 0.42 2.963 2.963 0 0 1-1.442-0.077 1.579 1.579 0 0 1-0.679-0.427 1.897 1.897 0 0 1-0.413-0.777c-0.093-0.322-0.14-0.721-0.14-1.197v-6.51h-1.232zm14.14 8.918c-0.168 0.15-0.366 0.29-0.595 0.42a4.39 4.39 0 0 1-0.749 0.336c-0.27 0.093-0.553 0.166-0.847 0.217s-0.59 0.077-0.889 0.077c-0.56 0-1.055-0.086-1.484-0.259a2.858 2.858 0 0 1-1.078-0.742 3.234 3.234 0 0 1-0.658-1.155 4.767 4.767 0 0 1-0.224-1.512c0-0.588 0.082-1.11 0.245-1.568 0.163-0.457 0.399-0.84 0.707-1.148a3.08 3.08 0 0 1 1.12-0.707 4.187 4.187 0 0 1 1.47-0.245c0.392 0 0.78 0.051 1.162 0.154 0.383 0.103 0.721 0.296 1.015 0.581s0.52 0.677 0.679 1.176c0.159 0.5 0.215 1.146 0.168 1.939h-5.418c0 0.84 0.226 1.468 0.679 1.883s1.057 0.623 1.813 0.623c0.252 0 0.502-0.03 0.749-0.091 0.247-0.06 0.483-0.133 0.707-0.217a3.72 3.72 0 0 0 0.595-0.28c0.173-0.103 0.306-0.196 0.399-0.28zm-2.954-5.362c-0.308 0-0.6 0.033-0.875 0.098a1.995 1.995 0 0 0-0.728 0.329c-0.21 0.154-0.383 0.355-0.518 0.602s-0.222 0.553-0.259 0.917h4.354c-0.047-0.616-0.245-1.094-0.595-1.435-0.35-0.34-0.81-0.511-1.379-0.511zm4.872 6.244v-0.938h1.89v-5.124h-1.89v-0.938h2.618l0.224 0.91h0.07c0.317-0.29 0.672-0.537 1.064-0.742s0.859-0.308 1.4-0.308c0.317 0 0.572 0.06 0.763 0.182 0.191 0.121 0.34 0.299 0.448 0.532 0.107 0.233 0.18 0.516 0.217 0.847s0.056 0.707 0.056 1.127l-0.98 0.014c0-0.597-0.058-1.036-0.175-1.316s-0.329-0.42-0.637-0.42c-0.29 0-0.55 0.042-0.784 0.126a2.565 2.565 0 0 0-0.609 0.308c-0.173 0.121-0.32 0.243-0.441 0.364s-0.21 0.224-0.266 0.308v4.13h2.688v0.938zm7.91-7h1.666v-1.386l1.092-0.308v1.694h3.738v0.938h-3.738v3.304c0 0.681 0.166 1.185 0.497 1.512s0.805 0.49 1.421 0.49c0.42 0 0.786-0.08 1.099-0.238 0.313-0.159 0.595-0.331 0.847-0.518l0.364 0.826a3.938 3.938 0 0 1-1.169 0.63 4.182 4.182 0 0 1-1.393 0.238 3.41 3.41 0 0 1-1.057-0.161 2.426 2.426 0 0 1-0.875-0.497 2.38 2.38 0 0 1-0.602-0.861c-0.15-0.35-0.224-0.768-0.224-1.253v-3.472h-1.666z" fill="#000"/>
    <path id="path437" d="m181.27 67.973a6.964 6.964 0 0 1-1.757-0.707 5.036 5.036 0 0 1-1.428-1.225c-0.406-0.504-0.728-1.12-0.966-1.848s-0.357-1.591-0.357-2.59c0-0.99 0.121-1.855 0.364-2.597s0.57-1.372 0.98-1.89 0.889-0.933 1.435-1.246a6.005 6.005 0 0 1 1.729-0.665l0.35 0.882a7.086 7.086 0 0 0-1.512 0.623 3.928 3.928 0 0 0-1.183 1.022c-0.331 0.425-0.588 0.952-0.77 1.582s-0.273 1.393-0.273 2.289c0 0.905 0.11 1.678 0.329 2.317 0.22 0.64 0.509 1.171 0.868 1.596 0.36 0.425 0.76 0.756 1.204 0.994 0.443 0.238 0.889 0.404 1.337 0.497z" fill="#999"/>
    <path id="path439" d="m185.09 65.005v-0.938h2.436v-5.124h-2.436v-0.938h3.556v6.062h2.38v0.938zm2.058-8.988c0-0.252 0.084-0.469 0.252-0.651a0.838 0.838 0 0 1 0.644-0.273c0.27 0 0.497 0.091 0.679 0.273a0.889 0.889 0 0 1 0.273 0.651 0.806 0.806 0 0 1-0.273 0.616 0.963 0.963 0 0 1-0.679 0.252 0.872 0.872 0 0 1-0.644-0.252 0.838 0.838 0 0 1-0.252-0.616z" fill="#000"/>
    <path id="path441" d="m194.03 67.007a4.965 4.965 0 0 0 1.337-0.497 4.15 4.15 0 0 0 1.204-0.994c0.36-0.425 0.649-0.957 0.868-1.596 0.22-0.64 0.329-1.412 0.329-2.317 0-0.896-0.091-1.659-0.273-2.289s-0.439-1.157-0.77-1.582a3.928 3.928 0 0 0-1.183-1.022 7.086 7.086 0 0 0-1.512-0.623l0.35-0.882c0.607 0.13 1.183 0.352 1.729 0.665a4.984 4.984 0 0 1 1.435 1.246c0.41 0.518 0.737 1.148 0.98 1.89s0.364 1.608 0.364 2.597c0 0.999-0.119 1.862-0.357 2.59s-0.56 1.344-0.966 1.848a5.036 5.036 0 0 1-1.428 1.225 6.964 6.964 0 0 1-1.757 0.707zm9.604-2.772c0-0.28 0.091-0.506 0.273-0.679s0.418-0.259 0.707-0.259c0.355 0 0.63 0.124 0.826 0.371s0.294 0.595 0.294 1.043a2.36 2.36 0 0 1-0.637 1.659 2.465 2.465 0 0 1-0.588 0.462c-0.21 0.117-0.404 0.203-0.581 0.259l-0.35-0.546c0.336-0.13 0.625-0.317 0.868-0.56s0.364-0.537 0.364-0.882c-0.13 0.028-0.233 0.042-0.308 0.042-0.27 0-0.483-0.077-0.637-0.231s-0.231-0.38-0.231-0.679zm0.126-5.502c0-0.299 0.084-0.53 0.252-0.693s0.392-0.245 0.672-0.245c0.299 0 0.532 0.082 0.7 0.245s0.252 0.394 0.252 0.693c0 0.27-0.084 0.495-0.252 0.672s-0.401 0.266-0.7 0.266c-0.28 0-0.504-0.089-0.672-0.266a0.938 0.938 0 0 1-0.252-0.672zm18.788 7.196c0 0.756-0.198 1.328-0.595 1.715s-0.922 0.581-1.575 0.581h-2.03v-0.98h1.526c0.57 0 0.975-0.135 1.218-0.406 0.243-0.27 0.364-0.69 0.364-1.26v-1.344c0-0.364 0.07-0.695 0.21-0.994s0.308-0.558 0.504-0.777c0.196-0.22 0.397-0.392 0.602-0.518s0.373-0.198 0.504-0.217v-0.084c-0.13-0.019-0.299-0.086-0.504-0.203a2.7 2.7 0 0 1-1.106-1.225c-0.14-0.299-0.21-0.64-0.21-1.022v-1.358c0-0.55-0.114-0.966-0.343-1.246s-0.637-0.42-1.225-0.42h-1.54v-0.98h2.03c0.317 0 0.609 0.058 0.875 0.175s0.495 0.278 0.686 0.483 0.34 0.448 0.448 0.728c0.107 0.28 0.161 0.588 0.161 0.924v1.428c0 0.43 0.068 0.789 0.203 1.078 0.135 0.29 0.303 0.525 0.504 0.707 0.2 0.182 0.415 0.313 0.644 0.392 0.229 0.08 0.432 0.119 0.609 0.119v0.98c-0.177 0-0.38 0.047-0.609 0.14a2.011 2.011 0 0 0-0.644 0.434 2.44 2.44 0 0 0-0.504 0.735c-0.135 0.294-0.203 0.642-0.203 1.043zm6.286-1.694c0-0.28 0.091-0.506 0.273-0.679s0.418-0.259 0.707-0.259c0.355 0 0.63 0.124 0.826 0.371s0.294 0.595 0.294 1.043a2.36 2.36 0 0 1-0.637 1.659 2.465 2.465 0 0 1-0.588 0.462c-0.21 0.117-0.404 0.203-0.581 0.259l-0.35-0.546c0.336-0.13 0.625-0.317 0.868-0.56s0.364-0.537 0.364-0.882c-0.13 0.028-0.233 0.042-0.308 0.042-0.27 0-0.483-0.077-0.637-0.231s-0.231-0.38-0.231-0.679z" fill="#999"/>
    <path id="path443" d="m16.856 91.066v-0.938h1.666v-5.124h-1.666v-0.938h1.666v-0.392c0-0.877 0.229-1.512 0.686-1.904s1.11-0.588 1.96-0.588c0.308 0 0.583 0.019 0.826 0.056s0.504 0.112 0.784 0.224l-0.252 0.91a2.862 2.862 0 0 0-0.7-0.203 4.295 4.295 0 0 0-0.616-0.049c-0.616 0-1.036 0.152-1.26 0.455s-0.336 0.8-0.336 1.491h2.898v0.938h-2.898v5.124h2.898v0.938zm12.25-7h1.988v4.774c0 0.457 0.028 0.896 0.084 1.316h0.938v0.91h-1.862l-0.042-1.19h-0.056a2.938 2.938 0 0 1-0.966 0.98c-0.401 0.252-0.887 0.378-1.456 0.378-0.43 0-0.796-0.049-1.099-0.147a1.556 1.556 0 0 1-0.749-0.511c-0.196-0.243-0.34-0.567-0.434-0.973-0.093-0.406-0.14-0.912-0.14-1.519v-3.08h-0.938v-0.938h2.03v3.794c0 0.383 0.016 0.726 0.049 1.029s0.1 0.56 0.203 0.77 0.254 0.369 0.455 0.476c0.2 0.107 0.469 0.161 0.805 0.161 0.485 0 0.908-0.159 1.267-0.476 0.36-0.317 0.632-0.714 0.819-1.19v-3.626h-0.896zm4.62 2.45a14.05 14.05 0 0 0-0.063-1.176 4.657 4.657 0 0 0-0.049-0.364h-0.938v-0.91h1.876l0.126 1.134h0.07c0.093-0.159 0.217-0.315 0.371-0.469a2.91 2.91 0 0 1 1.225-0.721c0.252-0.075 0.518-0.112 0.798-0.112 0.43 0 0.81 0.047 1.141 0.14s0.607 0.259 0.826 0.497c0.22 0.238 0.385 0.56 0.497 0.966s0.168 0.922 0.168 1.547v4.018h-1.092v-3.808c0-0.775-0.126-1.358-0.378-1.75s-0.71-0.588-1.372-0.588c-0.243 0-0.478 0.049-0.707 0.147a2.44 2.44 0 0 0-0.623 0.385c-0.187 0.159-0.35 0.343-0.49 0.553s-0.243 0.432-0.308 0.665v4.396h-1.078zm13.244-1.372a5.531 5.531 0 0 0-0.693-0.189 3.61 3.61 0 0 0-0.735-0.077c-0.915 0-1.596 0.215-2.044 0.644-0.448 0.43-0.672 1.11-0.672 2.044 0 0.41 0.065 0.777 0.196 1.099 0.13 0.322 0.317 0.595 0.56 0.819s0.534 0.397 0.875 0.518c0.34 0.121 0.716 0.182 1.127 0.182 0.439 0 0.866-0.075 1.281-0.224 0.415-0.15 0.763-0.345 1.043-0.588l0.49 0.812c-0.13 0.112-0.294 0.229-0.49 0.35a4.837 4.837 0 0 1-1.533 0.602 4.962 4.962 0 0 1-1.015 0.098c-0.607 0-1.141-0.086-1.603-0.259a3.045 3.045 0 0 1-1.155-0.742 3.176 3.176 0 0 1-0.7-1.162 4.525 4.525 0 0 1-0.238-1.505c0-0.588 0.082-1.11 0.245-1.568 0.163-0.457 0.399-0.84 0.707-1.148a3.08 3.08 0 0 1 1.12-0.707 4.187 4.187 0 0 1 1.47-0.245c0.69 0 1.253 0.06 1.687 0.182 0.434 0.121 0.8 0.257 1.099 0.406l-0.014 0.042v1.946h-1.008zm2.688-1.078h1.666v-1.386l1.092-0.308v1.694h3.738v0.938h-3.738v3.304c0 0.681 0.166 1.185 0.497 1.512s0.805 0.49 1.421 0.49c0.42 0 0.786-0.08 1.099-0.238 0.313-0.159 0.595-0.331 0.847-0.518l0.364 0.826a3.938 3.938 0 0 1-1.169 0.63 4.182 4.182 0 0 1-1.393 0.238 3.41 3.41 0 0 1-1.057-0.161 2.426 2.426 0 0 1-0.875-0.497 2.38 2.38 0 0 1-0.602-0.861c-0.15-0.35-0.224-0.768-0.224-1.253v-3.472h-1.666zm9.436 7v-0.938h2.436v-5.124h-2.436v-0.938h3.556v6.062h2.38v0.938zm2.058-8.988c0-0.252 0.084-0.469 0.252-0.651a0.838 0.838 0 0 1 0.644-0.273c0.27 0 0.497 0.091 0.679 0.273a0.889 0.889 0 0 1 0.273 0.651 0.806 0.806 0 0 1-0.273 0.616 0.963 0.963 0 0 1-0.679 0.252 0.872 0.872 0 0 1-0.644-0.252 0.838 0.838 0 0 1-0.252-0.616zm5.67 5.488c0-1.13 0.294-2.023 0.882-2.681s1.428-0.987 2.52-0.987c0.588 0 1.094 0.096 1.519 0.287s0.777 0.45 1.057 0.777 0.488 0.714 0.623 1.162 0.203 0.929 0.203 1.442c0 0.56-0.075 1.066-0.224 1.519-0.15 0.453-0.369 0.838-0.658 1.155-0.29 0.317-0.646 0.562-1.071 0.735a3.82 3.82 0 0 1-1.449 0.259c-0.579 0-1.083-0.096-1.512-0.287a2.967 2.967 0 0 1-1.064-0.777 3.168 3.168 0 0 1-0.623-1.162 4.963 4.963 0 0 1-0.203-1.442zm1.162 0c0 0.327 0.04 0.653 0.119 0.98 0.08 0.327 0.208 0.62 0.385 0.882 0.177 0.261 0.408 0.471 0.693 0.63s0.632 0.238 1.043 0.238c0.747 0 1.309-0.231 1.687-0.693s0.567-1.141 0.567-2.037c0-0.336-0.04-0.665-0.119-0.987a2.608 2.608 0 0 0-0.392-0.875 2.066 2.066 0 0 0-0.7-0.63c-0.285-0.159-0.632-0.238-1.043-0.238-0.747 0-1.307 0.229-1.68 0.686s-0.56 1.139-0.56 2.044zm7.742-1.05a14.05 14.05 0 0 0-0.063-1.176 4.657 4.657 0 0 0-0.049-0.364h-0.938v-0.91h1.876l0.126 1.134h0.07c0.093-0.159 0.217-0.315 0.371-0.469a2.91 2.91 0 0 1 1.225-0.721c0.252-0.075 0.518-0.112 0.798-0.112 0.43 0 0.81 0.047 1.141 0.14s0.607 0.259 0.826 0.497c0.22 0.238 0.385 0.56 0.497 0.966s0.168 0.922 0.168 1.547v4.018h-1.092v-3.808c0-0.775-0.126-1.358-0.378-1.75s-0.71-0.588-1.372-0.588c-0.243 0-0.478 0.049-0.707 0.147a2.44 2.44 0 0 0-0.623 0.385c-0.187 0.159-0.35 0.343-0.49 0.553s-0.243 0.432-0.308 0.665v4.396h-1.078z" fill="#07a"/>
    <path id="path445" d="m97.272 94.034a6.964 6.964 0 0 1-1.757-0.707 5.036 5.036 0 0 1-1.428-1.225c-0.406-0.504-0.728-1.12-0.966-1.848s-0.357-1.591-0.357-2.59c0-0.99 0.121-1.855 0.364-2.597s0.57-1.372 0.98-1.89 0.889-0.933 1.435-1.246a6.005 6.005 0 0 1 1.729-0.665l0.35 0.882a7.086 7.086 0 0 0-1.512 0.623 3.928 3.928 0 0 0-1.183 1.022c-0.331 0.425-0.588 0.952-0.77 1.582s-0.273 1.393-0.273 2.289c0 0.905 0.11 1.678 0.329 2.317 0.22 0.64 0.509 1.171 0.868 1.596 0.36 0.425 0.76 0.756 1.204 0.994 0.443 0.238 0.889 0.404 1.337 0.497zm4.354-0.966a4.965 4.965 0 0 0 1.337-0.497 4.15 4.15 0 0 0 1.204-0.994c0.36-0.425 0.649-0.957 0.868-1.596 0.22-0.64 0.329-1.412 0.329-2.317 0-0.896-0.091-1.659-0.273-2.289s-0.439-1.157-0.77-1.582a3.928 3.928 0 0 0-1.183-1.022 7.086 7.086 0 0 0-1.512-0.623l0.35-0.882c0.607 0.13 1.183 0.352 1.729 0.665a4.984 4.984 0 0 1 1.435 1.246c0.41 0.518 0.737 1.148 0.98 1.89s0.364 1.608 0.364 2.597c0 0.999-0.119 1.862-0.357 2.59s-0.56 1.344-0.966 1.848a5.036 5.036 0 0 1-1.428 1.225 6.964 6.964 0 0 1-1.757 0.707zm17.878-2.45c0-0.401-0.068-0.749-0.203-1.043a2.44 2.44 0 0 0-0.504-0.735c-0.2-0.196-0.415-0.34-0.644-0.434a1.641 1.641 0 0 0-0.609-0.14v-0.98c0.177 0 0.38-0.04 0.609-0.119 0.229-0.08 0.443-0.21 0.644-0.392 0.2-0.182 0.369-0.418 0.504-0.707 0.135-0.29 0.203-0.649 0.203-1.078v-1.428c0-0.336 0.054-0.644 0.161-0.924a2.22 2.22 0 0 1 0.448-0.728c0.191-0.205 0.42-0.366 0.686-0.483s0.558-0.175 0.875-0.175h2.03v0.98h-1.54c-0.588 0-0.996 0.14-1.225 0.42s-0.343 0.695-0.343 1.246v1.358c0 0.383-0.07 0.723-0.21 1.022a2.7 2.7 0 0 1-1.106 1.225c-0.205 0.117-0.373 0.184-0.504 0.203v0.084c0.121 0.019 0.285 0.091 0.49 0.217s0.406 0.299 0.602 0.518c0.196 0.22 0.366 0.478 0.511 0.777s0.217 0.63 0.217 0.994v1.344c0 0.57 0.121 0.99 0.364 1.26s0.649 0.406 1.218 0.406h1.526v0.98h-2.03c-0.653 0-1.178-0.194-1.575-0.581s-0.595-0.959-0.595-1.715z" fill="#999"/>
    <path id="path447" d="m134.74 84.612a4.447 4.447 0 0 1 1.358-0.504 7.423 7.423 0 0 1 1.484-0.154c0.476 0 0.866 0.075 1.169 0.224 0.303 0.15 0.541 0.343 0.714 0.581s0.29 0.509 0.35 0.812 0.091 0.609 0.091 0.917c0 0.355-0.01 0.733-0.028 1.134-0.019 0.401-0.033 0.803-0.042 1.204 0 0.467 0.028 0.91 0.084 1.33h0.938v0.91h-1.862l-0.126-1.05h-0.07c-0.056 0.084-0.14 0.191-0.252 0.322-0.112 0.13-0.259 0.259-0.441 0.385a2.749 2.749 0 0 1-1.589 0.469c-0.69 0-1.237-0.177-1.638-0.532s-0.602-0.84-0.602-1.456c0-0.476 0.105-0.873 0.315-1.19s0.511-0.56 0.903-0.728 0.866-0.266 1.421-0.294a9.544 9.544 0 0 1 1.869 0.112c0.047-0.43 0.054-0.786 0.021-1.071s-0.107-0.511-0.224-0.679a0.938 0.938 0 0 0-0.49-0.357 2.482 2.482 0 0 0-0.777-0.105c-0.42 0-0.821 0.058-1.204 0.175s-0.723 0.236-1.022 0.357zm2.058 5.642c0.261 0 0.504-0.042 0.728-0.126a2.22 2.22 0 0 0 0.588-0.322 2.133 2.133 0 0 0 0.672-0.868v-0.98a7.92 7.92 0 0 0-1.344-0.126c-0.41 0-0.765 0.044-1.064 0.133s-0.532 0.226-0.7 0.413-0.252 0.43-0.252 0.728c0 0.308 0.105 0.576 0.315 0.805s0.562 0.343 1.057 0.343zm6.496-8.988h2.324v7.448c0 0.57 0.096 0.97 0.287 1.204 0.191 0.233 0.474 0.35 0.847 0.35 0.261 0 0.511-0.047 0.749-0.14s0.502-0.252 0.791-0.476l0.504 0.77c-0.15 0.13-0.313 0.247-0.49 0.35a3.638 3.638 0 0 1-1.106 0.42 2.963 2.963 0 0 1-1.442-0.077 1.579 1.579 0 0 1-0.679-0.427 1.897 1.897 0 0 1-0.413-0.777c-0.093-0.322-0.14-0.721-0.14-1.197v-6.51h-1.232zm14.14 8.918c-0.168 0.15-0.366 0.29-0.595 0.42a4.39 4.39 0 0 1-0.749 0.336c-0.27 0.093-0.553 0.166-0.847 0.217s-0.59 0.077-0.889 0.077c-0.56 0-1.055-0.086-1.484-0.259a2.858 2.858 0 0 1-1.078-0.742 3.234 3.234 0 0 1-0.658-1.155 4.767 4.767 0 0 1-0.224-1.512c0-0.588 0.082-1.11 0.245-1.568 0.163-0.457 0.399-0.84 0.707-1.148a3.08 3.08 0 0 1 1.12-0.707 4.187 4.187 0 0 1 1.47-0.245c0.392 0 0.78 0.051 1.162 0.154 0.383 0.103 0.721 0.296 1.015 0.581s0.52 0.677 0.679 1.176c0.159 0.5 0.215 1.146 0.168 1.939h-5.418c0 0.84 0.226 1.468 0.679 1.883s1.057 0.623 1.813 0.623c0.252 0 0.502-0.03 0.749-0.091 0.247-0.06 0.483-0.133 0.707-0.217a3.72 3.72 0 0 0 0.595-0.28c0.173-0.103 0.306-0.196 0.399-0.28zm-2.954-5.362c-0.308 0-0.6 0.033-0.875 0.098a1.995 1.995 0 0 0-0.728 0.329c-0.21 0.154-0.383 0.355-0.518 0.602s-0.222 0.553-0.259 0.917h4.354c-0.047-0.616-0.245-1.094-0.595-1.435-0.35-0.34-0.81-0.511-1.379-0.511zm4.872 6.244v-0.938h1.89v-5.124h-1.89v-0.938h2.618l0.224 0.91h0.07c0.317-0.29 0.672-0.537 1.064-0.742s0.859-0.308 1.4-0.308c0.317 0 0.572 0.06 0.763 0.182 0.191 0.121 0.34 0.299 0.448 0.532 0.107 0.233 0.18 0.516 0.217 0.847s0.056 0.707 0.056 1.127l-0.98 0.014c0-0.597-0.058-1.036-0.175-1.316s-0.329-0.42-0.637-0.42c-0.29 0-0.55 0.042-0.784 0.126a2.565 2.565 0 0 0-0.609 0.308c-0.173 0.121-0.32 0.243-0.441 0.364s-0.21 0.224-0.266 0.308v4.13h2.688v0.938zm7.91-7h1.666v-1.386l1.092-0.308v1.694h3.738v0.938h-3.738v3.304c0 0.681 0.166 1.185 0.497 1.512s0.805 0.49 1.421 0.49c0.42 0 0.786-0.08 1.099-0.238 0.313-0.159 0.595-0.331 0.847-0.518l0.364 0.826a3.938 3.938 0 0 1-1.169 0.63 4.182 4.182 0 0 1-1.393 0.238 3.41 3.41 0 0 1-1.057-0.161 2.426 2.426 0 0 1-0.875-0.497 2.38 2.38 0 0 1-0.602-0.861c-0.15-0.35-0.224-0.768-0.224-1.253v-3.472h-1.666z" fill="#000"/>
    <path id="path449" d="m181.27 94.034a6.964 6.964 0 0 1-1.757-0.707 5.036 5.036 0 0 1-1.428-1.225c-0.406-0.504-0.728-1.12-0.966-1.848s-0.357-1.591-0.357-2.59c0-0.99 0.121-1.855 0.364-2.597s0.57-1.372 0.98-1.89 0.889-0.933 1.435-1.246a6.005 6.005 0 0 1 1.729-0.665l0.35 0.882a7.086 7.086 0 0 0-1.512 0.623 3.928 3.928 0 0 0-1.183 1.022c-0.331 0.425-0.588 0.952-0.77 1.582s-0.273 1.393-0.273 2.289c0 0.905 0.11 1.678 0.329 2.317 0.22 0.64 0.509 1.171 0.868 1.596 0.36 0.425 0.76 0.756 1.204 0.994 0.443 0.238 0.889 0.404 1.337 0.497z" fill="#999"/>
    <path id="path451" d="m185.09 91.066v-0.938h2.436v-5.124h-2.436v-0.938h3.556v6.062h2.38v0.938zm2.058-8.988c0-0.252 0.084-0.469 0.252-0.651a0.838 0.838 0 0 1 0.644-0.273c0.27 0 0.497 0.091 0.679 0.273a0.889 0.889 0 0 1 0.273 0.651 0.806 0.806 0 0 1-0.273 0.616 0.963 0.963 0 0 1-0.679 0.252 0.872 0.872 0 0 1-0.644-0.252 0.838 0.838 0 0 1-0.252-0.616z" fill="#000"/>
    <path id="path453" d="m194.03 93.068a4.965 4.965 0 0 0 1.337-0.497 4.15 4.15 0 0 0 1.204-0.994c0.36-0.425 0.649-0.957 0.868-1.596 0.22-0.64 0.329-1.412 0.329-2.317 0-0.896-0.091-1.659-0.273-2.289s-0.439-1.157-0.77-1.582a3.928 3.928 0 0 0-1.183-1.022 7.086 7.086 0 0 0-1.512-0.623l0.35-0.882c0.607 0.13 1.183 0.352 1.729 0.665a4.984 4.984 0 0 1 1.435 1.246c0.41 0.518 0.737 1.148 0.98 1.89s0.364 1.608 0.364 2.597c0 0.999-0.119 1.862-0.357 2.59s-0.56 1.344-0.966 1.848a5.036 5.036 0 0 1-1.428 1.225 6.964 6.964 0 0 1-1.757 0.707zm9.604-2.772c0-0.28 0.091-0.506 0.273-0.679s0.418-0.259 0.707-0.259c0.355 0 0.63 0.124 0.826 0.371s0.294 0.595 0.294 1.043a2.36 2.36 0 0 1-0.637 1.659 2.465 2.465 0 0 1-0.588 0.462c-0.21 0.117-0.404 0.203-0.581 0.259l-0.35-0.546c0.336-0.13 0.625-0.317 0.868-0.56s0.364-0.537 0.364-0.882c-0.13 0.028-0.233 0.042-0.308 0.042-0.27 0-0.483-0.077-0.637-0.231s-0.231-0.38-0.231-0.679zm0.126-5.502c0-0.299 0.084-0.53 0.252-0.693s0.392-0.245 0.672-0.245c0.299 0 0.532 0.082 0.7 0.245s0.252 0.394 0.252 0.693c0 0.27-0.084 0.495-0.252 0.672s-0.401 0.266-0.7 0.266c-0.28 0-0.504-0.089-0.672-0.266a0.938 0.938 0 0 1-0.252-0.672zm18.788 7.196c0 0.756-0.198 1.328-0.595 1.715s-0.922 0.581-1.575 0.581h-2.03v-0.98h1.526c0.57 0 0.975-0.135 1.218-0.406 0.243-0.27 0.364-0.69 0.364-1.26v-1.344c0-0.364 0.07-0.695 0.21-0.994s0.308-0.558 0.504-0.777c0.196-0.22 0.397-0.392 0.602-0.518s0.373-0.198 0.504-0.217v-0.084c-0.13-0.019-0.299-0.086-0.504-0.203a2.7 2.7 0 0 1-1.106-1.225c-0.14-0.299-0.21-0.64-0.21-1.022v-1.358c0-0.55-0.114-0.966-0.343-1.246s-0.637-0.42-1.225-0.42h-1.54v-0.98h2.03c0.317 0 0.609 0.058 0.875 0.175s0.495 0.278 0.686 0.483 0.34 0.448 0.448 0.728c0.107 0.28 0.161 0.588 0.161 0.924v1.428c0 0.43 0.068 0.789 0.203 1.078 0.135 0.29 0.303 0.525 0.504 0.707 0.2 0.182 0.415 0.313 0.644 0.392 0.229 0.08 0.432 0.119 0.609 0.119v0.98c-0.177 0-0.38 0.047-0.609 0.14a2.011 2.011 0 0 0-0.644 0.434 2.44 2.44 0 0 0-0.504 0.735c-0.135 0.294-0.203 0.642-0.203 1.043zm6.286-1.694c0-0.28 0.091-0.506 0.273-0.679s0.418-0.259 0.707-0.259c0.355 0 0.63 0.124 0.826 0.371s0.294 0.595 0.294 1.043a2.36 2.36 0 0 1-0.637 1.659 2.465 2.465 0 0 1-0.588 0.462c-0.21 0.117-0.404 0.203-0.581 0.259l-0.35-0.546c0.336-0.13 0.625-0.317 0.868-0.56s0.364-0.537 0.364-0.882c-0.13 0.028-0.233 0.042-0.308 0.042-0.27 0-0.483-0.077-0.637-0.231s-0.231-0.38-0.231-0.679z" fill="#999"/>
    <path id="..." d="m18.886 107.03c0-0.299 0.084-0.53 0.252-0.693s0.392-0.245 0.672-0.245c0.299 0 0.532 0.082 0.7 0.245s0.252 0.394 0.252 0.693c0 0.27-0.084 0.495-0.252 0.672s-0.401 0.266-0.7 0.266c-0.28 0-0.504-0.089-0.672-0.266a0.938 0.938 0 0 1-0.252-0.672zm8.4 0c0-0.299 0.084-0.53 0.252-0.693s0.392-0.245 0.672-0.245c0.299 0 0.532 0.082 0.7 0.245s0.252 0.394 0.252 0.693c0 0.27-0.084 0.495-0.252 0.672s-0.401 0.266-0.7 0.266c-0.28 0-0.504-0.089-0.672-0.266a0.938 0.938 0 0 1-0.252-0.672zm8.4 0c0-0.299 0.084-0.53 0.252-0.693s0.392-0.245 0.672-0.245c0.299 0 0.532 0.082 0.7 0.245s0.252 0.394 0.252 0.693c0 0.27-0.084 0.495-0.252 0.672s-0.401 0.266-0.7 0.266c-0.28 0-0.504-0.089-0.672-0.266a0.938 0.938 0 0 1-0.252-0.672z" fill="#000"/>
    <path id="path456" d="m16.856 131.8v-0.938h1.666v-5.124h-1.666v-0.938h1.666v-0.392c0-0.877 0.229-1.512 0.686-1.904s1.11-0.588 1.96-0.588c0.308 0 0.583 0.019 0.826 0.056s0.504 0.112 0.784 0.224l-0.252 0.91a2.862 2.862 0 0 0-0.7-0.203 4.295 4.295 0 0 0-0.616-0.049c-0.616 0-1.036 0.152-1.26 0.455s-0.336 0.8-0.336 1.491h2.898v0.938h-2.898v5.124h2.898v0.938zm12.25-7h1.988v4.774c0 0.457 0.028 0.896 0.084 1.316h0.938v0.91h-1.862l-0.042-1.19h-0.056a2.938 2.938 0 0 1-0.966 0.98c-0.401 0.252-0.887 0.378-1.456 0.378-0.43 0-0.796-0.049-1.099-0.147a1.556 1.556 0 0 1-0.749-0.511c-0.196-0.243-0.34-0.567-0.434-0.973-0.093-0.406-0.14-0.912-0.14-1.519v-3.08h-0.938v-0.938h2.03v3.794c0 0.383 0.016 0.726 0.049 1.029s0.1 0.56 0.203 0.77 0.254 0.369 0.455 0.476c0.2 0.107 0.469 0.161 0.805 0.161 0.485 0 0.908-0.159 1.267-0.476 0.36-0.317 0.632-0.714 0.819-1.19v-3.626h-0.896zm4.62 2.45a14.05 14.05 0 0 0-0.063-1.176 4.657 4.657 0 0 0-0.049-0.364h-0.938v-0.91h1.876l0.126 1.134h0.07c0.093-0.159 0.217-0.315 0.371-0.469a2.91 2.91 0 0 1 1.225-0.721c0.252-0.075 0.518-0.112 0.798-0.112 0.43 0 0.81 0.047 1.141 0.14s0.607 0.259 0.826 0.497c0.22 0.238 0.385 0.56 0.497 0.966s0.168 0.922 0.168 1.547v4.018h-1.092v-3.808c0-0.775-0.126-1.358-0.378-1.75s-0.71-0.588-1.372-0.588c-0.243 0-0.478 0.049-0.707 0.147a2.44 2.44 0 0 0-0.623 0.385c-0.187 0.159-0.35 0.343-0.49 0.553s-0.243 0.432-0.308 0.665v4.396h-1.078zm13.244-1.372a5.531 5.531 0 0 0-0.693-0.189 3.61 3.61 0 0 0-0.735-0.077c-0.915 0-1.596 0.215-2.044 0.644-0.448 0.43-0.672 1.11-0.672 2.044 0 0.41 0.065 0.777 0.196 1.099 0.13 0.322 0.317 0.595 0.56 0.819s0.534 0.397 0.875 0.518c0.34 0.121 0.716 0.182 1.127 0.182 0.439 0 0.866-0.075 1.281-0.224 0.415-0.15 0.763-0.345 1.043-0.588l0.49 0.812c-0.13 0.112-0.294 0.229-0.49 0.35a4.837 4.837 0 0 1-1.533 0.602 4.962 4.962 0 0 1-1.015 0.098c-0.607 0-1.141-0.086-1.603-0.259a3.045 3.045 0 0 1-1.155-0.742 3.176 3.176 0 0 1-0.7-1.162 4.525 4.525 0 0 1-0.238-1.505c0-0.588 0.082-1.11 0.245-1.568 0.163-0.457 0.399-0.84 0.707-1.148a3.08 3.08 0 0 1 1.12-0.707 4.187 4.187 0 0 1 1.47-0.245c0.69 0 1.253 0.06 1.687 0.182 0.434 0.121 0.8 0.257 1.099 0.406l-0.014 0.042v1.946h-1.008zm2.688-1.078h1.666v-1.386l1.092-0.308v1.694h3.738v0.938h-3.738v3.304c0 0.681 0.166 1.185 0.497 1.512s0.805 0.49 1.421 0.49c0.42 0 0.786-0.08 1.099-0.238 0.313-0.159 0.595-0.331 0.847-0.518l0.364 0.826a3.938 3.938 0 0 1-1.169 0.63 4.182 4.182 0 0 1-1.393 0.238 3.41 3.41 0 0 1-1.057-0.161 2.426 2.426 0 0 1-0.875-0.497 2.38 2.38 0 0 1-0.602-0.861c-0.15-0.35-0.224-0.768-0.224-1.253v-3.472h-1.666zm9.436 7v-0.938h2.436v-5.124h-2.436v-0.938h3.556v6.062h2.38v0.938zm2.058-8.988c0-0.252 0.084-0.469 0.252-0.651a0.838 0.838 0 0 1 0.644-0.273c0.27 0 0.497 0.091 0.679 0.273a0.889 0.889 0 0 1 0.273 0.651 0.806 0.806 0 0 1-0.273 0.616 0.963 0.963 0 0 1-0.679 0.252 0.872 0.872 0 0 1-0.644-0.252 0.838 0.838 0 0 1-0.252-0.616zm5.67 5.488c0-1.13 0.294-2.023 0.882-2.681s1.428-0.987 2.52-0.987c0.588 0 1.094 0.096 1.519 0.287s0.777 0.45 1.057 0.777 0.488 0.714 0.623 1.162 0.203 0.929 0.203 1.442c0 0.56-0.075 1.066-0.224 1.519-0.15 0.453-0.369 0.838-0.658 1.155-0.29 0.317-0.646 0.562-1.071 0.735a3.82 3.82 0 0 1-1.449 0.259c-0.579 0-1.083-0.096-1.512-0.287a2.967 2.967 0 0 1-1.064-0.777 3.168 3.168 0 0 1-0.623-1.162 4.963 4.963 0 0 1-0.203-1.442zm1.162 0c0 0.327 0.04 0.653 0.119 0.98 0.08 0.327 0.208 0.62 0.385 0.882 0.177 0.261 0.408 0.471 0.693 0.63s0.632 0.238 1.043 0.238c0.747 0 1.309-0.231 1.687-0.693s0.567-1.141 0.567-2.037c0-0.336-0.04-0.665-0.119-0.987a2.608 2.608 0 0 0-0.392-0.875 2.066 2.066 0 0 0-0.7-0.63c-0.285-0.159-0.632-0.238-1.043-0.238-0.747 0-1.307 0.229-1.68 0.686s-0.56 1.139-0.56 2.044zm7.742-1.05a14.05 14.05 0 0 0-0.063-1.176 4.657 4.657 0 0 0-0.049-0.364h-0.938v-0.91h1.876l0.126 1.134h0.07c0.093-0.159 0.217-0.315 0.371-0.469a2.91 2.91 0 0 1 1.225-0.721c0.252-0.075 0.518-0.112 0.798-0.112 0.43 0 0.81 0.047 1.141 0.14s0.607 0.259 0.826 0.497c0.22 0.238 0.385 0.56 0.497 0.966s0.168 0.922 0.168 1.547v4.018h-1.092v-3.808c0-0.775-0.126-1.358-0.378-1.75s-0.71-0.588-1.372-0.588c-0.243 0-0.478 0.049-0.707 0.147a2.44 2.44 0 0 0-0.623 0.385c-0.187 0.159-0.35 0.343-0.49 0.553s-0.243 0.432-0.308 0.665v4.396h-1.078z" fill="#07A"/>
    <path id="path458" d="m97.272 134.77a6.964 6.964 0 0 1-1.757-0.707 5.036 5.036 0 0 1-1.428-1.225c-0.406-0.504-0.728-1.12-0.966-1.848s-0.357-1.591-0.357-2.59c0-0.99 0.121-1.855 0.364-2.597s0.57-1.372 0.98-1.89 0.889-0.933 1.435-1.246a6.005 6.005 0 0 1 1.729-0.665l0.35 0.882a7.086 7.086 0 0 0-1.512 0.623 3.928 3.928 0 0 0-1.183 1.022c-0.331 0.425-0.588 0.952-0.77 1.582s-0.273 1.393-0.273 2.289c0 0.905 0.11 1.678 0.329 2.317 0.22 0.64 0.509 1.171 0.868 1.596 0.36 0.425 0.76 0.756 1.204 0.994 0.443 0.238 0.889 0.404 1.337 0.497zm4.354-0.966a4.965 4.965 0 0 0 1.337-0.497 4.15 4.15 0 0 0 1.204-0.994c0.36-0.425 0.649-0.957 0.868-1.596 0.22-0.64 0.329-1.412 0.329-2.317 0-0.896-0.091-1.659-0.273-2.289s-0.439-1.157-0.77-1.582a3.928 3.928 0 0 0-1.183-1.022 7.086 7.086 0 0 0-1.512-0.623l0.35-0.882c0.607 0.13 1.183 0.352 1.729 0.665a4.984 4.984 0 0 1 1.435 1.246c0.41 0.518 0.737 1.148 0.98 1.89s0.364 1.608 0.364 2.597c0 0.999-0.119 1.862-0.357 2.59s-0.56 1.344-0.966 1.848a5.036 5.036 0 0 1-1.428 1.225 6.964 6.964 0 0 1-1.757 0.707zm17.878-2.45c0-0.401-0.068-0.749-0.203-1.043a2.44 2.44 0 0 0-0.504-0.735c-0.2-0.196-0.415-0.34-0.644-0.434a1.641 1.641 0 0 0-0.609-0.14v-0.98c0.177 0 0.38-0.04 0.609-0.119 0.229-0.08 0.443-0.21 0.644-0.392 0.2-0.182 0.369-0.418 0.504-0.707 0.135-0.29 0.203-0.649 0.203-1.078v-1.428c0-0.336 0.054-0.644 0.161-0.924a2.22 2.22 0 0 1 0.448-0.728c0.191-0.205 0.42-0.366 0.686-0.483s0.558-0.175 0.875-0.175h2.03v0.98h-1.54c-0.588 0-0.996 0.14-1.225 0.42s-0.343 0.695-0.343 1.246v1.358c0 0.383-0.07 0.723-0.21 1.022a2.7 2.7 0 0 1-1.106 1.225c-0.205 0.117-0.373 0.184-0.504 0.203v0.084c0.121 0.019 0.285 0.091 0.49 0.217s0.406 0.299 0.602 0.518c0.196 0.22 0.366 0.478 0.511 0.777s0.217 0.63 0.217 0.994v1.344c0 0.57 0.121 0.99 0.364 1.26s0.649 0.406 1.218 0.406h1.526v0.98h-2.03c-0.653 0-1.178-0.194-1.575-0.581s-0.595-0.959-0.595-1.715z" fill="#999"/>
    <path id="path460" d="m134.74 125.35a4.447 4.447 0 0 1 1.358-0.504 7.423 7.423 0 0 1 1.484-0.154c0.476 0 0.866 0.075 1.169 0.224 0.303 0.15 0.541 0.343 0.714 0.581s0.29 0.509 0.35 0.812 0.091 0.609 0.091 0.917c0 0.355-0.01 0.733-0.028 1.134-0.019 0.401-0.033 0.803-0.042 1.204 0 0.467 0.028 0.91 0.084 1.33h0.938v0.91h-1.862l-0.126-1.05h-0.07c-0.056 0.084-0.14 0.191-0.252 0.322-0.112 0.13-0.259 0.259-0.441 0.385a2.749 2.749 0 0 1-1.589 0.469c-0.69 0-1.237-0.177-1.638-0.532s-0.602-0.84-0.602-1.456c0-0.476 0.105-0.873 0.315-1.19s0.511-0.56 0.903-0.728 0.866-0.266 1.421-0.294a9.544 9.544 0 0 1 1.869 0.112c0.047-0.43 0.054-0.786 0.021-1.071s-0.107-0.511-0.224-0.679a0.938 0.938 0 0 0-0.49-0.357 2.482 2.482 0 0 0-0.777-0.105c-0.42 0-0.821 0.058-1.204 0.175s-0.723 0.236-1.022 0.357zm2.058 5.642c0.261 0 0.504-0.042 0.728-0.126a2.22 2.22 0 0 0 0.588-0.322 2.133 2.133 0 0 0 0.672-0.868v-0.98a7.92 7.92 0 0 0-1.344-0.126c-0.41 0-0.765 0.044-1.064 0.133s-0.532 0.226-0.7 0.413-0.252 0.43-0.252 0.728c0 0.308 0.105 0.576 0.315 0.805s0.562 0.343 1.057 0.343zm6.496-8.988h2.324v7.448c0 0.57 0.096 0.97 0.287 1.204 0.191 0.233 0.474 0.35 0.847 0.35 0.261 0 0.511-0.047 0.749-0.14s0.502-0.252 0.791-0.476l0.504 0.77c-0.15 0.13-0.313 0.247-0.49 0.35a3.638 3.638 0 0 1-1.106 0.42 2.963 2.963 0 0 1-1.442-0.077 1.579 1.579 0 0 1-0.679-0.427 1.897 1.897 0 0 1-0.413-0.777c-0.093-0.322-0.14-0.721-0.14-1.197v-6.51h-1.232zm14.14 8.918c-0.168 0.15-0.366 0.29-0.595 0.42a4.39 4.39 0 0 1-0.749 0.336c-0.27 0.093-0.553 0.166-0.847 0.217s-0.59 0.077-0.889 0.077c-0.56 0-1.055-0.086-1.484-0.259a2.858 2.858 0 0 1-1.078-0.742 3.234 3.234 0 0 1-0.658-1.155 4.767 4.767 0 0 1-0.224-1.512c0-0.588 0.082-1.11 0.245-1.568 0.163-0.457 0.399-0.84 0.707-1.148a3.08 3.08 0 0 1 1.12-0.707 4.187 4.187 0 0 1 1.47-0.245c0.392 0 0.78 0.051 1.162 0.154 0.383 0.103 0.721 0.296 1.015 0.581s0.52 0.677 0.679 1.176c0.159 0.5 0.215 1.146 0.168 1.939h-5.418c0 0.84 0.226 1.468 0.679 1.883s1.057 0.623 1.813 0.623c0.252 0 0.502-0.03 0.749-0.091 0.247-0.06 0.483-0.133 0.707-0.217a3.72 3.72 0 0 0 0.595-0.28c0.173-0.103 0.306-0.196 0.399-0.28zm-2.954-5.362c-0.308 0-0.6 0.033-0.875 0.098a1.995 1.995 0 0 0-0.728 0.329c-0.21 0.154-0.383 0.355-0.518 0.602s-0.222 0.553-0.259 0.917h4.354c-0.047-0.616-0.245-1.094-0.595-1.435-0.35-0.34-0.81-0.511-1.379-0.511zm4.872 6.244v-0.938h1.89v-5.124h-1.89v-0.938h2.618l0.224 0.91h0.07c0.317-0.29 0.672-0.537 1.064-0.742s0.859-0.308 1.4-0.308c0.317 0 0.572 0.06 0.763 0.182 0.191 0.121 0.34 0.299 0.448 0.532 0.107 0.233 0.18 0.516 0.217 0.847s0.056 0.707 0.056 1.127l-0.98 0.014c0-0.597-0.058-1.036-0.175-1.316s-0.329-0.42-0.637-0.42c-0.29 0-0.55 0.042-0.784 0.126a2.565 2.565 0 0 0-0.609 0.308c-0.173 0.121-0.32 0.243-0.441 0.364s-0.21 0.224-0.266 0.308v4.13h2.688v0.938zm7.91-7h1.666v-1.386l1.092-0.308v1.694h3.738v0.938h-3.738v3.304c0 0.681 0.166 1.185 0.497 1.512s0.805 0.49 1.421 0.49c0.42 0 0.786-0.08 1.099-0.238 0.313-0.159 0.595-0.331 0.847-0.518l0.364 0.826a3.938 3.938 0 0 1-1.169 0.63 4.182 4.182 0 0 1-1.393 0.238 3.41 3.41 0 0 1-1.057-0.161 2.426 2.426 0 0 1-0.875-0.497 2.38 2.38 0 0 1-0.602-0.861c-0.15-0.35-0.224-0.768-0.224-1.253v-3.472h-1.666z" fill="#000"/>
    <path id="path462" d="m181.27 134.77a6.964 6.964 0 0 1-1.757-0.707 5.036 5.036 0 0 1-1.428-1.225c-0.406-0.504-0.728-1.12-0.966-1.848s-0.357-1.591-0.357-2.59c0-0.99 0.121-1.855 0.364-2.597s0.57-1.372 0.98-1.89 0.889-0.933 1.435-1.246a6.005 6.005 0 0 1 1.729-0.665l0.35 0.882a7.086 7.086 0 0 0-1.512 0.623 3.928 3.928 0 0 0-1.183 1.022c-0.331 0.425-0.588 0.952-0.77 1.582s-0.273 1.393-0.273 2.289c0 0.905 0.11 1.678 0.329 2.317 0.22 0.64 0.509 1.171 0.868 1.596 0.36 0.425 0.76 0.756 1.204 0.994 0.443 0.238 0.889 0.404 1.337 0.497z" fill="#999"/>
    <path id="path464" d="m185.09 131.8v-0.938h2.436v-5.124h-2.436v-0.938h3.556v6.062h2.38v0.938zm2.058-8.988c0-0.252 0.084-0.469 0.252-0.651a0.838 0.838 0 0 1 0.644-0.273c0.27 0 0.497 0.091 0.679 0.273a0.889 0.889 0 0 1 0.273 0.651 0.806 0.806 0 0 1-0.273 0.616 0.963 0.963 0 0 1-0.679 0.252 0.872 0.872 0 0 1-0.644-0.252 0.838 0.838 0 0 1-0.252-0.616z" fill="#000"/>
    <path id=");}];" d="m194.03 133.8a4.965 4.965 0 0 0 1.337-0.497 4.15 4.15 0 0 0 1.204-0.994c0.36-0.425 0.649-0.957 0.868-1.596 0.22-0.64 0.329-1.412 0.329-2.317 0-0.896-0.091-1.659-0.273-2.289s-0.439-1.157-0.77-1.582a3.928 3.928 0 0 0-1.183-1.022 7.086 7.086 0 0 0-1.512-0.623l0.35-0.882c0.607 0.13 1.183 0.352 1.729 0.665a4.984 4.984 0 0 1 1.435 1.246c0.41 0.518 0.737 1.148 0.98 1.89s0.364 1.608 0.364 2.597c0 0.999-0.119 1.862-0.357 2.59s-0.56 1.344-0.966 1.848a5.036 5.036 0 0 1-1.428 1.225 6.964 6.964 0 0 1-1.757 0.707zm9.604-2.772c0-0.28 0.091-0.506 0.273-0.679s0.418-0.259 0.707-0.259c0.355 0 0.63 0.124 0.826 0.371s0.294 0.595 0.294 1.043a2.36 2.36 0 0 1-0.637 1.659 2.465 2.465 0 0 1-0.588 0.462c-0.21 0.117-0.404 0.203-0.581 0.259l-0.35-0.546c0.336-0.13 0.625-0.317 0.868-0.56s0.364-0.537 0.364-0.882c-0.13 0.028-0.233 0.042-0.308 0.042-0.27 0-0.483-0.077-0.637-0.231s-0.231-0.38-0.231-0.679zm0.126-5.502c0-0.299 0.084-0.53 0.252-0.693s0.392-0.245 0.672-0.245c0.299 0 0.532 0.082 0.7 0.245s0.252 0.394 0.252 0.693c0 0.27-0.084 0.495-0.252 0.672s-0.401 0.266-0.7 0.266c-0.28 0-0.504-0.089-0.672-0.266a0.938 0.938 0 0 1-0.252-0.672zm18.788 7.196c0 0.756-0.198 1.328-0.595 1.715s-0.922 0.581-1.575 0.581h-2.03v-0.98h1.526c0.57 0 0.975-0.135 1.218-0.406 0.243-0.27 0.364-0.69 0.364-1.26v-1.344c0-0.364 0.07-0.695 0.21-0.994s0.308-0.558 0.504-0.777c0.196-0.22 0.397-0.392 0.602-0.518s0.373-0.198 0.504-0.217v-0.084c-0.13-0.019-0.299-0.086-0.504-0.203a2.7 2.7 0 0 1-1.106-1.225c-0.14-0.299-0.21-0.64-0.21-1.022v-1.358c0-0.55-0.114-0.966-0.343-1.246s-0.637-0.42-1.225-0.42h-1.54v-0.98h2.03c0.317 0 0.609 0.058 0.875 0.175s0.495 0.278 0.686 0.483 0.34 0.448 0.448 0.728c0.107 0.28 0.161 0.588 0.161 0.924v1.428c0 0.43 0.068 0.789 0.203 1.078 0.135 0.29 0.303 0.525 0.504 0.707 0.2 0.182 0.415 0.313 0.644 0.392 0.229 0.08 0.432 0.119 0.609 0.119v0.98c-0.177 0-0.38 0.047-0.609 0.14a2.011 2.011 0 0 0-0.644 0.434 2.44 2.44 0 0 0-0.504 0.735c-0.135 0.294-0.203 0.642-0.203 1.043zm-217.41 26.296h-4.788v-0.98h3.696v-11.06h-3.696v-0.98h4.788zm5.292-3.99c0-0.28 0.091-0.506 0.273-0.679s0.418-0.259 0.707-0.259c0.355 0 0.63 0.124 0.826 0.371s0.294 0.595 0.294 1.043a2.36 2.36 0 0 1-0.637 1.659 2.465 2.465 0 0 1-0.588 0.462c-0.21 0.117-0.404 0.203-0.581 0.259l-0.35-0.546c0.336-0.13 0.625-0.317 0.868-0.56s0.364-0.537 0.364-0.882c-0.13 0.028-0.233 0.042-0.308 0.042-0.27 0-0.483-0.077-0.637-0.231s-0.231-0.38-0.231-0.679zm0.126-5.502c0-0.299 0.084-0.53 0.252-0.693s0.392-0.245 0.672-0.245c0.299 0 0.532 0.082 0.7 0.245s0.252 0.394 0.252 0.693c0 0.27-0.084 0.495-0.252 0.672s-0.401 0.266-0.7 0.266c-0.28 0-0.504-0.089-0.672-0.266a0.938 0.938 0 0 1-0.252-0.672z" fill="#999"/>
   </g>
   <g id="Group-Copy" transform="translate(354,66)">
    <path id="Line" d="m16.5 15.5 14 7-14 7v-6h-14v-2h14z" fill="#ee6b47" fill-rule="nonzero"/>
    <text id="outer" fill="#8a704d" font-family="PTMono-Regular, 'PT Mono'" font-size="12px"><tspan id="tspan469" x="0" y="11">outer</tspan></text>
   </g>
   <g id="Group-Copy-2" transform="translate(242 47.964)" fill="#ee6b47" fill-rule="nonzero">
    <path id="path473" d="m13.5-5.5 14 7-14 7v-6h-14v-2h14z"/>
   </g>
   <g id="Group-3" transform="matrix(1.2539 0 0 .98747 278.86 39.325)">
    <path id="Rectangle-1" d="m1 1h52v18h-52z" fill="#fff9eb" stroke="#e8c48e" stroke-width="2"/>
    <text id="empty" x="4.434763" y="13.480186" fill="#8a704d" font-family="PTMono-Regular, 'PT Mono'" font-size="10.784px" style="font-variant-caps:normal;font-variant-east-asian:normal;font-variant-ligatures:normal;font-variant-numeric:normal"><tspan id="tspan82" x="4.434763" y="13.480186">&lt;empty&gt;</tspan></text>
   </g>
   <g id="Group-Copy-3" transform="translate(242 74.132)" fill="#ee6b47" fill-rule="nonzero">
    <path id="path481" d="m13.5-5.5 14 7-14 7v-6h-14v-2h14z"/>
   </g>
   <g id="Group-3-Copy" transform="matrix(1.2539 0 0 .98747 278.86 65.632)">
    <path id="path484" d="m1 1h52v18h-52z" fill="#fff9eb" stroke="#e8c48e" stroke-width="2"/>
    <text id="empty-2" x="3.6372356" y="13.40132" fill="#8a704d" font-family="PTMono-Regular, 'PT Mono'" font-size="10.784px" style="font-variant-caps:normal;font-variant-east-asian:normal;font-variant-ligatures:normal;font-variant-numeric:normal"><tspan id="tspan82-6" x="3.6372356" y="13.40132">&lt;empty&gt;</tspan></text>
   </g>
   <g id="Group-Copy-4" transform="translate(242 100.24)" fill="#ee6b47" fill-rule="nonzero">
    <path id="path490" d="m13.5-5.5 14 7-14 7v-6h-14v-2h14z"/>
   </g>
   <g id="Group-3-Copy-2" transform="matrix(1.2539 0 0 .98746 278.86 83.677)">
    <path id="path493" d="m1 8.7202h52v18h-52z" fill="#fff9eb" stroke="#e8c48e" stroke-width="2"/>
    <text id="empty-3" x="3.8804243" y="20.695623" fill="#8a704d" font-family="PTMono-Regular, 'PT Mono'" font-size="10.784px" style="font-variant-caps:normal;font-variant-east-asian:normal;font-variant-ligatures:normal;font-variant-numeric:normal"><tspan id="tspan82-6-6" x="3.8804243" y="20.695623">&lt;empty&gt;</tspan></text>
   </g>
   <g id="Group-Copy-5" transform="translate(242 141.55)" fill="#ee6b47" fill-rule="nonzero">
    <path id="path499" d="m13.5-5.5 14 7-14 7v-6h-14v-2h14z"/>
   </g>
   <g id="Group-3-Copy-3" transform="matrix(1.2592 0 0 .98723 278.86 135.02)">
    <path id="path502" d="m1-0.88605h52v18h-52z" fill="#fff9eb" stroke="#e8c48e" stroke-width="2"/>
    <text id="empty-4" x="-3.3079584" y="-2.2054698" fill="#8a704d" font-family="PTMono-Regular, 'PT Mono'" font-size="10.763px" style="font-variant-caps:normal;font-variant-east-asian:normal;font-variant-ligatures:normal;font-variant-numeric:normal"><tspan id="tspan504" x="4.1390419" y="11.304529" font-family="PTMono-Regular, 'PT Mono'" font-size="10.763px" style="font-variant-caps:normal;font-variant-east-asian:normal;font-variant-ligatures:normal;font-variant-numeric:normal">&lt;empty&gt;</tspan></text>
   </g>
   <text id="makeArmy()-LexicalEn" y="-10.461049" fill="#8a704d" font-family="PTMono-Regular, 'PT Mono'" font-size="14px"><tspan id="tspan512" x="403" y="53.538952">makeArmy()</tspan><tspan id="tspan514" x="403" y="68.538948">LexicalEnvironment</tspan></text>
   <text id="while-block-LexicalEnv" fill="#8a704d" font-family="PTMono-Regular, 'PT Mono'" font-size="14px"><tspan id="tspan517" x="278" y="14">while block</tspan><tspan id="tspan519" x="278" y="29">LexicalEnvironment</tspan></text>
   <g id="Group-3-Copy-3-8" transform="translate(403.57 78.201)">
    <path id="path502-7" d="m1 1h52v18h-52z" fill="#fff9eb" stroke="#e8c48e" stroke-width="2"/>
    <text id="i:-10" y="1.2001058" fill="#8a704d" font-family="PTMono-Regular, 'PT Mono'" font-size="14px"><tspan id="tspan504-1" x="7.447" y="14.710105">i: 10</tspan></text>
   </g>
  </g>
 </g>
</svg>
