<svg xmlns="http://www.w3.org/2000/svg" width="503" height="370" viewBox="0 0 503 370"><defs><style>@import url(https://fonts.googleapis.com/css?family=Open+Sans:bold,italic,bolditalic%7CPT+Mono);@font-face{font-family:&apos;PT Mono&apos;;font-weight:700;font-style:normal;src:local(&apos;PT MonoBold&apos;),url(/font/PTMonoBold.woff2) format(&apos;woff2&apos;),url(/font/PTMonoBold.woff) format(&apos;woff&apos;),url(/font/PTMonoBold.ttf) format(&apos;truetype&apos;)}</style></defs><g id="inheritance" fill="none" fill-rule="evenodd" stroke="none" stroke-width="1"><g id="object-date-inheritance.svg"><path id="Rectangle-1" fill="#FBF2EC" stroke="#DBAF88" stroke-width="2" d="M267 23h219v78H267z"/><text id="constructor:-Object" fill="#AF6E24" font-family="PTMono-Regular, PT Mono" font-size="14" font-weight="normal"><tspan x="277" y="42">constructor: Object</tspan> <tspan x="277" y="57">toString: function</tspan> <tspan x="277" y="72">hasOwnProperty: function</tspan> <tspan x="277" y="87">...</tspan></text><path id="Rectangle-1-Copy" fill="#FBF2EC" stroke="#DBAF88" stroke-width="2" d="M267 329h178v28H267z"/><text id="Object.prototype" fill="#AF6E24" font-family="PTMono-Regular, PT Mono" font-size="14" font-weight="normal"><tspan x="266" y="15">Object.prototype</tspan></text><path id="Rectangle-1-Copy-4" fill="#FBF2EC" stroke="#DBAF88" stroke-width="2" d="M267 183h219v78H267z"/><text id="constructor:-Date-to" fill="#AF6E24" font-family="PTMono-Regular, PT Mono" font-size="14" font-weight="normal"><tspan x="277" y="202">constructor: Date</tspan> <tspan x="277" y="217">toString: function</tspan> <tspan x="277" y="232">getDate: function</tspan> <tspan x="277" y="247">...</tspan></text><text id="Date.prototype" fill="#AF6E24" font-family="PTMono-Regular, PT Mono" font-size="14" font-weight="normal"><tspan x="266" y="175">Date.prototype</tspan></text><path id="Rectangle-1-Copy-2" fill="#FBF2EC" stroke="#DBAF88" stroke-width="2" d="M15 23h133v64H15z"/><text id="Object" fill="#AF6E24" font-family="PTMono-Regular, PT Mono" font-size="14" font-weight="normal"><tspan x="14" y="15">Object</tspan></text><path id="Rectangle-1-Copy-3" fill="#FBF2EC" stroke="#DBAF88" stroke-width="2" d="M15 183h133v64H15z"/><text id="Date" fill="#AF6E24" font-family="PTMono-Regular, PT Mono" font-size="14" font-weight="normal"><tspan x="14" y="175">Date</tspan></text><text id="new-Date()" fill="#AF6E24" font-family="PTMono-Regular, PT Mono" font-size="14" font-weight="normal"><tspan x="268" y="318">new Date()</tspan></text><path id="Line" fill="#C06334" fill-rule="nonzero" d="M355.5 113.5l7 14h-6v28h-2v-28h-6l7-14z"/><path id="Line-Copy" fill="#C06334" fill-rule="nonzero" d="M238 30l14 7-14 7v-6h-82v-2h82v-6z"/><text id="[[Prototype]]" fill="#AF6E24" font-family="PTMono-Regular, PT Mono" font-size="14" font-weight="normal"><tspan x="365" y="137">[[Prototype]]</tspan></text><path id="Line-Copy-3" fill="#C06334" fill-rule="nonzero" d="M355.5 273.5l7 14h-6v28h-2v-28h-6l7-14z"/><text id="[[Prototype]]-Copy" fill="#AF6E24" font-family="PTMono-Regular, PT Mono" font-size="14" font-weight="normal"><tspan x="365" y="297">[[Prototype]]</tspan></text><text id="prototype" fill="#AF6E24" font-family="PTMono-Regular, PT Mono" font-size="14" font-weight="normal"><tspan x="163" y="25">prototype</tspan></text><path id="Line-Copy-2" fill="#C06334" fill-rule="nonzero" d="M238 198l14 7-14 7v-6h-82v-2h82v-6z"/><text id="prototype-copy" fill="#AF6E24" font-family="PTMono-Regular, PT Mono" font-size="14" font-weight="normal"><tspan x="163" y="193">prototype</tspan></text><text id="defineProperty" fill="#AF6E24" font-family="PTMono-Regular, PT Mono" font-size="14" font-weight="normal"><tspan x="24" y="41">defineProperty</tspan> <tspan x="24" y="56">keys</tspan> <tspan x="24" y="71">...</tspan></text><text id="now" fill="#AF6E24" font-family="PTMono-Regular, PT Mono" font-size="14" font-weight="normal"><tspan x="24" y="202">now</tspan> <tspan x="24" y="217">parse</tspan> <tspan x="24" y="232">...</tspan></text><text id="1-Jan-2019" fill="#AF6E24" font-family="PTMono-Regular, PT Mono" font-size="14" font-weight="normal"><tspan x="278" y="347">1 Jan 2019</tspan></text></g></g></svg>