<svg xmlns="http://www.w3.org/2000/svg" width="212" height="192" viewBox="0 0 212 192"><defs><style>@import url(https://fonts.googleapis.com/css?family=Open+Sans:bold,italic,bolditalic%7CPT+Mono);@font-face{font-family:&apos;PT Mono&apos;;font-weight:700;font-style:normal;src:local(&apos;PT MonoBold&apos;),url(/font/PTMonoBold.woff2) format(&apos;woff2&apos;),url(/font/PTMonoBold.woff) format(&apos;woff&apos;),url(/font/PTMonoBold.ttf) format(&apos;truetype&apos;)}</style></defs><g id="combined" fill="none" fill-rule="evenodd" stroke="none" stroke-width="1"><g id="json-meetup.svg"><path id="Rectangle-2" fill="#FBF2EC" stroke="#DBAF88" stroke-width="2" d="M71 1h89v26H71z"/><text id="number:-23" fill="#AF6E24" font-family="PTMono-Regular, PT Mono" font-size="12" font-weight="normal"><tspan x="84" y="17">number: 23</tspan></text><path id="Rectangle-3" fill="#FBF2EC" stroke="#DBAF88" stroke-width="2" d="M37 80h152v26H37z"/><text id="title:-&quot;Conference&quot;" fill="#AF6E24" font-family="PTMono-Regular, PT Mono" font-size="12" font-weight="normal"><tspan x="50" y="96">title: &quot;Conference&quot;</tspan></text><path id="Rectangle-3-Copy" fill="#FBF2EC" stroke="#DBAF88" stroke-width="2" d="M69 157h89v26H69z"/><text id="..." fill="#AF6E24" font-family="PTMono-Regular, PT Mono" font-size="12" font-weight="normal"><tspan x="103" y="173">...</tspan></text><text id="place" fill="#AF6E24" font-family="PTMono-Regular, PT Mono" font-size="14" font-weight="normal"><tspan x="139" y="56">place</tspan></text><path id="Line" fill="#C06334" fill-rule="nonzero" d="M107.5 34.5v18h6l-7 14-7-14h6v-18h2z"/><path id="Line-Copy" fill="#C06334" fill-rule="nonzero" d="M119.5 35.5l7 14h-6v18h-2v-18h-6l7-14z"/><text id="occupiedBy" fill="#AF6E24" font-family="PTMono-Regular, PT Mono" font-size="14" font-weight="normal"><tspan x="11" y="56">occupiedBy</tspan></text><path id="Line-Copy-2" fill="#C06334" fill-rule="nonzero" d="M114.5 113.5v18h6l-7 14-7-14h6v-18h2z"/><text id="participants" fill="#AF6E24" font-family="PTMono-Regular, PT Mono" font-size="14" font-weight="normal"><tspan x="2" y="135">participants</tspan></text><ellipse id="Oval-32" cx="113" cy="52.5" stroke="#478964" rx="32.582" ry="29.5"/></g></g></svg>