<svg xmlns="http://www.w3.org/2000/svg" width="188" height="192" viewBox="0 0 188 192"><defs><style>@import url(https://fonts.googleapis.com/css?family=Open+Sans:bold,italic,bolditalic%7CPT+Mono);@font-face{font-family:&apos;PT Mono&apos;;font-weight:700;font-style:normal;src:local(&apos;PT MonoBold&apos;),url(/font/PTMonoBold.woff2) format(&apos;woff2&apos;),url(/font/PTMonoBold.woff) format(&apos;woff&apos;),url(/font/PTMonoBold.ttf) format(&apos;truetype&apos;)}</style></defs><g id="combined" fill="none" fill-rule="evenodd" stroke="none" stroke-width="1"><g id="json-meetup.svg"><path id="Rectangle-2" fill="#FFF9EB" stroke="#BCA68E" stroke-width="2" d="M59 1h89v26H59z"/><text id="number:-23" fill="#8A704D" font-family="PTMono-Regular, PT Mono" font-size="12" font-weight="normal"><tspan x="72" y="17">number: 23</tspan></text><path id="Rectangle-3" fill="#FFF9EB" stroke="#BCA68E" stroke-width="2" d="M25 80h152v26H25z"/><text id="title:-&quot;Conference&quot;" fill="#8A704D" font-family="PTMono-Regular, PT Mono" font-size="12" font-weight="normal"><tspan x="38" y="96">title: &quot;Conference&quot;</tspan></text><path id="Rectangle-3-Copy" fill="#FFF9EB" stroke="#BCA68E" stroke-width="2" d="M57 157h89v26H57z"/><text id="..." fill="#8A704D" font-family="PTMono-Regular, PT Mono" font-size="12" font-weight="normal"><tspan x="91" y="173">...</tspan></text><text id="place" fill="#8A704D" font-family="PTMono-Regular, PT Mono" font-size="14" font-weight="normal"><tspan x="127" y="56">place</tspan></text><path id="Line" fill="#EE6B47" fill-rule="nonzero" d="M93.5 52.5v-18h2v18h6l-7 14-7-14h6z"/><path id="Line-Copy" fill="#EE6B47" fill-rule="nonzero" d="M108.5 49.5v18h-2v-18h-6l7-14 7 14h-6z"/><text id="occupiedBy" fill="#8A704D" font-family="PTMono-Regular, PT Mono" font-size="14" font-weight="normal"><tspan x="5" y="56">occupiedBy</tspan></text><path id="Line-Copy-2" fill="#EE6B47" fill-rule="nonzero" d="M100.5 131.5v-18h2v18h6l-7 14-7-14h6z"/><text id="participants" fill="#8A704D" font-family="PTMono-Regular, PT Mono" font-size="14" font-weight="normal"><tspan x="0" y="135">participants</tspan></text><ellipse id="Oval-32" cx="101" cy="52.5" stroke="#F5A623" rx="37" ry="33.5"/></g></g></svg>