<svg xmlns="http://www.w3.org/2000/svg" width="602" height="202" viewBox="0 0 602 202"><defs><style>@import url(https://fonts.googleapis.com/css?family=Open+Sans:bold,italic,bolditalic%7CPT+Mono);@font-face{font-family:&apos;PT Mono&apos;;font-weight:700;font-style:normal;src:local(&apos;PT MonoBold&apos;),url(/font/PTMonoBold.woff2) format(&apos;woff2&apos;),url(/font/PTMonoBold.woff) format(&apos;woff&apos;),url(/font/PTMonoBold.ttf) format(&apos;truetype&apos;)}</style></defs><g id="dom" fill="none" fill-rule="evenodd" stroke="none" stroke-width="1"><g id="KB_United_States-NoAltGr" transform="translate(1 1)"><path id="rect2186" fill="#FFF" stroke="#181717" d="M0 0h39.604v40H0z"/><path id="rect2218" fill="#FFF" stroke="#181717" d="M40.594 0h39.604v40H40.594z"/><path id="rect2222" fill="#FFF" stroke="#181717" d="M80.198 0h39.604v40H80.198z"/><path id="rect2228" fill="#FFF" stroke="#181717" d="M119.802 0h39.604v40h-39.604z"/><path id="rect2230" fill="#FFF" stroke="#181717" d="M160.396 0H200v40h-39.604z"/><path id="rect2232" fill="#FFF" stroke="#181717" d="M200 0h39.604v40H200z"/><path id="rect2234" fill="#FFF" stroke="#181717" d="M240.594 0h39.604v40h-39.604z"/><path id="rect2236" fill="#FFF" stroke="#181717" d="M280.198 0h39.604v40h-39.604z"/><path id="rect2238" fill="#FFF" stroke="#181717" d="M319.802 0h39.604v40h-39.604z"/><path id="rect2240" fill="#FFF" stroke="#181717" d="M360.396 0H400v40h-39.604z"/><path id="rect2242" fill="#FFF" stroke="#181717" d="M400 0h39.604v40H400z"/><path id="rect2244" fill="#FFF" stroke="#181717" d="M440.594 0h39.604v40h-39.604z"/><path id="rect2246" fill="#FFF" stroke="#181717" d="M480.198 0h39.604v40h-39.604z"/><path id="rect2248" fill="#D1CFCD" stroke="#181717" d="M519.802 0H600v40h-80.198z"/><path id="rect2250" fill="#D1CFCD" stroke="#181717" d="M0 40h60.396v40H0z"/><path id="rect2252" fill="#FFF" stroke="#181717" d="M60.396 40H100v40H60.396z"/><path id="rect2254" fill="#FFF" stroke="#181717" d="M100 40h39.604v40H100z"/><path id="rect2256" fill="#FFF" stroke="#181717" d="M140.594 40h39.604v40h-39.604z"/><path id="rect2258" fill="#FFF" stroke="#181717" d="M180.198 40h39.604v40h-39.604z"/><path id="rect2262" fill="#FFF" stroke="#181717" d="M219.802 40h39.604v40h-39.604z"/><path id="rect2264" fill="#FFF" stroke="#181717" d="M260.396 40H300v40h-39.604z"/><path id="rect2266" fill="#FFF" stroke="#181717" d="M300 40h39.604v40H300z"/><path id="rect2270" fill="#FFF" stroke="#181717" d="M340.594 40h39.604v40h-39.604z"/><path id="rect2272" fill="#FFF" stroke="#181717" d="M380.198 40h39.604v40h-39.604z"/><path id="rect2274" fill="#FFF" stroke="#181717" d="M419.802 40h39.604v40h-39.604z"/><path id="rect2278" fill="#FFF" stroke="#181717" d="M460.396 40H500v40h-39.604z"/><path id="rect2280" fill="#FFF" stroke="#181717" d="M500 40h39.604v40H500z"/><path id="rect2284" fill="#FFF" stroke="#181717" d="M539.604 40H600v40h-60.396z"/><path id="rect2286" fill="#D1CFCD" stroke="#181717" d="M0 80h70.297v40H0z"/><path id="rect2292" fill="#FFF" stroke="#181717" d="M70.297 80h39.604v40H70.297z"/><path id="rect2296" fill="#FFF" stroke="#181717" d="M109.901 80h39.604v40h-39.604z"/><path id="rect2298" fill="#FFF" stroke="#181717" d="M150.495 80h39.604v40h-39.604z"/><path id="rect2300" fill="#FFF" stroke="#181717" d="M190.099 80h39.604v40h-39.604z"/><path id="rect2302" fill="#FFF" stroke="#181717" d="M230.693 80h39.604v40h-39.604z"/><path id="rect2306" fill="#FFF" stroke="#181717" d="M270.297 80h39.604v40h-39.604z"/><path id="rect2308" fill="#FFF" stroke="#181717" d="M309.901 80h39.604v40h-39.604z"/><path id="rect2312" fill="#FFF" stroke="#181717" d="M350.495 80h39.604v40h-39.604z"/><path id="rect2314" fill="#FFF" stroke="#181717" d="M390.099 80h39.604v40h-39.604z"/><path id="rect2316" fill="#FFF" stroke="#181717" d="M430.693 80h39.604v40h-39.604z"/><path id="rect2318" fill="#FFF" stroke="#181717" d="M470.297 80h39.604v40h-39.604z"/><path id="rect2320" fill="#D1CFCD" stroke="#181717" d="M509.901 80H600v40h-90.099z"/><path id="rect2322" fill="#D1CFCD" stroke="#181717" d="M0 120h90.099v40H0z"/><path id="rect2324" fill="#FFF" stroke="#181717" d="M90.099 120h39.604v40H90.099z"/><path id="rect2326" fill="#FFF" stroke="#181717" d="M130.693 120h39.604v40h-39.604z"/><path id="rect2330" fill="#FFF" stroke="#181717" d="M170.297 120h39.604v40h-39.604z"/><path id="rect2334" fill="#FFF" stroke="#181717" d="M209.901 120h39.604v40h-39.604z"/><path id="rect2336" fill="#FFF" stroke="#181717" d="M250.495 120h39.604v40h-39.604z"/><path id="rect2338" fill="#FFF" stroke="#181717" d="M290.099 120h39.604v40h-39.604z"/><path id="rect2340" fill="#FFF" stroke="#181717" d="M330.693 120h39.604v40h-39.604z"/><path id="rect2342" fill="#FFF" stroke="#181717" d="M370.297 120h39.604v40h-39.604z"/><path id="rect2344" fill="#FFF" stroke="#181717" d="M409.901 120h39.604v40h-39.604z"/><path id="rect2346" fill="#FFF" stroke="#181717" d="M450.495 120h39.604v40h-39.604z"/><path id="rect2348" fill="#D1CFCD" stroke="#181717" d="M490.099 120H600v40H490.099z"/><path id="rect2350" fill="#D1CFCD" stroke="#181717" d="M0 160h60.396v40H0z"/><path id="rect2352" fill="#D1CFCD" stroke="#181717" d="M539.604 160H600v40h-60.396z"/><path id="rect2354" fill="#D1CFCD" stroke="#181717" d="M100 160h60.396v40H100z"/><path id="rect2360" fill="#D1CFCD" stroke="#181717" d="M400 160h60.396v40H400z"/><path id="rect2362" fill="#FFF" stroke="#181717" d="M160.396 160H400v40H160.396z"/><path id="rect2364" fill="#F6F3F1" stroke="#181717" d="M60.396 160H100v40H60.396z"/><path id="rect2366" fill="#F6F3F1" stroke="#181717" d="M460.396 160H500v40h-39.604z"/><path id="rect2368" fill="#F6F3F1" stroke="#181717" d="M500 160h39.604v40H500z"/><path id="text5091" fill="#181717" fill-rule="nonzero" d="M50.238 12.434l-.619-5.26V4h2.444v3.174l-.62 5.26h-1.205m-.587 3.254v-2.341h2.356v2.34h-2.356M50.238 36v-7.768h-2.713v-1.595h.174c.99 0 1.709-.153 2.158-.46.455-.307.722-.82.801-1.54h1.817V36h-2.237"/><path id="text5103" fill="#181717" fill-rule="nonzero" d="M15.842 9v1.75c-.559.376-1.088.653-1.587.832a4.387 4.387 0 01-1.466.262c-.248 0-.495-.021-.742-.063a5.413 5.413 0 01-.74-.183c-.13-.042-.32-.108-.573-.198-1.176-.396-2.07-.594-2.682-.594-.457 0-.935.1-1.434.301-.494.196-1.05.51-1.668.943V10.3a7.651 7.651 0 011.644-.848 4.307 4.307 0 011.474-.286c.628 0 1.41.154 2.344.46a.133.133 0 00.032.008c.097.031.245.082.443.15.833.29 1.477.436 1.934.436.456 0 .926-.098 1.41-.293.483-.196 1.02-.505 1.61-.927M8.037 23.069h2.078L11.701 26h-1.144l-2.521-2.931"/><path id="text5127" fill="#181717" fill-rule="nonzero" d="M90.732 13.574c-.291.443-.628.77-1.009.982-.381.206-.831.309-1.35.309-.837 0-1.475-.227-1.914-.681-.434-.454-.651-1.125-.651-2.012 0-1.261.368-2.32 1.104-3.175.74-.855 1.652-1.283 2.732-1.283.423 0 .791.087 1.104.261.312.174.569.433.77.776l.42-.776h1.415l-1.168 4.736a1.833 1.833 0 00-.055.324c0 .185.063.325.19.42.127.09.315.135.564.135.206 0 .42-.053.643-.159.228-.105.44-.253.636-.443.455-.422.8-.916 1.032-1.48a4.741 4.741 0 00.358-1.862c0-1.267-.493-2.307-1.478-3.12-.98-.818-2.245-1.227-3.796-1.227-.747 0-1.443.09-2.089.269-.64.18-1.223.446-1.747.8-.9.602-1.594 1.354-2.08 2.257a6.207 6.207 0 00-.723 2.97c0 1.62.548 2.916 1.644 3.887 1.096.966 2.56 1.45 4.391 1.45a8.25 8.25 0 002.51-.389 8.382 8.382 0 002.287-1.124l.652.926a9.152 9.152 0 01-2.582 1.37 8.79 8.79 0 01-2.835.46c-1.016 0-1.95-.13-2.803-.388a7.047 7.047 0 01-2.272-1.133c-.82-.638-1.435-1.375-1.842-2.21-.408-.833-.612-1.778-.612-2.834 0-.882.138-1.721.413-2.518a7.08 7.08 0 011.231-2.186 7.64 7.64 0 012.828-2.17c1.1-.49 2.327-.736 3.677-.736.894 0 1.734.121 2.517.364.79.238 1.475.576 2.057 1.014.715.554 1.247 1.188 1.597 1.9.354.708.532 1.508.532 2.4 0 .87-.175 1.676-.524 2.415a5.252 5.252 0 01-1.494 1.885 4.054 4.054 0 01-2.573.91c-.561 0-.985-.11-1.27-.332-.281-.222-.427-.55-.437-.982m.397-3.39c-.069-.427-.223-.752-.46-.973-.234-.227-.544-.34-.93-.34-.604 0-1.128.326-1.573.981-.444.655-.667 1.441-.667 2.36 0 .486.106.855.318 1.108.217.254.53.38.937.38.44 0 .84-.166 1.2-.498.365-.333.614-.766.746-1.299l.429-1.718M85.37 36c.01-1.014.228-1.871.651-2.574.424-.707 1.176-1.422 2.256-2.146.164-.11.402-.264.714-.459 1.43-.913 2.145-1.792 2.145-2.637 0-.501-.151-.897-.453-1.188-.302-.29-.715-.435-1.239-.435-.572 0-1.014.18-1.326.538-.307.354-.46.86-.46 1.52v.096H85.56c0-1.299.35-2.3 1.049-3.002s1.694-1.053 2.986-1.053c1.17 0 2.105.32 2.804.958.698.634 1.048 1.479 1.048 2.534 0 .755-.183 1.41-.548 1.964-.365.555-1.072 1.185-2.12 1.893-.223.153-.53.354-.922.602-.995.639-1.557 1.124-1.684 1.457h5.163V36H85.37"/><path id="text5139" fill="#181717" fill-rule="nonzero" d="M130.065 8.85l-.704 1.92h2.008l.688-1.92h-1.992m0-4.85h1.768l-1.168 3.267h1.936L133.785 4h1.769l-1.185 3.267h2.265l-.592 1.582h-2.24l-.673 1.905h2.32l-.568 1.575h-2.328l-1.184 3.274h-1.768l1.184-3.274h-1.952l-1.192 3.274h-1.76l1.168-3.274h-2.297l.609-1.575h2.256l.688-1.905h-2.392l.592-1.582h2.376L130.065 4m-3.552 28.245h2.2c.005.63.16 1.105.464 1.425.304.315.755.472 1.352.472.576 0 1.019-.147 1.328-.44.315-.3.472-.727.472-1.284 0-.556-.184-.976-.552-1.26-.363-.288-.904-.432-1.624-.432-.037 0-.096.002-.176.008-.075.005-.13.007-.168.007v-1.558h.248c.661 0 1.15-.126 1.464-.378.32-.257.48-.648.48-1.173 0-.436-.136-.78-.408-1.031-.267-.257-.632-.386-1.096-.386-.507 0-.899.147-1.176.44-.277.295-.416.712-.416 1.253v.094h-2.16c.026-1.155.37-2.039 1.032-2.653.667-.62 1.605-.929 2.816-.929 1.147 0 2.056.276 2.728.827.672.55 1.008 1.293 1.008 2.228 0 .493-.114.926-.344 1.298-.229.373-.573.68-1.032.921.587.252 1.03.601 1.328 1.047.304.441.456.969.456 1.583 0 1.128-.376 2.023-1.128 2.684-.752.661-1.778.992-3.08.992-1.285 0-2.278-.32-2.976-.96-.694-.646-1.04-1.562-1.04-2.748v-.047"/><path id="text5145" fill="#181717" fill-rule="nonzero" d="M169.832 14.64c.412-.056.727-.21.944-.458.216-.25.324-.581.324-.996 0-.368-.103-.671-.31-.91-.2-.244-.52-.433-.958-.568v2.933m-.899-5.32V6.675c-.392.052-.692.192-.898.42-.207.223-.31.524-.31.902 0 .316.096.58.287.793.196.213.503.39.921.53m0 8.517v-1.494c-1.137-.072-1.988-.412-2.552-1.019-.564-.606-.846-1.483-.846-2.629h2.024c.025.56.15 1.004.377 1.33.232.322.564.527.997.615v-3.22c-1.168-.306-1.998-.706-2.492-1.198-.493-.493-.74-1.167-.74-2.023 0-.949.292-1.714.876-2.294.59-.581 1.375-.884 2.356-.91V4h.899v.996c.981.051 1.746.357 2.295.917.549.555.85 1.338.906 2.35h-2.054c-.035-.483-.148-.85-.34-1.105-.186-.26-.455-.404-.807-.436v2.832c1.243.399 2.119.855 2.627 1.369.509.513.763 1.19.763 2.03 0 .99-.297 1.781-.891 2.372-.589.591-1.422.936-2.5 1.035v1.478h-.898m1.02 14.04v-4.769l-2.938 4.768h2.938M169.907 36v-2.403h-4.56v-1.96l3.986-6.457h2.68v6.643h1.254v1.774h-1.253V36h-2.107"/><path id="text5151" fill="#181717" fill-rule="nonzero" d="M213.66 12.728c0 .354.119.653.356.897.237.238.529.357.876.357.337 0 .627-.122.869-.365a1.23 1.23 0 00.363-.889c0-.339-.121-.627-.363-.865a1.166 1.166 0 00-.869-.365c-.347 0-.64.12-.876.357a1.173 1.173 0 00-.356.873m-1.713 0c0-.825.284-1.52.853-2.087.568-.566 1.266-.849 2.092-.849.81 0 1.5.289 2.07.865.573.571.86 1.262.86 2.071 0 .815-.287 1.513-.86 2.095a2.814 2.814 0 01-2.07.865c-.826 0-1.524-.286-2.092-.857-.569-.572-.853-1.273-.853-2.103m-4.588 2.96L214.103 4h1.27l-6.743 11.688h-1.271m-.695-8.728c0 .349.116.642.347.88.237.238.53.357.877.357.342 0 .632-.119.869-.357.242-.243.363-.537.363-.88 0-.339-.121-.627-.363-.865a1.166 1.166 0 00-.869-.365c-.347 0-.64.119-.877.357a1.187 1.187 0 00-.347.873m-1.714 0c0-.826.285-1.524.853-2.095.569-.577 1.264-.865 2.085-.865.81 0 1.5.29 2.069.873a2.85 2.85 0 01.86 2.087 2.85 2.85 0 01-.86 2.086 2.81 2.81 0 01-2.069.857c-.827 0-1.524-.283-2.093-.849-.563-.566-.845-1.264-.845-2.094m2.259 25.66h2.21c.038.497.204.883.498 1.158.295.27.69.405 1.185.405.61 0 1.076-.18 1.398-.54.326-.36.49-.875.49-1.547 0-.63-.167-1.124-.498-1.484-.332-.365-.79-.547-1.374-.547-.327 0-.614.066-.861.198a1.757 1.757 0 00-.632.587l-2.037-.119.734-6.093h6.5v1.92h-4.905l-.292 2.277c.248-.196.532-.341.853-.436.321-.1.68-.151 1.074-.151 1.127 0 2.035.344 2.724 1.031.695.688 1.043 1.59 1.043 2.706 0 1.222-.382 2.198-1.145 2.928-.764.725-1.788 1.087-3.072 1.087-1.169 0-2.1-.299-2.795-.897-.69-.603-1.056-1.43-1.098-2.483"/><path id="text5157" fill="#181717" fill-rule="nonzero" d="M248.477 4h2.056l3.922 4.418h-1.916l-3.026-2.922-3.042 2.922h-1.917L248.477 4m-.685 28.078c0 .646.166 1.158.498 1.536.337.378.794.567 1.37.567.538 0 .96-.184 1.264-.552.305-.367.457-.88.457-1.535 0-.604-.158-1.074-.473-1.41-.316-.336-.759-.504-1.33-.504-.56 0-.997.168-1.313.504-.315.336-.473.8-.473 1.394m-.032-2.946a2.55 2.55 0 01.962-.59 3.652 3.652 0 011.256-.205c1.142 0 2.055.336 2.74 1.008.69.672 1.036 1.567 1.036 2.686 0 1.186-.375 2.144-1.125 2.874S250.889 36 249.659 36c-1.418 0-2.497-.473-3.237-1.418-.734-.945-1.1-2.328-1.1-4.15 0-1.959.393-3.455 1.182-4.49.788-1.04 1.924-1.559 3.409-1.559 1.033 0 1.865.26 2.495.78.637.52.984 1.223 1.044 2.11h-2.365c-.054-.362-.201-.635-.44-.819-.24-.183-.574-.275-1.003-.275-.588 0-1.039.246-1.354.74-.316.488-.492 1.226-.53 2.213"/><path id="text5163" fill="#181717" fill-rule="nonzero" d="M288.584 10.586l-.571.436c-.23.17-.404.373-.519.611a1.815 1.815 0 00-.173.801c0 .45.146.828.436 1.135.29.307.654.46 1.09.46.321 0 .627-.069.917-.206.296-.143.57-.35.82-.619l-2-2.618m.602-2.5l.263-.198c.24-.175.418-.37.533-.587.116-.217.173-.466.173-.746 0-.27-.08-.484-.24-.643-.156-.158-.369-.238-.64-.238-.275 0-.493.082-.653.246-.16.159-.24.376-.24.65 0 .149.037.31.112.485.08.174.193.36.338.555l.354.476m-1.692 1.056l-.436-.603a3.832 3.832 0 01-.489-.89 2.72 2.72 0 01-.142-.88c0-.846.255-1.518.766-2.015.517-.503 1.216-.754 2.098-.754.847 0 1.516.23 2.007.69.491.46.737 1.082.737 1.865 0 .592-.145 1.124-.436 1.595-.286.465-.737.904-1.353 1.317l1.586 2.063c.15-.26.268-.55.353-.873a5.97 5.97 0 00.188-1.079h1.955a7.196 7.196 0 01-.406 1.912 6 6 0 01-.887 1.61l2.015 2.588h-2.557l-.751-.976a4.672 4.672 0 01-1.459.976 4.299 4.299 0 01-1.654.325c-1.022 0-1.86-.32-2.51-.96-.647-.64-.97-1.457-.97-2.452 0-.74.18-1.378.54-1.912.362-.534.963-1.05 1.805-1.547M289.742 36h-2.248c.08-1.55.434-3.087 1.06-4.61.632-1.523 1.531-3.02 2.699-4.49h-5.293v-1.937h7.631v1.706c-1.183 1.375-2.092 2.83-2.729 4.364-.631 1.534-1.005 3.19-1.12 4.967"/><path id="text5169" fill="#181717" fill-rule="nonzero" d="M328.705 8.587l-1.353 1.948-1.308-.935 1.477-1.893-2.153-.612.5-1.595 2.068.754V4h1.523v2.254l2.068-.738.516 1.594-2.154.597 1.462 1.878-1.339.982-1.307-1.98m-1.722 23.823c0 .55.148.974.446 1.273.302.298.733.448 1.292.448.533 0 .95-.152 1.253-.456.308-.304.461-.725.461-1.265 0-.518-.156-.934-.469-1.248-.312-.315-.728-.472-1.245-.472-.518 0-.939.16-1.262.48-.317.319-.476.732-.476 1.24m.176-4.822c0 .434.134.77.4 1.005.267.23.649.346 1.146.346.497 0 .88-.118 1.146-.354.272-.235.408-.568.408-.997 0-.42-.139-.75-.416-.99-.277-.24-.656-.361-1.138-.361-.471 0-.848.123-1.13.369-.277.246-.416.573-.416.982m-.792 2.183c-.461-.262-.794-.568-1-.919-.204-.35-.307-.798-.307-1.343 0-.963.323-1.72.969-2.27.646-.55 1.538-.825 2.676-.825 1.149 0 2.046.275 2.692.825.65.545.976 1.301.976 2.27 0 .518-.11.969-.33 1.351-.22.377-.551.68-.992.911.538.257.943.613 1.215 1.068.271.45.407 1 .407 1.65 0 1.094-.353 1.953-1.061 2.576-.702.623-1.671.935-2.907.935-1.25 0-2.222-.309-2.914-.927-.692-.618-1.039-1.48-1.039-2.584 0-.644.129-1.183.385-1.618.261-.44.672-.807 1.23-1.1"/><path id="text5175" fill="#181717" fill-rule="nonzero" d="M372.099 4a14.885 14.885 0 00-1.566 3.611 14.3 14.3 0 00-.512 3.855c0 1.34.17 2.622.512 3.847a14.884 14.884 0 001.566 3.611h-1.612c-.891-1.25-1.568-2.507-2.032-3.768-.458-1.267-.687-2.497-.687-3.69s.229-2.423.687-3.69c.464-1.266 1.14-2.525 2.032-3.776h1.612m-1.169 24.33c0-.644-.158-1.152-.474-1.523-.31-.377-.735-.566-1.275-.566-.51 0-.907.181-1.192.542-.28.361-.42.866-.42 1.515 0 .607.148 1.081.443 1.421.296.34.71.51 1.245.51.525 0 .935-.167 1.23-.502.295-.335.443-.8.443-1.397m.038 2.928a2.45 2.45 0 01-.901.589c-.346.13-.736.196-1.169.196-1.074 0-1.935-.332-2.581-.997-.647-.665-.97-1.554-.97-2.67 0-1.182.35-2.137 1.054-2.865.702-.727 1.63-1.091 2.78-1.091 1.334 0 2.347.474 3.04 1.421.698.942 1.046 2.319 1.046 4.13 0 1.947-.371 3.438-1.115 4.475-.743 1.036-1.813 1.554-3.208 1.554-.962 0-1.739-.256-2.33-.77-.59-.518-.914-1.221-.97-2.111l2.208.008c.05.36.188.63.412.808.224.178.54.267.947.267.55 0 .97-.246 1.26-.738.291-.492.456-1.227.497-2.206"/><path id="text5181" fill="#181717" fill-rule="nonzero" d="M406.175 4h1.63c.888 1.247 1.561 2.504 2.02 3.772.46 1.263.69 2.497.69 3.701 0 1.2-.23 2.434-.69 3.702-.459 1.268-1.132 2.522-2.02 3.764h-1.63a14.864 14.864 0 001.576-3.623c.347-1.23.52-2.512.52-3.843 0-1.335-.173-2.616-.52-3.842A15.002 15.002 0 00406.175 4m1.048 26.224c0 1.367.133 2.36.398 2.978.27.619.7.928 1.286.928.587 0 1.015-.312 1.286-.936.27-.623.405-1.613.405-2.97 0-1.362-.135-2.352-.405-2.97-.27-.619-.7-.928-1.286-.928-.587 0-1.015.31-1.286.927-.265.613-.398 1.604-.398 2.971m-2.273 0c0-1.933.327-3.38.98-4.338.658-.964 1.65-1.446 2.977-1.446 1.321 0 2.311.485 2.97 1.454.663.964.994 2.412.994 4.346 0 1.933-.329 3.376-.987 4.33-.653.953-1.645 1.43-2.977 1.43-1.326 0-2.319-.48-2.977-1.438-.653-.959-.98-2.405-.98-4.338"/><path id="text5187" fill="#181717" fill-rule="nonzero" d="M444.554 18h7.921v1.634h-7.92V18m1.786 15v-2.194h4.347V33h-4.347"/><path id="text5201" fill="#181717" fill-rule="nonzero" d="M488.853 6h1.502v3.952h3.704v1.543h-3.704v3.967h-1.502v-3.967h-3.704V9.952h3.704V6m-3.704 25.458h8.91V33h-8.91v-1.542m0-3.333h8.91v1.543h-8.91v-1.543"/><path id="text5427" fill="#181717" fill-rule="nonzero" d="M7.278 63.794v-6.402H4.95V56h6.253v1.392H8.892v6.402H7.278m8.037-.715c-.195.3-.45.53-.767.688a2.472 2.472 0 01-1.102.233c-.561 0-.995-.159-1.3-.476-.302-.318-.453-.77-.453-1.355 0-.543.151-.957.453-1.243.305-.286.808-.482 1.507-.587.16-.025.37-.053.629-.085.657-.085.985-.273.985-.566 0-.233-.073-.399-.218-.498-.146-.102-.389-.153-.73-.153-.312 0-.552.062-.719.185a.619.619 0 00-.25.53v.084H11.9v-.106c0-.589.21-1.051.629-1.386.419-.339.997-.508 1.736-.508.81 0 1.43.14 1.859.418.433.279.65.68.65 1.206v3.27c0 .24.024.42.074.54a.52.52 0 00.25.264v.26h-1.613a1.337 1.337 0 01-.123-.328 1.884 1.884 0 01-.048-.387m-.026-2.116c-.253.116-.544.21-.874.28-.327.07-.495.108-.506.111-.273.078-.465.175-.575.292-.107.116-.16.276-.16.481 0 .212.07.38.208.508.138.123.325.185.559.185.419 0 .747-.116.985-.35.242-.235.363-.556.363-.962v-.545M18.165 56h1.507v2.757c.192-.3.431-.526.719-.678.291-.155.621-.232.99-.232.7 0 1.272.287 1.716.862.443.571.665 1.316.665 2.233 0 .91-.222 1.645-.665 2.206-.444.561-1.023.841-1.737.841-.373 0-.697-.077-.974-.232-.274-.156-.522-.403-.746-.741v.778h-1.475V56m4.058 4.878c0-.529-.112-.943-.335-1.243a1.082 1.082 0 00-.922-.455c-.412 0-.731.148-.959.444-.223.293-.335.711-.335 1.254 0 .586.106 1.03.32 1.334.216.303.53.455.942.455.42 0 .739-.152.959-.455.22-.307.33-.752.33-1.334"/><path id="text5207" fill="#181717" fill-rule="nonzero" d="M526.261 29.323h1.868c.44 0 .762-.08.963-.241.201-.16.302-.414.302-.76 0-.36-.1-.618-.297-.775-.198-.16-.524-.241-.978-.241h-1.858v2.017m0-3.337h1.8c.39 0 .674-.066.854-.2.18-.135.27-.348.27-.638 0-.283-.088-.487-.265-.613-.173-.13-.463-.194-.869-.194h-1.79v1.645m-1.509 4.73V23h3.611c.784 0 1.381.168 1.79.503.413.332.62.815.62 1.45 0 .392-.077.719-.23.98a1.51 1.51 0 01-.686.608c.395.16.69.393.884.697.198.3.297.676.297 1.126 0 .75-.243 1.33-.729 1.74-.485.408-1.174.612-2.065.612h-3.492m10.625-.707c-.19.297-.44.524-.75.68-.308.155-.667.231-1.076.231-.548 0-.971-.157-1.27-.471-.295-.314-.442-.761-.442-1.341 0-.538.147-.948.442-1.231.299-.283.79-.477 1.473-.582.156-.024.36-.052.614-.083.641-.084.962-.271.962-.56 0-.231-.07-.395-.213-.493-.142-.102-.38-.152-.713-.152-.305 0-.54.06-.702.183-.163.122-.245.297-.245.524v.084h-1.415v-.105c0-.583.205-1.04.614-1.372.41-.336.975-.503 1.696-.503.791 0 1.396.138 1.816.414.423.275.635.674.635 1.194v3.237c0 .238.024.416.073.534.048.116.13.203.244.262v.257h-1.576a1.334 1.334 0 01-.12-.325 1.89 1.89 0 01-.047-.382m-.026-2.095c-.246.115-.53.207-.853.277-.32.07-.484.107-.494.11-.268.077-.455.173-.562.288-.104.116-.156.274-.156.477 0 .21.067.377.202.503.136.122.318.183.547.183.41 0 .73-.115.962-.346.236-.233.354-.551.354-.953v-.54m6.197.655h1.493c-.062.723-.324 1.294-.785 1.713-.462.42-1.055.629-1.78.629-.822 0-1.467-.269-1.935-.807-.465-.541-.698-1.288-.698-2.242 0-.95.238-1.694.713-2.231.479-.542 1.136-.812 1.972-.812.732 0 1.318.195 1.759.586.444.392.692.936.744 1.635h-1.504c-.041-.304-.147-.536-.317-.697-.17-.16-.394-.24-.671-.24-.375 0-.656.148-.843.444-.184.297-.276.742-.276 1.336 0 .548.095.971.286 1.268a.94.94 0 00.833.44c.28 0 .506-.086.676-.257.17-.171.281-.426.333-.765m2.482 2.148V23h1.472v4.05l1.8-2.028h1.822l-1.972 2.111 2.091 3.583h-1.815l-1.353-2.425-.573.623v1.802h-1.472m5.562-1.854h1.509c.014.29.118.506.312.65.194.139.486.209.874.209.295 0 .522-.05.682-.147a.475.475 0 00.244-.424c0-.259-.301-.452-.905-.582a13.134 13.134 0 01-.588-.136c-.735-.188-1.247-.412-1.535-.67-.284-.259-.427-.608-.427-1.048 0-.583.209-1.044.625-1.383.42-.342.987-.513 1.701-.513.756 0 1.35.17 1.78.508.433.339.664.815.692 1.43h-1.473a.706.706 0 00-.276-.56c-.17-.133-.407-.2-.712-.2-.288 0-.503.044-.646.131a.434.434 0 00-.208.393c0 .227.377.428 1.13.603.173.038.31.07.41.094.753.178 1.267.393 1.54.644.278.252.417.606.417 1.064 0 .646-.227 1.138-.682 1.477-.45.339-1.108.508-1.972.508-.78 0-1.39-.176-1.831-.53-.44-.352-.661-.837-.661-1.455v-.063m10.14-.959c0-.573-.107-1.01-.322-1.31-.215-.303-.527-.455-.936-.455-.403 0-.71.15-.921.45-.208.3-.312.739-.312 1.315 0 .538.109.953.327 1.247.222.293.534.44.937.44.381 0 .681-.15.9-.45.219-.301.328-.713.328-1.237M555.768 33v-7.978h1.441v.77c.219-.335.462-.58.729-.733.27-.154.588-.23.952-.23.697 0 1.262.277 1.696.832.434.552.65 1.278.65 2.18 0 .91-.216 1.651-.65 2.22-.434.566-.992.849-1.675.849-.361 0-.684-.077-.968-.23a1.927 1.927 0 01-.702-.671V33h-1.473m9.745-2.991c-.19.297-.44.524-.749.68-.309.155-.668.231-1.077.231-.548 0-.971-.157-1.27-.471-.294-.314-.442-.761-.442-1.341 0-.538.148-.948.443-1.231.298-.283.789-.477 1.472-.582.156-.024.36-.052.614-.083.642-.084.963-.271.963-.56 0-.231-.072-.395-.214-.493-.142-.102-.38-.152-.713-.152-.305 0-.539.06-.702.183-.163.122-.245.297-.245.524v.084h-1.415v-.105c0-.583.205-1.04.614-1.372.41-.336.975-.503 1.696-.503.791 0 1.397.138 1.816.414.423.275.635.674.635 1.194v3.237c0 .238.024.416.073.534.048.116.13.203.244.262v.257h-1.576a1.334 1.334 0 01-.12-.325 1.89 1.89 0 01-.047-.382m-.026-2.095c-.246.115-.53.207-.853.277-.319.07-.484.107-.494.11-.267.077-.455.173-.562.288-.104.116-.156.274-.156.477 0 .21.067.377.203.503.135.122.317.183.546.183.41 0 .73-.115.963-.346.235-.233.353-.551.353-.953v-.54m6.197.655h1.494c-.063.723-.325 1.294-.786 1.713-.461.42-1.055.629-1.78.629-.822 0-1.467-.269-1.935-.807-.465-.541-.697-1.288-.697-2.242 0-.95.237-1.694.712-2.231.48-.542 1.136-.812 1.972-.812.732 0 1.319.195 1.76.586.443.392.691.936.743 1.635h-1.504c-.041-.304-.147-.536-.317-.697-.17-.16-.394-.24-.671-.24-.375 0-.656.148-.843.444-.184.297-.276.742-.276 1.336 0 .548.096.971.286 1.268a.94.94 0 00.833.44c.28 0 .506-.086.676-.257.17-.171.281-.426.333-.765m5.937.42h1.509c-.153.6-.461 1.072-.926 1.414-.462.339-1.025.508-1.691.508-.819 0-1.468-.276-1.946-.828-.479-.555-.718-1.306-.718-2.252 0-.933.236-1.668.707-2.206.472-.537 1.117-.806 1.936-.806.867 0 1.537.265 2.008.796.472.527.708 1.28.708 2.258a4.312 4.312 0 01-.016.398h-3.777c.02.447.128.784.322 1.01.198.228.48.341.849.341.26 0 .473-.05.64-.152.166-.104.298-.265.395-.482m-2.206-1.718h2.227c-.014-.384-.116-.675-.307-.875-.188-.202-.458-.303-.812-.303-.33 0-.59.1-.78.303-.188.203-.297.495-.328.875"/><path id="path5439" stroke="#181717" stroke-width="3" d="M560.396 11.5h-28.713"/><path id="path5441" fill="#181717" d="M534.653 17V7l-9.9 5z"/><g id="g5459" transform="translate(29.703 50)"><path id="path5453" stroke="#181717" stroke-width="3" d="M25.401 5.5H6.611"/><path id="path5455" fill="#181717" d="M10.556 10.656V.344L.66 5.5z"/><path id="path5457" stroke="#181717" stroke-width="3" d="M.66.344v10.312"/></g><g id="g5464" transform="rotate(180 27.723 35.5)"><path id="path5466" stroke="#181717" stroke-width="3" d="M25.401 5.5H6.611"/><path id="path5468" fill="#181717" d="M10.556 10.656V.344L.66 5.5z"/><path id="path5470" stroke="#181717" stroke-width="3" d="M.66.344v10.312"/></g><path id="text5474" fill="#181717" fill-rule="nonzero" d="M71.131 54.066l-1.178-1.225 1.254-1.386 1.208 1.257c.161-.322.285-.69.37-1.104.086-.414.129-.865.129-1.354 0-1.305-.275-2.318-.824-3.038-.548-.726-1.316-1.088-2.303-1.088-.977 0-1.737.36-2.281 1.08-.544.72-.816 1.735-.816 3.046 0 1.306.272 2.321.816 3.047.544.72 1.304 1.08 2.28 1.08.253 0 .49-.027.71-.08a2.74 2.74 0 00.635-.235m1.609 1.62a4.191 4.191 0 01-1.322.613 6.03 6.03 0 01-1.631.21c-1.662 0-2.983-.565-3.965-1.693-.977-1.128-1.466-2.649-1.466-4.562 0-1.918.489-3.439 1.466-4.562.982-1.128 2.303-1.692 3.965-1.692 1.661 0 2.983.564 3.965 1.692.987 1.129 1.48 2.65 1.48 4.562a8.3 8.3 0 01-.302 2.305 5.583 5.583 0 01-.89 1.822l1.208 1.233L74.008 57l-1.268-1.314"/><path id="text5482" fill="#181717" fill-rule="nonzero" d="M106.308 56l-3.338-12h2.483l1.993 8.464L109.131 44h2.554l1.684 8.464L115.362 44h2.46l-3.33 12h-2.285l-1.803-9.19-1.811 9.19h-2.285"/><path id="text5492" fill="#181717" fill-rule="nonzero" d="M145.545 56V44h8.62v2.086h-6.21v2.558h5.678v2.053h-5.677v3.087h6.5V56h-8.911"/><path id="text5500" fill="#181717" fill-rule="nonzero" d="M187.62 49.246h2.903c.63 0 1.093-.127 1.387-.382.299-.256.448-.658.448-1.206 0-.522-.144-.915-.432-1.181-.288-.272-.718-.408-1.289-.408h-3.017v3.177M185.149 56V44h5.823c1.31 0 2.28.28 2.911.84.63.559.946 1.414.946 2.565 0 .734-.155 1.344-.465 1.833a2.307 2.307 0 01-1.32 1.002c.521.185.89.467 1.108.848.223.38.351.972.384 1.776l.049 1.417v.049c.016.717.17 1.151.465 1.303V56h-2.708a2.362 2.362 0 01-.204-.62 6.444 6.444 0 01-.082-.887l-.032-1.263c-.027-.744-.169-1.246-.424-1.507-.25-.26-.704-.391-1.362-.391h-2.618V56h-2.471"/><path id="text5504" fill="#181717" fill-rule="nonzero" d="M229.06 56v-9.857h-3.317V44h8.91v2.143h-3.294V56h-2.3"/><path id="text5518" fill="#181717" fill-rule="nonzero" d="M271.618 56h-2.268v-4.473L265.347 44h2.776l2.357 5.173L272.658 44h2.59l-3.63 7.527V56"/><path id="text5522" fill="#181717" fill-rule="nonzero" d="M305.94 44h2.311v7.304c0 .902.172 1.56.514 1.977.342.41.886.616 1.631.616.755 0 1.304-.205 1.646-.616.348-.411.521-1.07.521-1.977V44h2.288v7.565c0 1.428-.382 2.525-1.147 3.289-.76.764-1.858 1.146-3.293 1.146-1.445 0-2.552-.38-3.323-1.138-.765-.765-1.147-1.863-1.147-3.297V44"/><path id="text5526" fill="#181717" fill-rule="nonzero" d="M349.505 56V44h1.98v12h-1.98"/><path id="text5530" fill="#181717" fill-rule="nonzero" d="M386.495 50c0 1.253.273 2.227.817 2.923.545.69 1.306 1.036 2.284 1.036.989 0 1.758-.346 2.307-1.036.55-.696.825-1.67.825-2.923 0-1.253-.275-2.224-.825-2.915-.55-.696-1.318-1.044-2.307-1.044-.978 0-1.74.346-2.284 1.036-.544.691-.817 1.665-.817 2.923m-2.337 0c0-1.84.49-3.299 1.468-4.376.983-1.083 2.306-1.624 3.97-1.624 1.664 0 2.988.541 3.971 1.624.988 1.082 1.483 2.541 1.483 4.376 0 1.835-.495 3.294-1.483 4.376-.983 1.083-2.307 1.624-3.97 1.624-1.665 0-2.988-.541-3.971-1.624-.978-1.082-1.468-2.54-1.468-4.376"/><path id="text5534" fill="#181717" fill-rule="nonzero" d="M428.156 49.556h2.319c.628 0 1.084-.136 1.37-.407.284-.277.426-.72.426-1.328 0-.57-.14-1.002-.419-1.296-.28-.293-.696-.44-1.25-.44h-2.446v3.471m-.016 2.175V56h-2.397V44h5.183c1.224 0 2.15.329 2.778.986.633.651.95 1.61.95 2.876 0 1.238-.31 2.194-.926 2.867-.618.668-1.499 1.002-2.644 1.002h-2.944"/><path id="text5546" fill="#181717" fill-rule="nonzero" d="M473.267 43.016v1.634c-.049 0-.117-.002-.205-.008a3.648 3.648 0 00-.18-.007c-.552 0-.926.101-1.122.305-.192.198-.287.62-.287 1.267v1.877c0 .771-.123 1.319-.369 1.642-.246.324-.688.556-1.327.696.639.141 1.081.37 1.327.689.246.318.369.863.369 1.634v1.885c0 .642.095 1.061.287 1.26.19.198.565.297 1.122.297.033 0 .093-.003.18-.008.088-.005.156-.008.205-.008v1.635c-.076 0-.183.002-.32.007a8.326 8.326 0 01-1.672-.086 3.288 3.288 0 01-.933-.289 1.51 1.51 0 01-.664-.72c-.125-.297-.188-.816-.188-1.556v-1.97c0-.715-.14-1.221-.418-1.518-.279-.303-.748-.454-1.41-.454-.032 0-.087.003-.163.008a2.764 2.764 0 01-.172.008V49.6c.038 0 .095.003.172.008.076.005.13.008.164.008.655 0 1.122-.151 1.4-.454.285-.302.427-.813.427-1.533v-1.955c0-.746.063-1.27.188-1.572a1.51 1.51 0 01.664-.72c.257-.13.568-.227.934-.29a8.326 8.326 0 011.672-.085c.136.005.243.008.32.008m-4.302 20.053h4.137v1.666h-1.925v11.6h1.925V78h-4.137V63.07"/><path id="text5554" fill="#181717" fill-rule="nonzero" d="M506.93 43h.558c.6 0 1.084.031 1.45.094.366.063.672.162.918.297.311.167.53.407.655.72.132.308.197.824.197 1.55v1.971c0 .715.14 1.224.418 1.526.279.297.748.446 1.41.446.032 0 .087-.003.163-.008.077-.005.134-.008.172-.008v1.636h-.303c-.683 0-1.163.146-1.442.438-.279.292-.418.798-.418 1.518v1.972c0 .746-.065 1.27-.197 1.573a1.393 1.393 0 01-.655.704c-.257.13-.568.227-.934.29a8.322 8.322 0 01-1.672.085 8.903 8.903 0 00-.32-.007V56.16c.05 0 .118.003.206.008.087.005.147.008.18.008.552 0 .923-.102 1.114-.305.197-.199.295-.616.295-1.252v-1.87c0-.783.123-1.333.369-1.651.246-.324.688-.553 1.327-.689-.639-.14-1.081-.373-1.327-.696-.246-.324-.369-.872-.369-1.644v-1.893c0-.637-.098-1.054-.295-1.252-.191-.204-.562-.305-1.114-.305-.033 0-.093.002-.18.008a3.64 3.64 0 01-.205.007V43m4.375 20.063V78h-4.146v-1.667h1.934V64.73h-1.934v-1.666h4.146"/><path id="text5564" fill="#181717" fill-rule="nonzero" d="M549.198 42h1.611v16.137h-1.61V42m2.205 34l-3.88-13.403h1.057L552.475 76h-1.071"/><g id="g5770" fill="#181717" fill-rule="nonzero" font-family="OpenSans-Regular, Open Sans" font-size="13" font-weight="normal" transform="translate(2.97 83)"><g id="text5570" transform="translate(0 .166)"><text id="tspan5572"><tspan x=".102" y="14.34">Caps Lock</tspan></text></g></g><path id="text5641" fill="#181717" fill-rule="nonzero" d="M79.684 86.403l-1.582 5.108h3.17l-1.588-5.108M78.319 84h2.713l4.117 12h-2.466l-.775-2.468h-4.426L76.73 96h-2.473l4.062-12"/><path id="text5645" fill="#181717" fill-rule="nonzero" d="M115.842 92.17h2.224c.084.623.33 1.086.736 1.39.407.298.994.448 1.763.448.654 0 1.148-.121 1.48-.363.332-.242.498-.6.498-1.074 0-.69-.954-1.26-2.863-1.714a6.949 6.949 0 01-.298-.07c-1.021-.231-1.75-.491-2.187-.78a2.488 2.488 0 01-.885-1.034c-.203-.438-.305-.952-.305-1.544 0-1.107.362-1.954 1.086-2.541.724-.592 1.77-.888 3.14-.888 1.278 0 2.278.314 2.997.942.724.628 1.105 1.514 1.145 2.656h-2.164c-.04-.55-.243-.97-.61-1.258-.367-.289-.89-.433-1.57-.433-.59 0-1.046.121-1.368.363-.318.237-.476.577-.476 1.02 0 .602.622 1.052 1.867 1.35l.788.194c.798.211 1.364.376 1.696.494.337.119.63.25.878.394.446.257.78.6 1.004 1.027.223.422.334.93.334 1.521 0 1.184-.384 2.103-1.152 2.757-.769.649-1.853.973-3.25.973-1.38 0-2.46-.332-3.244-.996-.783-.664-1.205-1.609-1.264-2.834"/><path id="text5649" fill="#181717" fill-rule="nonzero" d="M157.8 93.833h1.926c1.115 0 1.921-.299 2.418-.896.502-.603.753-1.578.753-2.925 0-1.341-.232-2.327-.698-2.957-.465-.63-1.191-.945-2.18-.945h-2.22v7.723M155.447 96V84h4.574c1.791 0 3.125.497 4.003 1.49.882.995 1.324 2.502 1.324 4.522 0 1.097-.164 2.064-.492 2.9-.322.837-.793 1.51-1.411 2.02-.465.381-.994.655-1.585.824-.592.163-1.422.244-2.49.244h-3.923"/><path id="text5653" fill="#181717" fill-rule="nonzero" d="M196.04 96V84h7.92v2.086h-5.617v2.72h4.924v2.086h-4.924V96h-2.303"/><path id="text5657" fill="#181717" fill-rule="nonzero" d="M243.628 94.338c-.436.572-.934.992-1.493 1.26-.554.268-1.206.402-1.956.402-1.645 0-2.978-.552-4-1.655-1.017-1.108-1.526-2.561-1.526-4.36 0-1.815.509-3.266 1.526-4.354 1.016-1.087 2.371-1.631 4.064-1.631 1.474 0 2.677.343 3.609 1.028.931.68 1.485 1.619 1.66 2.815h-2.467c-.149-.593-.455-1.044-.918-1.353-.458-.31-1.057-.464-1.796-.464-.985 0-1.76.35-2.324 1.051-.559.696-.838 1.66-.838 2.892 0 1.237.292 2.206.878 2.907.585.701 1.39 1.052 2.411 1.052.767 0 1.408-.22 1.925-.657.516-.439.835-1.039.958-1.802h-2.667v-1.948h4.87v6.162h-1.62l-.296-1.345"/><path id="text5661" fill="#181717" fill-rule="nonzero" d="M275.248 96V84h2.479v4.473h4.942V84h2.48v12h-2.48v-5.32h-4.942V96h-2.48"/><path id="text5665" fill="#181717" fill-rule="nonzero" d="M316.832 91.324h2.155v1.41c0 .407.113.72.339.936.225.211.55.317.971.317.461 0 .782-.13.964-.389.181-.259.272-.745.272-1.458V84h2.23v8.251c0 .74-.042 1.284-.126 1.633-.078.343-.21.647-.397.911-.284.391-.674.69-1.17.896-.495.206-1.076.309-1.744.309-.613 0-1.155-.09-1.626-.27a2.949 2.949 0 01-1.177-.8 2.594 2.594 0 01-.537-.951c-.103-.354-.154-.935-.154-1.744v-.911"/><path id="text5669" fill="#181717" fill-rule="nonzero" d="M355.446 96V84h2.29v4.929L362.08 84h2.865l-4.444 4.855L365.347 96h-2.797l-3.628-5.49-1.186 1.27V96h-2.29"/><path id="text5673" fill="#181717" fill-rule="nonzero" d="M396.04 96V84h2.348v9.784h5.572V96h-7.92"/><path id="text5679" fill="#181717" fill-rule="nonzero" d="M96.04 136v-2.086l6.105-7.739h-5.983V124h8.788v2.086l-6.12 7.747h5.983V136H96.04"/><path id="text5683" fill="#181717" fill-rule="nonzero" d="M134.653 136l3.521-6.126-3.52-5.874h2.661l2.289 4.196 2.274-4.196h2.676l-3.52 5.857 3.52 6.143h-2.661l-2.289-4.155-2.289 4.155h-2.662"/><path id="text5687" fill="#181717" fill-rule="nonzero" d="M185.149 131.77c-.092 1.294-.616 2.323-1.573 3.086-.95.763-2.193 1.144-3.727 1.144-1.767 0-3.142-.526-4.125-1.577-.978-1.052-1.467-2.526-1.467-4.423 0-1.938.5-3.423 1.5-4.454.999-1.03 2.436-1.546 4.31-1.546 1.524 0 2.726.356 3.607 1.067.886.706 1.372 1.706 1.458 3h-2.423c-.102-.644-.378-1.134-.826-1.47-.449-.34-1.054-.51-1.815-.51-1.08 0-1.902.333-2.464.998s-.843 1.637-.843 2.915c0 1.237.279 2.193.835 2.869.562.675 1.359 1.012 2.39 1.012.746 0 1.357-.18 1.832-.54.475-.367.783-.89.924-1.57h2.407"/><path id="text5691" fill="#181717" fill-rule="nonzero" d="M218.72 136l-3.869-12h2.56l2.383 8.978 2.43-8.978h2.528l-3.823 12h-2.209"/><path id="text5695" fill="#181717" fill-rule="nonzero" d="M257.822 133.833h2.943c.694 0 1.2-.125 1.516-.375.317-.25.476-.643.476-1.181 0-.56-.156-.961-.468-1.206-.311-.25-.825-.374-1.54-.374h-2.927v3.136m0-5.19h2.836c.612 0 1.06-.103 1.344-.309.285-.212.427-.543.427-.994 0-.44-.14-.758-.418-.953-.274-.201-.73-.301-1.37-.301h-2.819v2.558M255.446 136v-12h5.688c1.235 0 2.174.26 2.82.782.65.516.975 1.268.975 2.257 0 .608-.12 1.116-.361 1.523-.24.407-.601.722-1.082.945.623.25 1.087.611 1.393 1.084.312.467.468 1.05.468 1.751 0 1.168-.383 2.07-1.148 2.705-.765.635-1.85.953-3.254.953h-5.5"/><path id="text5699" fill="#181717" fill-rule="nonzero" d="M295.05 136v-12h2.585l4.877 8.244V124h2.438v12h-2.552l-4.91-8.244V136h-2.438"/><path id="text5703" fill="#181717" fill-rule="nonzero" d="M333.663 136v-12h3.597l2.352 9.132 2.32-9.132h3.613v12h-2.28v-9.678l-2.4 9.678h-2.49l-2.432-9.678V136h-2.28"/><path id="text5725" fill="#181717" fill-rule="nonzero" d="M438.614 89.363V87h1.98v2.363h-1.98m0 5.974v-2.348h1.98v2.348h-1.98m.013 13.99v-2.362h1.967v2.363h-1.967m0 8.672v-.912c.366-.125.636-.318.81-.578.175-.26.262-.597.262-1.013v-.195h-1.085v-2.348h1.98v2.254c0 .78-.166 1.404-.497 1.872-.33.473-.82.78-1.47.92"/><path id="text5731" fill="#181717" fill-rule="nonzero" d="M480.71 85h1.468v4.301h-1.468V85m-2.492 0h1.468v4.301h-1.468V85m1.254 19.699h1.468V109h-1.468v-4.301"/><path id="text5737" fill="#181717" fill-rule="nonzero" d="M514.851 93.804V86h5.524v1.356h-3.979v1.664h3.638v1.335h-3.638v2.008h4.165v1.441h-5.71m6.775 0v-5.759h1.472v.683c.21-.279.458-.487.744-.625.286-.141.605-.212.956-.212.62 0 1.084.166 1.39.498.31.329.465.825.465 1.49v3.925h-1.503v-3.48c0-.414-.07-.709-.207-.886-.134-.176-.355-.264-.662-.264-.354 0-.635.109-.842.328-.206.215-.31.51-.31.885v3.417h-1.503m8.82.042l-.496.016c-.19.01-.31.016-.362.016-.575 0-.97-.11-1.183-.328-.21-.223-.315-.66-.315-1.309v-3.115h-.744v-1.081h.744v-1.573h1.488v1.573h.868v1.08h-.868v3.19c0 .152.032.253.098.302.065.046.2.07.403.07h.367v1.16m4.335-1.791h1.499c-.152.607-.459 1.084-.92 1.43-.458.343-1.018.514-1.68.514-.813 0-1.457-.279-1.932-.837-.475-.562-.713-1.321-.713-2.278 0-.943.234-1.687.703-2.23.468-.545 1.109-.817 1.922-.817.861 0 1.526.269 1.994.806.469.533.703 1.294.703 2.283a4.44 4.44 0 01-.015.403h-3.752c.02.452.128.793.32 1.022.197.23.478.345.843.345.258 0 .47-.052.635-.154.166-.106.297-.268.393-.487m-2.19-1.738h2.21c-.013-.389-.115-.684-.304-.885-.186-.205-.455-.307-.806-.307-.327 0-.586.102-.775.307-.186.205-.295.5-.326.885m4.764 3.486v-5.759h1.395v.985c.197-.395.426-.685.688-.868.261-.188.573-.281.935-.281.058 0 .103.002.134.005.035 0 .062.002.083.005l.005 1.563h-.501c-.41 0-.718.11-.925.329-.207.219-.31.544-.31.975v3.046h-1.504"/><path id="path5745" fill="#181717" d="M524.752 115v-10l-9.9 5z"/><path id="path5747" stroke="#181717" stroke-width="3" d="M539.604 100v10h-19.802"/><g id="g5790" transform="translate(6.901 120)"><text id="tspan5755" fill="#181717" fill-rule="nonzero" font-family="OpenSans-Regular, Open Sans" font-size="16" font-weight="normal"><tspan x=".208" y="17.237">Shift</tspan></text><path id="path5757" stroke="#181717" stroke-width="2" d="M8.16 19.535l-7.494 10h4.996v5h4.996v-5h4.996z"/></g><g id="g5795" transform="translate(495.05 127)"><g id="text5797" fill="#181717" fill-rule="nonzero" font-family="OpenSans-Regular, Open Sans" font-size="16" font-weight="normal" transform="translate(30.402)"><text id="tspan5799"><tspan x=".537" y="17.955">Shift</tspan></text></g><path id="path5801" stroke="#181717" stroke-width="2" d="M7.55 10.628L0 20.58h5.033v4.976h5.034V20.58H15.1z"/></g><path id="text5803" fill="#181717" fill-rule="nonzero" d="M384.158 126v1.71l-6.755 2.848 6.755 2.841v1.71l-8.91-3.786v-1.553l8.91-3.77m-5.605 32v-.913c.424-.125.736-.318.938-.578.202-.26.303-.598.303-1.014v-.195h-1.24v-2.35h2.291v2.256c0 .775-.194 1.4-.582 1.873-.384.474-.953.78-1.71.921"/><path id="text5813" fill="#181717" fill-rule="nonzero" d="M415.842 127l8.91 3.731v1.538l-8.91 3.746v-1.692l6.77-2.812-6.77-2.82V127m3.305 29v-2.325h2.277V156h-2.277"/><path id="text5819" fill="#181717" fill-rule="nonzero" d="M459.343 132.387c0-.056-.002-.131-.008-.224a4.45 4.45 0 01-.008-.217c0-.454.05-.831.151-1.13.101-.305.263-.59.485-.853.17-.196.421-.42.755-.673.339-.253.559-.437.66-.55.211-.233.357-.442.436-.628.08-.185.12-.39.12-.611 0-.49-.141-.873-.422-1.147-.28-.273-.672-.41-1.176-.41-.503 0-.9.165-1.191.496-.286.325-.442.784-.469 1.378h-2.24v-.24c0-1.09.352-1.957 1.056-2.602.71-.65 1.663-.976 2.86-.976 1.224 0 2.196.307 2.916.922.726.609 1.088 1.427 1.088 2.455 0 .361-.042.686-.127.976-.08.283-.204.544-.373.782-.217.3-.554.624-1.009.976-.45.345-.723.56-.818.642a1.828 1.828 0 00-.437.604 2.04 2.04 0 00-.12.891 1.8 1.8 0 01.008.14h-2.137m-.11 3.314v-2.269h2.343v2.27h-2.344M457.897 157l3.941-13.174h1.088L458.97 157h-1.073"/><path id="text5827" fill="#181717" fill-rule="nonzero" d="M11.801 181.18c-.057.863-.387 1.549-.988 2.057-.599.509-1.38.763-2.345.763-1.112 0-1.976-.35-2.595-1.052-.615-.7-.923-1.683-.923-2.948 0-1.292.315-2.282.944-2.97.628-.686 1.532-1.03 2.711-1.03.959 0 1.715.237 2.269.711.557.471.863 1.138.917 2h-1.524c-.064-.43-.238-.756-.52-.979-.282-.227-.663-.34-1.142-.34-.68 0-1.196.221-1.55.665-.353.443-.53 1.09-.53 1.943 0 .825.176 1.462.526 1.912.353.45.854.676 1.503.676.47 0 .853-.12 1.152-.361.3-.244.493-.593.581-1.047h1.514m3.569 2.65c-.136.003-.3.008-.49.015-.187.01-.306.016-.357.016-.567 0-.956-.107-1.167-.32-.207-.216-.31-.64-.31-1.273v-3.03h-.735v-1.052h.734v-1.531h1.468v1.53h.857v1.052h-.857v3.103c0 .148.033.246.097.294.065.045.197.067.398.067h.362v1.129m.861-.041v-5.603h1.376v.958c.194-.385.42-.666.678-.845a1.56 1.56 0 01.923-.273c.058 0 .102.001.133.005.033 0 .06.002.081.005l.005 1.52h-.494c-.405 0-.709.107-.913.32-.204.213-.306.53-.306.949v2.964h-1.483m4.068 0v-7.593h1.483v7.593H20.3"/><path id="text5831" fill="#181717" fill-rule="nonzero" d="M108.714 177.587l-1.097 3.373h2.2l-1.103-3.373m-.946-1.587h1.882l2.855 7.925h-1.71l-.538-1.63h-3.07l-.521 1.63h-1.716l2.818-7.925m5.468 7.925V176h1.565v7.925h-1.565m5.576.043a49.21 49.21 0 00-.516.016c-.197.01-.323.016-.377.016-.598 0-1.009-.111-1.231-.334-.219-.226-.328-.668-.328-1.328v-3.164h-.774v-1.097h.774v-1.598h1.549v1.598h.903v1.097h-.903v3.239c0 .154.034.256.102.307.068.046.208.07.42.07h.38v1.178"/><path id="text5835" fill="#181717" fill-rule="nonzero" d="M408.714 177.587l-1.097 3.373h2.2l-1.103-3.373m-.946-1.587h1.882l2.855 7.925h-1.71l-.538-1.63h-3.07l-.521 1.63h-1.716l2.818-7.925m5.468 7.925V176h1.565v7.925h-1.565m5.576.043a49.21 49.21 0 00-.516.016c-.197.01-.323.016-.377.016-.598 0-1.009-.111-1.231-.334-.219-.226-.328-.668-.328-1.328v-3.164h-.774v-1.097h.774v-1.598h1.549v1.598h.903v1.097h-.903v3.239c0 .154.034.256.102.307.068.046.208.07.42.07h.38v1.178"/><path id="text5839" fill="#181717" fill-rule="nonzero" d="M552.395 181.18c-.057.863-.387 1.549-.988 2.057-.599.509-1.38.763-2.345.763-1.111 0-1.976-.35-2.595-1.052-.615-.7-.922-1.683-.922-2.948 0-1.292.314-2.282.943-2.97.628-.686 1.532-1.03 2.711-1.03.959 0 1.715.237 2.269.711.557.471.863 1.138.917 2h-1.524c-.064-.43-.238-.756-.52-.979-.282-.227-.662-.34-1.142-.34-.68 0-1.196.221-1.55.665-.353.443-.53 1.09-.53 1.943 0 .825.176 1.462.526 1.912.353.45.854.676 1.503.676.47 0 .853-.12 1.152-.361.3-.244.493-.593.582-1.047h1.513m3.569 2.65c-.136.003-.3.008-.49.015-.187.01-.306.016-.356.016-.568 0-.957-.107-1.168-.32-.207-.216-.31-.64-.31-1.273v-3.03h-.735v-1.052h.734v-1.531h1.468v1.53h.857v1.052h-.857v3.103c0 .148.033.246.097.294.065.045.197.067.398.067h.362v1.129m.861-.041v-5.603h1.376v.958c.194-.385.42-.666.678-.845a1.56 1.56 0 01.923-.273c.058 0 .102.001.133.005.034 0 .06.002.081.005l.005 1.52h-.494c-.405 0-.709.107-.913.32-.204.213-.306.53-.306.949v2.964h-1.483m4.068 0v-7.593h1.483v7.593h-1.483"/><path id="text5872" fill="#181717" fill-rule="nonzero" d="M72.458 176.567L70.297 169h1.608l1.29 5.338 1.09-5.338h1.655l1.09 5.338L78.32 169h1.593l-2.156 7.567h-1.48l-1.167-5.795-1.172 5.795h-1.48m8.228-6.206V169h1.49v1.361h-1.49m0 6.206v-5.584h1.49v5.584h-1.49m2.816 0v-5.584h1.46v.663c.208-.27.453-.473.737-.606.283-.137.599-.206.947-.206.614 0 1.074.161 1.377.483.308.318.461.8.461 1.444v3.806h-1.49v-3.375c0-.4-.068-.687-.205-.858-.133-.171-.351-.257-.655-.257-.352 0-.63.106-.835.319-.204.209-.307.495-.307.858v3.313h-1.49m-12.55 13.152v-7.567h1.552v3.108l2.944-3.108h1.94l-3.01 3.062 3.282 4.505h-1.895l-2.457-3.463-.804.802v2.661h-1.552m10.676-1.695h1.485c-.15.589-.454 1.051-.911 1.387-.454.332-1.009.498-1.664.498-.806 0-1.444-.27-1.915-.812-.471-.544-.707-1.28-.707-2.209 0-.914.232-1.635.696-2.163.465-.527 1.1-.79 1.905-.79.853 0 1.512.26 1.977.78.464.517.696 1.255.696 2.214a4.215 4.215 0 01-.015.39h-3.718c.02.44.126.77.318.992.194.223.472.334.834.334.256 0 .466-.05.63-.149.164-.102.294-.26.39-.472m-2.172-1.685h2.192c-.014-.377-.115-.663-.302-.858-.185-.199-.451-.298-.8-.298-.323 0-.58.099-.767.298-.185.198-.292.484-.323.858m4.941 5.62v-1.207a1.976 1.976 0 00.348.02c.294 0 .514-.07.661-.21.147-.137.22-.345.22-.622a.799.799 0 00-.03-.154l-2.008-5.651h1.639l1.172 4.027 1.142-4.027h1.567l-2.289 6.586c-.17.493-.384.829-.64 1.007-.256.181-.64.272-1.152.272-.092 0-.191-.003-.297-.01a6.338 6.338 0 01-.333-.031"/><path id="text5878" fill="#181717" fill-rule="nonzero" d="M472.458 176.567L470.297 169h1.608l1.29 5.338 1.09-5.338h1.655l1.09 5.338 1.29-5.338h1.593l-2.156 7.567h-1.48l-1.167-5.795-1.172 5.795h-1.48m8.228-6.206V169h1.49v1.361h-1.49m0 6.206v-5.584h1.49v5.584h-1.49m2.816 0v-5.584h1.46v.663c.208-.27.453-.473.737-.606.283-.137.599-.206.947-.206.614 0 1.074.161 1.377.483.308.318.461.8.461 1.444v3.806h-1.49v-3.375c0-.4-.068-.687-.205-.858-.133-.171-.351-.257-.655-.257-.352 0-.63.106-.835.319-.204.209-.307.495-.307.858v3.313h-1.49m-12.55 13.152v-7.567h1.552v3.108l2.944-3.108h1.94l-3.01 3.062 3.282 4.505h-1.895l-2.457-3.463-.804.802v2.661h-1.552m10.676-1.695h1.485c-.15.589-.454 1.051-.911 1.387-.454.332-1.009.498-1.664.498-.806 0-1.444-.27-1.915-.812-.471-.544-.707-1.28-.707-2.209 0-.914.232-1.635.696-2.163.465-.527 1.1-.79 1.905-.79.853 0 1.512.26 1.977.78.464.517.696 1.255.696 2.214a4.215 4.215 0 01-.015.39h-3.718c.02.44.126.77.318.992.194.223.472.334.834.334.256 0 .466-.05.63-.149.164-.102.294-.26.39-.472m-2.172-1.685h2.192c-.014-.377-.115-.663-.302-.858-.185-.199-.451-.298-.8-.298-.323 0-.58.099-.767.298-.185.198-.292.484-.323.858m4.941 5.62v-1.207a1.976 1.976 0 00.348.02c.294 0 .514-.07.661-.21.147-.137.22-.345.22-.622a.8.8 0 00-.03-.154l-2.008-5.651h1.639l1.172 4.027 1.142-4.027h1.567l-2.289 6.586c-.17.493-.384.829-.64 1.007-.256.181-.64.272-1.152.272-.092 0-.191-.003-.297-.01a6.338 6.338 0 01-.333-.031"/><path id="text5884" fill="#181717" fill-rule="nonzero" d="M506.93 183.804V176h2.338l1.529 5.94 1.507-5.94h2.348v7.804h-1.482v-6.294l-1.56 6.294h-1.617l-1.58-6.294v6.294h-1.482m12.693-1.748h1.513c-.153.607-.463 1.084-.929 1.43-.462.343-1.027.514-1.695.514-.821 0-1.471-.279-1.951-.837-.48-.562-.72-1.321-.72-2.278 0-.943.236-1.687.71-2.23.472-.545 1.12-.817 1.94-.817.87 0 1.54.269 2.014.806.473.533.71 1.294.71 2.283a4.4 4.4 0 01-.016.403h-3.788c.02.452.129.793.323 1.022.199.23.482.345.85.345.262 0 .476-.052.643-.154.166-.106.299-.268.396-.487m-2.212-1.738h2.233c-.014-.389-.117-.684-.308-.885-.188-.205-.459-.307-.814-.307-.33 0-.591.102-.782.307-.188.205-.298.5-.33.885m4.811 3.486v-5.759h1.487v.683a2.05 2.05 0 01.751-.625c.289-.141.61-.212.965-.212.627 0 1.094.166 1.404.498.313.329.47.825.47 1.49v3.925h-1.519v-3.48c0-.414-.07-.709-.208-.886-.136-.176-.359-.264-.668-.264-.358 0-.642.109-.85.328-.21.215-.314.51-.314.885v3.417h-1.518m11.441-5.759v5.759h-1.487v-.683c-.215.279-.467.489-.756.63a2.191 2.191 0 01-.965.207c-.623 0-1.09-.166-1.404-.498-.31-.332-.464-.829-.464-1.49v-3.925h1.518v3.48c0 .41.068.704.204.88.135.173.36.26.673.26.355 0 .636-.108.845-.323.212-.22.318-.516.318-.89v-3.407h1.518"/><circle id="Oval" cx="109.168" cy="139" r="26" stroke="#C06334" stroke-width="5"/></g></g></svg>