<svg xmlns="http://www.w3.org/2000/svg" width="166" height="173" viewBox="0 0 166 173"><defs><style>@import url(https://fonts.googleapis.com/css?family=Open+Sans:bold,italic,bolditalic%7CPT+Mono);@font-face{font-family:&apos;PT Mono&apos;;font-weight:700;font-style:normal;src:local(&apos;PT MonoBold&apos;),url(/font/PTMonoBold.woff2) format(&apos;woff2&apos;),url(/font/PTMonoBold.woff) format(&apos;woff&apos;),url(/font/PTMonoBold.ttf) format(&apos;truetype&apos;)}</style></defs><g id="animation" fill="none" fill-rule="evenodd" stroke="none" stroke-width="1"><g id="bezier-letter.svg"><g id="blue-zones" transform="translate(13 3)"><g id="g10" transform="matrix(1 0 0 -1 .167 164.907)"><g id="g12" transform="translate(.083 .015)"><g id="g14"><g id="g24" transform="translate(0 .778)"><path id="path30" fill="#B3B3B3" d="M94.195 31.581c1.276-13.808 9.886-28.307 24.875-28.307 6.697 0 26.15 4.833 26.15 32.795v19.332h-7.973V36.07c0-20.022-7.973-22.094-11.48-22.094-10.524 0-11.8 15.535-11.8 17.261v69.043c0 14.5 0 27.963-11.48 40.736-12.438 13.463-28.383 18.987-43.69 18.987-26.15 0-48.155-16.225-48.155-39.01 0-10.356 6.378-16.225 14.67-16.225 8.93 0 14.67 6.904 14.67 15.88 0 4.143-1.595 15.535-16.265 15.88 8.61 12.083 24.237 15.88 34.442 15.88 15.626 0 33.804-13.463 33.804-44.188V95.446c-16.264-1.035-38.588-2.071-58.679-12.427C9.367 71.28 1.394 53.329 1.394 38.14c0-27.962 30.934-36.592 51.025-36.592 21.047 0 35.717 13.808 41.776 30.033z"/><path id="path32" fill="#FFF" d="M91.963 88.197V53.675c0-32.795-22.961-44.533-37.312-44.533-15.626 0-28.701 12.083-28.701 29.344 0 18.987 13.394 47.64 66.013 49.71z"/><path id="path34" fill="#000" d="M93.07 30.363h2.25V32.8h-2.25z"/><path id="path36" fill="#000" d="M117.945 2.056h2.25V4.49h-2.25z"/><path id="path38" fill="#000" d="M144.095 34.851h2.25v2.436h-2.25z"/><path id="path40" fill="#000" d="M144.095 54.183h2.25v2.436h-2.25z"/><path id="path42" fill="#000" d="M136.122 54.183h2.25v2.436h-2.25z"/><path id="path44" fill="#000" d="M136.122 34.851h2.25v2.436h-2.25z"/><path id="path46" fill="#000" d="M124.641 12.757h2.25v2.436h-2.25v-2.436z"/><path id="path48" fill="#000" d="M112.842 30.018h2.25v2.436h-2.25z"/><path id="path50" fill="#000" d="M112.842 99.061h2.25v2.436h-2.25z"/><path id="path52" fill="#000" d="M101.362 139.797h2.25v2.436h-2.25z"/><path id="path54" fill="#000" d="M57.672 158.784h2.25v2.436h-2.25z"/><path id="path56" fill="#000" d="M9.517 119.774h2.25v2.436h-2.25z"/><path id="path58" fill="#000" d="M24.187 103.55h2.25v2.435h-2.25z"/><path id="path60" fill="#000" d="M38.856 119.43h2.25v2.435h-2.25z"/><path id="path62" fill="#000" d="M22.592 135.31h2.25v2.435h-2.25z"/><path id="path64" fill="#000" d="M57.034 151.19h2.25v2.435h-2.25z"/><path id="path66" fill="#000" d="M90.838 107.001h2.25v2.436h-2.25z"/><path id="path68" fill="#000" d="M90.838 94.228h2.25v2.436h-2.25z"/><path id="path70" fill="#000" d="M32.16 81.8h2.25v2.436h-2.25v-2.435z"/><path id="path72" fill="#000" d="M.269 36.923h2.25v2.435H.269z"/><path id="path74" fill="#000" d="M51.294.33h2.25v2.435h-2.25z"/><path id="path76" fill="#000" d="M93.07 30.363h2.25V32.8h-2.25z"/><path id="path78" fill="#000" d="M90.838 86.979h2.25v2.436h-2.25z"/><path id="path80" fill="#000" d="M90.838 52.457h2.25v2.436h-2.25v-2.436z"/><path id="path82" fill="#000" d="M53.526 7.924h2.25v2.436h-2.25z"/><path id="path84" fill="#000" d="M24.825 37.268h2.25v2.435h-2.25z"/><path id="path86" fill="#000" d="M90.838 86.979h2.25v2.436h-2.25z"/></g></g></g></g></g></g></g></svg>