<svg xmlns="http://www.w3.org/2000/svg" width="110" height="170" viewBox="0 0 110 170"><defs><style>@import url(https://fonts.googleapis.com/css?family=Open+Sans:bold,italic,bolditalic%7CPT+Mono);@font-face{font-family:&apos;PT Mono&apos;;font-weight:700;font-style:normal;src:local(&apos;PT MonoBold&apos;),url(/font/PTMonoBold.woff2) format(&apos;woff2&apos;),url(/font/PTMonoBold.woff) format(&apos;woff&apos;),url(/font/PTMonoBold.ttf) format(&apos;truetype&apos;)}</style></defs><g id="animation" fill="none" fill-rule="evenodd" stroke="none" stroke-width="1"><g id="figure4-15" transform="translate(5 1)"><path id="Shape" stroke="#AF6E24" stroke-width="2" d="M32.01 161.209c-19.503-39.602-19.503-79.204 0-118.806 6.5-13.2 6.5-26.401 0-39.602h39.005c-6.5 13.2-6.5 26.401 0 39.602 19.502 39.602 19.502 79.204 0 118.806H32.01z"/><path id="Shape" stroke="#181717" stroke-dasharray="2" stroke-width=".5" d="M32.01 2.801l9.751 19.801-39.005 79.204 29.254 59.403M71.015 2.801l-9.751 19.801 39.005 79.204-29.254 59.403"/><g id="dot-link" fill="#FFF" stroke="#181717" transform="translate(49.562 .82)"><ellipse id="dot" cx="1.95" cy="1.98" rx="1.95" ry="1.98"/></g><g id="dot-link" fill="#FFF" stroke="#181717" transform="translate(30.06 .82)"><ellipse id="dot" cx="1.95" cy="1.98" rx="1.95" ry="1.98"/></g><g id="dot-link" fill="#FFF" stroke="#181717" transform="translate(39.81 20.622)"><ellipse id="dot" cx="1.95" cy="1.98" rx="1.95" ry="1.98"/></g><g id="dot-link" fill="#FFF" stroke="#181717" transform="translate(30.06 40.423)"><ellipse id="dot" cx="1.95" cy="1.98" rx="1.95" ry="1.98"/></g><g id="dot-link" fill="#FFF" stroke="#181717" transform="translate(.806 99.826)"><ellipse id="dot" cx="1.95" cy="1.98" rx="1.95" ry="1.98"/></g><g id="dot-link" fill="#FFF" stroke="#181717" transform="translate(30.06 159.229)"><ellipse id="dot" cx="1.95" cy="1.98" rx="1.95" ry="1.98"/></g><g id="dot-link" fill="#FFF" stroke="#181717" transform="translate(69.065 .82)"><ellipse id="dot" cx="1.95" cy="1.98" rx="1.95" ry="1.98"/></g><g id="dot-link" fill="#FFF" stroke="#181717" transform="translate(59.313 20.622)"><ellipse id="dot" cx="1.95" cy="1.98" rx="1.95" ry="1.98"/></g><g id="dot-link" fill="#FFF" stroke="#181717" transform="translate(69.065 40.423)"><ellipse id="dot" cx="1.95" cy="1.98" rx="1.95" ry="1.98"/></g><g id="dot-link" fill="#FFF" stroke="#181717" transform="translate(98.318 99.826)"><ellipse id="dot" cx="1.95" cy="1.98" rx="1.95" ry="1.98"/></g><g id="dot-link" fill="#FFF" stroke="#181717" transform="translate(69.065 159.229)"><ellipse id="dot" cx="1.95" cy="1.98" rx="1.95" ry="1.98"/></g></g></g></svg>