<svg xmlns="http://www.w3.org/2000/svg" width="260" height="130" viewBox="0 0 260 130"><defs><style>@import url(https://fonts.googleapis.com/css?family=Open+Sans:bold,italic,bolditalic%7CPT+Mono);@font-face{font-family:&apos;PT Mono&apos;;font-weight:700;font-style:normal;src:local(&apos;PT MonoBold&apos;),url(/font/PTMonoBold.woff2) format(&apos;woff2&apos;),url(/font/PTMonoBold.woff) format(&apos;woff&apos;),url(/font/PTMonoBold.ttf) format(&apos;truetype&apos;)}</style></defs><g id="animation" fill="none" fill-rule="evenodd" stroke="none" stroke-width="1"><g id="bezier-car.svg" stroke="#000"><g id="car" transform="translate(20 12)"><path id="Shape" fill="silver" stroke-width="2" d="M3.548 89.742C-8.28 60.978 15.376 43.72 74.516 37.968c5.914-11.506 8.871-23.011 8.871-34.516C183.925-8.054 228.28 20.71 216.452 89.742H3.548z"/><g id="crvpnt-link" fill="#D3D3D3" transform="translate(0 86.29)"><ellipse id="crvpnt" cx="3.548" cy="3.452" rx="3.548" ry="3.452"/></g><g id="crvpnt-link" fill="#D3D3D3" transform="translate(70.968 34.516)"><ellipse id="crvpnt" cx="3.548" cy="3.452" rx="3.548" ry="3.452"/></g><g id="crvpnt-link" fill="#D3D3D3" transform="translate(79.839)"><ellipse id="crvpnt" cx="3.548" cy="3.452" rx="3.548" ry="3.452"/></g><g id="crvpnt-link" fill="#D3D3D3" transform="translate(212.903 86.29)"><ellipse id="crvpnt" cx="3.548" cy="3.452" rx="3.548" ry="3.452"/></g><g id="wheel-link" fill="#D3D3D3" stroke-width="5" transform="translate(39.032 72.484)"><ellipse id="wheel" cx="17.742" cy="17.258" rx="17.742" ry="17.258"/></g><g id="wheel-link" fill="#D3D3D3" stroke-width="5" transform="translate(154.355 72.484)"><ellipse id="wheel" cx="17.742" cy="17.258" rx="17.742" ry="17.258"/></g></g></g></g></svg>