<svg xmlns="http://www.w3.org/2000/svg" width="550" height="150" viewBox="0 0 550 150"><defs><style>@import url(https://fonts.googleapis.com/css?family=Open+Sans:bold,italic,bolditalic%7CPT+Mono);@font-face{font-family:&apos;PT Mono&apos;;font-weight:700;font-style:normal;src:local(&apos;PT MonoBold&apos;),url(/font/PTMonoBold.woff2) format(&apos;woff2&apos;),url(/font/PTMonoBold.woff) format(&apos;woff&apos;),url(/font/PTMonoBold.ttf) format(&apos;truetype&apos;)}</style></defs><g id="closure" fill="none" fill-rule="evenodd" stroke="none" stroke-width="1"><g id="closure-variable-phrase.svg"><g id="Group-3" transform="translate(235 114)"><path id="Rectangle-1" fill="#FBF2EC" stroke="#DBAF88" stroke-width="2" d="M1 1h204v28H1z"/><text id="phrase:-&quot;Bye&quot;" fill="#AF6E24" font-family="PTMono-Regular, PT Mono" font-size="14" font-weight="normal"><tspan x="8.598" y="18.51">phrase: &quot;Bye&quot;</tspan></text></g><g id="Group-3-Copy" transform="translate(235 79)"><path id="Rectangle-1" fill="#FBF2EC" stroke="#DBAF88" stroke-width="2" d="M1 1h204v28H1z"/><text id="phrase:-&quot;Hello&quot;" fill="#AF6E24" font-family="PTMono-Regular, PT Mono" font-size="14" font-weight="normal"><tspan x="8.598" y="18.51">phrase: &quot;Hello&quot;</tspan></text></g><g id="Group-3-Copy-3" transform="translate(235 44)"><path id="Rectangle-1" fill="#FBF2EC" stroke="#DBAF88" stroke-width="2" d="M1 1h204v28H1z"/><text id="phrase:-undefined" fill="#AF6E24" font-family="PTMono-Regular, PT Mono" font-size="14" font-weight="normal"><tspan x="7" y="19.51">phrase: undefined</tspan></text></g><g id="Group-3-Copy-2" fill="#FBF2EC" stroke="#DBAF88" stroke-width="2" transform="translate(235 9)"><path id="Rectangle-1" d="M1 1h204v28H1z"/></g><text id="phrase:-&lt;uninitializ" fill="#AF6E24" font-family="PTMono-Regular, PT Mono" font-size="14" font-weight="normal"><tspan x="242" y="28">phrase: &lt;uninitialized&gt;</tspan></text><g id="Group" transform="translate(450 3)"><path id="Line" fill="#C06334" fill-rule="nonzero" d="M27.5 13.5l14 7-14 7v-6h-28v-2h28v-6z"/><text id="outer" fill="#AF6E24" font-family="PTMono-Regular, PT Mono" font-size="12" font-weight="normal"><tspan x="0" y="11">outer</tspan></text></g><text id="null" fill="#AF6E24" font-family="PTMono-Regular, PT Mono" font-size="14" font-weight="normal"><tspan x="497" y="27">null</tspan></text><g id="let-phrase;" fill-rule="nonzero" transform="translate(19 53)"><path id="let" fill="#1C85B5" d="M1.372 0h2.324v7.448c0 .57.096.97.287 1.204.191.233.474.35.847.35.261 0 .511-.047.749-.14.238-.093.502-.252.791-.476l.504.77c-.15.13-.313.247-.49.35a3.638 3.638 0 01-1.106.42 2.963 2.963 0 01-1.442-.077 1.579 1.579 0 01-.679-.427 1.897 1.897 0 01-.413-.777c-.093-.322-.14-.721-.14-1.197V.938H1.372V0zm14.14 8.918c-.168.15-.366.29-.595.42a4.39 4.39 0 01-.749.336c-.27.093-.553.166-.847.217-.294.051-.59.077-.889.077-.56 0-1.055-.086-1.484-.259a2.858 2.858 0 01-1.078-.742 3.234 3.234 0 01-.658-1.155A4.767 4.767 0 018.988 6.3c0-.588.082-1.11.245-1.568.163-.457.399-.84.707-1.148a3.08 3.08 0 011.12-.707 4.187 4.187 0 011.47-.245c.392 0 .78.051 1.162.154.383.103.721.296 1.015.581.294.285.52.677.679 1.176.159.5.215 1.146.168 1.939h-5.418c0 .84.226 1.468.679 1.883.453.415 1.057.623 1.813.623.252 0 .502-.03.749-.091.247-.06.483-.133.707-.217a3.72 3.72 0 00.595-.28c.173-.103.306-.196.399-.28l.434.798zm-2.954-5.362c-.308 0-.6.033-.875.098a1.995 1.995 0 00-.728.329c-.21.154-.383.355-.518.602s-.222.553-.259.917h4.354c-.047-.616-.245-1.094-.595-1.435-.35-.34-.81-.511-1.379-.511zM16.94 2.8h1.666V1.414l1.092-.308V2.8h3.738v.938h-3.738v3.304c0 .681.166 1.185.497 1.512.331.327.805.49 1.421.49.42 0 .786-.08 1.099-.238.313-.159.595-.331.847-.518l.364.826a3.938 3.938 0 01-1.169.63 4.182 4.182 0 01-1.393.238 3.41 3.41 0 01-1.057-.161 2.426 2.426 0 01-.875-.497 2.38 2.38 0 01-.602-.861c-.15-.35-.224-.768-.224-1.253V3.738H16.94V2.8z"/><path id="phrase" fill="#181717" d="M34.65 5.25a14.05 14.05 0 00-.063-1.176 4.657 4.657 0 00-.049-.364H33.6V2.8h1.862l.14.98h.07c.252-.327.572-.6.959-.819.387-.22.861-.329 1.421-.329.999 0 1.75.275 2.254.826.504.55.756 1.451.756 2.702 0 .588-.086 1.118-.259 1.589a3.34 3.34 0 01-.735 1.197 3.24 3.24 0 01-1.148.756 3.999 3.999 0 01-1.484.266c-.196 0-.371-.007-.525-.021a4.613 4.613 0 01-.42-.056 3.31 3.31 0 01-.371-.091 5.103 5.103 0 01-.392-.14v2.94H34.65V5.25zm3.22-1.596c-.28 0-.544.051-.791.154a2.36 2.36 0 00-1.127.966c-.121.205-.196.41-.224.616v3.192c.205.14.436.25.693.329.257.08.595.119 1.015.119.747 0 1.344-.245 1.792-.735.448-.49.672-1.206.672-2.149 0-.793-.156-1.407-.469-1.841-.313-.434-.833-.651-1.561-.651zM41.762 0h2.184v3.668h.07c.29-.327.625-.581 1.008-.763.383-.182.859-.273 1.428-.273.448 0 .838.047 1.169.14.331.093.602.257.812.49.21.233.366.553.469.959.103.406.154.922.154 1.547V9.8h-1.092V5.978c0-.401-.023-.751-.07-1.05a1.829 1.829 0 00-.273-.749c-.135-.2-.32-.352-.553-.455-.233-.103-.532-.154-.896-.154-.252 0-.5.044-.742.133-.243.089-.464.21-.665.364-.2.154-.373.34-.518.56-.145.22-.245.46-.301.721V9.8h-1.078V.938h-1.106V0zm9.268 9.8v-.938h1.89V3.738h-1.89V2.8h2.618l.224.91h.07c.317-.29.672-.537 1.064-.742.392-.205.859-.308 1.4-.308.317 0 .572.06.763.182.191.121.34.299.448.532.107.233.18.516.217.847.037.331.056.707.056 1.127l-.98.014c0-.597-.058-1.036-.175-1.316-.117-.28-.329-.42-.637-.42-.29 0-.55.042-.784.126a2.565 2.565 0 00-.609.308c-.173.121-.32.243-.441.364s-.21.224-.266.308v4.13h2.688V9.8H51.03zm8.988-6.454a4.447 4.447 0 011.358-.504 7.423 7.423 0 011.484-.154c.476 0 .866.075 1.169.224.303.15.541.343.714.581.173.238.29.509.35.812.06.303.091.609.091.917 0 .355-.01.733-.028 1.134-.019.401-.033.803-.042 1.204 0 .467.028.91.084 1.33h.938v.91h-1.862l-.126-1.05h-.07c-.056.084-.14.191-.252.322-.112.13-.259.259-.441.385a2.749 2.749 0 01-1.589.469c-.69 0-1.237-.177-1.638-.532-.401-.355-.602-.84-.602-1.456 0-.476.105-.873.315-1.19.21-.317.511-.56.903-.728.392-.168.866-.266 1.421-.294a9.544 9.544 0 011.869.112c.047-.43.054-.786.021-1.071-.033-.285-.107-.511-.224-.679a.938.938 0 00-.49-.357 2.482 2.482 0 00-.777-.105c-.42 0-.821.058-1.204.175-.383.117-.723.236-1.022.357l-.35-.812zm2.058 5.642c.261 0 .504-.042.728-.126a2.22 2.22 0 00.588-.322 2.133 2.133 0 00.672-.868v-.98a7.92 7.92 0 00-1.344-.126c-.41 0-.765.044-1.064.133-.299.089-.532.226-.7.413-.168.187-.252.43-.252.728 0 .308.105.576.315.805.21.229.562.343 1.057.343zM73.038 7.91a.796.796 0 00-.35-.693 2.872 2.872 0 00-.868-.392 16.056 16.056 0 00-1.127-.273 6.502 6.502 0 01-1.127-.336 2.525 2.525 0 01-.868-.567c-.233-.238-.35-.572-.35-1.001 0-.355.077-.658.231-.91a1.94 1.94 0 01.609-.623c.252-.163.546-.285.882-.364.336-.08.686-.119 1.05-.119.653 0 1.216.082 1.687.245.471.163.847.334 1.127.511l-.448.882a11.79 11.79 0 00-1.001-.483c-.36-.154-.81-.231-1.351-.231-.205 0-.408.021-.609.063-.2.042-.383.105-.546.189a1.088 1.088 0 00-.392.329.825.825 0 00-.147.497c0 .243.117.43.35.56.233.13.523.24.868.329.345.089.721.173 1.127.252.406.08.782.194 1.127.343.345.15.635.35.868.602.233.252.35.593.35 1.022 0 .644-.254 1.176-.763 1.596-.509.42-1.272.63-2.289.63-.308 0-.611-.028-.91-.084a5.52 5.52 0 01-.84-.224 5.054 5.054 0 01-.714-.315 3.002 3.002 0 01-.532-.357l.56-.91c.112.112.261.226.448.343a4.229 4.229 0 001.337.539 3.76 3.76 0 001.484.021c.22-.042.413-.107.581-.196a1.08 1.08 0 00.399-.35.914.914 0 00.147-.525zm9.674 1.008c-.168.15-.366.29-.595.42a4.39 4.39 0 01-.749.336c-.27.093-.553.166-.847.217-.294.051-.59.077-.889.077-.56 0-1.055-.086-1.484-.259a2.858 2.858 0 01-1.078-.742 3.234 3.234 0 01-.658-1.155 4.767 4.767 0 01-.224-1.512c0-.588.082-1.11.245-1.568.163-.457.399-.84.707-1.148a3.08 3.08 0 011.12-.707 4.187 4.187 0 011.47-.245c.392 0 .78.051 1.162.154.383.103.721.296 1.015.581.294.285.52.677.679 1.176.159.5.215 1.146.168 1.939h-5.418c0 .84.226 1.468.679 1.883.453.415 1.057.623 1.813.623.252 0 .502-.03.749-.091.247-.06.483-.133.707-.217a3.72 3.72 0 00.595-.28c.173-.103.306-.196.399-.28l.434.798zm-2.954-5.362c-.308 0-.6.033-.875.098a1.995 1.995 0 00-.728.329c-.21.154-.383.355-.518.602s-.222.553-.259.917h4.354c-.047-.616-.245-1.094-.595-1.435-.35-.34-.81-.511-1.379-.511z"/><path id=";" fill="#7E7C7B" d="M86.912 9.03c0-.28.091-.506.273-.679.182-.173.418-.259.707-.259.355 0 .63.124.826.371.196.247.294.595.294 1.043a2.36 2.36 0 01-.637 1.659 2.465 2.465 0 01-.588.462c-.21.117-.404.203-.581.259l-.35-.546c.336-.13.625-.317.868-.56.243-.243.364-.537.364-.882-.13.028-.233.042-.308.042-.27 0-.483-.077-.637-.231-.154-.154-.231-.38-.231-.679zm.126-5.502c0-.299.084-.53.252-.693.168-.163.392-.245.672-.245.299 0 .532.082.7.245.168.163.252.394.252.693 0 .27-.084.495-.252.672-.168.177-.401.266-.7.266-.28 0-.504-.089-.672-.266a.938.938 0 01-.252-.672z"/><path id="phrase" fill="#181717" d="M1.05 39.25a14.05 14.05 0 00-.063-1.176 4.657 4.657 0 00-.049-.364H0v-.91h1.862l.14.98h.07c.252-.327.572-.6.959-.819.387-.22.861-.329 1.421-.329.999 0 1.75.275 2.254.826.504.55.756 1.451.756 2.702 0 .588-.086 1.118-.259 1.589a3.34 3.34 0 01-.735 1.197 3.24 3.24 0 01-1.148.756 3.999 3.999 0 01-1.484.266c-.196 0-.371-.007-.525-.021a4.613 4.613 0 01-.42-.056 3.31 3.31 0 01-.371-.091 5.103 5.103 0 01-.392-.14v2.94H1.05v-7.35zm3.22-1.596c-.28 0-.544.051-.791.154a2.36 2.36 0 00-1.127.966c-.121.205-.196.41-.224.616v3.192c.205.14.436.25.693.329.257.08.595.119 1.015.119.747 0 1.344-.245 1.792-.735.448-.49.672-1.206.672-2.149 0-.793-.156-1.407-.469-1.841-.313-.434-.833-.651-1.561-.651zM8.162 34h2.184v3.668h.07c.29-.327.625-.581 1.008-.763.383-.182.859-.273 1.428-.273.448 0 .838.047 1.169.14.331.093.602.257.812.49.21.233.366.553.469.959.103.406.154.922.154 1.547V43.8h-1.092v-3.822c0-.401-.023-.751-.07-1.05a1.829 1.829 0 00-.273-.749c-.135-.2-.32-.352-.553-.455-.233-.103-.532-.154-.896-.154-.252 0-.5.044-.742.133-.243.089-.464.21-.665.364-.2.154-.373.34-.518.56-.145.22-.245.46-.301.721V43.8H9.268v-8.862H8.162V34zm9.268 9.8v-.938h1.89v-5.124h-1.89V36.8h2.618l.224.91h.07c.317-.29.672-.537 1.064-.742.392-.205.859-.308 1.4-.308.317 0 .572.06.763.182.191.121.34.299.448.532.107.233.18.516.217.847.037.331.056.707.056 1.127l-.98.014c0-.597-.058-1.036-.175-1.316-.117-.28-.329-.42-.637-.42-.29 0-.55.042-.784.126a2.565 2.565 0 00-.609.308c-.173.121-.32.243-.441.364s-.21.224-.266.308v4.13h2.688v.938H17.43zm8.988-6.454a4.447 4.447 0 011.358-.504 7.423 7.423 0 011.484-.154c.476 0 .866.075 1.169.224.303.15.541.343.714.581.173.238.29.509.35.812.06.303.091.609.091.917 0 .355-.01.733-.028 1.134-.019.401-.033.803-.042 1.204 0 .467.028.91.084 1.33h.938v.91h-1.862l-.126-1.05h-.07c-.056.084-.14.191-.252.322-.112.13-.259.259-.441.385a2.749 2.749 0 01-1.589.469c-.69 0-1.237-.177-1.638-.532-.401-.355-.602-.84-.602-1.456 0-.476.105-.873.315-1.19.21-.317.511-.56.903-.728.392-.168.866-.266 1.421-.294a9.544 9.544 0 011.869.112c.047-.43.054-.786.021-1.071-.033-.285-.107-.511-.224-.679a.938.938 0 00-.49-.357 2.482 2.482 0 00-.777-.105c-.42 0-.821.058-1.204.175-.383.117-.723.236-1.022.357l-.35-.812zm2.058 5.642c.261 0 .504-.042.728-.126a2.22 2.22 0 00.588-.322 2.133 2.133 0 00.672-.868v-.98a7.92 7.92 0 00-1.344-.126c-.41 0-.765.044-1.064.133-.299.089-.532.226-.7.413-.168.187-.252.43-.252.728 0 .308.105.576.315.805.21.229.562.343 1.057.343zm10.962-1.078a.796.796 0 00-.35-.693 2.872 2.872 0 00-.868-.392 16.056 16.056 0 00-1.127-.273 6.502 6.502 0 01-1.127-.336 2.525 2.525 0 01-.868-.567c-.233-.238-.35-.572-.35-1.001 0-.355.077-.658.231-.91a1.94 1.94 0 01.609-.623c.252-.163.546-.285.882-.364.336-.08.686-.119 1.05-.119.653 0 1.216.082 1.687.245.471.163.847.334 1.127.511l-.448.882a11.79 11.79 0 00-1.001-.483c-.36-.154-.81-.231-1.351-.231-.205 0-.408.021-.609.063-.2.042-.383.105-.546.189a1.088 1.088 0 00-.392.329.825.825 0 00-.147.497c0 .243.117.43.35.56.233.13.523.24.868.329.345.089.721.173 1.127.252.406.08.782.194 1.127.343.345.15.635.35.868.602.233.252.35.593.35 1.022 0 .644-.254 1.176-.763 1.596-.509.42-1.272.63-2.289.63-.308 0-.611-.028-.91-.084a5.52 5.52 0 01-.84-.224 5.054 5.054 0 01-.714-.315 3.002 3.002 0 01-.532-.357l.56-.91c.112.112.261.226.448.343a4.229 4.229 0 001.337.539 3.76 3.76 0 001.484.021c.22-.042.413-.107.581-.196a1.08 1.08 0 00.399-.35.914.914 0 00.147-.525zm9.674 1.008c-.168.15-.366.29-.595.42a4.39 4.39 0 01-.749.336c-.27.093-.553.166-.847.217-.294.051-.59.077-.889.077-.56 0-1.055-.086-1.484-.259a2.858 2.858 0 01-1.078-.742 3.234 3.234 0 01-.658-1.155 4.767 4.767 0 01-.224-1.512c0-.588.082-1.11.245-1.568.163-.457.399-.84.707-1.148a3.08 3.08 0 011.12-.707 4.187 4.187 0 011.47-.245c.392 0 .78.051 1.162.154.383.103.721.296 1.015.581.294.285.52.677.679 1.176.159.5.215 1.146.168 1.939h-5.418c0 .84.226 1.468.679 1.883.453.415 1.057.623 1.813.623.252 0 .502-.03.749-.091.247-.06.483-.133.707-.217a3.72 3.72 0 00.595-.28c.173-.103.306-.196.399-.28l.434.798zm-2.954-5.362c-.308 0-.6.033-.875.098a1.995 1.995 0 00-.728.329c-.21.154-.383.355-.518.602s-.222.553-.259.917h4.354c-.047-.616-.245-1.094-.595-1.435-.35-.34-.81-.511-1.379-.511z"/><path id="=" fill="#DBAF88" d="M59.458 37.402h6.496v1.008h-6.496v-1.008zm0 2.296h6.496v1.008h-6.496v-1.008z"/><path id="&quot;Hello&quot;" fill="#478964" d="M80.332 34h1.232l-.434 4.242h-.798V34zm-2.898 0h1.232l-.434 4.242h-.798V34zm12.67 5.306h-4.396V43.8h-1.162V34h1.162v4.27h4.396V34h1.162v9.8h-1.162v-4.494zm9.408 3.612c-.168.15-.366.29-.595.42a4.39 4.39 0 01-.749.336c-.27.093-.553.166-.847.217-.294.051-.59.077-.889.077-.56 0-1.055-.086-1.484-.259a2.858 2.858 0 01-1.078-.742 3.234 3.234 0 01-.658-1.155 4.767 4.767 0 01-.224-1.512c0-.588.082-1.11.245-1.568.163-.457.399-.84.707-1.148a3.08 3.08 0 011.12-.707 4.187 4.187 0 011.47-.245c.392 0 .78.051 1.162.154.383.103.721.296 1.015.581.294.285.52.677.679 1.176.159.5.215 1.146.168 1.939h-5.418c0 .84.226 1.468.679 1.883.453.415 1.057.623 1.813.623.252 0 .502-.03.749-.091.247-.06.483-.133.707-.217a3.72 3.72 0 00.595-.28c.173-.103.306-.196.399-.28l.434.798zm-2.954-5.362c-.308 0-.6.033-.875.098a1.995 1.995 0 00-.728.329c-.21.154-.383.355-.518.602s-.222.553-.259.917h4.354c-.047-.616-.245-1.094-.595-1.435-.35-.34-.81-.511-1.379-.511zM102.172 34h2.324v7.448c0 .57.096.97.287 1.204.191.233.474.35.847.35.261 0 .511-.047.749-.14.238-.093.502-.252.791-.476l.504.77c-.15.13-.313.247-.49.35a3.638 3.638 0 01-1.106.42 2.963 2.963 0 01-1.442-.077 1.579 1.579 0 01-.679-.427 1.897 1.897 0 01-.413-.777c-.093-.322-.14-.721-.14-1.197v-6.51h-1.232V34zm8.4 0h2.324v7.448c0 .57.096.97.287 1.204.191.233.474.35.847.35.261 0 .511-.047.749-.14.238-.093.502-.252.791-.476l.504.77c-.15.13-.313.247-.49.35a3.638 3.638 0 01-1.106.42 2.963 2.963 0 01-1.442-.077 1.579 1.579 0 01-.679-.427 1.897 1.897 0 01-.413-.777c-.093-.322-.14-.721-.14-1.197v-6.51h-1.232V34zm7.532 6.3c0-1.13.294-2.023.882-2.681.588-.658 1.428-.987 2.52-.987.588 0 1.094.096 1.519.287.425.191.777.45 1.057.777.28.327.488.714.623 1.162.135.448.203.929.203 1.442 0 .56-.075 1.066-.224 1.519-.15.453-.369.838-.658 1.155-.29.317-.646.562-1.071.735a3.82 3.82 0 01-1.449.259c-.579 0-1.083-.096-1.512-.287a2.967 2.967 0 01-1.064-.777 3.168 3.168 0 01-.623-1.162 4.963 4.963 0 01-.203-1.442zm1.162 0c0 .327.04.653.119.98.08.327.208.62.385.882.177.261.408.471.693.63.285.159.632.238 1.043.238.747 0 1.309-.231 1.687-.693.378-.462.567-1.141.567-2.037 0-.336-.04-.665-.119-.987a2.608 2.608 0 00-.392-.875 2.066 2.066 0 00-.7-.63c-.285-.159-.632-.238-1.043-.238-.747 0-1.307.229-1.68.686-.373.457-.56 1.139-.56 2.044zm11.466-6.3h1.232l-.434 4.242h-.798V34zm-2.898 0h1.232l-.434 4.242h-.798V34z"/><path id=";" fill="#7E7C7B" d="M137.312 43.03c0-.28.091-.506.273-.679.182-.173.418-.259.707-.259.355 0 .63.124.826.371.196.247.294.595.294 1.043a2.36 2.36 0 01-.637 1.659 2.465 2.465 0 01-.588.462c-.21.117-.404.203-.581.259l-.35-.546c.336-.13.625-.317.868-.56.243-.243.364-.537.364-.882-.13.028-.233.042-.308.042-.27 0-.483-.077-.637-.231-.154-.154-.231-.38-.231-.679zm.126-5.502c0-.299.084-.53.252-.693.168-.163.392-.245.672-.245.299 0 .532.082.7.245.168.163.252.394.252.693 0 .27-.084.495-.252.672-.168.177-.401.266-.7.266-.28 0-.504-.089-.672-.266a.938.938 0 01-.252-.672z"/><path id="phrase" fill="#181717" d="M1.05 73.25a14.05 14.05 0 00-.063-1.176 4.657 4.657 0 00-.049-.364H0v-.91h1.862l.14.98h.07c.252-.327.572-.6.959-.819.387-.22.861-.329 1.421-.329.999 0 1.75.275 2.254.826.504.55.756 1.451.756 2.702 0 .588-.086 1.118-.259 1.589a3.34 3.34 0 01-.735 1.197 3.24 3.24 0 01-1.148.756 3.999 3.999 0 01-1.484.266c-.196 0-.371-.007-.525-.021a4.613 4.613 0 01-.42-.056 3.31 3.31 0 01-.371-.091 5.103 5.103 0 01-.392-.14v2.94H1.05v-7.35zm3.22-1.596c-.28 0-.544.051-.791.154a2.36 2.36 0 00-1.127.966c-.121.205-.196.41-.224.616v3.192c.205.14.436.25.693.329.257.08.595.119 1.015.119.747 0 1.344-.245 1.792-.735.448-.49.672-1.206.672-2.149 0-.793-.156-1.407-.469-1.841-.313-.434-.833-.651-1.561-.651zM8.162 68h2.184v3.668h.07c.29-.327.625-.581 1.008-.763.383-.182.859-.273 1.428-.273.448 0 .838.047 1.169.14.331.093.602.257.812.49.21.233.366.553.469.959.103.406.154.922.154 1.547V77.8h-1.092v-3.822c0-.401-.023-.751-.07-1.05a1.829 1.829 0 00-.273-.749c-.135-.2-.32-.352-.553-.455-.233-.103-.532-.154-.896-.154-.252 0-.5.044-.742.133-.243.089-.464.21-.665.364-.2.154-.373.34-.518.56-.145.22-.245.46-.301.721V77.8H9.268v-8.862H8.162V68zm9.268 9.8v-.938h1.89v-5.124h-1.89V70.8h2.618l.224.91h.07c.317-.29.672-.537 1.064-.742.392-.205.859-.308 1.4-.308.317 0 .572.06.763.182.191.121.34.299.448.532.107.233.18.516.217.847.037.331.056.707.056 1.127l-.98.014c0-.597-.058-1.036-.175-1.316-.117-.28-.329-.42-.637-.42-.29 0-.55.042-.784.126a2.565 2.565 0 00-.609.308c-.173.121-.32.243-.441.364s-.21.224-.266.308v4.13h2.688v.938H17.43zm8.988-6.454a4.447 4.447 0 011.358-.504 7.423 7.423 0 011.484-.154c.476 0 .866.075 1.169.224.303.15.541.343.714.581.173.238.29.509.35.812.06.303.091.609.091.917 0 .355-.01.733-.028 1.134-.019.401-.033.803-.042 1.204 0 .467.028.91.084 1.33h.938v.91h-1.862l-.126-1.05h-.07c-.056.084-.14.191-.252.322-.112.13-.259.259-.441.385a2.749 2.749 0 01-1.589.469c-.69 0-1.237-.177-1.638-.532-.401-.355-.602-.84-.602-1.456 0-.476.105-.873.315-1.19.21-.317.511-.56.903-.728.392-.168.866-.266 1.421-.294a9.544 9.544 0 011.869.112c.047-.43.054-.786.021-1.071-.033-.285-.107-.511-.224-.679a.938.938 0 00-.49-.357 2.482 2.482 0 00-.777-.105c-.42 0-.821.058-1.204.175-.383.117-.723.236-1.022.357l-.35-.812zm2.058 5.642c.261 0 .504-.042.728-.126a2.22 2.22 0 00.588-.322 2.133 2.133 0 00.672-.868v-.98a7.92 7.92 0 00-1.344-.126c-.41 0-.765.044-1.064.133-.299.089-.532.226-.7.413-.168.187-.252.43-.252.728 0 .308.105.576.315.805.21.229.562.343 1.057.343zm10.962-1.078a.796.796 0 00-.35-.693 2.872 2.872 0 00-.868-.392 16.056 16.056 0 00-1.127-.273 6.502 6.502 0 01-1.127-.336 2.525 2.525 0 01-.868-.567c-.233-.238-.35-.572-.35-1.001 0-.355.077-.658.231-.91a1.94 1.94 0 01.609-.623c.252-.163.546-.285.882-.364.336-.08.686-.119 1.05-.119.653 0 1.216.082 1.687.245.471.163.847.334 1.127.511l-.448.882a11.79 11.79 0 00-1.001-.483c-.36-.154-.81-.231-1.351-.231-.205 0-.408.021-.609.063-.2.042-.383.105-.546.189a1.088 1.088 0 00-.392.329.825.825 0 00-.147.497c0 .243.117.43.35.56.233.13.523.24.868.329.345.089.721.173 1.127.252.406.08.782.194 1.127.343.345.15.635.35.868.602.233.252.35.593.35 1.022 0 .644-.254 1.176-.763 1.596-.509.42-1.272.63-2.289.63-.308 0-.611-.028-.91-.084a5.52 5.52 0 01-.84-.224 5.054 5.054 0 01-.714-.315 3.002 3.002 0 01-.532-.357l.56-.91c.112.112.261.226.448.343a4.229 4.229 0 001.337.539 3.76 3.76 0 001.484.021c.22-.042.413-.107.581-.196a1.08 1.08 0 00.399-.35.914.914 0 00.147-.525zm9.674 1.008c-.168.15-.366.29-.595.42a4.39 4.39 0 01-.749.336c-.27.093-.553.166-.847.217-.294.051-.59.077-.889.077-.56 0-1.055-.086-1.484-.259a2.858 2.858 0 01-1.078-.742 3.234 3.234 0 01-.658-1.155 4.767 4.767 0 01-.224-1.512c0-.588.082-1.11.245-1.568.163-.457.399-.84.707-1.148a3.08 3.08 0 011.12-.707 4.187 4.187 0 011.47-.245c.392 0 .78.051 1.162.154.383.103.721.296 1.015.581.294.285.52.677.679 1.176.159.5.215 1.146.168 1.939h-5.418c0 .84.226 1.468.679 1.883.453.415 1.057.623 1.813.623.252 0 .502-.03.749-.091.247-.06.483-.133.707-.217a3.72 3.72 0 00.595-.28c.173-.103.306-.196.399-.28l.434.798zm-2.954-5.362c-.308 0-.6.033-.875.098a1.995 1.995 0 00-.728.329c-.21.154-.383.355-.518.602s-.222.553-.259.917h4.354c-.047-.616-.245-1.094-.595-1.435-.35-.34-.81-.511-1.379-.511z"/><path id="=" fill="#AF6E24" d="M59.458 71.402h6.496v1.008h-6.496v-1.008zm0 2.296h6.496v1.008h-6.496v-1.008z"/><path id="&quot;Bye&quot;" fill="#478964" d="M80.332 68h1.232l-.434 4.242h-.798V68zm-2.898 0h1.232l-.434 4.242h-.798V68zm13.58 2.24a2.42 2.42 0 01-.448 1.393c-.15.21-.34.394-.574.553-.233.159-.509.28-.826.364v.056c.28.047.548.126.805.238a2.19 2.19 0 011.155 1.176c.121.28.182.611.182.994 0 .504-.105.94-.315 1.309-.21.369-.485.67-.826.903-.34.233-.73.406-1.169.518a5.411 5.411 0 01-1.344.168h-.56c-.215 0-.439-.007-.672-.021a17.67 17.67 0 01-.7-.056 4.007 4.007 0 01-.616-.105v-9.646c.345-.056.747-.103 1.204-.14.457-.037.957-.056 1.498-.056.364 0 .735.03 1.113.091.378.06.721.177 1.029.35.308.173.562.413.763.721.2.308.301.705.301 1.19zm-3.248 6.664c.299 0 .588-.037.868-.112.28-.075.527-.187.742-.336.215-.15.385-.336.511-.56.126-.224.189-.49.189-.798 0-.383-.077-.69-.231-.924a1.613 1.613 0 00-.602-.546 2.605 2.605 0 00-.833-.266 6.16 6.16 0 00-.924-.07h-1.218v3.514c.065.019.159.033.28.042.121.01.252.019.392.028a12.308 12.308 0 00.826.028zm-.77-4.592c.159 0 .35-.005.574-.014.224-.01.41-.023.56-.042a3.83 3.83 0 00.63-.273c.196-.107.371-.236.525-.385.154-.15.275-.317.364-.504.089-.187.133-.392.133-.616 0-.308-.058-.565-.175-.77a1.35 1.35 0 00-.469-.49 1.932 1.932 0 00-.672-.252 4.22 4.22 0 00-.77-.07c-.308 0-.59.007-.847.021a4.04 4.04 0 00-.581.063v3.332h.728zm9.464 4.41h.532l1.736-5.922h1.134l-1.946 6.286c-.103.327-.208.698-.315 1.113a5.2 5.2 0 01-.455 1.169 2.807 2.807 0 01-.798.924c-.336.252-.775.378-1.316.378-.121 0-.25-.014-.385-.042a3.856 3.856 0 01-.399-.105 2.574 2.574 0 01-.364-.147.977.977 0 01-.252-.168l.392-1.008c.056.047.133.093.231.14.098.047.205.086.322.119.117.033.231.06.343.084.112.023.205.035.28.035.7 0 1.176-.593 1.428-1.778h-.938l-2.94-7h1.26l2.45 5.922zm11.452.196c-.168.15-.366.29-.595.42a4.39 4.39 0 01-.749.336c-.27.093-.553.166-.847.217-.294.051-.59.077-.889.077-.56 0-1.055-.086-1.484-.259a2.858 2.858 0 01-1.078-.742 3.234 3.234 0 01-.658-1.155 4.767 4.767 0 01-.224-1.512c0-.588.082-1.11.245-1.568.163-.457.399-.84.707-1.148a3.08 3.08 0 011.12-.707 4.187 4.187 0 011.47-.245c.392 0 .78.051 1.162.154.383.103.721.296 1.015.581.294.285.52.677.679 1.176.159.5.215 1.146.168 1.939h-5.418c0 .84.226 1.468.679 1.883.453.415 1.057.623 1.813.623.252 0 .502-.03.749-.091.247-.06.483-.133.707-.217a3.72 3.72 0 00.595-.28c.173-.103.306-.196.399-.28l.434.798zm-2.954-5.362c-.308 0-.6.033-.875.098a1.995 1.995 0 00-.728.329c-.21.154-.383.355-.518.602s-.222.553-.259.917h4.354c-.047-.616-.245-1.094-.595-1.435-.35-.34-.81-.511-1.379-.511zM113.932 68h1.232l-.434 4.242h-.798V68zm-2.898 0h1.232l-.434 4.242h-.798V68z"/><path id=";" fill="#7E7C7B" d="M120.512 77.03c0-.28.091-.506.273-.679.182-.173.418-.259.707-.259.355 0 .63.124.826.371.196.247.294.595.294 1.043a2.36 2.36 0 01-.637 1.659 2.465 2.465 0 01-.588.462c-.21.117-.404.203-.581.259l-.35-.546c.336-.13.625-.317.868-.56.243-.243.364-.537.364-.882-.13.028-.233.042-.308.042-.27 0-.483-.077-.637-.231-.154-.154-.231-.38-.231-.679zm.126-5.502c0-.299.084-.53.252-.693.168-.163.392-.245.672-.245.299 0 .532.082.7.245.168.163.252.394.252.693 0 .27-.084.495-.252.672-.168.177-.401.266-.7.266-.28 0-.504-.089-.672-.266a.938.938 0 01-.252-.672z"/></g><text id="execution-start" fill="#7E7C7B" font-family="PTMono-Regular, PT Mono" font-size="12" font-weight="normal"><tspan x="20" y="28">execution start</tspan></text><path id="Line-Copy" stroke="#7E7C7B" stroke-dasharray="2,4,2,4" stroke-linecap="square" d="M166.5 58.5h50"/><path id="Line-Copy-2" stroke="#7E7C7B" stroke-dasharray="2,4,2,4" stroke-linecap="square" d="M166.5 92.5h50"/><path id="Line-Copy-3" stroke="#7E7C7B" stroke-dasharray="2,4,2,4" stroke-linecap="square" d="M166.5 126.5h50"/><path id="Line-Copy-4" stroke="#7E7C7B" stroke-dasharray="2,4,2,4" stroke-linecap="square" d="M166.5 126.5h50"/><path id="Line" stroke="#7E7C7B" stroke-dasharray="2,4,2,4" stroke-linecap="square" d="M166.5 24.5h50"/></g></g></svg>