<?xml version="1.0" encoding="UTF-8"?>
<svg width="701px" height="183px" viewBox="0 0 701 183" version="1.1" xmlns="http://www.w3.org/2000/svg" xmlns:xlink="http://www.w3.org/1999/xlink">
    <!-- Generator: sketchtool 55.2 (78181) - https://sketchapp.com -->
    <title>lexenv-if.svg</title>
    <desc>Created with sketchtool.</desc>
    <g id="closure" stroke="none" stroke-width="1" fill="none" fill-rule="evenodd">
        <g id="lexenv-if.svg">
            <text id="let-phrase-=-&quot;Hello&quot;" font-family="PTMono-Regular, PT Mono" font-size="14" font-weight="normal">
                <tspan x="18" y="23" fill="#0077AA">let</tspan>
                <tspan x="43.2" y="23" fill="#000000"> phrase </tspan>
                <tspan x="110.4" y="23" fill="#A67F59">=</tspan>
                <tspan x="118.8" y="23" fill="#000000"> </tspan>
                <tspan x="127.2" y="23" fill="#669900">"Hello"</tspan>
                <tspan x="186" y="23" fill="#999999">;</tspan>
                <tspan x="194.4" y="23" fill="#000000"></tspan>
                <tspan x="18" y="40" fill="#000000"></tspan>
                <tspan x="18" y="57" fill="#0077AA">if</tspan>
                <tspan x="34.8" y="57" fill="#000000"> </tspan>
                <tspan x="43.2" y="57" fill="#999999">(</tspan>
                <tspan x="51.6" y="57" fill="#990055">true</tspan>
                <tspan x="85.2" y="57" fill="#999999">)</tspan>
                <tspan x="93.6" y="57" fill="#000000"> </tspan>
                <tspan x="102" y="57" fill="#999999">{</tspan>
                <tspan x="110.4" y="57" fill="#000000"></tspan>
                <tspan x="18" y="74" fill="#000000">  </tspan>
                <tspan x="34.8" y="74" fill="#0077AA">let</tspan>
                <tspan x="60" y="74" fill="#000000"> user </tspan>
                <tspan x="110.4" y="74" fill="#A67F59">=</tspan>
                <tspan x="118.8" y="74" fill="#000000"> </tspan>
                <tspan x="127.2" y="74" fill="#669900">"John"</tspan>
                <tspan x="177.6" y="74" fill="#999999">;</tspan>
                <tspan x="186" y="74" fill="#000000"></tspan>
                <tspan x="18" y="91" fill="#000000"></tspan>
                <tspan x="18" y="108" fill="#000000">  </tspan>
                <tspan x="34.8" y="108" fill="#EC6B4E">alert</tspan>
                <tspan x="76.8" y="108" fill="#EC6B4E">(</tspan>
                <tspan x="85.2" y="108" fill="#EC6B4E">`</tspan>
                <tspan x="93.6" y="108" fill="#EC6B4E">${</tspan>
                <tspan x="110.4" y="108" fill="#EC6B4E">phrase</tspan>
                <tspan x="160.8" y="108" fill="#EC6B4E">}</tspan>
                <tspan x="169.2" y="108" fill="#EC6B4E">, </tspan>
                <tspan x="186" y="108" fill="#EC6B4E">${</tspan>
                <tspan x="202.8" y="108" fill="#EC6B4E">user</tspan>
                <tspan x="236.4" y="108" fill="#EC6B4E">}</tspan>
                <tspan x="244.8" y="108" fill="#EC6B4E">`</tspan>
                <tspan x="253.2" y="108" fill="#EC6B4E">);</tspan>
                <tspan x="270" y="108" fill="#000000"> </tspan>
                <tspan x="18" y="125" fill="#999999">}</tspan>
                <tspan x="26.4" y="125" fill="#000000"></tspan>
                <tspan x="18" y="142" fill="#000000"></tspan>
                <tspan x="18" y="159" fill="#000000">alert</tspan>
                <tspan x="60" y="159" fill="#999999">(</tspan>
                <tspan x="68.4" y="159" fill="#000000">user</tspan>
                <tspan x="102" y="159" fill="#999999">);</tspan>
                <tspan x="118.8" y="159" fill="#000000"> </tspan>
                <tspan x="127.2" y="159" fill="#708090">// Error, no such variable!</tspan>
                <tspan x="354" y="159" fill="#000000"></tspan>
            </text>
            <polyline id="Rectangle-1-Copy-3" fill="#EC6B4E" points="5 111.774194 5 99 14 105.387097"></polyline>
            <g id="Group-3" transform="translate(469.000000, 63.000000)">
                <rect id="Rectangle-1" stroke="#E8C48E" stroke-width="2" fill="#FFF9EB" x="1" y="1" width="142" height="28"></rect>
                <text id="phrase:-&quot;Hello&quot;" font-family="PTMono-Regular, PT Mono" font-size="14" font-weight="normal" fill="#8A704D">
                    <tspan x="10" y="18.5">phrase: "Hello"</tspan>
                </text>
            </g>
            <g id="Group-5" transform="translate(276.000000, 45.000000)" stroke="#EE6B47" stroke-linecap="square">
                <path d="M0.709495408,0.966666667 L17.4979699,0.966666667" id="Line"></path>
                <path d="M0.709495408,86.0333333 L17.4979699,86.0333333" id="Line-Copy"></path>
                <path d="M18.3333333,0.966666667 L18.3333333,86.0333333" id="Line-Copy-2"></path>
            </g>
            <g id="Group-5-Copy" transform="translate(463.000000, 93.000000) scale(-1, 1) translate(-463.000000, -93.000000) translate(459.000000, 8.000000)" stroke="#EE6B47" stroke-linecap="square">
                <path d="M4.25,1.88888889 L4.25,168.111111" id="Line-Copy-2"></path>
            </g>
            <g id="Group" transform="translate(622.000000, 58.000000)">
                <path id="Line" d="M16.5,23.5 L2.5,23.5 L2.5,21.5 L16.5,21.5 L16.5,15.5 L30.5,22.5 L16.5,29.5 L16.5,23.5 Z" fill="#EE6B47" fill-rule="nonzero"></path>
                <text id="outer" font-family="PTMono-Regular, PT Mono" font-size="12" font-weight="normal" fill="#8A704D">
                    <tspan x="0" y="11">outer</tspan>
                </text>
            </g>
            <g id="Group-Copy" transform="translate(417.000000, 58.000000)">
                <path id="Line" d="M16.5,23.5 L2.5,23.5 L2.5,21.5 L16.5,21.5 L16.5,15.5 L30.5,22.5 L16.5,29.5 L16.5,23.5 Z" fill="#EE6B47" fill-rule="nonzero"></path>
                <text id="outer" font-family="PTMono-Regular, PT Mono" font-size="12" font-weight="normal" fill="#8A704D">
                    <tspan x="0" y="11">outer</tspan>
                </text>
            </g>
            <text id="null" font-family="PTMono-Regular, PT Mono" font-size="14" font-weight="normal" fill="#8A704D">
                <tspan x="667" y="83">null</tspan>
            </text>
            <g id="Group-3" transform="translate(303.000000, 63.000000)">
                <rect id="Rectangle-1" stroke="#E8C48E" stroke-width="2" fill="#FFF9EB" x="1" y="1" width="106" height="28"></rect>
                <text id="user:-&quot;John&quot;" font-family="PTMono-Regular, PT Mono" font-size="14" font-weight="normal" fill="#8A704D">
                    <tspan x="5" y="18.5102041">user: "John"</tspan>
                </text>
            </g>
        </g>
    </g>
</svg>