<svg xmlns="http://www.w3.org/2000/svg" width="689" height="150" viewBox="0 0 689 150"><defs><style>@import url(https://fonts.googleapis.com/css?family=Open+Sans:bold,italic,bolditalic%7CPT+Mono);@font-face{font-family:&apos;PT Mono&apos;;font-weight:700;font-style:normal;src:local(&apos;PT MonoBold&apos;),url(/font/PTMonoBold.woff2) format(&apos;woff2&apos;),url(/font/PTMonoBold.woff) format(&apos;woff&apos;),url(/font/PTMonoBold.ttf) format(&apos;truetype&apos;)}</style></defs><g id="closure" fill="none" fill-rule="evenodd" stroke="none" stroke-width="1"><g id="lexenv-nested-makecounter-1.svg"><g id="function-makeCounter" fill-rule="nonzero" transform="translate(18 12)"><path id="functionmakeCounter(){" fill="#EC6B4E" d="M.112 9.968V9.03h1.666V3.906H.112v-.938h1.666v-.392c0-.877.229-1.512.686-1.904.457-.392 1.11-.588 1.96-.588.308 0 .583.019.826.056.243.037.504.112.784.224l-.252.91a2.862 2.862 0 00-.7-.203 4.295 4.295 0 00-.616-.049c-.616 0-1.036.152-1.26.455-.224.303-.336.8-.336 1.491h2.898v.938H2.87V9.03h2.898v.938H.112zm12.25-7h1.988v4.774c0 .457.028.896.084 1.316h.938v.91H13.51l-.042-1.19h-.056a2.938 2.938 0 01-.966.98c-.401.252-.887.378-1.456.378-.43 0-.796-.049-1.099-.147a1.556 1.556 0 01-.749-.511c-.196-.243-.34-.567-.434-.973-.093-.406-.14-.912-.14-1.519v-3.08H7.63v-.938h2.03v3.794c0 .383.016.726.049 1.029.033.303.1.56.203.77.103.21.254.369.455.476.2.107.469.161.805.161.485 0 .908-.159 1.267-.476.36-.317.632-.714.819-1.19V3.906h-.896v-.938zm4.62 2.45a14.05 14.05 0 00-.063-1.176 4.657 4.657 0 00-.049-.364h-.938v-.91h1.876l.126 1.134h.07c.093-.159.217-.315.371-.469a2.91 2.91 0 011.225-.721c.252-.075.518-.112.798-.112.43 0 .81.047 1.141.14.331.093.607.259.826.497.22.238.385.56.497.966.112.406.168.922.168 1.547v4.018h-1.092V6.16c0-.775-.126-1.358-.378-1.75-.252-.392-.71-.588-1.372-.588-.243 0-.478.049-.707.147a2.44 2.44 0 00-.623.385c-.187.159-.35.343-.49.553-.14.21-.243.432-.308.665v4.396h-1.078v-4.55zm13.244-1.372a5.531 5.531 0 00-.693-.189 3.61 3.61 0 00-.735-.077c-.915 0-1.596.215-2.044.644-.448.43-.672 1.11-.672 2.044 0 .41.065.777.196 1.099.13.322.317.595.56.819.243.224.534.397.875.518.34.121.716.182 1.127.182.439 0 .866-.075 1.281-.224.415-.15.763-.345 1.043-.588l.49.812c-.13.112-.294.229-.49.35a4.837 4.837 0 01-1.533.602 4.962 4.962 0 01-1.015.098c-.607 0-1.141-.086-1.603-.259a3.045 3.045 0 01-1.155-.742 3.176 3.176 0 01-.7-1.162 4.525 4.525 0 01-.238-1.505c0-.588.082-1.11.245-1.568.163-.457.399-.84.707-1.148a3.08 3.08 0 011.12-.707 4.187 4.187 0 011.47-.245c.69 0 1.253.06 1.687.182.434.121.8.257 1.099.406l-.014.042v1.946h-1.008v-1.33zm2.688-1.078h1.666V1.582l1.092-.308v1.694h3.738v.938h-3.738V7.21c0 .681.166 1.185.497 1.512.331.327.805.49 1.421.49.42 0 .786-.08 1.099-.238.313-.159.595-.331.847-.518l.364.826a3.938 3.938 0 01-1.169.63 4.182 4.182 0 01-1.393.238 3.41 3.41 0 01-1.057-.161 2.426 2.426 0 01-.875-.497 2.38 2.38 0 01-.602-.861c-.15-.35-.224-.768-.224-1.253V3.906h-1.666v-.938zm9.436 7V9.03h2.436V3.906H42.35v-.938h3.556V9.03h2.38v.938H42.35zM44.408.98c0-.252.084-.469.252-.651a.838.838 0 01.644-.273c.27 0 .497.091.679.273a.889.889 0 01.273.651.806.806 0 01-.273.616.963.963 0 01-.679.252.872.872 0 01-.644-.252.838.838 0 01-.252-.616zm5.67 5.488c0-1.13.294-2.023.882-2.681.588-.658 1.428-.987 2.52-.987.588 0 1.094.096 1.519.287.425.191.777.45 1.057.777.28.327.488.714.623 1.162.135.448.203.929.203 1.442 0 .56-.075 1.066-.224 1.519-.15.453-.369.838-.658 1.155-.29.317-.646.562-1.071.735a3.82 3.82 0 01-1.449.259c-.579 0-1.083-.096-1.512-.287a2.967 2.967 0 01-1.064-.777 3.168 3.168 0 01-.623-1.162 4.963 4.963 0 01-.203-1.442zm1.162 0c0 .327.04.653.119.98.08.327.208.62.385.882.177.261.408.471.693.63.285.159.632.238 1.043.238.747 0 1.309-.231 1.687-.693.378-.462.567-1.141.567-2.037 0-.336-.04-.665-.119-.987a2.608 2.608 0 00-.392-.875 2.066 2.066 0 00-.7-.63c-.285-.159-.632-.238-1.043-.238-.747 0-1.307.229-1.68.686-.373.457-.56 1.139-.56 2.044zm7.742-1.05a14.05 14.05 0 00-.063-1.176 4.657 4.657 0 00-.049-.364h-.938v-.91h1.876l.126 1.134h.07c.093-.159.217-.315.371-.469a2.91 2.91 0 011.225-.721c.252-.075.518-.112.798-.112.43 0 .81.047 1.141.14.331.093.607.259.826.497.22.238.385.56.497.966.112.406.168.922.168 1.547v4.018h-1.092V6.16c0-.775-.126-1.358-.378-1.75-.252-.392-.71-.588-1.372-.588-.243 0-.478.049-.707.147a2.44 2.44 0 00-.623.385c-.187.159-.35.343-.49.553-.14.21-.243.432-.308.665v4.396h-1.078v-4.55zm19.166 4.55V5.306c0-.196-.007-.385-.021-.567a1.9 1.9 0 00-.098-.49.786.786 0 00-.224-.343.57.57 0 00-.385-.126c-.317 0-.586.13-.805.392-.22.261-.385.588-.497.98v4.816h-1.064v-7h.728l.21.854h.056c.093-.14.184-.273.273-.399.089-.126.191-.236.308-.329.117-.093.254-.166.413-.217.159-.051.36-.077.602-.077.14 0 .285.021.434.063.15.042.287.107.413.196.126.089.236.208.329.357.093.15.154.331.182.546.215-.364.455-.649.721-.854.266-.205.632-.308 1.099-.308.308 0 .558.051.749.154.191.103.34.25.448.441.107.191.182.42.224.686.042.266.063.562.063.889v4.998h-1.064v-4.76c0-.196-.01-.38-.028-.553a1.764 1.764 0 00-.105-.455.752.752 0 00-.21-.308.536.536 0 00-.357-.112c-.327 0-.602.13-.826.392-.224.261-.392.635-.504 1.12v4.676h-1.064zm6.244-6.454a4.447 4.447 0 011.358-.504 7.423 7.423 0 011.484-.154c.476 0 .866.075 1.169.224.303.15.541.343.714.581.173.238.29.509.35.812.06.303.091.609.091.917 0 .355-.01.733-.028 1.134-.019.401-.033.803-.042 1.204 0 .467.028.91.084 1.33h.938v.91h-1.862l-.126-1.05h-.07c-.056.084-.14.191-.252.322-.112.13-.259.259-.441.385a2.749 2.749 0 01-1.589.469c-.69 0-1.237-.177-1.638-.532-.401-.355-.602-.84-.602-1.456 0-.476.105-.873.315-1.19.21-.317.511-.56.903-.728.392-.168.866-.266 1.421-.294a9.544 9.544 0 011.869.112c.047-.43.054-.786.021-1.071-.033-.285-.107-.511-.224-.679a.938.938 0 00-.49-.357 2.482 2.482 0 00-.777-.105c-.42 0-.821.058-1.204.175-.383.117-.723.236-1.022.357l-.35-.812zm2.058 5.642c.261 0 .504-.042.728-.126a2.22 2.22 0 00.588-.322 2.133 2.133 0 00.672-.868v-.98a7.92 7.92 0 00-1.344-.126c-.41 0-.765.044-1.064.133-.299.089-.532.226-.7.413-.168.187-.252.43-.252.728 0 .308.105.576.315.805.21.229.562.343 1.057.343zM91.616.168h2.268v5.796h.77l2.758-2.996h1.316l-3.094 3.318 2.548 2.744h.91v.938H97.65l-2.996-3.164h-.77v3.164h-1.078V1.106h-1.19V.168zm15.47 8.918c-.168.15-.366.29-.595.42a4.39 4.39 0 01-.749.336c-.27.093-.553.166-.847.217-.294.051-.59.077-.889.077-.56 0-1.055-.086-1.484-.259a2.858 2.858 0 01-1.078-.742 3.234 3.234 0 01-.658-1.155 4.767 4.767 0 01-.224-1.512c0-.588.082-1.11.245-1.568.163-.457.399-.84.707-1.148a3.08 3.08 0 011.12-.707 4.187 4.187 0 011.47-.245c.392 0 .78.051 1.162.154.383.103.721.296 1.015.581.294.285.52.677.679 1.176.159.5.215 1.146.168 1.939h-5.418c0 .84.226 1.468.679 1.883.453.415 1.057.623 1.813.623.252 0 .502-.03.749-.091.247-.06.483-.133.707-.217a3.72 3.72 0 00.595-.28c.173-.103.306-.196.399-.28l.434.798zm-2.954-5.362c-.308 0-.6.033-.875.098a1.995 1.995 0 00-.728.329c-.21.154-.383.355-.518.602s-.222.553-.259.917h4.354c-.047-.616-.245-1.094-.595-1.435-.35-.34-.81-.511-1.379-.511zm10.36-2.492a2.466 2.466 0 00-.525-.147 4.192 4.192 0 00-.693-.049c-.383 0-.758.07-1.127.21-.369.14-.695.369-.98.686-.285.317-.513.733-.686 1.246-.173.513-.259 1.143-.259 1.89 0 .672.077 1.26.231 1.764.154.504.369.924.644 1.26.275.336.607.588.994.756.387.168.819.252 1.295.252.243 0 .469-.021.679-.063.21-.042.404-.1.581-.175v-1.4h1.036v1.89l.014.028a3.66 3.66 0 01-1.064.539c-.43.145-.952.217-1.568.217-.588 0-1.132-.1-1.631-.301a3.41 3.41 0 01-1.295-.917c-.364-.41-.646-.936-.847-1.575-.2-.64-.301-1.398-.301-2.275 0-.915.112-1.692.336-2.331.224-.64.527-1.162.91-1.568a3.452 3.452 0 011.337-.889 4.697 4.697 0 011.631-.28c.317 0 .593.012.826.035.233.023.439.056.616.098s.334.096.469.161c.135.065.268.14.399.224h.014V2.73h-1.036V1.232zm2.786 5.236c0-1.13.294-2.023.882-2.681.588-.658 1.428-.987 2.52-.987.588 0 1.094.096 1.519.287.425.191.777.45 1.057.777.28.327.488.714.623 1.162.135.448.203.929.203 1.442 0 .56-.075 1.066-.224 1.519-.15.453-.369.838-.658 1.155-.29.317-.646.562-1.071.735a3.82 3.82 0 01-1.449.259c-.579 0-1.083-.096-1.512-.287a2.967 2.967 0 01-1.064-.777 3.168 3.168 0 01-.623-1.162 4.963 4.963 0 01-.203-1.442zm1.162 0c0 .327.04.653.119.98.08.327.208.62.385.882.177.261.408.471.693.63.285.159.632.238 1.043.238.747 0 1.309-.231 1.687-.693.378-.462.567-1.141.567-2.037 0-.336-.04-.665-.119-.987a2.608 2.608 0 00-.392-.875 2.066 2.066 0 00-.7-.63c-.285-.159-.632-.238-1.043-.238-.747 0-1.307.229-1.68.686-.373.457-.56 1.139-.56 2.044zm11.522-3.5h1.988v4.774c0 .457.028.896.084 1.316h.938v.91h-1.862l-.042-1.19h-.056a2.938 2.938 0 01-.966.98c-.401.252-.887.378-1.456.378-.43 0-.796-.049-1.099-.147a1.556 1.556 0 01-.749-.511c-.196-.243-.34-.567-.434-.973-.093-.406-.14-.912-.14-1.519v-3.08h-.938v-.938h2.03v3.794c0 .383.016.726.049 1.029.033.303.1.56.203.77.103.21.254.369.455.476.2.107.469.161.805.161.485 0 .908-.159 1.267-.476.36-.317.632-.714.819-1.19V3.906h-.896v-.938zm4.62 2.45a14.051 14.051 0 00-.063-1.176 4.657 4.657 0 00-.049-.364h-.938v-.91h1.876l.126 1.134h.07c.093-.159.217-.315.371-.469a2.91 2.91 0 011.225-.721c.252-.075.518-.112.798-.112.43 0 .81.047 1.141.14.331.093.607.259.826.497.22.238.385.56.497.966.112.406.168.922.168 1.547v4.018h-1.092V6.16c0-.775-.126-1.358-.378-1.75-.252-.392-.71-.588-1.372-.588-.243 0-.478.049-.707.147a2.44 2.44 0 00-.623.385c-.187.159-.35.343-.49.553-.14.21-.243.432-.308.665v4.396h-1.078v-4.55zm7.532-2.45h1.666V1.582l1.092-.308v1.694h3.738v.938h-3.738V7.21c0 .681.166 1.185.497 1.512.331.327.805.49 1.421.49.42 0 .786-.08 1.099-.238.313-.159.595-.331.847-.518l.364.826a3.938 3.938 0 01-1.169.63 4.182 4.182 0 01-1.393.238 3.41 3.41 0 01-1.057-.161 2.426 2.426 0 01-.875-.497 2.38 2.38 0 01-.602-.861c-.15-.35-.224-.768-.224-1.253V3.906h-1.666v-.938zm15.372 6.118c-.168.15-.366.29-.595.42a4.39 4.39 0 01-.749.336c-.27.093-.553.166-.847.217-.294.051-.59.077-.889.077-.56 0-1.055-.086-1.484-.259a2.858 2.858 0 01-1.078-.742 3.234 3.234 0 01-.658-1.155 4.767 4.767 0 01-.224-1.512c0-.588.082-1.11.245-1.568.163-.457.399-.84.707-1.148a3.08 3.08 0 011.12-.707 4.187 4.187 0 011.47-.245c.392 0 .78.051 1.162.154.383.103.721.296 1.015.581.294.285.52.677.679 1.176.159.5.215 1.146.168 1.939h-5.418c0 .84.226 1.468.679 1.883.453.415 1.057.623 1.813.623.252 0 .502-.03.749-.091.247-.06.483-.133.707-.217a3.72 3.72 0 00.595-.28c.173-.103.306-.196.399-.28l.434.798zm-2.954-5.362c-.308 0-.6.033-.875.098a1.995 1.995 0 00-.728.329c-.21.154-.383.355-.518.602s-.222.553-.259.917h4.354c-.047-.616-.245-1.094-.595-1.435-.35-.34-.81-.511-1.379-.511zm4.872 6.244V9.03h1.89V3.906h-1.89v-.938h2.618l.224.91h.07c.317-.29.672-.537 1.064-.742.392-.205.859-.308 1.4-.308.317 0 .572.06.763.182.191.121.34.299.448.532.107.233.18.516.217.847.037.331.056.707.056 1.127l-.98.014c0-.597-.058-1.036-.175-1.316-.117-.28-.329-.42-.637-.42-.29 0-.55.042-.784.126a2.565 2.565 0 00-.609.308c-.173.121-.32.243-.441.364s-.21.224-.266.308v4.13h2.688v.938h-5.656zm13.524 2.968a6.964 6.964 0 01-1.757-.707 5.036 5.036 0 01-1.428-1.225c-.406-.504-.728-1.12-.966-1.848s-.357-1.591-.357-2.59c0-.99.121-1.855.364-2.597s.57-1.372.98-1.89c.41-.518.889-.933 1.435-1.246a6.005 6.005 0 011.729-.665l.35.882a7.086 7.086 0 00-1.512.623 3.928 3.928 0 00-1.183 1.022c-.331.425-.588.952-.77 1.582-.182.63-.273 1.393-.273 2.289 0 .905.11 1.678.329 2.317.22.64.509 1.171.868 1.596.36.425.76.756 1.204.994.443.238.889.404 1.337.497l-.35.966zm4.354-.966a4.965 4.965 0 001.337-.497 4.15 4.15 0 001.204-.994c.36-.425.649-.957.868-1.596.22-.64.329-1.412.329-2.317 0-.896-.091-1.659-.273-2.289-.182-.63-.439-1.157-.77-1.582a3.928 3.928 0 00-1.183-1.022 7.086 7.086 0 00-1.512-.623l.35-.882c.607.13 1.183.352 1.729.665a4.984 4.984 0 011.435 1.246c.41.518.737 1.148.98 1.89s.364 1.608.364 2.597c0 .999-.119 1.862-.357 2.59-.238.728-.56 1.344-.966 1.848a5.036 5.036 0 01-1.428 1.225 6.964 6.964 0 01-1.757.707l-.35-.966zm17.878-2.45c0-.401-.068-.749-.203-1.043a2.44 2.44 0 00-.504-.735c-.2-.196-.415-.34-.644-.434a1.641 1.641 0 00-.609-.14v-.98c.177 0 .38-.04.609-.119.229-.08.443-.21.644-.392.2-.182.369-.418.504-.707.135-.29.203-.649.203-1.078V2.464c0-.336.054-.644.161-.924a2.22 2.22 0 01.448-.728c.191-.205.42-.366.686-.483.266-.117.558-.175.875-.175h2.03v.98h-1.54c-.588 0-.996.14-1.225.42-.229.28-.343.695-.343 1.246v1.358c0 .383-.07.723-.21 1.022a2.7 2.7 0 01-1.106 1.225c-.205.117-.373.184-.504.203v.084c.121.019.285.091.49.217.205.126.406.299.602.518.196.22.366.478.511.777.145.299.217.63.217.994v1.344c0 .57.121.99.364 1.26s.649.406 1.218.406h1.526v.98h-2.03c-.653 0-1.178-.194-1.575-.581-.397-.387-.595-.959-.595-1.715V9.52z"/><path id="letcount=0;returnfunction(){returncount++;};" fill="#9B9B9B" d="M17.346 17.168h2.324v7.448c0 .57.096.97.287 1.204.191.233.474.35.847.35.261 0 .511-.047.749-.14.238-.093.502-.252.791-.476l.504.77c-.15.13-.313.247-.49.35a3.638 3.638 0 01-1.106.42 2.963 2.963 0 01-1.442-.077 1.579 1.579 0 01-.679-.427 1.897 1.897 0 01-.413-.777c-.093-.322-.14-.721-.14-1.197v-6.51h-1.232v-.938zm14.14 8.918c-.168.15-.366.29-.595.42a4.39 4.39 0 01-.749.336c-.27.093-.553.166-.847.217-.294.051-.59.077-.889.077-.56 0-1.055-.086-1.484-.259a2.858 2.858 0 01-1.078-.742 3.234 3.234 0 01-.658-1.155 4.767 4.767 0 01-.224-1.512c0-.588.082-1.11.245-1.568.163-.457.399-.84.707-1.148a3.08 3.08 0 011.12-.707 4.187 4.187 0 011.47-.245c.392 0 .78.051 1.162.154.383.103.721.296 1.015.581.294.285.52.677.679 1.176.159.5.215 1.146.168 1.939H26.11c0 .84.226 1.468.679 1.883.453.415 1.057.623 1.813.623.252 0 .502-.03.749-.091.247-.06.483-.133.707-.217a3.72 3.72 0 00.595-.28c.173-.103.306-.196.399-.28l.434.798zm-2.954-5.362c-.308 0-.6.033-.875.098a1.995 1.995 0 00-.728.329c-.21.154-.383.355-.518.602s-.222.553-.259.917h4.354c-.047-.616-.245-1.094-.595-1.435-.35-.34-.81-.511-1.379-.511zm4.382-.756h1.666v-1.386l1.092-.308v1.694h3.738v.938h-3.738v3.304c0 .681.166 1.185.497 1.512.331.327.805.49 1.421.49.42 0 .786-.08 1.099-.238.313-.159.595-.331.847-.518l.364.826a3.938 3.938 0 01-1.169.63 4.182 4.182 0 01-1.393.238 3.41 3.41 0 01-1.057-.161 2.426 2.426 0 01-.875-.497 2.38 2.38 0 01-.602-.861c-.15-.35-.224-.768-.224-1.253v-3.472h-1.666v-.938zm22.512 1.078a5.531 5.531 0 00-.693-.189 3.61 3.61 0 00-.735-.077c-.915 0-1.596.215-2.044.644-.448.43-.672 1.11-.672 2.044 0 .41.065.777.196 1.099.13.322.317.595.56.819.243.224.534.397.875.518.34.121.716.182 1.127.182.439 0 .866-.075 1.281-.224.415-.15.763-.345 1.043-.588l.49.812c-.13.112-.294.229-.49.35a4.837 4.837 0 01-1.533.602 4.962 4.962 0 01-1.015.098c-.607 0-1.141-.086-1.603-.259a3.045 3.045 0 01-1.155-.742 3.176 3.176 0 01-.7-1.162 4.525 4.525 0 01-.238-1.505c0-.588.082-1.11.245-1.568.163-.457.399-.84.707-1.148a3.08 3.08 0 011.12-.707 4.187 4.187 0 011.47-.245c.69 0 1.253.06 1.687.182.434.121.8.257 1.099.406l-.014.042v1.946h-1.008v-1.33zm3.052 2.422c0-1.13.294-2.023.882-2.681.588-.658 1.428-.987 2.52-.987.588 0 1.094.096 1.519.287.425.191.777.45 1.057.777.28.327.488.714.623 1.162.135.448.203.929.203 1.442 0 .56-.075 1.066-.224 1.519-.15.453-.369.838-.658 1.155-.29.317-.646.562-1.071.735a3.82 3.82 0 01-1.449.259c-.579 0-1.083-.096-1.512-.287a2.967 2.967 0 01-1.064-.777 3.168 3.168 0 01-.623-1.162 4.963 4.963 0 01-.203-1.442zm1.162 0c0 .327.04.653.119.98.08.327.208.62.385.882.177.261.408.471.693.63.285.159.632.238 1.043.238.747 0 1.309-.231 1.687-.693.378-.462.567-1.141.567-2.037 0-.336-.04-.665-.119-.987a2.608 2.608 0 00-.392-.875 2.066 2.066 0 00-.7-.63c-.285-.159-.632-.238-1.043-.238-.747 0-1.307.229-1.68.686-.373.457-.56 1.139-.56 2.044zm11.522-3.5h1.988v4.774c0 .457.028.896.084 1.316h.938v.91H72.31l-.042-1.19h-.056a2.938 2.938 0 01-.966.98c-.401.252-.887.378-1.456.378-.43 0-.796-.049-1.099-.147a1.556 1.556 0 01-.749-.511c-.196-.243-.34-.567-.434-.973-.093-.406-.14-.912-.14-1.519v-3.08h-.938v-.938h2.03v3.794c0 .383.016.726.049 1.029.033.303.1.56.203.77.103.21.254.369.455.476.2.107.469.161.805.161.485 0 .908-.159 1.267-.476.36-.317.632-.714.819-1.19v-3.626h-.896v-.938zm4.62 2.45a14.05 14.05 0 00-.063-1.176 4.657 4.657 0 00-.049-.364h-.938v-.91h1.876l.126 1.134h.07c.093-.159.217-.315.371-.469a2.91 2.91 0 011.225-.721c.252-.075.518-.112.798-.112.43 0 .81.047 1.141.14.331.093.607.259.826.497.22.238.385.56.497.966.112.406.168.922.168 1.547v4.018h-1.092V23.16c0-.775-.126-1.358-.378-1.75-.252-.392-.71-.588-1.372-.588-.243 0-.478.049-.707.147a2.44 2.44 0 00-.623.385c-.187.159-.35.343-.49.553-.14.21-.243.432-.308.665v4.396h-1.078v-4.55zm7.532-2.45h1.666v-1.386l1.092-.308v1.694h3.738v.938h-3.738v3.304c0 .681.166 1.185.497 1.512.331.327.805.49 1.421.49.42 0 .786-.08 1.099-.238.313-.159.595-.331.847-.518l.364.826a3.938 3.938 0 01-1.169.63 4.182 4.182 0 01-1.393.238 3.41 3.41 0 01-1.057-.161 2.426 2.426 0 01-.875-.497 2.38 2.38 0 01-.602-.861c-.15-.35-.224-.768-.224-1.253v-3.472h-1.666v-.938zm17.318.602h6.496v1.008h-6.496V20.57zm0 2.296h6.496v1.008h-6.496v-1.008zm16.618-.798c0-.793.07-1.505.21-2.135.14-.63.35-1.162.63-1.596.28-.434.635-.765 1.064-.994.43-.229.938-.343 1.526-.343.625 0 1.155.112 1.589.336.434.224.786.55 1.057.98.27.43.467.959.588 1.589.121.63.182 1.351.182 2.163a9.88 9.88 0 01-.21 2.135c-.14.63-.35 1.162-.63 1.596-.28.434-.635.765-1.064.994-.43.229-.938.343-1.526.343-.616 0-1.141-.124-1.575-.371a2.956 2.956 0 01-1.064-1.043c-.275-.448-.474-.982-.595-1.603a10.713 10.713 0 01-.182-2.051zm5.698 0c0-.495-.028-.966-.084-1.414l-4.158 3.794c.159.532.397.957.714 1.274.317.317.733.476 1.246.476.821 0 1.407-.34 1.757-1.022.35-.681.525-1.717.525-3.108zm-4.536 0c0 .233.007.457.021.672.014.215.03.425.049.63l4.172-3.78c-.159-.504-.394-.905-.707-1.204-.313-.299-.735-.448-1.267-.448-.83 0-1.416.343-1.757 1.029-.34.686-.511 1.72-.511 3.101zm9.674 4.13c0-.28.091-.506.273-.679.182-.173.418-.259.707-.259.355 0 .63.124.826.371.196.247.294.595.294 1.043a2.36 2.36 0 01-.637 1.659 2.465 2.465 0 01-.588.462c-.21.117-.404.203-.581.259l-.35-.546c.336-.13.625-.317.868-.56.243-.243.364-.537.364-.882-.13.028-.233.042-.308.042-.27 0-.483-.077-.637-.231-.154-.154-.231-.38-.231-.679zm.126-5.502c0-.299.084-.53.252-.693.168-.163.392-.245.672-.245.299 0 .532.082.7.245.168.163.252.394.252.693 0 .27-.084.495-.252.672-.168.177-.401.266-.7.266-.28 0-.504-.089-.672-.266a.938.938 0 01-.252-.672zM16.604 60.968v-.938h1.89v-5.124h-1.89v-.938h2.618l.224.91h.07c.317-.29.672-.537 1.064-.742.392-.205.859-.308 1.4-.308.317 0 .572.06.763.182.191.121.34.299.448.532.107.233.18.516.217.847.037.331.056.707.056 1.127l-.98.014c0-.597-.058-1.036-.175-1.316-.117-.28-.329-.42-.637-.42-.29 0-.55.042-.784.126a2.565 2.565 0 00-.609.308c-.173.121-.32.243-.441.364s-.21.224-.266.308v4.13h2.688v.938h-5.656zm14.882-.882c-.168.15-.366.29-.595.42a4.39 4.39 0 01-.749.336c-.27.093-.553.166-.847.217-.294.051-.59.077-.889.077-.56 0-1.055-.086-1.484-.259a2.858 2.858 0 01-1.078-.742 3.234 3.234 0 01-.658-1.155 4.767 4.767 0 01-.224-1.512c0-.588.082-1.11.245-1.568.163-.457.399-.84.707-1.148a3.08 3.08 0 011.12-.707 4.187 4.187 0 011.47-.245c.392 0 .78.051 1.162.154.383.103.721.296 1.015.581.294.285.52.677.679 1.176.159.5.215 1.146.168 1.939H26.11c0 .84.226 1.468.679 1.883.453.415 1.057.623 1.813.623.252 0 .502-.03.749-.091.247-.06.483-.133.707-.217a3.72 3.72 0 00.595-.28c.173-.103.306-.196.399-.28l.434.798zm-2.954-5.362c-.308 0-.6.033-.875.098a1.995 1.995 0 00-.728.329c-.21.154-.383.355-.518.602s-.222.553-.259.917h4.354c-.047-.616-.245-1.094-.595-1.435-.35-.34-.81-.511-1.379-.511zm4.382-.756h1.666v-1.386l1.092-.308v1.694h3.738v.938h-3.738v3.304c0 .681.166 1.185.497 1.512.331.327.805.49 1.421.49.42 0 .786-.08 1.099-.238.313-.159.595-.331.847-.518l.364.826a3.938 3.938 0 01-1.169.63 4.182 4.182 0 01-1.393.238 3.41 3.41 0 01-1.057-.161 2.426 2.426 0 01-.875-.497 2.38 2.38 0 01-.602-.861c-.15-.35-.224-.768-.224-1.253v-3.472h-1.666v-.938zm13.048 0h1.988v4.774c0 .457.028.896.084 1.316h.938v.91H47.11l-.042-1.19h-.056a2.938 2.938 0 01-.966.98c-.401.252-.887.378-1.456.378-.43 0-.796-.049-1.099-.147a1.556 1.556 0 01-.749-.511c-.196-.243-.34-.567-.434-.973-.093-.406-.14-.912-.14-1.519v-3.08h-.938v-.938h2.03v3.794c0 .383.016.726.049 1.029.033.303.1.56.203.77.103.21.254.369.455.476.2.107.469.161.805.161.485 0 .908-.159 1.267-.476.36-.317.632-.714.819-1.19v-3.626h-.896v-.938zm4.242 7v-.938h1.89v-5.124h-1.89v-.938h2.618l.224.91h.07c.317-.29.672-.537 1.064-.742.392-.205.859-.308 1.4-.308.317 0 .572.06.763.182.191.121.34.299.448.532.107.233.18.516.217.847.037.331.056.707.056 1.127l-.98.014c0-.597-.058-1.036-.175-1.316-.117-.28-.329-.42-.637-.42-.29 0-.55.042-.784.126a2.565 2.565 0 00-.609.308c-.173.121-.32.243-.441.364s-.21.224-.266.308v4.13h2.688v.938h-5.656zm8.778-4.55a14.05 14.05 0 00-.063-1.176 4.657 4.657 0 00-.049-.364h-.938v-.91h1.876l.126 1.134h.07c.093-.159.217-.315.371-.469a2.91 2.91 0 011.225-.721c.252-.075.518-.112.798-.112.43 0 .81.047 1.141.14.331.093.607.259.826.497.22.238.385.56.497.966.112.406.168.922.168 1.547v4.018h-1.092V57.16c0-.775-.126-1.358-.378-1.75-.252-.392-.71-.588-1.372-.588-.243 0-.478.049-.707.147a2.44 2.44 0 00-.623.385c-.187.159-.35.343-.49.553-.14.21-.243.432-.308.665v4.396h-1.078v-4.55zm16.73 4.55v-.938h1.666v-5.124h-1.666v-.938h1.666v-.392c0-.877.229-1.512.686-1.904.457-.392 1.11-.588 1.96-.588.308 0 .583.019.826.056.243.037.504.112.784.224l-.252.91a2.862 2.862 0 00-.7-.203 4.295 4.295 0 00-.616-.049c-.616 0-1.036.152-1.26.455-.224.303-.336.8-.336 1.491h2.898v.938H78.47v5.124h2.898v.938h-5.656zm12.25-7h1.988v4.774c0 .457.028.896.084 1.316h.938v.91H89.11l-.042-1.19h-.056a2.938 2.938 0 01-.966.98c-.401.252-.887.378-1.456.378-.43 0-.796-.049-1.099-.147a1.556 1.556 0 01-.749-.511c-.196-.243-.34-.567-.434-.973-.093-.406-.14-.912-.14-1.519v-3.08h-.938v-.938h2.03v3.794c0 .383.016.726.049 1.029.033.303.1.56.203.77.103.21.254.369.455.476.2.107.469.161.805.161.485 0 .908-.159 1.267-.476.36-.317.632-.714.819-1.19v-3.626h-.896v-.938zm4.62 2.45a14.05 14.05 0 00-.063-1.176 4.657 4.657 0 00-.049-.364h-.938v-.91h1.876l.126 1.134h.07c.093-.159.217-.315.371-.469a2.91 2.91 0 011.225-.721c.252-.075.518-.112.798-.112.43 0 .81.047 1.141.14.331.093.607.259.826.497.22.238.385.56.497.966.112.406.168.922.168 1.547v4.018h-1.092V57.16c0-.775-.126-1.358-.378-1.75-.252-.392-.71-.588-1.372-.588-.243 0-.478.049-.707.147a2.44 2.44 0 00-.623.385c-.187.159-.35.343-.49.553-.14.21-.243.432-.308.665v4.396h-1.078v-4.55zm13.244-1.372a5.531 5.531 0 00-.693-.189 3.61 3.61 0 00-.735-.077c-.915 0-1.596.215-2.044.644-.448.43-.672 1.11-.672 2.044 0 .41.065.777.196 1.099.13.322.317.595.56.819.243.224.534.397.875.518.34.121.716.182 1.127.182.439 0 .866-.075 1.281-.224.415-.15.763-.345 1.043-.588l.49.812c-.13.112-.294.229-.49.35a4.837 4.837 0 01-1.533.602 4.962 4.962 0 01-1.015.098c-.607 0-1.141-.086-1.603-.259a3.045 3.045 0 01-1.155-.742 3.176 3.176 0 01-.7-1.162 4.525 4.525 0 01-.238-1.505c0-.588.082-1.11.245-1.568.163-.457.399-.84.707-1.148a3.08 3.08 0 011.12-.707 4.187 4.187 0 011.47-.245c.69 0 1.253.06 1.687.182.434.121.8.257 1.099.406l-.014.042v1.946h-1.008v-1.33zm2.688-1.078h1.666v-1.386l1.092-.308v1.694h3.738v.938h-3.738v3.304c0 .681.166 1.185.497 1.512.331.327.805.49 1.421.49.42 0 .786-.08 1.099-.238.313-.159.595-.331.847-.518l.364.826a3.938 3.938 0 01-1.169.63 4.182 4.182 0 01-1.393.238 3.41 3.41 0 01-1.057-.161 2.426 2.426 0 01-.875-.497 2.38 2.38 0 01-.602-.861c-.15-.35-.224-.768-.224-1.253v-3.472h-1.666v-.938zm9.436 7v-.938h2.436v-5.124h-2.436v-.938h3.556v6.062h2.38v.938h-5.936zm2.058-8.988c0-.252.084-.469.252-.651a.838.838 0 01.644-.273c.27 0 .497.091.679.273a.889.889 0 01.273.651.806.806 0 01-.273.616.963.963 0 01-.679.252.872.872 0 01-.644-.252.838.838 0 01-.252-.616zm5.67 5.488c0-1.13.294-2.023.882-2.681.588-.658 1.428-.987 2.52-.987.588 0 1.094.096 1.519.287.425.191.777.45 1.057.777.28.327.488.714.623 1.162.135.448.203.929.203 1.442 0 .56-.075 1.066-.224 1.519-.15.453-.369.838-.658 1.155-.29.317-.646.562-1.071.735a3.82 3.82 0 01-1.449.259c-.579 0-1.083-.096-1.512-.287a2.967 2.967 0 01-1.064-.777 3.168 3.168 0 01-.623-1.162 4.963 4.963 0 01-.203-1.442zm1.162 0c0 .327.04.653.119.98.08.327.208.62.385.882.177.261.408.471.693.63.285.159.632.238 1.043.238.747 0 1.309-.231 1.687-.693.378-.462.567-1.141.567-2.037 0-.336-.04-.665-.119-.987a2.608 2.608 0 00-.392-.875 2.066 2.066 0 00-.7-.63c-.285-.159-.632-.238-1.043-.238-.747 0-1.307.229-1.68.686-.373.457-.56 1.139-.56 2.044zm7.742-1.05a14.051 14.051 0 00-.063-1.176 4.657 4.657 0 00-.049-.364h-.938v-.91h1.876l.126 1.134h.07c.093-.159.217-.315.371-.469a2.91 2.91 0 011.225-.721c.252-.075.518-.112.798-.112.43 0 .81.047 1.141.14.331.093.607.259.826.497.22.238.385.56.497.966.112.406.168.922.168 1.547v4.018h-1.092V57.16c0-.775-.126-1.358-.378-1.75-.252-.392-.71-.588-1.372-.588-.243 0-.478.049-.707.147a2.44 2.44 0 00-.623.385c-.187.159-.35.343-.49.553-.14.21-.243.432-.308.665v4.396h-1.078v-4.55zm13.146 7.518a6.964 6.964 0 01-1.757-.707 5.036 5.036 0 01-1.428-1.225c-.406-.504-.728-1.12-.966-1.848s-.357-1.591-.357-2.59c0-.99.121-1.855.364-2.597s.57-1.372.98-1.89c.41-.518.889-.933 1.435-1.246a6.005 6.005 0 011.729-.665l.35.882a7.086 7.086 0 00-1.512.623 3.928 3.928 0 00-1.183 1.022c-.331.425-.588.952-.77 1.582-.182.63-.273 1.393-.273 2.289 0 .905.11 1.678.329 2.317.22.64.509 1.171.868 1.596.36.425.76.756 1.204.994.443.238.889.404 1.337.497l-.35.966zm4.354-.966a4.965 4.965 0 001.337-.497 4.15 4.15 0 001.204-.994c.36-.425.649-.957.868-1.596.22-.64.329-1.412.329-2.317 0-.896-.091-1.659-.273-2.289-.182-.63-.439-1.157-.77-1.582a3.928 3.928 0 00-1.183-1.022 7.086 7.086 0 00-1.512-.623l.35-.882c.607.13 1.183.352 1.729.665a4.984 4.984 0 011.435 1.246c.41.518.737 1.148.98 1.89s.364 1.608.364 2.597c0 .999-.119 1.862-.357 2.59-.238.728-.56 1.344-.966 1.848a5.036 5.036 0 01-1.428 1.225 6.964 6.964 0 01-1.757.707l-.35-.966zm17.878-2.45c0-.401-.068-.749-.203-1.043a2.44 2.44 0 00-.504-.735c-.2-.196-.415-.34-.644-.434a1.641 1.641 0 00-.609-.14v-.98c.177 0 .38-.04.609-.119.229-.08.443-.21.644-.392.2-.182.369-.418.504-.707.135-.29.203-.649.203-1.078v-1.428c0-.336.054-.644.161-.924a2.22 2.22 0 01.448-.728c.191-.205.42-.366.686-.483.266-.117.558-.175.875-.175h2.03v.98h-1.54c-.588 0-.996.14-1.225.42-.229.28-.343.695-.343 1.246v1.358c0 .383-.07.723-.21 1.022a2.7 2.7 0 01-1.106 1.225c-.205.117-.373.184-.504.203v.084c.121.019.285.091.49.217.205.126.406.299.602.518.196.22.366.478.511.777.145.299.217.63.217.994v1.344c0 .57.121.99.364 1.26s.649.406 1.218.406h1.526v.98h-2.03c-.653 0-1.178-.194-1.575-.581-.397-.387-.595-.959-.595-1.715V60.52zM33.404 77.968v-.938h1.89v-5.124h-1.89v-.938h2.618l.224.91h.07c.317-.29.672-.537 1.064-.742.392-.205.859-.308 1.4-.308.317 0 .572.06.763.182.191.121.34.299.448.532.107.233.18.516.217.847.037.331.056.707.056 1.127l-.98.014c0-.597-.058-1.036-.175-1.316-.117-.28-.329-.42-.637-.42-.29 0-.55.042-.784.126a2.565 2.565 0 00-.609.308c-.173.121-.32.243-.441.364s-.21.224-.266.308v4.13h2.688v.938h-5.656zm14.882-.882c-.168.15-.366.29-.595.42a4.39 4.39 0 01-.749.336c-.27.093-.553.166-.847.217-.294.051-.59.077-.889.077-.56 0-1.055-.086-1.484-.259a2.858 2.858 0 01-1.078-.742 3.234 3.234 0 01-.658-1.155 4.767 4.767 0 01-.224-1.512c0-.588.082-1.11.245-1.568.163-.457.399-.84.707-1.148a3.08 3.08 0 011.12-.707 4.187 4.187 0 011.47-.245c.392 0 .78.051 1.162.154.383.103.721.296 1.015.581.294.285.52.677.679 1.176.159.5.215 1.146.168 1.939H42.91c0 .84.226 1.468.679 1.883.453.415 1.057.623 1.813.623.252 0 .502-.03.749-.091.247-.06.483-.133.707-.217a3.72 3.72 0 00.595-.28c.173-.103.306-.196.399-.28l.434.798zm-2.954-5.362c-.308 0-.6.033-.875.098a1.995 1.995 0 00-.728.329c-.21.154-.383.355-.518.602s-.222.553-.259.917h4.354c-.047-.616-.245-1.094-.595-1.435-.35-.34-.81-.511-1.379-.511zm4.382-.756h1.666v-1.386l1.092-.308v1.694h3.738v.938h-3.738v3.304c0 .681.166 1.185.497 1.512.331.327.805.49 1.421.49.42 0 .786-.08 1.099-.238.313-.159.595-.331.847-.518l.364.826a3.938 3.938 0 01-1.169.63 4.182 4.182 0 01-1.393.238 3.41 3.41 0 01-1.057-.161 2.426 2.426 0 01-.875-.497 2.38 2.38 0 01-.602-.861c-.15-.35-.224-.768-.224-1.253v-3.472h-1.666v-.938zm13.048 0h1.988v4.774c0 .457.028.896.084 1.316h.938v.91H63.91l-.042-1.19h-.056a2.938 2.938 0 01-.966.98c-.401.252-.887.378-1.456.378-.43 0-.796-.049-1.099-.147a1.556 1.556 0 01-.749-.511c-.196-.243-.34-.567-.434-.973-.093-.406-.14-.912-.14-1.519v-3.08h-.938v-.938h2.03v3.794c0 .383.016.726.049 1.029.033.303.1.56.203.77.103.21.254.369.455.476.2.107.469.161.805.161.485 0 .908-.159 1.267-.476.36-.317.632-.714.819-1.19v-3.626h-.896v-.938zm4.242 7v-.938h1.89v-5.124h-1.89v-.938h2.618l.224.91h.07c.317-.29.672-.537 1.064-.742.392-.205.859-.308 1.4-.308.317 0 .572.06.763.182.191.121.34.299.448.532.107.233.18.516.217.847.037.331.056.707.056 1.127l-.98.014c0-.597-.058-1.036-.175-1.316-.117-.28-.329-.42-.637-.42-.29 0-.55.042-.784.126a2.565 2.565 0 00-.609.308c-.173.121-.32.243-.441.364s-.21.224-.266.308v4.13h2.688v.938h-5.656zm8.778-4.55a14.05 14.05 0 00-.063-1.176 4.657 4.657 0 00-.049-.364h-.938v-.91h1.876l.126 1.134h.07c.093-.159.217-.315.371-.469a2.91 2.91 0 011.225-.721c.252-.075.518-.112.798-.112.43 0 .81.047 1.141.14.331.093.607.259.826.497.22.238.385.56.497.966.112.406.168.922.168 1.547v4.018h-1.092V74.16c0-.775-.126-1.358-.378-1.75-.252-.392-.71-.588-1.372-.588-.243 0-.478.049-.707.147a2.44 2.44 0 00-.623.385c-.187.159-.35.343-.49.553-.14.21-.243.432-.308.665v4.396h-1.078v-4.55zm21.644-1.372a5.531 5.531 0 00-.693-.189 3.61 3.61 0 00-.735-.077c-.915 0-1.596.215-2.044.644-.448.43-.672 1.11-.672 2.044 0 .41.065.777.196 1.099.13.322.317.595.56.819.243.224.534.397.875.518.34.121.716.182 1.127.182.439 0 .866-.075 1.281-.224.415-.15.763-.345 1.043-.588l.49.812c-.13.112-.294.229-.49.35a4.837 4.837 0 01-1.533.602 4.962 4.962 0 01-1.015.098c-.607 0-1.141-.086-1.603-.259a3.045 3.045 0 01-1.155-.742 3.176 3.176 0 01-.7-1.162 4.525 4.525 0 01-.238-1.505c0-.588.082-1.11.245-1.568.163-.457.399-.84.707-1.148a3.08 3.08 0 011.12-.707 4.187 4.187 0 011.47-.245c.69 0 1.253.06 1.687.182.434.121.8.257 1.099.406l-.014.042v1.946h-1.008v-1.33zm3.052 2.422c0-1.13.294-2.023.882-2.681.588-.658 1.428-.987 2.52-.987.588 0 1.094.096 1.519.287.425.191.777.45 1.057.777.28.327.488.714.623 1.162.135.448.203.929.203 1.442 0 .56-.075 1.066-.224 1.519-.15.453-.369.838-.658 1.155-.29.317-.646.562-1.071.735a3.82 3.82 0 01-1.449.259c-.579 0-1.083-.096-1.512-.287a2.967 2.967 0 01-1.064-.777 3.168 3.168 0 01-.623-1.162 4.963 4.963 0 01-.203-1.442zm1.162 0c0 .327.04.653.119.98.08.327.208.62.385.882.177.261.408.471.693.63.285.159.632.238 1.043.238.747 0 1.309-.231 1.687-.693.378-.462.567-1.141.567-2.037 0-.336-.04-.665-.119-.987a2.608 2.608 0 00-.392-.875 2.066 2.066 0 00-.7-.63c-.285-.159-.632-.238-1.043-.238-.747 0-1.307.229-1.68.686-.373.457-.56 1.139-.56 2.044zm11.522-3.5h1.988v4.774c0 .457.028.896.084 1.316h.938v.91h-1.862l-.042-1.19h-.056a2.938 2.938 0 01-.966.98c-.401.252-.887.378-1.456.378-.43 0-.796-.049-1.099-.147a1.556 1.556 0 01-.749-.511c-.196-.243-.34-.567-.434-.973-.093-.406-.14-.912-.14-1.519v-3.08h-.938v-.938h2.03v3.794c0 .383.016.726.049 1.029.033.303.1.56.203.77.103.21.254.369.455.476.2.107.469.161.805.161.485 0 .908-.159 1.267-.476.36-.317.632-.714.819-1.19v-3.626h-.896v-.938zm4.62 2.45a14.051 14.051 0 00-.063-1.176 4.657 4.657 0 00-.049-.364h-.938v-.91h1.876l.126 1.134h.07c.093-.159.217-.315.371-.469a2.91 2.91 0 011.225-.721c.252-.075.518-.112.798-.112.43 0 .81.047 1.141.14.331.093.607.259.826.497.22.238.385.56.497.966.112.406.168.922.168 1.547v4.018h-1.092V74.16c0-.775-.126-1.358-.378-1.75-.252-.392-.71-.588-1.372-.588-.243 0-.478.049-.707.147a2.44 2.44 0 00-.623.385c-.187.159-.35.343-.49.553-.14.21-.243.432-.308.665v4.396h-1.078v-4.55zm7.532-2.45h1.666v-1.386l1.092-.308v1.694h3.738v.938h-3.738v3.304c0 .681.166 1.185.497 1.512.331.327.805.49 1.421.49.42 0 .786-.08 1.099-.238.313-.159.595-.331.847-.518l.364.826a3.938 3.938 0 01-1.169.63 4.182 4.182 0 01-1.393.238 3.41 3.41 0 01-1.057-.161 2.426 2.426 0 01-.875-.497 2.38 2.38 0 01-.602-.861c-.15-.35-.224-.768-.224-1.253v-3.472h-1.666v-.938zm8.638 1.764h3.024v-3.094h1.008v3.094h3.024v1.008h-3.024v3.094h-1.008V73.74h-3.024v-1.008zm8.4 0h3.024v-3.094h1.008v3.094h3.024v1.008h-3.024v3.094h-1.008V73.74h-3.024v-1.008zm10.934 4.466c0-.28.091-.506.273-.679.182-.173.418-.259.707-.259.355 0 .63.124.826.371.196.247.294.595.294 1.043a2.36 2.36 0 01-.637 1.659 2.465 2.465 0 01-.588.462c-.21.117-.404.203-.581.259l-.35-.546c.336-.13.625-.317.868-.56.243-.243.364-.537.364-.882-.13.028-.233.042-.308.042-.27 0-.483-.077-.637-.231-.154-.154-.231-.38-.231-.679zm.126-5.502c0-.299.084-.53.252-.693.168-.163.392-.245.672-.245.299 0 .532.082.7.245.168.163.252.394.252.693 0 .27-.084.495-.252.672-.168.177-.401.266-.7.266-.28 0-.504-.089-.672-.266a.938.938 0 01-.252-.672zM21 95.892c0 .756-.198 1.328-.595 1.715-.397.387-.922.581-1.575.581H16.8v-.98h1.526c.57 0 .975-.135 1.218-.406.243-.27.364-.69.364-1.26v-1.344c0-.364.07-.695.21-.994.14-.299.308-.558.504-.777.196-.22.397-.392.602-.518.205-.126.373-.198.504-.217v-.084c-.13-.019-.299-.086-.504-.203a2.7 2.7 0 01-1.106-1.225c-.14-.299-.21-.64-.21-1.022V87.8c0-.55-.114-.966-.343-1.246-.229-.28-.637-.42-1.225-.42H16.8v-.98h2.03c.317 0 .609.058.875.175.266.117.495.278.686.483.191.205.34.448.448.728.107.28.161.588.161.924v1.428c0 .43.068.789.203 1.078.135.29.303.525.504.707.2.182.415.313.644.392.229.08.432.119.609.119v.98c-.177 0-.38.047-.609.14a2.011 2.011 0 00-.644.434 2.44 2.44 0 00-.504.735c-.135.294-.203.642-.203 1.043v1.372zm6.286-1.694c0-.28.091-.506.273-.679.182-.173.418-.259.707-.259.355 0 .63.124.826.371.196.247.294.595.294 1.043a2.36 2.36 0 01-.637 1.659 2.465 2.465 0 01-.588.462c-.21.117-.404.203-.581.259l-.35-.546c.336-.13.625-.317.868-.56.243-.243.364-.537.364-.882-.13.028-.233.042-.308.042-.27 0-.483-.077-.637-.231-.154-.154-.231-.38-.231-.679zm.126-5.502c0-.299.084-.53.252-.693.168-.163.392-.245.672-.245.299 0 .532.082.7.245.168.163.252.394.252.693 0 .27-.084.495-.252.672-.168.177-.401.266-.7.266-.28 0-.504-.089-.672-.266a.938.938 0 01-.252-.672z"/><path id="}" fill="#F38158" d="M4.2 112.892c0 .756-.198 1.328-.595 1.715-.397.387-.922.581-1.575.581H0v-.98h1.526c.57 0 .975-.135 1.218-.406.243-.27.364-.69.364-1.26v-1.344c0-.364.07-.695.21-.994.14-.299.308-.558.504-.777.196-.22.397-.392.602-.518.205-.126.373-.198.504-.217v-.084c-.13-.019-.299-.086-.504-.203a2.7 2.7 0 01-1.106-1.225c-.14-.299-.21-.64-.21-1.022V104.8c0-.55-.114-.966-.343-1.246-.229-.28-.637-.42-1.225-.42H0v-.98h2.03c.317 0 .609.058.875.175.266.117.495.278.686.483.191.205.34.448.448.728.107.28.161.588.161.924v1.428c0 .43.068.789.203 1.078.135.29.303.525.504.707.2.182.415.313.644.392.229.08.432.119.609.119v.98c-.177 0-.38.047-.609.14a2.011 2.011 0 00-.644.434 2.44 2.44 0 00-.504.735c-.135.294-.203.642-.203 1.043v1.372z"/><path id="..." fill="#9B9B9B" d="M2.142 128.198c0-.299.084-.53.252-.693.168-.163.392-.245.672-.245.299 0 .532.082.7.245.168.163.252.394.252.693 0 .27-.084.495-.252.672-.168.177-.401.266-.7.266-.28 0-.504-.089-.672-.266a.938.938 0 01-.252-.672zm8.4 0c0-.299.084-.53.252-.693.168-.163.392-.245.672-.245.299 0 .532.082.7.245.168.163.252.394.252.693 0 .27-.084.495-.252.672-.168.177-.401.266-.7.266-.28 0-.504-.089-.672-.266a.938.938 0 01-.252-.672zm8.4 0c0-.299.084-.53.252-.693.168-.163.392-.245.672-.245.299 0 .532.082.7.245.168.163.252.394.252.693 0 .27-.084.495-.252.672-.168.177-.401.266-.7.266-.28 0-.504-.089-.672-.266a.938.938 0 01-.252-.672z"/></g><g id="Group-3" transform="translate(410 5)"><path id="Rectangle-1" fill="#FFF9EB" stroke="#E8C48E" stroke-width="2" d="M1 1h188v27H1z"/><text id="makeCounter:-functio" fill="#8A704D" font-family="PTMono-Regular, PT Mono" font-size="14" font-weight="normal"><tspan x="7" y="18.25">makeCounter: function</tspan></text></g><text id="[[Environment]]" fill="#8A704D" font-family="PTMono-Regular, PT Mono" font-size="14" font-weight="normal"><tspan x="228" y="22">[[Environment]]</tspan></text><g id="Group" transform="translate(606 -2)"><path id="Line" fill="#EE6B47" fill-rule="nonzero" d="M16.5 13.5l14 7-14 7v-6h-14v-2h14v-6z"/><text id="outer" fill="#8A704D" font-family="PTMono-Regular, PT Mono" font-size="12" font-weight="normal"><tspan x="0" y="11">outer</tspan></text></g><path id="Line" fill="#EE6B47" fill-rule="nonzero" d="M372.5 11.5l14 7-14 7v-6h-14v-2h14v-6z"/><g id="Group-5-Copy" stroke="#EE6B47" stroke-linecap="square" transform="matrix(-1 0 0 1 404 4)"><path id="Line-Copy-2" d="M1.417 1.556v136.888"/></g><text id="null" fill="#8A704D" font-family="PTMono-Regular, PT Mono" font-size="14" font-weight="normal"><tspan x="650" y="21">null</tspan></text><path id="Rectangle-1" fill="#EC6B4E" d="M2 24V11l9 6.5"/></g></g></svg>