<?xml version="1.0" encoding="UTF-8"?>
<svg width="689px" height="150px" viewBox="0 0 689 150" version="1.1" xmlns="http://www.w3.org/2000/svg" xmlns:xlink="http://www.w3.org/1999/xlink">
    <!-- Generator: sketchtool 55.2 (78181) - https://sketchapp.com -->
    <title>lexenv-nested-makecounter-1.svg</title>
    <desc>Created with sketchtool.</desc>
    <g id="closure" stroke="none" stroke-width="1" fill="none" fill-rule="evenodd">
        <g id="lexenv-nested-makecounter-1.svg">
            <g id="function-makeCounter" transform="translate(18.000000, 12.000000)" fill-rule="nonzero">
                <path d="M0.112,9.968 L0.112,9.03 L1.778,9.03 L1.778,3.906 L0.112,3.906 L0.112,2.968 L1.778,2.968 L1.778,2.576 C1.778,1.69866228 2.00666438,1.06400196 2.464,0.672 C2.92133562,0.27999804 3.57466242,0.084 4.424,0.084 C4.73200154,0.084 5.00733212,0.10266648 5.25,0.14 C5.49266788,0.17733352 5.7539986,0.25199944 6.034,0.364 L5.782,1.274 C5.53933212,1.17133282 5.30600112,1.10366683 5.082,1.071 C4.85799888,1.03833317 4.6526676,1.022 4.466,1.022 C3.84999692,1.022 3.43000112,1.17366515 3.206,1.477 C2.98199888,1.78033485 2.87,2.27732988 2.87,2.968 L5.768,2.968 L5.768,3.906 L2.87,3.906 L2.87,9.03 L5.768,9.03 L5.768,9.968 L0.112,9.968 Z M12.362,2.968 L14.35,2.968 L14.35,7.742 C14.35,8.19933562 14.3779997,8.6379979 14.434,9.058 L15.372,9.058 L15.372,9.968 L13.51,9.968 L13.468,8.778 L13.412,8.778 C13.1693321,9.17933534 12.8473353,9.50599874 12.446,9.758 C12.0446647,10.0100013 11.5593362,10.136 10.99,10.136 C10.5606645,10.136 10.1943348,10.0870005 9.891,9.989 C9.58766515,9.89099951 9.33800098,9.72066788 9.142,9.478 C8.94599902,9.23533212 8.8013338,8.91100203 8.708,8.505 C8.6146662,8.09899797 8.568,7.5926697 8.568,6.986 L8.568,3.906 L7.63,3.906 L7.63,2.968 L9.66,2.968 L9.66,6.762 C9.66,7.14466858 9.67633317,7.48766515 9.709,7.791 C9.74166683,8.09433485 9.80933282,8.35099895 9.912,8.561 C10.0146672,8.77100105 10.1663323,8.92966613 10.367,9.037 C10.5676677,9.14433387 10.8359983,9.198 11.172,9.198 C11.6573358,9.198 12.0796649,9.03933492 12.439,8.722 C12.7983351,8.40466508 13.0713324,8.00800238 13.258,7.532 L13.258,3.906 L12.362,3.906 L12.362,2.968 Z M16.982,5.418 C16.982,5.33399958 16.9796667,5.22433401 16.975,5.089 C16.9703333,4.95366599 16.9633334,4.81366739 16.954,4.669 C16.9446666,4.52433261 16.9330001,4.3820007 16.919,4.242 C16.9049999,4.1019993 16.8886668,3.98066718 16.87,3.878 L15.932,3.878 L15.932,2.968 L17.808,2.968 L17.934,4.102 L18.004,4.102 C18.0973338,3.94333254 18.2209992,3.78700077 18.375,3.633 C18.5290008,3.47899923 18.7086656,3.33900063 18.914,3.213 C19.1193344,3.08699937 19.3479987,2.98666704 19.6,2.912 C19.8520013,2.83733296 20.1179986,2.8 20.398,2.8 C20.8273355,2.8 21.207665,2.8466662 21.539,2.94 C21.870335,3.0333338 22.1456656,3.19899881 22.365,3.437 C22.5843344,3.67500119 22.7499994,3.99699797 22.862,4.403 C22.9740006,4.80900203 23.03,5.32466354 23.03,5.95 L23.03,9.968 L21.938,9.968 L21.938,6.16 C21.938,5.38532946 21.8120013,4.80200196 21.56,4.41 C21.3079987,4.01799804 20.85067,3.822 20.188,3.822 C19.9453321,3.822 19.7096678,3.87099951 19.481,3.969 C19.2523322,4.06700049 19.0446676,4.19533254 18.858,4.354 C18.6713324,4.51266746 18.5080007,4.69699895 18.368,4.907 C18.2279993,5.11700105 18.1253337,5.3386655 18.06,5.572 L18.06,9.968 L16.982,9.968 L16.982,5.418 Z M30.226,4.046 C30.0113323,3.97133296 29.7803346,3.90833359 29.533,3.857 C29.2856654,3.80566641 29.0406679,3.78 28.798,3.78 C27.8833288,3.78 27.2020022,3.99466452 26.754,4.424 C26.3059978,4.85333548 26.082,5.534662 26.082,6.468 C26.082,6.87866872 26.1473327,7.24499839 26.278,7.567 C26.4086673,7.88900161 26.5953321,8.16199888 26.838,8.386 C27.0806679,8.61000112 27.3723316,8.78266606 27.713,8.904 C28.0536684,9.02533394 28.4293313,9.086 28.84,9.086 C29.2786689,9.086 29.7056646,9.01133408 30.121,8.862 C30.5363354,8.71266592 30.8839986,8.51666788 31.164,8.274 L31.654,9.086 C31.5233327,9.19800056 31.360001,9.31466606 31.164,9.436 C30.967999,9.55733394 30.7416679,9.67166613 30.485,9.779 C30.228332,9.88633387 29.9436682,9.97266634 29.631,10.038 C29.3183318,10.1033337 28.9800018,10.136 28.616,10.136 C28.0093303,10.136 27.4750023,10.0496675 27.013,9.877 C26.5509977,9.70433247 26.1660015,9.45700161 25.858,9.135 C25.5499985,8.81299839 25.3166675,8.42566893 25.158,7.973 C24.9993325,7.52033107 24.92,7.01866942 24.92,6.468 C24.92,5.87999706 25.0016658,5.35733562 25.165,4.9 C25.3283341,4.44266438 25.5639985,4.06000154 25.872,3.752 C26.1800015,3.44399846 26.5533311,3.20833415 26.992,3.045 C27.4306689,2.88166585 27.920664,2.8 28.462,2.8 C29.1526701,2.8 29.7149978,2.86066606 30.149,2.982 C30.5830022,3.10333394 30.9493318,3.23866592 31.248,3.388 L31.234,3.43 L31.234,5.376 L30.226,5.376 L30.226,4.046 Z M32.914,2.968 L34.58,2.968 L34.58,1.582 L35.672,1.274 L35.672,2.968 L39.41,2.968 L39.41,3.906 L35.672,3.906 L35.672,7.21 C35.672,7.89133674 35.837665,8.3953317 36.169,8.722 C36.500335,9.0486683 36.9739969,9.212 37.59,9.212 C38.0100021,9.212 38.3763318,9.13266746 38.689,8.974 C39.0016682,8.81533254 39.2839987,8.6426676 39.536,8.456 L39.9,9.282 C39.5733317,9.54333464 39.1836689,9.75333254 38.731,9.912 C38.2783311,10.0706675 37.8140024,10.15 37.338,10.15 C36.9646648,10.15 36.612335,10.0963339 36.281,9.989 C35.949665,9.88166613 35.6580013,9.71600112 35.406,9.492 C35.1539987,9.26799888 34.9533341,8.98100175 34.804,8.631 C34.6546659,8.28099825 34.58,7.86333576 34.58,7.378 L34.58,3.906 L32.914,3.906 L32.914,2.968 Z M42.35,9.968 L42.35,9.03 L44.786,9.03 L44.786,3.906 L42.35,3.906 L42.35,2.968 L45.906,2.968 L45.906,9.03 L48.286,9.03 L48.286,9.968 L42.35,9.968 Z M44.408,0.98 C44.408,0.72799874 44.4919992,0.51100091 44.66,0.329 C44.8280008,0.14699909 45.0426654,0.056 45.304,0.056 C45.574668,0.056 45.8009991,0.14699909 45.983,0.329 C46.1650009,0.51100091 46.256,0.72799874 46.256,0.98 C46.256,1.22266788 46.1650009,1.42799916 45.983,1.596 C45.8009991,1.76400084 45.574668,1.848 45.304,1.848 C45.0426654,1.848 44.8280008,1.76400084 44.66,1.596 C44.4919992,1.42799916 44.408,1.22266788 44.408,0.98 Z M50.078,6.468 C50.078,5.33866102 50.3719971,4.44500329 50.96,3.787 C51.5480029,3.12899671 52.3879945,2.8 53.48,2.8 C54.0680029,2.8 54.5743312,2.89566571 54.999,3.087 C55.4236688,3.27833429 55.7759986,3.5373317 56.056,3.864 C56.3360014,4.1906683 56.543666,4.57799776 56.679,5.026 C56.814334,5.47400224 56.882,5.9546641 56.882,6.468 C56.882,7.0280028 56.8073341,7.53433107 56.658,7.987 C56.5086659,8.43966893 56.2893348,8.82466508 56,9.142 C55.7106652,9.45933492 55.3536688,9.70433247 54.929,9.877 C54.5043312,10.0496675 54.021336,10.136 53.48,10.136 C52.9013304,10.136 52.3973355,10.0403343 51.968,9.849 C51.5386645,9.65766571 51.1840014,9.3986683 50.904,9.072 C50.6239986,8.7453317 50.416334,8.35800224 50.281,7.91 C50.145666,7.46199776 50.078,6.9813359 50.078,6.468 Z M51.24,6.468 C51.24,6.7946683 51.2796663,7.1213317 51.359,7.448 C51.4383337,7.7746683 51.5666658,8.06866536 51.744,8.33 C51.9213342,8.59133464 52.1523319,8.80133254 52.437,8.96 C52.7216681,9.11866746 53.0693313,9.198 53.48,9.198 C54.2266704,9.198 54.7889981,8.96700231 55.167,8.505 C55.5450019,8.04299769 55.734,7.36400448 55.734,6.468 C55.734,6.13199832 55.6943337,5.80300161 55.615,5.481 C55.5356663,5.15899839 55.4050009,4.86733464 55.223,4.606 C55.0409991,4.34466536 54.8076681,4.13466746 54.523,3.976 C54.2383319,3.81733254 53.8906687,3.738 53.48,3.738 C52.7333296,3.738 52.1733352,3.96666438 51.8,4.424 C51.4266648,4.88133562 51.24,5.56266214 51.24,6.468 Z M58.982,5.418 C58.982,5.33399958 58.9796667,5.22433401 58.975,5.089 C58.9703333,4.95366599 58.9633334,4.81366739 58.954,4.669 C58.9446666,4.52433261 58.9330001,4.3820007 58.919,4.242 C58.9049999,4.1019993 58.8886668,3.98066718 58.87,3.878 L57.932,3.878 L57.932,2.968 L59.808,2.968 L59.934,4.102 L60.004,4.102 C60.0973338,3.94333254 60.2209992,3.78700077 60.375,3.633 C60.5290008,3.47899923 60.7086656,3.33900063 60.914,3.213 C61.1193344,3.08699937 61.3479987,2.98666704 61.6,2.912 C61.8520013,2.83733296 62.1179986,2.8 62.398,2.8 C62.8273355,2.8 63.207665,2.8466662 63.539,2.94 C63.870335,3.0333338 64.1456656,3.19899881 64.365,3.437 C64.5843344,3.67500119 64.7499994,3.99699797 64.862,4.403 C64.9740006,4.80900203 65.03,5.32466354 65.03,5.95 L65.03,9.968 L63.938,9.968 L63.938,6.16 C63.938,5.38532946 63.8120013,4.80200196 63.56,4.41 C63.3079987,4.01799804 62.85067,3.822 62.188,3.822 C61.9453321,3.822 61.7096678,3.87099951 61.481,3.969 C61.2523322,4.06700049 61.0446676,4.19533254 60.858,4.354 C60.6713324,4.51266746 60.5080007,4.69699895 60.368,4.907 C60.2279993,5.11700105 60.1253337,5.3386655 60.06,5.572 L60.06,9.968 L58.982,9.968 L58.982,5.418 Z M78.148,9.968 L78.148,5.306 C78.148,5.10999902 78.1410001,4.92100091 78.127,4.739 C78.1129999,4.55699909 78.0803336,4.39366739 78.029,4.249 C77.9776664,4.10433261 77.9030005,3.99000042 77.805,3.906 C77.7069995,3.82199958 77.5786675,3.78 77.42,3.78 C77.1026651,3.78 76.8343344,3.91066536 76.615,4.172 C76.3956656,4.43333464 76.2300006,4.75999804 76.118,5.152 L76.118,9.968 L75.054,9.968 L75.054,2.968 L75.782,2.968 L75.992,3.822 L76.048,3.822 C76.1413338,3.6819993 76.2323329,3.54900063 76.321,3.423 C76.4096671,3.29699937 76.5123327,3.1873338 76.629,3.094 C76.7456672,3.0006662 76.8833325,2.92833359 77.042,2.877 C77.2006675,2.82566641 77.4013321,2.8 77.644,2.8 C77.7840007,2.8 77.9286659,2.82099979 78.078,2.863 C78.2273341,2.90500021 78.3649994,2.97033289 78.491,3.059 C78.6170006,3.14766711 78.7266662,3.26666592 78.82,3.416 C78.9133338,3.56533408 78.9739999,3.74733226 79.002,3.962 C79.2166677,3.59799818 79.4569987,3.31333436 79.723,3.108 C79.9890013,2.90266564 80.355331,2.8 80.822,2.8 C81.1300015,2.8 81.3796657,2.85133282 81.571,2.954 C81.7623343,3.05666718 81.9116661,3.20366571 82.019,3.395 C82.1263339,3.58633429 82.2009998,3.81499867 82.243,4.081 C82.2850002,4.34700133 82.306,4.6433317 82.306,4.97 L82.306,9.968 L81.242,9.968 L81.242,5.208 C81.242,5.01199902 81.2326668,4.82766753 81.214,4.655 C81.1953332,4.48233247 81.1603336,4.33066732 81.109,4.2 C81.0576664,4.06933268 80.9876671,3.96666704 80.899,3.892 C80.8103329,3.81733296 80.6913341,3.78 80.542,3.78 C80.2153317,3.78 79.9400011,3.91066536 79.716,4.172 C79.4919989,4.43333464 79.3240006,4.80666424 79.212,5.292 L79.212,9.968 L78.148,9.968 Z M84.392,3.514 C84.7933353,3.2806655 85.2459975,3.11266718 85.75,3.01 C86.2540025,2.90733282 86.7486642,2.856 87.234,2.856 C87.7100024,2.856 88.0996651,2.93066592 88.403,3.08 C88.7063348,3.22933408 88.9443325,3.42299881 89.117,3.661 C89.2896675,3.89900119 89.406333,4.16966515 89.467,4.473 C89.527667,4.77633485 89.558,5.08199846 89.558,5.39 C89.558,5.74466844 89.5486668,6.12266466 89.53,6.524 C89.5113332,6.92533534 89.4973334,7.32666466 89.488,7.728 C89.488,8.194669 89.5159997,8.6379979 89.572,9.058 L90.51,9.058 L90.51,9.968 L88.648,9.968 L88.522,8.918 L88.452,8.918 C88.3959997,9.00200042 88.3120006,9.10933268 88.2,9.24 C88.0879994,9.37066732 87.9410009,9.49899937 87.759,9.625 C87.5769991,9.75100063 87.3553346,9.8606662 87.094,9.954 C86.8326654,10.0473338 86.5246684,10.094 86.17,10.094 C85.4793299,10.094 84.9333353,9.91666844 84.532,9.562 C84.1306647,9.20733156 83.93,8.72200308 83.93,8.106 C83.93,7.62999762 84.0349989,7.23333492 84.245,6.916 C84.455001,6.59866508 84.755998,6.356 85.148,6.188 C85.540002,6.01999916 86.0136639,5.92200014 86.569,5.894 C87.1243361,5.86599986 87.7473299,5.90333282 88.438,6.006 C88.4846669,5.57666452 88.4916668,5.21966809 88.459,4.935 C88.4263332,4.65033191 88.3516672,4.42400084 88.235,4.256 C88.1183327,4.08799916 87.955001,3.96900035 87.745,3.899 C87.5349989,3.82899965 87.2760015,3.794 86.968,3.794 C86.5479979,3.794 86.1466686,3.85233275 85.764,3.969 C85.3813314,4.08566725 85.0406682,4.20466606 84.742,4.326 L84.392,3.514 Z M86.45,9.156 C86.7113346,9.156 86.9539989,9.11400042 87.178,9.03 C87.4020011,8.94599958 87.5979992,8.83866732 87.766,8.708 C87.9340008,8.57733268 88.0739994,8.43500077 88.186,8.281 C88.2980006,8.12699923 88.3819997,7.9800007 88.438,7.84 L88.438,6.86 C87.9526642,6.77599958 87.5046687,6.734 87.094,6.734 C86.6833313,6.734 86.3286682,6.77833289 86.03,6.867 C85.7313318,6.95566711 85.4980008,7.0933324 85.33,7.28 C85.1619992,7.4666676 85.078,7.70933184 85.078,8.008 C85.078,8.31600154 85.1829989,8.58433219 85.393,8.813 C85.603001,9.04166781 85.9553309,9.156 86.45,9.156 Z M91.616,0.168 L93.884,0.168 L93.884,5.964 L94.654,5.964 L97.412,2.968 L98.728,2.968 L95.634,6.286 L98.182,9.03 L99.092,9.03 L99.092,9.968 L97.65,9.968 L94.654,6.804 L93.884,6.804 L93.884,9.968 L92.806,9.968 L92.806,1.106 L91.616,1.106 L91.616,0.168 Z M107.086,9.086 C106.917999,9.23533408 106.719668,9.37533268 106.491,9.506 C106.262332,9.63666732 106.012668,9.7486662 105.742,9.842 C105.471332,9.9353338 105.189001,10.0076664 104.895,10.059 C104.600999,10.1103336 104.304668,10.136 104.006,10.136 C103.445997,10.136 102.951335,10.0496675 102.522,9.877 C102.092665,9.70433247 101.733335,9.45700161 101.444,9.135 C101.154665,8.81299839 100.935334,8.42800224 100.786,7.98 C100.636666,7.53199776 100.562,7.0280028 100.562,6.468 C100.562,5.87999706 100.643666,5.35733562 100.807,4.9 C100.970334,4.44266438 101.205998,4.06000154 101.514,3.752 C101.822002,3.44399846 102.195331,3.20833415 102.634,3.045 C103.072669,2.88166585 103.562664,2.8 104.104,2.8 C104.496002,2.8 104.883331,2.85133282 105.266,2.954 C105.648669,3.05666718 105.986999,3.25033191 106.281,3.535 C106.575001,3.81966809 106.801333,4.21166417 106.96,4.711 C107.118667,5.21033583 107.174667,5.8566627 107.128,6.65 L101.71,6.65 C101.71,7.4900042 101.936331,8.11766459 102.389,8.533 C102.841669,8.94833541 103.445996,9.156 104.202,9.156 C104.454001,9.156 104.703665,9.12566697 104.951,9.065 C105.198335,9.00433303 105.433999,8.93200042 105.658,8.848 C105.882001,8.76399958 106.080332,8.67066718 106.253,8.568 C106.425668,8.46533282 106.558666,8.37200042 106.652,8.288 L107.086,9.086 Z M104.132,3.724 C103.823998,3.724 103.532335,3.75666634 103.257,3.822 C102.981665,3.88733366 102.739001,3.99699923 102.529,4.151 C102.318999,4.30500077 102.146334,4.50566543 102.011,4.753 C101.875666,5.00033457 101.789334,5.30599818 101.752,5.67 L106.106,5.67 C106.059333,5.05399692 105.861002,4.57566837 105.511,4.235 C105.160998,3.89433163 104.701336,3.724 104.132,3.724 Z M114.492,1.232 C114.333333,1.16666634 114.158334,1.11766683 113.967,1.085 C113.775666,1.05233317 113.544668,1.036 113.274,1.036 C112.891331,1.036 112.515669,1.1059993 112.147,1.246 C111.778331,1.3860007 111.451668,1.61466508 111.167,1.932 C110.882332,2.24933492 110.653668,2.6646641 110.481,3.178 C110.308332,3.6913359 110.222,4.3213296 110.222,5.068 C110.222,5.74000336 110.298999,6.32799748 110.453,6.832 C110.607001,7.33600252 110.821665,7.75599832 111.097,8.092 C111.372335,8.42800168 111.703665,8.67999916 112.091,8.848 C112.478335,9.01600084 112.909998,9.1 113.386,9.1 C113.628668,9.1 113.854999,9.07900021 114.065,9.037 C114.275001,8.99499979 114.468666,8.93666704 114.646,8.862 L114.646,7.462 L115.682,7.462 L115.682,9.352 L115.696,9.38 C115.415999,9.59466774 115.061335,9.77433261 114.632,9.919 C114.202665,10.0636674 113.680003,10.136 113.064,10.136 C112.475997,10.136 111.932336,10.0356677 111.433,9.835 C110.933664,9.63433233 110.502002,9.32866872 110.138,8.918 C109.773998,8.50733128 109.491668,7.98233653 109.291,7.343 C109.090332,6.70366347 108.99,5.94533772 108.99,5.068 C108.99,4.15332876 109.101999,3.37633653 109.326,2.737 C109.550001,2.09766347 109.853331,1.57500203 110.236,1.169 C110.618669,0.76299797 111.064331,0.4666676 111.573,0.28 C112.081669,0.0933324 112.62533,0 113.204,0 C113.521335,0 113.796665,0.01166655 114.03,0.035 C114.263334,0.05833345 114.468666,0.09099979 114.646,0.133 C114.823334,0.17500021 114.979666,0.22866634 115.115,0.294 C115.250334,0.35933366 115.383333,0.43399958 115.514,0.518 L115.528,0.518 L115.528,2.73 L114.492,2.73 L114.492,1.232 Z M117.278,6.468 C117.278,5.33866102 117.571997,4.44500329 118.16,3.787 C118.748003,3.12899671 119.587995,2.8 120.68,2.8 C121.268003,2.8 121.774331,2.89566571 122.199,3.087 C122.623669,3.27833429 122.975999,3.5373317 123.256,3.864 C123.536001,4.1906683 123.743666,4.57799776 123.879,5.026 C124.014334,5.47400224 124.082,5.9546641 124.082,6.468 C124.082,7.0280028 124.007334,7.53433107 123.858,7.987 C123.708666,8.43966893 123.489335,8.82466508 123.2,9.142 C122.910665,9.45933492 122.553669,9.70433247 122.129,9.877 C121.704331,10.0496675 121.221336,10.136 120.68,10.136 C120.10133,10.136 119.597335,10.0403343 119.168,9.849 C118.738665,9.65766571 118.384001,9.3986683 118.104,9.072 C117.823999,8.7453317 117.616334,8.35800224 117.481,7.91 C117.345666,7.46199776 117.278,6.9813359 117.278,6.468 Z M118.44,6.468 C118.44,6.7946683 118.479666,7.1213317 118.559,7.448 C118.638334,7.7746683 118.766666,8.06866536 118.944,8.33 C119.121334,8.59133464 119.352332,8.80133254 119.637,8.96 C119.921668,9.11866746 120.269331,9.198 120.68,9.198 C121.42667,9.198 121.988998,8.96700231 122.367,8.505 C122.745002,8.04299769 122.934,7.36400448 122.934,6.468 C122.934,6.13199832 122.894334,5.80300161 122.815,5.481 C122.735666,5.15899839 122.605001,4.86733464 122.423,4.606 C122.240999,4.34466536 122.007668,4.13466746 121.723,3.976 C121.438332,3.81733254 121.090669,3.738 120.68,3.738 C119.93333,3.738 119.373335,3.96666438 119,4.424 C118.626665,4.88133562 118.44,5.56266214 118.44,6.468 Z M129.962,2.968 L131.95,2.968 L131.95,7.742 C131.95,8.19933562 131.978,8.6379979 132.034,9.058 L132.972,9.058 L132.972,9.968 L131.11,9.968 L131.068,8.778 L131.012,8.778 C130.769332,9.17933534 130.447335,9.50599874 130.046,9.758 C129.644665,10.0100013 129.159336,10.136 128.59,10.136 C128.160665,10.136 127.794335,10.0870005 127.491,9.989 C127.187665,9.89099951 126.938001,9.72066788 126.742,9.478 C126.545999,9.23533212 126.401334,8.91100203 126.308,8.505 C126.214666,8.09899797 126.168,7.5926697 126.168,6.986 L126.168,3.906 L125.23,3.906 L125.23,2.968 L127.26,2.968 L127.26,6.762 C127.26,7.14466858 127.276333,7.48766515 127.309,7.791 C127.341667,8.09433485 127.409333,8.35099895 127.512,8.561 C127.614667,8.77100105 127.766332,8.92966613 127.967,9.037 C128.167668,9.14433387 128.435998,9.198 128.772,9.198 C129.257336,9.198 129.679665,9.03933492 130.039,8.722 C130.398335,8.40466508 130.671332,8.00800238 130.858,7.532 L130.858,3.906 L129.962,3.906 L129.962,2.968 Z M134.582,5.418 C134.582,5.33399958 134.579667,5.22433401 134.575,5.089 C134.570333,4.95366599 134.563333,4.81366739 134.554,4.669 C134.544667,4.52433261 134.533,4.3820007 134.519,4.242 C134.505,4.1019993 134.488667,3.98066718 134.47,3.878 L133.532,3.878 L133.532,2.968 L135.408,2.968 L135.534,4.102 L135.604,4.102 C135.697334,3.94333254 135.820999,3.78700077 135.975,3.633 C136.129001,3.47899923 136.308666,3.33900063 136.514,3.213 C136.719334,3.08699937 136.947999,2.98666704 137.2,2.912 C137.452001,2.83733296 137.717999,2.8 137.998,2.8 C138.427335,2.8 138.807665,2.8466662 139.139,2.94 C139.470335,3.0333338 139.745666,3.19899881 139.965,3.437 C140.184334,3.67500119 140.349999,3.99699797 140.462,4.403 C140.574001,4.80900203 140.63,5.32466354 140.63,5.95 L140.63,9.968 L139.538,9.968 L139.538,6.16 C139.538,5.38532946 139.412001,4.80200196 139.16,4.41 C138.907999,4.01799804 138.45067,3.822 137.788,3.822 C137.545332,3.822 137.309668,3.87099951 137.081,3.969 C136.852332,4.06700049 136.644668,4.19533254 136.458,4.354 C136.271332,4.51266746 136.108001,4.69699895 135.968,4.907 C135.827999,5.11700105 135.725334,5.3386655 135.66,5.572 L135.66,9.968 L134.582,9.968 L134.582,5.418 Z M142.114,2.968 L143.78,2.968 L143.78,1.582 L144.872,1.274 L144.872,2.968 L148.61,2.968 L148.61,3.906 L144.872,3.906 L144.872,7.21 C144.872,7.89133674 145.037665,8.3953317 145.369,8.722 C145.700335,9.0486683 146.173997,9.212 146.79,9.212 C147.210002,9.212 147.576332,9.13266746 147.889,8.974 C148.201668,8.81533254 148.483999,8.6426676 148.736,8.456 L149.1,9.282 C148.773332,9.54333464 148.383669,9.75333254 147.931,9.912 C147.478331,10.0706675 147.014002,10.15 146.538,10.15 C146.164665,10.15 145.812335,10.0963339 145.481,9.989 C145.149665,9.88166613 144.858001,9.71600112 144.606,9.492 C144.353999,9.26799888 144.153334,8.98100175 144.004,8.631 C143.854666,8.28099825 143.78,7.86333576 143.78,7.378 L143.78,3.906 L142.114,3.906 L142.114,2.968 Z M157.486,9.086 C157.317999,9.23533408 157.119668,9.37533268 156.891,9.506 C156.662332,9.63666732 156.412668,9.7486662 156.142,9.842 C155.871332,9.9353338 155.589001,10.0076664 155.295,10.059 C155.000999,10.1103336 154.704668,10.136 154.406,10.136 C153.845997,10.136 153.351335,10.0496675 152.922,9.877 C152.492665,9.70433247 152.133335,9.45700161 151.844,9.135 C151.554665,8.81299839 151.335334,8.42800224 151.186,7.98 C151.036666,7.53199776 150.962,7.0280028 150.962,6.468 C150.962,5.87999706 151.043666,5.35733562 151.207,4.9 C151.370334,4.44266438 151.605998,4.06000154 151.914,3.752 C152.222002,3.44399846 152.595331,3.20833415 153.034,3.045 C153.472669,2.88166585 153.962664,2.8 154.504,2.8 C154.896002,2.8 155.283331,2.85133282 155.666,2.954 C156.048669,3.05666718 156.386999,3.25033191 156.681,3.535 C156.975001,3.81966809 157.201333,4.21166417 157.36,4.711 C157.518667,5.21033583 157.574667,5.8566627 157.528,6.65 L152.11,6.65 C152.11,7.4900042 152.336331,8.11766459 152.789,8.533 C153.241669,8.94833541 153.845996,9.156 154.602,9.156 C154.854001,9.156 155.103665,9.12566697 155.351,9.065 C155.598335,9.00433303 155.833999,8.93200042 156.058,8.848 C156.282001,8.76399958 156.480332,8.67066718 156.653,8.568 C156.825668,8.46533282 156.958666,8.37200042 157.052,8.288 L157.486,9.086 Z M154.532,3.724 C154.223998,3.724 153.932335,3.75666634 153.657,3.822 C153.381665,3.88733366 153.139001,3.99699923 152.929,4.151 C152.718999,4.30500077 152.546334,4.50566543 152.411,4.753 C152.275666,5.00033457 152.189334,5.30599818 152.152,5.67 L156.506,5.67 C156.459333,5.05399692 156.261002,4.57566837 155.911,4.235 C155.560998,3.89433163 155.101336,3.724 154.532,3.724 Z M159.404,9.968 L159.404,9.03 L161.294,9.03 L161.294,3.906 L159.404,3.906 L159.404,2.968 L162.022,2.968 L162.246,3.878 L162.316,3.878 C162.633335,3.58866522 162.987998,3.34133436 163.38,3.136 C163.772002,2.93066564 164.238664,2.828 164.78,2.828 C165.097335,2.828 165.351666,2.88866606 165.543,3.01 C165.734334,3.13133394 165.883666,3.3086655 165.991,3.542 C166.098334,3.7753345 166.170666,4.05766501 166.208,4.389 C166.245334,4.72033499 166.264,5.0959979 166.264,5.516 L165.284,5.53 C165.284,4.93266368 165.225667,4.4940014 165.109,4.214 C164.992333,3.9339986 164.780002,3.794 164.472,3.794 C164.182665,3.794 163.921334,3.83599958 163.688,3.92 C163.454665,4.00400042 163.251668,4.10666606 163.079,4.228 C162.906332,4.34933394 162.759334,4.47066606 162.638,4.592 C162.516666,4.71333394 162.428,4.81599958 162.372,4.9 L162.372,9.03 L165.06,9.03 L165.06,9.968 L159.404,9.968 Z M172.928,12.936 C172.302664,12.7773325 171.717003,12.5416682 171.171,12.229 C170.624997,11.9163318 170.149002,11.5080025 169.743,11.004 C169.336998,10.4999975 169.015001,9.88400364 168.777,9.156 C168.538999,8.42799636 168.42,7.56467166 168.42,6.566 C168.42,5.57666172 168.541332,4.71100371 168.784,3.969 C169.026668,3.22699629 169.353331,2.59700259 169.764,2.079 C170.174669,1.56099741 170.652997,1.14566823 171.199,0.833 C171.745003,0.52033177 172.32133,0.29866732 172.928,0.168 L173.278,1.05 C172.727331,1.20866746 172.223336,1.41633205 171.766,1.673 C171.308664,1.92966795 170.914335,2.27033121 170.583,2.695 C170.251665,3.11966879 169.995001,3.64699685 169.813,4.277 C169.630999,4.90700315 169.54,5.66999552 169.54,6.566 C169.54,7.47133786 169.649666,8.24366347 169.869,8.883 C170.088334,9.52233653 170.377665,10.0543312 170.737,10.479 C171.096335,10.9036688 171.497664,11.2349988 171.941,11.473 C172.384336,11.7110012 172.829998,11.8766662 173.278,11.97 L172.928,12.936 Z M177.282,11.97 C177.730002,11.8766662 178.175664,11.7110012 178.619,11.473 C179.062336,11.2349988 179.463665,10.9036688 179.823,10.479 C180.182335,10.0543312 180.471666,9.52233653 180.691,8.883 C180.910334,8.24366347 181.02,7.47133786 181.02,6.566 C181.02,5.66999552 180.929001,4.90700315 180.747,4.277 C180.564999,3.64699685 180.308335,3.11966879 179.977,2.695 C179.645665,2.27033121 179.251336,1.92966795 178.794,1.673 C178.336664,1.41633205 177.832669,1.20866746 177.282,1.05 L177.632,0.168 C178.23867,0.29866732 178.814997,0.52033177 179.361,0.833 C179.907003,1.14566823 180.385331,1.56099741 180.796,2.079 C181.206669,2.59700259 181.533332,3.22699629 181.776,3.969 C182.018668,4.71100371 182.14,5.57666172 182.14,6.566 C182.14,7.56467166 182.021001,8.42799636 181.783,9.156 C181.544999,9.88400364 181.223002,10.4999975 180.817,11.004 C180.410998,11.5080025 179.935003,11.9163318 179.389,12.229 C178.842997,12.5416682 178.257336,12.7773325 177.632,12.936 L177.282,11.97 Z M195.16,9.52 C195.16,9.11866466 195.092334,8.77100147 194.957,8.477 C194.821666,8.18299853 194.653668,7.93800098 194.453,7.742 C194.252332,7.54599902 194.037668,7.4013338 193.809,7.308 C193.580332,7.2146662 193.377334,7.168 193.2,7.168 L193.2,6.188 C193.377334,6.188 193.580332,6.14833373 193.809,6.069 C194.037668,5.98966627 194.252332,5.85900091 194.453,5.677 C194.653668,5.49499909 194.821666,5.25933478 194.957,4.97 C195.092334,4.68066522 195.16,4.32133548 195.16,3.892 L195.16,2.464 C195.16,2.12799832 195.213666,1.8200014 195.321,1.54 C195.428334,1.2599986 195.577666,1.01733436 195.769,0.812 C195.960334,0.60666564 196.188999,0.44566725 196.455,0.329 C196.721001,0.21233275 197.012665,0.154 197.33,0.154 L199.36,0.154 L199.36,1.134 L197.82,1.134 C197.231997,1.134 196.823668,1.2739986 196.595,1.554 C196.366332,1.8340014 196.252,2.24933058 196.252,2.8 L196.252,4.158 C196.252,4.54066858 196.182001,4.88133184 196.042,5.18 C195.901999,5.47866816 195.734001,5.72833233 195.538,5.929 C195.341999,6.12966767 195.141334,6.28833275 194.936,6.405 C194.730666,6.52166725 194.562667,6.58933324 194.432,6.608 L194.432,6.692 C194.553334,6.71066676 194.716666,6.78299937 194.922,6.909 C195.127334,7.03500063 195.327999,7.20766557 195.524,7.427 C195.720001,7.64633443 195.890333,7.90533184 196.035,8.204 C196.179667,8.50266816 196.252,8.83399818 196.252,9.198 L196.252,10.542 C196.252,11.1113362 196.373332,11.531332 196.616,11.802 C196.858668,12.072668 197.264664,12.208 197.834,12.208 L199.36,12.208 L199.36,13.188 L197.33,13.188 C196.676663,13.188 196.151669,12.9943353 195.755,12.607 C195.358331,12.2196647 195.16,11.6480038 195.16,10.892 L195.16,9.52 Z" id="functionmakeCounter(){" fill="#EC6B4E"></path>
                <path d="M17.346,17.168 L19.67,17.168 L19.67,24.616 C19.67,25.1853362 19.7656657,25.5866655 19.957,25.82 C20.1483343,26.0533345 20.4306648,26.17 20.804,26.17 C21.0653346,26.17 21.3149988,26.1233338 21.553,26.03 C21.7910012,25.9366662 22.0546652,25.7780011 22.344,25.554 L22.848,26.324 C22.6986659,26.4546673 22.5353342,26.5713328 22.358,26.674 C22.1806658,26.7766672 21.9986676,26.8629996 21.812,26.933 C21.6253324,27.0030003 21.4386676,27.0566665 21.252,27.094 C21.0653324,27.1313335 20.8926675,27.15 20.734,27.15 C20.3886649,27.15 20.080668,27.1056671 19.81,27.017 C19.539332,26.9283329 19.3130009,26.786001 19.131,26.59 C18.9489991,26.393999 18.8113338,26.1350016 18.718,25.813 C18.6246662,25.4909984 18.578,25.0920024 18.578,24.616 L18.578,18.106 L17.346,18.106 L17.346,17.168 Z M31.486,26.086 C31.3179992,26.2353341 31.1196678,26.3753327 30.891,26.506 C30.6623322,26.6366673 30.412668,26.7486662 30.142,26.842 C29.871332,26.9353338 29.5890015,27.0076664 29.295,27.059 C29.0009985,27.1103336 28.7046682,27.136 28.406,27.136 C27.8459972,27.136 27.3513355,27.0496675 26.922,26.877 C26.4926645,26.7043325 26.1333348,26.4570016 25.844,26.135 C25.5546652,25.8129984 25.3353341,25.4280022 25.186,24.98 C25.0366659,24.5319978 24.962,24.0280028 24.962,23.468 C24.962,22.8799971 25.0436659,22.3573356 25.207,21.9 C25.3703342,21.4426644 25.6059985,21.0600015 25.914,20.752 C26.2220015,20.4439985 26.5953311,20.2083341 27.034,20.045 C27.4726689,19.8816658 27.962664,19.8 28.504,19.8 C28.896002,19.8 29.2833314,19.8513328 29.666,19.954 C30.0486686,20.0566672 30.3869985,20.2503319 30.681,20.535 C30.9750015,20.8196681 31.2013325,21.2116642 31.36,21.711 C31.5186675,22.2103358 31.5746669,22.8566627 31.528,23.65 L26.11,23.65 C26.11,24.4900042 26.3363311,25.1176646 26.789,25.533 C27.2416689,25.9483354 27.8459962,26.156 28.602,26.156 C28.8540013,26.156 29.1036654,26.125667 29.351,26.065 C29.5983346,26.004333 29.8339989,25.9320004 30.058,25.848 C30.2820011,25.7639996 30.4803325,25.6706672 30.653,25.568 C30.8256675,25.4653328 30.9586662,25.3720004 31.052,25.288 L31.486,26.086 Z M28.532,20.724 C28.2239985,20.724 27.9323347,20.7566663 27.657,20.822 C27.3816653,20.8873337 27.1390011,20.9969992 26.929,21.151 C26.718999,21.3050008 26.546334,21.5056654 26.411,21.753 C26.275666,22.0003346 26.1893335,22.3059982 26.152,22.67 L30.506,22.67 C30.4593331,22.0539969 30.2610018,21.5756684 29.911,21.235 C29.5609983,20.8943316 29.1013362,20.724 28.532,20.724 Z M32.914,19.968 L34.58,19.968 L34.58,18.582 L35.672,18.274 L35.672,19.968 L39.41,19.968 L39.41,20.906 L35.672,20.906 L35.672,24.21 C35.672,24.8913367 35.837665,25.3953317 36.169,25.722 C36.500335,26.0486683 36.9739969,26.212 37.59,26.212 C38.0100021,26.212 38.3763318,26.1326675 38.689,25.974 C39.0016682,25.8153325 39.2839987,25.6426676 39.536,25.456 L39.9,26.282 C39.5733317,26.5433346 39.1836689,26.7533325 38.731,26.912 C38.2783311,27.0706675 37.8140024,27.15 37.338,27.15 C36.9646648,27.15 36.612335,27.0963339 36.281,26.989 C35.949665,26.8816661 35.6580013,26.7160011 35.406,26.492 C35.1539987,26.2679989 34.9533341,25.9810017 34.804,25.631 C34.6546659,25.2809982 34.58,24.8633358 34.58,24.378 L34.58,20.906 L32.914,20.906 L32.914,19.968 Z M55.426,21.046 C55.2113323,20.971333 54.9803346,20.9083336 54.733,20.857 C54.4856654,20.8056664 54.2406679,20.78 53.998,20.78 C53.0833288,20.78 52.4020022,20.9946645 51.954,21.424 C51.5059978,21.8533355 51.282,22.534662 51.282,23.468 C51.282,23.8786687 51.3473327,24.2449984 51.478,24.567 C51.6086673,24.8890016 51.7953321,25.1619989 52.038,25.386 C52.2806679,25.6100011 52.5723316,25.7826661 52.913,25.904 C53.2536684,26.0253339 53.6293313,26.086 54.04,26.086 C54.4786689,26.086 54.9056646,26.0113341 55.321,25.862 C55.7363354,25.7126659 56.0839986,25.5166679 56.364,25.274 L56.854,26.086 C56.7233327,26.1980006 56.560001,26.3146661 56.364,26.436 C56.167999,26.5573339 55.941668,26.6716661 55.685,26.779 C55.4283321,26.8863339 55.1436682,26.9726663 54.831,27.038 C54.5183318,27.1033337 54.1800018,27.136 53.816,27.136 C53.2093303,27.136 52.6750023,27.0496675 52.213,26.877 C51.7509977,26.7043325 51.3660015,26.4570016 51.058,26.135 C50.7499985,25.8129984 50.5166675,25.4256689 50.358,24.973 C50.1993325,24.5203311 50.12,24.0186694 50.12,23.468 C50.12,22.8799971 50.2016659,22.3573356 50.365,21.9 C50.5283342,21.4426644 50.7639985,21.0600015 51.072,20.752 C51.3800015,20.4439985 51.7533311,20.2083341 52.192,20.045 C52.6306689,19.8816658 53.120664,19.8 53.662,19.8 C54.3526701,19.8 54.9149978,19.8606661 55.349,19.982 C55.7830022,20.1033339 56.1493318,20.2386659 56.448,20.388 L56.434,20.43 L56.434,22.376 L55.426,22.376 L55.426,21.046 Z M58.478,23.468 C58.478,22.338661 58.7719971,21.4450033 59.36,20.787 C59.9480029,20.1289967 60.7879945,19.8 61.88,19.8 C62.4680029,19.8 62.9743312,19.8956657 63.399,20.087 C63.8236688,20.2783343 64.1759986,20.5373317 64.456,20.864 C64.7360014,21.1906683 64.943666,21.5779978 65.079,22.026 C65.214334,22.4740022 65.282,22.9546641 65.282,23.468 C65.282,24.0280028 65.2073341,24.5343311 65.058,24.987 C64.9086659,25.4396689 64.6893348,25.8246651 64.4,26.142 C64.1106652,26.4593349 63.7536688,26.7043325 63.329,26.877 C62.9043312,27.0496675 62.421336,27.136 61.88,27.136 C61.3013304,27.136 60.7973355,27.0403343 60.368,26.849 C59.9386645,26.6576657 59.5840014,26.3986683 59.304,26.072 C59.0239986,25.7453317 58.816334,25.3580022 58.681,24.91 C58.545666,24.4619978 58.478,23.9813359 58.478,23.468 Z M59.64,23.468 C59.64,23.7946683 59.6796663,24.1213317 59.759,24.448 C59.8383337,24.7746683 59.9666658,25.0686654 60.144,25.33 C60.3213342,25.5913346 60.5523319,25.8013325 60.837,25.96 C61.1216681,26.1186675 61.4693313,26.198 61.88,26.198 C62.6266704,26.198 63.1889981,25.9670023 63.567,25.505 C63.9450019,25.0429977 64.134,24.3640045 64.134,23.468 C64.134,23.1319983 64.0943337,22.8030016 64.015,22.481 C63.9356663,22.1589984 63.8050009,21.8673346 63.623,21.606 C63.4409991,21.3446654 63.2076681,21.1346675 62.923,20.976 C62.6383319,20.8173325 62.2906687,20.738 61.88,20.738 C61.1333296,20.738 60.5733352,20.9666644 60.2,21.424 C59.8266648,21.8813356 59.64,22.5626621 59.64,23.468 Z M71.162,19.968 L73.15,19.968 L73.15,24.742 C73.15,25.1993356 73.1779997,25.6379979 73.234,26.058 L74.172,26.058 L74.172,26.968 L72.31,26.968 L72.268,25.778 L72.212,25.778 C71.9693321,26.1793353 71.6473353,26.5059987 71.246,26.758 C70.8446647,27.0100013 70.3593362,27.136 69.79,27.136 C69.3606645,27.136 68.9943349,27.0870005 68.691,26.989 C68.3876652,26.8909995 68.138001,26.7206679 67.942,26.478 C67.745999,26.2353321 67.6013338,25.911002 67.508,25.505 C67.4146662,25.098998 67.368,24.5926697 67.368,23.986 L67.368,20.906 L66.43,20.906 L66.43,19.968 L68.46,19.968 L68.46,23.762 C68.46,24.1446686 68.4763332,24.4876651 68.509,24.791 C68.5416668,25.0943348 68.6093328,25.3509989 68.712,25.561 C68.8146672,25.771001 68.9663323,25.9296661 69.167,26.037 C69.3676677,26.1443339 69.6359983,26.198 69.972,26.198 C70.4573358,26.198 70.8796649,26.0393349 71.239,25.722 C71.5983351,25.4046651 71.8713324,25.0080024 72.058,24.532 L72.058,20.906 L71.162,20.906 L71.162,19.968 Z M75.782,22.418 C75.782,22.3339996 75.7796667,22.224334 75.775,22.089 C75.7703333,21.953666 75.7633334,21.8136674 75.754,21.669 C75.7446666,21.5243326 75.7330001,21.3820007 75.719,21.242 C75.7049999,21.1019993 75.6886668,20.9806672 75.67,20.878 L74.732,20.878 L74.732,19.968 L76.608,19.968 L76.734,21.102 L76.804,21.102 C76.8973338,20.9433325 77.0209992,20.7870008 77.175,20.633 C77.3290008,20.4789992 77.5086656,20.3390006 77.714,20.213 C77.9193344,20.0869994 78.1479987,19.986667 78.4,19.912 C78.6520013,19.837333 78.9179986,19.8 79.198,19.8 C79.6273355,19.8 80.007665,19.8466662 80.339,19.94 C80.670335,20.0333338 80.9456656,20.1989988 81.165,20.437 C81.3843344,20.6750012 81.5499994,20.996998 81.662,21.403 C81.7740006,21.809002 81.83,22.3246635 81.83,22.95 L81.83,26.968 L80.738,26.968 L80.738,23.16 C80.738,22.3853295 80.6120013,21.802002 80.36,21.41 C80.1079987,21.017998 79.65067,20.822 78.988,20.822 C78.7453321,20.822 78.5096678,20.8709995 78.281,20.969 C78.0523322,21.0670005 77.8446676,21.1953325 77.658,21.354 C77.4713324,21.5126675 77.3080007,21.6969989 77.168,21.907 C77.0279993,22.117001 76.9253337,22.3386655 76.86,22.572 L76.86,26.968 L75.782,26.968 L75.782,22.418 Z M83.314,19.968 L84.98,19.968 L84.98,18.582 L86.072,18.274 L86.072,19.968 L89.81,19.968 L89.81,20.906 L86.072,20.906 L86.072,24.21 C86.072,24.8913367 86.237665,25.3953317 86.569,25.722 C86.900335,26.0486683 87.3739969,26.212 87.99,26.212 C88.4100021,26.212 88.7763318,26.1326675 89.089,25.974 C89.4016682,25.8153325 89.6839987,25.6426676 89.936,25.456 L90.3,26.282 C89.9733317,26.5433346 89.5836689,26.7533325 89.131,26.912 C88.6783311,27.0706675 88.2140024,27.15 87.738,27.15 C87.3646648,27.15 87.012335,27.0963339 86.681,26.989 C86.349665,26.8816661 86.0580013,26.7160011 85.806,26.492 C85.5539987,26.2679989 85.3533341,25.9810017 85.204,25.631 C85.0546659,25.2809982 84.98,24.8633358 84.98,24.378 L84.98,20.906 L83.314,20.906 L83.314,19.968 Z M100.632,20.57 L107.128,20.57 L107.128,21.578 L100.632,21.578 L100.632,20.57 Z M100.632,22.866 L107.128,22.866 L107.128,23.874 L100.632,23.874 L100.632,22.866 Z M117.25,22.068 C117.25,21.2746627 117.319999,20.5630031 117.46,19.933 C117.600001,19.3029968 117.809999,18.7710022 118.09,18.337 C118.370001,17.9029978 118.724665,17.5716678 119.154,17.343 C119.583335,17.1143322 120.091997,17 120.68,17 C121.305336,17 121.834998,17.1119989 122.269,17.336 C122.703002,17.5600011 123.055332,17.8866645 123.326,18.316 C123.596668,18.7453355 123.792666,19.2749969 123.914,19.905 C124.035334,20.5350031 124.096,21.2559959 124.096,22.068 C124.096,22.8613373 124.026001,23.5729969 123.886,24.203 C123.745999,24.8330031 123.536001,25.3649978 123.256,25.799 C122.975999,26.2330022 122.621335,26.5643322 122.192,26.793 C121.762665,27.0216678 121.254003,27.136 120.666,27.136 C120.049997,27.136 119.525002,27.0123346 119.091,26.765 C118.656998,26.5176654 118.302335,26.1700022 118.027,25.722 C117.751665,25.2739978 117.553334,24.7396698 117.432,24.119 C117.310666,23.4983302 117.25,22.8146704 117.25,22.068 Z M122.948,22.068 C122.948,21.5733309 122.92,21.1020022 122.864,20.654 L118.706,24.448 C118.864667,24.9800027 119.102665,25.4046651 119.42,25.722 C119.737335,26.0393349 120.152664,26.198 120.666,26.198 C121.487337,26.198 122.072998,25.8573367 122.423,25.176 C122.773002,24.4946633 122.948,23.4586736 122.948,22.068 Z M118.412,22.068 C118.412,22.3013345 118.419,22.5253323 118.433,22.74 C118.447,22.9546677 118.463333,23.1646656 118.482,23.37 L122.654,19.59 C122.495333,19.0859975 122.259668,18.6846682 121.947,18.386 C121.634332,18.0873318 121.212003,17.938 120.68,17.938 C119.849329,17.938 119.263668,18.2809966 118.923,18.967 C118.582332,19.6530034 118.412,20.6866598 118.412,22.068 Z M128.086,26.198 C128.086,25.9179986 128.176999,25.6916675 128.359,25.519 C128.541001,25.3463325 128.776665,25.26 129.066,25.26 C129.420668,25.26 129.695999,25.3836654 129.892,25.631 C130.088001,25.8783346 130.186,26.2259978 130.186,26.674 C130.186,27.0380018 130.125334,27.3576653 130.004,27.633 C129.882666,27.9083347 129.731001,28.1416657 129.549,28.333 C129.366999,28.5243343 129.171001,28.6783327 128.961,28.795 C128.750999,28.9116672 128.557334,28.9979997 128.38,29.054 L128.03,28.508 C128.366002,28.3773327 128.655332,28.1906679 128.898,27.948 C129.140668,27.7053321 129.262,27.4113351 129.262,27.066 C129.131333,27.0940001 129.028667,27.108 128.954,27.108 C128.683332,27.108 128.471001,27.0310008 128.317,26.877 C128.162999,26.7229992 128.086,26.4966682 128.086,26.198 Z M128.212,20.696 C128.212,20.3973318 128.295999,20.1663341 128.464,20.003 C128.632001,19.8396658 128.855999,19.758 129.136,19.758 C129.434668,19.758 129.667999,19.8396658 129.836,20.003 C130.004001,20.1663341 130.088,20.3973318 130.088,20.696 C130.088,20.966668 130.004001,21.1906658 129.836,21.368 C129.667999,21.5453342 129.434668,21.634 129.136,21.634 C128.855999,21.634 128.632001,21.5453342 128.464,21.368 C128.295999,21.1906658 128.212,20.966668 128.212,20.696 Z M16.604,60.968 L16.604,60.03 L18.494,60.03 L18.494,54.906 L16.604,54.906 L16.604,53.968 L19.222,53.968 L19.446,54.878 L19.516,54.878 C19.8333349,54.5886652 20.187998,54.3413344 20.58,54.136 C20.972002,53.9306656 21.438664,53.828 21.98,53.828 C22.2973349,53.828 22.5516657,53.8886661 22.743,54.01 C22.9343343,54.1313339 23.0836661,54.3086655 23.191,54.542 C23.2983339,54.7753345 23.3706665,55.057665 23.408,55.389 C23.4453335,55.720335 23.464,56.0959979 23.464,56.516 L22.484,56.53 C22.484,55.9326637 22.4256673,55.4940014 22.309,55.214 C22.1923328,54.9339986 21.9800015,54.794 21.672,54.794 C21.3826652,54.794 21.1213345,54.8359996 20.888,54.92 C20.6546655,55.0040004 20.4516675,55.1066661 20.279,55.228 C20.1063325,55.3493339 19.9593339,55.4706661 19.838,55.592 C19.7166661,55.7133339 19.6280003,55.8159996 19.572,55.9 L19.572,60.03 L22.26,60.03 L22.26,60.968 L16.604,60.968 Z M31.486,60.086 C31.3179992,60.2353341 31.1196678,60.3753327 30.891,60.506 C30.6623322,60.6366673 30.412668,60.7486662 30.142,60.842 C29.871332,60.9353338 29.5890015,61.0076664 29.295,61.059 C29.0009985,61.1103336 28.7046682,61.136 28.406,61.136 C27.8459972,61.136 27.3513355,61.0496675 26.922,60.877 C26.4926645,60.7043325 26.1333348,60.4570016 25.844,60.135 C25.5546652,59.8129984 25.3353341,59.4280022 25.186,58.98 C25.0366659,58.5319978 24.962,58.0280028 24.962,57.468 C24.962,56.8799971 25.0436659,56.3573356 25.207,55.9 C25.3703342,55.4426644 25.6059985,55.0600015 25.914,54.752 C26.2220015,54.4439985 26.5953311,54.2083341 27.034,54.045 C27.4726689,53.8816658 27.962664,53.8 28.504,53.8 C28.896002,53.8 29.2833314,53.8513328 29.666,53.954 C30.0486686,54.0566672 30.3869985,54.2503319 30.681,54.535 C30.9750015,54.8196681 31.2013325,55.2116642 31.36,55.711 C31.5186675,56.2103358 31.5746669,56.8566627 31.528,57.65 L26.11,57.65 C26.11,58.4900042 26.3363311,59.1176646 26.789,59.533 C27.2416689,59.9483354 27.8459962,60.156 28.602,60.156 C28.8540013,60.156 29.1036654,60.125667 29.351,60.065 C29.5983346,60.004333 29.8339989,59.9320004 30.058,59.848 C30.2820011,59.7639996 30.4803325,59.6706672 30.653,59.568 C30.8256675,59.4653328 30.9586662,59.3720004 31.052,59.288 L31.486,60.086 Z M28.532,54.724 C28.2239985,54.724 27.9323347,54.7566663 27.657,54.822 C27.3816653,54.8873337 27.1390011,54.9969992 26.929,55.151 C26.718999,55.3050008 26.546334,55.5056654 26.411,55.753 C26.275666,56.0003346 26.1893335,56.3059982 26.152,56.67 L30.506,56.67 C30.4593331,56.0539969 30.2610018,55.5756684 29.911,55.235 C29.5609983,54.8943316 29.1013362,54.724 28.532,54.724 Z M32.914,53.968 L34.58,53.968 L34.58,52.582 L35.672,52.274 L35.672,53.968 L39.41,53.968 L39.41,54.906 L35.672,54.906 L35.672,58.21 C35.672,58.8913367 35.837665,59.3953317 36.169,59.722 C36.500335,60.0486683 36.9739969,60.212 37.59,60.212 C38.0100021,60.212 38.3763318,60.1326675 38.689,59.974 C39.0016682,59.8153325 39.2839987,59.6426676 39.536,59.456 L39.9,60.282 C39.5733317,60.5433346 39.1836689,60.7533325 38.731,60.912 C38.2783311,61.0706675 37.8140024,61.15 37.338,61.15 C36.9646648,61.15 36.612335,61.0963339 36.281,60.989 C35.949665,60.8816661 35.6580013,60.7160011 35.406,60.492 C35.1539987,60.2679989 34.9533341,59.9810017 34.804,59.631 C34.6546659,59.2809982 34.58,58.8633358 34.58,58.378 L34.58,54.906 L32.914,54.906 L32.914,53.968 Z M45.962,53.968 L47.95,53.968 L47.95,58.742 C47.95,59.1993356 47.9779997,59.6379979 48.034,60.058 L48.972,60.058 L48.972,60.968 L47.11,60.968 L47.068,59.778 L47.012,59.778 C46.7693321,60.1793353 46.4473353,60.5059987 46.046,60.758 C45.6446647,61.0100013 45.1593362,61.136 44.59,61.136 C44.1606645,61.136 43.7943349,61.0870005 43.491,60.989 C43.1876652,60.8909995 42.938001,60.7206679 42.742,60.478 C42.545999,60.2353321 42.4013338,59.911002 42.308,59.505 C42.2146662,59.098998 42.168,58.5926697 42.168,57.986 L42.168,54.906 L41.23,54.906 L41.23,53.968 L43.26,53.968 L43.26,57.762 C43.26,58.1446686 43.2763332,58.4876651 43.309,58.791 C43.3416668,59.0943348 43.4093328,59.3509989 43.512,59.561 C43.6146672,59.771001 43.7663323,59.9296661 43.967,60.037 C44.1676677,60.1443339 44.4359983,60.198 44.772,60.198 C45.2573358,60.198 45.6796649,60.0393349 46.039,59.722 C46.3983351,59.4046651 46.6713324,59.0080024 46.858,58.532 L46.858,54.906 L45.962,54.906 L45.962,53.968 Z M50.204,60.968 L50.204,60.03 L52.094,60.03 L52.094,54.906 L50.204,54.906 L50.204,53.968 L52.822,53.968 L53.046,54.878 L53.116,54.878 C53.4333349,54.5886652 53.787998,54.3413344 54.18,54.136 C54.572002,53.9306656 55.038664,53.828 55.58,53.828 C55.8973349,53.828 56.1516657,53.8886661 56.343,54.01 C56.5343343,54.1313339 56.6836661,54.3086655 56.791,54.542 C56.8983339,54.7753345 56.9706665,55.057665 57.008,55.389 C57.0453335,55.720335 57.064,56.0959979 57.064,56.516 L56.084,56.53 C56.084,55.9326637 56.0256673,55.4940014 55.909,55.214 C55.7923328,54.9339986 55.5800015,54.794 55.272,54.794 C54.9826652,54.794 54.7213345,54.8359996 54.488,54.92 C54.2546655,55.0040004 54.0516675,55.1066661 53.879,55.228 C53.7063325,55.3493339 53.5593339,55.4706661 53.438,55.592 C53.3166661,55.7133339 53.2280003,55.8159996 53.172,55.9 L53.172,60.03 L55.86,60.03 L55.86,60.968 L50.204,60.968 Z M58.982,56.418 C58.982,56.3339996 58.9796667,56.224334 58.975,56.089 C58.9703333,55.953666 58.9633334,55.8136674 58.954,55.669 C58.9446666,55.5243326 58.9330001,55.3820007 58.919,55.242 C58.9049999,55.1019993 58.8886668,54.9806672 58.87,54.878 L57.932,54.878 L57.932,53.968 L59.808,53.968 L59.934,55.102 L60.004,55.102 C60.0973338,54.9433325 60.2209992,54.7870008 60.375,54.633 C60.5290008,54.4789992 60.7086656,54.3390006 60.914,54.213 C61.1193344,54.0869994 61.3479987,53.986667 61.6,53.912 C61.8520013,53.837333 62.1179986,53.8 62.398,53.8 C62.8273355,53.8 63.207665,53.8466662 63.539,53.94 C63.870335,54.0333338 64.1456656,54.1989988 64.365,54.437 C64.5843344,54.6750012 64.7499994,54.996998 64.862,55.403 C64.9740006,55.809002 65.03,56.3246635 65.03,56.95 L65.03,60.968 L63.938,60.968 L63.938,57.16 C63.938,56.3853295 63.8120013,55.802002 63.56,55.41 C63.3079987,55.017998 62.85067,54.822 62.188,54.822 C61.9453321,54.822 61.7096678,54.8709995 61.481,54.969 C61.2523322,55.0670005 61.0446676,55.1953325 60.858,55.354 C60.6713324,55.5126675 60.5080007,55.6969989 60.368,55.907 C60.2279993,56.117001 60.1253337,56.3386655 60.06,56.572 L60.06,60.968 L58.982,60.968 L58.982,56.418 Z M75.712,60.968 L75.712,60.03 L77.378,60.03 L77.378,54.906 L75.712,54.906 L75.712,53.968 L77.378,53.968 L77.378,53.576 C77.378,52.6986623 77.6066644,52.064002 78.064,51.672 C78.5213356,51.279998 79.1746624,51.084 80.024,51.084 C80.3320015,51.084 80.6073321,51.1026665 80.85,51.14 C81.0926679,51.1773335 81.3539986,51.2519994 81.634,51.364 L81.382,52.274 C81.1393321,52.1713328 80.9060011,52.1036668 80.682,52.071 C80.4579989,52.0383332 80.2526676,52.022 80.066,52.022 C79.4499969,52.022 79.0300011,52.1736651 78.806,52.477 C78.5819989,52.7803348 78.47,53.2773299 78.47,53.968 L81.368,53.968 L81.368,54.906 L78.47,54.906 L78.47,60.03 L81.368,60.03 L81.368,60.968 L75.712,60.968 Z M87.962,53.968 L89.95,53.968 L89.95,58.742 C89.95,59.1993356 89.9779997,59.6379979 90.034,60.058 L90.972,60.058 L90.972,60.968 L89.11,60.968 L89.068,59.778 L89.012,59.778 C88.7693321,60.1793353 88.4473353,60.5059987 88.046,60.758 C87.6446647,61.0100013 87.1593362,61.136 86.59,61.136 C86.1606645,61.136 85.7943349,61.0870005 85.491,60.989 C85.1876652,60.8909995 84.938001,60.7206679 84.742,60.478 C84.545999,60.2353321 84.4013338,59.911002 84.308,59.505 C84.2146662,59.098998 84.168,58.5926697 84.168,57.986 L84.168,54.906 L83.23,54.906 L83.23,53.968 L85.26,53.968 L85.26,57.762 C85.26,58.1446686 85.2763332,58.4876651 85.309,58.791 C85.3416668,59.0943348 85.4093328,59.3509989 85.512,59.561 C85.6146672,59.771001 85.7663323,59.9296661 85.967,60.037 C86.1676677,60.1443339 86.4359983,60.198 86.772,60.198 C87.2573358,60.198 87.6796649,60.0393349 88.039,59.722 C88.3983351,59.4046651 88.6713324,59.0080024 88.858,58.532 L88.858,54.906 L87.962,54.906 L87.962,53.968 Z M92.582,56.418 C92.582,56.3339996 92.5796667,56.224334 92.575,56.089 C92.5703333,55.953666 92.5633334,55.8136674 92.554,55.669 C92.5446666,55.5243326 92.5330001,55.3820007 92.519,55.242 C92.5049999,55.1019993 92.4886668,54.9806672 92.47,54.878 L91.532,54.878 L91.532,53.968 L93.408,53.968 L93.534,55.102 L93.604,55.102 C93.6973338,54.9433325 93.8209992,54.7870008 93.975,54.633 C94.1290008,54.4789992 94.3086656,54.3390006 94.514,54.213 C94.7193344,54.0869994 94.9479987,53.986667 95.2,53.912 C95.4520013,53.837333 95.7179986,53.8 95.998,53.8 C96.4273355,53.8 96.807665,53.8466662 97.139,53.94 C97.470335,54.0333338 97.7456656,54.1989988 97.965,54.437 C98.1843344,54.6750012 98.3499994,54.996998 98.462,55.403 C98.5740006,55.809002 98.63,56.3246635 98.63,56.95 L98.63,60.968 L97.538,60.968 L97.538,57.16 C97.538,56.3853295 97.4120013,55.802002 97.16,55.41 C96.9079987,55.017998 96.45067,54.822 95.788,54.822 C95.5453321,54.822 95.3096678,54.8709995 95.081,54.969 C94.8523322,55.0670005 94.6446676,55.1953325 94.458,55.354 C94.2713324,55.5126675 94.1080007,55.6969989 93.968,55.907 C93.8279993,56.117001 93.7253337,56.3386655 93.66,56.572 L93.66,60.968 L92.582,60.968 L92.582,56.418 Z M105.826,55.046 C105.611332,54.971333 105.380335,54.9083336 105.133,54.857 C104.885665,54.8056664 104.640668,54.78 104.398,54.78 C103.483329,54.78 102.802002,54.9946645 102.354,55.424 C101.905998,55.8533355 101.682,56.534662 101.682,57.468 C101.682,57.8786687 101.747333,58.2449984 101.878,58.567 C102.008667,58.8890016 102.195332,59.1619989 102.438,59.386 C102.680668,59.6100011 102.972332,59.7826661 103.313,59.904 C103.653668,60.0253339 104.029331,60.086 104.44,60.086 C104.878669,60.086 105.305665,60.0113341 105.721,59.862 C106.136335,59.7126659 106.483999,59.5166679 106.764,59.274 L107.254,60.086 C107.123333,60.1980006 106.960001,60.3146661 106.764,60.436 C106.567999,60.5573339 106.341668,60.6716661 106.085,60.779 C105.828332,60.8863339 105.543668,60.9726663 105.231,61.038 C104.918332,61.1033337 104.580002,61.136 104.216,61.136 C103.60933,61.136 103.075002,61.0496675 102.613,60.877 C102.150998,60.7043325 101.766002,60.4570016 101.458,60.135 C101.149998,59.8129984 100.916667,59.4256689 100.758,58.973 C100.599333,58.5203311 100.52,58.0186694 100.52,57.468 C100.52,56.8799971 100.601666,56.3573356 100.765,55.9 C100.928334,55.4426644 101.163998,55.0600015 101.472,54.752 C101.780002,54.4439985 102.153331,54.2083341 102.592,54.045 C103.030669,53.8816658 103.520664,53.8 104.062,53.8 C104.75267,53.8 105.314998,53.8606661 105.749,53.982 C106.183002,54.1033339 106.549332,54.2386659 106.848,54.388 L106.834,54.43 L106.834,56.376 L105.826,56.376 L105.826,55.046 Z M108.514,53.968 L110.18,53.968 L110.18,52.582 L111.272,52.274 L111.272,53.968 L115.01,53.968 L115.01,54.906 L111.272,54.906 L111.272,58.21 C111.272,58.8913367 111.437665,59.3953317 111.769,59.722 C112.100335,60.0486683 112.573997,60.212 113.19,60.212 C113.610002,60.212 113.976332,60.1326675 114.289,59.974 C114.601668,59.8153325 114.883999,59.6426676 115.136,59.456 L115.5,60.282 C115.173332,60.5433346 114.783669,60.7533325 114.331,60.912 C113.878331,61.0706675 113.414002,61.15 112.938,61.15 C112.564665,61.15 112.212335,61.0963339 111.881,60.989 C111.549665,60.8816661 111.258001,60.7160011 111.006,60.492 C110.753999,60.2679989 110.553334,59.9810017 110.404,59.631 C110.254666,59.2809982 110.18,58.8633358 110.18,58.378 L110.18,54.906 L108.514,54.906 L108.514,53.968 Z M117.95,60.968 L117.95,60.03 L120.386,60.03 L120.386,54.906 L117.95,54.906 L117.95,53.968 L121.506,53.968 L121.506,60.03 L123.886,60.03 L123.886,60.968 L117.95,60.968 Z M120.008,51.98 C120.008,51.7279987 120.091999,51.5110009 120.26,51.329 C120.428001,51.1469991 120.642665,51.056 120.904,51.056 C121.174668,51.056 121.400999,51.1469991 121.583,51.329 C121.765001,51.5110009 121.856,51.7279987 121.856,51.98 C121.856,52.2226679 121.765001,52.4279992 121.583,52.596 C121.400999,52.7640008 121.174668,52.848 120.904,52.848 C120.642665,52.848 120.428001,52.7640008 120.26,52.596 C120.091999,52.4279992 120.008,52.2226679 120.008,51.98 Z M125.678,57.468 C125.678,56.338661 125.971997,55.4450033 126.56,54.787 C127.148003,54.1289967 127.987995,53.8 129.08,53.8 C129.668003,53.8 130.174331,53.8956657 130.599,54.087 C131.023669,54.2783343 131.375999,54.5373317 131.656,54.864 C131.936001,55.1906683 132.143666,55.5779978 132.279,56.026 C132.414334,56.4740022 132.482,56.9546641 132.482,57.468 C132.482,58.0280028 132.407334,58.5343311 132.258,58.987 C132.108666,59.4396689 131.889335,59.8246651 131.6,60.142 C131.310665,60.4593349 130.953669,60.7043325 130.529,60.877 C130.104331,61.0496675 129.621336,61.136 129.08,61.136 C128.50133,61.136 127.997335,61.0403343 127.568,60.849 C127.138665,60.6576657 126.784001,60.3986683 126.504,60.072 C126.223999,59.7453317 126.016334,59.3580022 125.881,58.91 C125.745666,58.4619978 125.678,57.9813359 125.678,57.468 Z M126.84,57.468 C126.84,57.7946683 126.879666,58.1213317 126.959,58.448 C127.038334,58.7746683 127.166666,59.0686654 127.344,59.33 C127.521334,59.5913346 127.752332,59.8013325 128.037,59.96 C128.321668,60.1186675 128.669331,60.198 129.08,60.198 C129.82667,60.198 130.388998,59.9670023 130.767,59.505 C131.145002,59.0429977 131.334,58.3640045 131.334,57.468 C131.334,57.1319983 131.294334,56.8030016 131.215,56.481 C131.135666,56.1589984 131.005001,55.8673346 130.823,55.606 C130.640999,55.3446654 130.407668,55.1346675 130.123,54.976 C129.838332,54.8173325 129.490669,54.738 129.08,54.738 C128.33333,54.738 127.773335,54.9666644 127.4,55.424 C127.026665,55.8813356 126.84,56.5626621 126.84,57.468 Z M134.582,56.418 C134.582,56.3339996 134.579667,56.224334 134.575,56.089 C134.570333,55.953666 134.563333,55.8136674 134.554,55.669 C134.544667,55.5243326 134.533,55.3820007 134.519,55.242 C134.505,55.1019993 134.488667,54.9806672 134.47,54.878 L133.532,54.878 L133.532,53.968 L135.408,53.968 L135.534,55.102 L135.604,55.102 C135.697334,54.9433325 135.820999,54.7870008 135.975,54.633 C136.129001,54.4789992 136.308666,54.3390006 136.514,54.213 C136.719334,54.0869994 136.947999,53.986667 137.2,53.912 C137.452001,53.837333 137.717999,53.8 137.998,53.8 C138.427335,53.8 138.807665,53.8466662 139.139,53.94 C139.470335,54.0333338 139.745666,54.1989988 139.965,54.437 C140.184334,54.6750012 140.349999,54.996998 140.462,55.403 C140.574001,55.809002 140.63,56.3246635 140.63,56.95 L140.63,60.968 L139.538,60.968 L139.538,57.16 C139.538,56.3853295 139.412001,55.802002 139.16,55.41 C138.907999,55.017998 138.45067,54.822 137.788,54.822 C137.545332,54.822 137.309668,54.8709995 137.081,54.969 C136.852332,55.0670005 136.644668,55.1953325 136.458,55.354 C136.271332,55.5126675 136.108001,55.6969989 135.968,55.907 C135.827999,56.117001 135.725334,56.3386655 135.66,56.572 L135.66,60.968 L134.582,60.968 L134.582,56.418 Z M147.728,63.936 C147.102664,63.7773325 146.517003,63.5416682 145.971,63.229 C145.424997,62.9163318 144.949002,62.5080025 144.543,62.004 C144.136998,61.4999975 143.815001,60.8840036 143.577,60.156 C143.338999,59.4279964 143.22,58.5646717 143.22,57.566 C143.22,56.5766617 143.341332,55.7110037 143.584,54.969 C143.826668,54.2269963 144.153331,53.5970026 144.564,53.079 C144.974669,52.5609974 145.452997,52.1456682 145.999,51.833 C146.545003,51.5203318 147.12133,51.2986673 147.728,51.168 L148.078,52.05 C147.527331,52.2086675 147.023336,52.416332 146.566,52.673 C146.108664,52.9296679 145.714335,53.2703312 145.383,53.695 C145.051665,54.1196688 144.795001,54.6469968 144.613,55.277 C144.430999,55.9070031 144.34,56.6699955 144.34,57.566 C144.34,58.4713379 144.449666,59.2436635 144.669,59.883 C144.888334,60.5223365 145.177665,61.0543312 145.537,61.479 C145.896335,61.9036688 146.297664,62.2349988 146.741,62.473 C147.184336,62.7110012 147.629998,62.8766662 148.078,62.97 L147.728,63.936 Z M152.082,62.97 C152.530002,62.8766662 152.975664,62.7110012 153.419,62.473 C153.862336,62.2349988 154.263665,61.9036688 154.623,61.479 C154.982335,61.0543312 155.271666,60.5223365 155.491,59.883 C155.710334,59.2436635 155.82,58.4713379 155.82,57.566 C155.82,56.6699955 155.729001,55.9070031 155.547,55.277 C155.364999,54.6469968 155.108335,54.1196688 154.777,53.695 C154.445665,53.2703312 154.051336,52.9296679 153.594,52.673 C153.136664,52.416332 152.632669,52.2086675 152.082,52.05 L152.432,51.168 C153.03867,51.2986673 153.614997,51.5203318 154.161,51.833 C154.707003,52.1456682 155.185331,52.5609974 155.596,53.079 C156.006669,53.5970026 156.333332,54.2269963 156.576,54.969 C156.818668,55.7110037 156.94,56.5766617 156.94,57.566 C156.94,58.5646717 156.821001,59.4279964 156.583,60.156 C156.344999,60.8840036 156.023002,61.4999975 155.617,62.004 C155.210998,62.5080025 154.735003,62.9163318 154.189,63.229 C153.642997,63.5416682 153.057336,63.7773325 152.432,63.936 L152.082,62.97 Z M169.96,60.52 C169.96,60.1186647 169.892334,59.7710015 169.757,59.477 C169.621666,59.1829985 169.453668,58.938001 169.253,58.742 C169.052332,58.545999 168.837668,58.4013338 168.609,58.308 C168.380332,58.2146662 168.177334,58.168 168,58.168 L168,57.188 C168.177334,57.188 168.380332,57.1483337 168.609,57.069 C168.837668,56.9896663 169.052332,56.8590009 169.253,56.677 C169.453668,56.4949991 169.621666,56.2593348 169.757,55.97 C169.892334,55.6806652 169.96,55.3213355 169.96,54.892 L169.96,53.464 C169.96,53.1279983 170.013666,52.8200014 170.121,52.54 C170.228334,52.2599986 170.377666,52.0173344 170.569,51.812 C170.760334,51.6066656 170.988999,51.4456673 171.255,51.329 C171.521001,51.2123328 171.812665,51.154 172.13,51.154 L174.16,51.154 L174.16,52.134 L172.62,52.134 C172.031997,52.134 171.623668,52.2739986 171.395,52.554 C171.166332,52.8340014 171.052,53.2493306 171.052,53.8 L171.052,55.158 C171.052,55.5406686 170.982001,55.8813318 170.842,56.18 C170.701999,56.4786682 170.534001,56.7283323 170.338,56.929 C170.141999,57.1296677 169.941334,57.2883327 169.736,57.405 C169.530666,57.5216672 169.362667,57.5893332 169.232,57.608 L169.232,57.692 C169.353334,57.7106668 169.516666,57.7829994 169.722,57.909 C169.927334,58.0350006 170.127999,58.2076656 170.324,58.427 C170.520001,58.6463344 170.690333,58.9053318 170.835,59.204 C170.979667,59.5026682 171.052,59.8339982 171.052,60.198 L171.052,61.542 C171.052,62.1113362 171.173332,62.531332 171.416,62.802 C171.658668,63.072668 172.064664,63.208 172.634,63.208 L174.16,63.208 L174.16,64.188 L172.13,64.188 C171.476663,64.188 170.951669,63.9943353 170.555,63.607 C170.158331,63.2196647 169.96,62.6480038 169.96,61.892 L169.96,60.52 Z M33.404,77.968 L33.404,77.03 L35.294,77.03 L35.294,71.906 L33.404,71.906 L33.404,70.968 L36.022,70.968 L36.246,71.878 L36.316,71.878 C36.6333349,71.5886652 36.987998,71.3413344 37.38,71.136 C37.772002,70.9306656 38.238664,70.828 38.78,70.828 C39.0973349,70.828 39.3516657,70.8886661 39.543,71.01 C39.7343343,71.1313339 39.8836661,71.3086655 39.991,71.542 C40.0983339,71.7753345 40.1706665,72.057665 40.208,72.389 C40.2453335,72.720335 40.264,73.0959979 40.264,73.516 L39.284,73.53 C39.284,72.9326637 39.2256673,72.4940014 39.109,72.214 C38.9923328,71.9339986 38.7800015,71.794 38.472,71.794 C38.1826652,71.794 37.9213345,71.8359996 37.688,71.92 C37.4546655,72.0040004 37.2516675,72.1066661 37.079,72.228 C36.9063325,72.3493339 36.7593339,72.4706661 36.638,72.592 C36.5166661,72.7133339 36.4280003,72.8159996 36.372,72.9 L36.372,77.03 L39.06,77.03 L39.06,77.968 L33.404,77.968 Z M48.286,77.086 C48.1179992,77.2353341 47.9196678,77.3753327 47.691,77.506 C47.4623322,77.6366673 47.212668,77.7486662 46.942,77.842 C46.671332,77.9353338 46.3890015,78.0076664 46.095,78.059 C45.8009985,78.1103336 45.5046682,78.136 45.206,78.136 C44.6459972,78.136 44.1513355,78.0496675 43.722,77.877 C43.2926645,77.7043325 42.9333348,77.4570016 42.644,77.135 C42.3546652,76.8129984 42.1353341,76.4280022 41.986,75.98 C41.8366659,75.5319978 41.762,75.0280028 41.762,74.468 C41.762,73.8799971 41.8436659,73.3573356 42.007,72.9 C42.1703342,72.4426644 42.4059985,72.0600015 42.714,71.752 C43.0220015,71.4439985 43.3953311,71.2083341 43.834,71.045 C44.2726689,70.8816658 44.762664,70.8 45.304,70.8 C45.696002,70.8 46.0833314,70.8513328 46.466,70.954 C46.8486686,71.0566672 47.1869985,71.2503319 47.481,71.535 C47.7750015,71.8196681 48.0013325,72.2116642 48.16,72.711 C48.3186675,73.2103358 48.3746669,73.8566627 48.328,74.65 L42.91,74.65 C42.91,75.4900042 43.1363311,76.1176646 43.589,76.533 C44.0416689,76.9483354 44.6459962,77.156 45.402,77.156 C45.6540013,77.156 45.9036654,77.125667 46.151,77.065 C46.3983346,77.004333 46.6339989,76.9320004 46.858,76.848 C47.0820011,76.7639996 47.2803325,76.6706672 47.453,76.568 C47.6256675,76.4653328 47.7586662,76.3720004 47.852,76.288 L48.286,77.086 Z M45.332,71.724 C45.0239985,71.724 44.7323347,71.7566663 44.457,71.822 C44.1816653,71.8873337 43.9390011,71.9969992 43.729,72.151 C43.518999,72.3050008 43.346334,72.5056654 43.211,72.753 C43.075666,73.0003346 42.9893335,73.3059982 42.952,73.67 L47.306,73.67 C47.2593331,73.0539969 47.0610018,72.5756684 46.711,72.235 C46.3609983,71.8943316 45.9013362,71.724 45.332,71.724 Z M49.714,70.968 L51.38,70.968 L51.38,69.582 L52.472,69.274 L52.472,70.968 L56.21,70.968 L56.21,71.906 L52.472,71.906 L52.472,75.21 C52.472,75.8913367 52.637665,76.3953317 52.969,76.722 C53.300335,77.0486683 53.7739969,77.212 54.39,77.212 C54.8100021,77.212 55.1763318,77.1326675 55.489,76.974 C55.8016682,76.8153325 56.0839987,76.6426676 56.336,76.456 L56.7,77.282 C56.3733317,77.5433346 55.9836689,77.7533325 55.531,77.912 C55.0783311,78.0706675 54.6140024,78.15 54.138,78.15 C53.7646648,78.15 53.412335,78.0963339 53.081,77.989 C52.749665,77.8816661 52.4580013,77.7160011 52.206,77.492 C51.9539987,77.2679989 51.7533341,76.9810017 51.604,76.631 C51.4546659,76.2809982 51.38,75.8633358 51.38,75.378 L51.38,71.906 L49.714,71.906 L49.714,70.968 Z M62.762,70.968 L64.75,70.968 L64.75,75.742 C64.75,76.1993356 64.7779997,76.6379979 64.834,77.058 L65.772,77.058 L65.772,77.968 L63.91,77.968 L63.868,76.778 L63.812,76.778 C63.5693321,77.1793353 63.2473353,77.5059987 62.846,77.758 C62.4446647,78.0100013 61.9593362,78.136 61.39,78.136 C60.9606645,78.136 60.5943349,78.0870005 60.291,77.989 C59.9876652,77.8909995 59.738001,77.7206679 59.542,77.478 C59.345999,77.2353321 59.2013338,76.911002 59.108,76.505 C59.0146662,76.098998 58.968,75.5926697 58.968,74.986 L58.968,71.906 L58.03,71.906 L58.03,70.968 L60.06,70.968 L60.06,74.762 C60.06,75.1446686 60.0763332,75.4876651 60.109,75.791 C60.1416668,76.0943348 60.2093328,76.3509989 60.312,76.561 C60.4146672,76.771001 60.5663323,76.9296661 60.767,77.037 C60.9676677,77.1443339 61.2359983,77.198 61.572,77.198 C62.0573358,77.198 62.4796649,77.0393349 62.839,76.722 C63.1983351,76.4046651 63.4713324,76.0080024 63.658,75.532 L63.658,71.906 L62.762,71.906 L62.762,70.968 Z M67.004,77.968 L67.004,77.03 L68.894,77.03 L68.894,71.906 L67.004,71.906 L67.004,70.968 L69.622,70.968 L69.846,71.878 L69.916,71.878 C70.2333349,71.5886652 70.587998,71.3413344 70.98,71.136 C71.372002,70.9306656 71.838664,70.828 72.38,70.828 C72.6973349,70.828 72.9516657,70.8886661 73.143,71.01 C73.3343343,71.1313339 73.4836661,71.3086655 73.591,71.542 C73.6983339,71.7753345 73.7706665,72.057665 73.808,72.389 C73.8453335,72.720335 73.864,73.0959979 73.864,73.516 L72.884,73.53 C72.884,72.9326637 72.8256673,72.4940014 72.709,72.214 C72.5923328,71.9339986 72.3800015,71.794 72.072,71.794 C71.7826652,71.794 71.5213345,71.8359996 71.288,71.92 C71.0546655,72.0040004 70.8516675,72.1066661 70.679,72.228 C70.5063325,72.3493339 70.3593339,72.4706661 70.238,72.592 C70.1166661,72.7133339 70.0280003,72.8159996 69.972,72.9 L69.972,77.03 L72.66,77.03 L72.66,77.968 L67.004,77.968 Z M75.782,73.418 C75.782,73.3339996 75.7796667,73.224334 75.775,73.089 C75.7703333,72.953666 75.7633334,72.8136674 75.754,72.669 C75.7446666,72.5243326 75.7330001,72.3820007 75.719,72.242 C75.7049999,72.1019993 75.6886668,71.9806672 75.67,71.878 L74.732,71.878 L74.732,70.968 L76.608,70.968 L76.734,72.102 L76.804,72.102 C76.8973338,71.9433325 77.0209992,71.7870008 77.175,71.633 C77.3290008,71.4789992 77.5086656,71.3390006 77.714,71.213 C77.9193344,71.0869994 78.1479987,70.986667 78.4,70.912 C78.6520013,70.837333 78.9179986,70.8 79.198,70.8 C79.6273355,70.8 80.007665,70.8466662 80.339,70.94 C80.670335,71.0333338 80.9456656,71.1989988 81.165,71.437 C81.3843344,71.6750012 81.5499994,71.996998 81.662,72.403 C81.7740006,72.809002 81.83,73.3246635 81.83,73.95 L81.83,77.968 L80.738,77.968 L80.738,74.16 C80.738,73.3853295 80.6120013,72.802002 80.36,72.41 C80.1079987,72.017998 79.65067,71.822 78.988,71.822 C78.7453321,71.822 78.5096678,71.8709995 78.281,71.969 C78.0523322,72.0670005 77.8446676,72.1953325 77.658,72.354 C77.4713324,72.5126675 77.3080007,72.6969989 77.168,72.907 C77.0279993,73.117001 76.9253337,73.3386655 76.86,73.572 L76.86,77.968 L75.782,77.968 L75.782,73.418 Z M97.426,72.046 C97.2113323,71.971333 96.9803346,71.9083336 96.733,71.857 C96.4856654,71.8056664 96.2406679,71.78 95.998,71.78 C95.0833288,71.78 94.4020022,71.9946645 93.954,72.424 C93.5059978,72.8533355 93.282,73.534662 93.282,74.468 C93.282,74.8786687 93.3473327,75.2449984 93.478,75.567 C93.6086673,75.8890016 93.7953321,76.1619989 94.038,76.386 C94.2806679,76.6100011 94.5723316,76.7826661 94.913,76.904 C95.2536684,77.0253339 95.6293313,77.086 96.04,77.086 C96.4786689,77.086 96.9056646,77.0113341 97.321,76.862 C97.7363354,76.7126659 98.0839986,76.5166679 98.364,76.274 L98.854,77.086 C98.7233327,77.1980006 98.560001,77.3146661 98.364,77.436 C98.167999,77.5573339 97.941668,77.6716661 97.685,77.779 C97.4283321,77.8863339 97.1436682,77.9726663 96.831,78.038 C96.5183318,78.1033337 96.1800018,78.136 95.816,78.136 C95.2093303,78.136 94.6750023,78.0496675 94.213,77.877 C93.7509977,77.7043325 93.3660015,77.4570016 93.058,77.135 C92.7499985,76.8129984 92.5166675,76.4256689 92.358,75.973 C92.1993325,75.5203311 92.12,75.0186694 92.12,74.468 C92.12,73.8799971 92.2016659,73.3573356 92.365,72.9 C92.5283342,72.4426644 92.7639985,72.0600015 93.072,71.752 C93.3800015,71.4439985 93.7533311,71.2083341 94.192,71.045 C94.6306689,70.8816658 95.120664,70.8 95.662,70.8 C96.3526701,70.8 96.9149978,70.8606661 97.349,70.982 C97.7830022,71.1033339 98.1493318,71.2386659 98.448,71.388 L98.434,71.43 L98.434,73.376 L97.426,73.376 L97.426,72.046 Z M100.478,74.468 C100.478,73.338661 100.771997,72.4450033 101.36,71.787 C101.948003,71.1289967 102.787995,70.8 103.88,70.8 C104.468003,70.8 104.974331,70.8956657 105.399,71.087 C105.823669,71.2783343 106.175999,71.5373317 106.456,71.864 C106.736001,72.1906683 106.943666,72.5779978 107.079,73.026 C107.214334,73.4740022 107.282,73.9546641 107.282,74.468 C107.282,75.0280028 107.207334,75.5343311 107.058,75.987 C106.908666,76.4396689 106.689335,76.8246651 106.4,77.142 C106.110665,77.4593349 105.753669,77.7043325 105.329,77.877 C104.904331,78.0496675 104.421336,78.136 103.88,78.136 C103.30133,78.136 102.797335,78.0403343 102.368,77.849 C101.938665,77.6576657 101.584001,77.3986683 101.304,77.072 C101.023999,76.7453317 100.816334,76.3580022 100.681,75.91 C100.545666,75.4619978 100.478,74.9813359 100.478,74.468 Z M101.64,74.468 C101.64,74.7946683 101.679666,75.1213317 101.759,75.448 C101.838334,75.7746683 101.966666,76.0686654 102.144,76.33 C102.321334,76.5913346 102.552332,76.8013325 102.837,76.96 C103.121668,77.1186675 103.469331,77.198 103.88,77.198 C104.62667,77.198 105.188998,76.9670023 105.567,76.505 C105.945002,76.0429977 106.134,75.3640045 106.134,74.468 C106.134,74.1319983 106.094334,73.8030016 106.015,73.481 C105.935666,73.1589984 105.805001,72.8673346 105.623,72.606 C105.440999,72.3446654 105.207668,72.1346675 104.923,71.976 C104.638332,71.8173325 104.290669,71.738 103.88,71.738 C103.13333,71.738 102.573335,71.9666644 102.2,72.424 C101.826665,72.8813356 101.64,73.5626621 101.64,74.468 Z M113.162,70.968 L115.15,70.968 L115.15,75.742 C115.15,76.1993356 115.178,76.6379979 115.234,77.058 L116.172,77.058 L116.172,77.968 L114.31,77.968 L114.268,76.778 L114.212,76.778 C113.969332,77.1793353 113.647335,77.5059987 113.246,77.758 C112.844665,78.0100013 112.359336,78.136 111.79,78.136 C111.360665,78.136 110.994335,78.0870005 110.691,77.989 C110.387665,77.8909995 110.138001,77.7206679 109.942,77.478 C109.745999,77.2353321 109.601334,76.911002 109.508,76.505 C109.414666,76.098998 109.368,75.5926697 109.368,74.986 L109.368,71.906 L108.43,71.906 L108.43,70.968 L110.46,70.968 L110.46,74.762 C110.46,75.1446686 110.476333,75.4876651 110.509,75.791 C110.541667,76.0943348 110.609333,76.3509989 110.712,76.561 C110.814667,76.771001 110.966332,76.9296661 111.167,77.037 C111.367668,77.1443339 111.635998,77.198 111.972,77.198 C112.457336,77.198 112.879665,77.0393349 113.239,76.722 C113.598335,76.4046651 113.871332,76.0080024 114.058,75.532 L114.058,71.906 L113.162,71.906 L113.162,70.968 Z M117.782,73.418 C117.782,73.3339996 117.779667,73.224334 117.775,73.089 C117.770333,72.953666 117.763333,72.8136674 117.754,72.669 C117.744667,72.5243326 117.733,72.3820007 117.719,72.242 C117.705,72.1019993 117.688667,71.9806672 117.67,71.878 L116.732,71.878 L116.732,70.968 L118.608,70.968 L118.734,72.102 L118.804,72.102 C118.897334,71.9433325 119.020999,71.7870008 119.175,71.633 C119.329001,71.4789992 119.508666,71.3390006 119.714,71.213 C119.919334,71.0869994 120.147999,70.986667 120.4,70.912 C120.652001,70.837333 120.917999,70.8 121.198,70.8 C121.627335,70.8 122.007665,70.8466662 122.339,70.94 C122.670335,71.0333338 122.945666,71.1989988 123.165,71.437 C123.384334,71.6750012 123.549999,71.996998 123.662,72.403 C123.774001,72.809002 123.83,73.3246635 123.83,73.95 L123.83,77.968 L122.738,77.968 L122.738,74.16 C122.738,73.3853295 122.612001,72.802002 122.36,72.41 C122.107999,72.017998 121.65067,71.822 120.988,71.822 C120.745332,71.822 120.509668,71.8709995 120.281,71.969 C120.052332,72.0670005 119.844668,72.1953325 119.658,72.354 C119.471332,72.5126675 119.308001,72.6969989 119.168,72.907 C119.027999,73.117001 118.925334,73.3386655 118.86,73.572 L118.86,77.968 L117.782,77.968 L117.782,73.418 Z M125.314,70.968 L126.98,70.968 L126.98,69.582 L128.072,69.274 L128.072,70.968 L131.81,70.968 L131.81,71.906 L128.072,71.906 L128.072,75.21 C128.072,75.8913367 128.237665,76.3953317 128.569,76.722 C128.900335,77.0486683 129.373997,77.212 129.99,77.212 C130.410002,77.212 130.776332,77.1326675 131.089,76.974 C131.401668,76.8153325 131.683999,76.6426676 131.936,76.456 L132.3,77.282 C131.973332,77.5433346 131.583669,77.7533325 131.131,77.912 C130.678331,78.0706675 130.214002,78.15 129.738,78.15 C129.364665,78.15 129.012335,78.0963339 128.681,77.989 C128.349665,77.8816661 128.058001,77.7160011 127.806,77.492 C127.553999,77.2679989 127.353334,76.9810017 127.204,76.631 C127.054666,76.2809982 126.98,75.8633358 126.98,75.378 L126.98,71.906 L125.314,71.906 L125.314,70.968 Z M133.952,72.732 L136.976,72.732 L136.976,69.638 L137.984,69.638 L137.984,72.732 L141.008,72.732 L141.008,73.74 L137.984,73.74 L137.984,76.834 L136.976,76.834 L136.976,73.74 L133.952,73.74 L133.952,72.732 Z M142.352,72.732 L145.376,72.732 L145.376,69.638 L146.384,69.638 L146.384,72.732 L149.408,72.732 L149.408,73.74 L146.384,73.74 L146.384,76.834 L145.376,76.834 L145.376,73.74 L142.352,73.74 L142.352,72.732 Z M153.286,77.198 C153.286,76.9179986 153.376999,76.6916675 153.559,76.519 C153.741001,76.3463325 153.976665,76.26 154.266,76.26 C154.620668,76.26 154.895999,76.3836654 155.092,76.631 C155.288001,76.8783346 155.386,77.2259978 155.386,77.674 C155.386,78.0380018 155.325334,78.3576653 155.204,78.633 C155.082666,78.9083347 154.931001,79.1416657 154.749,79.333 C154.566999,79.5243343 154.371001,79.6783327 154.161,79.795 C153.950999,79.9116672 153.757334,79.9979997 153.58,80.054 L153.23,79.508 C153.566002,79.3773327 153.855332,79.1906679 154.098,78.948 C154.340668,78.7053321 154.462,78.4113351 154.462,78.066 C154.331333,78.0940001 154.228667,78.108 154.154,78.108 C153.883332,78.108 153.671001,78.0310008 153.517,77.877 C153.362999,77.7229992 153.286,77.4966682 153.286,77.198 Z M153.412,71.696 C153.412,71.3973318 153.495999,71.1663341 153.664,71.003 C153.832001,70.8396658 154.055999,70.758 154.336,70.758 C154.634668,70.758 154.867999,70.8396658 155.036,71.003 C155.204001,71.1663341 155.288,71.3973318 155.288,71.696 C155.288,71.966668 155.204001,72.1906658 155.036,72.368 C154.867999,72.5453342 154.634668,72.634 154.336,72.634 C154.055999,72.634 153.832001,72.5453342 153.664,72.368 C153.495999,72.1906658 153.412,71.966668 153.412,71.696 Z M21,95.892 C21,96.6480038 20.8016687,97.2196647 20.405,97.607 C20.0083314,97.9943353 19.4833366,98.188 18.83,98.188 L16.8,98.188 L16.8,97.208 L18.326,97.208 C18.8953362,97.208 19.3013321,97.072668 19.544,96.802 C19.7866679,96.531332 19.908,96.1113362 19.908,95.542 L19.908,94.198 C19.908,93.8339982 19.9779993,93.5026682 20.118,93.204 C20.2580007,92.9053318 20.425999,92.6463344 20.622,92.427 C20.818001,92.2076656 21.0186656,92.0350006 21.224,91.909 C21.4293344,91.7829994 21.5973327,91.7106668 21.728,91.692 L21.728,91.608 C21.5973327,91.5893332 21.4293344,91.5216672 21.224,91.405 C21.0186656,91.2883327 20.818001,91.1296677 20.622,90.929 C20.425999,90.7283323 20.2580007,90.4786682 20.118,90.18 C19.9779993,89.8813318 19.908,89.5406686 19.908,89.158 L19.908,87.8 C19.908,87.2493306 19.7936678,86.8340014 19.565,86.554 C19.3363322,86.2739986 18.9280029,86.134 18.34,86.134 L16.8,86.134 L16.8,85.154 L18.83,85.154 C19.1473349,85.154 19.4389987,85.2123327 19.705,85.329 C19.9710013,85.4456672 20.1996657,85.6066656 20.391,85.812 C20.5823343,86.0173344 20.7316661,86.2599986 20.839,86.54 C20.9463339,86.8200014 21,87.1279983 21,87.464 L21,88.892 C21,89.3213355 21.067666,89.6806652 21.203,89.97 C21.338334,90.2593348 21.5063323,90.4949991 21.707,90.677 C21.9076677,90.8590009 22.1223322,90.9896663 22.351,91.069 C22.5796678,91.1483337 22.7826658,91.188 22.96,91.188 L22.96,92.168 C22.7826658,92.168 22.5796678,92.2146662 22.351,92.308 C22.1223322,92.4013338 21.9076677,92.545999 21.707,92.742 C21.5063323,92.938001 21.338334,93.1829985 21.203,93.477 C21.067666,93.7710015 21,94.1186647 21,94.52 L21,95.892 Z M27.286,94.198 C27.286,93.9179986 27.3769991,93.6916675 27.559,93.519 C27.7410009,93.3463325 27.9766652,93.26 28.266,93.26 C28.6206684,93.26 28.895999,93.3836654 29.092,93.631 C29.288001,93.8783346 29.386,94.2259978 29.386,94.674 C29.386,95.0380018 29.3253339,95.3576653 29.204,95.633 C29.0826661,95.9083347 28.9310009,96.1416657 28.749,96.333 C28.5669991,96.5243343 28.3710011,96.6783327 28.161,96.795 C27.950999,96.9116672 27.7573342,96.9979997 27.58,97.054 L27.23,96.508 C27.5660017,96.3773327 27.8553321,96.1906679 28.098,95.948 C28.3406679,95.7053321 28.462,95.4113351 28.462,95.066 C28.3313327,95.0940001 28.228667,95.108 28.154,95.108 C27.883332,95.108 27.6710008,95.0310008 27.517,94.877 C27.3629992,94.7229992 27.286,94.4966682 27.286,94.198 Z M27.412,88.696 C27.412,88.3973318 27.4959992,88.1663341 27.664,88.003 C27.8320008,87.8396658 28.0559986,87.758 28.336,87.758 C28.6346682,87.758 28.8679992,87.8396658 29.036,88.003 C29.2040008,88.1663341 29.288,88.3973318 29.288,88.696 C29.288,88.966668 29.2040008,89.1906658 29.036,89.368 C28.8679992,89.5453342 28.6346682,89.634 28.336,89.634 C28.0559986,89.634 27.8320008,89.5453342 27.664,89.368 C27.4959992,89.1906658 27.412,88.966668 27.412,88.696 Z" id="letcount=0;returnfunction(){returncount++;};" fill="#9B9B9B"></path>
                <path d="M4.2,112.892 C4.2,113.648004 4.00166865,114.219665 3.605,114.607 C3.20833135,114.994335 2.6833366,115.188 2.03,115.188 L-7.28306304e-14,115.188 L-7.28306304e-14,114.208 L1.526,114.208 C2.09533618,114.208 2.50133212,114.072668 2.744,113.802 C2.98666788,113.531332 3.108,113.111336 3.108,112.542 L3.108,111.198 C3.108,110.833998 3.1779993,110.502668 3.318,110.204 C3.4580007,109.905332 3.62599902,109.646334 3.822,109.427 C4.01800098,109.207666 4.21866564,109.035001 4.424,108.909 C4.62933436,108.782999 4.79733268,108.710667 4.928,108.692 L4.928,108.608 C4.79733268,108.589333 4.62933436,108.521667 4.424,108.405 C4.21866564,108.288333 4.01800098,108.129668 3.822,107.929 C3.62599902,107.728332 3.4580007,107.478668 3.318,107.18 C3.1779993,106.881332 3.108,106.540669 3.108,106.158 L3.108,104.8 C3.108,104.249331 2.99366781,103.834001 2.765,103.554 C2.53633219,103.273999 2.12800294,103.134 1.54,103.134 L-7.28306304e-14,103.134 L-7.28306304e-14,102.154 L2.03,102.154 C2.34733492,102.154 2.63899867,102.212333 2.905,102.329 C3.17100133,102.445667 3.39966571,102.606666 3.591,102.812 C3.78233429,103.017334 3.93166613,103.259999 4.039,103.54 C4.14633387,103.820001 4.2,104.127998 4.2,104.464 L4.2,105.892 C4.2,106.321335 4.26766599,106.680665 4.403,106.97 C4.53833401,107.259335 4.70633233,107.494999 4.907,107.677 C5.10766767,107.859001 5.32233219,107.989666 5.551,108.069 C5.77966781,108.148334 5.98266578,108.188 6.16,108.188 L6.16,109.168 C5.98266578,109.168 5.77966781,109.214666 5.551,109.308 C5.32233219,109.401334 5.10766767,109.545999 4.907,109.742 C4.70633233,109.938001 4.53833401,110.182999 4.403,110.477 C4.26766599,110.771001 4.2,111.118665 4.2,111.52 L4.2,112.892 Z" id="}" fill="#F38158"></path>
                <path d="M2.142,128.198 C2.142,127.899332 2.22599916,127.668334 2.394,127.505 C2.56200084,127.341666 2.7859986,127.26 3.066,127.26 C3.36466816,127.26 3.59799916,127.341666 3.766,127.505 C3.93400084,127.668334 4.018,127.899332 4.018,128.198 C4.018,128.468668 3.93400084,128.692666 3.766,128.87 C3.59799916,129.047334 3.36466816,129.136 3.066,129.136 C2.7859986,129.136 2.56200084,129.047334 2.394,128.87 C2.22599916,128.692666 2.142,128.468668 2.142,128.198 Z M10.542,128.198 C10.542,127.899332 10.6259992,127.668334 10.794,127.505 C10.9620008,127.341666 11.1859986,127.26 11.466,127.26 C11.7646682,127.26 11.9979992,127.341666 12.166,127.505 C12.3340008,127.668334 12.418,127.899332 12.418,128.198 C12.418,128.468668 12.3340008,128.692666 12.166,128.87 C11.9979992,129.047334 11.7646682,129.136 11.466,129.136 C11.1859986,129.136 10.9620008,129.047334 10.794,128.87 C10.6259992,128.692666 10.542,128.468668 10.542,128.198 Z M18.942,128.198 C18.942,127.899332 19.0259992,127.668334 19.194,127.505 C19.3620008,127.341666 19.5859986,127.26 19.866,127.26 C20.1646682,127.26 20.3979992,127.341666 20.566,127.505 C20.7340008,127.668334 20.818,127.899332 20.818,128.198 C20.818,128.468668 20.7340008,128.692666 20.566,128.87 C20.3979992,129.047334 20.1646682,129.136 19.866,129.136 C19.5859986,129.136 19.3620008,129.047334 19.194,128.87 C19.0259992,128.692666 18.942,128.468668 18.942,128.198 Z" id="..." fill="#9B9B9B"></path>
            </g>
            <g id="Group-3" transform="translate(410.000000, 5.000000)">
                <rect id="Rectangle-1" stroke="#E8C48E" stroke-width="2" fill="#FFF9EB" x="1" y="1" width="188" height="27"></rect>
                <text id="makeCounter:-functio" font-family="PTMono-Regular, PT Mono" font-size="14" font-weight="normal" fill="#8A704D">
                    <tspan x="7" y="18.25">makeCounter: function</tspan>
                </text>
            </g>
            <text id="[[Environment]]" font-family="PTMono-Regular, PT Mono" font-size="14" font-weight="normal" fill="#8A704D">
                <tspan x="228" y="22">[[Environment]]</tspan>
            </text>
            <g id="Group" transform="translate(606.000000, -2.000000)">
                <path id="Line" d="M16.5,21.5 L2.5,21.5 L2.5,19.5 L16.5,19.5 L16.5,13.5 L30.5,20.5 L16.5,27.5 L16.5,21.5 Z" fill="#EE6B47" fill-rule="nonzero"></path>
                <text id="outer" font-family="PTMono-Regular, PT Mono" font-size="12" font-weight="normal" fill="#8A704D">
                    <tspan x="0" y="11">outer</tspan>
                </text>
            </g>
            <path id="Line" d="M372.5,19.5 L358.5,19.5 L358.5,17.5 L372.5,17.5 L372.5,11.5 L386.5,18.5 L372.5,25.5 L372.5,19.5 Z" fill="#EE6B47" fill-rule="nonzero"></path>
            <g id="Group-5-Copy" transform="translate(403.000000, 74.000000) scale(-1, 1) translate(-403.000000, -74.000000) translate(402.000000, 4.000000)" stroke="#EE6B47" stroke-linecap="square">
                <path d="M1.41666667,1.55555556 L1.41666667,138.444444" id="Line-Copy-2"></path>
            </g>
            <text id="null" font-family="PTMono-Regular, PT Mono" font-size="14" font-weight="normal" fill="#8A704D">
                <tspan x="650" y="21">null</tspan>
            </text>
            <polyline id="Rectangle-1" fill="#EC6B4E" points="2 24 2 11 11 17.5"></polyline>
        </g>
    </g>
</svg>