<svg xmlns="http://www.w3.org/2000/svg" width="492" height="108" viewBox="0 0 492 108"><defs><style>@import url(https://fonts.googleapis.com/css?family=Open+Sans:bold,italic,bolditalic%7CPT+Mono);@font-face{font-family:&apos;PT Mono&apos;;font-weight:700;font-style:normal;src:local(&apos;PT MonoBold&apos;),url(/font/PTMonoBold.woff2) format(&apos;woff2&apos;),url(/font/PTMonoBold.woff) format(&apos;woff&apos;),url(/font/PTMonoBold.ttf) format(&apos;truetype&apos;)}</style></defs><g id="closure" fill="none" fill-rule="evenodd" stroke="none" stroke-width="1"><g id="lexical-environment-global.svg"><g id="Group-3" transform="translate(249 22)"><path id="Rectangle-1" fill="#FBF2EC" stroke="#DBAF88" stroke-width="2" d="M1 1h135v28H1z"/><text id="phrase:-&quot;Hello&quot;" fill="#AF6E24" font-family="PTMono-Regular, PT Mono" font-size="14" font-weight="normal"><tspan x="7" y="18.51">phrase: &quot;Hello&quot;</tspan></text></g><g id="Group" transform="translate(393 17)"><path id="Line" fill="#C06334" fill-rule="nonzero" d="M16.5 13.5l14 7-14 7v-6h-14v-2h14v-6z"/><text id="outer" fill="#AF6E24" font-family="PTMono-Regular, PT Mono" font-size="12" font-weight="normal"><tspan x="0" y="11">outer</tspan></text></g><text id="null" fill="#AF6E24" font-family="PTMono-Regular, PT Mono" font-size="14" font-weight="normal"><tspan x="437" y="42">null</tspan></text><g id="let-phrase-=-&quot;Hello&quot;" fill-rule="nonzero" transform="translate(20.05 31.2)"><path id="let" fill="#1C85B5" d="M.616 0H2.94v7.448c0 .57.096.97.287 1.204.191.233.474.35.847.35.261 0 .511-.047.749-.14.238-.093.502-.252.791-.476l.504.77c-.15.13-.313.247-.49.35a3.638 3.638 0 01-1.106.42 2.963 2.963 0 01-1.442-.077 1.579 1.579 0 01-.679-.427 1.897 1.897 0 01-.413-.777c-.093-.322-.14-.721-.14-1.197V.938H.616V0zm14.14 8.918c-.168.15-.366.29-.595.42a4.39 4.39 0 01-.749.336c-.27.093-.553.166-.847.217-.294.051-.59.077-.889.077-.56 0-1.055-.086-1.484-.259a2.858 2.858 0 01-1.078-.742 3.234 3.234 0 01-.658-1.155A4.767 4.767 0 018.232 6.3c0-.588.082-1.11.245-1.568.163-.457.399-.84.707-1.148a3.08 3.08 0 011.12-.707 4.187 4.187 0 011.47-.245c.392 0 .78.051 1.162.154.383.103.721.296 1.015.581.294.285.52.677.679 1.176.159.5.215 1.146.168 1.939H9.38c0 .84.226 1.468.679 1.883.453.415 1.057.623 1.813.623.252 0 .502-.03.749-.091.247-.06.483-.133.707-.217a3.72 3.72 0 00.595-.28c.173-.103.306-.196.399-.28l.434.798zm-2.954-5.362c-.308 0-.6.033-.875.098a1.995 1.995 0 00-.728.329c-.21.154-.383.355-.518.602s-.222.553-.259.917h4.354c-.047-.616-.245-1.094-.595-1.435-.35-.34-.81-.511-1.379-.511zm4.382-.756h1.666V1.414l1.092-.308V2.8h3.738v.938h-3.738v3.304c0 .681.166 1.185.497 1.512.331.327.805.49 1.421.49.42 0 .786-.08 1.099-.238.313-.159.595-.331.847-.518l.364.826a3.938 3.938 0 01-1.169.63 4.182 4.182 0 01-1.393.238 3.41 3.41 0 01-1.057-.161 2.426 2.426 0 01-.875-.497 2.38 2.38 0 01-.602-.861c-.15-.35-.224-.768-.224-1.253V3.738h-1.666V2.8z"/><path id="phrase" fill="#181717" d="M33.894 5.25a14.05 14.05 0 00-.063-1.176 4.657 4.657 0 00-.049-.364h-.938V2.8h1.862l.14.98h.07c.252-.327.572-.6.959-.819.387-.22.861-.329 1.421-.329.999 0 1.75.275 2.254.826.504.55.756 1.451.756 2.702 0 .588-.086 1.118-.259 1.589a3.34 3.34 0 01-.735 1.197 3.24 3.24 0 01-1.148.756 3.999 3.999 0 01-1.484.266c-.196 0-.371-.007-.525-.021a4.613 4.613 0 01-.42-.056 3.31 3.31 0 01-.371-.091 5.103 5.103 0 01-.392-.14v2.94h-1.078V5.25zm3.22-1.596c-.28 0-.544.051-.791.154a2.36 2.36 0 00-1.127.966c-.121.205-.196.41-.224.616v3.192c.205.14.436.25.693.329.257.08.595.119 1.015.119.747 0 1.344-.245 1.792-.735.448-.49.672-1.206.672-2.149 0-.793-.156-1.407-.469-1.841-.313-.434-.833-.651-1.561-.651zM41.006 0h2.184v3.668h.07c.29-.327.625-.581 1.008-.763.383-.182.859-.273 1.428-.273.448 0 .838.047 1.169.14.331.093.602.257.812.49.21.233.366.553.469.959.103.406.154.922.154 1.547V9.8h-1.092V5.978c0-.401-.023-.751-.07-1.05a1.829 1.829 0 00-.273-.749c-.135-.2-.32-.352-.553-.455-.233-.103-.532-.154-.896-.154-.252 0-.5.044-.742.133-.243.089-.464.21-.665.364-.2.154-.373.34-.518.56-.145.22-.245.46-.301.721V9.8h-1.078V.938h-1.106V0zm9.268 9.8v-.938h1.89V3.738h-1.89V2.8h2.618l.224.91h.07c.317-.29.672-.537 1.064-.742.392-.205.859-.308 1.4-.308.317 0 .572.06.763.182.191.121.34.299.448.532.107.233.18.516.217.847.037.331.056.707.056 1.127l-.98.014c0-.597-.058-1.036-.175-1.316-.117-.28-.329-.42-.637-.42-.29 0-.55.042-.784.126a2.565 2.565 0 00-.609.308c-.173.121-.32.243-.441.364s-.21.224-.266.308v4.13h2.688V9.8h-5.656zm8.988-6.454a4.447 4.447 0 011.358-.504 7.423 7.423 0 011.484-.154c.476 0 .866.075 1.169.224.303.15.541.343.714.581.173.238.29.509.35.812.06.303.091.609.091.917 0 .355-.01.733-.028 1.134-.019.401-.033.803-.042 1.204 0 .467.028.91.084 1.33h.938v.91h-1.862l-.126-1.05h-.07c-.056.084-.14.191-.252.322-.112.13-.259.259-.441.385a2.749 2.749 0 01-1.589.469c-.69 0-1.237-.177-1.638-.532-.401-.355-.602-.84-.602-1.456 0-.476.105-.873.315-1.19.21-.317.511-.56.903-.728.392-.168.866-.266 1.421-.294a9.544 9.544 0 011.869.112c.047-.43.054-.786.021-1.071-.033-.285-.107-.511-.224-.679a.938.938 0 00-.49-.357 2.482 2.482 0 00-.777-.105c-.42 0-.821.058-1.204.175-.383.117-.723.236-1.022.357l-.35-.812zm2.058 5.642c.261 0 .504-.042.728-.126a2.22 2.22 0 00.588-.322 2.133 2.133 0 00.672-.868v-.98a7.92 7.92 0 00-1.344-.126c-.41 0-.765.044-1.064.133-.299.089-.532.226-.7.413-.168.187-.252.43-.252.728 0 .308.105.576.315.805.21.229.562.343 1.057.343zM72.282 7.91a.796.796 0 00-.35-.693 2.872 2.872 0 00-.868-.392 16.056 16.056 0 00-1.127-.273 6.502 6.502 0 01-1.127-.336 2.525 2.525 0 01-.868-.567c-.233-.238-.35-.572-.35-1.001 0-.355.077-.658.231-.91a1.94 1.94 0 01.609-.623c.252-.163.546-.285.882-.364.336-.08.686-.119 1.05-.119.653 0 1.216.082 1.687.245.471.163.847.334 1.127.511l-.448.882a11.79 11.79 0 00-1.001-.483c-.36-.154-.81-.231-1.351-.231-.205 0-.408.021-.609.063-.2.042-.383.105-.546.189a1.088 1.088 0 00-.392.329.825.825 0 00-.147.497c0 .243.117.43.35.56.233.13.523.24.868.329.345.089.721.173 1.127.252.406.08.782.194 1.127.343.345.15.635.35.868.602.233.252.35.593.35 1.022 0 .644-.254 1.176-.763 1.596-.509.42-1.272.63-2.289.63-.308 0-.611-.028-.91-.084a5.52 5.52 0 01-.84-.224 5.054 5.054 0 01-.714-.315 3.002 3.002 0 01-.532-.357l.56-.91c.112.112.261.226.448.343a4.229 4.229 0 001.337.539 3.76 3.76 0 001.484.021c.22-.042.413-.107.581-.196a1.08 1.08 0 00.399-.35.914.914 0 00.147-.525zm9.674 1.008c-.168.15-.366.29-.595.42a4.39 4.39 0 01-.749.336c-.27.093-.553.166-.847.217-.294.051-.59.077-.889.077-.56 0-1.055-.086-1.484-.259a2.858 2.858 0 01-1.078-.742 3.234 3.234 0 01-.658-1.155 4.767 4.767 0 01-.224-1.512c0-.588.082-1.11.245-1.568.163-.457.399-.84.707-1.148a3.08 3.08 0 011.12-.707 4.187 4.187 0 011.47-.245c.392 0 .78.051 1.162.154.383.103.721.296 1.015.581.294.285.52.677.679 1.176.159.5.215 1.146.168 1.939H76.58c0 .84.226 1.468.679 1.883.453.415 1.057.623 1.813.623.252 0 .502-.03.749-.091.247-.06.483-.133.707-.217a3.72 3.72 0 00.595-.28c.173-.103.306-.196.399-.28l.434.798zm-2.954-5.362c-.308 0-.6.033-.875.098a1.995 1.995 0 00-.728.329c-.21.154-.383.355-.518.602s-.222.553-.259.917h4.354c-.047-.616-.245-1.094-.595-1.435-.35-.34-.81-.511-1.379-.511z"/><path id="=" fill="#DBAF88" d="M92.302 3.402h6.496V4.41h-6.496V3.402zm0 2.296h6.496v1.008h-6.496V5.698z"/><path id="&quot;Hello&quot;" fill="#478964" d="M113.176 0h1.232l-.434 4.242h-.798V0zm-2.898 0h1.232l-.434 4.242h-.798V0zm12.67 5.306h-4.396V9.8h-1.162V0h1.162v4.27h4.396V0h1.162v9.8h-1.162V5.306zm9.408 3.612c-.168.15-.366.29-.595.42a4.39 4.39 0 01-.749.336c-.27.093-.553.166-.847.217-.294.051-.59.077-.889.077-.56 0-1.055-.086-1.484-.259a2.858 2.858 0 01-1.078-.742 3.234 3.234 0 01-.658-1.155 4.767 4.767 0 01-.224-1.512c0-.588.082-1.11.245-1.568.163-.457.399-.84.707-1.148a3.08 3.08 0 011.12-.707 4.187 4.187 0 011.47-.245c.392 0 .78.051 1.162.154.383.103.721.296 1.015.581.294.285.52.677.679 1.176.159.5.215 1.146.168 1.939h-5.418c0 .84.226 1.468.679 1.883.453.415 1.057.623 1.813.623.252 0 .502-.03.749-.091.247-.06.483-.133.707-.217a3.72 3.72 0 00.595-.28c.173-.103.306-.196.399-.28l.434.798zm-2.954-5.362c-.308 0-.6.033-.875.098a1.995 1.995 0 00-.728.329c-.21.154-.383.355-.518.602s-.222.553-.259.917h4.354c-.047-.616-.245-1.094-.595-1.435-.35-.34-.81-.511-1.379-.511zM135.016 0h2.324v7.448c0 .57.096.97.287 1.204.191.233.474.35.847.35.261 0 .511-.047.749-.14.238-.093.502-.252.791-.476l.504.77c-.15.13-.313.247-.49.35a3.638 3.638 0 01-1.106.42 2.963 2.963 0 01-1.442-.077 1.579 1.579 0 01-.679-.427 1.897 1.897 0 01-.413-.777c-.093-.322-.14-.721-.14-1.197V.938h-1.232V0zm8.4 0h2.324v7.448c0 .57.096.97.287 1.204.191.233.474.35.847.35.261 0 .511-.047.749-.14.238-.093.502-.252.791-.476l.504.77c-.15.13-.313.247-.49.35a3.638 3.638 0 01-1.106.42 2.963 2.963 0 01-1.442-.077 1.579 1.579 0 01-.679-.427 1.897 1.897 0 01-.413-.777c-.093-.322-.14-.721-.14-1.197V.938h-1.232V0zm7.532 6.3c0-1.13.294-2.023.882-2.681.588-.658 1.428-.987 2.52-.987.588 0 1.094.096 1.519.287.425.191.777.45 1.057.777.28.327.488.714.623 1.162.135.448.203.929.203 1.442 0 .56-.075 1.066-.224 1.519-.15.453-.369.838-.658 1.155-.29.317-.646.562-1.071.735a3.82 3.82 0 01-1.449.259c-.579 0-1.083-.096-1.512-.287a2.967 2.967 0 01-1.064-.777 3.168 3.168 0 01-.623-1.162 4.963 4.963 0 01-.203-1.442zm1.162 0c0 .327.04.653.119.98.08.327.208.62.385.882.177.261.408.471.693.63.285.159.632.238 1.043.238.747 0 1.309-.231 1.687-.693.378-.462.567-1.141.567-2.037 0-.336-.04-.665-.119-.987a2.608 2.608 0 00-.392-.875 2.066 2.066 0 00-.7-.63c-.285-.159-.632-.238-1.043-.238-.747 0-1.307.229-1.68.686-.373.457-.56 1.139-.56 2.044zM163.576 0h1.232l-.434 4.242h-.798V0zm-2.898 0h1.232l-.434 4.242h-.798V0z"/><path id=";" fill="#7E7C7B" d="M170.156 9.03c0-.28.091-.506.273-.679.182-.173.418-.259.707-.259.355 0 .63.124.826.371.196.247.294.595.294 1.043a2.36 2.36 0 01-.637 1.659 2.465 2.465 0 01-.588.462c-.21.117-.404.203-.581.259l-.35-.546c.336-.13.625-.317.868-.56.243-.243.364-.537.364-.882-.13.028-.233.042-.308.042-.27 0-.483-.077-.637-.231-.154-.154-.231-.38-.231-.679zm.126-5.502c0-.299.084-.53.252-.693.168-.163.392-.245.672-.245.299 0 .532.082.7.245.168.163.252.394.252.693 0 .27-.084.495-.252.672-.168.177-.401.266-.7.266-.28 0-.504-.089-.672-.266a.938.938 0 01-.252-.672z"/><path id="alert" fill="#181717" d="M.462 37.346a4.447 4.447 0 011.358-.504 7.423 7.423 0 011.484-.154c.476 0 .866.075 1.169.224.303.15.541.343.714.581.173.238.29.509.35.812.06.303.091.609.091.917 0 .355-.01.733-.028 1.134-.019.401-.033.803-.042 1.204 0 .467.028.91.084 1.33h.938v.91H4.718l-.126-1.05h-.07c-.056.084-.14.191-.252.322-.112.13-.259.259-.441.385a2.749 2.749 0 01-1.589.469c-.69 0-1.237-.177-1.638-.532-.401-.355-.602-.84-.602-1.456 0-.476.105-.873.315-1.19.21-.317.511-.56.903-.728.392-.168.866-.266 1.421-.294a9.544 9.544 0 011.869.112c.047-.43.054-.786.021-1.071-.033-.285-.107-.511-.224-.679a.938.938 0 00-.49-.357 2.482 2.482 0 00-.777-.105c-.42 0-.821.058-1.204.175-.383.117-.723.236-1.022.357l-.35-.812zm2.058 5.642c.261 0 .504-.042.728-.126a2.22 2.22 0 00.588-.322 2.133 2.133 0 00.672-.868v-.98a7.92 7.92 0 00-1.344-.126c-.41 0-.765.044-1.064.133-.299.089-.532.226-.7.413-.168.187-.252.43-.252.728 0 .308.105.576.315.805.21.229.562.343 1.057.343zM9.016 34h2.324v7.448c0 .57.096.97.287 1.204.191.233.474.35.847.35.261 0 .511-.047.749-.14.238-.093.502-.252.791-.476l.504.77c-.15.13-.313.247-.49.35a3.638 3.638 0 01-1.106.42 2.963 2.963 0 01-1.442-.077 1.579 1.579 0 01-.679-.427 1.897 1.897 0 01-.413-.777c-.093-.322-.14-.721-.14-1.197v-6.51H9.016V34zm14.14 8.918c-.168.15-.366.29-.595.42a4.39 4.39 0 01-.749.336c-.27.093-.553.166-.847.217-.294.051-.59.077-.889.077-.56 0-1.055-.086-1.484-.259a2.858 2.858 0 01-1.078-.742 3.234 3.234 0 01-.658-1.155 4.767 4.767 0 01-.224-1.512c0-.588.082-1.11.245-1.568.163-.457.399-.84.707-1.148a3.08 3.08 0 011.12-.707 4.187 4.187 0 011.47-.245c.392 0 .78.051 1.162.154.383.103.721.296 1.015.581.294.285.52.677.679 1.176.159.5.215 1.146.168 1.939H17.78c0 .84.226 1.468.679 1.883.453.415 1.057.623 1.813.623.252 0 .502-.03.749-.091.247-.06.483-.133.707-.217a3.72 3.72 0 00.595-.28c.173-.103.306-.196.399-.28l.434.798zm-2.954-5.362c-.308 0-.6.033-.875.098a1.995 1.995 0 00-.728.329c-.21.154-.383.355-.518.602s-.222.553-.259.917h4.354c-.047-.616-.245-1.094-.595-1.435-.35-.34-.81-.511-1.379-.511zm4.872 6.244v-.938h1.89v-5.124h-1.89V36.8h2.618l.224.91h.07c.317-.29.672-.537 1.064-.742.392-.205.859-.308 1.4-.308.317 0 .572.06.763.182.191.121.34.299.448.532.107.233.18.516.217.847.037.331.056.707.056 1.127l-.98.014c0-.597-.058-1.036-.175-1.316-.117-.28-.329-.42-.637-.42-.29 0-.55.042-.784.126a2.565 2.565 0 00-.609.308c-.173.121-.32.243-.441.364s-.21.224-.266.308v4.13h2.688v.938h-5.656zm7.91-7h1.666v-1.386l1.092-.308V36.8h3.738v.938h-3.738v3.304c0 .681.166 1.185.497 1.512.331.327.805.49 1.421.49.42 0 .786-.08 1.099-.238.313-.159.595-.331.847-.518l.364.826a3.938 3.938 0 01-1.169.63 4.182 4.182 0 01-1.393.238 3.41 3.41 0 01-1.057-.161 2.426 2.426 0 01-.875-.497 2.38 2.38 0 01-.602-.861c-.15-.35-.224-.768-.224-1.253v-3.472h-1.666V36.8z"/><path id="(" fill="#7E7C7B" d="M46.998 46.768a6.964 6.964 0 01-1.757-.707 5.036 5.036 0 01-1.428-1.225c-.406-.504-.728-1.12-.966-1.848s-.357-1.591-.357-2.59c0-.99.121-1.855.364-2.597s.57-1.372.98-1.89c.41-.518.889-.933 1.435-1.246A6.005 6.005 0 0146.998 34l.35.882a7.086 7.086 0 00-1.512.623 3.928 3.928 0 00-1.183 1.022c-.331.425-.588.952-.77 1.582-.182.63-.273 1.393-.273 2.289 0 .905.11 1.678.329 2.317.22.64.509 1.171.868 1.596.36.425.76.756 1.204.994.443.238.889.404 1.337.497l-.35.966z"/><path id="phrase" fill="#181717" d="M50.694 39.25a14.05 14.05 0 00-.063-1.176 4.657 4.657 0 00-.049-.364h-.938v-.91h1.862l.14.98h.07c.252-.327.572-.6.959-.819.387-.22.861-.329 1.421-.329.999 0 1.75.275 2.254.826.504.55.756 1.451.756 2.702 0 .588-.086 1.118-.259 1.589a3.34 3.34 0 01-.735 1.197 3.24 3.24 0 01-1.148.756 3.999 3.999 0 01-1.484.266c-.196 0-.371-.007-.525-.021a4.613 4.613 0 01-.42-.056 3.31 3.31 0 01-.371-.091 5.103 5.103 0 01-.392-.14v2.94h-1.078v-7.35zm3.22-1.596c-.28 0-.544.051-.791.154a2.36 2.36 0 00-1.127.966c-.121.205-.196.41-.224.616v3.192c.205.14.436.25.693.329.257.08.595.119 1.015.119.747 0 1.344-.245 1.792-.735.448-.49.672-1.206.672-2.149 0-.793-.156-1.407-.469-1.841-.313-.434-.833-.651-1.561-.651zM57.806 34h2.184v3.668h.07c.29-.327.625-.581 1.008-.763.383-.182.859-.273 1.428-.273.448 0 .838.047 1.169.14.331.093.602.257.812.49.21.233.366.553.469.959.103.406.154.922.154 1.547V43.8h-1.092v-3.822c0-.401-.023-.751-.07-1.05a1.829 1.829 0 00-.273-.749c-.135-.2-.32-.352-.553-.455-.233-.103-.532-.154-.896-.154-.252 0-.5.044-.742.133-.243.089-.464.21-.665.364-.2.154-.373.34-.518.56-.145.22-.245.46-.301.721V43.8h-1.078v-8.862h-1.106V34zm9.268 9.8v-.938h1.89v-5.124h-1.89V36.8h2.618l.224.91h.07c.317-.29.672-.537 1.064-.742.392-.205.859-.308 1.4-.308.317 0 .572.06.763.182.191.121.34.299.448.532.107.233.18.516.217.847.037.331.056.707.056 1.127l-.98.014c0-.597-.058-1.036-.175-1.316-.117-.28-.329-.42-.637-.42-.29 0-.55.042-.784.126a2.565 2.565 0 00-.609.308c-.173.121-.32.243-.441.364s-.21.224-.266.308v4.13h2.688v.938h-5.656zm8.988-6.454a4.447 4.447 0 011.358-.504 7.423 7.423 0 011.484-.154c.476 0 .866.075 1.169.224.303.15.541.343.714.581.173.238.29.509.35.812.06.303.091.609.091.917 0 .355-.01.733-.028 1.134-.019.401-.033.803-.042 1.204 0 .467.028.91.084 1.33h.938v.91h-1.862l-.126-1.05h-.07c-.056.084-.14.191-.252.322-.112.13-.259.259-.441.385a2.749 2.749 0 01-1.589.469c-.69 0-1.237-.177-1.638-.532-.401-.355-.602-.84-.602-1.456 0-.476.105-.873.315-1.19.21-.317.511-.56.903-.728.392-.168.866-.266 1.421-.294a9.544 9.544 0 011.869.112c.047-.43.054-.786.021-1.071-.033-.285-.107-.511-.224-.679a.938.938 0 00-.49-.357 2.482 2.482 0 00-.777-.105c-.42 0-.821.058-1.204.175-.383.117-.723.236-1.022.357l-.35-.812zm2.058 5.642c.261 0 .504-.042.728-.126a2.22 2.22 0 00.588-.322 2.133 2.133 0 00.672-.868v-.98a7.92 7.92 0 00-1.344-.126c-.41 0-.765.044-1.064.133-.299.089-.532.226-.7.413-.168.187-.252.43-.252.728 0 .308.105.576.315.805.21.229.562.343 1.057.343zm10.962-1.078a.796.796 0 00-.35-.693 2.872 2.872 0 00-.868-.392 16.056 16.056 0 00-1.127-.273 6.502 6.502 0 01-1.127-.336 2.525 2.525 0 01-.868-.567c-.233-.238-.35-.572-.35-1.001 0-.355.077-.658.231-.91a1.94 1.94 0 01.609-.623c.252-.163.546-.285.882-.364.336-.08.686-.119 1.05-.119.653 0 1.216.082 1.687.245.471.163.847.334 1.127.511l-.448.882a11.79 11.79 0 00-1.001-.483c-.36-.154-.81-.231-1.351-.231-.205 0-.408.021-.609.063-.2.042-.383.105-.546.189a1.088 1.088 0 00-.392.329.825.825 0 00-.147.497c0 .243.117.43.35.56.233.13.523.24.868.329.345.089.721.173 1.127.252.406.08.782.194 1.127.343.345.15.635.35.868.602.233.252.35.593.35 1.022 0 .644-.254 1.176-.763 1.596-.509.42-1.272.63-2.289.63-.308 0-.611-.028-.91-.084a5.52 5.52 0 01-.84-.224 5.054 5.054 0 01-.714-.315 3.002 3.002 0 01-.532-.357l.56-.91c.112.112.261.226.448.343a4.229 4.229 0 001.337.539 3.76 3.76 0 001.484.021c.22-.042.413-.107.581-.196a1.08 1.08 0 00.399-.35.914.914 0 00.147-.525zm9.674 1.008c-.168.15-.366.29-.595.42a4.39 4.39 0 01-.749.336c-.27.093-.553.166-.847.217-.294.051-.59.077-.889.077-.56 0-1.055-.086-1.484-.259a2.858 2.858 0 01-1.078-.742 3.234 3.234 0 01-.658-1.155 4.767 4.767 0 01-.224-1.512c0-.588.082-1.11.245-1.568.163-.457.399-.84.707-1.148a3.08 3.08 0 011.12-.707 4.187 4.187 0 011.47-.245c.392 0 .78.051 1.162.154.383.103.721.296 1.015.581.294.285.52.677.679 1.176.159.5.215 1.146.168 1.939H93.38c0 .84.226 1.468.679 1.883.453.415 1.057.623 1.813.623.252 0 .502-.03.749-.091.247-.06.483-.133.707-.217a3.72 3.72 0 00.595-.28c.173-.103.306-.196.399-.28l.434.798zm-2.954-5.362c-.308 0-.6.033-.875.098a1.995 1.995 0 00-.728.329c-.21.154-.383.355-.518.602s-.222.553-.259.917h4.354c-.047-.616-.245-1.094-.595-1.435-.35-.34-.81-.511-1.379-.511z"/><path id=");" fill="#7E7C7B" d="M101.752 45.802a4.965 4.965 0 001.337-.497 4.15 4.15 0 001.204-.994c.36-.425.649-.957.868-1.596.22-.64.329-1.412.329-2.317 0-.896-.091-1.659-.273-2.289-.182-.63-.439-1.157-.77-1.582a3.928 3.928 0 00-1.183-1.022 7.086 7.086 0 00-1.512-.623l.35-.882c.607.13 1.183.352 1.729.665a4.984 4.984 0 011.435 1.246c.41.518.737 1.148.98 1.89s.364 1.608.364 2.597c0 .999-.119 1.862-.357 2.59-.238.728-.56 1.344-.966 1.848a5.036 5.036 0 01-1.428 1.225 6.964 6.964 0 01-1.757.707l-.35-.966zm9.604-2.772c0-.28.091-.506.273-.679.182-.173.418-.259.707-.259.355 0 .63.124.826.371.196.247.294.595.294 1.043a2.36 2.36 0 01-.637 1.659 2.465 2.465 0 01-.588.462c-.21.117-.404.203-.581.259l-.35-.546c.336-.13.625-.317.868-.56.243-.243.364-.537.364-.882-.13.028-.233.042-.308.042-.27 0-.483-.077-.637-.231-.154-.154-.231-.38-.231-.679zm.126-5.502c0-.299.084-.53.252-.693.168-.163.392-.245.672-.245.299 0 .532.082.7.245.168.163.252.394.252.693 0 .27-.084.495-.252.672-.168.177-.401.266-.7.266-.28 0-.504-.089-.672-.266a.938.938 0 01-.252-.672z"/></g><text id="Lexical-Environment" fill="#7E7C7B" font-family="PTMono-Regular, PT Mono" font-size="12" font-weight="normal"><tspan x="251" y="13">Lexical Environment</tspan></text><path id="Line" stroke="#7E7C7B" stroke-dasharray="2,4,2,4" stroke-linecap="square" d="M198.5 36.5h40"/></g></g></svg>