<?xml version="1.0" encoding="UTF-8"?>
<svg width="492px" height="108px" viewBox="0 0 492 108" version="1.1" xmlns="http://www.w3.org/2000/svg" xmlns:xlink="http://www.w3.org/1999/xlink">
    <!-- Generator: sketchtool 55.2 (78181) - https://sketchapp.com -->
    <title>lexical-environment-global.svg</title>
    <desc>Created with sketchtool.</desc>
    <g id="closure" stroke="none" stroke-width="1" fill="none" fill-rule="evenodd">
        <g id="lexical-environment-global.svg">
            <g id="Group-3" transform="translate(249.000000, 22.000000)">
                <rect id="Rectangle-1" stroke="#E8C48E" stroke-width="2" fill="#FFF9EB" x="1" y="1" width="135" height="28"></rect>
                <text id="phrase:-&quot;Hello&quot;" font-family="PTMono-Regular, PT Mono" font-size="14" font-weight="normal" fill="#8A704D">
                    <tspan x="7" y="18.5102041">phrase: "Hello"</tspan>
                </text>
            </g>
            <g id="Group" transform="translate(393.000000, 20.000000)">
                <path id="Line" d="M16.5,21.5 L2.5,21.5 L2.5,19.5 L16.5,19.5 L16.5,13.5 L30.5,20.5 L16.5,27.5 L16.5,21.5 Z" fill="#EE6B47" fill-rule="nonzero"></path>
                <text id="outer" font-family="PTMono-Regular, PT Mono" font-size="12" font-weight="normal" fill="#8A704D">
                    <tspan x="0" y="11">outer</tspan>
                </text>
            </g>
            <text id="null" font-family="PTMono-Regular, PT Mono" font-size="14" font-weight="normal" fill="#8A704D">
                <tspan x="437" y="44">null</tspan>
            </text>
            <g id="let-phrase-=-&quot;Hello&quot;" transform="translate(20.050000, 31.200000)" fill-rule="nonzero">
                <path d="M0.616,-1.42108547e-14 L2.94,-1.42108547e-14 L2.94,7.448 C2.94,8.01733618 3.03566571,8.4186655 3.227,8.652 C3.41833429,8.8853345 3.7006648,9.002 4.074,9.002 C4.33533464,9.002 4.58499881,8.9553338 4.823,8.862 C5.06100119,8.7686662 5.32466522,8.61000112 5.614,8.386 L6.118,9.156 C5.96866592,9.28666732 5.80533422,9.40333282 5.628,9.506 C5.45066578,9.60866718 5.2686676,9.69499965 5.082,9.765 C4.8953324,9.83500035 4.7086676,9.88866648 4.522,9.926 C4.3353324,9.96333352 4.16266746,9.982 4.004,9.982 C3.65866494,9.982 3.35066802,9.93766711 3.08,9.849 C2.80933198,9.76033289 2.58300091,9.61800098 2.401,9.422 C2.21899909,9.22599902 2.0813338,8.96700161 1.988,8.645 C1.8946662,8.32299839 1.848,7.92400238 1.848,7.448 L1.848,0.938 L0.616,0.938 L0.616,-1.42108547e-14 Z M14.756,8.918 C14.5879992,9.06733408 14.3896678,9.20733268 14.161,9.338 C13.9323322,9.46866732 13.682668,9.5806662 13.412,9.674 C13.141332,9.7673338 12.8590015,9.83966641 12.565,9.891 C12.2709985,9.94233359 11.9746682,9.968 11.676,9.968 C11.1159972,9.968 10.6213355,9.88166753 10.192,9.709 C9.76266452,9.53633247 9.40333478,9.28900161 9.114,8.967 C8.82466522,8.64499839 8.60533408,8.26000224 8.456,7.812 C8.30666592,7.36399776 8.232,6.8600028 8.232,6.3 C8.232,5.71199706 8.31366585,5.18933562 8.477,4.732 C8.64033415,4.27466438 8.87599846,3.89200154 9.184,3.584 C9.49200154,3.27599846 9.86533114,3.04033415 10.304,2.877 C10.7426689,2.71366585 11.232664,2.632 11.774,2.632 C12.166002,2.632 12.5533314,2.68333282 12.936,2.786 C13.3186686,2.88866718 13.6569985,3.08233191 13.951,3.367 C14.2450015,3.65166809 14.4713325,4.04366417 14.63,4.543 C14.7886675,5.04233583 14.8446669,5.6886627 14.798,6.482 L9.38,6.482 C9.38,7.3220042 9.60633107,7.94966459 10.059,8.365 C10.5116689,8.78033541 11.1159962,8.988 11.872,8.988 C12.1240013,8.988 12.3736654,8.95766697 12.621,8.897 C12.8683346,8.83633303 13.1039989,8.76400042 13.328,8.68 C13.5520011,8.59599958 13.7503325,8.50266718 13.923,8.4 C14.0956675,8.29733282 14.2286662,8.20400042 14.322,8.12 L14.756,8.918 Z M11.802,3.556 C11.4939985,3.556 11.2023347,3.58866634 10.927,3.654 C10.6516653,3.71933366 10.4090011,3.82899923 10.199,3.983 C9.98899895,4.13700077 9.81633401,4.33766543 9.681,4.585 C9.54566599,4.83233457 9.45933352,5.13799818 9.422,5.502 L13.776,5.502 C13.7293331,4.88599692 13.5310018,4.40766837 13.181,4.067 C12.8309983,3.72633163 12.3713362,3.556 11.802,3.556 Z M16.184,2.8 L17.85,2.8 L17.85,1.414 L18.942,1.106 L18.942,2.8 L22.68,2.8 L22.68,3.738 L18.942,3.738 L18.942,7.042 C18.942,7.72333674 19.107665,8.2273317 19.439,8.554 C19.770335,8.8806683 20.2439969,9.044 20.86,9.044 C21.2800021,9.044 21.6463318,8.96466746 21.959,8.806 C22.2716682,8.64733254 22.5539987,8.4746676 22.806,8.288 L23.17,9.114 C22.8433317,9.37533464 22.4536689,9.58533254 22.001,9.744 C21.5483311,9.90266746 21.0840024,9.982 20.608,9.982 C20.2346648,9.982 19.882335,9.92833387 19.551,9.821 C19.219665,9.71366613 18.9280013,9.54800112 18.676,9.324 C18.4239987,9.09999888 18.2233341,8.81300175 18.074,8.463 C17.9246659,8.11299825 17.85,7.69533576 17.85,7.21 L17.85,3.738 L16.184,3.738 L16.184,2.8 Z" id="let" fill="#0077AA"></path>
                <path d="M33.894,5.25 C33.894,5.16599958 33.8916667,5.05633401 33.887,4.921 C33.8823333,4.78566599 33.8753334,4.64566739 33.866,4.501 C33.8566666,4.35633261 33.8450001,4.2140007 33.831,4.074 C33.8169999,3.9339993 33.8006668,3.81266718 33.782,3.71 L32.844,3.71 L32.844,2.8 L34.706,2.8 L34.846,3.78 L34.916,3.78 C35.1680013,3.4533317 35.4876647,3.18033443 35.875,2.961 C36.2623353,2.74166557 36.7359972,2.632 37.296,2.632 C38.2946717,2.632 39.0459975,2.90733058 39.55,3.458 C40.0540025,4.00866942 40.306,4.90932708 40.306,6.16 C40.306,6.74800294 40.2196675,7.27766431 40.047,7.749 C39.8743325,8.22033569 39.6293349,8.6193317 39.312,8.946 C38.9946651,9.2726683 38.6120022,9.52466578 38.164,9.702 C37.7159978,9.87933422 37.221336,9.968 36.68,9.968 C36.483999,9.968 36.3090008,9.96100007 36.155,9.947 C36.0009992,9.93299993 35.8610006,9.91433345 35.735,9.891 C35.6089994,9.86766655 35.4853339,9.83733352 35.364,9.8 C35.2426661,9.76266648 35.1120007,9.71600028 34.972,9.66 L34.972,12.6 L33.894,12.6 L33.894,5.25 Z M37.114,3.654 C36.8339986,3.654 36.5703346,3.70533282 36.323,3.808 C36.0756654,3.91066718 35.8563343,4.04599916 35.665,4.214 C35.4736657,4.38200084 35.3173339,4.56866564 35.196,4.774 C35.0746661,4.97933436 35.0000001,5.18466564 34.972,5.39 L34.972,8.582 C35.1773344,8.7220007 35.4083321,8.83166627 35.665,8.911 C35.921668,8.99033373 36.2599979,9.03 36.68,9.03 C37.4266704,9.03 38.0239978,8.78500245 38.472,8.295 C38.9200022,7.80499755 39.144,7.08867138 39.144,6.146 C39.144,5.3526627 38.9876682,4.73900217 38.675,4.305 C38.3623318,3.87099783 37.8420036,3.654 37.114,3.654 Z M41.006,-4.26325641e-14 L43.19,-4.26325641e-14 L43.19,3.668 L43.26,3.668 C43.5493348,3.3413317 43.8853314,3.08700091 44.268,2.905 C44.6506686,2.72299909 45.1266638,2.632 45.696,2.632 C46.1440022,2.632 46.533665,2.6786662 46.865,2.772 C47.196335,2.8653338 47.466999,3.0286655 47.677,3.262 C47.8870011,3.4953345 48.0433328,3.81499797 48.146,4.221 C48.2486672,4.62700203 48.3,5.14266354 48.3,5.768 L48.3,9.8 L47.208,9.8 L47.208,5.978 C47.208,5.57666466 47.1846669,5.22666816 47.138,4.928 C47.0913331,4.62933184 47.000334,4.37966767 46.865,4.179 C46.729666,3.97833233 46.5453345,3.82666718 46.312,3.724 C46.0786655,3.62133282 45.7800018,3.57 45.416,3.57 C45.1639987,3.57 44.9166679,3.61433289 44.674,3.703 C44.4313321,3.79166711 44.2096677,3.91299923 44.009,4.067 C43.8083323,4.22100077 43.6356674,4.40766557 43.491,4.627 C43.3463326,4.84633443 43.2460003,5.08666536 43.19,5.348 L43.19,9.8 L42.112,9.8 L42.112,0.938 L41.006,0.938 L41.006,-4.26325641e-14 Z M50.274,9.8 L50.274,8.862 L52.164,8.862 L52.164,3.738 L50.274,3.738 L50.274,2.8 L52.892,2.8 L53.116,3.71 L53.186,3.71 C53.5033349,3.42066522 53.857998,3.17333436 54.25,2.968 C54.642002,2.76266564 55.108664,2.66 55.65,2.66 C55.9673349,2.66 56.2216657,2.72066606 56.413,2.842 C56.6043343,2.96333394 56.7536661,3.1406655 56.861,3.374 C56.9683339,3.6073345 57.0406665,3.88966501 57.078,4.221 C57.1153335,4.55233499 57.134,4.9279979 57.134,5.348 L56.154,5.362 C56.154,4.76466368 56.0956673,4.3260014 55.979,4.046 C55.8623328,3.7659986 55.6500015,3.626 55.342,3.626 C55.0526652,3.626 54.7913345,3.66799958 54.558,3.752 C54.3246655,3.83600042 54.1216675,3.93866606 53.949,4.06 C53.7763325,4.18133394 53.6293339,4.30266606 53.508,4.424 C53.3866661,4.54533394 53.2980003,4.64799958 53.242,4.732 L53.242,8.862 L55.93,8.862 L55.93,9.8 L50.274,9.8 Z M59.262,3.346 C59.6633353,3.1126655 60.1159975,2.94466718 60.62,2.842 C61.1240025,2.73933282 61.6186642,2.688 62.104,2.688 C62.5800024,2.688 62.9696652,2.76266592 63.273,2.912 C63.5763349,3.06133408 63.8143325,3.25499881 63.987,3.493 C64.1596675,3.73100119 64.276333,4.00166515 64.337,4.305 C64.397667,4.60833485 64.428,4.91399846 64.428,5.222 C64.428,5.57666844 64.4186668,5.95466466 64.4,6.356 C64.3813332,6.75733534 64.3673334,7.15866466 64.358,7.56 C64.358,8.026669 64.3859997,8.4699979 64.442,8.89 L65.38,8.89 L65.38,9.8 L63.518,9.8 L63.392,8.75 L63.322,8.75 C63.2659997,8.83400042 63.1820006,8.94133268 63.07,9.072 C62.9579994,9.20266732 62.8110009,9.33099937 62.629,9.457 C62.4469991,9.58300063 62.2253346,9.6926662 61.964,9.786 C61.7026654,9.8793338 61.3946684,9.926 61.04,9.926 C60.3493299,9.926 59.8033353,9.74866844 59.402,9.394 C59.0006647,9.03933156 58.8,8.55400308 58.8,7.938 C58.8,7.46199762 58.904999,7.06533492 59.115,6.748 C59.3250011,6.43066508 59.625998,6.188 60.018,6.02 C60.410002,5.85199916 60.8836639,5.75400014 61.439,5.726 C61.9943361,5.69799986 62.6173299,5.73533282 63.308,5.838 C63.3546669,5.40866452 63.3616668,5.05166809 63.329,4.767 C63.2963332,4.48233191 63.2216673,4.25600084 63.105,4.088 C62.9883328,3.91999916 62.8250011,3.80100035 62.615,3.731 C62.404999,3.66099965 62.1460015,3.626 61.838,3.626 C61.4179979,3.626 61.0166686,3.68433275 60.634,3.801 C60.2513314,3.91766725 59.9106682,4.03666606 59.612,4.158 L59.262,3.346 Z M61.32,8.988 C61.5813346,8.988 61.8239989,8.94600042 62.048,8.862 C62.2720011,8.77799958 62.4679992,8.67066732 62.636,8.54 C62.8040008,8.40933268 62.9439994,8.26700077 63.056,8.113 C63.1680006,7.95899923 63.2519997,7.8120007 63.308,7.672 L63.308,6.692 C62.8226642,6.60799958 62.3746687,6.566 61.964,6.566 C61.5533313,6.566 61.1986682,6.61033289 60.9,6.699 C60.6013318,6.78766711 60.3680008,6.9253324 60.2,7.112 C60.0319992,7.2986676 59.948,7.54133184 59.948,7.84 C59.948,8.14800154 60.052999,8.41633219 60.263,8.645 C60.4730011,8.87366781 60.8253309,8.988 61.32,8.988 Z M72.282,7.91 C72.282,7.61133184 72.1653345,7.38033415 71.932,7.217 C71.6986655,7.05366585 71.4093351,6.92300049 71.064,6.825 C70.7186649,6.72699951 70.343002,6.63600042 69.937,6.552 C69.530998,6.46799958 69.1553351,6.3560007 68.81,6.216 C68.4646649,6.0759993 68.1753345,5.88700119 67.942,5.649 C67.7086655,5.41099881 67.592,5.07733548 67.592,4.648 C67.592,4.29333156 67.6689992,3.99000126 67.823,3.738 C67.9770008,3.48599874 68.1799987,3.27833415 68.432,3.115 C68.6840013,2.95166585 68.9779983,2.83033373 69.314,2.751 C69.6500017,2.67166627 69.9999982,2.632 70.364,2.632 C71.0173366,2.632 71.5796643,2.71366585 72.051,2.877 C72.5223357,3.04033415 72.8979986,3.21066578 73.178,3.388 L72.73,4.27 C72.4219985,4.10199916 72.0883351,3.94100077 71.729,3.787 C71.3696649,3.63299923 70.919336,3.556 70.378,3.556 C70.1726656,3.556 69.9696677,3.57699979 69.769,3.619 C69.5683323,3.66100021 69.3863342,3.72399958 69.223,3.808 C69.0596659,3.89200042 68.9290005,4.00166599 68.831,4.137 C68.7329995,4.27233401 68.684,4.43799902 68.684,4.634 C68.684,4.87666788 68.8006655,5.06333268 69.034,5.194 C69.2673345,5.32466732 69.5566649,5.43433289 69.902,5.523 C70.2473351,5.61166711 70.622998,5.69566627 71.029,5.775 C71.435002,5.85433373 71.8106649,5.96866592 72.156,6.118 C72.5013351,6.26733408 72.7906655,6.46799874 73.024,6.72 C73.2573345,6.97200126 73.374,7.31266452 73.374,7.742 C73.374,8.38600322 73.1196692,8.9179979 72.611,9.338 C72.1023308,9.7580021 71.3393384,9.968 70.322,9.968 C70.0139985,9.968 69.7106682,9.94000028 69.412,9.884 C69.1133318,9.82799972 68.8333346,9.7533338 68.572,9.66 C68.3106654,9.5666662 68.0726677,9.46166725 67.858,9.345 C67.6433323,9.22833275 67.4660007,9.10933394 67.326,8.988 L67.886,8.078 C67.9980006,8.19000056 68.1473324,8.30433275 68.334,8.421 C68.5206676,8.53766725 68.7259989,8.6426662 68.95,8.736 C69.1740011,8.8293338 69.4143321,8.90399972 69.671,8.96 C69.927668,9.01600028 70.1866654,9.044 70.448,9.044 C70.7000013,9.044 70.9356656,9.02300021 71.155,8.981 C71.3743344,8.93899979 71.5679992,8.87366711 71.736,8.785 C71.9040008,8.69633289 72.0369995,8.57966739 72.135,8.435 C72.2330005,8.29033261 72.282,8.11533436 72.282,7.91 Z M81.956,8.918 C81.7879992,9.06733408 81.5896678,9.20733268 81.361,9.338 C81.1323322,9.46866732 80.882668,9.5806662 80.612,9.674 C80.341332,9.7673338 80.0590015,9.83966641 79.765,9.891 C79.4709985,9.94233359 79.1746682,9.968 78.876,9.968 C78.3159972,9.968 77.8213355,9.88166753 77.392,9.709 C76.9626645,9.53633247 76.6033348,9.28900161 76.314,8.967 C76.0246652,8.64499839 75.8053341,8.26000224 75.656,7.812 C75.5066659,7.36399776 75.432,6.8600028 75.432,6.3 C75.432,5.71199706 75.5136659,5.18933562 75.677,4.732 C75.8403342,4.27466438 76.0759985,3.89200154 76.384,3.584 C76.6920015,3.27599846 77.0653311,3.04033415 77.504,2.877 C77.9426689,2.71366585 78.432664,2.632 78.974,2.632 C79.366002,2.632 79.7533314,2.68333282 80.136,2.786 C80.5186686,2.88866718 80.8569985,3.08233191 81.151,3.367 C81.4450015,3.65166809 81.6713325,4.04366417 81.83,4.543 C81.9886675,5.04233583 82.0446669,5.6886627 81.998,6.482 L76.58,6.482 C76.58,7.3220042 76.8063311,7.94966459 77.259,8.365 C77.7116689,8.78033541 78.3159962,8.988 79.072,8.988 C79.3240013,8.988 79.5736654,8.95766697 79.821,8.897 C80.0683346,8.83633303 80.3039989,8.76400042 80.528,8.68 C80.7520011,8.59599958 80.9503325,8.50266718 81.123,8.4 C81.2956675,8.29733282 81.4286662,8.20400042 81.522,8.12 L81.956,8.918 Z M79.002,3.556 C78.6939985,3.556 78.4023347,3.58866634 78.127,3.654 C77.8516653,3.71933366 77.6090011,3.82899923 77.399,3.983 C77.188999,4.13700077 77.016334,4.33766543 76.881,4.585 C76.745666,4.83233457 76.6593335,5.13799818 76.622,5.502 L80.976,5.502 C80.9293331,4.88599692 80.7310018,4.40766837 80.381,4.067 C80.0309983,3.72633163 79.5713362,3.556 79.002,3.556 Z" id="phrase" fill="#000000"></path>
                <path d="M92.302,3.402 L98.798,3.402 L98.798,4.41 L92.302,4.41 L92.302,3.402 Z M92.302,5.698 L98.798,5.698 L98.798,6.706 L92.302,6.706 L92.302,5.698 Z" id="=" fill="#A67F59"></path>
                <path d="M113.176,-1.42108547e-14 L114.408,-1.42108547e-14 L113.974,4.242 L113.176,4.242 L113.176,-1.42108547e-14 Z M110.278,-1.42108547e-14 L111.51,-1.42108547e-14 L111.076,4.242 L110.278,4.242 L110.278,-1.42108547e-14 Z M122.948,5.306 L118.552,5.306 L118.552,9.8 L117.39,9.8 L117.39,-1.42108547e-14 L118.552,-1.42108547e-14 L118.552,4.27 L122.948,4.27 L122.948,-1.42108547e-14 L124.11,-1.42108547e-14 L124.11,9.8 L122.948,9.8 L122.948,5.306 Z M132.356,8.918 C132.187999,9.06733408 131.989668,9.20733268 131.761,9.338 C131.532332,9.46866732 131.282668,9.5806662 131.012,9.674 C130.741332,9.7673338 130.459001,9.83966641 130.165,9.891 C129.870999,9.94233359 129.574668,9.968 129.276,9.968 C128.715997,9.968 128.221335,9.88166753 127.792,9.709 C127.362665,9.53633247 127.003335,9.28900161 126.714,8.967 C126.424665,8.64499839 126.205334,8.26000224 126.056,7.812 C125.906666,7.36399776 125.832,6.8600028 125.832,6.3 C125.832,5.71199706 125.913666,5.18933562 126.077,4.732 C126.240334,4.27466438 126.475998,3.89200154 126.784,3.584 C127.092002,3.27599846 127.465331,3.04033415 127.904,2.877 C128.342669,2.71366585 128.832664,2.632 129.374,2.632 C129.766002,2.632 130.153331,2.68333282 130.536,2.786 C130.918669,2.88866718 131.256999,3.08233191 131.551,3.367 C131.845001,3.65166809 132.071333,4.04366417 132.23,4.543 C132.388667,5.04233583 132.444667,5.6886627 132.398,6.482 L126.98,6.482 C126.98,7.3220042 127.206331,7.94966459 127.659,8.365 C128.111669,8.78033541 128.715996,8.988 129.472,8.988 C129.724001,8.988 129.973665,8.95766697 130.221,8.897 C130.468335,8.83633303 130.703999,8.76400042 130.928,8.68 C131.152001,8.59599958 131.350332,8.50266718 131.523,8.4 C131.695668,8.29733282 131.828666,8.20400042 131.922,8.12 L132.356,8.918 Z M129.402,3.556 C129.093998,3.556 128.802335,3.58866634 128.527,3.654 C128.251665,3.71933366 128.009001,3.82899923 127.799,3.983 C127.588999,4.13700077 127.416334,4.33766543 127.281,4.585 C127.145666,4.83233457 127.059334,5.13799818 127.022,5.502 L131.376,5.502 C131.329333,4.88599692 131.131002,4.40766837 130.781,4.067 C130.430998,3.72633163 129.971336,3.556 129.402,3.556 Z M135.016,-1.42108547e-14 L137.34,-1.42108547e-14 L137.34,7.448 C137.34,8.01733618 137.435666,8.4186655 137.627,8.652 C137.818334,8.8853345 138.100665,9.002 138.474,9.002 C138.735335,9.002 138.984999,8.9553338 139.223,8.862 C139.461001,8.7686662 139.724665,8.61000112 140.014,8.386 L140.518,9.156 C140.368666,9.28666732 140.205334,9.40333282 140.028,9.506 C139.850666,9.60866718 139.668668,9.69499965 139.482,9.765 C139.295332,9.83500035 139.108668,9.88866648 138.922,9.926 C138.735332,9.96333352 138.562667,9.982 138.404,9.982 C138.058665,9.982 137.750668,9.93766711 137.48,9.849 C137.209332,9.76033289 136.983001,9.61800098 136.801,9.422 C136.618999,9.22599902 136.481334,8.96700161 136.388,8.645 C136.294666,8.32299839 136.248,7.92400238 136.248,7.448 L136.248,0.938 L135.016,0.938 L135.016,-1.42108547e-14 Z M143.416,-1.42108547e-14 L145.74,-1.42108547e-14 L145.74,7.448 C145.74,8.01733618 145.835666,8.4186655 146.027,8.652 C146.218334,8.8853345 146.500665,9.002 146.874,9.002 C147.135335,9.002 147.384999,8.9553338 147.623,8.862 C147.861001,8.7686662 148.124665,8.61000112 148.414,8.386 L148.918,9.156 C148.768666,9.28666732 148.605334,9.40333282 148.428,9.506 C148.250666,9.60866718 148.068668,9.69499965 147.882,9.765 C147.695332,9.83500035 147.508668,9.88866648 147.322,9.926 C147.135332,9.96333352 146.962667,9.982 146.804,9.982 C146.458665,9.982 146.150668,9.93766711 145.88,9.849 C145.609332,9.76033289 145.383001,9.61800098 145.201,9.422 C145.018999,9.22599902 144.881334,8.96700161 144.788,8.645 C144.694666,8.32299839 144.648,7.92400238 144.648,7.448 L144.648,0.938 L143.416,0.938 L143.416,-1.42108547e-14 Z M150.948,6.3 C150.948,5.17066102 151.241997,4.27700329 151.83,3.619 C152.418003,2.96099671 153.257995,2.632 154.35,2.632 C154.938003,2.632 155.444331,2.72766571 155.869,2.919 C156.293669,3.11033429 156.645999,3.3693317 156.926,3.696 C157.206001,4.0226683 157.413666,4.40999776 157.549,4.858 C157.684334,5.30600224 157.752,5.7866641 157.752,6.3 C157.752,6.8600028 157.677334,7.36633107 157.528,7.819 C157.378666,8.27166893 157.159335,8.65666508 156.87,8.974 C156.580665,9.29133492 156.223669,9.53633247 155.799,9.709 C155.374331,9.88166753 154.891336,9.968 154.35,9.968 C153.77133,9.968 153.267335,9.87233429 152.838,9.681 C152.408665,9.48966571 152.054001,9.2306683 151.774,8.904 C151.493999,8.5773317 151.286334,8.19000224 151.151,7.742 C151.015666,7.29399776 150.948,6.8133359 150.948,6.3 Z M152.11,6.3 C152.11,6.6266683 152.149666,6.9533317 152.229,7.28 C152.308334,7.6066683 152.436666,7.90066536 152.614,8.162 C152.791334,8.42333464 153.022332,8.63333254 153.307,8.792 C153.591668,8.95066746 153.939331,9.03 154.35,9.03 C155.09667,9.03 155.658998,8.79900231 156.037,8.337 C156.415002,7.87499769 156.604,7.19600448 156.604,6.3 C156.604,5.96399832 156.564334,5.63500161 156.485,5.313 C156.405666,4.99099839 156.275001,4.69933464 156.093,4.438 C155.910999,4.17666536 155.677668,3.96666746 155.393,3.808 C155.108332,3.64933254 154.760669,3.57 154.35,3.57 C153.60333,3.57 153.043335,3.79866438 152.67,4.256 C152.296665,4.71333562 152.11,5.39466214 152.11,6.3 Z M163.576,-1.42108547e-14 L164.808,-1.42108547e-14 L164.374,4.242 L163.576,4.242 L163.576,-1.42108547e-14 Z M160.678,-1.42108547e-14 L161.91,-1.42108547e-14 L161.476,4.242 L160.678,4.242 L160.678,-1.42108547e-14 Z" id="&quot;Hello&quot;" fill="#669900"></path>
                <path d="M170.156,9.03 C170.156,8.7499986 170.246999,8.52366753 170.429,8.351 C170.611001,8.17833247 170.846665,8.092 171.136,8.092 C171.490668,8.092 171.765999,8.21566543 171.962,8.463 C172.158001,8.71033457 172.256,9.05799776 172.256,9.506 C172.256,9.87000182 172.195334,10.1896653 172.074,10.465 C171.952666,10.7403347 171.801001,10.9736657 171.619,11.165 C171.436999,11.3563343 171.241001,11.5103327 171.031,11.627 C170.820999,11.7436672 170.627334,11.8299997 170.45,11.886 L170.1,11.34 C170.436002,11.2093327 170.725332,11.0226679 170.968,10.78 C171.210668,10.5373321 171.332,10.2433351 171.332,9.898 C171.201333,9.92600014 171.098667,9.94 171.024,9.94 C170.753332,9.94 170.541001,9.86300077 170.387,9.709 C170.232999,9.55499923 170.156,9.32866816 170.156,9.03 Z M170.282,3.528 C170.282,3.22933184 170.365999,2.99833415 170.534,2.835 C170.702001,2.67166585 170.925999,2.59 171.206,2.59 C171.504668,2.59 171.737999,2.67166585 171.906,2.835 C172.074001,2.99833415 172.158,3.22933184 172.158,3.528 C172.158,3.79866802 172.074001,4.02266578 171.906,4.2 C171.737999,4.37733422 171.504668,4.466 171.206,4.466 C170.925999,4.466 170.702001,4.37733422 170.534,4.2 C170.365999,4.02266578 170.282,3.79866802 170.282,3.528 Z" id=";" fill="#999999"></path>
                <path d="M0.462,37.346 C0.86333534,37.1126655 1.31599748,36.9446672 1.82,36.842 C2.32400252,36.7393328 2.81866424,36.688 3.304,36.688 C3.78000238,36.688 4.16966515,36.7626659 4.473,36.912 C4.77633485,37.0613341 5.01433247,37.2549988 5.187,37.493 C5.35966753,37.7310012 5.47633303,38.0016651 5.537,38.305 C5.59766697,38.6083348 5.628,38.9139985 5.628,39.222 C5.628,39.5766684 5.61866676,39.9546647 5.6,40.356 C5.58133324,40.7573353 5.56733338,41.1586647 5.558,41.56 C5.558,42.026669 5.58599972,42.4699979 5.642,42.89 L6.58,42.89 L6.58,43.8 L4.718,43.8 L4.592,42.75 L4.522,42.75 C4.46599972,42.8340004 4.38200056,42.9413327 4.27,43.072 C4.15799944,43.2026673 4.01100091,43.3309994 3.829,43.457 C3.64699909,43.5830006 3.42533464,43.6926662 3.164,43.786 C2.90266536,43.8793338 2.59466844,43.926 2.24,43.926 C1.54932988,43.926 1.00333534,43.7486684 0.602,43.394 C0.20066466,43.0393316 1.27897692e-13,42.5540031 1.27897692e-13,41.938 C1.27897692e-13,41.4619976 0.10499895,41.0653349 0.315,40.748 C0.52500105,40.4306651 0.82599804,40.188 1.218,40.02 C1.61000196,39.8519992 2.08366389,39.7540001 2.639,39.726 C3.19433611,39.6979999 3.81732988,39.7353328 4.508,39.838 C4.5546669,39.4086645 4.56166683,39.0516681 4.529,38.767 C4.49633317,38.4823319 4.42166725,38.2560008 4.305,38.088 C4.18833275,37.9199992 4.02500105,37.8010003 3.815,37.731 C3.60499895,37.6609996 3.34600154,37.626 3.038,37.626 C2.6179979,37.626 2.21666858,37.6843327 1.834,37.801 C1.45133142,37.9176672 1.11066816,38.0366661 0.812,38.158 L0.462,37.346 Z M2.52,42.988 C2.78133464,42.988 3.02399888,42.9460004 3.248,42.862 C3.47200112,42.7779996 3.66799916,42.6706673 3.836,42.54 C4.00400084,42.4093327 4.14399944,42.2670008 4.256,42.113 C4.36800056,41.9589992 4.45199972,41.8120007 4.508,41.672 L4.508,40.692 C4.02266424,40.6079996 3.57466872,40.566 3.164,40.566 C2.75333128,40.566 2.39866816,40.6103329 2.1,40.699 C1.80133184,40.7876671 1.56800084,40.9253324 1.4,41.112 C1.23199916,41.2986676 1.148,41.5413318 1.148,41.84 C1.148,42.1480015 1.25299895,42.4163322 1.463,42.645 C1.67300105,42.8736678 2.02533086,42.988 2.52,42.988 Z M9.016,34 L11.34,34 L11.34,41.448 C11.34,42.0173362 11.4356657,42.4186655 11.627,42.652 C11.8183343,42.8853345 12.1006648,43.002 12.474,43.002 C12.7353346,43.002 12.9849988,42.9553338 13.223,42.862 C13.4610012,42.7686662 13.7246652,42.6100011 14.014,42.386 L14.518,43.156 C14.3686659,43.2866673 14.2053342,43.4033328 14.028,43.506 C13.8506658,43.6086672 13.6686676,43.6949996 13.482,43.765 C13.2953324,43.8350003 13.1086676,43.8886665 12.922,43.926 C12.7353324,43.9633335 12.5626675,43.982 12.404,43.982 C12.0586649,43.982 11.750668,43.9376671 11.48,43.849 C11.209332,43.7603329 10.9830009,43.618001 10.801,43.422 C10.6189991,43.225999 10.4813338,42.9670016 10.388,42.645 C10.2946662,42.3229984 10.248,41.9240024 10.248,41.448 L10.248,34.938 L9.016,34.938 L9.016,34 Z M23.156,42.918 C22.9879992,43.0673341 22.7896678,43.2073327 22.561,43.338 C22.3323322,43.4686673 22.082668,43.5806662 21.812,43.674 C21.541332,43.7673338 21.2590015,43.8396664 20.965,43.891 C20.6709985,43.9423336 20.3746682,43.968 20.076,43.968 C19.5159972,43.968 19.0213355,43.8816675 18.592,43.709 C18.1626645,43.5363325 17.8033348,43.2890016 17.514,42.967 C17.2246652,42.6449984 17.0053341,42.2600022 16.856,41.812 C16.7066659,41.3639978 16.632,40.8600028 16.632,40.3 C16.632,39.7119971 16.7136659,39.1893356 16.877,38.732 C17.0403342,38.2746644 17.2759985,37.8920015 17.584,37.584 C17.8920015,37.2759985 18.2653311,37.0403341 18.704,36.877 C19.1426689,36.7136658 19.632664,36.632 20.174,36.632 C20.566002,36.632 20.9533314,36.6833328 21.336,36.786 C21.7186686,36.8886672 22.0569985,37.0823319 22.351,37.367 C22.6450015,37.6516681 22.8713325,38.0436642 23.03,38.543 C23.1886675,39.0423358 23.2446669,39.6886627 23.198,40.482 L17.78,40.482 C17.78,41.3220042 18.0063311,41.9496646 18.459,42.365 C18.9116689,42.7803354 19.5159962,42.988 20.272,42.988 C20.5240013,42.988 20.7736654,42.957667 21.021,42.897 C21.2683346,42.836333 21.5039989,42.7640004 21.728,42.68 C21.9520011,42.5959996 22.1503325,42.5026672 22.323,42.4 C22.4956675,42.2973328 22.6286662,42.2040004 22.722,42.12 L23.156,42.918 Z M20.202,37.556 C19.8939985,37.556 19.6023347,37.5886663 19.327,37.654 C19.0516653,37.7193337 18.8090011,37.8289992 18.599,37.983 C18.388999,38.1370008 18.216334,38.3376654 18.081,38.585 C17.945666,38.8323346 17.8593335,39.1379982 17.822,39.502 L22.176,39.502 C22.1293331,38.8859969 21.9310018,38.4076684 21.581,38.067 C21.2309983,37.7263316 20.7713362,37.556 20.202,37.556 Z M25.074,43.8 L25.074,42.862 L26.964,42.862 L26.964,37.738 L25.074,37.738 L25.074,36.8 L27.692,36.8 L27.916,37.71 L27.986,37.71 C28.3033349,37.4206652 28.657998,37.1733344 29.05,36.968 C29.442002,36.7626656 29.908664,36.66 30.45,36.66 C30.7673349,36.66 31.0216657,36.7206661 31.213,36.842 C31.4043343,36.9633339 31.5536661,37.1406655 31.661,37.374 C31.7683339,37.6073345 31.8406665,37.889665 31.878,38.221 C31.9153335,38.552335 31.934,38.9279979 31.934,39.348 L30.954,39.362 C30.954,38.7646637 30.8956673,38.3260014 30.779,38.046 C30.6623328,37.7659986 30.4500015,37.626 30.142,37.626 C29.8526652,37.626 29.5913345,37.6679996 29.358,37.752 C29.1246655,37.8360004 28.9216675,37.9386661 28.749,38.06 C28.5763325,38.1813339 28.4293339,38.3026661 28.308,38.424 C28.1866661,38.5453339 28.0980003,38.6479996 28.042,38.732 L28.042,42.862 L30.73,42.862 L30.73,43.8 L25.074,43.8 Z M32.984,36.8 L34.65,36.8 L34.65,35.414 L35.742,35.106 L35.742,36.8 L39.48,36.8 L39.48,37.738 L35.742,37.738 L35.742,41.042 C35.742,41.7233367 35.907665,42.2273317 36.239,42.554 C36.570335,42.8806683 37.0439969,43.044 37.66,43.044 C38.0800021,43.044 38.4463318,42.9646675 38.759,42.806 C39.0716682,42.6473325 39.3539987,42.4746676 39.606,42.288 L39.97,43.114 C39.6433317,43.3753346 39.2536689,43.5853325 38.801,43.744 C38.3483311,43.9026675 37.8840024,43.982 37.408,43.982 C37.0346648,43.982 36.682335,43.9283339 36.351,43.821 C36.019665,43.7136661 35.7280013,43.5480011 35.476,43.324 C35.2239987,43.0999989 35.0233341,42.8130017 34.874,42.463 C34.7246659,42.1129982 34.65,41.6953358 34.65,41.21 L34.65,37.738 L32.984,37.738 L32.984,36.8 Z" id="alert" fill="#000000"></path>
                <path d="M46.998,46.768 C46.3726635,46.6093325 45.7870027,46.3736682 45.241,46.061 C44.6949973,45.7483318 44.219002,45.3400025 43.813,44.836 C43.406998,44.3319975 43.0850012,43.7160036 42.847,42.988 C42.6089988,42.2599964 42.49,41.3966717 42.49,40.398 C42.49,39.4086617 42.6113321,38.5430037 42.854,37.801 C43.0966679,37.0589963 43.4233313,36.4290026 43.834,35.911 C44.2446687,35.3929974 44.7229973,34.9776682 45.269,34.665 C45.8150027,34.3523318 46.3913303,34.1306673 46.998,34 L47.348,34.882 C46.7973306,35.0406675 46.2933356,35.248332 45.836,35.505 C45.3786644,35.761668 44.984335,36.1023312 44.653,36.527 C44.321665,36.9516688 44.0650009,37.4789969 43.883,38.109 C43.7009991,38.7390032 43.61,39.5019955 43.61,40.398 C43.61,41.3033379 43.7196656,42.0756635 43.939,42.715 C44.1583344,43.3543365 44.4476649,43.8863312 44.807,44.311 C45.1663351,44.7356688 45.5676645,45.0669988 46.011,45.305 C46.4543356,45.5430012 46.8999978,45.7086662 47.348,45.802 L46.998,46.768 Z" id="(" fill="#999999"></path>
                <path d="M50.694,39.25 C50.694,39.1659996 50.6916667,39.056334 50.687,38.921 C50.6823333,38.785666 50.6753334,38.6456674 50.666,38.501 C50.6566666,38.3563326 50.6450001,38.2140007 50.631,38.074 C50.6169999,37.9339993 50.6006668,37.8126672 50.582,37.71 L49.644,37.71 L49.644,36.8 L51.506,36.8 L51.646,37.78 L51.716,37.78 C51.9680013,37.4533317 52.2876647,37.1803344 52.675,36.961 C53.0623353,36.7416656 53.5359972,36.632 54.096,36.632 C55.0946717,36.632 55.8459975,36.9073306 56.35,37.458 C56.8540025,38.0086694 57.106,38.9093271 57.106,40.16 C57.106,40.7480029 57.0196675,41.2776643 56.847,41.749 C56.6743325,42.2203357 56.4293349,42.6193317 56.112,42.946 C55.7946651,43.2726683 55.4120022,43.5246658 54.964,43.702 C54.5159978,43.8793342 54.021336,43.968 53.48,43.968 C53.283999,43.968 53.1090008,43.9610001 52.955,43.947 C52.8009992,43.9329999 52.6610006,43.9143334 52.535,43.891 C52.4089994,43.8676665 52.2853339,43.8373335 52.164,43.8 C52.0426661,43.7626665 51.9120007,43.7160003 51.772,43.66 L51.772,46.6 L50.694,46.6 L50.694,39.25 Z M53.914,37.654 C53.6339986,37.654 53.3703346,37.7053328 53.123,37.808 C52.8756654,37.9106672 52.6563343,38.0459992 52.465,38.214 C52.2736657,38.3820008 52.1173339,38.5686656 51.996,38.774 C51.8746661,38.9793344 51.8000001,39.1846656 51.772,39.39 L51.772,42.582 C51.9773344,42.7220007 52.2083321,42.8316663 52.465,42.911 C52.721668,42.9903337 53.0599979,43.03 53.48,43.03 C54.2266704,43.03 54.8239978,42.7850024 55.272,42.295 C55.7200022,41.8049975 55.944,41.0886714 55.944,40.146 C55.944,39.3526627 55.7876682,38.7390022 55.475,38.305 C55.1623318,37.8709978 54.6420036,37.654 53.914,37.654 Z M57.806,34 L59.99,34 L59.99,37.668 L60.06,37.668 C60.3493348,37.3413317 60.6853314,37.0870009 61.068,36.905 C61.4506686,36.7229991 61.9266638,36.632 62.496,36.632 C62.9440022,36.632 63.333665,36.6786662 63.665,36.772 C63.996335,36.8653338 64.266999,37.0286655 64.477,37.262 C64.6870011,37.4953345 64.8433328,37.814998 64.946,38.221 C65.0486672,38.627002 65.1,39.1426635 65.1,39.768 L65.1,43.8 L64.008,43.8 L64.008,39.978 C64.008,39.5766647 63.9846669,39.2266682 63.938,38.928 C63.8913331,38.6293318 63.800334,38.3796677 63.665,38.179 C63.529666,37.9783323 63.3453345,37.8266672 63.112,37.724 C62.8786655,37.6213328 62.5800018,37.57 62.216,37.57 C61.9639987,37.57 61.7166679,37.6143329 61.474,37.703 C61.2313321,37.7916671 61.0096677,37.9129992 60.809,38.067 C60.6083323,38.2210008 60.4356674,38.4076656 60.291,38.627 C60.1463326,38.8463344 60.0460003,39.0866654 59.99,39.348 L59.99,43.8 L58.912,43.8 L58.912,34.938 L57.806,34.938 L57.806,34 Z M67.074,43.8 L67.074,42.862 L68.964,42.862 L68.964,37.738 L67.074,37.738 L67.074,36.8 L69.692,36.8 L69.916,37.71 L69.986,37.71 C70.3033349,37.4206652 70.657998,37.1733344 71.05,36.968 C71.442002,36.7626656 71.908664,36.66 72.45,36.66 C72.7673349,36.66 73.0216657,36.7206661 73.213,36.842 C73.4043343,36.9633339 73.5536661,37.1406655 73.661,37.374 C73.7683339,37.6073345 73.8406665,37.889665 73.878,38.221 C73.9153335,38.552335 73.934,38.9279979 73.934,39.348 L72.954,39.362 C72.954,38.7646637 72.8956673,38.3260014 72.779,38.046 C72.6623328,37.7659986 72.4500015,37.626 72.142,37.626 C71.8526652,37.626 71.5913345,37.6679996 71.358,37.752 C71.1246655,37.8360004 70.9216675,37.9386661 70.749,38.06 C70.5763325,38.1813339 70.4293339,38.3026661 70.308,38.424 C70.1866661,38.5453339 70.0980003,38.6479996 70.042,38.732 L70.042,42.862 L72.73,42.862 L72.73,43.8 L67.074,43.8 Z M76.062,37.346 C76.4633353,37.1126655 76.9159975,36.9446672 77.42,36.842 C77.9240025,36.7393328 78.4186642,36.688 78.904,36.688 C79.3800024,36.688 79.7696652,36.7626659 80.073,36.912 C80.3763349,37.0613341 80.6143325,37.2549988 80.787,37.493 C80.9596675,37.7310012 81.076333,38.0016651 81.137,38.305 C81.197667,38.6083348 81.228,38.9139985 81.228,39.222 C81.228,39.5766684 81.2186668,39.9546647 81.2,40.356 C81.1813332,40.7573353 81.1673334,41.1586647 81.158,41.56 C81.158,42.026669 81.1859997,42.4699979 81.242,42.89 L82.18,42.89 L82.18,43.8 L80.318,43.8 L80.192,42.75 L80.122,42.75 C80.0659997,42.8340004 79.9820006,42.9413327 79.87,43.072 C79.7579994,43.2026673 79.6110009,43.3309994 79.429,43.457 C79.2469991,43.5830006 79.0253346,43.6926662 78.764,43.786 C78.5026654,43.8793338 78.1946684,43.926 77.84,43.926 C77.1493299,43.926 76.6033353,43.7486684 76.202,43.394 C75.8006647,43.0393316 75.6,42.5540031 75.6,41.938 C75.6,41.4619976 75.704999,41.0653349 75.915,40.748 C76.1250011,40.4306651 76.425998,40.188 76.818,40.02 C77.210002,39.8519992 77.6836639,39.7540001 78.239,39.726 C78.7943361,39.6979999 79.4173299,39.7353328 80.108,39.838 C80.1546669,39.4086645 80.1616668,39.0516681 80.129,38.767 C80.0963332,38.4823319 80.0216673,38.2560008 79.905,38.088 C79.7883328,37.9199992 79.6250011,37.8010003 79.415,37.731 C79.204999,37.6609996 78.9460015,37.626 78.638,37.626 C78.2179979,37.626 77.8166686,37.6843327 77.434,37.801 C77.0513314,37.9176672 76.7106682,38.0366661 76.412,38.158 L76.062,37.346 Z M78.12,42.988 C78.3813346,42.988 78.6239989,42.9460004 78.848,42.862 C79.0720011,42.7779996 79.2679992,42.6706673 79.436,42.54 C79.6040008,42.4093327 79.7439994,42.2670008 79.856,42.113 C79.9680006,41.9589992 80.0519997,41.8120007 80.108,41.672 L80.108,40.692 C79.6226642,40.6079996 79.1746687,40.566 78.764,40.566 C78.3533313,40.566 77.9986682,40.6103329 77.7,40.699 C77.4013318,40.7876671 77.1680008,40.9253324 77,41.112 C76.8319992,41.2986676 76.748,41.5413318 76.748,41.84 C76.748,42.1480015 76.852999,42.4163322 77.063,42.645 C77.2730011,42.8736678 77.6253309,42.988 78.12,42.988 Z M89.082,41.91 C89.082,41.6113318 88.9653345,41.3803341 88.732,41.217 C88.4986655,41.0536658 88.2093351,40.9230005 87.864,40.825 C87.5186649,40.7269995 87.143002,40.6360004 86.737,40.552 C86.330998,40.4679996 85.9553351,40.3560007 85.61,40.216 C85.2646649,40.0759993 84.9753345,39.8870012 84.742,39.649 C84.5086655,39.4109988 84.392,39.0773355 84.392,38.648 C84.392,38.2933316 84.4689992,37.9900013 84.623,37.738 C84.7770008,37.4859987 84.9799987,37.2783341 85.232,37.115 C85.4840013,36.9516658 85.7779983,36.8303337 86.114,36.751 C86.4500017,36.6716663 86.7999982,36.632 87.164,36.632 C87.8173366,36.632 88.3796643,36.7136658 88.851,36.877 C89.3223357,37.0403341 89.6979986,37.2106658 89.978,37.388 L89.53,38.27 C89.2219985,38.1019992 88.8883351,37.9410008 88.529,37.787 C88.1696649,37.6329992 87.719336,37.556 87.178,37.556 C86.9726656,37.556 86.7696677,37.5769998 86.569,37.619 C86.3683323,37.6610002 86.1863342,37.7239996 86.023,37.808 C85.8596659,37.8920004 85.7290005,38.001666 85.631,38.137 C85.5329995,38.272334 85.484,38.437999 85.484,38.634 C85.484,38.8766679 85.6006655,39.0633327 85.834,39.194 C86.0673345,39.3246673 86.3566649,39.4343329 86.702,39.523 C87.0473351,39.6116671 87.422998,39.6956663 87.829,39.775 C88.235002,39.8543337 88.6106649,39.9686659 88.956,40.118 C89.3013351,40.2673341 89.5906655,40.4679987 89.824,40.72 C90.0573345,40.9720013 90.174,41.3126645 90.174,41.742 C90.174,42.3860032 89.9196692,42.9179979 89.411,43.338 C88.9023308,43.7580021 88.1393384,43.968 87.122,43.968 C86.8139985,43.968 86.5106682,43.9400003 86.212,43.884 C85.9133318,43.8279997 85.6333346,43.7533338 85.372,43.66 C85.1106654,43.5666662 84.8726677,43.4616672 84.658,43.345 C84.4433323,43.2283327 84.2660007,43.1093339 84.126,42.988 L84.686,42.078 C84.7980006,42.1900006 84.9473324,42.3043327 85.134,42.421 C85.3206676,42.5376672 85.5259989,42.6426662 85.75,42.736 C85.9740011,42.8293338 86.2143321,42.9039997 86.471,42.96 C86.727668,43.0160003 86.9866654,43.044 87.248,43.044 C87.5000013,43.044 87.7356656,43.0230002 87.955,42.981 C88.1743344,42.9389998 88.3679992,42.8736671 88.536,42.785 C88.7040008,42.6963329 88.8369995,42.5796674 88.935,42.435 C89.0330005,42.2903326 89.082,42.1153344 89.082,41.91 Z M98.756,42.918 C98.5879992,43.0673341 98.3896678,43.2073327 98.161,43.338 C97.9323322,43.4686673 97.682668,43.5806662 97.412,43.674 C97.141332,43.7673338 96.8590015,43.8396664 96.565,43.891 C96.2709985,43.9423336 95.9746682,43.968 95.676,43.968 C95.1159972,43.968 94.6213355,43.8816675 94.192,43.709 C93.7626645,43.5363325 93.4033348,43.2890016 93.114,42.967 C92.8246652,42.6449984 92.6053341,42.2600022 92.456,41.812 C92.3066659,41.3639978 92.232,40.8600028 92.232,40.3 C92.232,39.7119971 92.3136659,39.1893356 92.477,38.732 C92.6403342,38.2746644 92.8759985,37.8920015 93.184,37.584 C93.4920015,37.2759985 93.8653311,37.0403341 94.304,36.877 C94.7426689,36.7136658 95.232664,36.632 95.774,36.632 C96.166002,36.632 96.5533314,36.6833328 96.936,36.786 C97.3186686,36.8886672 97.6569985,37.0823319 97.951,37.367 C98.2450015,37.6516681 98.4713325,38.0436642 98.63,38.543 C98.7886675,39.0423358 98.8446669,39.6886627 98.798,40.482 L93.38,40.482 C93.38,41.3220042 93.6063311,41.9496646 94.059,42.365 C94.5116689,42.7803354 95.1159962,42.988 95.872,42.988 C96.1240013,42.988 96.3736654,42.957667 96.621,42.897 C96.8683346,42.836333 97.1039989,42.7640004 97.328,42.68 C97.5520011,42.5959996 97.7503325,42.5026672 97.923,42.4 C98.0956675,42.2973328 98.2286662,42.2040004 98.322,42.12 L98.756,42.918 Z M95.802,37.556 C95.4939985,37.556 95.2023347,37.5886663 94.927,37.654 C94.6516653,37.7193337 94.4090011,37.8289992 94.199,37.983 C93.988999,38.1370008 93.816334,38.3376654 93.681,38.585 C93.545666,38.8323346 93.4593335,39.1379982 93.422,39.502 L97.776,39.502 C97.7293331,38.8859969 97.5310018,38.4076684 97.181,38.067 C96.8309983,37.7263316 96.3713362,37.556 95.802,37.556 Z" id="phrase" fill="#000000"></path>
                <path d="M101.752,45.802 C102.200002,45.7086662 102.645664,45.5430012 103.089,45.305 C103.532336,45.0669988 103.933665,44.7356688 104.293,44.311 C104.652335,43.8863312 104.941666,43.3543365 105.161,42.715 C105.380334,42.0756635 105.49,41.3033379 105.49,40.398 C105.49,39.5019955 105.399001,38.7390032 105.217,38.109 C105.034999,37.4789969 104.778335,36.9516688 104.447,36.527 C104.115665,36.1023312 103.721336,35.761668 103.264,35.505 C102.806664,35.248332 102.302669,35.0406675 101.752,34.882 L102.102,34 C102.70867,34.1306673 103.284997,34.3523318 103.831,34.665 C104.377003,34.9776682 104.855331,35.3929974 105.266,35.911 C105.676669,36.4290026 106.003332,37.0589963 106.246,37.801 C106.488668,38.5430037 106.61,39.4086617 106.61,40.398 C106.61,41.3966717 106.491001,42.2599964 106.253,42.988 C106.014999,43.7160036 105.693002,44.3319975 105.287,44.836 C104.880998,45.3400025 104.405003,45.7483318 103.859,46.061 C103.312997,46.3736682 102.727336,46.6093325 102.102,46.768 L101.752,45.802 Z M111.356,43.03 C111.356,42.7499986 111.446999,42.5236675 111.629,42.351 C111.811001,42.1783325 112.046665,42.092 112.336,42.092 C112.690668,42.092 112.965999,42.2156654 113.162,42.463 C113.358001,42.7103346 113.456,43.0579978 113.456,43.506 C113.456,43.8700018 113.395334,44.1896653 113.274,44.465 C113.152666,44.7403347 113.001001,44.9736657 112.819,45.165 C112.636999,45.3563343 112.441001,45.5103327 112.231,45.627 C112.020999,45.7436673 111.827334,45.8299997 111.65,45.886 L111.3,45.34 C111.636002,45.2093327 111.925332,45.0226679 112.168,44.78 C112.410668,44.5373321 112.532,44.2433351 112.532,43.898 C112.401333,43.9260001 112.298667,43.94 112.224,43.94 C111.953332,43.94 111.741001,43.8630008 111.587,43.709 C111.432999,43.5549992 111.356,43.3286682 111.356,43.03 Z M111.482,37.528 C111.482,37.2293318 111.565999,36.9983341 111.734,36.835 C111.902001,36.6716659 112.125999,36.59 112.406,36.59 C112.704668,36.59 112.937999,36.6716659 113.106,36.835 C113.274001,36.9983341 113.358,37.2293318 113.358,37.528 C113.358,37.798668 113.274001,38.0226658 113.106,38.2 C112.937999,38.3773342 112.704668,38.466 112.406,38.466 C112.125999,38.466 111.902001,38.3773342 111.734,38.2 C111.565999,38.0226658 111.482,37.798668 111.482,37.528 Z" id=");" fill="#999999"></path>
            </g>
            <text id="LexicalEnvironment" font-family="PTMono-Regular, PT Mono" font-size="12" font-weight="normal" fill="#9B9B9B">
                <tspan x="251" y="13">LexicalEnvironment</tspan>
            </text>
            <path d="M198.5,36.5 L238.5,36.5" id="Line" stroke="#9B9B9B" stroke-linecap="square" stroke-dasharray="2,4,2,4"></path>
        </g>
    </g>
</svg>