<?xml version="1.0" encoding="UTF-8"?>
<svg width="516px" height="150px" viewBox="0 0 516 150" version="1.1" xmlns="http://www.w3.org/2000/svg" xmlns:xlink="http://www.w3.org/1999/xlink">
    <!-- Generator: sketchtool 55.2 (78181) - https://sketchapp.com -->
    <title>lexical-environment-global-2.svg</title>
    <desc>Created with sketchtool.</desc>
    <g id="closure" stroke="none" stroke-width="1" fill="none" fill-rule="evenodd">
        <g id="lexical-environment-global-2.svg">
            <g id="Group-3" transform="translate(235.000000, 114.000000)">
                <rect id="Rectangle-1" stroke="#E8C48E" stroke-width="2" fill="#FFF9EB" x="1" y="1" width="154" height="28"></rect>
                <text id="phrase:-&quot;Bye&quot;" font-family="PTMono-Regular, PT Mono" font-size="14" font-weight="normal" fill="#8A704D">
                    <tspan x="8.5984252" y="18.5102041">phrase: "Bye"</tspan>
                </text>
            </g>
            <g id="Group-3-Copy" transform="translate(235.000000, 79.000000)">
                <rect id="Rectangle-1" stroke="#E8C48E" stroke-width="2" fill="#FFF9EB" x="1" y="1" width="154" height="28"></rect>
                <text id="phrase:-&quot;Hello&quot;" font-family="PTMono-Regular, PT Mono" font-size="14" font-weight="normal" fill="#8A704D">
                    <tspan x="8.5984252" y="18.5102041">phrase: "Hello"</tspan>
                </text>
            </g>
            <g id="Group-3-Copy-3" transform="translate(235.000000, 44.000000)">
                <rect id="Rectangle-1" stroke="#E8C48E" stroke-width="2" fill="#FFF9EB" x="1" y="1" width="154" height="28"></rect>
                <text id="phrase:-undefined" font-family="PTMono-Regular, PT Mono" font-size="14" font-weight="normal" fill="#8A704D">
                    <tspan x="7" y="19.5102041">phrase: undefined</tspan>
                </text>
            </g>
            <g id="Group-3-Copy-2" transform="translate(235.000000, 9.000000)">
                <rect id="Rectangle-1" stroke="#E8C48E" stroke-width="2" fill="#FFF9EB" x="1" y="1" width="154" height="28"></rect>
                <text id="&lt;empty&gt;" font-family="PTMono-Regular, PT Mono" font-size="12" font-weight="normal" fill="#8A704D">
                    <tspan x="55.2755906" y="18.5102041">&lt;empty&gt;</tspan>
                </text>
            </g>
            <g id="Group" transform="translate(402.000000, 7.000000)">
                <path id="Line" d="M16.5,21.5 L2.5,21.5 L2.5,19.5 L16.5,19.5 L16.5,13.5 L30.5,20.5 L16.5,27.5 L16.5,21.5 Z" fill="#EE6B47" fill-rule="nonzero"></path>
                <text id="outer" font-family="PTMono-Regular, PT Mono" font-size="12" font-weight="normal" fill="#8A704D">
                    <tspan x="0" y="11">outer</tspan>
                </text>
            </g>
            <text id="null" font-family="PTMono-Regular, PT Mono" font-size="14" font-weight="normal" fill="#8A704D">
                <tspan x="446" y="31">null</tspan>
            </text>
            <g id="let-phrase;" transform="translate(19.294000, 53.200000)" fill-rule="nonzero">
                <path d="M1.372,-1.42108547e-14 L3.696,-1.42108547e-14 L3.696,7.448 C3.696,8.01733618 3.79166571,8.4186655 3.983,8.652 C4.17433429,8.8853345 4.4566648,9.002 4.83,9.002 C5.09133464,9.002 5.34099881,8.9553338 5.579,8.862 C5.81700119,8.7686662 6.08066522,8.61000112 6.37,8.386 L6.874,9.156 C6.72466592,9.28666732 6.56133422,9.40333282 6.384,9.506 C6.20666578,9.60866718 6.0246676,9.69499965 5.838,9.765 C5.6513324,9.83500035 5.4646676,9.88866648 5.278,9.926 C5.0913324,9.96333352 4.91866746,9.982 4.76,9.982 C4.41466494,9.982 4.10666802,9.93766711 3.836,9.849 C3.56533198,9.76033289 3.33900091,9.61800098 3.157,9.422 C2.97499909,9.22599902 2.8373338,8.96700161 2.744,8.645 C2.6506662,8.32299839 2.604,7.92400238 2.604,7.448 L2.604,0.938 L1.372,0.938 L1.372,-1.42108547e-14 Z M15.512,8.918 C15.3439992,9.06733408 15.1456678,9.20733268 14.917,9.338 C14.6883322,9.46866732 14.438668,9.5806662 14.168,9.674 C13.897332,9.7673338 13.6150015,9.83966641 13.321,9.891 C13.0269985,9.94233359 12.7306682,9.968 12.432,9.968 C11.8719972,9.968 11.3773355,9.88166753 10.948,9.709 C10.5186645,9.53633247 10.1593348,9.28900161 9.87,8.967 C9.58066522,8.64499839 9.36133408,8.26000224 9.212,7.812 C9.06266592,7.36399776 8.988,6.8600028 8.988,6.3 C8.988,5.71199706 9.06966585,5.18933562 9.233,4.732 C9.39633415,4.27466438 9.63199846,3.89200154 9.94,3.584 C10.2480015,3.27599846 10.6213311,3.04033415 11.06,2.877 C11.4986689,2.71366585 11.988664,2.632 12.53,2.632 C12.922002,2.632 13.3093314,2.68333282 13.692,2.786 C14.0746686,2.88866718 14.4129985,3.08233191 14.707,3.367 C15.0010015,3.65166809 15.2273325,4.04366417 15.386,4.543 C15.5446675,5.04233583 15.6006669,5.6886627 15.554,6.482 L10.136,6.482 C10.136,7.3220042 10.3623311,7.94966459 10.815,8.365 C11.2676689,8.78033541 11.8719962,8.988 12.628,8.988 C12.8800013,8.988 13.1296654,8.95766697 13.377,8.897 C13.6243346,8.83633303 13.8599989,8.76400042 14.084,8.68 C14.3080011,8.59599958 14.5063325,8.50266718 14.679,8.4 C14.8516675,8.29733282 14.9846662,8.20400042 15.078,8.12 L15.512,8.918 Z M12.558,3.556 C12.2499985,3.556 11.9583347,3.58866634 11.683,3.654 C11.4076653,3.71933366 11.1650011,3.82899923 10.955,3.983 C10.744999,4.13700077 10.572334,4.33766543 10.437,4.585 C10.301666,4.83233457 10.2153335,5.13799818 10.178,5.502 L14.532,5.502 C14.4853331,4.88599692 14.2870017,4.40766837 13.937,4.067 C13.5869983,3.72633163 13.1273362,3.556 12.558,3.556 Z M16.94,2.8 L18.606,2.8 L18.606,1.414 L19.698,1.106 L19.698,2.8 L23.436,2.8 L23.436,3.738 L19.698,3.738 L19.698,7.042 C19.698,7.72333674 19.863665,8.2273317 20.195,8.554 C20.526335,8.8806683 20.9999969,9.044 21.616,9.044 C22.0360021,9.044 22.4023318,8.96466746 22.715,8.806 C23.0276682,8.64733254 23.3099987,8.4746676 23.562,8.288 L23.926,9.114 C23.5993317,9.37533464 23.2096689,9.58533254 22.757,9.744 C22.3043311,9.90266746 21.8400024,9.982 21.364,9.982 C20.9906648,9.982 20.638335,9.92833387 20.307,9.821 C19.975665,9.71366613 19.6840013,9.54800112 19.432,9.324 C19.1799987,9.09999888 18.9793341,8.81300175 18.83,8.463 C18.6806659,8.11299825 18.606,7.69533576 18.606,7.21 L18.606,3.738 L16.94,3.738 L16.94,2.8 Z" id="let" fill="#0077AA"></path>
                <path d="M34.65,5.25 C34.65,5.16599958 34.6476667,5.05633401 34.643,4.921 C34.6383333,4.78566599 34.6313334,4.64566739 34.622,4.501 C34.6126666,4.35633261 34.6010001,4.2140007 34.587,4.074 C34.5729999,3.9339993 34.5566668,3.81266718 34.538,3.71 L33.6,3.71 L33.6,2.8 L35.462,2.8 L35.602,3.78 L35.672,3.78 C35.9240013,3.4533317 36.2436647,3.18033443 36.631,2.961 C37.0183353,2.74166557 37.4919972,2.632 38.052,2.632 C39.0506717,2.632 39.8019975,2.90733058 40.306,3.458 C40.8100025,4.00866942 41.062,4.90932708 41.062,6.16 C41.062,6.74800294 40.9756675,7.27766431 40.803,7.749 C40.6303325,8.22033569 40.3853349,8.6193317 40.068,8.946 C39.7506651,9.2726683 39.3680022,9.52466578 38.92,9.702 C38.4719978,9.87933422 37.977336,9.968 37.436,9.968 C37.239999,9.968 37.0650008,9.96100007 36.911,9.947 C36.7569992,9.93299993 36.6170006,9.91433345 36.491,9.891 C36.3649994,9.86766655 36.2413339,9.83733352 36.12,9.8 C35.9986661,9.76266648 35.8680007,9.71600028 35.728,9.66 L35.728,12.6 L34.65,12.6 L34.65,5.25 Z M37.87,3.654 C37.5899986,3.654 37.3263346,3.70533282 37.079,3.808 C36.8316654,3.91066718 36.6123343,4.04599916 36.421,4.214 C36.2296657,4.38200084 36.0733339,4.56866564 35.952,4.774 C35.8306661,4.97933436 35.7560001,5.18466564 35.728,5.39 L35.728,8.582 C35.9333344,8.7220007 36.1643321,8.83166627 36.421,8.911 C36.677668,8.99033373 37.0159979,9.03 37.436,9.03 C38.1826704,9.03 38.7799978,8.78500245 39.228,8.295 C39.6760022,7.80499755 39.9,7.08867138 39.9,6.146 C39.9,5.3526627 39.7436682,4.73900217 39.431,4.305 C39.1183318,3.87099783 38.5980036,3.654 37.87,3.654 Z M41.762,-4.26325641e-14 L43.946,-4.26325641e-14 L43.946,3.668 L44.016,3.668 C44.3053348,3.3413317 44.6413314,3.08700091 45.024,2.905 C45.4066686,2.72299909 45.8826638,2.632 46.452,2.632 C46.9000022,2.632 47.289665,2.6786662 47.621,2.772 C47.952335,2.8653338 48.222999,3.0286655 48.433,3.262 C48.6430011,3.4953345 48.7993328,3.81499797 48.902,4.221 C49.0046672,4.62700203 49.056,5.14266354 49.056,5.768 L49.056,9.8 L47.964,9.8 L47.964,5.978 C47.964,5.57666466 47.9406669,5.22666816 47.894,4.928 C47.8473331,4.62933184 47.756334,4.37966767 47.621,4.179 C47.485666,3.97833233 47.3013345,3.82666718 47.068,3.724 C46.8346655,3.62133282 46.5360018,3.57 46.172,3.57 C45.9199987,3.57 45.6726679,3.61433289 45.43,3.703 C45.1873321,3.79166711 44.9656677,3.91299923 44.765,4.067 C44.5643323,4.22100077 44.3916674,4.40766557 44.247,4.627 C44.1023326,4.84633443 44.0020003,5.08666536 43.946,5.348 L43.946,9.8 L42.868,9.8 L42.868,0.938 L41.762,0.938 L41.762,-4.26325641e-14 Z M51.03,9.8 L51.03,8.862 L52.92,8.862 L52.92,3.738 L51.03,3.738 L51.03,2.8 L53.648,2.8 L53.872,3.71 L53.942,3.71 C54.2593349,3.42066522 54.613998,3.17333436 55.006,2.968 C55.398002,2.76266564 55.864664,2.66 56.406,2.66 C56.7233349,2.66 56.9776657,2.72066606 57.169,2.842 C57.3603343,2.96333394 57.5096661,3.1406655 57.617,3.374 C57.7243339,3.6073345 57.7966665,3.88966501 57.834,4.221 C57.8713335,4.55233499 57.89,4.9279979 57.89,5.348 L56.91,5.362 C56.91,4.76466368 56.8516673,4.3260014 56.735,4.046 C56.6183328,3.7659986 56.4060015,3.626 56.098,3.626 C55.8086652,3.626 55.5473345,3.66799958 55.314,3.752 C55.0806655,3.83600042 54.8776675,3.93866606 54.705,4.06 C54.5323325,4.18133394 54.3853339,4.30266606 54.264,4.424 C54.1426661,4.54533394 54.0540003,4.64799958 53.998,4.732 L53.998,8.862 L56.686,8.862 L56.686,9.8 L51.03,9.8 Z M60.018,3.346 C60.4193353,3.1126655 60.8719975,2.94466718 61.376,2.842 C61.8800025,2.73933282 62.3746642,2.688 62.86,2.688 C63.3360024,2.688 63.7256652,2.76266592 64.029,2.912 C64.3323349,3.06133408 64.5703325,3.25499881 64.743,3.493 C64.9156675,3.73100119 65.032333,4.00166515 65.093,4.305 C65.153667,4.60833485 65.184,4.91399846 65.184,5.222 C65.184,5.57666844 65.1746668,5.95466466 65.156,6.356 C65.1373332,6.75733534 65.1233334,7.15866466 65.114,7.56 C65.114,8.026669 65.1419997,8.4699979 65.198,8.89 L66.136,8.89 L66.136,9.8 L64.274,9.8 L64.148,8.75 L64.078,8.75 C64.0219997,8.83400042 63.9380006,8.94133268 63.826,9.072 C63.7139994,9.20266732 63.5670009,9.33099937 63.385,9.457 C63.2029991,9.58300063 62.9813346,9.6926662 62.72,9.786 C62.4586654,9.8793338 62.1506684,9.926 61.796,9.926 C61.1053299,9.926 60.5593353,9.74866844 60.158,9.394 C59.7566647,9.03933156 59.556,8.55400308 59.556,7.938 C59.556,7.46199762 59.660999,7.06533492 59.871,6.748 C60.0810011,6.43066508 60.381998,6.188 60.774,6.02 C61.166002,5.85199916 61.6396639,5.75400014 62.195,5.726 C62.7503361,5.69799986 63.3733299,5.73533282 64.064,5.838 C64.1106669,5.40866452 64.1176668,5.05166809 64.085,4.767 C64.0523332,4.48233191 63.9776673,4.25600084 63.861,4.088 C63.7443328,3.91999916 63.5810011,3.80100035 63.371,3.731 C63.160999,3.66099965 62.9020015,3.626 62.594,3.626 C62.1739979,3.626 61.7726686,3.68433275 61.39,3.801 C61.0073314,3.91766725 60.6666682,4.03666606 60.368,4.158 L60.018,3.346 Z M62.076,8.988 C62.3373346,8.988 62.5799989,8.94600042 62.804,8.862 C63.0280011,8.77799958 63.2239992,8.67066732 63.392,8.54 C63.5600008,8.40933268 63.6999994,8.26700077 63.812,8.113 C63.9240006,7.95899923 64.0079997,7.8120007 64.064,7.672 L64.064,6.692 C63.5786642,6.60799958 63.1306687,6.566 62.72,6.566 C62.3093313,6.566 61.9546682,6.61033289 61.656,6.699 C61.3573318,6.78766711 61.1240008,6.9253324 60.956,7.112 C60.7879992,7.2986676 60.704,7.54133184 60.704,7.84 C60.704,8.14800154 60.808999,8.41633219 61.019,8.645 C61.2290011,8.87366781 61.5813309,8.988 62.076,8.988 Z M73.038,7.91 C73.038,7.61133184 72.9213345,7.38033415 72.688,7.217 C72.4546655,7.05366585 72.1653351,6.92300049 71.82,6.825 C71.4746649,6.72699951 71.099002,6.63600042 70.693,6.552 C70.286998,6.46799958 69.9113351,6.3560007 69.566,6.216 C69.2206649,6.0759993 68.9313345,5.88700119 68.698,5.649 C68.4646655,5.41099881 68.348,5.07733548 68.348,4.648 C68.348,4.29333156 68.4249992,3.99000126 68.579,3.738 C68.7330008,3.48599874 68.9359987,3.27833415 69.188,3.115 C69.4400013,2.95166585 69.7339983,2.83033373 70.07,2.751 C70.4060017,2.67166627 70.7559982,2.632 71.12,2.632 C71.7733366,2.632 72.3356643,2.71366585 72.807,2.877 C73.2783357,3.04033415 73.6539986,3.21066578 73.934,3.388 L73.486,4.27 C73.1779985,4.10199916 72.8443351,3.94100077 72.485,3.787 C72.1256649,3.63299923 71.675336,3.556 71.134,3.556 C70.9286656,3.556 70.7256677,3.57699979 70.525,3.619 C70.3243323,3.66100021 70.1423342,3.72399958 69.979,3.808 C69.8156659,3.89200042 69.6850005,4.00166599 69.587,4.137 C69.4889995,4.27233401 69.44,4.43799902 69.44,4.634 C69.44,4.87666788 69.5566655,5.06333268 69.79,5.194 C70.0233345,5.32466732 70.3126649,5.43433289 70.658,5.523 C71.0033351,5.61166711 71.378998,5.69566627 71.785,5.775 C72.191002,5.85433373 72.5666649,5.96866592 72.912,6.118 C73.2573351,6.26733408 73.5466655,6.46799874 73.78,6.72 C74.0133345,6.97200126 74.13,7.31266452 74.13,7.742 C74.13,8.38600322 73.8756692,8.9179979 73.367,9.338 C72.8583308,9.7580021 72.0953384,9.968 71.078,9.968 C70.7699985,9.968 70.4666682,9.94000028 70.168,9.884 C69.8693318,9.82799972 69.5893346,9.7533338 69.328,9.66 C69.0666654,9.5666662 68.8286677,9.46166725 68.614,9.345 C68.3993323,9.22833275 68.2220007,9.10933394 68.082,8.988 L68.642,8.078 C68.7540006,8.19000056 68.9033324,8.30433275 69.09,8.421 C69.2766676,8.53766725 69.4819989,8.6426662 69.706,8.736 C69.9300011,8.8293338 70.1703321,8.90399972 70.427,8.96 C70.683668,9.01600028 70.9426654,9.044 71.204,9.044 C71.4560013,9.044 71.6916656,9.02300021 71.911,8.981 C72.1303344,8.93899979 72.3239992,8.87366711 72.492,8.785 C72.6600008,8.69633289 72.7929995,8.57966739 72.891,8.435 C72.9890005,8.29033261 73.038,8.11533436 73.038,7.91 Z M82.712,8.918 C82.5439992,9.06733408 82.3456678,9.20733268 82.117,9.338 C81.8883322,9.46866732 81.638668,9.5806662 81.368,9.674 C81.097332,9.7673338 80.8150015,9.83966641 80.521,9.891 C80.2269985,9.94233359 79.9306682,9.968 79.632,9.968 C79.0719972,9.968 78.5773355,9.88166753 78.148,9.709 C77.7186645,9.53633247 77.3593348,9.28900161 77.07,8.967 C76.7806652,8.64499839 76.5613341,8.26000224 76.412,7.812 C76.2626659,7.36399776 76.188,6.8600028 76.188,6.3 C76.188,5.71199706 76.2696659,5.18933562 76.433,4.732 C76.5963342,4.27466438 76.8319985,3.89200154 77.14,3.584 C77.4480015,3.27599846 77.8213311,3.04033415 78.26,2.877 C78.6986689,2.71366585 79.188664,2.632 79.73,2.632 C80.122002,2.632 80.5093314,2.68333282 80.892,2.786 C81.2746686,2.88866718 81.6129985,3.08233191 81.907,3.367 C82.2010015,3.65166809 82.4273325,4.04366417 82.586,4.543 C82.7446675,5.04233583 82.8006669,5.6886627 82.754,6.482 L77.336,6.482 C77.336,7.3220042 77.5623311,7.94966459 78.015,8.365 C78.4676689,8.78033541 79.0719962,8.988 79.828,8.988 C80.0800013,8.988 80.3296654,8.95766697 80.577,8.897 C80.8243346,8.83633303 81.0599989,8.76400042 81.284,8.68 C81.5080011,8.59599958 81.7063325,8.50266718 81.879,8.4 C82.0516675,8.29733282 82.1846662,8.20400042 82.278,8.12 L82.712,8.918 Z M79.758,3.556 C79.4499985,3.556 79.1583347,3.58866634 78.883,3.654 C78.6076653,3.71933366 78.3650011,3.82899923 78.155,3.983 C77.944999,4.13700077 77.772334,4.33766543 77.637,4.585 C77.501666,4.83233457 77.4153335,5.13799818 77.378,5.502 L81.732,5.502 C81.6853331,4.88599692 81.4870018,4.40766837 81.137,4.067 C80.7869983,3.72633163 80.3273362,3.556 79.758,3.556 Z" id="phrase" fill="#000000"></path>
                <path d="M86.912,9.03 C86.912,8.7499986 87.0029991,8.52366753 87.185,8.351 C87.3670009,8.17833247 87.6026652,8.092 87.892,8.092 C88.2466684,8.092 88.521999,8.21566543 88.718,8.463 C88.914001,8.71033457 89.012,9.05799776 89.012,9.506 C89.012,9.87000182 88.9513339,10.1896653 88.83,10.465 C88.7086661,10.7403347 88.5570009,10.9736657 88.375,11.165 C88.1929991,11.3563343 87.9970011,11.5103327 87.787,11.627 C87.576999,11.7436672 87.3833342,11.8299997 87.206,11.886 L86.856,11.34 C87.1920017,11.2093327 87.4813321,11.0226679 87.724,10.78 C87.9666679,10.5373321 88.088,10.2433351 88.088,9.898 C87.9573327,9.92600014 87.854667,9.94 87.78,9.94 C87.509332,9.94 87.2970008,9.86300077 87.143,9.709 C86.9889992,9.55499923 86.912,9.32866816 86.912,9.03 Z M87.038,3.528 C87.038,3.22933184 87.1219992,2.99833415 87.29,2.835 C87.4580008,2.67166585 87.6819986,2.59 87.962,2.59 C88.2606682,2.59 88.4939992,2.67166585 88.662,2.835 C88.8300008,2.99833415 88.914,3.22933184 88.914,3.528 C88.914,3.79866802 88.8300008,4.02266578 88.662,4.2 C88.4939992,4.37733422 88.2606682,4.466 87.962,4.466 C87.6819986,4.466 87.4580008,4.37733422 87.29,4.2 C87.1219992,4.02266578 87.038,3.79866802 87.038,3.528 Z" id=";" fill="#878787"></path>
                <path d="M1.05,39.25 C1.05,39.1659996 1.04766669,39.056334 1.043,38.921 C1.03833331,38.785666 1.03133338,38.6456674 1.022,38.501 C1.01266662,38.3563326 1.00100007,38.2140007 0.987,38.074 C0.97299993,37.9339993 0.95666676,37.8126672 0.938,37.71 L3.55271368e-14,37.71 L3.55271368e-14,36.8 L1.862,36.8 L2.002,37.78 L2.072,37.78 C2.32400126,37.4533317 2.64366473,37.1803344 3.031,36.961 C3.41833527,36.7416656 3.8919972,36.632 4.452,36.632 C5.45067166,36.632 6.20199748,36.9073306 6.706,37.458 C7.21000252,38.0086694 7.462,38.9093271 7.462,40.16 C7.462,40.7480029 7.37566753,41.2776643 7.203,41.749 C7.03033247,42.2203357 6.78533492,42.6193317 6.468,42.946 C6.15066508,43.2726683 5.76800224,43.5246658 5.32,43.702 C4.87199776,43.8793342 4.37733604,43.968 3.836,43.968 C3.63999902,43.968 3.46500077,43.9610001 3.311,43.947 C3.15699923,43.9329999 3.01700063,43.9143334 2.891,43.891 C2.76499937,43.8676665 2.64133394,43.8373335 2.52,43.8 C2.39866606,43.7626665 2.2680007,43.7160003 2.128,43.66 L2.128,46.6 L1.05,46.6 L1.05,39.25 Z M4.27,37.654 C3.9899986,37.654 3.72633457,37.7053328 3.479,37.808 C3.23166543,37.9106672 3.01233429,38.0459992 2.821,38.214 C2.62966571,38.3820008 2.47333394,38.5686656 2.352,38.774 C2.23066606,38.9793344 2.15600014,39.1846656 2.128,39.39 L2.128,42.582 C2.33333436,42.7220007 2.56433205,42.8316663 2.821,42.911 C3.07766795,42.9903337 3.4159979,43.03 3.836,43.03 C4.5826704,43.03 5.17999776,42.7850024 5.628,42.295 C6.07600224,41.8049975 6.3,41.0886714 6.3,40.146 C6.3,39.3526627 6.14366823,38.7390022 5.831,38.305 C5.51833177,37.8709978 4.99800364,37.654 4.27,37.654 Z M8.162,34 L10.346,34 L10.346,37.668 L10.416,37.668 C10.7053348,37.3413317 11.0413314,37.0870009 11.424,36.905 C11.8066686,36.7229991 12.2826638,36.632 12.852,36.632 C13.3000022,36.632 13.689665,36.6786662 14.021,36.772 C14.352335,36.8653338 14.622999,37.0286655 14.833,37.262 C15.0430011,37.4953345 15.1993328,37.814998 15.302,38.221 C15.4046672,38.627002 15.456,39.1426635 15.456,39.768 L15.456,43.8 L14.364,43.8 L14.364,39.978 C14.364,39.5766647 14.3406669,39.2266682 14.294,38.928 C14.2473331,38.6293318 14.156334,38.3796677 14.021,38.179 C13.885666,37.9783323 13.7013345,37.8266672 13.468,37.724 C13.2346655,37.6213328 12.9360018,37.57 12.572,37.57 C12.3199987,37.57 12.0726679,37.6143329 11.83,37.703 C11.5873321,37.7916671 11.3656677,37.9129992 11.165,38.067 C10.9643323,38.2210008 10.7916674,38.4076656 10.647,38.627 C10.5023326,38.8463344 10.4020003,39.0866654 10.346,39.348 L10.346,43.8 L9.268,43.8 L9.268,34.938 L8.162,34.938 L8.162,34 Z M17.43,43.8 L17.43,42.862 L19.32,42.862 L19.32,37.738 L17.43,37.738 L17.43,36.8 L20.048,36.8 L20.272,37.71 L20.342,37.71 C20.6593349,37.4206652 21.013998,37.1733344 21.406,36.968 C21.798002,36.7626656 22.264664,36.66 22.806,36.66 C23.1233349,36.66 23.3776657,36.7206661 23.569,36.842 C23.7603343,36.9633339 23.9096661,37.1406655 24.017,37.374 C24.1243339,37.6073345 24.1966665,37.889665 24.234,38.221 C24.2713335,38.552335 24.29,38.9279979 24.29,39.348 L23.31,39.362 C23.31,38.7646637 23.2516673,38.3260014 23.135,38.046 C23.0183328,37.7659986 22.8060015,37.626 22.498,37.626 C22.2086652,37.626 21.9473345,37.6679996 21.714,37.752 C21.4806655,37.8360004 21.2776675,37.9386661 21.105,38.06 C20.9323325,38.1813339 20.7853339,38.3026661 20.664,38.424 C20.5426661,38.5453339 20.4540003,38.6479996 20.398,38.732 L20.398,42.862 L23.086,42.862 L23.086,43.8 L17.43,43.8 Z M26.418,37.346 C26.8193353,37.1126655 27.2719975,36.9446672 27.776,36.842 C28.2800025,36.7393328 28.7746642,36.688 29.26,36.688 C29.7360024,36.688 30.1256652,36.7626659 30.429,36.912 C30.7323349,37.0613341 30.9703325,37.2549988 31.143,37.493 C31.3156675,37.7310012 31.432333,38.0016651 31.493,38.305 C31.553667,38.6083348 31.584,38.9139985 31.584,39.222 C31.584,39.5766684 31.5746668,39.9546647 31.556,40.356 C31.5373332,40.7573353 31.5233334,41.1586647 31.514,41.56 C31.514,42.026669 31.5419997,42.4699979 31.598,42.89 L32.536,42.89 L32.536,43.8 L30.674,43.8 L30.548,42.75 L30.478,42.75 C30.4219997,42.8340004 30.3380006,42.9413327 30.226,43.072 C30.1139994,43.2026673 29.9670009,43.3309994 29.785,43.457 C29.6029991,43.5830006 29.3813346,43.6926662 29.12,43.786 C28.8586654,43.8793338 28.5506684,43.926 28.196,43.926 C27.5053299,43.926 26.9593353,43.7486684 26.558,43.394 C26.1566647,43.0393316 25.956,42.5540031 25.956,41.938 C25.956,41.4619976 26.060999,41.0653349 26.271,40.748 C26.4810011,40.4306651 26.781998,40.188 27.174,40.02 C27.566002,39.8519992 28.0396639,39.7540001 28.595,39.726 C29.1503361,39.6979999 29.7733299,39.7353328 30.464,39.838 C30.5106669,39.4086645 30.5176668,39.0516681 30.485,38.767 C30.4523332,38.4823319 30.3776673,38.2560008 30.261,38.088 C30.1443328,37.9199992 29.9810011,37.8010003 29.771,37.731 C29.560999,37.6609996 29.3020015,37.626 28.994,37.626 C28.5739979,37.626 28.1726686,37.6843327 27.79,37.801 C27.4073314,37.9176672 27.0666682,38.0366661 26.768,38.158 L26.418,37.346 Z M28.476,42.988 C28.7373346,42.988 28.9799989,42.9460004 29.204,42.862 C29.4280011,42.7779996 29.6239992,42.6706673 29.792,42.54 C29.9600008,42.4093327 30.0999994,42.2670008 30.212,42.113 C30.3240006,41.9589992 30.4079997,41.8120007 30.464,41.672 L30.464,40.692 C29.9786642,40.6079996 29.5306687,40.566 29.12,40.566 C28.7093313,40.566 28.3546682,40.6103329 28.056,40.699 C27.7573318,40.7876671 27.5240008,40.9253324 27.356,41.112 C27.1879992,41.2986676 27.104,41.5413318 27.104,41.84 C27.104,42.1480015 27.208999,42.4163322 27.419,42.645 C27.6290011,42.8736678 27.9813309,42.988 28.476,42.988 Z M39.438,41.91 C39.438,41.6113318 39.3213345,41.3803341 39.088,41.217 C38.8546655,41.0536658 38.5653351,40.9230005 38.22,40.825 C37.8746649,40.7269995 37.499002,40.6360004 37.093,40.552 C36.686998,40.4679996 36.3113351,40.3560007 35.966,40.216 C35.6206649,40.0759993 35.3313345,39.8870012 35.098,39.649 C34.8646655,39.4109988 34.748,39.0773355 34.748,38.648 C34.748,38.2933316 34.8249992,37.9900013 34.979,37.738 C35.1330008,37.4859987 35.3359987,37.2783341 35.588,37.115 C35.8400013,36.9516658 36.1339983,36.8303337 36.47,36.751 C36.8060017,36.6716663 37.1559982,36.632 37.52,36.632 C38.1733366,36.632 38.7356643,36.7136658 39.207,36.877 C39.6783357,37.0403341 40.0539986,37.2106658 40.334,37.388 L39.886,38.27 C39.5779985,38.1019992 39.2443351,37.9410008 38.885,37.787 C38.5256649,37.6329992 38.075336,37.556 37.534,37.556 C37.3286656,37.556 37.1256677,37.5769998 36.925,37.619 C36.7243323,37.6610002 36.5423342,37.7239996 36.379,37.808 C36.2156659,37.8920004 36.0850005,38.001666 35.987,38.137 C35.8889995,38.272334 35.84,38.437999 35.84,38.634 C35.84,38.8766679 35.9566655,39.0633327 36.19,39.194 C36.4233345,39.3246673 36.7126649,39.4343329 37.058,39.523 C37.4033351,39.6116671 37.778998,39.6956663 38.185,39.775 C38.591002,39.8543337 38.9666649,39.9686659 39.312,40.118 C39.6573351,40.2673341 39.9466655,40.4679987 40.18,40.72 C40.4133345,40.9720013 40.53,41.3126645 40.53,41.742 C40.53,42.3860032 40.2756692,42.9179979 39.767,43.338 C39.2583308,43.7580021 38.4953384,43.968 37.478,43.968 C37.1699985,43.968 36.8666682,43.9400003 36.568,43.884 C36.2693318,43.8279997 35.9893346,43.7533338 35.728,43.66 C35.4666654,43.5666662 35.2286677,43.4616672 35.014,43.345 C34.7993323,43.2283327 34.6220007,43.1093339 34.482,42.988 L35.042,42.078 C35.1540006,42.1900006 35.3033324,42.3043327 35.49,42.421 C35.6766676,42.5376672 35.8819989,42.6426662 36.106,42.736 C36.3300011,42.8293338 36.5703321,42.9039997 36.827,42.96 C37.083668,43.0160003 37.3426654,43.044 37.604,43.044 C37.8560013,43.044 38.0916656,43.0230002 38.311,42.981 C38.5303344,42.9389998 38.7239992,42.8736671 38.892,42.785 C39.0600008,42.6963329 39.1929995,42.5796674 39.291,42.435 C39.3890005,42.2903326 39.438,42.1153344 39.438,41.91 Z M49.112,42.918 C48.9439992,43.0673341 48.7456678,43.2073327 48.517,43.338 C48.2883322,43.4686673 48.038668,43.5806662 47.768,43.674 C47.497332,43.7673338 47.2150015,43.8396664 46.921,43.891 C46.6269985,43.9423336 46.3306682,43.968 46.032,43.968 C45.4719972,43.968 44.9773355,43.8816675 44.548,43.709 C44.1186645,43.5363325 43.7593348,43.2890016 43.47,42.967 C43.1806652,42.6449984 42.9613341,42.2600022 42.812,41.812 C42.6626659,41.3639978 42.588,40.8600028 42.588,40.3 C42.588,39.7119971 42.6696659,39.1893356 42.833,38.732 C42.9963342,38.2746644 43.2319985,37.8920015 43.54,37.584 C43.8480015,37.2759985 44.2213311,37.0403341 44.66,36.877 C45.0986689,36.7136658 45.588664,36.632 46.13,36.632 C46.522002,36.632 46.9093314,36.6833328 47.292,36.786 C47.6746686,36.8886672 48.0129985,37.0823319 48.307,37.367 C48.6010015,37.6516681 48.8273325,38.0436642 48.986,38.543 C49.1446675,39.0423358 49.2006669,39.6886627 49.154,40.482 L43.736,40.482 C43.736,41.3220042 43.9623311,41.9496646 44.415,42.365 C44.8676689,42.7803354 45.4719962,42.988 46.228,42.988 C46.4800013,42.988 46.7296654,42.957667 46.977,42.897 C47.2243346,42.836333 47.4599989,42.7640004 47.684,42.68 C47.9080011,42.5959996 48.1063325,42.5026672 48.279,42.4 C48.4516675,42.2973328 48.5846662,42.2040004 48.678,42.12 L49.112,42.918 Z M46.158,37.556 C45.8499985,37.556 45.5583347,37.5886663 45.283,37.654 C45.0076653,37.7193337 44.7650011,37.8289992 44.555,37.983 C44.344999,38.1370008 44.172334,38.3376654 44.037,38.585 C43.901666,38.8323346 43.8153335,39.1379982 43.778,39.502 L48.132,39.502 C48.0853331,38.8859969 47.8870018,38.4076684 47.537,38.067 C47.1869983,37.7263316 46.7273362,37.556 46.158,37.556 Z" id="phrase" fill="#000000"></path>
                <path d="M59.458,37.402 L65.954,37.402 L65.954,38.41 L59.458,38.41 L59.458,37.402 Z M59.458,39.698 L65.954,39.698 L65.954,40.706 L59.458,40.706 L59.458,39.698 Z" id="=" fill="#A67F59"></path>
                <path d="M80.332,34 L81.564,34 L81.13,38.242 L80.332,38.242 L80.332,34 Z M77.434,34 L78.666,34 L78.232,38.242 L77.434,38.242 L77.434,34 Z M90.104,39.306 L85.708,39.306 L85.708,43.8 L84.546,43.8 L84.546,34 L85.708,34 L85.708,38.27 L90.104,38.27 L90.104,34 L91.266,34 L91.266,43.8 L90.104,43.8 L90.104,39.306 Z M99.512,42.918 C99.3439992,43.0673341 99.1456678,43.2073327 98.917,43.338 C98.6883322,43.4686673 98.438668,43.5806662 98.168,43.674 C97.897332,43.7673338 97.6150015,43.8396664 97.321,43.891 C97.0269985,43.9423336 96.7306682,43.968 96.432,43.968 C95.8719972,43.968 95.3773355,43.8816675 94.948,43.709 C94.5186645,43.5363325 94.1593348,43.2890016 93.87,42.967 C93.5806652,42.6449984 93.3613341,42.2600022 93.212,41.812 C93.0626659,41.3639978 92.988,40.8600028 92.988,40.3 C92.988,39.7119971 93.0696659,39.1893356 93.233,38.732 C93.3963342,38.2746644 93.6319985,37.8920015 93.94,37.584 C94.2480015,37.2759985 94.6213311,37.0403341 95.06,36.877 C95.4986689,36.7136658 95.988664,36.632 96.53,36.632 C96.922002,36.632 97.3093314,36.6833328 97.692,36.786 C98.0746686,36.8886672 98.4129985,37.0823319 98.707,37.367 C99.0010015,37.6516681 99.2273325,38.0436642 99.386,38.543 C99.5446675,39.0423358 99.6006669,39.6886627 99.554,40.482 L94.136,40.482 C94.136,41.3220042 94.3623311,41.9496646 94.815,42.365 C95.2676689,42.7803354 95.8719962,42.988 96.628,42.988 C96.8800013,42.988 97.1296654,42.957667 97.377,42.897 C97.6243346,42.836333 97.8599989,42.7640004 98.084,42.68 C98.3080011,42.5959996 98.5063325,42.5026672 98.679,42.4 C98.8516675,42.2973328 98.9846662,42.2040004 99.078,42.12 L99.512,42.918 Z M96.558,37.556 C96.2499985,37.556 95.9583347,37.5886663 95.683,37.654 C95.4076653,37.7193337 95.1650011,37.8289992 94.955,37.983 C94.744999,38.1370008 94.572334,38.3376654 94.437,38.585 C94.301666,38.8323346 94.2153335,39.1379982 94.178,39.502 L98.532,39.502 C98.4853331,38.8859969 98.2870018,38.4076684 97.937,38.067 C97.5869983,37.7263316 97.1273362,37.556 96.558,37.556 Z M102.172,34 L104.496,34 L104.496,41.448 C104.496,42.0173362 104.591666,42.4186655 104.783,42.652 C104.974334,42.8853345 105.256665,43.002 105.63,43.002 C105.891335,43.002 106.140999,42.9553338 106.379,42.862 C106.617001,42.7686662 106.880665,42.6100011 107.17,42.386 L107.674,43.156 C107.524666,43.2866673 107.361334,43.4033328 107.184,43.506 C107.006666,43.6086672 106.824668,43.6949996 106.638,43.765 C106.451332,43.8350003 106.264668,43.8886665 106.078,43.926 C105.891332,43.9633335 105.718667,43.982 105.56,43.982 C105.214665,43.982 104.906668,43.9376671 104.636,43.849 C104.365332,43.7603329 104.139001,43.618001 103.957,43.422 C103.774999,43.225999 103.637334,42.9670016 103.544,42.645 C103.450666,42.3229984 103.404,41.9240024 103.404,41.448 L103.404,34.938 L102.172,34.938 L102.172,34 Z M110.572,34 L112.896,34 L112.896,41.448 C112.896,42.0173362 112.991666,42.4186655 113.183,42.652 C113.374334,42.8853345 113.656665,43.002 114.03,43.002 C114.291335,43.002 114.540999,42.9553338 114.779,42.862 C115.017001,42.7686662 115.280665,42.6100011 115.57,42.386 L116.074,43.156 C115.924666,43.2866673 115.761334,43.4033328 115.584,43.506 C115.406666,43.6086672 115.224668,43.6949996 115.038,43.765 C114.851332,43.8350003 114.664668,43.8886665 114.478,43.926 C114.291332,43.9633335 114.118667,43.982 113.96,43.982 C113.614665,43.982 113.306668,43.9376671 113.036,43.849 C112.765332,43.7603329 112.539001,43.618001 112.357,43.422 C112.174999,43.225999 112.037334,42.9670016 111.944,42.645 C111.850666,42.3229984 111.804,41.9240024 111.804,41.448 L111.804,34.938 L110.572,34.938 L110.572,34 Z M118.104,40.3 C118.104,39.170661 118.397997,38.2770033 118.986,37.619 C119.574003,36.9609967 120.413995,36.632 121.506,36.632 C122.094003,36.632 122.600331,36.7276657 123.025,36.919 C123.449669,37.1103343 123.801999,37.3693317 124.082,37.696 C124.362001,38.0226683 124.569666,38.4099978 124.705,38.858 C124.840334,39.3060022 124.908,39.7866641 124.908,40.3 C124.908,40.8600028 124.833334,41.3663311 124.684,41.819 C124.534666,42.2716689 124.315335,42.6566651 124.026,42.974 C123.736665,43.2913349 123.379669,43.5363325 122.955,43.709 C122.530331,43.8816675 122.047336,43.968 121.506,43.968 C120.92733,43.968 120.423335,43.8723343 119.994,43.681 C119.564665,43.4896657 119.210001,43.2306683 118.93,42.904 C118.649999,42.5773317 118.442334,42.1900022 118.307,41.742 C118.171666,41.2939978 118.104,40.8133359 118.104,40.3 Z M119.266,40.3 C119.266,40.6266683 119.305666,40.9533317 119.385,41.28 C119.464334,41.6066683 119.592666,41.9006654 119.77,42.162 C119.947334,42.4233346 120.178332,42.6333325 120.463,42.792 C120.747668,42.9506675 121.095331,43.03 121.506,43.03 C122.25267,43.03 122.814998,42.7990023 123.193,42.337 C123.571002,41.8749977 123.76,41.1960045 123.76,40.3 C123.76,39.9639983 123.720334,39.6350016 123.641,39.313 C123.561666,38.9909984 123.431001,38.6993346 123.249,38.438 C123.066999,38.1766654 122.833668,37.9666675 122.549,37.808 C122.264332,37.6493325 121.916669,37.57 121.506,37.57 C120.75933,37.57 120.199335,37.7986644 119.826,38.256 C119.452665,38.7133356 119.266,39.3946621 119.266,40.3 Z M130.732,34 L131.964,34 L131.53,38.242 L130.732,38.242 L130.732,34 Z M127.834,34 L129.066,34 L128.632,38.242 L127.834,38.242 L127.834,34 Z" id="&quot;Hello&quot;" fill="#669900"></path>
                <path d="M137.312,43.03 C137.312,42.7499986 137.402999,42.5236675 137.585,42.351 C137.767001,42.1783325 138.002665,42.092 138.292,42.092 C138.646668,42.092 138.921999,42.2156654 139.118,42.463 C139.314001,42.7103346 139.412,43.0579978 139.412,43.506 C139.412,43.8700018 139.351334,44.1896653 139.23,44.465 C139.108666,44.7403347 138.957001,44.9736657 138.775,45.165 C138.592999,45.3563343 138.397001,45.5103327 138.187,45.627 C137.976999,45.7436672 137.783334,45.8299997 137.606,45.886 L137.256,45.34 C137.592002,45.2093327 137.881332,45.0226679 138.124,44.78 C138.366668,44.5373321 138.488,44.2433351 138.488,43.898 C138.357333,43.9260001 138.254667,43.94 138.18,43.94 C137.909332,43.94 137.697001,43.8630008 137.543,43.709 C137.388999,43.5549992 137.312,43.3286682 137.312,43.03 Z M137.438,37.528 C137.438,37.2293318 137.521999,36.9983341 137.69,36.835 C137.858001,36.6716658 138.081999,36.59 138.362,36.59 C138.660668,36.59 138.893999,36.6716658 139.062,36.835 C139.230001,36.9983341 139.314,37.2293318 139.314,37.528 C139.314,37.798668 139.230001,38.0226658 139.062,38.2 C138.893999,38.3773342 138.660668,38.466 138.362,38.466 C138.081999,38.466 137.858001,38.3773342 137.69,38.2 C137.521999,38.0226658 137.438,37.798668 137.438,37.528 Z" id=";" fill="#999999"></path>
                <path d="M1.05,73.25 C1.05,73.1659996 1.04766669,73.056334 1.043,72.921 C1.03833331,72.785666 1.03133338,72.6456674 1.022,72.501 C1.01266662,72.3563326 1.00100007,72.2140007 0.987,72.074 C0.97299993,71.9339993 0.95666676,71.8126672 0.938,71.71 L3.55271368e-14,71.71 L3.55271368e-14,70.8 L1.862,70.8 L2.002,71.78 L2.072,71.78 C2.32400126,71.4533317 2.64366473,71.1803344 3.031,70.961 C3.41833527,70.7416656 3.8919972,70.632 4.452,70.632 C5.45067166,70.632 6.20199748,70.9073306 6.706,71.458 C7.21000252,72.0086694 7.462,72.9093271 7.462,74.16 C7.462,74.7480029 7.37566753,75.2776643 7.203,75.749 C7.03033247,76.2203357 6.78533492,76.6193317 6.468,76.946 C6.15066508,77.2726683 5.76800224,77.5246658 5.32,77.702 C4.87199776,77.8793342 4.37733604,77.968 3.836,77.968 C3.63999902,77.968 3.46500077,77.9610001 3.311,77.947 C3.15699923,77.9329999 3.01700063,77.9143334 2.891,77.891 C2.76499937,77.8676665 2.64133394,77.8373335 2.52,77.8 C2.39866606,77.7626665 2.2680007,77.7160003 2.128,77.66 L2.128,80.6 L1.05,80.6 L1.05,73.25 Z M4.27,71.654 C3.9899986,71.654 3.72633457,71.7053328 3.479,71.808 C3.23166543,71.9106672 3.01233429,72.0459992 2.821,72.214 C2.62966571,72.3820008 2.47333394,72.5686656 2.352,72.774 C2.23066606,72.9793344 2.15600014,73.1846656 2.128,73.39 L2.128,76.582 C2.33333436,76.7220007 2.56433205,76.8316663 2.821,76.911 C3.07766795,76.9903337 3.4159979,77.03 3.836,77.03 C4.5826704,77.03 5.17999776,76.7850024 5.628,76.295 C6.07600224,75.8049975 6.3,75.0886714 6.3,74.146 C6.3,73.3526627 6.14366823,72.7390022 5.831,72.305 C5.51833177,71.8709978 4.99800364,71.654 4.27,71.654 Z M8.162,68 L10.346,68 L10.346,71.668 L10.416,71.668 C10.7053348,71.3413317 11.0413314,71.0870009 11.424,70.905 C11.8066686,70.7229991 12.2826638,70.632 12.852,70.632 C13.3000022,70.632 13.689665,70.6786662 14.021,70.772 C14.352335,70.8653338 14.622999,71.0286655 14.833,71.262 C15.0430011,71.4953345 15.1993328,71.814998 15.302,72.221 C15.4046672,72.627002 15.456,73.1426635 15.456,73.768 L15.456,77.8 L14.364,77.8 L14.364,73.978 C14.364,73.5766647 14.3406669,73.2266682 14.294,72.928 C14.2473331,72.6293318 14.156334,72.3796677 14.021,72.179 C13.885666,71.9783323 13.7013345,71.8266672 13.468,71.724 C13.2346655,71.6213328 12.9360018,71.57 12.572,71.57 C12.3199987,71.57 12.0726679,71.6143329 11.83,71.703 C11.5873321,71.7916671 11.3656677,71.9129992 11.165,72.067 C10.9643323,72.2210008 10.7916674,72.4076656 10.647,72.627 C10.5023326,72.8463344 10.4020003,73.0866654 10.346,73.348 L10.346,77.8 L9.268,77.8 L9.268,68.938 L8.162,68.938 L8.162,68 Z M17.43,77.8 L17.43,76.862 L19.32,76.862 L19.32,71.738 L17.43,71.738 L17.43,70.8 L20.048,70.8 L20.272,71.71 L20.342,71.71 C20.6593349,71.4206652 21.013998,71.1733344 21.406,70.968 C21.798002,70.7626656 22.264664,70.66 22.806,70.66 C23.1233349,70.66 23.3776657,70.7206661 23.569,70.842 C23.7603343,70.9633339 23.9096661,71.1406655 24.017,71.374 C24.1243339,71.6073345 24.1966665,71.889665 24.234,72.221 C24.2713335,72.552335 24.29,72.9279979 24.29,73.348 L23.31,73.362 C23.31,72.7646637 23.2516673,72.3260014 23.135,72.046 C23.0183328,71.7659986 22.8060015,71.626 22.498,71.626 C22.2086652,71.626 21.9473345,71.6679996 21.714,71.752 C21.4806655,71.8360004 21.2776675,71.9386661 21.105,72.06 C20.9323325,72.1813339 20.7853339,72.3026661 20.664,72.424 C20.5426661,72.5453339 20.4540003,72.6479996 20.398,72.732 L20.398,76.862 L23.086,76.862 L23.086,77.8 L17.43,77.8 Z M26.418,71.346 C26.8193353,71.1126655 27.2719975,70.9446672 27.776,70.842 C28.2800025,70.7393328 28.7746642,70.688 29.26,70.688 C29.7360024,70.688 30.1256652,70.7626659 30.429,70.912 C30.7323349,71.0613341 30.9703325,71.2549988 31.143,71.493 C31.3156675,71.7310012 31.432333,72.0016651 31.493,72.305 C31.553667,72.6083348 31.584,72.9139985 31.584,73.222 C31.584,73.5766684 31.5746668,73.9546647 31.556,74.356 C31.5373332,74.7573353 31.5233334,75.1586647 31.514,75.56 C31.514,76.026669 31.5419997,76.4699979 31.598,76.89 L32.536,76.89 L32.536,77.8 L30.674,77.8 L30.548,76.75 L30.478,76.75 C30.4219997,76.8340004 30.3380006,76.9413327 30.226,77.072 C30.1139994,77.2026673 29.9670009,77.3309994 29.785,77.457 C29.6029991,77.5830006 29.3813346,77.6926662 29.12,77.786 C28.8586654,77.8793338 28.5506684,77.926 28.196,77.926 C27.5053299,77.926 26.9593353,77.7486684 26.558,77.394 C26.1566647,77.0393316 25.956,76.5540031 25.956,75.938 C25.956,75.4619976 26.060999,75.0653349 26.271,74.748 C26.4810011,74.4306651 26.781998,74.188 27.174,74.02 C27.566002,73.8519992 28.0396639,73.7540001 28.595,73.726 C29.1503361,73.6979999 29.7733299,73.7353328 30.464,73.838 C30.5106669,73.4086645 30.5176668,73.0516681 30.485,72.767 C30.4523332,72.4823319 30.3776673,72.2560008 30.261,72.088 C30.1443328,71.9199992 29.9810011,71.8010003 29.771,71.731 C29.560999,71.6609996 29.3020015,71.626 28.994,71.626 C28.5739979,71.626 28.1726686,71.6843327 27.79,71.801 C27.4073314,71.9176672 27.0666682,72.0366661 26.768,72.158 L26.418,71.346 Z M28.476,76.988 C28.7373346,76.988 28.9799989,76.9460004 29.204,76.862 C29.4280011,76.7779996 29.6239992,76.6706673 29.792,76.54 C29.9600008,76.4093327 30.0999994,76.2670008 30.212,76.113 C30.3240006,75.9589992 30.4079997,75.8120007 30.464,75.672 L30.464,74.692 C29.9786642,74.6079996 29.5306687,74.566 29.12,74.566 C28.7093313,74.566 28.3546682,74.6103329 28.056,74.699 C27.7573318,74.7876671 27.5240008,74.9253324 27.356,75.112 C27.1879992,75.2986676 27.104,75.5413318 27.104,75.84 C27.104,76.1480015 27.208999,76.4163322 27.419,76.645 C27.6290011,76.8736678 27.9813309,76.988 28.476,76.988 Z M39.438,75.91 C39.438,75.6113318 39.3213345,75.3803341 39.088,75.217 C38.8546655,75.0536658 38.5653351,74.9230005 38.22,74.825 C37.8746649,74.7269995 37.499002,74.6360004 37.093,74.552 C36.686998,74.4679996 36.3113351,74.3560007 35.966,74.216 C35.6206649,74.0759993 35.3313345,73.8870012 35.098,73.649 C34.8646655,73.4109988 34.748,73.0773355 34.748,72.648 C34.748,72.2933316 34.8249992,71.9900013 34.979,71.738 C35.1330008,71.4859987 35.3359987,71.2783341 35.588,71.115 C35.8400013,70.9516658 36.1339983,70.8303337 36.47,70.751 C36.8060017,70.6716663 37.1559982,70.632 37.52,70.632 C38.1733366,70.632 38.7356643,70.7136658 39.207,70.877 C39.6783357,71.0403341 40.0539986,71.2106658 40.334,71.388 L39.886,72.27 C39.5779985,72.1019992 39.2443351,71.9410008 38.885,71.787 C38.5256649,71.6329992 38.075336,71.556 37.534,71.556 C37.3286656,71.556 37.1256677,71.5769998 36.925,71.619 C36.7243323,71.6610002 36.5423342,71.7239996 36.379,71.808 C36.2156659,71.8920004 36.0850005,72.001666 35.987,72.137 C35.8889995,72.272334 35.84,72.437999 35.84,72.634 C35.84,72.8766679 35.9566655,73.0633327 36.19,73.194 C36.4233345,73.3246673 36.7126649,73.4343329 37.058,73.523 C37.4033351,73.6116671 37.778998,73.6956663 38.185,73.775 C38.591002,73.8543337 38.9666649,73.9686659 39.312,74.118 C39.6573351,74.2673341 39.9466655,74.4679987 40.18,74.72 C40.4133345,74.9720013 40.53,75.3126645 40.53,75.742 C40.53,76.3860032 40.2756692,76.9179979 39.767,77.338 C39.2583308,77.7580021 38.4953384,77.968 37.478,77.968 C37.1699985,77.968 36.8666682,77.9400003 36.568,77.884 C36.2693318,77.8279997 35.9893346,77.7533338 35.728,77.66 C35.4666654,77.5666662 35.2286677,77.4616672 35.014,77.345 C34.7993323,77.2283327 34.6220007,77.1093339 34.482,76.988 L35.042,76.078 C35.1540006,76.1900006 35.3033324,76.3043327 35.49,76.421 C35.6766676,76.5376672 35.8819989,76.6426662 36.106,76.736 C36.3300011,76.8293338 36.5703321,76.9039997 36.827,76.96 C37.083668,77.0160003 37.3426654,77.044 37.604,77.044 C37.8560013,77.044 38.0916656,77.0230002 38.311,76.981 C38.5303344,76.9389998 38.7239992,76.8736671 38.892,76.785 C39.0600008,76.6963329 39.1929995,76.5796674 39.291,76.435 C39.3890005,76.2903326 39.438,76.1153344 39.438,75.91 Z M49.112,76.918 C48.9439992,77.0673341 48.7456678,77.2073327 48.517,77.338 C48.2883322,77.4686673 48.038668,77.5806662 47.768,77.674 C47.497332,77.7673338 47.2150015,77.8396664 46.921,77.891 C46.6269985,77.9423336 46.3306682,77.968 46.032,77.968 C45.4719972,77.968 44.9773355,77.8816675 44.548,77.709 C44.1186645,77.5363325 43.7593348,77.2890016 43.47,76.967 C43.1806652,76.6449984 42.9613341,76.2600022 42.812,75.812 C42.6626659,75.3639978 42.588,74.8600028 42.588,74.3 C42.588,73.7119971 42.6696659,73.1893356 42.833,72.732 C42.9963342,72.2746644 43.2319985,71.8920015 43.54,71.584 C43.8480015,71.2759985 44.2213311,71.0403341 44.66,70.877 C45.0986689,70.7136658 45.588664,70.632 46.13,70.632 C46.522002,70.632 46.9093314,70.6833328 47.292,70.786 C47.6746686,70.8886672 48.0129985,71.0823319 48.307,71.367 C48.6010015,71.6516681 48.8273325,72.0436642 48.986,72.543 C49.1446675,73.0423358 49.2006669,73.6886627 49.154,74.482 L43.736,74.482 C43.736,75.3220042 43.9623311,75.9496646 44.415,76.365 C44.8676689,76.7803354 45.4719962,76.988 46.228,76.988 C46.4800013,76.988 46.7296654,76.957667 46.977,76.897 C47.2243346,76.836333 47.4599989,76.7640004 47.684,76.68 C47.9080011,76.5959996 48.1063325,76.5026672 48.279,76.4 C48.4516675,76.2973328 48.5846662,76.2040004 48.678,76.12 L49.112,76.918 Z M46.158,71.556 C45.8499985,71.556 45.5583347,71.5886663 45.283,71.654 C45.0076653,71.7193337 44.7650011,71.8289992 44.555,71.983 C44.344999,72.1370008 44.172334,72.3376654 44.037,72.585 C43.901666,72.8323346 43.8153335,73.1379982 43.778,73.502 L48.132,73.502 C48.0853331,72.8859969 47.8870018,72.4076684 47.537,72.067 C47.1869983,71.7263316 46.7273362,71.556 46.158,71.556 Z" id="phrase" fill="#000000"></path>
                <path d="M59.458,71.402 L65.954,71.402 L65.954,72.41 L59.458,72.41 L59.458,71.402 Z M59.458,73.698 L65.954,73.698 L65.954,74.706 L59.458,74.706 L59.458,73.698 Z" id="=" fill="#946C47"></path>
                <path d="M80.332,68 L81.564,68 L81.13,72.242 L80.332,72.242 L80.332,68 Z M77.434,68 L78.666,68 L78.232,72.242 L77.434,72.242 L77.434,68 Z M91.014,70.24 C91.014,70.4733345 90.976667,70.7113321 90.902,70.954 C90.827333,71.1966679 90.7153341,71.422999 90.566,71.633 C90.4166659,71.843001 90.2253345,72.0273325 89.992,72.186 C89.7586655,72.3446675 89.4833349,72.4659996 89.166,72.55 L89.166,72.606 C89.4460014,72.6526669 89.7143321,72.7319994 89.971,72.844 C90.227668,72.9560006 90.453999,73.109999 90.65,73.306 C90.846001,73.502001 91.0046661,73.7399986 91.126,74.02 C91.2473339,74.3000014 91.308,74.6313314 91.308,75.014 C91.308,75.5180025 91.2030011,75.9543315 90.993,76.323 C90.782999,76.6916685 90.5076684,76.9926655 90.167,77.226 C89.8263316,77.4593345 89.4366689,77.6319994 88.998,77.744 C88.5593311,77.8560006 88.1113356,77.912 87.654,77.912 L87.094,77.912 C86.8793323,77.912 86.6553345,77.9050001 86.422,77.891 C86.1886655,77.8769999 85.9553345,77.8583334 85.722,77.835 C85.4886655,77.8116665 85.2833342,77.7766669 85.106,77.73 L85.106,68.084 C85.4513351,68.0279997 85.8526644,67.9813335 86.31,67.944 C86.7673356,67.9066665 87.266664,67.888 87.808,67.888 C88.1720018,67.888 88.5429981,67.918333 88.921,67.979 C89.2990019,68.039667 89.6419985,68.1563325 89.95,68.329 C90.2580015,68.5016675 90.5123323,68.7419985 90.713,69.05 C90.9136677,69.3580015 91.014,69.7546642 91.014,70.24 Z M87.766,76.904 C88.0646682,76.904 88.3539986,76.866667 88.634,76.792 C88.9140014,76.717333 89.1613323,76.6053341 89.376,76.456 C89.5906677,76.3066659 89.7609994,76.1200011 89.887,75.896 C90.0130006,75.6719989 90.076,75.4060015 90.076,75.098 C90.076,74.7153314 89.9990008,74.4073345 89.845,74.174 C89.6909992,73.9406655 89.4903346,73.7586673 89.243,73.628 C88.9956654,73.4973327 88.7180015,73.4086669 88.41,73.362 C88.1019985,73.3153331 87.7940015,73.292 87.486,73.292 L86.268,73.292 L86.268,76.806 C86.3333337,76.8246668 86.4266661,76.8386666 86.548,76.848 C86.6693339,76.8573334 86.7999993,76.8666666 86.94,76.876 C87.0800007,76.8853334 87.2246659,76.8923333 87.374,76.897 C87.5233341,76.9016667 87.6539994,76.904 87.766,76.904 Z M86.996,72.312 C87.1546675,72.312 87.3459989,72.3073334 87.57,72.298 C87.7940011,72.2886666 87.9806659,72.2746668 88.13,72.256 C88.3540011,72.181333 88.563999,72.0903339 88.76,71.983 C88.956001,71.8756661 89.1309992,71.7473341 89.285,71.598 C89.4390008,71.4486659 89.5603329,71.2806676 89.649,71.094 C89.7376671,70.9073324 89.782,70.7020011 89.782,70.478 C89.782,70.1699985 89.7236673,69.9133344 89.607,69.708 C89.4903328,69.5026656 89.334001,69.3393339 89.138,69.218 C88.941999,69.0966661 88.7180013,69.0126669 88.466,68.966 C88.2139987,68.9193331 87.9573346,68.896 87.696,68.896 C87.3879985,68.896 87.105668,68.9029999 86.849,68.917 C86.5923321,68.9310001 86.3986673,68.9519999 86.268,68.98 L86.268,72.312 L86.996,72.312 Z M96.46,76.722 L96.992,76.722 L98.728,70.8 L99.862,70.8 L97.916,77.086 C97.8133328,77.4126683 97.7083339,77.7836646 97.601,78.199 C97.4936661,78.6143354 97.342001,79.0039982 97.146,79.368 C96.949999,79.7320018 96.6840017,80.0399987 96.348,80.292 C96.0119983,80.5440013 95.573336,80.67 95.032,80.67 C94.9106661,80.67 94.782334,80.6560001 94.647,80.628 C94.511666,80.5999999 94.3786673,80.5650002 94.248,80.523 C94.1173327,80.4809998 93.9960006,80.4320003 93.884,80.376 C93.7719994,80.3199997 93.6880003,80.2640003 93.632,80.208 L94.024,79.2 C94.0800003,79.2466669 94.1569995,79.2933331 94.255,79.34 C94.3530005,79.3866669 94.4603328,79.4263332 94.577,79.459 C94.6936673,79.4916668 94.8079994,79.5196665 94.92,79.543 C95.0320006,79.5663334 95.125333,79.578 95.2,79.578 C95.9000035,79.578 96.3759987,78.9853393 96.628,77.8 L95.69,77.8 L92.75,70.8 L94.01,70.8 L96.46,76.722 Z M107.912,76.918 C107.743999,77.0673341 107.545668,77.2073327 107.317,77.338 C107.088332,77.4686673 106.838668,77.5806662 106.568,77.674 C106.297332,77.7673338 106.015001,77.8396664 105.721,77.891 C105.426999,77.9423336 105.130668,77.968 104.832,77.968 C104.271997,77.968 103.777335,77.8816675 103.348,77.709 C102.918665,77.5363325 102.559335,77.2890016 102.27,76.967 C101.980665,76.6449984 101.761334,76.2600022 101.612,75.812 C101.462666,75.3639978 101.388,74.8600028 101.388,74.3 C101.388,73.7119971 101.469666,73.1893356 101.633,72.732 C101.796334,72.2746644 102.031998,71.8920015 102.34,71.584 C102.648002,71.2759985 103.021331,71.0403341 103.46,70.877 C103.898669,70.7136658 104.388664,70.632 104.93,70.632 C105.322002,70.632 105.709331,70.6833328 106.092,70.786 C106.474669,70.8886672 106.812999,71.0823319 107.107,71.367 C107.401001,71.6516681 107.627333,72.0436642 107.786,72.543 C107.944667,73.0423358 108.000667,73.6886627 107.954,74.482 L102.536,74.482 C102.536,75.3220042 102.762331,75.9496646 103.215,76.365 C103.667669,76.7803354 104.271996,76.988 105.028,76.988 C105.280001,76.988 105.529665,76.957667 105.777,76.897 C106.024335,76.836333 106.259999,76.7640004 106.484,76.68 C106.708001,76.5959996 106.906332,76.5026672 107.079,76.4 C107.251668,76.2973328 107.384666,76.2040004 107.478,76.12 L107.912,76.918 Z M104.958,71.556 C104.649998,71.556 104.358335,71.5886663 104.083,71.654 C103.807665,71.7193337 103.565001,71.8289992 103.355,71.983 C103.144999,72.1370008 102.972334,72.3376654 102.837,72.585 C102.701666,72.8323346 102.615334,73.1379982 102.578,73.502 L106.932,73.502 C106.885333,72.8859969 106.687002,72.4076684 106.337,72.067 C105.986998,71.7263316 105.527336,71.556 104.958,71.556 Z M113.932,68 L115.164,68 L114.73,72.242 L113.932,72.242 L113.932,68 Z M111.034,68 L112.266,68 L111.832,72.242 L111.034,72.242 L111.034,68 Z" id="&quot;Bye&quot;" fill="#558A03"></path>
                <path d="M120.512,77.03 C120.512,76.7499986 120.602999,76.5236675 120.785,76.351 C120.967001,76.1783325 121.202665,76.092 121.492,76.092 C121.846668,76.092 122.121999,76.2156654 122.318,76.463 C122.514001,76.7103346 122.612,77.0579978 122.612,77.506 C122.612,77.8700018 122.551334,78.1896653 122.43,78.465 C122.308666,78.7403347 122.157001,78.9736657 121.975,79.165 C121.792999,79.3563343 121.597001,79.5103327 121.387,79.627 C121.176999,79.7436672 120.983334,79.8299997 120.806,79.886 L120.456,79.34 C120.792002,79.2093327 121.081332,79.0226679 121.324,78.78 C121.566668,78.5373321 121.688,78.2433351 121.688,77.898 C121.557333,77.9260001 121.454667,77.94 121.38,77.94 C121.109332,77.94 120.897001,77.8630008 120.743,77.709 C120.588999,77.5549992 120.512,77.3286682 120.512,77.03 Z M120.638,71.528 C120.638,71.2293318 120.721999,70.9983341 120.89,70.835 C121.058001,70.6716658 121.281999,70.59 121.562,70.59 C121.860668,70.59 122.093999,70.6716658 122.262,70.835 C122.430001,70.9983341 122.514,71.2293318 122.514,71.528 C122.514,71.798668 122.430001,72.0226658 122.262,72.2 C122.093999,72.3773342 121.860668,72.466 121.562,72.466 C121.281999,72.466 121.058001,72.3773342 120.89,72.2 C120.721999,72.0226658 120.638,71.798668 120.638,71.528 Z" id=";" fill="#878787"></path>
            </g>
            <text id="execution-start" font-family="PTMono-Regular, PT Mono" font-size="12" font-weight="normal" fill="#9B9B9B">
                <tspan x="20" y="30">execution start</tspan>
            </text>
            <path d="M166.5,26.5 L216.5,26.5" id="Line" stroke="#9B9B9B" stroke-linecap="square" stroke-dasharray="2,4,2,4"></path>
            <path d="M166.5,58.5 L216.5,58.5" id="Line-Copy" stroke="#9B9B9B" stroke-linecap="square" stroke-dasharray="2,4,2,4"></path>
            <path d="M166.5,92.5 L216.5,92.5" id="Line-Copy-2" stroke="#9B9B9B" stroke-linecap="square" stroke-dasharray="2,4,2,4"></path>
            <path d="M166.5,126.5 L216.5,126.5" id="Line-Copy-3" stroke="#9B9B9B" stroke-linecap="square" stroke-dasharray="2,4,2,4"></path>
            <path d="M166.5,126.5 L216.5,126.5" id="Line-Copy-4" stroke="#9B9B9B" stroke-linecap="square" stroke-dasharray="2,4,2,4"></path>
        </g>
    </g>
</svg>