<?xml version="1.0" encoding="UTF-8" standalone="no"?>
<!DOCTYPE svg PUBLIC "-//W3C//DTD SVG 1.1//EN"
 "http://www.w3.org/Graphics/SVG/1.1/DTD/svg11.dtd">
<!-- Generated by graphviz version 2.26.3 (20100126.1600)
 -->
<!-- Title: AST Pages: 1 -->
<svg width="420pt" height="544pt"
 viewBox="0.00 0.00 420.00 544.00" xmlns="http://www.w3.org/2000/svg" xmlns:xlink="http://www.w3.org/1999/xlink">
<g id="graph1" class="graph" transform="scale(.6 .6) rotate(0) translate(4 902)">
<title>AST</title>
<polygon fill="white" stroke="white" points="-4,5 -4,-902 683,-902 683,5 -4,5"/>
<!-- node0 -->
<g id="node1" class="node"><title>node0</title>
<ellipse fill="#b2dfee" stroke="#b2dfee" cx="173" cy="-879" rx="44.7575" ry="18.3848"/>
<text text-anchor="middle" x="173" y="-875.4" font-family="Consolas, monospace" font-size="14.00">BLOCK</text>
</g>
<!-- node1 -->
<g id="node2" class="node"><title>node1</title>
<ellipse fill="#b2dfee" stroke="#b2dfee" cx="173" cy="-787" rx="48.0833" ry="18.3848"/>
<text text-anchor="middle" x="173" y="-783.4" font-family="Consolas, monospace" font-size="14.00">SCRIPT</text>
</g>
<!-- node0&#45;&gt;node1 -->
<g id="edge2" class="edge"><title>node0&#45;&gt;node1</title>
<path fill="none" stroke="black" d="M173,-860.382C173,-847.538 173,-830.216 173,-815.627"/>
<polygon fill="black" stroke="black" points="176.5,-815.59 173,-805.59 169.5,-815.59 176.5,-815.59"/>
</g>
<!-- node0&#45;&gt;node1 -->
<g id="edge50" class="edge"><title>node0&#45;&gt;node1</title>
<path fill="none" stroke="red" d="M179.666,-860.413C181.442,-854.596 183.112,-848.101 184,-842 185.152,-834.083 185.152,-831.917 184,-824 183.584,-821.14 182.996,-818.194 182.306,-815.271"/>
<polygon fill="red" stroke="red" points="185.673,-814.315 179.666,-805.587 178.919,-816.156 185.673,-814.315"/>
<text text-anchor="middle" x="217" y="-829.4" font-family="Consolas, monospace" font-size="14.00" fill="red">UNCOND</text>
</g>
<!-- RETURN -->
<g id="node41" class="node"><title>RETURN</title>
<ellipse fill="#b2dfee" stroke="#b2dfee" cx="427" cy="-379" rx="53.033" ry="18.3848"/>
<text text-anchor="middle" x="427" y="-375.4" font-family="Consolas, monospace" font-size="14.00">RETURN</text>
</g>
<!-- node0&#45;&gt;RETURN -->
<g id="edge48" class="edge"><title>node0&#45;&gt;RETURN</title>
<path fill="none" stroke="red" d="M206.737,-866.543C221.585,-860.284 238.832,-851.913 253,-842 357.801,-768.67 407.197,-756.232 456,-638 488.557,-559.127 457.409,-455.907 438.747,-407.014"/>
<polygon fill="red" stroke="red" points="441.897,-405.46 434.982,-397.433 435.382,-408.021 441.897,-405.46"/>
<text text-anchor="middle" x="490" y="-661.4" font-family="Consolas, monospace" font-size="14.00" fill="red">SYN_BLOCK</text>
</g>
<!-- node2 -->
<g id="node4" class="node"><title>node2</title>
<ellipse fill="#b2dfee" stroke="#b2dfee" cx="173" cy="-711" rx="63.8479" ry="18.3848"/>
<text text-anchor="middle" x="173" y="-707.4" font-family="Consolas, monospace" font-size="14.00">FUNCTION</text>
<text text-anchor="middle" x="173" y="-695.4" font-family="Consolas, monospace" fill="green" font-size="14.00">функция</text>
</g>
<!-- node1&#45;&gt;node2 -->
<g id="edge4" class="edge"><title>node1&#45;&gt;node2</title>
<path fill="none" stroke="black" d="M173,-768.213C173,-759.654 173,-749.33 173,-739.822"/>
<polygon fill="black" stroke="black" points="176.5,-739.57 173,-729.57 169.5,-739.57 176.5,-739.57"/>
</g>
<!-- node1&#45;&gt;RETURN -->
<g id="edge46" class="edge"><title>node1&#45;&gt;RETURN</title>
<path fill="none" stroke="red" d="M200.79,-771.711C241.73,-747.947 318.425,-698.523 365,-638 418.572,-568.385 426.776,-459.45 427.445,-407.897"/>
<polygon fill="red" stroke="red" points="430.945,-407.817 427.487,-397.802 423.945,-407.788 430.945,-407.817"/>
<text text-anchor="middle" x="420" y="-615.4" font-family="Consolas, monospace" font-size="14.00" fill="red">UNCOND</text>
</g>
<!-- node3 -->
<g id="node6" class="node"><title>node3</title>
<ellipse fill="#b2dfee" stroke="#b2dfee" cx="41" cy="-619" rx="41.0122" ry="18.3848"/>
<text text-anchor="middle" x="41" y="-615.4" font-family="Consolas, monospace" font-size="14.00">NAME</text>
<text text-anchor="middle" x="41" y="-605.4" font-family="Consolas, monospace" fill="green" font-size="14.00">имя</text>
</g>
<!-- node2&#45;&gt;node3 -->
<g id="edge6" class="edge"><title>node2&#45;&gt;node3</title>
<path fill="none" stroke="black" d="M148.481,-693.911C126.929,-678.89 95.452,-656.951 72.1273,-640.695"/>
<polygon fill="black" stroke="black" points="73.8301,-637.615 63.6248,-634.769 69.8275,-643.358 73.8301,-637.615"/>
</g>
<!-- node4 -->
<g id="node8" class="node"><title>node4</title>
<ellipse fill="#b2dfee" stroke="#b2dfee" cx="173" cy="-619" rx="73.0388" ry="18.3848"/>
<text text-anchor="middle" x="173" y="-615.4" font-family="Consolas, monospace" font-size="14.00">PARAM_LIST</text>
<text text-anchor="middle" x="173" y="-605.4" font-family="Consolas, monospace" fill="green" font-size="14.00">список параметров</text>
</g>
<!-- node2&#45;&gt;node4 -->
<g id="edge8" class="edge"><title>node2&#45;&gt;node4</title>
<path fill="none" stroke="black" d="M173,-692.382C173,-679.538 173,-662.216 173,-647.627"/>
<polygon fill="black" stroke="black" points="176.5,-647.59 173,-637.59 169.5,-647.59 176.5,-647.59"/>
</g>
<!-- node6 -->
<g id="node12" class="node"><title>node6</title>
<ellipse fill="#b2dfee" stroke="#b2dfee" cx="311" cy="-619" rx="44.7575" ry="18.3848"/>
<text text-anchor="middle" x="311" y="-615.4" font-family="Consolas, monospace" font-size="14.00">BLOCK</text>
<text text-anchor="middle" x="311" y="-605.4" font-family="Consolas, monospace" fill="green" font-size="14.00">тело функции</text>
</g>
<!-- node2&#45;&gt;node6 -->
<g id="edge44" class="edge"><title>node2&#45;&gt;node6</title>
<path fill="none" stroke="red" d="M184.468,-692.607C192.607,-680.813 204.461,-665.91 218,-656 226.315,-649.914 246.884,-641.526 266.57,-634.276"/>
<polygon fill="red" stroke="red" points="267.894,-637.518 276.105,-630.823 265.511,-630.937 267.894,-637.518"/>
<text text-anchor="middle" x="250" y="-661.4" font-family="Consolas, monospace" font-size="14.00" fill="red">UNCOND</text>
</g>
<!-- node2&#45;&gt;node6 -->
<g id="edge12" class="edge"><title>node2&#45;&gt;node6</title>
<path fill="none" stroke="black" d="M229.449,-702.19C249.189,-696.773 270.314,-688.046 286,-674 293.887,-666.937 299.441,-656.894 303.276,-647.318"/>
<polygon fill="black" stroke="black" points="306.659,-648.247 306.675,-637.653 300.056,-645.925 306.659,-648.247"/>
</g>
<!-- node5 -->
<g id="node10" class="node"><title>node5</title>
<ellipse fill="#b2dfee" stroke="#b2dfee" cx="172" cy="-527" rx="41.0122" ry="18.3848"/>
<text text-anchor="middle" x="172" y="-523.4" font-family="Consolas, monospace" font-size="14.00">NAME</text>
<text text-anchor="middle" x="172" y="-513.4" font-family="Consolas, monospace" fill="green" font-size="14.00">имя</text>
</g>
<!-- node4&#45;&gt;node5 -->
<g id="edge10" class="edge"><title>node4&#45;&gt;node5</title>
<path fill="none" stroke="black" d="M172.798,-600.382C172.658,-587.538 172.47,-570.216 172.311,-555.627"/>
<polygon fill="black" stroke="black" points="175.811,-555.551 172.202,-545.59 168.811,-555.627 175.811,-555.551"/>
</g>
<!-- node7 -->
<g id="node14" class="node"><title>node7</title>
<ellipse fill="#b2dfee" stroke="#b2dfee" cx="313" cy="-527" rx="82.0244" ry="18.3848"/>
<text text-anchor="middle" x="313" y="-523.4" font-family="Consolas, monospace" font-size="14.00">EXPR_RESULT</text>
<text text-anchor="middle" x="313" y="-513.4" font-family="Consolas, monospace" fill="green" font-size="14.00">выражение</text>
</g>
<!-- node6&#45;&gt;node7 -->
<g id="edge42" class="edge"><title>node6&#45;&gt;node7</title>
<path fill="none" stroke="red" d="M276.446,-606.903C254.841,-597.254 233.026,-582.337 244,-564 247.743,-557.745 252.946,-552.488 258.832,-548.084"/>
<polygon fill="red" stroke="red" points="260.764,-551.002 267.21,-542.594 256.928,-545.147 260.764,-551.002"/>
<text text-anchor="middle" x="276" y="-569.4" font-family="Consolas, monospace" font-size="14.00" fill="red">UNCOND</text>
</g>
<!-- node6&#45;&gt;node7 -->
<g id="edge14" class="edge"><title>node6&#45;&gt;node7</title>
<path fill="none" stroke="black" d="M311.405,-600.382C311.684,-587.538 312.061,-570.216 312.378,-555.627"/>
<polygon fill="black" stroke="black" points="315.878,-555.664 312.596,-545.59 308.879,-555.511 315.878,-555.664"/>
</g>
<!-- node8 -->
<g id="node16" class="node"><title>node8</title>
<ellipse fill="#b2dfee" stroke="#b2dfee" cx="313" cy="-435" rx="50.2046" ry="18.3848"/>
<text text-anchor="middle" x="313" y="-431.4" font-family="Consolas, monospace" font-size="14.00">ASSIGN</text>
<text text-anchor="middle" x="313" y="-421.4" font-family="Consolas, monospace" fill="green" font-size="14.00">присвоить</text>
</g>
<!-- node7&#45;&gt;node8 -->
<g id="edge16" class="edge"><title>node7&#45;&gt;node8</title>
<path fill="none" stroke="black" d="M313,-508.382C313,-495.538 313,-478.216 313,-463.627"/>
<polygon fill="black" stroke="black" points="316.5,-463.59 313,-453.59 309.5,-463.59 316.5,-463.59"/>
</g>
<!-- node7&#45;&gt;RETURN -->
<g id="edge40" class="edge"><title>node7&#45;&gt;RETURN</title>
<path fill="none" stroke="red" d="M323.59,-508.44C330.399,-497.288 339.85,-483.147 350,-472 358.506,-462.659 363.307,-463.167 372,-454 386.118,-439.113 399.771,-420.528 409.942,-405.583"/>
<polygon fill="red" stroke="red" points="412.858,-407.518 415.506,-397.26 407.039,-403.628 412.858,-407.518"/>
<text text-anchor="middle" x="382" y="-477.4" font-family="Consolas, monospace" font-size="14.00" fill="red">UNCOND</text>
</g>
<!-- node9 -->
<g id="node18" class="node"><title>node9</title>
<ellipse fill="#b2dfee" stroke="#b2dfee" cx="210" cy="-323" rx="60.1041" ry="18.3848"/>
<text text-anchor="middle" x="210" y="-319.4" font-family="Consolas, monospace" font-size="14.00">GETPROP</text>
<text text-anchor="middle" x="210" y="-309.4" font-family="Consolas, monospace" fill="green" font-size="14.00">получить свойство</text>
</g>
<!-- node8&#45;&gt;node9 -->
<g id="edge18" class="edge"><title>node8&#45;&gt;node9</title>
<path fill="none" stroke="black" d="M296.451,-417.005C279.408,-398.472 252.694,-369.425 233.472,-348.523"/>
<polygon fill="black" stroke="black" points="235.853,-345.942 226.508,-340.95 230.701,-350.68 235.853,-345.942"/>
</g>
<!-- node12 -->
<g id="node24" class="node"><title>node12</title>
<ellipse fill="#b2dfee" stroke="#b2dfee" cx="402" cy="-323" rx="63.8479" ry="18.3848"/>
<text text-anchor="middle" x="402" y="-319.4" font-family="Consolas, monospace" font-size="14.00">FUNCTION</text>
<text text-anchor="middle" x="402" y="-309.4" font-family="Consolas, monospace" fill="green" font-size="14.00">функция</text>
</g>
<!-- node8&#45;&gt;node12 -->
<g id="edge24" class="edge"><title>node8&#45;&gt;node12</title>
<path fill="none" stroke="black" d="M324.328,-416.766C334.328,-401.157 349.664,-378.363 365,-360 368.336,-356.006 372.031,-351.947 375.758,-348.052"/>
<polygon fill="black" stroke="black" points="378.354,-350.404 382.878,-340.824 373.367,-345.492 378.354,-350.404"/>
</g>
<!-- node10 -->
<g id="node20" class="node"><title>node10</title>
<ellipse fill="#b2dfee" stroke="#b2dfee" cx="107" cy="-247" rx="34.8574" ry="18.3848"/>
<text text-anchor="middle" x="107" y="-243.4" font-family="Consolas, monospace" font-size="14.00">THIS</text>
</g>
<!-- node9&#45;&gt;node10 -->
<g id="edge20" class="edge"><title>node9&#45;&gt;node10</title>
<path fill="none" stroke="black" d="M186.628,-305.754C171.604,-294.669 151.973,-280.184 135.962,-268.37"/>
<polygon fill="black" stroke="black" points="137.617,-265.241 127.492,-262.12 133.46,-270.874 137.617,-265.241"/>
</g>
<!-- node11 -->
<g id="node22" class="node"><title>node11</title>
<ellipse fill="#b2dfee" stroke="#b2dfee" cx="210" cy="-247" rx="50.2046" ry="18.3848"/>
<text text-anchor="middle" x="210" y="-243.4" font-family="Consolas, monospace" font-size="14.00">STRING</text>
<text text-anchor="middle" x="210" y="-233.4" font-family="Consolas, monospace" fill="green" font-size="14.00">строка-константа</text>
</g>
<!-- node9&#45;&gt;node11 -->
<g id="edge22" class="edge"><title>node9&#45;&gt;node11</title>
<path fill="none" stroke="black" d="M210,-304.213C210,-295.654 210,-285.33 210,-275.822"/>
<polygon fill="black" stroke="black" points="213.5,-275.57 210,-265.57 206.5,-275.57 213.5,-275.57"/>
</g>
<!-- node13 -->
<g id="node26" class="node"><title>node13</title>
<ellipse fill="#b2dfee" stroke="#b2dfee" cx="319" cy="-247" rx="41.0122" ry="18.3848"/>
<text text-anchor="middle" x="319" y="-243.4" font-family="Consolas, monospace" font-size="14.00">NAME</text>
</g>
<!-- node12&#45;&gt;node13 -->
<g id="edge26" class="edge"><title>node12&#45;&gt;node13</title>
<path fill="none" stroke="black" d="M382.33,-304.989C371.162,-294.763 357.045,-281.837 344.976,-270.785"/>
<polygon fill="black" stroke="black" points="347.13,-268.012 337.391,-263.84 342.403,-273.175 347.13,-268.012"/>
</g>
<!-- node14 -->
<g id="node28" class="node"><title>node14</title>
<ellipse fill="#b2dfee" stroke="#b2dfee" cx="451" cy="-247" rx="73.0388" ry="18.3848"/>
<text text-anchor="middle" x="451" y="-243.4" font-family="Consolas, monospace" font-size="14.00">PARAM_LIST</text>
</g>
<!-- node12&#45;&gt;node14 -->
<g id="edge28" class="edge"><title>node12&#45;&gt;node14</title>
<path fill="none" stroke="black" d="M413.862,-304.603C419.776,-295.429 427.044,-284.156 433.578,-274.022"/>
<polygon fill="black" stroke="black" points="436.601,-275.793 439.078,-265.491 430.717,-272 436.601,-275.793"/>
</g>
<!-- node15 -->
<g id="node30" class="node"><title>node15</title>
<ellipse fill="#b2dfee" stroke="#b2dfee" cx="587" cy="-247" rx="44.7575" ry="18.3848"/>
<text text-anchor="middle" x="587" y="-243.4" font-family="Consolas, monospace" font-size="14.00">BLOCK</text>
</g>
<!-- node12&#45;&gt;node15 -->
<g id="edge30" class="edge"><title>node12&#45;&gt;node15</title>
<path fill="none" stroke="black" d="M438.993,-307.803C469.763,-295.162 513.537,-277.179 545.496,-264.05"/>
<polygon fill="black" stroke="black" points="547.088,-267.18 555.008,-260.143 544.428,-260.705 547.088,-267.18"/>
</g>
<!-- node16 -->
<g id="node32" class="node"><title>node16</title>
<ellipse fill="#b2dfee" stroke="#b2dfee" cx="587" cy="-171" rx="82.0244" ry="18.3848"/>
<text text-anchor="middle" x="587" y="-167.4" font-family="Consolas, monospace" font-size="14.00">EXPR_RESULT</text>
</g>
<!-- node15&#45;&gt;node16 -->
<g id="edge32" class="edge"><title>node15&#45;&gt;node16</title>
<path fill="none" stroke="black" d="M587,-228.213C587,-219.654 587,-209.33 587,-199.822"/>
<polygon fill="black" stroke="black" points="590.5,-199.57 587,-189.57 583.5,-199.57 590.5,-199.57"/>
</g>
<!-- node17 -->
<g id="node34" class="node"><title>node17</title>
<ellipse fill="#b2dfee" stroke="#b2dfee" cx="587" cy="-95" rx="36.977" ry="18.3848"/>
<text text-anchor="middle" x="587" y="-91.4" font-family="Consolas, monospace" font-size="14.00">CALL</text>
<text text-anchor="middle" x="587" y="-81.4" font-family="Consolas, monospace" fill="green" font-size="14.00">вызов функции</text>
</g>
<!-- node16&#45;&gt;node17 -->
<g id="edge34" class="edge"><title>node16&#45;&gt;node17</title>
<path fill="none" stroke="black" d="M587,-152.213C587,-143.654 587,-133.33 587,-123.822"/>
<polygon fill="black" stroke="black" points="590.5,-123.57 587,-113.57 583.5,-123.57 590.5,-123.57"/>
</g>
<!-- node18 -->
<g id="node36" class="node"><title>node18</title>
<ellipse fill="#b2dfee" stroke="#b2dfee" cx="537" cy="-19" rx="41.0122" ry="18.3848"/>
<text text-anchor="middle" x="537" y="-15.4" font-family="Consolas, monospace" font-size="14.00">NAME</text>
<text text-anchor="middle" x="537" y="-5.4" font-family="Consolas, monospace" fill="green" font-size="14.00">имя(функции)</text>
</g>
<!-- node17&#45;&gt;node18 -->
<g id="edge36" class="edge"><title>node17&#45;&gt;node18</title>
<path fill="none" stroke="black" d="M575.403,-77.373C569.138,-67.8494 561.277,-55.9018 554.303,-45.3004"/>
<polygon fill="black" stroke="black" points="557.127,-43.2251 548.707,-36.7946 551.279,-47.0725 557.127,-43.2251"/>
</g>
<!-- node19 -->
<g id="node38" class="node"><title>node19</title>
<ellipse fill="#b2dfee" stroke="#b2dfee" cx="637" cy="-19" rx="41.0122" ry="18.3848"/>
<text text-anchor="middle" x="637" y="-15.4" font-family="Consolas, monospace" font-size="14.00">NAME</text>
<text text-anchor="middle" x="637" y="-5.4" font-family="Consolas, monospace" fill="green" font-size="14.00">имя(параметр)</text>
</g>
<!-- node17&#45;&gt;node19 -->
<g id="edge38" class="edge"><title>node17&#45;&gt;node19</title>
<path fill="none" stroke="black" d="M598.597,-77.373C604.862,-67.8494 612.723,-55.9018 619.697,-45.3004"/>
<polygon fill="black" stroke="black" points="622.721,-47.0725 625.293,-36.7946 616.873,-43.2251 622.721,-47.0725"/>
</g>
</g>
</svg>
