<svg xmlns="http://www.w3.org/2000/svg" width="514" height="411" viewBox="0 0 514 411"><defs><style>@import url(https://fonts.googleapis.com/css?family=Open+Sans:bold,italic,bolditalic%7CPT+Mono);@font-face{font-family:&apos;PT Mono&apos;;font-weight:700;font-style:normal;src:local(&apos;PT MonoBold&apos;),url(/font/PTMonoBold.woff2) format(&apos;woff2&apos;),url(/font/PTMonoBold.woff) format(&apos;woff&apos;),url(/font/PTMonoBold.ttf) format(&apos;truetype&apos;)}</style></defs><g id="combined" fill="none" fill-rule="evenodd" stroke="none" stroke-width="1"><g id="try-catch-flow.svg"><g id="Rectangle-1-+-Корень" transform="translate(207 4)"><rect id="Rectangle-1" width="78" height="28" x="1" y="1" fill="#FBF2EC" stroke="#DBAF88" stroke-width="2" rx="14"/><text id="Begin" fill="#AF6E24" font-family="OpenSans-Regular, Open Sans" font-size="14" font-weight="normal"><tspan x="21" y="20">Begin</tspan></text></g><path id="Line" fill="#C06334" fill-rule="nonzero" d="M249 34v23.049l8 .001-9.5 19-9.5-19 8-.001V34h3z"/><path id="Line-Copy" fill="#C06334" fill-rule="nonzero" d="M399 297v23.049l8 .001-9.5 19-9.5-19 8-.001V297h3z"/><path id="Path-1218" fill="#C06334" fill-rule="nonzero" d="M158.5 131.5v3h-59v85h8l-9.5 19-9.5-19h8v-88h62z"/><path id="Path-1218-Copy" fill="#C06334" fill-rule="nonzero" d="M400.5 131.5l-.001 88h8.001l-9.5 19-9.5-19h7.999v-85H315.5v-3h85z"/><g id="Rectangle-354-+-Каково-“официальное”" fill="#FBF2EC" stroke="#DBAF88" stroke-width="2" transform="translate(154 81)"><path id="Rectangle-354" d="M93.61 1.144L185.161 52l-91.55 50.856L2.058 52 93.61 1.144z"/></g><g id="Rectangle-356-+-Отмена" transform="translate(59 177)"><path id="Rectangle-356" fill="#FFF" d="M0 2h60v20H0z"/><text id="No-Errors" fill="#AF6E24" font-family="OpenSans-Regular, Open Sans" font-size="14" font-weight="normal"><tspan x="7.5" y="15">No Errors</tspan></text></g><g id="Rectangle-356-Copy-+-“Админ”" transform="translate(303 176)"><path id="Rectangle-356-Copy" fill="#FFF" d="M65 2h60v20H65z"/><text id="An-error-occured-in" fill="#AF6E24" font-family="OpenSans-Regular, Open Sans" font-size="14" font-weight="normal"><tspan x=".652" y="15">An error occured in the code</tspan></text></g><rect id="Rectangle-1-Copy-2" width="214" height="49" x="292" y="349" fill="#FBF2EC" stroke="#DBAF88" stroke-width="2" rx="24.5"/><rect id="Rectangle-1" width="195" height="49" x="1" y="244" fill="#FBF2EC" stroke="#DBAF88" stroke-width="2" rx="24.5"/><rect id="Rectangle-1-Copy" width="216" height="49" x="290" y="244" fill="#FBF2EC" stroke="#DBAF88" stroke-width="2" rx="24.5"/><text id="Ignore-catch-block" fill="#AF6E24" font-family="OpenSans-Regular, Open Sans" font-size="14" font-weight="normal"><tspan x="39" y="272">Ignore catch block</tspan></text><text id="Ignore-the-rest-of-t" fill="#AF6E24" font-family="OpenSans-Regular, Open Sans" font-size="14" font-weight="normal"><tspan x="332" y="272">Ignore the rest of try</tspan></text><text id="Execute-catch-block" fill="#AF6E24" font-family="OpenSans-Regular, Open Sans" font-size="14" font-weight="normal"><tspan x="333" y="379">Execute catch block</tspan></text><text id="try-{-}" fill="#AF6E24" font-family="PTMono-Regular, PT Mono" font-size="14" font-weight="normal"><tspan x="218" y="117">try {</tspan>    <tspan x="218" y="157">}</tspan></text><text id="//-code..." fill="#AF6E24" font-family="PTMono-Regular, PT Mono" font-size="14" font-weight="normal"><tspan x="232" y="138">// code...</tspan></text></g></g></svg>