<svg xmlns="http://www.w3.org/2000/svg" width="512" height="246" viewBox="0 0 512 246"><defs><style>@import url(https://fonts.googleapis.com/css?family=Open+Sans:bold,italic,bolditalic%7CPT+Mono);@font-face{font-family:&apos;PT Mono&apos;;font-weight:700;font-style:normal;src:local(&apos;PT MonoBold&apos;),url(/font/PTMonoBold.woff2) format(&apos;woff2&apos;),url(/font/PTMonoBold.woff) format(&apos;woff&apos;),url(/font/PTMonoBold.ttf) format(&apos;truetype&apos;)}</style></defs><g id="promise" fill="none" fill-rule="evenodd" stroke="none" stroke-width="1"><g id="promise-resolve-reject.svg"><path id="Rectangle-1" fill="#FFF9EB" stroke="#E8C48E" stroke-width="2" d="M1 91h182v70H1z"/><text id="new-Promise(executor" fill="#707175" font-family="PTMono-Regular, PT Mono" font-size="14" font-weight="normal"><tspan x="2" y="82">new Promise(executor)</tspan></text><text id="state:-&quot;pending&quot;-res" fill="#8A704D" font-family="PTMono-Regular, PT Mono" font-size="14" font-weight="normal"><tspan x="13" y="115.432">state: &quot;pending&quot;</tspan> <tspan x="13" y="135.432">result: undefined</tspan></text><path id="Line" fill="#EE6B47" fill-rule="nonzero" d="M196.51 134.673l.908.419 103.284 47.574 2.51-5.45L313 189.433l-15.644.5 2.509-5.45-103.283-47.574-.909-.418.837-1.817z"/><path id="Line-Copy" fill="#EE6B47" fill-rule="nonzero" d="M297.38 56L313 57l-10.173 11.896-2.335-5.528-103.103 43.553-.921.39-.778-1.843.92-.39 103.104-43.552-2.334-5.527z"/><text id="resolve(value)" fill="#EE6B47" font-family="PTMono-Regular, PT Mono" font-size="14" font-weight="normal" transform="rotate(-23 244.39 72.63)"><tspan x="185.59" y="77.13">resolve(value)</tspan></text><text id="reject(error)" fill="#EE6B47" font-family="PTMono-Regular, PT Mono" font-size="14" font-weight="normal" transform="rotate(25 251.634 150.64)"><tspan x="197.034" y="155.141">reject(error)</tspan></text><path id="Rectangle-1-Copy" fill="#FFF9EB" stroke="#7ED321" stroke-width="2" d="M323 10h182v64H323z"/><text id="state:-&quot;fulfilled&quot;-r" fill="#417505" font-family="PTMono-Regular, PT Mono" font-size="14" font-weight="normal"><tspan x="338" y="34.432">state: &quot;fulfilled&quot;</tspan> <tspan x="338" y="54.432">result: value</tspan></text><path id="Rectangle-1-Copy-3" fill="#FCDFE1" stroke="#C74A6C" stroke-width="2" d="M323 177h182v64H323z"/><text id="state:-&quot;rejected&quot;-re" fill="#727155" font-family="PTMono-Regular, PT Mono" font-size="14" font-weight="normal"><tspan x="338" y="201.432">state: &quot;rejected&quot;</tspan> <tspan x="338" y="221.432">result: error</tspan></text></g></g></svg>