<svg width="434" height="296" viewBox="0 0 434 296" xmlns="http://www.w3.org/2000/svg"><title>coords</title><desc>Created with Sketch.</desc><g fill="none" fill-rule="evenodd"><g><g fill="#8A704D"><path d="M388.77 283H56.23c-3.99 0-7.23-2.88-7.23-6.4V33.4c0-3.52 3.24-6.4 7.23-6.4h332.54c3.977 0 7.23 2.88 7.23 6.4v243.2c0 3.52-3.253 6.4-7.23 6.4zM63.46 270.2h318.084V39.8H63.458v230.4zM381.542 91H63.458c-3.99 0-7.23-2.88-7.23-6.4 0-3.52 3.24-6.4 7.23-6.4h318.084c3.976 0 7.23 2.88 7.23 6.4 0 3.52-3.254 6.4-7.23 6.4zM92.375 59c0 3.536-3.235 6.4-7.23 6.4-3.993 0-7.228-2.864-7.228-6.4 0-3.536 3.235-6.4 7.23-6.4 3.993 0 7.228 2.864 7.228 6.4zM121.292 59c0 3.536-3.235 6.4-7.23 6.4-3.994 0-7.23-2.864-7.23-6.4 0-3.536 3.236-6.4 7.23-6.4 3.995 0 7.23 2.864 7.23 6.4zM150.208 59c0 3.536-3.235 6.4-7.23 6.4-3.993 0-7.228-2.864-7.228-6.4 0-3.536 3.235-6.4 7.23-6.4 3.993 0 7.228 2.864 7.228 6.4z"/></g><path d="M185.277 94.473l-7.375 12.748c-.283.49-.418 1.127-.407 1.764.01.635.167 1.27.466 1.748.602.96 1.547.943 2.113-.036l5.324-9.202.5 29.354v.017l.365 21.498-5.633-9.016c-.6-.96-1.546-.943-2.113.036-.566.98-.54 2.552.06 3.51l9.34 14.948 1.452-2.506 7.374-12.748c.283-.49.42-1.127.408-1.763-.01-.636-.168-1.27-.468-1.75-.6-.958-1.545-.942-2.112.037l-5.323 9.203-.5-29.355v-.016l-.366-21.5 5.632 9.017c.6.958 1.546.942 2.112-.037.567-.98.54-2.552-.06-3.51l-9.34-14.948-1.45 2.508" fill="#EE6B47"/><path d="M206.3 95.436l-7.293 17.66c-.28.68-.41 1.56-.395 2.446.015.882.176 1.764.478 2.43.607 1.338 1.552 1.322 2.112-.035l5.263-12.747.694 40.78v.022l.508 29.866-5.694-12.56c-.606-1.338-1.55-1.322-2.112.035-.56 1.358-.522 3.54.083 4.878l9.44 20.825 1.435-3.474 7.292-17.658c.28-.68.412-1.562.397-2.447-.016-.882-.178-1.764-.48-2.43-.607-1.338-1.552-1.322-2.113.035l-5.262 12.747-.694-40.78v-.022l-.508-29.866 5.693 12.56c.607 1.337 1.552 1.32 2.112-.035.56-1.36.523-3.542-.083-4.878l-9.44-20.825-1.435 3.474" fill="#EE6B47"/><path d="M68.403 190.825l22.28 7.97c.857.307 1.98.472 3.11.49 1.128.02 2.26-.107 3.125-.383 1.732-.555 1.748-1.5.036-2.112l-16.083-5.753 52.13.886h.028l38.178.65-16.27 5.202c-1.73.554-1.747 1.5-.036 2.112 1.715.612 4.505.66 6.236.106l26.97-8.627-4.382-1.57-22.28-7.97c-.856-.306-1.98-.472-3.11-.49-1.127-.02-2.26.107-3.125.384-1.732.554-1.748 1.5-.037 2.112l16.083 5.753-52.127-.886c-.01-.002-.02 0-.03 0l-38.178-.65 16.27-5.203c1.73-.555 1.747-1.5.035-2.112-1.714-.612-4.504-.66-6.235-.106l-26.97 8.626 4.38 1.57" fill="#EE6B47"/><path d="M71.136 212.888l36.2 8.207c1.392.315 3.213.492 5.046.523 1.828.03 3.664-.083 5.062-.35 2.8-.537 2.816-1.482.035-2.113l-26.132-5.924 84.508 1.438h.048l61.892 1.052-26.318 5.032c-2.8.537-2.816 1.482-.035 2.112 2.785.63 7.308.708 10.108.172l43.63-8.344-7.12-1.615-36.2-8.208c-1.393-.316-3.214-.494-5.047-.525-1.828-.03-3.664.085-5.062.352-2.8.537-2.815 1.482-.035 2.112l26.132 5.923-84.508-1.437h-.05l-61.89-1.052 26.317-5.032c2.8-.536 2.816-1.48.035-2.112-2.785-.63-7.308-.707-10.108-.172l-43.63 8.344 7.122 1.616" fill="#EE6B47"/><path stroke="#BCA68E" stroke-width="2" d="M187 161.957h75V191h-75z"/><text font-family="Open Sans" font-size="14" font-weight="526" fill="#8A704D"><tspan x="205.052" y="181.544">&lt;DIV&gt;</tspan></text><text font-family="Consolas" font-size="14" font-weight="bold" fill="#8A704D"><tspan x="155" y="128">top</tspan></text><text font-family="Consolas" font-size="14" font-weight="bold" fill="#8A704D"><tspan x="221" y="128">bottom</tspan></text><text font-family="Consolas" font-size="14" font-weight="bold" fill="#8A704D"><tspan x="109" y="178">left</tspan></text><text font-family="Consolas" font-size="14" font-weight="bold" fill="#8A704D"><tspan x="145" y="232">right</tspan></text></g></g></svg>