<?xml version="1.0" encoding="UTF-8" standalone="no"?>
<svg width="370px" height="280px" viewBox="0 0 370 280" version="1.1" xmlns="http://www.w3.org/2000/svg" xmlns:xlink="http://www.w3.org/1999/xlink" xmlns:sketch="http://www.bohemiancoding.com/sketch/ns">
    <!-- Generator: bin/sketchtool 1.3 (252) - http://www.bohemiancoding.com/sketch -->
    <title>coords.svg</title>
    <desc>Created with bin/sketchtool.</desc>
    <defs></defs>
    <g id="combined" stroke="none" stroke-width="1" fill="none" fill-rule="evenodd" sketch:type="MSPage">
        <g id="coords.svg" sketch:type="MSArtboardGroup">
            <g id="noun_69008_cc" sketch:type="MSLayerGroup" transform="translate(13.000000, 11.000000)" fill="#E8C48E">
                <path d="M339.770833,256 L7.22916667,256 C3.23866667,256 0,253.12 0,249.6 L0,6.4 C0,2.88 3.23866667,0 7.22916667,0 L339.770833,0 C343.746875,0 347,2.88 347,6.4 L347,249.6 C347,253.12 343.746875,256 339.770833,256 L339.770833,256 Z M14.4583333,243.2 L332.541667,243.2 L332.541667,12.8 L14.4583333,12.8 L14.4583333,243.2 L14.4583333,243.2 Z" id="Shape" sketch:type="MSShapeGroup"></path>
                <path d="M332.541667,64 L14.4583333,64 C10.4678333,64 7.22916667,61.12 7.22916667,57.6 C7.22916667,54.08 10.4678333,51.2 14.4583333,51.2 L332.541667,51.2 C336.517708,51.2 339.770833,54.08 339.770833,57.6 C339.770833,61.12 336.517708,64 332.541667,64 L332.541667,64 Z" id="Shape" sketch:type="MSShapeGroup"></path>
                <path d="M43.375,32 C43.375,35.536 40.1399479,38.4 36.1458333,38.4 C32.1517188,38.4 28.9166667,35.536 28.9166667,32 C28.9166667,28.464 32.1517188,25.6 36.1458333,25.6 C40.1399479,25.6 43.375,28.464 43.375,32 L43.375,32 Z" id="Shape" sketch:type="MSShapeGroup"></path>
                <path d="M72.2916667,32 C72.2916667,35.536 69.0566146,38.4 65.0625,38.4 C61.0683854,38.4 57.8333333,35.536 57.8333333,32 C57.8333333,28.464 61.0683854,25.6 65.0625,25.6 C69.0566146,25.6 72.2916667,28.464 72.2916667,32 L72.2916667,32 Z" id="Shape" sketch:type="MSShapeGroup"></path>
                <path d="M101.208333,32 C101.208333,35.536 97.9732812,38.4 93.9791667,38.4 C89.9850521,38.4 86.75,35.536 86.75,32 C86.75,28.464 89.9850521,25.6 93.9791667,25.6 C97.9732812,25.6 101.208333,28.464 101.208333,32 L101.208333,32 Z" id="Shape" sketch:type="MSShapeGroup"></path>
            </g>
            <path d="M183.778498,109.408418 L171.15957,101.818418 C170.674099,101.527418 170.040659,101.381418 169.403893,101.381418 C168.76879,101.381418 168.132025,101.527418 167.648216,101.818418 C166.678936,102.402418 166.678936,103.347418 167.648216,103.930418 L176.757453,109.408418 L147.403067,109.408418 C147.398079,109.408418 147.393092,109.409418 147.386441,109.409418 L125.887712,109.409418 L134.996949,103.931418 C135.966229,103.347418 135.966229,102.402418 134.996949,101.819418 C134.026006,101.236418 132.454875,101.236418 131.485595,101.819418 L116.384446,110.902418 L118.866667,112.396418 L131.485595,119.986418 C131.971066,120.277418 132.604506,120.424418 133.241272,120.424418 C133.876375,120.424418 134.51314,120.277418 134.996949,119.986418 C135.966229,119.402418 135.966229,118.457418 134.996949,117.874418 L125.887712,112.396418 L155.242098,112.396418 C155.247086,112.396418 155.252073,112.395418 155.258724,112.395418 L176.757453,112.395418 L167.648216,117.873418 C166.678936,118.457418 166.678936,119.402418 167.648216,119.985418 C168.619159,120.568418 170.19029,120.568418 171.15957,119.985418 L186.260719,110.902418 L183.778498,109.408418" id="Fill-25" fill="#EE6B47" sketch:type="MSShapeGroup" transform="translate(151.322583, 110.902918) rotate(-91.000000) translate(-151.322583, -110.902918) "></path>
            <path d="M217.647832,123.004454 L200.11755,115.414454 C199.443131,115.123454 198.563153,114.977454 197.678555,114.977454 C196.796267,114.977454 195.911669,115.123454 195.239559,115.414454 C193.89303,115.998454 193.89303,116.943454 195.239559,117.526454 L207.894159,123.004454 L167.114891,123.004454 C167.107962,123.004454 167.101033,123.005454 167.091794,123.005454 L137.225646,123.005454 L149.880245,117.527454 C151.226774,116.943454 151.226774,115.998454 149.880245,115.415454 C148.531407,114.832454 146.348783,114.832454 145.002254,115.415454 L124.023658,124.498454 L127.471973,125.992454 L145.002254,133.582454 C145.676673,133.873454 146.556652,134.020454 147.44125,134.020454 C148.323538,134.020454 149.208136,133.873454 149.880245,133.582454 C151.226774,132.998454 151.226774,132.053454 149.880245,131.470454 L137.225646,125.992454 L178.004914,125.992454 C178.011843,125.992454 178.018772,125.991454 178.02801,125.991454 L207.894159,125.991454 L195.239559,131.469454 C193.89303,132.053454 193.89303,132.998454 195.239559,133.581454 C196.588398,134.164454 198.771022,134.164454 200.11755,133.581454 L221.096146,124.498454 L217.647832,123.004454" id="Fill-27" fill="#EE6B47" sketch:type="MSShapeGroup" transform="translate(172.559902, 124.498954) rotate(-91.000000) translate(-172.559902, -124.498954) "></path>
            <path d="M147.699419,172.81504 L125.29081,165.22504 C124.428713,164.93404 123.303854,164.78804 122.173091,164.78804 C121.045279,164.78804 119.914515,164.93404 119.055371,165.22504 C117.33413,165.80904 117.33413,166.75404 119.055371,167.33704 L135.231494,172.81504 L83.1041674,172.81504 C83.0953102,172.81504 83.0864531,172.81604 83.0746435,172.81604 L44.8973409,172.81604 L61.0734635,167.33804 C62.7947045,166.75404 62.7947045,165.80904 61.0734635,165.22604 C59.3492701,164.64304 56.5592654,164.64304 54.8380244,165.22604 L28.0215029,174.30904 L32.4294151,175.80304 L54.8380244,183.39304 C55.7001211,183.68404 56.8249801,183.83104 57.9557439,183.83104 C59.0835554,183.83104 60.2143192,183.68404 61.0734635,183.39304 C62.7947045,182.80904 62.7947045,181.86404 61.0734635,181.28104 L44.8973409,175.80304 L97.0246671,175.80304 C97.0335242,175.80304 97.0423814,175.80204 97.0541909,175.80204 L135.231494,175.80204 L119.055371,181.28004 C117.33413,181.86404 117.33413,182.80904 119.055371,183.39204 C120.779564,183.97504 123.569569,183.97504 125.29081,183.39204 L152.107332,174.30904 L147.699419,172.81504" id="Fill-26" fill="#EE6B47" sketch:type="MSShapeGroup" transform="translate(90.064417, 174.309540) rotate(-179.000000) translate(-90.064417, -174.309540) "></path>
            <path d="M222.034748,195.487649 L185.706421,187.897649 C184.308809,187.606649 182.485213,187.460649 180.652045,187.460649 C178.823663,187.460649 176.990494,187.606649 175.597669,187.897649 C172.807232,188.481649 172.807232,189.426649 175.597669,190.009649 L201.822031,195.487649 L117.314396,195.487649 C117.300037,195.487649 117.285678,195.488649 117.266532,195.488649 L55.3743578,195.488649 L81.5987197,190.010649 C84.3891564,189.426649 84.3891564,188.481649 81.5987197,187.898649 C78.8034966,187.315649 74.2804044,187.315649 71.4899677,187.898649 L28.0156331,196.981649 L35.1616401,198.475649 L71.4899677,206.065649 C72.8875792,206.356649 74.7111751,206.503649 76.5443437,206.503649 C78.3727259,206.503649 80.2058945,206.356649 81.5987197,206.065649 C84.3891564,205.481649 84.3891564,204.536649 81.5987197,203.953649 L55.3743578,198.475649 L139.881993,198.475649 C139.896352,198.475649 139.910711,198.474649 139.929856,198.474649 L201.822031,198.474649 L175.597669,203.952649 C172.807232,204.536649 172.807232,205.481649 175.597669,206.064649 C178.392892,206.647649 182.915984,206.647649 185.706421,206.064649 L229.180755,196.981649 L222.034748,195.487649" id="Fill-28" fill="#EE6B47" sketch:type="MSShapeGroup" transform="translate(128.598194, 196.982149) rotate(-179.000000) translate(-128.598194, -196.982149) "></path>
            <rect id="Rectangle-6" stroke="#E8C48E" stroke-width="2" sketch:type="MSShapeGroup" x="151" y="145.957" width="75" height="29.043"></rect>
            <text id="&lt;DIV&gt;" sketch:type="MSTextLayer" font-family="Open Sans" font-size="14" font-weight="526" sketch:alignment="middle" fill="#8A704D">
                <tspan x="169.051859" y="165.543917">&lt;DIV&gt;</tspan>
            </text>
            <text id="top" sketch:type="MSTextLayer" font-family="Consolas" font-size="14" font-weight="bold" fill="#8A704D">
                <tspan x="119" y="112">top</tspan>
            </text>
            <text id="bottom" sketch:type="MSTextLayer" font-family="Consolas" font-size="14" font-weight="bold" fill="#8A704D">
                <tspan x="185" y="112">bottom</tspan>
            </text>
            <text id="left" sketch:type="MSTextLayer" font-family="Consolas" font-size="14" font-weight="bold" fill="#8A704D">
                <tspan x="73" y="162">left</tspan>
            </text>
            <text id="right" sketch:type="MSTextLayer" font-family="Consolas" font-size="14" font-weight="bold" fill="#8A704D">
                <tspan x="109" y="216">right</tspan>
            </text>
        </g>
    </g>
</svg>