<?xml version="1.0" encoding="UTF-8" standalone="no"?>
<svg width="370px" height="280px" viewBox="0 0 370 280" version="1.1" xmlns="http://www.w3.org/2000/svg" xmlns:xlink="http://www.w3.org/1999/xlink" xmlns:sketch="http://www.bohemiancoding.com/sketch/ns">
    <!-- Generator: bin/sketchtool 1.3 (252) - http://www.bohemiancoding.com/sketch -->
    <title>coords.svg</title>
    <desc>Created with bin/sketchtool.</desc>
    <defs></defs>
    <g id="combined" stroke="none" stroke-width="1" fill="none" fill-rule="evenodd" sketch:type="MSPage">
        <g id="coords.svg" sketch:type="MSArtboardGroup">
            <g id="noun_69008_cc" sketch:type="MSLayerGroup" transform="translate(13.000000, 11.000000)" fill="#E8C48E">
                <path d="M339.770833,256 L7.22916667,256 C3.23866667,256 0,253.12 0,249.6 L0,6.4 C0,2.88 3.23866667,0 7.22916667,0 L339.770833,0 C343.746875,0 347,2.88 347,6.4 L347,249.6 C347,253.12 343.746875,256 339.770833,256 L339.770833,256 Z M14.4583333,243.2 L332.541667,243.2 L332.541667,12.8 L14.4583333,12.8 L14.4583333,243.2 L14.4583333,243.2 Z" id="Shape" sketch:type="MSShapeGroup"></path>
                <path d="M332.541667,64 L14.4583333,64 C10.4678333,64 7.22916667,61.12 7.22916667,57.6 C7.22916667,54.08 10.4678333,51.2 14.4583333,51.2 L332.541667,51.2 C336.517708,51.2 339.770833,54.08 339.770833,57.6 C339.770833,61.12 336.517708,64 332.541667,64 L332.541667,64 Z" id="Shape" sketch:type="MSShapeGroup"></path>
                <path d="M43.375,32 C43.375,35.536 40.1399479,38.4 36.1458333,38.4 C32.1517188,38.4 28.9166667,35.536 28.9166667,32 C28.9166667,28.464 32.1517188,25.6 36.1458333,25.6 C40.1399479,25.6 43.375,28.464 43.375,32 L43.375,32 Z" id="Shape" sketch:type="MSShapeGroup"></path>
                <path d="M72.2916667,32 C72.2916667,35.536 69.0566146,38.4 65.0625,38.4 C61.0683854,38.4 57.8333333,35.536 57.8333333,32 C57.8333333,28.464 61.0683854,25.6 65.0625,25.6 C69.0566146,25.6 72.2916667,28.464 72.2916667,32 L72.2916667,32 Z" id="Shape" sketch:type="MSShapeGroup"></path>
                <path d="M101.208333,32 C101.208333,35.536 97.9732812,38.4 93.9791667,38.4 C89.9850521,38.4 86.75,35.536 86.75,32 C86.75,28.464 89.9850521,25.6 93.9791667,25.6 C97.9732812,25.6 101.208333,28.464 101.208333,32 L101.208333,32 Z" id="Shape" sketch:type="MSShapeGroup"></path>
            </g>
            <rect id="Rectangle-6" stroke="#707175" stroke-width="2" fill="#EBEBEB" sketch:type="MSShapeGroup" x="151" y="145.957" width="75" height="29.043"></rect>
            <text id="&lt;DIV&gt;" sketch:type="MSTextLayer" font-family="Open Sans" font-size="14" font-weight="526" sketch:alignment="middle" fill="#8A704D">
                <tspan x="169.051859" y="165.543917">&lt;DIV&gt;</tspan>
            </text>
            <text id="top" sketch:type="MSTextLayer" font-family="Consolas" font-size="14" font-weight="bold" fill="#8A704D">
                <tspan x="216" y="115">top</tspan>
            </text>
            <text id="bottom" sketch:type="MSTextLayer" font-family="Consolas" font-size="14" font-weight="bold" fill="#8A704D">
                <tspan x="283" y="129">bottom</tspan>
            </text>
            <path d="M226,174 L286,174" id="Line-28" stroke="#EE6B47" stroke-width="2" stroke-linecap="square" stroke-dasharray="3,6" sketch:type="MSShapeGroup"></path>
            <path d="M225,174 L225,234" id="Line-30" stroke="#EE6B47" stroke-width="2" stroke-linecap="square" stroke-dasharray="3,6" sketch:type="MSShapeGroup"></path>
            <path d="M226,147 L256,147" id="Line-29" stroke="#EE6B47" stroke-width="2" stroke-linecap="square" stroke-dasharray="3,6" sketch:type="MSShapeGroup"></path>
            <path d="M152,204 L152,174" id="Line-31" stroke="#EE6B47" stroke-width="2" stroke-linecap="square" stroke-dasharray="3,6" sketch:type="MSShapeGroup"></path>
            <text id="left" sketch:type="MSTextLayer" font-family="Consolas" font-size="14" font-weight="bold" fill="#8A704D">
                <tspan x="78" y="180">left</tspan>
            </text>
            <text id="right" sketch:type="MSTextLayer" font-family="Consolas" font-size="14" font-weight="bold" fill="#8A704D">
                <tspan x="106" y="217">right</tspan>
            </text>
            <path d="M246.5,145 L246.5,78.5" id="Line" stroke="#EE6B47" stroke-width="3" stroke-linecap="square" fill="#EE6B47" sketch:type="MSShapeGroup"></path>
            <path id="Line-decoration-1" d="M246.5,79 C245.45,82.78 244.55,86.02 243.5,89.8 C245.6,89.8 247.4,89.8 249.5,89.8 C248.45,86.02 247.55,82.78 246.5,79 C246.5,79 246.5,79 246.5,79 Z" stroke="#EE6B47" stroke-width="3" stroke-linecap="square" fill="#EE6B47"></path>
            <path id="Line-decoration-2" d="M246.5,144.2 C245.45,140.42 244.55,137.18 243.5,133.4 C245.6,133.4 247.4,133.4 249.5,133.4 C248.45,137.18 247.55,140.42 246.5,144.2 C246.5,144.2 246.5,144.2 246.5,144.2 Z" stroke="#EE6B47" stroke-width="3" stroke-linecap="square" fill="#EE6B47"></path>
            <path d="M275.5,170.012291 L275.5,78.5" id="Line" stroke="#EE6B47" stroke-width="3" stroke-linecap="square" fill="#EE6B47" sketch:type="MSShapeGroup"></path>
            <path id="Line-decoration-1" d="M275.5,79.012291 C274.45,82.792291 273.55,86.032291 272.5,89.812291 C274.6,89.812291 276.4,89.812291 278.5,89.812291 C277.45,86.032291 276.55,82.792291 275.5,79.012291 C275.5,79.012291 275.5,79.012291 275.5,79.012291 Z" stroke="#EE6B47" stroke-width="3" stroke-linecap="square" fill="#EE6B47"></path>
            <path id="Line-decoration-2" d="M275.5,169.212291 C274.45,165.432291 273.55,162.192291 272.5,158.412291 C274.6,158.412291 276.4,158.412291 278.5,158.412291 C277.45,162.192291 276.55,165.432291 275.5,169.212291 C275.5,169.212291 275.5,169.212291 275.5,169.212291 Z" stroke="#EE6B47" stroke-width="3" stroke-linecap="square" fill="#EE6B47"></path>
            <path d="M222.012291,224.5 L29.5022964,224.5" id="Line-2" stroke="#EE6B47" stroke-width="3" stroke-linecap="square" fill="#EE6B47" sketch:type="MSShapeGroup"></path>
            <path id="Line-2-decoration-1" d="M30.012291,224.5 C33.792291,225.55 37.032291,226.45 40.812291,227.5 C40.812291,225.4 40.812291,223.6 40.812291,221.5 C37.032291,222.55 33.792291,223.45 30.012291,224.5 C30.012291,224.5 30.012291,224.5 30.012291,224.5 Z" stroke="#EE6B47" stroke-width="3" stroke-linecap="square" fill="#EE6B47"></path>
            <path id="Line-2-decoration-2" d="M221.212291,224.5 C217.432291,225.55 214.192291,226.45 210.412291,227.5 C210.412291,225.4 210.412291,223.6 210.412291,221.5 C214.192291,222.55 217.432291,223.45 221.212291,224.5 C221.212291,224.5 221.212291,224.5 221.212291,224.5 Z" stroke="#EE6B47" stroke-width="3" stroke-linecap="square" fill="#EE6B47"></path>
            <path d="M149.012291,188.5 L29.5022888,188.5" id="Line-3" stroke="#EE6B47" stroke-width="3" stroke-linecap="square" fill="#EE6B47" sketch:type="MSShapeGroup"></path>
            <path id="Line-3-decoration-1" d="M30.012291,188.5 C33.792291,189.55 37.032291,190.45 40.812291,191.5 C40.812291,189.4 40.812291,187.6 40.812291,185.5 C37.032291,186.55 33.792291,187.45 30.012291,188.5 C30.012291,188.5 30.012291,188.5 30.012291,188.5 Z" stroke="#EE6B47" stroke-width="3" stroke-linecap="square" fill="#EE6B47"></path>
            <path id="Line-3-decoration-2" d="M148.212291,188.5 C144.432291,189.55 141.192291,190.45 137.412291,191.5 C137.412291,189.4 137.412291,187.6 137.412291,185.5 C141.192291,186.55 144.432291,187.45 148.212291,188.5 C148.212291,188.5 148.212291,188.5 148.212291,188.5 Z" stroke="#EE6B47" stroke-width="3" stroke-linecap="square" fill="#EE6B47"></path>
        </g>
    </g>
</svg>