<?xml version="1.0" encoding="UTF-8" standalone="no"?>
<svg width="434px" height="296px" viewBox="0 0 434 296" version="1.1" xmlns="http://www.w3.org/2000/svg" xmlns:xlink="http://www.w3.org/1999/xlink" xmlns:sketch="http://www.bohemiancoding.com/sketch/ns">
    <!-- Generator: Sketch 3.2.2 (9983) - http://www.bohemiancoding.com/sketch -->
    <title>coords</title>
    <desc>Created with Sketch.</desc>
    <defs></defs>
    <g id="combined" stroke="none" stroke-width="1" fill="none" fill-rule="evenodd" sketch:type="MSPage">
        <g id="coords" sketch:type="MSArtboardGroup">
            <g id="noun_69008_cc" sketch:type="MSLayerGroup" transform="translate(49.000000, 27.000000)" fill="#8A704D">
                <path d="M339.770833,256 L7.22916667,256 C3.23866667,256 0,253.12 0,249.6 L0,6.4 C0,2.88 3.23866667,0 7.22916667,0 L339.770833,0 C343.746875,0 347,2.88 347,6.4 L347,249.6 C347,253.12 343.746875,256 339.770833,256 L339.770833,256 Z M14.4583333,243.2 L332.541667,243.2 L332.541667,12.8 L14.4583333,12.8 L14.4583333,243.2 L14.4583333,243.2 Z" id="Shape" sketch:type="MSShapeGroup"></path>
                <path d="M332.541667,64 L14.4583333,64 C10.4678333,64 7.22916667,61.12 7.22916667,57.6 C7.22916667,54.08 10.4678333,51.2 14.4583333,51.2 L332.541667,51.2 C336.517708,51.2 339.770833,54.08 339.770833,57.6 C339.770833,61.12 336.517708,64 332.541667,64 L332.541667,64 Z" id="Shape" sketch:type="MSShapeGroup"></path>
                <path d="M43.375,32 C43.375,35.536 40.1399479,38.4 36.1458333,38.4 C32.1517188,38.4 28.9166667,35.536 28.9166667,32 C28.9166667,28.464 32.1517188,25.6 36.1458333,25.6 C40.1399479,25.6 43.375,28.464 43.375,32 L43.375,32 Z" id="Shape" sketch:type="MSShapeGroup"></path>
                <path d="M72.2916667,32 C72.2916667,35.536 69.0566146,38.4 65.0625,38.4 C61.0683854,38.4 57.8333333,35.536 57.8333333,32 C57.8333333,28.464 61.0683854,25.6 65.0625,25.6 C69.0566146,25.6 72.2916667,28.464 72.2916667,32 L72.2916667,32 Z" id="Shape" sketch:type="MSShapeGroup"></path>
                <path d="M101.208333,32 C101.208333,35.536 97.9732812,38.4 93.9791667,38.4 C89.9850521,38.4 86.75,35.536 86.75,32 C86.75,28.464 89.9850521,25.6 93.9791667,25.6 C97.9732812,25.6 101.208333,28.464 101.208333,32 L101.208333,32 Z" id="Shape" sketch:type="MSShapeGroup"></path>
            </g>
            <path d="M219.778498,125.408418 L207.15957,117.818418 C206.674099,117.527418 206.040659,117.381418 205.403893,117.381418 C204.76879,117.381418 204.132025,117.527418 203.648216,117.818418 C202.678936,118.402418 202.678936,119.347418 203.648216,119.930418 L212.757453,125.408418 L183.403067,125.408418 C183.398079,125.408418 183.393092,125.409418 183.386441,125.409418 L161.887712,125.409418 L170.996949,119.931418 C171.966229,119.347418 171.966229,118.402418 170.996949,117.819418 C170.026006,117.236418 168.454875,117.236418 167.485595,117.819418 L152.384446,126.902418 L154.866667,128.396418 L167.485595,135.986418 C167.971066,136.277418 168.604506,136.424418 169.241272,136.424418 C169.876375,136.424418 170.51314,136.277418 170.996949,135.986418 C171.966229,135.402418 171.966229,134.457418 170.996949,133.874418 L161.887712,128.396418 L191.242098,128.396418 C191.247086,128.396418 191.252073,128.395418 191.258724,128.395418 L212.757453,128.395418 L203.648216,133.873418 C202.678936,134.457418 202.678936,135.402418 203.648216,135.985418 C204.619159,136.568418 206.19029,136.568418 207.15957,135.985418 L222.260719,126.902418 L219.778498,125.408418" id="Fill-25" fill="#EE6B47" sketch:type="MSShapeGroup" transform="translate(187.322583, 126.902918) rotate(-91.000000) translate(-187.322583, -126.902918) "></path>
            <path d="M253.647832,139.004454 L236.11755,131.414454 C235.443131,131.123454 234.563153,130.977454 233.678555,130.977454 C232.796267,130.977454 231.911669,131.123454 231.239559,131.414454 C229.89303,131.998454 229.89303,132.943454 231.239559,133.526454 L243.894159,139.004454 L203.114891,139.004454 C203.107962,139.004454 203.101033,139.005454 203.091794,139.005454 L173.225646,139.005454 L185.880245,133.527454 C187.226774,132.943454 187.226774,131.998454 185.880245,131.415454 C184.531407,130.832454 182.348783,130.832454 181.002254,131.415454 L160.023658,140.498454 L163.471973,141.992454 L181.002254,149.582454 C181.676673,149.873454 182.556652,150.020454 183.44125,150.020454 C184.323538,150.020454 185.208136,149.873454 185.880245,149.582454 C187.226774,148.998454 187.226774,148.053454 185.880245,147.470454 L173.225646,141.992454 L214.004914,141.992454 C214.011843,141.992454 214.018772,141.991454 214.02801,141.991454 L243.894159,141.991454 L231.239559,147.469454 C229.89303,148.053454 229.89303,148.998454 231.239559,149.581454 C232.588398,150.164454 234.771022,150.164454 236.11755,149.581454 L257.096146,140.498454 L253.647832,139.004454" id="Fill-27" fill="#EE6B47" sketch:type="MSShapeGroup" transform="translate(208.559902, 140.498954) rotate(-91.000000) translate(-208.559902, -140.498954) "></path>
            <path d="M183.699419,188.81504 L161.29081,181.22504 C160.428713,180.93404 159.303854,180.78804 158.173091,180.78804 C157.045279,180.78804 155.914515,180.93404 155.055371,181.22504 C153.33413,181.80904 153.33413,182.75404 155.055371,183.33704 L171.231494,188.81504 L119.104167,188.81504 C119.09531,188.81504 119.086453,188.81604 119.074644,188.81604 L80.8973409,188.81604 L97.0734635,183.33804 C98.7947045,182.75404 98.7947045,181.80904 97.0734635,181.22604 C95.3492701,180.64304 92.5592654,180.64304 90.8380244,181.22604 L64.0215029,190.30904 L68.4294151,191.80304 L90.8380244,199.39304 C91.7001211,199.68404 92.8249801,199.83104 93.9557439,199.83104 C95.0835554,199.83104 96.2143192,199.68404 97.0734635,199.39304 C98.7947045,198.80904 98.7947045,197.86404 97.0734635,197.28104 L80.8973409,191.80304 L133.024667,191.80304 C133.033524,191.80304 133.042381,191.80204 133.054191,191.80204 L171.231494,191.80204 L155.055371,197.28004 C153.33413,197.86404 153.33413,198.80904 155.055371,199.39204 C156.779564,199.97504 159.569569,199.97504 161.29081,199.39204 L188.107332,190.30904 L183.699419,188.81504" id="Fill-26" fill="#EE6B47" sketch:type="MSShapeGroup" transform="translate(126.064417, 190.309540) rotate(-179.000000) translate(-126.064417, -190.309540) "></path>
            <path d="M258.034748,211.487649 L221.706421,203.897649 C220.308809,203.606649 218.485213,203.460649 216.652045,203.460649 C214.823663,203.460649 212.990494,203.606649 211.597669,203.897649 C208.807232,204.481649 208.807232,205.426649 211.597669,206.009649 L237.822031,211.487649 L153.314396,211.487649 C153.300037,211.487649 153.285678,211.488649 153.266532,211.488649 L91.3743578,211.488649 L117.59872,206.010649 C120.389156,205.426649 120.389156,204.481649 117.59872,203.898649 C114.803497,203.315649 110.280404,203.315649 107.489968,203.898649 L64.0156331,212.981649 L71.1616401,214.475649 L107.489968,222.065649 C108.887579,222.356649 110.711175,222.503649 112.544344,222.503649 C114.372726,222.503649 116.205894,222.356649 117.59872,222.065649 C120.389156,221.481649 120.389156,220.536649 117.59872,219.953649 L91.3743578,214.475649 L175.881993,214.475649 C175.896352,214.475649 175.910711,214.474649 175.929856,214.474649 L237.822031,214.474649 L211.597669,219.952649 C208.807232,220.536649 208.807232,221.481649 211.597669,222.064649 C214.392892,222.647649 218.915984,222.647649 221.706421,222.064649 L265.180755,212.981649 L258.034748,211.487649" id="Fill-28" fill="#EE6B47" sketch:type="MSShapeGroup" transform="translate(164.598194, 212.982149) rotate(-179.000000) translate(-164.598194, -212.982149) "></path>
            <rect id="Rectangle-6" stroke="#BCA68E" stroke-width="2" sketch:type="MSShapeGroup" x="187" y="161.957" width="75" height="29.043"></rect>
            <text id="&lt;DIV&gt;" sketch:type="MSTextLayer" font-family="Open Sans" font-size="14" font-weight="526" sketch:alignment="middle" fill="#8A704D">
                <tspan x="205.051859" y="181.543917">&lt;DIV&gt;</tspan>
            </text>
            <text id="top" sketch:type="MSTextLayer" font-family="Consolas" font-size="14" font-weight="bold" fill="#8A704D">
                <tspan x="155" y="128">top</tspan>
            </text>
            <text id="bottom" sketch:type="MSTextLayer" font-family="Consolas" font-size="14" font-weight="bold" fill="#8A704D">
                <tspan x="221" y="128">bottom</tspan>
            </text>
            <text id="left" sketch:type="MSTextLayer" font-family="Consolas" font-size="14" font-weight="bold" fill="#8A704D">
                <tspan x="109" y="178">left</tspan>
            </text>
            <text id="right" sketch:type="MSTextLayer" font-family="Consolas" font-size="14" font-weight="bold" fill="#8A704D">
                <tspan x="145" y="232">right</tspan>
            </text>
        </g>
    </g>
</svg>