<?xml version="1.0" encoding="UTF-8" standalone="no"?>
<svg width="370px" height="280px" viewBox="0 0 370 280" version="1.1" xmlns="http://www.w3.org/2000/svg" xmlns:xlink="http://www.w3.org/1999/xlink" xmlns:sketch="http://www.bohemiancoding.com/sketch/ns">
    <!-- Generator: bin/sketchtool 1.3 (252) - http://www.bohemiancoding.com/sketch -->
    <title>coords.svg</title>
    <desc>Created with bin/sketchtool.</desc>
    <defs></defs>
    <g id="combined" stroke="none" stroke-width="1" fill="none" fill-rule="evenodd" sketch:type="MSPage">
        <g id="coords.svg" sketch:type="MSArtboardGroup">
            <g id="noun_69008_cc" sketch:type="MSLayerGroup" transform="translate(13.000000, 11.000000)" fill="#E8C48E">
                <path d="M339.770833,256 L7.22916667,256 C3.23866667,256 0,253.12 0,249.6 L0,6.4 C0,2.88 3.23866667,0 7.22916667,0 L339.770833,0 C343.746875,0 347,2.88 347,6.4 L347,249.6 C347,253.12 343.746875,256 339.770833,256 L339.770833,256 Z M14.4583333,243.2 L332.541667,243.2 L332.541667,12.8 L14.4583333,12.8 L14.4583333,243.2 L14.4583333,243.2 Z" id="Shape" sketch:type="MSShapeGroup"></path>
                <path d="M332.541667,64 L14.4583333,64 C10.4678333,64 7.22916667,61.12 7.22916667,57.6 C7.22916667,54.08 10.4678333,51.2 14.4583333,51.2 L332.541667,51.2 C336.517708,51.2 339.770833,54.08 339.770833,57.6 C339.770833,61.12 336.517708,64 332.541667,64 L332.541667,64 Z" id="Shape" sketch:type="MSShapeGroup"></path>
                <path d="M43.375,32 C43.375,35.536 40.1399479,38.4 36.1458333,38.4 C32.1517188,38.4 28.9166667,35.536 28.9166667,32 C28.9166667,28.464 32.1517188,25.6 36.1458333,25.6 C40.1399479,25.6 43.375,28.464 43.375,32 L43.375,32 Z" id="Shape" sketch:type="MSShapeGroup"></path>
                <path d="M72.2916667,32 C72.2916667,35.536 69.0566146,38.4 65.0625,38.4 C61.0683854,38.4 57.8333333,35.536 57.8333333,32 C57.8333333,28.464 61.0683854,25.6 65.0625,25.6 C69.0566146,25.6 72.2916667,28.464 72.2916667,32 L72.2916667,32 Z" id="Shape" sketch:type="MSShapeGroup"></path>
                <path d="M101.208333,32 C101.208333,35.536 97.9732812,38.4 93.9791667,38.4 C89.9850521,38.4 86.75,35.536 86.75,32 C86.75,28.464 89.9850521,25.6 93.9791667,25.6 C97.9732812,25.6 101.208333,28.464 101.208333,32 L101.208333,32 Z" id="Shape" sketch:type="MSShapeGroup"></path>
            </g>
            <rect id="Rectangle-6" stroke="#E8C48E" stroke-width="4" fill="#FFF9EB" sketch:type="MSShapeGroup" x="151" y="145.957" width="75" height="29.043"></rect>
            <text id="&lt;DIV&gt;" sketch:type="MSTextLayer" font-family="Open Sans" font-size="14" font-weight="526" sketch:alignment="middle" fill="#8A704D">
                <tspan x="169.051859" y="165.543917">&lt;DIV&gt;</tspan>
            </text>
            <text id="top" sketch:type="MSTextLayer" font-family="Consolas" font-size="14" font-weight="bold" fill="#8A704D">
                <tspan x="216" y="115">top</tspan>
            </text>
            <text id="bottom" sketch:type="MSTextLayer" font-family="Consolas" font-size="14" font-weight="bold" fill="#8A704D">
                <tspan x="283" y="129">bottom</tspan>
            </text>
            <path d="M226,174 L286,174" id="Line-28" stroke="#EE6B47" stroke-width="2" stroke-linecap="square" stroke-dasharray="3,6" sketch:type="MSShapeGroup"></path>
            <path d="M225,174 L225,234" id="Line-30" stroke="#EE6B47" stroke-width="2" stroke-linecap="square" stroke-dasharray="3,6" sketch:type="MSShapeGroup"></path>
            <path d="M226,147 L256,147" id="Line-29" stroke="#EE6B47" stroke-width="2" stroke-linecap="square" stroke-dasharray="3,6" sketch:type="MSShapeGroup"></path>
            <path d="M152,204 L152,174" id="Line-31" stroke="#EE6B47" stroke-width="2" stroke-linecap="square" stroke-dasharray="3,6" sketch:type="MSShapeGroup"></path>
            <text id="left" sketch:type="MSTextLayer" font-family="Consolas" font-size="14" font-weight="bold" fill="#8A704D">
                <tspan x="78" y="180">left</tspan>
            </text>
            <text id="right" sketch:type="MSTextLayer" font-family="Consolas" font-size="14" font-weight="bold" fill="#8A704D">
                <tspan x="106" y="217">right</tspan>
            </text>
            <path d="M246.5,145 L246.5,78.5" id="Line" stroke="#EE6B47" stroke-width="3" stroke-linecap="square" fill="#EE6B47" sketch:type="MSShapeGroup"></path>
            <path d="M275.5,170.012291 L275.5,78.5" id="Line" stroke="#EE6B47" stroke-width="3" stroke-linecap="square" fill="#EE6B47" sketch:type="MSShapeGroup"></path>
            <path d="M222.012291,224.5 L29.5022964,224.5" id="Line-2" stroke="#EE6B47" stroke-width="3" stroke-linecap="square" fill="#EE6B47" sketch:type="MSShapeGroup"></path>
            <path d="M149.012291,188.5 L29.5022888,188.5" id="Line-3" stroke="#EE6B47" stroke-width="3" stroke-linecap="square" fill="#EE6B47" sketch:type="MSShapeGroup"></path>
        </g>
    </g>
</svg>