<svg xmlns="http://www.w3.org/2000/svg" xmlns:xlink="http://www.w3.org/1999/xlink" width="274" height="143" viewBox="0 0 274 143"><defs><style>@import url(https://fonts.googleapis.com/css?family=Open+Sans:bold,italic,bolditalic%7CPT+Mono);@font-face{font-family:&apos;PT Mono&apos;;font-weight:700;font-style:normal;src:local(&apos;PT MonoBold&apos;),url(/font/PTMonoBold.woff2) format(&apos;woff2&apos;),url(/font/PTMonoBold.woff) format(&apos;woff&apos;),url(/font/PTMonoBold.ttf) format(&apos;truetype&apos;)}</style></defs><defs><filter id="filter-2" width="212.1%" height="203.6%" x="-52.6%" y="-43.3%" filterUnits="objectBoundingBox"><feMorphology in="SourceAlpha" operator="dilate" radius="1" result="shadowSpreadOuter1"/><feOffset dy="1" in="shadowSpreadOuter1" result="shadowOffsetOuter1"/><feGaussianBlur in="shadowOffsetOuter1" result="shadowBlurOuter1" stdDeviation="1.5"/><feComposite in="shadowBlurOuter1" in2="SourceAlpha" operator="out" result="shadowBlurOuter1"/><feColorMatrix in="shadowBlurOuter1" values="0 0 0 0 0.0941176471 0 0 0 0 0.0901960784 0 0 0 0 0.0901960784 0 0 0 1 0"/></filter><path id="path-1" d="M12.487 6.865L0 0l3.64 13.776 2.726-4.108 3.264 4.177 1.474-1.152-3.263-4.177z"/></defs><g id="dom" fill="none" fill-rule="evenodd" stroke="none" stroke-width="1"><g id="mouseover-to-child.svg"><path id="Rectangle-210" fill="#DBAF88" d="M200.47 59L216 121H94l15.53-62z"/><path id="Rectangle-209" stroke="#91C2A3" stroke-width="18" d="M223.628 32l20.205 66H66.167l20.205-66h137.256z"/><path id="Fill-54" fill="#C06334" d="M125.435 52l-.683 3.884c-15.408-.725-31.056.348-45.752 3.22l5.647 7.733c12.417-2.427 25.638-3.334 38.656-2.721L122.62 68c7.56-2.333 26.38-5.03 26.38-5.03S134.836 55.132 125.435 52z" transform="rotate(33 114 60)"/><g id="Rectangle-237" transform="translate(145 82)"><use fill="#000" filter="url(#filter-2)" xlink:href="#path-1"/><path fill="#FFF" stroke="#181717" d="M-.781-1l14.484 7.963-5.041 1.792 3.144 4.025-2.262 1.767-3.145-4.025-2.958 4.459L-.78-1z"/></g><text id="mouseout" fill="#643B0C" font-family="PTMono-Bold, PT Mono" font-size="14" font-weight="bold"><tspan x="60" y="37">mouseout</tspan></text><text id="mouseover" fill="#643B0C" font-family="PTMono-Bold, PT Mono" font-size="14" font-weight="bold"><tspan x="145" y="76">mouseover</tspan></text><text id="#parent" fill="#91C2A3" font-family="PTMono-Bold, PT Mono" font-size="14" font-weight="bold"><tspan x="14" y="21">#parent</tspan></text><text id="#child" fill="#AF6E24" font-family="PTMono-Bold, PT Mono" font-size="14" font-weight="bold"><tspan x="14" y="126">#child</tspan></text></g></g></svg>