<?xml version="1.0" encoding="UTF-8"?>
<svg width="233px" height="150px" viewBox="0 0 233 150" version="1.1" xmlns="http://www.w3.org/2000/svg" xmlns:xlink="http://www.w3.org/1999/xlink">
    <!-- Generator: sketchtool 55.2 (78181) - https://sketchapp.com -->
    <title>mouseover-to-child.svg</title>
    <desc>Created with sketchtool.</desc>
    <g id="dom" stroke="none" stroke-width="1" fill="none" fill-rule="evenodd">
        <g id="mouseover-to-child.svg">
            <rect id="Rectangle-7" stroke="#E8C48E" stroke-width="2" fill="#FFF9EB" x="13" y="15" width="210" height="115"></rect>
            <text id="#FROM" font-family="OpenSans-Bold, Open Sans" font-size="14" font-weight="bold" fill="#8A704D">
                <tspan x="18.5136307" y="31">#FROM</tspan>
            </text>
            <rect id="Rectangle-6" stroke="#E8C48E" stroke-width="2" fill="#FFF9EB" x="141" y="65" width="67" height="34"></rect>
            <text id="#TO" font-family="OpenSans-Bold, Open Sans" font-size="14" font-weight="bold" fill="#8A704D">
                <tspan x="159.99681" y="88">#TO</tspan>
            </text>
            <path d="M150,83.0279175 C150,83.0279175 134.824497,73.7186483 124.752316,70 C124.5079,71.5378926 124.264184,73.074982 124.019768,74.6120715 C107.511532,73.7507714 90.7455739,75.0256562 75,78.436726 C77.0169574,81.4976542 79.0339148,84.5581808 81.0508721,87.6187075 C94.3543869,84.7368655 108.520011,83.6599391 122.467831,84.3875269 C122.223415,85.9254195 121.978999,87.462509 121.735284,89 C129.836729,86.2297857 150,83.0279175 150,83.0279175" id="Fill-54" stroke="#EE6B47" stroke-width="3" fill="#EE6B47" stroke-linecap="square"></path>
            <text id="mouseover" font-family="PTMono-Bold, PT Mono" font-size="14" font-weight="bold" fill="#8A704D">
                <tspan x="138" y="59">mouseover</tspan>
            </text>
            <text id="mouseout" font-family="PTMono-Bold, PT Mono" font-size="14" font-weight="bold" fill="#8A704D">
                <tspan x="39" y="70">mouseout</tspan>
            </text>
        </g>
    </g>
</svg>