<svg xmlns="http://www.w3.org/2000/svg" width="278" height="92" viewBox="0 0 278 92"><defs><style>@import url(https://fonts.googleapis.com/css?family=Open+Sans:bold,italic,bolditalic%7CPT+Mono);@font-face{font-family:&apos;PT Mono&apos;;font-weight:700;font-style:normal;src:local(&apos;PT MonoBold&apos;),url(/font/PTMonoBold.woff2) format(&apos;woff2&apos;),url(/font/PTMonoBold.woff) format(&apos;woff&apos;),url(/font/PTMonoBold.ttf) format(&apos;truetype&apos;)}</style></defs><g id="dom" fill="none" fill-rule="evenodd" stroke="none" stroke-width="1"><g id="mouseover-mouseout.svg"><path id="Rectangle-6" fill="#FBF2EC" stroke="#DBAF88" stroke-width="2" d="M95 25h88.014v50.451H95z"/><text id="&lt;DIV&gt;" fill="#AF6E24" font-family="OpenSans-Bold, Open Sans" font-size="14" font-weight="bold"><tspan x="118.964" y="56">&lt;DIV&gt;</tspan></text><path id="Fill-55" fill="#C06334" d="M109 51.828S88.159 39.088 74.327 34c-.336 2.104-.67 4.208-1.007 6.311-22.67-1.178-45.696.566-67.32 5.234l8.31 12.565c18.27-3.944 37.724-5.417 56.88-4.422-.337 2.105-.672 4.208-1.007 6.312C81.31 56.21 109 51.828 109 51.828"/><text id="mouseover" fill="#AF6E24" font-family="PTMono-Bold, PT Mono" font-size="14" font-weight="bold"><tspan x="17" y="21">mouseover</tspan></text><path id="Fill-56" fill="#C06334" d="M268 51.828S247.159 39.088 233.327 34c-.336 2.104-.67 4.208-1.007 6.311-22.67-1.178-45.696.566-67.32 5.234l8.31 12.565c18.27-3.944 37.724-5.417 56.88-4.422-.337 2.105-.672 4.208-1.007 6.312C240.31 56.21 268 51.828 268 51.828"/><text id="mouseout" fill="#AF6E24" font-family="PTMono-Bold, PT Mono" font-size="14" font-weight="bold"><tspan x="193" y="21">mouseout</tspan></text></g></g></svg>