<?xml version="1.0" encoding="UTF-8" standalone="no"?>
<svg width="440px" height="183px" viewBox="0 0 440 183" version="1.1" xmlns="http://www.w3.org/2000/svg" xmlns:xlink="http://www.w3.org/1999/xlink" xmlns:sketch="http://www.bohemiancoding.com/sketch/ns">
    <!-- Generator: bin/sketchtool 1.3 (252) - http://www.bohemiancoding.com/sketch -->
    <title>mouseover-mouseout-from-outside.svg</title>
    <desc>Created with bin/sketchtool.</desc>
    <defs></defs>
    <g id="combined" stroke="none" stroke-width="1" fill="none" fill-rule="evenodd" sketch:type="MSPage">
        <g id="mouseover-mouseout-from-outside.svg" sketch:type="MSArtboardGroup">
            <rect id="Rectangle-10" stroke="#E8C48E" stroke-width="4" stroke-dasharray="5,1,5,1" opacity="0.6" fill="#FFF9EB" sketch:type="MSShapeGroup" x="202" y="57" width="126" height="93"></rect>
            <g id="noun_69008_cc" sketch:type="MSLayerGroup" transform="translate(171.000000, 8.000000)" fill="#E8C48E">
                <path d="M234.020833,169 L4.97916667,169 C2.23066667,169 0,167.09875 0,164.775 L0,4.225 C0,1.90125 2.23066667,0 4.97916667,0 L234.020833,0 C236.759375,0 239,1.90125 239,4.225 L239,164.775 C239,167.09875 236.759375,169 234.020833,169 L234.020833,169 Z M9.95833333,160.55 L229.041667,160.55 L229.041667,8.45 L9.95833333,8.45 L9.95833333,160.55 L9.95833333,160.55 Z" id="Shape" sketch:type="MSShapeGroup"></path>
                <path d="M229.041667,42.25 L9.95833333,42.25 C7.20983333,42.25 4.97916667,40.34875 4.97916667,38.025 C4.97916667,35.70125 7.20983333,33.8 9.95833333,33.8 L229.041667,33.8 C231.780208,33.8 234.020833,35.70125 234.020833,38.025 C234.020833,40.34875 231.780208,42.25 229.041667,42.25 L229.041667,42.25 Z" id="Shape" sketch:type="MSShapeGroup"></path>
                <path d="M29.875,21.125 C29.875,23.4593125 27.6468229,25.35 24.8958333,25.35 C22.1448437,25.35 19.9166667,23.4593125 19.9166667,21.125 C19.9166667,18.7906875 22.1448437,16.9 24.8958333,16.9 C27.6468229,16.9 29.875,18.7906875 29.875,21.125 L29.875,21.125 Z" id="Shape" sketch:type="MSShapeGroup"></path>
                <path d="M49.7916667,21.125 C49.7916667,23.4593125 47.5634896,25.35 44.8125,25.35 C42.0615104,25.35 39.8333333,23.4593125 39.8333333,21.125 C39.8333333,18.7906875 42.0615104,16.9 44.8125,16.9 C47.5634896,16.9 49.7916667,18.7906875 49.7916667,21.125 L49.7916667,21.125 Z" id="Shape" sketch:type="MSShapeGroup"></path>
                <path d="M69.7083333,21.125 C69.7083333,23.4593125 67.4801563,25.35 64.7291667,25.35 C61.9781771,25.35 59.75,23.4593125 59.75,21.125 C59.75,18.7906875 61.9781771,16.9 64.7291667,16.9 C67.4801563,16.9 69.7083333,18.7906875 69.7083333,21.125 L69.7083333,21.125 Z" id="Shape" sketch:type="MSShapeGroup"></path>
            </g>
            <rect id="Rectangle-6" stroke="#707175" stroke-width="2" fill="#EBEBEB" sketch:type="MSShapeGroup" x="231" y="85" width="69" height="36"></rect>
            <text id="#TO" sketch:type="MSTextLayer" font-family="Open Sans" font-size="14" font-weight="526" sketch:alignment="middle" fill="#8A704D">
                <tspan x="251.150618" y="109">#TO</tspan>
            </text>
            <path d="M236,94.6353921 L223.12832,94.6353921 L217.344468,101.853926 L105.198001,101.853926 L108.348404,94.146 L82,103.645409 L108.348404,113.146 L105.235092,105.438074 L217.204218,105.438074 L223.12832,112.830378 L236,112.830378 L228.709332,103.733476 L236,94.6353921" id="Fill-21" stroke="#EE6B47" stroke-width="3" stroke-linecap="square" fill="#EE6B47" sketch:type="MSShapeGroup" transform="translate(159.000000, 103.646000) scale(-1, 1) translate(-159.000000, -103.646000) "></path>
            <text id="target" sketch:type="MSTextLayer" font-family="Consolas" font-size="14" font-weight="bold" fill="#8A704D">
                <tspan x="240" y="80">target</tspan>
            </text>
            <text id="relatedTarget-=-null" sketch:type="MSTextLayer" font-family="Consolas" font-size="14" font-weight="bold" fill="#8A704D">
                <tspan x="15" y="85">relatedTarget = null</tspan>
            </text>
        </g>
    </g>
</svg>