<svg xmlns="http://www.w3.org/2000/svg" width="354" height="173" viewBox="0 0 354 173"><defs><style>@import url(https://fonts.googleapis.com/css?family=Open+Sans:bold,italic,bolditalic%7CPT+Mono);@font-face{font-family:&apos;PT Mono&apos;;font-weight:700;font-style:normal;src:local(&apos;PT MonoBold&apos;),url(/font/PTMonoBold.woff2) format(&apos;woff2&apos;),url(/font/PTMonoBold.woff) format(&apos;woff&apos;),url(/font/PTMonoBold.ttf) format(&apos;truetype&apos;)}</style></defs><g id="array" fill="none" fill-rule="evenodd" stroke="none" stroke-width="1"><g id="array-speed.svg"><path id="Rectangle-1" fill="#FFF9EB" stroke="#E8C48E" stroke-width="2" d="M109 93h35v62h-35z"/><path id="Rectangle-2" fill="#FFF9EB" stroke="#E8C48E" stroke-width="2" d="M145 93h35v62h-35z"/><text id="0" fill="#8A704D" font-family="OpenSans-Bold, Open Sans" font-size="14" font-weight="bold"><tspan x="122.5" y="128.5">0</tspan></text><text id="1" fill="#8A704D" font-family="OpenSans-Bold, Open Sans" font-size="14" font-weight="bold"><tspan x="159.5" y="128.5">1</tspan></text><path id="Rectangle-3" fill="#FFF9EB" stroke="#E8C48E" stroke-width="2" d="M181 93h35v62h-35z"/><text id="2" fill="#8A704D" font-family="OpenSans-Bold, Open Sans" font-size="14" font-weight="bold"><tspan x="195.5" y="128.5">2</tspan></text><path id="Rectangle-4" fill="#FFF9EB" stroke="#E8C48E" stroke-width="2" d="M217 93h35v62h-35z"/><text id="3" fill="#8A704D" font-family="OpenSans-Bold, Open Sans" font-size="14" font-weight="bold"><tspan x="231.5" y="128.5">3</tspan></text><path id="Shape-5" fill="#EE6B47" d="M326.5 117.5l4.5-6.192h-3V95.5h-3v15.808h-3z" transform="rotate(-90 326.5 106.5)"/><path id="Rectangle-5" fill="#FFF9EB" stroke="#E8C48E" stroke-width="2" d="M264 95h46v22h-46z"/><text id="pop" fill="#8A704D" font-family="OpenSans-Bold, Open Sans" font-size="14" font-weight="bold"><tspan x="273.807" y="110">pop</tspan></text><path id="Shape-2" fill="#EE6B47" d="M94.5 117.5l4.5-6.192h-3V95.5h-3v15.808h-3z" transform="rotate(-90 94.5 106.5)"/><path id="Rectangle-6" fill="#FFF9EB" stroke="#E8C48E" stroke-width="2" d="M19 96h61v22H19z"/><text id="unshift" fill="#8A704D" font-family="OpenSans-Bold, Open Sans" font-size="14" font-weight="bold"><tspan x="23.833" y="112">unshift</tspan></text><path id="Shape-3" fill="#EE6B47" d="M326.5 152.5l4.5-6.192h-3V130.5h-3v15.808h-3z" transform="matrix(0 -1 -1 0 468 468)"/><path id="Rectangle-7" fill="#FFF9EB" stroke="#E8C48E" stroke-width="2" d="M310 130h-46v22h46z"/><text id="push" fill="#8A704D" font-family="OpenSans-Bold, Open Sans" font-size="14" font-weight="bold"><tspan x="269.89" y="146">push</tspan></text><path id="Shape-4" fill="#EE6B47" d="M93.5 152.5l4.5-6.192h-3V130.5h-3v15.808h-3z" transform="matrix(0 -1 -1 0 235 235)"/><path id="Rectangle-8" fill="#FFF9EB" stroke="#E8C48E" stroke-width="2" d="M79 131H18v22h61z"/><text id="shift" fill="#8A704D" font-family="OpenSans-Bold, Open Sans" font-size="14" font-weight="bold"><tspan x="32.535" y="147">shift</tspan></text><path id="Shape" fill="#E8C48F" d="M329.693 35.92c-.952-2.478-7.313-10.643-8.63-11.08-1.315-.437-4.095-.292-4.095-.292-1.243-13.925-4.314-15.456-6.434-16.987-2.12-1.53-1.902 4.521-1.902 4.521-.731-2.551-4.461-6.707-7.02-6.051-2.56.656-1.17 9.04-.804 11.372.367 2.334 3.656 5.686 4.898 7.51 1.243 1.821.586 3.425.586 3.425-1.024 1.46-.878 5.128-.878 5.128-2.558-.414-5.044 2.528-5.044 2.528-5.778-2.478-9.085-2.528-9.085-2.528-17.535.175-19.767 16.815-20.025 22.334-.626-.271-1.496-.264-2.619.618-2.581 2.027-.74 4.511-.74 4.511-.727-.2-1.447-3.54-1.447-3.54-1.65 3.517 1.35 5.92 1.35 5.92-1.118.239-2.968-1.01-2.968-1.01.175.235 1.333 2.033 3.581 4.38 2.838 2.96 7.023 2.322 9.087 2.243a.4.4 0 00.196-.009l.06-.001.01-.026c.324-.144.581-.602 1.929-.152l1.731 1.086s15.302.142 17.697 0c1.3-.077-1.316-3.79-1.316-3.79 4.753-.293 7.312-2.043 7.312-2.043l7.343 5.975h7.703c1.514 0 .586-1.618.586-1.618l-7.223-6.544.803-1.385c2.78-.583 4.754-3.28 5.045-3.79.294-.51.074-4.301.074-4.301s.294.365 1.535-1.167c1.244-1.532-.145-3.937-.51-4.448-.365-.509-1.097-3.72-1.097-3.72s4.898-.29 6.07-.874c1.167-.58 5.19-3.716 4.24-6.194zM85.866 34.289c-4.561 2.635-4.417 9.072-15.582 17.687-2.718 2.097 2.877 13.103.454 15.556-2.468 2.499-12.35 2.623-14.739 1.26-3.517-2.007-.76-7.243.027-14.886-7.206.735-9.541.615-16.783.313 1.104 5.799 2.719 12.246.377 14.37-1.909 1.731-11.198 1.919-14.103.022-3.635-2.374 2.634-15.875.509-16.093-2.445-.25-17.353.334-14.716-15.842 2.789 4.076 7.56 7.912 13.032 6.188.746-13.723 9.071-26.068 22.358-26.068s22.684 10.307 22.754 23.079c7.867-5.908 2.084-20.426 11.514-25.857 6.712-3.866 14.563-1.869 18.307 4.257 1.955 3.199 2.565 8.84.141 11.938-3.607 4.61-10.421 2.268-13.55 4.076z"/></g></g></svg>