<?xml version="1.0" encoding="UTF-8"?>
<svg width="354px" height="173px" viewBox="0 0 354 173" version="1.1" xmlns="http://www.w3.org/2000/svg" xmlns:xlink="http://www.w3.org/1999/xlink">
    <!-- Generator: sketchtool 55.2 (78181) - https://sketchapp.com -->
    <title>array-speed.svg</title>
    <desc>Created with sketchtool.</desc>
    <g id="array" stroke="none" stroke-width="1" fill="none" fill-rule="evenodd">
        <g id="array-speed.svg">
            <rect id="Rectangle-1" stroke="#E8C48E" stroke-width="2" fill="#FFF9EB" x="109" y="93" width="35" height="62"></rect>
            <rect id="Rectangle-2" stroke="#E8C48E" stroke-width="2" fill="#FFF9EB" x="145" y="93" width="35" height="62"></rect>
            <text id="0" font-family="OpenSans-Bold, Open Sans" font-size="14" font-weight="bold" line-spacing="17" fill="#8A704D">
                <tspan x="122.5" y="128.5">0</tspan>
            </text>
            <text id="1" font-family="OpenSans-Bold, Open Sans" font-size="14" font-weight="bold" line-spacing="17" fill="#8A704D">
                <tspan x="159.5" y="128.5">1</tspan>
            </text>
            <rect id="Rectangle-3" stroke="#E8C48E" stroke-width="2" fill="#FFF9EB" x="181" y="93" width="35" height="62"></rect>
            <text id="2" font-family="OpenSans-Bold, Open Sans" font-size="14" font-weight="bold" line-spacing="17" fill="#8A704D">
                <tspan x="195.5" y="128.5">2</tspan>
            </text>
            <rect id="Rectangle-4" stroke="#E8C48E" stroke-width="2" fill="#FFF9EB" x="217" y="93" width="35" height="62"></rect>
            <text id="3" font-family="OpenSans-Bold, Open Sans" font-size="14" font-weight="bold" line-spacing="17" fill="#8A704D">
                <tspan x="231.5" y="128.5">3</tspan>
            </text>
            <polygon id="Shape-5" fill="#EE6B47" transform="translate(326.500000, 106.500000) rotate(-90.000000) translate(-326.500000, -106.500000) " points="326.5 117.5 331 111.30787 328 111.30787 328 95.5 325 95.5 325 111.30787 322 111.30787"></polygon>
            <rect id="Rectangle-5" stroke="#E8C48E" stroke-width="2" fill="#FFF9EB" x="264" y="95" width="46" height="22"></rect>
            <text id="pop" font-family="OpenSans-Bold, Open Sans" font-size="14" font-weight="bold" fill="#8A704D">
                <tspan x="273.806641" y="110">pop</tspan>
            </text>
            <polygon id="Shape-2" fill="#EE6B47" transform="translate(94.500000, 106.500000) rotate(-90.000000) translate(-94.500000, -106.500000) " points="94.5 117.5 99 111.30787 96 111.30787 96 95.5 93 95.5 93 111.30787 90 111.30787"></polygon>
            <rect id="Rectangle-6" stroke="#E8C48E" stroke-width="2" fill="#FFF9EB" x="19" y="96" width="61" height="22"></rect>
            <text id="unshift" font-family="OpenSans-Bold, Open Sans" font-size="14" font-weight="bold" fill="#8A704D">
                <tspan x="23.8334961" y="112">unshift</tspan>
            </text>
            <polygon id="Shape-3" fill="#EE6B47" transform="translate(326.500000, 141.500000) scale(-1, 1) rotate(-90.000000) translate(-326.500000, -141.500000) " points="326.5 152.5 331 146.30787 328 146.30787 328 130.5 325 130.5 325 146.30787 322 146.30787"></polygon>
            <rect id="Rectangle-7" stroke="#E8C48E" stroke-width="2" fill="#FFF9EB" transform="translate(287.000000, 141.000000) scale(-1, 1) translate(-287.000000, -141.000000) " x="264" y="130" width="46" height="22"></rect>
            <text id="push" font-family="OpenSans-Bold, Open Sans" font-size="14" font-weight="bold" fill="#8A704D">
                <tspan x="269.889648" y="146">push</tspan>
            </text>
            <polygon id="Shape-4" fill="#EE6B47" transform="translate(93.500000, 141.500000) scale(-1, 1) rotate(-90.000000) translate(-93.500000, -141.500000) " points="93.5 152.5 98 146.30787 95 146.30787 95 130.5 92 130.5 92 146.30787 89 146.30787"></polygon>
            <rect id="Rectangle-8" stroke="#E8C48E" stroke-width="2" fill="#FFF9EB" transform="translate(48.500000, 142.000000) scale(-1, 1) translate(-48.500000, -142.000000) " x="18" y="131" width="61" height="22"></rect>
            <text id="shift" font-family="OpenSans-Bold, Open Sans" font-size="14" font-weight="bold" fill="#8A704D">
                <tspan x="32.534668" y="147">shift</tspan>
            </text>
            <path d="M329.692702,35.9208538 C328.741159,33.4418996 322.380448,25.276771 321.06325,24.8393085 C319.747733,24.402684 316.967917,24.5476668 316.967917,24.5476668 C315.724691,10.6226153 312.654031,9.09233456 310.534075,7.5612158 C308.413277,6.0309351 308.631829,12.0824997 308.631829,12.0824997 C307.90052,9.53063511 304.170841,5.37474135 301.611258,6.0309351 C299.051675,6.68712885 300.442004,15.0718268 300.807658,17.403284 C301.174994,19.7372554 304.464206,23.0894585 305.705751,24.9122189 C306.948977,26.7341413 306.291639,28.3381704 306.291639,28.3381704 C305.267806,29.7972168 305.414068,33.4662031 305.414068,33.4662031 C302.856166,33.052206 300.369713,35.9937642 300.369713,35.9937642 C294.591528,33.5164861 291.284664,33.4662031 291.284664,33.4662031 C273.750048,33.6405177 271.518293,50.2808537 271.260234,55.8002561 C270.633997,55.5287276 269.763991,55.5362701 268.640969,56.4178995 C266.05953,58.4451443 267.901253,60.9291268 267.901253,60.9291268 C267.174147,60.7296707 266.453765,57.3883623 266.453765,57.3883623 C264.803696,60.9064994 267.803746,63.3091909 267.803746,63.3091909 C266.685767,63.5480354 264.836478,62.2985017 264.836478,62.2985017 C265.01132,62.533994 266.168807,64.3316129 268.417373,66.6789931 C271.25519,69.6389884 275.440466,69.0012318 277.504104,68.9216169 C277.578075,68.9367018 277.641119,68.9299974 277.69996,68.9132364 C277.718453,68.9132364 277.741149,68.9115603 277.759642,68.9115603 L277.769729,68.8864188 C278.094195,68.7422741 278.351414,68.2838603 279.698873,68.7338936 L281.430479,69.8200074 C281.430479,69.8200074 296.731659,69.9616379 299.127328,69.8200074 C300.426873,69.7429067 297.810971,66.0295037 297.810971,66.0295037 C302.563642,65.737024 305.123225,63.987174 305.123225,63.987174 L312.46574,69.9616379 L320.168867,69.9616379 C321.682762,69.9616379 320.754755,68.3442 320.754755,68.3442 L313.531603,61.7998615 L314.335203,60.4154016 C317.114179,59.8321183 319.088714,57.1344329 319.379557,56.624898 C319.673762,56.1145251 319.454369,52.3240215 319.454369,52.3240215 C319.454369,52.3240215 319.747733,52.6885736 320.989278,51.1566168 C322.233345,49.625498 320.843857,47.2202923 320.479043,46.7090813 C320.114229,46.2003845 319.382079,42.989812 319.382079,42.989812 C319.382079,42.989812 324.280171,42.6981704 325.451107,42.114887 C326.61868,41.5341178 330.642564,38.3989699 329.692702,35.9208538 L329.692702,35.9208538 Z" id="Shape" fill="#E8C48F"></path>
            <path d="M85.866,34.289 C81.305,36.924 81.449,43.361 70.284,51.976 C67.566,54.073 73.161,65.079 70.738,67.532 C68.27,70.031 58.388,70.155 55.999,68.792 C52.482,66.785 55.239,61.549 56.026,53.906 C48.82,54.641 46.485,54.521 39.243,54.219 C40.347,60.018 41.962,66.465 39.62,68.589 C37.711,70.32 28.422,70.508 25.517,68.611 C21.882,66.237 28.151,52.736 26.026,52.518 C23.581,52.268 8.673,52.852 11.31,36.676 C14.099,40.752 18.87,44.588 24.342,42.864 C25.088,29.141 33.413,16.796 46.7,16.796 C59.987,16.796 69.384,27.103 69.454,39.875 C77.321,33.967 71.538,19.449 80.968,14.018 C87.68,10.152 95.531,12.149 99.275,18.275 C101.23,21.474 101.84,27.115 99.416,30.213 C95.809,34.823 88.995,32.481 85.866,34.289 L85.866,34.289 Z" id="Shape" fill="#E8C48F"></path>
        </g>
    </g>
</svg>