<svg xmlns="http://www.w3.org/2000/svg" width="187" height="108" viewBox="0 0 187 108"><defs><style>@import url(https://fonts.googleapis.com/css?family=Open+Sans:bold,italic,bolditalic%7CPT+Mono);@font-face{font-family:&apos;PT Mono&apos;;font-weight:700;font-style:normal;src:local(&apos;PT MonoBold&apos;),url(/font/PTMonoBold.woff2) format(&apos;woff2&apos;),url(/font/PTMonoBold.woff) format(&apos;woff&apos;),url(/font/PTMonoBold.ttf) format(&apos;truetype&apos;)}</style></defs><g id="array" fill="none" fill-rule="evenodd" stroke="none" stroke-width="1"><g id="queue.svg"><path id="Shape" fill="#DBAF88" d="M90.795 43.15a2.79 2.79 0 01-.748-5.476l22.392-6.253a2.789 2.789 0 111.5 5.372l-22.392 6.253a2.76 2.76 0 01-.752.104zM90.795 54.188a2.79 2.79 0 01-.748-5.476l22.392-6.253a2.789 2.789 0 111.5 5.372l-22.392 6.253a2.76 2.76 0 01-.752.104zM90.795 64.557a2.79 2.79 0 01-.748-5.476l22.392-6.253a2.789 2.789 0 111.5 5.372l-22.392 6.253a2.8 2.8 0 01-.752.104z"/><path id="Shape" fill="#DBAF88" d="M114.837 17.439v-1.784c0-3.613-3.021-7.324-6.551-6.551-9.412 2.06-30.718 8.959-41.853 11.353-3.531.759-6.552 3.736-6.552 7.349v60.952c0 3.613 2.976 7.061 6.552 6.552 1.999-.284 4.267-.747 6.728-1.34v1.428c0 3.613 2.975 7.061 6.551 6.552 4.176-.594 26.68-7.4 32.483-9.111v-5.374c-5.567 1.638-28.034 8.308-32.483 9.349-.761.179-1.416-.635-1.416-1.416V35.74c-.078-1.792.619-3.287 2.715-3.847 6.07-1.623 21.952-5.945 31.944-8.668l1.881-.512 6.728-1.834c.781 0 1.416.635 1.416 1.416v60.953c0 .781-.665 1.203-1.416 1.416-2.596.738-5.82 1.713-9.382 2.801l.013 5.374c3.405-1.119 6.602-2.17 9.369-3.039 3.446-1.083 6.552-2.369 6.552-6.552V22.294c.001-3.612-3.021-7.324-6.551-6.551-1.841.403-4.142.993-6.728 1.696zm-35.124 9.657c-3.531.76-6.551 3.737-6.551 7.349V88.46a201.44 201.44 0 01-6.728 1.715c-.761.178-1.416-.636-1.416-1.417V29.1c-.078-1.792.619-3.287 2.715-3.847 9.143-2.443 40.554-11.014 40.554-11.014.781 0 1.416.635 1.416 1.416v3.217c-10.059 2.86-22.391 6.59-29.99 8.224z"/><path id="Shape-3" fill="#C06334" d="M158 71.817l12-12h-8V29.183h-8v30.634h-8z" transform="matrix(0 -1 -1 0 208.5 208.5)"/><path id="Shape-2" fill="#C06334" d="M30 71.817l12-12h-8V29.183h-8v30.634h-8z" transform="matrix(0 -1 -1 0 80.5 80.5)"/><text id="push" fill="#C06334" font-family="OpenSans-Bold, Open Sans" font-size="14" font-weight="bold"><tspan x="146.39" y="32">push</tspan></text><text id="shift" fill="#C06334" font-family="OpenSans-Bold, Open Sans" font-size="14" font-weight="bold"><tspan x="17.535" y="32">shift</tspan></text></g></g></svg>