<svg xmlns="http://www.w3.org/2000/svg" width="145" height="149" viewBox="0 0 145 149"><defs><style>@import url(https://fonts.googleapis.com/css?family=Open+Sans:bold,italic,bolditalic%7CPT+Mono);@font-face{font-family:&apos;PT Mono&apos;;font-weight:700;font-style:normal;src:local(&apos;PT MonoBold&apos;),url(/font/PTMonoBold.woff2) format(&apos;woff2&apos;),url(/font/PTMonoBold.woff) format(&apos;woff&apos;),url(/font/PTMonoBold.ttf) format(&apos;truetype&apos;)}</style></defs><g id="array" fill="none" fill-rule="evenodd" stroke="none" stroke-width="1"><g id="stack.svg"><path id="Shape-3" fill="#DBAF88" d="M40.39 83.617c-1.45.556-2.994.508-3.73-.188-.887-.837-.266-2.297 1.387-3.26L62.98 65.631c1.652-.962 3.709-1.064 4.597-.227.886.838.264 2.298-1.388 3.26L41.255 83.203c-.28.163-.57.302-.865.415z"/><path id="Shape-4" fill="#DBAF88" d="M49.861 90.382c-1.449.556-2.993.509-3.73-.188-.886-.837-.265-2.296 1.387-3.26l24.935-14.536c1.651-.963 3.708-1.064 4.596-.228.886.839.265 2.298-1.388 3.261L50.727 89.967c-.28.163-.571.302-.866.415z"/><path id="Shape-5" fill="#DBAF88" d="M59.333 95.795c-1.449.556-2.993.508-3.73-.188-.886-.837-.265-2.297 1.387-3.26L81.925 77.81c1.651-.962 3.708-1.064 4.596-.227.886.838.265 2.298-1.388 3.26L60.2 95.38c-.28.163-.571.301-.866.415z"/><path id="Shape-6" fill="#DBAF88" d="M135.388 102.356c0-.535-.286-1.027-.75-1.294l-4.934-2.848 4.935-2.851a1.492 1.492 0 000-2.587L65.055 52.598a1.498 1.498 0 00-1.495 0L14.357 81.006a1.493 1.493 0 000 2.589l4.936 2.85-4.936 2.85a1.496 1.496 0 000 2.59l4.938 2.85-4.938 2.85a1.493 1.493 0 000 2.588l69.586 40.175a1.487 1.487 0 001.496 0l49.201-28.407a1.492 1.492 0 000-2.588l-4.936-2.851 4.936-2.85c.462-.268.748-.762.748-1.296zM64.307 55.618l66.596 38.45L84.69 120.75l-66.597-38.45 46.214-26.683zm62.608 52.725l3.988 2.303L84.69 137.33 18.093 98.88l4.19-2.419 61.66 35.6a1.504 1.504 0 001.495 0l41.299-23.845c.055.046.113.092.178.128zM84.69 129.04L18.17 90.634l-.076-.045 4.19-2.418 61.66 35.6a1.487 1.487 0 001.496 0l41.406-23.906c.12.163.272.307.459.415l3.6 2.077-46.214 26.682z"/><path id="Shape" fill="#C06334" d="M63.046 64.937c-.295.332-.655.489-1.037.489-.763 0-1.618-.627-2.224-1.753l-9.247-17.146c-.808-1.502-.29-3.268.803-3.268.136 0 .283.027.436.085l4.49 1.736.067-34.628 12.308 8.087v31.348l4.493 1.738c1.375.533 1.78 1.781.896 2.775L63.046 64.937z"/><path id="Shape-2" fill="#C06334" d="M94.167 33.943c-.294-.332-.654-.489-1.037-.489-.763 0-1.617.627-2.223 1.753L81.66 52.353c-.809 1.502-.29 3.268.803 3.268.136 0 .282-.027.435-.085l4.49-1.736.067 34.628 12.309 7.567V48.993l4.492-1.738c1.376-.533 1.781-1.78.897-2.775L94.167 33.943z"/><text id="push" fill="#C06334" font-family="OpenSans-Bold, Open Sans" font-size="14" font-weight="bold"><tspan x="13.39" y="32">push</tspan></text><text id="pop" fill="#C06334" font-family="OpenSans-Bold, Open Sans" font-size="14" font-weight="bold"><tspan x="109.307" y="63">pop</tspan></text></g></g></svg>