<?xml version="1.0" encoding="UTF-8" standalone="no"?>
<svg width="166px" height="173px" viewBox="0 0 166 173" version="1.1" xmlns="http://www.w3.org/2000/svg" xmlns:xlink="http://www.w3.org/1999/xlink" xmlns:sketch="http://www.bohemiancoding.com/sketch/ns">
    <!-- Generator: bin/sketchtool 1.3 (252) - http://www.bohemiancoding.com/sketch -->
    <title>bezier-letter.svg</title>
    <desc>Created with bin/sketchtool.</desc>
    <defs></defs>
    <g id="combined" stroke="none" stroke-width="1" fill="none" fill-rule="evenodd" sketch:type="MSPage">
        <g id="bezier-letter.svg" sketch:type="MSArtboardGroup">
            <g id="blue-zones" sketch:type="MSLayerGroup" transform="translate(13.000000, 3.000000)">
                <g id="g10" transform="translate(74.667210, 82.907153) scale(1, -1) translate(-74.667210, -82.907153) translate(0.167210, 0.907153)" sketch:type="MSShapeGroup">
                    <g id="g12" transform="translate(0.082789, 0.014893)">
                        <g id="g14" transform="translate(0.000000, 0.000000)">
                            <g id="g24" transform="translate(0.000000, 0.778344)">
                                <path d="M94.1950078,31.5813173 C95.4706172,17.7726644 104.08103,3.27358276 119.069517,3.27358276 C125.766502,3.27358276 145.219636,8.10661506 145.219636,36.0691123 L145.219636,55.4012263 L137.247042,55.4012263 L137.247042,36.0691123 C137.247042,16.0465847 129.274434,13.975283 125.766502,13.975283 C115.242661,13.975283 113.967052,29.5100156 113.967052,31.2360953 L113.967052,100.279314 C113.967052,114.778396 113.967052,128.241826 102.486511,141.014828 C90.0492563,154.478259 74.1040547,160.001705 58.7966719,160.001705 C32.6465531,160.001705 10.6421719,143.776559 10.6421719,120.992285 C10.6421719,110.635807 17.0202609,104.767124 25.31175,104.767124 C34.2410719,104.767124 39.9813422,111.671458 39.9813422,120.647079 C39.9813422,124.789667 38.3868234,136.181796 23.7172453,136.527018 C32.3276438,148.609576 47.9539359,152.406957 58.1588672,152.406957 C73.7851594,152.406957 91.9626844,138.943527 91.9626844,108.219283 L91.9626844,95.4462967 C75.6985734,94.4106459 53.3752969,93.374995 33.2843578,83.0185168 C9.3665625,71.2811657 1.39396875,53.3299246 1.39396875,38.1404141 C1.39396875,10.1779168 32.3276437,1.54750305 52.4185969,1.54750305 C73.46625,1.54750305 88.1358281,15.3561407 94.1950078,31.5813173 L94.1950078,31.5813173 Z" id="path30" fill="#B3B3B3"></path>
                                <path d="M91.9626844,88.1967559 L91.9626844,53.6751466 C91.9626844,20.879617 69.0016031,9.14226592 54.6509203,9.14226592 C39.0246281,9.14226592 25.9495688,21.2248238 25.9495688,38.4856361 C25.9495688,57.4725281 39.3435375,86.1254542 91.9626844,88.1967559 L91.9626844,88.1967559 Z" id="path32" fill="#FFFFFF"></path>
                                <path d="M93.0700078,30.3634803 L95.3200078,30.3634803 L95.3200078,32.7991391 L93.0700078,32.7991391 L93.0700078,30.3634803 L93.0700078,30.3634803 Z" id="path34" fill="#000000"></path>
                                <path d="M117.944503,2.05576097 L120.194517,2.05576097 L120.194517,4.49141976 L117.944503,4.49141976 L117.944503,2.05576097 L117.944503,2.05576097 Z" id="path36" fill="#000000"></path>
                                <path d="M144.094636,34.8512906 L146.344636,34.8512906 L146.344636,37.2869493 L144.094636,37.2869493 L144.094636,34.8512906 L144.094636,34.8512906 Z" id="path38" fill="#000000"></path>
                                <path d="M144.094636,54.1833893 L146.344636,54.1833893 L146.344636,56.6190481 L144.094636,56.6190481 L144.094636,54.1833893 L144.094636,54.1833893 Z" id="path40" fill="#000000"></path>
                                <path d="M136.122028,54.1833893 L138.372042,54.1833893 L138.372042,56.6190481 L136.122028,56.6190481 L136.122028,54.1833893 L136.122028,54.1833893 Z" id="path42" fill="#000000"></path>
                                <path d="M136.122028,34.8512906 L138.372042,34.8512906 L138.372042,37.2869493 L136.122028,37.2869493 L136.122028,34.8512906 L136.122028,34.8512906 Z" id="path44" fill="#000000"></path>
                                <path d="M124.641487,12.7574612 L126.891502,12.7574612 L126.891502,15.1931048 L124.641487,15.1931048 L124.641487,12.7574612 L124.641487,12.7574612 Z" id="path46" fill="#000000"></path>
                                <path d="M112.842052,30.0182583 L115.092052,30.0182583 L115.092052,32.453917 L112.842052,32.453917 L112.842052,30.0182583 L112.842052,30.0182583 Z" id="path48" fill="#000000"></path>
                                <path d="M112.842052,99.061492 L115.092052,99.061492 L115.092052,101.497151 L112.842052,101.497151 L112.842052,99.061492 L112.842052,99.061492 Z" id="path50" fill="#000000"></path>
                                <path d="M101.361511,139.796991 L103.611511,139.796991 L103.611511,142.23265 L101.361511,142.23265 L101.361511,139.796991 L101.361511,139.796991 Z" id="path52" fill="#000000"></path>
                                <path d="M57.6716719,158.783883 L59.9216719,158.783883 L59.9216719,161.219527 L57.6716719,161.219527 L57.6716719,158.783883 L57.6716719,158.783883 Z" id="path54" fill="#000000"></path>
                                <path d="M9.51717187,119.774464 L11.7671859,119.774464 L11.7671859,122.210107 L9.51717187,122.210107 L9.51717187,119.774464 L9.51717187,119.774464 Z" id="path56" fill="#000000"></path>
                                <path d="M24.18675,103.549302 L26.4367641,103.549302 L26.4367641,105.984961 L24.18675,105.984961 L24.18675,103.549302 L24.18675,103.549302 Z" id="path58" fill="#000000"></path>
                                <path d="M38.8563281,119.429242 L41.1063422,119.429242 L41.1063422,121.8649 L38.8563281,121.8649 L38.8563281,119.429242 L38.8563281,119.429242 Z" id="path60" fill="#000000"></path>
                                <path d="M22.5922312,135.309181 L24.8422453,135.309181 L24.8422453,137.74484 L22.5922312,137.74484 L22.5922312,135.309181 L22.5922312,135.309181 Z" id="path62" fill="#000000"></path>
                                <path d="M57.0338531,151.189136 L59.2838672,151.189136 L59.2838672,153.624779 L57.0338531,153.624779 L57.0338531,151.189136 L57.0338531,151.189136 Z" id="path64" fill="#000000"></path>
                                <path d="M90.8376703,107.001462 L93.0876844,107.001462 L93.0876844,109.437121 L90.8376703,109.437121 L90.8376703,107.001462 L90.8376703,107.001462 Z" id="path66" fill="#000000"></path>
                                <path d="M90.8376703,94.228475 L93.0876844,94.228475 L93.0876844,96.6641185 L90.8376703,96.6641185 L90.8376703,94.228475 L90.8376703,94.228475 Z" id="path68" fill="#000000"></path>
                                <path d="M32.1593438,81.8006798 L34.4093578,81.8006798 L34.4093578,84.2363386 L32.1593438,84.2363386 L32.1593438,81.8006798 L32.1593438,81.8006798 Z" id="path70" fill="#000000"></path>
                                <path d="M0.26896875,36.9225923 L2.51896875,36.9225923 L2.51896875,39.3582358 L0.26896875,39.3582358 L0.26896875,36.9225923 L0.26896875,36.9225923 Z" id="path72" fill="#000000"></path>
                                <path d="M51.2935828,0.329681271 L53.5435969,0.329681271 L53.5435969,2.76534006 L51.2935828,2.76534006 L51.2935828,0.329681271 L51.2935828,0.329681271 Z" id="path74" fill="#000000"></path>
                                <path d="M93.0700078,30.3634803 L95.3200078,30.3634803 L95.3200078,32.7991391 L93.0700078,32.7991391 L93.0700078,30.3634803 L93.0700078,30.3634803 Z" id="path76" fill="#000000"></path>
                                <path d="M90.8376703,86.9789341 L93.0876844,86.9789341 L93.0876844,89.4145777 L90.8376703,89.4145777 L90.8376703,86.9789341 L90.8376703,86.9789341 Z" id="path78" fill="#000000"></path>
                                <path d="M90.8376703,52.4573096 L93.0876844,52.4573096 L93.0876844,54.8929684 L90.8376703,54.8929684 L90.8376703,52.4573096 L90.8376703,52.4573096 Z" id="path80" fill="#000000"></path>
                                <path d="M53.5259062,7.92442892 L55.7759203,7.92442892 L55.7759203,10.3600877 L53.5259062,10.3600877 L53.5259062,7.92442892 L53.5259062,7.92442892 Z" id="path82" fill="#000000"></path>
                                <path d="M24.8245688,37.2677991 L27.0745688,37.2677991 L27.0745688,39.7034579 L24.8245688,39.7034579 L24.8245688,37.2677991 L24.8245688,37.2677991 Z" id="path84" fill="#000000"></path>
                                <path d="M90.8376703,86.9789341 L93.0876844,86.9789341 L93.0876844,89.4145777 L90.8376703,89.4145777 L90.8376703,86.9789341 L90.8376703,86.9789341 Z" id="path86" fill="#000000"></path>
                            </g>
                        </g>
                    </g>
                </g>
            </g>
        </g>
    </g>
</svg>