<svg width="260" height="130" viewBox="0 0 260 130" xmlns="http://www.w3.org/2000/svg"><title>bezier-car.svg</title><desc>Created with bin/sketchtool.</desc><g stroke="#000" fill="none" fill-rule="evenodd"><path d="M23.548 101.742C11.72 72.978 35.376 55.72 94.516 49.968c5.914-11.506 8.87-23.01 8.87-34.516 100.54-11.506 144.894 17.258 133.066 86.29H23.548z" stroke-width="2" fill="#C0C0C0"/><g id="crvpnt-link" transform="translate(20 12) translate(0 86.29)" fill="#D3D3D3"><ellipse id="crvpnt" cx="3.548" cy="3.452" rx="3.548" ry="3.452"/></g><g id="crvpnt-link" transform="translate(20 12) translate(70.968 34.516)" fill="#D3D3D3"><ellipse id="crvpnt" cx="3.548" cy="3.452" rx="3.548" ry="3.452"/></g><g transform="translate(20 12) translate(79.839)" fill="#D3D3D3"><ellipse cx="3.548" cy="3.452" rx="3.548" ry="3.452"/></g><ellipse cx="3.548" cy="3.452" rx="3.548" ry="3.452" transform="translate(20 12) translate(212.903 86.29)" fill="#D3D3D3"/><g transform="translate(20 12) translate(39.032 72.484)" stroke-width="5" fill="#D3D3D3"><ellipse cx="17.742" cy="17.258" rx="17.742" ry="17.258"/></g><ellipse cx="17.742" cy="17.258" rx="17.742" ry="17.258" transform="translate(20 12) translate(154.355 72.484)" stroke-width="5" fill="#D3D3D3"/></g></svg>