<svg width="166" height="173" viewBox="0 0 166 173" xmlns="http://www.w3.org/2000/svg"><title>bezier-letter.svg</title><desc>Created with bin/sketchtool.</desc><g fill="none" fill-rule="evenodd"><path d="M107.445 135.533c1.276 13.808 9.886 28.307 24.875 28.307 6.697 0 26.15-4.833 26.15-32.795v-19.332h-7.973v19.332c0 20.022-7.973 22.094-11.48 22.094-10.524 0-11.8-15.537-11.8-17.263V66.835c0-14.5 0-27.963-11.48-40.736C103.3 12.634 87.354 7.11 72.047 7.11c-26.15 0-48.155 16.225-48.155 39.01 0 10.356 6.378 16.225 14.67 16.225 8.93 0 14.67-6.904 14.67-15.88 0-4.143-1.595-15.535-16.265-15.88 8.61-12.083 24.237-15.88 34.442-15.88 15.624 0 33.802 13.463 33.802 44.188v12.773c-16.264 1.035-38.588 2.07-58.68 12.427-23.916 11.738-31.89 29.69-31.89 44.88 0 27.96 30.935 36.59 51.026 36.59 21.046 0 35.716-13.807 41.775-30.032z" fill="#B3B3B3"/><path d="M105.213 78.917v34.522c0 32.793-22.96 44.53-37.312 44.53-15.624 0-28.7-12.082-28.7-29.343 0-18.987 13.395-47.64 66.014-49.71z" fill="#fff"/><path d="M106.32 136.75h2.25v-2.435h-2.25v2.436zM131.195 165.058h2.25v-2.435h-2.25v2.435zM157.345 132.263h2.25v-2.436h-2.25v2.436zM157.345 112.93h2.25v-2.435h-2.25v2.436zM149.372 112.93h2.25v-2.435h-2.25v2.436zM149.372 132.263h2.25v-2.436h-2.25v2.436zM137.89 154.357h2.252v-2.436h-2.25v2.438zM126.092 137.096h2.25v-2.436h-2.25v2.436zM126.092 68.053h2.25v-2.436h-2.25v2.436zM114.612 27.317h2.25V24.88h-2.25v2.437zM70.922 8.33h2.25V5.894h-2.25V8.33zM22.767 47.34h2.25v-2.436h-2.25v2.436zM37.437 63.565h2.25V61.13h-2.25v2.435zM52.106 47.685h2.25V45.25h-2.25v2.435zM35.842 31.805h2.25V29.37h-2.25v2.435zM70.284 15.925h2.25V13.49h-2.25v2.435zM104.088 60.113h2.25v-2.436h-2.25v2.436zM104.088 72.886h2.25V70.45h-2.25v2.436zM45.41 85.313h2.25v-2.435h-2.25v2.435zM13.52 130.19h2.25v-2.434h-2.25v2.435zM64.544 166.784h2.25v-2.435h-2.25v2.433zM106.32 136.75h2.25v-2.435h-2.25v2.436zM104.088 80.135h2.25V77.7h-2.25v2.435zM104.088 114.657h2.25v-2.436h-2.25v2.438zM66.776 159.19h2.25v-2.436h-2.25v2.436zM38.075 129.846h2.25v-2.435h-2.25v2.437zM104.088 80.135h2.25V77.7h-2.25v2.435z" fill="#000"/></g></svg>