<svg width="110" height="170" viewBox="0 0 110 170" xmlns="http://www.w3.org/2000/svg"><title>bezier-vase.svg</title><desc>Created with bin/sketchtool.</desc><g fill="none" fill-rule="evenodd"><path d="M37.01 162.21c-19.503-39.603-19.503-79.205 0-118.807 6.5-13.2 6.5-26.4 0-39.602h39.005c-6.5 13.203-6.5 26.403 0 39.604 19.502 39.602 19.502 79.204 0 118.806H37.01z" stroke="#A0522D" stroke-width="2"/><path d="M37.01 3.8l9.75 19.802-39.004 79.204L37.01 162.21M76.015 3.8l-9.75 19.802 39.004 79.204-29.256 59.403" stroke="#000" stroke-width=".5" stroke-dasharray="2"/><g id="dot-link" transform="translate(5 1) translate(49.562 .821)" stroke="#000" fill="#fff"><ellipse id="dot" cx="1.95" cy="1.98" rx="1.95" ry="1.98"/></g><g id="dot-link" transform="translate(5 1) translate(30.06 .821)" stroke="#000" fill="#fff"><ellipse id="dot" cx="1.95" cy="1.98" rx="1.95" ry="1.98"/></g><g id="dot-link" transform="translate(5 1) translate(39.811 20.622)" stroke="#000" fill="#fff"><ellipse id="dot" cx="1.95" cy="1.98" rx="1.95" ry="1.98"/></g><g id="dot-link" transform="translate(5 1) translate(30.06 40.423)" stroke="#000" fill="#fff"><ellipse id="dot" cx="1.95" cy="1.98" rx="1.95" ry="1.98"/></g><g id="dot-link" transform="translate(5 1) translate(.806 99.826)" stroke="#000" fill="#fff"><ellipse id="dot" cx="1.95" cy="1.98" rx="1.95" ry="1.98"/></g><g id="dot-link" transform="translate(5 1) translate(30.06 159.229)" stroke="#000" fill="#fff"><ellipse id="dot" cx="1.95" cy="1.98" rx="1.95" ry="1.98"/></g><g id="dot-link" transform="translate(5 1) translate(69.065 .821)" stroke="#000" fill="#fff"><ellipse id="dot" cx="1.95" cy="1.98" rx="1.95" ry="1.98"/></g><g id="dot-link" transform="translate(5 1) translate(59.313 20.622)" stroke="#000" fill="#fff"><ellipse id="dot" cx="1.95" cy="1.98" rx="1.95" ry="1.98"/></g><g id="dot-link" transform="translate(5 1) translate(69.065 40.423)" stroke="#000" fill="#fff"><ellipse id="dot" cx="1.95" cy="1.98" rx="1.95" ry="1.98"/></g><g transform="translate(5 1) translate(98.318 99.826)" stroke="#000" fill="#fff"><ellipse cx="1.95" cy="1.98" rx="1.95" ry="1.98"/></g><ellipse cx="1.95" cy="1.98" rx="1.95" ry="1.98" transform="translate(5 1) translate(69.065 159.229)" stroke="#000" fill="#fff"/></g></svg>