<svg xmlns="http://www.w3.org/2000/svg" width="292" height="180" viewBox="0 0 292 180"><defs><style>@import url(https://fonts.googleapis.com/css?family=Open+Sans:bold,italic,bolditalic%7CPT+Mono);@font-face{font-family:&apos;PT Mono&apos;;font-weight:700;font-style:normal;src:local(&apos;PT MonoBold&apos;),url(/font/PTMonoBold.woff2) format(&apos;woff2&apos;),url(/font/PTMonoBold.woff) format(&apos;woff&apos;),url(/font/PTMonoBold.ttf) format(&apos;truetype&apos;)}</style></defs><g id="misc" fill="none" fill-rule="evenodd" stroke="none" stroke-width="1"><g id="proxy.svg"><path id="Rectangle-2" fill="#FFF9EB" stroke="#BCA68E" stroke-width="2" d="M191 81h69v26h-69z"/><text id="test:-5" fill="#8A704D" font-family="PTMono-Regular, PT Mono" font-size="14" font-weight="normal"><tspan x="198" y="98">test: 5</tspan></text><text id="proxy" fill="#000" font-family="PTMono-Regular, PT Mono" font-size="14" font-weight="normal"><tspan x="186" y="17">proxy</tspan></text><text id="target" fill="#000" font-family="PTMono-Regular, PT Mono" font-size="14" font-weight="normal"><tspan x="198" y="74">target</tspan></text><path id="Line" fill="#EE6B47" fill-rule="nonzero" d="M116.537 83.5H4.463v-3h112.074v-8l19 9.5-19 9.5v-8z"/><path id="Line-Copy-4" fill="#EE6B47" fill-rule="nonzero" d="M22 106.5h114.574v3H22v8L3 108l19-9.5v8z"/><path id="Line-Copy" fill="#EE6B47" fill-rule="nonzero" d="M190.478 89l-14 7V82l14 7zM142 90v-2h4v2h-4zm7 0v-2h4v2h-4zm7 0v-2h4v2h-4zm7 0v-2h4v2h-4zm7 0v-2h4v2h-4z"/><path id="Line-Copy-2" fill="#EE6B47" fill-rule="nonzero" d="M157 99h2v2h-2v6l-14-7 14-7v6zm5 2v-2h4v2h-4zm7 0v-2h4v2h-4zm7 0v-2h4v2h-4zm7 0v-2h4v2h-4z"/><text id="get-proxy.test" fill="#000" font-family="PTMono-Regular, PT Mono" font-size="14" font-weight="normal"><tspan x="7" y="70">get proxy.test</tspan></text><text id="5" fill="#000" font-family="PTMono-Regular, PT Mono" font-size="14" font-weight="normal"><tspan x="71" y="128">5</tspan></text><path id="Oval" stroke="#BCA68E" stroke-dasharray="5" stroke-width="2" d="M207 160c36.45 0 66-29.55 66-66s-29.55-66-66-66-66 29.55-66 66 29.55 66 66 66z"/></g></g></svg>