<svg xmlns="http://www.w3.org/2000/svg" width="195" height="145" viewBox="0 0 195 145"><defs><style>@import url(https://fonts.googleapis.com/css?family=Open+Sans:bold,italic,bolditalic%7CPT+Mono);@font-face{font-family:&apos;PT Mono&apos;;font-weight:700;font-style:normal;src:local(&apos;PT MonoBold&apos;),url(/font/PTMonoBold.woff2) format(&apos;woff2&apos;),url(/font/PTMonoBold.woff) format(&apos;woff&apos;),url(/font/PTMonoBold.ttf) format(&apos;truetype&apos;)}</style></defs><g id="binary" fill="none" fill-rule="evenodd" stroke="none" stroke-width="1"><g id="8bit-integer-256.svg"><path id="Rectangle-227" fill="#FBF2EC" stroke="#DBAF88" stroke-width="2" d="M24 33h100v28H24z"/><path id="100000000" fill="#181717" fill-rule="nonzero" d="M14.332 49.848h2.512v-8.416l-2.56 1.792-.624-.912 3.52-2.512h.896v10.048h2.464V51h-6.208v-1.152zM25.78 45.4c0-.907.08-1.72.24-2.44.16-.72.4-1.328.72-1.824.32-.496.725-.875 1.216-1.136.49-.261 1.072-.392 1.744-.392.715 0 1.32.128 1.816.384s.899.63 1.208 1.12c.31.49.533 1.096.672 1.816s.208 1.544.208 2.472c0 .907-.08 1.72-.24 2.44-.16.72-.4 1.328-.72 1.824-.32.496-.725.875-1.216 1.136-.49.261-1.072.392-1.744.392-.704 0-1.304-.141-1.8-.424a3.379 3.379 0 01-1.216-1.192c-.315-.512-.541-1.123-.68-1.832-.139-.71-.208-1.49-.208-2.344zm6.512 0c0-.565-.032-1.104-.096-1.616l-4.752 4.336c.181.608.453 1.093.816 1.456.363.363.837.544 1.424.544.939 0 1.608-.39 2.008-1.168.4-.779.6-1.963.6-3.552zm-5.184 0c0 .267.008.523.024.768s.035.485.056.72l4.768-4.32c-.181-.576-.45-1.035-.808-1.376-.357-.341-.84-.512-1.448-.512-.95 0-1.619.392-2.008 1.176-.39.784-.584 1.965-.584 3.544zm11.272 0c0-.907.08-1.72.24-2.44.16-.72.4-1.328.72-1.824.32-.496.725-.875 1.216-1.136.49-.261 1.072-.392 1.744-.392.715 0 1.32.128 1.816.384s.899.63 1.208 1.12c.31.49.533 1.096.672 1.816s.208 1.544.208 2.472c0 .907-.08 1.72-.24 2.44-.16.72-.4 1.328-.72 1.824-.32.496-.725.875-1.216 1.136-.49.261-1.072.392-1.744.392-.704 0-1.304-.141-1.8-.424a3.379 3.379 0 01-1.216-1.192c-.315-.512-.541-1.123-.68-1.832-.139-.71-.208-1.49-.208-2.344zm6.512 0c0-.565-.032-1.104-.096-1.616l-4.752 4.336c.181.608.453 1.093.816 1.456.363.363.837.544 1.424.544.939 0 1.608-.39 2.008-1.168.4-.779.6-1.963.6-3.552zm-5.184 0c0 .267.008.523.024.768s.035.485.056.72l4.768-4.32c-.181-.576-.45-1.035-.808-1.376-.357-.341-.84-.512-1.448-.512-.95 0-1.619.392-2.008 1.176-.39.784-.584 1.965-.584 3.544zm11.272 0c0-.907.08-1.72.24-2.44.16-.72.4-1.328.72-1.824.32-.496.725-.875 1.216-1.136.49-.261 1.072-.392 1.744-.392.715 0 1.32.128 1.816.384s.899.63 1.208 1.12c.31.49.533 1.096.672 1.816s.208 1.544.208 2.472c0 .907-.08 1.72-.24 2.44-.16.72-.4 1.328-.72 1.824-.32.496-.725.875-1.216 1.136-.49.261-1.072.392-1.744.392-.704 0-1.304-.141-1.8-.424a3.379 3.379 0 01-1.216-1.192c-.315-.512-.541-1.123-.68-1.832-.139-.71-.208-1.49-.208-2.344zm6.512 0c0-.565-.032-1.104-.096-1.616l-4.752 4.336c.181.608.453 1.093.816 1.456.363.363.837.544 1.424.544.939 0 1.608-.39 2.008-1.168.4-.779.6-1.963.6-3.552zm-5.184 0c0 .267.008.523.024.768s.035.485.056.72l4.768-4.32c-.181-.576-.45-1.035-.808-1.376-.357-.341-.84-.512-1.448-.512-.95 0-1.619.392-2.008 1.176-.39.784-.584 1.965-.584 3.544zm11.272 0c0-.907.08-1.72.24-2.44.16-.72.4-1.328.72-1.824.32-.496.725-.875 1.216-1.136.49-.261 1.072-.392 1.744-.392.715 0 1.32.128 1.816.384s.899.63 1.208 1.12c.31.49.533 1.096.672 1.816s.208 1.544.208 2.472c0 .907-.08 1.72-.24 2.44-.16.72-.4 1.328-.72 1.824-.32.496-.725.875-1.216 1.136-.49.261-1.072.392-1.744.392-.704 0-1.304-.141-1.8-.424a3.379 3.379 0 01-1.216-1.192c-.315-.512-.541-1.123-.68-1.832-.139-.71-.208-1.49-.208-2.344zm6.512 0c0-.565-.032-1.104-.096-1.616l-4.752 4.336c.181.608.453 1.093.816 1.456.363.363.837.544 1.424.544.939 0 1.608-.39 2.008-1.168.4-.779.6-1.963.6-3.552zm-5.184 0c0 .267.008.523.024.768s.035.485.056.72l4.768-4.32c-.181-.576-.45-1.035-.808-1.376-.357-.341-.84-.512-1.448-.512-.95 0-1.619.392-2.008 1.176-.39.784-.584 1.965-.584 3.544zm11.272 0c0-.907.08-1.72.24-2.44.16-.72.4-1.328.72-1.824.32-.496.725-.875 1.216-1.136.49-.261 1.072-.392 1.744-.392.715 0 1.32.128 1.816.384s.899.63 1.208 1.12c.31.49.533 1.096.672 1.816s.208 1.544.208 2.472c0 .907-.08 1.72-.24 2.44-.16.72-.4 1.328-.72 1.824-.32.496-.725.875-1.216 1.136-.49.261-1.072.392-1.744.392-.704 0-1.304-.141-1.8-.424a3.379 3.379 0 01-1.216-1.192c-.315-.512-.541-1.123-.68-1.832-.139-.71-.208-1.49-.208-2.344zm6.512 0c0-.565-.032-1.104-.096-1.616l-4.752 4.336c.181.608.453 1.093.816 1.456.363.363.837.544 1.424.544.939 0 1.608-.39 2.008-1.168.4-.779.6-1.963.6-3.552zm-5.184 0c0 .267.008.523.024.768s.035.485.056.72l4.768-4.32c-.181-.576-.45-1.035-.808-1.376-.357-.341-.84-.512-1.448-.512-.95 0-1.619.392-2.008 1.176-.39.784-.584 1.965-.584 3.544zm11.272 0c0-.907.08-1.72.24-2.44.16-.72.4-1.328.72-1.824.32-.496.725-.875 1.216-1.136.49-.261 1.072-.392 1.744-.392.715 0 1.32.128 1.816.384s.899.63 1.208 1.12c.31.49.533 1.096.672 1.816s.208 1.544.208 2.472c0 .907-.08 1.72-.24 2.44-.16.72-.4 1.328-.72 1.824-.32.496-.725.875-1.216 1.136-.49.261-1.072.392-1.744.392-.704 0-1.304-.141-1.8-.424a3.379 3.379 0 01-1.216-1.192c-.315-.512-.541-1.123-.68-1.832-.139-.71-.208-1.49-.208-2.344zm6.512 0c0-.565-.032-1.104-.096-1.616l-4.752 4.336c.181.608.453 1.093.816 1.456.363.363.837.544 1.424.544.939 0 1.608-.39 2.008-1.168.4-.779.6-1.963.6-3.552zm-5.184 0c0 .267.008.523.024.768s.035.485.056.72l4.768-4.32c-.181-.576-.45-1.035-.808-1.376-.357-.341-.84-.512-1.448-.512-.95 0-1.619.392-2.008 1.176-.39.784-.584 1.965-.584 3.544zm11.272 0c0-.907.08-1.72.24-2.44.16-.72.4-1.328.72-1.824.32-.496.725-.875 1.216-1.136.49-.261 1.072-.392 1.744-.392.715 0 1.32.128 1.816.384s.899.63 1.208 1.12c.31.49.533 1.096.672 1.816s.208 1.544.208 2.472c0 .907-.08 1.72-.24 2.44-.16.72-.4 1.328-.72 1.824-.32.496-.725.875-1.216 1.136-.49.261-1.072.392-1.744.392-.704 0-1.304-.141-1.8-.424a3.379 3.379 0 01-1.216-1.192c-.315-.512-.541-1.123-.68-1.832-.139-.71-.208-1.49-.208-2.344zm6.512 0c0-.565-.032-1.104-.096-1.616l-4.752 4.336c.181.608.453 1.093.816 1.456.363.363.837.544 1.424.544.939 0 1.608-.39 2.008-1.168.4-.779.6-1.963.6-3.552zm-5.184 0c0 .267.008.523.024.768s.035.485.056.72l4.768-4.32c-.181-.576-.45-1.035-.808-1.376-.357-.341-.84-.512-1.448-.512-.95 0-1.619.392-2.008 1.176-.39.784-.584 1.965-.584 3.544zm11.272 0c0-.907.08-1.72.24-2.44.16-.72.4-1.328.72-1.824.32-.496.725-.875 1.216-1.136.49-.261 1.072-.392 1.744-.392.715 0 1.32.128 1.816.384s.899.63 1.208 1.12c.31.49.533 1.096.672 1.816s.208 1.544.208 2.472c0 .907-.08 1.72-.24 2.44-.16.72-.4 1.328-.72 1.824-.32.496-.725.875-1.216 1.136-.49.261-1.072.392-1.744.392-.704 0-1.304-.141-1.8-.424a3.379 3.379 0 01-1.216-1.192c-.315-.512-.541-1.123-.68-1.832-.139-.71-.208-1.49-.208-2.344zm6.512 0c0-.565-.032-1.104-.096-1.616l-4.752 4.336c.181.608.453 1.093.816 1.456.363.363.837.544 1.424.544.939 0 1.608-.39 2.008-1.168.4-.779.6-1.963.6-3.552zm-5.184 0c0 .267.008.523.024.768s.035.485.056.72l4.768-4.32c-.181-.576-.45-1.035-.808-1.376-.357-.341-.84-.512-1.448-.512-.95 0-1.619.392-2.008 1.176-.39.784-.584 1.965-.584 3.544z"/><text id="8-bit-integer" fill="#181717" font-family="OpenSans-Regular, Open Sans" font-size="16" font-weight="normal"><tspan x="28.141" y="25">8-bit integer</tspan></text><text id="256" fill="#7E7C7B" font-family="OpenSans-Regular, Open Sans" font-size="16" font-weight="normal"><tspan x="135.777" y="51">256</tspan></text></g></g></svg>