<svg xmlns="http://www.w3.org/2000/svg" width="707" height="463" viewBox="0 0 707 463"><defs><style>@import url(https://fonts.googleapis.com/css?family=Open+Sans:bold,italic,bolditalic%7CPT+Mono);@font-face{font-family:&apos;PT Mono&apos;;font-weight:700;font-style:normal;src:local(&apos;PT MonoBold&apos;),url(/font/PTMonoBold.woff2) format(&apos;woff2&apos;),url(/font/PTMonoBold.woff) format(&apos;woff&apos;),url(/font/PTMonoBold.ttf) format(&apos;truetype&apos;)}</style></defs><g id="binary" fill="none" fill-rule="evenodd" stroke="none" stroke-width="1"><g id="arraybuffer-view-buffersource.svg"><path id="Rectangle" fill="#D1CFCD" stroke="#7E7C7B" d="M238.5 44.5h449v391h-449z"/><path id="Rectangle-227" fill="#FBF2EC" stroke="#DBAF88" stroke-width="2" d="M237 61h31v58h-31z"/><path id="Rectangle-227-Copy" fill="#FBF2EC" stroke="#DBAF88" stroke-width="2" d="M268 61h28v58h-28z"/><path id="Rectangle-227-Copy-3" fill="#FBF2EC" stroke="#DBAF88" stroke-width="2" d="M296 61h28v58h-28z"/><path id="Rectangle-227-Copy-2" fill="#FBF2EC" stroke="#DBAF88" stroke-width="2" d="M324 61h28v58h-28z"/><path id="Rectangle-227" fill="#FBF2EC" stroke="#DBAF88" stroke-width="2" d="M352 61h28v58h-28z"/><path id="Rectangle-227-Copy" fill="#FBF2EC" stroke="#DBAF88" stroke-width="2" d="M380 61h28v58h-28z"/><path id="Rectangle-227-Copy-3" fill="#FBF2EC" stroke="#DBAF88" stroke-width="2" d="M408 61h28v58h-28z"/><path id="Rectangle-227-Copy-2" fill="#FBF2EC" stroke="#DBAF88" stroke-width="2" d="M436 61h28v58h-28z"/><path id="Rectangle-227" fill="#FBF2EC" stroke="#DBAF88" stroke-width="2" d="M463 61h28v58h-28z"/><path id="Rectangle-227-Copy" fill="#FBF2EC" stroke="#DBAF88" stroke-width="2" d="M491 61h28v58h-28z"/><path id="Rectangle-227-Copy-3" fill="#FBF2EC" stroke="#DBAF88" stroke-width="2" d="M519 61h28v58h-28z"/><path id="Rectangle-227-Copy-2" fill="#FBF2EC" stroke="#DBAF88" stroke-width="2" d="M547 61h28v58h-28z"/><path id="Rectangle-227" fill="#FBF2EC" stroke="#DBAF88" stroke-width="2" d="M575 61h28v58h-28z"/><path id="Rectangle-227-Copy" fill="#FBF2EC" stroke="#DBAF88" stroke-width="2" d="M603 61h28v58h-28z"/><path id="Rectangle-227-Copy-3" fill="#FBF2EC" stroke="#DBAF88" stroke-width="2" d="M631 61h28v58h-28z"/><path id="Rectangle-227-Copy-2" fill="#FBF2EC" stroke="#DBAF88" stroke-width="2" d="M659 61h28v58h-28z"/><path id="Rectangle-227-Copy-19" fill="#FBF2EC" stroke="#DBAF88" stroke-width="2" d="M237 155h59v44h-59z"/><path id="Rectangle-227-Copy-22" fill="#FBF2EC" stroke="#DBAF88" stroke-width="2" d="M82 155h157v44H82z"/><path id="Rectangle-227-Copy-17" fill="#FBF2EC" stroke="#DBAF88" stroke-width="2" d="M296 155h56v44h-56z"/><path id="Rectangle-227-Copy-15" fill="#FBF2EC" stroke="#DBAF88" stroke-width="2" d="M352 155h56v44h-56z"/><text id="0-copy" fill="#181717" font-family="PTMono-Regular, PT Mono" font-size="14" font-weight="normal"><tspan x="263.8" y="180">0</tspan></text><text id="2" fill="#181717" font-family="PTMono-Regular, PT Mono" font-size="14" font-weight="normal"><tspan x="375.8" y="180">2</tspan></text><text id="1" fill="#181717" font-family="PTMono-Regular, PT Mono" font-size="14" font-weight="normal"><tspan x="320.8" y="180">1</tspan></text><path id="Rectangle-227-Copy-13" fill="#FBF2EC" stroke="#DBAF88" stroke-width="2" d="M408 155h56v44h-56z"/><text id="3" fill="#181717" font-family="PTMono-Regular, PT Mono" font-size="14" font-weight="normal"><tspan x="431.8" y="180">3</tspan></text><path id="Rectangle-227-Copy-11" fill="#FBF2EC" stroke="#DBAF88" stroke-width="2" d="M463 155h56v44h-56z"/><path id="Rectangle-227-Copy-9" fill="#FBF2EC" stroke="#DBAF88" stroke-width="2" d="M519 155h56v44h-56z"/><path id="Rectangle-227-Copy-7" fill="#FBF2EC" stroke="#DBAF88" stroke-width="2" d="M575 155h56v44h-56z"/><path id="Rectangle-227-Copy-5" fill="#FBF2EC" stroke="#DBAF88" stroke-width="2" d="M631 155h56v44h-56z"/><text id="4" fill="#181717" font-family="PTMono-Regular, PT Mono" font-size="14" font-weight="normal"><tspan x="485.8" y="180">4</tspan></text><text id="5" fill="#181717" font-family="PTMono-Regular, PT Mono" font-size="14" font-weight="normal"><tspan x="541.8" y="180">5</tspan></text><text id="6" fill="#181717" font-family="PTMono-Regular, PT Mono" font-size="14" font-weight="normal"><tspan x="597.8" y="180">6</tspan></text><text id="7" fill="#181717" font-family="PTMono-Regular, PT Mono" font-size="14" font-weight="normal"><tspan x="654.8" y="180">7</tspan></text><path id="Rectangle-227-Copy-20" fill="#FBF2EC" stroke="#DBAF88" stroke-width="2" d="M236 234h116v58H236z"/><path id="Rectangle-227-Copy-23" fill="#FBF2EC" stroke="#DBAF88" stroke-width="2" d="M238 234v58H82v-58h156z"/><path id="Rectangle-227-Copy-16" fill="#FBF2EC" stroke="#DBAF88" stroke-width="2" d="M352 234h112v58H352z"/><text id="0-copy-2" fill="#181717" font-family="PTMono-Regular, PT Mono" font-size="14" font-weight="normal"><tspan x="293" y="267">0</tspan></text><text id="1" fill="#181717" font-family="PTMono-Regular, PT Mono" font-size="14" font-weight="normal"><tspan x="404" y="267">1</tspan></text><path id="Rectangle-227-Copy-12" fill="#FBF2EC" stroke="#DBAF88" stroke-width="2" d="M463 234h112v58H463z"/><path id="Rectangle-227-Copy-8" fill="#FBF2EC" stroke="#DBAF88" stroke-width="2" d="M575 234h112v58H575z"/><text id="2" fill="#181717" font-family="PTMono-Regular, PT Mono" font-size="14" font-weight="normal"><tspan x="516" y="267">2</tspan></text><text id="3" fill="#181717" font-family="PTMono-Regular, PT Mono" font-size="14" font-weight="normal"><tspan x="628" y="267">3</tspan></text><path id="Rectangle-227-Copy-21" fill="#FBF2EC" stroke="#DBAF88" stroke-width="2" d="M237 328h227v28H237z"/><text id="0" fill="#181717" font-family="PTMono-Regular, PT Mono" font-size="14" font-weight="normal"><tspan x="348.8" y="346">0</tspan></text><path id="Rectangle-227-Copy-14" fill="#FBF2EC" stroke="#DBAF88" stroke-width="2" d="M463 328h224v28H463z"/><text id="1" fill="#181717" font-family="PTMono-Regular, PT Mono" font-size="14" font-weight="normal"><tspan x="569.8" y="345">1</tspan></text><text id="new-ArrayBuffer(16)" fill="#181717" font-family="PTMono-Regular, PT Mono" font-size="16" font-weight="normal"><tspan x="330.8" y="26">new ArrayBuffer(16)</tspan></text><text id="ArrayBufferView" fill="#181717" font-family="PTMono-Regular, PT Mono" font-size="16" font-weight="normal" transform="rotate(-90 50 236)"><tspan x="-22" y="241">ArrayBufferView</tspan></text><text id="Uint16Array-Int16Arr" fill="#181717" font-family="PTMono-Regular, PT Mono" font-size="14" font-weight="normal"><tspan x="115.3" y="172">Uint16Array</tspan> <tspan x="119.5" y="188">Int16Array</tspan></text><path id="Rectangle-227-Copy-25" fill="#FBF2EC" stroke="#DBAF88" stroke-width="2" d="M82 61h157v58H82z"/><text id="Uint8Array-Int8Array" fill="#181717" font-family="PTMono-Regular, PT Mono" font-size="14" font-weight="normal"><tspan x="119.5" y="79">Uint8Array</tspan> <tspan x="123.7" y="94">Int8Array</tspan> <tspan x="90.1" y="109">Uint8ClampedArray</tspan></text><text id="Uint32Array-Int32Arr" fill="#181717" font-family="PTMono-Regular, PT Mono" font-size="14" font-weight="normal"><tspan x="114.3" y="248">Uint32Array</tspan> <tspan x="118.5" y="264">Int32Array</tspan> <tspan x="110.1" y="280">Float32Array</tspan></text><path id="Rectangle-227-Copy-24" fill="#FBF2EC" stroke="#DBAF88" stroke-width="2" d="M238 328v28H82v-28h156z"/><path id="Rectangle-227-Copy-27" fill="#FBF2EC" stroke="#DBAF88" stroke-width="2" d="M238 391h449v28H238z"/><path id="Rectangle-227-Copy-26" fill="#FBF2EC" stroke="#DBAF88" stroke-width="2" d="M238 391v28H82v-28h156z"/><text id="Float64Array-Copy" fill="#181717" font-family="PTMono-Regular, PT Mono" font-size="14" font-weight="normal"><tspan x="111.1" y="345">Float64Array</tspan></text><text id="DataView" fill="#181717" font-family="PTMono-Regular, PT Mono" font-size="14" font-weight="normal"><tspan x="128.4" y="408">DataView</tspan></text><text id="get/setUint8(offset)" fill="#181717" font-family="PTMono-Regular, PT Mono" font-size="14" font-weight="normal"><tspan x="243.3" y="409">get/setUint8(offset) get/setFloat32(offset)...</tspan></text><text id="BufferSource" fill="#181717" font-family="PTMono-Regular, PT Mono" font-size="16" font-weight="normal"><tspan x="11.4" y="28">BufferSource</tspan></text><path id="Line-2" fill="#C06334" fill-rule="nonzero" d="M51.5 42.5v51h8l-9.5 19-9.5-19h8v-51h3z"/><path id="Line-2-Copy" fill="#C06334" fill-rule="nonzero" d="M192.5 14.5l19 9.5-19 9.5v-8h-49v-3h49v-8z"/><text id="1" fill="#181717" font-family="PTMono-Regular, PT Mono" font-size="14" font-weight="normal"><tspan x="276.8" y="92">1</tspan></text><text id="0" fill="#181717" font-family="PTMono-Regular, PT Mono" font-size="14" font-weight="normal"><tspan x="249.8" y="92">0</tspan></text><text id="2" fill="#181717" font-family="PTMono-Regular, PT Mono" font-size="14" font-weight="normal"><tspan x="304.8" y="92">2</tspan></text><text id="3" fill="#181717" font-family="PTMono-Regular, PT Mono" font-size="14" font-weight="normal"><tspan x="332.8" y="92">3</tspan></text><text id="4" fill="#181717" font-family="PTMono-Regular, PT Mono" font-size="14" font-weight="normal"><tspan x="360.8" y="92">4</tspan></text><text id="5" fill="#181717" font-family="PTMono-Regular, PT Mono" font-size="14" font-weight="normal"><tspan x="388.8" y="92">5</tspan></text><text id="6" fill="#181717" font-family="PTMono-Regular, PT Mono" font-size="14" font-weight="normal"><tspan x="416.8" y="92">6</tspan></text><text id="7" fill="#181717" font-family="PTMono-Regular, PT Mono" font-size="14" font-weight="normal"><tspan x="444.8" y="92">7</tspan></text><text id="8" fill="#181717" font-family="PTMono-Regular, PT Mono" font-size="14" font-weight="normal"><tspan x="471.8" y="92">8</tspan></text><text id="9" fill="#181717" font-family="PTMono-Regular, PT Mono" font-size="14" font-weight="normal"><tspan x="499.8" y="92">9</tspan></text><text id="10" fill="#181717" font-family="PTMono-Regular, PT Mono" font-size="14" font-weight="normal"><tspan x="524.6" y="92">10</tspan></text><text id="11" fill="#181717" font-family="PTMono-Regular, PT Mono" font-size="14" font-weight="normal"><tspan x="551.6" y="92">11</tspan></text><text id="12" fill="#181717" font-family="PTMono-Regular, PT Mono" font-size="14" font-weight="normal"><tspan x="579.6" y="92">12</tspan></text><text id="13" fill="#181717" font-family="PTMono-Regular, PT Mono" font-size="14" font-weight="normal"><tspan x="608.6" y="92">13</tspan></text><text id="14" fill="#181717" font-family="PTMono-Regular, PT Mono" font-size="14" font-weight="normal"><tspan x="636.6" y="92">14</tspan></text><text id="15" fill="#181717" font-family="PTMono-Regular, PT Mono" font-size="14" font-weight="normal"><tspan x="663.6" y="92">15</tspan></text></g></g></svg>