<svg xmlns="http://www.w3.org/2000/svg" width="603" height="286" viewBox="0 0 603 286"><defs><style>@import url(https://fonts.googleapis.com/css?family=Open+Sans:bold,italic,bolditalic%7CPT+Mono);@font-face{font-family:&apos;PT Mono&apos;;font-weight:700;font-style:normal;src:local(&apos;PT MonoBold&apos;),url(/font/PTMonoBold.woff2) format(&apos;woff2&apos;),url(/font/PTMonoBold.woff) format(&apos;woff&apos;),url(/font/PTMonoBold.ttf) format(&apos;truetype&apos;)}</style></defs><g id="binary" fill="none" fill-rule="evenodd" stroke="none" stroke-width="1"><g id="arraybuffer-views.svg"><path id="Rectangle" fill="#D1CFCD" stroke="#7E7C7B" d="M127.5 52.5h448v198h-448z"/><path id="Rectangle-227" fill="#FBF2EC" stroke="#DBAF88" stroke-width="2" d="M126 72h31v28h-31z"/><path id="Rectangle-227-Copy" fill="#FBF2EC" stroke="#DBAF88" stroke-width="2" d="M157 72h28v28h-28z"/><path id="Rectangle-227-Copy-3" fill="#FBF2EC" stroke="#DBAF88" stroke-width="2" d="M185 72h28v28h-28z"/><path id="Rectangle-227-Copy-2" fill="#FBF2EC" stroke="#DBAF88" stroke-width="2" d="M213 72h28v28h-28z"/><path id="Rectangle-227" fill="#FBF2EC" stroke="#DBAF88" stroke-width="2" d="M241 72h28v28h-28z"/><path id="Rectangle-227-Copy" fill="#FBF2EC" stroke="#DBAF88" stroke-width="2" d="M269 72h28v28h-28z"/><path id="Rectangle-227-Copy-3" fill="#FBF2EC" stroke="#DBAF88" stroke-width="2" d="M297 72h28v28h-28z"/><path id="Rectangle-227-Copy-2" fill="#FBF2EC" stroke="#DBAF88" stroke-width="2" d="M325 72h28v28h-28z"/><path id="Rectangle-227" fill="#FBF2EC" stroke="#DBAF88" stroke-width="2" d="M352 72h28v28h-28z"/><path id="Rectangle-227-Copy" fill="#FBF2EC" stroke="#DBAF88" stroke-width="2" d="M380 72h28v28h-28z"/><path id="Rectangle-227-Copy-3" fill="#FBF2EC" stroke="#DBAF88" stroke-width="2" d="M408 72h28v28h-28z"/><path id="Rectangle-227-Copy-2" fill="#FBF2EC" stroke="#DBAF88" stroke-width="2" d="M436 72h28v28h-28z"/><path id="Rectangle-227" fill="#FBF2EC" stroke="#DBAF88" stroke-width="2" d="M464 72h28v28h-28z"/><path id="Rectangle-227-Copy" fill="#FBF2EC" stroke="#DBAF88" stroke-width="2" d="M492 72h28v28h-28z"/><path id="Rectangle-227-Copy-3" fill="#FBF2EC" stroke="#DBAF88" stroke-width="2" d="M520 72h28v28h-28z"/><path id="Rectangle-227-Copy-2" fill="#FBF2EC" stroke="#DBAF88" stroke-width="2" d="M548 72h28v28h-28z"/><path id="Rectangle-227-Copy-19" fill="#FBF2EC" stroke="#DBAF88" stroke-width="2" d="M126 116h59v28h-59z"/><path id="Rectangle-227-Copy-22" fill="#FBF2EC" stroke="#DBAF88" stroke-width="2" d="M21 116h107v28H21z"/><path id="Rectangle-227-Copy-17" fill="#FBF2EC" stroke="#DBAF88" stroke-width="2" d="M185 116h56v28h-56z"/><path id="Rectangle-227-Copy-15" fill="#FBF2EC" stroke="#DBAF88" stroke-width="2" d="M241 116h56v28h-56z"/><text id="1" fill="#181717" font-family="PTMono-Regular, PT Mono" font-size="14" font-weight="normal"><tspan x="166.8" y="89">1</tspan></text><text id="0" fill="#181717" font-family="PTMono-Regular, PT Mono" font-size="14" font-weight="normal"><tspan x="139.8" y="89">0</tspan></text><text id="0-copy" fill="#181717" font-family="PTMono-Regular, PT Mono" font-size="14" font-weight="normal"><tspan x="152.8" y="134">0</tspan></text><text id="2" fill="#181717" font-family="PTMono-Regular, PT Mono" font-size="14" font-weight="normal"><tspan x="264.8" y="134">2</tspan></text><text id="1" fill="#181717" font-family="PTMono-Regular, PT Mono" font-size="14" font-weight="normal"><tspan x="209.8" y="134">1</tspan></text><path id="Rectangle-227-Copy-13" fill="#FBF2EC" stroke="#DBAF88" stroke-width="2" d="M297 116h56v28h-56z"/><text id="3" fill="#181717" font-family="PTMono-Regular, PT Mono" font-size="14" font-weight="normal"><tspan x="320.8" y="134">3</tspan></text><path id="Rectangle-227-Copy-11" fill="#FBF2EC" stroke="#DBAF88" stroke-width="2" d="M352 116h56v28h-56z"/><path id="Rectangle-227-Copy-9" fill="#FBF2EC" stroke="#DBAF88" stroke-width="2" d="M408 116h56v28h-56z"/><path id="Rectangle-227-Copy-7" fill="#FBF2EC" stroke="#DBAF88" stroke-width="2" d="M464 116h56v28h-56z"/><path id="Rectangle-227-Copy-5" fill="#FBF2EC" stroke="#DBAF88" stroke-width="2" d="M520 116h56v28h-56z"/><text id="2" fill="#181717" font-family="PTMono-Regular, PT Mono" font-size="14" font-weight="normal"><tspan x="194.8" y="89">2</tspan></text><text id="3" fill="#181717" font-family="PTMono-Regular, PT Mono" font-size="14" font-weight="normal"><tspan x="222.8" y="89">3</tspan></text><text id="4" fill="#181717" font-family="PTMono-Regular, PT Mono" font-size="14" font-weight="normal"><tspan x="250.8" y="89">4</tspan></text><text id="5" fill="#181717" font-family="PTMono-Regular, PT Mono" font-size="14" font-weight="normal"><tspan x="278.8" y="89">5</tspan></text><text id="6" fill="#181717" font-family="PTMono-Regular, PT Mono" font-size="14" font-weight="normal"><tspan x="306.8" y="89">6</tspan></text><text id="7" fill="#181717" font-family="PTMono-Regular, PT Mono" font-size="14" font-weight="normal"><tspan x="334.8" y="89">7</tspan></text><text id="8" fill="#181717" font-family="PTMono-Regular, PT Mono" font-size="14" font-weight="normal"><tspan x="361.8" y="89">8</tspan></text><text id="9" fill="#181717" font-family="PTMono-Regular, PT Mono" font-size="14" font-weight="normal"><tspan x="389.8" y="89">9</tspan></text><text id="10" fill="#181717" font-family="PTMono-Regular, PT Mono" font-size="14" font-weight="normal"><tspan x="413.6" y="89">10</tspan></text><text id="11" fill="#181717" font-family="PTMono-Regular, PT Mono" font-size="14" font-weight="normal"><tspan x="440.6" y="89">11</tspan></text><text id="12" fill="#181717" font-family="PTMono-Regular, PT Mono" font-size="14" font-weight="normal"><tspan x="469.6" y="89">12</tspan></text><text id="13" fill="#181717" font-family="PTMono-Regular, PT Mono" font-size="14" font-weight="normal"><tspan x="497.6" y="89">13</tspan></text><text id="14" fill="#181717" font-family="PTMono-Regular, PT Mono" font-size="14" font-weight="normal"><tspan x="525.6" y="89">14</tspan></text><text id="15" fill="#181717" font-family="PTMono-Regular, PT Mono" font-size="14" font-weight="normal"><tspan x="553.6" y="89">15</tspan></text><text id="4" fill="#181717" font-family="PTMono-Regular, PT Mono" font-size="14" font-weight="normal"><tspan x="374.8" y="134">4</tspan></text><text id="5" fill="#181717" font-family="PTMono-Regular, PT Mono" font-size="14" font-weight="normal"><tspan x="430.8" y="134">5</tspan></text><text id="6" fill="#181717" font-family="PTMono-Regular, PT Mono" font-size="14" font-weight="normal"><tspan x="486.8" y="134">6</tspan></text><text id="7" fill="#181717" font-family="PTMono-Regular, PT Mono" font-size="14" font-weight="normal"><tspan x="543.8" y="134">7</tspan></text><path id="Rectangle-227-Copy-20" fill="#FBF2EC" stroke="#DBAF88" stroke-width="2" d="M125 160h116v28H125z"/><path id="Rectangle-227-Copy-23" fill="#FBF2EC" stroke="#DBAF88" stroke-width="2" d="M21 160h106v28H21z"/><path id="Rectangle-227-Copy-16" fill="#FBF2EC" stroke="#DBAF88" stroke-width="2" d="M241 160h112v28H241z"/><text id="0-copy-2" fill="#181717" font-family="PTMono-Regular, PT Mono" font-size="14" font-weight="normal"><tspan x="180.8" y="178">0</tspan></text><text id="1" fill="#181717" font-family="PTMono-Regular, PT Mono" font-size="14" font-weight="normal"><tspan x="291.8" y="178">1</tspan></text><path id="Rectangle-227-Copy-12" fill="#FBF2EC" stroke="#DBAF88" stroke-width="2" d="M352 160h112v28H352z"/><path id="Rectangle-227-Copy-8" fill="#FBF2EC" stroke="#DBAF88" stroke-width="2" d="M464 160h112v28H464z"/><text id="2" fill="#181717" font-family="PTMono-Regular, PT Mono" font-size="14" font-weight="normal"><tspan x="403.8" y="178">2</tspan></text><text id="3" fill="#181717" font-family="PTMono-Regular, PT Mono" font-size="14" font-weight="normal"><tspan x="516.8" y="178">3</tspan></text><path id="Rectangle-227-Copy-21" fill="#FBF2EC" stroke="#DBAF88" stroke-width="2" d="M126 204h227v28H126z"/><text id="0" fill="#181717" font-family="PTMono-Regular, PT Mono" font-size="14" font-weight="normal"><tspan x="237.8" y="222">0</tspan></text><path id="Rectangle-227-Copy-14" fill="#FBF2EC" stroke="#DBAF88" stroke-width="2" d="M352 204h224v28H352z"/><text id="1" fill="#181717" font-family="PTMono-Regular, PT Mono" font-size="14" font-weight="normal"><tspan x="458.8" y="221">1</tspan></text><text id="new-ArrayBuffer(16)" fill="#181717" font-family="PTMono-Regular, PT Mono" font-size="14" font-weight="normal"><tspan x="121.7" y="38">new ArrayBuffer(16)</tspan></text><text id="Uint16Array" fill="#181717" font-family="PTMono-Regular, PT Mono" font-size="14" font-weight="normal"><tspan x="28.3" y="133">Uint16Array</tspan></text><path id="Rectangle-227-Copy-25" fill="#FBF2EC" stroke="#DBAF88" stroke-width="2" d="M21 72h107v28H21z"/><text id="Uint8Array" fill="#181717" font-family="PTMono-Regular, PT Mono" font-size="14" font-weight="normal"><tspan x="32.5" y="89">Uint8Array</tspan></text><text id="Uint32Array" fill="#181717" font-family="PTMono-Regular, PT Mono" font-size="14" font-weight="normal"><tspan x="27.3" y="177">Uint32Array</tspan></text><path id="Rectangle-227-Copy-24" fill="#FBF2EC" stroke="#DBAF88" stroke-width="2" d="M21 204h106v28H21z"/><text id="Float64Array" fill="#181717" font-family="PTMono-Regular, PT Mono" font-size="14" font-weight="normal"><tspan x="23.1" y="221">Float64Array</tspan></text></g></g></svg>