<svg xmlns="http://www.w3.org/2000/svg" width="353" height="216" viewBox="0 0 353 216"><defs><style>@import url(https://fonts.googleapis.com/css?family=Open+Sans:bold,italic,bolditalic%7CPT+Mono);@font-face{font-family:&apos;PT Mono&apos;;font-weight:700;font-style:normal;src:local(&apos;PT MonoBold&apos;),url(/font/PTMonoBold.woff2) format(&apos;woff2&apos;),url(/font/PTMonoBold.woff) format(&apos;woff&apos;),url(/font/PTMonoBold.ttf) format(&apos;truetype&apos;)}</style></defs><g id="dom" fill="none" fill-rule="evenodd" stroke="none" stroke-width="1"><g id="event-order-bubbling.svg"><path id="Rectangle-210" fill="#DBAF88" d="M159.488 140L174 186H60l14.512-46z"/><path id="Rectangle-209" stroke="#91C2A3" stroke-width="18" d="M173.634 81l16.09 51H43.276l16.09-51h114.267z"/><path id="Rectangle-208" stroke="#EFA39F" stroke-width="18" d="M39.986 29h153.028l22.71 72H17.276l22.71-72z"/><path id="Fill-46" fill="#166388" d="M121.5 141v13.816a4.5 4.5 0 11-9 0V141h9zm0-31v13h-9v-13h9zM117 20.53a4.471 4.471 0 013.362 1.3l17.64 17.64a4.5 4.5 0 01-6.364 6.364L121.5 35.698V92h-9V35.7l-10.138 10.136a4.5 4.5 0 11-6.363-6.364l17.639-17.64a4.477 4.477 0 013.363-1.3z"/><text id="1" fill="#643B0C" font-family="PTMono-Bold, PT Mono" font-size="14" font-weight="bold"><tspan x="210" y="105">1</tspan></text><text id="2" fill="#643B0C" font-family="PTMono-Bold, PT Mono" font-size="14" font-weight="bold"><tspan x="185" y="136">2</tspan></text><text id="3" fill="#C06334" font-family="PTMono-Bold, PT Mono" font-size="14" font-weight="bold"><tspan x="157" y="181">3</tspan></text><text id="Most-deeply-nested-e" fill="#AF6E24" font-family="OpenSans-Bold, Open Sans" font-size="14" font-weight="bold"><tspan x="233.48" y="175">Most deeply</tspan> <tspan x="221.306" y="194">nested element</tspan></text><path id="Line-30" stroke="#C06334" stroke-dasharray="3,6" stroke-linecap="square" stroke-width="2" d="M179.5 177.5h30"/></g></g></svg>