<svg xmlns="http://www.w3.org/2000/svg" width="641" height="633" viewBox="0 0 641 633"><defs><style>@import url(https://fonts.googleapis.com/css?family=Open+Sans:bold,italic,bolditalic%7CPT+Mono);@font-face{font-family:&apos;PT Mono&apos;;font-weight:700;font-style:normal;src:local(&apos;PT MonoBold&apos;),url(/font/PTMonoBold.woff2) format(&apos;woff2&apos;),url(/font/PTMonoBold.woff) format(&apos;woff&apos;),url(/font/PTMonoBold.ttf) format(&apos;truetype&apos;)}</style></defs><g id="dom" fill="none" fill-rule="evenodd" stroke="none" stroke-width="1"><g id="eventflow" transform="translate(22 28)"><g id="nodes"><g id="Group" transform="translate(224.685)"><path id="Rectangle-path" fill="#D1CFCD" stroke="#181717" d="M0 0h134.427v34.567H0z"/><text id="Window" fill="#181717" fill-rule="nonzero" font-family="OpenSans-Regular, Open Sans" font-size="15.555" font-weight="normal"><tspan x="39.368" y="21.913">Window</tspan></text></g><g id="Group" transform="translate(234.287 60.493)"><path id="Rectangle-path" fill="#D1CFCD" stroke="#181717" d="M0 0h115.223v34.567H0z"/><text id="Document" fill="#181717" fill-rule="nonzero" font-family="OpenSans-Regular, Open Sans" font-size="15.555" font-weight="normal"><tspan x="22.084" y="21.913">Document</tspan></text></g><g id="html-node" transform="translate(243.889 120.985)"><rect id="Rectangle-path" width="96.019" height="34.567" x="0" y="0" fill="#C9DCEA" stroke="#181717" rx="5"/><text id="&lt;html&gt;" fill="#181717" fill-rule="nonzero" font-family="OpenSans-Regular, Open Sans" font-size="15.555" font-weight="normal"><tspan x="23.045" y="21.913">&lt;html&gt;</tspan></text></g><g id="body-node" transform="translate(243.889 181.478)"><rect id="Rectangle-path" width="96.019" height="34.567" x="0" y="0" fill="#C9DCEA" stroke="#181717" rx="5"/><text id="&lt;body&gt;" fill="#181717" fill-rule="nonzero" font-family="OpenSans-Regular, Open Sans" font-size="15.555" font-weight="normal"><tspan x="23.045" y="21.913">&lt;body&gt;</tspan></text></g><g id="table-node" transform="translate(243.889 241.97)"><rect id="Rectangle-path" width="96.019" height="34.567" x="0" y="0" fill="#C9DCEA" stroke="#181717" rx="5"/><text id="&lt;table&gt;" fill="#181717" fill-rule="nonzero" font-family="OpenSans-Regular, Open Sans" font-size="15.555" font-weight="normal"><tspan x="23.045" y="21.913">&lt;table&gt;</tspan></text></g><g id="tbody-node" transform="translate(243.889 302.463)"><rect id="Rectangle-path" width="96.019" height="34.567" x="0" y="0" fill="#C9DCEA" stroke="#181717" rx="5"/><text id="&lt;tbody&gt;" fill="#181717" fill-rule="nonzero" font-family="OpenSans-Regular, Open Sans" font-size="15.555" font-weight="normal"><tspan x="19.204" y="21.913">&lt;tbody&gt;</tspan></text></g><g id="tr_1-node" transform="translate(80.656 380.239)"><rect id="Rectangle-path" width="96.019" height="34.567" x="0" y="0" fill="#C9DCEA" stroke="#181717" rx="5"/><text id="&lt;tr&gt;" fill="#181717" fill-rule="nonzero" font-family="OpenSans-Regular, Open Sans" font-size="15.555" font-weight="normal"><tspan x="35.527" y="21.913">&lt;tr&gt;</tspan></text></g><g id="tr_2-node" transform="translate(426.325 380.239)"><rect id="Rectangle-path" width="96.019" height="34.567" x="0" y="0" fill="#C9DCEA" stroke="#181717" rx="5"/><text id="&lt;tr&gt;" fill="#181717" fill-rule="nonzero" font-family="OpenSans-Regular, Open Sans" font-size="15.555" font-weight="normal"><tspan x="33.607" y="21.913">&lt;tr&gt;</tspan></text></g><g id="tr_1_td_1-node" transform="translate(13.443 458.015)"><rect id="Rectangle-path" width="96.019" height="34.567" x="0" y="0" fill="#C9DCEA" stroke="#181717" rx="5"/><text id="&lt;td&gt;" fill="#181717" fill-rule="nonzero" font-family="OpenSans-Regular, Open Sans" font-size="15.555" font-weight="normal"><tspan x="31.686" y="21.913">&lt;td&gt;</tspan></text></g><g id="tr_1_td_1_text-node" transform="translate(0 518.507)"><ellipse id="Oval" cx="61.452" cy="30.246" fill="#1C85B5" stroke="#181717" rx="61.452" ry="30.246"/><text id="Shady-Grove" fill="#FFF" fill-rule="nonzero" font-family="OpenSans-Regular, Open Sans" font-size="12.963" font-weight="normal"><tspan x="19.204" y="34.604">Shady Grove</tspan></text></g><g id="tr_1_td_2-node" transform="translate(147.87 458.015)"><rect id="Rectangle-path" width="96.019" height="34.567" x="0" y="0" fill="#C9DCEA" stroke="#181717" rx="5"/><text id="&lt;td&gt;" fill="#181717" fill-rule="nonzero" font-family="OpenSans-Regular, Open Sans" font-size="15.555" font-weight="normal"><tspan x="33.607" y="21.913">&lt;td&gt;</tspan></text></g><g id="tr_1_td_2_text-node" transform="translate(134.427 518.507)"><ellipse id="Oval" cx="61.452" cy="30.246" fill="#1C85B5" stroke="#181717" rx="61.452" ry="30.246"/><text id="Aeolian" fill="#FFF" fill-rule="nonzero" font-family="OpenSans-Regular, Open Sans" font-size="12.963" font-weight="normal"><tspan x="36.967" y="34.604">Aeolian</tspan></text></g><g id="tr_2_td_1-node" transform="translate(359.111 458.015)"><rect id="Rectangle-path" width="96.019" height="34.567" x="0" y="0" fill="#FFF" stroke="#181717" rx="5"/><text id="&lt;td&gt;" fill="#C06334" fill-rule="nonzero" font-family="PTMono-Regular, PT Mono" font-size="15.555" font-weight="normal"><tspan x="27.846" y="22.37">&lt;td&gt;</tspan></text></g><g id="tr_2_td_1_text-node" transform="translate(345.669 518.507)"><ellipse id="Oval" cx="61.452" cy="30.246" fill="#1C85B5" stroke="#181717" rx="61.452" ry="30.246"/><g id="Group" fill="#FFF" fill-rule="nonzero" font-family="OpenSans-Regular, Open Sans" font-size="12.963" font-weight="normal" transform="translate(12.482 14.555)"><text id="Over-the-River,"><tspan x=".48" y="14">Over the River,</tspan></text><text id="Charlie"><tspan x="25.925" y="31.284">Charlie</tspan></text></g></g><g id="tr_2_td_2-node" transform="translate(493.538 458.015)"><rect id="Rectangle-path" width="96.019" height="34.567" x="0" y="0" fill="#C9DCEA" stroke="#181717" rx="5"/><text id="&lt;td&gt;" fill="#181717" fill-rule="nonzero" font-family="OpenSans-Regular, Open Sans" font-size="15.555" font-weight="normal"><tspan x="33.607" y="21.913">&lt;td&gt;</tspan></text></g><g id="tr_2_td_2_text-node" transform="translate(480.096 518.507)"><ellipse id="Oval" cx="61.452" cy="30.246" fill="#1C85B5" stroke="#181717" rx="61.452" ry="30.246"/><text id="Dorian" fill="#FFF" fill-rule="nonzero" font-family="OpenSans-Regular, Open Sans" font-size="12.963" font-weight="normal"><tspan x="39.848" y="34.604">Dorian</tspan></text></g></g><g id="edges" stroke="#7E7C7B" stroke-width="2" transform="translate(61.452 34.567)"><path id="window-document" fill="#7E7C7B" d="M230.446 0v19.876"/><path id="document-html" fill="#7E7C7B" d="M230.446 60.493v19.876"/><path id="html-body" fill="#7E7C7B" d="M230.446 120.985v19.876"/><path id="body-table" fill="#7E7C7B" d="M230.446 181.478v19.876"/><path id="table-tbody" fill="#7E7C7B" d="M230.446 241.97v19.876"/><path id="tbody-tr_1" d="M230.446 302.463c0 11.522-16.003 17.283-48.01 17.283H86.417c-12.802 0-19.204 6.626-19.204 19.876"/><path id="tbody-tr_2" d="M230.446 302.463c0 11.522 22.404 17.283 67.213 17.283h96.02c12.802 0 19.203 6.626 19.203 19.876"/><path id="tr_1-tr_2_td_1" d="M67.213 380.239c0 11.522-6.4 17.283-19.203 17.283H19.204C6.4 397.522 0 404.148 0 417.4"/><path id="tr_1-tr_2_td_2" d="M67.213 380.239c0 11.522 6.402 17.283 19.204 17.283h28.806c12.802 0 19.204 6.626 19.204 19.877"/><path id="tr_2-tr_2_td_1" d="M412.882 380.239c0 11.522-6.401 17.283-19.204 17.283h-28.805c-12.803 0-19.204 6.626-19.204 19.877"/><path id="tr_2-tr_2_td_2" d="M412.882 380.239c0 11.522 12.803 17.283 38.408 17.283h9.602c12.802 0 19.204 6.626 19.204 19.877"/><path id="tr_1_td_1-text" fill="#7E7C7B" d="M0 458.015v19.876"/><path id="tr_1_td_2-text" fill="#7E7C7B" d="M134.427 458.015v19.876"/><path id="tr_2_td_1-text" fill="#7E7C7B" d="M345.669 458.015v19.876"/><path id="tr_2_td_2-text" fill="#7E7C7B" d="M482.016 458.015v19.876"/></g><g id="event-flow" transform="translate(103.7 15.443)"><g id="target_phase" transform="translate(186.757 442.572)"><text id="Target" fill="#C06334" fill-rule="nonzero" font-family="OpenSans-Regular, Open Sans" font-size="17.284" font-weight="normal"><tspan x=".48" y="34.148">Target</tspan></text><text id="Phase" fill="#C06334" fill-rule="nonzero" font-family="OpenSans-Regular, Open Sans" font-size="17.284" font-weight="normal"><tspan x="0" y="51.431">Phase</tspan></text><text id="(2)" fill="#C06334" fill-rule="nonzero" font-family="OpenSans-Regular, Open Sans" font-size="17.284" font-weight="normal"><tspan x="15.363" y="68.715">(2)</tspan></text><rect id="Rectangle-path" width="96.019" height="34.567" x="68.654" y="0" stroke="#C06334" stroke-width="4" rx="5"/></g><g id="capture_phase"><text id="Capture" fill="#D35155" fill-rule="nonzero" font-family="OpenSans-Regular, Open Sans" font-size="17.284" font-weight="normal"><tspan x="0" y="165.615">Capture</tspan></text><text id="Phase" fill="#D35155" fill-rule="nonzero" font-family="OpenSans-Regular, Open Sans" font-size="17.284" font-weight="normal"><tspan x="7.201" y="182.899">Phase</tspan></text><text id="(1)" fill="#D35155" fill-rule="nonzero" font-family="OpenSans-Regular, Open Sans" font-size="17.284" font-weight="normal"><tspan x="22.564" y="200.182">(1)</tspan></text><path id="capture_phase_arrow" stroke="#D35155" stroke-width="3" d="M116.183.112c-38.408-2.593-38.408 40.616 2.88 49.258"/><g id="capture_phase_arrow-link" stroke="#D35155" stroke-width="3" transform="translate(92.178 59.74)"><path id="capture_phase_arrow" d="M28.806.864c-38.408-2.592-38.408 40.617 2.88 49.258"/></g><g id="capture_phase_arrow-link" stroke="#D35155" stroke-width="3" transform="translate(96.98 120.233)"><path id="capture_phase_arrow" d="M28.806.864c-38.408-2.592-38.408 40.617 2.88 49.258"/></g><g id="capture_phase_arrow-link" stroke="#D35155" stroke-width="3" transform="translate(96.98 180.725)"><path id="capture_phase_arrow" d="M28.806.864c-38.408-2.592-38.408 40.617 2.88 49.258"/></g><g id="capture_phase_arrow-link" stroke="#D35155" stroke-width="3" transform="translate(96.98 241.218)"><path id="capture_phase_arrow" d="M28.806.864c-38.408-2.592-38.408 40.617 2.88 49.258"/></g><path id="capture_phase_arrow2" stroke="#D35155" stroke-width="3" d="M125.785 302.575c-38.408-2.593-38.408 82.097 175.715 69.134"/><path id="capture_phase_arrow3" stroke="#D35155" stroke-width="3" d="M301.5 384.672c-94.099-2.593-94.099 51.85-62.412 64.813"/></g><g id="bubble_phase" transform="translate(250.61 12.21)"><text id="Bubbling" fill="#478964" fill-rule="nonzero" font-family="OpenSans-Regular, Open Sans" font-size="17.284" font-weight="normal"><tspan x="72.975" y="239.822">Bubbling</tspan></text><text id="Phase" fill="#478964" fill-rule="nonzero" font-family="OpenSans-Regular, Open Sans" font-size="17.284" font-weight="normal"><tspan x="83.057" y="257.106">Phase</tspan></text><text id="(3)" fill="#478964" fill-rule="nonzero" font-family="OpenSans-Regular, Open Sans" font-size="17.284" font-weight="normal"><tspan x="98.42" y="274.39">(3)</tspan></text><path id="bubble_phase_arrow3" stroke="#478964" stroke-width="3" d="M112.342 437.275c132.507-56.172 132.507-67.406 67.214-64.814"/><path id="bubble_phase_arrow2" stroke="#478964" stroke-width="3" d="M182.436 358.634c38.408-8.641 38.408-50.986-180.516-59.628"/><path id="bubble_phase_arrow" stroke="#478964" stroke-width="3" d="M0 287.772c38.408-2.593 38.408-37.16 0-45.802"/><g id="bubble_phase_arrow-link" stroke="#478964" stroke-width="3" transform="translate(0 181.478)"><path id="bubble_phase_arrow" d="M0 45.801C38.408 43.21 38.408 8.641 0 0"/></g><g id="bubble_phase_arrow-link" stroke="#478964" stroke-width="3" transform="translate(0 120.985)"><path id="bubble_phase_arrow" d="M0 45.801C38.408 43.21 38.408 8.641 0 0"/></g><path id="bubble_phase_arrow4" stroke="#478964" stroke-width="3" d="M0 106.294c48.01-2.593 48.01-37.16 9.602-45.801"/><path id="bubble_phase_arrow" stroke="#478964" stroke-width="3" d="M9.602 45.801C57.612 43.21 57.612 8.641 19.204 0"/></g></g></g></g></svg>