<svg width="610" height="633" viewBox="0 0 610 633" xmlns="http://www.w3.org/2000/svg"><title>xhr-preflight.svg</title><desc>Created with bin/sketchtool.</desc><g fill="none" fill-rule="evenodd"><path stroke="#E8C48E" stroke-width="4" fill="#FFF9EB" d="M3 15h130v66H3z"/><text font-family="Consolas" font-size="14" font-weight="bold" fill="#8A704D"><tspan x="29" y="50">JavaScript</tspan></text><path stroke="#E8C48E" stroke-width="4" fill="#FFF9EB" d="M228 15h130v66H228z"/><text font-family="Consolas" font-size="14" font-weight="bold" fill="#8A704D"><tspan x="266" y="50">Браузер</tspan></text><path stroke="#E8C48E" stroke-width="4" fill="#FFF9EB" d="M467 15h130v66H467z"/><text font-family="Consolas" font-size="14" font-weight="bold" fill="#8A704D"><tspan x="503" y="50">Сервер</tspan></text><path d="M69 82v520M294 82v520M533 82v520" id="Line" stroke="#979797" stroke-linecap="square"/><path d="M70.5 139.5h220" stroke="#EE6B47" stroke-linecap="square" fill="#EE6B47"/><path d="M279.7 142.5l10.8-3-10.8-3" stroke="#EE6B47" stroke-linecap="square" fill="#EE6B47"/><text font-family="Consolas" font-size="14" font-weight="bold" fill="#8A704D"><tspan x="153" y="132">send()</tspan></text><text font-family="Consolas" font-size="14" font-weight="bold" fill="#8A704D"><tspan x="387.56" y="171">OPTIONS</tspan><tspan x="394.707" y="191" font-size="12">Origin</tspan><tspan x="318.834" y="211" font-size="12">Access-Control-Request-Method</tspan><tspan x="315.535" y="231" font-size="12">Access-Control-Request-Headers</tspan></text><path d="M297.5 292.5h230" stroke="#EE6B47" stroke-linecap="square" fill="#EE6B47"/><path d="M298.3 292.5l10.8-3v6l-10.8-3z" stroke="#EE6B47" stroke-linecap="square" fill="#EE6B47"/><text font-family="Consolas" font-size="14" font-weight="bold" fill="#8A704D"><tspan x="392.408" y="285">200 OK</tspan><tspan x="326.432" y="305" font-size="12">Access-Control-Allow-Method</tspan><tspan x="323.133" y="325" font-size="12">Access-Control-Allow-Headers</tspan><tspan x="342.926" y="345" font-size="12">Access-Control-Max-Age</tspan></text><path d="M298.5 179.5h230" stroke="#EE6B47" stroke-linecap="square" fill="#EE6B47"/><path d="M528.5 179.5l-10.8-3v6l10.8-3z" stroke="#EE6B47" stroke-linecap="square" fill="#EE6B47"/><path d="M297.5 501.5h230" stroke="#EE6B47" stroke-width="2" stroke-linecap="square" fill="#EE6B47"/><path d="M298.3 501.5l10.8-3v6l-10.8-3zM71.5 553.5h220" stroke="#EE6B47" stroke-width="2" stroke-linecap="square" fill="#EE6B47"/><path d="M72.3 553.5l10.8-3v6l-10.8-3z" stroke="#EE6B47" stroke-width="2" stroke-linecap="square" fill="#EE6B47"/><text font-family="Consolas" font-size="14" font-weight="bold" fill="#8A704D"><tspan x="379.514" y="494">HTTP-ответ</tspan><tspan x="328.932" y="514" font-size="12">Access-Control-Allow-Origin</tspan></text><text font-family="Consolas" font-size="14" font-weight="bold" fill="#8A704D"><tspan x="75.238" y="545">если сервер разрешил: onload</tspan><tspan x="132.968" y="565">иначе onerror</tspan></text><path d="M296.5 435.5h230" stroke="#EE6B47" stroke-linecap="square" fill="#EE6B47"/><path d="M526.5 435.5l-10.8-3v6l10.8-3z" stroke="#EE6B47" stroke-linecap="square" fill="#EE6B47"/><text font-family="Consolas" font-size="14" font-weight="bold" fill="#8A704D"><tspan x="339.527" y="427">Основной HTTP-запрос</tspan><tspan x="396.707" y="447" font-size="12">Origin</tspan></text></g></svg>