<svg width="610" height="411" viewBox="0 0 610 411" xmlns="http://www.w3.org/2000/svg"><title>xhr-another-domain.svg</title><desc>Created with bin/sketchtool.</desc><g fill="none" fill-rule="evenodd"><path stroke="#E8C48E" stroke-width="4" fill="#FFF9EB" d="M3 15h130v66H3z"/><text font-family="Consolas" font-size="14" font-weight="bold" fill="#8A704D"><tspan x="29" y="50">JavaScript</tspan></text><path stroke="#E8C48E" stroke-width="4" fill="#FFF9EB" d="M228 15h130v66H228z"/><text font-family="Consolas" font-size="14" font-weight="bold" fill="#8A704D"><tspan x="266" y="50">Браузер</tspan></text><path stroke="#E8C48E" stroke-width="4" fill="#FFF9EB" d="M454 15h130v66H454z"/><text font-family="Consolas" font-size="14" font-weight="bold" fill="#8A704D"><tspan x="495" y="50">Сервер</tspan></text><path d="M69 81v320M294 81v320M520 81v320" id="Line" stroke="#979797" stroke-linecap="square"/><path d="M70.5 139.5h220" stroke="#EE6B47" stroke-linecap="square" fill="#EE6B47"/><path d="M279.7 142.5l10.8-3-10.8-3" stroke="#EE6B47" stroke-linecap="square" fill="#EE6B47"/><text font-family="Consolas" font-size="14" font-weight="bold" fill="#8A704D"><tspan x="153" y="132">send()</tspan></text><path d="M295.5 189.5h220" stroke="#EE6B47" stroke-linecap="square" fill="#EE6B47"/><path d="M515.5 189.5l-10.8-3v6l10.8-3z" stroke="#EE6B47" stroke-linecap="square" fill="#EE6B47"/><text font-family="Consolas" font-size="14" font-weight="bold" fill="#8A704D"><tspan x="370.165" y="181">HTTP-запрос</tspan><tspan x="349.822" y="201" font-size="12">с заголовком Origin</tspan></text><path d="M297.5 294.5h220" stroke="#EE6B47" stroke-width="2" stroke-linecap="square" fill="#EE6B47"/><path d="M298.3 294.5l10.8-3v6l-10.8-3zM71.5 359.5h220" stroke="#EE6B47" stroke-width="2" stroke-linecap="square" fill="#EE6B47"/><path d="M72.3 359.5l10.8-3v6l-10.8-3z" stroke="#EE6B47" stroke-width="2" stroke-linecap="square" fill="#EE6B47"/><text font-family="Consolas" font-size="14" font-weight="bold" fill="#8A704D"><tspan x="371.514" y="287">HTTP-ответ</tspan><tspan x="274.748" y="307" font-size="12">Access-Control-Allow-Origin: * или Origin</tspan></text><text font-family="Consolas" font-size="14" font-weight="bold" fill="#8A704D"><tspan x="80.087" y="351">если заголовок стоит onload</tspan><tspan x="133.968" y="371">иначе onerror</tspan></text></g></svg>