<?xml version="1.0" encoding="UTF-8"?>
<svg width="463px" height="130px" viewBox="0 0 463 130" version="1.1" xmlns="http://www.w3.org/2000/svg" xmlns:xlink="http://www.w3.org/1999/xlink">
    <!-- Generator: sketchtool 55.2 (78181) - https://sketchapp.com -->
    <title>witch_greedy4.svg</title>
    <desc>Created with sketchtool.</desc>
    <g id="regexp" stroke="none" stroke-width="1" fill="none" fill-rule="evenodd">
        <g id="witch_greedy4.svg">
            <text id="a-&quot;witch&quot;-and-her-&quot;b" font-family="PTMono-Regular, PT Mono" font-size="22" font-weight="normal" fill="#8A704D">
                <tspan x="20" y="107">a "witch" and her "broom" is one</tspan>
            </text>
            <rect id="Rectangle-1" stroke="#E8C48E" x="45.5" y="45.5" width="383" height="76"></rect>
            <path d="M52.0039062,55.4414062 L51.6757812,60.9375 L49.7539062,60.9375 L49.4140625,55.4414062 L52.0039062,55.4414062 Z M56.5625,55.4414062 L56.234375,60.9375 L54.3125,60.9375 L53.9726562,55.4414062 L56.5625,55.4414062 Z M66.0898438,68.3085938 C66.3554701,68.3085938 66.6074207,68.3593745 66.8457031,68.4609375 C67.0839856,68.5625005 67.2910147,68.7031241 67.4667969,68.8828125 C67.642579,69.0625009 67.7812495,69.2714832 67.8828125,69.5097656 C67.9843755,69.7480481 68.0351562,70.0039049 68.0351562,70.2773438 C68.0351562,70.5429701 67.9843755,70.7929676 67.8828125,71.0273438 C67.7812495,71.2617199 67.642579,71.466796 67.4667969,71.6425781 C67.2910147,71.8183603 67.0839856,71.9570307 66.8457031,72.0585938 C66.6074207,72.1601568 66.3554701,72.2109375 66.0898438,72.2109375 C65.8164049,72.2109375 65.5625012,72.1601568 65.328125,72.0585938 C65.0937488,71.9570307 64.8886728,71.8183603 64.7128906,71.6425781 C64.5371085,71.466796 64.398438,71.2617199 64.296875,71.0273438 C64.195312,70.7929676 64.1445312,70.5429701 64.1445312,70.2773438 C64.1445312,70.0039049 64.195312,69.7480481 64.296875,69.5097656 C64.398438,69.2714832 64.5371085,69.0625009 64.7128906,68.8828125 C64.8886728,68.7031241 65.0937488,68.5625005 65.328125,68.4609375 C65.5625012,68.3593745 65.8164049,68.3085938 66.0898438,68.3085938 L66.0898438,68.3085938 Z M79.2851562,68.3085938 C79.5507826,68.3085938 79.8027332,68.3593745 80.0410156,68.4609375 C80.2792981,68.5625005 80.4863272,68.7031241 80.6621094,68.8828125 C80.8378915,69.0625009 80.976562,69.2714832 81.078125,69.5097656 C81.179688,69.7480481 81.2304688,70.0039049 81.2304688,70.2773438 C81.2304688,70.5429701 81.179688,70.7929676 81.078125,71.0273438 C80.976562,71.2617199 80.8378915,71.466796 80.6621094,71.6425781 C80.4863272,71.8183603 80.2792981,71.9570307 80.0410156,72.0585938 C79.8027332,72.1601568 79.5507826,72.2109375 79.2851562,72.2109375 C79.0117174,72.2109375 78.7578137,72.1601568 78.5234375,72.0585938 C78.2890613,71.9570307 78.0839853,71.8183603 77.9082031,71.6425781 C77.732421,71.466796 77.5937505,71.2617199 77.4921875,71.0273438 C77.3906245,70.7929676 77.3398438,70.5429701 77.3398438,70.2773438 C77.3398438,70.0039049 77.3906245,69.7480481 77.4921875,69.5097656 C77.5937505,69.2714832 77.732421,69.0625009 77.9082031,68.8828125 C78.0839853,68.7031241 78.2890613,68.5625005 78.5234375,68.4609375 C78.7578137,68.3593745 79.0117174,68.3085938 79.2851562,68.3085938 L79.2851562,68.3085938 Z M92.4804688,68.3085938 C92.7460951,68.3085938 92.9980457,68.3593745 93.2363281,68.4609375 C93.4746106,68.5625005 93.6816397,68.7031241 93.8574219,68.8828125 C94.033204,69.0625009 94.1718745,69.2714832 94.2734375,69.5097656 C94.3750005,69.7480481 94.4257812,70.0039049 94.4257812,70.2773438 C94.4257812,70.5429701 94.3750005,70.7929676 94.2734375,71.0273438 C94.1718745,71.2617199 94.033204,71.466796 93.8574219,71.6425781 C93.6816397,71.8183603 93.4746106,71.9570307 93.2363281,72.0585938 C92.9980457,72.1601568 92.7460951,72.2109375 92.4804688,72.2109375 C92.2070299,72.2109375 91.9531262,72.1601568 91.71875,72.0585938 C91.4843738,71.9570307 91.2792978,71.8183603 91.1035156,71.6425781 C90.9277335,71.466796 90.789063,71.2617199 90.6875,71.0273438 C90.585937,70.7929676 90.5351562,70.5429701 90.5351562,70.2773438 C90.5351562,70.0039049 90.585937,69.7480481 90.6875,69.5097656 C90.789063,69.2714832 90.9277335,69.0625009 91.1035156,68.8828125 C91.2792978,68.7031241 91.4843738,68.5625005 91.71875,68.4609375 C91.9531262,68.3593745 92.2070299,68.3085938 92.4804688,68.3085938 L92.4804688,68.3085938 Z M105.675781,68.3085938 C105.941408,68.3085938 106.193358,68.3593745 106.431641,68.4609375 C106.669923,68.5625005 106.876952,68.7031241 107.052734,68.8828125 C107.228517,69.0625009 107.367187,69.2714832 107.46875,69.5097656 C107.570313,69.7480481 107.621094,70.0039049 107.621094,70.2773438 C107.621094,70.5429701 107.570313,70.7929676 107.46875,71.0273438 C107.367187,71.2617199 107.228517,71.466796 107.052734,71.6425781 C106.876952,71.8183603 106.669923,71.9570307 106.431641,72.0585938 C106.193358,72.1601568 105.941408,72.2109375 105.675781,72.2109375 C105.402342,72.2109375 105.148439,72.1601568 104.914062,72.0585938 C104.679686,71.9570307 104.47461,71.8183603 104.298828,71.6425781 C104.123046,71.466796 103.984376,71.2617199 103.882812,71.0273438 C103.781249,70.7929676 103.730469,70.5429701 103.730469,70.2773438 C103.730469,70.0039049 103.781249,69.7480481 103.882812,69.5097656 C103.984376,69.2714832 104.123046,69.0625009 104.298828,68.8828125 C104.47461,68.7031241 104.679686,68.5625005 104.914062,68.4609375 C105.148439,68.3593745 105.402342,68.3085938 105.675781,68.3085938 L105.675781,68.3085938 Z M118.871094,68.3085938 C119.13672,68.3085938 119.388671,68.3593745 119.626953,68.4609375 C119.865236,68.5625005 120.072265,68.7031241 120.248047,68.8828125 C120.423829,69.0625009 120.562499,69.2714832 120.664062,69.5097656 C120.765626,69.7480481 120.816406,70.0039049 120.816406,70.2773438 C120.816406,70.5429701 120.765626,70.7929676 120.664062,71.0273438 C120.562499,71.2617199 120.423829,71.466796 120.248047,71.6425781 C120.072265,71.8183603 119.865236,71.9570307 119.626953,72.0585938 C119.388671,72.1601568 119.13672,72.2109375 118.871094,72.2109375 C118.597655,72.2109375 118.343751,72.1601568 118.109375,72.0585938 C117.874999,71.9570307 117.669923,71.8183603 117.494141,71.6425781 C117.318358,71.466796 117.179688,71.2617199 117.078125,71.0273438 C116.976562,70.7929676 116.925781,70.5429701 116.925781,70.2773438 C116.925781,70.0039049 116.976562,69.7480481 117.078125,69.5097656 C117.179688,69.2714832 117.318358,69.0625009 117.494141,68.8828125 C117.669923,68.7031241 117.874999,68.5625005 118.109375,68.4609375 C118.343751,68.3593745 118.597655,68.3085938 118.871094,68.3085938 L118.871094,68.3085938 Z M132.066406,68.3085938 C132.332033,68.3085938 132.583983,68.3593745 132.822266,68.4609375 C133.060548,68.5625005 133.267577,68.7031241 133.443359,68.8828125 C133.619142,69.0625009 133.757812,69.2714832 133.859375,69.5097656 C133.960938,69.7480481 134.011719,70.0039049 134.011719,70.2773438 C134.011719,70.5429701 133.960938,70.7929676 133.859375,71.0273438 C133.757812,71.2617199 133.619142,71.466796 133.443359,71.6425781 C133.267577,71.8183603 133.060548,71.9570307 132.822266,72.0585938 C132.583983,72.1601568 132.332033,72.2109375 132.066406,72.2109375 C131.792967,72.2109375 131.539064,72.1601568 131.304688,72.0585938 C131.070311,71.9570307 130.865235,71.8183603 130.689453,71.6425781 C130.513671,71.466796 130.375001,71.2617199 130.273438,71.0273438 C130.171874,70.7929676 130.121094,70.5429701 130.121094,70.2773438 C130.121094,70.0039049 130.171874,69.7480481 130.273438,69.5097656 C130.375001,69.2714832 130.513671,69.0625009 130.689453,68.8828125 C130.865235,68.7031241 131.070311,68.5625005 131.304688,68.4609375 C131.539064,68.3593745 131.792967,68.3085938 132.066406,68.3085938 L132.066406,68.3085938 Z M145.261719,68.3085938 C145.527345,68.3085938 145.779296,68.3593745 146.017578,68.4609375 C146.255861,68.5625005 146.46289,68.7031241 146.638672,68.8828125 C146.814454,69.0625009 146.953124,69.2714832 147.054688,69.5097656 C147.156251,69.7480481 147.207031,70.0039049 147.207031,70.2773438 C147.207031,70.5429701 147.156251,70.7929676 147.054688,71.0273438 C146.953124,71.2617199 146.814454,71.466796 146.638672,71.6425781 C146.46289,71.8183603 146.255861,71.9570307 146.017578,72.0585938 C145.779296,72.1601568 145.527345,72.2109375 145.261719,72.2109375 C144.98828,72.2109375 144.734376,72.1601568 144.5,72.0585938 C144.265624,71.9570307 144.060548,71.8183603 143.884766,71.6425781 C143.708983,71.466796 143.570313,71.2617199 143.46875,71.0273438 C143.367187,70.7929676 143.316406,70.5429701 143.316406,70.2773438 C143.316406,70.0039049 143.367187,69.7480481 143.46875,69.5097656 C143.570313,69.2714832 143.708983,69.0625009 143.884766,68.8828125 C144.060548,68.7031241 144.265624,68.5625005 144.5,68.4609375 C144.734376,68.3593745 144.98828,68.3085938 145.261719,68.3085938 L145.261719,68.3085938 Z M158.457031,68.3085938 C158.722658,68.3085938 158.974608,68.3593745 159.212891,68.4609375 C159.451173,68.5625005 159.658202,68.7031241 159.833984,68.8828125 C160.009767,69.0625009 160.148437,69.2714832 160.25,69.5097656 C160.351563,69.7480481 160.402344,70.0039049 160.402344,70.2773438 C160.402344,70.5429701 160.351563,70.7929676 160.25,71.0273438 C160.148437,71.2617199 160.009767,71.466796 159.833984,71.6425781 C159.658202,71.8183603 159.451173,71.9570307 159.212891,72.0585938 C158.974608,72.1601568 158.722658,72.2109375 158.457031,72.2109375 C158.183592,72.2109375 157.929689,72.1601568 157.695312,72.0585938 C157.460936,71.9570307 157.25586,71.8183603 157.080078,71.6425781 C156.904296,71.466796 156.765626,71.2617199 156.664062,71.0273438 C156.562499,70.7929676 156.511719,70.5429701 156.511719,70.2773438 C156.511719,70.0039049 156.562499,69.7480481 156.664062,69.5097656 C156.765626,69.2714832 156.904296,69.0625009 157.080078,68.8828125 C157.25586,68.7031241 157.460936,68.5625005 157.695312,68.4609375 C157.929689,68.3593745 158.183592,68.3085938 158.457031,68.3085938 L158.457031,68.3085938 Z M171.652344,68.3085938 C171.91797,68.3085938 172.169921,68.3593745 172.408203,68.4609375 C172.646486,68.5625005 172.853515,68.7031241 173.029297,68.8828125 C173.205079,69.0625009 173.343749,69.2714832 173.445312,69.5097656 C173.546876,69.7480481 173.597656,70.0039049 173.597656,70.2773438 C173.597656,70.5429701 173.546876,70.7929676 173.445312,71.0273438 C173.343749,71.2617199 173.205079,71.466796 173.029297,71.6425781 C172.853515,71.8183603 172.646486,71.9570307 172.408203,72.0585938 C172.169921,72.1601568 171.91797,72.2109375 171.652344,72.2109375 C171.378905,72.2109375 171.125001,72.1601568 170.890625,72.0585938 C170.656249,71.9570307 170.451173,71.8183603 170.275391,71.6425781 C170.099608,71.466796 169.960938,71.2617199 169.859375,71.0273438 C169.757812,70.7929676 169.707031,70.5429701 169.707031,70.2773438 C169.707031,70.0039049 169.757812,69.7480481 169.859375,69.5097656 C169.960938,69.2714832 170.099608,69.0625009 170.275391,68.8828125 C170.451173,68.7031241 170.656249,68.5625005 170.890625,68.4609375 C171.125001,68.3593745 171.378905,68.3085938 171.652344,68.3085938 L171.652344,68.3085938 Z M184.847656,68.3085938 C185.113283,68.3085938 185.365233,68.3593745 185.603516,68.4609375 C185.841798,68.5625005 186.048827,68.7031241 186.224609,68.8828125 C186.400392,69.0625009 186.539062,69.2714832 186.640625,69.5097656 C186.742188,69.7480481 186.792969,70.0039049 186.792969,70.2773438 C186.792969,70.5429701 186.742188,70.7929676 186.640625,71.0273438 C186.539062,71.2617199 186.400392,71.466796 186.224609,71.6425781 C186.048827,71.8183603 185.841798,71.9570307 185.603516,72.0585938 C185.365233,72.1601568 185.113283,72.2109375 184.847656,72.2109375 C184.574217,72.2109375 184.320314,72.1601568 184.085938,72.0585938 C183.851561,71.9570307 183.646485,71.8183603 183.470703,71.6425781 C183.294921,71.466796 183.156251,71.2617199 183.054688,71.0273438 C182.953124,70.7929676 182.902344,70.5429701 182.902344,70.2773438 C182.902344,70.0039049 182.953124,69.7480481 183.054688,69.5097656 C183.156251,69.2714832 183.294921,69.0625009 183.470703,68.8828125 C183.646485,68.7031241 183.851561,68.5625005 184.085938,68.4609375 C184.320314,68.3593745 184.574217,68.3085938 184.847656,68.3085938 L184.847656,68.3085938 Z M198.042969,68.3085938 C198.308595,68.3085938 198.560546,68.3593745 198.798828,68.4609375 C199.037111,68.5625005 199.24414,68.7031241 199.419922,68.8828125 C199.595704,69.0625009 199.734374,69.2714832 199.835938,69.5097656 C199.937501,69.7480481 199.988281,70.0039049 199.988281,70.2773438 C199.988281,70.5429701 199.937501,70.7929676 199.835938,71.0273438 C199.734374,71.2617199 199.595704,71.466796 199.419922,71.6425781 C199.24414,71.8183603 199.037111,71.9570307 198.798828,72.0585938 C198.560546,72.1601568 198.308595,72.2109375 198.042969,72.2109375 C197.76953,72.2109375 197.515626,72.1601568 197.28125,72.0585938 C197.046874,71.9570307 196.841798,71.8183603 196.666016,71.6425781 C196.490233,71.466796 196.351563,71.2617199 196.25,71.0273438 C196.148437,70.7929676 196.097656,70.5429701 196.097656,70.2773438 C196.097656,70.0039049 196.148437,69.7480481 196.25,69.5097656 C196.351563,69.2714832 196.490233,69.0625009 196.666016,68.8828125 C196.841798,68.7031241 197.046874,68.5625005 197.28125,68.4609375 C197.515626,68.3593745 197.76953,68.3085938 198.042969,68.3085938 L198.042969,68.3085938 Z M211.238281,68.3085938 C211.503908,68.3085938 211.755858,68.3593745 211.994141,68.4609375 C212.232423,68.5625005 212.439452,68.7031241 212.615234,68.8828125 C212.791017,69.0625009 212.929687,69.2714832 213.03125,69.5097656 C213.132813,69.7480481 213.183594,70.0039049 213.183594,70.2773438 C213.183594,70.5429701 213.132813,70.7929676 213.03125,71.0273438 C212.929687,71.2617199 212.791017,71.466796 212.615234,71.6425781 C212.439452,71.8183603 212.232423,71.9570307 211.994141,72.0585938 C211.755858,72.1601568 211.503908,72.2109375 211.238281,72.2109375 C210.964842,72.2109375 210.710939,72.1601568 210.476562,72.0585938 C210.242186,71.9570307 210.03711,71.8183603 209.861328,71.6425781 C209.685546,71.466796 209.546876,71.2617199 209.445312,71.0273438 C209.343749,70.7929676 209.292969,70.5429701 209.292969,70.2773438 C209.292969,70.0039049 209.343749,69.7480481 209.445312,69.5097656 C209.546876,69.2714832 209.685546,69.0625009 209.861328,68.8828125 C210.03711,68.7031241 210.242186,68.5625005 210.476562,68.4609375 C210.710939,68.3593745 210.964842,68.3085938 211.238281,68.3085938 L211.238281,68.3085938 Z M224.433594,68.3085938 C224.69922,68.3085938 224.951171,68.3593745 225.189453,68.4609375 C225.427736,68.5625005 225.634765,68.7031241 225.810547,68.8828125 C225.986329,69.0625009 226.124999,69.2714832 226.226562,69.5097656 C226.328126,69.7480481 226.378906,70.0039049 226.378906,70.2773438 C226.378906,70.5429701 226.328126,70.7929676 226.226562,71.0273438 C226.124999,71.2617199 225.986329,71.466796 225.810547,71.6425781 C225.634765,71.8183603 225.427736,71.9570307 225.189453,72.0585938 C224.951171,72.1601568 224.69922,72.2109375 224.433594,72.2109375 C224.160155,72.2109375 223.906251,72.1601568 223.671875,72.0585938 C223.437499,71.9570307 223.232423,71.8183603 223.056641,71.6425781 C222.880858,71.466796 222.742188,71.2617199 222.640625,71.0273438 C222.539062,70.7929676 222.488281,70.5429701 222.488281,70.2773438 C222.488281,70.0039049 222.539062,69.7480481 222.640625,69.5097656 C222.742188,69.2714832 222.880858,69.0625009 223.056641,68.8828125 C223.232423,68.7031241 223.437499,68.5625005 223.671875,68.4609375 C223.906251,68.3593745 224.160155,68.3085938 224.433594,68.3085938 L224.433594,68.3085938 Z M237.628906,68.3085938 C237.894533,68.3085938 238.146483,68.3593745 238.384766,68.4609375 C238.623048,68.5625005 238.830077,68.7031241 239.005859,68.8828125 C239.181642,69.0625009 239.320312,69.2714832 239.421875,69.5097656 C239.523438,69.7480481 239.574219,70.0039049 239.574219,70.2773438 C239.574219,70.5429701 239.523438,70.7929676 239.421875,71.0273438 C239.320312,71.2617199 239.181642,71.466796 239.005859,71.6425781 C238.830077,71.8183603 238.623048,71.9570307 238.384766,72.0585938 C238.146483,72.1601568 237.894533,72.2109375 237.628906,72.2109375 C237.355467,72.2109375 237.101564,72.1601568 236.867188,72.0585938 C236.632811,71.9570307 236.427735,71.8183603 236.251953,71.6425781 C236.076171,71.466796 235.937501,71.2617199 235.835938,71.0273438 C235.734374,70.7929676 235.683594,70.5429701 235.683594,70.2773438 C235.683594,70.0039049 235.734374,69.7480481 235.835938,69.5097656 C235.937501,69.2714832 236.076171,69.0625009 236.251953,68.8828125 C236.427735,68.7031241 236.632811,68.5625005 236.867188,68.4609375 C237.101564,68.3593745 237.355467,68.3085938 237.628906,68.3085938 L237.628906,68.3085938 Z M250.824219,68.3085938 C251.089845,68.3085938 251.341796,68.3593745 251.580078,68.4609375 C251.818361,68.5625005 252.02539,68.7031241 252.201172,68.8828125 C252.376954,69.0625009 252.515624,69.2714832 252.617188,69.5097656 C252.718751,69.7480481 252.769531,70.0039049 252.769531,70.2773438 C252.769531,70.5429701 252.718751,70.7929676 252.617188,71.0273438 C252.515624,71.2617199 252.376954,71.466796 252.201172,71.6425781 C252.02539,71.8183603 251.818361,71.9570307 251.580078,72.0585938 C251.341796,72.1601568 251.089845,72.2109375 250.824219,72.2109375 C250.55078,72.2109375 250.296876,72.1601568 250.0625,72.0585938 C249.828124,71.9570307 249.623048,71.8183603 249.447266,71.6425781 C249.271483,71.466796 249.132813,71.2617199 249.03125,71.0273438 C248.929687,70.7929676 248.878906,70.5429701 248.878906,70.2773438 C248.878906,70.0039049 248.929687,69.7480481 249.03125,69.5097656 C249.132813,69.2714832 249.271483,69.0625009 249.447266,68.8828125 C249.623048,68.7031241 249.828124,68.5625005 250.0625,68.4609375 C250.296876,68.3593745 250.55078,68.3085938 250.824219,68.3085938 L250.824219,68.3085938 Z M264.019531,68.3085938 C264.285158,68.3085938 264.537108,68.3593745 264.775391,68.4609375 C265.013673,68.5625005 265.220702,68.7031241 265.396484,68.8828125 C265.572267,69.0625009 265.710937,69.2714832 265.8125,69.5097656 C265.914063,69.7480481 265.964844,70.0039049 265.964844,70.2773438 C265.964844,70.5429701 265.914063,70.7929676 265.8125,71.0273438 C265.710937,71.2617199 265.572267,71.466796 265.396484,71.6425781 C265.220702,71.8183603 265.013673,71.9570307 264.775391,72.0585938 C264.537108,72.1601568 264.285158,72.2109375 264.019531,72.2109375 C263.746092,72.2109375 263.492189,72.1601568 263.257812,72.0585938 C263.023436,71.9570307 262.81836,71.8183603 262.642578,71.6425781 C262.466796,71.466796 262.328126,71.2617199 262.226562,71.0273438 C262.124999,70.7929676 262.074219,70.5429701 262.074219,70.2773438 C262.074219,70.0039049 262.124999,69.7480481 262.226562,69.5097656 C262.328126,69.2714832 262.466796,69.0625009 262.642578,68.8828125 C262.81836,68.7031241 263.023436,68.5625005 263.257812,68.4609375 C263.492189,68.3593745 263.746092,68.3085938 264.019531,68.3085938 L264.019531,68.3085938 Z M277.214844,68.3085938 C277.48047,68.3085938 277.732421,68.3593745 277.970703,68.4609375 C278.208986,68.5625005 278.416015,68.7031241 278.591797,68.8828125 C278.767579,69.0625009 278.906249,69.2714832 279.007812,69.5097656 C279.109376,69.7480481 279.160156,70.0039049 279.160156,70.2773438 C279.160156,70.5429701 279.109376,70.7929676 279.007812,71.0273438 C278.906249,71.2617199 278.767579,71.466796 278.591797,71.6425781 C278.416015,71.8183603 278.208986,71.9570307 277.970703,72.0585938 C277.732421,72.1601568 277.48047,72.2109375 277.214844,72.2109375 C276.941405,72.2109375 276.687501,72.1601568 276.453125,72.0585938 C276.218749,71.9570307 276.013673,71.8183603 275.837891,71.6425781 C275.662108,71.466796 275.523438,71.2617199 275.421875,71.0273438 C275.320312,70.7929676 275.269531,70.5429701 275.269531,70.2773438 C275.269531,70.0039049 275.320312,69.7480481 275.421875,69.5097656 C275.523438,69.2714832 275.662108,69.0625009 275.837891,68.8828125 C276.013673,68.7031241 276.218749,68.5625005 276.453125,68.4609375 C276.687501,68.3593745 276.941405,68.3085938 277.214844,68.3085938 L277.214844,68.3085938 Z M290.410156,68.3085938 C290.675783,68.3085938 290.927733,68.3593745 291.166016,68.4609375 C291.404298,68.5625005 291.611327,68.7031241 291.787109,68.8828125 C291.962892,69.0625009 292.101562,69.2714832 292.203125,69.5097656 C292.304688,69.7480481 292.355469,70.0039049 292.355469,70.2773438 C292.355469,70.5429701 292.304688,70.7929676 292.203125,71.0273438 C292.101562,71.2617199 291.962892,71.466796 291.787109,71.6425781 C291.611327,71.8183603 291.404298,71.9570307 291.166016,72.0585938 C290.927733,72.1601568 290.675783,72.2109375 290.410156,72.2109375 C290.136717,72.2109375 289.882814,72.1601568 289.648438,72.0585938 C289.414061,71.9570307 289.208985,71.8183603 289.033203,71.6425781 C288.857421,71.466796 288.718751,71.2617199 288.617188,71.0273438 C288.515624,70.7929676 288.464844,70.5429701 288.464844,70.2773438 C288.464844,70.0039049 288.515624,69.7480481 288.617188,69.5097656 C288.718751,69.2714832 288.857421,69.0625009 289.033203,68.8828125 C289.208985,68.7031241 289.414061,68.5625005 289.648438,68.4609375 C289.882814,68.3593745 290.136717,68.3085938 290.410156,68.3085938 L290.410156,68.3085938 Z M303.605469,68.3085938 C303.871095,68.3085938 304.123046,68.3593745 304.361328,68.4609375 C304.599611,68.5625005 304.80664,68.7031241 304.982422,68.8828125 C305.158204,69.0625009 305.296874,69.2714832 305.398438,69.5097656 C305.500001,69.7480481 305.550781,70.0039049 305.550781,70.2773438 C305.550781,70.5429701 305.500001,70.7929676 305.398438,71.0273438 C305.296874,71.2617199 305.158204,71.466796 304.982422,71.6425781 C304.80664,71.8183603 304.599611,71.9570307 304.361328,72.0585938 C304.123046,72.1601568 303.871095,72.2109375 303.605469,72.2109375 C303.33203,72.2109375 303.078126,72.1601568 302.84375,72.0585938 C302.609374,71.9570307 302.404298,71.8183603 302.228516,71.6425781 C302.052733,71.466796 301.914063,71.2617199 301.8125,71.0273438 C301.710937,70.7929676 301.660156,70.5429701 301.660156,70.2773438 C301.660156,70.0039049 301.710937,69.7480481 301.8125,69.5097656 C301.914063,69.2714832 302.052733,69.0625009 302.228516,68.8828125 C302.404298,68.7031241 302.609374,68.5625005 302.84375,68.4609375 C303.078126,68.3593745 303.33203,68.3085938 303.605469,68.3085938 L303.605469,68.3085938 Z M316.800781,68.3085938 C317.066408,68.3085938 317.318358,68.3593745 317.556641,68.4609375 C317.794923,68.5625005 318.001952,68.7031241 318.177734,68.8828125 C318.353517,69.0625009 318.492187,69.2714832 318.59375,69.5097656 C318.695313,69.7480481 318.746094,70.0039049 318.746094,70.2773438 C318.746094,70.5429701 318.695313,70.7929676 318.59375,71.0273438 C318.492187,71.2617199 318.353517,71.466796 318.177734,71.6425781 C318.001952,71.8183603 317.794923,71.9570307 317.556641,72.0585938 C317.318358,72.1601568 317.066408,72.2109375 316.800781,72.2109375 C316.527342,72.2109375 316.273439,72.1601568 316.039062,72.0585938 C315.804686,71.9570307 315.59961,71.8183603 315.423828,71.6425781 C315.248046,71.466796 315.109376,71.2617199 315.007812,71.0273438 C314.906249,70.7929676 314.855469,70.5429701 314.855469,70.2773438 C314.855469,70.0039049 314.906249,69.7480481 315.007812,69.5097656 C315.109376,69.2714832 315.248046,69.0625009 315.423828,68.8828125 C315.59961,68.7031241 315.804686,68.5625005 316.039062,68.4609375 C316.273439,68.3593745 316.527342,68.3085938 316.800781,68.3085938 L316.800781,68.3085938 Z M329.996094,68.3085938 C330.26172,68.3085938 330.513671,68.3593745 330.751953,68.4609375 C330.990236,68.5625005 331.197265,68.7031241 331.373047,68.8828125 C331.548829,69.0625009 331.687499,69.2714832 331.789062,69.5097656 C331.890626,69.7480481 331.941406,70.0039049 331.941406,70.2773438 C331.941406,70.5429701 331.890626,70.7929676 331.789062,71.0273438 C331.687499,71.2617199 331.548829,71.466796 331.373047,71.6425781 C331.197265,71.8183603 330.990236,71.9570307 330.751953,72.0585938 C330.513671,72.1601568 330.26172,72.2109375 329.996094,72.2109375 C329.722655,72.2109375 329.468751,72.1601568 329.234375,72.0585938 C328.999999,71.9570307 328.794923,71.8183603 328.619141,71.6425781 C328.443358,71.466796 328.304688,71.2617199 328.203125,71.0273438 C328.101562,70.7929676 328.050781,70.5429701 328.050781,70.2773438 C328.050781,70.0039049 328.101562,69.7480481 328.203125,69.5097656 C328.304688,69.2714832 328.443358,69.0625009 328.619141,68.8828125 C328.794923,68.7031241 328.999999,68.5625005 329.234375,68.4609375 C329.468751,68.3593745 329.722655,68.3085938 329.996094,68.3085938 L329.996094,68.3085938 Z M343.191406,68.3085938 C343.457033,68.3085938 343.708983,68.3593745 343.947266,68.4609375 C344.185548,68.5625005 344.392577,68.7031241 344.568359,68.8828125 C344.744142,69.0625009 344.882812,69.2714832 344.984375,69.5097656 C345.085938,69.7480481 345.136719,70.0039049 345.136719,70.2773438 C345.136719,70.5429701 345.085938,70.7929676 344.984375,71.0273438 C344.882812,71.2617199 344.744142,71.466796 344.568359,71.6425781 C344.392577,71.8183603 344.185548,71.9570307 343.947266,72.0585938 C343.708983,72.1601568 343.457033,72.2109375 343.191406,72.2109375 C342.917967,72.2109375 342.664064,72.1601568 342.429688,72.0585938 C342.195311,71.9570307 341.990235,71.8183603 341.814453,71.6425781 C341.638671,71.466796 341.500001,71.2617199 341.398438,71.0273438 C341.296874,70.7929676 341.246094,70.5429701 341.246094,70.2773438 C341.246094,70.0039049 341.296874,69.7480481 341.398438,69.5097656 C341.500001,69.2714832 341.638671,69.0625009 341.814453,68.8828125 C341.990235,68.7031241 342.195311,68.5625005 342.429688,68.4609375 C342.664064,68.3593745 342.917967,68.3085938 343.191406,68.3085938 L343.191406,68.3085938 Z M356.386719,68.3085938 C356.652345,68.3085938 356.904296,68.3593745 357.142578,68.4609375 C357.380861,68.5625005 357.58789,68.7031241 357.763672,68.8828125 C357.939454,69.0625009 358.078124,69.2714832 358.179688,69.5097656 C358.281251,69.7480481 358.332031,70.0039049 358.332031,70.2773438 C358.332031,70.5429701 358.281251,70.7929676 358.179688,71.0273438 C358.078124,71.2617199 357.939454,71.466796 357.763672,71.6425781 C357.58789,71.8183603 357.380861,71.9570307 357.142578,72.0585938 C356.904296,72.1601568 356.652345,72.2109375 356.386719,72.2109375 C356.11328,72.2109375 355.859376,72.1601568 355.625,72.0585938 C355.390624,71.9570307 355.185548,71.8183603 355.009766,71.6425781 C354.833983,71.466796 354.695313,71.2617199 354.59375,71.0273438 C354.492187,70.7929676 354.441406,70.5429701 354.441406,70.2773438 C354.441406,70.0039049 354.492187,69.7480481 354.59375,69.5097656 C354.695313,69.2714832 354.833983,69.0625009 355.009766,68.8828125 C355.185548,68.7031241 355.390624,68.5625005 355.625,68.4609375 C355.859376,68.3593745 356.11328,68.3085938 356.386719,68.3085938 L356.386719,68.3085938 Z M369.582031,68.3085938 C369.847658,68.3085938 370.099608,68.3593745 370.337891,68.4609375 C370.576173,68.5625005 370.783202,68.7031241 370.958984,68.8828125 C371.134767,69.0625009 371.273437,69.2714832 371.375,69.5097656 C371.476563,69.7480481 371.527344,70.0039049 371.527344,70.2773438 C371.527344,70.5429701 371.476563,70.7929676 371.375,71.0273438 C371.273437,71.2617199 371.134767,71.466796 370.958984,71.6425781 C370.783202,71.8183603 370.576173,71.9570307 370.337891,72.0585938 C370.099608,72.1601568 369.847658,72.2109375 369.582031,72.2109375 C369.308592,72.2109375 369.054689,72.1601568 368.820312,72.0585938 C368.585936,71.9570307 368.38086,71.8183603 368.205078,71.6425781 C368.029296,71.466796 367.890626,71.2617199 367.789062,71.0273438 C367.687499,70.7929676 367.636719,70.5429701 367.636719,70.2773438 C367.636719,70.0039049 367.687499,69.7480481 367.789062,69.5097656 C367.890626,69.2714832 368.029296,69.0625009 368.205078,68.8828125 C368.38086,68.7031241 368.585936,68.5625005 368.820312,68.4609375 C369.054689,68.3593745 369.308592,68.3085938 369.582031,68.3085938 L369.582031,68.3085938 Z M382.777344,68.3085938 C383.04297,68.3085938 383.294921,68.3593745 383.533203,68.4609375 C383.771486,68.5625005 383.978515,68.7031241 384.154297,68.8828125 C384.330079,69.0625009 384.468749,69.2714832 384.570312,69.5097656 C384.671876,69.7480481 384.722656,70.0039049 384.722656,70.2773438 C384.722656,70.5429701 384.671876,70.7929676 384.570312,71.0273438 C384.468749,71.2617199 384.330079,71.466796 384.154297,71.6425781 C383.978515,71.8183603 383.771486,71.9570307 383.533203,72.0585938 C383.294921,72.1601568 383.04297,72.2109375 382.777344,72.2109375 C382.503905,72.2109375 382.250001,72.1601568 382.015625,72.0585938 C381.781249,71.9570307 381.576173,71.8183603 381.400391,71.6425781 C381.224608,71.466796 381.085938,71.2617199 380.984375,71.0273438 C380.882812,70.7929676 380.832031,70.5429701 380.832031,70.2773438 C380.832031,70.0039049 380.882812,69.7480481 380.984375,69.5097656 C381.085938,69.2714832 381.224608,69.0625009 381.400391,68.8828125 C381.576173,68.7031241 381.781249,68.5625005 382.015625,68.4609375 C382.250001,68.3593745 382.503905,68.3085938 382.777344,68.3085938 L382.777344,68.3085938 Z M395.972656,68.3085938 C396.238283,68.3085938 396.490233,68.3593745 396.728516,68.4609375 C396.966798,68.5625005 397.173827,68.7031241 397.349609,68.8828125 C397.525392,69.0625009 397.664062,69.2714832 397.765625,69.5097656 C397.867188,69.7480481 397.917969,70.0039049 397.917969,70.2773438 C397.917969,70.5429701 397.867188,70.7929676 397.765625,71.0273438 C397.664062,71.2617199 397.525392,71.466796 397.349609,71.6425781 C397.173827,71.8183603 396.966798,71.9570307 396.728516,72.0585938 C396.490233,72.1601568 396.238283,72.2109375 395.972656,72.2109375 C395.699217,72.2109375 395.445314,72.1601568 395.210938,72.0585938 C394.976561,71.9570307 394.771485,71.8183603 394.595703,71.6425781 C394.419921,71.466796 394.281251,71.2617199 394.179688,71.0273438 C394.078124,70.7929676 394.027344,70.5429701 394.027344,70.2773438 C394.027344,70.0039049 394.078124,69.7480481 394.179688,69.5097656 C394.281251,69.2714832 394.419921,69.0625009 394.595703,68.8828125 C394.771485,68.7031241 394.976561,68.5625005 395.210938,68.4609375 C395.445314,68.3593745 395.699217,68.3085938 395.972656,68.3085938 L395.972656,68.3085938 Z M409.167969,68.3085938 C409.433595,68.3085938 409.685546,68.3593745 409.923828,68.4609375 C410.162111,68.5625005 410.36914,68.7031241 410.544922,68.8828125 C410.720704,69.0625009 410.859374,69.2714832 410.960938,69.5097656 C411.062501,69.7480481 411.113281,70.0039049 411.113281,70.2773438 C411.113281,70.5429701 411.062501,70.7929676 410.960938,71.0273438 C410.859374,71.2617199 410.720704,71.466796 410.544922,71.6425781 C410.36914,71.8183603 410.162111,71.9570307 409.923828,72.0585938 C409.685546,72.1601568 409.433595,72.2109375 409.167969,72.2109375 C408.89453,72.2109375 408.640626,72.1601568 408.40625,72.0585938 C408.171874,71.9570307 407.966798,71.8183603 407.791016,71.6425781 C407.615233,71.466796 407.476563,71.2617199 407.375,71.0273438 C407.273437,70.7929676 407.222656,70.5429701 407.222656,70.2773438 C407.222656,70.0039049 407.273437,69.7480481 407.375,69.5097656 C407.476563,69.2714832 407.615233,69.0625009 407.791016,68.8828125 C407.966798,68.7031241 408.171874,68.5625005 408.40625,68.4609375 C408.640626,68.3593745 408.89453,68.3085938 409.167969,68.3085938 L409.167969,68.3085938 Z M422.363281,68.3085938 C422.628908,68.3085938 422.880858,68.3593745 423.119141,68.4609375 C423.357423,68.5625005 423.564452,68.7031241 423.740234,68.8828125 C423.916017,69.0625009 424.054687,69.2714832 424.15625,69.5097656 C424.257813,69.7480481 424.308594,70.0039049 424.308594,70.2773438 C424.308594,70.5429701 424.257813,70.7929676 424.15625,71.0273438 C424.054687,71.2617199 423.916017,71.466796 423.740234,71.6425781 C423.564452,71.8183603 423.357423,71.9570307 423.119141,72.0585938 C422.880858,72.1601568 422.628908,72.2109375 422.363281,72.2109375 C422.089842,72.2109375 421.835939,72.1601568 421.601562,72.0585938 C421.367186,71.9570307 421.16211,71.8183603 420.986328,71.6425781 C420.810546,71.466796 420.671876,71.2617199 420.570312,71.0273438 C420.468749,70.7929676 420.417969,70.5429701 420.417969,70.2773438 C420.417969,70.0039049 420.468749,69.7480481 420.570312,69.5097656 C420.671876,69.2714832 420.810546,69.0625009 420.986328,68.8828125 C421.16211,68.7031241 421.367186,68.5625005 421.601562,68.4609375 C421.835939,68.3593745 422.089842,68.3085938 422.363281,68.3085938 L422.363281,68.3085938 Z" id="--&quot;................." fill="#CB1E31"></path>
            <polygon id="Path" fill="#5C8058" points="434.667969 55.4414062 434.339844 60.9375 432.417969 60.9375 432.078125 55.4414062"></polygon>
            <polygon id="Path" fill="#5C8058" points="439.226562 55.4414062 438.898438 60.9375 436.976562 60.9375 436.636719 55.4414062"></polygon>
            <path id="Line" d="M408.5,31.5 L64.5,31.5 L64.5,29.5 L408.5,29.5 L408.5,23.5 L422.5,30.5 L408.5,37.5 L408.5,31.5 Z" fill="#EE6B47" fill-rule="nonzero"></path>
            <path d="M423.5,30.5 L439.5,30.5" id="Line" stroke="#B8BAC1" stroke-linecap="square"></path>
        </g>
    </g>
</svg>