<?xml version="1.0" encoding="UTF-8" standalone="no"?>
<svg width="99px" height="128px" viewBox="0 0 99 128" version="1.1" xmlns="http://www.w3.org/2000/svg" xmlns:xlink="http://www.w3.org/1999/xlink" xmlns:sketch="http://www.bohemiancoding.com/sketch/ns">
    <!-- Generator: Sketch 3.2.2 (9983) - http://www.bohemiancoding.com/sketch -->
    <title>Slice 1</title>
    <desc>Created with Sketch.</desc>
    <defs></defs>
    <g id="object" stroke="none" stroke-width="1" fill="none" fill-rule="evenodd" sketch:type="MSPage">
        <g id="noun_3865-(1)" sketch:type="MSLayerGroup" transform="translate(-61.000000, -7.000000)">
            <g id="Background_xA0_Image_1_"></g>
            <g id="Three_Stack_1_" fill="#000000" sketch:type="MSShapeGroup">
                <g id="Cabinet" transform="translate(60.775000, 7.041322)">
                    <path d="M95.83002,0.281617686 L3.62219,0.281617686 C1.80336,0.281617686 0.32929,1.22875769 0.32929,2.39741769 L0.32929,125.519938 C0.32929,126.688598 1.80336,127.635738 3.62219,127.635738 L95.83002,127.635738 C97.64885,127.635738 99.12292,126.688598 99.12292,125.519938 L99.12292,2.39741769 C99.12292,1.22875769 97.64885,0.281617686 95.83002,0.281617686 L95.83002,0.281617686 Z M90.4774,123.669678 L8.9726,123.669678 L8.9726,86.5082777 L90.4774,86.5082777 L90.4774,123.669678 L90.4774,123.669678 Z M90.4774,82.5393777 L8.9726,82.5393777 L8.9726,45.3779777 L90.4774,45.3779777 L90.4774,82.5393777 L90.4774,82.5393777 Z M90.4774,41.4104977 L8.9726,41.4104977 L8.9726,4.24909769 L90.4774,4.24909769 L90.4774,41.4104977 L90.4774,41.4104977 Z" id="Shape"></path>
                </g>
                <g id="Bottom_Handle">
                    <path d="M122.18648,97.54548 L118.8317,97.54548 L118.8317,102.3891 C118.8317,102.77108 118.34771,103.08064 117.75101,103.08064 L102.62135,103.08064 C102.02465,103.08064 101.54066,102.77108 101.54066,102.3891 L101.54066,97.54548 L98.40246,97.54548 C97.80797,97.54548 97.32619,97.85362 97.32619,98.23276 L97.32619,105.16094 C97.32619,105.54008 97.80797,105.8468 98.40246,105.8468 L122.18427,105.8468 C122.77876,105.8468 123.26054,105.54008 123.26054,105.16094 L123.26054,98.23276 C123.26054,97.85362 122.78097,97.54548 122.18648,97.54548 L122.18648,97.54548 Z" id="Shape"></path>
                </g>
                <g id="Middle_Handle">
                    <path d="M122.39201,56.4166 L119.03723,56.4166 L119.03723,61.2588 C119.03723,61.64078 118.55324,61.95034 117.95654,61.95034 L102.82909,61.95034 C102.23239,61.95034 101.7484,61.64078 101.7484,61.2588 L101.7484,56.4166 L98.6102,56.4166 C98.01571,56.4166 97.53393,56.72332 97.53393,57.10246 L97.53393,64.03064 C97.53393,64.40978 98.01571,64.7165 98.6102,64.7165 L122.39201,64.7165 C122.9865,64.7165 123.46828,64.40978 123.46828,64.03064 L123.46828,57.10246 C123.46828,56.72474 122.98429,56.4166 122.39201,56.4166 L122.39201,56.4166 Z" id="Shape"></path>
                </g>
                <g id="Top_Handle" transform="translate(96.687500, 15.256198)">
                    <path d="M25.70451,0.0329416529 L22.34973,0.0329416529 L22.34973,4.87514165 C22.34973,5.25712165 21.86574,5.56668165 21.26904,5.56668165 L6.14159,5.56668165 C5.54489,5.56668165 5.0609,5.25712165 5.0609,4.87514165 L5.0609,0.0329416529 L1.9227,0.0329416529 C1.32821,0.0329416529 0.84643,0.339661653 0.84643,0.718801653 L0.84643,7.64698165 C0.84643,8.02612165 1.32821,8.33284165 1.9227,8.33284165 L25.70451,8.33284165 C26.299,8.33284165 26.78078,8.02612165 26.78078,7.64698165 L26.78078,0.718801653 C26.78078,0.339661653 26.29679,0.0329416529 25.70451,0.0329416529 L25.70451,0.0329416529 Z" id="Shape"></path>
                </g>
            </g>
        </g>
        <text id="ключ1" sketch:type="MSTextLayer" font-family="Open Sans" font-size="14" font-weight="bold" fill="#4990E2">
            <tspan x="26" y="35">ключ1</tspan>
        </text>
        <text id="ключ2" sketch:type="MSTextLayer" font-family="Open Sans" font-size="14" font-weight="bold" fill="#4990E2">
            <tspan x="26" y="74">ключ2</tspan>
        </text>
        <text id="ключ3" sketch:type="MSTextLayer" font-family="Open Sans" font-size="14" font-weight="bold" fill="#4990E2">
            <tspan x="26" y="118">ключ3</tspan>
        </text>
    </g>
</svg>