<svg width="112" height="146" viewBox="0 0 112 146" xmlns="http://www.w3.org/2000/svg"><title>Slice 1</title><desc>Created with Sketch.</desc><g fill="none" fill-rule="evenodd"><path d="M107.738.354H4.265C2.225.354.57 1.434.57 2.768v140.464c0 1.333 1.654 2.414 3.695 2.414h103.473c2.04 0 3.695-1.08 3.695-2.414V2.768c0-1.333-1.654-2.414-3.695-2.414zm-6.007 137H10.27V6.88h91.46v130.474zM69.346 9.444H65.58v5.523c0 .436-.543.79-1.212.79H47.392c-.67 0-1.213-.354-1.213-.79V9.443h-3.525c-.668 0-1.208.35-1.208.782v7.904c0 .43.54.78 1.207.78H69.34c.668 0 1.21-.35 1.21-.78V10.22c0-.433-.544-.782-1.21-.782z" fill="#000"/><text font-family="Open Sans" font-size="14" font-weight="bold" fill="#4990E2"><tspan x="35" y="74">name</tspan></text></g></svg>