<?xml version="1.0" encoding="UTF-8" standalone="no"?>
<svg width="112px" height="146px" viewBox="0 0 112 146" version="1.1" xmlns="http://www.w3.org/2000/svg" xmlns:xlink="http://www.w3.org/1999/xlink" xmlns:sketch="http://www.bohemiancoding.com/sketch/ns">
    <!-- Generator: Sketch 3.2.2 (9983) - http://www.bohemiancoding.com/sketch -->
    <title>Slice 1</title>
    <desc>Created with Sketch.</desc>
    <defs></defs>
    <g id="object-person-2" stroke="none" stroke-width="1" fill="none" fill-rule="evenodd" sketch:type="MSPage">
        <g id="noun_3865-(1)" sketch:type="MSLayerGroup" fill="#000000">
            <g id="Three_Stack_1_" sketch:type="MSShapeGroup">
                <g id="Cabinet" transform="translate(0.200000, 0.033058)">
                    <path d="M107.53776,0.321282149 L4.06472,0.321282149 C2.02368,0.321282149 0.36952,1.40182215 0.36952,2.73508215 L0.36952,143.198802 C0.36952,144.532062 2.02368,145.612602 4.06472,145.612602 L107.53776,145.612602 C109.5788,145.612602 111.23296,144.532062 111.23296,143.198802 L111.23296,2.73508215 C111.23296,1.40182215 109.5788,0.321282149 107.53776,0.321282149 L107.53776,0.321282149 Z M101.5312,137.321282 L10.0688,137.321282 L10.0688,6.84756215 L101.5312,6.84756215 L101.5312,137.321282 L101.5312,137.321282 Z" id="Shape"></path>
                </g>
                <g id="Top_Handle" transform="translate(40.500000, 9.404959)">
                    <path d="M28.84488,0.0375813223 L25.08024,0.0375813223 L25.08024,5.56178132 C25.08024,5.99756132 24.53712,6.35072132 23.86752,6.35072132 L6.89192,6.35072132 C6.22232,6.35072132 5.6792,5.99756132 5.6792,5.56178132 L5.6792,0.0375813223 L2.1576,0.0375813223 C1.49048,0.0375813223 0.94984,0.387501322 0.94984,0.820041322 L0.94984,8.72402132 C0.94984,9.15656132 1.49048,9.50648132 2.1576,9.50648132 L28.84488,9.50648132 C29.512,9.50648132 30.05264,9.15656132 30.05264,8.72402132 L30.05264,0.820041322 C30.05264,0.387501322 29.50952,0.0375813223 28.84488,0.0375813223 L28.84488,0.0375813223 Z" id="Shape"></path>
                </g>
            </g>
        </g>
        <text id="name" sketch:type="MSTextLayer" font-family="Open Sans" font-size="14" font-weight="bold" fill="#4990E2">
            <tspan x="35" y="74">name</tspan>
        </text>
    </g>
</svg>