<?xml version="1.0" encoding="UTF-8" standalone="no"?>
<svg width="125px" height="165px" viewBox="0 0 125 165" version="1.1" xmlns="http://www.w3.org/2000/svg" xmlns:xlink="http://www.w3.org/1999/xlink">
    <defs></defs>
    <g id="combined" stroke="none" stroke-width="1" fill="none" fill-rule="evenodd">
        <g id="object-person-1">
            <path d="M113.73776,8.35434 L10.26472,8.35434 C8.22368,8.35434 6.56952,9.43488 6.56952,10.76814 L6.56952,151.23186 C6.56952,152.56512 8.22368,153.64566 10.26472,153.64566 L113.73776,153.64566 C115.7788,153.64566 117.43296,152.56512 117.43296,151.23186 L117.43296,10.76814 C117.43296,9.43488 115.7788,8.35434 113.73776,8.35434 L113.73776,8.35434 Z M107.7312,147.35434 L16.2688,147.35434 L16.2688,85.8023 L107.7312,85.8023 L107.7312,147.35434 L107.7312,147.35434 Z M107.7312,76.43266 L16.2688,76.43266 L16.2688,14.88062 L107.7312,14.88062 L107.7312,76.43266 L107.7312,76.43266 Z" id="Shape" fill="#E8C48F"></path>
            <path d="M75.34488,19.44254 L71.58024,19.44254 L71.58024,24.96674 C71.58024,25.40252 71.03712,25.75568 70.36752,25.75568 L53.39192,25.75568 C52.72232,25.75568 52.1792,25.40252 52.1792,24.96674 L52.1792,19.44254 L48.6576,19.44254 C47.99048,19.44254 47.44984,19.79246 47.44984,20.225 L47.44984,28.12898 C47.44984,28.56152 47.99048,28.91144 48.6576,28.91144 L75.34488,28.91144 C76.012,28.91144 76.55264,28.56152 76.55264,28.12898 L76.55264,20.225 C76.55264,19.79246 76.00952,19.44254 75.34488,19.44254 L75.34488,19.44254 Z" id="Shape" fill="#E8C48F"></path>
            <path d="M75.34488,91.44254 L71.58024,91.44254 L71.58024,96.96674 C71.58024,97.40252 71.03712,97.75568 70.36752,97.75568 L53.39192,97.75568 C52.72232,97.75568 52.1792,97.40252 52.1792,96.96674 L52.1792,91.44254 L48.6576,91.44254 C47.99048,91.44254 47.44984,91.79246 47.44984,92.225 L47.44984,100.12898 C47.44984,100.56152 47.99048,100.91144 48.6576,100.91144 L75.34488,100.91144 C76.012,100.91144 76.55264,100.56152 76.55264,100.12898 L76.55264,92.225 C76.55264,91.79246 76.00952,91.44254 75.34488,91.44254 L75.34488,91.44254 Z" id="Shape-2" fill="#E8C48F"></path>
            <text id="name" font-family="Open Sans" font-size="14" font-weight="bold" fill="#EE6B47">
                <tspan x="41.6621094" y="54">name</tspan>
            </text>
            <text id="age" font-family="Open Sans" font-size="14" font-weight="bold" fill="#EE6B47">
                <tspan x="48.6816406" y="127">age</tspan>
            </text>
        </g>
    </g>
</svg>