<?xml version="1.0" encoding="UTF-8" standalone="no"?>
<svg width="134px" height="168px" viewBox="0 0 134 168" version="1.1" xmlns="http://www.w3.org/2000/svg" xmlns:xlink="http://www.w3.org/1999/xlink">
    <defs></defs>
    <g id="combined" stroke="none" stroke-width="1" fill="none" fill-rule="evenodd">
        <g id="object">
            <path d="M117.73776,11.35434 L14.26472,11.35434 C12.22368,11.35434 10.56952,12.43488 10.56952,13.76814 L10.56952,154.23186 C10.56952,155.56512 12.22368,156.64566 14.26472,156.64566 L117.73776,156.64566 C119.7788,156.64566 121.43296,155.56512 121.43296,154.23186 L121.43296,13.76814 C121.43296,12.43488 119.7788,11.35434 117.73776,11.35434 L117.73776,11.35434 Z M111.7312,152.121 L20.2688,152.121 L20.2688,109.7256 L111.7312,109.7256 L111.7312,152.121 L111.7312,152.121 Z M111.7312,105.1977 L20.2688,105.1977 L20.2688,62.8023 L111.7312,62.8023 L111.7312,105.1977 L111.7312,105.1977 Z M111.7312,58.27602 L20.2688,58.27602 L20.2688,15.88062 L111.7312,15.88062 L111.7312,58.27602 L111.7312,58.27602 Z" id="Shape" fill="#E8C48F"></path>
            <path d="M79.11424,114.28428 L75.3496,114.28428 L75.3496,119.8101 C75.3496,120.24588 74.80648,120.59904 74.13688,120.59904 L57.1588,120.59904 C56.4892,120.59904 55.94608,120.24588 55.94608,119.8101 L55.94608,114.28428 L52.42448,114.28428 C51.75736,114.28428 51.21672,114.63582 51.21672,115.06836 L51.21672,122.97234 C51.21672,123.40488 51.75736,123.7548 52.42448,123.7548 L79.11176,123.7548 C79.77888,123.7548 80.31952,123.40488 80.31952,122.97234 L80.31952,115.06836 C80.31952,114.63582 79.78136,114.28428 79.11424,114.28428 L79.11424,114.28428 Z" id="Shape" fill="#E8C48F"></path>
            <path d="M79.34488,67.3626 L75.58024,67.3626 L75.58024,72.8868 C75.58024,73.32258 75.03712,73.67574 74.36752,73.67574 L57.39192,73.67574 C56.72232,73.67574 56.1792,73.32258 56.1792,72.8868 L56.1792,67.3626 L52.6576,67.3626 C51.99048,67.3626 51.44984,67.71252 51.44984,68.14506 L51.44984,76.04904 C51.44984,76.48158 51.99048,76.8315 52.6576,76.8315 L79.34488,76.8315 C80.012,76.8315 80.55264,76.48158 80.55264,76.04904 L80.55264,68.14506 C80.55264,67.71414 80.00952,67.3626 79.34488,67.3626 L79.34488,67.3626 Z" id="Shape" fill="#E8C48F"></path>
            <path d="M79.34488,20.44254 L75.58024,20.44254 L75.58024,25.96674 C75.58024,26.40252 75.03712,26.75568 74.36752,26.75568 L57.39192,26.75568 C56.72232,26.75568 56.1792,26.40252 56.1792,25.96674 L56.1792,20.44254 L52.6576,20.44254 C51.99048,20.44254 51.44984,20.79246 51.44984,21.225 L51.44984,29.12898 C51.44984,29.56152 51.99048,29.91144 52.6576,29.91144 L79.34488,29.91144 C80.012,29.91144 80.55264,29.56152 80.55264,29.12898 L80.55264,21.225 C80.55264,20.79246 80.00952,20.44254 79.34488,20.44254 L79.34488,20.44254 Z" id="Shape" fill="#E8C48F"></path>
            <text id="ключ1" font-family="Open Sans" font-size="14" font-weight="bold" fill="#EE6B47">
                <tspan x="42.9946289" y="47">ключ1</tspan>
            </text>
            <text id="ключ2" font-family="Open Sans" font-size="14" font-weight="bold" fill="#EE6B47">
                <tspan x="42.9946289" y="93">ключ2</tspan>
            </text>
            <text id="ключ3" font-family="Open Sans" font-size="14" font-weight="bold" fill="#EE6B47">
                <tspan x="41.9946289" y="140">ключ3</tspan>
            </text>
        </g>
    </g>
</svg>