<svg width="99" height="128" viewBox="0 0 99 128" xmlns="http://www.w3.org/2000/svg"><title>Slice 1</title><desc>Created with Sketch.</desc><g fill="none" fill-rule="evenodd"><path d="M95.605.323H3.397C1.577.323.104 1.27.104 2.438V125.56c0 1.17 1.474 2.117 3.293 2.117h92.208c1.82 0 3.293-.947 3.293-2.116V2.44c0-1.168-1.474-2.115-3.293-2.115zM90.252 123.71H8.748V86.55h81.504v37.16zm0-41.13H8.748V45.42h81.504v37.16zm0-41.13H8.748V4.29h81.504v37.16zM61.186 90.545h-3.354v4.844c0 .38-.484.69-1.08.69H41.62c-.597 0-1.08-.31-1.08-.69V90.54H37.4c-.594 0-1.076.31-1.076.688v6.93c0 .38.482.686 1.076.686h23.782c.595 0 1.077-.307 1.077-.686v-6.926c0-.38-.48-.688-1.077-.688zm.206-41.128h-3.355v4.842c0 .38-.484.69-1.08.69H41.83c-.598 0-1.082-.31-1.082-.69v-4.846H37.61c-.594 0-1.076.306-1.076.685v6.93c0 .38.482.684 1.076.684h23.782c.595 0 1.076-.306 1.076-.685V50.1c0-.376-.484-.684-1.076-.684zm0-41.127H58.04v4.84c0 .383-.484.693-1.08.693H41.83c-.597 0-1.08-.31-1.08-.692V8.29h-3.14c-.594 0-1.076.306-1.076.685v6.928c0 .38.482.686 1.077.686h23.786c.594 0 1.076-.31 1.076-.69V8.975c0-.38-.484-.686-1.076-.686z" fill="#000"/><text font-family="Open Sans" font-size="14" font-weight="bold" fill="#4990E2"><tspan x="26" y="35">ключ1</tspan></text><text font-family="Open Sans" font-size="14" font-weight="bold" fill="#4990E2"><tspan x="26" y="74">ключ2</tspan></text><text font-family="Open Sans" font-size="14" font-weight="bold" fill="#4990E2"><tspan x="26" y="118">ключ3</tspan></text></g></svg>