<?xml version="1.0" encoding="UTF-8" standalone="no"?>
<svg width="134px" height="165px" viewBox="0 0 134 165" version="1.1" xmlns="http://www.w3.org/2000/svg" xmlns:xlink="http://www.w3.org/1999/xlink">
    <defs></defs>
    <g id="combined" stroke="none" stroke-width="1" fill="none" fill-rule="evenodd">
        <g id="object-person-2">
            <path d="M117.73776,8.35434 L14.26472,8.35434 C12.22368,8.35434 10.56952,9.43488 10.56952,10.76814 L10.56952,151.23186 C10.56952,152.56512 12.22368,153.64566 14.26472,153.64566 L117.73776,153.64566 C119.7788,153.64566 121.43296,152.56512 121.43296,151.23186 L121.43296,10.76814 C121.43296,9.43488 119.7788,8.35434 117.73776,8.35434 L117.73776,8.35434 Z M111.7312,145.35434 L20.2688,145.35434 L20.2688,14.88062 L111.7312,14.88062 L111.7312,145.35434 L111.7312,145.35434 Z" id="Shape" fill="#E8C48F"></path>
            <path d="M79.34488,17.44254 L75.58024,17.44254 L75.58024,22.96674 C75.58024,23.40252 75.03712,23.75568 74.36752,23.75568 L57.39192,23.75568 C56.72232,23.75568 56.1792,23.40252 56.1792,22.96674 L56.1792,17.44254 L52.6576,17.44254 C51.99048,17.44254 51.44984,17.79246 51.44984,18.225 L51.44984,26.12898 C51.44984,26.56152 51.99048,26.91144 52.6576,26.91144 L79.34488,26.91144 C80.012,26.91144 80.55264,26.56152 80.55264,26.12898 L80.55264,18.225 C80.55264,17.79246 80.00952,17.44254 79.34488,17.44254 L79.34488,17.44254 Z" id="Shape" fill="#E8C48F"></path>
            <text id="name" font-family="Open Sans" font-size="14" font-weight="bold" fill="#EE6B47">
                <tspan x="45.1621094" y="81.5">name</tspan>
            </text>
        </g>
    </g>
</svg>