<?xml version="1.0" encoding="UTF-8" standalone="no"?>
<svg width="112px" height="179px" viewBox="0 0 112 179" version="1.1" xmlns="http://www.w3.org/2000/svg" xmlns:xlink="http://www.w3.org/1999/xlink" xmlns:sketch="http://www.bohemiancoding.com/sketch/ns">
    <!-- Generator: Sketch 3.2.2 (9983) - http://www.bohemiancoding.com/sketch -->
    <title>Slice 1</title>
    <desc>Created with Sketch.</desc>
    <defs></defs>
    <g id="object-person-empty" stroke="none" stroke-width="1" fill="none" fill-rule="evenodd" sketch:type="MSPage">
        <path d="M48.5,29.5 L52.5,25.5" id="Line" stroke="#979797" stroke-linecap="square" sketch:type="MSShapeGroup"></path>
        <path d="M44.5,29.5 L48.5,25.5" id="Line-2" stroke="#979797" stroke-linecap="square" sketch:type="MSShapeGroup" transform="translate(46.500000, 27.500000) scale(-1, 1) translate(-46.500000, -27.500000) "></path>
        <path d="M48.5,14.5714286 L48.5,29.4285714" id="Line" stroke="#979797" stroke-linecap="square" sketch:type="MSShapeGroup"></path>
        <g id="noun_3865-(1)" sketch:type="MSLayerGroup" transform="translate(-68.000000, 25.000000)">
            <g id="Background_xA0_Image_1_"></g>
            <g id="Three_Stack_1_" transform="translate(68.200000, 8.033058)" fill="#000000" sketch:type="MSShapeGroup">
                <g id="Cabinet">
                    <path d="M107.53776,0.321282149 L4.06472,0.321282149 C2.02368,0.321282149 0.36952,1.40182215 0.36952,2.73508215 L0.36952,143.198802 C0.36952,144.532062 2.02368,145.612602 4.06472,145.612602 L107.53776,145.612602 C109.5788,145.612602 111.23296,144.532062 111.23296,143.198802 L111.23296,2.73508215 C111.23296,1.40182215 109.5788,0.321282149 107.53776,0.321282149 L107.53776,0.321282149 Z M101.5312,141.087942 L10.0688,141.087942 L10.0688,4.84756215 L101.5312,4.84756215 L101.5312,141.087942 L101.5312,141.087942 Z" id="Shape"></path>
                </g>
            </g>
        </g>
        <text id="Объект" sketch:type="MSTextLayer" font-family="Open Sans" font-size="16" font-weight="bold" sketch:alignment="middle">
            <tspan x="52.5" y="89" fill="#DFDFDF"></tspan>
            <tspan x="29.3203125" y="111" fill="#D8D8D8">пусто</tspan>
        </text>
        <text id="person" sketch:type="MSTextLayer" font-family="Consolas" font-size="14" font-weight="bold" fill="#000000">
            <tspan x="27" y="8">person</tspan>
        </text>
    </g>
</svg>