<?xml version="1.0" encoding="UTF-8" standalone="no"?>
<svg width="112px" height="146px" viewBox="0 0 112 146" version="1.1" xmlns="http://www.w3.org/2000/svg" xmlns:xlink="http://www.w3.org/1999/xlink" xmlns:sketch="http://www.bohemiancoding.com/sketch/ns">
    <!-- Generator: Sketch 3.2.2 (9983) - http://www.bohemiancoding.com/sketch -->
    <title>Slice 1</title>
    <desc>Created with Sketch.</desc>
    <defs></defs>
    <g id="object-person-1" stroke="none" stroke-width="1" fill="none" fill-rule="evenodd" sketch:type="MSPage">
        <g id="noun_3865-(1)" sketch:type="MSLayerGroup" transform="translate(-68.000000, 0.000000)" fill="#000000">
            <g id="Three_Stack_1_" sketch:type="MSShapeGroup">
                <g id="Cabinet" transform="translate(68.200000, 0.033058)">
                    <path d="M107.53776,0.321282149 L4.06472,0.321282149 C2.02368,0.321282149 0.36952,1.40182215 0.36952,2.73508215 L0.36952,143.198802 C0.36952,144.532062 2.02368,145.612602 4.06472,145.612602 L107.53776,145.612602 C109.5788,145.612602 111.23296,144.532062 111.23296,143.198802 L111.23296,2.73508215 C111.23296,1.40182215 109.5788,0.321282149 107.53776,0.321282149 L107.53776,0.321282149 Z M101.5312,139.321282 L10.0688,139.321282 L10.0688,77.7692421 L101.5312,77.7692421 L101.5312,139.321282 L101.5312,139.321282 Z M101.5312,68.3996021 L10.0688,68.3996021 L10.0688,6.84756215 L101.5312,6.84756215 L101.5312,68.3996021 L101.5312,68.3996021 Z" id="Shape"></path>
                </g>
                <g id="Middle_Handle" transform="translate(0.000000, 18.000000)">
                    <path d="M137.34488,64.3626 L133.58024,64.3626 L133.58024,69.8868 C133.58024,70.32258 133.03712,70.67574 132.36752,70.67574 L115.39192,70.67574 C114.72232,70.67574 114.1792,70.32258 114.1792,69.8868 L114.1792,64.3626 L110.6576,64.3626 C109.99048,64.3626 109.44984,64.71252 109.44984,65.14506 L109.44984,73.04904 C109.44984,73.48158 109.99048,73.8315 110.6576,73.8315 L137.34488,73.8315 C138.012,73.8315 138.55264,73.48158 138.55264,73.04904 L138.55264,65.14506 C138.55264,64.71414 138.00952,64.3626 137.34488,64.3626 L137.34488,64.3626 Z" id="Shape"></path>
                </g>
                <g id="Top_Handle" transform="translate(108.500000, 9.404959)">
                    <path d="M28.84488,0.0375813223 L25.08024,0.0375813223 L25.08024,5.56178132 C25.08024,5.99756132 24.53712,6.35072132 23.86752,6.35072132 L6.89192,6.35072132 C6.22232,6.35072132 5.6792,5.99756132 5.6792,5.56178132 L5.6792,0.0375813223 L2.1576,0.0375813223 C1.49048,0.0375813223 0.94984,0.387501322 0.94984,0.820041322 L0.94984,8.72402132 C0.94984,9.15656132 1.49048,9.50648132 2.1576,9.50648132 L28.84488,9.50648132 C29.512,9.50648132 30.05264,9.15656132 30.05264,8.72402132 L30.05264,0.820041322 C30.05264,0.387501322 29.50952,0.0375813223 28.84488,0.0375813223 L28.84488,0.0375813223 Z" id="Shape"></path>
                </g>
            </g>
        </g>
        <text id="name" sketch:type="MSTextLayer" font-family="Open Sans" font-size="14" font-weight="bold" fill="#4990E2">
            <tspan x="35" y="46">name</tspan>
        </text>
        <text id="age" sketch:type="MSTextLayer" font-family="Open Sans" font-size="14" font-weight="bold" fill="#4990E2">
            <tspan x="42" y="119">age</tspan>
        </text>
    </g>
</svg>