<?xml version="1.0" encoding="UTF-8" standalone="no"?>
<svg width="546px" height="150px" viewBox="0 0 546 150" version="1.1" xmlns="http://www.w3.org/2000/svg" xmlns:xlink="http://www.w3.org/1999/xlink" xmlns:sketch="http://www.bohemiancoding.com/sketch/ns">
    <!-- Generator: bin/sketchtool 1.3 (252) - http://www.bohemiancoding.com/sketch -->
    <title>variable-copy-reference.svg</title>
    <desc>Created with bin/sketchtool.</desc>
    <defs></defs>
    <g id="combined" stroke="none" stroke-width="1" fill="none" fill-rule="evenodd" sketch:type="MSPage">
        <g id="variable-copy-reference.svg" sketch:type="MSArtboardGroup">
            <path d="M221.26472,9.85877813 C219.22368,9.85877813 217.56952,10.9393181 217.56952,12.2725781 L217.56952,92.7362981 C217.56952,94.0695581 219.22368,95.1500981 221.26472,95.1500981 L324.73776,95.1500981 C326.7788,95.1500981 328.43296,94.0695581 328.43296,92.7362981 L328.43296,12.2725781 C328.43296,10.9393181 326.7788,9.85877813 324.73776,9.85877813 L221.26472,9.85877813 Z M318.7312,86.8850581 L227.2688,86.8850581 L227.2688,16.3850581 L318.7312,16.3850581 L318.7312,86.8850581 L318.7312,86.8850581 Z" id="Shape" fill="#E8C48F" sketch:type="MSShapeGroup"></path>
            <path d="M286.34488,18.9469781 L282.58024,18.9469781 L282.58024,24.4711781 C282.58024,24.9069581 282.03712,25.2601181 281.36752,25.2601181 L264.39192,25.2601181 C263.72232,25.2601181 263.1792,24.9069581 263.1792,24.4711781 L263.1792,18.9469781 L259.6576,18.9469781 C258.99048,18.9469781 258.44984,19.2968981 258.44984,19.7294381 L258.44984,27.6334181 C258.44984,28.0659581 258.99048,28.4158781 259.6576,28.4158781 L286.34488,28.4158781 C287.012,28.4158781 287.55264,28.0659581 287.55264,27.6334181 L287.55264,19.7294381 C287.55264,19.2968981 287.00952,18.9469781 286.34488,18.9469781 L286.34488,18.9469781 Z" id="Shape" fill="#E8C48F" sketch:type="MSShapeGroup"></path>
            <text id="name" sketch:type="MSTextLayer" font-family="Open Sans" font-size="14" font-weight="bold" sketch:alignment="middle" fill="#EE6B47">
                <tspan x="252.162109" y="60.0044381">name</tspan>
            </text>
            <g id="Group" sketch:type="MSLayerGroup" transform="translate(11.000000, 15.000000)">
                <g id="noun_1211_cc" fill="#E8C48F" sketch:type="MSShapeGroup">
                    <path d="M17,28.1960457 L129.557785,28.1960457 L129.557785,71.1456641 C129.557785,71.5185728 129.479295,72.0083855 129.279367,72.4404861 C129.07944,72.8725868 112.704625,108 112.704625,108 L112.704625,53.6396695 L129.559266,28.1960457 L148,0 L35.4407339,0 L17,28.1960457 L17,28.1960457 Z" id="Shape"></path>
                    <path d="M17,57 L17,29 L2,57" id="Shape"></path>
                    <path d="M0,59 L0,113.729971 C0,117.150501 1.4836395,119 4.38712201,119 L104.473443,119 C107.59502,119 110,116.4521 110,115.524372 L110,59 L0,59 L0,59 Z" id="Shape"></path>
                </g>
                <text id="User" sketch:type="MSTextLayer" font-family="Open Sans" font-size="18" font-weight="526" fill="#FFFFFF">
                    <tspan x="35" y="96">User</tspan>
                </text>
                <g id="Rectangle-4-+-Shape-3" transform="translate(104.000000, 15.000000)" sketch:type="MSShapeGroup">
                    <rect id="Rectangle-4" fill="#FFFFFF" x="0" y="19" width="44" height="6"></rect>
                    <path d="M7.85404284,20.3219293 L21.6330289,6.84634915 C23.2462881,5.57160629 26.8181947,2.41895793 25.2049355,1.14440364 C23.5916764,-0.131093502 22.5405033,0.671996159 20.9296292,1.9474933 L2.43143016,20.3219299 C0.818170998,21.5966728 0.818171047,23.1666601 2.43143021,24.4412144 C2.43143021,24.4412144 23.9137313,44.5088763 25.2049351,44.5088763 C28.2099969,44.5088763 27.882164,42.6878208 26.2689048,41.4132665 L7.8540433,23.5870439 L42.8425234,23.5870439 L66.2240642,23.5870439 L85.0283644,23.5870439 C87.3089653,23.5870439 88.7785142,23.8657087 88.7785142,22.0625887 C88.7785142,20.2594687 87.3089645,20.3219293 85.0283637,20.3219293 L7.85404284,20.3219293 Z" id="Shape-3" fill="#EE6B47" transform="translate(45.000000, 22.504438) scale(-1, 1) translate(-45.000000, -22.504438) "></path>
                </g>
                <g id="Rectangle-3-+-Shape" transform="translate(46.000000, 16.000000)" sketch:type="MSShapeGroup">
                    <rect id="Rectangle-3" fill="#FFFFFF" x="0" y="0" width="47" height="37"></rect>
                    <path d="M44,33.7718421 L4,33.7718421 L4,4 L44,4 L44,33.7718421 L44,33.7718421 Z M8.7332,31.0177632 L39.2664,31.0177632 L29.2192,20.8671053 L27.3168,22.7567105 C26.4932,23.5690789 25.314,24.0340789 24.0748,24.0340789 C24.068,24.0340789 24.0608,24.0328947 24.054,24.0328947 C22.81,24.0277632 21.6272,23.5528947 20.808,22.7286842 L18.874,20.7964474 L8.7332,31.0177632 L8.7332,31.0177632 Z M6.7908,8.72618421 L6.7908,29.0397368 L16.9128,18.8381579 L6.7908,8.72618421 L6.7908,8.72618421 Z M31.1856,18.9131579 L41.2092,29.0385526 L41.2092,8.95434211 L31.1856,18.9131579 L31.1856,18.9131579 Z M8.7396,6.75486842 L22.7968,20.7968421 C23.1012,21.1023684 23.5632,21.2776316 24.0664,21.2788158 L24.0748,21.2788158 C24.5708,21.2788158 25.0432,21.1059211 25.3392,20.8122368 L39.4888,6.75486842 L8.7396,6.75486842 L8.7396,6.75486842 Z" id="Shape" fill="#EE6B47"></path>
                </g>
            </g>
            <g id="noun_1211_cc" sketch:type="MSLayerGroup" transform="translate(396.000000, 15.000000)" fill="#E8C48F">
                <path d="M17,28.1960457 L129.557785,28.1960457 L129.557785,71.1456641 C129.557785,71.5185728 129.479295,72.0083855 129.279367,72.4404861 C129.07944,72.8725868 112.704625,108 112.704625,108 L112.704625,53.6396695 L129.559266,28.1960457 L148,0 L35.4407339,0 L17,28.1960457 L17,28.1960457 Z" id="Shape" sketch:type="MSShapeGroup"></path>
                <path d="M17,57 L17,29 L2,57" id="Shape" sketch:type="MSShapeGroup"></path>
                <path d="M0,59 L0,113.729971 C0,117.150501 1.4836395,119 4.38712201,119 L104.473443,119 C107.59502,119 110,116.4521 110,115.524372 L110,59 L0,59 L0,59 Z" id="Shape" sketch:type="MSShapeGroup"></path>
            </g>
            <text id="Admin" sketch:type="MSTextLayer" font-family="Open Sans" font-size="18" font-weight="526" fill="#FFFFFF">
                <tspan x="424" y="111">Admin</tspan>
            </text>
            <g id="Rectangle-4-+-Shape-3" sketch:type="MSLayerGroup" transform="translate(384.500000, 52.500000) scale(-1, 1) translate(-384.500000, -52.500000) translate(340.000000, 30.000000)">
                <rect id="Rectangle-4" fill="#FFFFFF" sketch:type="MSShapeGroup" x="0" y="19" width="44" height="6"></rect>
                <path d="M7.85404284,20.3219293 L21.6330289,6.84634915 C23.2462881,5.57160629 26.8181947,2.41895793 25.2049355,1.14440364 C23.5916764,-0.131093502 22.5405033,0.671996159 20.9296292,1.9474933 L2.43143016,20.3219299 C0.818170998,21.5966728 0.818171047,23.1666601 2.43143021,24.4412144 C2.43143021,24.4412144 23.9137313,44.5088763 25.2049351,44.5088763 C28.2099969,44.5088763 27.882164,42.6878208 26.2689048,41.4132665 L7.8540433,23.5870439 L42.8425234,23.5870439 L66.2240642,23.5870439 L85.0283644,23.5870439 C87.3089653,23.5870439 88.7785142,23.8657087 88.7785142,22.0625887 C88.7785142,20.2594687 87.3089645,20.3219293 85.0283637,20.3219293 L7.85404284,20.3219293 Z" id="Shape-3" fill="#EE6B47" sketch:type="MSShapeGroup" transform="translate(45.000000, 22.504438) scale(-1, 1) translate(-45.000000, -22.504438) "></path>
            </g>
            <g id="Rectangle-3-+-Shape" sketch:type="MSLayerGroup" transform="translate(442.000000, 31.000000)">
                <rect id="Rectangle-3" fill="#FFFFFF" sketch:type="MSShapeGroup" x="0" y="0" width="47" height="37"></rect>
                <path d="M44,33.7718421 L4,33.7718421 L4,4 L44,4 L44,33.7718421 L44,33.7718421 Z M8.7332,31.0177632 L39.2664,31.0177632 L29.2192,20.8671053 L27.3168,22.7567105 C26.4932,23.5690789 25.314,24.0340789 24.0748,24.0340789 C24.068,24.0340789 24.0608,24.0328947 24.054,24.0328947 C22.81,24.0277632 21.6272,23.5528947 20.808,22.7286842 L18.874,20.7964474 L8.7332,31.0177632 L8.7332,31.0177632 Z M6.7908,8.72618421 L6.7908,29.0397368 L16.9128,18.8381579 L6.7908,8.72618421 L6.7908,8.72618421 Z M31.1856,18.9131579 L41.2092,29.0385526 L41.2092,8.95434211 L31.1856,18.9131579 L31.1856,18.9131579 Z M8.7396,6.75486842 L22.7968,20.7968421 C23.1012,21.1023684 23.5632,21.2776316 24.0664,21.2788158 L24.0748,21.2788158 C24.5708,21.2788158 25.0432,21.1059211 25.3392,20.8122368 L39.4888,6.75486842 L8.7396,6.75486842 L8.7396,6.75486842 Z" id="Shape" fill="#EE6B47" sketch:type="MSShapeGroup"></path>
            </g>
        </g>
    </g>
</svg>