<?xml version="1.0" encoding="UTF-8" standalone="no"?>
<svg width="359px" height="143px" viewBox="0 0 359 143" version="1.1" xmlns="http://www.w3.org/2000/svg" xmlns:xlink="http://www.w3.org/1999/xlink" xmlns:sketch="http://www.bohemiancoding.com/sketch/ns">
    <!-- Generator: bin/sketchtool 1.3 (252) - http://www.bohemiancoding.com/sketch -->
    <title>variable-copy-value.svg</title>
    <desc>Created with bin/sketchtool.</desc>
    <defs></defs>
    <g id="combined" stroke="none" stroke-width="1" fill="none" fill-rule="evenodd" sketch:type="MSPage">
        <g id="variable-copy-value.svg" sketch:type="MSArtboardGroup">
            <g id="noun_1211_cc-+-Message" sketch:type="MSLayerGroup" transform="translate(11.000000, 6.000000)">
                <g id="noun_1211_cc">
                    <path d="M17,37.1960457 L129.557785,37.1960457 L129.557785,80.1456641 C129.557785,80.5185728 129.479295,81.0083855 129.279367,81.4404861 C129.07944,81.8725868 112.704625,117 112.704625,117 L112.704625,62.6396695 L129.559266,37.1960457 L148,9 L35.4407339,9 L17,37.1960457 L17,37.1960457 Z" id="Shape" fill="#E8C48F" sketch:type="MSShapeGroup"></path>
                    <path d="M17,66 L17,38 L2,66" id="Shape" fill="#E8C48F" sketch:type="MSShapeGroup"></path>
                    <g id="Rectangle-5-+-&quot;World!&quot;" transform="translate(15.000000, 0.000000)">
                        <path d="M18.9106925,0.395208397 L73.4146415,58.8435379 L55.0893075,75.9321883 L0.585358502,17.4838588 L18.9106925,0.395208397 L18.9106925,0.395208397 Z" id="Rectangle-5" stroke="#8A704D" stroke-width="2" fill="#FFF9EB" sketch:type="MSShapeGroup"></path>
                        <text id="&quot;Привет!&quot;" sketch:type="MSTextLayer" transform="translate(40.359759, 39.417209) rotate(47.000000) translate(-40.359759, -39.417209) " font-family="Open Sans" font-size="14" font-weight="526" sketch:alignment="middle" line-spacing="17" fill="#8A704D">
                            <tspan x="3.68215005" y="45.9172093">"Привет!"</tspan>
                        </text>
                    </g>
                    <path d="M0,68 L0,122.729971 C0,126.150501 1.4836395,128 4.38712201,128 L104.473443,128 C107.59502,128 110,125.4521 110,124.524372 L110,68 L0,68 L0,68 Z" id="Shape" fill="#E8C48F" sketch:type="MSShapeGroup"></path>
                </g>
                <text id="Message" sketch:type="MSTextLayer" font-family="Open Sans" font-size="18" font-weight="526" fill="#FFFFFF">
                    <tspan x="17" y="105">Message</tspan>
                </text>
            </g>
            <g id="Group" sketch:type="MSLayerGroup" transform="translate(210.000000, 6.000000)">
                <path d="M17,37.1960457 L130.417005,37.1960457 L130.417005,80.1456641 C130.417005,80.5185728 130.337916,81.0083855 130.136462,81.4404861 C129.935008,81.8725868 113.435195,117 113.435195,117 L113.435195,62.6396695 L130.418497,37.1960457 L149,9 L35.5815029,9 L17,37.1960457 L17,37.1960457 Z" id="Shape" fill="#E8C48F" sketch:type="MSShapeGroup"></path>
                <path d="M18,66 L18,38 L2,66" id="Shape" fill="#E8C48F" sketch:type="MSShapeGroup"></path>
                <g id="Rectangle-5-+-&quot;World!&quot;" transform="translate(15.000000, 0.000000)">
                    <path d="M19.1662424,0.395208397 L74.4067312,58.8435379 L55.8337576,75.9321883 L0.593268752,17.4838588 L19.1662424,0.395208397 L19.1662424,0.395208397 Z" id="Rectangle-5" stroke="#8A704D" stroke-width="2" fill="#FFF9EB" sketch:type="MSShapeGroup"></path>
                    <text id="&quot;Привет!&quot;" sketch:type="MSTextLayer" transform="translate(39.891647, 37.685856) rotate(47.000000) translate(-39.891647, -37.685856) " font-family="Open Sans" font-size="14" font-weight="526" sketch:alignment="middle" line-spacing="17" fill="#8A704D">
                        <tspan x="3.40960987" y="44.1858556">"Привет!"</tspan>
                    </text>
                </g>
                <path d="M0,68 L0,122.729971 C0,126.150501 1.49712713,128 4.42700494,128 L105.423201,128 C108.573157,128 111,125.4521 111,124.524372 L111,68 L0,68 L0,68 Z" id="Shape" fill="#E8C48F" sketch:type="MSShapeGroup"></path>
                <text id="Phrase" sketch:type="MSTextLayer" font-family="Open Sans" font-size="18" font-weight="526" fill="#FFFFFF">
                    <tspan x="25" y="105">Phrase</tspan>
                </text>
            </g>
        </g>
    </g>
</svg>