<?xml version="1.0" encoding="UTF-8" standalone="no"?>
<svg width="337px" height="142px" viewBox="0 0 337 142" version="1.1" xmlns="http://www.w3.org/2000/svg" xmlns:xlink="http://www.w3.org/1999/xlink" xmlns:sketch="http://www.bohemiancoding.com/sketch/ns">
    <!-- Generator: bin/sketchtool 1.3 (252) - http://www.bohemiancoding.com/sketch -->
    <title>variable-contains-reference.svg</title>
    <desc>Created with bin/sketchtool.</desc>
    <defs></defs>
    <g id="combined" stroke="none" stroke-width="1" fill="none" fill-rule="evenodd" sketch:type="MSPage">
        <g id="variable-contains-reference.svg" sketch:type="MSArtboardGroup">
            <g id="noun_1211_cc" sketch:type="MSLayerGroup" transform="translate(12.000000, 12.000000)" fill="#E8C48F">
                <path d="M17,28.1960457 L129.557785,28.1960457 L129.557785,71.1456641 C129.557785,71.5185728 129.479295,72.0083855 129.279367,72.4404861 C129.07944,72.8725868 112.704625,108 112.704625,108 L112.704625,53.6396695 L129.559266,28.1960457 L148,0 L35.4407339,0 L17,28.1960457 L17,28.1960457 Z" id="Shape" sketch:type="MSShapeGroup"></path>
                <path d="M17,57 L17,29 L2,57" id="Shape" sketch:type="MSShapeGroup"></path>
                <path d="M0,59 L0,113.729971 C0,117.150501 1.4836395,119 4.38712201,119 L104.473443,119 C107.59502,119 110,116.4521 110,115.524372 L110,59 L0,59 L0,59 Z" id="Shape" sketch:type="MSShapeGroup"></path>
            </g>
            <text id="User" sketch:type="MSTextLayer" font-family="Open Sans" font-size="18" font-weight="526" fill="#FFFFFF">
                <tspan x="47" y="108">User</tspan>
            </text>
            <path d="M222.26472,6.85877813 C220.22368,6.85877813 218.56952,7.93931813 218.56952,9.27257813 L218.56952,89.7362981 C218.56952,91.0695581 220.22368,92.1500981 222.26472,92.1500981 L325.73776,92.1500981 C327.7788,92.1500981 329.43296,91.0695581 329.43296,89.7362981 L329.43296,9.27257813 C329.43296,7.93931813 327.7788,6.85877813 325.73776,6.85877813 L222.26472,6.85877813 Z M319.7312,83.8850581 L228.2688,83.8850581 L228.2688,13.3850581 L319.7312,13.3850581 L319.7312,83.8850581 L319.7312,83.8850581 Z" id="Shape" fill="#E8C48F" sketch:type="MSShapeGroup"></path>
            <rect id="Rectangle-4" fill="#FFFFFF" sketch:type="MSShapeGroup" x="116" y="46" width="44" height="6"></rect>
            <path d="M123.854043,47.3219293 L137.633029,33.8463492 C139.246288,32.5716063 142.818195,29.4189579 141.204936,28.1444036 C139.591676,26.8689065 138.540503,27.6719962 136.929629,28.9474933 L118.43143,47.3219299 C116.818171,48.5966728 116.818171,50.1666601 118.43143,51.4412144 C118.43143,51.4412144 139.913731,71.5088763 141.204935,71.5088763 C144.209997,71.5088763 143.882164,69.6878208 142.268905,68.4132665 L123.854043,50.5870439 L158.842523,50.5870439 L182.224064,50.5870439 L201.028364,50.5870439 C203.308965,50.5870439 204.778514,50.8657087 204.778514,49.0625887 C204.778514,47.2594687 203.308964,47.3219293 201.028364,47.3219293 L123.854043,47.3219293 Z" id="Shape-3" fill="#EE6B47" sketch:type="MSShapeGroup" transform="translate(161.000000, 49.504438) scale(-1, 1) translate(-161.000000, -49.504438) "></path>
            <path d="M287.34488,15.9469781 L283.58024,15.9469781 L283.58024,21.4711781 C283.58024,21.9069581 283.03712,22.2601181 282.36752,22.2601181 L265.39192,22.2601181 C264.72232,22.2601181 264.1792,21.9069581 264.1792,21.4711781 L264.1792,15.9469781 L260.6576,15.9469781 C259.99048,15.9469781 259.44984,16.2968981 259.44984,16.7294381 L259.44984,24.6334181 C259.44984,25.0659581 259.99048,25.4158781 260.6576,25.4158781 L287.34488,25.4158781 C288.012,25.4158781 288.55264,25.0659581 288.55264,24.6334181 L288.55264,16.7294381 C288.55264,16.2968981 288.00952,15.9469781 287.34488,15.9469781 L287.34488,15.9469781 Z" id="Shape" fill="#E8C48F" sketch:type="MSShapeGroup"></path>
            <text id="name" sketch:type="MSTextLayer" font-family="Open Sans" font-size="14" font-weight="bold" sketch:alignment="middle" fill="#EE6B47">
                <tspan x="253.162109" y="57.0044381">name</tspan>
            </text>
            <g id="Rectangle-3-+-Shape" sketch:type="MSLayerGroup" transform="translate(58.000000, 28.000000)">
                <rect id="Rectangle-3" fill="#FFFFFF" sketch:type="MSShapeGroup" x="0" y="0" width="47" height="37"></rect>
                <path d="M44,33.7718421 L4,33.7718421 L4,4 L44,4 L44,33.7718421 L44,33.7718421 Z M8.7332,31.0177632 L39.2664,31.0177632 L29.2192,20.8671053 L27.3168,22.7567105 C26.4932,23.5690789 25.314,24.0340789 24.0748,24.0340789 C24.068,24.0340789 24.0608,24.0328947 24.054,24.0328947 C22.81,24.0277632 21.6272,23.5528947 20.808,22.7286842 L18.874,20.7964474 L8.7332,31.0177632 L8.7332,31.0177632 Z M6.7908,8.72618421 L6.7908,29.0397368 L16.9128,18.8381579 L6.7908,8.72618421 L6.7908,8.72618421 Z M31.1856,18.9131579 L41.2092,29.0385526 L41.2092,8.95434211 L31.1856,18.9131579 L31.1856,18.9131579 Z M8.7396,6.75486842 L22.7968,20.7968421 C23.1012,21.1023684 23.5632,21.2776316 24.0664,21.2788158 L24.0748,21.2788158 C24.5708,21.2788158 25.0432,21.1059211 25.3392,20.8122368 L39.4888,6.75486842 L8.7396,6.75486842 L8.7396,6.75486842 Z" id="Shape" fill="#EE6B47" sketch:type="MSShapeGroup"></path>
            </g>
        </g>
    </g>
</svg>