<svg width="297" height="199" viewBox="0 0 297 199" xmlns="http://www.w3.org/2000/svg"><title>Slice 2</title><desc>Created with Sketch.</desc><g fill="none" fill-rule="evenodd"><path d="M43.5 141h102m-144 56.5l42-56m89 55l42-56M43.5 101h132m-174 56.5l42-56m89 56l42-56M43 141.5v-40" stroke="#979797" stroke-width="2" stroke-linecap="square"/><path stroke="#979797" stroke-width="2" fill="#E8E8E8" d="M63.865 95.022l54.504 58.42-18.32 17.09-54.505-58.42z"/><path d="M175 140v-38.5" stroke="#979797" stroke-width="2" stroke-linecap="square"/><path stroke="#979797" stroke-width="2" fill="#fff" d="M0 158h133v40H0z"/><g transform="translate(37 171)"><path stroke="#979797" fill="#fff" d="M0 0h63v16H0z"/><circle stroke="#979797" cx="3.5" cy="3.5" r="1.5"/><text font-family="Consolas" font-size="14" fill="#4990E2"><tspan x="15" y="12">user</tspan></text></g><path d="M292.738.354H189.265c-2.04 0-3.695.588-3.695 1.313v76.375c0 .725 1.654 1.312 3.695 1.312h103.473c2.04 0 3.695-.587 3.695-1.312V1.667c0-.725-1.654-1.313-3.695-1.313zM286.73 73h-91.46V6.88h91.46V73zM254.345 9.443h-3.765v5.524c0 .436-.543.79-1.212.79h-16.976c-.67 0-1.213-.354-1.213-.79V9.443h-3.525c-.668 0-1.208.35-1.208.782v7.904c0 .43.54.78 1.207.78h26.687c.668 0 1.21-.35 1.21-.78V10.22c0-.432-.544-.782-1.21-.782z" fill="#000"/><text font-family="Open Sans" font-size="14" font-weight="bold" fill="#979797"><tspan x="218" y="49">name</tspan></text><path d="M126.932 68.668l3.752 6.77s-55.797 30.79-47.958 46.94c20.165-30.07 51.34-40.848 51.34-40.848l3.75 6.772 38.052-33.926-48.936 14.292zm6.17.24l2.914 5.254s-43.34 22.756-49.964 40.692C102.774 91.32 138.12 77.96 138.12 77.96l2.858 5.155 26.354-24.007-34.23 9.8z" fill="#000"/><path d="M88.476 126h-14.95c-.33 0-.526.14-.526.37v6.2c0 .232.197.37.525.37h14.95c.33 0 .525-.138.525-.37v-6.2c0-.23-.197-.37-.524-.37zm-.796.555l-6.81 3.795-6.693-3.795H87.68zm.27 5.83h-13.9c-.165 0-.263-.07-.263-.185v-5.17l7.082 3.967 7.34-4.113v5.316c0 .116-.098.186-.26.186z" fill="#010101"/></g></svg>