<svg width="366" height="103" viewBox="0 0 366 103" xmlns="http://www.w3.org/2000/svg"><title>Diagrams</title><desc>Created with Sketch.</desc><g fill="none" fill-rule="evenodd"><path d="M43.5 45h102m-144 56.5l42-56m89 55l42-56M43.5 5h132M1.5 61.5l42-56m89 56l42-56M43 45.5v-40" stroke="#979797" stroke-width="2" stroke-linecap="square"/><path stroke="#979797" stroke-width="2" fill="#E8E8E8" d="M63.865-.978l54.504 58.42-18.32 17.09-54.508-58.42z"/><text transform="rotate(47 85.693 38.5)" font-family="Open Sans" font-size="14" fill="#373535"><tspan x="54.693" y="44">&amp;quot;Привет&amp;quot;</tspan></text><path d="M175 44V5.5" stroke="#979797" stroke-width="2" stroke-linecap="square"/><path stroke="#979797" stroke-width="2" fill="#fff" d="M0 62h133v40H0z"/><g transform="translate(37 75)"><path stroke="#979797" fill="#fff" d="M0 0h63v16H0z"/><circle stroke="#979797" cx="3.5" cy="3.5" r="1.5"/><text font-family="Consolas" font-size="14" fill="#4990E2"><tspan x="7" y="12">message</tspan></text></g><path d="M232.5 45h102m-144 56.5l42-56m89 55l42-56M232.5 5h132m-174 56.5l42-56m89 56l42-56M232 45.5v-40" stroke="#979797" stroke-width="2" stroke-linecap="square"/><path stroke="#979797" stroke-width="2" fill="#E8E8E8" d="M252.865-.978l54.504 58.42-18.32 17.09-54.508-58.42z"/><text transform="rotate(47 274.693 38.5)" font-family="Open Sans" font-size="14" fill="#373535"><tspan x="243.693" y="44">&amp;quot;Привет&amp;quot;</tspan></text><path d="M364 44V5.5" stroke="#979797" stroke-width="2" stroke-linecap="square"/><path stroke="#979797" stroke-width="2" fill="#fff" d="M189 62h133v40H189z"/><g transform="translate(226 75)"><path stroke="#979797" fill="#fff" d="M0 0h63v16H0z"/><circle stroke="#979797" cx="3.5" cy="3.5" r="1.5"/><text font-family="Consolas" font-size="14" fill="#4990E2"><tspan x="10" y="12">phrase</tspan></text></g></g></svg>