<svg xmlns="http://www.w3.org/2000/svg" width="566" height="449" viewBox="0 0 566 449"><defs><style>@import url(https://fonts.googleapis.com/css?family=Open+Sans:bold,italic,bolditalic%7CPT+Mono);@font-face{font-family:&apos;PT Mono&apos;;font-weight:700;font-style:normal;src:local(&apos;PT MonoBold&apos;),url(/font/PTMonoBold.woff2) format(&apos;woff2&apos;),url(/font/PTMonoBold.woff) format(&apos;woff&apos;),url(/font/PTMonoBold.ttf) format(&apos;truetype&apos;)}</style></defs><g id="combined" fill="none" fill-rule="evenodd" stroke="none" stroke-width="1"><g id="limitations.svg"><path id="Line-3" stroke="#FFF" stroke-linecap="square" stroke-width="4.332" d="M183 142l10 8"/><rect id="Rectangle-1" width="143.556" height="85.556" x="148.722" y="176.722" stroke="#7E7C7B" stroke-width="1.444" rx="2.166"/><path id="Line" stroke="#7E7C7B" stroke-linecap="square" stroke-width=".722" d="M149.36 195h143.28"/><text id="https://javascript.i" fill="#181717" font-family="OpenSans-Regular, Open Sans" font-size="10.108" font-weight="normal"><tspan x="173" y="189">https://javascript.info</tspan></text><text id="&lt;script&gt;" fill="#181717" font-family="OpenSans-Regular, Open Sans" font-size="10" font-weight="normal"><tspan x="173" y="210">&lt;script&gt;</tspan> <tspan x="173" y="224">...</tspan> <tspan x="173" y="238">&lt;/script&gt;</tspan></text><circle id="Oval-1" cx="155" cy="185" r="2" stroke="#7E7C7B" stroke-width=".722"/><circle id="Oval-2" cx="161" cy="185" r="2" stroke="#7E7C7B" stroke-width=".722"/><circle id="Oval-3" cx="167" cy="185" r="2" stroke="#7E7C7B" stroke-width=".722"/><rect id="Rectangle-2" width="143.556" height="85.556" x="415.722" y="176.722" stroke="#DBAF88" stroke-width="1.444" rx="2.166"/><path id="Line-2" stroke="#7E7C7B" stroke-linecap="square" stroke-width=".722" d="M415.36 195h143.28"/><text id="https://gmail.com" fill="#181717" font-family="OpenSans-Regular, Open Sans" font-size="10" font-weight="normal"><tspan x="439" y="188">https://gmail.com</tspan></text><circle id="Oval-4" cx="422" cy="185" r="2" stroke="#7E7C7B" stroke-width=".722"/><circle id="Oval-5" cx="427" cy="185" r="2" stroke="#7E7C7B" stroke-width=".722"/><circle id="Oval-6" cx="433" cy="185" r="2" stroke="#7E7C7B" stroke-width=".722"/><g id="Layer_1" fill="#DBAF88" transform="translate(317 14)"><path id="Shape" d="M118 56.882c0-13.323-10.912-24.12-24.374-24.12-2.08 0-4.088.284-6.014.77.282-1.605.438-3.253.438-4.938C88.05 12.802 75.11 0 59.153 0 43.195 0 30.257 12.802 30.257 28.594c0 1.714.16 3.39.453 5.02a24.582 24.582 0 00-6.337-.853C10.911 32.761 0 43.56 0 56.881c0 12.567 9.714 22.877 22.116 24.006.138.06.287.095.446.095h1.459c.119.001.233.018.352.018.12 0 .234-.017.353-.018h68.548c.12.001.234.018.353.018.119 0 .233-.017.352-.018h.622c.075 0 .138-.028.208-.04C107.717 80.326 118 69.806 118 56.881z"/></g><g id="Group" fill="#FFF" transform="translate(354 43)"><path id="Shape" d="M39.377 29.829l-.166.271-.31-.079c-1.065-.282-3.303-.816-6.362-1.265l-.445-.065.087-.438c.108-.564.207-1.13.296-1.698l-.587-1.94a48.156 48.156 0 01-.57 3.572l-.077.388-.396-.048c-3.647-.501-7.434-.511-7.434-.511v-2.124l-.428-1.575-.405 1.577-.026 2.119s-3.654-.02-7.581.448l-.397.048-.076-.39a49.327 49.327 0 01-.562-3.564l-.605 1.865c.093.592.195 1.183.309 1.771l.084.435-.441.067c-2.11.32-4.2.764-6.212 1.324l-.314.086-.168-.278a19.384 19.384 0 01-.926-1.733h-.949c3.126 6.94 10.136 11.79 18.269 11.79 8.131 0 15.143-4.85 18.27-11.79h-.952a18.38 18.38 0 01-.926 1.737zM16.57 37.968l.014-.007-.917-.379a19.216 19.216 0 01-8.042-6.235l-.379-.503.612-.163a52.04 52.04 0 015.655-1.152l.396-.058.089.385a49.304 49.304 0 002.233 7.175l.366.925.105.046-.132-.034zm5.985 1.061l-.448-.018a19.327 19.327 0 01-4.372-.712l-.088-.025c-1.03-2.49-2.174-5.85-2.78-8.45l-.107-.466.475-.054a61.241 61.241 0 016.89-.403l.43-.003v10.131zm1.308-.02l-.45.019V28.9l.437.011c2.225.05 4.487.21 6.728.477l.478.056-.109.463c-.61 2.595-1.844 5.965-2.875 8.433-1.373.378-2.791.605-4.209.668zm14.467-7.638a19.197 19.197 0 01-8.19 6.275l-.837.338.021.01-.033.01.288-.908a49.283 49.283 0 002.239-7.157l.089-.382.394.056a63.97 63.97 0 015.783 1.09l.632.15-.386.518zM6.83 9.802l.167-.26.3.076c1.16.296 3.07.728 5.576 1.117l.417.065-.057.415a52.22 52.22 0 00-.366 3.51H13.721c.083-1.135.197-2.267.353-3.387l.06-.42.421.056a69.1 69.1 0 007.578.566l.421.009v3.177h.859v-3.17l.425-.005a61.659 61.659 0 007.456-.482l.422-.053.06.418c.15 1.087.258 2.188.338 3.291h.856a52.968 52.968 0 00-.355-3.423l-.057-.413.416-.067c1.903-.3 3.814-.712 5.678-1.22l.306-.084.17.266a18.938 18.938 0 012.796 7.491l.528-1.848C40.37 6.663 32.432.117 22.985.117 13.589.117 5.69 6.59 3.552 15.281l.503 1.925A18.942 18.942 0 016.83 9.802zm24.658-6.846a19.332 19.332 0 016.563 5.32l.406.511-.633.165a52.312 52.312 0 01-4.981 1.02l-.417.066-.073-.414a47.8 47.8 0 00-1.467-6.16l-.299-.953.901.445zM23.413.97l.449.021c1.87.084 3.71.44 5.468 1.057l.192.066.069.19c.357.968 1.26 3.632 1.917 7.412l.075.44-.445.054c-2.36.294-4.814.448-7.293.46h-.432v-9.7zm-7.119 1.196l.19-.068A19.132 19.132 0 0122.106.99l.45-.02v9.696l-.44-.01a70.477 70.477 0 01-7.398-.552l-.444-.056.077-.44c.621-3.545 1.443-6.066 1.876-7.253l.067-.189zM7.926 8.265a19.35 19.35 0 016.394-5.226l.904-.459-.3.964A47.917 47.917 0 0013.5 9.516l-.073.413-.415-.064a64.32 64.32 0 01-4.847-.923l-.657-.151.418-.526z"/><path id="Shape" d="M6.526 21.5c.35-1.07.662-2.097.91-3.29h.043c.248 1.171.537 2.16.89 3.27l1.53 4.751h1.656l3.23-9.955h-1.8l-1.43 4.998c-.332 1.173-.6 2.222-.767 3.23h-.06a41.513 41.513 0 00-.889-3.25l-1.555-4.978h-1.53l-1.638 5.08c-.33 1.07-.661 2.138-.888 3.146h-.064c-.184-1.028-.455-2.058-.744-3.168l-1.324-5.06H.233l3.022 9.955H4.91L6.527 21.5zM26.281 24.503h-.062a41.406 41.406 0 00-.89-3.249l-1.554-4.978h-1.528l-1.637 5.08c-.33 1.07-.664 2.14-.89 3.146h-.062c-.186-1.028-.456-2.057-.746-3.168l-1.326-5.059h-1.863l3.023 9.956h1.656l1.615-4.732c.353-1.069.664-2.097.913-3.29h.04c.25 1.172.539 2.16.89 3.271l1.53 4.75h1.657l3.231-9.955h-1.803l-1.428 4.998c-.331 1.173-.6 2.223-.766 3.23zM43.966 16.276l-1.428 4.998c-.333 1.173-.6 2.222-.764 3.23h-.063a40.356 40.356 0 00-.89-3.25l-1.553-4.978h-1.53l-1.634 5.08c-.332 1.07-.665 2.138-.89 3.146h-.064c-.185-1.028-.457-2.058-.745-3.168l-1.325-5.06h-1.862l3.02 9.956h1.658l1.614-4.73c.35-1.07.663-2.099.912-3.292h.043c.249 1.173.537 2.16.889 3.273l1.53 4.749h1.656l3.231-9.956h-1.805v.002z"/></g><g id="Layer_1" fill="#DBAF88" transform="translate(11 14)"><path id="Shape" d="M118 56.882c0-13.323-10.912-24.12-24.374-24.12-2.08 0-4.088.284-6.014.77.282-1.605.438-3.253.438-4.938C88.05 12.802 75.11 0 59.153 0 43.195 0 30.257 12.802 30.257 28.594c0 1.714.16 3.39.453 5.02a24.582 24.582 0 00-6.337-.853C10.911 32.761 0 43.56 0 56.881c0 12.567 9.714 22.877 22.116 24.006.138.06.287.095.446.095h1.459c.119.001.233.018.352.018.12 0 .234-.017.353-.018h68.548c.12.001.234.018.353.018.119 0 .233-.017.352-.018h.622c.075 0 .138-.028.208-.04C107.717 80.326 118 69.806 118 56.881z"/></g><g id="letter2" fill="#DBAF88" transform="translate(458 213)"><path id="Shape" d="M0 0v29h59V0H0zm43.124 1.02l-13.63 9.24L14.28 1.02h28.844zM7.987 5.638l16.436 9.658-16.436 8.54V5.638zM51.01 28.044H7.987V25.42l17.563-9.167 3.945 2.676 4.133-2.676L51.01 25.42v2.624zm0-4.208l-15.97-8.793L51.01 4.334v19.502z"/></g><path id="Shape-2" fill="#91C2A3" d="M122.854 129.302l13.779-13.476c1.613-1.274 5.185-4.427 3.572-5.702-1.613-1.275-2.664-.472-4.275.803l-18.499 18.375c-1.613 1.275-1.613 2.845 0 4.12 0 0 21.483 20.067 22.774 20.067 3.005 0 2.677-1.821 1.064-3.096l-18.415-17.826H200.028c2.281 0 3.75.279 3.75-1.524 0-1.804-1.469-1.741-3.75-1.741h-77.174z" transform="rotate(45 160 131.484)"/><path id="Line-4" stroke="#7E7C7B" stroke-linecap="square" stroke-width=".722" d="M488.5 252.5l1.5 1.5"/><text id="https://javascript.i" fill="#FFF" font-family="OpenSans-Regular, Open Sans" font-size="10" font-weight="normal"><tspan x="19" y="73.969">https://javascript.info</tspan></text><g id="Group" fill="#DBAF88" transform="translate(181 379)"><path id="Shape" d="M51.412 1H2.411C.911 1 0 2.438 0 4.345v41.39c0 1.908.911 3.553 2.411 3.553h21.26V54.435h-7.51c-2.388 0-4.327 2.457-4.327 5.48V61h29.222v-1.085c0-3.027-1.939-5.48-4.328-5.48H29.22V49.288h22.193c1.503 0 2.588-1.638 2.588-3.552V4.342C53.997 2.438 52.915 1 51.412 1zm-3.417 37.522c0 2.472-1.55 4.478-3.48 4.478H8.48C6.56 43 5 41.001 5 38.522V12.474C5 10.002 6.556 8 8.48 8h36.038C46.438 8 48 10.002 48 12.474v26.048h-.005zM63.586 0C60.504 0 58 3.153 58 7.046V61h29V5.49C87 2.456 85.05 0 82.652 0H63.586zm8.915 54C71.115 54 70 52.654 70 51s1.124-3 2.501-3C73.88 48 75 49.346 75 51s-1.124 3-2.499 3zM80 21.752H64V18h16v3.752zm0-7H64V11h16v3.752z"/></g><path id="Shape-3" fill="#A7333A" d="M242.854 129.302l13.779-13.476c1.613-1.274 5.185-4.427 3.572-5.702-1.613-1.275-2.664-.472-4.275.803l-18.499 18.375c-1.613 1.275-1.613 2.845 0 4.12 0 0 21.483 20.067 22.774 20.067 3.005 0 2.677-1.821 1.064-3.096l-18.415-17.826H320.028c2.281 0 3.75.279 3.75-1.524 0-1.804-1.469-1.741-3.75-1.741h-77.174z" transform="scale(-1 1) rotate(45 0 -544.495)"/><g id="Shape-3-+-Oval-8-+-noun_25798_cc" fill="#A7333A" transform="rotate(135 79.27 219.2)"><path id="Shape-3" d="M10.37 45.302l13.779-13.476c1.613-1.274 5.185-4.427 3.572-5.702-1.614-1.275-2.665-.472-4.276.803L4.947 45.302c-1.613 1.275-1.613 2.845 0 4.12 0 0 21.482 20.067 22.774 20.067 3.005 0 2.677-1.821 1.063-3.096L10.37 48.567h77.174c2.28 0 3.75.279 3.75-1.524 0-1.804-1.47-1.741-3.75-1.741H10.37z" transform="scale(-1 1) rotate(45 0 -67.228)"/></g><g id="Shape-3-+-Oval-8-+-noun_25798_cc-2" fill="#A7333A" transform="rotate(45 -7.212 501.452)"><path id="Shape-3" d="M10.37 45.302l13.779-13.476c1.613-1.274 5.185-4.427 3.572-5.702-1.614-1.275-2.665-.472-4.276.803L4.947 45.302c-1.613 1.275-1.613 2.845 0 4.12 0 0 21.482 20.067 22.774 20.067 3.005 0 2.677-1.821 1.063-3.096L10.37 48.567h77.174c2.28 0 3.75.279 3.75-1.524 0-1.804-1.47-1.741-3.75-1.741H10.37z" transform="scale(-1 1) rotate(45 0 -67.228)"/></g><g id="Oval-9-+-Shape" transform="translate(143 114)"><circle id="Oval-9" cx="20" cy="20" r="20" fill="#FFF"/><path id="Shape" fill="#91C2A3" d="M19.713 6.28c7.426 0 13.468 6.133 13.468 13.674 0 7.541-6.042 13.676-13.468 13.676-7.427 0-13.468-6.135-13.468-13.676 0-7.54 6.041-13.675 13.468-13.675zm0-2.28C11.034 4 4 11.143 4 19.954c0 8.812 7.034 15.955 15.713 15.955 8.678 0 15.712-7.143 15.712-15.955C35.425 11.143 28.391 4 19.713 4zm-4.49 7.977c-1.24 0-2.244 1.532-2.244 3.419 0 1.89 1.004 3.419 2.244 3.419 1.241 0 2.245-1.53 2.245-3.419 0-1.887-1.004-3.419-2.245-3.419zm8.979 0c-1.24 0-2.245 1.532-2.245 3.419 0 1.89 1.004 3.419 2.245 3.419 1.24 0 2.245-1.53 2.245-3.419 0-1.887-1.004-3.419-2.245-3.419zm5.568 10.575a1.144 1.144 0 00-.765-1.413c-.594-.18-1.217.173-1.392.774-1.017 3.544-4.266 6.019-7.9 6.019-3.635 0-6.883-2.475-7.902-6.019a1.116 1.116 0 00-1.392-.774c-.595.178-.936.81-.762 1.413 1.295 4.51 5.43 7.659 10.056 7.659 4.625 0 8.76-3.15 10.057-7.66z"/></g><g id="Oval-9-+-Shape-2" transform="translate(143 114)"><circle id="Oval-9" cx="20" cy="20" r="20" fill="#FFF"/><path id="Shape" fill="#91C2A3" d="M19.713 6.28c7.426 0 13.468 6.133 13.468 13.674 0 7.541-6.042 13.676-13.468 13.676-7.427 0-13.468-6.135-13.468-13.676 0-7.54 6.041-13.675 13.468-13.675zm0-2.28C11.034 4 4 11.143 4 19.954c0 8.812 7.034 15.955 15.713 15.955 8.678 0 15.712-7.143 15.712-15.955C35.425 11.143 28.391 4 19.713 4zm-4.49 7.977c-1.24 0-2.244 1.532-2.244 3.419 0 1.89 1.004 3.419 2.244 3.419 1.241 0 2.245-1.53 2.245-3.419 0-1.887-1.004-3.419-2.245-3.419zm8.979 0c-1.24 0-2.245 1.532-2.245 3.419 0 1.89 1.004 3.419 2.245 3.419 1.24 0 2.245-1.53 2.245-3.419 0-1.887-1.004-3.419-2.245-3.419zm5.568 10.575a1.144 1.144 0 00-.765-1.413c-.594-.18-1.217.173-1.392.774-1.017 3.544-4.266 6.019-7.9 6.019-3.635 0-6.883-2.475-7.902-6.019a1.116 1.116 0 00-1.392-.774c-.595.178-.936.81-.762 1.413 1.295 4.51 5.43 7.659 10.056 7.659 4.625 0 8.76-3.15 10.057-7.66z"/></g><g id="Oval-9-+-Shape-2" transform="translate(257 114)"><circle id="Oval-9" cx="20" cy="20" r="20" fill="#FFF"/><g id="Oval-12-+-Shape-3" fill="#A7333A" transform="translate(4 4)"><path id="Shape" d="M16 2.532c7.427 0 13.468 6.041 13.468 13.468S23.427 29.468 16 29.468 2.532 23.427 2.532 16 8.573 2.532 16 2.532zm0-2.245C7.322.287.287 7.322.287 16c0 8.678 7.035 15.713 15.713 15.713 8.678 0 15.713-7.035 15.713-15.713C31.713 7.322 24.678.287 16 .287zm-4.49 7.857c-1.24 0-2.244 1.508-2.244 3.367 0 1.86 1.004 3.367 2.245 3.367 1.24 0 2.244-1.506 2.244-3.367 0-1.86-1.004-3.367-2.244-3.367zm8.98 0c-1.241 0-2.245 1.508-2.245 3.367 0 1.86 1.004 3.367 2.244 3.367 1.241 0 2.245-1.506 2.245-3.367 0-1.86-1.004-3.367-2.245-3.367zm5.162 15.489a1.125 1.125 0 00.225-1.572A12.409 12.409 0 0016 17.122a12.404 12.404 0 00-9.876 4.94 1.123 1.123 0 101.795 1.345A10.152 10.152 0 0116 19.367c3.161 0 6.184 1.51 8.08 4.04a1.125 1.125 0 001.572.226z"/></g></g><g id="Oval-9-+-Shape-3" transform="translate(327 198)"><circle id="Oval-9" cx="20" cy="20" r="20" fill="#FFF"/><g id="Oval-12-+-Shape-3" fill="#A7333A" transform="translate(4 4)"><path id="Shape" d="M16 2.532c7.427 0 13.468 6.041 13.468 13.468S23.427 29.468 16 29.468 2.532 23.427 2.532 16 8.573 2.532 16 2.532zm0-2.245C7.322.287.287 7.322.287 16c0 8.678 7.035 15.713 15.713 15.713 8.678 0 15.713-7.035 15.713-15.713C31.713 7.322 24.678.287 16 .287zm-4.49 7.857c-1.24 0-2.244 1.508-2.244 3.367 0 1.86 1.004 3.367 2.245 3.367 1.24 0 2.244-1.506 2.244-3.367 0-1.86-1.004-3.367-2.244-3.367zm8.98 0c-1.241 0-2.245 1.508-2.245 3.367 0 1.86 1.004 3.367 2.244 3.367 1.241 0 2.245-1.506 2.245-3.367 0-1.86-1.004-3.367-2.245-3.367zm5.162 15.489a1.125 1.125 0 00.225-1.572A12.409 12.409 0 0016 17.122a12.404 12.404 0 00-9.876 4.94 1.123 1.123 0 101.795 1.345A10.152 10.152 0 0116 19.367c3.161 0 6.184 1.51 8.08 4.04a1.125 1.125 0 001.572.226z"/></g></g><g id="Oval-9-+-Shape-3" transform="translate(203 293)"><circle id="Oval-9" cx="20" cy="20" r="20" fill="#FFF"/><g id="Oval-12-+-Shape-3" fill="#A7333A" transform="translate(4 4)"><path id="Shape" d="M16 2.532c7.427 0 13.468 6.041 13.468 13.468S23.427 29.468 16 29.468 2.532 23.427 2.532 16 8.573 2.532 16 2.532zm0-2.245C7.322.287.287 7.322.287 16c0 8.678 7.035 15.713 15.713 15.713 8.678 0 15.713-7.035 15.713-15.713C31.713 7.322 24.678.287 16 .287zm-4.49 7.857c-1.24 0-2.244 1.508-2.244 3.367 0 1.86 1.004 3.367 2.245 3.367 1.24 0 2.244-1.506 2.244-3.367 0-1.86-1.004-3.367-2.244-3.367zm8.98 0c-1.241 0-2.245 1.508-2.245 3.367 0 1.86 1.004 3.367 2.244 3.367 1.241 0 2.245-1.506 2.245-3.367 0-1.86-1.004-3.367-2.245-3.367zm5.162 15.489a1.125 1.125 0 00.225-1.572A12.409 12.409 0 0016 17.122a12.404 12.404 0 00-9.876 4.94 1.123 1.123 0 101.795 1.345A10.152 10.152 0 0116 19.367c3.161 0 6.184 1.51 8.08 4.04a1.125 1.125 0 001.572.226z"/></g></g></g></g></svg>