<svg xmlns="http://www.w3.org/2000/svg" width="589" height="467" viewBox="0 0 589 467"><defs><style>@import url(https://fonts.googleapis.com/css?family=Open+Sans:bold,italic,bolditalic%7CPT+Mono);@font-face{font-family:&apos;PT Mono&apos;;font-weight:700;font-style:normal;src:local(&apos;PT MonoBold&apos;),url(/font/PTMonoBold.woff2) format(&apos;woff2&apos;),url(/font/PTMonoBold.woff) format(&apos;woff&apos;),url(/font/PTMonoBold.ttf) format(&apos;truetype&apos;)}</style></defs><g id="inheritance" fill="none" fill-rule="evenodd" stroke="none" stroke-width="1"><g id="class-inheritance-rabbit-animal-2.svg"><path id="Rectangle-1" fill="#FBF2EC" stroke="#DBAF88" stroke-width="2" d="M11 336h220v28H11z"/><text id="jump:-function" fill="#AF6E24" font-family="PTMono-Regular, PT Mono" font-size="14" font-weight="normal"><tspan x="21" y="354">jump: function</tspan></text><text id="Rabbit.prototype" fill="#AF6E24" font-family="PTMono-Regular, PT Mono" font-size="14" font-weight="normal"><tspan x="10" y="328">Rabbit.prototype</tspan></text><text id="rabbit" fill="#AF6E24" font-family="PTMono-Regular, PT Mono" font-size="14" font-weight="normal"><tspan x="10" y="424">rabbit</tspan></text><path id="Rectangle-1" fill="#FBF2EC" stroke="#DBAF88" stroke-width="2" d="M11 230h220v28H11z"/><text id="eat:-function" fill="#AF6E24" font-family="PTMono-Regular, PT Mono" font-size="14" font-weight="normal"><tspan x="21" y="250">eat: function</tspan></text><text id="Animal.prototype" fill="#AF6E24" font-family="PTMono-Regular, PT Mono" font-size="14" font-weight="normal"><tspan x="10" y="222">Animal.prototype</tspan></text><path id="Rectangle-1" fill="#FBF2EC" stroke="#DBAF88" stroke-width="2" d="M11 433h220v28H11z"/><path id="Line" fill="#C06334" fill-rule="nonzero" d="M70.5 378.5l7 14h-6v28h-2v-28h-6l7-14z"/><path id="Line-2" fill="#C06334" fill-rule="nonzero" d="M70.5 270.5l7 14h-6v28h-2v-28h-6l7-14z"/><text id="name:-&quot;White-Rabbit&quot;" fill="#AF6E24" font-family="PTMono-Regular, PT Mono" font-size="14" font-weight="normal"><tspan x="18" y="451">name: &quot;White Rabbit&quot;</tspan></text><text id="[[Prototype]]" fill="#C06334" font-family="PTMono-Regular, PT Mono" font-size="14" font-weight="normal"><tspan x="83" y="303">[[Prototype]]</tspan></text><text id="[[Prototype]]-Copy" fill="#AF6E24" font-family="PTMono-Regular, PT Mono" font-size="14" font-weight="normal"><tspan x="83" y="406">[[Prototype]]</tspan></text><text id="Rabbit.prototype.__p" fill="#C06334" font-family="PTMono-Regular, PT Mono" font-size="14" font-weight="normal"><tspan x="84" y="283">Rabbit.prototype.__proto__ = Animal.prototype sets this</tspan></text><path id="Rectangle-1" fill="#FBF2EC" stroke="#DBAF88" stroke-width="2" d="M11 95h220v58H11z"/><text id="toString:-function-h" fill="#AF6E24" font-family="PTMono-Regular, PT Mono" font-size="14" font-weight="normal"><tspan x="21" y="112">toString: function</tspan> <tspan x="21" y="127">hasOwnProperty: function</tspan> <tspan x="21" y="142">...</tspan></text><text id="Object.prototype" fill="#AF6E24" font-family="PTMono-Regular, PT Mono" font-size="14" font-weight="normal"><tspan x="10" y="87">Object.prototype</tspan></text><path id="Line" fill="#C06334" fill-rule="nonzero" d="M70.5 161.5l7 14h-6v28h-2v-28h-6l7-14z"/><text id="[[Prototype]]" fill="#AF6E24" font-family="PTMono-Regular, PT Mono" font-size="14" font-weight="normal"><tspan x="80" y="183">[[Prototype]]</tspan></text><path id="Line-2" fill="#C06334" fill-rule="nonzero" d="M70.5 29.5l7 14h-6v28h-2v-28h-6l7-14z"/><text id="[[Prototype]]" fill="#AF6E24" font-family="PTMono-Regular, PT Mono" font-size="14" font-weight="normal"><tspan x="80" y="51">[[Prototype]]</tspan></text><text id="null" fill="#AF6E24" font-family="PTMono-Regular, PT Mono" font-size="14" font-weight="normal"><tspan x="56" y="18">null</tspan></text></g></g></svg>