<svg xmlns="http://www.w3.org/2000/svg" width="395" height="192" viewBox="0 0 395 192"><defs><style>@import url(https://fonts.googleapis.com/css?family=Open+Sans:bold,italic,bolditalic%7CPT+Mono);@font-face{font-family:&apos;PT Mono&apos;;font-weight:700;font-style:normal;src:local(&apos;PT MonoBold&apos;),url(/font/PTMonoBold.woff2) format(&apos;woff2&apos;),url(/font/PTMonoBold.woff) format(&apos;woff&apos;),url(/font/PTMonoBold.ttf) format(&apos;truetype&apos;)}</style></defs><g id="inheritance" fill="none" fill-rule="evenodd" stroke="none" stroke-width="1"><g id="super-homeobject-wrong.svg"><path id="Rectangle-1" fill="#FFF9EB" stroke="#E8C48E" stroke-width="2" d="M237 30v28h98V30h-98z"/><text id="sayHi" fill="#8A704D" font-family="PTMono-Regular, PT Mono" font-size="14" font-weight="normal"><tspan x="247" y="48">sayHi</tspan></text><text id="plant" fill="#8A704D" font-family="PTMono-Regular, PT Mono" font-size="14" font-weight="normal"><tspan x="241" y="22">plant</tspan></text><path id="Rectangle-1-Copy-4" fill="#FFF9EB" stroke="#E8C48E" stroke-width="2" d="M237 143v28h98v-28h-98z"/><text id="sayHi" fill="#8A704D" font-family="PTMono-Regular, PT Mono" font-size="14" font-weight="normal"><tspan x="247" y="162">sayHi</tspan></text><text id="tree" fill="#8A704D" font-family="PTMono-Regular, PT Mono" font-size="14" font-weight="normal"><tspan x="241" y="135">tree</tspan></text><path id="Line" fill="#EE6B47" fill-rule="nonzero" d="M287.5 70.5l7 14h-6v28h-2v-28h-6l7-14z"/><path id="Line-Copy" fill="#EE6B47" fill-rule="nonzero" d="M121.025 150.55l-.022 6.001 124 .449 1 .004-.007 2-1-.004-124-.449-.021 6L107 157.5l14.025-6.95z"/><path id="Rectangle-1-Copy-3" fill="#FFF9EB" stroke="#E8C48E" stroke-width="2" d="M8 30h98v28H8z"/><text id="sayHi" fill="#8A704D" font-family="PTMono-Regular, PT Mono" font-size="14" font-weight="normal"><tspan x="18" y="48">sayHi</tspan></text><path id="Rectangle-1-Copy-2" fill="#FFF9EB" stroke="#E8C48E" stroke-width="2" d="M8 143h98v28H8z"/><text id="animal" fill="#8A704D" font-family="PTMono-Regular, PT Mono" font-size="14" font-weight="normal"><tspan x="12" y="22">animal</tspan></text><text id="rabbit" fill="#8A704D" font-family="PTMono-Regular, PT Mono" font-size="14" font-weight="normal"><tspan x="12" y="131">rabbit</tspan></text><path id="Line-Copy-4" fill="#EE6B47" fill-rule="nonzero" d="M58.5 72.5l7 14h-6v28h-2v-28h-6l7-14z"/><text id="[[HomeObject]]" fill="#8A704D" font-family="PTMono-Regular, PT Mono" font-size="14" font-weight="normal"><tspan x="115" y="142">[[HomeObject]]</tspan></text><text id="sayHi" fill="#8A704D" font-family="PTMono-Regular, PT Mono" font-size="14" font-weight="normal"><tspan x="16" y="162">sayHi</tspan></text></g></g></svg>