<svg xmlns="http://www.w3.org/2000/svg" width="347" height="238" viewBox="0 0 347 238"><defs><style>@import url(https://fonts.googleapis.com/css?family=Open+Sans:bold,italic,bolditalic%7CPT+Mono);@font-face{font-family:&apos;PT Mono&apos;;font-weight:700;font-style:normal;src:local(&apos;PT MonoBold&apos;),url(/font/PTMonoBold.woff2) format(&apos;woff2&apos;),url(/font/PTMonoBold.woff) format(&apos;woff&apos;),url(/font/PTMonoBold.ttf) format(&apos;truetype&apos;)}</style></defs><g id="inheritance" fill="none" fill-rule="evenodd" stroke="none" stroke-width="1"><g id="this-super-loop.svg"><g id="let-rabbit-=-{-__pro" fill-rule="nonzero" transform="translate(9 9)"><path id="let" fill="#07A" d="M.546.112H2.87V7.56c0 .57.096.97.287 1.204.191.233.474.35.847.35.261 0 .511-.047.749-.14.238-.093.502-.252.791-.476l.504.77c-.15.13-.313.247-.49.35a3.638 3.638 0 01-1.106.42 2.963 2.963 0 01-1.442-.077 1.579 1.579 0 01-.679-.427 1.897 1.897 0 01-.413-.777c-.093-.322-.14-.721-.14-1.197V1.05H.546V.112zm14.14 8.918c-.168.15-.366.29-.595.42a4.39 4.39 0 01-.749.336c-.27.093-.553.166-.847.217-.294.051-.59.077-.889.077-.56 0-1.055-.086-1.484-.259a2.858 2.858 0 01-1.078-.742 3.234 3.234 0 01-.658-1.155 4.767 4.767 0 01-.224-1.512c0-.588.082-1.11.245-1.568.163-.457.399-.84.707-1.148a3.08 3.08 0 011.12-.707 4.187 4.187 0 011.47-.245c.392 0 .78.051 1.162.154.383.103.721.296 1.015.581.294.285.52.677.679 1.176.159.5.215 1.146.168 1.939H9.31c0 .84.226 1.468.679 1.883.453.415 1.057.623 1.813.623.252 0 .502-.03.749-.091.247-.06.483-.133.707-.217a3.72 3.72 0 00.595-.28c.173-.103.306-.196.399-.28l.434.798zm-2.954-5.362c-.308 0-.6.033-.875.098a1.995 1.995 0 00-.728.329c-.21.154-.383.355-.518.602s-.222.553-.259.917h4.354c-.047-.616-.245-1.094-.595-1.435-.35-.34-.81-.511-1.379-.511zm4.382-.756h1.666V1.526l1.092-.308v1.694h3.738v.938h-3.738v3.304c0 .681.166 1.185.497 1.512.331.327.805.49 1.421.49.42 0 .786-.08 1.099-.238.313-.159.595-.331.847-.518l.364.826a3.938 3.938 0 01-1.169.63 4.182 4.182 0 01-1.393.238 3.41 3.41 0 01-1.057-.161 2.426 2.426 0 01-.875-.497 2.38 2.38 0 01-.602-.861c-.15-.35-.224-.768-.224-1.253V3.85h-1.666v-.938z"/><path id="rabbit" fill="#000" d="M33.404 9.912v-.938h1.89V3.85h-1.89v-.938h2.618l.224.91h.07c.317-.29.672-.537 1.064-.742.392-.205.859-.308 1.4-.308.317 0 .572.06.763.182.191.121.34.299.448.532.107.233.18.516.217.847.037.331.056.707.056 1.127l-.98.014c0-.597-.058-1.036-.175-1.316-.117-.28-.329-.42-.637-.42-.29 0-.55.042-.784.126a2.565 2.565 0 00-.609.308c-.173.121-.32.243-.441.364s-.21.224-.266.308v4.13h2.688v.938h-5.656zm8.988-6.454a4.447 4.447 0 011.358-.504 7.423 7.423 0 011.484-.154c.476 0 .866.075 1.169.224.303.15.541.343.714.581.173.238.29.509.35.812.06.303.091.609.091.917 0 .355-.01.733-.028 1.134-.019.401-.033.803-.042 1.204 0 .467.028.91.084 1.33h.938v.91h-1.862l-.126-1.05h-.07c-.056.084-.14.191-.252.322-.112.13-.259.259-.441.385a2.749 2.749 0 01-1.589.469c-.69 0-1.237-.177-1.638-.532-.401-.355-.602-.84-.602-1.456 0-.476.105-.873.315-1.19.21-.317.511-.56.903-.728.392-.168.866-.266 1.421-.294a9.544 9.544 0 011.869.112c.047-.43.054-.786.021-1.071-.033-.285-.107-.511-.224-.679a.938.938 0 00-.49-.357 2.482 2.482 0 00-.777-.105c-.42 0-.821.058-1.204.175-.383.117-.723.236-1.022.357l-.35-.812zM44.45 9.1c.261 0 .504-.042.728-.126a2.22 2.22 0 00.588-.322 2.133 2.133 0 00.672-.868v-.98a7.92 7.92 0 00-1.344-.126c-.41 0-.765.044-1.064.133-.299.089-.532.226-.7.413-.168.187-.252.43-.252.728 0 .308.105.576.315.805.21.229.562.343 1.057.343zM49.308.112h2.24V3.71h.07c.243-.308.555-.546.938-.714a3.065 3.065 0 011.246-.252c2.053 0 3.08 1.185 3.08 3.556 0 1.204-.331 2.126-.994 2.765-.663.64-1.605.959-2.828.959a6.731 6.731 0 01-1.568-.168c-.467-.112-.807-.243-1.022-.392V1.05h-1.162V.112zm4.354 3.57c-.56 0-1.013.159-1.358.476-.345.317-.597.765-.756 1.344v3.22c.215.112.471.2.77.266.299.065.611.098.938.098.373 0 .712-.054 1.015-.161.303-.107.562-.275.777-.504.215-.229.38-.52.497-.875.117-.355.175-.775.175-1.26 0-.355-.037-.69-.112-1.008a2.447 2.447 0 00-.357-.833 1.717 1.717 0 00-.637-.56c-.261-.135-.579-.203-.952-.203zm4.046-3.57h2.24V3.71h.07c.243-.308.555-.546.938-.714a3.065 3.065 0 011.246-.252c2.053 0 3.08 1.185 3.08 3.556 0 1.204-.331 2.126-.994 2.765-.663.64-1.605.959-2.828.959a6.731 6.731 0 01-1.568-.168c-.467-.112-.807-.243-1.022-.392V1.05h-1.162V.112zm4.354 3.57c-.56 0-1.013.159-1.358.476-.345.317-.597.765-.756 1.344v3.22c.215.112.471.2.77.266.299.065.611.098.938.098.373 0 .712-.054 1.015-.161.303-.107.562-.275.777-.504.215-.229.38-.52.497-.875.117-.355.175-.775.175-1.26 0-.355-.037-.69-.112-1.008a2.447 2.447 0 00-.357-.833 1.717 1.717 0 00-.637-.56c-.261-.135-.579-.203-.952-.203zm5.488 6.23v-.938h2.436V3.85H67.55v-.938h3.556v6.062h2.38v.938H67.55zM69.608.924c0-.252.084-.469.252-.651A.838.838 0 0170.504 0c.27 0 .497.091.679.273a.889.889 0 01.273.651.806.806 0 01-.273.616.963.963 0 01-.679.252.872.872 0 01-.644-.252.838.838 0 01-.252-.616zm5.306 1.988h1.666V1.526l1.092-.308v1.694h3.738v.938h-3.738v3.304c0 .681.166 1.185.497 1.512.331.327.805.49 1.421.49.42 0 .786-.08 1.099-.238.313-.159.595-.331.847-.518l.364.826a3.938 3.938 0 01-1.169.63 4.182 4.182 0 01-1.393.238 3.41 3.41 0 01-1.057-.161 2.426 2.426 0 01-.875-.497 2.38 2.38 0 01-.602-.861c-.15-.35-.224-.768-.224-1.253V3.85h-1.666v-.938z"/><path id="=" fill="#A67F59" d="M92.232 3.514h6.496v1.008h-6.496V3.514zm0 2.296h6.496v1.008h-6.496V5.81z"/><path id="{" fill="#999" d="M111.16 9.464c0-.401-.068-.749-.203-1.043a2.44 2.44 0 00-.504-.735c-.2-.196-.415-.34-.644-.434a1.641 1.641 0 00-.609-.14v-.98c.177 0 .38-.04.609-.119.229-.08.443-.21.644-.392.2-.182.369-.418.504-.707.135-.29.203-.649.203-1.078V2.408c0-.336.054-.644.161-.924a2.22 2.22 0 01.448-.728c.191-.205.42-.366.686-.483.266-.117.558-.175.875-.175h2.03v.98h-1.54c-.588 0-.996.14-1.225.42-.229.28-.343.695-.343 1.246v1.358c0 .383-.07.723-.21 1.022a2.7 2.7 0 01-1.106 1.225c-.205.117-.373.184-.504.203v.084c.121.019.285.091.49.217.205.126.406.299.602.518.196.22.366.478.511.777.145.299.217.63.217.994v1.344c0 .57.121.99.364 1.26s.649.406 1.218.406h1.526v.98h-2.03c-.653 0-1.178-.194-1.575-.581-.397-.387-.595-.959-.595-1.715V9.464z"/><path id="__proto__" fill="#000" d="M16.464 28.802h6.832v.98h-6.832v-.98zm8.4 0h6.832v.98h-6.832v-.98zm8.96-6.44a14.05 14.05 0 00-.063-1.176 4.657 4.657 0 00-.049-.364h-.938v-.91h1.862l.14.98h.07c.252-.327.572-.6.959-.819.387-.22.861-.329 1.421-.329.999 0 1.75.275 2.254.826.504.55.756 1.451.756 2.702 0 .588-.086 1.118-.259 1.589a3.34 3.34 0 01-.735 1.197 3.24 3.24 0 01-1.148.756 3.999 3.999 0 01-1.484.266c-.196 0-.371-.007-.525-.021a4.613 4.613 0 01-.42-.056 3.31 3.31 0 01-.371-.091 5.103 5.103 0 01-.392-.14v2.94h-1.078v-7.35zm3.22-1.596c-.28 0-.544.051-.791.154a2.36 2.36 0 00-1.127.966c-.121.205-.196.41-.224.616v3.192c.205.14.436.25.693.329.257.08.595.119 1.015.119.747 0 1.344-.245 1.792-.735.448-.49.672-1.206.672-2.149 0-.793-.156-1.407-.469-1.841-.313-.434-.833-.651-1.561-.651zm4.76 6.146v-.938h1.89V20.85h-1.89v-.938h2.618l.224.91h.07c.317-.29.672-.537 1.064-.742.392-.205.859-.308 1.4-.308.317 0 .572.06.763.182.191.121.34.299.448.532.107.233.18.516.217.847.037.331.056.707.056 1.127l-.98.014c0-.597-.058-1.036-.175-1.316-.117-.28-.329-.42-.637-.42-.29 0-.55.042-.784.126a2.565 2.565 0 00-.609.308c-.173.121-.32.243-.441.364s-.21.224-.266.308v4.13h2.688v.938h-5.656zm8.274-3.5c0-1.13.294-2.023.882-2.681.588-.658 1.428-.987 2.52-.987.588 0 1.094.096 1.519.287.425.191.777.45 1.057.777.28.327.488.714.623 1.162.135.448.203.929.203 1.442 0 .56-.075 1.066-.224 1.519-.15.453-.369.838-.658 1.155-.29.317-.646.562-1.071.735a3.82 3.82 0 01-1.449.259c-.579 0-1.083-.096-1.512-.287a2.967 2.967 0 01-1.064-.777 3.168 3.168 0 01-.623-1.162 4.963 4.963 0 01-.203-1.442zm1.162 0c0 .327.04.653.119.98.08.327.208.62.385.882.177.261.408.471.693.63.285.159.632.238 1.043.238.747 0 1.309-.231 1.687-.693.378-.462.567-1.141.567-2.037 0-.336-.04-.665-.119-.987a2.608 2.608 0 00-.392-.875 2.066 2.066 0 00-.7-.63c-.285-.159-.632-.238-1.043-.238-.747 0-1.307.229-1.68.686-.373.457-.56 1.139-.56 2.044zm6.874-3.5h1.666v-1.386l1.092-.308v1.694h3.738v.938h-3.738v3.304c0 .681.166 1.185.497 1.512.331.327.805.49 1.421.49.42 0 .786-.08 1.099-.238.313-.159.595-.331.847-.518l.364.826a3.938 3.938 0 01-1.169.63 4.182 4.182 0 01-1.393.238 3.41 3.41 0 01-1.057-.161 2.426 2.426 0 01-.875-.497 2.38 2.38 0 01-.602-.861c-.15-.35-.224-.768-.224-1.253V20.85h-1.666v-.938zm8.764 3.5c0-1.13.294-2.023.882-2.681.588-.658 1.428-.987 2.52-.987.588 0 1.094.096 1.519.287.425.191.777.45 1.057.777.28.327.488.714.623 1.162.135.448.203.929.203 1.442 0 .56-.075 1.066-.224 1.519-.15.453-.369.838-.658 1.155-.29.317-.646.562-1.071.735a3.82 3.82 0 01-1.449.259c-.579 0-1.083-.096-1.512-.287a2.967 2.967 0 01-1.064-.777 3.168 3.168 0 01-.623-1.162 4.963 4.963 0 01-.203-1.442zm1.162 0c0 .327.04.653.119.98.08.327.208.62.385.882.177.261.408.471.693.63.285.159.632.238 1.043.238.747 0 1.309-.231 1.687-.693.378-.462.567-1.141.567-2.037 0-.336-.04-.665-.119-.987a2.608 2.608 0 00-.392-.875 2.066 2.066 0 00-.7-.63c-.285-.159-.632-.238-1.043-.238-.747 0-1.307.229-1.68.686-.373.457-.56 1.139-.56 2.044zm7.224 5.39h6.832v.98h-6.832v-.98zm8.4 0h6.832v.98h-6.832v-.98z"/><path id=":" fill="#999" d="M94.542 20.64c0-.299.084-.53.252-.693.168-.163.392-.245.672-.245.299 0 .532.082.7.245.168.163.252.394.252.693 0 .27-.084.495-.252.672-.168.177-.401.266-.7.266-.28 0-.504-.089-.672-.266a.938.938 0 01-.252-.672zm0 5.502c0-.299.084-.53.252-.693.168-.163.392-.245.672-.245.299 0 .532.082.7.245.168.163.252.394.252.693 0 .27-.084.495-.252.672-.168.177-.401.266-.7.266-.28 0-.504-.089-.672-.266a.938.938 0 01-.252-.672z"/><path id="animal" fill="#000" d="M109.592 20.458a4.447 4.447 0 011.358-.504 7.423 7.423 0 011.484-.154c.476 0 .866.075 1.169.224.303.15.541.343.714.581.173.238.29.509.35.812.06.303.091.609.091.917 0 .355-.01.733-.028 1.134-.019.401-.033.803-.042 1.204 0 .467.028.91.084 1.33h.938v.91h-1.862l-.126-1.05h-.07c-.056.084-.14.191-.252.322-.112.13-.259.259-.441.385a2.749 2.749 0 01-1.589.469c-.69 0-1.237-.177-1.638-.532-.401-.355-.602-.84-.602-1.456 0-.476.105-.873.315-1.19.21-.317.511-.56.903-.728.392-.168.866-.266 1.421-.294a9.544 9.544 0 011.869.112c.047-.43.054-.786.021-1.071-.033-.285-.107-.511-.224-.679a.938.938 0 00-.49-.357 2.482 2.482 0 00-.777-.105c-.42 0-.821.058-1.204.175-.383.117-.723.236-1.022.357l-.35-.812zm2.058 5.642c.261 0 .504-.042.728-.126a2.22 2.22 0 00.588-.322 2.133 2.133 0 00.672-.868v-.98a7.92 7.92 0 00-1.344-.126c-.41 0-.765.044-1.064.133-.299.089-.532.226-.7.413-.168.187-.252.43-.252.728 0 .308.105.576.315.805.21.229.562.343 1.057.343zm6.132-3.738a14.051 14.051 0 00-.063-1.176 4.657 4.657 0 00-.049-.364h-.938v-.91h1.876l.126 1.134h.07c.093-.159.217-.315.371-.469a2.91 2.91 0 011.225-.721c.252-.075.518-.112.798-.112.43 0 .81.047 1.141.14.331.093.607.259.826.497.22.238.385.56.497.966.112.406.168.922.168 1.547v4.018h-1.092v-3.808c0-.775-.126-1.358-.378-1.75-.252-.392-.71-.588-1.372-.588-.243 0-.478.049-.707.147a2.44 2.44 0 00-.623.385c-.187.159-.35.343-.49.553-.14.21-.243.432-.308.665v4.396h-1.078v-4.55zm8.568 4.55v-.938h2.436V20.85h-2.436v-.938h3.556v6.062h2.38v.938h-5.936zm2.058-8.988c0-.252.084-.469.252-.651a.838.838 0 01.644-.273c.27 0 .497.091.679.273a.889.889 0 01.273.651.806.806 0 01-.273.616.963.963 0 01-.679.252.872.872 0 01-.644-.252.838.838 0 01-.252-.616zm8.54 8.988V22.25c0-.196-.007-.385-.021-.567a1.9 1.9 0 00-.098-.49.786.786 0 00-.224-.343.57.57 0 00-.385-.126c-.317 0-.586.13-.805.392-.22.261-.385.588-.497.98v4.816h-1.064v-7h.728l.21.854h.056c.093-.14.184-.273.273-.399.089-.126.191-.236.308-.329.117-.093.254-.166.413-.217.159-.051.36-.077.602-.077.14 0 .285.021.434.063.15.042.287.107.413.196.126.089.236.208.329.357.093.15.154.331.182.546.215-.364.455-.649.721-.854.266-.205.632-.308 1.099-.308.308 0 .558.051.749.154.191.103.34.25.448.441.107.191.182.42.224.686.042.266.063.562.063.889v4.998h-1.064v-4.76c0-.196-.01-.38-.028-.553a1.764 1.764 0 00-.105-.455.752.752 0 00-.21-.308.536.536 0 00-.357-.112c-.327 0-.602.13-.826.392-.224.261-.392.635-.504 1.12v4.676h-1.064zm6.244-6.454a4.447 4.447 0 011.358-.504 7.423 7.423 0 011.484-.154c.476 0 .866.075 1.169.224.303.15.541.343.714.581.173.238.29.509.35.812.06.303.091.609.091.917 0 .355-.01.733-.028 1.134-.019.401-.033.803-.042 1.204 0 .467.028.91.084 1.33h.938v.91h-1.862l-.126-1.05h-.07c-.056.084-.14.191-.252.322-.112.13-.259.259-.441.385a2.749 2.749 0 01-1.589.469c-.69 0-1.237-.177-1.638-.532-.401-.355-.602-.84-.602-1.456 0-.476.105-.873.315-1.19.21-.317.511-.56.903-.728.392-.168.866-.266 1.421-.294a9.544 9.544 0 011.869.112c.047-.43.054-.786.021-1.071-.033-.285-.107-.511-.224-.679a.938.938 0 00-.49-.357 2.482 2.482 0 00-.777-.105c-.42 0-.821.058-1.204.175-.383.117-.723.236-1.022.357l-.35-.812zm2.058 5.642c.261 0 .504-.042.728-.126a2.22 2.22 0 00.588-.322 2.133 2.133 0 00.672-.868v-.98a7.92 7.92 0 00-1.344-.126c-.41 0-.765.044-1.064.133-.299.089-.532.226-.7.413-.168.187-.252.43-.252.728 0 .308.105.576.315.805.21.229.562.343 1.057.343zm6.496-8.988h2.324v7.448c0 .57.096.97.287 1.204.191.233.474.35.847.35.261 0 .511-.047.749-.14.238-.093.502-.252.791-.476l.504.77c-.15.13-.313.247-.49.35a3.638 3.638 0 01-1.106.42 2.963 2.963 0 01-1.442-.077 1.579 1.579 0 01-.679-.427 1.897 1.897 0 01-.413-.777c-.093-.322-.14-.721-.14-1.197v-6.51h-1.232v-.938z"/><path id="," fill="#999" d="M161.686 26.142c0-.28.091-.506.273-.679.182-.173.418-.259.707-.259.355 0 .63.124.826.371.196.247.294.595.294 1.043a2.36 2.36 0 01-.637 1.659 2.465 2.465 0 01-.588.462c-.21.117-.404.203-.581.259l-.35-.546c.336-.13.625-.317.868-.56.243-.243.364-.537.364-.882-.13.028-.233.042-.308.042-.27 0-.483-.077-.637-.231-.154-.154-.231-.38-.231-.679z"/><path id="eat" fill="#000" d="M23.086 43.03c-.168.15-.366.29-.595.42a4.39 4.39 0 01-.749.336c-.27.093-.553.166-.847.217-.294.051-.59.077-.889.077-.56 0-1.055-.086-1.484-.259a2.858 2.858 0 01-1.078-.742 3.234 3.234 0 01-.658-1.155 4.767 4.767 0 01-.224-1.512c0-.588.082-1.11.245-1.568.163-.457.399-.84.707-1.148a3.08 3.08 0 011.12-.707 4.187 4.187 0 011.47-.245c.392 0 .78.051 1.162.154.383.103.721.296 1.015.581.294.285.52.677.679 1.176.159.5.215 1.146.168 1.939H17.71c0 .84.226 1.468.679 1.883.453.415 1.057.623 1.813.623.252 0 .502-.03.749-.091.247-.06.483-.133.707-.217a3.72 3.72 0 00.595-.28c.173-.103.306-.196.399-.28l.434.798zm-2.954-5.362c-.308 0-.6.033-.875.098a1.995 1.995 0 00-.728.329c-.21.154-.383.355-.518.602s-.222.553-.259.917h4.354c-.047-.616-.245-1.094-.595-1.435-.35-.34-.81-.511-1.379-.511zm5.46-.21a4.447 4.447 0 011.358-.504 7.423 7.423 0 011.484-.154c.476 0 .866.075 1.169.224.303.15.541.343.714.581.173.238.29.509.35.812.06.303.091.609.091.917 0 .355-.01.733-.028 1.134-.019.401-.033.803-.042 1.204 0 .467.028.91.084 1.33h.938v.91h-1.862l-.126-1.05h-.07c-.056.084-.14.191-.252.322-.112.13-.259.259-.441.385a2.749 2.749 0 01-1.589.469c-.69 0-1.237-.177-1.638-.532-.401-.355-.602-.84-.602-1.456 0-.476.105-.873.315-1.19.21-.317.511-.56.903-.728.392-.168.866-.266 1.421-.294a9.544 9.544 0 011.869.112c.047-.43.054-.786.021-1.071-.033-.285-.107-.511-.224-.679a.938.938 0 00-.49-.357 2.482 2.482 0 00-.777-.105c-.42 0-.821.058-1.204.175-.383.117-.723.236-1.022.357l-.35-.812zM27.65 43.1c.261 0 .504-.042.728-.126a2.22 2.22 0 00.588-.322 2.133 2.133 0 00.672-.868v-.98a7.92 7.92 0 00-1.344-.126c-.41 0-.765.044-1.064.133-.299.089-.532.226-.7.413-.168.187-.252.43-.252.728 0 .308.105.576.315.805.21.229.562.343 1.057.343zm5.264-6.188h1.666v-1.386l1.092-.308v1.694h3.738v.938h-3.738v3.304c0 .681.166 1.185.497 1.512.331.327.805.49 1.421.49.42 0 .786-.08 1.099-.238.313-.159.595-.331.847-.518l.364.826a3.938 3.938 0 01-1.169.63 4.182 4.182 0 01-1.393.238 3.41 3.41 0 01-1.057-.161 2.426 2.426 0 01-.875-.497 2.38 2.38 0 01-.602-.861c-.15-.35-.224-.768-.224-1.253V37.85h-1.666v-.938z"/><path id="(){" fill="#999" d="M46.928 46.88a6.964 6.964 0 01-1.757-.707 5.036 5.036 0 01-1.428-1.225c-.406-.504-.728-1.12-.966-1.848s-.357-1.591-.357-2.59c0-.99.121-1.855.364-2.597s.57-1.372.98-1.89c.41-.518.889-.933 1.435-1.246a6.005 6.005 0 011.729-.665l.35.882a7.086 7.086 0 00-1.512.623 3.928 3.928 0 00-1.183 1.022c-.331.425-.588.952-.77 1.582-.182.63-.273 1.393-.273 2.289 0 .905.11 1.678.329 2.317.22.64.509 1.171.868 1.596.36.425.76.756 1.204.994.443.238.889.404 1.337.497l-.35.966zm4.354-.966a4.965 4.965 0 001.337-.497 4.15 4.15 0 001.204-.994c.36-.425.649-.957.868-1.596.22-.64.329-1.412.329-2.317 0-.896-.091-1.659-.273-2.289-.182-.63-.439-1.157-.77-1.582a3.928 3.928 0 00-1.183-1.022 7.086 7.086 0 00-1.512-.623l.35-.882c.607.13 1.183.352 1.729.665a4.984 4.984 0 011.435 1.246c.41.518.737 1.148.98 1.89s.364 1.608.364 2.597c0 .999-.119 1.862-.357 2.59-.238.728-.56 1.344-.966 1.848a5.036 5.036 0 01-1.428 1.225 6.964 6.964 0 01-1.757.707l-.35-.966zm17.878-2.45c0-.401-.068-.749-.203-1.043a2.44 2.44 0 00-.504-.735c-.2-.196-.415-.34-.644-.434a1.641 1.641 0 00-.609-.14v-.98c.177 0 .38-.04.609-.119.229-.08.443-.21.644-.392.2-.182.369-.418.504-.707.135-.29.203-.649.203-1.078v-1.428c0-.336.054-.644.161-.924a2.22 2.22 0 01.448-.728c.191-.205.42-.366.686-.483.266-.117.558-.175.875-.175h2.03v.98h-1.54c-.588 0-.996.14-1.225.42-.229.28-.343.695-.343 1.246v1.358c0 .383-.07.723-.21 1.022a2.7 2.7 0 01-1.106 1.225c-.205.117-.373.184-.504.203v.084c.121.019.285.091.49.217.205.126.406.299.602.518.196.22.366.478.511.777.145.299.217.63.217.994v1.344c0 .57.121.99.364 1.26s.649.406 1.218.406h1.526v.98h-2.03c-.653 0-1.178-.194-1.575-.581-.397-.387-.595-.959-.595-1.715v-1.372z"/><path id="this" fill="#07A" d="M32.914 53.912h1.666v-1.386l1.092-.308v1.694h3.738v.938h-3.738v3.304c0 .681.166 1.185.497 1.512.331.327.805.49 1.421.49.42 0 .786-.08 1.099-.238.313-.159.595-.331.847-.518l.364.826a3.938 3.938 0 01-1.169.63 4.182 4.182 0 01-1.393.238 3.41 3.41 0 01-1.057-.161 2.426 2.426 0 01-.875-.497 2.38 2.38 0 01-.602-.861c-.15-.35-.224-.768-.224-1.253V54.85h-1.666v-.938zm8.022-2.8h2.184v3.668h.07c.29-.327.625-.581 1.008-.763.383-.182.859-.273 1.428-.273.448 0 .838.047 1.169.14.331.093.602.257.812.49.21.233.366.553.469.959.103.406.154.922.154 1.547v4.032h-1.092V57.09c0-.401-.023-.751-.07-1.05a1.829 1.829 0 00-.273-.749c-.135-.2-.32-.352-.553-.455-.233-.103-.532-.154-.896-.154-.252 0-.5.044-.742.133-.243.089-.464.21-.665.364-.2.154-.373.34-.518.56-.145.22-.245.46-.301.721v4.452h-1.078V52.05h-1.106v-.938zm9.814 9.8v-.938h2.436V54.85H50.75v-.938h3.556v6.062h2.38v.938H50.75zm2.058-8.988c0-.252.084-.469.252-.651a.838.838 0 01.644-.273c.27 0 .497.091.679.273a.889.889 0 01.273.651.806.806 0 01-.273.616.963.963 0 01-.679.252.872.872 0 01-.644-.252.838.838 0 01-.252-.616zm11.004 7.098a.796.796 0 00-.35-.693 2.872 2.872 0 00-.868-.392 16.056 16.056 0 00-1.127-.273 6.502 6.502 0 01-1.127-.336 2.525 2.525 0 01-.868-.567c-.233-.238-.35-.572-.35-1.001 0-.355.077-.658.231-.91a1.94 1.94 0 01.609-.623c.252-.163.546-.285.882-.364.336-.08.686-.119 1.05-.119.653 0 1.216.082 1.687.245.471.163.847.334 1.127.511l-.448.882a11.79 11.79 0 00-1.001-.483c-.36-.154-.81-.231-1.351-.231-.205 0-.408.021-.609.063-.2.042-.383.105-.546.189a1.088 1.088 0 00-.392.329.825.825 0 00-.147.497c0 .243.117.43.35.56.233.13.523.24.868.329.345.089.721.173 1.127.252.406.08.782.194 1.127.343.345.15.635.35.868.602.233.252.35.593.35 1.022 0 .644-.254 1.176-.763 1.596-.509.42-1.272.63-2.289.63-.308 0-.611-.028-.91-.084a5.52 5.52 0 01-.84-.224 5.054 5.054 0 01-.714-.315 3.002 3.002 0 01-.532-.357l.56-.91c.112.112.261.226.448.343a4.229 4.229 0 001.337.539 3.76 3.76 0 001.484.021c.22-.042.413-.107.581-.196a1.08 1.08 0 00.399-.35.914.914 0 00.147-.525z"/><path id="." fill="#999" d="M69.342 60.142c0-.299.084-.53.252-.693.168-.163.392-.245.672-.245.299 0 .532.082.7.245.168.163.252.394.252.693 0 .27-.084.495-.252.672-.168.177-.401.266-.7.266-.28 0-.504-.089-.672-.266a.938.938 0 01-.252-.672z"/><path id="__proto__" fill="#000" d="M75.264 62.802h6.832v.98h-6.832v-.98zm8.4 0h6.832v.98h-6.832v-.98zm8.96-6.44a14.05 14.05 0 00-.063-1.176 4.657 4.657 0 00-.049-.364h-.938v-.91h1.862l.14.98h.07c.252-.327.572-.6.959-.819.387-.22.861-.329 1.421-.329.999 0 1.75.275 2.254.826.504.55.756 1.451.756 2.702 0 .588-.086 1.118-.259 1.589a3.34 3.34 0 01-.735 1.197 3.24 3.24 0 01-1.148.756 3.999 3.999 0 01-1.484.266c-.196 0-.371-.007-.525-.021a4.613 4.613 0 01-.42-.056 3.31 3.31 0 01-.371-.091 5.103 5.103 0 01-.392-.14v2.94h-1.078v-7.35zm3.22-1.596c-.28 0-.544.051-.791.154a2.36 2.36 0 00-1.127.966c-.121.205-.196.41-.224.616v3.192c.205.14.436.25.693.329.257.08.595.119 1.015.119.747 0 1.344-.245 1.792-.735.448-.49.672-1.206.672-2.149 0-.793-.156-1.407-.469-1.841-.313-.434-.833-.651-1.561-.651zm4.76 6.146v-.938h1.89V54.85h-1.89v-.938h2.618l.224.91h.07c.317-.29.672-.537 1.064-.742.392-.205.859-.308 1.4-.308.317 0 .572.06.763.182.191.121.34.299.448.532.107.233.18.516.217.847.037.331.056.707.056 1.127l-.98.014c0-.597-.058-1.036-.175-1.316-.117-.28-.329-.42-.637-.42-.29 0-.55.042-.784.126a2.565 2.565 0 00-.609.308c-.173.121-.32.243-.441.364s-.21.224-.266.308v4.13h2.688v.938h-5.656zm8.274-3.5c0-1.13.294-2.023.882-2.681.588-.658 1.428-.987 2.52-.987.588 0 1.094.096 1.519.287.425.191.777.45 1.057.777.28.327.488.714.623 1.162.135.448.203.929.203 1.442 0 .56-.075 1.066-.224 1.519-.15.453-.369.838-.658 1.155-.29.317-.646.562-1.071.735a3.82 3.82 0 01-1.449.259c-.579 0-1.083-.096-1.512-.287a2.967 2.967 0 01-1.064-.777 3.168 3.168 0 01-.623-1.162 4.963 4.963 0 01-.203-1.442zm1.162 0c0 .327.04.653.119.98.08.327.208.62.385.882.177.261.408.471.693.63.285.159.632.238 1.043.238.747 0 1.309-.231 1.687-.693.378-.462.567-1.141.567-2.037 0-.336-.04-.665-.119-.987a2.608 2.608 0 00-.392-.875 2.066 2.066 0 00-.7-.63c-.285-.159-.632-.238-1.043-.238-.747 0-1.307.229-1.68.686-.373.457-.56 1.139-.56 2.044zm6.874-3.5h1.666v-1.386l1.092-.308v1.694h3.738v.938h-3.738v3.304c0 .681.166 1.185.497 1.512.331.327.805.49 1.421.49.42 0 .786-.08 1.099-.238.313-.159.595-.331.847-.518l.364.826a3.938 3.938 0 01-1.169.63 4.182 4.182 0 01-1.393.238 3.41 3.41 0 01-1.057-.161 2.426 2.426 0 01-.875-.497 2.38 2.38 0 01-.602-.861c-.15-.35-.224-.768-.224-1.253V54.85h-1.666v-.938zm8.764 3.5c0-1.13.294-2.023.882-2.681.588-.658 1.428-.987 2.52-.987.588 0 1.094.096 1.519.287.425.191.777.45 1.057.777.28.327.488.714.623 1.162.135.448.203.929.203 1.442 0 .56-.075 1.066-.224 1.519-.15.453-.369.838-.658 1.155-.29.317-.646.562-1.071.735a3.82 3.82 0 01-1.449.259c-.579 0-1.083-.096-1.512-.287a2.967 2.967 0 01-1.064-.777 3.168 3.168 0 01-.623-1.162 4.963 4.963 0 01-.203-1.442zm1.162 0c0 .327.04.653.119.98.08.327.208.62.385.882.177.261.408.471.693.63.285.159.632.238 1.043.238.747 0 1.309-.231 1.687-.693.378-.462.567-1.141.567-2.037 0-.336-.04-.665-.119-.987a2.608 2.608 0 00-.392-.875 2.066 2.066 0 00-.7-.63c-.285-.159-.632-.238-1.043-.238-.747 0-1.307.229-1.68.686-.373.457-.56 1.139-.56 2.044zm7.224 5.39h6.832v.98h-6.832v-.98zm8.4 0h6.832v.98h-6.832v-.98z"/><path id="." fill="#999" d="M153.342 60.142c0-.299.084-.53.252-.693.168-.163.392-.245.672-.245.299 0 .532.082.7.245.168.163.252.394.252.693 0 .27-.084.495-.252.672-.168.177-.401.266-.7.266-.28 0-.504-.089-.672-.266a.938.938 0 01-.252-.672z"/><path id="eat" fill="#000" d="M165.886 60.03c-.168.15-.366.29-.595.42a4.39 4.39 0 01-.749.336c-.27.093-.553.166-.847.217-.294.051-.59.077-.889.077-.56 0-1.055-.086-1.484-.259a2.858 2.858 0 01-1.078-.742 3.234 3.234 0 01-.658-1.155 4.767 4.767 0 01-.224-1.512c0-.588.082-1.11.245-1.568.163-.457.399-.84.707-1.148a3.08 3.08 0 011.12-.707 4.187 4.187 0 011.47-.245c.392 0 .78.051 1.162.154.383.103.721.296 1.015.581.294.285.52.677.679 1.176.159.5.215 1.146.168 1.939h-5.418c0 .84.226 1.468.679 1.883.453.415 1.057.623 1.813.623.252 0 .502-.03.749-.091.247-.06.483-.133.707-.217a3.72 3.72 0 00.595-.28c.173-.103.306-.196.399-.28l.434.798zm-2.954-5.362c-.308 0-.6.033-.875.098a1.995 1.995 0 00-.728.329c-.21.154-.383.355-.518.602s-.222.553-.259.917h4.354c-.047-.616-.245-1.094-.595-1.435-.35-.34-.81-.511-1.379-.511zm5.46-.21a4.447 4.447 0 011.358-.504 7.423 7.423 0 011.484-.154c.476 0 .866.075 1.169.224.303.15.541.343.714.581.173.238.29.509.35.812.06.303.091.609.091.917 0 .355-.01.733-.028 1.134-.019.401-.033.803-.042 1.204 0 .467.028.91.084 1.33h.938v.91h-1.862l-.126-1.05h-.07c-.056.084-.14.191-.252.322-.112.13-.259.259-.441.385a2.749 2.749 0 01-1.589.469c-.69 0-1.237-.177-1.638-.532-.401-.355-.602-.84-.602-1.456 0-.476.105-.873.315-1.19.21-.317.511-.56.903-.728.392-.168.866-.266 1.421-.294a9.544 9.544 0 011.869.112c.047-.43.054-.786.021-1.071-.033-.285-.107-.511-.224-.679a.938.938 0 00-.49-.357 2.482 2.482 0 00-.777-.105c-.42 0-.821.058-1.204.175-.383.117-.723.236-1.022.357l-.35-.812zm2.058 5.642c.261 0 .504-.042.728-.126a2.22 2.22 0 00.588-.322 2.133 2.133 0 00.672-.868v-.98a7.92 7.92 0 00-1.344-.126c-.41 0-.765.044-1.064.133-.299.089-.532.226-.7.413-.168.187-.252.43-.252.728 0 .308.105.576.315.805.21.229.562.343 1.057.343zm5.264-6.188h1.666v-1.386l1.092-.308v1.694h3.738v.938h-3.738v3.304c0 .681.166 1.185.497 1.512.331.327.805.49 1.421.49.42 0 .786-.08 1.099-.238.313-.159.595-.331.847-.518l.364.826a3.938 3.938 0 01-1.169.63 4.182 4.182 0 01-1.393.238 3.41 3.41 0 01-1.057-.161 2.426 2.426 0 01-.875-.497 2.38 2.38 0 01-.602-.861c-.15-.35-.224-.768-.224-1.253V54.85h-1.666v-.938z"/><path id="." fill="#999" d="M186.942 60.142c0-.299.084-.53.252-.693.168-.163.392-.245.672-.245.299 0 .532.082.7.245.168.163.252.394.252.693 0 .27-.084.495-.252.672-.168.177-.401.266-.7.266-.28 0-.504-.089-.672-.266a.938.938 0 01-.252-.672z"/><path id="call" fill="#000" d="M198.226 54.99a5.531 5.531 0 00-.693-.189 3.61 3.61 0 00-.735-.077c-.915 0-1.596.215-2.044.644-.448.43-.672 1.11-.672 2.044 0 .41.065.777.196 1.099.13.322.317.595.56.819.243.224.534.397.875.518.34.121.716.182 1.127.182.439 0 .866-.075 1.281-.224.415-.15.763-.345 1.043-.588l.49.812c-.13.112-.294.229-.49.35a4.837 4.837 0 01-1.533.602 4.962 4.962 0 01-1.015.098c-.607 0-1.141-.086-1.603-.259a3.045 3.045 0 01-1.155-.742 3.176 3.176 0 01-.7-1.162 4.525 4.525 0 01-.238-1.505c0-.588.082-1.11.245-1.568.163-.457.399-.84.707-1.148a3.08 3.08 0 011.12-.707 4.187 4.187 0 011.47-.245c.69 0 1.253.06 1.687.182.434.121.8.257 1.099.406l-.014.042v1.946h-1.008v-1.33zm3.766-.532a4.447 4.447 0 011.358-.504 7.423 7.423 0 011.484-.154c.476 0 .866.075 1.169.224.303.15.541.343.714.581.173.238.29.509.35.812.06.303.091.609.091.917 0 .355-.01.733-.028 1.134-.019.401-.033.803-.042 1.204 0 .467.028.91.084 1.33h.938v.91h-1.862l-.126-1.05h-.07c-.056.084-.14.191-.252.322-.112.13-.259.259-.441.385a2.749 2.749 0 01-1.589.469c-.69 0-1.237-.177-1.638-.532-.401-.355-.602-.84-.602-1.456 0-.476.105-.873.315-1.19.21-.317.511-.56.903-.728.392-.168.866-.266 1.421-.294a9.544 9.544 0 011.869.112c.047-.43.054-.786.021-1.071-.033-.285-.107-.511-.224-.679a.938.938 0 00-.49-.357 2.482 2.482 0 00-.777-.105c-.42 0-.821.058-1.204.175-.383.117-.723.236-1.022.357l-.35-.812zm2.058 5.642c.261 0 .504-.042.728-.126a2.22 2.22 0 00.588-.322 2.133 2.133 0 00.672-.868v-.98a7.92 7.92 0 00-1.344-.126c-.41 0-.765.044-1.064.133-.299.089-.532.226-.7.413-.168.187-.252.43-.252.728 0 .308.105.576.315.805.21.229.562.343 1.057.343zm6.496-8.988h2.324v7.448c0 .57.096.97.287 1.204.191.233.474.35.847.35.261 0 .511-.047.749-.14.238-.093.502-.252.791-.476l.504.77c-.15.13-.313.247-.49.35a3.638 3.638 0 01-1.106.42 2.963 2.963 0 01-1.442-.077 1.579 1.579 0 01-.679-.427 1.897 1.897 0 01-.413-.777c-.093-.322-.14-.721-.14-1.197v-6.51h-1.232v-.938zm8.4 0h2.324v7.448c0 .57.096.97.287 1.204.191.233.474.35.847.35.261 0 .511-.047.749-.14.238-.093.502-.252.791-.476l.504.77c-.15.13-.313.247-.49.35a3.638 3.638 0 01-1.106.42 2.963 2.963 0 01-1.442-.077 1.579 1.579 0 01-.679-.427 1.897 1.897 0 01-.413-.777c-.093-.322-.14-.721-.14-1.197v-6.51h-1.232v-.938z"/><path id="(" fill="#999" d="M231.728 63.88a6.964 6.964 0 01-1.757-.707 5.036 5.036 0 01-1.428-1.225c-.406-.504-.728-1.12-.966-1.848s-.357-1.591-.357-2.59c0-.99.121-1.855.364-2.597s.57-1.372.98-1.89c.41-.518.889-.933 1.435-1.246a6.005 6.005 0 011.729-.665l.35.882a7.086 7.086 0 00-1.512.623 3.928 3.928 0 00-1.183 1.022c-.331.425-.588.952-.77 1.582-.182.63-.273 1.393-.273 2.289 0 .905.11 1.678.329 2.317.22.64.509 1.171.868 1.596.36.425.76.756 1.204.994.443.238.889.404 1.337.497l-.35.966z"/><path id="this" fill="#07A" d="M234.514 53.912h1.666v-1.386l1.092-.308v1.694h3.738v.938h-3.738v3.304c0 .681.166 1.185.497 1.512.331.327.805.49 1.421.49.42 0 .786-.08 1.099-.238.313-.159.595-.331.847-.518l.364.826a3.938 3.938 0 01-1.169.63 4.182 4.182 0 01-1.393.238 3.41 3.41 0 01-1.057-.161 2.426 2.426 0 01-.875-.497 2.38 2.38 0 01-.602-.861c-.15-.35-.224-.768-.224-1.253V54.85h-1.666v-.938zm8.022-2.8h2.184v3.668h.07c.29-.327.625-.581 1.008-.763.383-.182.859-.273 1.428-.273.448 0 .838.047 1.169.14.331.093.602.257.812.49.21.233.366.553.469.959.103.406.154.922.154 1.547v4.032h-1.092V57.09c0-.401-.023-.751-.07-1.05a1.829 1.829 0 00-.273-.749c-.135-.2-.32-.352-.553-.455-.233-.103-.532-.154-.896-.154-.252 0-.5.044-.742.133-.243.089-.464.21-.665.364-.2.154-.373.34-.518.56-.145.22-.245.46-.301.721v4.452h-1.078V52.05h-1.106v-.938zm9.814 9.8v-.938h2.436V54.85h-2.436v-.938h3.556v6.062h2.38v.938h-5.936zm2.058-8.988c0-.252.084-.469.252-.651a.838.838 0 01.644-.273c.27 0 .497.091.679.273a.889.889 0 01.273.651.806.806 0 01-.273.616.963.963 0 01-.679.252.872.872 0 01-.644-.252.838.838 0 01-.252-.616zm11.004 7.098a.796.796 0 00-.35-.693 2.872 2.872 0 00-.868-.392 16.056 16.056 0 00-1.127-.273 6.502 6.502 0 01-1.127-.336 2.525 2.525 0 01-.868-.567c-.233-.238-.35-.572-.35-1.001 0-.355.077-.658.231-.91a1.94 1.94 0 01.609-.623c.252-.163.546-.285.882-.364.336-.08.686-.119 1.05-.119.653 0 1.216.082 1.687.245.471.163.847.334 1.127.511l-.448.882a11.79 11.79 0 00-1.001-.483c-.36-.154-.81-.231-1.351-.231-.205 0-.408.021-.609.063-.2.042-.383.105-.546.189a1.088 1.088 0 00-.392.329.825.825 0 00-.147.497c0 .243.117.43.35.56.233.13.523.24.868.329.345.089.721.173 1.127.252.406.08.782.194 1.127.343.345.15.635.35.868.602.233.252.35.593.35 1.022 0 .644-.254 1.176-.763 1.596-.509.42-1.272.63-2.289.63-.308 0-.611-.028-.91-.084a5.52 5.52 0 01-.84-.224 5.054 5.054 0 01-.714-.315 3.002 3.002 0 01-.532-.357l.56-.91c.112.112.261.226.448.343a4.229 4.229 0 001.337.539 3.76 3.76 0 001.484.021c.22-.042.413-.107.581-.196a1.08 1.08 0 00.399-.35.914.914 0 00.147-.525z"/><path id=");" fill="#999" d="M269.682 62.914a4.965 4.965 0 001.337-.497 4.15 4.15 0 001.204-.994c.36-.425.649-.957.868-1.596.22-.64.329-1.412.329-2.317 0-.896-.091-1.659-.273-2.289-.182-.63-.439-1.157-.77-1.582a3.928 3.928 0 00-1.183-1.022 7.086 7.086 0 00-1.512-.623l.35-.882c.607.13 1.183.352 1.729.665a4.984 4.984 0 011.435 1.246c.41.518.737 1.148.98 1.89s.364 1.608.364 2.597c0 .999-.119 1.862-.357 2.59-.238.728-.56 1.344-.966 1.848a5.036 5.036 0 01-1.428 1.225 6.964 6.964 0 01-1.757.707l-.35-.966zm9.604-2.772c0-.28.091-.506.273-.679.182-.173.418-.259.707-.259.355 0 .63.124.826.371.196.247.294.595.294 1.043a2.36 2.36 0 01-.637 1.659 2.465 2.465 0 01-.588.462c-.21.117-.404.203-.581.259l-.35-.546c.336-.13.625-.317.868-.56.243-.243.364-.537.364-.882-.13.028-.233.042-.308.042-.27 0-.483-.077-.637-.231-.154-.154-.231-.38-.231-.679zm.126-5.502c0-.299.084-.53.252-.693.168-.163.392-.245.672-.245.299 0 .532.082.7.245.168.163.252.394.252.693 0 .27-.084.495-.252.672-.168.177-.401.266-.7.266-.28 0-.504-.089-.672-.266a.938.938 0 01-.252-.672z"/><path id="(*)" fill="#ED6B47" d="M298.928 63.88a6.964 6.964 0 01-1.757-.707 5.036 5.036 0 01-1.428-1.225c-.406-.504-.728-1.12-.966-1.848s-.357-1.591-.357-2.59c0-.99.121-1.855.364-2.597s.57-1.372.98-1.89c.41-.518.889-.933 1.435-1.246a6.005 6.005 0 011.729-.665l.35.882a7.086 7.086 0 00-1.512.623 3.928 3.928 0 00-1.183 1.022c-.331.425-.588.952-.77 1.582-.182.63-.273 1.393-.273 2.289 0 .905.11 1.678.329 2.317.22.64.509 1.171.868 1.596.36.425.76.756 1.204.994.443.238.889.404 1.337.497l-.35.966zm5.334-12.964l1.246 2.45 1.204-2.464.966.518-1.694 2.366 2.842-.21v1.134l-2.758-.224 1.624 2.254-.938.546-1.302-2.506-1.232 2.506-1.008-.546 1.694-2.254-2.772.224v-1.134l2.772.238-1.61-2.352.966-.546zm7.42 11.998a4.965 4.965 0 001.337-.497 4.15 4.15 0 001.204-.994c.36-.425.649-.957.868-1.596.22-.64.329-1.412.329-2.317 0-.896-.091-1.659-.273-2.289-.182-.63-.439-1.157-.77-1.582a3.928 3.928 0 00-1.183-1.022 7.086 7.086 0 00-1.512-.623l.35-.882c.607.13 1.183.352 1.729.665a4.984 4.984 0 011.435 1.246c.41.518.737 1.148.98 1.89s.364 1.608.364 2.597c0 .999-.119 1.862-.357 2.59-.238.728-.56 1.344-.966 1.848a5.036 5.036 0 01-1.428 1.225 6.964 6.964 0 01-1.757.707l-.35-.966z"/><path id="}};" fill="#999" d="M21 78.836c0 .756-.198 1.328-.595 1.715-.397.387-.922.581-1.575.581H16.8v-.98h1.526c.57 0 .975-.135 1.218-.406.243-.27.364-.69.364-1.26v-1.344c0-.364.07-.695.21-.994.14-.299.308-.558.504-.777.196-.22.397-.392.602-.518.205-.126.373-.198.504-.217v-.084c-.13-.019-.299-.086-.504-.203a2.7 2.7 0 01-1.106-1.225c-.14-.299-.21-.64-.21-1.022v-1.358c0-.55-.114-.966-.343-1.246-.229-.28-.637-.42-1.225-.42H16.8v-.98h2.03c.317 0 .609.058.875.175.266.117.495.278.686.483.191.205.34.448.448.728.107.28.161.588.161.924v1.428c0 .43.068.789.203 1.078.135.29.303.525.504.707.2.182.415.313.644.392.229.08.432.119.609.119v.98c-.177 0-.38.047-.609.14a2.011 2.011 0 00-.644.434 2.44 2.44 0 00-.504.735c-.135.294-.203.642-.203 1.043v1.372zm-16.8 17c0 .756-.198 1.328-.595 1.715-.397.387-.922.581-1.575.581H0v-.98h1.526c.57 0 .975-.135 1.218-.406.243-.27.364-.69.364-1.26v-1.344c0-.364.07-.695.21-.994.14-.299.308-.558.504-.777.196-.22.397-.392.602-.518.205-.126.373-.198.504-.217v-.084c-.13-.019-.299-.086-.504-.203a2.7 2.7 0 01-1.106-1.225c-.14-.299-.21-.64-.21-1.022v-1.358c0-.55-.114-.966-.343-1.246-.229-.28-.637-.42-1.225-.42H0v-.98h2.03c.317 0 .609.058.875.175.266.117.495.278.686.483.191.205.34.448.448.728.107.28.161.588.161.924v1.428c0 .43.068.789.203 1.078.135.29.303.525.504.707.2.182.415.313.644.392.229.08.432.119.609.119v.98c-.177 0-.38.047-.609.14a2.011 2.011 0 00-.644.434 2.44 2.44 0 00-.504.735c-.135.294-.203.642-.203 1.043v1.372zm6.286-1.694c0-.28.091-.506.273-.679.182-.173.418-.259.707-.259.355 0 .63.124.826.371.196.247.294.595.294 1.043a2.36 2.36 0 01-.637 1.659 2.465 2.465 0 01-.588.462c-.21.117-.404.203-.581.259l-.35-.546c.336-.13.625-.317.868-.56.243-.243.364-.537.364-.882-.13.028-.233.042-.308.042-.27 0-.483-.077-.637-.231-.154-.154-.231-.38-.231-.679zm.126-5.502c0-.299.084-.53.252-.693.168-.163.392-.245.672-.245.299 0 .532.082.7.245.168.163.252.394.252.693 0 .27-.084.495-.252.672-.168.177-.401.266-.7.266-.28 0-.504-.089-.672-.266a.938.938 0 01-.252-.672z"/><path id="let" fill="#07A" d="M.546 119.112H2.87v7.448c0 .57.096.97.287 1.204.191.233.474.35.847.35.261 0 .511-.047.749-.14.238-.093.502-.252.791-.476l.504.77c-.15.13-.313.247-.49.35a3.638 3.638 0 01-1.106.42 2.963 2.963 0 01-1.442-.077 1.579 1.579 0 01-.679-.427 1.897 1.897 0 01-.413-.777c-.093-.322-.14-.721-.14-1.197v-6.51H.546v-.938zm14.14 8.918c-.168.15-.366.29-.595.42a4.39 4.39 0 01-.749.336c-.27.093-.553.166-.847.217-.294.051-.59.077-.889.077-.56 0-1.055-.086-1.484-.259a2.858 2.858 0 01-1.078-.742 3.234 3.234 0 01-.658-1.155 4.767 4.767 0 01-.224-1.512c0-.588.082-1.11.245-1.568.163-.457.399-.84.707-1.148a3.08 3.08 0 011.12-.707 4.187 4.187 0 011.47-.245c.392 0 .78.051 1.162.154.383.103.721.296 1.015.581.294.285.52.677.679 1.176.159.5.215 1.146.168 1.939H9.31c0 .84.226 1.468.679 1.883.453.415 1.057.623 1.813.623.252 0 .502-.03.749-.091.247-.06.483-.133.707-.217a3.72 3.72 0 00.595-.28c.173-.103.306-.196.399-.28l.434.798zm-2.954-5.362c-.308 0-.6.033-.875.098a1.995 1.995 0 00-.728.329c-.21.154-.383.355-.518.602s-.222.553-.259.917h4.354c-.047-.616-.245-1.094-.595-1.435-.35-.34-.81-.511-1.379-.511zm4.382-.756h1.666v-1.386l1.092-.308v1.694h3.738v.938h-3.738v3.304c0 .681.166 1.185.497 1.512.331.327.805.49 1.421.49.42 0 .786-.08 1.099-.238.313-.159.595-.331.847-.518l.364.826a3.938 3.938 0 01-1.169.63 4.182 4.182 0 01-1.393.238 3.41 3.41 0 01-1.057-.161 2.426 2.426 0 01-.875-.497 2.38 2.38 0 01-.602-.861c-.15-.35-.224-.768-.224-1.253v-3.472h-1.666v-.938z"/><path id="longEar" fill="#000" d="M34.146 119.112h2.324v7.448c0 .57.096.97.287 1.204.191.233.474.35.847.35.261 0 .511-.047.749-.14.238-.093.502-.252.791-.476l.504.77c-.15.13-.313.247-.49.35a3.638 3.638 0 01-1.106.42 2.963 2.963 0 01-1.442-.077 1.579 1.579 0 01-.679-.427 1.897 1.897 0 01-.413-.777c-.093-.322-.14-.721-.14-1.197v-6.51h-1.232v-.938zm7.532 6.3c0-1.13.294-2.023.882-2.681.588-.658 1.428-.987 2.52-.987.588 0 1.094.096 1.519.287.425.191.777.45 1.057.777.28.327.488.714.623 1.162.135.448.203.929.203 1.442 0 .56-.075 1.066-.224 1.519-.15.453-.369.838-.658 1.155-.29.317-.646.562-1.071.735a3.82 3.82 0 01-1.449.259c-.579 0-1.083-.096-1.512-.287a2.967 2.967 0 01-1.064-.777 3.168 3.168 0 01-.623-1.162 4.963 4.963 0 01-.203-1.442zm1.162 0c0 .327.04.653.119.98.08.327.208.62.385.882.177.261.408.471.693.63.285.159.632.238 1.043.238.747 0 1.309-.231 1.687-.693.378-.462.567-1.141.567-2.037 0-.336-.04-.665-.119-.987a2.608 2.608 0 00-.392-.875 2.066 2.066 0 00-.7-.63c-.285-.159-.632-.238-1.043-.238-.747 0-1.307.229-1.68.686-.373.457-.56 1.139-.56 2.044zm7.742-1.05a14.05 14.05 0 00-.063-1.176 4.657 4.657 0 00-.049-.364h-.938v-.91h1.876l.126 1.134h.07c.093-.159.217-.315.371-.469a2.91 2.91 0 011.225-.721c.252-.075.518-.112.798-.112.43 0 .81.047 1.141.14.331.093.607.259.826.497.22.238.385.56.497.966.112.406.168.922.168 1.547v4.018h-1.092v-3.808c0-.775-.126-1.358-.378-1.75-.252-.392-.71-.588-1.372-.588-.243 0-.478.049-.707.147a2.44 2.44 0 00-.623.385c-.187.159-.35.343-.49.553-.14.21-.243.432-.308.665v4.396h-1.078v-4.55zm14.434 4.9c0 .439-.084.824-.252 1.155a2.269 2.269 0 01-.693.819 3.127 3.127 0 01-1.029.483 4.81 4.81 0 01-1.274.161c-.55 0-1.031-.056-1.442-.168a4.29 4.29 0 01-1.064-.434l.532-.994c.084.075.194.147.329.217s.292.135.469.196c.177.06.366.11.567.147.2.037.399.056.595.056.41 0 .754-.037 1.029-.112.275-.075.497-.191.665-.35.168-.159.29-.364.364-.616a3.29 3.29 0 00.112-.924v-.784h-.056a2.18 2.18 0 01-.826.714c-.336.168-.77.252-1.302.252-1.064 0-1.846-.296-2.345-.889-.5-.593-.749-1.514-.749-2.765 0-1.195.317-2.098.952-2.709.635-.611 1.577-.917 2.828-.917.579 0 1.071.04 1.477.119.406.08.777.18 1.113.301v7.042zm-3.122-1.12c.57 0 1.017-.147 1.344-.441.327-.294.555-.744.686-1.351v-3.318c-.41-.196-.985-.294-1.722-.294-.747 0-1.335.22-1.764.658-.43.439-.644 1.11-.644 2.016 0 .401.037.768.112 1.099.075.331.194.618.357.861.163.243.378.432.644.567.266.135.595.203.987.203zm5.684-9.03h5.754v1.036H68.74v3.206h4.242v1.036H68.74v3.486h4.662v1.036h-5.824v-9.8zm8.414 3.346a4.447 4.447 0 011.358-.504 7.423 7.423 0 011.484-.154c.476 0 .866.075 1.169.224.303.15.541.343.714.581.173.238.29.509.35.812.06.303.091.609.091.917 0 .355-.01.733-.028 1.134-.019.401-.033.803-.042 1.204 0 .467.028.91.084 1.33h.938v.91h-1.862l-.126-1.05h-.07c-.056.084-.14.191-.252.322-.112.13-.259.259-.441.385a2.749 2.749 0 01-1.589.469c-.69 0-1.237-.177-1.638-.532-.401-.355-.602-.84-.602-1.456 0-.476.105-.873.315-1.19.21-.317.511-.56.903-.728.392-.168.866-.266 1.421-.294a9.544 9.544 0 011.869.112c.047-.43.054-.786.021-1.071-.033-.285-.107-.511-.224-.679a.938.938 0 00-.49-.357 2.482 2.482 0 00-.777-.105c-.42 0-.821.058-1.204.175-.383.117-.723.236-1.022.357l-.35-.812zm2.058 5.642c.261 0 .504-.042.728-.126a2.22 2.22 0 00.588-.322 2.133 2.133 0 00.672-.868v-.98a7.92 7.92 0 00-1.344-.126c-.41 0-.765.044-1.064.133-.299.089-.532.226-.7.413-.168.187-.252.43-.252.728 0 .308.105.576.315.805.21.229.562.343 1.057.343zm5.754.812v-.938h1.89v-5.124h-1.89v-.938h2.618l.224.91h.07c.317-.29.672-.537 1.064-.742.392-.205.859-.308 1.4-.308.317 0 .572.06.763.182.191.121.34.299.448.532.107.233.18.516.217.847.037.331.056.707.056 1.127l-.98.014c0-.597-.058-1.036-.175-1.316-.117-.28-.329-.42-.637-.42-.29 0-.55.042-.784.126a2.565 2.565 0 00-.609.308c-.173.121-.32.243-.441.364s-.21.224-.266.308v4.13h2.688v.938h-5.656z"/><path id="=" fill="#A67F59" d="M100.632 122.514h6.496v1.008h-6.496v-1.008zm0 2.296h6.496v1.008h-6.496v-1.008z"/><path id="{" fill="#999" d="M119.56 128.464c0-.401-.068-.749-.203-1.043a2.44 2.44 0 00-.504-.735c-.2-.196-.415-.34-.644-.434a1.641 1.641 0 00-.609-.14v-.98c.177 0 .38-.04.609-.119.229-.08.443-.21.644-.392.2-.182.369-.418.504-.707.135-.29.203-.649.203-1.078v-1.428c0-.336.054-.644.161-.924a2.22 2.22 0 01.448-.728c.191-.205.42-.366.686-.483.266-.117.558-.175.875-.175h2.03v.98h-1.54c-.588 0-.996.14-1.225.42-.229.28-.343.695-.343 1.246v1.358c0 .383-.07.723-.21 1.022a2.7 2.7 0 01-1.106 1.225c-.205.117-.373.184-.504.203v.084c.121.019.285.091.49.217.205.126.406.299.602.518.196.22.366.478.511.777.145.299.217.63.217.994v1.344c0 .57.121.99.364 1.26s.649.406 1.218.406h1.526v.98h-2.03c-.653 0-1.178-.194-1.575-.581-.397-.387-.595-.959-.595-1.715v-1.372z"/><path id="__proto__" fill="#000" d="M16.464 147.802h6.832v.98h-6.832v-.98zm8.4 0h6.832v.98h-6.832v-.98zm8.96-6.44a14.05 14.05 0 00-.063-1.176 4.657 4.657 0 00-.049-.364h-.938v-.91h1.862l.14.98h.07c.252-.327.572-.6.959-.819.387-.22.861-.329 1.421-.329.999 0 1.75.275 2.254.826.504.55.756 1.451.756 2.702 0 .588-.086 1.118-.259 1.589a3.34 3.34 0 01-.735 1.197 3.24 3.24 0 01-1.148.756 3.999 3.999 0 01-1.484.266c-.196 0-.371-.007-.525-.021a4.613 4.613 0 01-.42-.056 3.31 3.31 0 01-.371-.091 5.104 5.104 0 01-.392-.14v2.94h-1.078v-7.35zm3.22-1.596c-.28 0-.544.051-.791.154a2.36 2.36 0 00-1.127.966c-.121.205-.196.41-.224.616v3.192c.205.14.436.25.693.329.257.08.595.119 1.015.119.747 0 1.344-.245 1.792-.735.448-.49.672-1.206.672-2.149 0-.793-.156-1.407-.469-1.841-.313-.434-.833-.651-1.561-.651zm4.76 6.146v-.938h1.89v-5.124h-1.89v-.938h2.618l.224.91h.07c.317-.29.672-.537 1.064-.742.392-.205.859-.308 1.4-.308.317 0 .572.06.763.182.191.121.34.299.448.532.107.233.18.516.217.847.037.331.056.707.056 1.127l-.98.014c0-.597-.058-1.036-.175-1.316-.117-.28-.329-.42-.637-.42-.29 0-.55.042-.784.126a2.565 2.565 0 00-.609.308c-.173.121-.32.243-.441.364s-.21.224-.266.308v4.13h2.688v.938h-5.656zm8.274-3.5c0-1.13.294-2.023.882-2.681.588-.658 1.428-.987 2.52-.987.588 0 1.094.096 1.519.287.425.191.777.45 1.057.777.28.327.488.714.623 1.162.135.448.203.929.203 1.442 0 .56-.075 1.066-.224 1.519-.15.453-.369.838-.658 1.155-.29.317-.646.562-1.071.735a3.82 3.82 0 01-1.449.259c-.579 0-1.083-.096-1.512-.287a2.967 2.967 0 01-1.064-.777 3.168 3.168 0 01-.623-1.162 4.963 4.963 0 01-.203-1.442zm1.162 0c0 .327.04.653.119.98.08.327.208.62.385.882.177.261.408.471.693.63.285.159.632.238 1.043.238.747 0 1.309-.231 1.687-.693.378-.462.567-1.141.567-2.037 0-.336-.04-.665-.119-.987a2.608 2.608 0 00-.392-.875 2.066 2.066 0 00-.7-.63c-.285-.159-.632-.238-1.043-.238-.747 0-1.307.229-1.68.686-.373.457-.56 1.139-.56 2.044zm6.874-3.5h1.666v-1.386l1.092-.308v1.694h3.738v.938h-3.738v3.304c0 .681.166 1.185.497 1.512.331.327.805.49 1.421.49.42 0 .786-.08 1.099-.238.313-.159.595-.331.847-.518l.364.826a3.938 3.938 0 01-1.169.63 4.182 4.182 0 01-1.393.238 3.41 3.41 0 01-1.057-.161 2.426 2.426 0 01-.875-.497 2.38 2.38 0 01-.602-.861c-.15-.35-.224-.768-.224-1.253v-3.472h-1.666v-.938zm8.764 3.5c0-1.13.294-2.023.882-2.681.588-.658 1.428-.987 2.52-.987.588 0 1.094.096 1.519.287.425.191.777.45 1.057.777.28.327.488.714.623 1.162.135.448.203.929.203 1.442 0 .56-.075 1.066-.224 1.519-.15.453-.369.838-.658 1.155-.29.317-.646.562-1.071.735a3.82 3.82 0 01-1.449.259c-.579 0-1.083-.096-1.512-.287a2.967 2.967 0 01-1.064-.777 3.168 3.168 0 01-.623-1.162 4.963 4.963 0 01-.203-1.442zm1.162 0c0 .327.04.653.119.98.08.327.208.62.385.882.177.261.408.471.693.63.285.159.632.238 1.043.238.747 0 1.309-.231 1.687-.693.378-.462.567-1.141.567-2.037 0-.336-.04-.665-.119-.987a2.608 2.608 0 00-.392-.875 2.066 2.066 0 00-.7-.63c-.285-.159-.632-.238-1.043-.238-.747 0-1.307.229-1.68.686-.373.457-.56 1.139-.56 2.044zm7.224 5.39h6.832v.98h-6.832v-.98zm8.4 0h6.832v.98h-6.832v-.98z"/><path id=":" fill="#999" d="M94.542 139.64c0-.299.084-.53.252-.693.168-.163.392-.245.672-.245.299 0 .532.082.7.245.168.163.252.394.252.693 0 .27-.084.495-.252.672-.168.177-.401.266-.7.266-.28 0-.504-.089-.672-.266a.938.938 0 01-.252-.672zm0 5.502c0-.299.084-.53.252-.693.168-.163.392-.245.672-.245.299 0 .532.082.7.245.168.163.252.394.252.693 0 .27-.084.495-.252.672-.168.177-.401.266-.7.266-.28 0-.504-.089-.672-.266a.938.938 0 01-.252-.672z"/><path id="rabbit" fill="#000" d="M109.004 145.912v-.938h1.89v-5.124h-1.89v-.938h2.618l.224.91h.07c.317-.29.672-.537 1.064-.742.392-.205.859-.308 1.4-.308.317 0 .572.06.763.182.191.121.34.299.448.532.107.233.18.516.217.847.037.331.056.707.056 1.127l-.98.014c0-.597-.058-1.036-.175-1.316-.117-.28-.329-.42-.637-.42-.29 0-.55.042-.784.126a2.565 2.565 0 00-.609.308c-.173.121-.32.243-.441.364s-.21.224-.266.308v4.13h2.688v.938h-5.656zm8.988-6.454a4.447 4.447 0 011.358-.504 7.423 7.423 0 011.484-.154c.476 0 .866.075 1.169.224.303.15.541.343.714.581.173.238.29.509.35.812.06.303.091.609.091.917 0 .355-.01.733-.028 1.134-.019.401-.033.803-.042 1.204 0 .467.028.91.084 1.33h.938v.91h-1.862l-.126-1.05h-.07c-.056.084-.14.191-.252.322-.112.13-.259.259-.441.385a2.749 2.749 0 01-1.589.469c-.69 0-1.237-.177-1.638-.532-.401-.355-.602-.84-.602-1.456 0-.476.105-.873.315-1.19.21-.317.511-.56.903-.728.392-.168.866-.266 1.421-.294a9.544 9.544 0 011.869.112c.047-.43.054-.786.021-1.071-.033-.285-.107-.511-.224-.679a.938.938 0 00-.49-.357 2.482 2.482 0 00-.777-.105c-.42 0-.821.058-1.204.175-.383.117-.723.236-1.022.357l-.35-.812zm2.058 5.642c.261 0 .504-.042.728-.126a2.22 2.22 0 00.588-.322 2.133 2.133 0 00.672-.868v-.98a7.92 7.92 0 00-1.344-.126c-.41 0-.765.044-1.064.133-.299.089-.532.226-.7.413-.168.187-.252.43-.252.728 0 .308.105.576.315.805.21.229.562.343 1.057.343zm4.858-8.988h2.24v3.598h.07c.243-.308.555-.546.938-.714a3.065 3.065 0 011.246-.252c2.053 0 3.08 1.185 3.08 3.556 0 1.204-.331 2.126-.994 2.765-.663.64-1.605.959-2.828.959a6.731 6.731 0 01-1.568-.168c-.467-.112-.807-.243-1.022-.392v-8.414h-1.162v-.938zm4.354 3.57c-.56 0-1.013.159-1.358.476-.345.317-.597.765-.756 1.344v3.22c.215.112.471.2.77.266.299.065.611.098.938.098.373 0 .712-.054 1.015-.161.303-.107.562-.275.777-.504.215-.229.38-.52.497-.875.117-.355.175-.775.175-1.26 0-.355-.037-.69-.112-1.008a2.447 2.447 0 00-.357-.833 1.717 1.717 0 00-.637-.56c-.261-.135-.579-.203-.952-.203zm4.046-3.57h2.24v3.598h.07c.243-.308.555-.546.938-.714a3.065 3.065 0 011.246-.252c2.053 0 3.08 1.185 3.08 3.556 0 1.204-.331 2.126-.994 2.765-.663.64-1.605.959-2.828.959a6.731 6.731 0 01-1.568-.168c-.467-.112-.807-.243-1.022-.392v-8.414h-1.162v-.938zm4.354 3.57c-.56 0-1.013.159-1.358.476-.345.317-.597.765-.756 1.344v3.22c.215.112.471.2.77.266.299.065.611.098.938.098.373 0 .712-.054 1.015-.161.303-.107.562-.275.777-.504.215-.229.38-.52.497-.875.117-.355.175-.775.175-1.26 0-.355-.037-.69-.112-1.008a2.447 2.447 0 00-.357-.833 1.717 1.717 0 00-.637-.56c-.261-.135-.579-.203-.952-.203zm5.488 6.23v-.938h2.436v-5.124h-2.436v-.938h3.556v6.062h2.38v.938h-5.936zm2.058-8.988c0-.252.084-.469.252-.651a.838.838 0 01.644-.273c.27 0 .497.091.679.273a.889.889 0 01.273.651.806.806 0 01-.273.616.963.963 0 01-.679.252.872.872 0 01-.644-.252.838.838 0 01-.252-.616zm5.306 1.988h1.666v-1.386l1.092-.308v1.694h3.738v.938h-3.738v3.304c0 .681.166 1.185.497 1.512.331.327.805.49 1.421.49.42 0 .786-.08 1.099-.238.313-.159.595-.331.847-.518l.364.826a3.938 3.938 0 01-1.169.63 4.182 4.182 0 01-1.393.238 3.41 3.41 0 01-1.057-.161 2.426 2.426 0 01-.875-.497 2.38 2.38 0 01-.602-.861c-.15-.35-.224-.768-.224-1.253v-3.472h-1.666v-.938z"/><path id="," fill="#999" d="M161.686 145.142c0-.28.091-.506.273-.679.182-.173.418-.259.707-.259.355 0 .63.124.826.371.196.247.294.595.294 1.043a2.36 2.36 0 01-.637 1.659 2.465 2.465 0 01-.588.462c-.21.117-.404.203-.581.259l-.35-.546c.336-.13.625-.317.868-.56.243-.243.364-.537.364-.882-.13.028-.233.042-.308.042-.27 0-.483-.077-.637-.231-.154-.154-.231-.38-.231-.679z"/><path id="eat" fill="#000" d="M23.086 162.03c-.168.15-.366.29-.595.42a4.39 4.39 0 01-.749.336c-.27.093-.553.166-.847.217-.294.051-.59.077-.889.077-.56 0-1.055-.086-1.484-.259a2.858 2.858 0 01-1.078-.742 3.234 3.234 0 01-.658-1.155 4.767 4.767 0 01-.224-1.512c0-.588.082-1.11.245-1.568.163-.457.399-.84.707-1.148a3.08 3.08 0 011.12-.707 4.187 4.187 0 011.47-.245c.392 0 .78.051 1.162.154.383.103.721.296 1.015.581.294.285.52.677.679 1.176.159.5.215 1.146.168 1.939H17.71c0 .84.226 1.468.679 1.883.453.415 1.057.623 1.813.623.252 0 .502-.03.749-.091.247-.06.483-.133.707-.217a3.72 3.72 0 00.595-.28c.173-.103.306-.196.399-.28l.434.798zm-2.954-5.362c-.308 0-.6.033-.875.098a1.995 1.995 0 00-.728.329c-.21.154-.383.355-.518.602s-.222.553-.259.917h4.354c-.047-.616-.245-1.094-.595-1.435-.35-.34-.81-.511-1.379-.511zm5.46-.21a4.447 4.447 0 011.358-.504 7.423 7.423 0 011.484-.154c.476 0 .866.075 1.169.224.303.15.541.343.714.581.173.238.29.509.35.812.06.303.091.609.091.917 0 .355-.01.733-.028 1.134-.019.401-.033.803-.042 1.204 0 .467.028.91.084 1.33h.938v.91h-1.862l-.126-1.05h-.07c-.056.084-.14.191-.252.322-.112.13-.259.259-.441.385a2.749 2.749 0 01-1.589.469c-.69 0-1.237-.177-1.638-.532-.401-.355-.602-.84-.602-1.456 0-.476.105-.873.315-1.19.21-.317.511-.56.903-.728.392-.168.866-.266 1.421-.294a9.544 9.544 0 011.869.112c.047-.43.054-.786.021-1.071-.033-.285-.107-.511-.224-.679a.938.938 0 00-.49-.357 2.482 2.482 0 00-.777-.105c-.42 0-.821.058-1.204.175-.383.117-.723.236-1.022.357l-.35-.812zm2.058 5.642c.261 0 .504-.042.728-.126a2.22 2.22 0 00.588-.322 2.133 2.133 0 00.672-.868v-.98a7.92 7.92 0 00-1.344-.126c-.41 0-.765.044-1.064.133-.299.089-.532.226-.7.413-.168.187-.252.43-.252.728 0 .308.105.576.315.805.21.229.562.343 1.057.343zm5.264-6.188h1.666v-1.386l1.092-.308v1.694h3.738v.938h-3.738v3.304c0 .681.166 1.185.497 1.512.331.327.805.49 1.421.49.42 0 .786-.08 1.099-.238.313-.159.595-.331.847-.518l.364.826a3.938 3.938 0 01-1.169.63 4.182 4.182 0 01-1.393.238 3.41 3.41 0 01-1.057-.161 2.426 2.426 0 01-.875-.497 2.38 2.38 0 01-.602-.861c-.15-.35-.224-.768-.224-1.253v-3.472h-1.666v-.938z"/><path id="(){" fill="#999" d="M46.928 165.88a6.964 6.964 0 01-1.757-.707 5.036 5.036 0 01-1.428-1.225c-.406-.504-.728-1.12-.966-1.848s-.357-1.591-.357-2.59c0-.99.121-1.855.364-2.597s.57-1.372.98-1.89c.41-.518.889-.933 1.435-1.246a6.005 6.005 0 011.729-.665l.35.882a7.086 7.086 0 00-1.512.623 3.928 3.928 0 00-1.183 1.022c-.331.425-.588.952-.77 1.582-.182.63-.273 1.393-.273 2.289 0 .905.11 1.678.329 2.317.22.64.509 1.171.868 1.596.36.425.76.756 1.204.994.443.238.889.404 1.337.497l-.35.966zm4.354-.966a4.965 4.965 0 001.337-.497 4.15 4.15 0 001.204-.994c.36-.425.649-.957.868-1.596.22-.64.329-1.412.329-2.317 0-.896-.091-1.659-.273-2.289-.182-.63-.439-1.157-.77-1.582a3.928 3.928 0 00-1.183-1.022 7.086 7.086 0 00-1.512-.623l.35-.882c.607.13 1.183.352 1.729.665a4.984 4.984 0 011.435 1.246c.41.518.737 1.148.98 1.89s.364 1.608.364 2.597c0 .999-.119 1.862-.357 2.59-.238.728-.56 1.344-.966 1.848a5.036 5.036 0 01-1.428 1.225 6.964 6.964 0 01-1.757.707l-.35-.966zm17.878-2.45c0-.401-.068-.749-.203-1.043a2.44 2.44 0 00-.504-.735c-.2-.196-.415-.34-.644-.434a1.641 1.641 0 00-.609-.14v-.98c.177 0 .38-.04.609-.119.229-.08.443-.21.644-.392.2-.182.369-.418.504-.707.135-.29.203-.649.203-1.078v-1.428c0-.336.054-.644.161-.924a2.22 2.22 0 01.448-.728c.191-.205.42-.366.686-.483.266-.117.558-.175.875-.175h2.03v.98h-1.54c-.588 0-.996.14-1.225.42-.229.28-.343.695-.343 1.246v1.358c0 .383-.07.723-.21 1.022a2.7 2.7 0 01-1.106 1.225c-.205.117-.373.184-.504.203v.084c.121.019.285.091.49.217.205.126.406.299.602.518.196.22.366.478.511.777.145.299.217.63.217.994v1.344c0 .57.121.99.364 1.26s.649.406 1.218.406h1.526v.98h-2.03c-.653 0-1.178-.194-1.575-.581-.397-.387-.595-.959-.595-1.715v-1.372z"/><path id="this" fill="#07A" d="M32.914 172.912h1.666v-1.386l1.092-.308v1.694h3.738v.938h-3.738v3.304c0 .681.166 1.185.497 1.512.331.327.805.49 1.421.49.42 0 .786-.08 1.099-.238.313-.159.595-.331.847-.518l.364.826a3.938 3.938 0 01-1.169.63 4.182 4.182 0 01-1.393.238 3.41 3.41 0 01-1.057-.161 2.426 2.426 0 01-.875-.497 2.38 2.38 0 01-.602-.861c-.15-.35-.224-.768-.224-1.253v-3.472h-1.666v-.938zm8.022-2.8h2.184v3.668h.07c.29-.327.625-.581 1.008-.763.383-.182.859-.273 1.428-.273.448 0 .838.047 1.169.14.331.093.602.257.812.49.21.233.366.553.469.959.103.406.154.922.154 1.547v4.032h-1.092v-3.822c0-.401-.023-.751-.07-1.05a1.829 1.829 0 00-.273-.749c-.135-.2-.32-.352-.553-.455-.233-.103-.532-.154-.896-.154-.252 0-.5.044-.742.133-.243.089-.464.21-.665.364-.2.154-.373.34-.518.56-.145.22-.245.46-.301.721v4.452h-1.078v-8.862h-1.106v-.938zm9.814 9.8v-.938h2.436v-5.124H50.75v-.938h3.556v6.062h2.38v.938H50.75zm2.058-8.988c0-.252.084-.469.252-.651a.838.838 0 01.644-.273c.27 0 .497.091.679.273a.889.889 0 01.273.651.806.806 0 01-.273.616.963.963 0 01-.679.252.872.872 0 01-.644-.252.838.838 0 01-.252-.616zm11.004 7.098a.796.796 0 00-.35-.693 2.872 2.872 0 00-.868-.392 16.056 16.056 0 00-1.127-.273 6.502 6.502 0 01-1.127-.336 2.525 2.525 0 01-.868-.567c-.233-.238-.35-.572-.35-1.001 0-.355.077-.658.231-.91a1.94 1.94 0 01.609-.623c.252-.163.546-.285.882-.364.336-.08.686-.119 1.05-.119.653 0 1.216.082 1.687.245.471.163.847.334 1.127.511l-.448.882a11.79 11.79 0 00-1.001-.483c-.36-.154-.81-.231-1.351-.231-.205 0-.408.021-.609.063-.2.042-.383.105-.546.189a1.088 1.088 0 00-.392.329.825.825 0 00-.147.497c0 .243.117.43.35.56.233.13.523.24.868.329.345.089.721.173 1.127.252.406.08.782.194 1.127.343.345.15.635.35.868.602.233.252.35.593.35 1.022 0 .644-.254 1.176-.763 1.596-.509.42-1.272.63-2.289.63-.308 0-.611-.028-.91-.084a5.52 5.52 0 01-.84-.224 5.054 5.054 0 01-.714-.315 3.002 3.002 0 01-.532-.357l.56-.91c.112.112.261.226.448.343a4.229 4.229 0 001.337.539 3.76 3.76 0 001.484.021c.22-.042.413-.107.581-.196a1.08 1.08 0 00.399-.35.914.914 0 00.147-.525z"/><path id="." fill="#999" d="M69.342 179.142c0-.299.084-.53.252-.693.168-.163.392-.245.672-.245.299 0 .532.082.7.245.168.163.252.394.252.693 0 .27-.084.495-.252.672-.168.177-.401.266-.7.266-.28 0-.504-.089-.672-.266a.938.938 0 01-.252-.672z"/><path id="__proto__" fill="#000" d="M75.264 181.802h6.832v.98h-6.832v-.98zm8.4 0h6.832v.98h-6.832v-.98zm8.96-6.44a14.05 14.05 0 00-.063-1.176 4.657 4.657 0 00-.049-.364h-.938v-.91h1.862l.14.98h.07c.252-.327.572-.6.959-.819.387-.22.861-.329 1.421-.329.999 0 1.75.275 2.254.826.504.55.756 1.451.756 2.702 0 .588-.086 1.118-.259 1.589a3.34 3.34 0 01-.735 1.197 3.24 3.24 0 01-1.148.756 3.999 3.999 0 01-1.484.266c-.196 0-.371-.007-.525-.021a4.613 4.613 0 01-.42-.056 3.31 3.31 0 01-.371-.091 5.104 5.104 0 01-.392-.14v2.94h-1.078v-7.35zm3.22-1.596c-.28 0-.544.051-.791.154a2.36 2.36 0 00-1.127.966c-.121.205-.196.41-.224.616v3.192c.205.14.436.25.693.329.257.08.595.119 1.015.119.747 0 1.344-.245 1.792-.735.448-.49.672-1.206.672-2.149 0-.793-.156-1.407-.469-1.841-.313-.434-.833-.651-1.561-.651zm4.76 6.146v-.938h1.89v-5.124h-1.89v-.938h2.618l.224.91h.07c.317-.29.672-.537 1.064-.742.392-.205.859-.308 1.4-.308.317 0 .572.06.763.182.191.121.34.299.448.532.107.233.18.516.217.847.037.331.056.707.056 1.127l-.98.014c0-.597-.058-1.036-.175-1.316-.117-.28-.329-.42-.637-.42-.29 0-.55.042-.784.126a2.565 2.565 0 00-.609.308c-.173.121-.32.243-.441.364s-.21.224-.266.308v4.13h2.688v.938h-5.656zm8.274-3.5c0-1.13.294-2.023.882-2.681.588-.658 1.428-.987 2.52-.987.588 0 1.094.096 1.519.287.425.191.777.45 1.057.777.28.327.488.714.623 1.162.135.448.203.929.203 1.442 0 .56-.075 1.066-.224 1.519-.15.453-.369.838-.658 1.155-.29.317-.646.562-1.071.735a3.82 3.82 0 01-1.449.259c-.579 0-1.083-.096-1.512-.287a2.967 2.967 0 01-1.064-.777 3.168 3.168 0 01-.623-1.162 4.963 4.963 0 01-.203-1.442zm1.162 0c0 .327.04.653.119.98.08.327.208.62.385.882.177.261.408.471.693.63.285.159.632.238 1.043.238.747 0 1.309-.231 1.687-.693.378-.462.567-1.141.567-2.037 0-.336-.04-.665-.119-.987a2.608 2.608 0 00-.392-.875 2.066 2.066 0 00-.7-.63c-.285-.159-.632-.238-1.043-.238-.747 0-1.307.229-1.68.686-.373.457-.56 1.139-.56 2.044zm6.874-3.5h1.666v-1.386l1.092-.308v1.694h3.738v.938h-3.738v3.304c0 .681.166 1.185.497 1.512.331.327.805.49 1.421.49.42 0 .786-.08 1.099-.238.313-.159.595-.331.847-.518l.364.826a3.938 3.938 0 01-1.169.63 4.182 4.182 0 01-1.393.238 3.41 3.41 0 01-1.057-.161 2.426 2.426 0 01-.875-.497 2.38 2.38 0 01-.602-.861c-.15-.35-.224-.768-.224-1.253v-3.472h-1.666v-.938zm8.764 3.5c0-1.13.294-2.023.882-2.681.588-.658 1.428-.987 2.52-.987.588 0 1.094.096 1.519.287.425.191.777.45 1.057.777.28.327.488.714.623 1.162.135.448.203.929.203 1.442 0 .56-.075 1.066-.224 1.519-.15.453-.369.838-.658 1.155-.29.317-.646.562-1.071.735a3.82 3.82 0 01-1.449.259c-.579 0-1.083-.096-1.512-.287a2.967 2.967 0 01-1.064-.777 3.168 3.168 0 01-.623-1.162 4.963 4.963 0 01-.203-1.442zm1.162 0c0 .327.04.653.119.98.08.327.208.62.385.882.177.261.408.471.693.63.285.159.632.238 1.043.238.747 0 1.309-.231 1.687-.693.378-.462.567-1.141.567-2.037 0-.336-.04-.665-.119-.987a2.608 2.608 0 00-.392-.875 2.066 2.066 0 00-.7-.63c-.285-.159-.632-.238-1.043-.238-.747 0-1.307.229-1.68.686-.373.457-.56 1.139-.56 2.044zm7.224 5.39h6.832v.98h-6.832v-.98zm8.4 0h6.832v.98h-6.832v-.98z"/><path id="." fill="#999" d="M153.342 179.142c0-.299.084-.53.252-.693.168-.163.392-.245.672-.245.299 0 .532.082.7.245.168.163.252.394.252.693 0 .27-.084.495-.252.672-.168.177-.401.266-.7.266-.28 0-.504-.089-.672-.266a.938.938 0 01-.252-.672z"/><path id="eat" fill="#000" d="M165.886 179.03c-.168.15-.366.29-.595.42a4.39 4.39 0 01-.749.336c-.27.093-.553.166-.847.217-.294.051-.59.077-.889.077-.56 0-1.055-.086-1.484-.259a2.858 2.858 0 01-1.078-.742 3.234 3.234 0 01-.658-1.155 4.767 4.767 0 01-.224-1.512c0-.588.082-1.11.245-1.568.163-.457.399-.84.707-1.148a3.08 3.08 0 011.12-.707 4.187 4.187 0 011.47-.245c.392 0 .78.051 1.162.154.383.103.721.296 1.015.581.294.285.52.677.679 1.176.159.5.215 1.146.168 1.939h-5.418c0 .84.226 1.468.679 1.883.453.415 1.057.623 1.813.623.252 0 .502-.03.749-.091.247-.06.483-.133.707-.217a3.72 3.72 0 00.595-.28c.173-.103.306-.196.399-.28l.434.798zm-2.954-5.362c-.308 0-.6.033-.875.098a1.995 1.995 0 00-.728.329c-.21.154-.383.355-.518.602s-.222.553-.259.917h4.354c-.047-.616-.245-1.094-.595-1.435-.35-.34-.81-.511-1.379-.511zm5.46-.21a4.447 4.447 0 011.358-.504 7.423 7.423 0 011.484-.154c.476 0 .866.075 1.169.224.303.15.541.343.714.581.173.238.29.509.35.812.06.303.091.609.091.917 0 .355-.01.733-.028 1.134-.019.401-.033.803-.042 1.204 0 .467.028.91.084 1.33h.938v.91h-1.862l-.126-1.05h-.07c-.056.084-.14.191-.252.322-.112.13-.259.259-.441.385a2.749 2.749 0 01-1.589.469c-.69 0-1.237-.177-1.638-.532-.401-.355-.602-.84-.602-1.456 0-.476.105-.873.315-1.19.21-.317.511-.56.903-.728.392-.168.866-.266 1.421-.294a9.544 9.544 0 011.869.112c.047-.43.054-.786.021-1.071-.033-.285-.107-.511-.224-.679a.938.938 0 00-.49-.357 2.482 2.482 0 00-.777-.105c-.42 0-.821.058-1.204.175-.383.117-.723.236-1.022.357l-.35-.812zm2.058 5.642c.261 0 .504-.042.728-.126a2.22 2.22 0 00.588-.322 2.133 2.133 0 00.672-.868v-.98a7.92 7.92 0 00-1.344-.126c-.41 0-.765.044-1.064.133-.299.089-.532.226-.7.413-.168.187-.252.43-.252.728 0 .308.105.576.315.805.21.229.562.343 1.057.343zm5.264-6.188h1.666v-1.386l1.092-.308v1.694h3.738v.938h-3.738v3.304c0 .681.166 1.185.497 1.512.331.327.805.49 1.421.49.42 0 .786-.08 1.099-.238.313-.159.595-.331.847-.518l.364.826a3.938 3.938 0 01-1.169.63 4.182 4.182 0 01-1.393.238 3.41 3.41 0 01-1.057-.161 2.426 2.426 0 01-.875-.497 2.38 2.38 0 01-.602-.861c-.15-.35-.224-.768-.224-1.253v-3.472h-1.666v-.938z"/><path id="." fill="#999" d="M186.942 179.142c0-.299.084-.53.252-.693.168-.163.392-.245.672-.245.299 0 .532.082.7.245.168.163.252.394.252.693 0 .27-.084.495-.252.672-.168.177-.401.266-.7.266-.28 0-.504-.089-.672-.266a.938.938 0 01-.252-.672z"/><path id="call" fill="#000" d="M198.226 173.99a5.531 5.531 0 00-.693-.189 3.61 3.61 0 00-.735-.077c-.915 0-1.596.215-2.044.644-.448.43-.672 1.11-.672 2.044 0 .41.065.777.196 1.099.13.322.317.595.56.819.243.224.534.397.875.518.34.121.716.182 1.127.182.439 0 .866-.075 1.281-.224.415-.15.763-.345 1.043-.588l.49.812c-.13.112-.294.229-.49.35a4.837 4.837 0 01-1.533.602 4.962 4.962 0 01-1.015.098c-.607 0-1.141-.086-1.603-.259a3.045 3.045 0 01-1.155-.742 3.176 3.176 0 01-.7-1.162 4.525 4.525 0 01-.238-1.505c0-.588.082-1.11.245-1.568.163-.457.399-.84.707-1.148a3.08 3.08 0 011.12-.707 4.187 4.187 0 011.47-.245c.69 0 1.253.06 1.687.182.434.121.8.257 1.099.406l-.014.042v1.946h-1.008v-1.33zm3.766-.532a4.447 4.447 0 011.358-.504 7.423 7.423 0 011.484-.154c.476 0 .866.075 1.169.224.303.15.541.343.714.581.173.238.29.509.35.812.06.303.091.609.091.917 0 .355-.01.733-.028 1.134-.019.401-.033.803-.042 1.204 0 .467.028.91.084 1.33h.938v.91h-1.862l-.126-1.05h-.07c-.056.084-.14.191-.252.322-.112.13-.259.259-.441.385a2.749 2.749 0 01-1.589.469c-.69 0-1.237-.177-1.638-.532-.401-.355-.602-.84-.602-1.456 0-.476.105-.873.315-1.19.21-.317.511-.56.903-.728.392-.168.866-.266 1.421-.294a9.544 9.544 0 011.869.112c.047-.43.054-.786.021-1.071-.033-.285-.107-.511-.224-.679a.938.938 0 00-.49-.357 2.482 2.482 0 00-.777-.105c-.42 0-.821.058-1.204.175-.383.117-.723.236-1.022.357l-.35-.812zm2.058 5.642c.261 0 .504-.042.728-.126a2.22 2.22 0 00.588-.322 2.133 2.133 0 00.672-.868v-.98a7.92 7.92 0 00-1.344-.126c-.41 0-.765.044-1.064.133-.299.089-.532.226-.7.413-.168.187-.252.43-.252.728 0 .308.105.576.315.805.21.229.562.343 1.057.343zm6.496-8.988h2.324v7.448c0 .57.096.97.287 1.204.191.233.474.35.847.35.261 0 .511-.047.749-.14.238-.093.502-.252.791-.476l.504.77c-.15.13-.313.247-.49.35a3.638 3.638 0 01-1.106.42 2.963 2.963 0 01-1.442-.077 1.579 1.579 0 01-.679-.427 1.897 1.897 0 01-.413-.777c-.093-.322-.14-.721-.14-1.197v-6.51h-1.232v-.938zm8.4 0h2.324v7.448c0 .57.096.97.287 1.204.191.233.474.35.847.35.261 0 .511-.047.749-.14.238-.093.502-.252.791-.476l.504.77c-.15.13-.313.247-.49.35a3.638 3.638 0 01-1.106.42 2.963 2.963 0 01-1.442-.077 1.579 1.579 0 01-.679-.427 1.897 1.897 0 01-.413-.777c-.093-.322-.14-.721-.14-1.197v-6.51h-1.232v-.938z"/><path id="(" fill="#999" d="M231.728 182.88a6.964 6.964 0 01-1.757-.707 5.036 5.036 0 01-1.428-1.225c-.406-.504-.728-1.12-.966-1.848s-.357-1.591-.357-2.59c0-.99.121-1.855.364-2.597s.57-1.372.98-1.89c.41-.518.889-.933 1.435-1.246a6.005 6.005 0 011.729-.665l.35.882a7.086 7.086 0 00-1.512.623 3.928 3.928 0 00-1.183 1.022c-.331.425-.588.952-.77 1.582-.182.63-.273 1.393-.273 2.289 0 .905.11 1.678.329 2.317.22.64.509 1.171.868 1.596.36.425.76.756 1.204.994.443.238.889.404 1.337.497l-.35.966z"/><path id="this" fill="#07A" d="M234.514 172.912h1.666v-1.386l1.092-.308v1.694h3.738v.938h-3.738v3.304c0 .681.166 1.185.497 1.512.331.327.805.49 1.421.49.42 0 .786-.08 1.099-.238.313-.159.595-.331.847-.518l.364.826a3.938 3.938 0 01-1.169.63 4.182 4.182 0 01-1.393.238 3.41 3.41 0 01-1.057-.161 2.426 2.426 0 01-.875-.497 2.38 2.38 0 01-.602-.861c-.15-.35-.224-.768-.224-1.253v-3.472h-1.666v-.938zm8.022-2.8h2.184v3.668h.07c.29-.327.625-.581 1.008-.763.383-.182.859-.273 1.428-.273.448 0 .838.047 1.169.14.331.093.602.257.812.49.21.233.366.553.469.959.103.406.154.922.154 1.547v4.032h-1.092v-3.822c0-.401-.023-.751-.07-1.05a1.829 1.829 0 00-.273-.749c-.135-.2-.32-.352-.553-.455-.233-.103-.532-.154-.896-.154-.252 0-.5.044-.742.133-.243.089-.464.21-.665.364-.2.154-.373.34-.518.56-.145.22-.245.46-.301.721v4.452h-1.078v-8.862h-1.106v-.938zm9.814 9.8v-.938h2.436v-5.124h-2.436v-.938h3.556v6.062h2.38v.938h-5.936zm2.058-8.988c0-.252.084-.469.252-.651a.838.838 0 01.644-.273c.27 0 .497.091.679.273a.889.889 0 01.273.651.806.806 0 01-.273.616.963.963 0 01-.679.252.872.872 0 01-.644-.252.838.838 0 01-.252-.616zm11.004 7.098a.796.796 0 00-.35-.693 2.872 2.872 0 00-.868-.392 16.056 16.056 0 00-1.127-.273 6.502 6.502 0 01-1.127-.336 2.525 2.525 0 01-.868-.567c-.233-.238-.35-.572-.35-1.001 0-.355.077-.658.231-.91a1.94 1.94 0 01.609-.623c.252-.163.546-.285.882-.364.336-.08.686-.119 1.05-.119.653 0 1.216.082 1.687.245.471.163.847.334 1.127.511l-.448.882a11.79 11.79 0 00-1.001-.483c-.36-.154-.81-.231-1.351-.231-.205 0-.408.021-.609.063-.2.042-.383.105-.546.189a1.088 1.088 0 00-.392.329.825.825 0 00-.147.497c0 .243.117.43.35.56.233.13.523.24.868.329.345.089.721.173 1.127.252.406.08.782.194 1.127.343.345.15.635.35.868.602.233.252.35.593.35 1.022 0 .644-.254 1.176-.763 1.596-.509.42-1.272.63-2.289.63-.308 0-.611-.028-.91-.084a5.52 5.52 0 01-.84-.224 5.054 5.054 0 01-.714-.315 3.002 3.002 0 01-.532-.357l.56-.91c.112.112.261.226.448.343a4.229 4.229 0 001.337.539 3.76 3.76 0 001.484.021c.22-.042.413-.107.581-.196a1.08 1.08 0 00.399-.35.914.914 0 00.147-.525z"/><path id=");" fill="#999" d="M269.682 181.914a4.965 4.965 0 001.337-.497 4.15 4.15 0 001.204-.994c.36-.425.649-.957.868-1.596.22-.64.329-1.412.329-2.317 0-.896-.091-1.659-.273-2.289-.182-.63-.439-1.157-.77-1.582a3.928 3.928 0 00-1.183-1.022 7.086 7.086 0 00-1.512-.623l.35-.882c.607.13 1.183.352 1.729.665a4.984 4.984 0 011.435 1.246c.41.518.737 1.148.98 1.89s.364 1.608.364 2.597c0 .999-.119 1.862-.357 2.59-.238.728-.56 1.344-.966 1.848a5.036 5.036 0 01-1.428 1.225 6.964 6.964 0 01-1.757.707l-.35-.966zm9.604-2.772c0-.28.091-.506.273-.679.182-.173.418-.259.707-.259.355 0 .63.124.826.371.196.247.294.595.294 1.043a2.36 2.36 0 01-.637 1.659 2.465 2.465 0 01-.588.462c-.21.117-.404.203-.581.259l-.35-.546c.336-.13.625-.317.868-.56.243-.243.364-.537.364-.882-.13.028-.233.042-.308.042-.27 0-.483-.077-.637-.231-.154-.154-.231-.38-.231-.679zm.126-5.502c0-.299.084-.53.252-.693.168-.163.392-.245.672-.245.299 0 .532.082.7.245.168.163.252.394.252.693 0 .27-.084.495-.252.672-.168.177-.401.266-.7.266-.28 0-.504-.089-.672-.266a.938.938 0 01-.252-.672z"/><path id="(**)" fill="#ED6B47" d="M298.928 182.88a6.964 6.964 0 01-1.757-.707 5.036 5.036 0 01-1.428-1.225c-.406-.504-.728-1.12-.966-1.848s-.357-1.591-.357-2.59c0-.99.121-1.855.364-2.597s.57-1.372.98-1.89c.41-.518.889-.933 1.435-1.246a6.005 6.005 0 011.729-.665l.35.882a7.086 7.086 0 00-1.512.623 3.928 3.928 0 00-1.183 1.022c-.331.425-.588.952-.77 1.582-.182.63-.273 1.393-.273 2.289 0 .905.11 1.678.329 2.317.22.64.509 1.171.868 1.596.36.425.76.756 1.204.994.443.238.889.404 1.337.497l-.35.966zm5.334-12.964l1.246 2.45 1.204-2.464.966.518-1.694 2.366 2.842-.21v1.134l-2.758-.224 1.624 2.254-.938.546-1.302-2.506-1.232 2.506-1.008-.546 1.694-2.254-2.772.224v-1.134l2.772.238-1.61-2.352.966-.546zm8.4 0l1.246 2.45 1.204-2.464.966.518-1.694 2.366 2.842-.21v1.134l-2.758-.224 1.624 2.254-.938.546-1.302-2.506-1.232 2.506-1.008-.546 1.694-2.254-2.772.224v-1.134l2.772.238-1.61-2.352.966-.546zm7.42 11.998a4.965 4.965 0 001.337-.497 4.15 4.15 0 001.204-.994c.36-.425.649-.957.868-1.596.22-.64.329-1.412.329-2.317 0-.896-.091-1.659-.273-2.289-.182-.63-.439-1.157-.77-1.582a3.928 3.928 0 00-1.183-1.022 7.086 7.086 0 00-1.512-.623l.35-.882c.607.13 1.183.352 1.729.665a4.984 4.984 0 011.435 1.246c.41.518.737 1.148.98 1.89s.364 1.608.364 2.597c0 .999-.119 1.862-.357 2.59-.238.728-.56 1.344-.966 1.848a5.036 5.036 0 01-1.428 1.225 6.964 6.964 0 01-1.757.707l-.35-.966z"/><path id="}};" fill="#999" d="M21 197.836c0 .756-.198 1.328-.595 1.715-.397.387-.922.581-1.575.581H16.8v-.98h1.526c.57 0 .975-.135 1.218-.406.243-.27.364-.69.364-1.26v-1.344c0-.364.07-.695.21-.994.14-.299.308-.558.504-.777.196-.22.397-.392.602-.518.205-.126.373-.198.504-.217v-.084c-.13-.019-.299-.086-.504-.203a2.7 2.7 0 01-1.106-1.225c-.14-.299-.21-.64-.21-1.022v-1.358c0-.55-.114-.966-.343-1.246-.229-.28-.637-.42-1.225-.42H16.8v-.98h2.03c.317 0 .609.058.875.175.266.117.495.278.686.483.191.205.34.448.448.728.107.28.161.588.161.924v1.428c0 .43.068.789.203 1.078.135.29.303.525.504.707.2.182.415.313.644.392.229.08.432.119.609.119v.98c-.177 0-.38.047-.609.14a2.011 2.011 0 00-.644.434 2.44 2.44 0 00-.504.735c-.135.294-.203.642-.203 1.043v1.372zm-16.8 17c0 .756-.198 1.328-.595 1.715-.397.387-.922.581-1.575.581H0v-.98h1.526c.57 0 .975-.135 1.218-.406.243-.27.364-.69.364-1.26v-1.344c0-.364.07-.695.21-.994.14-.299.308-.558.504-.777.196-.22.397-.392.602-.518.205-.126.373-.198.504-.217v-.084c-.13-.019-.299-.086-.504-.203a2.7 2.7 0 01-1.106-1.225c-.14-.299-.21-.64-.21-1.022v-1.358c0-.55-.114-.966-.343-1.246-.229-.28-.637-.42-1.225-.42H0v-.98h2.03c.317 0 .609.058.875.175.266.117.495.278.686.483.191.205.34.448.448.728.107.28.161.588.161.924v1.428c0 .43.068.789.203 1.078.135.29.303.525.504.707.2.182.415.313.644.392.229.08.432.119.609.119v.98c-.177 0-.38.047-.609.14a2.011 2.011 0 00-.644.434 2.44 2.44 0 00-.504.735c-.135.294-.203.642-.203 1.043v1.372zm6.286-1.694c0-.28.091-.506.273-.679.182-.173.418-.259.707-.259.355 0 .63.124.826.371.196.247.294.595.294 1.043a2.36 2.36 0 01-.637 1.659 2.465 2.465 0 01-.588.462c-.21.117-.404.203-.581.259l-.35-.546c.336-.13.625-.317.868-.56.243-.243.364-.537.364-.882-.13.028-.233.042-.308.042-.27 0-.483-.077-.637-.231-.154-.154-.231-.38-.231-.679zm.126-5.502c0-.299.084-.53.252-.693.168-.163.392-.245.672-.245.299 0 .532.082.7.245.168.163.252.394.252.693 0 .27-.084.495-.252.672-.168.177-.401.266-.7.266-.28 0-.504-.089-.672-.266a.938.938 0 01-.252-.672z"/></g><text id="rabbit" fill="#D0021B" font-family="PTMono-Regular, PT Mono" font-size="14" font-weight="normal"><tspan x="58" y="212">rabbit</tspan></text><text id="longEar" fill="#D0021B" font-family="PTMono-Regular, PT Mono" font-size="14" font-weight="normal"><tspan x="215" y="212">longEar</tspan></text><text id="rabbit-copy" fill="#D0021B" font-family="PTMono-Regular, PT Mono" font-size="14" font-weight="normal"><tspan x="58" y="91">rabbit</tspan></text><text id="longEar-Copy" fill="#D0021B" font-family="PTMono-Regular, PT Mono" font-size="14" font-weight="normal"><tspan x="215" y="91">longEar</tspan></text><path id="Line" fill="#EE6B47" fill-rule="nonzero" d="M80.5 106.5l7 14h-6v75h-2v-75h-6l7-14z" opacity=".7"/><path id="Line-Copy" fill="#EE6B47" fill-rule="nonzero" d="M239.5 106.5l7 14h-6v75h-2v-75h-6l7-14z" opacity=".7"/><path id="Fill-91" fill="#EE6B47" d="M77.34 60.719l13.86-8.94-13.86-8.94v5.863c-6.387-.865-12.473-6.64-12.473-13.621 0-7.577 6.964-15.668 14.133-15.668 7.168 0 14.97 8.091 14.97 15.668H98C98 24.008 89.476 15 79 15c-10.477 0-19 9.008-19 20.08 0 10.48 7.639 19.105 17.34 19.998v5.641z" opacity=".7" transform="rotate(58 79 37.86)"/><path id="Fill-91-Copy" fill="#EE6B47" d="M235.34 60.719l13.86-8.94-13.86-8.94v5.863c-6.387-.865-12.473-6.64-12.473-13.621 0-7.577 6.964-15.668 14.133-15.668 7.168 0 14.97 8.091 14.97 15.668H256C256 24.008 247.476 15 237 15c-10.477 0-19 9.008-19 20.08 0 10.48 7.639 19.105 17.34 19.998v5.641z" opacity=".7" transform="rotate(58 237 37.86)"/></g></g></svg>