<svg xmlns="http://www.w3.org/2000/svg" width="409" height="203" viewBox="0 0 409 203"><defs><style>@import url(https://fonts.googleapis.com/css?family=Open+Sans:bold,italic,bolditalic%7CPT+Mono);@font-face{font-family:&apos;PT Mono&apos;;font-weight:700;font-style:normal;src:local(&apos;PT MonoBold&apos;),url(/font/PTMonoBold.woff2) format(&apos;woff2&apos;),url(/font/PTMonoBold.woff) format(&apos;woff&apos;),url(/font/PTMonoBold.ttf) format(&apos;truetype&apos;)}</style></defs><g id="dom" fill="none" fill-rule="evenodd" stroke="none" stroke-width="1"><g id="insert-adjacent.svg"><g id="&lt;ol&gt;-&lt;li&gt;0&lt;/li&gt;-&lt;li&gt;" fill-rule="nonzero" transform="translate(18.63 60.2)"><path id="&lt;" fill="#7E7C7B" d="M0 5.53v-.406l6.594-4.018.532.868-5.558 3.29L7.14 8.498l-.532.84z"/><path id="ol" fill="#A7333A" d="M8.568 6.3c0-1.13.294-2.023.882-2.681.588-.658 1.428-.987 2.52-.987.588 0 1.094.096 1.519.287.425.191.777.45 1.057.777.28.327.488.714.623 1.162.135.448.203.929.203 1.442 0 .56-.075 1.066-.224 1.519-.15.453-.369.838-.658 1.155-.29.317-.646.562-1.071.735a3.82 3.82 0 01-1.449.259c-.579 0-1.083-.096-1.512-.287a2.967 2.967 0 01-1.064-.777 3.168 3.168 0 01-.623-1.162A4.963 4.963 0 018.568 6.3zm1.162 0c0 .327.04.653.119.98.08.327.208.62.385.882.177.261.408.471.693.63.285.159.632.238 1.043.238.747 0 1.309-.231 1.687-.693.378-.462.567-1.141.567-2.037 0-.336-.04-.665-.119-.987a2.608 2.608 0 00-.392-.875 2.066 2.066 0 00-.7-.63c-.285-.159-.632-.238-1.043-.238-.747 0-1.307.229-1.68.686-.373.457-.56 1.139-.56 2.044zM17.836 0h2.324v7.448c0 .57.096.97.287 1.204.191.233.474.35.847.35.261 0 .511-.047.749-.14.238-.093.502-.252.791-.476l.504.77c-.15.13-.313.247-.49.35a3.638 3.638 0 01-1.106.42 2.963 2.963 0 01-1.442-.077 1.579 1.579 0 01-.679-.427 1.897 1.897 0 01-.413-.777c-.093-.322-.14-.721-.14-1.197V.938h-1.232V0z"/><path id="&gt;&lt;" fill="#7E7C7B" d="M25.732 9.338l-.532-.84 5.572-3.234-5.558-3.29.532-.868 6.594 4.018v.406l-6.608 3.808zM16.8 25.53v-.406l6.594-4.018.532.868-5.558 3.29 5.572 3.234-.532.84L16.8 25.53z"/><path id="li" fill="#A7333A" d="M26.236 20h2.324v7.448c0 .57.096.97.287 1.204.191.233.474.35.847.35.261 0 .511-.047.749-.14.238-.093.502-.252.791-.476l.504.77c-.15.13-.313.247-.49.35a3.638 3.638 0 01-1.106.42 2.963 2.963 0 01-1.442-.077 1.579 1.579 0 01-.679-.427 1.897 1.897 0 01-.413-.777c-.093-.322-.14-.721-.14-1.197v-6.51h-1.232V20zm8.204 9.8v-.938h2.436v-5.124H34.44V22.8h3.556v6.062h2.38v.938H34.44zm2.058-8.988c0-.252.084-.469.252-.651a.838.838 0 01.644-.273c.27 0 .497.091.679.273a.889.889 0 01.273.651.806.806 0 01-.273.616.963.963 0 01-.679.252.872.872 0 01-.644-.252.838.838 0 01-.252-.616z"/><path id="&gt;" fill="#7E7C7B" d="M42.532 29.338l-.532-.84 5.572-3.234-5.558-3.29.532-.868 6.594 4.018v.406z"/><path id="0" fill="#181717" d="M50.54 24.9c0-.793.07-1.505.21-2.135.14-.63.35-1.162.63-1.596.28-.434.635-.765 1.064-.994.43-.229.938-.343 1.526-.343.625 0 1.155.112 1.589.336.434.224.786.55 1.057.98.27.43.467.959.588 1.589.121.63.182 1.351.182 2.163a9.88 9.88 0 01-.21 2.135c-.14.63-.35 1.162-.63 1.596-.28.434-.635.765-1.064.994-.43.229-.938.343-1.526.343-.616 0-1.141-.124-1.575-.371a2.956 2.956 0 01-1.064-1.043c-.275-.448-.474-.982-.595-1.603a10.713 10.713 0 01-.182-2.051zm5.698 0c0-.495-.028-.966-.084-1.414l-4.158 3.794c.159.532.397.957.714 1.274.317.317.733.476 1.246.476.821 0 1.407-.34 1.757-1.022.35-.681.525-1.717.525-3.108zm-4.536 0c0 .233.007.457.021.672.014.215.03.425.049.63l4.172-3.78c-.159-.504-.394-.905-.707-1.204-.313-.299-.735-.448-1.267-.448-.83 0-1.416.343-1.757 1.029-.34.686-.511 1.72-.511 3.101z"/><path id="&lt;/" fill="#7E7C7B" d="M58.8 25.53v-.406l6.594-4.018.532.868-5.558 3.29 5.572 3.234-.532.84L58.8 25.53zm14.084-5.698l.882.392-5.11 11.536-.882-.392 5.11-11.536z"/><path id="li" fill="#A7333A" d="M76.636 20h2.324v7.448c0 .57.096.97.287 1.204.191.233.474.35.847.35.261 0 .511-.047.749-.14.238-.093.502-.252.791-.476l.504.77c-.15.13-.313.247-.49.35a3.638 3.638 0 01-1.106.42 2.963 2.963 0 01-1.442-.077 1.579 1.579 0 01-.679-.427 1.897 1.897 0 01-.413-.777c-.093-.322-.14-.721-.14-1.197v-6.51h-1.232V20zm8.204 9.8v-.938h2.436v-5.124H84.84V22.8h3.556v6.062h2.38v.938H84.84zm2.058-8.988c0-.252.084-.469.252-.651a.838.838 0 01.644-.273c.27 0 .497.091.679.273a.889.889 0 01.273.651.806.806 0 01-.273.616.963.963 0 01-.679.252.872.872 0 01-.644-.252.838.838 0 01-.252-.616z"/><path id="&gt;&lt;" fill="#7E7C7B" d="M92.932 29.338l-.532-.84 5.572-3.234-5.558-3.29.532-.868 6.594 4.018v.406l-6.608 3.808zM16.8 45.53v-.406l6.594-4.018.532.868-5.558 3.29 5.572 3.234-.532.84L16.8 45.53z"/><path id="li" fill="#A7333A" d="M26.236 40h2.324v7.448c0 .57.096.97.287 1.204.191.233.474.35.847.35.261 0 .511-.047.749-.14.238-.093.502-.252.791-.476l.504.77c-.15.13-.313.247-.49.35a3.638 3.638 0 01-1.106.42 2.963 2.963 0 01-1.442-.077 1.579 1.579 0 01-.679-.427 1.897 1.897 0 01-.413-.777c-.093-.322-.14-.721-.14-1.197v-6.51h-1.232V40zm8.204 9.8v-.938h2.436v-5.124H34.44V42.8h3.556v6.062h2.38v.938H34.44zm2.058-8.988c0-.252.084-.469.252-.651a.838.838 0 01.644-.273c.27 0 .497.091.679.273a.889.889 0 01.273.651.806.806 0 01-.273.616.963.963 0 01-.679.252.872.872 0 01-.644-.252.838.838 0 01-.252-.616z"/><path id="&gt;" fill="#7E7C7B" d="M42.532 49.338l-.532-.84 5.572-3.234-5.558-3.29.532-.868 6.594 4.018v.406z"/><path id="1" fill="#181717" d="M51.548 48.792h2.198v-7.364l-2.24 1.568-.546-.798L54.04 40h.784v8.792h2.156V49.8h-5.432z"/><path id="&lt;/" fill="#7E7C7B" d="M58.8 45.53v-.406l6.594-4.018.532.868-5.558 3.29 5.572 3.234-.532.84L58.8 45.53zm14.084-5.698l.882.392-5.11 11.536-.882-.392 5.11-11.536z"/><path id="li" fill="#A7333A" d="M76.636 40h2.324v7.448c0 .57.096.97.287 1.204.191.233.474.35.847.35.261 0 .511-.047.749-.14.238-.093.502-.252.791-.476l.504.77c-.15.13-.313.247-.49.35a3.638 3.638 0 01-1.106.42 2.963 2.963 0 01-1.442-.077 1.579 1.579 0 01-.679-.427 1.897 1.897 0 01-.413-.777c-.093-.322-.14-.721-.14-1.197v-6.51h-1.232V40zm8.204 9.8v-.938h2.436v-5.124H84.84V42.8h3.556v6.062h2.38v.938H84.84zm2.058-8.988c0-.252.084-.469.252-.651a.838.838 0 01.644-.273c.27 0 .497.091.679.273a.889.889 0 01.273.651.806.806 0 01-.273.616.963.963 0 01-.679.252.872.872 0 01-.644-.252.838.838 0 01-.252-.616z"/><path id="&gt;&lt;" fill="#7E7C7B" d="M92.932 49.338l-.532-.84 5.572-3.234-5.558-3.29.532-.868 6.594 4.018v.406l-6.608 3.808zM16.8 65.53v-.406l6.594-4.018.532.868-5.558 3.29 5.572 3.234-.532.84L16.8 65.53z"/><path id="li" fill="#A7333A" d="M26.236 60h2.324v7.448c0 .57.096.97.287 1.204.191.233.474.35.847.35.261 0 .511-.047.749-.14.238-.093.502-.252.791-.476l.504.77c-.15.13-.313.247-.49.35a3.638 3.638 0 01-1.106.42 2.963 2.963 0 01-1.442-.077 1.579 1.579 0 01-.679-.427 1.897 1.897 0 01-.413-.777c-.093-.322-.14-.721-.14-1.197v-6.51h-1.232V60zm8.204 9.8v-.938h2.436v-5.124H34.44V62.8h3.556v6.062h2.38v.938H34.44zm2.058-8.988c0-.252.084-.469.252-.651a.838.838 0 01.644-.273c.27 0 .497.091.679.273a.889.889 0 01.273.651.806.806 0 01-.273.616.963.963 0 01-.679.252.872.872 0 01-.644-.252.838.838 0 01-.252-.616z"/><path id="&gt;" fill="#7E7C7B" d="M42.532 69.338l-.532-.84 5.572-3.234-5.558-3.29.532-.868 6.594 4.018v.406z"/><path id="2" fill="#181717" d="M56.77 62.478c0 .859-.406 1.815-1.218 2.87-.812 1.055-1.946 2.203-3.402 3.444h4.928V69.8h-6.216v-1.008c.177-.168.42-.387.728-.658.308-.27.64-.572.994-.903a29.01 29.01 0 001.085-1.071c.369-.383.702-.775 1.001-1.176.299-.401.541-.803.728-1.204a2.75 2.75 0 00.28-1.162c0-.56-.147-1.001-.441-1.323-.294-.322-.735-.483-1.323-.483-.504 0-.929.056-1.274.168a3.101 3.101 0 00-.938.49l-.476-.77c.42-.299.866-.518 1.337-.658s.987-.21 1.547-.21c.877 0 1.54.238 1.988.714.448.476.672 1.12.672 1.932z"/><path id="&lt;/" fill="#7E7C7B" d="M58.8 65.53v-.406l6.594-4.018.532.868-5.558 3.29 5.572 3.234-.532.84L58.8 65.53zm14.084-5.698l.882.392-5.11 11.536-.882-.392 5.11-11.536z"/><path id="li" fill="#A7333A" d="M76.636 60h2.324v7.448c0 .57.096.97.287 1.204.191.233.474.35.847.35.261 0 .511-.047.749-.14.238-.093.502-.252.791-.476l.504.77c-.15.13-.313.247-.49.35a3.638 3.638 0 01-1.106.42 2.963 2.963 0 01-1.442-.077 1.579 1.579 0 01-.679-.427 1.897 1.897 0 01-.413-.777c-.093-.322-.14-.721-.14-1.197v-6.51h-1.232V60zm8.204 9.8v-.938h2.436v-5.124H84.84V62.8h3.556v6.062h2.38v.938H84.84zm2.058-8.988c0-.252.084-.469.252-.651a.838.838 0 01.644-.273c.27 0 .497.091.679.273a.889.889 0 01.273.651.806.806 0 01-.273.616.963.963 0 01-.679.252.872.872 0 01-.644-.252.838.838 0 01-.252-.616z"/><path id="&gt;&lt;/" fill="#7E7C7B" d="M92.932 69.338l-.532-.84 5.572-3.234-5.558-3.29.532-.868 6.594 4.018v.406l-6.608 3.808zM0 85.53v-.406l6.594-4.018.532.868-5.558 3.29 5.572 3.234-.532.84L0 85.53zm14.084-5.698l.882.392-5.11 11.536-.882-.392 5.11-11.536z"/><path id="ol" fill="#A7333A" d="M16.968 86.3c0-1.13.294-2.023.882-2.681.588-.658 1.428-.987 2.52-.987.588 0 1.094.096 1.519.287.425.191.777.45 1.057.777.28.327.488.714.623 1.162.135.448.203.929.203 1.442 0 .56-.075 1.066-.224 1.519-.15.453-.369.838-.658 1.155-.29.317-.646.562-1.071.735a3.82 3.82 0 01-1.449.259c-.579 0-1.083-.096-1.512-.287a2.967 2.967 0 01-1.064-.777 3.168 3.168 0 01-.623-1.162 4.963 4.963 0 01-.203-1.442zm1.162 0c0 .327.04.653.119.98.08.327.208.62.385.882.177.261.408.471.693.63.285.159.632.238 1.043.238.747 0 1.309-.231 1.687-.693.378-.462.567-1.141.567-2.037 0-.336-.04-.665-.119-.987a2.608 2.608 0 00-.392-.875 2.066 2.066 0 00-.7-.63c-.285-.159-.632-.238-1.043-.238-.747 0-1.307.229-1.68.686-.373.457-.56 1.139-.56 2.044zm8.106-6.3h2.324v7.448c0 .57.096.97.287 1.204.191.233.474.35.847.35.261 0 .511-.047.749-.14.238-.093.502-.252.791-.476l.504.77c-.15.13-.313.247-.49.35a3.638 3.638 0 01-1.106.42 2.963 2.963 0 01-1.442-.077 1.579 1.579 0 01-.679-.427 1.897 1.897 0 01-.413-.777c-.093-.322-.14-.721-.14-1.197v-6.51h-1.232V80z"/><path id="&gt;" fill="#7E7C7B" d="M34.132 89.338l-.532-.84 5.572-3.234-5.558-3.29.532-.868 6.594 4.018v.406z"/></g><text id="ol.insertAdjacentHTM" fill="#643B0C" font-family="PTMono-Regular, PT Mono" font-size="14" font-weight="normal"><tspan x="156" y="112">ol.insertAdjacentHTML(*, html)</tspan></text><g id="Line-Copy-5-+-Line-Copy-4-+-Line-Copy-3" stroke="#C06334" stroke-linecap="square" stroke-width="3" transform="rotate(90 37 184.5)"><path id="Line-Copy-5" d="M.527.625S30.885-3.5 30.885 81.25s-15.179 94.723-15.179 94.723"/><path id="Line" d="M15 178v-17"/><path id="Line-Copy" d="M15 178l15-5"/></g><g id="Line-Copy-5-+-Line-Copy-4-+-Line-Copy-3-Copy-Copy" stroke="#C06334" stroke-linecap="square" stroke-width="3" transform="rotate(90 53.5 171.5)"><path id="Line-Copy-5" d="M.257.737s21.205 7.589 21.205 93.119v67.243"/><path id="Line" d="M21.409 162.661L14.5 150.5"/><path id="Line-Copy" d="M21.476 162.491L27.5 150.5"/></g><g id="Line-Copy-5-+-Line-Copy-4-+-Line-Copy-3-Copy-Copy-Copy" stroke="#C06334" stroke-linecap="square" stroke-width="3" transform="matrix(0 -1 -1 0 225 96)"><path id="Line-Copy-5" d="M.257.737s21.205 7.589 21.205 93.119v67.243"/><path id="Line" d="M21.409 162.661L14.5 150.5"/><path id="Line-Copy" d="M21.476 162.491L27.5 150.5"/></g><path id="Line-Copy-3" stroke="#C06334" stroke-linecap="square" stroke-width="3" d="M45.5 49.5l5-14"/><path id="Line-Copy-2" stroke="#C06334" stroke-linecap="square" stroke-width="3" d="M45.5 49.5h14"/><text id="afterend" fill="#C06334" font-family="PTMono-Regular, PT Mono" font-size="14" font-weight="normal"><tspan x="113" y="193">afterend</tspan></text><text id="beforeend" fill="#C06334" font-family="PTMono-Regular, PT Mono" font-size="14" font-weight="normal"><tspan x="113" y="156">beforeend</tspan></text><text id="afterbegin" fill="#C06334" font-family="PTMono-Regular, PT Mono" font-size="14" font-weight="normal"><tspan x="113" y="66">afterbegin</tspan></text><g id="Line-Copy-5-+-Line-Copy-4-+-Line-Copy-3-Copy" stroke="#C06334" stroke-linecap="square" stroke-width="3" transform="matrix(0 -1 -1 0 222.5 64.5)"><path id="Line-Copy-5" d="M.527.625S30.885-3.5 30.885 81.25s-15.179 94.723-15.179 94.723"/></g><text id="beforebegin" fill="#C06334" font-family="PTMono-Regular, PT Mono" font-size="14" font-weight="normal"><tspan x="111" y="26">beforebegin</tspan></text></g></g></svg>