<svg xmlns="http://www.w3.org/2000/svg" width="367" height="308" viewBox="0 0 367 308"><defs><style>@import url(https://fonts.googleapis.com/css?family=Open+Sans:bold,italic,bolditalic%7CPT+Mono);@font-face{font-family:&apos;PT Mono&apos;;font-weight:700;font-style:normal;src:local(&apos;PT MonoBold&apos;),url(/font/PTMonoBold.woff2) format(&apos;woff2&apos;),url(/font/PTMonoBold.woff) format(&apos;woff&apos;),url(/font/PTMonoBold.ttf) format(&apos;truetype&apos;)}</style></defs><g id="combined" fill="none" fill-rule="evenodd" stroke="none" stroke-width="1"><g id="windowObjects.svg"><path id="Rectangle-1" fill="#FFF9EB" stroke="#E8C48E" stroke-width="2" d="M136 10h78v28h-78z"/><text id="window" fill="#707175" font-family="PTMono-Regular, PT Mono" font-size="14" font-weight="normal"><tspan x="152" y="28">window</tspan></text><path id="Rectangle-2" fill="#F5F4D8" stroke="#CFCE95" stroke-width="2" d="M18 80h78v26H18z"/><path id="Rectangle-2" fill="#FCDFE1" stroke="#C74A6C" stroke-width="2" d="M255 118h83v26h-83z"/><path id="Rectangle-2" fill="#EDFCFD" stroke="#99C0C3" stroke-width="2" d="M110 270h132v26H110z"/><text id="document" fill="#727155" font-family="PTMono-Regular, PT Mono" font-size="14" font-weight="normal"><tspan x="26" y="97">document</tspan></text><path id="Rectangle-2" fill="#FCDFE1" stroke="#C74A6C" stroke-width="2" d="M255 80h83v26h-83z"/><text id="Object" fill="#924565" font-family="PTMono-Regular, PT Mono" font-size="14" font-weight="normal"><tspan x="271" y="97">Object</tspan></text><path id="Rectangle-2" fill="#EDFCFD" stroke="#99C0C3" stroke-width="2" d="M134 80h85v26h-85z"/><text id="navigator" fill="#366378" font-family="PTMono-Regular, PT Mono" font-size="14" font-weight="normal"><tspan x="138" y="97">navigator</tspan></text><path id="Rectangle-2" fill="#EDFCFD" stroke="#99C0C3" stroke-width="2" d="M134 118h85v26h-85z"/><text id="screen" fill="#366378" font-family="PTMono-Regular, PT Mono" font-size="14" font-weight="normal"><tspan x="151" y="135">screen</tspan></text><path id="Rectangle-2" fill="#EDFCFD" stroke="#99C0C3" stroke-width="2" d="M134 156h85v26h-85z"/><text id="location" fill="#366378" font-family="PTMono-Regular, PT Mono" font-size="14" font-weight="normal"><tspan x="142" y="173">location</tspan></text><path id="Rectangle-2" fill="#EDFCFD" stroke="#99C0C3" stroke-width="2" d="M134 194h85v26h-85z"/><text id="frames" fill="#366378" font-family="PTMono-Regular, PT Mono" font-size="14" font-weight="normal"><tspan x="151" y="211">frames</tspan></text><path id="Rectangle-2" fill="#EDFCFD" stroke="#99C0C3" stroke-width="2" d="M134 232h85v26h-85z"/><text id="history" fill="#366378" font-family="PTMono-Regular, PT Mono" font-size="14" font-weight="normal"><tspan x="147" y="249">history</tspan></text><text id="Array" fill="#924565" font-family="PTMono-Regular, PT Mono" font-size="14" font-weight="normal"><tspan x="275" y="135">Array</tspan></text><path id="Rectangle-3" fill="#FCDFE1" stroke="#C74A6C" stroke-width="2" d="M255 156h83v26h-83z"/><text id="Function" fill="#924565" font-family="PTMono-Regular, PT Mono" font-size="14" font-weight="normal"><tspan x="264" y="173">Function</tspan></text><text id="XMLHttpRequest" fill="#366378" font-family="PTMono-Regular, PT Mono" font-size="14" font-weight="normal"><tspan x="117" y="287">XMLHttpRequest</tspan></text><text id="BOM" fill="#99C0C3" font-family="PTMono-Regular, PT Mono" font-size="14" font-weight="normal"><tspan x="135" y="73">BOM</tspan></text><text id="JavaScript" fill="#C74A6C" font-family="PTMono-Regular, PT Mono" font-size="14" font-weight="normal"><tspan x="271" y="73">JavaScript</tspan></text><text id="DOM" fill="#CFCE95" font-family="PTMono-Regular, PT Mono" font-size="14" font-weight="normal"><tspan x="17" y="73">DOM</tspan></text><path id="Line" fill="#EE6B47" fill-rule="nonzero" d="M177.5 40.5v18h6l-7 14-7-14h6v-18h2z"/><path id="Line-2" fill="#EE6B47" fill-rule="nonzero" d="M132.75 40.108l1.142 1.642-.82.57-34.508 24.005 3.426 4.926L86.5 73.5l7.495-13.741 3.426 4.924 34.508-24.004.82-.571z"/><text id="…" fill="#727155" font-family="PTMono-Regular, PT Mono" font-size="24" font-weight="normal"><tspan x="50" y="122">…</tspan></text><text id="…-2" fill="#924565" font-family="PTMono-Regular, PT Mono" font-size="24" font-weight="normal"><tspan x="287" y="201">…</tspan></text><path id="Line" fill="#EE6B47" fill-rule="nonzero" d="M217.226 39.097l.827.562 38.443 26.152 3.376-4.96 7.638 13.663-15.513-2.087 3.374-4.962-38.443-26.152-.827-.563 1.125-1.653z"/></g></g></svg>