<svg xmlns="http://www.w3.org/2000/svg" width="488" height="150" viewBox="0 0 488 150"><defs><style>@import url(https://fonts.googleapis.com/css?family=Open+Sans:bold,italic,bolditalic%7CPT+Mono);@font-face{font-family:&apos;PT Mono&apos;;font-weight:700;font-style:normal;src:local(&apos;PT MonoBold&apos;),url(/font/PTMonoBold.woff2) format(&apos;woff2&apos;),url(/font/PTMonoBold.woff) format(&apos;woff&apos;),url(/font/PTMonoBold.ttf) format(&apos;truetype&apos;)}</style></defs><g id="combined" fill="none" fill-rule="evenodd" stroke="none" stroke-width="1"><g id="destructuring-complex.svg" fill-rule="nonzero"><g id="let-options-=-{" transform="translate(275.176 11.102)"><path id="let" fill="#07A" d="M2.256 1.217H.226V.239h3.233v8.668h2.044v.991H0v-.99h2.256V1.216zm11.156 4.887c0 .17-.002.31-.007.424a6.37 6.37 0 01-.02.322h-4.82c0 .701.196 1.24.588 1.616.392.376.957.564 1.696.564.2 0 .4-.008.601-.024.2-.016.394-.037.581-.065.187-.027.366-.058.537-.092.17-.034.33-.072.475-.113v.978a9.161 9.161 0 01-2.365.308c-.588 0-1.094-.08-1.518-.24a2.597 2.597 0 01-1.042-.694 2.857 2.857 0 01-.602-1.114 5.273 5.273 0 01-.195-1.494c0-.483.07-.94.209-1.37a3.44 3.44 0 01.608-1.135c.267-.326.594-.584.981-.776a2.94 2.94 0 011.32-.287c.478 0 .902.075 1.271.226.37.15.68.363.933.639s.444.61.574 1.005c.13.394.195.835.195 1.322zm-1.237-.17a2.593 2.593 0 00-.09-.838 1.763 1.763 0 00-.337-.653 1.576 1.576 0 00-.571-.427 1.916 1.916 0 00-.793-.154c-.26 0-.497.05-.711.15-.214.101-.399.242-.554.425a2.19 2.19 0 00-.376.656 3.026 3.026 0 00-.178.84h3.61zm8.668 3.869a5.793 5.793 0 01-.834.147 8.52 8.52 0 01-.875.044c-.862 0-1.504-.195-1.928-.584-.424-.39-.636-.988-.636-1.795V4.033h-1.92v-.998h1.92V1.148l1.19-.307v2.194h3.083v.998H17.76V7.52c0 .492.13.86.393 1.104.262.243.648.365 1.159.365.218 0 .458-.017.717-.051.26-.034.531-.088.814-.16v1.025z"/><path id="options" fill="#000" d="M36.682 6.412a4.55 4.55 0 01-.226 1.466c-.15.445-.367.825-.65 1.142a2.913 2.913 0 01-1.032.738 3.447 3.447 0 01-1.38.263c-.493 0-.934-.076-1.323-.229a2.617 2.617 0 01-.991-.673 2.98 2.98 0 01-.622-1.1c-.144-.438-.216-.942-.216-1.511 0-.533.075-1.02.226-1.46.15-.44.367-.818.65-1.134a2.913 2.913 0 011.031-.739 3.447 3.447 0 011.381-.263c.492 0 .933.076 1.323.23.39.152.72.375.991.669.271.294.479.66.622 1.097.144.438.216.939.216 1.504zm-1.217.055c0-.424-.047-.794-.14-1.111a2.237 2.237 0 00-.4-.793 1.65 1.65 0 00-.633-.479 2.077 2.077 0 00-.83-.16c-.356 0-.66.07-.913.208-.253.14-.46.325-.622.557a2.4 2.4 0 00-.355.81 4.06 4.06 0 00-.113.968c0 .424.047.795.14 1.114.094.32.227.585.4.796.173.212.383.372.629.479.246.107.524.16.834.16.355 0 .66-.069.913-.208.252-.139.46-.325.622-.557a2.4 2.4 0 00.355-.81 4.09 4.09 0 00.113-.974zm8.805-.123c0 .61-.086 1.144-.257 1.6-.17.455-.407.833-.707 1.134a2.9 2.9 0 01-1.067.677c-.41.15-.854.225-1.333.225-.219 0-.436-.01-.653-.034a4.952 4.952 0 01-.66-.116v2.871h-1.189V3.035h1.06l.075 1.149c.342-.47.706-.8 1.094-.988.387-.19.806-.284 1.258-.284.392 0 .736.082 1.032.246.296.164.544.396.745.694.2.299.35.659.451 1.08.1.422.15.892.15 1.412zm-1.217.054c0-.36-.026-.69-.079-.99a2.586 2.586 0 00-.25-.773 1.37 1.37 0 00-.437-.503 1.104 1.104 0 00-.636-.18c-.15 0-.303.023-.458.07a1.857 1.857 0 00-.482.24 3.59 3.59 0 00-.526.445 7 7 0 00-.591.687v3.329c.219.09.449.163.69.215.242.052.479.079.711.079.643 0 1.146-.218 1.51-.653.365-.435.548-1.09.548-1.966zm8.579 3.405a5.793 5.793 0 01-.834.147 8.52 8.52 0 01-.875.044c-.861 0-1.504-.195-1.928-.584-.424-.39-.636-.988-.636-1.795V4.033h-1.92v-.998h1.92V1.148l1.19-.307v2.194h3.083v.998h-3.083V7.52c0 .492.13.86.393 1.104.262.243.648.365 1.159.365.218 0 .458-.017.717-.051.26-.034.531-.088.814-.16v1.025zm4.505-5.783h-2.03v-.985h3.233v5.872h2.044v.991H53.88v-.99h2.256V4.02zm.417-3.863c.132 0 .255.024.369.072a.893.893 0 01.297.202.919.919 0 01.27.663.96.96 0 01-.27.663.893.893 0 01-.297.201.944.944 0 01-.37.072.944.944 0 01-.368-.072.893.893 0 01-.298-.201.96.96 0 01-.27-.663.919.919 0 01.27-.663.893.893 0 01.298-.202.944.944 0 01.369-.072zM67.47 6.412a4.55 4.55 0 01-.226 1.466c-.15.445-.367.825-.65 1.142a2.913 2.913 0 01-1.032.738 3.447 3.447 0 01-1.38.263c-.493 0-.933-.076-1.323-.229a2.617 2.617 0 01-.991-.673 2.98 2.98 0 01-.622-1.1c-.144-.438-.216-.942-.216-1.511 0-.533.075-1.02.226-1.46.15-.44.367-.818.65-1.134a2.913 2.913 0 011.031-.739 3.447 3.447 0 011.381-.263c.493 0 .933.076 1.323.23.39.152.72.375.991.669.271.294.479.66.622 1.097.144.438.216.939.216 1.504zm-1.217.055c0-.424-.047-.794-.14-1.111a2.237 2.237 0 00-.4-.793 1.65 1.65 0 00-.632-.479 2.077 2.077 0 00-.831-.16c-.355 0-.66.07-.913.208-.253.14-.46.325-.622.557a2.4 2.4 0 00-.355.81 4.06 4.06 0 00-.113.968c0 .424.047.795.14 1.114.094.32.227.585.4.796.173.212.383.372.629.479.246.107.524.16.834.16.355 0 .66-.069.913-.208.253-.139.46-.325.622-.557a2.4 2.4 0 00.355-.81 4.09 4.09 0 00.113-.974zm2.94-3.432h1.059l.048 1.108c.2-.237.394-.435.58-.592.188-.157.371-.283.551-.38a2.06 2.06 0 01.55-.2c.187-.04.381-.059.581-.059.707 0 1.241.209 1.604.626.362.417.543 1.044.543 1.883v4.477h-1.19V5.517c0-.538-.1-.936-.3-1.193-.2-.258-.5-.386-.896-.386-.146 0-.288.021-.427.064a1.557 1.557 0 00-.434.226c-.15.107-.313.252-.489.434-.175.182-.372.41-.591.684v4.552h-1.19V3.035zm13.131 4.99a1.634 1.634 0 01-.458 1.16 2.084 2.084 0 01-.492.378 3.272 3.272 0 01-.598.26c-.212.069-.43.119-.653.15a4.637 4.637 0 01-.656.048 12.3 12.3 0 01-1.282-.061 8.646 8.646 0 01-1.145-.198V8.668c.401.114.8.2 1.196.26.397.059.791.089 1.183.089.57 0 .991-.078 1.265-.233.273-.155.41-.376.41-.663a.812.812 0 00-.065-.331.753.753 0 00-.236-.28 2.254 2.254 0 00-.53-.278 11.81 11.81 0 00-.98-.328 6.963 6.963 0 01-.859-.31 2.877 2.877 0 01-.68-.414 1.776 1.776 0 01-.451-.56 1.649 1.649 0 01-.164-.76 1.744 1.744 0 01.588-1.264c.214-.196.503-.36.868-.49.365-.129.82-.194 1.367-.194.269 0 .568.015.896.045.328.03.67.08 1.025.153v1.06a9.803 9.803 0 00-1.063-.202 6.926 6.926 0 00-.872-.065c-.296 0-.545.023-.748.069a1.553 1.553 0 00-.492.188.734.734 0 00-.27.28.748.748 0 00-.082.345c0 .123.024.235.071.335.048.1.137.197.267.29.13.094.311.187.544.28.232.094.535.196.909.305.405.119.747.243 1.025.373.278.13.504.274.677.434.173.16.297.34.372.54.076.2.113.428.113.683z"/><path id="=" fill="#A67F59" d="M97.98 5.482H92.1V4.478h5.88v1.004zm0 2.38H92.1V6.855h5.88v1.005z"/><path id="{" fill="#999" d="M112.718 12.701h-.506c-.88 0-1.534-.206-1.962-.618-.428-.413-.643-1.038-.643-1.877V7.854a2.18 2.18 0 00-.075-.598.978.978 0 00-.263-.444 1.224 1.224 0 00-.499-.277 2.706 2.706 0 00-.783-.096h-.294v-.95h.294c.333 0 .604-.027.814-.082.21-.054.373-.138.492-.25a.88.88 0 00.246-.427c.046-.173.068-.378.068-.615v-1.62c0-.383.046-.728.137-1.036.091-.307.24-.57.448-.786.207-.216.476-.382.807-.499.33-.116.734-.174 1.213-.174h.506v.957h-.404c-1.057 0-1.585.513-1.585 1.538v1.593c0 1.112-.481 1.738-1.443 1.88.97.095 1.456.72 1.456 1.873v2.338c0 1.043.524 1.565 1.572 1.565h.404v.957z"/><path id="size" fill="#000" d="M20.747 25.025a1.634 1.634 0 01-.458 1.16 2.084 2.084 0 01-.492.378 3.272 3.272 0 01-.598.26c-.212.069-.43.119-.653.15a4.637 4.637 0 01-.656.048 12.3 12.3 0 01-1.282-.061 8.646 8.646 0 01-1.145-.198v-1.094c.4.114.8.2 1.196.26.397.059.79.089 1.183.089.57 0 .991-.078 1.264-.233.274-.155.41-.376.41-.663a.812.812 0 00-.064-.331.753.753 0 00-.236-.28 2.254 2.254 0 00-.53-.278 11.81 11.81 0 00-.98-.328 6.963 6.963 0 01-.859-.31 2.877 2.877 0 01-.68-.414 1.776 1.776 0 01-.451-.56 1.649 1.649 0 01-.164-.76 1.744 1.744 0 01.588-1.264c.214-.196.503-.36.868-.49.364-.129.82-.194 1.367-.194.269 0 .567.015.896.045.328.03.67.08 1.025.153v1.06a9.803 9.803 0 00-1.063-.202 6.926 6.926 0 00-.872-.065c-.296 0-.545.023-.748.069a1.553 1.553 0 00-.492.188.734.734 0 00-.27.28.748.748 0 00-.082.345c0 .123.023.235.071.335.048.1.137.197.267.29.13.094.311.187.543.28.233.094.536.196.91.305.405.119.747.243 1.025.373.278.13.504.274.677.434.173.16.297.34.372.54.075.2.113.428.113.683zm4.6-4.005h-2.03v-.985h3.234v5.872h2.044v.991h-5.503v-.99h2.256V21.02zm.418-3.863c.132 0 .255.024.369.072a.893.893 0 01.297.202.919.919 0 01.27.663.96.96 0 01-.27.663.893.893 0 01-.297.201.944.944 0 01-.37.072.944.944 0 01-.368-.072.893.893 0 01-.298-.201.96.96 0 01-.27-.663.919.919 0 01.27-.663.893.893 0 01.298-.202.944.944 0 01.369-.072zm10.5 9.741h-5.53v-.854l3.875-5.01h-3.78v-.999h5.21v.93l-3.809 4.929h4.034v1.004zm7.936-3.794c0 .17-.002.31-.007.424a6.37 6.37 0 01-.02.322h-4.82c0 .701.196 1.24.588 1.616.392.376.957.564 1.696.564.2 0 .4-.008.601-.024.2-.016.394-.037.581-.065.187-.027.366-.058.537-.092.17-.034.33-.072.475-.113v.978a9.161 9.161 0 01-2.365.308c-.588 0-1.094-.08-1.518-.24a2.597 2.597 0 01-1.042-.694 2.857 2.857 0 01-.602-1.114 5.273 5.273 0 01-.195-1.494c0-.483.07-.94.209-1.37a3.44 3.44 0 01.608-1.135c.267-.326.594-.584.981-.776a2.94 2.94 0 011.32-.287c.478 0 .902.075 1.271.226.37.15.68.363.933.639s.444.61.574 1.005c.13.394.195.835.195 1.322zm-1.237-.17a2.593 2.593 0 00-.089-.838 1.763 1.763 0 00-.338-.653 1.576 1.576 0 00-.571-.427 1.916 1.916 0 00-.793-.154c-.26 0-.497.05-.711.15-.214.101-.399.242-.554.425a2.19 2.19 0 00-.376.656 3.026 3.026 0 00-.178.84h3.61z"/><path id=":{" fill="#999" d="M48.856 19.912c.142 0 .276.029.404.086a1.107 1.107 0 01.564.564.978.978 0 01.085.403.971.971 0 01-.085.407 1.12 1.12 0 01-.23.331 1.058 1.058 0 01-.738.308c-.145 0-.281-.028-.406-.082a1.07 1.07 0 01-.557-.557 1.006 1.006 0 01-.082-.407 1.058 1.058 0 01.308-.738 1.12 1.12 0 01.33-.23.971.971 0 01.407-.085zm0 5.01c.142 0 .276.03.404.086a1.107 1.107 0 01.564.564.978.978 0 01.085.404.971.971 0 01-.085.406 1.12 1.12 0 01-.23.332 1.058 1.058 0 01-.738.307c-.145 0-.281-.027-.406-.082a1.07 1.07 0 01-.557-.557 1.006 1.006 0 01-.082-.406 1.058 1.058 0 01.308-.738 1.12 1.12 0 01.33-.23.971.971 0 01.407-.085zm17.678 4.78h-.506c-.88 0-1.533-.207-1.962-.62-.428-.412-.642-1.037-.642-1.876v-2.352a2.18 2.18 0 00-.075-.598.978.978 0 00-.264-.444 1.224 1.224 0 00-.499-.277 2.706 2.706 0 00-.782-.096h-.294v-.95h.294c.332 0 .604-.027.813-.082.21-.054.374-.138.492-.25a.88.88 0 00.246-.427c.046-.173.069-.378.069-.615v-1.62c0-.383.045-.728.137-1.036.09-.307.24-.57.447-.786.208-.216.477-.382.807-.499.33-.116.735-.174 1.213-.174h.506v.957h-.403c-1.057 0-1.586.513-1.586 1.538v1.593c0 1.112-.48 1.738-1.442 1.88.97.095 1.456.72 1.456 1.873v2.338c0 1.043.524 1.565 1.572 1.565h.403v.957z"/><path id="width" fill="#000" d="M37.064 37.035l-.998 6.863h-1.442l-.991-2.87-.198-.698-.226.738-.95 2.83h-1.402l-.99-6.863h1.161l.575 4.662.123 1.04.294-.91.998-3.083h.854l1.073 3.042.308.91.102-.965.534-4.696h1.175zm3.678.985h-2.03v-.985h3.233v5.872h2.044v.991h-5.503v-.99h2.256V38.02zm.417-3.863c.132 0 .255.024.37.072a.893.893 0 01.297.202.919.919 0 01.27.663.96.96 0 01-.27.663.893.893 0 01-.298.201.944.944 0 01-.369.072.944.944 0 01-.369-.072.893.893 0 01-.297-.201.96.96 0 01-.27-.663.919.919 0 01.27-.663.893.893 0 01.297-.202.944.944 0 01.37-.072zm4.594 6.453c0-.583.08-1.101.24-1.555.159-.453.385-.836.68-1.148.293-.312.646-.55 1.059-.711a3.743 3.743 0 011.377-.243c.22 0 .434.014.646.041.212.027.42.07.626.13v-2.885h1.196v9.66h-1.066l-.041-1.3c-.333.484-.693.841-1.08 1.074a2.401 2.401 0 01-1.258.348c-.392 0-.737-.082-1.036-.246a2.104 2.104 0 01-.745-.693 3.33 3.33 0 01-.448-1.077 6 6 0 01-.15-1.395zm1.217-.075c0 .83.122 1.448.365 1.856.244.408.59.612 1.036.612.3 0 .619-.135.954-.403.335-.27.687-.668 1.056-1.197v-3.185a2.892 2.892 0 00-.65-.209 3.55 3.55 0 00-.704-.072c-.647 0-1.152.21-1.514.63-.362.419-.543 1.075-.543 1.968zm12.36 3.268a5.793 5.793 0 01-.835.147 8.52 8.52 0 01-.875.044c-.861 0-1.504-.195-1.928-.584-.423-.39-.635-.988-.635-1.795v-3.582h-1.921v-.998h1.92v-1.887l1.19-.307v2.194h3.083v.998h-3.083v3.487c0 .492.131.86.393 1.104.262.243.648.365 1.159.365.219 0 .458-.017.718-.051.26-.034.53-.088.813-.16v1.025zm7.683.095h-1.19v-4.381c0-.529-.099-.924-.297-1.186-.198-.262-.482-.394-.851-.394-.16 0-.309.022-.448.065a1.557 1.557 0 00-.434.226 3.73 3.73 0 00-.492.434c-.178.182-.383.41-.615.684v4.552h-1.19V34.24h1.19v2.796l-.041 1.08c.186-.223.37-.411.55-.564.18-.152.36-.277.54-.372.18-.096.363-.164.55-.205.187-.041.38-.062.581-.062.684 0 1.212.209 1.586.626.374.417.56 1.044.56 1.883v4.477z"/><path id=":" fill="#999" d="M71.948 36.912c.142 0 .276.029.404.086a1.107 1.107 0 01.564.564.978.978 0 01.085.403.971.971 0 01-.085.407 1.12 1.12 0 01-.23.331 1.058 1.058 0 01-.738.308c-.146 0-.281-.028-.406-.082a1.07 1.07 0 01-.558-.557 1.006 1.006 0 01-.082-.407 1.058 1.058 0 01.308-.738 1.12 1.12 0 01.332-.23.971.971 0 01.406-.085zm0 5.01c.142 0 .276.03.404.086a1.107 1.107 0 01.564.564.978.978 0 01.085.404.971.971 0 01-.085.406 1.12 1.12 0 01-.23.332 1.058 1.058 0 01-.738.307c-.146 0-.281-.027-.406-.082a1.07 1.07 0 01-.558-.557 1.006 1.006 0 01-.082-.406 1.058 1.058 0 01.308-.738 1.12 1.12 0 01.332-.23.971.971 0 01.406-.085z"/><path id="100" fill="#905" d="M90.31 43.898h-5.613v-1.107h2.297V36.27l-2.14 1.162-.437-1.012 2.844-1.497h1.052v7.868h1.997v1.107zm7.977-4.463c0 .683-.068 1.306-.205 1.87a4.33 4.33 0 01-.622 1.448 2.925 2.925 0 01-1.036.937c-.412.221-.896.331-1.452.331-.479 0-.914-.09-1.306-.27a2.594 2.594 0 01-1.005-.83c-.278-.374-.492-.85-.642-1.429-.15-.579-.226-1.264-.226-2.057 0-.684.07-1.308.208-1.873.14-.566.347-1.05.623-1.453.275-.403.62-.716 1.035-.937.415-.22.898-.331 1.45-.331.478 0 .913.09 1.305.27.392.18.727.458 1.005.834.278.376.492.853.643 1.432.15.579.225 1.265.225 2.058zm-1.203.04c0-.154-.006-.308-.017-.46a23.673 23.673 0 00-.038-.449l-3.78 2.81c.068.237.155.456.26.656.105.2.231.373.38.516.147.144.316.256.505.335.19.08.405.12.646.12.31 0 .591-.075.844-.226.253-.15.469-.373.646-.67.178-.296.315-.664.41-1.104.096-.44.144-.949.144-1.527zm-4.088-.081c0 .14.001.282.004.423.002.142.01.278.023.41l3.78-2.795a3.198 3.198 0 00-.26-.636 2.016 2.016 0 00-.375-.496 1.612 1.612 0 00-.5-.324 1.628 1.628 0 00-.628-.117c-.31 0-.591.076-.844.226-.253.15-.468.375-.646.673a3.697 3.697 0 00-.41 1.108 7.24 7.24 0 00-.144 1.528zm12.988.04c0 .684-.068 1.307-.205 1.87a4.33 4.33 0 01-.622 1.45 2.925 2.925 0 01-1.035.936c-.413.221-.897.331-1.453.331-.479 0-.914-.09-1.306-.27a2.594 2.594 0 01-1.005-.83c-.278-.374-.492-.85-.642-1.429-.15-.579-.226-1.264-.226-2.057 0-.684.07-1.308.209-1.873.139-.566.346-1.05.622-1.453s.62-.716 1.035-.937c.415-.22.898-.331 1.45-.331.478 0 .913.09 1.305.27.392.18.727.458 1.005.834.278.376.492.853.643 1.432.15.579.225 1.265.225 2.058zm-1.203.042c0-.155-.005-.31-.017-.462a23.67 23.67 0 00-.037-.448l-3.78 2.81c.068.237.154.456.26.656.104.2.23.373.378.516.149.144.317.256.506.335.19.08.405.12.646.12.31 0 .592-.075.845-.226.252-.15.468-.373.646-.67.177-.296.314-.664.41-1.104.095-.44.143-.949.143-1.527zm-4.088-.082c0 .14.001.282.004.423.002.142.01.278.024.41l3.78-2.795a3.198 3.198 0 00-.26-.636 2.016 2.016 0 00-.376-.496 1.612 1.612 0 00-.499-.324 1.628 1.628 0 00-.629-.117c-.31 0-.591.076-.844.226-.253.15-.468.375-.646.673a3.697 3.697 0 00-.41 1.108 7.24 7.24 0 00-.144 1.528z"/><path id="," fill="#999" d="M108.213 45.3c.232.009.458-.012.677-.062a2.02 2.02 0 00.577-.222c.167-.098.3-.22.4-.366a.86.86 0 00.15-.499.95.95 0 00-.099-.464 2.238 2.238 0 00-.222-.329 2.438 2.438 0 01-.222-.32.91.91 0 01-.099-.459.915.915 0 01.222-.588.857.857 0 01.287-.212 1.12 1.12 0 01.875.017c.148.066.278.168.39.305.112.136.2.307.267.512.066.205.099.447.099.725 0 .378-.07.742-.209 1.09a2.657 2.657 0 01-.622.926c-.276.27-.62.484-1.032.643-.413.16-.892.24-1.44.24V45.3z"/><path id="height" fill="#000" d="M36.224 60.898h-1.19v-4.381c0-.529-.099-.924-.297-1.186-.198-.262-.482-.394-.851-.394-.16 0-.309.022-.448.065a1.557 1.557 0 00-.434.226 3.73 3.73 0 00-.492.434c-.178.182-.383.41-.616.684v4.552h-1.189V51.24h1.19v2.796l-.042 1.08c.187-.223.37-.411.55-.564.18-.152.36-.277.54-.372.18-.096.364-.164.551-.205.187-.041.38-.062.581-.062.684 0 1.212.209 1.586.626.374.417.56 1.044.56 1.883v4.477zm7.977-3.794c0 .17-.002.31-.007.424a6.37 6.37 0 01-.02.322h-4.82c0 .701.196 1.24.588 1.616.392.376.957.564 1.696.564.2 0 .4-.008.601-.024.2-.016.394-.037.581-.065.187-.027.366-.058.537-.092.17-.034.33-.072.475-.113v.978a9.161 9.161 0 01-2.365.308c-.588 0-1.094-.08-1.518-.24a2.597 2.597 0 01-1.042-.694 2.857 2.857 0 01-.602-1.114 5.273 5.273 0 01-.195-1.494c0-.483.07-.94.209-1.37a3.44 3.44 0 01.608-1.135c.267-.326.594-.584.981-.776a2.94 2.94 0 011.32-.287c.478 0 .902.075 1.271.226.37.15.68.363.933.639s.444.61.574 1.005c.13.394.195.835.195 1.322zm-1.237-.17a2.593 2.593 0 00-.089-.838 1.763 1.763 0 00-.338-.653 1.576 1.576 0 00-.571-.427 1.916 1.916 0 00-.793-.154c-.26 0-.497.05-.711.15-.214.101-.399.242-.554.425a2.19 2.19 0 00-.376.656 3.026 3.026 0 00-.178.84h3.61zm5.475-1.914h-2.03v-.985h3.234v5.872h2.044v.991h-5.503v-.99h2.255V55.02zm.417-3.863c.133 0 .256.024.37.072a.893.893 0 01.297.202.919.919 0 01.27.663.96.96 0 01-.27.663.893.893 0 01-.297.201.944.944 0 01-.37.072.944.944 0 01-.369-.072.893.893 0 01-.297-.201.96.96 0 01-.27-.663.919.919 0 01.27-.663.893.893 0 01.297-.202.944.944 0 01.37-.072zm9.885 3.849c.128.16.227.345.298.557.07.212.106.44.106.687 0 .355-.065.68-.195.974-.13.294-.314.546-.55.755a2.54 2.54 0 01-.852.49c-.33.115-.694.174-1.09.174-.287 0-.556-.031-.807-.093a2.064 2.064 0 01-.594-.229c-.087.128-.16.249-.22.363a.817.817 0 00-.088.382c0 .174.083.317.25.431.166.114.386.176.66.185l1.804.068c.342.01.657.052.947.13.29.077.537.189.745.335.207.146.369.326.485.54.116.214.174.462.174.745 0 .305-.066.595-.198.868a1.985 1.985 0 01-.612.721c-.275.208-.625.373-1.049.496-.424.123-.927.185-1.51.185-.557 0-1.03-.045-1.42-.134-.389-.089-.709-.212-.96-.369a1.49 1.49 0 01-.546-.56 1.51 1.51 0 01-.171-.715c0-.332.077-.624.232-.875.155-.25.394-.492.718-.724a1.133 1.133 0 01-.52-.476 1.322 1.322 0 01-.164-.632c0-.296.07-.567.209-.813.139-.246.304-.479.495-.698a3.57 3.57 0 01-.229-.307 1.91 1.91 0 01-.28-.7 2.536 2.536 0 01-.038-.462c0-.356.065-.68.195-.974.13-.294.312-.546.547-.756.235-.21.517-.372.848-.489.33-.116.696-.174 1.097-.174.169 0 .33.012.485.034.155.023.292.053.41.09h2.489v.97h-1.1zm-4.129 6.884c0 .323.169.56.506.707.337.148.807.222 1.408.222.379 0 .696-.034.954-.102.257-.069.465-.159.622-.27.157-.112.27-.24.338-.383.069-.144.103-.29.103-.441 0-.278-.114-.483-.342-.615-.228-.132-.576-.21-1.046-.233l-1.79-.061c-.151.1-.275.198-.373.294a1.292 1.292 0 00-.23.29 1.127 1.127 0 00-.116.294 1.309 1.309 0 00-.034.298zm.363-5.613c0 .22.036.42.109.602.073.182.175.337.308.465.132.127.288.226.468.297.18.07.38.106.598.106.237 0 .448-.04.632-.12.185-.08.34-.188.465-.324.126-.137.221-.294.287-.472.066-.178.1-.362.1-.554 0-.218-.037-.419-.11-.601a1.316 1.316 0 00-.308-.465 1.404 1.404 0 00-.468-.297c-.18-.071-.38-.106-.598-.106-.237 0-.448.04-.632.123-.185.082-.34.19-.465.324-.125.135-.221.29-.287.469-.066.177-.1.362-.1.553zm12.038 4.621h-1.19v-4.381c0-.529-.099-.924-.297-1.186-.198-.262-.482-.394-.851-.394-.16 0-.309.022-.448.065a1.557 1.557 0 00-.434.226 3.73 3.73 0 00-.492.434c-.178.182-.383.41-.615.684v4.552h-1.19V51.24h1.19v2.796l-.041 1.08c.186-.223.37-.411.55-.564.18-.152.36-.277.54-.372.18-.096.363-.164.55-.205.187-.041.38-.062.581-.062.684 0 1.212.209 1.586.626.374.417.56 1.044.56 1.883v4.477zm7.71-.095a5.793 5.793 0 01-.833.147 8.52 8.52 0 01-.875.044c-.862 0-1.504-.195-1.928-.584-.424-.39-.636-.988-.636-1.795v-3.582h-1.92v-.998h1.92v-1.887l1.19-.307v2.194h3.083v.998H71.64v3.487c0 .492.13.86.393 1.104.262.243.648.365 1.158.365.22 0 .458-.017.718-.051.26-.034.531-.088.814-.16v1.025z"/><path id=":" fill="#999" d="M79.646 53.912c.14 0 .275.029.403.086a1.107 1.107 0 01.564.564.978.978 0 01.085.403.971.971 0 01-.085.407 1.12 1.12 0 01-.23.331 1.058 1.058 0 01-.737.308c-.146 0-.282-.028-.407-.082a1.07 1.07 0 01-.557-.557 1.006 1.006 0 01-.082-.407 1.058 1.058 0 01.308-.738 1.12 1.12 0 01.33-.23.971.971 0 01.408-.085zm0 5.01c.14 0 .275.03.403.086a1.107 1.107 0 01.564.564.978.978 0 01.085.404.971.971 0 01-.085.406 1.12 1.12 0 01-.23.332 1.058 1.058 0 01-.737.307c-.146 0-.282-.027-.407-.082a1.07 1.07 0 01-.557-.557 1.006 1.006 0 01-.082-.406 1.058 1.058 0 01.308-.738 1.12 1.12 0 01.33-.23.971.971 0 01.408-.085z"/><path id="200" fill="#905" d="M98.082 60.898h-5.886v-1.066l2.31-2.297c.38-.374.687-.697.924-.97.237-.274.421-.523.553-.75a2.28 2.28 0 00.267-.638c.046-.2.068-.417.068-.65 0-.218-.03-.427-.089-.625a1.49 1.49 0 00-.273-.523 1.268 1.268 0 00-.478-.356 1.734 1.734 0 00-.705-.13c-.378 0-.722.085-1.032.253-.31.17-.595.388-.854.657l-.657-.786c.338-.356.726-.64 1.166-.855.44-.214.951-.321 1.535-.321.396 0 .757.06 1.083.178.326.118.607.289.844.512.237.224.42.497.55.82.13.324.196.689.196 1.094 0 .342-.046.659-.137.95a3.646 3.646 0 01-.414.872c-.184.29-.417.59-.697.899-.28.31-.612.65-.995 1.019l-1.62 1.579h4.341v1.134zm7.902-4.463c0 .683-.068 1.306-.205 1.87a4.33 4.33 0 01-.622 1.448 2.925 2.925 0 01-1.035.937c-.413.221-.897.331-1.453.331-.479 0-.914-.09-1.306-.27a2.594 2.594 0 01-1.005-.83c-.278-.374-.492-.85-.642-1.429-.15-.579-.226-1.264-.226-2.057 0-.684.07-1.308.209-1.873.139-.566.346-1.05.622-1.453s.62-.716 1.035-.937c.415-.22.898-.331 1.45-.331.478 0 .913.09 1.305.27.392.18.727.458 1.005.834.278.376.492.853.643 1.432.15.579.225 1.265.225 2.058zm-1.203.04c0-.154-.005-.308-.017-.46a23.67 23.67 0 00-.037-.449l-3.78 2.81c.068.237.154.456.26.656.104.2.23.373.378.516.149.144.317.256.506.335.19.08.405.12.646.12.31 0 .592-.075.845-.226.252-.15.468-.373.646-.67.177-.296.314-.664.41-1.104.095-.44.143-.949.143-1.527zm-4.088-.081c0 .14.001.282.004.423.002.142.01.278.024.41l3.78-2.795a3.198 3.198 0 00-.26-.636 2.016 2.016 0 00-.376-.496 1.612 1.612 0 00-.499-.324 1.628 1.628 0 00-.629-.117c-.31 0-.591.076-.844.226-.253.15-.468.375-.646.673a3.697 3.697 0 00-.41 1.108 7.24 7.24 0 00-.144 1.528zm12.989.04c0 .684-.069 1.307-.205 1.87a4.33 4.33 0 01-.623 1.45 2.925 2.925 0 01-1.035.936c-.413.221-.897.331-1.453.331-.478 0-.914-.09-1.305-.27a2.594 2.594 0 01-1.005-.83c-.278-.374-.493-.85-.643-1.429-.15-.579-.225-1.264-.225-2.057 0-.684.069-1.308.208-1.873.139-.566.346-1.05.622-1.453s.621-.716 1.036-.937c.414-.22.897-.331 1.449-.331.478 0 .914.09 1.306.27.392.18.726.458 1.004.834.278.376.493.853.643 1.432.15.579.226 1.265.226 2.058zm-1.203.042c0-.155-.006-.31-.018-.462a23.678 23.678 0 00-.037-.448l-3.78 2.81c.068.237.155.456.26.656.104.2.23.373.379.516.148.144.316.256.506.335.189.08.404.12.646.12.31 0 .59-.075.844-.226.253-.15.468-.373.646-.67.178-.296.314-.664.41-1.104.096-.44.144-.949.144-1.527zm-4.088-.082c0 .14 0 .282.003.423.002.142.01.278.024.41l3.78-2.795a3.198 3.198 0 00-.26-.636 2.016 2.016 0 00-.376-.496 1.612 1.612 0 00-.499-.324 1.628 1.628 0 00-.628-.117c-.31 0-.592.076-.845.226-.253.15-.468.375-.646.673a3.697 3.697 0 00-.41 1.108 7.24 7.24 0 00-.143 1.528z"/><path id="}," fill="#999" d="M15.784 68h.506c.88 0 1.534.206 1.962.619.428.412.643 1.038.643 1.876v1.58c0 .223.025.422.075.597.05.176.138.324.263.445.125.12.293.213.502.277.21.063.472.095.786.095h.294v.95h-.294c-.332 0-.604.028-.816.082a1.116 1.116 0 00-.496.25.88.88 0 00-.246.427 2.438 2.438 0 00-.068.615v2.393c0 .383-.046.728-.137 1.036-.091.307-.24.57-.445.786a1.993 1.993 0 01-.806.499c-.333.116-.738.174-1.217.174h-.506v-.957h.41c1.053 0 1.58-.513 1.58-1.538v-2.365c0-1.112.48-1.737 1.442-1.873-.97-.105-1.456-.732-1.456-1.88v-1.566c0-1.043-.522-1.565-1.566-1.565h-.41V68zm7.759 11.3c.232.009.458-.012.677-.062a2.02 2.02 0 00.577-.222c.167-.098.3-.22.4-.366a.86.86 0 00.15-.499.95.95 0 00-.098-.464 2.238 2.238 0 00-.223-.329 2.438 2.438 0 01-.222-.32.91.91 0 01-.099-.459.915.915 0 01.222-.588.857.857 0 01.287-.212 1.12 1.12 0 01.875.017c.148.066.278.168.39.305.112.136.2.307.267.512.066.205.099.447.099.725 0 .378-.07.742-.209 1.09a2.657 2.657 0 01-.622.926c-.276.27-.62.484-1.032.643-.413.16-.892.24-1.439.24V79.3z"/><path id="items" fill="#000" d="M17.65 89.02h-2.03v-.985h3.234v5.872h2.043v.991h-5.502v-.99h2.255V89.02zm.417-3.863c.133 0 .256.024.37.072a.893.893 0 01.297.202.919.919 0 01.27.663.96.96 0 01-.27.663.893.893 0 01-.297.201.944.944 0 01-.37.072.944.944 0 01-.369-.072.893.893 0 01-.297-.201.96.96 0 01-.27-.663.919.919 0 01.27-.663.893.893 0 01.297-.202.944.944 0 01.37-.072zm10.473 9.646a5.793 5.793 0 01-.834.147 8.52 8.52 0 01-.875.044c-.861 0-1.504-.195-1.928-.584-.424-.39-.635-.988-.635-1.795v-3.582h-1.921v-.998h1.92v-1.887l1.19-.307v2.194h3.083v.998h-3.083v3.487c0 .492.131.86.393 1.104.262.243.648.365 1.159.365.219 0 .458-.017.718-.051.26-.034.53-.088.813-.16v1.025zm7.964-3.699c0 .17-.002.31-.007.424a6.37 6.37 0 01-.02.322h-4.82c0 .701.196 1.24.588 1.616.392.376.957.564 1.695.564.201 0 .401-.008.602-.024.2-.016.394-.037.581-.065.187-.027.366-.058.537-.092.17-.034.329-.072.475-.113v.978a9.161 9.161 0 01-2.365.308c-.588 0-1.094-.08-1.518-.24a2.597 2.597 0 01-1.043-.694 2.857 2.857 0 01-.601-1.114 5.273 5.273 0 01-.195-1.494c0-.483.07-.94.209-1.37a3.44 3.44 0 01.608-1.135c.267-.326.594-.584.98-.776a2.94 2.94 0 011.32-.287c.479 0 .903.075 1.272.226.369.15.68.363.933.639s.444.61.574 1.005c.13.394.195.835.195 1.322zm-1.237-.17a2.593 2.593 0 00-.09-.838 1.763 1.763 0 00-.338-.653 1.576 1.576 0 00-.57-.427 1.916 1.916 0 00-.793-.154c-.26 0-.497.05-.711.15-.215.101-.4.242-.554.425a2.19 2.19 0 00-.376.656 3.026 3.026 0 00-.178.84h3.61zm8.032 3.964V89.97c0-.214-.008-.39-.024-.527a1.2 1.2 0 00-.075-.324.348.348 0 00-.13-.168.43.43 0 00-.448.034c-.077.055-.16.144-.25.267a4.216 4.216 0 00-.293.489c-.107.203-.234.452-.38.748v4.41h-1.087v-4.8c0-.25-.008-.453-.024-.608a1.42 1.42 0 00-.075-.362.34.34 0 00-.133-.178.431.431 0 00-.43.02.988.988 0 00-.243.247c-.09.118-.188.28-.298.485-.11.205-.24.467-.39.786v4.41h-1.093v-6.864h.909l.055 1.306c.118-.26.233-.481.345-.663.112-.183.227-.33.345-.441.119-.112.245-.194.38-.246.134-.053.283-.079.447-.079.37 0 .65.12.841.362.191.242.287.616.287 1.122.11-.237.217-.448.321-.633a2.31 2.31 0 01.339-.465c.12-.125.254-.22.4-.287.146-.066.314-.099.506-.099.86 0 1.292.663 1.292 1.99v4.996h-1.094zm8.237-1.873a1.634 1.634 0 01-.458 1.16 2.084 2.084 0 01-.492.378 3.272 3.272 0 01-.598.26c-.212.069-.43.119-.653.15a4.637 4.637 0 01-.656.048 12.3 12.3 0 01-1.282-.061 8.646 8.646 0 01-1.145-.198v-1.094c.401.114.8.2 1.196.26.397.059.79.089 1.183.089.57 0 .991-.078 1.265-.233.273-.155.41-.376.41-.663a.812.812 0 00-.065-.331.753.753 0 00-.236-.28 2.254 2.254 0 00-.53-.278 11.81 11.81 0 00-.98-.328 6.963 6.963 0 01-.859-.31 2.877 2.877 0 01-.68-.414 1.776 1.776 0 01-.451-.56 1.649 1.649 0 01-.164-.76 1.744 1.744 0 01.588-1.264c.214-.196.503-.36.868-.49.364-.129.82-.194 1.367-.194.269 0 .567.015.896.045.328.03.67.08 1.025.153v1.06a9.803 9.803 0 00-1.063-.202 6.926 6.926 0 00-.872-.065c-.296 0-.545.023-.748.069a1.553 1.553 0 00-.492.188.734.734 0 00-.27.28.748.748 0 00-.082.345c0 .123.024.235.071.335.048.1.137.197.267.29.13.094.311.187.543.28.233.094.536.196.91.305.405.119.747.243 1.025.373.278.13.504.274.677.434.173.16.297.34.372.54.076.2.113.428.113.683z"/><path id=":[" fill="#999" d="M56.554 87.912c.141 0 .275.029.403.086a1.107 1.107 0 01.564.564.978.978 0 01.085.403.971.971 0 01-.085.407 1.12 1.12 0 01-.229.331 1.058 1.058 0 01-.738.308c-.146 0-.282-.028-.407-.082a1.07 1.07 0 01-.557-.557 1.006 1.006 0 01-.082-.407 1.058 1.058 0 01.308-.738 1.12 1.12 0 01.331-.23.971.971 0 01.407-.085zm0 5.01c.141 0 .275.03.403.086a1.107 1.107 0 01.564.564.978.978 0 01.085.404.971.971 0 01-.085.406 1.12 1.12 0 01-.229.332 1.058 1.058 0 01-.738.307c-.146 0-.282-.027-.407-.082a1.07 1.07 0 01-.557-.557 1.006 1.006 0 01-.082-.406 1.058 1.058 0 01.308-.738 1.12 1.12 0 01.331-.23.971.971 0 01.407-.085zm17.274 4.78h-3.37V85h3.37v.957h-2.235v10.787h2.235v.957z"/><path id="&quot;Cake&quot;" fill="#690" d="M79.071 85.24l-.191 3.205h-1.121l-.198-3.206h1.51zm2.66 0l-.192 3.205h-1.121l-.198-3.206h1.51zm8.565 9.323a5.822 5.822 0 01-2.25.445c-1.262 0-2.231-.377-2.908-1.132-.677-.754-1.015-1.87-1.015-3.346a6.3 6.3 0 01.28-1.941 4.22 4.22 0 01.8-1.473 3.521 3.521 0 011.258-.933 4.03 4.03 0 011.654-.329c.415 0 .8.036 1.156.106.355.071.697.18 1.025.325v1.196a4.534 4.534 0 00-1.005-.406 4.348 4.348 0 00-1.135-.14c-.419 0-.798.078-1.138.235-.34.158-.628.385-.865.684a3.2 3.2 0 00-.547 1.094 5.19 5.19 0 00-.191 1.473c0 1.157.235 2.03.704 2.618.47.588 1.158.882 2.065.882.382 0 .75-.045 1.1-.133a5.13 5.13 0 001.012-.373v1.148zm6.398.335l-.027-.922c-.374.369-.753.635-1.138.8-.385.163-.79.245-1.214.245-.391 0-.726-.05-1.004-.15a1.883 1.883 0 01-.687-.413 1.603 1.603 0 01-.397-.62 2.289 2.289 0 01-.126-.772c0-.688.256-1.227.769-1.616.512-.39 1.27-.585 2.273-.585h1.421v-.601c0-.406-.13-.73-.39-.974-.259-.244-.655-.366-1.189-.366-.387 0-.769.043-1.145.13-.376.086-.764.21-1.165.369V88.35a7.36 7.36 0 011.087-.301 7.6 7.6 0 01.642-.1c.224-.024.45-.037.677-.037.415 0 .788.046 1.121.137.333.091.614.23.844.417.23.187.407.421.53.704.123.282.185.615.185.998v4.73h-1.067zm-.13-3.124h-1.51c-.297 0-.552.03-.766.09-.214.059-.39.143-.526.252-.137.11-.238.24-.304.393-.067.153-.1.325-.1.516 0 .133.02.259.062.38.04.12.107.228.198.321.091.093.21.168.356.222.145.055.323.082.533.082.273 0 .587-.083.94-.25.353-.166.726-.429 1.117-.789v-1.217zm9.591 3.124h-1.634l-3.199-3.677v3.677h-1.19V85.24h1.19v5.934l3.083-3.138h1.573l-3.22 3.165 3.397 3.698zm7.322-3.794c0 .17-.003.31-.007.424a6.372 6.372 0 01-.02.322h-4.82c0 .701.196 1.24.588 1.616.392.376.957.564 1.695.564.2 0 .401-.008.602-.024.2-.016.394-.037.58-.065.188-.027.366-.058.537-.092.171-.034.33-.072.475-.113v.978a9.161 9.161 0 01-2.365.308c-.588 0-1.094-.08-1.517-.24a2.597 2.597 0 01-1.043-.694 2.857 2.857 0 01-.601-1.114 5.273 5.273 0 01-.195-1.494c0-.483.07-.94.208-1.37a3.44 3.44 0 01.609-1.135c.266-.326.593-.584.98-.776a2.94 2.94 0 011.32-.287c.478 0 .902.075 1.271.226.37.15.68.363.934.639.252.276.444.61.574 1.005.13.394.195.835.195 1.322zm-1.238-.17a2.593 2.593 0 00-.089-.838 1.763 1.763 0 00-.338-.653 1.576 1.576 0 00-.57-.427 1.916 1.916 0 00-.794-.154c-.26 0-.497.05-.71.15-.215.101-.4.242-.554.425a2.19 2.19 0 00-.376.656 3.026 3.026 0 00-.178.84h3.61zm5.319-5.695l-.192 3.206h-1.12l-.2-3.206h1.512zm2.659 0l-.192 3.206h-1.12l-.199-3.206h1.51z"/><path id="," fill="#999" d="M123.607 96.3c.233.009.458-.012.677-.062a2.02 2.02 0 00.578-.222c.166-.098.3-.22.4-.366a.86.86 0 00.15-.499.95.95 0 00-.099-.464 2.238 2.238 0 00-.222-.329 2.438 2.438 0 01-.222-.32.91.91 0 01-.1-.459.915.915 0 01.223-.588.857.857 0 01.287-.212 1.12 1.12 0 01.875.017c.148.066.278.168.39.305.111.136.2.307.266.512.066.205.1.447.1.725 0 .378-.07.742-.21 1.09a2.657 2.657 0 01-.621.926c-.276.27-.62.484-1.033.643-.412.16-.892.24-1.439.24V96.3z"/><path id="&quot;Donut&quot;" fill="#690" d="M140.65 85.24l-.192 3.205h-1.121l-.198-3.206h1.51zm2.659 0l-.192 3.205h-1.12l-.2-3.206h1.512zm8.962 5.092c0 .428-.034.839-.1 1.23a4.724 4.724 0 01-.317 1.094 3.69 3.69 0 01-.568.92 3.22 3.22 0 01-.854.707c-.338.196-.73.348-1.176.455-.447.107-.955.16-1.525.16h-1.914v-8.934h2.304c1.395 0 2.435.359 3.12 1.077.687.717 1.03 1.814 1.03 3.291zm-1.279.089c0-.634-.06-1.169-.178-1.607-.118-.437-.298-.79-.54-1.06a2.073 2.073 0 00-.909-.584c-.364-.12-.793-.18-1.285-.18h-1.046v6.856h.91c2.032 0 3.048-1.142 3.048-3.425zm8.846.991a4.55 4.55 0 01-.226 1.466c-.15.445-.367.825-.65 1.142a2.913 2.913 0 01-1.031.738 3.447 3.447 0 01-1.381.263c-.492 0-.933-.076-1.323-.229a2.617 2.617 0 01-.991-.673 2.98 2.98 0 01-.622-1.1c-.144-.438-.216-.942-.216-1.511 0-.533.076-1.02.226-1.46.15-.44.367-.818.65-1.134a2.913 2.913 0 011.032-.739 3.447 3.447 0 011.38-.263c.493 0 .934.076 1.323.23.39.152.72.375.991.669.272.294.479.66.623 1.097.143.438.215.939.215 1.504zm-1.217.055c0-.424-.047-.794-.14-1.111a2.237 2.237 0 00-.4-.793 1.65 1.65 0 00-.632-.479 2.077 2.077 0 00-.83-.16c-.356 0-.66.07-.913.208-.253.14-.46.325-.623.557a2.4 2.4 0 00-.355.81 4.06 4.06 0 00-.113.968c0 .424.047.795.14 1.114.094.32.227.585.4.796.173.212.383.372.63.479.245.107.523.16.833.16.356 0 .66-.069.913-.208.253-.139.46-.325.622-.557a2.4 2.4 0 00.355-.81 4.09 4.09 0 00.113-.974zm2.94-3.432h1.06l.047 1.108c.2-.237.394-.435.581-.592.187-.157.37-.283.55-.38a2.06 2.06 0 01.55-.2c.187-.04.381-.059.582-.059.706 0 1.24.209 1.603.626.362.417.543 1.044.543 1.883v4.477h-1.19v-4.381c0-.538-.1-.936-.3-1.193-.2-.258-.5-.386-.896-.386-.145 0-.288.021-.427.064a1.557 1.557 0 00-.434.226c-.15.107-.313.252-.489.434-.175.182-.372.41-.591.684v4.552h-1.19v-6.863zm13.213 6.863h-1.066l-.041-1.107a5.54 5.54 0 01-.584.591 3.021 3.021 0 01-.55.38 2.119 2.119 0 01-.551.201 2.84 2.84 0 01-.585.058c-.706 0-1.24-.207-1.6-.622-.36-.414-.54-1.04-.54-1.88v-4.484h1.19v4.389c0 1.053.397 1.579 1.19 1.579.146 0 .288-.022.427-.065.139-.043.285-.119.437-.226.153-.107.317-.251.493-.434.175-.182.372-.412.591-.69v-4.553h1.19v6.863zm7.711-.095a5.793 5.793 0 01-.834.147 8.52 8.52 0 01-.875.044c-.861 0-1.504-.195-1.927-.584-.424-.39-.636-.988-.636-1.795v-3.582h-1.921v-.998h1.92v-1.887l1.19-.307v2.194h3.083v.998h-3.083v3.487c0 .492.131.86.393 1.104.262.243.649.365 1.16.365.218 0 .457-.017.717-.051.26-.034.53-.088.813-.16v1.025zm4.348-9.564l-.191 3.206h-1.121l-.199-3.206h1.511zm2.66 0l-.192 3.206h-1.121l-.199-3.206h1.511z"/><path id="]," fill="#999" d="M196.595 97.701h-3.37v-.957h2.221V85.957h-2.221V85h3.37v12.701zm3.985-1.401c.233.009.458-.012.677-.062a2.02 2.02 0 00.577-.222c.167-.098.3-.22.4-.366a.86.86 0 00.15-.499.95.95 0 00-.098-.464 2.238 2.238 0 00-.223-.329 2.438 2.438 0 01-.222-.32.91.91 0 01-.099-.459.915.915 0 01.222-.588.857.857 0 01.287-.212 1.12 1.12 0 01.875.017c.149.066.278.168.39.305.112.136.2.307.267.512.066.205.099.447.099.725 0 .378-.07.742-.209 1.09a2.657 2.657 0 01-.622.926c-.275.27-.62.484-1.032.643-.412.16-.892.24-1.439.24V96.3z"/><path id="extra" fill="#000" d="M21.11 108.104c0 .17-.003.31-.007.424a6.37 6.37 0 01-.021.322h-4.82c0 .701.197 1.24.589 1.616.392.376.957.564 1.695.564.2 0 .4-.008.601-.024.201-.016.395-.037.582-.065.186-.027.365-.058.536-.092.171-.034.33-.072.475-.113v.978a9.161 9.161 0 01-2.365.308c-.588 0-1.094-.08-1.518-.24a2.597 2.597 0 01-1.042-.694 2.857 2.857 0 01-.602-1.114 5.273 5.273 0 01-.194-1.494c0-.483.07-.94.208-1.37a3.44 3.44 0 01.608-1.135c.267-.326.594-.584.981-.776a2.94 2.94 0 011.32-.287c.478 0 .902.075 1.271.226.37.15.68.363.933.639s.445.61.575 1.005c.13.394.194.835.194 1.322zm-1.238-.17a2.593 2.593 0 00-.089-.838 1.763 1.763 0 00-.338-.653 1.576 1.576 0 00-.571-.427 1.916 1.916 0 00-.793-.154c-.26 0-.497.05-.71.15-.215.101-.4.242-.555.425a2.19 2.19 0 00-.376.656 3.026 3.026 0 00-.177.84h3.61zm9.324 3.964h-1.579l-1.852-2.618-1.832 2.618h-1.538l2.659-3.445-2.536-3.418h1.524l1.805 2.639 1.77-2.639h1.47l-2.577 3.445 2.686 3.418zm7.041-.095a5.793 5.793 0 01-.834.147 8.52 8.52 0 01-.875.044c-.861 0-1.504-.195-1.927-.584-.424-.39-.636-.988-.636-1.795v-3.582h-1.921v-.998h1.92v-1.887l1.19-.307v2.194h3.083v.998h-3.083v3.487c0 .492.131.86.393 1.104.262.243.649.365 1.16.365.218 0 .457-.017.717-.051.26-.034.53-.088.813-.16v1.025zm2.448-6.768h1.086l.035 1.265c.405-.488.805-.841 1.2-1.06a2.436 2.436 0 011.192-.328c.711 0 1.25.23 1.617.69.367.46.537 1.144.51 2.051H43.12c.014-.601-.074-1.038-.263-1.309-.19-.27-.466-.406-.83-.406-.16 0-.32.028-.483.085a1.947 1.947 0 00-.499.273 4.47 4.47 0 00-.543.482 8.898 8.898 0 00-.615.711v4.41h-1.203v-6.864zm11.826 6.863l-.028-.922c-.373.369-.753.635-1.138.8-.385.163-.79.245-1.213.245-.392 0-.727-.05-1.005-.15a1.883 1.883 0 01-.687-.413 1.603 1.603 0 01-.397-.62 2.289 2.289 0 01-.126-.772c0-.688.256-1.227.769-1.616.513-.39 1.27-.585 2.273-.585h1.422v-.601c0-.406-.13-.73-.39-.974s-.656-.366-1.19-.366c-.387 0-.768.043-1.144.13-.376.086-.765.21-1.166.369v-1.073a7.36 7.36 0 011.087-.301 7.6 7.6 0 01.643-.1c.223-.024.449-.037.676-.037.415 0 .789.046 1.122.137.332.091.614.23.844.417.23.187.407.421.53.704.123.282.184.615.184.998v4.73h-1.066zm-.13-3.124h-1.51c-.297 0-.552.03-.767.09-.214.059-.39.143-.526.252-.137.11-.238.24-.304.393-.066.153-.1.325-.1.516 0 .133.021.259.062.38.041.12.107.228.199.321.09.093.21.168.355.222.146.055.324.082.533.082.274 0 .587-.083.94-.25.353-.166.726-.429 1.118-.789v-1.217z"/><path id=":" fill="#999" d="M56.554 104.912c.141 0 .275.029.403.086a1.107 1.107 0 01.564.564.978.978 0 01.085.403.971.971 0 01-.085.407 1.12 1.12 0 01-.229.331 1.058 1.058 0 01-.738.308c-.146 0-.282-.028-.407-.082a1.07 1.07 0 01-.557-.557 1.006 1.006 0 01-.082-.407 1.058 1.058 0 01.308-.738 1.12 1.12 0 01.331-.23.971.971 0 01.407-.085zm0 5.01c.141 0 .275.03.403.086a1.107 1.107 0 01.564.564.978.978 0 01.085.404.971.971 0 01-.085.406 1.12 1.12 0 01-.229.332 1.058 1.058 0 01-.738.307c-.146 0-.282-.027-.407-.082a1.07 1.07 0 01-.557-.557 1.006 1.006 0 01-.082-.406 1.058 1.058 0 01.308-.738 1.12 1.12 0 01.331-.23.971.971 0 01.407-.085z"/><path id="true" fill="#905" d="M74.724 111.803a5.793 5.793 0 01-.834.147 8.52 8.52 0 01-.875.044c-.862 0-1.504-.195-1.928-.584-.424-.39-.636-.988-.636-1.795v-3.582h-1.92v-.998h1.92v-1.887l1.19-.307v2.194h3.083v.998H71.64v3.487c0 .492.13.86.393 1.104.262.243.648.365 1.158.365.22 0 .458-.017.718-.051.26-.034.531-.088.814-.16v1.025zm2.447-6.768h1.087l.034 1.265c.406-.488.805-.841 1.2-1.06a2.436 2.436 0 011.193-.328c.71 0 1.25.23 1.616.69.367.46.537 1.144.51 2.051h-1.204c.014-.601-.074-1.038-.263-1.309-.189-.27-.466-.406-.83-.406-.16 0-.32.028-.482.085a1.947 1.947 0 00-.5.273 4.47 4.47 0 00-.543.482 8.898 8.898 0 00-.615.711v4.41h-1.203v-6.864zm12.933 6.863h-1.066l-.04-1.107a5.54 5.54 0 01-.585.591 3.021 3.021 0 01-.55.38 2.119 2.119 0 01-.551.201 2.84 2.84 0 01-.584.058c-.707 0-1.24-.207-1.6-.622-.36-.414-.54-1.04-.54-1.88v-4.484h1.19v4.389c0 1.053.396 1.579 1.189 1.579.146 0 .288-.022.427-.065.139-.043.285-.119.438-.226.152-.107.316-.251.492-.434.175-.182.372-.412.591-.69v-4.553h1.19v6.863zm7.978-3.794c0 .17-.002.31-.007.424a6.37 6.37 0 01-.02.322h-4.82c0 .701.196 1.24.588 1.616.392.376.957.564 1.696.564.2 0 .4-.008.601-.024.2-.016.394-.037.581-.065.187-.027.366-.058.537-.092.17-.034.33-.072.475-.113v.978a9.161 9.161 0 01-2.365.308c-.588 0-1.094-.08-1.518-.24a2.597 2.597 0 01-1.042-.694 2.857 2.857 0 01-.602-1.114 5.273 5.273 0 01-.195-1.494c0-.483.07-.94.209-1.37a3.44 3.44 0 01.608-1.135c.267-.326.594-.584.981-.776a2.94 2.94 0 011.32-.287c.478 0 .902.075 1.27.226.37.15.681.363.934.639s.444.61.574 1.005c.13.394.195.835.195 1.322zm-1.237-.17a2.593 2.593 0 00-.09-.838 1.763 1.763 0 00-.338-.653 1.576 1.576 0 00-.57-.427 1.916 1.916 0 00-.793-.154c-.26 0-.497.05-.711.15-.214.101-.399.242-.554.425a2.19 2.19 0 00-.376.656 3.026 3.026 0 00-.178.84h3.61z"/><path id="}" fill="#999" d="M.39 119h.506c.88 0 1.533.206 1.961.619.429.412.643 1.038.643 1.876v1.58c0 .223.025.422.075.597.05.176.138.324.263.445.126.12.293.213.503.277.21.063.471.095.786.095h.294v.95h-.294c-.333 0-.605.028-.817.082a1.116 1.116 0 00-.496.25.88.88 0 00-.246.427 2.438 2.438 0 00-.068.615v2.393c0 .383-.046.728-.137 1.036-.09.307-.239.57-.444.786a1.993 1.993 0 01-.807.499c-.332.116-.738.174-1.216.174H.39v-.957H.8c1.053 0 1.579-.513 1.579-1.538v-2.365c0-1.112.48-1.737 1.442-1.873-.97-.105-1.456-.732-1.456-1.88v-1.566c0-1.043-.522-1.565-1.565-1.565H.39V119z"/></g><g id="let-{-size:-{-width," transform="translate(12.176 11.102)"><path id="let" fill="#0C6399" d="M2.256 1.217H.226V.239h3.233v8.668h2.044v.991H0v-.99h2.256V1.216zm11.156 4.887c0 .17-.002.31-.007.424a6.37 6.37 0 01-.02.322h-4.82c0 .701.196 1.24.588 1.616.392.376.957.564 1.696.564.2 0 .4-.008.601-.024.2-.016.394-.037.581-.065.187-.027.366-.058.537-.092.17-.034.33-.072.475-.113v.978a9.161 9.161 0 01-2.365.308c-.588 0-1.094-.08-1.518-.24a2.597 2.597 0 01-1.042-.694 2.857 2.857 0 01-.602-1.114 5.273 5.273 0 01-.195-1.494c0-.483.07-.94.209-1.37a3.44 3.44 0 01.608-1.135c.267-.326.594-.584.981-.776a2.94 2.94 0 011.32-.287c.478 0 .902.075 1.271.226.37.15.68.363.933.639s.444.61.574 1.005c.13.394.195.835.195 1.322zm-1.237-.17a2.593 2.593 0 00-.09-.838 1.763 1.763 0 00-.337-.653 1.576 1.576 0 00-.571-.427 1.916 1.916 0 00-.793-.154c-.26 0-.497.05-.711.15-.214.101-.399.242-.554.425a2.19 2.19 0 00-.376.656 3.026 3.026 0 00-.178.84h3.61zm8.668 3.869a5.793 5.793 0 01-.834.147 8.52 8.52 0 01-.875.044c-.862 0-1.504-.195-1.928-.584-.424-.39-.636-.988-.636-1.795V4.033h-1.92v-.998h1.92V1.148l1.19-.307v2.194h3.083v.998H17.76V7.52c0 .492.13.86.393 1.104.262.243.648.365 1.159.365.218 0 .458-.017.717-.051.26-.034.531-.088.814-.16v1.025z"/><path id="{" fill="#878787" d="M35.745 12.701h-.506c-.88 0-1.533-.206-1.962-.618-.428-.413-.642-1.038-.642-1.877V7.854a2.18 2.18 0 00-.075-.598.978.978 0 00-.264-.444 1.224 1.224 0 00-.499-.277 2.706 2.706 0 00-.782-.096h-.294v-.95h.294c.332 0 .603-.027.813-.082.21-.054.374-.138.492-.25a.88.88 0 00.246-.427c.046-.173.069-.378.069-.615v-1.62c0-.383.045-.728.136-1.036.092-.307.24-.57.448-.786.208-.216.476-.382.807-.499.33-.116.735-.174 1.213-.174h.506v.957h-.403c-1.058 0-1.586.513-1.586 1.538v1.593c0 1.112-.48 1.738-1.443 1.88.971.095 1.457.72 1.457 1.873v2.338c0 1.043.524 1.565 1.572 1.565h.403v.957z"/><path id="size" fill="#000" d="M20.747 25.025a1.634 1.634 0 01-.458 1.16 2.084 2.084 0 01-.492.378 3.272 3.272 0 01-.598.26c-.212.069-.43.119-.653.15a4.637 4.637 0 01-.656.048 12.3 12.3 0 01-1.282-.061 8.646 8.646 0 01-1.145-.198v-1.094c.4.114.8.2 1.196.26.397.059.79.089 1.183.089.57 0 .991-.078 1.264-.233.274-.155.41-.376.41-.663a.812.812 0 00-.064-.331.753.753 0 00-.236-.28 2.254 2.254 0 00-.53-.278 11.81 11.81 0 00-.98-.328 6.963 6.963 0 01-.859-.31 2.877 2.877 0 01-.68-.414 1.776 1.776 0 01-.451-.56 1.649 1.649 0 01-.164-.76 1.744 1.744 0 01.588-1.264c.214-.196.503-.36.868-.49.364-.129.82-.194 1.367-.194.269 0 .567.015.896.045.328.03.67.08 1.025.153v1.06a9.803 9.803 0 00-1.063-.202 6.926 6.926 0 00-.872-.065c-.296 0-.545.023-.748.069a1.553 1.553 0 00-.492.188.734.734 0 00-.27.28.748.748 0 00-.082.345c0 .123.023.235.071.335.048.1.137.197.267.29.13.094.311.187.543.28.233.094.536.196.91.305.405.119.747.243 1.025.373.278.13.504.274.677.434.173.16.297.34.372.54.075.2.113.428.113.683zm4.6-4.005h-2.03v-.985h3.234v5.872h2.044v.991h-5.503v-.99h2.256V21.02zm.418-3.863c.132 0 .255.024.369.072a.893.893 0 01.297.202.919.919 0 01.27.663.96.96 0 01-.27.663.893.893 0 01-.297.201.944.944 0 01-.37.072.944.944 0 01-.368-.072.893.893 0 01-.298-.201.96.96 0 01-.27-.663.919.919 0 01.27-.663.893.893 0 01.298-.202.944.944 0 01.369-.072zm10.5 9.741h-5.53v-.854l3.875-5.01h-3.78v-.999h5.21v.93l-3.809 4.929h4.034v1.004zm7.936-3.794c0 .17-.002.31-.007.424a6.37 6.37 0 01-.02.322h-4.82c0 .701.196 1.24.588 1.616.392.376.957.564 1.696.564.2 0 .4-.008.601-.024.2-.016.394-.037.581-.065.187-.027.366-.058.537-.092.17-.034.33-.072.475-.113v.978a9.161 9.161 0 01-2.365.308c-.588 0-1.094-.08-1.518-.24a2.597 2.597 0 01-1.042-.694 2.857 2.857 0 01-.602-1.114 5.273 5.273 0 01-.195-1.494c0-.483.07-.94.209-1.37a3.44 3.44 0 01.608-1.135c.267-.326.594-.584.981-.776a2.94 2.94 0 011.32-.287c.478 0 .902.075 1.271.226.37.15.68.363.933.639s.444.61.574 1.005c.13.394.195.835.195 1.322zm-1.237-.17a2.593 2.593 0 00-.089-.838 1.763 1.763 0 00-.338-.653 1.576 1.576 0 00-.571-.427 1.916 1.916 0 00-.793-.154c-.26 0-.497.05-.711.15-.214.101-.399.242-.554.425a2.19 2.19 0 00-.376.656 3.026 3.026 0 00-.178.84h3.61z"/><path id=":{" fill="#878787" d="M48.856 19.912c.142 0 .276.029.404.086a1.107 1.107 0 01.564.564.978.978 0 01.085.403.971.971 0 01-.085.407 1.12 1.12 0 01-.23.331 1.058 1.058 0 01-.738.308c-.145 0-.281-.028-.406-.082a1.07 1.07 0 01-.557-.557 1.006 1.006 0 01-.082-.407 1.058 1.058 0 01.308-.738 1.12 1.12 0 01.33-.23.971.971 0 01.407-.085zm0 5.01c.142 0 .276.03.404.086a1.107 1.107 0 01.564.564.978.978 0 01.085.404.971.971 0 01-.085.406 1.12 1.12 0 01-.23.332 1.058 1.058 0 01-.738.307c-.145 0-.281-.027-.406-.082a1.07 1.07 0 01-.557-.557 1.006 1.006 0 01-.082-.406 1.058 1.058 0 01.308-.738 1.12 1.12 0 01.33-.23.971.971 0 01.407-.085zm17.678 4.78h-.506c-.88 0-1.533-.207-1.962-.62-.428-.412-.642-1.037-.642-1.876v-2.352a2.18 2.18 0 00-.075-.598.978.978 0 00-.264-.444 1.224 1.224 0 00-.499-.277 2.706 2.706 0 00-.782-.096h-.294v-.95h.294c.332 0 .604-.027.813-.082.21-.054.374-.138.492-.25a.88.88 0 00.246-.427c.046-.173.069-.378.069-.615v-1.62c0-.383.045-.728.137-1.036.09-.307.24-.57.447-.786.208-.216.477-.382.807-.499.33-.116.735-.174 1.213-.174h.506v.957h-.403c-1.057 0-1.586.513-1.586 1.538v1.593c0 1.112-.48 1.738-1.442 1.88.97.095 1.456.72 1.456 1.873v2.338c0 1.043.524 1.565 1.572 1.565h.403v.957z"/><path id="width" fill="#000" d="M37.064 37.035l-.998 6.863h-1.442l-.991-2.87-.198-.698-.226.738-.95 2.83h-1.402l-.99-6.863h1.161l.575 4.662.123 1.04.294-.91.998-3.083h.854l1.073 3.042.308.91.102-.965.534-4.696h1.175zm3.678.985h-2.03v-.985h3.233v5.872h2.044v.991h-5.503v-.99h2.256V38.02zm.417-3.863c.132 0 .255.024.37.072a.893.893 0 01.297.202.919.919 0 01.27.663.96.96 0 01-.27.663.893.893 0 01-.298.201.944.944 0 01-.369.072.944.944 0 01-.369-.072.893.893 0 01-.297-.201.96.96 0 01-.27-.663.919.919 0 01.27-.663.893.893 0 01.297-.202.944.944 0 01.37-.072zm4.594 6.453c0-.583.08-1.101.24-1.555.159-.453.385-.836.68-1.148.293-.312.646-.55 1.059-.711a3.743 3.743 0 011.377-.243c.22 0 .434.014.646.041.212.027.42.07.626.13v-2.885h1.196v9.66h-1.066l-.041-1.3c-.333.484-.693.841-1.08 1.074a2.401 2.401 0 01-1.258.348c-.392 0-.737-.082-1.036-.246a2.104 2.104 0 01-.745-.693 3.33 3.33 0 01-.448-1.077 6 6 0 01-.15-1.395zm1.217-.075c0 .83.122 1.448.365 1.856.244.408.59.612 1.036.612.3 0 .619-.135.954-.403.335-.27.687-.668 1.056-1.197v-3.185a2.892 2.892 0 00-.65-.209 3.55 3.55 0 00-.704-.072c-.647 0-1.152.21-1.514.63-.362.419-.543 1.075-.543 1.968zm12.36 3.268a5.793 5.793 0 01-.835.147 8.52 8.52 0 01-.875.044c-.861 0-1.504-.195-1.928-.584-.423-.39-.635-.988-.635-1.795v-3.582h-1.921v-.998h1.92v-1.887l1.19-.307v2.194h3.083v.998h-3.083v3.487c0 .492.131.86.393 1.104.262.243.648.365 1.159.365.219 0 .458-.017.718-.051.26-.034.53-.088.813-.16v1.025zm7.683.095h-1.19v-4.381c0-.529-.099-.924-.297-1.186-.198-.262-.482-.394-.851-.394-.16 0-.309.022-.448.065a1.557 1.557 0 00-.434.226 3.73 3.73 0 00-.492.434c-.178.182-.383.41-.615.684v4.552h-1.19V34.24h1.19v2.796l-.041 1.08c.186-.223.37-.411.55-.564.18-.152.36-.277.54-.372.18-.096.363-.164.55-.205.187-.041.38-.062.581-.062.684 0 1.212.209 1.586.626.374.417.56 1.044.56 1.883v4.477z"/><path id="," fill="#878787" d="M69.727 45.3c.232.009.458-.012.676-.062a2.02 2.02 0 00.578-.222c.166-.098.3-.22.4-.366a.86.86 0 00.15-.499.95.95 0 00-.099-.464 2.238 2.238 0 00-.222-.329 2.438 2.438 0 01-.222-.32.91.91 0 01-.1-.459.915.915 0 01.223-.588.857.857 0 01.287-.212 1.12 1.12 0 01.875.017c.148.066.278.168.39.305.111.136.2.307.266.512.066.205.1.447.1.725 0 .378-.07.742-.21 1.09a2.657 2.657 0 01-.621.926c-.276.27-.62.484-1.032.643-.413.16-.893.24-1.44.24V45.3z"/><path id="height" fill="#000" d="M36.224 60.898h-1.19v-4.381c0-.529-.099-.924-.297-1.186-.198-.262-.482-.394-.851-.394-.16 0-.309.022-.448.065a1.557 1.557 0 00-.434.226 3.73 3.73 0 00-.492.434c-.178.182-.383.41-.616.684v4.552h-1.189V51.24h1.19v2.796l-.042 1.08c.187-.223.37-.411.55-.564.18-.152.36-.277.54-.372.18-.096.364-.164.551-.205.187-.041.38-.062.581-.062.684 0 1.212.209 1.586.626.374.417.56 1.044.56 1.883v4.477zm7.977-3.794c0 .17-.002.31-.007.424a6.37 6.37 0 01-.02.322h-4.82c0 .701.196 1.24.588 1.616.392.376.957.564 1.696.564.2 0 .4-.008.601-.024.2-.016.394-.037.581-.065.187-.027.366-.058.537-.092.17-.034.33-.072.475-.113v.978a9.161 9.161 0 01-2.365.308c-.588 0-1.094-.08-1.518-.24a2.597 2.597 0 01-1.042-.694 2.857 2.857 0 01-.602-1.114 5.273 5.273 0 01-.195-1.494c0-.483.07-.94.209-1.37a3.44 3.44 0 01.608-1.135c.267-.326.594-.584.981-.776a2.94 2.94 0 011.32-.287c.478 0 .902.075 1.271.226.37.15.68.363.933.639s.444.61.574 1.005c.13.394.195.835.195 1.322zm-1.237-.17a2.593 2.593 0 00-.089-.838 1.763 1.763 0 00-.338-.653 1.576 1.576 0 00-.571-.427 1.916 1.916 0 00-.793-.154c-.26 0-.497.05-.711.15-.214.101-.399.242-.554.425a2.19 2.19 0 00-.376.656 3.026 3.026 0 00-.178.84h3.61zm5.475-1.914h-2.03v-.985h3.234v5.872h2.044v.991h-5.503v-.99h2.255V55.02zm.417-3.863c.133 0 .256.024.37.072a.893.893 0 01.297.202.919.919 0 01.27.663.96.96 0 01-.27.663.893.893 0 01-.297.201.944.944 0 01-.37.072.944.944 0 01-.369-.072.893.893 0 01-.297-.201.96.96 0 01-.27-.663.919.919 0 01.27-.663.893.893 0 01.297-.202.944.944 0 01.37-.072zm9.885 3.849c.128.16.227.345.298.557.07.212.106.44.106.687 0 .355-.065.68-.195.974-.13.294-.314.546-.55.755a2.54 2.54 0 01-.852.49c-.33.115-.694.174-1.09.174-.287 0-.556-.031-.807-.093a2.064 2.064 0 01-.594-.229c-.087.128-.16.249-.22.363a.817.817 0 00-.088.382c0 .174.083.317.25.431.166.114.386.176.66.185l1.804.068c.342.01.657.052.947.13.29.077.537.189.745.335.207.146.369.326.485.54.116.214.174.462.174.745 0 .305-.066.595-.198.868a1.985 1.985 0 01-.612.721c-.275.208-.625.373-1.049.496-.424.123-.927.185-1.51.185-.557 0-1.03-.045-1.42-.134-.389-.089-.709-.212-.96-.369a1.49 1.49 0 01-.546-.56 1.51 1.51 0 01-.171-.715c0-.332.077-.624.232-.875.155-.25.394-.492.718-.724a1.133 1.133 0 01-.52-.476 1.322 1.322 0 01-.164-.632c0-.296.07-.567.209-.813.139-.246.304-.479.495-.698a3.57 3.57 0 01-.229-.307 1.91 1.91 0 01-.28-.7 2.536 2.536 0 01-.038-.462c0-.356.065-.68.195-.974.13-.294.312-.546.547-.756.235-.21.517-.372.848-.489.33-.116.696-.174 1.097-.174.169 0 .33.012.485.034.155.023.292.053.41.09h2.489v.97h-1.1zm-4.129 6.884c0 .323.169.56.506.707.337.148.807.222 1.408.222.379 0 .696-.034.954-.102.257-.069.465-.159.622-.27.157-.112.27-.24.338-.383.069-.144.103-.29.103-.441 0-.278-.114-.483-.342-.615-.228-.132-.576-.21-1.046-.233l-1.79-.061c-.151.1-.275.198-.373.294a1.292 1.292 0 00-.23.29 1.127 1.127 0 00-.116.294 1.309 1.309 0 00-.034.298zm.363-5.613c0 .22.036.42.109.602.073.182.175.337.308.465.132.127.288.226.468.297.18.07.38.106.598.106.237 0 .448-.04.632-.12.185-.08.34-.188.465-.324.126-.137.221-.294.287-.472.066-.178.1-.362.1-.554 0-.218-.037-.419-.11-.601a1.316 1.316 0 00-.308-.465 1.404 1.404 0 00-.468-.297c-.18-.071-.38-.106-.598-.106-.237 0-.448.04-.632.123-.185.082-.34.19-.465.324-.125.135-.221.29-.287.469-.066.177-.1.362-.1.553zm12.038 4.621h-1.19v-4.381c0-.529-.099-.924-.297-1.186-.198-.262-.482-.394-.851-.394-.16 0-.309.022-.448.065a1.557 1.557 0 00-.434.226 3.73 3.73 0 00-.492.434c-.178.182-.383.41-.615.684v4.552h-1.19V51.24h1.19v2.796l-.041 1.08c.186-.223.37-.411.55-.564.18-.152.36-.277.54-.372.18-.096.363-.164.55-.205.187-.041.38-.062.581-.062.684 0 1.212.209 1.586.626.374.417.56 1.044.56 1.883v4.477zm7.71-.095a5.793 5.793 0 01-.833.147 8.52 8.52 0 01-.875.044c-.862 0-1.504-.195-1.928-.584-.424-.39-.636-.988-.636-1.795v-3.582h-1.92v-.998h1.92v-1.887l1.19-.307v2.194h3.083v.998H71.64v3.487c0 .492.13.86.393 1.104.262.243.648.365 1.158.365.22 0 .458-.017.718-.051.26-.034.531-.088.814-.16v1.025z"/><path id="}," fill="#878787" d="M15.784 68h.506c.88 0 1.534.206 1.962.619.428.412.643 1.038.643 1.876v1.58c0 .223.025.422.075.597.05.176.138.324.263.445.125.12.293.213.502.277.21.063.472.095.786.095h.294v.95h-.294c-.332 0-.604.028-.816.082a1.116 1.116 0 00-.496.25.88.88 0 00-.246.427 2.438 2.438 0 00-.068.615v2.393c0 .383-.046.728-.137 1.036-.091.307-.24.57-.445.786a1.993 1.993 0 01-.806.499c-.333.116-.738.174-1.217.174h-.506v-.957h.41c1.053 0 1.58-.513 1.58-1.538v-2.365c0-1.112.48-1.737 1.442-1.873-.97-.105-1.456-.732-1.456-1.88v-1.566c0-1.043-.522-1.565-1.566-1.565h-.41V68zm7.759 11.3c.232.009.458-.012.677-.062a2.02 2.02 0 00.577-.222c.167-.098.3-.22.4-.366a.86.86 0 00.15-.499.95.95 0 00-.098-.464 2.238 2.238 0 00-.223-.329 2.438 2.438 0 01-.222-.32.91.91 0 01-.099-.459.915.915 0 01.222-.588.857.857 0 01.287-.212 1.12 1.12 0 01.875.017c.148.066.278.168.39.305.112.136.2.307.267.512.066.205.099.447.099.725 0 .378-.07.742-.209 1.09a2.657 2.657 0 01-.622.926c-.276.27-.62.484-1.032.643-.413.16-.892.24-1.439.24V79.3z"/><path id="items" fill="#000" d="M17.65 89.02h-2.03v-.985h3.234v5.872h2.043v.991h-5.502v-.99h2.255V89.02zm.417-3.863c.133 0 .256.024.37.072a.893.893 0 01.297.202.919.919 0 01.27.663.96.96 0 01-.27.663.893.893 0 01-.297.201.944.944 0 01-.37.072.944.944 0 01-.369-.072.893.893 0 01-.297-.201.96.96 0 01-.27-.663.919.919 0 01.27-.663.893.893 0 01.297-.202.944.944 0 01.37-.072zm10.473 9.646a5.793 5.793 0 01-.834.147 8.52 8.52 0 01-.875.044c-.861 0-1.504-.195-1.928-.584-.424-.39-.635-.988-.635-1.795v-3.582h-1.921v-.998h1.92v-1.887l1.19-.307v2.194h3.083v.998h-3.083v3.487c0 .492.131.86.393 1.104.262.243.648.365 1.159.365.219 0 .458-.017.718-.051.26-.034.53-.088.813-.16v1.025zm7.964-3.699c0 .17-.002.31-.007.424a6.37 6.37 0 01-.02.322h-4.82c0 .701.196 1.24.588 1.616.392.376.957.564 1.695.564.201 0 .401-.008.602-.024.2-.016.394-.037.581-.065.187-.027.366-.058.537-.092.17-.034.329-.072.475-.113v.978a9.161 9.161 0 01-2.365.308c-.588 0-1.094-.08-1.518-.24a2.597 2.597 0 01-1.043-.694 2.857 2.857 0 01-.601-1.114 5.273 5.273 0 01-.195-1.494c0-.483.07-.94.209-1.37a3.44 3.44 0 01.608-1.135c.267-.326.594-.584.98-.776a2.94 2.94 0 011.32-.287c.479 0 .903.075 1.272.226.369.15.68.363.933.639s.444.61.574 1.005c.13.394.195.835.195 1.322zm-1.237-.17a2.593 2.593 0 00-.09-.838 1.763 1.763 0 00-.338-.653 1.576 1.576 0 00-.57-.427 1.916 1.916 0 00-.793-.154c-.26 0-.497.05-.711.15-.215.101-.4.242-.554.425a2.19 2.19 0 00-.376.656 3.026 3.026 0 00-.178.84h3.61zm8.032 3.964V89.97c0-.214-.008-.39-.024-.527a1.2 1.2 0 00-.075-.324.348.348 0 00-.13-.168.43.43 0 00-.448.034c-.077.055-.16.144-.25.267a4.216 4.216 0 00-.293.489c-.107.203-.234.452-.38.748v4.41h-1.087v-4.8c0-.25-.008-.453-.024-.608a1.42 1.42 0 00-.075-.362.34.34 0 00-.133-.178.431.431 0 00-.43.02.988.988 0 00-.243.247c-.09.118-.188.28-.298.485-.11.205-.24.467-.39.786v4.41h-1.093v-6.864h.909l.055 1.306c.118-.26.233-.481.345-.663.112-.183.227-.33.345-.441.119-.112.245-.194.38-.246.134-.053.283-.079.447-.079.37 0 .65.12.841.362.191.242.287.616.287 1.122.11-.237.217-.448.321-.633a2.31 2.31 0 01.339-.465c.12-.125.254-.22.4-.287.146-.066.314-.099.506-.099.86 0 1.292.663 1.292 1.99v4.996h-1.094zm8.237-1.873a1.634 1.634 0 01-.458 1.16 2.084 2.084 0 01-.492.378 3.272 3.272 0 01-.598.26c-.212.069-.43.119-.653.15a4.637 4.637 0 01-.656.048 12.3 12.3 0 01-1.282-.061 8.646 8.646 0 01-1.145-.198v-1.094c.401.114.8.2 1.196.26.397.059.79.089 1.183.089.57 0 .991-.078 1.265-.233.273-.155.41-.376.41-.663a.812.812 0 00-.065-.331.753.753 0 00-.236-.28 2.254 2.254 0 00-.53-.278 11.81 11.81 0 00-.98-.328 6.963 6.963 0 01-.859-.31 2.877 2.877 0 01-.68-.414 1.776 1.776 0 01-.451-.56 1.649 1.649 0 01-.164-.76 1.744 1.744 0 01.588-1.264c.214-.196.503-.36.868-.49.364-.129.82-.194 1.367-.194.269 0 .567.015.896.045.328.03.67.08 1.025.153v1.06a9.803 9.803 0 00-1.063-.202 6.926 6.926 0 00-.872-.065c-.296 0-.545.023-.748.069a1.553 1.553 0 00-.492.188.734.734 0 00-.27.28.748.748 0 00-.082.345c0 .123.024.235.071.335.048.1.137.197.267.29.13.094.311.187.543.28.233.094.536.196.91.305.405.119.747.243 1.025.373.278.13.504.274.677.434.173.16.297.34.372.54.076.2.113.428.113.683z"/><path id=":[" fill="#878787" d="M56.554 87.912c.141 0 .275.029.403.086a1.107 1.107 0 01.564.564.978.978 0 01.085.403.971.971 0 01-.085.407 1.12 1.12 0 01-.229.331 1.058 1.058 0 01-.738.308c-.146 0-.282-.028-.407-.082a1.07 1.07 0 01-.557-.557 1.006 1.006 0 01-.082-.407 1.058 1.058 0 01.308-.738 1.12 1.12 0 01.331-.23.971.971 0 01.407-.085zm0 5.01c.141 0 .275.03.403.086a1.107 1.107 0 01.564.564.978.978 0 01.085.404.971.971 0 01-.085.406 1.12 1.12 0 01-.229.332 1.058 1.058 0 01-.738.307c-.146 0-.282-.027-.407-.082a1.07 1.07 0 01-.557-.557 1.006 1.006 0 01-.082-.406 1.058 1.058 0 01.308-.738 1.12 1.12 0 01.331-.23.971.971 0 01.407-.085zm17.274 4.78h-3.37V85h3.37v.957h-2.235v10.787h2.235v.957z"/><path id="item1" fill="#000" d="M79.229 89.02h-2.03v-.985h3.233v5.872h2.044v.991h-5.503v-.99h2.256V89.02zm.417-3.863c.132 0 .255.024.369.072a.893.893 0 01.297.202.919.919 0 01.27.663.96.96 0 01-.27.663.893.893 0 01-.297.201.944.944 0 01-.37.072.944.944 0 01-.369-.072.893.893 0 01-.297-.201.96.96 0 01-.27-.663.919.919 0 01.27-.663.893.893 0 01.297-.202.944.944 0 01.37-.072zm10.472 9.646a5.793 5.793 0 01-.834.147 8.52 8.52 0 01-.875.044c-.861 0-1.504-.195-1.928-.584-.423-.39-.635-.988-.635-1.795v-3.582h-1.921v-.998h1.92v-1.887l1.19-.307v2.194h3.083v.998h-3.083v3.487c0 .492.131.86.393 1.104.262.243.648.365 1.159.365.219 0 .458-.017.718-.051.26-.034.53-.088.813-.16v1.025zm7.964-3.699c0 .17-.002.31-.007.424a6.37 6.37 0 01-.02.322h-4.82c0 .701.196 1.24.588 1.616.392.376.957.564 1.696.564.2 0 .4-.008.601-.024.2-.016.394-.037.581-.065.187-.027.366-.058.537-.092.17-.034.33-.072.475-.113v.978a9.161 9.161 0 01-2.365.308c-.588 0-1.094-.08-1.518-.24a2.597 2.597 0 01-1.042-.694 2.857 2.857 0 01-.602-1.114 5.273 5.273 0 01-.195-1.494c0-.483.07-.94.209-1.37a3.44 3.44 0 01.608-1.135c.267-.326.594-.584.981-.776a2.94 2.94 0 011.32-.287c.478 0 .902.075 1.27.226.37.15.681.363.934.639s.444.61.574 1.005c.13.394.195.835.195 1.322zm-1.237-.17a2.593 2.593 0 00-.09-.838 1.763 1.763 0 00-.338-.653 1.576 1.576 0 00-.57-.427 1.916 1.916 0 00-.793-.154c-.26 0-.497.05-.711.15-.214.101-.399.242-.554.425a2.19 2.19 0 00-.376.656 3.026 3.026 0 00-.178.84h3.61zm8.032 3.964V89.97c0-.214-.008-.39-.024-.527a1.2 1.2 0 00-.075-.324.348.348 0 00-.13-.168.43.43 0 00-.448.034c-.077.055-.16.144-.25.267a4.216 4.216 0 00-.293.489c-.107.203-.234.452-.38.748v4.41h-1.087v-4.8c0-.25-.008-.453-.023-.608a1.42 1.42 0 00-.076-.362.34.34 0 00-.133-.178.431.431 0 00-.43.02.988.988 0 00-.243.247c-.09.118-.188.28-.298.485-.11.205-.239.467-.39.786v4.41h-1.093v-6.864h.91l.054 1.306c.118-.26.233-.481.345-.663.112-.183.227-.33.345-.441.119-.112.245-.194.38-.246.134-.053.283-.079.447-.079.37 0 .65.12.841.362.192.242.287.616.287 1.122.11-.237.217-.448.322-.633a2.31 2.31 0 01.338-.465c.12-.125.254-.22.4-.287.146-.066.314-.099.506-.099.861 0 1.292.663 1.292 1.99v4.996h-1.094zm8.524 0h-5.612v-1.107h2.297V87.27l-2.14 1.162-.437-1.012 2.844-1.497h1.052v7.868h1.996v1.107z"/><path id="," fill="#878787" d="M115.91 96.3c.233.009.458-.012.677-.062a2.02 2.02 0 00.578-.222c.166-.098.3-.22.4-.366a.86.86 0 00.15-.499.95.95 0 00-.1-.464 2.238 2.238 0 00-.221-.329 2.438 2.438 0 01-.223-.32.91.91 0 01-.099-.459.915.915 0 01.222-.588.857.857 0 01.288-.212 1.12 1.12 0 01.875.017c.148.066.278.168.39.305.11.136.2.307.266.512.066.205.099.447.099.725 0 .378-.07.742-.209 1.09a2.657 2.657 0 01-.622.926c-.275.27-.62.484-1.032.643-.412.16-.892.24-1.439.24V96.3z"/><path id="item2" fill="#000" d="M133.11 89.02h-2.03v-.985h3.232v5.872h2.044v.991h-5.502v-.99h2.255V89.02zm.416-3.863c.133 0 .256.024.37.072a.893.893 0 01.297.202.919.919 0 01.27.663.96.96 0 01-.27.663.893.893 0 01-.297.201.944.944 0 01-.37.072.944.944 0 01-.369-.072.893.893 0 01-.297-.201.96.96 0 01-.27-.663.919.919 0 01.27-.663.893.893 0 01.297-.202.944.944 0 01.37-.072zM144 94.803a5.793 5.793 0 01-.834.147 8.52 8.52 0 01-.875.044c-.861 0-1.504-.195-1.928-.584-.424-.39-.635-.988-.635-1.795v-3.582h-1.921v-.998h1.92v-1.887l1.19-.307v2.194h3.083v.998h-3.083v3.487c0 .492.131.86.393 1.104.262.243.648.365 1.159.365.219 0 .458-.017.718-.051.26-.034.53-.088.813-.16v1.025zm7.964-3.699c0 .17-.002.31-.007.424a6.37 6.37 0 01-.02.322h-4.82c0 .701.196 1.24.588 1.616.392.376.957.564 1.695.564.2 0 .401-.008.602-.024.2-.016.394-.037.581-.065.187-.027.366-.058.537-.092.17-.034.329-.072.475-.113v.978a9.161 9.161 0 01-2.365.308c-.588 0-1.094-.08-1.518-.24a2.597 2.597 0 01-1.043-.694 2.857 2.857 0 01-.601-1.114 5.273 5.273 0 01-.195-1.494c0-.483.07-.94.209-1.37a3.44 3.44 0 01.608-1.135c.267-.326.594-.584.98-.776a2.94 2.94 0 011.32-.287c.479 0 .903.075 1.272.226.369.15.68.363.933.639s.444.61.574 1.005c.13.394.195.835.195 1.322zm-1.237-.17a2.593 2.593 0 00-.09-.838 1.763 1.763 0 00-.338-.653 1.576 1.576 0 00-.57-.427 1.916 1.916 0 00-.793-.154c-.26 0-.497.05-.711.15-.215.101-.4.242-.554.425a2.19 2.19 0 00-.376.656 3.026 3.026 0 00-.178.84h3.61zm8.032 3.964V89.97c0-.214-.008-.39-.024-.527a1.2 1.2 0 00-.075-.324.348.348 0 00-.13-.168.43.43 0 00-.448.034c-.077.055-.16.144-.25.267a4.216 4.216 0 00-.293.489 30.3 30.3 0 00-.38.748v4.41h-1.087v-4.8c0-.25-.008-.453-.024-.608a1.42 1.42 0 00-.075-.362.34.34 0 00-.133-.178.431.431 0 00-.43.02.988.988 0 00-.243.247 3.85 3.85 0 00-.298.485c-.11.205-.24.467-.39.786v4.41h-1.093v-6.864h.909l.055 1.306c.118-.26.233-.481.345-.663.112-.183.227-.33.345-.441.119-.112.245-.194.38-.246.134-.053.283-.079.447-.079.37 0 .65.12.841.362.191.242.287.616.287 1.122.11-.237.217-.448.321-.633a2.31 2.31 0 01.339-.465c.12-.125.254-.22.4-.287.146-.066.314-.099.506-.099.86 0 1.292.663 1.292 1.99v4.996h-1.094zm8.6 0h-5.886v-1.066l2.31-2.297c.378-.374.686-.697.923-.97.237-.274.422-.523.554-.75a2.28 2.28 0 00.266-.638c.046-.2.069-.417.069-.65 0-.218-.03-.427-.09-.625a1.49 1.49 0 00-.273-.523 1.268 1.268 0 00-.478-.356 1.734 1.734 0 00-.704-.13c-.378 0-.723.085-1.032.253-.31.17-.595.388-.855.657l-.656-.786c.337-.356.726-.64 1.165-.855.44-.214.952-.321 1.535-.321.397 0 .758.06 1.084.178.325.118.607.289.844.512.237.224.42.497.55.82.13.324.195.689.195 1.094 0 .342-.046.659-.137.95a3.646 3.646 0 01-.413.872c-.185.29-.417.59-.698.899-.28.31-.611.65-.994 1.019l-1.62 1.579h4.34v1.134z"/><path id="]," fill="#878787" d="M173.503 97.701h-3.37v-.957h2.221V85.957h-2.221V85h3.37v12.701zm3.985-1.401c.233.009.458-.012.677-.062a2.02 2.02 0 00.578-.222c.166-.098.3-.22.4-.366a.86.86 0 00.15-.499.95.95 0 00-.1-.464 2.238 2.238 0 00-.221-.329 2.438 2.438 0 01-.222-.32.91.91 0 01-.1-.459.915.915 0 01.223-.588.857.857 0 01.287-.212 1.12 1.12 0 01.875.017c.148.066.278.168.39.305.111.136.2.307.266.512.066.205.099.447.099.725 0 .378-.07.742-.208 1.09a2.657 2.657 0 01-.623.926c-.275.27-.62.484-1.032.643-.412.16-.892.24-1.439.24V96.3z"/><path id="title" fill="#000" d="M20.843 111.803a5.793 5.793 0 01-.834.147 8.52 8.52 0 01-.875.044c-.862 0-1.504-.195-1.928-.584-.424-.39-.636-.988-.636-1.795v-3.582h-1.92v-.998h1.92v-1.887l1.19-.307v2.194h3.083v.998H17.76v3.487c0 .492.13.86.393 1.104.262.243.648.365 1.159.365.218 0 .458-.017.717-.051.26-.034.531-.088.814-.16v1.025zm4.505-5.783h-2.03v-.985h3.233v5.872h2.044v.991h-5.503v-.99h2.256v-4.888zm.417-3.863c.132 0 .255.024.369.072a.893.893 0 01.297.202.919.919 0 01.27.663.96.96 0 01-.27.663.893.893 0 01-.297.201.944.944 0 01-.37.072.944.944 0 01-.368-.072.893.893 0 01-.298-.201.96.96 0 01-.27-.663.919.919 0 01.27-.663.893.893 0 01.298-.202.944.944 0 01.369-.072zm10.472 9.646a5.793 5.793 0 01-.834.147 8.52 8.52 0 01-.875.044c-.861 0-1.504-.195-1.927-.584-.424-.39-.636-.988-.636-1.795v-3.582h-1.921v-.998h1.92v-1.887l1.19-.307v2.194h3.083v.998h-3.083v3.487c0 .492.131.86.393 1.104.262.243.649.365 1.16.365.218 0 .457-.017.717-.051.26-.034.53-.088.813-.16v1.025zm4.505-8.586h-2.03v-.978h3.233v8.668h2.044v.991h-5.503v-.99h2.256v-7.691zm11.156 4.887c0 .17-.002.31-.006.424a6.37 6.37 0 01-.02.322h-4.82c0 .701.196 1.24.588 1.616.392.376.957.564 1.695.564.2 0 .401-.008.602-.024.2-.016.394-.037.58-.065.187-.027.366-.058.537-.092.171-.034.33-.072.475-.113v.978a9.161 9.161 0 01-2.365.308c-.588 0-1.094-.08-1.518-.24a2.597 2.597 0 01-1.042-.694 2.857 2.857 0 01-.602-1.114 5.273 5.273 0 01-.194-1.494c0-.483.07-.94.208-1.37a3.44 3.44 0 01.609-1.135c.266-.326.593-.584.98-.776a2.94 2.94 0 011.32-.287c.478 0 .902.075 1.271.226.37.15.68.363.933.639s.445.61.575 1.005c.13.394.194.835.194 1.322zm-1.237-.17a2.593 2.593 0 00-.089-.838 1.763 1.763 0 00-.338-.653 1.576 1.576 0 00-.57-.427 1.916 1.916 0 00-.794-.154c-.26 0-.497.05-.71.15-.215.101-.4.242-.555.425a2.19 2.19 0 00-.376.656 3.026 3.026 0 00-.177.84h3.61z"/><path id="=" fill="#946C47" d="M67.19 107.482h-5.878v-1.004h5.878v1.004zm0 2.38h-5.878v-1.006h5.878v1.005z"/><path id="&quot;Menu&quot;" fill="#558A03" d="M79.071 102.24l-.191 3.205h-1.121l-.198-3.206h1.51zm2.66 0l-.192 3.205h-1.121l-.198-3.206h1.51zm9.125 9.658h-1.189l-.178-5.57-.075-2.14-.417 1.244-1.32 3.554h-.84l-1.258-3.418-.417-1.38-.027 2.235-.157 5.475h-1.149l.438-8.934h1.442l1.203 3.363.39 1.135.376-1.135 1.264-3.363h1.484l.43 8.934zm7.226-3.794c0 .17-.002.31-.007.424a6.37 6.37 0 01-.02.322h-4.82c0 .701.196 1.24.588 1.616.392.376.957.564 1.696.564.2 0 .4-.008.601-.024.2-.016.394-.037.581-.065.187-.027.366-.058.537-.092.17-.034.33-.072.475-.113v.978a9.161 9.161 0 01-2.365.308c-.588 0-1.094-.08-1.518-.24a2.597 2.597 0 01-1.042-.694 2.857 2.857 0 01-.602-1.114 5.273 5.273 0 01-.195-1.494c0-.483.07-.94.209-1.37a3.44 3.44 0 01.608-1.135c.267-.326.594-.584.981-.776a2.94 2.94 0 011.32-.287c.478 0 .902.075 1.27.226.37.15.681.363.934.639s.444.61.574 1.005c.13.394.195.835.195 1.322zm-1.237-.17a2.593 2.593 0 00-.09-.838 1.763 1.763 0 00-.338-.653 1.576 1.576 0 00-.57-.427 1.916 1.916 0 00-.793-.154c-.26 0-.497.05-.711.15-.214.101-.399.242-.554.425a2.19 2.19 0 00-.376.656 3.026 3.026 0 00-.178.84h3.61zm3.137-2.899h1.06l.048 1.108c.2-.237.394-.435.58-.592.188-.157.371-.283.551-.38a2.06 2.06 0 01.55-.2c.187-.04.381-.059.582-.059.706 0 1.24.209 1.603.626.362.417.543 1.044.543 1.883v4.477h-1.19v-4.381c0-.538-.1-.936-.3-1.193-.2-.258-.5-.386-.896-.386-.146 0-.288.021-.427.064a1.557 1.557 0 00-.434.226c-.15.107-.313.252-.489.434-.175.182-.372.41-.591.684v4.552h-1.19v-6.863zm13.214 6.863h-1.066l-.041-1.107a5.54 5.54 0 01-.585.591 3.021 3.021 0 01-.55.38 2.119 2.119 0 01-.55.201 2.84 2.84 0 01-.585.058c-.706 0-1.24-.207-1.6-.622-.36-.414-.54-1.04-.54-1.88v-4.484h1.19v4.389c0 1.053.397 1.579 1.19 1.579.145 0 .288-.022.427-.065.139-.043.285-.119.437-.226.153-.107.317-.251.493-.434.175-.182.372-.412.59-.69v-4.553h1.19v6.863zm4.362-9.659l-.192 3.206h-1.12l-.2-3.206h1.512zm2.659 0l-.192 3.206h-1.12l-.199-3.206h1.51z"/><path id="}" fill="#878787" d="M.39 119h.506c.88 0 1.533.206 1.961.619.429.412.643 1.038.643 1.876v1.58c0 .223.025.422.075.597.05.176.138.324.263.445.126.12.293.213.503.277.21.063.471.095.786.095h.294v.95h-.294c-.333 0-.605.028-.817.082a1.116 1.116 0 00-.496.25.88.88 0 00-.246.427 2.438 2.438 0 00-.068.615v2.393c0 .383-.046.728-.137 1.036-.09.307-.239.57-.444.786a1.993 1.993 0 01-.807.499c-.332.116-.738.174-1.216.174H.39v-.957H.8c1.053 0 1.579-.513 1.579-1.538v-2.365c0-1.112.48-1.737 1.442-1.873-.97-.105-1.456-.732-1.456-1.88v-1.566c0-1.043-.522-1.565-1.565-1.565H.39V119z"/></g><path id="Line-Copy" fill="#EE6B47" d="M253.5 52.5h-40v-2h40v-6l14 7-14 7v-6z"/><path id="Line-Copy-2" fill="#EE6B47" d="M253.5 67.5h-40v-2h40v-6l14 7-14 7v-6z"/><path id="Line-Copy-3" fill="#EE6B47" d="M253.5 102.5h-40v-2h40v-6l14 7-14 7v-6z"/></g></g></svg>