<svg xmlns="http://www.w3.org/2000/svg" width="500" height="183" viewBox="0 0 500 183"><defs><style>@import url(https://fonts.googleapis.com/css?family=Open+Sans:bold,italic,bolditalic%7CPT+Mono);@font-face{font-family:&apos;PT Mono&apos;;font-weight:700;font-style:normal;src:local(&apos;PT MonoBold&apos;),url(/font/PTMonoBold.woff2) format(&apos;woff2&apos;),url(/font/PTMonoBold.woff) format(&apos;woff&apos;),url(/font/PTMonoBold.ttf) format(&apos;truetype&apos;)}</style></defs><g id="combined" fill="none" fill-rule="evenodd" stroke="none" stroke-width="1"><g id="debounce.svg"><text id="200" fill="#8A704D" font-family="PTMono-Regular, PT Mono" font-size="14" font-weight="normal"><tspan x="115" y="138">200</tspan></text><text id="1500" fill="#8A704D" font-family="PTMono-Regular, PT Mono" font-size="14" font-weight="normal"><tspan x="314" y="141">1500</tspan></text><path id="Shape" fill="#EE6B47" stroke="#EE6B47" stroke-linecap="square" stroke-width="3" d="M333.378 27.32L340.92 11 321 32.024l9.674 2.932L324.797 51 343 30.253l-9.622-2.932zm4.369-11.617l-5.669 12.226 9.206 2.767-13.887 15.989 4.525-12.338-9.206-2.766 15.031-15.878z"/><text id="0" fill="#8A704D" font-family="PTMono-Regular, PT Mono" font-size="14" font-weight="normal"><tspan x="83" y="138">0</tspan></text><text id="c" fill="#EE6B47" font-family="PTMono-Regular, PT Mono" font-size="14" font-weight="normal"><tspan x="323" y="74">c</tspan></text><text id="f(a)" fill="#EE6B47" font-family="PTMono-Regular, PT Mono" font-size="14" font-weight="normal"><tspan x="71" y="164">f(a)</tspan></text><text id="f(b)" fill="#EE6B47" font-family="PTMono-Regular, PT Mono" font-size="14" font-weight="normal"><tspan x="111" y="164">f(b)</tspan></text><text id="f(c)" fill="#EE6B47" font-family="PTMono-Regular, PT Mono" font-size="14" font-weight="normal"><tspan x="171" y="164">f(c)</tspan></text><path id="Line-Copy" stroke="#BCA68E" stroke-linecap="square" stroke-width="2" d="M127.5 120V85"/><text id="500" fill="#8A704D" font-family="PTMono-Regular, PT Mono" font-size="14" font-weight="normal"><tspan x="175" y="138">500</tspan></text><path id="Line-Copy" stroke="#BCA68E" stroke-linecap="square" stroke-width="2" d="M87.5 120V85"/><text id="time" fill="#8A704D" font-family="PTMono-Regular, PT Mono" font-size="14" font-weight="normal"><tspan x="417" y="125">time</tspan></text><path id="Line" fill="#BCA68E" fill-rule="nonzero" d="M422.369 94.388l.871.49 12 6.75 1.55.872-1.55.872-12 6.75-.871.49-.98-1.743.87-.49 8.673-4.879H38v-2h392.932l-8.672-4.878-.872-.49.98-1.744z"/><path id="Line-Copy" stroke="#BCA68E" stroke-linecap="square" stroke-width="2" d="M187.5 120V85"/><path id="Line-2" stroke="#EE6B47" stroke-linecap="square" stroke-width="3" d="M327.5 120V85"/><text id="calls:" fill="#8A704D" font-family="PTMono-Regular, PT Mono" font-size="14" font-weight="normal"><tspan x="7" y="164">calls:</tspan></text><text id="after-1000ms" fill="#8A704D" font-family="PTMono-Regular, PT Mono" font-size="14" font-weight="normal"><tspan x="348" y="35"> after 1000ms</tspan></text></g></g></svg>