<svg xmlns="http://www.w3.org/2000/svg" width="500" height="183" viewBox="0 0 500 183"><defs><style>@import url(https://fonts.googleapis.com/css?family=Open+Sans:bold,italic,bolditalic%7CPT+Mono);@font-face{font-family:&apos;PT Mono&apos;;font-weight:700;font-style:normal;src:local(&apos;PT MonoBold&apos;),url(/font/PTMonoBold.woff2) format(&apos;woff2&apos;),url(/font/PTMonoBold.woff) format(&apos;woff&apos;),url(/font/PTMonoBold.ttf) format(&apos;truetype&apos;)}</style></defs><g id="combined" fill="none" fill-rule="evenodd" stroke="none" stroke-width="1"><g id="debounce.svg"><text id="200ms" fill="#AF6E24" font-family="PTMono-Regular, PT Mono" font-size="14" font-weight="normal"><tspan x="117" y="142">200ms</tspan></text><text id="1500ms" fill="#AF6E24" font-family="PTMono-Regular, PT Mono" font-size="14" font-weight="normal"><tspan x="321" y="142">1500ms</tspan></text><text id="1000ms" fill="#AF6E24" font-family="PTMono-Regular, PT Mono" font-size="14" font-weight="normal"><tspan x="242" y="80">1000ms</tspan></text><path id="Shape" fill="#C06334" stroke="#C06334" stroke-linecap="square" stroke-width="3" d="M343.378 28.32L350.92 12 331 33.024l9.674 2.932L334.797 52 353 31.253l-9.622-2.932zm4.369-11.617l-5.669 12.226 9.206 2.767-13.887 15.989 4.525-12.338-9.206-2.766 15.031-15.878z"/><text id="0" fill="#AF6E24" font-family="PTMono-Regular, PT Mono" font-size="14" font-weight="normal"><tspan x="93" y="142">0</tspan></text><text id="c" fill="#C06334" font-family="PTMono-Regular, PT Mono" font-size="14" font-weight="normal"><tspan x="333" y="72">c</tspan></text><text id="f(a)" fill="#C06334" font-family="PTMono-Regular, PT Mono" font-size="14" font-weight="normal"><tspan x="81" y="164">f(a)</tspan></text><text id="f(b)" fill="#C06334" font-family="PTMono-Regular, PT Mono" font-size="14" font-weight="normal"><tspan x="121" y="164">f(b)</tspan></text><text id="f(c)" fill="#C06334" font-family="PTMono-Regular, PT Mono" font-size="14" font-weight="normal"><tspan x="181" y="164">f(c)</tspan></text><text id="500ms" fill="#AF6E24" font-family="PTMono-Regular, PT Mono" font-size="14" font-weight="normal"><tspan x="177" y="142">500ms</tspan></text><text id="time" fill="#AF6E24" font-family="PTMono-Regular, PT Mono" font-size="14" font-weight="normal"><tspan x="427" y="125">time</tspan></text><text id="calls:" fill="#AF6E24" font-family="PTMono-Regular, PT Mono" font-size="14" font-weight="normal"><tspan x="7" y="164">calls:</tspan></text><path id="Line" fill="#DBAF88" fill-rule="nonzero" d="M432.369 94.388l.871.49 12 6.75 1.55.872-1.55.872-12 6.75-.871.49-.98-1.743.87-.49 8.673-4.879H48v-2h392.932l-8.672-4.878-.872-.49.98-1.744z"/><text id="after-1000ms" fill="#AF6E24" font-family="PTMono-Regular, PT Mono" font-size="14" font-weight="normal"><tspan x="358" y="36"> after 1000ms</tspan></text><path id="Line-Copy" stroke="#DBAF88" stroke-linecap="square" stroke-width="2" d="M137.5 125V80M97.5 125V80M197.5 125V80"/><path id="Line-2" stroke="#C06334" stroke-linecap="square" stroke-width="3" d="M337.5 125V80"/><path id="Line-25" fill="#DBAF88" fill-rule="nonzero" d="M212.631 77.888l.98 1.743-.87.49L204.066 85H206v2h-1.933l8.673 4.878.872.49-.98 1.744-.872-.49-12-6.75-1.55-.872 1.55-.872 12-6.75.871-.49zm108.738 0l.871.49 12 6.75 1.55.872-1.55.872-12 6.75-.871.49-.98-1.743.87-.49L329.932 87H329v-2h.934l-8.674-4.878-.872-.49.98-1.744zM214 85v2h-5v-2h5zm8 0v2h-5v-2h5zm8 0v2h-5v-2h5zm8 0v2h-5v-2h5zm8 0v2h-5v-2h5zm8 0v2h-5v-2h5zm8 0v2h-5v-2h5zm8 0v2h-5v-2h5zm8 0v2h-5v-2h5zm8 0v2h-5v-2h5zm8 0v2h-5v-2h5zm8 0v2h-5v-2h5zm8 0v2h-5v-2h5zm8 0v2h-5v-2h5zm8 0v2h-5v-2h5z"/></g></g></svg>