<svg xmlns="http://www.w3.org/2000/svg" xmlns:xlink="http://www.w3.org/1999/xlink" width="683" height="229" viewBox="0 0 683 229"><defs><style>@import url(https://fonts.googleapis.com/css?family=Open+Sans:bold,italic,bolditalic%7CPT+Mono);@font-face{font-family:&apos;PT Mono&apos;;font-weight:700;font-style:normal;src:local(&apos;PT MonoBold&apos;),url(/font/PTMonoBold.woff2) format(&apos;woff2&apos;),url(/font/PTMonoBold.woff) format(&apos;woff&apos;),url(/font/PTMonoBold.ttf) format(&apos;truetype&apos;)}</style></defs><defs><path id="path-1" d="M183 54h367v21H183z"/><mask id="mask-2" width="367" height="21" x="0" y="0" fill="#fff" maskContentUnits="userSpaceOnUse" maskUnits="objectBoundingBox"><use xlink:href="#path-1"/></mask></defs><g id="selection-range" fill="none" fill-rule="evenodd" stroke="none" stroke-width="1"><g id="range-example-p-2-b-3-range.svg"><path id="Path" stroke="#C06334" stroke-width="2" d="M160 68v10h106V68"/><path id="Path-Copy-2" stroke="#C06334" stroke-width="2" d="M126 143v19h532v-19"/><path id="Path-Copy" stroke="#C06334" stroke-width="2" d="M514 70v10h50V70"/><use id="Rectangle" fill="#C9DCEA" stroke="#C9DCEA" stroke-dasharray="5,2" stroke-width="2" mask="url(#mask-2)" xlink:href="#path-1"/><text id="startContainer-(&lt;p&gt;." fill="#181717" font-family="PTMono-Regular, PT Mono" font-size="16" font-weight="normal"><tspan x="10.3" y="118">startContainer</tspan> <tspan x=".7" y="136">(&lt;p&gt;.firstChild)</tspan></text><path id="Line-Copy" fill="#C06334" fill-rule="nonzero" d="M183 74l7 14h-6v16h-2V88h-6l7-14zM155 81l-6.166 14.387-3.876-4.581-15.312 12.957-.763.646-1.292-1.526.763-.646 15.312-12.958-3.875-4.58L155 81zM501 82l-6.166 14.387-3.876-4.581-15.312 12.957-.763.646-1.292-1.526.763-.646 15.312-12.958-3.875-4.58L501 82z"/><path id="Line-Copy-2" fill="#C06334" fill-rule="nonzero" d="M550 73l7 14h-6v16h-2V87h-6l7-14z"/><text id="startOffset-(=2)" fill="#181717" font-family="PTMono-Regular, PT Mono" font-size="16" font-weight="normal"><tspan x="170.2" y="118">startOffset</tspan> <tspan x="203.8" y="136">(=2)</tspan></text><text id="commonAncestorContai" fill="#181717" font-family="PTMono-Regular, PT Mono" font-size="16" font-weight="normal"><tspan x="316.1" y="181">commonAncestorContainer</tspan> <tspan x="402.5" y="199">(&lt;p&gt;)</tspan></text><text id="endContainer-(&lt;b&gt;.fi" fill="#181717" font-family="PTMono-Regular, PT Mono" font-size="16" font-weight="normal"><tspan x="388.9" y="117">endContainer</tspan> <tspan x="369.7" y="135">(&lt;b&gt;.firstChild)</tspan></text><text id="endOffset-(=3)" fill="#181717" font-family="PTMono-Regular, PT Mono" font-size="16" font-weight="normal"><tspan x="537.3" y="118">endOffset</tspan> <tspan x="561.3" y="136">(=3)</tspan></text><g id="&lt;p&gt;Example:-&lt;i&gt;itali" fill="#AF6E24" fill-rule="nonzero" transform="translate(125 54)"><path id="&lt;p&gt;Example:&lt;i&gt;italic&lt;/i&gt;and&lt;b&gt;bold&lt;/b&gt;&lt;/p&gt;" d="M.81 10.51v-.522l8.478-5.166.684 1.116-7.146 4.23 7.164 4.158-.684 1.08L.81 10.51zm12.718-.36a18.063 18.063 0 00-.081-1.512 5.988 5.988 0 00-.063-.468h-1.206V7h2.394l.18 1.26h.09a4.06 4.06 0 011.233-1.053c.498-.282 1.107-.423 1.827-.423 1.284 0 2.25.354 2.898 1.062.648.708.972 1.866.972 3.474 0 .756-.111 1.437-.333 2.043a4.295 4.295 0 01-.945 1.539c-.408.42-.9.744-1.476.972a5.141 5.141 0 01-1.908.342c-.252 0-.477-.009-.675-.027a5.93 5.93 0 01-.54-.072 4.255 4.255 0 01-.477-.117 6.561 6.561 0 01-.504-.18v3.78h-1.386v-9.45zm4.14-2.052c-.36 0-.699.066-1.017.198a3.034 3.034 0 00-1.449 1.242 2.118 2.118 0 00-.288.792v4.104a3.3 3.3 0 00.891.423c.33.102.765.153 1.305.153.96 0 1.728-.315 2.304-.945.576-.63.864-1.551.864-2.763 0-1.02-.201-1.809-.603-2.367-.402-.558-1.071-.837-2.007-.837zm7.426 7.308l-.684-1.08 7.164-4.158-7.146-4.23.684-1.116 8.478 5.166v.522l-8.496 4.896zM37.326 3.4h7.398v1.332H38.82v4.122h5.454v1.332H38.82v4.482h5.994V16h-7.488V3.4zm14.428 7.992L48.28 7h1.8l2.592 3.384L55.336 7h1.62l-3.474 4.32 3.69 4.68h-1.728l-2.862-3.69L49.666 16h-1.638l3.726-4.608zm9.19-3.69a5.717 5.717 0 011.746-.648 9.544 9.544 0 011.908-.198c.612 0 1.113.096 1.503.288.39.192.696.441.918.747.222.306.372.654.45 1.044.078.39.117.783.117 1.179 0 .456-.012.942-.036 1.458a66.688 66.688 0 00-.054 1.548c0 .6.036 1.17.108 1.71h1.206V16h-2.394l-.162-1.35h-.09c-.072.108-.18.246-.324.414a2.964 2.964 0 01-.567.495 3.664 3.664 0 01-.855.423c-.336.12-.732.18-1.188.18-.888 0-1.59-.228-2.106-.684-.516-.456-.774-1.08-.774-1.872 0-.612.135-1.122.405-1.53.27-.408.657-.72 1.161-.936.504-.216 1.113-.342 1.827-.378.714-.036 1.515.012 2.403.144.06-.552.069-1.011.027-1.377-.042-.366-.138-.657-.288-.873a1.206 1.206 0 00-.63-.459c-.27-.09-.603-.135-.999-.135-.54 0-1.056.075-1.548.225-.492.15-.93.303-1.314.459l-.45-1.044zm2.646 7.254c.336 0 .648-.054.936-.162.288-.108.54-.246.756-.414a2.743 2.743 0 00.864-1.116v-1.26c-.624-.108-1.2-.162-1.728-.162s-.984.057-1.368.171c-.384.114-.684.291-.9.531-.216.24-.324.552-.324.936 0 .396.135.741.405 1.035.27.294.723.441 1.359.441zM75.516 16v-5.994a9.51 9.51 0 00-.027-.729 2.442 2.442 0 00-.126-.63 1.01 1.01 0 00-.288-.441.734.734 0 00-.495-.162c-.408 0-.753.168-1.035.504-.282.336-.495.756-.639 1.26V16h-1.368V7h.936l.27 1.098h.072c.12-.18.237-.351.351-.513.114-.162.246-.303.396-.423.15-.12.327-.213.531-.279.204-.066.462-.099.774-.099.18 0 .366.027.558.081.192.054.369.138.531.252.162.114.303.267.423.459s.198.426.234.702c.276-.468.585-.834.927-1.098.342-.264.813-.396 1.413-.396.396 0 .717.066.963.198s.438.321.576.567c.138.246.234.54.288.882.054.342.081.723.081 1.143V16h-1.368V9.88c0-.252-.012-.489-.036-.711a2.268 2.268 0 00-.135-.585.967.967 0 00-.27-.396c-.114-.096-.267-.144-.459-.144-.42 0-.774.168-1.062.504-.288.336-.504.816-.648 1.44V16h-1.368zm8.812-5.85a18.063 18.063 0 00-.081-1.512 5.988 5.988 0 00-.063-.468h-1.206V7h2.394l.18 1.26h.09a4.06 4.06 0 011.233-1.053c.498-.282 1.107-.423 1.827-.423 1.284 0 2.25.354 2.898 1.062.648.708.972 1.866.972 3.474 0 .756-.111 1.437-.333 2.043a4.295 4.295 0 01-.945 1.539c-.408.42-.9.744-1.476.972a5.141 5.141 0 01-1.908.342c-.252 0-.477-.009-.675-.027a5.93 5.93 0 01-.54-.072 4.255 4.255 0 01-.477-.117 6.561 6.561 0 01-.504-.18v3.78h-1.386v-9.45zm4.14-2.052c-.36 0-.699.066-1.017.198a3.034 3.034 0 00-1.449 1.242 2.118 2.118 0 00-.288.792v4.104a3.3 3.3 0 00.891.423c.33.102.765.153 1.305.153.96 0 1.728-.315 2.304-.945.576-.63.864-1.551.864-2.763 0-1.02-.201-1.809-.603-2.367-.402-.558-1.071-.837-2.007-.837zM96.542 3.4h2.988v9.576c0 .732.123 1.248.369 1.548.246.3.609.45 1.089.45.336 0 .657-.06.963-.18.306-.12.645-.324 1.017-.612l.648.99a3.988 3.988 0 01-.63.45 4.678 4.678 0 01-1.422.54c-.24.048-.462.072-.666.072a3.81 3.81 0 01-1.188-.171 2.03 2.03 0 01-.873-.549c-.234-.252-.411-.585-.531-.999-.12-.414-.18-.927-.18-1.539v-8.37h-1.584V3.4zm19.18 11.466a4.53 4.53 0 01-.765.54 5.645 5.645 0 01-.963.432 7.06 7.06 0 01-1.089.279 6.633 6.633 0 01-1.143.099c-.72 0-1.356-.111-1.908-.333a3.674 3.674 0 01-1.386-.954 4.158 4.158 0 01-.846-1.485c-.192-.576-.288-1.224-.288-1.944 0-.756.105-1.428.315-2.016.21-.588.513-1.08.909-1.476a3.959 3.959 0 011.44-.909c.564-.21 1.194-.315 1.89-.315.504 0 1.002.066 1.494.198a2.95 2.95 0 011.305.747c.378.366.669.87.873 1.512.204.642.276 1.473.216 2.493h-6.966c0 1.08.291 1.887.873 2.421.582.534 1.359.801 2.331.801.324 0 .645-.039.963-.117.318-.078.621-.171.909-.279.288-.108.543-.228.765-.36.222-.132.393-.252.513-.36l.558 1.026zm-3.798-6.894a4.86 4.86 0 00-1.125.126 2.564 2.564 0 00-.936.423c-.27.198-.492.456-.666.774-.174.318-.285.711-.333 1.179h5.598c-.06-.792-.315-1.407-.765-1.845-.45-.438-1.041-.657-1.773-.657zm10.27-.036c0-.384.108-.681.324-.891.216-.21.504-.315.864-.315.384 0 .684.105.9.315.216.21.324.507.324.891 0 .348-.108.636-.324.864-.216.228-.516.342-.9.342-.36 0-.648-.114-.864-.342-.216-.228-.324-.516-.324-.864zm0 7.074c0-.384.108-.681.324-.891.216-.21.504-.315.864-.315.384 0 .684.105.9.315.216.21.324.507.324.891 0 .348-.108.636-.324.864-.216.228-.516.342-.9.342-.36 0-.648-.114-.864-.342-.216-.228-.324-.516-.324-.864zm20.216-4.5v-.522l8.478-5.166.684 1.116-7.146 4.23 7.164 4.158-.684 1.08-8.496-4.896zM155.29 16v-1.206h3.132V8.206h-3.132V7h4.572v7.794h3.06V16h-7.632zm2.646-11.556c0-.324.108-.603.324-.837.216-.234.492-.351.828-.351.348 0 .639.117.873.351.234.234.351.513.351.837 0 .312-.117.576-.351.792a1.238 1.238 0 01-.873.324c-.336 0-.612-.108-.828-.324a1.077 1.077 0 01-.324-.792zm8.758 10.962l-.684-1.08 7.164-4.158-7.146-4.23.684-1.116 8.478 5.166v.522l-8.496 4.896zM178.89 16v-1.206h3.132V8.206h-3.132V7h4.572v7.794h3.06V16h-7.632zm2.646-11.556c0-.324.108-.603.324-.837.216-.234.492-.351.828-.351.348 0 .639.117.873.351.234.234.351.513.351.837 0 .312-.117.576-.351.792a1.238 1.238 0 01-.873.324c-.336 0-.612-.108-.828-.324a1.077 1.077 0 01-.324-.792zM189.358 7h2.142V5.218l1.404-.396V7h4.806v1.206h-4.806v4.248c0 .876.213 1.524.639 1.944.426.42 1.035.63 1.827.63.54 0 1.011-.102 1.413-.306a7.614 7.614 0 001.089-.666l.468 1.062c-.42.336-.921.606-1.503.81a5.377 5.377 0 01-1.791.306c-.48 0-.933-.069-1.359-.207a3.12 3.12 0 01-1.125-.639 3.06 3.06 0 01-.774-1.107c-.192-.45-.288-.987-.288-1.611V8.206h-2.142V7zm13.186.702a5.717 5.717 0 011.746-.648 9.544 9.544 0 011.908-.198c.612 0 1.113.096 1.503.288.39.192.696.441.918.747.222.306.372.654.45 1.044.078.39.117.783.117 1.179 0 .456-.012.942-.036 1.458a66.688 66.688 0 00-.054 1.548c0 .6.036 1.17.108 1.71h1.206V16h-2.394l-.162-1.35h-.09c-.072.108-.18.246-.324.414a2.964 2.964 0 01-.567.495 3.664 3.664 0 01-.855.423c-.336.12-.732.18-1.188.18-.888 0-1.59-.228-2.106-.684-.516-.456-.774-1.08-.774-1.872 0-.612.135-1.122.405-1.53.27-.408.657-.72 1.161-.936.504-.216 1.113-.342 1.827-.378.714-.036 1.515.012 2.403.144.06-.552.069-1.011.027-1.377-.042-.366-.138-.657-.288-.873a1.206 1.206 0 00-.63-.459c-.27-.09-.603-.135-.999-.135-.54 0-1.056.075-1.548.225-.492.15-.93.303-1.314.459l-.45-1.044zm2.646 7.254c.336 0 .648-.054.936-.162.288-.108.54-.246.756-.414a2.743 2.743 0 00.864-1.116v-1.26c-.624-.108-1.2-.162-1.728-.162s-.984.057-1.368.171c-.384.114-.684.291-.9.531-.216.24-.324.552-.324.936 0 .396.135.741.405 1.035.27.294.723.441 1.359.441zM214.542 3.4h2.988v9.576c0 .732.123 1.248.369 1.548.246.3.609.45 1.089.45.336 0 .657-.06.963-.18.306-.12.645-.324 1.017-.612l.648.99a3.988 3.988 0 01-.63.45 4.678 4.678 0 01-1.422.54c-.24.048-.462.072-.666.072a3.81 3.81 0 01-1.188-.171 2.03 2.03 0 01-.873-.549c-.234-.252-.411-.585-.531-.999-.12-.414-.18-.927-.18-1.539v-8.37h-1.584V3.4zM226.09 16v-1.206h3.132V8.206h-3.132V7h4.572v7.794h3.06V16h-7.632zm2.646-11.556c0-.324.108-.603.324-.837.216-.234.492-.351.828-.351.348 0 .639.117.873.351.234.234.351.513.351.837 0 .312-.117.576-.351.792a1.238 1.238 0 01-.873.324c-.336 0-.612-.108-.828-.324a1.077 1.077 0 01-.324-.792zm15.166 3.942a7.111 7.111 0 00-.891-.243 4.64 4.64 0 00-.945-.099c-1.176 0-2.052.276-2.628.828-.576.552-.864 1.428-.864 2.628 0 .528.084.999.252 1.413.168.414.408.765.72 1.053.312.288.687.51 1.125.666.438.156.921.234 1.449.234.564 0 1.113-.096 1.647-.288.534-.192.981-.444 1.341-.756l.63 1.044a5.095 5.095 0 01-.63.45 6.053 6.053 0 01-1.971.774 6.38 6.38 0 01-1.305.126c-.78 0-1.467-.111-2.061-.333a3.914 3.914 0 01-1.485-.954 4.083 4.083 0 01-.9-1.494 5.818 5.818 0 01-.306-1.935c0-.756.105-1.428.315-2.016.21-.588.513-1.08.909-1.476a3.959 3.959 0 011.44-.909c.564-.21 1.194-.315 1.89-.315.888 0 1.611.078 2.169.234.558.156 1.029.33 1.413.522l-.018.054v2.502h-1.296v-1.71zm4.708 2.124v-.522l8.478-5.166.684 1.116-7.146 4.23 7.164 4.158-.684 1.08-8.496-4.896zm19.108-7.326l1.134.504-6.57 14.832-1.134-.504 6.57-14.832zM273.29 16v-1.206h3.132V8.206h-3.132V7h4.572v7.794h3.06V16h-7.632zm2.646-11.556c0-.324.108-.603.324-.837.216-.234.492-.351.828-.351.348 0 .639.117.873.351.234.234.351.513.351.837 0 .312-.117.576-.351.792a1.238 1.238 0 01-.873.324c-.336 0-.612-.108-.828-.324a1.077 1.077 0 01-.324-.792zm8.758 10.962l-.684-1.08 7.164-4.158-7.146-4.23.684-1.116 8.478 5.166v.522l-8.496 4.896zm24.05-7.704a5.717 5.717 0 011.746-.648 9.544 9.544 0 011.908-.198c.612 0 1.113.096 1.503.288.39.192.696.441.918.747.222.306.372.654.45 1.044.078.39.117.783.117 1.179 0 .456-.012.942-.036 1.458a66.688 66.688 0 00-.054 1.548c0 .6.036 1.17.108 1.71h1.206V16h-2.394l-.162-1.35h-.09c-.072.108-.18.246-.324.414a2.964 2.964 0 01-.567.495 3.664 3.664 0 01-.855.423c-.336.12-.732.18-1.188.18-.888 0-1.59-.228-2.106-.684-.516-.456-.774-1.08-.774-1.872 0-.612.135-1.122.405-1.53.27-.408.657-.72 1.161-.936.504-.216 1.113-.342 1.827-.378.714-.036 1.515.012 2.403.144.06-.552.069-1.011.027-1.377-.042-.366-.138-.657-.288-.873a1.206 1.206 0 00-.63-.459c-.27-.09-.603-.135-.999-.135-.54 0-1.056.075-1.548.225-.492.15-.93.303-1.314.459l-.45-1.044zm2.646 7.254c.336 0 .648-.054.936-.162.288-.108.54-.246.756-.414a2.743 2.743 0 00.864-1.116v-1.26c-.624-.108-1.2-.162-1.728-.162s-.984.057-1.368.171c-.384.114-.684.291-.9.531-.216.24-.324.552-.324.936 0 .396.135.741.405 1.035.27.294.723.441 1.359.441zm8.884-4.806a18.063 18.063 0 00-.081-1.512 5.988 5.988 0 00-.063-.468h-1.206V7h2.412l.162 1.458h.09c.12-.204.279-.405.477-.603a3.741 3.741 0 011.575-.927 3.593 3.593 0 011.026-.144c.552 0 1.041.06 1.467.18.426.12.78.333 1.062.639.282.306.495.72.639 1.242.144.522.216 1.185.216 1.989V16h-1.404v-4.896c0-.996-.162-1.746-.486-2.25-.324-.504-.912-.756-1.764-.756-.312 0-.615.063-.909.189a3.137 3.137 0 00-.801.495c-.24.204-.45.441-.63.711-.18.27-.312.555-.396.855V16h-1.386v-5.85zm16.408-6.75h2.916v9.522c0 .108.006.243.018.405a20.058 20.058 0 00.108 1.044c.024.174.048.327.072.459h1.206V16h-2.394l-.18-1.386h-.072c-.264.456-.657.837-1.179 1.143-.522.306-1.125.459-1.809.459-1.356 0-2.355-.381-2.997-1.143-.642-.762-.963-1.947-.963-3.555 0-.756.108-1.425.324-2.007a3.873 3.873 0 01.927-1.458c.402-.39.885-.687 1.449-.891.564-.204 1.194-.306 1.89-.306.252 0 .477.006.675.018.198.012.381.03.549.054.168.024.327.057.477.099.15.042.315.087.495.135V4.606h-1.512V3.4zm-1.08 11.61c.732 0 1.308-.189 1.728-.567.42-.378.708-.945.864-1.701V8.566a2.788 2.788 0 00-.891-.396c-.33-.084-.765-.126-1.305-.126-.96 0-1.716.279-2.268.837-.552.558-.828 1.437-.828 2.637 0 .492.045.951.135 1.377.09.426.24.795.45 1.107.21.312.489.558.837.738.348.18.774.27 1.278.27zm19.208-4.5v-.522l8.478-5.166.684 1.116-7.146 4.23 7.164 4.158-.684 1.08-8.496-4.896zm11.026-7.11h2.88v4.626h.09a3.082 3.082 0 011.206-.918 3.94 3.94 0 011.602-.324c2.64 0 3.96 1.524 3.96 4.572 0 1.548-.426 2.733-1.278 3.555-.852.822-2.064 1.233-3.636 1.233a8.655 8.655 0 01-2.016-.216c-.6-.144-1.038-.312-1.314-.504V4.606h-1.494V3.4zm5.598 4.59c-.72 0-1.302.204-1.746.612-.444.408-.768.984-.972 1.728v4.14c.276.144.606.258.99.342a5.63 5.63 0 001.206.126c.48 0 .915-.069 1.305-.207.39-.138.723-.354.999-.648.276-.294.489-.669.639-1.125.15-.456.225-.996.225-1.62 0-.456-.048-.888-.144-1.296a3.146 3.146 0 00-.459-1.071 2.208 2.208 0 00-.819-.72c-.336-.174-.744-.261-1.224-.261zm7.66 7.416l-.684-1.08 7.164-4.158-7.146-4.23.684-1.116 8.478 5.166v.522l-8.496 4.896zM389.436 3.4h2.88v4.626h.09a3.082 3.082 0 011.206-.918 3.94 3.94 0 011.602-.324c2.64 0 3.96 1.524 3.96 4.572 0 1.548-.426 2.733-1.278 3.555-.852.822-2.064 1.233-3.636 1.233a8.655 8.655 0 01-2.016-.216c-.6-.144-1.038-.312-1.314-.504V4.606h-1.494V3.4zm5.598 4.59c-.72 0-1.302.204-1.746.612-.444.408-.768.984-.972 1.728v4.14c.276.144.606.258.99.342a5.63 5.63 0 001.206.126c.48 0 .915-.069 1.305-.207.39-.138.723-.354.999-.648.276-.294.489-.669.639-1.125.15-.456.225-.996.225-1.62 0-.456-.048-.888-.144-1.296a3.146 3.146 0 00-.459-1.071 2.208 2.208 0 00-.819-.72c-.336-.174-.744-.261-1.224-.261zm7.192 3.51c0-1.452.378-2.601 1.134-3.447.756-.846 1.836-1.269 3.24-1.269.756 0 1.407.123 1.953.369s.999.579 1.359.999c.36.42.627.918.801 1.494.174.576.261 1.194.261 1.854 0 .72-.096 1.371-.288 1.953a4.057 4.057 0 01-.846 1.485 3.738 3.738 0 01-1.377.945c-.546.222-1.167.333-1.863.333-.744 0-1.392-.123-1.944-.369a3.815 3.815 0 01-1.368-.999 4.073 4.073 0 01-.801-1.494 6.381 6.381 0 01-.261-1.854zm1.494 0c0 .42.051.84.153 1.26.102.42.267.798.495 1.134.228.336.525.606.891.81.366.204.813.306 1.341.306.96 0 1.683-.297 2.169-.891.486-.594.729-1.467.729-2.619 0-.432-.051-.855-.153-1.269a3.353 3.353 0 00-.504-1.125 2.656 2.656 0 00-.9-.81c-.366-.204-.813-.306-1.341-.306-.96 0-1.68.294-2.16.882-.48.588-.72 1.464-.72 2.628zm11.422-8.1h2.988v9.576c0 .732.123 1.248.369 1.548.246.3.609.45 1.089.45.336 0 .657-.06.963-.18.306-.12.645-.324 1.017-.612l.648.99a3.988 3.988 0 01-.63.45 4.678 4.678 0 01-1.422.54c-.24.048-.462.072-.666.072a3.81 3.81 0 01-1.188-.171 2.03 2.03 0 01-.873-.549c-.234-.252-.411-.585-.531-.999-.12-.414-.18-.927-.18-1.539v-8.37h-1.584V3.4zm15.94 0h2.916v9.522c0 .108.006.243.018.405a20.058 20.058 0 00.108 1.044c.024.174.048.327.072.459h1.206V16h-2.394l-.18-1.386h-.072c-.264.456-.657.837-1.179 1.143-.522.306-1.125.459-1.809.459-1.356 0-2.355-.381-2.997-1.143-.642-.762-.963-1.947-.963-3.555 0-.756.108-1.425.324-2.007a3.873 3.873 0 01.927-1.458c.402-.39.885-.687 1.449-.891.564-.204 1.194-.306 1.89-.306.252 0 .477.006.675.018.198.012.381.03.549.054.168.024.327.057.477.099.15.042.315.087.495.135V4.606h-1.512V3.4zm-1.08 11.61c.732 0 1.308-.189 1.728-.567.42-.378.708-.945.864-1.701V8.566a2.788 2.788 0 00-.891-.396c-.33-.084-.765-.126-1.305-.126-.96 0-1.716.279-2.268.837-.552.558-.828 1.437-.828 2.637 0 .492.045.951.135 1.377.09.426.24.795.45 1.107.21.312.489.558.837.738.348.18.774.27 1.278.27zm7.408-4.5v-.522l8.478-5.166.684 1.116-7.146 4.23 7.164 4.158-.684 1.08-8.496-4.896zm19.108-7.326l1.134.504-6.57 14.832-1.134-.504 6.57-14.832zm3.718.216h2.88v4.626h.09a3.082 3.082 0 011.206-.918 3.94 3.94 0 011.602-.324c2.64 0 3.96 1.524 3.96 4.572 0 1.548-.426 2.733-1.278 3.555-.852.822-2.064 1.233-3.636 1.233a8.655 8.655 0 01-2.016-.216c-.6-.144-1.038-.312-1.314-.504V4.606h-1.494V3.4zm5.598 4.59c-.72 0-1.302.204-1.746.612-.444.408-.768.984-.972 1.728v4.14c.276.144.606.258.99.342a5.63 5.63 0 001.206.126c.48 0 .915-.069 1.305-.207.39-.138.723-.354.999-.648.276-.294.489-.669.639-1.125.15-.456.225-.996.225-1.62 0-.456-.048-.888-.144-1.296a3.146 3.146 0 00-.459-1.071 2.208 2.208 0 00-.819-.72c-.336-.174-.744-.261-1.224-.261zm7.66 7.416l-.684-1.08 7.164-4.158-7.146-4.23.684-1.116 8.478 5.166v.522l-8.496 4.896zm11.116-4.896v-.522l8.478-5.166.684 1.116-7.146 4.23 7.164 4.158-.684 1.08-8.496-4.896zm19.108-7.326l1.134.504-6.57 14.832-1.134-.504 6.57-14.832zm5.41 6.966a18.063 18.063 0 00-.081-1.512 5.988 5.988 0 00-.063-.468h-1.206V7h2.394l.18 1.26h.09a4.06 4.06 0 011.233-1.053c.498-.282 1.107-.423 1.827-.423 1.284 0 2.25.354 2.898 1.062.648.708.972 1.866.972 3.474 0 .756-.111 1.437-.333 2.043a4.295 4.295 0 01-.945 1.539c-.408.42-.9.744-1.476.972a5.141 5.141 0 01-1.908.342c-.252 0-.477-.009-.675-.027a5.93 5.93 0 01-.54-.072 4.255 4.255 0 01-.477-.117 6.561 6.561 0 01-.504-.18v3.78h-1.386v-9.45zm4.14-2.052c-.36 0-.699.066-1.017.198a3.034 3.034 0 00-1.449 1.242 2.118 2.118 0 00-.288.792v4.104a3.3 3.3 0 00.891.423c.33.102.765.153 1.305.153.96 0 1.728-.315 2.304-.945.576-.63.864-1.551.864-2.763 0-1.02-.201-1.809-.603-2.367-.402-.558-1.071-.837-2.007-.837zm7.426 7.308l-.684-1.08 7.164-4.158-7.146-4.23.684-1.116 8.478 5.166v.522l-8.496 4.896z"/></g></g></g></svg>