<svg xmlns="http://www.w3.org/2000/svg" xmlns:xlink="http://www.w3.org/1999/xlink" width="683" height="229" viewBox="0 0 683 229"><defs><style>@import url(https://fonts.googleapis.com/css?family=Open+Sans:bold,italic,bolditalic%7CPT+Mono);@font-face{font-family:&apos;PT Mono&apos;;font-weight:700;font-style:normal;src:local(&apos;PT MonoBold&apos;),url(/font/PTMonoBold.woff2) format(&apos;woff2&apos;),url(/font/PTMonoBold.woff) format(&apos;woff&apos;),url(/font/PTMonoBold.ttf) format(&apos;truetype&apos;)}</style></defs><defs><path id="path-1" d="M183 54h368v21H183z"/><mask id="mask-2" width="368" height="21" x="0" y="0" fill="#fff" maskContentUnits="userSpaceOnUse" maskUnits="objectBoundingBox"><use xlink:href="#path-1"/></mask></defs><g id="misc" fill="none" fill-rule="evenodd" stroke="none" stroke-width="1"><g id="range-example-p-2-b-3-range.svg"><text id="&lt;p&gt;Example:-&lt;i&gt;itali" fill="#8A704D" font-family="PTMono-Regular, PT Mono" font-size="18" font-weight="normal" letter-spacing="1"><tspan x="126" y="70">&lt;p&gt;Example: &lt;i&gt;italic&lt;/i&gt; and &lt;b&gt;bold&lt;/b&gt;&lt;/p&gt;</tspan></text><path id="Path" stroke="#EE6B47" stroke-width="2" d="M160 68v10h106V68"/><path id="Path-Copy-2" stroke="#EE6B47" stroke-width="2" d="M126 143v19h532v-19"/><path id="Path-Copy" stroke="#EE6B47" stroke-width="2" d="M514 70v10h50V70"/><path id="Line" fill="#EE6B47" fill-rule="nonzero" d="M141.805 96.034l-16.216-14.19 1.317-1.505 16.216 14.19 3.951-4.516L153 104.5l-15.146-3.951 3.951-4.515z"/><path id="Line-Copy-3" fill="#EE6B47" fill-rule="nonzero" d="M484.805 96.034l-16.216-14.19 1.317-1.505 16.216 14.19 3.951-4.516L496 104.5l-15.146-3.951 3.951-4.515z"/><use id="Rectangle" fill="#00F" fill-opacity=".1" stroke="#00F" stroke-dasharray="5,2" stroke-width="2" mask="url(#mask-2)" xlink:href="#path-1"/><text id="startContainer-(&lt;p&gt;." fill="#000" font-family="PTMono-Regular, PT Mono" font-size="16" font-weight="normal"><tspan x="10.3" y="118">startContainer</tspan> <tspan x=".7" y="136">(&lt;p&gt;.firstChild)</tspan></text><path id="Line-Copy" fill="#EE6B47" fill-rule="nonzero" d="M184 88v16h-2V88h-6l7-14 7 14h-6z"/><path id="Line-Copy-2" fill="#EE6B47" fill-rule="nonzero" d="M552 87v16h-2V87h-6l7-14 7 14h-6z"/><text id="startOffset-(=2)" fill="#000" font-family="PTMono-Regular, PT Mono" font-size="16" font-weight="normal"><tspan x="170.2" y="118">startOffset</tspan> <tspan x="203.8" y="136">(=2)</tspan></text><text id="commonAncestorContai" fill="#000" font-family="PTMono-Regular, PT Mono" font-size="16" font-weight="normal"><tspan x="316.1" y="181">commonAncestorContainer</tspan> <tspan x="402.5" y="199">(&lt;p&gt;)</tspan></text><text id="endContainer-(&lt;b&gt;.fi" fill="#000" font-family="PTMono-Regular, PT Mono" font-size="16" font-weight="normal"><tspan x="388.9" y="117">endContainer</tspan> <tspan x="369.7" y="135">(&lt;b&gt;.firstChild)</tspan></text><text id="endOffset-(=3)" fill="#000" font-family="PTMono-Regular, PT Mono" font-size="16" font-weight="normal"><tspan x="537.3" y="118">endOffset</tspan> <tspan x="561.3" y="136">(=3)</tspan></text></g></g></svg>