<svg xmlns="http://www.w3.org/2000/svg" xmlns:xlink="http://www.w3.org/1999/xlink" width="559" height="128" viewBox="0 0 559 128"><defs><style>@import url(https://fonts.googleapis.com/css?family=Open+Sans:bold,italic,bolditalic%7CPT+Mono);@font-face{font-family:&apos;PT Mono&apos;;font-weight:700;font-style:normal;src:local(&apos;PT MonoBold&apos;),url(/font/PTMonoBold.woff2) format(&apos;woff2&apos;),url(/font/PTMonoBold.woff) format(&apos;woff&apos;),url(/font/PTMonoBold.ttf) format(&apos;truetype&apos;)}</style></defs><defs><path id="path-1" d="M47 62h262v21H47z"/><path id="path-4" d="M7.84 8.516l4.647-1.651L0 0l3.64 13.776 2.726-4.108 3.264 4.177 1.474-1.152z"/><linearGradient id="linearGradient-3" x1="0%" x2="100%" y1="50%" y2="50%"><stop offset="0%" stop-color="#F2F2F2"/><stop offset="100%" stop-color="gray"/></linearGradient><filter id="filter-5" width="212.1%" height="203.6%" x="-52.6%" y="-43.3%" filterUnits="objectBoundingBox"><feMorphology in="SourceAlpha" operator="dilate" radius="1" result="shadowSpreadOuter1"/><feOffset dy="1" in="shadowSpreadOuter1" result="shadowOffsetOuter1"/><feGaussianBlur in="shadowOffsetOuter1" result="shadowBlurOuter1" stdDeviation="1.5"/><feComposite in="shadowBlurOuter1" in2="SourceAlpha" operator="out" result="shadowBlurOuter1"/><feColorMatrix in="shadowBlurOuter1" values="0 0 0 0 0 0 0 0 0 0 0 0 0 0 0 0 0 0 0.2 0"/></filter><mask id="mask-2" width="262" height="21" x="0" y="0" fill="#fff" maskContentUnits="userSpaceOnUse" maskUnits="objectBoundingBox"><use xlink:href="#path-1"/></mask></defs><g id="misc" fill="none" fill-rule="evenodd" stroke="none" stroke-width="1"><g id="selection-direction-backward.svg"><text id="&lt;p&gt;Example:-&lt;i&gt;itali" fill="#8A704D" font-family="PTMono-Regular, PT Mono" font-size="18" font-weight="normal" letter-spacing="1"><tspan x="13" y="79">&lt;p&gt;Example: &lt;i&gt;italic&lt;/i&gt; and &lt;b&gt;bold&lt;/b&gt;&lt;/p&gt;</tspan></text><path id="Line-Copy-3" fill="#EE6B47" fill-rule="nonzero" d="M308.675 49.162v.338H308l-12 6v-6H47v-2h249v-6l12 6h.675v.338L310 48.5l-1.325.662z"/><text id="focus" fill="#000" font-family="PTMono-Regular, PT Mono" font-size="16" font-weight="normal"><tspan x="25" y="32">focus</tspan></text><text id="anchor" fill="#000" font-family="PTMono-Regular, PT Mono" font-size="16" font-weight="normal"><tspan x="277.2" y="32">anchor</tspan></text><use id="Rectangle" fill="#00F" fill-opacity=".1" stroke="#00F" stroke-dasharray="5,2" stroke-width="2" mask="url(#mask-2)" xlink:href="#path-1"/><path id="Rectangle" fill="url(#linearGradient-3)" d="M53 94h262v16H53z" opacity=".2" transform="matrix(-1 0 0 1 368 0)"/><g id="Cursor-/-Default-White" transform="translate(49 94)"><g id="Rectangle-237"><use fill="#000" filter="url(#filter-5)" xlink:href="#path-4"/><path fill="#FFF" stroke="#000" stroke-opacity=".8" d="M8.662 8.755l3.144 4.025-2.262 1.767-3.145-4.025-2.958 4.459L-.78-1l14.484 7.963-5.041 1.792z"/></g></g></g></g></svg>