<svg xmlns="http://www.w3.org/2000/svg" width="373" height="152" viewBox="0 0 373 152"><defs><style>@import url(https://fonts.googleapis.com/css?family=Open+Sans:bold,italic,bolditalic%7CPT+Mono);@font-face{font-family:&apos;PT Mono&apos;;font-weight:700;font-style:normal;src:local(&apos;PT MonoBold&apos;),url(/font/PTMonoBold.woff2) format(&apos;woff2&apos;),url(/font/PTMonoBold.woff) format(&apos;woff&apos;),url(/font/PTMonoBold.ttf) format(&apos;truetype&apos;)}</style></defs><g id="promise" fill="none" fill-rule="evenodd" stroke="none" stroke-width="1"><g id="promise-then-many.svg"><path id="Rectangle-1-Copy-3" fill="#FFF9EB" stroke="#E8C48E" stroke-width="2" d="M10 120h108v28H10z"/><text id=".then" fill="#8A704D" font-family="PTMono-Regular, PT Mono" font-size="14" font-weight="normal"><tspan x="42.5" y="139">.then</tspan></text><path id="Rectangle-1-Copy-8" fill="#FFF9EB" stroke="#E8C48E" stroke-width="2" d="M131 4h108v28H131z"/><text id="new-Promise" fill="#8A704D" font-family="PTMono-Regular, PT Mono" font-size="14" font-weight="normal"><tspan x="138.3" y="22">new Promise</tspan></text><text id="resolve(1)" fill="#8A704D" font-family="PTMono-Regular, PT Mono" font-size="14" font-weight="normal"><tspan x="142" y="54">resolve(1)</tspan></text><path id="Line-Copy-8" fill="#EE6B47" fill-rule="nonzero" d="M186 71v22h6l-7 14-7-14h6V71h2z"/><path id="Rectangle-1-Copy-4" fill="#FFF9EB" stroke="#E8C48E" stroke-width="2" d="M131 120h108v28H131z"/><text id=".then-copy" fill="#8A704D" font-family="PTMono-Regular, PT Mono" font-size="14" font-weight="normal"><tspan x="164" y="139">.then</tspan></text><path id="Line-Copy-9" fill="#EE6B47" fill-rule="nonzero" d="M113.746 70.107l1.147 1.639-.82.573L75.542 99.29l3.441 4.916L63.5 106.5l7.455-13.763 3.441 4.915 38.53-26.971.82-.574z"/><path id="Rectangle-1-Copy-5" fill="#FFF9EB" stroke="#E8C48E" stroke-width="2" d="M255 120h108v28H255z"/><text id=".then-copy-2" fill="#8A704D" font-family="PTMono-Regular, PT Mono" font-size="14" font-weight="normal"><tspan x="287.5" y="139">.then</tspan></text><path id="Line-Copy-10" fill="#EE6B47" fill-rule="nonzero" d="M257.835 67.595l.785.62L295.13 97.04l3.718-4.71 6.651 14.17-15.326-3.18 3.718-4.711-36.512-28.824-.785-.62 1.24-1.57z"/></g></g></svg>