<svg xmlns="http://www.w3.org/2000/svg" width="165" height="339" viewBox="0 0 165 339"><defs><style>@import url(https://fonts.googleapis.com/css?family=Open+Sans:bold,italic,bolditalic%7CPT+Mono);@font-face{font-family:&apos;PT Mono&apos;;font-weight:700;font-style:normal;src:local(&apos;PT MonoBold&apos;),url(/font/PTMonoBold.woff2) format(&apos;woff2&apos;),url(/font/PTMonoBold.woff) format(&apos;woff&apos;),url(/font/PTMonoBold.ttf) format(&apos;truetype&apos;)}</style></defs><g id="promise" fill="none" fill-rule="evenodd" stroke="none" stroke-width="1"><g id="promise-then-chain.svg"><path id="Rectangle-1-Copy-3" fill="#FFF9EB" stroke="#E8C48E" stroke-width="2" d="M40 105h108v28H40z"/><text id=".then" fill="#8A704D" font-family="PTMono-Regular, PT Mono" font-size="14" font-weight="normal"><tspan x="72.5" y="124">.then</tspan></text><path id="Rectangle-1-Copy-8" fill="#FFF9EB" stroke="#E8C48E" stroke-width="2" d="M40 10h108v28H40z"/><text id="new-Promise" fill="#8A704D" font-family="PTMono-Regular, PT Mono" font-size="14" font-weight="normal"><tspan x="47.3" y="28">new Promise</tspan></text><text id="resolve(1)" fill="#8A704D" font-family="PTMono-Regular, PT Mono" font-size="14" font-weight="normal"><tspan x="7" y="70">resolve(1)</tspan></text><text id="return-2" fill="#8A704D" font-family="PTMono-Regular, PT Mono" font-size="14" font-weight="normal"><tspan x="14" y="167">return 2</tspan></text><path id="Line-Copy-8" fill="#EE6B47" fill-rule="nonzero" d="M94.5 142.5v31h6l-7 14-7-14h6v-31h2z"/><path id="Rectangle-1-Copy-4" fill="#FFF9EB" stroke="#E8C48E" stroke-width="2" d="M40 202h108v28H40z"/><text id=".then-copy" fill="#8A704D" font-family="PTMono-Regular, PT Mono" font-size="14" font-weight="normal"><tspan x="72.5" y="221">.then</tspan></text><text id="return-4" fill="#8A704D" font-family="PTMono-Regular, PT Mono" font-size="14" font-weight="normal"><tspan x="14" y="264">return 4</tspan></text><path id="Line-Copy-10" fill="#EE6B47" fill-rule="nonzero" d="M94.5 240.5v31h6l-7 14-7-14h6v-31h2z"/><path id="Rectangle-1-Copy-5" fill="#FFF9EB" stroke="#E8C48E" stroke-width="2" d="M40 298h108v28H40z"/><text id=".then-copy-2" fill="#8A704D" font-family="PTMono-Regular, PT Mono" font-size="14" font-weight="normal"><tspan x="72.5" y="317">.then</tspan></text><path id="Line-Copy-9" fill="#EE6B47" fill-rule="nonzero" d="M94.5 46.5v31h6l-7 14-7-14h6v-31h2z"/></g></g></svg>