<svg xmlns="http://www.w3.org/2000/svg" width="620" height="129" viewBox="0 0 620 129"><defs><style>@import url(https://fonts.googleapis.com/css?family=Open+Sans:bold,italic,bolditalic%7CPT+Mono);@font-face{font-family:&apos;PT Mono&apos;;font-weight:700;font-style:normal;src:local(&apos;PT MonoBold&apos;),url(/font/PTMonoBold.woff2) format(&apos;woff2&apos;),url(/font/PTMonoBold.woff) format(&apos;woff&apos;),url(/font/PTMonoBold.ttf) format(&apos;truetype&apos;)}</style></defs><g id="array" fill="none" fill-rule="evenodd" stroke="none" stroke-width="1"><g id="reduce.svg"><path id="Rectangle-1" fill="#FBF2EC" stroke="#DBAF88" stroke-width="2" d="M9 75h78v38H9z"/><text id="1" fill="#AF6E24" font-family="PTMono-Regular, PT Mono" font-size="14" font-weight="normal"><tspan x="44" y="99">1</tspan></text><text id="sum" fill="#AF6E24" font-family="PTMono-Regular, PT Mono" font-size="14" font-weight="normal"><tspan x="15" y="17">sum</tspan> <tspan x="15" y="32">0</tspan> <tspan x="15" y="47">current</tspan> <tspan x="15" y="62">1</tspan></text><path id="Rectangle-2" fill="#FBF2EC" stroke="#DBAF88" stroke-width="2" d="M88 75h78v38H88z"/><text id="2" fill="#AF6E24" font-family="PTMono-Regular, PT Mono" font-size="14" font-weight="normal"><tspan x="123" y="99">2</tspan></text><text id="sum" fill="#AF6E24" font-family="PTMono-Regular, PT Mono" font-size="14" font-weight="normal"><tspan x="94" y="17">sum</tspan> <tspan x="94" y="32">0+1</tspan> <tspan x="94" y="47">current</tspan> <tspan x="94" y="62">2</tspan></text><path id="Rectangle-3" fill="#FBF2EC" stroke="#DBAF88" stroke-width="2" d="M167 75h78v38h-78z"/><text id="3" fill="#AF6E24" font-family="PTMono-Regular, PT Mono" font-size="14" font-weight="normal"><tspan x="202" y="99">3</tspan></text><text id="sum" fill="#AF6E24" font-family="PTMono-Regular, PT Mono" font-size="14" font-weight="normal"><tspan x="173" y="17">sum</tspan> <tspan x="173" y="32">0+1+2</tspan> <tspan x="173" y="47">current</tspan> <tspan x="173" y="62">3</tspan></text><path id="Rectangle-5" fill="#FBF2EC" stroke="#DBAF88" stroke-width="2" d="M246 75h78v38h-78z"/><text id="4" fill="#AF6E24" font-family="PTMono-Regular, PT Mono" font-size="14" font-weight="normal"><tspan x="281" y="99">4</tspan></text><text id="sum" fill="#AF6E24" font-family="PTMono-Regular, PT Mono" font-size="14" font-weight="normal"><tspan x="252" y="17">sum</tspan> <tspan x="252" y="32">0+1+2+3</tspan> <tspan x="252" y="47">current</tspan> <tspan x="252" y="62">4</tspan></text><path id="Rectangle-4" fill="#FBF2EC" stroke="#DBAF88" stroke-width="2" d="M325 75h78v38h-78z"/><text id="5" fill="#AF6E24" font-family="PTMono-Regular, PT Mono" font-size="14" font-weight="normal"><tspan x="360" y="99">5</tspan></text><text id="sum" fill="#AF6E24" font-family="PTMono-Regular, PT Mono" font-size="14" font-weight="normal"><tspan x="331" y="17">sum</tspan> <tspan x="331" y="32">0+1+2+3+4</tspan> <tspan x="331" y="47">current</tspan> <tspan x="331" y="62">5</tspan></text><path id="Line" fill="#C06334" fill-rule="nonzero" d="M456.5 85l14 7-14 7v-6h-37v-2h37v-6z"/><text id="0+1+2+3+4+5-=-15" fill="#AF6E24" font-family="PTMono-Regular, PT Mono" font-size="14" font-weight="normal"><tspan x="480" y="96">0+1+2+3+4+5 = 15</tspan></text></g></g></svg>