<?xml version="1.0" encoding="UTF-8"?>
<svg width="600px" height="200px" viewBox="0 0 600 200" version="1.1" xmlns="http://www.w3.org/2000/svg" xmlns:xlink="http://www.w3.org/1999/xlink">
    <!-- Generator: sketchtool 55.2 (78181) - https://sketchapp.com -->
    <title>german-layout.svg</title>
    <desc>Created with sketchtool.</desc>
    <g id="dom" stroke="none" stroke-width="1" fill="none" fill-rule="evenodd">
        <g id="german-layout.svg">
            <g id="KB_Germany" transform="translate(0.918469, 0.953368)">
                <g id="Group">
                    <polygon id="rect2186" stroke="#000000" fill="#FFFFFF" points="0.0798668885 0.0829015544 40.0133111 0.0829015544 40.0133111 39.4611399 0.0798668885 39.4611399"></polygon>
                    <polygon id="rect2218" stroke="#000000" fill="#FFFFFF" points="40.0133111 0.0829015544 79.9467554 0.0829015544 79.9467554 39.4611399 40.0133111 39.4611399"></polygon>
                    <polygon id="rect2222" stroke="#000000" fill="#FFFFFF" points="79.9467554 0.0829015544 119.8802 0.0829015544 119.8802 39.4611399 79.9467554 39.4611399"></polygon>
                    <polygon id="rect2228" stroke="#000000" fill="#FFFFFF" points="118.881864 0.0829015544 158.815308 0.0829015544 158.815308 39.4611399 118.881864 39.4611399"></polygon>
                    <polygon id="rect2230" stroke="#000000" fill="#FFFFFF" points="158.815308 0.0829015544 198.748752 0.0829015544 198.748752 39.4611399 158.815308 39.4611399"></polygon>
                    <polygon id="rect2232" stroke="#000000" fill="#FFFFFF" points="198.748752 0.0829015544 238.682196 0.0829015544 238.682196 39.4611399 198.748752 39.4611399"></polygon>
                    <polygon id="rect2234" stroke="#000000" fill="#FFFFFF" points="239.680532 0.0829015544 279.613977 0.0829015544 279.613977 39.4611399 239.680532 39.4611399"></polygon>
                    <polygon id="rect2236" stroke="#000000" fill="#FFFFFF" points="279.613977 0.0829015544 319.547421 0.0829015544 319.547421 39.4611399 279.613977 39.4611399"></polygon>
                    <polygon id="rect2238" stroke="#000000" fill="#FFFFFF" points="318.549085 0.0829015544 358.482529 0.0829015544 358.482529 39.4611399 318.549085 39.4611399"></polygon>
                    <polygon id="rect2240" stroke="#000000" fill="#FFFFFF" points="358.482529 0.0829015544 398.415973 0.0829015544 398.415973 39.4611399 358.482529 39.4611399"></polygon>
                    <polygon id="rect2242" stroke="#000000" fill="#FFFFFF" points="398.415973 0.0829015544 438.349418 0.0829015544 438.349418 39.4611399 398.415973 39.4611399"></polygon>
                    <polygon id="rect2244" stroke="#000000" fill="#FFFFFF" points="438.349418 0.0829015544 478.282862 0.0829015544 478.282862 39.4611399 438.349418 39.4611399"></polygon>
                    <polygon id="rect2246" stroke="#000000" fill="#FFFFFF" points="478.282862 0.0829015544 518.216306 0.0829015544 518.216306 39.4611399 478.282862 39.4611399"></polygon>
                    <polygon id="rect2248" stroke="#000000" fill="#DFDFDF" points="517.21797 0.0829015544 599.081531 0.0829015544 599.081531 39.4611399 517.21797 39.4611399"></polygon>
                    <polygon id="rect2250" stroke="#000000" fill="#DFDFDF" points="0.0798668885 39.4611399 59.9800333 39.4611399 59.9800333 78.8393782 0.0798668885 78.8393782"></polygon>
                    <polygon id="rect2252" stroke="#000000" fill="#FFFFFF" points="59.9800333 39.4611399 99.9134775 39.4611399 99.9134775 78.8393782 59.9800333 78.8393782"></polygon>
                    <polygon id="rect2254" stroke="#000000" fill="#FFFFFF" points="98.9151414 39.4611399 138.848586 39.4611399 138.848586 78.8393782 98.9151414 78.8393782"></polygon>
                    <polygon id="rect2256" stroke="#000000" fill="#FFFFFF" points="138.848586 39.4611399 178.78203 39.4611399 178.78203 78.8393782 138.848586 78.8393782"></polygon>
                    <polygon id="rect2258" stroke="#000000" fill="#FFFFFF" points="178.78203 39.4611399 218.715474 39.4611399 218.715474 78.8393782 178.78203 78.8393782"></polygon>
                    <polygon id="rect2262" stroke="#000000" fill="#FFFFFF" points="219.71381 39.4611399 259.647255 39.4611399 259.647255 78.8393782 219.71381 78.8393782"></polygon>
                    <polygon id="rect2264" stroke="#000000" fill="#FFFFFF" points="259.647255 39.4611399 299.580699 39.4611399 299.580699 78.8393782 259.647255 78.8393782"></polygon>
                    <polygon id="rect2266" stroke="#000000" fill="#FFFFFF" points="298.582363 39.4611399 338.515807 39.4611399 338.515807 78.8393782 298.582363 78.8393782"></polygon>
                    <polygon id="rect2270" stroke="#000000" fill="#FFFFFF" points="338.515807 39.4611399 378.449251 39.4611399 378.449251 78.8393782 338.515807 78.8393782"></polygon>
                    <polygon id="rect2272" stroke="#000000" fill="#FFFFFF" points="378.449251 39.4611399 418.382696 39.4611399 418.382696 78.8393782 378.449251 78.8393782"></polygon>
                    <polygon id="rect2274" stroke="#000000" fill="#FFFFFF" points="418.382696 39.4611399 458.31614 39.4611399 458.31614 78.8393782 418.382696 78.8393782"></polygon>
                    <polygon id="rect2278" stroke="#000000" fill="#FFFFFF" points="458.31614 39.4611399 498.249584 39.4611399 498.249584 78.8393782 458.31614 78.8393782"></polygon>
                    <polygon id="rect2280" stroke="#000000" fill="#FFFFFF" points="497.251248 39.4611399 537.184692 39.4611399 537.184692 78.8393782 497.251248 78.8393782"></polygon>
                    <polygon id="rect2286" stroke="#000000" fill="#DFDFDF" points="0.0798668885 79.8756477 69.9633943 79.8756477 69.9633943 119.253886 0.0798668885 119.253886"></polygon>
                    <polygon id="rect2292" stroke="#000000" fill="#FFFFFF" points="69.9633943 79.8756477 109.896839 79.8756477 109.896839 119.253886 69.9633943 119.253886"></polygon>
                    <polygon id="rect2296" stroke="#000000" fill="#FFFFFF" points="109.896839 79.8756477 149.830283 79.8756477 149.830283 119.253886 109.896839 119.253886"></polygon>
                    <polygon id="rect2298" stroke="#000000" fill="#FFFFFF" points="149.830283 79.8756477 189.763727 79.8756477 189.763727 119.253886 149.830283 119.253886"></polygon>
                    <polygon id="rect2300" stroke="#000000" fill="#FFFFFF" points="188.765391 79.8756477 228.698835 79.8756477 228.698835 119.253886 188.765391 119.253886"></polygon>
                    <polygon id="rect2302" stroke="#000000" fill="#FFFFFF" points="228.698835 79.8756477 268.63228 79.8756477 268.63228 119.253886 228.698835 119.253886"></polygon>
                    <polygon id="rect2306" stroke="#000000" fill="#FFFFFF" points="268.63228 79.8756477 308.565724 79.8756477 308.565724 119.253886 268.63228 119.253886"></polygon>
                    <polygon id="rect2308" stroke="#000000" fill="#FFFFFF" points="308.565724 79.8756477 348.499168 79.8756477 348.499168 119.253886 308.565724 119.253886"></polygon>
                    <polygon id="rect2312" stroke="#000000" fill="#FFFFFF" points="348.499168 79.8756477 388.432612 79.8756477 388.432612 119.253886 348.499168 119.253886"></polygon>
                    <polygon id="rect2314" stroke="#000000" fill="#FFFFFF" points="388.432612 79.8756477 428.366057 79.8756477 428.366057 119.253886 388.432612 119.253886"></polygon>
                    <polygon id="rect2316" stroke="#000000" fill="#FFFFFF" points="428.366057 79.8756477 468.299501 79.8756477 468.299501 119.253886 428.366057 119.253886"></polygon>
                    <polygon id="rect2318" stroke="#000000" fill="#FFFFFF" points="468.299501 79.8756477 508.232945 79.8756477 508.232945 119.253886 468.299501 119.253886"></polygon>
                    <polygon id="rect2320" stroke="#000000" stroke-width="1.00000048" fill="#DFDFDF" points="547.50078 79.357513 537.184692 79.357513 537.184692 39.4611399 599.081221 39.4611399 599.081531 119.253886 547.424936 119.253886"></polygon>
                    <polygon id="rect2322" stroke="#000000" stroke-width="1.00000048" fill="#DFDFDF" points="0.0798668885 119.253886 49.9966722 119.253886 49.9966722 158.632124 0.0798668885 158.632124"></polygon>
                    <polygon id="rect2324" stroke="#000000" fill="#FFFFFF" points="89.9301165 119.253886 129.863561 119.253886 129.863561 158.632124 89.9301165 158.632124"></polygon>
                    <polygon id="rect2326" stroke="#000000" fill="#FFFFFF" points="129.863561 119.253886 169.797005 119.253886 169.797005 158.632124 129.863561 158.632124"></polygon>
                    <polygon id="rect2330" stroke="#000000" fill="#FFFFFF" points="169.797005 119.253886 209.730449 119.253886 209.730449 158.632124 169.797005 158.632124"></polygon>
                    <polygon id="rect2334" stroke="#000000" fill="#FFFFFF" points="208.732113 119.253886 248.665557 119.253886 248.665557 158.632124 208.732113 158.632124"></polygon>
                    <polygon id="rect2336" stroke="#000000" fill="#FFFFFF" points="248.665557 119.253886 288.599002 119.253886 288.599002 158.632124 248.665557 158.632124"></polygon>
                    <polygon id="rect2338" stroke="#000000" fill="#FFFFFF" points="288.599002 119.253886 328.532446 119.253886 328.532446 158.632124 288.599002 158.632124"></polygon>
                    <polygon id="rect2340" stroke="#000000" fill="#FFFFFF" points="328.532446 119.253886 368.46589 119.253886 368.46589 158.632124 328.532446 158.632124"></polygon>
                    <polygon id="rect2342" stroke="#000000" fill="#FFFFFF" points="368.46589 119.253886 408.399334 119.253886 408.399334 158.632124 368.46589 158.632124"></polygon>
                    <polygon id="rect2344" stroke="#000000" fill="#FFFFFF" points="408.399334 119.253886 448.332779 119.253886 448.332779 158.632124 408.399334 158.632124"></polygon>
                    <polygon id="rect2346" stroke="#000000" fill="#FFFFFF" points="448.332779 119.253886 488.266223 119.253886 488.266223 158.632124 448.332779 158.632124"></polygon>
                    <polygon id="rect2348" stroke="#000000" fill="#DFDFDF" points="488.266223 119.253886 599.081531 119.253886 599.081531 158.632124 488.266223 158.632124"></polygon>
                    <polygon id="rect2350" stroke="#000000" fill="#DFDFDF" points="0.0798668885 158.632124 59.9800333 158.632124 59.9800333 198.010363 0.0798668885 198.010363"></polygon>
                    <polygon id="rect2352" stroke="#000000" fill="#DFDFDF" points="537.184692 158.632124 599.081531 158.632124 599.081531 198.010363 537.184692 198.010363"></polygon>
                    <polygon id="rect2354" stroke="#000000" fill="#DFDFDF" points="98.9151414 158.632124 158.815308 158.632124 158.815308 198.010363 98.9151414 198.010363"></polygon>
                    <polygon id="rect2360" stroke="#000000" fill="#DFDFDF" points="398.415973 158.632124 458.31614 158.632124 458.31614 198.010363 398.415973 198.010363"></polygon>
                    <polygon id="rect2362" stroke="#000000" fill="#FFFFFF" points="158.815308 158.632124 398.415973 158.632124 398.415973 198.010363 158.815308 198.010363"></polygon>
                    <polygon id="rect2364" stroke="#000000" fill="#EFEFEF" points="59.9800333 158.632124 99.9134775 158.632124 99.9134775 198.010363 59.9800333 198.010363"></polygon>
                    <polygon id="rect2366" stroke="#000000" fill="#EFEFEF" points="458.31614 158.632124 498.249584 158.632124 498.249584 198.010363 458.31614 198.010363"></polygon>
                    <polygon id="rect2368" stroke="#000000" fill="#EFEFEF" points="497.251248 158.632124 537.184692 158.632124 537.184692 198.010363 497.251248 198.010363"></polygon>
                    <path d="M49.7374891,12.6951717 L49.1135287,7.41412907 L49.1135287,4.22797927 L51.577371,4.22797927 L51.577371,7.41412907 L50.9534113,12.6951717 L49.7374891,12.6951717 M49.1455267,15.9609747 L49.1455267,13.6111896 L51.5213748,13.6111896 L51.5213748,15.9609747 L49.1455267,15.9609747 M49.7374891,36.3523316 L49.7374891,28.5542308 L47.0016639,28.5542308 L47.0016639,26.9531905 L47.177653,26.9531905 C48.1749194,26.9532 48.9002056,26.7992031 49.3535137,26.4911992 C49.8121463,26.1832149 50.0814622,25.6681211 50.1614615,24.9459163 L51.9933444,24.9459163 L51.9933444,36.3523316 L49.7374891,36.3523316" id="text5091" fill="#000000" fill-rule="nonzero"></path>
                    <path d="M89.6346382,5.2642487 L91.1424495,5.2642487 L91.1424495,9.61098159 L89.6346382,9.61098159 L89.6346382,5.2642487 M87.074502,5.2642487 L88.5823133,5.2642487 L88.5823133,9.61098159 L87.074502,9.61098159 L87.074502,5.2642487 M84.9384359,36.3523316 C84.9489035,35.3570166 85.1635555,34.5146273 85.5823987,33.8251618 C86.0012285,33.1305166 86.7446666,32.428094 87.8126996,31.71789 C87.9749937,31.6090322 88.2105942,31.4586983 88.5194878,31.2668876 C89.9330575,30.3700718 90.6398391,29.5069467 90.6398458,28.6775098 C90.6398391,28.1850439 90.4906328,27.7962488 90.1922134,27.5111239 C89.8937874,27.2260162 89.4854252,27.0834577 88.9671201,27.0834484 C88.4016842,27.0834577 87.9645261,27.2597116 87.6556392,27.6122102 C87.3519794,27.9595431 87.2001462,28.4572006 87.2001529,29.1051847 L87.2001529,29.1984956 L85.1269124,29.1984956 C85.1269124,27.9232552 85.4724491,26.9408998 86.1635293,26.2514263 C86.8546095,25.5619734 87.8388752,25.2172303 89.1163264,25.2172303 C90.2733605,25.2172303 91.1974143,25.5308697 91.8885012,26.1581154 C92.5795746,26.7801981 92.9251248,27.609627 92.9251248,28.6464062 C92.9251248,29.3877165 92.744489,30.0305243 92.3832509,30.5748316 C92.0219994,31.1191508 91.3230652,31.7386304 90.286455,32.4332736 C90.0665558,32.5836121 89.7629027,32.7806012 89.3754823,33.0242427 C88.3912166,33.6515023 87.8362549,34.128424 87.7106107,34.4550099 L92.8151752,34.4550099 L92.8151752,36.3523316 L84.9384359,36.3523316" id="text5127" fill="#000000" fill-rule="nonzero"></path>
                    <path d="M126.868552,31.6197291 L129.005066,31.6197291 C129.010244,32.2396624 129.160446,32.7071922 129.455679,33.022321 C129.750905,33.332288 130.188563,33.4872698 130.768667,33.4872685 C131.32804,33.4872698 131.757935,33.3426201 132.058345,33.0533175 C132.363927,32.758853 132.516721,32.3378177 132.516728,31.7902102 C132.516721,31.2426092 132.338031,30.8293225 131.980652,30.55035 C131.628444,30.2662204 131.102737,30.1241529 130.403517,30.1241483 C130.367253,30.1241529 130.310284,30.1267358 130.232591,30.1318969 C130.160076,30.137068 130.105692,30.1396508 130.069441,30.1396462 L130.069441,28.6053197 L130.310284,28.6053197 C130.952528,28.6053256 131.426451,28.4813396 131.732039,28.2333616 C132.042799,27.9802305 132.198185,27.5953574 132.198192,27.0787417 C132.198185,26.649965 132.066109,26.311587 131.801962,26.0636064 C131.542987,25.8104772 131.188193,25.6839084 130.737587,25.6838991 C130.245539,25.6839084 129.864849,25.8285587 129.595525,26.1178501 C129.326188,26.4071594 129.191526,26.8178626 129.191526,27.349961 L129.191526,27.4429505 L127.093855,27.4429505 C127.119751,26.3064206 127.453827,25.4359363 128.096077,24.8314949 C128.743505,24.2219083 129.655086,23.9170984 130.83082,23.9170984 C131.944394,23.9170984 132.827487,24.1883283 133.4801,24.7307568 C134.132699,25.2732052 134.459005,26.0042049 134.459012,26.9237592 C134.459005,27.4093784 134.347646,27.8355801 134.124942,28.2023651 C133.902218,28.5691634 133.568142,28.8713791 133.12272,29.1090123 C133.692448,29.3569903 134.122343,29.7005347 134.412399,30.1396462 C134.707618,30.5736019 134.855241,31.0927925 134.855241,31.6972206 C134.855241,32.807931 134.490085,33.6887474 133.759793,34.3396727 C133.029481,34.9905992 132.032443,35.3160622 130.768667,35.3160622 C129.520418,35.3160622 128.557046,35.0009314 127.878538,34.3706692 C127.205214,33.7352419 126.868552,32.8337611 126.868552,31.6662241 L126.868552,31.6197291" id="text5139" fill="#000000" fill-rule="nonzero"></path>
                    <path d="M168.894792,14.9100684 C169.363019,14.8528074 169.719914,14.6992392 169.965455,14.4493644 C170.210989,14.199493 170.333766,13.8663284 170.333766,13.4498707 C170.333766,13.0802693 170.216697,12.7757362 169.982587,12.5362708 C169.754171,12.2916068 169.391575,12.1015997 168.894792,11.9662469 L168.894792,14.9100684 M167.87552,9.56902387 L167.87552,6.91411863 C167.430119,6.96618499 167.090357,7.10673866 166.856247,7.33577977 C166.622123,7.55963371 166.505068,7.8615641 166.505068,8.24157095 C166.505068,8.55912676 166.613557,8.82461694 166.830548,9.03804283 C167.053241,9.25148338 167.401563,9.42847706 167.87552,9.56902387 M167.87552,18.1193801 L167.87552,16.6201395 C166.585007,16.5472597 165.619983,16.2062871 164.980439,15.5972203 C164.340894,14.9881548 164.021122,14.1083931 164.021122,12.9579319 L166.316625,12.9579319 C166.345175,13.5201504 166.487928,13.965237 166.744893,14.2931935 C167.00756,14.615948 167.384437,14.8215732 167.87552,14.9100684 L167.87552,11.6773306 C166.550742,11.3701995 165.608559,10.9693612 165.048961,10.474815 C164.489356,9.98028021 164.209558,9.30354035 164.209558,8.44459344 C164.209558,7.49195999 164.540746,6.72412034 165.203139,6.14107268 C165.871232,5.55804547 166.762018,5.25351253 167.87552,5.22747299 L167.87552,4.22797927 L168.894792,4.22797927 L168.894792,5.22747299 C170.008279,5.27954101 170.876224,5.58667677 171.49865,6.14888125 C172.121055,6.70590043 172.463668,7.49195999 172.526489,8.5070618 L170.196721,8.5070618 C170.156741,8.02294036 170.028262,7.65333625 169.811277,7.39824813 C169.599994,7.13797277 169.294496,6.9922134 168.894792,6.96096989 L168.894792,9.80327987 C170.30521,10.2041248 171.298784,10.6622254 171.875521,11.1775837 C172.452244,11.6929527 172.740623,12.3722952 172.740623,13.215614 C172.740623,14.2099044 172.403711,15.0037723 171.72991,15.5972203 C171.061809,16.1906697 170.116767,16.5368484 168.894792,16.6357569 L168.894792,18.1193801 L167.87552,18.1193801 M169.031837,32.2138033 L169.031837,27.4271653 L165.699922,32.2138033 L169.031837,32.2138033 M168.980447,36.3523316 L168.980447,33.9394918 L163.806988,33.9394918 L163.806988,31.9717386 L168.329479,25.4906462 L171.370171,25.4906462 L171.370171,32.1591436 L172.792013,32.1591436 L172.792013,33.9394918 L171.370171,33.9394918 L171.370171,36.3523316 L168.980447,36.3523316" id="text5145" fill="#000000" fill-rule="nonzero"></path>
                    <path d="M212.845503,12.9898902 C212.845503,13.3456792 212.955742,13.6457081 213.176244,13.8899776 C213.396722,14.1289405 213.668665,14.2484196 213.992062,14.2484196 C214.305637,14.2484196 214.575128,14.1262855 214.800529,13.882012 C215.025911,13.6324327 215.138614,13.3350587 215.138614,12.9898902 C215.138614,12.6500376 215.025911,12.3606292 214.800529,12.1216649 C214.580026,11.8773969 214.310535,11.7552574 213.992062,11.7552574 C213.668665,11.7552574 213.396722,11.8747419 213.176244,12.1136994 C212.955742,12.3473537 212.845503,12.6394171 212.845503,12.9898902 M211.250614,12.9898902 C211.250614,12.1614947 211.515201,11.4631981 212.044387,10.894997 C212.573554,10.3268055 213.222781,10.0427022 213.992062,10.0427022 C214.746617,10.0427022 215.388493,10.332116 215.917685,10.9109281 C216.451751,11.4844391 216.718802,12.1774258 216.718802,12.9898902 C216.718802,13.8076706 216.451751,14.5086228 215.917685,15.0927488 C215.383595,15.6715663 214.741719,15.9609747 213.992062,15.9609747 C213.222781,15.9609747 212.573554,15.6742213 212.044387,15.1007144 C211.515201,14.5272088 211.250614,13.8236017 211.250614,12.9898902 M206.980432,15.9609747 L213.257087,4.22797927 L214.440392,4.22797927 L208.163737,15.9609747 L206.980432,15.9609747 M206.333658,7.19906359 C206.333658,7.54954819 206.44145,7.84426651 206.657042,8.08321991 C206.877532,8.32218894 207.149475,8.4416619 207.472866,8.4416619 C207.791345,8.4416619 208.060837,8.32218894 208.281333,8.08321991 C208.506721,7.8389566 208.619418,7.54423828 208.619418,7.19906359 C208.619418,6.85921648 208.506721,6.56980807 208.281333,6.33083795 C208.060837,6.086576 207.791345,5.96443076 207.472866,5.96443076 C207.149475,5.96443076 206.877532,6.08392091 206.657042,6.32287254 C206.44145,6.55653262 206.333658,6.84859598 206.333658,7.19906359 M204.738769,7.19906359 C204.738769,6.37067423 205.003355,5.66972189 205.532541,5.09620498 C206.061714,4.51739897 206.708489,4.22797927 207.472866,4.22797927 C208.227427,4.22797927 208.869304,4.52005406 209.398489,5.10417039 C209.932561,5.68299747 210.199606,6.38129473 210.199606,7.19906359 C210.199606,8.01684944 209.932561,8.7151467 209.398489,9.29395672 C208.869304,9.86746975 208.227427,10.1542171 207.472866,10.1542171 C206.703591,10.1542171 206.054364,9.87012471 205.525191,9.30192227 C205.000909,8.73373274 204.738769,8.03278053 204.738769,7.19906359 M206.840786,32.9590827 L208.898706,32.9590827 C208.933006,33.4582482 209.087348,33.845896 209.361737,34.1220269 C209.636126,34.3928514 210.003614,34.5282629 210.464199,34.5282608 C211.03257,34.5282629 211.4662,34.3477144 211.765099,33.9866154 C212.068878,33.6255212 212.220774,33.1077724 212.22078,32.4333677 C212.220774,31.8014525 212.066426,31.3049447 211.757749,30.943843 C211.449053,30.5774409 211.022768,30.3942375 210.478893,30.394232 C210.175102,30.3942375 209.908063,30.4606161 209.677777,30.5933665 C209.447484,30.7261279 209.251492,30.9226067 209.0898,31.1828039 L207.193572,31.0633234 L207.877099,24.9459164 L213.925914,24.9459164 L213.925914,26.8735372 L209.361737,26.8735372 L209.0898,29.1595993 C209.320086,28.9631272 209.584679,28.8170952 209.883572,28.7215039 C210.182453,28.6206163 210.51564,28.5701687 210.883133,28.5701613 C211.931683,28.5701687 212.776903,28.9153346 213.418779,29.6056602 C214.065548,30.295998 214.388945,31.2013947 214.388945,32.3218528 C214.388945,33.5485228 214.0337,34.5282629 213.323235,35.2610752 C212.612758,35.9885797 211.659746,36.3523316 210.464199,36.3523316 C209.376438,36.3523316 208.509173,36.0523027 207.862398,35.4522442 C207.220522,34.8468772 206.879984,34.015824 206.840786,32.9590827" id="text5151" fill="#000000" fill-rule="nonzero"></path>
                    <path d="M248.136448,10.4770808 L247.560336,10.8911777 C247.327868,11.0518017 247.15352,11.2450469 247.037292,11.4709138 C246.921058,11.6967885 246.862944,11.950266 246.862944,12.2313469 C246.862944,12.6579953 247.009497,13.0168789 247.302608,13.3079992 C247.595713,13.5991239 247.962094,13.7446837 248.401764,13.7446837 C248.725187,13.7446837 249.033455,13.6794337 249.326566,13.5489284 C249.624723,13.413408 249.900143,13.2176527 250.152832,12.9616638 L248.136448,10.4770808 M248.742879,8.10543386 L249.008195,7.91720774 C249.250761,7.75157629 249.430161,7.56586033 249.546401,7.36005923 C249.662622,7.15427354 249.720749,6.91836399 249.720749,6.6523293 C249.720749,6.39635131 249.639885,6.19306744 249.478177,6.04247703 C249.321508,5.8919059 249.106731,5.8166062 248.83384,5.8166062 C248.555891,5.8166062 248.336063,5.89441542 248.174348,6.05000623 C248.012633,6.20059599 247.931776,6.40639003 247.931776,6.6673877 C247.931776,6.8079381 247.969675,6.96102838 248.045481,7.12665855 C248.126338,7.29230543 248.240043,7.46798331 248.386602,7.65369156 L248.742879,8.10543386 M247.037292,9.10679612 L246.597628,8.53458921 C246.370219,8.23343474 246.205975,7.95235064 246.104903,7.69133691 C246.008883,7.42531828 245.960873,7.14674434 245.96088,6.85561317 C245.960873,6.05252539 246.218608,5.41506713 246.734077,4.94323776 C247.254592,4.46640926 247.959571,4.22797927 248.849003,4.22797927 C249.703051,4.22797927 250.377706,4.44633183 250.872967,4.88300545 C251.368209,5.31969963 251.615833,5.90947382 251.615846,6.6523293 C251.615833,7.21450585 251.469281,7.71895061 251.176183,8.16566617 C250.888117,8.60737618 250.433297,9.02398264 249.811711,9.41548621 L251.411174,11.3730362 C251.562772,11.1270918 251.681535,10.8510274 251.767451,10.5448423 C251.858406,10.2386662 251.921578,9.89735045 251.956961,9.52089307 L253.927857,9.52089307 C253.87226,10.1734149 253.735811,10.7782468 253.518518,11.3353915 C253.301206,11.8925432 253.003043,12.4020076 252.624035,12.8637861 L254.655574,15.3182523 L252.078247,15.3182523 L251.320206,14.3921807 C250.875484,14.7987491 250.385287,15.1074398 249.849617,15.3182523 C249.318985,15.5240463 248.763087,15.626943 248.181929,15.626943 C247.150997,15.626943 246.307046,15.323272 245.650083,14.7159292 C244.998165,14.1085884 244.672213,13.3330982 244.672213,12.3894568 C244.672213,11.6867498 244.854142,11.0819179 245.218001,10.5749584 C245.581859,10.0680087 246.188289,9.57862164 247.037292,9.10679612" id="path3073" fill="#000000" fill-rule="nonzero"></path>
                    <path d="M288.563592,36.3523316 L286.21086,36.3523316 C286.294793,34.7516162 286.664619,33.1645585 287.320339,31.5911545 C287.981303,30.0177596 288.922924,28.4716755 290.145194,26.9528986 L284.605657,26.9528986 L284.605657,24.9533679 L292.592346,24.9533679 L292.592346,26.7152493 C291.354337,28.1356893 290.402228,29.6380672 289.73602,31.2223885 C289.075049,32.8067196 288.68424,34.516699 288.563592,36.3523316" id="text5163" fill="#000000" fill-rule="nonzero"></path>
                    <polyline id="path3094" fill="#000000" fill-rule="nonzero" points="506.735441 48.6735255 505.318448 50.825396 503.949761 49.7928447 505.495571 47.7017131 503.241265 47.0249147 503.764587 45.2635048 505.930335 46.0964869 505.930335 43.6062176 507.52445 43.6062176 507.52445 46.0964869 509.690191 45.2808582 510.229617 47.0422689 507.975311 47.7017131 509.505017 49.7754913 508.104129 50.8601036 506.735441 48.6735255"></polyline>
                    <path d="M325.789445,31.7843152 C325.789445,32.325286 325.939355,32.7426036 326.239182,33.0362696 C326.54417,33.3299394 326.978398,33.4767721 327.541865,33.4767721 C328.079473,33.4767721 328.500778,33.3273636 328.805773,33.0285413 C329.115929,32.7297236 329.27102,32.3149818 329.27102,31.7843152 C329.27102,31.2742642 329.113348,30.8646741 328.798024,30.5555457 C328.482681,30.2464259 328.063963,30.0918591 327.541865,30.0918591 C327.019753,30.0918591 326.595861,30.2490024 326.270195,30.563274 C325.949691,30.8775548 325.789445,31.2845683 325.789445,31.7843152 M325.967788,27.0392553 C325.967788,27.4668851 326.102188,27.7966171 326.371002,28.0284536 C326.639803,28.2551514 327.024921,28.3684904 327.526355,28.3684904 C328.027776,28.3684904 328.4129,28.2525755 328.681708,28.0207253 C328.955683,27.7888895 329.092677,27.4617327 329.092677,27.0392553 C329.092677,26.627098 328.953096,26.3025176 328.673959,26.065513 C328.394803,25.8285268 328.012273,25.7100202 327.526355,25.7100202 C327.050766,25.7100202 326.670823,25.8311034 326.386505,26.0732413 C326.107356,26.3153977 325.967788,26.6374021 325.967788,27.0392553 M325.16912,29.1876699 C324.703873,28.9300728 324.367865,28.6286766 324.16109,28.2834814 C323.954315,27.9382994 323.850928,27.4977975 323.850928,26.9619739 C323.850928,26.0140015 324.1766,25.2695276 324.827945,24.7285503 C325.479283,24.1875934 326.37875,23.9170984 327.526355,23.9170984 C328.684288,23.9170984 329.58893,24.1875934 330.240275,24.7285503 C330.896781,25.2643752 331.225033,26.0088498 331.22504,26.9619739 C331.225033,27.4720368 331.113891,27.9151152 330.89162,28.291209 C330.669328,28.6621649 330.335901,28.9609852 329.891345,29.1876699 C330.434121,29.4401271 330.842503,29.7904682 331.116485,30.238693 C331.390453,30.681776 331.527454,31.2227434 331.527454,31.8615967 C331.527454,32.9383818 331.170756,33.7833213 330.457392,34.3964171 C329.749176,35.0095136 328.772166,35.3160622 327.526355,35.3160622 C326.265028,35.3160622 325.28543,35.0120901 324.587563,34.4041454 C323.889696,33.7962013 323.540765,32.948686 323.540765,31.8615967 C323.540765,31.2278952 323.669998,30.6972319 323.92847,30.2696055 C324.19211,29.8368365 324.60566,29.476192 325.16912,29.1876699" id="path3092" fill="#000000" fill-rule="nonzero"></path>
                    <path d="M330.529118,5.2642487 C329.71917,6.41409451 329.117588,7.58428012 328.724364,8.77480932 C328.331132,9.96535369 328.134516,11.2143998 328.134523,12.5219508 C328.134516,13.8244221 328.331132,15.0709245 328.724364,16.2614604 C329.117588,17.4519976 329.71917,18.6221831 330.529118,19.7720207 L328.671544,19.7720207 C327.644448,18.5560424 326.863852,17.3349792 326.329769,16.1088273 C325.801545,14.8775893 325.537438,13.6819646 325.537438,12.5219508 C325.537438,11.3619447 325.801545,10.1663201 326.329769,8.93507354 C326.863852,7.70384265 327.644448,6.48023544 328.671544,5.2642487 L330.529118,5.2642487" id="path3112" fill="#000000" fill-rule="nonzero"></path>
                    <path d="M369.80792,27.7656979 C369.80792,27.1320004 369.628846,26.6322502 369.270719,26.2664441 C368.91836,25.895504 368.436042,25.7100201 367.823758,25.7100201 C367.246129,25.7100201 366.795574,25.8877757 366.472109,26.2432599 C366.154411,26.5987613 365.995565,27.0959362 365.995565,27.7347854 C365.995565,28.3324326 366.163069,28.7986951 366.498098,29.1335736 C366.833119,29.4684634 367.303888,29.6359003 367.910405,29.6359003 C368.505358,29.6359003 368.970352,29.4710399 369.305381,29.1413013 C369.640395,28.8115751 369.80792,28.3530409 369.80792,27.7656979 M369.85124,30.6482833 C369.562421,30.905891 369.221618,31.0990933 368.828837,31.2278915 C368.436042,31.3566969 367.994153,31.4210977 367.503177,31.4210944 C366.284377,31.4210977 365.308184,31.0939415 364.574593,30.4396238 C363.841002,29.7853161 363.47421,28.9094642 363.47421,27.8120662 C363.47421,26.6477061 363.872772,25.7074535 364.669905,24.9913063 C365.46703,24.2751783 366.518312,23.9170984 367.823758,23.9170984 C369.337144,23.9170984 370.486621,24.3833722 371.272212,25.3158866 C372.063556,26.2432685 372.459235,27.5982629 372.459235,29.3808732 C372.459235,31.2974479 372.037559,32.7657873 371.194231,33.7858959 C370.350881,34.8060065 369.137863,35.3160622 367.555162,35.3160622 C366.463436,35.3160622 365.582556,35.0636102 364.912505,34.558707 C364.242455,34.0486527 363.875663,33.3556996 363.812122,32.4798451 L366.316147,32.4875733 C366.373906,32.8430687 366.529868,33.1084 366.784025,33.2835686 C367.038182,33.4587411 367.396309,33.546326 367.85842,33.5463247 C368.482252,33.546326 368.958796,33.3041788 369.28805,32.8198819 C369.61729,32.3355896 369.805022,31.6117241 369.85124,30.6482833" id="path3110" fill="#000000" fill-rule="nonzero"></path>
                    <path d="M364.472546,5.2642487 L366.347725,5.2642487 C367.368947,6.47514767 368.14367,7.69621084 368.671894,8.92744238 C369.200111,10.1536008 369.464226,11.3517692 369.464226,12.5219508 C369.464226,13.6870527 369.200111,14.8852211 368.671894,16.1164591 C368.14367,17.3476985 367.368947,18.5662179 366.347725,19.7720207 L364.472546,19.7720207 C365.288354,18.6170956 365.892868,17.4443658 366.2861,16.2538292 C366.6852,15.0582046 366.884746,13.8142466 366.884753,12.5219508 C366.884746,11.2245746 366.6852,9.98061667 366.2861,8.7900723 C365.892868,7.59954343 365.288354,6.42427005 364.472546,5.2642487" id="path3121" fill="#000000" fill-rule="nonzero"></path>
                    <path d="M405.985966,29.6204546 C405.985966,30.9688067 406.136436,31.9477784 406.437383,32.5573736 C406.744116,33.1669728 407.230263,33.47177 407.895822,33.47177 C408.561373,33.47177 409.047519,33.1643899 409.35426,32.5496243 C409.660993,31.9348633 409.814367,30.9584745 409.814367,29.6204546 C409.814367,28.2772802 409.660993,27.3008914 409.35426,26.6912856 C409.047519,26.0816964 408.561373,25.7768885 407.895822,25.7768885 C407.230263,25.7768885 406.744116,26.0816964 406.437383,26.6912856 C406.136436,27.295725 405.985966,28.2721138 405.985966,29.6204546 M403.407654,29.6204546 C403.407654,27.7141774 403.778051,26.2883397 404.518845,25.3429375 C405.265425,24.3923887 406.391084,23.9170984 407.895822,23.9170984 C409.394767,23.9170984 410.517536,24.3949722 411.264124,25.3506868 C412.016481,26.3012547 412.392679,27.7296753 412.392679,29.6359532 C412.392679,31.5422417 412.019378,32.9654958 411.272806,33.9057211 C410.532004,34.8459482 409.406345,35.3160622 407.895822,35.3160622 C406.391084,35.3160622 405.265425,34.8433654 404.518845,33.8979718 C403.778051,32.9525808 403.407654,31.5267431 403.407654,29.6204546" id="path3119" fill="#000000" fill-rule="nonzero"></path>
                    <path d="M453.324459,136.870466 L461.311148,136.870466 L461.311148,138.450601 L453.324459,138.450601 L453.324459,136.870466 M455.126143,151.378238 L455.126143,149.255904 L459.509464,149.255904 L459.509464,151.378238 L455.126143,151.378238" id="text5187" fill="#000000" fill-rule="nonzero"></path>
                    <polyline id="path2908" fill="#000000" fill-rule="nonzero" points="506.976277 65.3678756 508.491283 65.3678756 508.491283 69.6962748 512.22629 69.6962748 512.22629 71.3851978 508.491283 71.3851978 508.491283 75.7305699 506.976277 75.7305699 506.976277 71.3851978 503.241265 71.3851978 503.241265 69.6962748 506.976277 69.6962748 506.976277 65.3678756"></polyline>
                    <path d="M403.407654,12.9514234 L412.392679,12.9514234 L412.392679,14.5906736 L403.407654,14.5906736 L403.407654,12.9514234 M403.407654,9.40932642 L412.392679,9.40932642 L412.392679,11.0485759 L403.407654,11.0485759 L403.407654,9.40932642" id="path2906" fill="#000000" fill-rule="nonzero"></path>
                    <g id="g3468" transform="translate(522.209651, 13.554404)">
                        <path d="M34.9417637,5.44762461 L6.60997959,5.44762461" id="path5439" stroke="#000000" stroke-width="3"></path>
                        <polygon id="path5441" fill="#000000" points="10.2188177 10.7908889 10.2188177 0.104360363 0.32963928 5.44762461"></polygon>
                    </g>
                    <g id="g5459" transform="translate(10.063228, 48.787565)">
                        <path d="M25.62398,5.69948187 L6.66900632,5.69948187" id="path5453" stroke="#000000" stroke-width="3.00000024"></path>
                        <polygon id="path5455" fill="#000000" points="10.6489185 11.0427461 10.6489185 0.356217617 0.665557404 5.69948187"></polygon>
                        <path d="M0.665557404,0.356217617 C0.665557404,11.0427461 0.665557404,11.0427461 0.665557404,11.0427461" id="path5457" stroke="#000000" stroke-width="3"></path>
                    </g>
                    <g id="g5464" transform="translate(23.041597, 64.849741) rotate(-180.000000) translate(-23.041597, -64.849741) translate(10.063228, 59.150259)">
                        <path d="M25.62398,5.69948187 L6.66900632,5.69948187" id="path5466" stroke="#000000" stroke-width="3.00000024"></path>
                        <polygon id="path5468" fill="#000000" points="10.6489185 11.0427461 10.6489185 0.356217617 0.665557404 5.69948187"></polygon>
                        <path d="M0.665557404,0.356217617 C0.665557404,11.0427461 0.665557404,11.0427461 0.665557404,11.0427461" id="path5470" stroke="#000000" stroke-width="3"></path>
                    </g>
                    <path d="M71.8029078,52.1989663 L70.6148773,51.0271403 L71.8790654,49.7011266 L73.0975615,50.9037902 C73.2600147,50.5954182 73.3844053,50.2433572 73.4707268,49.8476047 C73.5570223,49.4518614 73.6001928,49.0201366 73.6001928,48.5524285 C73.6001928,47.3035156 73.3234805,46.3347041 72.7700883,45.6459914 C72.2166831,44.9521566 71.4424279,44.605225 70.4473292,44.605225 C69.462375,44.605225 68.6957362,44.9495869 68.1474195,45.6382825 C67.5990897,46.3269952 67.3249378,47.2983763 67.3249378,48.5524285 C67.3249378,49.8013527 67.5990897,50.7727338 68.1474195,51.4665752 C68.6957362,52.155282 69.462375,52.4996321 70.4473292,52.4996321 C70.7011794,52.4996321 70.9397966,52.4739358 71.1632006,52.4225386 C71.3916605,52.371144 71.6048941,52.2966202 71.8029078,52.1989663 M73.4250283,53.7485523 C73.0442401,54.0055317 72.5999992,54.200836 72.092299,54.3344653 C71.5896612,54.4680939 71.041338,54.5349089 70.4473292,54.5349089 C68.7718938,54.5349089 67.4391645,53.9952525 66.4491407,52.915939 C65.4641883,51.8366275 64.9717138,50.3821258 64.9717138,48.5524285 C64.9717138,46.7176032 65.4641883,45.2631015 66.4491407,44.1889187 C67.4391645,43.1096164 68.7718938,42.5699482 70.4473292,42.5699482 C72.1227581,42.5699482 73.455481,43.1096164 74.4455237,44.1889187 C75.4406158,45.2682407 75.9381652,46.7227431 75.9381782,48.5524285 C75.9381652,49.3542095 75.8366238,50.0891696 75.6335541,50.7573121 C75.4304584,51.4203212 75.1309164,52.0010943 74.7349149,52.4996321 L75.953411,53.6791677 L74.7044492,55.0051813 L73.4250283,53.7485523" id="text5474" fill="#000000" fill-rule="nonzero"></path>
                    <polyline id="text5482" fill="#000000" fill-rule="nonzero" points="105.050819 55.0051813 101.91015 43.6062176 104.247044 43.6062176 106.122515 51.6466274 107.707729 43.6062176 110.111605 43.6062176 111.69682 51.6466274 113.572291 43.6062176 115.886855 43.6062176 112.753629 55.0051813 110.602794 55.0051813 108.905946 46.2760356 107.201654 55.0051813 105.050819 55.0051813"></polyline>
                    <polyline id="text5492" fill="#000000" fill-rule="nonzero" points="144.838602 55.0051813 144.838602 43.6062176 153.530899 43.6062176 153.530899 45.5873003 147.269847 45.5873003 147.269847 48.0172218 152.994242 48.0172218 152.994242 49.9673501 147.269847 49.9673501 147.269847 52.900281 153.823627 52.900281 153.823627 55.0051813 144.838602 55.0051813"></polyline>
                    <path d="M187.014602,48.5898788 L189.649423,48.5898788 C190.221768,48.5898788 190.641173,48.4686471 190.907618,48.2261639 C191.17899,47.9836952 191.314682,47.6019241 191.314682,47.0808505 C191.314682,46.5855884 191.183923,46.211556 190.922422,45.9587533 C190.660909,45.7008091 190.271113,45.5718228 189.753038,45.5718228 L187.014602,45.5718228 L187.014602,48.5898788 M184.772047,55.0051813 L184.772047,43.6062176 L190.056487,43.6062176 C191.245601,43.6062176 192.12634,43.8719204 192.698704,44.4032937 C193.271049,44.9346881 193.557231,45.7472404 193.557244,46.8409539 C193.557231,47.5374359 193.416606,48.1178304 193.135376,48.5821401 C192.859053,49.0464623 192.459391,49.3637445 191.936384,49.5339882 C192.410047,49.7094019 192.745567,49.9776735 192.942944,50.3388031 C193.145235,50.6999426 193.261184,51.2622802 193.290798,52.0258192 L193.335204,53.372336 C193.335197,53.3826561 193.335197,53.398133 193.335204,53.4187679 C193.349995,54.0997658 193.49062,54.5124907 193.757072,54.6569446 L193.757072,55.0051813 L191.299885,55.0051813 C191.220926,54.8452505 191.159254,54.6492059 191.114854,54.4170474 C191.075375,54.1797315 191.0507,53.8985624 191.040841,53.57354 L191.01124,52.3740559 C190.986558,51.667267 190.858274,51.1900532 190.626375,50.9424146 C190.399396,50.6947832 189.9874,50.5709655 189.39038,50.5709615 L187.014602,50.5709615 L187.014602,55.0051813 L184.772047,55.0051813" id="text5500" fill="#000000" fill-rule="nonzero"></path>
                    <polyline id="text5504" fill="#000000" fill-rule="nonzero" points="228.050004 55.0051813 228.050004 45.6414704 224.705491 45.6414704 224.705491 43.6062176 233.690516 43.6062176 233.690516 45.6414704 230.368965 45.6414704 230.368965 55.0051813 228.050004 55.0051813"></polyline>
                    <polyline id="text5518" fill="#000000" fill-rule="nonzero" points="101.245348 134.797927 98.9589091 134.797927 98.9589091 130.549437 94.921797 123.398964 97.721361 123.398964 100.098355 128.312979 102.294245 123.398964 104.905158 123.398964 101.245348 130.549437 101.245348 134.797927"></polyline>
                    <path d="M304.572379,43.6062176 L306.902397,43.6062176 L306.902397,50.5447175 C306.90239,51.400769 307.074981,52.0265353 307.420175,52.4220169 C307.765356,52.8124972 308.313595,53.007736 309.064892,53.0077347 C309.826332,53.007736 310.379645,52.8124972 310.724839,52.4220169 C311.075095,52.0315411 311.250226,51.4057755 311.250233,50.5447175 L311.250233,43.6062176 L313.557404,43.6062176 L313.557404,50.7925212 C313.557404,52.1491854 313.1716,53.1904597 312.400011,53.916348 C311.633483,54.6422369 310.526856,55.0051813 309.080122,55.0051813 C307.62322,55.0051813 306.506443,54.6447398 305.729773,53.9238567 C304.958177,53.1979691 304.572379,52.1541912 304.572379,50.7925212 L304.572379,43.6062176" id="text5522" fill="#000000" fill-rule="nonzero"></path>
                    <polyline id="text5526" fill="#000000" fill-rule="nonzero" points="347.500832 55.0051813 347.500832 43.6062176 349.497504 43.6062176 349.497504 55.0051813 347.500832 55.0051813"></polyline>
                    <path d="M384.799082,48.7875648 C384.799082,50.0855768 385.073622,51.0951372 385.622713,51.8162495 C386.171791,52.5320253 386.939495,52.8899097 387.925817,52.8899097 C388.922298,52.8899097 389.697629,52.5320253 390.251803,51.8162495 C390.805963,51.0951372 391.083054,50.0855768 391.083054,48.7875648 C391.083054,47.4895644 390.805963,46.4826746 390.251803,45.7668926 C389.697629,45.0457872 388.922298,44.6852198 387.925817,44.6852198 C386.939495,44.6852198 386.171791,45.0431166 385.622713,45.7588807 C385.073622,46.474662 384.799082,47.4842231 384.799082,48.7875648 M382.442596,48.7875648 C382.442596,46.8806232 382.935754,45.3689535 383.922076,44.252551 C384.913474,43.1308269 386.248055,42.5699482 387.925817,42.5699482 C389.603567,42.5699482 390.938147,43.1308269 391.929565,44.252551 C392.926039,45.3742948 393.424293,46.8859645 393.424293,48.7875648 C393.424293,50.6891767 392.926039,52.2008464 391.929565,53.3225793 C390.938147,54.4443142 389.603567,55.0051813 387.925817,55.0051813 C386.248055,55.0051813 384.913474,54.4443142 383.922076,53.3225793 C382.935754,52.2008464 382.442596,50.6891767 382.442596,48.7875648" id="text5530" fill="#000000" fill-rule="nonzero"></path>
                    <path d="M425.808152,48.8839455 L428.146177,48.8839455 C428.779212,48.8839455 429.239368,48.754975 429.526644,48.4970156 C429.813899,48.2339093 429.95754,47.8134456 429.95754,47.2356226 C429.95754,46.6939285 429.816561,46.283783 429.534624,46.0051846 C429.252673,45.7266041 428.832413,45.5873003 428.27385,45.5873003 L425.808152,45.5873003 L425.808152,48.8839455 M425.792198,50.9501527 L425.792198,55.0051813 L423.374376,55.0051813 L423.374376,43.6062176 L428.601014,43.6062176 C429.835178,43.6062176 430.768794,43.9183524 431.40185,44.5425882 C432.040204,45.1616865 432.359401,46.0722615 432.359401,47.2743158 C432.359401,48.4505902 432.048184,49.3585858 431.425785,49.9983045 C430.803371,50.6328743 429.914975,50.9501573 428.760603,50.9501527 L425.792198,50.9501527" id="text5534" fill="#000000" fill-rule="nonzero"></path>
                    <path d="M311.560732,21.8598715 L311.560732,23.4599373 C311.511147,23.4599464 311.442301,23.4573946 311.354179,23.4522813 C311.266043,23.4471869 311.205453,23.4446351 311.172415,23.4446253 C310.616089,23.4446351 310.238791,23.5441609 310.040508,23.743202 C309.847718,23.9371591 309.751326,24.3505722 309.751333,24.9834445 L309.751333,26.8208404 C309.751326,27.5762195 309.627395,28.1121263 309.379541,28.4285614 C309.131674,28.7450064 308.685523,28.9721288 308.041082,29.1099292 C308.685523,29.2477382 309.131674,29.4723081 309.379541,29.7836411 C309.627395,30.0949805 309.751326,30.6283355 309.751333,31.3837068 L309.751333,33.2287586 C309.751326,33.8565346 309.847718,34.2673965 310.040508,34.4613445 C310.233285,34.6552906 310.610583,34.7522639 311.172415,34.7522659 C311.205453,34.7522639 311.266043,34.7497121 311.354179,34.7446099 C311.442301,34.7395044 311.511147,34.7369526 311.560732,34.7369539 L311.560732,36.3370196 C311.483609,36.3370164 311.376204,36.3395688 311.238512,36.3446756 C311.100798,36.3497766 310.9989,36.3523316 310.93281,36.3523316 C310.381997,36.3523316 309.922077,36.3217051 309.553043,36.2604618 C309.184001,36.199212 308.870036,36.1047904 308.611163,35.9771965 C308.297199,35.803662 308.074127,35.5688836 307.941933,35.2728614 C307.815246,34.9819387 307.751906,34.4741034 307.751906,33.7493541 L307.751906,31.8200885 C307.751906,31.1208589 307.61145,30.6257838 307.330544,30.3348598 C307.049631,30.0388382 306.575935,29.8908261 305.909462,29.8908228 C305.87641,29.8908261 305.821333,29.8933779 305.744224,29.8984781 C305.667107,29.9035856 305.609274,29.9061374 305.570715,29.9061341 L305.570715,28.3060684 C305.609274,28.3060736 305.667107,28.3086254 305.744224,28.3137244 C305.821333,28.3188331 305.87641,28.3213849 305.909462,28.3213803 C306.570429,28.3213849 307.041369,28.1733728 307.322281,27.8773427 C307.608693,27.5813237 307.751906,27.0811443 307.751906,26.3768027 L307.751906,24.462849 C307.751906,23.733004 307.815246,23.2200645 307.941933,22.9240298 C308.074127,22.6280154 308.297199,22.3932377 308.611163,22.2196947 C308.870036,22.0921092 309.184001,21.997687 309.553043,21.9364294 C309.922077,21.8751946 310.381997,21.8445596 310.93281,21.8445596 C310.9989,21.8445596 311.100798,21.8471231 311.238512,21.8522156 C311.376204,21.8573309 311.483609,21.8598827 311.560732,21.8598715" id="path3102" fill="#0000FF" fill-rule="nonzero"></path>
                    <polyline id="text5546" fill="#0000FF" fill-rule="nonzero" points="347.500832 22.880829 351.494176 22.880829 351.494176 24.4995592 349.635892 24.4995592 349.635892 35.7698735 351.494176 35.7698735 351.494176 37.388601 347.500832 37.388601 347.500832 22.880829"></polyline>
                    <path d="M425.371048,21.8445596 L425.932874,21.8445596 C426.538756,21.8445596 427.026222,21.8752263 427.395264,21.9365264 C427.764298,21.9978488 428.072749,22.0949253 428.320617,22.2277552 C428.634568,22.3912623 428.85489,22.6262887 428.981584,22.9328344 C429.11377,23.2342908 429.179867,23.7401082 429.179874,24.4502872 L429.179874,26.3815912 C429.179867,27.0815674 429.320324,27.5797208 429.601236,27.8760525 C429.882142,28.1672865 430.355838,28.3129005 431.022318,28.3128953 C431.055356,28.3129005 431.11044,28.3103454 431.187557,28.3052312 C431.264666,28.3001268 431.3225,28.2975724 431.361065,28.2975678 L431.361065,29.8993234 L431.055363,29.8993234 C430.366851,29.8993267 429.882142,30.0423862 429.601236,30.3285021 C429.320324,30.6146238 429.179867,31.1102227 429.179874,31.8152999 L429.179874,33.746604 C429.179867,34.4772279 429.11377,34.9907094 428.981584,35.287049 C428.85489,35.583384 428.634568,35.8133009 428.320617,35.9768001 C428.06173,36.1045289 427.747772,36.1990502 427.378738,36.2603647 C427.009696,36.3216727 426.549769,36.3523316 425.99897,36.3523316 C425.932874,36.3523316 425.830968,36.3497739 425.693269,36.3446675 C425.555569,36.3395553 425.448165,36.3370009 425.371048,36.3370035 L425.371048,34.7352478 C425.420619,34.7352459 425.489472,34.7378004 425.577601,34.7429113 C425.66573,34.7480189 425.726321,34.750574 425.759365,34.7505753 C426.315677,34.750574 426.690225,34.6509431 426.883009,34.4516832 C427.081299,34.2575296 427.180448,33.8487887 427.180448,33.2254584 L427.180448,31.3937853 C427.180448,30.6273975 427.304378,30.08837 427.552239,29.7767009 C427.8001,29.4599301 428.246251,29.2351222 428.890699,29.1022773 C428.246251,28.9643313 427.8001,28.7369689 427.552239,28.4201903 C427.304378,28.1034201 427.180448,27.5669477 427.180448,26.8107699 L427.180448,24.9561053 C427.180448,24.3327829 427.081299,23.9240419 426.883009,23.7298805 C426.690225,23.5306285 426.315677,23.4309975 425.759365,23.4309877 C425.726321,23.4309975 425.66573,23.4335527 425.577601,23.4386518 C425.489472,23.4437705 425.420619,23.4463257 425.371048,23.4463159 L425.371048,21.8445596" id="path3106" fill="#0000FF" fill-rule="nonzero"></path>
                    <polyline id="text5554" fill="#0000FF" fill-rule="nonzero" points="390.429285 22.880829 390.429285 37.388601 386.43594 37.388601 386.43594 35.7698734 388.298444 35.7698734 388.298444 24.4995592 386.43594 24.4995592 386.43594 22.880829 390.429285 22.880829"></polyline>
                    <path d="M79.4280449,86.3036126 L77.8335523,91.1557194 L81.0303611,91.1557194 L79.4280449,86.3036126 M78.0524014,84.0207254 L80.7880611,84.0207254 L84.9384359,95.4196891 L82.4528999,95.4196891 L81.6712809,93.0748931 L77.2082598,93.0748931 L76.4500918,95.4196891 L73.9567388,95.4196891 L78.0524014,84.0207254" id="text5641" fill="#000000" fill-rule="nonzero"></path>
                    <path d="M114.888519,92.4869271 L117.131028,92.4869271 C117.21602,93.1324333 117.463522,93.6125547 117.873526,93.927298 C118.283524,94.2367152 118.876025,94.3914203 119.651036,94.3914203 C120.311031,94.3914203 120.80853,94.266057 121.143539,94.0153235 C121.478529,93.7645968 121.64603,93.3938329 121.646037,92.9030319 C121.64603,92.1881828 120.683531,91.5960341 118.758527,91.1265719 C118.733523,91.1212457 118.711026,91.1159059 118.691033,91.1105661 C118.641023,91.0999069 118.563525,91.0812311 118.458526,91.0545524 C117.42852,90.8144985 116.693523,90.545096 116.253522,90.2463449 C115.863517,89.9796123 115.566019,89.6221912 115.36102,89.174068 C115.156021,88.7206185 115.053518,88.1871534 115.053518,87.5736521 C115.053518,86.4266925 115.418518,85.5491354 116.148523,84.9409671 C116.878522,84.3274863 117.933527,84.0207254 119.313531,84.0207254 C120.603531,84.0207254 121.611029,84.3461552 122.336042,84.9969808 C123.066035,85.6478268 123.451034,86.5653986 123.491047,87.7496961 L121.308538,87.7496961 C121.268532,87.1788862 121.063533,86.7441126 120.693535,86.4453546 C120.32353,86.146624 119.796028,85.9972518 119.111034,85.9972382 C118.516024,85.9972518 118.056023,86.1226152 117.73103,86.373335 C117.411023,86.6187424 117.251022,86.9708373 117.251029,87.4296129 C117.251022,88.0537803 117.878525,88.5205725 119.13353,88.829976 C119.473525,88.9153383 119.73853,88.9820249 119.928534,89.0300288 C120.733528,89.2487575 121.303533,89.4194685 121.638536,89.5421619 C121.97853,89.664869 122.273533,89.8008984 122.523543,89.9502705 C122.973535,90.2170099 123.311034,90.5717679 123.536045,91.0145445 C123.761038,91.451995 123.873544,91.977464 123.873544,92.5909516 C123.873544,93.8179405 123.486036,94.7701871 122.711045,95.4476982 C121.936034,96.1198695 120.843532,96.4559585 119.433531,96.4559585 C118.043524,96.4559585 116.953524,96.1118666 116.163525,95.4236894 C115.373519,94.7355123 114.948519,93.7565938 114.888519,92.4869271" id="text5645" fill="#000000" fill-rule="nonzero"></path>
                    <path d="M156.958515,93.3612189 L158.706605,93.3612189 C159.718518,93.3612189 160.449888,93.0774751 160.9007,92.5099742 C161.356302,91.9373225 161.584114,91.0112655 161.584114,89.7318164 C161.584114,88.4575313 161.373085,87.5211595 160.951062,86.9227009 C160.529015,86.3242621 159.869591,86.0250262 158.972772,86.0250262 L156.958515,86.0250262 L156.958515,93.3612189 M154.821963,95.4196891 L154.821963,84.0207254 L158.972772,84.0207254 C160.59856,84.0207254 161.809509,84.4927909 162.605629,85.436889 C163.406525,86.3810069 163.806988,87.8126493 163.806988,89.7318164 C163.806988,90.7739516 163.658309,91.6922626 163.360976,92.4867559 C163.068418,93.2812559 162.641589,93.9209804 162.080483,94.4059296 C161.658442,94.7670677 161.178857,95.0275999 160.641728,95.1875327 C160.104586,95.3423014 159.351639,95.4196891 158.382881,95.4196891 L154.821963,95.4196891" id="text5649" fill="#000000" fill-rule="nonzero"></path>
                    <polyline id="text5653" fill="#000000" fill-rule="nonzero" points="194.755408 95.4196891 194.755408 84.0207254 202.742097 84.0207254 202.742097 86.0018079 197.078386 86.0018079 197.078386 88.5864998 202.042871 88.5864998 202.042871 90.5675823 197.078386 90.5675823 197.078386 95.4196891 194.755408 95.4196891"></polyline>
                    <path d="M241.917274,94.733295 C241.51715,95.3262138 241.06092,95.7615546 240.548586,96.0393176 C240.041117,96.3170737 239.443385,96.4559585 238.75539,96.4559585 C237.247634,96.4559585 236.025333,95.8844062 235.088478,94.7413083 C234.156501,93.5928636 233.690516,92.0865373 233.690516,90.2223155 C233.690516,88.3420809 234.156501,86.8384279 235.088478,85.7113428 C236.020455,84.5842782 237.262274,84.0207254 238.813943,84.0207254 C240.165543,84.0207254 241.268296,84.3759543 242.122208,85.086371 C242.976101,85.7914752 243.483564,86.7636421 243.644597,88.0028853 L241.382974,88.0028853 C241.246343,87.388607 240.965773,86.92122 240.541266,86.6007175 C240.12163,86.2802286 239.572689,86.1199842 238.89445,86.1199705 C237.991747,86.1199842 237.281792,86.4832126 236.764573,87.2096559 C236.252226,87.9307798 235.996053,88.9296597 235.996059,90.2062958 C235.996053,91.4882786 236.264424,92.4924985 236.801167,93.2189554 C237.337904,93.9454123 238.074702,94.3086408 239.011557,94.3086408 C239.714192,94.3086408 240.302168,94.0816238 240.77548,93.6275831 C241.248779,93.1735493 241.541546,92.5512577 241.653781,91.7606948 L239.209177,91.7606948 L239.209177,89.7415753 L243.673877,89.7415753 L243.673877,96.1274496 L242.188082,96.1274496 L241.917274,94.733295" id="text5657" fill="#000000" fill-rule="nonzero"></path>
                    <polyline id="text5661" fill="#000000" fill-rule="nonzero" points="274.622296 95.4196891 274.622296 84.0207254 276.872241 84.0207254 276.872241 88.2692162 281.357376 88.2692162 281.357376 84.0207254 283.607321 84.0207254 283.607321 95.4196891 281.357376 95.4196891 281.357376 90.3663835 276.872241 90.3663835 276.872241 95.4196891 274.622296 95.4196891"></polyline>
                    <path d="M314.55574,90.9775564 L317.039921,90.9775564 L317.039921,92.3177273 C317.039921,92.7042165 317.169925,93.0003604 317.429934,93.2061526 C317.689936,93.406927 318.062984,93.5073142 318.549085,93.5073142 C319.080397,93.5073142 319.450623,93.3843439 319.659763,93.1383904 C319.868889,92.8924433 319.973456,92.4306621 319.973463,91.7530468 L319.973463,84.0207254 L322.542429,84.0207254 L322.542429,91.8584582 C322.542429,92.5611687 322.494375,93.0781645 322.398295,93.4094391 C322.307851,93.735696 322.155237,94.02431 321.940461,94.2752748 C321.612617,94.6467108 321.163262,94.9303071 320.59239,95.1260573 C320.021503,95.321814 319.351707,95.4196891 318.583002,95.4196891 C317.87646,95.4196891 317.251883,95.3343616 316.709262,95.1637065 C316.166642,94.9930451 315.714459,94.7395681 315.352712,94.4032693 C315.064443,94.1322271 314.858139,93.8310654 314.733785,93.4997844 C314.615089,93.163492 314.55574,92.6113591 314.55574,91.8433985 L314.55574,90.9775564" id="text5665" fill="#000000" fill-rule="nonzero"></path>
                    <polyline id="text5669" fill="#000000" fill-rule="nonzero" points="353.490849 95.4196891 353.490849 84.0207254 355.799977 84.0207254 355.799977 88.702578 360.181986 84.0207254 363.070305 84.0207254 358.58922 88.6329364 363.47421 95.4196891 360.65448 95.4196891 356.996454 90.2038687 355.799977 91.4110942 355.799977 95.4196891 353.490849 95.4196891"></polyline>
                    <polyline id="text5673" fill="#000000" fill-rule="nonzero" points="394.422629 95.4196891 394.422629 84.0207254 396.790502 84.0207254 396.790502 93.314789 402.409318 93.314789 402.409318 95.4196891 394.422629 95.4196891"></polyline>
                    <polyline id="text5679" fill="#000000" fill-rule="nonzero" points="264.638935 55.0051813 264.638935 53.0240989 270.795484 45.6724272 264.761912 45.6724272 264.761912 43.6062176 273.62396 43.6062176 273.62396 45.5873001 267.452038 52.9467112 273.485609 52.9467112 273.485609 55.0051813 264.638935 55.0051813"></polyline>
                    <polyline id="text5683" fill="#000000" fill-rule="nonzero" points="134.855241 134.797927 138.405396 128.978498 134.855241 123.398964 137.538944 123.398964 139.846922 127.384347 142.139569 123.398964 144.838602 123.398964 141.288454 128.963019 144.838602 134.797927 142.1549 134.797927 139.846922 130.851241 137.538944 134.797927 134.855241 134.797927"></polyline>
                    <path d="M184.772047,131.451416 C184.68785,132.792165 184.207502,133.85781 183.330994,134.648366 C182.459425,135.438922 181.320453,135.834197 179.914073,135.834197 C178.294741,135.834197 177.034441,135.289358 176.133169,134.199672 C175.236847,133.109987 174.788686,131.582294 174.788686,129.61658 C174.788686,127.608147 175.246747,126.069768 176.162884,125.001442 C177.079014,123.933137 178.39626,123.398964 180.114628,123.398964 C181.511107,123.398964 182.61294,123.767546 183.420135,124.504676 C184.232261,125.236486 184.677949,126.272752 184.757189,127.61348 L182.536192,127.61348 C182.442095,126.94579 182.189538,126.438343 181.778522,126.091128 C181.367492,125.738593 180.812867,125.562322 180.114628,125.562308 C179.124215,125.562322 178.371501,125.90685 177.856487,126.595907 C177.341472,127.284985 177.083965,128.291872 177.083965,129.61658 C177.083965,130.89857 177.338994,131.88943 177.849064,132.58918 C178.364073,133.288931 179.0945,133.638806 180.040352,133.6388 C180.723727,133.638806 181.283309,133.451849 181.719097,133.077934 C182.154872,132.698686 182.437138,132.156513 182.565901,131.451416 L184.772047,131.451416" id="text5687" fill="#000000" fill-rule="nonzero"></path>
                    <polyline id="text5691" fill="#000000" fill-rule="nonzero" points="217.624986 134.797927 213.723794 123.398964 216.304108 123.398964 218.707794 131.926903 221.157555 123.398964 223.707155 123.398964 219.852044 134.797927 217.624986 134.797927"></polyline>
                    <path d="M256.81257,132.739457 L259.482788,132.739457 C260.112528,132.739457 260.571203,132.620804 260.858807,132.383483 C261.146404,132.146169 261.290209,131.772134 261.290209,131.261385 C261.290209,130.730006 261.148879,130.348231 260.866245,130.116075 C260.583599,129.878761 260.117485,129.760094 259.467917,129.760094 L256.81257,129.760094 L256.81257,132.739457 M256.81257,127.809969 L259.386097,127.809969 C259.941457,127.809969 260.348061,127.711952 260.605922,127.515904 C260.863757,127.314705 260.992691,127.000004 260.992691,126.571793 C260.992691,126.153916 260.866239,125.852112 260.613354,125.666372 C260.36542,125.475501 259.951371,125.380046 259.37122,125.380046 L256.81257,125.380046 L256.81257,127.809969 M254.655574,134.797927 L254.655574,123.398964 L259.817499,123.398964 C260.938138,123.398964 261.791021,123.646612 262.376149,124.14187 C262.966214,124.631989 263.261249,125.34652 263.261262,126.28546 C263.261249,126.863289 263.152163,127.345656 262.93399,127.732582 C262.715804,128.11952 262.388532,128.418743 261.952185,128.630263 C262.517459,128.867583 262.93894,129.210661 263.216636,129.659495 C263.499263,130.103178 263.640599,130.657775 263.640599,131.323294 C263.640599,132.432495 263.29348,133.288904 262.599285,133.892513 C261.905071,134.496123 260.920786,134.797927 259.646427,134.797927 L254.655574,134.797927" id="text5695" fill="#000000" fill-rule="nonzero"></path>
                    <polyline id="text5699" fill="#000000" fill-rule="nonzero" points="294.589018 134.797927 294.589018 123.398964 296.935188 123.398964 301.361096 131.230434 301.361096 123.398964 303.574043 123.398964 303.574043 134.797927 301.257475 134.797927 296.801972 126.966457 296.801972 134.797927 294.589018 134.797927"></polyline>
                    <polyline id="text5703" fill="#000000" fill-rule="nonzero" points="333.524126 134.797927 333.524126 123.398964 336.848316 123.398964 339.022393 132.073939 341.166792 123.398964 344.505824 123.398964 344.505824 134.797927 342.398522 134.797927 342.398522 125.604463 340.17992 134.797927 337.879701 134.797927 335.631422 125.604463 335.631422 134.797927 333.524126 134.797927"></polyline>
                    <g id="g3476" transform="translate(561.144759, 70.549223)">
                        <polygon id="path5745" fill="#000000" points="10.2460811 14.1923857 10.2460811 4.73079522 0 9.46159045"></polygon>
                        <polyline id="path5747" stroke="#000000" stroke-width="3" points="25.6152027 0 25.6152027 9.46159045 5.12304055 9.46159045"></polyline>
                    </g>
                    <polygon id="path5757" stroke="#000000" stroke-width="2" points="18.5490849 130.65285 11.0615641 140.324698 16.0532446 140.324698 16.0532446 145.160622 21.0449251 145.160622 21.0449251 140.324698 26.0366057 140.324698"></polygon>
                    <polygon id="path5801" stroke="#000000" stroke-width="2" points="501.74376 130.65285 494.25624 140.324698 499.24792 140.324698 499.24792 145.160622 504.239601 145.160622 504.239601 140.324698 509.231281 140.324698"></polygon>
                    <path d="M447.271362,12.3981133 C447.271355,12.3427956 447.268682,12.2698712 447.26335,12.1793401 C447.258005,12.0837877 447.255332,12.013374 447.255339,11.9681117 C447.255332,11.5255311 447.306067,11.158392 447.407538,10.8666879 C447.509009,10.5699626 447.671892,10.2933481 447.896196,10.036851 C448.067084,9.84573984 448.320761,9.62696663 448.657213,9.38051845 C448.998997,9.13408959 449.220628,8.95555097 449.322105,8.84489617 C449.535717,8.61858461 449.682578,8.41490098 449.762694,8.23383241 C449.842796,8.0527896 449.882847,7.85412724 449.882854,7.63785823 C449.882847,7.16008365 449.741325,6.7879104 449.458281,6.52135136 C449.175231,6.25480519 448.780039,6.12152889 448.272699,6.12151602 C447.765352,6.12152889 447.364814,6.28246728 447.071093,6.60433119 C446.782704,6.92119314 446.625159,7.36880143 446.598458,7.94716251 L444.339434,7.94716251 L444.339434,7.71329971 C444.339434,6.65212346 444.694575,5.8071969 445.404864,5.17852004 C446.120484,4.54483478 447.08177,4.22797927 448.288722,4.22797927 C449.522367,4.22797927 450.502342,4.52723456 451.228654,5.12571294 C451.960291,5.71918291 452.326123,6.51633008 452.326123,7.51715444 C452.326123,7.86921683 452.283386,8.1860659 452.197952,8.46770164 C452.117836,8.74431611 451.99233,8.99829621 451.821449,9.22964193 C451.602477,9.52134598 451.263359,9.83819505 450.804082,10.1801827 C450.350136,10.5171555 450.075104,10.7258733 449.978979,10.806336 C449.776037,10.9924259 449.629177,11.1885712 449.53839,11.3947654 C449.452936,11.6009726 449.410212,11.8474079 449.410219,12.1340778 C449.410212,12.1592292 449.412885,12.2019745 449.41823,12.2623264 C449.423562,12.3226783 449.426235,12.3679406 449.426242,12.3981133 L447.271362,12.3981133 M447.159207,15.626943 L447.159207,13.4165572 L449.522367,13.4165572 L449.522367,15.626943 L447.159207,15.626943" id="path3083" fill="#000000" fill-rule="nonzero"></path>
                    <polyline id="text5819" fill="#000000" fill-rule="nonzero" points="286.602329 17.6994819 290.513661 4.22797927 291.59401 4.22797927 287.666905 17.6994819 286.602329 17.6994819"></polyline>
                    <path d="M173.790349,71.3477892 C173.706153,72.6885311 173.225805,73.7541834 172.349297,74.5447326 C171.477728,75.3352885 170.338756,75.7305699 168.932376,75.7305699 C167.313043,75.7305699 166.052744,75.1857239 165.151471,74.0960386 C164.255149,73.0063602 163.806988,71.4786608 163.806988,69.5129541 C163.806988,67.5045214 164.26505,65.9661436 165.181187,64.8978151 C166.097317,63.8295079 167.414563,63.2953368 169.132931,63.2953368 C170.52941,63.2953368 171.631243,63.6639188 172.438438,64.4010472 C173.250563,65.1328555 173.696252,66.1691262 173.775492,67.5098544 L171.554495,67.5098544 C171.460398,66.8421637 171.207841,66.3347105 170.796824,65.9875004 C170.385795,65.6349647 169.83117,65.4586924 169.132931,65.4586829 C168.142518,65.4586924 167.389804,65.8032251 166.87479,66.4922816 C166.359775,67.1813524 166.102268,68.1882455 166.102268,69.5129541 C166.102268,70.7949367 166.357297,71.7858033 166.867367,72.4855471 C167.382375,73.1853045 168.112802,73.5351729 169.058655,73.5351729 C169.74203,73.5351729 170.301612,73.3482223 170.7374,72.9743072 C171.173175,72.5950592 171.455441,72.0528865 171.584204,71.3477892 L173.790349,71.3477892" id="text5928" fill="#0000FF" fill-rule="nonzero"></path>
                    <path d="M161.287519,70.6019455 L168.769447,70.6019455 L168.293902,71.5854922 L160.81198,71.5854922 L161.287519,70.6019455 M162.315083,68.4766839 L169.797005,68.4766839 L169.32146,69.4602377 L161.839538,69.4602377 L162.315083,68.4766839" id="text5956" fill="#0000FF" fill-rule="nonzero"></path>
                    <path d="M246.306818,31.4674627 C246.306818,32.1011708 246.483505,32.6034975 246.836887,32.9744441 C247.196052,33.3453954 247.682669,33.5308681 248.296736,33.5308681 C248.870242,33.5308681 249.319205,33.3505472 249.643616,32.9899007 C249.968019,32.6292575 250.130232,32.1269308 250.130232,31.4829193 C250.130232,30.8904344 249.962228,30.4293243 249.626242,30.099587 C249.290234,29.7698595 248.818099,29.6049879 248.209838,29.6049879 C247.613152,29.6049879 247.146809,29.7698595 246.810815,30.099587 C246.474815,30.4293243 246.306818,30.8852827 246.306818,31.4674627 M246.272063,28.5771497 C246.555921,28.3195526 246.897705,28.1263496 247.297432,27.9975409 C247.69715,27.8635942 248.143213,27.7966176 248.635628,27.7966103 C249.852158,27.7966176 250.825391,28.1263496 251.555326,28.7858085 C252.291031,29.4452792 252.658902,30.323707 252.658902,31.4210944 C252.658902,32.5854651 252.259176,33.5257177 251.459738,34.2418543 C250.660293,34.9579929 249.605954,35.3160622 248.296736,35.3160622 C246.784744,35.3160622 245.634824,34.8523755 244.846969,33.9250023 C244.064905,32.997631 243.673877,31.6400607 243.673877,29.8522874 C243.673877,27.9305715 244.093876,26.4622315 244.933867,25.4472647 C245.773857,24.4271646 246.984603,23.9170984 248.566112,23.9170984 C249.66678,23.9170984 250.553123,24.1721375 251.225124,24.6821819 C251.902902,25.1922468 252.273657,25.882624 252.33739,26.7533156 L249.817411,26.7533156 C249.759469,26.3978307 249.603062,26.1299235 249.348176,25.949592 C249.093274,25.7692784 248.737,25.6791169 248.279355,25.6791077 C247.653698,25.6791169 247.17288,25.9212647 246.836887,26.4055504 C246.500886,26.8847015 246.312609,27.6085671 246.272063,28.5771497" id="path3060" fill="#000000" fill-rule="nonzero"></path>
                    <polygon id="rect10188" stroke="#000000" fill="#FFFFFF" points="508.232945 79.8756477 548.166389 79.8756477 548.166389 119.253886 508.232945 119.253886"></polygon>
                    <path d="M532.193012,69.5129534 L532.193012,71.2974939 C531.681032,71.679704 531.196141,71.9623254 530.738332,72.1453513 C530.285431,72.3229957 529.837458,72.4118214 529.394419,72.4118145 C529.167963,72.4118214 528.941519,72.3902885 528.715081,72.3472159 C528.488625,72.3041571 528.262174,72.2422527 528.035737,72.1614958 C527.917584,72.118437 527.742829,72.0511442 527.511464,71.9596243 C526.433371,71.5558883 525.613732,71.3540168 525.052546,71.3540168 C524.634107,71.3540168 524.195983,71.4562996 523.738167,71.6608584 C523.285267,71.8600426 522.775763,72.1803414 522.209651,72.6217617 L522.209651,70.837228 C522.736381,70.4496433 523.238506,70.1616404 523.716013,69.9732192 C524.193519,69.7794303 524.643949,69.6825359 525.06731,69.682529 C525.643271,69.6825359 526.359534,69.8386474 527.216098,70.1508636 C527.230861,70.1562589 527.240704,70.1589462 527.245631,70.1589393 C527.334238,70.191249 527.469611,70.2423904 527.651765,70.3123636 C528.414782,70.6084422 529.005513,70.756485 529.423959,70.7564781 C529.842379,70.756485 530.273125,70.6568963 530.716183,70.4577121 C531.159222,70.2585349 531.651492,69.9436176 532.193012,69.5129534" id="path2917" fill="#0000FF" fill-rule="nonzero"></path>
                    <path d="M517.136625,108.47359 L516.485858,110.360525 L518.342026,110.360525 L518.978002,108.47359 L517.136625,108.47359 M517.136625,103.709845 L518.770936,103.709845 L517.691259,106.919185 L519.480864,106.919185 L520.57534,103.709845 L522.209651,103.709845 L521.115182,106.919185 L523.207987,106.919185 L522.660755,108.47359 L520.590132,108.47359 L519.968942,110.345063 L522.113517,110.345063 L521.588467,111.891734 L519.436495,111.891734 L518.342026,115.108808 L516.707709,115.108808 L517.802184,111.891734 L515.997781,111.891734 L514.895916,115.108808 L513.268994,115.108808 L514.348678,111.891734 L512.22629,111.891734 L512.788319,110.345063 L514.873728,110.345063 L515.50971,108.47359 L513.298577,108.47359 L513.845815,106.919185 L516.042156,106.919185 L517.136625,103.709845" id="path2915" fill="#000000" fill-rule="nonzero"></path>
                    <polygon id="rect10196" stroke="#000000" fill="#FFFFFF" points="49.9966722 119.253886 89.9301165 119.253886 89.9301165 158.632124 49.9966722 158.632124"></polygon>
                    <path d="M106.90183,31.1709845 C106.919686,30.515654 107.083345,29.9620092 107.392814,29.5100479 C107.708233,29.0580989 108.261713,28.6004943 109.053238,28.1372327 C109.166316,28.0750964 109.324025,27.9875306 109.526374,27.8745337 C110.627362,27.2813504 111.177863,26.7079324 111.177863,26.1542782 C111.177863,25.8322697 111.067764,25.5780451 110.847567,25.391603 C110.627362,25.2051818 110.323849,25.1119661 109.937014,25.1119553 C109.508511,25.1119661 109.178215,25.2277796 108.946118,25.4593963 C108.714014,25.6853842 108.597959,26.0102274 108.597966,26.4339252 L108.597966,26.5017185 L107.044662,26.5017185 C107.044662,25.6712607 107.30355,25.0328739 107.82131,24.5865574 C108.339078,24.1402632 109.080015,23.9170984 110.044135,23.9170984 C110.913026,23.9170984 111.60338,24.12049 112.115199,24.5272384 C112.632959,24.9283594 112.891847,25.4650562 112.891847,26.1373295 C112.891847,26.6231911 112.757935,27.0412493 112.490135,27.3915061 C112.222319,27.7417796 111.698602,28.145715 110.918983,28.6033116 C110.746388,28.7106587 110.502385,28.8518944 110.186967,29.0270203 C109.472807,29.4224879 109.071094,29.7332069 108.981822,29.9591782 L112.820431,29.9591782 L112.820431,31.1709845 L106.90183,31.1709845" id="text5910" fill="#0000FF" fill-rule="nonzero"></path>
                    <path d="M146.835275,29.8441832 L148.438483,29.8441832 C148.450224,30.2448964 148.564737,30.5440532 148.782027,30.7416563 C148.99931,30.9392706 149.325235,31.038075 149.759808,31.0380693 C150.176755,31.038075 150.499748,30.9447594 150.72878,30.7581233 C150.957804,30.5714992 151.072324,30.3052765 151.072324,29.9594553 C151.072324,29.6081579 150.940192,29.3446797 150.675929,29.1690204 C150.411657,28.9878865 150.015262,28.897316 149.486735,28.8973083 L149.231281,28.8973083 L149.231281,27.9174986 L149.416264,27.9174986 C149.903681,27.917507 150.261906,27.8406592 150.490946,27.6869551 C150.725841,27.5277791 150.843292,27.2862573 150.843299,26.9623898 C150.843292,26.6879431 150.74346,26.4711222 150.543797,26.3119273 C150.344126,26.1472639 150.076923,26.0649273 149.742189,26.0649167 C149.372215,26.0649273 149.087401,26.1582421 148.88773,26.344862 C148.688066,26.5260136 148.588227,26.7867474 148.588234,27.1270637 L148.588234,27.1764656 L147.020258,27.1764656 C147.037877,26.4573996 147.284521,25.9084872 147.760197,25.5297263 C148.241751,25.1454983 148.9259,24.9533679 149.81266,24.9533679 C150.64656,24.9533679 151.304287,25.1235418 151.785841,25.4638567 C152.273259,25.8041934 152.516971,26.2680247 152.516979,26.8553516 C152.516971,27.162752 152.43182,27.4344642 152.261525,27.6704873 C152.097086,27.9010393 151.850434,28.0904141 151.521578,28.2386126 C151.950273,28.3978054 152.273259,28.6201151 152.490549,28.9055422 C152.713703,29.1854952 152.825291,29.5148424 152.825291,29.8935857 C152.825291,30.6071784 152.549271,31.1725585 151.997254,31.5897268 C151.4511,32.0014162 150.705289,32.2072539 149.759808,32.2072539 C148.826069,32.2072539 148.103741,32.0041606 147.592834,31.5979607 C147.087789,31.1917706 146.835275,30.6181566 146.835275,29.877118 L146.835275,29.8441832" id="text5922" fill="#0000FF" fill-rule="nonzero"></path>
                    <path d="M131.142474,12.2762972 C131.37447,12.1557871 131.548475,12.0221716 131.664484,11.8754507 C131.780478,11.7287433 131.838482,11.5715462 131.838482,11.403873 C131.838482,11.1995262 131.771777,11.0266148 131.638381,10.885132 C131.50497,10.7384246 131.22947,10.5681289 130.811872,10.3742516 L128.506345,9.29747389 C128.280141,9.41799746 128.106135,9.55422865 127.984336,9.70618089 C127.868334,9.85813984 127.810337,10.020575 127.810337,10.1934797 C127.810337,10.3978399 127.894437,10.5786118 128.062637,10.7357955 C128.236636,10.8877544 128.616541,11.0999685 129.202353,11.3724309 L131.142474,12.2762972 M126.409621,14.8464135 L128.558544,14.8464135 C128.604945,15.2551205 128.738341,15.559025 128.958747,15.7581404 C129.184951,15.9572491 129.503949,16.0568068 129.915763,16.0568068 C130.298556,16.0568068 130.603063,15.9755858 130.829274,15.8131573 C131.055464,15.6454841 131.16857,15.4201714 131.168577,15.1372194 C131.16857,14.9066753 131.08447,14.7075599 130.91627,14.5398866 C130.748062,14.3669752 130.414558,14.1704822 129.915763,13.9504077 L127.83644,12.9993849 C127.175229,12.7007253 126.682226,12.3575181 126.357422,11.9697703 C126.032618,11.5820292 125.870216,11.1471249 125.870216,10.6650642 C125.870216,10.1987245 125.994919,9.79002425 126.244316,9.43894991 C126.499519,9.08265088 126.873626,8.78660021 127.36663,8.55080461 C127.07663,8.31502243 126.862022,8.05827438 126.722828,7.78055376 C126.583619,7.49761514 126.514018,7.18585013 126.514025,6.84525202 C126.514018,6.05929354 126.812726,5.427903 127.410135,4.95106699 C128.007536,4.46901969 128.802143,4.22797927 129.793956,4.22797927 C130.814768,4.22797927 131.615173,4.46378158 132.195187,4.93535264 C132.775186,5.40694383 133.073887,6.05929354 133.091296,6.89241517 L131.038077,6.89241517 C131.026466,6.54135425 130.910464,6.27412326 130.690073,6.09072222 C130.475465,5.90734129 130.16516,5.81564413 129.75916,5.81563742 C129.399552,5.81564413 129.121149,5.88638213 128.92395,6.02784473 C128.732542,6.16932746 128.636846,6.36844284 128.636846,6.62518418 C128.636846,6.8347825 128.749944,7.03127548 128.976149,7.2146564 C129.208151,7.39281934 129.622853,7.60764906 130.220262,7.85915229 L131.681879,8.47220608 C132.42428,8.79184503 132.972385,9.14815077 133.326202,9.54112331 C133.679997,9.92887785 133.856905,10.3768808 133.856905,10.885132 C133.856905,11.3619546 133.723494,11.7785222 133.456702,12.1348212 C133.195687,12.4858888 132.818684,12.7583579 132.325688,12.9522285 C132.662088,13.2194595 132.914388,13.5155101 133.082595,13.8403738 C133.250788,14.1652441 133.334888,14.5215499 133.334903,14.909291 C133.334888,15.7162221 133.01589,16.3816704 132.377887,16.9056494 C131.739876,17.4348666 130.919165,17.6994819 129.915763,17.6994819 C128.813747,17.6994819 127.966934,17.4584482 127.375331,16.9763874 C126.78372,16.4943267 126.461819,15.7843377 126.409621,14.8464135" id="path3131" fill="#000000" fill-rule="nonzero"></path>
                    <path d="M444.339434,35.0385898 L444.339434,26.6993479 C444.339434,25.869433 444.67351,25.1994971 445.341655,24.6895338 C446.009801,24.1745854 446.900663,23.9170984 448.014243,23.9170984 C449.148534,23.9170984 450.036804,24.1670917 450.67906,24.6670335 C451.321303,25.1669944 451.642425,25.8544327 451.642438,26.7293484 C451.642425,27.2693057 451.546606,27.7117615 451.354975,28.0567221 C451.168509,28.401702 450.878461,28.6666763 450.484831,28.8516514 C451.096,29.0866381 451.554376,29.4316051 451.859971,29.886559 C452.17073,30.3415192 452.326123,30.9014683 452.326123,31.5664063 C452.326123,32.6863044 451.992041,33.5912206 451.323902,34.2811611 C450.65575,34.9710951 449.780421,35.3160622 448.697928,35.3160622 C448.547719,35.3160622 448.379385,35.3085621 448.192932,35.2935682 C448.011651,35.278568 447.814829,35.2560676 447.60248,35.2260736 L447.60248,33.4712315 C447.669805,33.4812338 447.737142,33.4887339 447.80448,33.4937318 C447.876982,33.4987298 447.983163,33.501232 448.123009,33.501232 C448.734179,33.501232 449.205509,33.3387443 449.536999,33.0137755 C449.868476,32.6838087 450.034218,32.2163504 450.034225,31.6114006 C450.034218,31.0264617 449.852936,30.5814974 449.490379,30.2765203 C449.132994,29.971556 448.609873,29.8190707 447.921016,29.8190643 L447.711247,29.8190643 L447.719017,28.2817065 C447.75009,28.2867108 447.783755,28.2917088 447.820013,28.2967003 C447.856264,28.2967067 447.910647,28.2967067 447.983169,28.2967003 C448.444131,28.2967067 448.79374,28.1867199 449.032004,27.9667335 C449.275432,27.7417619 449.397146,27.4167931 449.397153,26.9918205 C449.397146,26.5668672 449.270248,26.2444005 449.016464,26.0244077 C448.767844,25.7994361 448.402695,25.6869472 447.921016,25.6869408 C447.475582,25.6869472 447.136328,25.8119406 446.903255,26.0619083 C446.670176,26.3068908 446.553639,26.6668581 446.553646,27.1418101 L446.553646,35.0385898 L444.339434,35.0385898" id="text6073" fill="#000000" fill-rule="nonzero"></path>
                    <path d="M417.384359,129.151277 L417.384359,126.507772 L419.381032,126.507772 L419.381032,129.151277 L417.384359,129.151277 M417.384359,135.834197 L417.384359,133.208143 L419.381032,133.208143 L419.381032,135.834197 L417.384359,135.834197" id="path2750" fill="#000000" fill-rule="nonzero"></path>
                    <path d="M377.464096,128.94868 L377.464096,126.507772 L379.447587,126.507772 L379.447587,128.94868 L377.464096,128.94868 M377.464096,137.906736 L377.464096,136.964202 C377.833112,136.835309 378.105489,136.636601 378.281213,136.368078 C378.456938,136.099548 378.544801,135.750464 378.544801,135.320821 L378.544801,135.119425 L377.450915,135.119425 L377.450915,132.694631 L379.447587,132.694631 L379.447587,135.022752 C379.447587,135.828336 379.280646,136.472801 378.946775,136.956146 C378.612892,137.444866 378.118669,137.76173 377.464096,137.906736" id="path2746" fill="#000000" fill-rule="nonzero"></path>
                    <path d="M377.450915,157.595855 L377.450915,156.658884 C377.819937,156.530751 378.092308,156.333216 378.268038,156.066277 C378.443757,155.799331 378.53162,155.452308 378.531625,155.025201 L378.531625,154.824993 L377.450915,154.824993 L377.450915,152.414508 L379.447587,152.414508 L379.447587,154.728891 C379.447587,155.524383 379.278453,156.165038 378.940184,156.650874 C378.606301,157.136711 378.10988,157.451704 377.450915,157.595855" id="text5803" fill="#000000" fill-rule="nonzero"></path>
                    <polyline id="text5813" fill="#000000" fill-rule="nonzero" points="417.384359 154.487047 417.384359 152.414508 419.381032 152.414508 419.381032 154.487047 417.384359 154.487047"></polyline>
                    <polyline id="path2737" fill="#000000" fill-rule="nonzero" points="63.9733777 145.160622 63.9733777 146.910828 57.1621478 149.827831 63.9733777 152.736848 63.9733777 154.487047 54.9883527 150.611028 54.9883527 149.020662 63.9733777 145.160622"></polyline>
                    <polyline id="path2742" fill="#000000" fill-rule="nonzero" points="54.9883527 125.471503 63.9733777 129.331543 63.9733777 130.921909 54.9883527 134.797927 54.9883527 133.047728 61.8148389 130.138711 54.9883527 127.221708 54.9883527 125.471503"></polyline>
                    <path d="M477.764151,86.4578875 L476.169659,91.2278803 L479.366468,91.2278803 L477.764151,86.4578875 M476.388508,84.2136345 L479.124168,84.2136345 L483.274542,95.4196891 L480.789006,95.4196891 L480.007387,93.114575 L475.544366,93.114575 L474.786198,95.4196891 L472.292845,95.4196891 L476.388508,84.2136345 M478.256568,82.7834014 L478.256568,80.9119171 L480.023021,80.9119171 L480.023021,82.7834014 L478.256568,82.7834014 M475.536549,82.7834014 L475.536549,80.9119171 L477.303002,80.9119171 L477.303002,82.7834014 L475.536549,82.7834014" id="text6003" fill="#000000" fill-rule="nonzero"></path>
                    <path d="M464.306156,43.6998439 L466.636174,43.6998439 L466.636174,50.5813539 C466.636167,51.4303742 466.808758,52.0510007 467.153952,52.4432339 C467.499133,52.830507 468.047372,53.0241422 468.798669,53.0241409 C469.560109,53.0241422 470.113422,52.830507 470.458616,52.4432339 C470.808872,52.0559653 470.984003,51.4353395 470.98401,50.5813539 L470.98401,43.6998439 L473.291181,43.6998439 L473.291181,50.8271216 C473.291181,52.1726433 472.905377,53.2053651 472.133788,53.9252906 C471.36726,54.645218 470.260633,55.0051813 468.813899,55.0051813 C467.356997,55.0051813 466.24022,54.6477003 465.46355,53.9327382 C464.691954,53.2128127 464.306156,52.177608 464.306156,50.8271216 L464.306156,43.6998439 M469.278377,42.3295 L469.278377,40.4974093 L470.99924,40.4974093 L470.99924,42.3295 L469.278377,42.3295 M466.628559,42.3295 L466.628559,40.4974093 L468.349415,40.4974093 L468.349415,42.3295 L466.628559,42.3295" id="text6023" fill="#000000" fill-rule="nonzero"></path>
                    <path d="M434.715888,89.6404136 C434.715888,90.8469135 434.990427,91.7852994 435.539518,92.4555778 C436.088597,93.1208864 436.8563,93.4535439 437.842623,93.4535439 C438.839103,93.4535439 439.614434,93.1208864 440.168608,92.4555778 C440.722769,91.7852994 440.999859,90.8469135 440.999859,89.6404136 C440.999859,88.4339202 440.722769,87.4980191 440.168608,86.8326978 C439.614434,86.1624322 438.839103,85.8272834 437.842623,85.8272834 C436.8563,85.8272834 436.088597,86.1599473 435.539518,86.8252495 C434.990427,87.4905708 434.715888,88.4289568 434.715888,89.6404136 M432.359401,89.6404136 C432.359401,87.8679118 432.852559,86.4628115 433.838881,85.4251189 C434.83028,84.3824757 436.16486,83.8611382 437.842623,83.8611382 C439.520372,83.8611382 440.854953,84.3824757 441.84637,85.4251189 C442.842845,86.4677749 443.341098,87.8728753 443.341098,89.6404136 C443.341098,91.4079584 442.842845,92.8130587 441.84637,93.8557083 C440.854953,94.8983643 439.520372,95.4196891 437.842623,95.4196891 C436.16486,95.4196891 434.83028,94.8983643 433.838881,93.8557083 C432.852559,92.8130587 432.359401,91.4079584 432.359401,89.6404136 M438.323071,82.7440118 L438.323071,80.9119171 L440.046589,80.9119171 L440.046589,82.7440118 L438.323071,82.7440118 M435.669164,82.7440118 L435.669164,80.9119171 L437.392682,80.9119171 L437.392682,82.7440118 L435.669164,82.7440118" id="text6041" fill="#000000" fill-rule="nonzero"></path>
                    <path d="M90.9914477,73.4305166 C90.7173867,73.8519715 90.4009823,74.1630486 90.0422283,74.363735 C89.6834615,74.5594121 89.2599265,74.6572538 88.7716233,74.6572538 C87.984334,74.6572538 87.3839126,74.4415075 86.9703464,74.0100147 C86.561755,73.5785284 86.3574561,72.9413335 86.3574625,72.0984173 C86.3574561,70.8992826 86.7037603,69.8933139 87.3963752,69.0804984 C88.0939584,68.2677021 88.9509972,67.8613008 89.9674913,67.861288 C90.3661012,67.8613008 90.7124055,67.9440826 91.0063977,68.1096461 C91.3003771,68.2752289 91.5420381,68.521076 91.7313934,68.8471938 L92.1275223,68.1096461 L93.457927,68.1096461 L92.3592273,72.6101872 C92.3442646,72.6653793 92.3318084,72.7230761 92.3218524,72.7832839 C92.3118773,72.8384761 92.3068961,72.8836303 92.3069025,72.9187468 C92.3068961,73.094361 92.3666895,73.2273192 92.4862827,73.3176277 C92.6058631,73.4029206 92.7827495,73.4455702 93.0169547,73.4455702 C93.2112721,73.4455702 93.4130708,73.3954002 93.6223573,73.2950474 C93.8366058,73.1947074 94.0359171,73.0542224 94.2202913,72.8735925 C94.6488011,72.4722133 94.9726804,72.003093 95.1919356,71.4662382 C95.4161465,70.9293833 95.5282583,70.3398538 95.5282775,69.6976304 C95.5282583,68.4934799 95.0648611,67.5050695 94.1380793,66.7323925 C93.2162533,65.9547185 92.0253665,65.5658766 90.5654253,65.565867 C89.8628417,65.5658766 89.2076081,65.6511708 88.5997117,65.82175 C87.9967902,65.9923485 87.4486872,66.245723 86.9553965,66.5818742 C86.1083201,67.1538538 85.4555739,67.8688212 84.9971642,68.7267781 C84.5437293,69.5847479 84.3170119,70.525493 84.3170119,71.5490199 C84.3170119,73.0893389 84.8327276,74.3210918 85.8641653,75.2442787 C86.8955967,76.1624499 88.2733386,76.6215323 89.9973848,76.6215323 C90.8045862,76.6215323 91.5918691,76.4986055 92.3592273,76.2527585 C93.1315476,76.0069114 93.849062,75.65068 94.5117897,75.1840709 L95.1246672,76.0646081 C94.3622902,76.6416016 93.5525888,77.075599 92.6955628,77.3666068 C91.8434989,77.6576081 90.9540729,77.8031088 90.0272847,77.8031088 C89.0705776,77.8031088 88.1911203,77.6801821 87.3889002,77.434335 C86.5866673,77.1935036 85.8741277,76.8347676 85.2512814,76.3581206 C84.4789484,75.7510264 83.9009455,75.0511127 83.5172728,74.2583729 C83.1336001,73.4656395 82.9417637,72.5675375 82.9417637,71.5640735 C82.9417637,70.7261858 83.0713129,69.9284303 83.330424,69.1708134 C83.5945099,68.4081871 83.9806701,67.7157937 84.4889171,67.0936396 C85.2263691,66.1855152 86.1133013,65.4981426 87.1497266,65.0315219 C88.1861391,64.5649224 89.3396511,64.3316062 90.6102688,64.3316062 C91.4523512,64.3316062 92.2421215,64.4470152 92.9795798,64.677801 C93.7220066,64.903591 94.3672714,65.2246995 94.9153935,65.6411265 C95.5880517,66.1679544 96.0888238,66.7700328 96.4177035,67.4473598 C96.7515324,68.1196904 96.9184692,68.879812 96.9184692,69.7277311 C96.9184692,70.5555937 96.7540262,71.3207375 96.4251785,72.0231559 C96.10128,72.7205714 95.6329016,73.3176277 95.0200304,73.814344 C94.671226,74.095314 94.2900407,74.3110539 93.8764808,74.4615767 C93.467883,74.6070774 93.0418543,74.6798278 92.5984009,74.6798278 C92.0702163,74.6798278 91.6715936,74.5744656 91.4025329,74.363735 C91.1384342,74.1530107 91.0014101,73.8419401 90.9914477,73.4305166 M91.3651581,70.2093938 C91.3003771,69.8029989 91.1558716,69.4944329 90.9316543,69.2837023 C90.7124055,69.0679623 90.4209134,68.9600827 90.0571782,68.9600827 C89.4891314,68.9600827 88.9958406,69.2711662 88.5772932,69.8933075 C88.158733,70.5154552 87.9494593,71.2630407 87.9494593,72.1360448 C87.9494593,72.5976447 88.0491086,72.9488539 88.2484263,73.1896853 C88.4527188,73.4305166 88.7466983,73.5509323 89.1303837,73.5509323 C89.5439436,73.5509323 89.9201413,73.3928891 90.2589834,73.0767964 C90.6027874,72.76071 90.8369735,72.3492865 90.9615542,71.8425324 L91.3651581,70.2093938" id="path2893" fill="#0000FF" fill-rule="nonzero"></path>
                    <polyline id="path2898" fill="#0000FF" fill-rule="nonzero" points="469.215824 37.388601 465.304493 23.9170984 466.369068 23.9170984 470.296173 37.388601 469.215824 37.388601"></polyline>
                    <polyline id="path2919" fill="#000000" fill-rule="nonzero" points="516.219634 82.984456 518.216306 82.984456 518.216306 88.1658031 516.219634 88.1658031 516.219634 82.984456"></polyline>
                    <polyline id="text6099" fill="#FF0000" fill-rule="nonzero" points="490.262895 22.880829 487.515824 25.9896373 486.269551 25.9896373 487.998535 22.880829 490.262895 22.880829"></polyline>
                    <polyline id="text5103" fill="#FF0000" fill-rule="nonzero" points="485.271215 3.19170984 487.535575 3.19170984 489.264559 6.30051813 488.018286 6.30051813 485.271215 3.19170984"></polyline>
                    <path d="M356.420206,146.196891 L358.502542,146.196891 L357.954941,149.437775 C357.882887,149.835124 357.827642,150.212606 357.78922,150.570221 C357.750785,150.92287 357.731571,151.210945 357.731577,151.434453 C357.731571,151.896376 357.832444,152.241574 358.034196,152.470047 C358.235941,152.693555 358.543368,152.805308 358.956476,152.805308 C359.43683,152.805308 359.809105,152.601668 360.073302,152.194382 C360.342294,151.787102 360.565658,151.064428 360.743394,150.026348 L361.391873,146.196891 L363.47421,146.196891 L362.083583,154.332624 L360.152563,154.332624 L360.282254,153.460935 C360.080502,153.848354 359.854734,154.131464 359.604956,154.310271 C359.359973,154.489078 359.069357,154.578479 358.733112,154.578479 C358.411273,154.578479 358.125465,154.50398 357.87568,154.354971 C357.625896,154.210934 357.400128,153.98494 357.198383,153.676998 L356.549903,157.595855 L354.489185,157.595855 L356.420206,146.196891" id="text6117" fill="#0000FF" fill-rule="nonzero"></path>
                    <polyline id="path3396" fill="#0000FF" fill-rule="nonzero" points="78.9484193 141.015544 80.9450915 141.015544 80.9450915 156.559585 78.9484193 156.559585 78.9484193 141.015544"></polyline>
                    <path d="M9.5640599,5.32731206 C9.16318245,5.32731206 8.81997085,5.47219344 8.5344251,5.7619271 C8.25436196,6.05168985 8.11433039,6.40108354 8.11433039,6.81012999 C8.11433039,7.23055722 8.25436196,7.58563767 8.5344251,7.87537133 C8.81448121,8.16512681 9.15769281,8.30999364 9.5640599,8.30999364 C9.95944068,8.30999364 10.2971556,8.1622907 10.5772258,7.86685574 C10.8572819,7.57143532 10.9973135,7.21919098 10.9973135,6.81012999 C10.9973135,6.40108354 10.8572819,6.05168985 10.5772258,5.7619271 C10.2971556,5.47219344 9.95944068,5.32731206 9.5640599,5.32731206 M9.5640599,4.22797927 C10.2559727,4.22797927 10.8435543,4.48365058 11.3267974,4.99495682 C11.8155302,5.50059813 12.0599002,6.11134261 12.0599002,6.82717571 C12.0599002,7.53734388 11.8155302,8.14524498 11.3267974,8.65087174 C10.8380576,9.15651304 10.2449935,9.40932642 9.54758394,9.40932642 C8.85566407,9.40932642 8.26808958,9.15935642 7.78484641,8.6593946 C7.30709288,8.15944732 7.06821963,7.54871012 7.06821963,6.82717571 C7.06821963,6.10566312 7.30984122,5.49208254 7.79308439,4.98643396 C8.2818172,4.4808072 8.87214003,4.22797927 9.5640599,4.22797927" id="path3403" fill="#000000" fill-rule="nonzero"></path>
                    <polyline id="text6091" fill="#FF0000" fill-rule="nonzero" points="8.63151342 23.9170984 10.4966064 23.9170984 14.0565724 29.0984456 12.3173002 29.0984456 9.57146186 25.6719222 6.81082593 29.0984456 5.07154742 29.0984456 8.63151342 23.9170984"></polyline>
                    <polygon id="path2585" stroke="#000000" stroke-width="2" points="18.5490849 109.927461 26.0366057 100.255613 21.0449251 100.255613 21.0449251 95.4196891 16.0532446 95.4196891 16.0532446 100.255613 11.0615641 100.255613"></polygon>
                    <text id="Strg" fill="#000000" font-family="Helvetica" font-size="16" font-weight="normal">
                        <tspan x="10.9816972" y="185.292746">Strg</tspan>
                    </text>
                    <text id="tspan3451" fill="#000000" font-family="Helvetica" font-size="16" font-weight="normal">
                        <tspan x="553.078203" y="185.292746">Strg</tspan>
                    </text>
                    <g id="text3456" transform="translate(116.805324, 169.948187)" fill="#000000" font-family="Helvetica" font-size="15.9998712" font-weight="normal">
                        <text id="tspan3460">
                            <tspan x="0" y="15.3445596">Alt</tspan>
                        </text>
                    </g>
                    <text id="tspan3466" fill="#0000FF" font-family="Helvetica" font-size="16" font-weight="normal">
                        <tspan x="405.324459" y="185.292746">Alt Gr</tspan>
                    </text>
                    <text id="Win" fill="#000000" font-family="Helvetica" font-size="16" font-weight="normal">
                        <tspan x="64.8918469" y="185.292746">Win</tspan>
                    </text>
                    <text id="Win" fill="#000000" font-family="Helvetica" font-size="16" font-weight="normal">
                        <tspan x="464.22629" y="185.292746">Win</tspan>
                    </text>
                    <text id="Menu" fill="#000000" font-family="Helvetica" font-size="16" font-weight="normal">
                        <tspan x="497.171381" y="185.292746">Menu</tspan>
                    </text>
                    <circle id="Oval" stroke="#EE714E" stroke-width="5" cx="109.9401" cy="138" r="26"></circle>
                </g>
            </g>
        </g>
    </g>
</svg>