<?xml version="1.0" encoding="UTF-8"?>
<svg width="690px" height="230px" viewBox="0 0 690 230" version="1.1" xmlns="http://www.w3.org/2000/svg" xmlns:xlink="http://www.w3.org/1999/xlink">
    <!-- Generator: sketchtool 55.2 (78181) - https://sketchapp.com -->
    <title>german-layout.svg</title>
    <desc>Created with sketchtool.</desc>
    <g id="dom" stroke="none" stroke-width="1" fill="none" fill-rule="evenodd">
        <g id="german-layout.svg">
            <g id="KB_Germany" transform="translate(0.920000, 0.920000)">
                <polygon id="rect2186" stroke="#000000" fill="#FFFFFF" points="0 0 45.8980044 0 45.8980044 45.6953642 0 45.6953642"></polygon>
                <polygon id="rect2218" stroke="#000000" fill="#FFFFFF" points="45.8980044 0 91.7960089 0 91.7960089 45.6953642 45.8980044 45.6953642"></polygon>
                <polygon id="rect2222" stroke="#000000" fill="#FFFFFF" points="91.7960089 0 137.694013 0 137.694013 45.6953642 91.7960089 45.6953642"></polygon>
                <polygon id="rect2228" stroke="#000000" fill="#FFFFFF" points="137.694013 0 183.592018 0 183.592018 45.6953642 137.694013 45.6953642"></polygon>
                <polygon id="rect2230" stroke="#000000" fill="#FFFFFF" points="183.592018 0 229.490022 0 229.490022 45.6953642 183.592018 45.6953642"></polygon>
                <polygon id="rect2232" stroke="#000000" fill="#FFFFFF" points="229.490022 0 275.388027 0 275.388027 45.6953642 229.490022 45.6953642"></polygon>
                <polygon id="rect2234" stroke="#000000" fill="#FFFFFF" points="275.388027 0 321.286031 0 321.286031 45.6953642 275.388027 45.6953642"></polygon>
                <polygon id="rect2236" stroke="#000000" fill="#FFFFFF" points="321.286031 0 367.184035 0 367.184035 45.6953642 321.286031 45.6953642"></polygon>
                <polygon id="rect2238" stroke="#000000" fill="#FFFFFF" points="367.184035 0 413.08204 0 413.08204 45.6953642 367.184035 45.6953642"></polygon>
                <polygon id="rect2240" stroke="#000000" fill="#FFFFFF" points="413.08204 0 458.980044 0 458.980044 45.6953642 413.08204 45.6953642"></polygon>
                <polygon id="rect2242" stroke="#000000" fill="#FFFFFF" points="458.980044 0 504.878049 0 504.878049 45.6953642 458.980044 45.6953642"></polygon>
                <polygon id="rect2244" stroke="#000000" fill="#FFFFFF" points="504.878049 0 550.776053 0 550.776053 45.6953642 504.878049 45.6953642"></polygon>
                <polygon id="rect2246" stroke="#000000" fill="#FFFFFF" points="550.776053 0 596.674058 0 596.674058 45.6953642 550.776053 45.6953642"></polygon>
                <polygon id="rect2248" stroke="#000000" fill="#DFDFDF" points="596.674058 0 688.470067 0 688.470067 45.6953642 596.674058 45.6953642"></polygon>
                <polygon id="rect2250" stroke="#000000" fill="#DFDFDF" points="0 45.6953642 68.8470067 45.6953642 68.8470067 91.3907285 0 91.3907285"></polygon>
                <polygon id="rect2252" stroke="#000000" fill="#FFFFFF" points="68.8470067 45.6953642 114.745011 45.6953642 114.745011 91.3907285 68.8470067 91.3907285"></polygon>
                <polygon id="rect2254" stroke="#000000" fill="#FFFFFF" points="114.745011 45.6953642 160.643016 45.6953642 160.643016 91.3907285 114.745011 91.3907285"></polygon>
                <polygon id="rect2256" stroke="#000000" fill="#FFFFFF" points="160.643016 45.6953642 206.54102 45.6953642 206.54102 91.3907285 160.643016 91.3907285"></polygon>
                <polygon id="rect2258" stroke="#000000" fill="#FFFFFF" points="206.54102 45.6953642 252.439024 45.6953642 252.439024 91.3907285 206.54102 91.3907285"></polygon>
                <polygon id="rect2262" stroke="#000000" fill="#FFFFFF" points="252.439024 45.6953642 298.337029 45.6953642 298.337029 91.3907285 252.439024 91.3907285"></polygon>
                <polygon id="rect2264" stroke="#000000" fill="#FFFFFF" points="298.337029 45.6953642 344.235033 45.6953642 344.235033 91.3907285 298.337029 91.3907285"></polygon>
                <polygon id="rect2266" stroke="#000000" fill="#FFFFFF" points="344.235033 45.6953642 390.133038 45.6953642 390.133038 91.3907285 344.235033 91.3907285"></polygon>
                <polygon id="rect2270" stroke="#000000" fill="#FFFFFF" points="390.133038 45.6953642 436.031042 45.6953642 436.031042 91.3907285 390.133038 91.3907285"></polygon>
                <polygon id="rect2272" stroke="#000000" fill="#FFFFFF" points="436.031042 45.6953642 481.929047 45.6953642 481.929047 91.3907285 436.031042 91.3907285"></polygon>
                <polygon id="rect2274" stroke="#000000" fill="#FFFFFF" points="481.929047 45.6953642 527.827051 45.6953642 527.827051 91.3907285 481.929047 91.3907285"></polygon>
                <polygon id="rect2278" stroke="#000000" fill="#FFFFFF" points="527.827051 45.6953642 573.725055 45.6953642 573.725055 91.3907285 527.827051 91.3907285"></polygon>
                <polygon id="rect2280" stroke="#000000" fill="#FFFFFF" points="573.725055 45.6953642 619.62306 45.6953642 619.62306 91.3907285 573.725055 91.3907285"></polygon>
                <polygon id="rect2286" stroke="#000000" fill="#DFDFDF" points="0 91.3907285 80.3215078 91.3907285 80.3215078 137.086093 0 137.086093"></polygon>
                <polygon id="rect2292" stroke="#000000" fill="#FFFFFF" points="80.3215078 91.3907285 126.219512 91.3907285 126.219512 137.086093 80.3215078 137.086093"></polygon>
                <polygon id="rect2296" stroke="#000000" fill="#FFFFFF" points="126.219512 91.3907285 172.117517 91.3907285 172.117517 137.086093 126.219512 137.086093"></polygon>
                <polygon id="rect2298" stroke="#000000" fill="#FFFFFF" points="172.117517 91.3907285 218.015521 91.3907285 218.015521 137.086093 172.117517 137.086093"></polygon>
                <polygon id="rect2300" stroke="#000000" fill="#FFFFFF" points="218.015521 91.3907285 263.913525 91.3907285 263.913525 137.086093 218.015521 137.086093"></polygon>
                <polygon id="rect2302" stroke="#000000" fill="#FFFFFF" points="263.913525 91.3907285 309.81153 91.3907285 309.81153 137.086093 263.913525 137.086093"></polygon>
                <polygon id="rect2306" stroke="#000000" fill="#FFFFFF" points="309.81153 91.3907285 355.709534 91.3907285 355.709534 137.086093 309.81153 137.086093"></polygon>
                <polygon id="rect2308" stroke="#000000" fill="#FFFFFF" points="355.709534 91.3907285 401.607539 91.3907285 401.607539 137.086093 355.709534 137.086093"></polygon>
                <polygon id="rect2312" stroke="#000000" fill="#FFFFFF" points="401.607539 91.3907285 447.505543 91.3907285 447.505543 137.086093 401.607539 137.086093"></polygon>
                <polygon id="rect2314" stroke="#000000" fill="#FFFFFF" points="447.505543 91.3907285 493.403548 91.3907285 493.403548 137.086093 447.505543 137.086093"></polygon>
                <polygon id="rect2316" stroke="#000000" fill="#FFFFFF" points="493.403548 91.3907285 539.301552 91.3907285 539.301552 137.086093 493.403548 137.086093"></polygon>
                <polygon id="rect2318" stroke="#000000" fill="#FFFFFF" points="539.301552 91.3907285 585.199557 91.3907285 585.199557 137.086093 539.301552 137.086093"></polygon>
                <polygon id="rect2320" stroke="#000000" stroke-width="1.00000048" fill="#DFDFDF" points="631.097561 91.3907285 619.62306 91.3907285 619.62306 45.6953642 688.470067 45.6953642 688.470411 137.086093 631.0132 137.086093"></polygon>
                <polygon id="rect2322" stroke="#000000" stroke-width="1.00000048" fill="#DFDFDF" points="2.86938721e-07 137.086093 57.3736614 137.086093 57.3736614 182.781457 2.86938721e-07 182.781457"></polygon>
                <polygon id="rect2324" stroke="#000000" fill="#FFFFFF" points="103.27051 137.086093 149.168514 137.086093 149.168514 182.781457 103.27051 182.781457"></polygon>
                <polygon id="rect2326" stroke="#000000" fill="#FFFFFF" points="149.168514 137.086093 195.066519 137.086093 195.066519 182.781457 149.168514 182.781457"></polygon>
                <polygon id="rect2330" stroke="#000000" fill="#FFFFFF" points="195.066519 137.086093 240.964523 137.086093 240.964523 182.781457 195.066519 182.781457"></polygon>
                <polygon id="rect2334" stroke="#000000" fill="#FFFFFF" points="240.964523 137.086093 286.862528 137.086093 286.862528 182.781457 240.964523 182.781457"></polygon>
                <polygon id="rect2336" stroke="#000000" fill="#FFFFFF" points="286.862528 137.086093 332.760532 137.086093 332.760532 182.781457 286.862528 182.781457"></polygon>
                <polygon id="rect2338" stroke="#000000" fill="#FFFFFF" points="332.760532 137.086093 378.658537 137.086093 378.658537 182.781457 332.760532 182.781457"></polygon>
                <polygon id="rect2340" stroke="#000000" fill="#FFFFFF" points="378.658537 137.086093 424.556541 137.086093 424.556541 182.781457 378.658537 182.781457"></polygon>
                <polygon id="rect2342" stroke="#000000" fill="#FFFFFF" points="424.556541 137.086093 470.454545 137.086093 470.454545 182.781457 424.556541 182.781457"></polygon>
                <polygon id="rect2344" stroke="#000000" fill="#FFFFFF" points="470.454545 137.086093 516.35255 137.086093 516.35255 182.781457 470.454545 182.781457"></polygon>
                <polygon id="rect2346" stroke="#000000" fill="#FFFFFF" points="516.35255 137.086093 562.250554 137.086093 562.250554 182.781457 516.35255 182.781457"></polygon>
                <polygon id="rect2348" stroke="#000000" fill="#DFDFDF" points="562.250554 137.086093 688.470067 137.086093 688.470067 182.781457 562.250554 182.781457"></polygon>
                <polygon id="rect2350" stroke="#000000" fill="#DFDFDF" points="0 182.781457 68.8470067 182.781457 68.8470067 228.476821 0 228.476821"></polygon>
                <polygon id="rect2352" stroke="#000000" fill="#DFDFDF" points="619.62306 182.781457 688.470067 182.781457 688.470067 228.476821 619.62306 228.476821"></polygon>
                <polygon id="rect2354" stroke="#000000" fill="#DFDFDF" points="114.745011 182.781457 183.592018 182.781457 183.592018 228.476821 114.745011 228.476821"></polygon>
                <polygon id="rect2360" stroke="#000000" fill="#DFDFDF" points="458.980044 182.781457 527.827051 182.781457 527.827051 228.476821 458.980044 228.476821"></polygon>
                <polygon id="rect2362" stroke="#000000" fill="#FFFFFF" points="183.592018 182.781457 458.980044 182.781457 458.980044 228.476821 183.592018 228.476821"></polygon>
                <polygon id="rect2364" stroke="#000000" fill="#EFEFEF" points="68.8470067 182.781457 114.745011 182.781457 114.745011 228.476821 68.8470067 228.476821"></polygon>
                <polygon id="rect2366" stroke="#000000" fill="#EFEFEF" points="527.827051 182.781457 573.725055 182.781457 573.725055 228.476821 527.827051 228.476821"></polygon>
                <polygon id="rect2368" stroke="#000000" fill="#EFEFEF" points="573.725055 182.781457 619.62306 182.781457 619.62306 228.476821 573.725055 228.476821"></polygon>
                <path d="M57.6414395,14.3378131 L56.9422118,8.42062063 L56.9422118,4.85066999 L59.7032636,4.85066999 L59.7032636,8.42062063 L59.0040366,14.3378131 L57.6414395,14.3378131 M56.9780696,17.9970118 L56.9780696,15.3641736 L59.6405126,15.3641736 L59.6405126,17.9970118 L56.9780696,17.9970118 M57.6414395,40.8446939 L57.6414395,32.1072407 L54.5755959,32.1072407 L54.5755959,30.3133405 L54.7728143,30.3133405 C55.8903794,30.3133511 56.7031558,30.1408039 57.2111458,29.795698 C57.7251024,29.4506143 58.0269055,28.8734727 58.116555,28.0642718 L60.1694152,28.0642718 L60.1694152,40.8446939 L57.6414395,40.8446939" id="text5091" fill="#000000" fill-rule="nonzero"></path>
                <path d="M103.709173,5.16304069 L105.430348,5.16304069 L105.430348,10.1520462 L103.709173,10.1520462 L103.709173,5.16304069 M100.786762,5.16304069 L102.507938,5.16304069 L102.507938,10.1520462 L100.786762,10.1520462 L100.786762,5.16304069 M98.3484309,40.8446939 C98.3603797,39.7023114 98.6054062,38.7354508 99.0835181,37.9441099 C99.5616146,37.146824 100.410253,36.3406116 101.629419,35.5254679 C101.814679,35.4005254 102.083618,35.2279782 102.436222,35.0078255 C104.04982,33.9784963 104.856615,32.9878361 104.856623,32.0358417 C104.856615,31.4706091 104.686295,31.0243657 104.345648,30.6971107 C104.004993,30.3698755 103.538845,30.2062526 102.947197,30.206242 C102.301748,30.2062526 101.80273,30.4085498 101.450134,30.8131335 C101.103505,31.2117882 100.930186,31.7829795 100.930194,32.5267097 L100.930194,32.6338082 L98.5635778,32.6338082 C98.5635778,31.1701384 98.95801,30.0426305 99.7468819,29.2512804 C100.535754,28.459954 101.659299,28.0642718 103.117517,28.0642718 C104.438278,28.0642718 105.49309,28.4242545 106.28197,29.1441819 C107.070834,29.8581834 107.465282,30.8101686 107.465282,32.0001422 C107.465282,32.8509883 107.259085,33.5887773 106.846729,34.2135114 C106.434359,34.8382592 105.636522,35.5492729 104.453225,36.3465565 C104.202209,36.5191091 103.855587,36.7452052 103.413345,37.0248471 C102.2898,37.7447905 101.656308,38.2921821 101.512884,38.6670242 L107.339774,38.6670242 L107.339774,40.8446939 L98.3484309,40.8446939" id="text5127" fill="#000000" fill-rule="nonzero"></path>
                <path d="M145.403448,36.9534481 L147.868668,36.9534481 C147.874642,37.667442 148.047953,38.2059085 148.388608,38.5688508 C148.729255,38.9258481 149.234248,39.1043449 149.903602,39.1043433 C150.549035,39.1043449 151.04507,38.9377479 151.391699,38.6045503 C151.744295,38.2654077 151.920597,37.78049 151.920605,37.1497957 C151.920597,36.5191091 151.714416,36.0431157 151.302053,35.7218156 C150.895656,35.3945759 150.289068,35.2309529 149.482273,35.2309476 C149.440429,35.2309529 149.374696,35.2339277 149.285049,35.2398719 C149.201377,35.2458275 149.138627,35.2488023 149.096799,35.248797 L149.096799,33.481672 L149.374696,33.481672 C150.11575,33.4816788 150.662586,33.3388808 151.01519,33.0532779 C151.373761,32.76174 151.553053,32.3184713 151.553061,31.7234712 C151.553053,31.2296376 151.400657,30.8399186 151.095871,30.5543127 C150.797052,30.262777 150.387673,30.1170042 149.86774,30.1169936 C149.299989,30.1170042 148.86073,30.2836019 148.54997,30.6167866 C148.239195,30.9499919 148.083815,31.4230097 148.083815,32.0358417 L148.083815,32.1429402 L145.663414,32.1429402 C145.693293,30.8339683 146.078768,29.8314082 146.819829,29.1352569 C147.566865,28.4331796 148.618695,28.0821219 149.975317,28.0821219 C151.260217,28.0821219 152.279175,28.3945045 153.032193,29.019234 C153.785196,29.6439864 154.161705,30.4858983 154.161712,31.5449737 C154.161705,32.1042743 154.033213,32.5951423 153.776246,33.0175784 C153.519255,33.4400298 153.133781,33.7880997 152.61983,34.0617883 C153.277212,34.3473912 153.773247,34.7430605 154.107928,35.248797 C154.448567,35.7485954 154.618902,36.3465611 154.618902,37.0426972 C154.618902,38.3219321 154.197566,39.336392 153.354917,40.0860801 C152.512245,40.8357696 151.361812,41.210614 149.903602,41.210614 C148.463307,41.210614 147.351718,40.8476695 146.568821,40.1217796 C145.791905,39.3899409 145.403448,38.3516813 145.403448,37.0069977 L145.403448,36.9534481" id="text5139" fill="#000000" fill-rule="nonzero"></path>
                <path d="M194.654156,16.3369853 C195.144201,16.2715381 195.517727,16.0960154 195.77471,15.8104178 C196.031685,15.5248241 196.160184,15.1440294 196.160184,14.6680337 C196.160184,14.245593 196.037659,13.897523 195.792641,13.623823 C195.553581,13.3441811 195.174088,13.1270101 194.654156,12.9723069 L194.654156,16.3369853 M193.587387,10.2323702 L193.587387,7.19791237 C193.121231,7.25742228 192.765637,7.4180699 192.520618,7.67985536 C192.275584,7.93571209 192.153074,8.28080728 192.153074,8.71514096 C192.153074,9.07809543 192.266618,9.38154083 192.493722,9.62547868 C192.726792,9.86943328 193.091344,10.0717305 193.587387,10.2323702 M193.587387,20.0051091 L193.587387,18.2915329 C192.236739,18.2082341 191.226745,17.8185151 190.557399,17.1223744 C189.888054,16.4262352 189.553381,15.4207003 189.553381,14.105766 L191.95585,14.105766 C191.98573,14.7483608 192.135136,15.2570782 192.404075,15.6319203 C192.678981,16.0008167 193.073421,16.2358386 193.587387,16.3369853 L193.587387,12.6420863 C192.200877,12.2910469 191.214789,11.8329037 190.629115,11.2676558 C190.043434,10.7024209 189.750597,9.92893245 189.750597,8.94718811 C189.750597,7.85836354 190.097218,6.9807514 190.790477,6.31434963 C191.489703,5.64797124 192.421998,5.29990142 193.587387,5.2701392 L193.587387,4.12775509 L194.654156,4.12775509 L194.654156,5.2701392 C195.819529,5.32965101 196.72792,5.68069575 197.37935,6.32327454 C198.030757,6.95992673 198.389335,7.85836354 198.455084,9.01858712 L196.016753,9.01858712 C195.974909,8.46525434 195.840443,8.0428106 195.613348,7.75125437 C195.392219,7.45376932 195.072486,7.28717179 194.654156,7.25146163 L194.654156,10.5001161 C196.130297,10.958267 197.17017,11.4818589 197.773782,12.0708943 C198.377379,12.6599418 198.679197,13.436405 198.679197,14.4002871 C198.679197,15.5367239 198.326585,16.4440853 197.621385,17.1223744 C196.922152,17.8006649 195.933073,18.1963342 194.654156,18.309383 L194.654156,20.0051091 L193.587387,20.0051091 M194.797587,36.1145101 L194.797587,30.6435611 L191.31041,36.1145101 L194.797587,36.1145101 M194.743802,40.8446939 L194.743802,38.0869079 L189.329268,38.0869079 L189.329268,35.8378392 L194.0625,28.4301919 L197.244884,28.4301919 L197.244884,36.0520362 L198.732981,36.0520362 L198.732981,38.0869079 L197.244884,38.0869079 L197.244884,40.8446939 L194.743802,40.8446939" id="text5145" fill="#000000" fill-rule="nonzero"></path>
                <path d="M245.115065,15.033953 C245.115065,15.4326002 245.249523,15.7687703 245.51847,16.0424642 C245.787386,16.3102124 246.119076,16.4440838 246.513523,16.4440838 C246.895991,16.4440838 247.22469,16.3072376 247.499611,16.0335391 C247.77451,15.7538957 247.911974,15.4207003 247.911974,15.033953 C247.911974,14.6531622 247.77451,14.3288919 247.499611,14.0611422 C247.230664,13.7874498 246.901966,13.6505975 246.513523,13.6505975 C246.119076,13.6505975 245.787386,13.784475 245.51847,14.0522171 C245.249523,14.3140173 245.115065,14.6412623 245.115065,15.033953 M243.169777,15.033953 C243.169777,14.1057698 243.492494,13.323357 244.137942,12.6867109 C244.783367,12.0500755 245.57523,11.7317494 246.513523,11.7317494 C247.433855,11.7317494 248.216752,12.0560258 248.862208,12.704561 C249.513608,13.3471567 249.839331,14.1236199 249.839331,15.033953 C249.839331,15.9502426 249.513608,16.7356309 248.862208,17.3901203 C248.210778,18.0386616 247.42788,18.3629319 246.513523,18.3629319 C245.57523,18.3629319 244.783367,18.0416364 244.137942,17.3990453 C243.492494,16.7564558 243.169777,15.9680927 243.169777,15.033953 M237.961432,18.3629319 L245.617074,5.21658994 L247.060352,5.21658994 L239.40471,18.3629319 L237.961432,18.3629319 M237.17256,8.54556851 C237.17256,8.93827219 237.304035,9.26849202 237.566992,9.53622954 C237.835924,9.80398457 238.167614,9.93784914 238.562053,9.93784914 C238.950504,9.93784914 239.279202,9.80398457 239.548141,9.53622954 C239.823048,9.26254248 239.960504,8.93232265 239.960504,8.54556851 C239.960504,8.16478371 239.823048,7.84051341 239.548141,7.57275716 C239.279202,7.29907163 238.950504,7.16221287 238.562053,7.16221287 C238.167614,7.16221287 237.835924,7.29609671 237.566992,7.56383225 C237.304035,7.82563881 237.17256,8.15288387 237.17256,8.54556851 M235.227273,8.54556851 C235.227273,7.61739209 235.549989,6.83200362 236.195438,6.18940137 C236.840871,5.54087288 237.629743,5.21658994 238.562053,5.21658994 C239.482393,5.21658994 240.26529,5.5438478 240.910738,6.19832628 C241.562146,6.84687838 241.887861,7.62929192 241.887861,8.54556851 C241.887861,9.46186414 241.562146,10.2442777 240.910738,10.8928107 C240.26529,11.5354086 239.482393,11.8566973 238.562053,11.8566973 C237.623768,11.8566973 236.831905,11.5383833 236.186472,10.9017357 C235.547006,10.2651026 235.227273,9.47971427 235.227273,8.54556851 M237.791105,37.4086173 L240.301152,37.4086173 C240.342988,37.9679118 240.531238,38.4022554 240.865911,38.7116488 C241.200584,39.0150965 241.648809,39.1668196 242.210585,39.1668173 C242.903829,39.1668196 243.432727,38.9645224 243.797295,38.5599257 C244.167814,38.1553344 244.353081,37.575218 244.353089,36.8195751 C244.353081,36.1115399 244.164823,35.5552232 243.788329,35.1506235 C243.411813,34.740085 242.891872,34.534813 242.228508,34.5348069 C241.857974,34.534813 241.532266,34.6091875 241.251386,34.757929 C240.970498,34.9066826 240.731446,35.1268292 240.534229,35.4183694 L238.221398,35.2844965 L239.055097,28.4301919 L246.432842,28.4301919 L246.432842,30.5900122 L240.865911,30.5900122 L240.534229,33.1514514 C240.81511,32.9313124 241.137834,32.7676895 241.502394,32.6605834 C241.866939,32.5475429 242.273328,32.4910185 242.72156,32.4910102 C244.000477,32.4910185 245.031392,32.8777628 245.81429,33.6512444 C246.603154,34.4247397 246.997602,35.4391997 246.997602,36.6946273 C246.997602,38.0690608 246.564309,39.1668196 245.697755,39.9879059 C244.831185,40.8030449 243.668795,41.210614 242.210585,41.210614 C240.883842,41.210614 239.826039,40.8744439 239.037167,40.2021029 C238.254269,39.5238138 237.838915,38.5926527 237.791105,37.4086173" id="text5151" fill="#000000" fill-rule="nonzero"></path>
                <path d="M285.222034,12.2583169 L284.540731,12.7491848 C284.265818,12.9395875 284.059636,13.1686591 283.922187,13.4364005 C283.78473,13.7041509 283.716005,14.0046216 283.716005,14.3378131 C283.716005,14.8435595 283.889316,15.268978 284.235946,15.6140702 C284.582567,15.9591676 285.015844,16.1317133 285.535792,16.1317133 C285.918268,16.1317133 286.282821,16.0543663 286.62945,15.8996662 C286.982046,15.7390211 287.307754,15.5069739 287.60658,15.2035263 L285.222034,12.2583169 M285.93919,9.44698116 L286.252949,9.22385907 C286.539804,9.02752056 286.751959,8.80737401 286.889424,8.56341864 C287.026866,8.31948156 287.095605,8.03983583 287.095605,7.72447993 C287.095605,7.4210452 286.999977,7.18007374 286.808743,7.0015648 C286.623468,6.82307871 286.369476,6.73381891 286.04676,6.73381891 C285.718061,6.73381891 285.458095,6.82605348 285.266853,7.01048987 C285.075611,7.18899805 284.97999,7.43294503 284.97999,7.74233007 C284.97999,7.90893765 285.02481,8.09040993 285.114456,8.28674692 C285.210077,8.48310371 285.344543,8.69135119 285.517862,8.91148861 L285.93919,9.44698116 M283.922187,10.6339898 L283.402247,9.95569927 C283.133315,9.59871262 282.939082,9.26551725 282.819556,8.95611318 C282.706004,8.64077632 282.649229,8.31055649 282.649236,7.96545139 C282.649229,7.01347606 282.954022,6.25783695 283.563609,5.69853331 C284.179162,5.13330374 285.012861,4.8506703 286.06469,4.8506703 C287.074676,4.8506703 287.872513,5.10950407 288.458202,5.6271343 C289.043869,6.14478891 289.336706,6.84390361 289.336721,7.72447993 C289.336706,8.39088056 289.163395,8.98884629 288.816781,9.51838017 C288.476118,10.0419805 287.938255,10.5358232 287.203175,10.9999092 L289.094678,13.3203769 C289.273955,13.0288359 289.414403,12.7015908 289.516006,12.3386409 C289.623568,11.9757017 289.698275,11.5711081 289.740118,11.1248578 L292.070873,11.1248578 C292.005124,11.8983531 291.843762,12.6153172 291.586794,13.2757531 C291.329803,13.9361973 290.9772,14.5401133 290.52899,15.0875027 L292.93146,17.9970118 L289.88355,17.9970118 L288.9871,16.8992523 C288.461178,17.381196 287.881479,17.7471161 287.248002,17.9970118 C286.620485,18.2409588 285.963087,18.3629319 285.275818,18.3629319 C284.056653,18.3629319 283.058608,18.0029621 282.281693,17.2830218 C281.510744,16.5630837 281.125277,15.6438224 281.125277,14.5252357 C281.125277,13.6922511 281.340424,12.975287 281.770718,12.3743404 C282.201012,11.7734053 282.918168,11.1932889 283.922187,10.6339898" id="path3073" fill="#000000" fill-rule="nonzero"></path>
                <path d="M332.500566,40.8446939 L329.820191,40.8446939 C329.915812,39.1013701 330.33714,37.3729209 331.084176,35.6593417 C331.837187,33.9457724 332.909938,32.2619469 334.302422,30.6078616 L327.991446,30.6078616 L327.991446,28.4301919 L337.090366,28.4301919 L337.090366,30.34904 C335.679951,31.8960276 334.595251,33.5322529 333.836267,35.2577221 C333.083249,36.9832019 332.638015,38.845524 332.500566,40.8446939" id="text5163" fill="#000000" fill-rule="nonzero"></path>
                <polyline id="path3094" fill="#000000" fill-rule="nonzero" points="584.052106 55.758162 582.474363 57.9715312 580.950403 56.9094704 582.671579 54.7585759 580.161531 54.0624352 580.744222 52.2506856 583.155665 53.1074737 583.155665 50.5460345 584.930625 50.5460345 584.930625 53.1074737 587.34206 52.268535 587.942681 54.0802854 585.432634 54.7585759 587.135879 56.8916211 585.576066 58.0072307 584.052106 55.758162"></polyline>
                <path d="M375.503049,37.1319456 C375.503049,37.7566903 375.67636,38.2386332 376.022989,38.5777759 C376.375585,38.916923 376.877595,39.086494 377.529017,39.086494 C378.150545,39.086494 378.637615,38.9139483 378.990219,38.5688508 C379.348789,38.2237586 379.52809,37.7447905 379.52809,37.1319456 C379.52809,36.5429087 379.345806,36.0698901 378.981261,35.7128905 C378.616693,35.3559008 378.132614,35.177398 377.529017,35.177398 C376.925405,35.177398 376.435344,35.3588764 376.058843,35.7218156 C375.688308,36.0847655 375.503049,36.5548086 375.503049,37.1319456 M375.70923,31.6520722 C375.70923,32.1459241 375.86461,32.526718 376.175386,32.7944563 C376.486146,33.0562603 376.931379,33.1871509 377.511086,33.1871509 C378.090778,33.1871509 378.53602,33.0532855 378.846787,32.7855313 C379.163529,32.5177937 379.321908,32.1399738 379.321908,31.6520722 C379.321908,31.1760887 379.160538,30.8012443 378.837829,30.5275375 C378.515098,30.253852 378.072855,30.1169936 377.511086,30.1169936 C376.961259,30.1169936 376.522007,30.2568275 376.193309,30.5364625 C375.870585,30.8161189 375.70923,31.1879886 375.70923,31.6520722 M374.785892,34.1331873 C374.248021,33.8356991 373.859564,33.4876291 373.620512,33.0889774 C373.381459,32.690341 373.261933,32.1816236 373.261933,31.5628231 C373.261933,30.468049 373.638442,29.6082869 374.39146,28.9835345 C375.144471,28.3588058 376.184343,28.0464224 377.511086,28.0464224 C378.849771,28.0464224 379.895625,28.3588058 380.648643,28.9835345 C381.407628,29.6023366 381.787121,30.4620994 381.787128,31.5628231 C381.787121,32.1518736 381.658629,32.6635665 381.401661,33.0979017 C381.144671,33.5263034 380.759196,33.8713986 380.245246,34.1331873 C380.872748,34.4247397 381.344878,34.8293341 381.661628,35.3469704 C381.978362,35.8586686 382.136749,36.4834096 382.136749,37.2211947 C382.136749,38.4647293 381.72437,39.440515 380.899652,40.148554 C380.080885,40.8565938 378.951366,41.210614 377.511086,41.210614 C376.052869,41.210614 374.920358,40.8595693 374.113556,40.1574791 C373.306753,39.4553896 372.903355,38.4766292 372.903355,37.2211947 C372.903355,36.4893591 373.052761,35.876518 373.35158,35.3826699 C373.656373,34.882883 374.134477,34.4663895 374.785892,34.1331873" id="path3092" fill="#000000" fill-rule="nonzero"></path>
                <path d="M380.845867,4.85066999 C380.021126,6.19536309 379.408556,7.56384268 379.008149,8.95611318 C378.607735,10.3484014 378.407528,11.8091048 378.407536,13.338227 C378.407528,14.8614089 378.607735,16.3191375 379.008149,17.7114158 C379.408556,19.1036957 380.021126,20.4721751 380.845867,21.8168587 L378.954365,21.8168587 C377.90851,20.3948266 377.113656,18.9668479 376.569818,17.5329183 C376.031947,16.0930406 375.763015,14.6948112 375.763015,13.338227 C375.763015,11.981652 376.031947,10.5834226 376.569818,9.143535 C377.113656,7.7036657 377.90851,6.27271194 378.954365,4.85066999 L380.845867,4.85066999" id="path3112" fill="#000000" fill-rule="nonzero"></path>
                <path d="M425.372309,32.5088603 C425.372309,31.7770292 425.187034,31.1998884 424.816507,30.777434 C424.451947,30.3490506 423.952929,30.1348429 423.319444,30.1348429 C422.721814,30.1348429 422.255659,30.3401256 421.920993,30.7506596 C421.592295,31.1612134 421.427949,31.7353802 421.427949,32.4731608 C421.427949,33.1633588 421.601253,33.7018261 421.947882,34.0885635 C422.294504,34.4753138 422.781573,34.6686799 423.409091,34.6686799 C424.024644,34.6686799 424.50574,34.4782894 424.852369,34.0974878 C425.198983,33.7167007 425.372309,33.1871585 425.372309,32.5088603 M425.417129,35.8378392 C425.11831,36.1353396 424.765706,36.3584609 424.359325,36.5072047 C423.952929,36.6559568 423.495739,36.7303306 422.987763,36.7303268 C421.726761,36.7303306 420.716768,36.3525114 419.957775,35.596867 C419.198783,34.8412339 418.81929,33.8297488 418.81929,32.5624092 C418.81929,31.2177378 419.231653,30.1318788 420.056387,29.3048301 C420.881113,28.4778034 421.968796,28.0642718 423.319444,28.0642718 C424.885232,28.0642718 426.07451,28.602752 426.887303,29.6796745 C427.706047,30.7506695 428.115426,32.3154966 428.115426,34.3741595 C428.115426,36.5875325 427.679151,38.2832571 426.806622,39.4613384 C425.93407,40.639422 424.67905,41.2284642 423.041547,41.2284642 C421.91202,41.2284642 421.000639,40.9369178 420.307388,40.353826 C419.614137,39.7647853 419.234644,38.9645224 419.168903,37.9530342 L421.759631,37.9619592 C421.819391,38.3725062 421.980753,38.6789264 422.24371,38.8812213 C422.506667,39.0835207 422.877194,39.1846689 423.355306,39.1846674 C424.000739,39.1846689 424.493783,38.9050232 424.834438,38.3457287 C425.175078,37.7864395 425.369311,36.9504771 425.417129,35.8378392" id="path3110" fill="#000000" fill-rule="nonzero"></path>
                <path d="M420.253603,4.85066999 L422.163029,4.85066999 C423.202902,6.26676202 423.991774,7.69474063 424.529645,9.1346107 C425.067508,10.568548 425.336448,11.9697522 425.336448,13.338227 C425.336448,14.7007615 425.067508,16.1019657 424.529645,17.5418433 C423.991774,18.9817225 423.202902,20.4067264 422.163029,21.8168587 L420.253603,21.8168587 C421.084311,20.4662256 421.699865,19.0947706 422.100279,17.7024915 C422.506667,16.3042621 422.709858,14.849509 422.709865,13.338227 C422.709858,11.8210038 422.506667,10.3662508 422.100279,8.97396255 C421.699865,7.58169243 421.084311,6.20726292 420.253603,4.85066999" id="path3121" fill="#000000" fill-rule="nonzero"></path>
                <path d="M467.379739,34.6329804 C467.379739,36.1859137 467.535119,37.3134217 467.845886,38.0155089 C468.162629,38.7176006 468.664638,39.0686438 469.351915,39.0686438 C470.039184,39.0686438 470.541193,38.7146259 470.857943,38.0065838 C471.174685,37.2985471 471.333064,36.1740139 471.333064,34.6329804 C471.333064,33.0860103 471.174685,31.9614771 470.857943,31.2593777 C470.541193,30.5572974 470.039184,30.206242 469.351915,30.206242 C468.664638,30.206242 468.162629,30.5572974 467.845886,31.2593777 C467.535119,31.9555268 467.379739,33.08006 467.379739,34.6329804 M464.717295,34.6329804 C464.717295,32.4374697 465.099778,30.795294 465.864745,29.7064489 C466.635686,28.6116763 467.798076,28.0642718 469.351915,28.0642718 C470.899771,28.0642718 472.059178,28.6146519 472.830127,29.715374 C473.607035,30.8101686 473.995508,32.455319 473.995508,34.6508305 C473.995508,36.8463541 473.610026,38.4855542 472.839092,39.5684369 C472.074118,40.6513218 470.911728,41.1927647 469.351915,41.1927647 C467.798076,41.1927647 466.635686,40.6483471 465.864745,39.5595118 C465.099778,38.4706796 464.717295,36.828504 464.717295,34.6329804" id="path3119" fill="#000000" fill-rule="nonzero"></path>
                <path d="M522.0898,157.573145 L531.269401,157.573145 L531.269401,159.393823 L522.0898,159.393823 L522.0898,157.573145 M524.160588,174.289438 L524.160588,171.84402 L529.198613,171.84402 L529.198613,174.289438 L524.160588,174.289438" id="text5187" fill="#000000" fill-rule="nonzero"></path>
                <polyline id="path2908" fill="#000000" fill-rule="nonzero" points="583.926606 75.6427854 585.737428 75.6427854 585.737428 80.1944732 590.20172 80.1944732 590.20172 81.9705225 585.737428 81.9705225 585.737428 86.5400589 583.926606 86.5400589 583.926606 81.9705225 579.462306 81.9705225 579.462306 80.1944732 583.926606 80.1944732 583.926606 75.6427854"></polyline>
                <path d="M464.717295,13.5702734 L475.456709,13.5702734 L475.456709,15.3463243 L464.717295,15.3463243 L464.717295,13.5702734 M464.717295,9.73257719 L475.456709,9.73257719 L475.456709,11.5086273 L464.717295,11.5086273 L464.717295,9.73257719" id="path2906" fill="#000000" fill-rule="nonzero"></path>
                <g id="g3468" transform="translate(602.028825, 17.024201)">
                    <path d="M40.5432373,5.82348119 L7.66961774,5.82348119" id="path5439" stroke="#000000" stroke-width="3"></path>
                    <polygon id="path5441" fill="#000000" points="11.8569845 11.5354017 11.8569845 0.111560662 0.38248337 5.82348119"></polygon>
                </g>
                <g id="g5459" transform="translate(11.857007, 56.738411)">
                    <path d="M29.4512425,6.09271523 L7.66510596,6.09271523" id="path5453" stroke="#000000" stroke-width="3.00000024"></path>
                    <polygon id="path5455" fill="#000000" points="12.2394678 11.8046358 12.2394678 0.380794702 0.764966741 6.09271523"></polygon>
                    <path d="M0.764966741,0.380794702 C0.764966741,11.8046358 0.764966741,11.8046358 0.764966741,11.8046358" id="path5457" stroke="#000000" stroke-width="3"></path>
                </g>
                <g id="g5464" transform="translate(27.156342, 74.254967) rotate(-180.000000) translate(-27.156342, -74.254967) translate(12.239491, 68.162252)">
                    <path d="M29.4512425,6.09271523 L7.66510596,6.09271523" id="path5466" stroke="#000000" stroke-width="3.00000024"></path>
                    <polygon id="path5468" fill="#000000" points="12.2394678 11.8046358 12.2394678 0.380794702 0.764966741 6.09271523"></polygon>
                    <path d="M0.764966741,0.380794702 C0.764966741,11.8046358 0.764966741,11.8046358 0.764966741,11.8046358" id="path5470" stroke="#000000" stroke-width="3"></path>
                </g>
                <path d="M81.8992517,61.354059 L80.5008007,59.9974778 L81.9888981,58.4623992 L83.4232108,59.8546798 C83.6144371,59.4976886 83.7608594,59.0901202 83.86247,58.6319717 C83.9640499,58.1738337 84.0148666,57.6740415 84.0148666,57.1325925 C84.0148666,55.6867706 83.6891438,54.5652122 83.0377364,53.7679141 C82.3863136,52.9646864 81.4749246,52.5630561 80.3035769,52.5630561 C79.1441704,52.5630561 78.2417468,52.9617116 77.5963137,53.7589898 C76.9508654,54.5562879 76.6281565,55.6808211 76.6281565,57.1325925 C76.6281565,58.5784274 76.9508654,59.7029606 77.5963137,60.506196 C78.2417468,61.3034872 79.1441704,61.7021289 80.3035769,61.7021289 C80.6023882,61.7021289 80.8832687,61.6723813 81.1462414,61.6128806 C81.4151654,61.5533829 81.6661663,61.4671093 81.8992517,61.354059 M83.8086775,63.1479592 C83.3604452,63.4454551 82.8375216,63.6715519 82.239899,63.8262498 C81.6482355,63.9809469 81.0027948,64.0582962 80.3035769,64.0582962 C78.3313932,64.0582962 76.7626147,63.4335552 75.5972407,62.1840726 C74.4378365,60.9345923 73.8581362,59.2507676 73.8581362,57.1325925 C73.8581362,55.0084808 74.4378365,53.3246562 75.5972407,52.0811132 C76.7626147,50.8316435 78.3313932,50.2068889 80.3035769,50.2068889 C82.275753,50.2068889 83.8445238,50.8316435 85.0099201,52.0811132 C86.1812601,53.3306057 86.7669339,55.0144311 86.7669492,57.1325925 C86.7669339,58.0607857 86.6474079,58.9116227 86.4083711,59.6851074 C86.1693037,60.4526494 85.8167075,61.1249896 85.3505674,61.7021289 L86.78488,63.0676351 L85.3147058,64.6027138 L83.8086775,63.1479592" id="text5474" fill="#000000" fill-rule="nonzero"></path>
                <polyline id="text5482" fill="#000000" fill-rule="nonzero" points="121.584892 63.6923761 117.801887 50.5460345 120.616727 50.5460345 122.875774 59.8189803 124.7852 50.5460345 127.680721 50.5460345 129.590147 59.8189803 131.849193 50.5460345 134.637137 50.5460345 130.863097 63.6923761 128.272369 63.6923761 126.228478 53.6251161 124.175621 63.6923761 121.584892 63.6923761"></polyline>
                <polyline id="text5492" fill="#000000" fill-rule="nonzero" points="167.164655 63.6923761 167.164655 50.5460345 176.747654 50.5460345 176.747654 52.8308027 169.84503 52.8308027 169.84503 55.6332134 176.156006 55.6332134 176.156006 57.8822821 169.84503 57.8822821 169.84503 61.2648098 177.070378 61.2648098 177.070378 63.6923761 167.164655 63.6923761"></polyline>
                <path d="M215.290327,56.2936546 L218.481676,56.2936546 C219.174912,56.2936546 219.682904,56.1538389 220.005628,55.8741848 C220.334319,55.5945475 220.498672,55.1542536 220.498672,54.5533032 C220.498672,53.9821211 220.340293,53.5507523 220.023559,53.2591968 C219.706809,52.9617116 219.234679,52.8129526 218.607177,52.8129526 L215.290327,52.8129526 L215.290327,56.2936546 M212.574098,63.6923761 L212.574098,50.5460345 L218.974721,50.5460345 C220.415,50.5460345 221.481769,50.8524676 222.175028,51.4652966 C222.868264,52.0781498 223.214893,53.0152605 223.214908,54.2766323 C223.214893,55.0798798 223.044565,55.7492446 222.703933,56.2847295 C222.369245,56.8202289 221.885167,57.1861482 221.25169,57.382489 C221.8254,57.5847923 222.231788,57.894188 222.470856,58.3106761 C222.715875,58.7271757 222.856315,59.3757155 222.892184,60.2562994 L222.945969,61.8092275 C222.945961,61.8211296 222.945961,61.8389789 222.945969,61.8627771 C222.963884,62.6481669 223.134212,63.1241595 223.456944,63.2907572 L223.456944,63.6923761 L220.480749,63.6923761 C220.385113,63.507929 220.310414,63.2818322 220.256636,63.0140855 C220.208818,62.7403908 220.178931,62.4161205 220.16699,62.0412746 L220.131136,60.6579183 C220.101241,59.8427838 219.945861,59.2924167 219.664981,59.0068168 C219.390059,58.7212254 218.891041,58.5784274 218.167918,58.5784228 L215.290327,58.5784228 L215.290327,63.6923761 L212.574098,63.6923761" id="text5500" fill="#000000" fill-rule="nonzero"></path>
                <polyline id="text5504" fill="#000000" fill-rule="nonzero" points="262.568859 63.6923761 262.568859 52.8932767 258.651388 52.8932767 258.651388 50.5460345 269.175663 50.5460345 269.175663 52.8932767 265.285088 52.8932767 265.285088 63.6923761 262.568859 63.6923761"></polyline>
                <polyline id="text5518" fill="#000000" fill-rule="nonzero" points="116.327238 155.083105 113.611009 155.083105 113.611009 150.183351 108.815027 141.936762 112.140835 141.936762 114.964641 147.604061 117.5733 141.936762 120.674995 141.936762 116.327238 150.183351 116.327238 155.083105"></polyline>
                <path d="M350.420508,50.3452247 L353.163633,50.3452247 L353.163633,58.59181 C353.163626,59.6092493 353.366816,60.3529885 353.773212,60.8230286 C354.179593,61.2871244 354.825034,61.5191708 355.709534,61.5191693 C356.605976,61.5191708 357.257391,61.2871244 357.663787,60.8230286 C358.076143,60.3589381 358.282324,59.6151996 358.282332,58.59181 L358.282332,50.3452247 L360.99856,50.3452247 L360.99856,58.8863311 C360.99856,60.4987613 360.544354,61.7363426 359.635963,62.5990794 C358.733532,63.4618171 357.430702,63.8931859 355.727465,63.8931859 C354.012257,63.8931859 352.697478,63.4647918 351.783105,62.6080037 C350.874707,61.7452676 350.420508,60.5047109 350.420508,58.8863311 L350.420508,50.3452247" id="text5522" fill="#000000" fill-rule="nonzero"></path>
                <polyline id="text5526" fill="#000000" fill-rule="nonzero" points="400.249425 63.6923761 400.249425 50.5460345 402.965653 50.5460345 402.965653 63.6923761 400.249425 63.6923761"></polyline>
                <path d="M443.82115,57.1192053 C443.82115,58.5650401 444.143866,59.6895733 444.789315,60.4928087 C445.434748,61.2900999 446.337171,61.6887417 447.496578,61.6887417 C448.667925,61.6887417 449.579315,61.2900999 450.230737,60.4928087 C450.882145,59.6895733 451.20786,58.5650401 451.20786,57.1192053 C451.20786,55.6733834 450.882145,54.551825 450.230737,53.7545269 C449.579315,52.9512991 448.667925,52.5496689 447.496578,52.5496689 C446.337171,52.5496689 445.434748,52.9483244 444.789315,53.7456026 C444.143866,54.5428999 443.82115,55.6674339 443.82115,57.1192053 M441.051136,57.1192053 C441.051136,54.9950936 441.630836,53.3112689 442.790242,52.067726 C443.955616,50.8182555 445.524394,50.1935017 447.496578,50.1935017 C449.468746,50.1935017 451.037525,50.8182555 452.202921,52.067726 C453.374261,53.3172185 453.95995,55.0010431 453.95995,57.1192053 C453.95995,59.2373804 453.374261,60.9212051 452.202921,62.1706854 C451.037525,63.420168 449.468746,64.0449089 447.496578,64.0449089 C445.524394,64.0449089 443.955616,63.420168 442.790242,62.1706854 C441.630836,60.9212051 441.051136,59.2373804 441.051136,57.1192053" id="text5530" fill="#000000" fill-rule="nonzero"></path>
                <path d="M491.090717,56.6327995 L493.717306,56.6327995 C494.428473,56.6327995 494.945422,56.4840588 495.268154,56.1865561 C495.590863,55.8831175 495.752233,55.3981998 495.752233,54.7318007 C495.752233,54.1070689 495.593854,53.6340511 495.27712,53.3127457 C494.96037,52.9914608 494.48824,52.8308027 493.860738,52.8308027 L491.090717,52.8308027 L491.090717,56.6327995 M491.072793,59.0157411 L491.072793,63.6923761 L488.356557,63.6923761 L488.356557,50.5460345 L494.228281,50.5460345 C495.614768,50.5460345 496.663614,50.9060173 497.374804,51.6259439 C498.091945,52.3399454 498.450538,53.3901049 498.450538,54.7764253 C498.450538,56.133014 498.10091,57.1801987 497.401692,57.9179816 C496.702459,58.6498264 495.704415,59.0157465 494.407567,59.0157411 L491.072793,59.0157411" id="text5534" fill="#000000" fill-rule="nonzero"></path>
                <path d="M358.959151,25.8330532 L358.959151,27.6983524 C358.905351,27.6983631 358.830652,27.6953883 358.735039,27.6894274 C358.639411,27.6834885 358.573669,27.6805137 358.537823,27.6805023 C357.934203,27.6805137 357.524831,27.7965373 357.309692,28.0285723 C357.100512,28.2546805 356.995925,28.7366227 356.995933,29.4744025 L356.995933,31.6163727 C356.995925,32.4969666 356.86146,33.1217075 356.592535,33.4905963 C356.323596,33.8594965 355.839518,34.1242676 355.140292,34.2849104 C355.839518,34.4455631 356.323596,34.7073587 356.592535,35.0702995 C356.86146,35.4332478 356.995925,36.055014 356.995933,36.9355987 L356.995933,39.086494 C356.995925,39.8183326 357.100512,40.2973008 357.309692,40.5233984 C357.518857,40.7494937 357.928229,40.8625418 358.537823,40.8625441 C358.573669,40.8625418 358.639411,40.859567 358.735039,40.853619 C358.830652,40.8476672 358.905351,40.8446924 358.959151,40.8446939 L358.959151,42.7099932 C358.875472,42.7099894 358.758937,42.7129649 358.609539,42.7189182 C358.460118,42.7248647 358.349557,42.7278433 358.277849,42.7278433 C357.680211,42.7278433 357.181193,42.69214 356.780786,42.6207448 C356.380372,42.549342 356.039717,42.4392687 355.758836,42.2905242 C355.418181,42.088224 355.176146,41.8145278 355.032715,41.4694356 C354.895258,41.1302884 354.826533,40.5382723 354.826533,39.6933855 L354.826533,37.4443168 C354.826533,36.6291801 354.674137,36.0520392 354.369351,35.7128905 C354.064558,35.3677991 353.550592,35.1952519 352.827461,35.1952481 C352.791599,35.1952519 352.73184,35.1982267 352.648176,35.2041724 C352.564504,35.2101265 352.501753,35.2131013 352.459917,35.2130975 L352.459917,33.3477982 C352.501753,33.3478043 352.564504,33.3507791 352.648176,33.3567233 C352.73184,33.3626789 352.791599,33.3656537 352.827461,33.3656484 C353.544617,33.3656537 354.055592,33.1931065 354.360385,32.8480052 C354.671146,32.5029169 354.826533,31.9198257 354.826533,31.0987295 L354.826533,28.867511 C354.826533,28.0166838 354.895258,27.4187174 355.032715,27.0736107 C355.176146,26.7285277 355.418181,26.4548323 355.758836,26.2525222 C356.039717,26.1037875 356.380372,25.9937135 356.780786,25.9223016 C357.181193,25.8509163 357.680211,25.815203 358.277849,25.815203 C358.349557,25.815203 358.460118,25.8181915 358.609539,25.8241281 C358.758937,25.8300914 358.875472,25.8330661 358.959151,25.8330532" id="path3102" fill="#0000FF" fill-rule="nonzero"></path>
                <polyline id="text5546" fill="#0000FF" fill-rule="nonzero" points="400.150813 25.8687527 404.677863 25.8687527 404.677863 27.7697514 402.571221 27.7697514 402.571221 41.0053444 404.677863 41.0053444 404.677863 42.9063401 400.150813 42.9063401 400.150813 25.8687527"></polyline>
                <path d="M490.153931,25.8241281 L490.763517,25.8241281 C491.420907,25.8241281 491.949813,25.8598406 492.350227,25.9312266 C492.750633,26.0026386 493.085306,26.1156874 493.354246,26.2703723 C493.694885,26.4607818 493.933937,26.734478 494.071402,27.0914609 C494.214825,27.442517 494.286541,28.0315584 494.286549,28.8585859 L494.286549,31.1076546 C494.286541,31.9228005 494.438938,32.5029169 494.743731,32.8480052 C495.048517,33.187157 495.562483,33.3567294 496.285621,33.3567233 C496.321467,33.3567294 496.381234,33.3537539 496.464906,33.3477982 C496.548571,33.341854 496.611321,33.3388793 496.653165,33.3388739 L496.653165,35.2041724 L496.321475,35.2041724 C495.574431,35.2041762 495.048517,35.3707739 494.743731,35.7039655 C494.438938,36.0371639 494.286541,36.6143055 494.286549,37.4353918 L494.286549,39.6844605 C494.286541,40.5352967 494.214825,41.1332632 494.071402,41.4783607 C493.933937,41.8234528 493.694885,42.0911987 493.354246,42.2815991 C493.07335,42.4303436 492.732702,42.5404169 492.332296,42.6118197 C491.931882,42.6832149 491.432856,42.7189182 490.835233,42.7189182 C490.763517,42.7189182 490.652949,42.7159397 490.503543,42.7099932 C490.354138,42.7040398 490.237603,42.7010651 490.153931,42.7010681 L490.153931,40.8357696 C490.207716,40.8357674 490.282422,40.8387421 490.378043,40.8446939 C490.473664,40.850642 490.539405,40.8536175 490.575259,40.853619 C491.178864,40.8536175 491.585252,40.7375939 491.794425,40.505549 C492.009572,40.2794507 492.117149,39.803458 492.117149,39.0775689 L492.117149,36.9445238 C492.117149,36.0520392 492.251615,35.4243235 492.520547,35.0613744 C492.789478,34.6924841 493.273557,34.4306877 493.97279,34.2759853 C493.273557,34.1153425 492.789478,33.8505714 492.520547,33.481672 C492.251615,33.1127824 492.117149,32.4880423 492.117149,31.6074476 L492.117149,29.4476281 C492.117149,28.7217481 492.009572,28.2457555 491.794425,28.0196479 C491.585252,27.7876122 491.178864,27.6715886 490.575259,27.6715772 C490.539405,27.6715886 490.473664,27.6745642 490.378043,27.6805023 C490.282422,27.6864632 490.207716,27.6894388 490.153931,27.6894274 L490.153931,25.8241281" id="path3106" fill="#0000FF" fill-rule="nonzero"></path>
                <polyline id="text5554" fill="#0000FF" fill-rule="nonzero" points="449.04295 25.8598276 449.04295 42.8974142 444.506935 42.8974142 444.506935 40.9964185 446.622542 40.9964185 446.622542 27.7608264 444.506935 27.7608264 444.506935 25.8598276 449.04295 25.8598276"></polyline>
                <path d="M91.7735953,98.8742354 L89.9448506,104.470135 L93.6113132,104.470135 L91.7735953,98.8742354 M90.1958514,96.241398 L93.3334161,96.241398 L98.0935364,109.387741 L95.2428419,109.387741 L94.3463927,106.683505 L89.2276942,106.683505 L88.3581412,109.387741 L85.4984814,109.387741 L90.1958514,96.241398" id="text5641" fill="#000000" fill-rule="nonzero"></path>
                <path d="M132.324306,105.322461 L135.004681,105.322461 C135.106269,106.042406 135.402096,106.577895 135.892157,106.928934 C136.38221,107.274033 137.090401,107.446579 138.016737,107.446579 C138.805602,107.446579 139.400241,107.306759 139.800663,107.027111 C140.201062,106.747471 140.401269,106.33395 140.401276,105.78655 C140.401269,104.989265 139.250835,104.32883 136.949961,103.80523 C136.920074,103.799289 136.893185,103.793334 136.869287,103.787378 C136.809513,103.77549 136.716883,103.75466 136.591383,103.724905 C135.36026,103.457168 134.48175,103.156698 133.955835,102.823495 C133.48968,102.526003 133.134092,102.127365 132.889066,101.627564 C132.644039,101.121823 132.521522,100.526839 132.521522,99.8425887 C132.521522,98.5633623 132.957791,97.5846056 133.830335,96.9063036 C134.702871,96.2220765 135.963873,95.8799401 137.613332,95.8799401 C139.155215,95.8799401 140.359433,96.2428983 141.22601,96.9687768 C142.098539,97.6946781 142.558712,98.7180639 142.606538,100.038934 L139.997879,100.038934 C139.950061,99.4022987 139.705034,98.9173871 139.262792,98.5841765 C138.820542,98.2509964 138.190041,98.0843987 137.371297,98.0843834 C136.660107,98.0843987 136.110287,98.2242189 135.721837,98.5038517 C135.339346,98.7775593 135.148105,99.1702576 135.148112,99.6819391 C135.148105,100.378085 135.898131,100.898708 137.398185,101.243791 C137.804566,101.338998 138.121316,101.413375 138.348419,101.466914 C139.310595,101.710867 139.991897,101.901264 140.392311,102.038106 C140.798692,102.174964 141.151296,102.32668 141.450122,102.493278 C141.987978,102.790777 142.391376,103.186446 142.660323,103.680283 C142.929247,104.16818 143.06372,104.754246 143.06372,105.438481 C143.06372,106.806966 142.600548,107.869025 141.674235,108.624667 C140.747898,109.374352 139.442077,109.749199 137.756764,109.749199 C136.095348,109.749199 134.792517,109.365426 133.848265,108.597889 C132.904006,107.830352 132.396022,106.738545 132.324306,105.322461" id="text5645" fill="#000000" fill-rule="nonzero"></path>
                <path d="M180.65616,107.013722 L182.834525,107.013722 C184.095511,107.013722 185.0069,106.686482 185.568676,106.031988 C186.13642,105.371553 186.420306,104.303538 186.420306,102.827958 C186.420306,101.358334 186.157334,100.278424 185.631434,99.5882255 C185.105504,98.8980503 184.28377,98.5529437 183.166207,98.5529437 L180.65616,98.5529437 L180.65616,107.013722 M177.993716,109.387741 L177.993716,96.241398 L183.166207,96.241398 C185.192168,96.241398 186.701179,96.7858278 187.693257,97.8746493 C188.691286,98.9634937 189.19032,100.614597 189.19032,102.827958 C189.19032,104.029845 189.005045,105.088927 188.634525,106.00521 C188.269958,106.921501 187.738069,107.659291 187.038851,108.218579 C186.512928,108.635077 185.915298,108.935547 185.24596,109.119997 C184.576606,109.29849 183.638329,109.387741 182.43112,109.387741 L177.993716,109.387741" id="text5649" fill="#000000" fill-rule="nonzero"></path>
                <polyline id="text5653" fill="#000000" fill-rule="nonzero" points="224.882291 109.387741 224.882291 96.241398 234.097753 96.241398 234.097753 98.5261662 227.562666 98.5261662 227.562666 101.507073 233.290951 101.507073 233.290951 103.791841 227.562666 103.791841 227.562666 109.387741 224.882291 109.387741"></polyline>
                <path d="M279.350317,107.821426 C278.860249,108.481869 278.301464,108.966788 277.673961,109.276183 C277.052418,109.585572 276.320322,109.740273 275.477673,109.740273 C273.63099,109.740273 272.133927,109.10363 270.986477,107.830352 C269.845001,106.551118 269.274267,104.873245 269.274267,102.796718 C269.274267,100.702355 269.845001,99.0274596 270.986477,97.7720175 C272.127953,96.5165983 273.648921,95.8888659 275.549389,95.8888659 C277.204815,95.8888659 278.555456,96.2845497 279.601318,97.0758715 C280.647158,97.8612758 281.268693,98.944157 281.465925,100.32453 L278.695911,100.32453 C278.528567,99.6402954 278.184929,99.1196805 277.664996,98.7626778 C277.15103,98.4056904 276.478693,98.2271967 275.647993,98.2271815 C274.542371,98.2271967 273.672826,98.6317911 273.039342,99.4409646 C272.411824,100.244213 272.098065,101.356849 272.098073,102.778874 C272.098065,104.206854 272.426764,105.325438 273.084161,106.134627 C273.74155,106.943816 274.643974,107.34841 275.791424,107.34841 C276.652004,107.34841 277.372151,107.09554 277.951859,106.589791 C278.53155,106.08405 278.890128,105.390889 279.027593,104.510294 L276.033467,104.510294 L276.033467,102.261229 L281.501786,102.261229 L281.501786,109.374352 L279.681999,109.374352 L279.350317,107.821426" id="text5657" fill="#000000" fill-rule="nonzero"></path>
                <polyline id="text5661" fill="#000000" fill-rule="nonzero" points="315.826678 109.387741 315.826678 96.241398 318.560837 96.241398 318.560837 101.141152 324.011225 101.141152 324.011225 96.241398 326.745384 96.241398 326.745384 109.387741 324.011225 109.387741 324.011225 103.5598 318.560837 103.5598 318.560837 109.387741 315.826678 109.387741"></polyline>
                <path d="M362.961779,104.305023 L365.588361,104.305023 L365.588361,105.893653 C365.588361,106.351794 365.725818,106.702841 366.000731,106.946786 C366.275637,107.184783 366.67007,107.303781 367.184035,107.303781 C367.745804,107.303781 368.137253,107.158013 368.358382,106.866461 C368.579495,106.574917 368.690056,106.027525 368.690064,105.224284 L368.690064,96.0584414 L371.406292,96.0584414 L371.406292,105.349238 C371.406292,106.182226 371.355483,106.79507 371.253896,107.187761 C371.158267,107.574503 370.996905,107.916625 370.769817,108.214117 C370.42318,108.654414 369.948067,108.990587 369.34447,109.222628 C368.740858,109.454677 368.032667,109.570698 367.219897,109.570698 C366.472854,109.570698 365.812473,109.469551 365.238748,109.267258 C364.665023,109.064957 364.186919,108.764487 363.804435,108.36584 C363.499642,108.044549 363.281512,107.687554 363.150029,107.294855 C363.024529,106.896217 362.961779,106.241722 362.961779,105.331386 L362.961779,104.305023" id="text5665" fill="#000000" fill-rule="nonzero"></path>
                <polyline id="text5669" fill="#000000" fill-rule="nonzero" points="407.210324 109.387741 407.210324 96.241398 409.926552 96.241398 409.926552 101.640945 415.081112 96.241398 418.478643 96.241398 413.20754 101.560628 418.953756 109.387741 415.636906 109.387741 411.333969 103.372373 409.926552 104.764657 409.926552 109.387741 407.210324 109.387741"></polyline>
                <polyline id="text5673" fill="#000000" fill-rule="nonzero" points="454.399209 109.387741 454.399209 96.241398 457.115438 96.241398 457.115438 106.960175 463.560879 106.960175 463.560879 109.387741 454.399209 109.387741"></polyline>
                <polyline id="text5679" fill="#000000" fill-rule="nonzero" points="304.571806 63.6923768 304.571806 61.4076086 311.752335 52.9289785 304.715237 52.9289785 304.715237 50.5460338 315.051254 50.5460338 315.051254 52.830802 307.852794 61.3183579 314.889892 61.3183579 314.889892 63.6923768 304.571806 63.6923768"></polyline>
                <polyline id="text5683" fill="#000000" fill-rule="nonzero" points="154.807153 155.083105 158.957702 148.371599 154.807153 141.936762 157.944718 141.936762 160.643016 146.533076 163.32339 141.936762 166.478878 141.936762 162.328337 148.353747 166.478878 155.083105 163.341313 155.083105 160.643016 150.531421 157.944718 155.083105 154.807153 155.083105"></polyline>
                <path d="M212.565133,150.553727 C212.463523,152.047166 211.883823,153.234172 210.826027,154.11476 C209.77419,154.995347 208.399644,155.435637 206.702382,155.435637 C204.748122,155.435637 203.227153,154.82875 202.13947,153.614967 C201.057761,152.401183 200.516907,150.699511 200.516907,148.509934 C200.516907,146.272773 201.06971,144.559196 202.175332,143.369205 C203.280946,142.179237 204.870639,141.58423 206.944418,141.58423 C208.629731,141.58423 209.959457,141.994788 210.933604,142.815865 C211.913703,143.631017 212.451574,144.785297 212.547202,146.278713 L209.866835,146.278713 C209.753276,145.534983 209.448483,144.969746 208.952455,144.582988 C208.456413,144.190305 207.787074,143.99396 206.944418,143.993945 C205.749157,143.99396 204.840759,144.377725 204.219224,145.145255 C203.597688,145.912807 203.28692,147.034362 203.28692,148.509934 C203.28692,149.937922 203.594697,151.041625 204.210266,151.821066 C204.831794,152.600507 205.713295,152.990227 206.854779,152.99022 C207.679497,152.990227 208.354817,152.781978 208.88074,152.36548 C209.406647,151.943042 209.747294,151.339124 209.902689,150.553727 L212.565133,150.553727" id="text5687" fill="#000000" fill-rule="nonzero"></path>
                <polyline id="text5691" fill="#000000" fill-rule="nonzero" points="251.166074 155.083105 246.612127 141.936762 249.624184 141.936762 252.430059 151.771974 255.289719 141.936762 258.265921 141.936762 253.765767 155.083105 251.166074 155.083105"></polyline>
                <path d="M295.522188,152.709086 L298.740426,152.709086 C299.499411,152.709086 300.052222,152.572244 300.398851,152.298544 C300.745473,152.024852 300.918792,151.59348 300.918792,151.004436 C300.918792,150.3916 300.748456,149.951303 300.407817,149.683558 C300.067162,149.409866 299.505385,149.273008 298.722503,149.273008 L295.522188,149.273008 L295.522188,152.709086 M295.522188,147.023943 L298.623891,147.023943 C299.29323,147.023943 299.783283,146.910901 300.094066,146.6848 C300.404818,146.452759 300.560213,146.089816 300.560213,145.595963 C300.560213,145.114029 300.407809,144.76596 300.103023,144.551748 C299.804204,144.331618 299.305178,144.22153 298.605961,144.22153 L295.522188,144.22153 L295.522188,147.023943 M292.922502,155.083105 L292.922502,141.936762 L299.143832,141.936762 C300.494465,141.936762 301.522389,142.222374 302.227604,142.79355 C302.93877,143.358802 303.294358,144.182865 303.294373,145.265738 C303.294358,145.932144 303.162883,146.488455 302.899933,146.934693 C302.636968,147.380946 302.242528,147.726037 301.716629,147.969982 C302.397916,148.243682 302.9059,148.639351 303.240588,149.156988 C303.58122,149.668684 303.751563,150.308298 303.751563,151.075835 C303.751563,152.355069 303.333203,153.342759 302.496535,154.038898 C301.659845,154.735036 300.47355,155.083105 298.93765,155.083105 L292.922502,155.083105" id="text5695" fill="#000000" fill-rule="nonzero"></path>
                <polyline id="text5699" fill="#000000" fill-rule="nonzero" points="338.793611 155.083105 338.793611 141.936762 341.63534 141.936762 346.996089 150.96874 346.996089 141.936762 349.676456 141.936762 349.676456 155.083105 346.870581 155.083105 341.473985 146.051127 341.473985 155.083105 338.793611 155.083105"></polyline>
                <polyline id="text5703" fill="#000000" fill-rule="nonzero" points="383.499346 155.083105 383.499346 141.936762 387.515421 141.936762 390.142003 151.941549 392.732731 141.936762 396.766737 141.936762 396.766737 155.083105 394.220829 155.083105 394.220829 144.480349 391.540454 155.083105 388.761475 155.083105 386.045247 144.480349 386.045247 155.083105 383.499346 155.083105"></polyline>
                <g id="g3476" transform="translate(647.161863, 80.347682)">
                    <polygon id="path5745" fill="#000000" points="11.4745011 17.1357616 11.4745011 5.71192053 0 11.4238411"></polygon>
                    <polyline id="path5747" stroke="#000000" stroke-width="3" points="28.6862528 0 28.6862528 11.4238411 5.73725055 11.4238411"></polyline>
                </g>
                <polygon id="path5757" stroke="#000000" stroke-width="2" points="20.8453437 149.652318 12.2394678 161.076159 17.9767184 161.076159 17.9767184 166.788079 23.713969 166.788079 23.713969 161.076159 29.4512195 161.076159"></polygon>
                <polygon id="path5801" stroke="#000000" stroke-width="2" points="577.358647 149.652318 568.752772 161.076159 574.490022 161.076159 574.490022 166.788079 580.227273 166.788079 580.227273 161.076159 585.964523 161.076159"></polygon>
                <path d="M515.164763,14.1771619 C515.164755,14.1117185 515.161764,14.0254457 515.155798,13.9183434 C515.149816,13.8053007 515.146825,13.721998 515.146832,13.6684507 C515.146825,13.1448579 515.2036,12.7105159 515.317152,12.3654169 C515.430704,12.0143775 515.61298,11.6871301 515.863989,11.3836825 C516.055223,11.1575894 516.339102,10.8987709 516.715611,10.6072116 C517.098086,10.3156752 517.346104,10.104456 517.459663,9.97354636 C517.698708,9.7058096 517.863053,9.46484272 517.952707,9.25063046 C518.042346,9.03644868 518.087166,8.80142219 518.087173,8.54556623 C518.087166,7.98033742 517.928794,7.54003974 517.612052,7.22468841 C517.295303,6.90935232 516.85306,6.75168046 516.285317,6.75166523 C515.717566,6.75168046 515.269342,6.94207781 514.940651,7.32285728 C514.617927,7.69771921 514.441625,8.22725993 514.411745,8.91148709 L511.883767,8.91148709 L511.883767,8.63481689 C511.883767,7.37939768 512.28119,6.37981159 513.076044,5.63605861 C513.876865,4.88638046 514.9526,4.51152616 516.303248,4.51152616 C517.683768,4.51152616 518.780417,4.86555861 519.593201,5.57358543 C520.411945,6.27568709 520.821333,7.21874801 520.821333,8.40276821 C520.821333,8.81927384 520.773507,9.19412053 520.677901,9.52730828 C520.588247,9.85455563 520.447799,10.1550255 520.256573,10.4287179 C520.011531,10.7738169 519.632039,11.1486636 519.118081,11.5532503 C518.610089,11.9519043 518.302312,12.1988268 518.194743,12.2940179 C517.967639,12.5141705 517.803294,12.7462192 517.701699,12.9901563 C517.60607,13.2341086 517.55826,13.5256526 517.558268,13.864796 C517.55826,13.8945513 517.561251,13.9451209 517.567233,14.0165199 C517.5732,14.0879189 517.576191,14.1414662 517.576198,14.1771619 L515.164763,14.1771619 M515.039255,17.9970126 L515.039255,15.3820268 L517.683768,15.3820268 L517.683768,17.9970126 L515.039255,17.9970126" id="path3083" fill="#000000" fill-rule="nonzero"></path>
                <polyline id="text5819" fill="#000000" fill-rule="nonzero" points="329.941209 19.6927371 334.387578 4.51152616 335.615709 4.51152616 331.151409 19.6927371 329.941209 19.6927371"></polyline>
                <path d="M201.018916,82.0240699 C200.917306,83.517501 200.337606,84.7045142 199.27981,85.5850944 C198.227973,86.4656821 196.853428,86.9059798 195.156165,86.9059798 C193.201905,86.9059798 191.680937,86.2990844 190.593253,85.0853013 C189.511545,83.8715258 188.97069,82.1698457 188.97069,79.9802762 C188.97069,77.7431149 189.523493,76.0295403 190.629115,74.8395462 C191.734729,73.6495757 193.324422,73.054571 195.398201,73.054571 C197.083514,73.054571 198.413241,73.4651286 199.387388,74.2862042 C200.367486,75.1013539 200.905357,76.2556394 201.000985,77.7490553 L198.320619,77.7490553 C198.207059,77.0053252 197.902266,76.4400811 197.406238,76.0533293 C196.910196,75.6606454 196.240858,75.4642985 195.398201,75.4642878 C194.20294,75.4642985 193.294542,75.848068 192.673007,76.615597 C192.051471,77.3831421 191.740704,78.5047043 191.740704,79.9802762 C191.740704,81.4082563 192.04848,82.5119669 192.664049,83.2914003 C193.285577,84.070849 194.167079,84.4605619 195.308562,84.4605619 C196.13328,84.4605619 196.808601,84.2523205 197.334523,83.8358225 C197.86043,83.4133841 198.201077,82.8094666 198.356473,82.0240699 L201.018916,82.0240699" id="text5928" fill="#0000FF" fill-rule="nonzero"></path>
                <path d="M186.467191,80.5984735 L195.168259,80.5984735 L194.615227,81.6635639 L185.914166,81.6635639 L186.467191,80.5984735 M187.662192,78.2970113 L196.363252,78.2970113 L195.81022,79.3621093 L187.109159,79.3621093 L187.662192,78.2970113" id="text5956" fill="#0000FF" fill-rule="nonzero"></path>
                <path d="M284.684163,36.7838756 C284.684163,37.5157189 284.866439,38.0958352 285.230999,38.5242262 C285.601526,38.9526225 286.103535,39.1668173 286.737027,39.1668173 C287.328675,39.1668173 287.79184,38.9585721 288.126513,38.5420764 C288.461178,38.1255844 288.628522,37.5454681 288.628522,36.8017258 C288.628522,36.1174895 288.455204,35.5849725 288.10859,35.2041724 C287.761953,34.8233838 287.274883,34.6329804 286.647381,34.6329804 C286.03182,34.6329804 285.550725,34.8233838 285.204103,35.2041724 C284.857473,35.5849725 284.684163,36.1115399 284.684163,36.7838756 M284.648309,33.4459725 C284.941145,33.1484842 285.293742,32.9253621 285.706112,32.7766062 C286.118475,32.6219167 286.578649,32.5445682 287.08664,32.5445598 C288.341652,32.5445682 289.345671,32.9253621 290.098697,33.6869439 C290.857674,34.4485394 291.237181,35.4629993 291.237181,36.7303268 C291.237181,38.0750103 290.824811,39.1608693 290.000085,39.9879059 C289.175351,40.8149447 288.08766,41.2284642 286.737027,41.2284642 C285.177207,41.2284642 283.990911,40.6929716 283.178134,39.6219865 C282.371331,38.5510037 281.967934,36.9832019 281.967934,34.9185764 C281.967934,32.699266 282.401219,31.0035408 283.267781,29.8313975 C284.134343,28.6533261 285.383388,28.0642718 287.014924,28.0642718 C288.15041,28.0642718 289.06479,28.3588058 289.758049,28.947835 C290.457267,29.5368879 290.83975,30.334176 290.905499,31.3397018 L288.305806,31.3397018 C288.246031,30.929167 288.084677,30.6197721 287.821727,30.4115147 C287.558762,30.2032778 287.191219,30.0991541 286.719096,30.0991434 C286.073648,30.0991541 285.577621,30.3788006 285.230999,30.9380822 C284.88437,31.491434 284.690137,32.3273964 284.648309,33.4459725" id="path3060" fill="#000000" fill-rule="nonzero"></path>
                <polygon id="rect10188" stroke="#000000" fill="#FFFFFF" points="585.199557 91.3907285 631.097561 91.3907285 631.097561 137.086093 585.199557 137.086093"></polygon>
                <path d="M614.21717,79.3733808 L614.21717,81.3457831 C613.595619,81.7682291 613.006954,82.0806026 612.451168,82.282896 C611.90134,82.4792414 611.357495,82.5774179 610.819639,82.5774103 C610.544718,82.5774179 610.269812,82.5536182 609.994913,82.5060113 C609.719992,82.4584195 609.445078,82.3899983 609.170179,82.3007401 C609.026741,82.2531483 608.814585,82.1787715 608.533704,82.0776172 C607.224884,81.6313791 606.229831,81.4082563 605.548544,81.4082563 C605.040552,81.4082563 604.508663,81.5213066 603.952869,81.7473997 C603.403042,81.9675523 602.784497,82.3215695 602.097228,82.8094589 L602.097228,80.8370642 C602.736687,80.4086778 603.346274,80.0903563 603.925973,79.8820997 C604.505672,79.6679103 605.052501,79.5608156 605.566467,79.5608079 C606.265693,79.5608156 607.135246,79.7333613 608.175126,80.078445 C608.193049,80.0844083 608.204998,80.0873785 608.21098,80.0873709 C608.31855,80.1230818 608.482895,80.179607 608.704032,80.2569464 C609.630345,80.5841937 610.347502,80.7478212 610.855501,80.7478136 C611.363469,80.7478212 611.8864,80.6377487 612.424279,80.417596 C612.962135,80.197451 613.559758,79.8493818 614.21717,79.3733808" id="path2917" fill="#0000FF" fill-rule="nonzero"></path>
                <path d="M595.974503,124.667128 L595.185631,126.844794 L597.435712,126.844794 L598.206653,124.667128 L595.974503,124.667128 M595.974503,119.169405 L597.955645,119.169405 L596.64684,122.873227 L598.816232,122.873227 L600.142975,119.169405 L602.124117,119.169405 L600.797381,122.873227 L603.334317,122.873227 L602.670953,124.667128 L600.160906,124.667128 L599.407888,126.82695 L602.007582,126.82695 L601.371106,128.611925 L598.762447,128.611925 L597.435712,132.324674 L595.454563,132.324674 L596.781306,128.611925 L594.593975,128.611925 L593.258275,132.324674 L591.286091,132.324674 L592.594903,128.611925 L590.022106,128.611925 L590.703408,126.82695 L593.231378,126.82695 L594.002327,124.667128 L591.321953,124.667128 L591.985324,122.873227 L594.647768,122.873227 L595.974503,119.169405" id="path2915" fill="#000000" fill-rule="nonzero"></path>
                <polygon id="rect10196" stroke="#000000" fill="#FFFFFF" points="57.3725055 137.086093 103.27051 137.086093 103.27051 182.781457 57.3725055 182.781457"></polygon>
                <path d="M123.046094,35.8735387 C123.064024,35.1833536 123.22837,34.6002625 123.539138,34.124263 C123.85588,33.6482765 124.411682,33.1663336 125.206528,32.6784327 C125.32008,32.6129917 125.478451,32.5207685 125.681649,32.4017618 C126.787255,31.7770292 127.340066,31.1731132 127.340066,30.5900122 C127.340066,30.2508772 127.229505,29.9831313 127.008384,29.786773 C126.787255,29.5904368 126.48247,29.4922633 126.094012,29.4922519 C125.66371,29.4922633 125.332028,29.6142364 125.098958,29.858172 C124.865881,30.0961793 124.749338,30.4382998 124.749346,30.8845325 L124.749346,30.9559315 L123.189525,30.9559315 C123.189525,30.0813047 123.449499,29.4089645 123.969431,28.93891 C124.489372,28.4688791 125.233417,28.233845 126.201581,28.233845 C127.074118,28.233845 127.767369,28.4480542 128.281335,28.876436 C128.801267,29.2988912 129.061241,29.8641329 129.061241,30.5721621 C129.061241,31.0838648 128.926768,31.5241579 128.657844,31.8930437 C128.388904,32.2619469 127.86299,32.6873662 127.0801,33.1693007 C126.906781,33.2823572 126.661755,33.4311047 126.345013,33.6155449 C125.627856,34.032046 125.224459,34.359291 125.134812,34.5972809 L128.989526,34.5972809 L128.989526,35.8735387 L123.046094,35.8735387" id="text5910" fill="#0000FF" fill-rule="nonzero"></path>
                <path d="M168.99789,33.5352208 L170.629419,33.5352208 C170.641368,33.969572 170.757903,34.2938416 170.979032,34.5080325 C171.200153,34.7222356 171.531835,34.8293341 171.974085,34.829328 C172.398397,34.8293341 172.727096,34.7281851 172.960173,34.5258819 C173.193243,34.3235915 173.309786,34.0350207 173.309786,33.6601695 C173.309786,33.2793824 173.17532,32.9937864 172.906389,32.8033814 C172.637449,32.6070421 172.234052,32.5088687 171.696188,32.5088603 L171.436222,32.5088603 L171.436222,31.4468003 L171.624473,31.4468003 C172.1205,31.4468094 172.485053,31.3635106 172.718138,31.1969037 C172.957182,31.0243657 173.076708,30.7625693 173.076716,30.4115147 C173.076708,30.1140295 172.975113,29.8790075 172.771923,29.7064489 C172.568725,29.5279628 172.296802,29.4387144 171.956155,29.438703 C171.579646,29.4387144 171.2898,29.5398626 171.086602,29.7421484 C170.883411,29.9385067 170.781808,30.221128 170.781816,30.5900122 L170.781816,30.6435611 L169.186141,30.6435611 C169.204072,29.8641329 169.455073,29.269142 169.939151,28.8585859 C170.429212,28.4421039 171.125447,28.233845 172.02787,28.233845 C172.876501,28.233845 173.545847,28.4183042 174.035908,28.7871869 C174.531935,29.1560932 174.779953,29.658861 174.77996,30.2954911 C174.779953,30.6286964 174.693297,30.9232175 174.519994,31.1790536 C174.35265,31.4289593 174.101641,31.6342312 173.766976,31.7948702 C174.203244,31.9674266 174.531935,32.208398 174.753064,32.5177854 C174.98016,32.8212391 175.093719,33.1782334 175.093719,33.5887705 C175.093719,34.3622658 174.812823,34.9751069 174.251055,35.4272945 C173.695253,35.8735432 172.936268,36.09666 171.974085,36.09666 C171.023851,36.09666 170.288764,35.876518 169.768832,35.4362196 C169.254866,34.9959318 168.99789,34.3741656 168.99789,33.5709203 L168.99789,33.5352208" id="text5922" fill="#0000FF" fill-rule="nonzero"></path>
                <path d="M150.244249,13.6461361 C150.483293,13.5092937 150.662586,13.3575699 150.78212,13.1909646 C150.901638,13.0243745 150.961405,12.8458732 150.961405,12.6554758 C150.961405,12.4234348 150.892673,12.2270894 150.755224,12.0664321 C150.617759,11.8998421 150.333888,11.7064669 149.903602,11.4863142 L147.52802,10.2636053 C147.294943,10.4004629 147.11565,10.555157 146.990149,10.7277026 C146.870623,10.900256 146.810864,11.0847053 146.810864,11.281043 C146.810864,11.5130993 146.897519,11.7183705 147.07083,11.8968566 C147.250116,12.0694099 147.641564,12.3103844 148.245177,12.6197725 L150.244249,13.6461361 M145.367586,16.5645695 L147.581805,16.5645695 C147.629616,17.0286669 147.767065,17.3737583 147.994168,17.5998589 C148.227246,17.825952 148.555937,17.9390023 148.980264,17.9390023 C149.374688,17.9390023 149.688447,17.8467738 149.921532,17.6623321 C150.154595,17.4719348 150.271137,17.2160864 150.271145,16.8947871 C150.271137,16.6329983 150.184482,16.4068977 150.011171,16.2165003 C149.837853,16.020155 149.494214,15.7970321 148.980264,15.5471318 L146.83776,14.4672209 C146.156458,14.1280851 145.648474,13.7383646 145.313801,13.2980669 C144.979128,12.8577768 144.811792,12.3639318 144.811792,11.8165394 C144.811792,11.2869987 144.940283,10.8229089 145.197258,10.424255 C145.460216,10.0196682 145.84569,9.68349503 146.353674,9.41574305 C146.054863,9.14800629 145.833734,8.85646225 145.69031,8.54110331 C145.546871,8.21981921 145.475156,7.86580199 145.475163,7.47904404 C145.475156,6.58656788 145.78294,5.86960762 146.398501,5.32814801 C147.014054,4.78077086 147.832806,4.50706325 148.854756,4.50706325 C149.906585,4.50706325 150.731311,4.77482285 151.328949,5.31030397 C151.926571,5.84580795 152.234348,6.58656788 152.252287,7.53259901 L150.136679,7.53259901 C150.124715,7.13396026 150.005189,6.83051258 149.778101,6.62225596 C149.556972,6.41402219 149.237239,6.30989768 148.818902,6.30989007 C148.448367,6.30989768 148.161505,6.39022252 147.958314,6.55085695 C147.76109,6.71151424 147.662486,6.9376149 147.662486,7.22915132 C147.662486,7.46715563 147.779021,7.69027848 148.012099,7.89851225 C148.251151,8.10082086 148.678454,8.34476556 149.294015,8.63035397 L150.800043,9.32649238 C151.565002,9.68945066 152.129762,10.094045 152.49433,10.5402755 C152.858875,10.9805808 153.041159,11.4892997 153.041159,12.0664321 C153.041159,12.6078765 152.903694,13.0808997 152.628796,13.4854864 C152.359849,13.8841328 151.971391,14.1935285 151.463415,14.4136735 C151.810036,14.7171212 152.070003,15.0532944 152.243321,15.4221854 C152.416624,15.7910841 152.50328,16.1956785 152.503295,16.6359685 C152.50328,17.5522596 152.174589,18.3078934 151.517199,18.9028851 C150.859802,19.5038248 150.014155,19.8043023 148.980264,19.8043023 C147.844762,19.8043023 146.972218,19.5306023 146.362639,18.9832099 C145.753053,18.4358175 145.421371,17.6296066 145.367586,16.5645695" id="path3131" fill="#000000" fill-rule="nonzero"></path>
                <path d="M511.744819,40.8402318 L511.744819,30.9157699 C511.744819,29.928095 512.130293,29.1308099 512.901234,28.523907 C513.672175,27.9110712 514.700099,27.6046381 515.985006,27.6046381 C517.293811,27.6046381 518.318744,27.902153 519.059813,28.4971295 C519.800867,29.0921288 520.171394,29.9102434 520.171409,30.9514732 C520.171394,31.5940719 520.060833,32.1206348 519.83972,32.5311695 C519.624565,32.9417272 519.289892,33.2570709 518.835701,33.4772083 C519.540901,33.7568639 520.069799,34.1674063 520.42241,34.708843 C520.780981,35.2502874 520.960281,35.9166781 520.960281,36.7080152 C520.960281,38.0407967 520.574799,39.1177298 519.803866,39.9388222 C519.032917,40.759907 518.022916,41.1704493 516.773878,41.1704493 C516.60056,41.1704493 516.406327,41.1615235 516.191188,41.1436795 C515.982015,41.1258278 515.754912,41.0990503 515.509893,41.0633546 L515.509893,38.9749318 C515.587575,38.9868354 515.665273,38.9957613 515.742971,39.0017093 C515.826628,39.0076573 515.949145,39.0106351 516.110507,39.0106351 C516.815707,39.0106351 517.359552,38.8172599 517.742043,38.4305172 C518.124519,38.0378265 518.315761,37.4815083 518.315768,36.7615626 C518.315761,36.0654318 518.106588,35.5358834 517.688251,35.1729328 C517.27588,34.8099974 516.672275,34.6285258 515.877437,34.6285182 L515.635394,34.6285182 L515.644359,32.7989215 C515.680213,32.8048772 515.719058,32.8108252 515.760894,32.8167656 C515.802722,32.8167732 515.865473,32.8167732 515.949152,32.8167656 C516.481034,32.8167732 516.884431,32.6858788 517.159353,32.4240748 C517.440233,32.1563381 517.580673,31.7695954 517.580681,31.2638391 C517.580673,30.7581056 517.434251,30.3743407 517.141422,30.1125291 C516.854552,29.8447924 516.433223,29.7109202 515.877437,29.7109126 C515.363471,29.7109202 514.972022,29.8596738 514.70309,30.1571583 C514.434151,30.4487099 514.299685,30.877104 514.299693,31.4423404 L514.299693,40.8402318 L511.744819,40.8402318" id="text6073" fill="#000000" fill-rule="nonzero"></path>
                <path d="M480.570932,148.246652 L480.570932,145.542416 L483.287161,145.542416 L483.287161,148.246652 L480.570932,148.246652 M480.570932,155.083105 L480.570932,152.396721 L483.287161,152.396721 L483.287161,155.083105 L480.570932,155.083105" id="path2750" fill="#000000" fill-rule="nonzero"></path>
                <path d="M434.690859,148.246652 L434.690859,145.542416 L437.389156,145.542416 L437.389156,148.246652 L434.690859,148.246652 M434.690859,158.171114 L434.690859,157.126899 C435.19286,156.984101 435.563395,156.763956 435.802447,156.466464 C436.041499,156.168964 436.161025,155.782222 436.161025,155.306228 L436.161025,155.083105 L434.672928,155.083105 L434.672928,152.396721 L437.389156,152.396721 L437.389156,154.976003 C437.389156,155.868494 437.162053,156.582484 436.707862,157.117973 C436.253655,157.659418 435.581326,158.010465 434.690859,158.171114" id="path2746" fill="#000000" fill-rule="nonzero"></path>
                <path d="M434.668445,181.018796 L434.668445,179.974581 C435.170455,179.831783 435.540981,179.611638 435.780041,179.314146 C436.019086,179.016646 436.138612,178.629904 436.138619,178.15391 L436.138619,177.930787 L434.668445,177.930787 L434.668445,175.244403 L437.384674,175.244403 L437.384674,177.823685 C437.384674,178.710228 437.154587,179.424211 436.694414,179.965655 C436.240207,180.5071 435.564887,180.858147 434.668445,181.018796" id="text5803" fill="#000000" fill-rule="nonzero"></path>
                <polyline id="text5813" fill="#000000" fill-rule="nonzero" points="480.56645 177.930787 480.56645 175.244403 483.264747 175.244403 483.264747 177.930787 480.56645 177.930787"></polyline>
                <polyline id="path2737" fill="#000000" fill-rule="nonzero" points="74.1270672 167.274484 74.1270672 169.229034 66.1218126 172.486611 74.1270672 175.73527 74.1270672 177.689813 63.5669461 173.361251 63.5669461 171.585202 74.1270672 167.274484"></polyline>
                <polyline id="path2742" fill="#000000" fill-rule="nonzero" points="63.5669461 144.426802 74.1270672 148.73752 74.1270672 150.513569 63.5669461 154.842131 63.5669461 152.887588 71.5901315 149.638929 63.5669461 146.381352 63.5669461 144.426802"></polyline>
                <path d="M550.75364,98.8742354 L548.924895,104.470135 L552.591358,104.470135 L550.75364,98.8742354 M549.175896,96.241398 L552.31346,96.241398 L557.073581,109.387741 L554.222886,109.387741 L553.326437,106.683505 L548.207739,106.683505 L547.338186,109.387741 L544.478526,109.387741 L549.175896,96.241398 M551.318399,94.5635252 L551.318399,92.368 L553.344368,92.368 L553.344368,94.5635252 L551.318399,94.5635252 M548.198773,94.5635252 L548.198773,92.368 L550.224742,92.368 L550.224742,94.5635252 L548.198773,94.5635252" id="text6003" fill="#000000" fill-rule="nonzero"></path>
                <path d="M534.012526,50.510335 L536.755651,50.510335 L536.755651,58.7569203 C536.755643,59.7743596 536.958834,60.5180988 537.36523,60.9881389 C537.771611,61.4522347 538.417052,61.6842811 539.301552,61.6842796 C540.197994,61.6842811 540.849409,61.4522347 541.255805,60.9881389 C541.66816,60.5240484 541.874342,59.7803099 541.874349,58.7569203 L541.874349,50.510335 L544.590578,50.510335 L544.590578,59.0514406 C544.590578,60.6638716 544.136371,61.9014529 543.227981,62.764189 C542.32555,63.6269274 541.02272,64.0582962 539.319483,64.0582962 C537.604275,64.0582962 536.289496,63.6299021 535.375123,62.773114 C534.466725,61.9103779 534.012526,60.6698212 534.012526,59.0514406 L534.012526,50.510335 M539.866312,48.8681579 L539.866312,46.672638 L541.89228,46.672638 L541.89228,48.8681579 L539.866312,48.8681579 M536.746686,48.8681579 L536.746686,46.672638 L538.772646,46.672638 L538.772646,48.8681579 L536.746686,48.8681579" id="text6023" fill="#000000" fill-rule="nonzero"></path>
                <path d="M501.193655,102.827958 C501.193655,104.27379 501.516372,105.398323 502.16182,106.201563 C502.807253,106.998848 503.709677,107.397495 504.869083,107.397495 C506.040431,107.397495 506.95182,106.998848 507.603243,106.201563 C508.25465,105.398323 508.580365,104.27379 508.580365,102.827958 C508.580365,101.382134 508.25465,100.260579 507.603243,99.4632791 C506.95182,98.6600536 506.040431,98.2584219 504.869083,98.2584219 C503.709677,98.2584219 502.807253,98.6570758 502.16182,99.4543533 C501.516372,100.251654 501.193655,101.376186 501.193655,102.827958 M498.423642,102.827958 C498.423642,100.703847 499.003341,99.0200189 500.162748,97.7764805 C501.328121,96.5270093 502.8969,95.9022546 504.869083,95.9022546 C506.841252,95.9022546 508.41003,96.5270093 509.575426,97.7764805 C510.746767,99.0259669 511.332456,100.709795 511.332456,102.827958 C511.332456,104.946129 510.746767,106.629957 509.575426,107.879436 C508.41003,109.128923 506.841252,109.753662 504.869083,109.753662 C502.8969,109.753662 501.328121,109.128923 500.162748,107.879436 C499.003341,106.629957 498.423642,104.946129 498.423642,102.827958 M505.433843,94.5635252 L505.433843,92.368 L507.459812,92.368 L507.459812,94.5635252 L505.433843,94.5635252 M502.314217,94.5635252 L502.314217,92.368 L504.340185,92.368 L504.340185,94.5635252 L502.314217,94.5635252" id="text6041" fill="#000000" fill-rule="nonzero"></path>
                <path d="M104.399433,84.1124927 C104.070726,84.6122858 103.691234,84.9811844 103.260948,85.2191735 C102.830646,85.4512222 102.322663,85.5672503 101.736996,85.5672503 C100.792729,85.5672503 100.072589,85.311402 99.5765621,84.7997053 C99.0865014,84.2880162 98.8414673,83.5323825 98.8414749,82.5327887 C98.8414673,81.1107642 99.2568213,79.9178106 100.087537,78.9539126 C100.924212,77.9900374 101.952136,77.508096 103.171309,77.5080808 C103.649398,77.508096 104.064752,77.6062649 104.417363,77.8026026 C104.76996,77.9989632 105.059805,78.2905073 105.286916,78.6772424 L105.76203,77.8026026 L107.357704,77.8026026 L106.039934,83.1396841 C106.021988,83.2051351 106.007048,83.2735563 105.995107,83.3449553 C105.983143,83.4104063 105.977169,83.4639536 105.977176,83.5055974 C105.977169,83.713854 106.048884,83.8715258 106.192323,83.9786205 C106.335747,84.0797672 106.547903,84.1303444 106.828806,84.1303444 C107.061869,84.1303444 107.303904,84.070849 107.55492,83.951843 C107.811888,83.8328523 108.05094,83.6662546 108.272077,83.45205 C108.786027,82.9760642 109.174485,82.419746 109.437458,81.783103 C109.706374,81.1464599 109.84084,80.4473513 109.840863,79.6857543 C109.84084,78.2577818 109.285046,77.08565 108.173473,76.1693513 C107.067843,75.2471267 105.639505,74.7860087 103.888465,74.7859973 C103.045793,74.7860087 102.259912,74.8871569 101.530807,75.0894427 C100.807669,75.2917513 100.150279,75.5922219 99.5586313,75.9908553 C98.542656,76.669152 97.7597584,77.5170142 97.2099462,78.5344444 C96.6661008,79.5518897 96.394178,80.6674964 96.394178,81.8812719 C96.394178,83.7078983 97.0127225,85.168604 98.2498191,86.2633887 C99.486908,87.3522255 101.139359,87.8966401 103.207163,87.8966401 C104.175313,87.8966401 105.119572,87.7508642 106.039934,87.4593202 C106.966248,87.1677762 107.826828,86.7453301 108.621697,86.1919897 L109.356777,87.2361974 C108.442389,87.9204397 107.471241,88.4351066 106.443332,88.7802056 C105.421375,89.125297 104.354606,89.2978427 103.243025,89.2978427 C102.095559,89.2978427 101.040747,89.1520669 100.078572,88.8605228 C99.116381,88.5749268 98.2617678,88.1495106 97.5147319,87.5842666 C96.5884031,86.8643285 95.895152,86.0343179 95.4349786,85.0942272 C94.9748052,84.154144 94.7447185,83.089107 94.7447185,81.8991235 C94.7447185,80.905493 94.9000986,79.9594543 95.2108739,79.0610149 C95.5276161,78.1566351 95.9907728,77.3355427 96.6003595,76.5977454 C97.4848523,75.5208229 98.5486304,74.7056846 99.791709,74.1523305 C101.034772,73.5990016 102.418283,73.3223176 103.94225,73.3223176 C104.952236,73.3223176 105.899479,73.4591783 106.783979,73.7328616 C107.674439,74.0006204 108.448363,74.3814151 109.105776,74.8752457 C109.912556,75.499998 110.513177,76.2139881 110.907632,77.0172136 C111.308023,77.8145139 111.508246,78.7159235 111.508246,79.72145 C111.508246,80.7031921 111.311014,81.6105573 110.916597,82.4435381 C110.528117,83.2705861 109.966348,83.9786205 109.231276,84.5676642 C108.812924,84.9008596 108.355733,85.1567003 107.859714,85.3352017 C107.369645,85.5077474 106.858671,85.5940202 106.326797,85.5940202 C105.693297,85.5940202 105.215193,85.4690738 104.892484,85.2191735 C104.575727,84.9692808 104.411381,84.6003897 104.399433,84.1124927 M104.847657,80.2926421 C104.76996,79.8107083 104.596641,79.4447874 104.327717,79.1948871 C104.064752,78.9390464 103.715139,78.8111146 103.278879,78.8111146 C102.597569,78.8111146 102.005921,79.1800209 101.503919,79.917803 C101.001902,80.6555927 100.750901,81.5421361 100.750901,82.5774103 C100.750901,83.1248103 100.870419,83.5413007 101.109479,83.8268967 C101.354505,84.1124927 101.707102,84.2552907 102.16729,84.2552907 C102.66331,84.2552907 103.114518,84.0678712 103.520922,83.6930245 C103.933277,83.3181854 104.214158,82.8302884 104.363579,82.2293411 L104.847657,80.2926421" id="path2893" fill="#0000FF" fill-rule="nonzero"></path>
                <polyline id="path2898" fill="#0000FF" fill-rule="nonzero" points="540.86555 42.5400993 536.41918 27.3588884 537.629381 27.3588884 542.093681 42.5400993 540.86555 42.5400993"></polyline>
                <polyline id="path2919" fill="#000000" fill-rule="nonzero" points="595.822435 96.5537715 597.543611 96.5537715 597.543611 101.542776 595.822435 101.542776 595.822435 96.5537715"></polyline>
                <polyline id="text6099" fill="#FF0000" fill-rule="nonzero" points="564.850248 26.6809139 562.044373 29.9831199 560.771422 29.9831199 562.537417 26.6809139 564.850248 26.6809139"></polyline>
                <polyline id="text5103" fill="#FF0000" fill-rule="nonzero" points="559.946689 3.83323407 562.25952 3.83323407 564.025514 7.13543851 562.752564 7.13543851 559.946689 3.83323407"></polyline>
                <path d="M409.895173,168.185078 L412.485901,168.185078 L411.804607,172.067402 C411.71496,172.543395 411.646228,172.995589 411.598425,173.423983 C411.550607,173.846429 411.526702,174.191521 411.52671,174.459265 C411.526702,175.012613 411.652202,175.426133 411.903211,175.699825 C412.154212,175.96757 412.536695,176.101442 413.050661,176.101442 C413.648291,176.101442 414.111456,175.857497 414.440154,175.3696 C414.77482,174.881711 415.052717,174.016005 415.273846,172.772466 L416.080648,168.185078 L418.671376,168.185078 L416.941236,177.931046 L414.538766,177.931046 L414.700121,176.886831 C414.449112,177.350928 414.168224,177.690072 413.857464,177.904269 C413.55267,178.118466 413.191101,178.225561 412.772764,178.225561 C412.37235,178.225561 412.016763,178.136318 411.705995,177.957816 C411.395227,177.785271 411.114339,177.514548 410.863338,177.145657 L410.056535,181.84014 L407.492703,181.84014 L409.895173,168.185078" id="text6117" fill="#0000FF" fill-rule="nonzero"></path>
                <polyline id="path3396" fill="#0000FF" fill-rule="nonzero" points="90.8771538 162.201247 92.7238294 162.201247 92.7238294 180.479393 90.8771538 180.479393 90.8771538 162.201247"></polyline>
                <path d="M11.4745011,6.0823043 C11.0382253,6.0823043 10.6647073,6.23403576 10.3539472,6.53746821 C10.0491539,6.84093113 9.89675721,7.20684437 9.89675721,7.63523079 C9.89675721,8.07553609 10.0491539,8.44740497 10.3539472,8.75083742 C10.6587329,9.05429272 11.0322509,9.20600894 11.4745011,9.20600894 C11.9047949,9.20600894 12.2723308,9.05132252 12.5771318,8.74191921 C12.8819175,8.43253113 13.0343142,8.06363245 13.0343142,7.63523079 C13.0343142,7.20684437 12.8819175,6.84093113 12.5771318,6.53746821 C12.2723308,6.23403576 11.9047949,6.0823043 11.4745011,6.0823043 M11.4745011,4.93099437 C12.2275114,4.93099437 12.8669777,5.19875397 13.3928924,5.7342351 C13.9247814,6.26378344 14.1907297,6.9034043 14.1907297,7.65308245 C14.1907297,8.39682781 13.9247814,9.03347086 13.3928924,9.56300397 C12.8609957,10.0925523 12.2155626,10.3573189 11.4565703,10.3573189 C10.7035523,10.3573189 10.0640937,10.0955301 9.53817905,9.5719298 C9.0182388,9.0483447 8.75827251,8.40873146 8.75827251,7.65308245 C8.75827251,6.89745629 9.02122982,6.25486523 9.54714446,5.72530927 C10.0790335,5.19577616 10.7214831,4.93099437 11.4745011,4.93099437" id="path3403" fill="#000000" fill-rule="nonzero"></path>
                <polyline id="text6091" fill="#FF0000" fill-rule="nonzero" points="10.0491539 27.8143752 12.3081925 27.8143752 16.6200958 32.8212308 14.5134539 32.8212308 11.1876386 29.510102 7.84390011 32.8212308 5.73725055 32.8212308 10.0491539 27.8143752"></polyline>
                <polygon id="path2585" stroke="#000000" stroke-width="2" points="20.8453437 126.233444 29.4512195 114.809603 23.713969 114.809603 23.713969 109.097682 17.9767184 109.097682 17.9767184 114.809603 12.2394678 114.809603"></polygon>
                <text id="Strg" fill="#000000" font-family="Helvetica" font-size="16" font-weight="normal">
                    <tspan x="11.6179324" y="210.013609">Strg</tspan>
                </text>
                <text id="tspan3451" fill="#000000" font-family="Helvetica" font-size="16" font-weight="normal">
                    <tspan x="638.48" y="211.12">Strg</tspan>
                </text>
                <g id="text3456" transform="translate(134.475033, 197.038411)" fill="#000000" font-family="Helvetica" font-size="15.9998712" font-weight="normal">
                    <text id="tspan3460">
                        <tspan x="0" y="15">Alt</tspan>
                    </text>
                </g>
                <text id="tspan3466" fill="#0000FF" font-family="Helvetica" font-size="16" font-weight="normal">
                    <tspan x="477.635033" y="210.358411">Alt Gr</tspan>
                </text>
                <text id="tspan3484" fill="#000000" font-family="Helvetica" font-size="16" font-weight="normal">
                    <tspan x="74.6750333" y="210.358411">(Win</tspan>
                    <tspan x="74.6750333" y="229.358411">)</tspan>
                </text>
                <text id="(Win)" fill="#000000" font-family="Helvetica" font-size="16" font-weight="normal">
                    <tspan x="534.675033" y="209.438411">(Win)</tspan>
                </text>
                <text id="Menu" fill="#000000" font-family="Helvetica" font-size="16" font-weight="normal">
                    <tspan x="577.315033" y="209.438411">Menu</tspan>
                </text>
            </g>
            <circle id="Oval" stroke="#EE714E" stroke-width="5" cx="128" cy="159.72" r="30"></circle>
        </g>
    </g>
</svg>