<?xml version="1.0" encoding="UTF-8"?>
<svg width="750px" height="250px" viewBox="0 0 750 250" version="1.1" xmlns="http://www.w3.org/2000/svg" xmlns:xlink="http://www.w3.org/1999/xlink">
    <!-- Generator: sketchtool 55.2 (78181) - https://sketchapp.com -->
    <title>german-layout.svg</title>
    <desc>Created with sketchtool.</desc>
    <g id="dom" stroke="none" stroke-width="1" fill="none" fill-rule="evenodd">
        <g id="german-layout.svg">
            <g id="KB_Germany" transform="translate(1.000000, 1.000000)">
                <polygon id="rect2186" stroke="#000000" fill="#FFFFFF" points="0 0 49.8891353 0 49.8891353 49.6688742 0 49.6688742"></polygon>
                <polygon id="rect2218" stroke="#000000" fill="#FFFFFF" points="49.8891353 0 99.7782705 0 99.7782705 49.6688742 49.8891353 49.6688742"></polygon>
                <polygon id="rect2222" stroke="#000000" fill="#FFFFFF" points="99.7782705 0 149.667406 0 149.667406 49.6688742 99.7782705 49.6688742"></polygon>
                <polygon id="rect2228" stroke="#000000" fill="#FFFFFF" points="149.667406 0 199.556541 0 199.556541 49.6688742 149.667406 49.6688742"></polygon>
                <polygon id="rect2230" stroke="#000000" fill="#FFFFFF" points="199.556541 0 249.445676 0 249.445676 49.6688742 199.556541 49.6688742"></polygon>
                <polygon id="rect2232" stroke="#000000" fill="#FFFFFF" points="249.445676 0 299.334812 0 299.334812 49.6688742 249.445676 49.6688742"></polygon>
                <polygon id="rect2234" stroke="#000000" fill="#FFFFFF" points="299.334812 0 349.223947 0 349.223947 49.6688742 299.334812 49.6688742"></polygon>
                <polygon id="rect2236" stroke="#000000" fill="#FFFFFF" points="349.223947 0 399.113082 0 399.113082 49.6688742 349.223947 49.6688742"></polygon>
                <polygon id="rect2238" stroke="#000000" fill="#FFFFFF" points="399.113082 0 449.002217 0 449.002217 49.6688742 399.113082 49.6688742"></polygon>
                <polygon id="rect2240" stroke="#000000" fill="#FFFFFF" points="449.002217 0 498.891353 0 498.891353 49.6688742 449.002217 49.6688742"></polygon>
                <polygon id="rect2242" stroke="#000000" fill="#FFFFFF" points="498.891353 0 548.780488 0 548.780488 49.6688742 498.891353 49.6688742"></polygon>
                <polygon id="rect2244" stroke="#000000" fill="#FFFFFF" points="548.780488 0 598.669623 0 598.669623 49.6688742 548.780488 49.6688742"></polygon>
                <polygon id="rect2246" stroke="#000000" fill="#FFFFFF" points="598.669623 0 648.558758 0 648.558758 49.6688742 598.669623 49.6688742"></polygon>
                <polygon id="rect2248" stroke="#000000" fill="#DFDFDF" points="648.558758 0 748.337029 0 748.337029 49.6688742 648.558758 49.6688742"></polygon>
                <polygon id="rect2250" stroke="#000000" fill="#DFDFDF" points="0 49.6688742 74.8337029 49.6688742 74.8337029 99.3377483 0 99.3377483"></polygon>
                <polygon id="rect2252" stroke="#000000" fill="#FFFFFF" points="74.8337029 49.6688742 124.722838 49.6688742 124.722838 99.3377483 74.8337029 99.3377483"></polygon>
                <polygon id="rect2254" stroke="#000000" fill="#FFFFFF" points="124.722838 49.6688742 174.611973 49.6688742 174.611973 99.3377483 124.722838 99.3377483"></polygon>
                <polygon id="rect2256" stroke="#000000" fill="#FFFFFF" points="174.611973 49.6688742 224.501109 49.6688742 224.501109 99.3377483 174.611973 99.3377483"></polygon>
                <polygon id="rect2258" stroke="#000000" fill="#FFFFFF" points="224.501109 49.6688742 274.390244 49.6688742 274.390244 99.3377483 224.501109 99.3377483"></polygon>
                <polygon id="rect2262" stroke="#000000" fill="#FFFFFF" points="274.390244 49.6688742 324.279379 49.6688742 324.279379 99.3377483 274.390244 99.3377483"></polygon>
                <polygon id="rect2264" stroke="#000000" fill="#FFFFFF" points="324.279379 49.6688742 374.168514 49.6688742 374.168514 99.3377483 324.279379 99.3377483"></polygon>
                <polygon id="rect2266" stroke="#000000" fill="#FFFFFF" points="374.168514 49.6688742 424.05765 49.6688742 424.05765 99.3377483 374.168514 99.3377483"></polygon>
                <polygon id="rect2270" stroke="#000000" fill="#FFFFFF" points="424.05765 49.6688742 473.946785 49.6688742 473.946785 99.3377483 424.05765 99.3377483"></polygon>
                <polygon id="rect2272" stroke="#000000" fill="#FFFFFF" points="473.946785 49.6688742 523.83592 49.6688742 523.83592 99.3377483 473.946785 99.3377483"></polygon>
                <polygon id="rect2274" stroke="#000000" fill="#FFFFFF" points="523.83592 49.6688742 573.725055 49.6688742 573.725055 99.3377483 523.83592 99.3377483"></polygon>
                <polygon id="rect2278" stroke="#000000" fill="#FFFFFF" points="573.725055 49.6688742 623.614191 49.6688742 623.614191 99.3377483 573.725055 99.3377483"></polygon>
                <polygon id="rect2280" stroke="#000000" fill="#FFFFFF" points="623.614191 49.6688742 673.503326 49.6688742 673.503326 99.3377483 623.614191 99.3377483"></polygon>
                <polygon id="rect2286" stroke="#000000" fill="#DFDFDF" points="0 99.3377483 87.3059867 99.3377483 87.3059867 149.006623 0 149.006623"></polygon>
                <polygon id="rect2292" stroke="#000000" fill="#FFFFFF" points="87.3059867 99.3377483 137.195122 99.3377483 137.195122 149.006623 87.3059867 149.006623"></polygon>
                <polygon id="rect2296" stroke="#000000" fill="#FFFFFF" points="137.195122 99.3377483 187.084257 99.3377483 187.084257 149.006623 137.195122 149.006623"></polygon>
                <polygon id="rect2298" stroke="#000000" fill="#FFFFFF" points="187.084257 99.3377483 236.973392 99.3377483 236.973392 149.006623 187.084257 149.006623"></polygon>
                <polygon id="rect2300" stroke="#000000" fill="#FFFFFF" points="236.973392 99.3377483 286.862528 99.3377483 286.862528 149.006623 236.973392 149.006623"></polygon>
                <polygon id="rect2302" stroke="#000000" fill="#FFFFFF" points="286.862528 99.3377483 336.751663 99.3377483 336.751663 149.006623 286.862528 149.006623"></polygon>
                <polygon id="rect2306" stroke="#000000" fill="#FFFFFF" points="336.751663 99.3377483 386.640798 99.3377483 386.640798 149.006623 336.751663 149.006623"></polygon>
                <polygon id="rect2308" stroke="#000000" fill="#FFFFFF" points="386.640798 99.3377483 436.529933 99.3377483 436.529933 149.006623 386.640798 149.006623"></polygon>
                <polygon id="rect2312" stroke="#000000" fill="#FFFFFF" points="436.529933 99.3377483 486.419069 99.3377483 486.419069 149.006623 436.529933 149.006623"></polygon>
                <polygon id="rect2314" stroke="#000000" fill="#FFFFFF" points="486.419069 99.3377483 536.308204 99.3377483 536.308204 149.006623 486.419069 149.006623"></polygon>
                <polygon id="rect2316" stroke="#000000" fill="#FFFFFF" points="536.308204 99.3377483 586.197339 99.3377483 586.197339 149.006623 536.308204 149.006623"></polygon>
                <polygon id="rect2318" stroke="#000000" fill="#FFFFFF" points="586.197339 99.3377483 636.086475 99.3377483 636.086475 149.006623 586.197339 149.006623"></polygon>
                <polygon id="rect2320" stroke="#000000" stroke-width="1.00000048" fill="#DFDFDF" points="685.97561 99.3377483 673.503326 99.3377483 673.503326 49.6688742 748.337029 49.6688742 748.337403 149.006623 685.883914 149.006623"></polygon>
                <polygon id="rect2322" stroke="#000000" stroke-width="1.00000048" fill="#DFDFDF" points="3.11889914e-07 149.006623 62.3626754 149.006623 62.3626754 198.675497 3.11889914e-07 198.675497"></polygon>
                <polygon id="rect2324" stroke="#000000" fill="#FFFFFF" points="112.250554 149.006623 162.13969 149.006623 162.13969 198.675497 112.250554 198.675497"></polygon>
                <polygon id="rect2326" stroke="#000000" fill="#FFFFFF" points="162.13969 149.006623 212.028825 149.006623 212.028825 198.675497 162.13969 198.675497"></polygon>
                <polygon id="rect2330" stroke="#000000" fill="#FFFFFF" points="212.028825 149.006623 261.91796 149.006623 261.91796 198.675497 212.028825 198.675497"></polygon>
                <polygon id="rect2334" stroke="#000000" fill="#FFFFFF" points="261.91796 149.006623 311.807095 149.006623 311.807095 198.675497 261.91796 198.675497"></polygon>
                <polygon id="rect2336" stroke="#000000" fill="#FFFFFF" points="311.807095 149.006623 361.696231 149.006623 361.696231 198.675497 311.807095 198.675497"></polygon>
                <polygon id="rect2338" stroke="#000000" fill="#FFFFFF" points="361.696231 149.006623 411.585366 149.006623 411.585366 198.675497 361.696231 198.675497"></polygon>
                <polygon id="rect2340" stroke="#000000" fill="#FFFFFF" points="411.585366 149.006623 461.474501 149.006623 461.474501 198.675497 411.585366 198.675497"></polygon>
                <polygon id="rect2342" stroke="#000000" fill="#FFFFFF" points="461.474501 149.006623 511.363636 149.006623 511.363636 198.675497 461.474501 198.675497"></polygon>
                <polygon id="rect2344" stroke="#000000" fill="#FFFFFF" points="511.363636 149.006623 561.252772 149.006623 561.252772 198.675497 511.363636 198.675497"></polygon>
                <polygon id="rect2346" stroke="#000000" fill="#FFFFFF" points="561.252772 149.006623 611.141907 149.006623 611.141907 198.675497 561.252772 198.675497"></polygon>
                <polygon id="rect2348" stroke="#000000" fill="#DFDFDF" points="611.141907 149.006623 748.337029 149.006623 748.337029 198.675497 611.141907 198.675497"></polygon>
                <polygon id="rect2350" stroke="#000000" fill="#DFDFDF" points="0 198.675497 74.8337029 198.675497 74.8337029 248.344371 0 248.344371"></polygon>
                <polygon id="rect2352" stroke="#000000" fill="#DFDFDF" points="673.503326 198.675497 748.337029 198.675497 748.337029 248.344371 673.503326 248.344371"></polygon>
                <polygon id="rect2354" stroke="#000000" fill="#DFDFDF" points="124.722838 198.675497 199.556541 198.675497 199.556541 248.344371 124.722838 248.344371"></polygon>
                <polygon id="rect2360" stroke="#000000" fill="#DFDFDF" points="498.891353 198.675497 573.725055 198.675497 573.725055 248.344371 498.891353 248.344371"></polygon>
                <polygon id="rect2362" stroke="#000000" fill="#FFFFFF" points="199.556541 198.675497 498.891353 198.675497 498.891353 248.344371 199.556541 248.344371"></polygon>
                <polygon id="rect2364" stroke="#000000" fill="#EFEFEF" points="74.8337029 198.675497 124.722838 198.675497 124.722838 248.344371 74.8337029 248.344371"></polygon>
                <polygon id="rect2366" stroke="#000000" fill="#EFEFEF" points="573.725055 198.675497 623.614191 198.675497 623.614191 248.344371 573.725055 248.344371"></polygon>
                <polygon id="rect2368" stroke="#000000" fill="#EFEFEF" points="623.614191 198.675497 673.503326 198.675497 673.503326 248.344371 623.614191 248.344371"></polygon>
                <path d="M62.6537386,15.5845795 L61.8937084,9.15284851 L61.8937084,5.27246738 L64.8948517,5.27246738 L64.8948517,9.15284851 L64.1348223,15.5845795 L62.6537386,15.5845795 M61.9326843,19.5619694 L61.9326843,16.7001887 L64.8266441,16.7001887 L64.8266441,19.5619694 L61.9326843,19.5619694 M62.6537386,44.3964065 L62.6537386,34.8991747 L59.3212999,34.8991747 L59.3212999,32.9492831 L59.5356677,32.9492831 C60.7504124,32.9492947 61.633865,32.7617434 62.186028,32.3866283 C62.7446766,32.0115373 63.0727234,31.3842094 63.1701685,30.5046432 L65.4015382,30.5046432 L65.4015382,44.3964065 L62.6537386,44.3964065" id="text5091" fill="#000000" fill-rule="nonzero"></path>
                <path d="M112.727361,5.61200075 L114.598204,5.61200075 L114.598204,11.0348328 L112.727361,11.0348328 L112.727361,5.61200075 M109.550829,5.61200075 L111.421671,5.61200075 L111.421671,11.0348328 L109.550829,11.0348328 L109.550829,5.61200075 M106.900468,44.3964065 C106.913456,43.1546863 107.179789,42.1037508 107.699476,41.2435977 C108.219146,40.3769826 109.14158,39.5006647 110.46676,38.6146391 C110.668129,38.478832 110.960455,38.2912806 111.34372,38.0519843 C113.09763,36.9331482 113.974581,35.8563435 113.97459,34.8215671 C113.974581,34.2071838 113.789451,33.7221366 113.419182,33.3664247 C113.048905,33.0107343 112.542223,32.8328833 111.899127,32.8328717 C111.197553,32.8328833 110.655141,33.0527715 110.271885,33.4925364 C109.895114,33.9258568 109.706724,34.5467169 109.706732,35.3551192 L109.706732,35.4715306 L107.134324,35.4715306 C107.134324,33.8805853 107.563054,32.6550331 108.420524,31.79487 C109.277993,30.9347326 110.499238,30.5046432 112.084257,30.5046432 C113.519867,30.5046432 114.666402,30.8959288 115.52388,31.6784586 C116.381341,32.4545472 116.810089,33.4893137 116.810089,34.7827632 C116.810089,35.707596 116.585962,36.5095406 116.137749,37.1885993 C115.689521,37.867673 114.822306,38.6405141 113.536114,39.5071267 C113.263271,39.6946838 112.886508,39.9404404 112.405809,40.244399 C111.184565,41.0269462 110.495987,41.6219371 110.340091,42.0293742 L116.673667,42.0293742 L116.673667,44.3964065 L106.900468,44.3964065" id="text5127" fill="#000000" fill-rule="nonzero"></path>
                <path d="M158.047226,40.1667914 L160.726813,40.1667914 C160.733307,40.9428717 160.921688,41.5281614 161.291965,41.9226639 C161.662234,42.3107045 162.211139,42.5047227 162.938697,42.504721 C163.640255,42.5047227 164.179424,42.3236391 164.556195,41.9614677 C164.939451,41.5928344 165.131084,41.06575 165.131092,40.3802127 C165.131084,39.6946838 164.906973,39.1772997 164.458753,38.8280604 C164.017018,38.4723651 163.357683,38.2945141 162.480732,38.2945083 C162.435249,38.2945141 162.3638,38.2977475 162.266358,38.3042086 C162.17541,38.3106821 162.107203,38.3139156 162.061738,38.3139098 L162.061738,36.3931217 L162.3638,36.3931217 C163.169293,36.3931291 163.763681,36.2379139 164.146946,35.927476 C164.536696,35.6105869 164.73158,35.1287732 164.731588,34.4820339 C164.73158,33.9452583 164.565931,33.5216507 164.234642,33.2112094 C163.909839,32.8943228 163.464861,32.7358742 162.899717,32.7358626 C162.282597,32.7358742 161.805141,32.9169586 161.467359,33.2791159 C161.129559,33.6412955 160.960668,34.1554454 160.960668,34.8215671 L160.960668,34.9379785 L158.329798,34.9379785 C158.362275,33.5151829 158.781269,32.4254437 159.586771,31.6687575 C160.398767,30.90563 161.542059,30.5240455 163.016649,30.5240455 C164.413279,30.5240455 165.520843,30.8635919 166.33934,31.5426457 C167.157822,32.2217243 167.56707,33.136846 167.567079,34.2880149 C167.56707,34.8959503 167.427406,35.4295025 167.148093,35.8886722 C166.868756,36.3478584 166.449762,36.7261954 165.89112,37.0236829 C166.605665,37.3341209 167.144834,37.7641962 167.508617,38.3139098 C167.878877,38.8571689 168.064024,39.5071316 168.064024,40.2638013 C168.064024,41.654274 167.60605,42.7569478 166.690127,43.5718262 C165.77418,44.3867061 164.523708,44.7941457 162.938697,44.7941457 C161.37316,44.7941457 160.164911,44.3996407 159.313936,43.61063 C158.469462,42.8151531 158.047226,41.6866101 158.047226,40.2249975 L158.047226,40.1667914" id="text5139" fill="#000000" fill-rule="nonzero"></path>
                <path d="M211.580604,17.7575927 C212.113262,17.6864545 212.519268,17.4956689 212.798598,17.1852368 C213.077919,16.8748088 213.217591,16.4609015 213.217591,15.9435149 C213.217591,15.4843402 213.084412,15.1060033 212.818088,14.8085033 C212.55824,14.5045447 212.145748,14.2684892 211.580604,14.1003336 L211.580604,17.7575927 M210.421073,11.1221416 L210.421073,7.8238178 C209.914382,7.88850248 209.527866,8.06311945 209.261541,8.34766887 C208.9952,8.62577401 208.862037,9.00087748 208.862037,9.4729793 C208.862037,9.86749503 208.985455,10.197327 209.232306,10.4624768 C209.485643,10.7276449 209.881896,10.9475331 210.421073,11.1221416 M210.421073,21.7446838 L210.421073,19.882101 C208.952977,19.7915588 207.855158,19.3679512 207.127608,18.6112765 C206.400058,17.8546035 206.036283,16.7616308 206.036283,15.3323543 L208.647664,15.3323543 C208.680141,16.030827 208.842539,16.5837806 209.134864,16.9912177 C209.433675,17.3921921 209.862414,17.6476507 210.421073,17.7575927 L210.421073,13.7413982 C208.913997,13.3598336 207.842162,12.8618518 207.20556,12.247452 C206.56895,11.6330662 206.250649,10.7923179 206.250649,9.72520447 C206.250649,8.5416995 206.627411,7.58777326 207.380953,6.86342351 C208.140981,6.13909917 209.154346,5.76076242 210.421073,5.72841217 L210.421073,4.48669031 L211.580604,4.48669031 L211.580604,5.72841217 C212.847314,5.79309892 213.834695,6.17466929 214.542772,6.8731245 C215.250823,7.56513775 215.640582,8.5416995 215.712048,9.80281209 L213.061688,9.80281209 C213.016206,9.20136341 212.870047,8.74218543 212.623204,8.42527649 C212.382846,8.10192318 212.03531,7.92083891 211.580604,7.88202351 L211.580604,11.4131697 C213.185105,11.9111598 214.315402,12.4802815 214.971502,13.1205373 C215.627586,13.7608063 215.955649,14.6047881 215.955649,15.6524859 C215.955649,16.8877434 215.572375,17.8740058 214.805854,18.6112765 C214.045818,19.3485488 212.970732,19.7786242 211.580604,19.9015033 L211.580604,21.7446838 L210.421073,21.7446838 M211.736508,39.2549023 L211.736508,33.3082185 L207.946098,39.2549023 L211.736508,39.2549023 M211.678046,44.3964065 L211.678046,41.3988129 L205.792683,41.3988129 L205.792683,38.954173 L210.9375,30.9023825 L214.396613,30.9023825 L214.396613,39.1869959 L216.01411,39.1869959 L216.01411,41.3988129 L214.396613,41.3988129 L214.396613,44.3964065 L211.678046,44.3964065" id="text5145" fill="#000000" fill-rule="nonzero"></path>
                <path d="M266.429418,16.3412533 C266.429418,16.7745654 266.575568,17.1399677 266.867902,17.4374611 C267.160202,17.7284917 267.520734,17.8740041 267.949482,17.8740041 C268.365208,17.8740041 268.722489,17.7252583 269.021317,17.4277599 C269.320119,17.1237997 269.469537,16.7616308 269.469537,16.3412533 C269.469537,15.9273502 269.320119,15.5748825 269.021317,15.2838502 C268.728983,14.9863584 268.371702,14.837606 267.949482,14.837606 C267.520734,14.837606 267.160202,14.983125 266.867902,15.274149 C266.575568,15.5587144 266.429418,15.9144156 266.429418,16.3412533 M264.314975,16.3412533 C264.314975,15.3323584 264.665754,14.4819098 265.367328,13.7899031 C266.068877,13.0979081 266.929598,12.7519015 267.949482,12.7519015 C268.949842,12.7519015 269.800818,13.1043758 270.5024,13.8093055 C271.210443,14.507779 271.56449,15.3517608 271.56449,16.3412533 C271.56449,17.3372202 271.210443,18.1909031 270.5024,18.9023046 C269.794324,19.6072409 268.943348,19.9597086 267.949482,19.9597086 C266.929598,19.9597086 266.068877,19.6104743 265.367328,18.9120058 C264.665754,18.2135389 264.314975,17.3566225 264.314975,16.3412533 M258.653731,19.9597086 L266.97508,5.67020646 L268.543861,5.67020646 L260.222511,19.9597086 L258.653731,19.9597086 M257.796261,9.28866142 C257.796261,9.71551325 257.939169,10.0744478 258.224992,10.3654669 C258.517309,10.656505 258.877841,10.8020099 259.30658,10.8020099 C259.728808,10.8020099 260.086089,10.656505 260.378415,10.3654669 C260.677226,10.067981 260.826635,9.70904636 260.826635,9.28866142 C260.826635,8.8747649 260.677226,8.52229719 260.378415,8.23125778 C260.086089,7.93377351 259.728808,7.78501399 259.30658,7.78501399 C258.877841,7.78501399 258.517309,7.9305399 258.224992,8.22155679 C257.939169,8.50612914 257.796261,8.8618303 257.796261,9.28866142 M255.681818,9.28866142 C255.681818,8.27977401 256.032597,7.42609089 256.734171,6.72761018 C257.435729,6.02268791 258.293198,5.67020646 259.30658,5.67020646 C260.306948,5.67020646 261.157924,6.02592152 261.859498,6.73731118 C262.56755,7.44225911 262.921588,8.29270861 262.921588,9.28866142 C262.921588,10.2846349 262.56755,11.1350844 261.859498,11.8400116 C261.157924,12.5384876 260.306948,12.8877144 259.30658,12.8877144 C258.286705,12.8877144 257.425984,12.541721 256.724426,11.8497127 C256.029354,11.1577202 255.681818,10.3040373 255.681818,9.28866142 M258.468592,40.6615406 L261.196904,40.6615406 C261.242378,41.2694694 261.446998,41.741582 261.810773,42.0778791 C262.174548,42.4077136 262.661749,42.57263 263.272375,42.5726275 C264.025901,42.57263 264.60079,42.3527417 264.997059,41.9129627 C265.399798,41.4731896 265.601175,40.8426283 265.601183,40.0212773 C265.601175,39.2516738 265.396547,38.6469818 264.987314,38.2071995 C264.578057,37.7609619 264.012905,37.5378402 263.291857,37.5378336 C262.889102,37.5378402 262.535072,37.6186821 262.229767,37.7803576 C261.924454,37.9420464 261.664615,38.1813361 261.450249,38.4982276 L258.936303,38.3527136 L259.842497,30.9023825 L267.861785,30.9023825 L267.861785,33.2500132 L261.810773,33.2500132 L261.450249,36.0341863 C261.755554,35.7949048 262.106341,35.6170538 262.502603,35.5006341 C262.898847,35.3777641 263.340574,35.3163245 263.827783,35.3163154 C265.21791,35.3163245 266.33847,35.7366987 267.189446,36.5774396 C268.046907,37.4181954 268.475654,38.5208692 268.475654,39.8854644 C268.475654,41.3794139 268.004684,42.57263 267.062777,43.4651151 C266.120854,44.3511358 264.857386,44.7941457 263.272375,44.7941457 C261.830263,44.7941457 260.680477,44.4287434 259.823007,43.6979379 C258.972032,42.9606672 258.52056,41.9485356 258.468592,40.6615406" id="text5151" fill="#000000" fill-rule="nonzero"></path>
                <path d="M310.02395,13.3242575 L309.283404,13.8578096 C308.984584,14.064769 308.760474,14.3137599 308.611073,14.6047831 C308.461663,14.8958162 308.386962,15.2224147 308.386962,15.5845795 C308.386962,16.1343038 308.575344,16.5967152 308.952115,16.9718154 C309.328877,17.3469214 309.799831,17.534471 310.364992,17.534471 C310.780726,17.534471 311.176979,17.4503982 311.55375,17.2822459 C311.937007,17.1076316 312.291037,16.8554065 312.615848,16.525572 L310.02395,13.3242575 M310.803467,10.2684578 L311.144509,10.0259338 C311.456308,9.81252235 311.686912,9.57323262 311.83633,9.30806374 C311.985723,9.04291474 312.060441,8.73895199 312.060441,8.39617384 C312.060441,8.06635348 311.956497,7.80442798 311.748634,7.61039652 C311.547248,7.4163899 311.27117,7.31936838 310.920391,7.31936838 C310.56311,7.31936838 310.280538,7.41962334 310.072666,7.62009768 C309.864795,7.81412831 309.760859,8.07928808 309.760859,8.41557616 C309.760859,8.59667136 309.809576,8.79392384 309.907018,9.00733361 C310.010953,9.2207649 310.157112,9.44712086 310.345502,9.68640066 L310.803467,10.2684578 M308.611073,11.5586846 L308.04592,10.8214123 C307.753603,10.4333833 307.542481,10.0712144 307.412561,9.73490563 C307.289135,9.39214818 307.227422,9.03321358 307.227431,8.65809934 C307.227422,7.62334354 307.55872,6.80199669 308.221314,6.19405795 C308.890394,5.57967798 309.796588,5.27246772 310.939881,5.27246772 C312.037691,5.27246772 312.904906,5.55380877 313.541524,6.11645033 C314.178118,6.67911838 314.496419,7.43902566 314.496436,8.39617384 C314.496419,9.12052235 314.308038,9.7704851 313.931283,10.3460654 C313.560998,10.9151962 312.976364,11.4519818 312.177364,11.956423 L314.233345,14.4786705 C314.428212,14.1617781 314.580873,13.806077 314.691311,13.4115662 C314.808226,13.0170671 314.889429,12.5772914 314.934911,12.0922368 L317.46834,12.0922368 C317.396874,12.9329925 317.22148,13.7123013 316.942167,14.4301664 C316.66283,15.1480406 316.279565,15.804471 315.792381,16.3994594 L318.403761,19.5619694 L315.090815,19.5619694 L314.116414,18.3687525 C313.544759,18.8926043 312.914651,19.2903435 312.226089,19.5619694 C311.544005,19.8271291 310.829443,19.9597086 310.082411,19.9597086 C308.757231,19.9597086 307.6724,19.5684371 306.827927,18.7858932 C305.989939,18.0033518 305.570953,17.0041548 305.570953,15.7882997 C305.570953,14.8828816 305.804809,14.1035728 306.272519,13.45037 C306.74023,12.7971796 307.519748,12.1666184 308.611073,11.5586846" id="path3073" fill="#000000" fill-rule="nonzero"></path>
                <path d="M361.413659,44.3964065 L358.500208,44.3964065 C358.604144,42.5014892 359.062109,40.6227401 359.874105,38.760154 C360.692594,36.8975786 361.858628,35.0673336 363.372198,33.2694147 L356.512442,33.2694147 L356.512442,30.9023825 L366.402572,30.9023825 L366.402572,32.9880869 C364.869512,34.6695952 363.690491,36.448101 362.865507,38.3236109 C362.047009,40.1991325 361.56306,42.2233957 361.413659,44.3964065" id="text5163" fill="#000000" fill-rule="nonzero"></path>
                <polyline id="path3094" fill="#000000" fill-rule="nonzero" points="634.839246 60.6066978 633.124307 63.0125339 631.46783 61.85812 633.338672 59.5201912 630.61036 58.7635166 631.24372 56.7942235 633.864853 57.7255149 633.864853 54.9413419 635.794157 54.9413419 635.794157 57.7255149 638.415283 56.813625 639.068132 58.7829189 636.33982 59.5201912 638.191172 61.8387185 636.495723 63.0513377 634.839246 60.6066978"></polyline>
                <path d="M408.155488,40.3608104 C408.155488,41.0398808 408.343869,41.5637318 408.72064,41.9323651 C409.103897,42.3010033 409.649559,42.4853195 410.357627,42.4853195 C411.033201,42.4853195 411.562625,42.2977699 411.94589,41.9226639 C412.33564,41.5475637 412.530532,41.0269462 412.530532,40.3608104 C412.530532,39.720553 412.332397,39.2064023 411.936153,38.8183593 C411.539884,38.430327 411.013711,38.2363022 410.357627,38.2363022 C409.701527,38.2363022 409.168853,38.4335613 408.759612,38.8280604 C408.356857,39.2225712 408.155488,39.7334876 408.155488,40.3608104 M408.379598,34.4044263 C408.379598,34.9412219 408.548489,35.3551283 408.886289,35.6461482 C409.224072,35.9307177 409.708021,36.0729901 410.338137,36.0729901 C410.968237,36.0729901 411.452195,35.9274843 411.789986,35.636447 C412.134271,35.345428 412.306422,34.9347541 412.306422,34.4044263 C412.306422,33.887053 412.13102,33.4796134 411.780249,33.182106 C411.429454,32.8846217 410.948756,32.7358626 410.338137,32.7358626 C409.740499,32.7358626 409.263052,32.887856 408.905771,33.1918071 C408.554983,33.4957815 408.379598,33.8999876 408.379598,34.4044263 M407.37597,37.1012906 C406.791328,36.7779338 406.369091,36.3995969 406.109252,35.9662798 C405.849412,35.5329793 405.719493,34.9800257 405.719493,34.3074164 C405.719493,33.1174445 406.128742,32.1829205 406.947239,31.5038419 C407.765729,30.8247889 408.896025,30.4852417 410.338137,30.4852417 C411.793229,30.4852417 412.930028,30.8247889 413.748525,31.5038419 C414.573509,32.1764528 414.986001,33.1109776 414.986009,34.3074164 C414.986001,34.9476887 414.846336,35.5038767 414.567023,35.9759801 C414.287686,36.4416341 413.868692,36.8167376 413.31005,37.1012906 C413.992118,37.4181954 414.505302,37.8579719 414.849595,38.42062 C415.193872,38.9768137 415.366031,39.65588 415.366031,40.4578204 C415.366031,41.8094884 414.917794,42.870125 414.021361,43.6397326 C413.131397,44.4093411 411.903659,44.7941457 410.338137,44.7941457 C408.753118,44.7941457 407.522129,44.4125753 406.645169,43.6494338 C405.76821,42.886293 405.329734,41.822423 405.329734,40.4578204 C405.329734,39.6623469 405.492131,38.9962152 405.816935,38.4594238 C406.148232,37.9161772 406.66791,37.4634669 407.37597,37.1012906" id="path3092" fill="#000000" fill-rule="nonzero"></path>
                <path d="M413.962899,5.27246738 C413.066441,6.73409031 412.400604,8.22156813 411.96538,9.73490563 C411.530147,11.2482624 411.31253,12.8359834 411.312539,14.4980728 C411.31253,16.1537053 411.530147,17.7381929 411.96538,19.2515389 C412.400604,20.7648866 413.066441,22.2523642 413.962899,23.7139768 L411.906918,23.7139768 C410.770119,22.1682897 409.906147,20.6161391 409.315019,19.0575199 C408.730377,17.4924354 408.43806,15.9726209 408.43806,14.4980728 C408.43806,13.0235348 408.730377,11.5037202 409.315019,9.938625 C409.906147,8.37354967 410.770119,6.81816515 411.906918,5.27246738 L413.962899,5.27246738" id="path3112" fill="#000000" fill-rule="nonzero"></path>
                <path d="M462.361206,35.3357177 C462.361206,34.5402492 462.15982,33.9129222 461.757073,33.4537326 C461.360812,32.9880985 460.818401,32.7552641 460.129831,32.7552641 C459.480233,32.7552641 458.973542,32.9783974 458.609775,33.42463 C458.252494,33.8708841 458.073858,34.4949785 458.073858,35.2969139 C458.073858,36.0471291 458.262231,36.6324197 458.639002,37.0527864 C459.015765,37.4731672 459.545188,37.6833477 460.227273,37.6833477 C460.896353,37.6833477 461.419282,37.4764015 461.796053,37.0624868 C462.172808,36.6485877 462.361206,36.0729983 462.361206,35.3357177 M462.409922,38.954173 C462.085119,39.277543 461.701854,39.5200662 461.260136,39.6817442 C460.818401,39.8434313 460.321455,39.9242724 459.769307,39.9242682 C458.398653,39.9242724 457.300834,39.5135993 456.475843,38.6922467 C455.650851,37.8709065 455.238359,36.7714661 455.238359,35.393923 C455.238359,33.9323237 455.68658,32.7520422 456.583029,31.8530762 C457.479471,30.9541341 458.661735,30.5046432 460.129831,30.5046432 C461.831774,30.5046432 463.124468,31.0899478 464.007938,32.2605157 C464.897877,33.4246407 465.342855,35.1255397 465.342855,37.3632169 C465.342855,39.7690571 464.868642,41.6122359 463.920241,42.8927591 C462.971815,44.1732848 461.607664,44.813548 459.827769,44.813548 C458.600022,44.813548 457.60939,44.4966498 456.855856,43.8628543 C456.102323,43.2225927 455.689831,42.3527417 455.618373,41.253298 L458.434382,41.2629992 C458.499338,41.7092459 458.674731,42.0423113 458.960554,42.262197 C459.246377,42.4820877 459.649124,42.5920315 460.168811,42.5920298 C460.870369,42.5920315 461.406286,42.2880687 461.776563,41.6801399 C462.146824,41.0722169 462.357946,40.1635621 462.409922,38.954173" id="path3110" fill="#000000" fill-rule="nonzero"></path>
                <path d="M456.797395,5.27246738 L458.872858,5.27246738 C460.003154,6.81169785 460.860624,8.36384851 461.445266,9.92892467 C462.0299,11.4875522 462.322226,13.0106002 462.322226,14.4980728 C462.322226,15.9790886 462.0299,17.5021366 461.445266,19.067221 C460.860624,20.6323071 460.003154,22.1812243 458.872858,23.7139768 L456.797395,23.7139768 C457.700338,22.2458974 458.369418,20.7551854 458.804651,19.2418386 C459.246377,17.722024 459.467237,16.1407707 459.467245,14.4980728 C459.467237,12.8489172 459.246377,11.2676639 458.804651,9.75430712 C458.369418,8.24097003 457.700338,6.74702492 456.797395,5.27246738" id="path3121" fill="#000000" fill-rule="nonzero"></path>
                <path d="M508.021455,37.6445439 C508.021455,39.3325149 508.190346,40.5580671 508.528137,41.3212053 C508.872422,42.0843485 509.418085,42.4659172 510.165125,42.4659172 C510.912156,42.4659172 511.457819,42.0811151 511.802112,41.3115041 C512.146397,40.541899 512.318548,39.3195803 512.318548,37.6445439 C512.318548,35.9630546 512.146397,34.7407359 511.802112,33.9775844 C511.457819,33.2144536 510.912156,32.8328717 510.165125,32.8328717 C509.418085,32.8328717 508.872422,33.2144536 508.528137,33.9775844 C508.190346,34.7342682 508.021455,35.9565869 508.021455,37.6445439 M505.127494,37.6445439 C505.127494,35.2581192 505.543237,33.4731457 506.374723,32.2896184 C507.212702,31.0996482 508.47617,30.5046432 510.165125,30.5046432 C511.847578,30.5046432 513.107802,31.1028825 513.94579,32.2993195 C514.790255,33.4893137 515.212508,35.2775207 515.212508,37.6639462 C515.212508,40.0503849 514.793506,41.8321242 513.955535,43.0091705 C513.124041,44.1862194 511.860574,44.7747442 510.165125,44.7747442 C508.47617,44.7747442 507.212702,44.1829859 506.374723,42.9994694 C505.543237,41.8159561 505.127494,40.0309826 505.127494,37.6445439" id="path3119" fill="#000000" fill-rule="nonzero"></path>
                <path d="M567.488914,171.275157 L577.466741,171.275157 L577.466741,173.254156 L567.488914,173.254156 L567.488914,171.275157 M569.73977,189.445041 L569.73977,186.786978 L575.215884,186.786978 L575.215884,189.445041 L569.73977,189.445041" id="text5187" fill="#000000" fill-rule="nonzero"></path>
                <polyline id="path2908" fill="#000000" fill-rule="nonzero" points="634.702833 82.2204189 636.671117 82.2204189 636.671117 87.1679056 641.523609 87.1679056 641.523609 89.098394 636.671117 89.098394 636.671117 94.0652815 634.702833 94.0652815 634.702833 89.098394 629.850333 89.098394 629.850333 87.1679056 634.702833 87.1679056 634.702833 82.2204189"></polyline>
                <path d="M505.127494,14.7502972 L516.800771,14.7502972 L516.800771,16.6807873 L505.127494,16.6807873 L505.127494,14.7502972 M505.127494,10.5788882 L516.800771,10.5788882 L516.800771,12.5093775 L505.127494,12.5093775 L505.127494,10.5788882" id="path2906" fill="#000000" fill-rule="nonzero"></path>
                <g id="g3468" transform="translate(654.379157, 18.504566)">
                    <path d="M44.0687361,6.32987086 L8.33654102,6.32987086" id="path5439" stroke="#000000" stroke-width="3"></path>
                    <polygon id="path5441" fill="#000000" points="12.8880266 12.5384801 12.8880266 0.121261589 0.415742794 6.32987086"></polygon>
                </g>
                <g id="g5459" transform="translate(12.888052, 61.672185)">
                    <path d="M32.0122201,6.62251656 L8.33163692,6.62251656" id="path5453" stroke="#000000" stroke-width="3.00000024"></path>
                    <polygon id="path5455" fill="#000000" points="13.3037694 12.8311258 13.3037694 0.413907285 0.831485588 6.62251656"></polygon>
                    <path d="M0.831485588,0.413907285 C0.831485588,12.8311258 0.831485588,12.8311258 0.831485588,12.8311258" id="path5457" stroke="#000000" stroke-width="3"></path>
                </g>
                <g id="g5464" transform="translate(29.517763, 80.711921) rotate(-180.000000) translate(-29.517763, -80.711921) translate(13.303794, 74.089404)">
                    <path d="M32.0122201,6.62251656 L8.33163692,6.62251656" id="path5466" stroke="#000000" stroke-width="3.00000024"></path>
                    <polygon id="path5468" fill="#000000" points="13.3037694 12.8311258 13.3037694 0.413907285 0.831485588 6.62251656"></polygon>
                    <path d="M0.831485588,0.413907285 C0.831485588,12.8311258 0.831485588,12.8311258 0.831485588,12.8311258" id="path5470" stroke="#000000" stroke-width="3"></path>
                </g>
                <path d="M89.0209257,66.6891945 L87.5008703,65.2146498 L89.1183675,63.5460861 L90.677403,65.0594346 C90.8852578,64.6714007 91.0444124,64.2283916 91.1548586,63.730404 C91.2652716,63.232428 91.3205072,62.6891755 91.3205072,62.100644 C91.3205072,60.5290985 90.9664606,59.3100132 90.2584091,58.4433849 C89.5503409,57.5703113 88.5597007,57.1337566 87.2864967,57.1337566 C86.0262722,57.1337566 85.0453769,57.5670778 84.3438193,58.4336846 C83.642245,59.3003129 83.2914745,60.5226316 83.2914745,62.100644 C83.2914745,63.6722036 83.642245,64.8945224 84.3438193,65.7676043 C85.0453769,66.6342252 86.0262722,67.0675315 87.2864967,67.0675315 C87.6112916,67.0675315 87.9165965,67.035197 88.2024363,66.9705224 C88.494745,66.905851 88.7675721,66.8120753 89.0209257,66.6891945 M91.0963886,68.6390861 C90.6091796,68.9624512 90.0407844,69.2082086 89.3911946,69.3763584 C88.748082,69.5445075 88.0465161,69.6285828 87.2864967,69.6285828 C85.1428187,69.6285828 83.4376247,68.9495166 82.1709138,67.5913833 C80.9106918,66.2332525 80.2805829,64.4030083 80.2805829,62.100644 C80.2805829,59.791827 80.9106918,57.9615828 82.1709138,56.6099056 C83.4376247,55.2517864 85.1428187,54.5727053 87.2864967,54.5727053 C89.4301663,54.5727053 91.135352,55.2517864 92.402087,56.6099056 C93.6752827,57.9680497 94.3118847,59.7982947 94.3119013,62.100644 C94.3118847,63.1095497 94.1819651,64.0343725 93.9221425,64.8751167 C93.6622866,65.7094015 93.2790299,66.4402061 92.7723559,67.0675315 L94.3313914,68.5517773 L92.7333758,70.2203411 L91.0963886,68.6390861" id="text5474" fill="#000000" fill-rule="nonzero"></path>
                <polyline id="text5482" fill="#000000" fill-rule="nonzero" points="132.157492 69.2308435 128.045529 54.9413419 131.105139 54.9413419 133.560624 65.0206308 135.636086 54.9413419 138.783392 54.9413419 140.858855 65.0206308 143.31434 54.9413419 146.344715 54.9413419 142.242497 69.2308435 139.426488 69.2308435 137.204867 58.2881697 134.973501 69.2308435 132.157492 69.2308435"></polyline>
                <polyline id="text5492" fill="#000000" fill-rule="nonzero" points="181.700712 69.2308435 181.700712 54.9413419 192.117015 54.9413419 192.117015 57.4247856 184.614163 57.4247856 184.614163 60.4708841 191.473919 60.4708841 191.473919 62.915524 184.614163 62.915524 184.614163 66.5921846 192.467802 66.5921846 192.467802 69.2308435 181.700712 69.2308435"></polyline>
                <path d="M234.011225,61.188755 L237.480083,61.188755 C238.2336,61.188755 238.785765,61.0367815 239.136552,60.7328096 C239.493825,60.428856 239.67247,59.9502757 239.67247,59.2970687 C239.67247,58.6762185 239.500319,58.2073394 239.156042,57.8904313 C238.811749,57.5670778 238.298564,57.4053833 237.616497,57.4053833 L234.011225,57.4053833 L234.011225,61.188755 M231.058803,69.2308435 L231.058803,54.9413419 L238.016001,54.9413419 C239.581522,54.9413419 240.741053,55.2744214 241.494595,55.9405397 C242.248113,56.6066846 242.624884,57.6252831 242.6249,58.9963394 C242.624884,59.8694346 242.439745,60.597005 242.069493,61.1790538 C241.705701,61.7611184 241.179529,62.1588568 240.490967,62.3722707 C241.114565,62.5921656 241.556292,62.9284652 241.816147,63.3811697 C242.082472,63.8338866 242.235125,64.5388212 242.274113,65.4959776 L242.332575,67.1839429 C242.332567,67.19688 242.332567,67.2162815 242.332575,67.242149 C242.352048,68.0958336 242.537187,68.6132169 242.887982,68.7943013 L242.887982,69.2308435 L239.652988,69.2308435 C239.549035,69.0303576 239.467841,68.7846002 239.409387,68.4935712 C239.357411,68.196077 239.324925,67.8436093 239.311946,67.436168 L239.272974,65.9325199 C239.240479,65.0465041 239.071588,64.448279 238.766283,64.1378444 C238.467456,63.8274189 237.925044,63.6722036 237.139041,63.6721987 L234.011225,63.6721987 L234.011225,69.2308435 L231.058803,69.2308435" id="text5500" fill="#000000" fill-rule="nonzero"></path>
                <polyline id="text5504" fill="#000000" fill-rule="nonzero" points="285.400934 69.2308435 285.400934 57.4926921 281.142813 57.4926921 281.142813 54.9413419 292.582242 54.9413419 292.582242 57.4926921 288.353356 57.4926921 288.353356 69.2308435 285.400934 69.2308435"></polyline>
                <polyline id="text5518" fill="#000000" fill-rule="nonzero" points="126.44265 168.568593 123.490227 168.568593 123.490227 163.242773 118.277203 154.279089 121.892212 154.279089 124.961566 160.439197 127.797065 154.279089 131.168473 154.279089 126.44265 163.242773 126.44265 168.568593"></polyline>
                <path d="M380.891857,54.7230704 L383.873514,54.7230704 L383.873514,63.68675 C383.873506,64.7926623 384.094365,65.6010745 384.5361,66.1119876 C384.977819,66.6164396 385.679385,66.8686639 386.640798,66.8686623 C387.615191,66.8686639 388.323251,66.6164396 388.764986,66.1119876 C389.213198,65.6075414 389.437309,64.79913 389.437317,63.68675 L389.437317,54.7230704 L392.389739,54.7230704 L392.389739,64.0068816 C392.389739,65.7595232 391.896037,67.1047202 390.908656,68.0424776 C389.927752,68.9802359 388.511632,69.4491151 386.660288,69.4491151 C384.795931,69.4491151 383.366824,68.9834694 382.372941,68.052178 C381.385552,67.1144214 380.891857,65.7659901 380.891857,64.0068816 L380.891857,54.7230704" id="text5522" fill="#000000" fill-rule="nonzero"></path>
                <polyline id="text5526" fill="#000000" fill-rule="nonzero" points="435.053722 69.2308435 435.053722 54.9413419 438.006145 54.9413419 438.006145 69.2308435 435.053722 69.2308435"></polyline>
                <path d="M482.414293,62.0860927 C482.414293,63.6576523 482.765072,64.879971 483.466646,65.753053 C484.168204,66.6196738 485.149099,67.0529801 486.409324,67.0529801 C487.682528,67.0529801 488.673168,66.6196738 489.381236,65.753053 C490.089288,64.879971 490.443326,63.6576523 490.443326,62.0860927 C490.443326,60.5145472 490.089288,59.2954619 489.381236,58.4288336 C488.673168,57.5557599 487.682528,57.1192053 486.409324,57.1192053 C485.149099,57.1192053 484.168204,57.5525265 483.466646,58.4191333 C482.765072,59.2857608 482.414293,60.5080803 482.414293,62.0860927 M479.403409,62.0860927 C479.403409,59.7772757 480.033517,57.9470315 481.293742,56.5953543 C482.560452,55.2372343 484.265646,54.558154 486.409324,54.558154 C488.552985,54.558154 490.258179,55.2372343 491.524914,56.5953543 C492.79811,57.9534983 493.434728,59.7837425 493.434728,62.0860927 C493.434728,64.388457 492.79811,66.2187012 491.524914,67.576832 C490.258179,68.9349652 488.552985,69.6140315 486.409324,69.6140315 C484.265646,69.6140315 482.560452,68.9349652 481.293742,67.576832 C480.033517,66.2187012 479.403409,64.388457 479.403409,62.0860927" id="text5530" fill="#000000" fill-rule="nonzero"></path>
                <path d="M533.794257,61.5573907 L536.649246,61.5573907 C537.422253,61.5573907 537.984155,61.3957161 538.33495,61.0723435 C538.685721,60.742519 538.861123,60.2154346 538.861123,59.4910877 C538.861123,58.8120315 538.688972,58.2978816 538.344695,57.9486366 C538.000402,57.5994139 537.487217,57.4247856 536.80515,57.4247856 L533.794257,57.4247856 L533.794257,61.5573907 M533.774775,64.1475447 L533.774775,69.2308435 L530.822345,69.2308435 L530.822345,54.9413419 L537.204654,54.9413419 C538.711705,54.9413419 539.851754,55.3326275 540.624787,56.1151565 C541.404288,56.891245 541.794063,58.0327227 541.794063,59.5395927 C541.794063,61.0141457 541.414033,62.1523899 540.654013,62.9543278 C539.893977,63.7498113 538.809146,64.1475505 537.399529,64.1475447 L533.774775,64.1475447" id="text5534" fill="#000000" fill-rule="nonzero"></path>
                <path d="M390.172991,28.0794056 L390.172991,30.1069048 C390.114512,30.1069164 390.033318,30.1036829 389.92939,30.0972036 C389.825446,30.0907483 389.753988,30.0875149 389.715025,30.0875025 C389.058916,30.0875149 388.613947,30.2136275 388.3801,30.4658394 C388.15273,30.7116093 388.039049,31.2354594 388.039058,32.037394 L388.039058,34.3656225 C388.039049,35.3227897 387.892891,36.001856 387.600582,36.402822 C387.308257,36.8038005 386.782084,37.0915952 386.022057,37.266207 C386.782084,37.4408295 387.308257,37.7253899 387.600582,38.1198907 C387.892891,38.5143998 388.039049,39.1902326 388.039058,40.1473899 L388.039058,42.4853195 C388.039049,43.2807964 388.15273,43.8014139 388.3801,44.0471722 C388.607453,44.292928 389.052422,44.4158063 389.715025,44.4158088 C389.753988,44.4158063 389.825446,44.4125728 389.92939,44.4061076 C390.033318,44.3996382 390.114512,44.3964048 390.172991,44.3964065 L390.172991,46.4239056 C390.082034,46.4239015 389.955366,46.4271358 389.792977,46.4336068 C389.630563,46.4400704 389.510388,46.4433079 389.432445,46.4433079 C388.782838,46.4433079 388.240427,46.4045 387.805202,46.3268965 C387.36997,46.2492848 386.999692,46.1296399 386.694387,45.9679611 C386.32411,45.7480695 386.061028,45.4505737 385.905125,45.0754735 C385.755715,44.7068353 385.681014,44.0633394 385.681014,43.1449843 L385.681014,40.7003444 C385.681014,39.8143262 385.515366,39.1869992 385.184077,38.8183593 C384.85278,38.4432599 384.294121,38.2557086 383.50811,38.2557045 C383.46913,38.2557086 383.404174,38.2589421 383.313234,38.2654048 C383.222287,38.2718767 383.15408,38.2751101 383.108606,38.275106 L383.108606,36.2476068 C383.15408,36.2476134 383.222287,36.2508469 383.313234,36.2573079 C383.404174,36.2637815 383.46913,36.2670149 383.50811,36.2670091 C384.287627,36.2670149 384.843035,36.0794636 385.174332,35.7043535 C385.512115,35.3292575 385.681014,34.6954627 385.681014,33.8029669 L385.681014,31.3777293 C385.681014,30.4529172 385.755715,29.8029536 385.905125,29.4278377 C386.061028,29.0527475 386.32411,28.7552525 386.694387,28.5353502 C386.999692,28.3736821 387.36997,28.2540364 387.805202,28.1764147 C388.240427,28.098822 388.782838,28.0600033 389.432445,28.0600033 C389.510388,28.0600033 389.630563,28.0632517 389.792977,28.0697045 C389.955366,28.0761863 390.082034,28.0794197 390.172991,28.0794056" id="path3102" fill="#0000FF" fill-rule="nonzero"></path>
                <polyline id="text5546" fill="#0000FF" fill-rule="nonzero" points="434.946535 28.1182094 439.867242 28.1182094 439.867242 30.1845124 437.577414 30.1845124 437.577414 44.5710265 439.867242 44.5710265 439.867242 46.6373262 434.946535 46.6373262 434.946535 28.1182094"></polyline>
                <path d="M532.776012,28.0697045 L533.438606,28.0697045 C534.15316,28.0697045 534.728057,28.1085224 535.16329,28.1861159 C535.598514,28.2637376 535.962289,28.3866167 536.254615,28.5547525 C536.624875,28.7617194 536.884715,29.0592152 537.034132,29.4472401 C537.190028,29.8288228 537.267979,30.4690853 537.267988,31.3680281 L537.267988,33.812668 C537.267979,34.6986962 537.433628,35.3292575 537.764925,35.7043535 C538.096214,36.0729967 538.654873,36.2573146 539.440892,36.2573079 C539.479856,36.2573146 539.54482,36.2540803 539.635768,36.2476068 C539.726707,36.2411457 539.794914,36.2379123 539.840396,36.2379065 L539.840396,38.2654048 L539.479864,38.2654048 C538.66786,38.2654089 538.096214,38.4464934 537.764925,38.8086581 C537.433628,39.1708303 537.267979,39.7981581 537.267988,40.6906432 L537.267988,43.1352831 C537.267979,44.0601051 537.190028,44.7100687 537.034132,45.0851747 C536.884715,45.4602748 536.624875,45.751303 536.254615,45.9582599 C535.949293,46.1199387 535.579024,46.2395836 535.1438,46.3171954 C534.708567,46.3947988 534.166147,46.4336068 533.516558,46.4336068 C533.438606,46.4336068 533.318423,46.4303692 533.156025,46.4239056 C532.993628,46.4174346 532.86696,46.4142012 532.776012,46.4142045 L532.776012,44.3867061 C532.834473,44.3867036 532.915676,44.3899371 533.019612,44.3964065 C533.123548,44.4028717 533.195006,44.406106 533.233977,44.4061076 C533.890069,44.406106 534.331796,44.2799934 534.559157,44.0277707 C534.793013,43.7820116 534.909945,43.2646283 534.909945,42.4756184 L534.909945,40.1570911 C534.909945,39.1869992 535.056103,38.5046995 535.34842,38.1101896 C535.640737,37.7092219 536.16691,37.4246606 536.926946,37.2565058 C536.16691,37.081894 535.640737,36.7940993 535.34842,36.3931217 C535.056103,35.9921548 534.909945,35.3130894 534.909945,34.3559214 L534.909945,32.0082914 C534.909945,31.2192914 534.793013,30.7019081 534.559157,30.4561391 C534.331796,30.2039263 533.890069,30.0778137 533.233977,30.0778013 C533.195006,30.0778137 533.123548,30.081048 533.019612,30.0875025 C532.915676,30.0939818 532.834473,30.0972161 532.776012,30.0972036 L532.776012,28.0697045" id="path3106" fill="#0000FF" fill-rule="nonzero"></path>
                <polyline id="text5554" fill="#0000FF" fill-rule="nonzero" points="488.090164 28.1085083 488.090164 46.6276242 483.159712 46.6276242 483.159712 44.5613245 485.459285 44.5613245 485.459285 30.1748113 483.159712 30.1748113 483.159712 28.1085083 488.090164 28.1085083"></polyline>
                <path d="M99.753908,107.471995 L97.7661419,113.554495 L101.751427,113.554495 L99.753908,107.471995 M98.038969,104.610215 L101.449365,104.610215 L106.623409,118.899719 L103.524828,118.899719 L102.550427,115.960331 L96.9866242,115.960331 L96.0414579,118.899719 L92.9331319,118.899719 L98.038969,104.610215" id="text5641" fill="#000000" fill-rule="nonzero"></path>
                <path d="M143.830768,114.480935 L146.744218,114.480935 C146.85464,115.263485 147.176192,115.845538 147.708866,116.227103 C148.241533,116.60221 149.011305,116.78976 150.018193,116.78976 C150.875654,116.78976 151.522001,116.637781 151.957242,116.333816 C152.392458,116.029859 152.610075,115.580381 152.610083,114.985381 C152.610075,114.118767 151.359604,113.400902 148.858653,112.831772 C148.826167,112.825315 148.79694,112.818841 148.770965,112.812368 C148.705992,112.799445 148.605308,112.776805 148.468894,112.744462 C147.130718,112.453444 146.175815,112.126846 145.604169,111.764669 C145.097478,111.441308 144.71097,111.008005 144.444637,110.464743 C144.178304,109.915025 144.045133,109.268303 144.045133,108.524553 C144.045133,107.134089 144.519338,106.070224 145.467755,105.332939 C146.416164,104.589214 147.786818,104.217326 149.579709,104.217326 C151.255668,104.217326 152.564601,104.611846 153.506533,105.400844 C154.454933,106.189868 154.955122,107.302243 155.007106,108.737972 L152.171608,108.737972 C152.119631,108.045977 151.853298,107.518899 151.3726,107.156714 C150.891893,106.794561 150.206566,106.613477 149.316627,106.61346 C148.543595,106.613477 147.945965,106.765455 147.523736,107.069404 C147.107985,107.366912 146.900114,107.793758 146.900122,108.349934 C146.900114,109.106614 147.71536,109.672508 149.345854,110.047599 C149.787572,110.151084 150.131865,110.231929 150.378717,110.290124 C151.424559,110.55529 152.165105,110.762243 152.600338,110.910985 C153.042057,111.059743 153.425322,111.224652 153.750133,111.405737 C154.334759,111.729106 154.773234,112.15918 155.065568,112.69596 C155.357877,113.226283 155.504044,113.863311 155.504044,114.607045 C155.504044,116.094528 155.000596,117.24894 153.993733,118.07029 C152.986846,118.885166 151.567475,119.292608 149.735613,119.292608 C147.929726,119.292608 146.513606,118.875464 145.487245,118.041184 C144.460876,117.206904 143.90872,116.020157 143.830768,114.480935" id="text5645" fill="#000000" fill-rule="nonzero"></path>
                <path d="M196.365391,116.319263 L198.733179,116.319263 C200.103817,116.319263 201.094457,115.963568 201.705083,115.252161 C202.322195,114.534296 202.630768,113.373411 202.630768,111.76952 C202.630768,110.172103 202.344928,108.998286 201.773298,108.248071 C201.201635,107.497881 200.308445,107.122765 199.093703,107.122765 L196.365391,107.122765 L196.365391,116.319263 M193.47143,118.899719 L193.47143,104.610215 L199.093703,104.610215 C201.295834,104.610215 202.936064,105.201987 204.01441,106.385488 C205.099224,107.569015 205.641652,109.363692 205.641652,111.76952 C205.641652,113.075919 205.440266,114.227094 205.037528,115.223055 C204.641258,116.219023 204.063118,117.020969 203.303099,117.628891 C202.731444,118.081606 202.081846,118.408204 201.354304,118.608692 C200.626746,118.802707 199.606879,118.899719 198.294695,118.899719 L193.47143,118.899719" id="text5649" fill="#000000" fill-rule="nonzero"></path>
                <polyline id="text5653" fill="#000000" fill-rule="nonzero" points="244.437273 118.899719 244.437273 104.610215 254.45408 104.610215 254.45408 107.093659 247.350723 107.093659 247.350723 110.333775 253.57712 110.333775 253.57712 112.817219 247.350723 112.817219 247.350723 118.899719 244.437273 118.899719"></polyline>
                <path d="M303.641649,117.197202 C303.108966,117.915075 302.501591,118.442161 301.819523,118.77846 C301.143933,119.114752 300.348176,119.282906 299.432253,119.282906 C297.424989,119.282906 295.797747,118.590902 294.550518,117.206904 C293.309784,115.816432 292.689421,113.992657 292.689421,111.735563 C292.689421,109.459081 293.309784,107.638543 294.550518,106.273932 C295.791253,104.909346 297.444479,104.227028 299.510205,104.227028 C301.309581,104.227028 302.777669,104.657119 303.914476,105.517252 C305.051258,106.370952 305.72684,107.547997 305.941222,109.048402 L302.930338,109.048402 C302.748442,108.304669 302.374922,107.738783 301.809778,107.350737 C301.25112,106.962707 300.520319,106.768692 299.617384,106.768675 C298.415621,106.768692 297.470463,107.208469 296.781893,108.088005 C296.099809,108.961101 295.758767,110.170488 295.758775,111.716167 C295.758767,113.26832 296.116048,114.484172 296.83061,115.363725 C297.545164,116.243278 298.526059,116.683055 299.773287,116.683055 C300.7087,116.683055 301.491469,116.408195 302.121585,115.858469 C302.751685,115.30875 303.141444,114.555315 303.290862,113.598146 L300.036377,113.598146 L300.036377,111.15351 L305.980202,111.15351 L305.980202,118.885166 L304.002173,118.885166 L303.641649,117.197202" id="text5657" fill="#000000" fill-rule="nonzero"></path>
                <polyline id="text5661" fill="#000000" fill-rule="nonzero" points="343.289867 118.899719 343.289867 104.610215 346.261779 104.610215 346.261779 109.936035 352.186114 109.936035 352.186114 104.610215 355.158027 104.610215 355.158027 118.899719 352.186114 118.899719 352.186114 112.565 346.261779 112.565 346.261779 118.899719 343.289867 118.899719"></polyline>
                <path d="M394.523672,113.375025 L397.378653,113.375025 L397.378653,115.101796 C397.378653,115.599776 397.528063,115.981349 397.826882,116.246507 C398.125693,116.505199 398.554424,116.634545 399.113082,116.634545 C399.7237,116.634545 400.149188,116.476101 400.389545,116.159197 C400.629886,115.842301 400.750061,115.24731 400.750069,114.374222 L400.750069,104.411349 L403.702492,104.411349 L403.702492,114.510041 C403.702492,115.415464 403.647264,116.081598 403.536843,116.508435 C403.432899,116.928808 403.257506,117.300679 403.010671,117.62404 C402.633891,118.102624 402.117464,118.46803 401.46138,118.720248 C400.80528,118.972475 400.035507,119.098584 399.152062,119.098584 C398.340058,119.098584 397.622253,118.988642 396.998639,118.768758 C396.375025,118.548866 395.855346,118.222268 395.439604,117.788957 C395.108307,117.439727 394.871208,117.051689 394.728293,116.624843 C394.591879,116.19154 394.523672,115.480132 394.523672,114.490637 L394.523672,113.375025" id="text5665" fill="#000000" fill-rule="nonzero"></path>
                <polyline id="text5669" fill="#000000" fill-rule="nonzero" points="442.619917 118.899719 442.619917 104.610215 445.572339 104.610215 445.572339 110.479288 451.175122 104.610215 454.86809 104.610215 449.138631 110.391987 455.384518 118.899719 451.779246 118.899719 447.10214 112.361275 445.572339 113.874627 445.572339 118.899719 442.619917 118.899719"></polyline>
                <polyline id="text5673" fill="#000000" fill-rule="nonzero" points="493.912184 118.899719 493.912184 104.610215 496.864606 104.610215 496.864606 116.26106 503.870521 116.26106 503.870521 118.899719 493.912184 118.899719"></polyline>
                <polyline id="text5679" fill="#000000" fill-rule="nonzero" points="331.056311 69.2308444 331.056311 66.7474007 338.861233 57.5314983 331.212215 57.5314983 331.212215 54.9413411 342.447015 54.9413411 342.447015 57.4247848 334.622603 66.6503891 342.271621 66.6503891 342.271621 69.2308444 331.056311 69.2308444"></polyline>
                <polyline id="text5683" fill="#000000" fill-rule="nonzero" points="168.268645 168.568593 172.780111 161.273477 168.268645 154.279089 171.679041 154.279089 174.611973 159.275083 177.525424 154.279089 180.955302 154.279089 176.443844 161.254073 180.955302 168.568593 177.544906 168.568593 174.611973 163.621109 171.679041 168.568593 168.268645 168.568593"></polyline>
                <path d="M231.049058,163.645356 C230.938611,165.268659 230.308503,166.558882 229.158725,167.516043 C228.015424,168.473204 226.521353,168.95178 224.676502,168.95178 C222.552306,168.95178 220.89908,168.292119 219.716815,166.97279 C218.541045,165.65346 217.95316,163.803816 217.95316,161.423841 C217.95316,158.992144 218.554033,157.129561 219.755795,155.836093 C220.95755,154.542649 222.685477,153.895902 224.939584,153.895902 C226.771447,153.895902 228.216802,154.342161 229.275657,155.234636 C230.340981,156.120671 230.925624,157.375323 231.029568,158.998601 L228.116125,158.998601 C227.992691,158.190199 227.661394,157.575811 227.122234,157.155422 C226.583057,156.728593 225.855516,156.515174 224.939584,156.515157 C223.640388,156.515174 222.652999,156.93231 221.977417,157.766581 C221.301835,158.600877 220.964044,159.819959 220.964044,161.423841 C220.964044,162.976002 221.298584,164.175679 221.96768,165.022897 C222.643254,165.870116 223.601408,166.293725 224.842151,166.293717 C225.738584,166.293725 226.472627,166.067368 227.044282,165.614652 C227.61592,165.15548 227.986189,164.499048 228.155097,163.645356 L231.049058,163.645356" id="text5687" fill="#000000" fill-rule="nonzero"></path>
                <polyline id="text5691" fill="#000000" fill-rule="nonzero" points="273.006602 168.568593 268.05666 154.279089 271.330635 154.279089 274.380499 164.969536 277.488825 154.279089 280.723828 154.279089 275.832356 168.568593 273.006602 168.568593"></polyline>
                <path d="M321.21977,165.988137 L324.717855,165.988137 C325.542838,165.988137 326.14372,165.839396 326.520491,165.541896 C326.897253,165.244404 327.085643,164.775522 327.085643,164.135257 C327.085643,163.469131 326.900496,162.990546 326.530236,162.69952 C326.159958,162.402028 325.549332,162.25327 324.698373,162.25327 L321.21977,162.25327 L321.21977,165.988137 M321.21977,159.808634 L324.591186,159.808634 C325.318728,159.808634 325.851394,159.685762 326.189202,159.44 C326.526976,159.187781 326.695884,158.793278 326.695884,158.256482 C326.695884,157.732641 326.530227,157.354305 326.198938,157.121465 C325.874135,156.882194 325.331716,156.762533 324.571696,156.762533 L321.21977,156.762533 L321.21977,159.808634 M318.394024,168.568593 L318.394024,154.279089 L325.156339,154.279089 C326.624418,154.279089 327.741727,154.589536 328.508265,155.210381 C329.281272,155.824785 329.66778,156.720505 329.667797,157.897541 C329.66778,158.621896 329.524873,159.226581 329.239058,159.711623 C328.953226,160.19668 328.524487,160.57178 327.952858,160.836937 C328.693387,161.134437 329.245543,161.564512 329.609335,162.127161 C329.979587,162.683353 330.164742,163.378584 330.164742,164.212864 C330.164742,165.603336 329.710003,166.676912 328.800582,167.433584 C327.891136,168.190257 326.601685,168.568593 324.932228,168.568593 L318.394024,168.568593" id="text5695" fill="#000000" fill-rule="nonzero"></path>
                <polyline id="text5699" fill="#000000" fill-rule="nonzero" points="368.253925 168.568593 368.253925 154.279089 371.342761 154.279089 377.169662 164.096457 377.169662 154.279089 380.083104 154.279089 380.083104 168.568593 377.03324 168.568593 371.167375 158.751225 371.167375 168.568593 368.253925 168.568593"></polyline>
                <polyline id="text5703" fill="#000000" fill-rule="nonzero" points="416.847115 168.568593 416.847115 154.279089 421.212414 154.279089 424.067395 165.153858 426.883404 154.279089 431.268193 154.279089 431.268193 168.568593 428.500901 168.568593 428.500901 157.043858 425.58745 168.568593 422.566821 168.568593 419.614399 157.043858 419.614399 168.568593 416.847115 168.568593"></polyline>
                <g id="g3476" transform="translate(703.436807, 87.334437)">
                    <polygon id="path5745" fill="#000000" points="12.4722838 18.6258278 12.4722838 6.20860927 0 12.4172185"></polygon>
                    <polyline id="path5747" stroke="#000000" stroke-width="3" points="31.1807095 0 31.1807095 12.4172185 6.23614191 12.4172185"></polyline>
                </g>
                <polygon id="path5757" stroke="#000000" stroke-width="2" points="22.6579823 162.665563 13.3037694 175.082781 19.5399113 175.082781 19.5399113 181.291391 25.7760532 181.291391 25.7760532 175.082781 32.0121951 175.082781"></polygon>
                <polygon id="path5801" stroke="#000000" stroke-width="2" points="627.563747 162.665563 618.209534 175.082781 624.445676 175.082781 624.445676 181.291391 630.681818 181.291391 630.681818 175.082781 636.91796 175.082781"></polygon>
                <path d="M559.961699,15.4099586 C559.961691,15.3388245 559.95844,15.2450497 559.951954,15.1286341 C559.945452,15.0057616 559.942201,14.9152152 559.942209,14.8570116 C559.942201,14.2878891 560.003914,13.8157781 560.127339,13.4406705 C560.250765,13.059106 560.448891,12.7034023 560.721727,12.3735679 C560.92959,12.1278146 561.238154,11.8464901 561.647403,11.5295778 C562.063137,11.2126904 562.332722,10.9831043 562.456156,10.8408113 C562.715987,10.549793 562.894623,10.2878725 562.992073,10.0550331 C563.089507,9.82222682 563.138223,9.56676325 563.138232,9.28865894 C563.138223,8.6742798 562.966081,8.19569536 562.621796,7.85292219 C562.277503,7.51016556 561.796804,7.33878311 561.179692,7.33876656 C560.562572,7.33878311 560.075371,7.54573675 559.718099,7.95962748 C559.367312,8.36708609 559.175679,8.94267384 559.143201,9.68639901 L556.395399,9.68639901 L556.395399,9.38567053 C556.395399,8.02108444 556.827381,6.93457781 557.691353,6.12615066 C558.56181,5.31128311 559.731086,4.90383278 561.199182,4.90383278 C562.699748,4.90383278 563.891757,5.28865066 564.775219,6.05824503 C565.665158,6.82139901 566.110144,7.84646523 566.110144,9.13344371 C566.110144,9.58616722 566.05816,9.99360927 565.954241,10.3557699 C565.85679,10.7114735 565.70413,11.0380712 565.496275,11.3355629 C565.229925,11.7106705 564.817433,12.1181126 564.258783,12.5578808 C563.706619,12.9912003 563.372079,13.2595944 563.255155,13.3630629 C563.008304,13.6023593 562.829667,13.8545861 562.719238,14.1197351 C562.615294,14.3849007 562.563326,14.7017964 562.563334,15.0704305 C562.563326,15.1027732 562.566577,15.1577401 562.573079,15.2353477 C562.579565,15.3129553 562.582816,15.3711589 562.582824,15.4099586 L559.961699,15.4099586 M559.825277,19.5619702 L559.825277,16.7195944 L562.699748,16.7195944 L562.699748,19.5619702 L559.825277,19.5619702" id="path3083" fill="#000000" fill-rule="nonzero"></path>
                <polyline id="text5819" fill="#000000" fill-rule="nonzero" points="358.631749 21.405149 363.464759 4.90383278 364.799684 4.90383278 359.947184 21.405149 358.631749 21.405149"></polyline>
                <path d="M218.498822,89.1565977 C218.388376,90.7798924 217.758268,92.0701242 216.608489,93.0272765 C215.465188,93.9844371 213.971117,94.4630215 212.126267,94.4630215 C210.00207,94.4630215 208.348844,93.8033526 207.16658,92.4840232 C205.990809,91.164702 205.402924,89.3150497 205.402924,86.9350828 C205.402924,84.5033858 206.003797,82.6408046 207.20556,81.3473328 C208.407314,80.0538866 210.135241,79.4071424 212.389349,79.4071424 C214.221211,79.4071424 215.666566,79.8534007 216.725421,80.7458742 C217.790746,81.6319065 218.375388,82.8865646 218.479332,84.5098427 L215.56589,84.5098427 C215.442456,83.7014404 215.111159,83.0870447 214.571998,82.6666623 C214.032822,82.239832 213.30528,82.0264114 212.389349,82.0263998 C211.090152,82.0264114 210.102763,82.4435522 209.427181,83.2778228 C208.751599,84.1121109 208.413808,85.3312003 208.413808,86.9350828 C208.413808,88.4872351 208.748348,89.6869205 209.417445,90.5341308 C210.093018,91.3813576 211.051172,91.8049586 212.291915,91.8049586 C213.188348,91.8049586 213.922392,91.5786093 214.494047,91.125894 C215.065685,90.6667219 215.435953,90.0102897 215.604861,89.1565977 L218.498822,89.1565977" id="text5928" fill="#0000FF" fill-rule="nonzero"></path>
                <path d="M202.681729,87.6070364 L212.139412,87.6070364 L211.53829,88.7647434 L202.080615,88.7647434 L202.681729,87.6070364 M203.980643,85.105447 L213.438318,85.105447 L212.837195,86.2631623 L203.379521,86.2631623 L203.980643,85.105447" id="text5956" fill="#0000FF" fill-rule="nonzero"></path>
                <path d="M309.439307,39.9824735 C309.439307,40.7779553 309.637433,41.4085166 310.033695,41.8741589 C310.436441,42.3398071 310.982104,42.5726275 311.670682,42.5726275 C312.313778,42.5726275 312.817217,42.346274 313.180992,41.8935613 C313.544759,41.4408526 313.726655,40.8102914 313.726655,40.0018758 C313.726655,39.2581407 313.538265,38.6793179 313.161511,38.2654048 C312.784731,37.8515041 312.255308,37.6445439 311.57324,37.6445439 C310.904152,37.6445439 310.381222,37.8515041 310.00446,38.2654048 C309.627688,38.6793179 309.439307,39.2516738 309.439307,39.9824735 M309.400335,36.3543179 C309.718636,36.0309611 310.101893,35.7884371 310.550122,35.6267459 C310.998343,35.4586051 311.498531,35.3745306 312.050696,35.3745215 C313.414839,35.3745306 314.506164,35.7884371 315.32467,36.6162434 C316.149645,37.4440646 316.562154,38.5467384 316.562154,39.9242682 C316.562154,41.3858808 316.113925,42.5661623 315.217483,43.4651151 C314.321034,44.3640704 313.138761,44.813548 311.670682,44.813548 C309.975225,44.813548 308.685773,44.2314909 307.80232,43.0673767 C306.92536,41.9032649 306.486885,40.1991325 306.486885,37.9549743 C306.486885,35.5426805 306.957846,33.6995008 307.899762,32.4254321 C308.841677,31.1449197 310.199335,30.5046432 311.972744,30.5046432 C313.206968,30.5046432 314.200859,30.8247889 314.954401,31.4650381 C315.714421,32.1053129 316.130164,32.9719305 316.20163,34.0648932 L313.375876,34.0648932 C313.310904,33.6186598 313.135518,33.2823609 312.849703,33.0559942 C312.563872,32.8296498 312.164368,32.7164719 311.651192,32.7164603 C310.949618,32.7164719 310.410457,33.0204354 310.033695,33.6283502 C309.656924,34.2298195 309.445801,35.1384743 309.400335,36.3543179" id="path3060" fill="#000000" fill-rule="nonzero"></path>
                <polygon id="rect10188" stroke="#000000" fill="#FFFFFF" points="636.086475 99.3377483 685.97561 99.3377483 685.97561 149.006623 636.086475 149.006623"></polygon>
                <path d="M667.627359,86.2754139 L667.627359,88.4193295 C666.95176,88.8785099 666.311907,89.2180464 665.707791,89.4379305 C665.110152,89.6513493 664.519016,89.7580629 663.93439,89.7580546 C663.635563,89.7580629 663.336752,89.7321937 663.037949,89.680447 C662.739121,89.6287169 662.440302,89.554346 662.141499,89.4573262 C661.985588,89.405596 661.754983,89.3247517 661.449678,89.2148013 C660.027048,88.7297599 658.945468,88.4872351 658.204939,88.4872351 C657.652774,88.4872351 657.074634,88.6101159 656.47051,88.8558692 C655.872871,89.0951656 655.20054,89.4799669 654.453509,90.0102815 L654.453509,87.8663742 C655.148573,87.4007368 655.811167,87.0547351 656.441275,86.8283692 C657.071383,86.5955546 657.665762,86.4791474 658.224421,86.4791391 C658.984448,86.4791474 659.929615,86.666697 661.05992,87.0417881 C661.079401,87.0482699 661.092389,87.0514983 661.098891,87.0514901 C661.215815,87.0903063 661.394451,87.1517467 661.634817,87.2358113 C662.64168,87.5915149 663.421197,87.7693709 663.97337,87.7693626 C664.52551,87.7693709 665.093914,87.6497268 665.678564,87.4104305 C666.26319,87.1711424 666.91278,86.7928063 667.627359,86.2754139" id="path2917" fill="#0000FF" fill-rule="nonzero"></path>
                <path d="M647.798373,135.507748 L646.940904,137.874776 L649.386644,137.874776 L650.224623,135.507748 L647.798373,135.507748 M647.798373,129.531962 L649.951788,129.531962 L648.529174,133.557856 L650.887209,133.557856 L652.329321,129.531962 L654.482736,129.531962 L653.040632,133.557856 L655.798171,133.557856 L655.077123,135.507748 L652.348811,135.507748 L651.530313,137.855381 L654.356067,137.855381 L653.664246,139.795571 L650.828747,139.795571 L649.386644,143.831167 L647.233221,143.831167 L648.675333,139.795571 L646.297799,139.795571 L644.845951,143.831167 L642.702273,143.831167 L644.124895,139.795571 L641.328376,139.795571 L642.068922,137.855381 L644.816716,137.855381 L645.654703,135.507748 L642.741253,135.507748 L643.462309,133.557856 L646.356269,133.557856 L647.798373,129.531962" id="path2915" fill="#000000" fill-rule="nonzero"></path>
                <polygon id="rect10196" stroke="#000000" fill="#FFFFFF" points="62.3614191 149.006623 112.250554 149.006623 112.250554 198.675497 62.3614191 198.675497"></polygon>
                <path d="M133.745754,38.9929768 C133.765244,38.2427757 133.94388,37.608981 134.281671,37.0915902 C134.625956,36.5742136 135.230089,36.0503626 136.094052,35.5200356 C136.217478,35.448904 136.38962,35.3486614 136.610488,35.2193063 C137.812234,34.5402492 138.413115,33.8838187 138.413115,33.2500132 C138.413115,32.8813882 138.292941,32.5903601 138.052591,32.3769272 C137.812234,32.1635182 137.480945,32.0568079 137.058708,32.0567955 C136.590989,32.0568079 136.230466,32.1893874 135.977129,32.4545348 C135.723783,32.7132384 135.597106,33.0851084 135.597115,33.570144 L135.597115,33.6477517 L133.901657,33.6477517 C133.901657,32.6970704 134.184238,31.9662657 134.749382,31.4553369 C135.314534,30.9444338 136.123279,30.6889619 137.175632,30.6889619 C138.124041,30.6889619 138.877575,30.921798 139.436233,31.3874305 C140.001377,31.8466209 140.283958,32.4610141 140.283958,33.2306109 C140.283958,33.7868096 140.137791,34.2653891 139.845482,34.6663518 C139.553157,35.0673336 138.981511,35.5297459 138.130543,36.0535877 C137.942154,36.1764752 137.67582,36.3381573 137.331535,36.5386358 C136.552018,36.9913543 136.113542,37.3470555 136.0161,37.6057401 L140.206006,37.6057401 L140.206006,38.9929768 L133.745754,38.9929768" id="text5910" fill="#0000FF" fill-rule="nonzero"></path>
                <path d="M183.693359,36.451327 L185.46676,36.451327 C185.479748,36.9234478 185.606416,37.2759147 185.846774,37.508731 C186.087123,37.7415604 186.447647,37.8579719 186.928354,37.8579652 C187.389562,37.8579719 187.746843,37.7480273 188.000188,37.5281325 C188.253525,37.3082517 188.380202,36.9945877 188.380202,36.5871407 C188.380202,36.1732417 188.234044,35.8628113 187.941727,35.6558493 C187.649401,35.4424371 187.210926,35.3357268 186.626292,35.3357177 L186.34372,35.3357177 L186.34372,34.1813046 L186.54834,34.1813046 C187.0875,34.1813146 187.483753,34.0907724 187.737106,33.909678 C187.996937,33.7221366 188.126857,33.4375753 188.126865,33.0559942 C188.126857,32.7326407 188.016427,32.4771821 187.795568,32.2896184 C187.574701,32.0956118 187.279132,31.9986026 186.908864,31.9985902 C186.499615,31.9986026 186.184565,32.1085464 185.963697,32.3284222 C185.742838,32.5418551 185.6324,32.8490522 185.632409,33.2500132 L185.632409,33.3082185 L183.897979,33.3082185 C183.91747,32.4610141 184.190297,31.8142848 184.716469,31.3680281 C185.249144,30.9153303 186.00592,30.6889619 186.986815,30.6889619 C187.909241,30.6889619 188.63679,30.8894611 189.169465,31.2904205 C189.708625,31.6914056 189.97821,32.2378924 189.978218,32.9298816 C189.97821,33.2920613 189.884019,33.6121929 189.695646,33.8902757 C189.51375,34.1619123 189.240915,34.3850339 188.877148,34.5596416 C189.351353,34.7472028 189.708625,35.0091283 189.948983,35.3454189 C190.195826,35.6752599 190.31926,36.0632972 190.31926,36.5095331 C190.31926,37.3502889 190.013938,38.0164205 189.40332,38.5079288 C188.799188,38.9929818 187.974205,39.2355 186.928354,39.2355 C185.895491,39.2355 185.096483,38.9962152 184.531339,38.51763 C183.97268,38.0390563 183.693359,37.3632235 183.693359,36.4901308 L183.693359,36.451327" id="text5922" fill="#0000FF" fill-rule="nonzero"></path>
                <path d="M163.308966,14.8327566 C163.568797,14.6840149 163.763681,14.5190977 163.893609,14.338005 C164.02352,14.1569288 164.088484,13.9629056 164.088484,13.755952 C164.088484,13.5037334 164.013775,13.2903146 163.864374,13.1156871 C163.714956,12.9346109 163.4064,12.7244205 162.938697,12.4851242 L160.356544,11.1560927 C160.103198,11.304851 159.908315,11.4729967 159.771901,11.6605464 C159.641982,11.8481043 159.577026,12.0485927 159.577026,12.2620033 C159.577026,12.5142384 159.671217,12.7373593 159.859598,12.9313659 C160.054473,13.1189238 160.479961,13.3808526 161.136062,13.717144 L163.308966,14.8327566 M158.008246,18.0049669 L160.415006,18.0049669 C160.466973,18.5094205 160.616375,18.8845199 160.863226,19.1302815 C161.116572,19.3760348 161.473844,19.4989156 161.935069,19.4989156 C162.363792,19.4989156 162.704834,19.3986672 162.958187,19.1981871 C163.211516,18.9912334 163.338193,18.7131374 163.338201,18.363899 C163.338193,18.079346 163.244002,17.8335844 163.055621,17.6266308 C162.867231,17.4132119 162.493711,17.1706871 161.935069,16.8990563 L159.606261,15.7252401 C158.865715,15.3566142 158.313559,14.933005 157.949784,14.4544205 C157.586009,13.9758444 157.404121,13.4390563 157.404121,12.8440646 C157.404121,12.2684768 157.543786,11.7640315 157.823107,11.3307119 C158.10893,10.8909437 158.527924,10.5255381 159.08008,10.2345033 C158.755285,9.9434851 158.514928,9.6265894 158.359033,9.28380795 C158.203121,8.93458609 158.125169,8.54978477 158.125177,8.1293957 C158.125169,7.15931291 158.459717,6.38000828 159.128805,5.79146523 C159.797885,5.19649007 160.687833,4.89898179 161.798647,4.89898179 C162.94194,4.89898179 163.838381,5.19002483 164.487988,5.77206954 C165.137578,6.35413907 165.472118,7.15931291 165.491616,8.18760762 L163.192043,8.18760762 C163.179038,7.75430464 163.049119,7.4244702 162.802284,7.1981043 C162.561926,6.97176325 162.21439,6.85858444 161.759676,6.85857616 C161.356921,6.85858444 161.045114,6.94589404 160.824254,7.12049669 C160.609881,7.29512417 160.502702,7.54088576 160.502702,7.85777318 C160.502702,8.11647351 160.629371,8.35899834 160.882716,8.5853394 C161.142555,8.80524007 161.607015,9.07039735 162.276103,9.38081954 L163.91309,10.1374917 C164.744568,10.5320116 165.358437,10.9717881 165.754706,11.4568212 C166.150951,11.9354139 166.349085,12.4883692 166.349085,13.1156871 C166.349085,13.7042136 166.199667,14.2183692 165.900865,14.6581374 C165.608531,15.0914487 165.186294,15.4277483 164.634146,15.6670364 C165.010909,15.9968709 165.293481,16.3622765 165.481871,16.763245 C165.670244,17.1642219 165.764435,17.6039983 165.764451,18.0825745 C165.764435,19.078543 165.407162,19.8998841 164.692608,20.5466142 C163.978046,21.1998096 163.058864,21.5264156 161.935069,21.5264156 C160.700829,21.5264156 159.752411,21.2289156 159.089825,20.6339238 C158.427231,20.0389321 158.066707,19.1626159 158.008246,18.0049669" id="path3131" fill="#000000" fill-rule="nonzero"></path>
                <path d="M556.244368,44.3915563 L556.244368,33.6040977 C556.244368,32.5305381 556.663362,31.6639238 557.501341,31.0042467 C558.339321,30.3381209 559.45663,30.0050414 560.853268,30.0050414 C562.275881,30.0050414 563.389939,30.3284272 564.195449,30.9751407 C565.000942,31.6218791 565.403689,32.5111341 565.403706,33.6429056 C565.403689,34.3413825 565.283514,34.9137334 565.043174,35.3599669 C564.80931,35.8062252 564.445535,36.1489901 563.951849,36.3882699 C564.71837,36.6922434 565.293259,37.1384851 565.676533,37.7270033 C566.066283,38.3155298 566.261175,39.0398675 566.261175,39.9000166 C566.261175,41.3486921 565.842173,42.5192715 565.004202,43.4117632 C564.166214,44.3042467 563.068387,44.7504884 561.710737,44.7504884 C561.522348,44.7504884 561.311225,44.7407864 561.077378,44.7213907 C560.850017,44.7019868 560.603165,44.6728808 560.33684,44.6340811 L560.33684,42.3640563 C560.421278,42.376995 560.505732,42.386697 560.590186,42.3931623 C560.681117,42.3996275 560.814288,42.4028642 560.989681,42.4028642 C561.756203,42.4028642 562.347339,42.1926738 562.76309,41.7723013 C563.178825,41.3454636 563.386696,40.7407699 563.386705,39.9582202 C563.386696,39.2015563 563.159335,38.6259603 562.70462,38.2314487 C562.256391,37.8369536 561.600299,37.639702 560.736344,37.6396937 L560.473254,37.6396937 L560.482999,35.6510017 C560.521971,35.6574752 560.564193,35.6639404 560.609667,35.6703974 C560.655133,35.6704056 560.72334,35.6704056 560.814296,35.6703974 C561.392428,35.6704056 561.830904,35.5281291 562.129731,35.2435596 C562.435036,34.9525414 562.587688,34.5321689 562.587697,33.9824338 C562.587688,33.4327235 562.428534,33.0155877 562.110241,32.7310099 C561.798426,32.4399917 561.34046,32.2944785 560.736344,32.2944702 C560.177686,32.2944785 559.752198,32.4561672 559.459881,32.7795199 C559.167555,33.0964238 559.021397,33.5620695 559.021405,34.176457 L559.021405,44.3915563 L556.244368,44.3915563" id="text6073" fill="#000000" fill-rule="nonzero"></path>
                <path d="M522.359709,161.137666 L522.359709,158.198278 L525.312131,158.198278 L525.312131,161.137666 L522.359709,161.137666 M522.359709,168.568593 L522.359709,165.648609 L525.312131,165.648609 L525.312131,168.568593 L522.359709,168.568593" id="path2750" fill="#000000" fill-rule="nonzero"></path>
                <path d="M472.490064,161.137666 L472.490064,158.198278 L475.422996,158.198278 L475.422996,161.137666 L472.490064,161.137666 M472.490064,171.925124 L472.490064,170.790108 C473.035718,170.634892 473.438473,170.395604 473.698312,170.072243 C473.958151,169.748874 474.088071,169.328502 474.088071,168.811118 L474.088071,168.568593 L472.470574,168.568593 L472.470574,165.648609 L475.422996,165.648609 L475.422996,168.452177 C475.422996,169.422276 475.176145,170.198353 474.682458,170.780406 C474.188756,171.368932 473.457963,171.750505 472.490064,171.925124" id="path2746" fill="#000000" fill-rule="nonzero"></path>
                <path d="M472.465701,196.759561 L472.465701,195.624545 C473.011364,195.469329 473.41411,195.230041 473.673958,194.90668 C473.933789,194.583311 474.063708,194.162939 474.063717,193.645555 L474.063717,193.40303 L472.465701,193.40303 L472.465701,190.483046 L475.418124,190.483046 L475.418124,193.286614 C475.418124,194.250248 475.168029,195.026316 474.667841,195.614843 C474.174138,196.203369 473.440094,196.584942 472.465701,196.759561" id="text5803" fill="#000000" fill-rule="nonzero"></path>
                <polyline id="text5813" fill="#000000" fill-rule="nonzero" points="522.354836 193.40303 522.354836 190.483046 525.287769 190.483046 525.287769 193.40303 522.354836 193.40303"></polyline>
                <polyline id="path2737" fill="#000000" fill-rule="nonzero" points="80.5728991 181.820091 80.5728991 183.944603 71.8715355 187.485447 80.5728991 191.016598 80.5728991 193.141101 69.0945067 188.436142 69.0945067 186.505654 80.5728991 181.820091"></polyline>
                <polyline id="path2742" fill="#000000" fill-rule="nonzero" points="69.0945067 156.985654 80.5728991 161.671217 80.5728991 163.601705 69.0945067 168.306664 69.0945067 166.182161 77.8153603 162.65101 69.0945067 159.110166 69.0945067 156.985654"></polyline>
                <path d="M598.645261,107.471995 L596.657494,113.554495 L600.64278,113.554495 L598.645261,107.471995 M596.930322,104.610215 L600.340718,104.610215 L605.514762,118.899719 L602.416181,118.899719 L601.441779,115.960331 L595.877977,115.960331 L594.93281,118.899719 L591.824484,118.899719 L596.930322,104.610215 M599.25913,102.78644 L599.25913,100.4 L601.461269,100.4 L601.461269,102.78644 L599.25913,102.78644 M595.868232,102.78644 L595.868232,100.4 L598.070371,100.4 L598.070371,102.78644 L595.868232,102.78644" id="text6003" fill="#000000" fill-rule="nonzero"></path>
                <path d="M580.448398,54.9025381 L583.430055,54.9025381 L583.430055,63.8662177 C583.430047,64.97213 583.650906,65.7805422 584.092641,66.2914553 C584.53436,66.7959073 585.235926,67.0481316 586.197339,67.04813 C587.171732,67.0481316 587.879792,66.7959073 588.321527,66.2914553 C588.769739,65.7870091 588.99385,64.9785977 588.993858,63.8662177 L588.993858,54.9025381 L591.94628,54.9025381 L591.94628,64.1863485 C591.94628,65.9389909 591.452578,67.2841879 590.465197,68.2219445 C589.484293,69.1597036 588.068174,69.6285828 586.216829,69.6285828 C584.352472,69.6285828 582.923365,69.1629371 581.929482,68.2316457 C580.942093,67.2938891 580.448398,65.9454578 580.448398,64.1863485 L580.448398,54.9025381 M586.811208,53.1175629 L586.811208,50.7311283 L589.013348,50.7311283 L589.013348,53.1175629 L586.811208,53.1175629 M583.42031,53.1175629 L583.42031,50.7311283 L585.622442,50.7311283 L585.622442,53.1175629 L583.42031,53.1175629" id="text6023" fill="#000000" fill-rule="nonzero"></path>
                <path d="M544.775712,111.76952 C544.775712,113.341076 545.126491,114.563394 545.828065,115.436482 C546.529623,116.303096 547.510518,116.736407 548.770743,116.736407 C550.043947,116.736407 551.034587,116.303096 551.742655,115.436482 C552.450707,114.563394 552.804745,113.341076 552.804745,111.76952 C552.804745,110.197972 552.450707,108.978891 551.742655,108.11226 C551.034587,107.239189 550.043947,106.802632 548.770743,106.802632 C547.510518,106.802632 546.529623,107.235952 545.828065,108.102558 C545.126491,108.969189 544.775712,110.191507 544.775712,111.76952 M541.764828,111.76952 C541.764828,109.460704 542.394936,107.630455 543.655161,106.278783 C544.921871,104.920662 546.627065,104.241581 548.770743,104.241581 C550.914404,104.241581 552.619598,104.920662 553.886333,106.278783 C555.159529,107.636921 555.796147,109.467169 555.796147,111.76952 C555.796147,114.071879 555.159529,115.902127 553.886333,117.260257 C552.619598,118.618394 550.914404,119.297459 548.770743,119.297459 C546.627065,119.297459 544.921871,118.618394 543.655161,117.260257 C542.394936,115.902127 541.764828,114.071879 541.764828,111.76952 M549.384612,102.78644 L549.384612,100.4 L551.586752,100.4 L551.586752,102.78644 L549.384612,102.78644 M545.993714,102.78644 L545.993714,100.4 L548.195854,100.4 L548.195854,102.78644 L545.993714,102.78644" id="text6041" fill="#000000" fill-rule="nonzero"></path>
                <path d="M113.477644,91.4266225 C113.120355,91.9698758 112.707863,92.3708526 112.240161,92.6295364 C111.772442,92.8817632 111.220285,93.0078808 110.583692,93.0078808 C109.557314,93.0078808 108.774554,92.7297848 108.235394,92.1735927 C107.702719,91.6174089 107.436377,90.7960679 107.436386,89.709553 C107.436377,88.1638742 107.887849,86.8671854 108.790801,85.8194702 C109.70023,84.7717798 110.817539,84.2479305 112.142727,84.2479139 C112.662389,84.2479305 113.113861,84.3546358 113.497134,84.5680464 C113.880391,84.7814818 114.195441,85.0983775 114.4423,85.5187417 L114.958728,84.5680464 L116.693157,84.5680464 L115.260798,90.3692219 C115.241292,90.4403642 115.225053,90.5147351 115.212073,90.5923427 C115.199069,90.6634851 115.192575,90.7216887 115.192583,90.7669536 C115.192575,90.9933195 115.270527,91.164702 115.426438,91.2811093 C115.582334,91.3910513 115.812938,91.4460265 116.118268,91.4460265 C116.371596,91.4460265 116.634678,91.3813576 116.907522,91.2520033 C117.186835,91.1226656 117.446674,90.9415811 117.68704,90.70875 C118.245682,90.1913742 118.667919,89.5866805 118.953758,88.8946772 C119.246059,88.2026738 119.392217,87.4427732 119.392242,86.6149503 C119.392217,85.0628063 118.788093,83.78875 117.579861,82.7927732 C116.37809,81.7903551 114.825549,81.2891399 112.922245,81.2891275 C112.006297,81.2891399 111.152079,81.3990836 110.359573,81.6189594 C109.573553,81.8388601 108.858999,82.1654586 108.215904,82.5987558 C107.111583,83.3360348 106.260607,84.2576242 105.662985,85.3635265 C105.071849,86.4694454 104.77628,87.6820613 104.77628,89.0013825 C104.77628,90.986846 105.448611,92.5745695 106.793282,93.764553 C108.137943,94.9480712 109.934085,95.5398262 112.181699,95.5398262 C113.234035,95.5398262 114.260405,95.3813742 115.260798,95.0644785 C116.267661,94.7475828 117.203074,94.2884023 118.067062,93.6869454 L118.866062,94.8219536 C117.872162,95.5656954 116.816566,96.1251159 115.699274,96.5002235 C114.588451,96.8753228 113.428919,97.0628725 112.220679,97.0628725 C110.973434,97.0628725 109.826899,96.9044205 108.781056,96.5875248 C107.735197,96.2770944 106.806269,95.8146854 105.994274,95.2002897 C104.987395,94.4177483 104.233861,93.5155629 103.733672,92.4937252 C103.233484,91.4718957 102.98339,90.3142467 102.98339,89.0207864 C102.98339,87.9407533 103.152281,86.9124503 103.49008,85.9358858 C103.834365,84.9528642 104.337797,84.0603725 105.000391,83.2584189 C105.961796,82.087851 107.118076,81.2018311 108.469249,80.6003593 C109.820405,79.9989147 111.324221,79.6981714 112.980707,79.6981714 C114.078517,79.6981714 115.108129,79.8469329 116.069543,80.1444147 C117.037433,80.435457 117.878656,80.8493642 118.593234,81.3861366 C119.470169,82.0652152 120.123018,82.8412914 120.551774,83.7143626 C120.986982,84.5809934 121.204615,85.5607864 121.204615,86.65375 C121.204615,87.7208609 120.990233,88.7071275 120.561519,89.6125414 C120.139257,90.5115066 119.528639,91.2811093 118.729648,91.9213742 C118.274917,92.283543 117.777971,92.5616308 117.238819,92.755654 C116.706136,92.9432036 116.150729,93.0369785 115.572605,93.0369785 C114.884019,93.0369785 114.36434,92.9011672 114.01357,92.6295364 C113.669268,92.3579139 113.490632,91.9569454 113.477644,91.4266225 M113.964845,87.2746109 C113.880391,86.7507699 113.692001,86.3530298 113.399692,86.081399 C113.113861,85.8033113 112.733847,85.664255 112.259651,85.664255 C111.519096,85.664255 110.876001,86.0652401 110.330346,86.8671772 C109.784676,87.6691225 109.511849,88.6327566 109.511849,89.7580546 C109.511849,90.3530546 109.64176,90.8057616 109.901608,91.1161921 C110.167941,91.4266225 110.551197,91.5818377 111.051402,91.5818377 C111.590554,91.5818377 112.080998,91.3781209 112.522741,90.9706788 C112.970953,90.563245 113.276258,90.0329222 113.438672,89.3797185 L113.964845,87.2746109" id="path2893" fill="#0000FF" fill-rule="nonzero"></path>
                <polyline id="path2898" fill="#0000FF" fill-rule="nonzero" points="587.897336 46.2392384 583.064326 29.7379222 584.379762 29.7379222 589.232262 46.2392384 587.897336 46.2392384"></polyline>
                <polyline id="path2919" fill="#000000" fill-rule="nonzero" points="647.633082 104.949752 649.503925 104.949752 649.503925 110.372583 647.633082 110.372583 647.633082 104.949752"></polyline>
                <polyline id="text6099" fill="#FF0000" fill-rule="nonzero" points="613.967661 29.0009934 610.917797 32.5903477 609.534155 32.5903477 611.453714 29.0009934 613.967661 29.0009934"></polyline>
                <polyline id="text5103" fill="#FF0000" fill-rule="nonzero" points="608.637705 4.16655877 611.151652 4.16655877 613.071211 7.75591142 611.687569 7.75591142 608.637705 4.16655877"></polyline>
                <path d="M445.538232,182.809868 L448.354241,182.809868 L447.613703,187.029785 C447.516261,187.547169 447.441552,188.038684 447.389593,188.504329 C447.337616,188.96351 447.311632,189.338609 447.311641,189.629636 C447.311632,190.231101 447.448046,190.680579 447.720881,190.978071 C447.993708,191.269098 448.409451,191.414611 448.96811,191.414611 C449.617708,191.414611 450.121147,191.149454 450.478428,190.619131 C450.842195,190.088816 451.144257,189.147831 451.384615,187.796159 L452.261574,182.809868 L455.077583,182.809868 L453.196996,193.403311 L450.585615,193.403311 L450.761001,192.268295 C450.488165,192.772748 450.182852,193.141382 449.845069,193.374205 C449.513772,193.607028 449.120762,193.723435 448.666048,193.723435 C448.230815,193.723435 447.844307,193.626432 447.506516,193.432409 C447.168725,193.244859 446.863412,192.950596 446.590585,192.549627 L445.713625,197.652326 L442.926851,197.652326 L445.538232,182.809868" id="text6117" fill="#0000FF" fill-rule="nonzero"></path>
                <polyline id="path3396" fill="#0000FF" fill-rule="nonzero" points="98.779515 176.305704 100.786771 176.305704 100.786771 196.173253 98.779515 196.173253 98.779515 176.305704"></polyline>
                <path d="M12.4722838,6.61120033 C11.998071,6.61120033 11.5920732,6.77612583 11.2542905,7.10594371 C10.9229933,7.4357947 10.7573448,7.83352649 10.7573448,8.29916391 C10.7573448,8.77775662 10.9229933,9.18196192 11.2542905,9.5117798 C11.5855793,9.84162252 11.9915771,10.0065315 12.4722838,10.0065315 C12.9399945,10.0065315 13.33949,9.83839404 13.6707955,9.50208609 C14.0020843,9.1657947 14.1677328,8.76481788 14.1677328,8.29916391 C14.1677328,7.83352649 14.0020843,7.4357947 13.6707955,7.10594371 C13.33949,6.77612583 12.9399945,6.61120033 12.4722838,6.61120033 M12.4722838,5.35977649 C13.2907733,5.35977649 13.9858453,5.65081954 14.5574917,6.23286424 C15.1356319,6.80846026 15.4247062,7.50370033 15.4247062,8.31856788 C15.4247062,9.12698675 15.1356319,9.81899007 14.5574917,10.3945695 C13.9793431,10.9701656 13.2777855,11.2579553 12.4527938,11.2579553 C11.634296,11.2579553 10.9392323,10.9734023 10.3675859,10.4042715 C9.80243348,9.83515728 9.51986142,9.1399255 9.51986142,8.31856788 C9.51986142,7.4972351 9.80568459,6.79876656 10.3773309,6.22316225 C10.9554712,5.64758278 11.653786,5.35977649 12.4722838,5.35977649" id="path3403" fill="#000000" fill-rule="nonzero"></path>
                <polyline id="text6091" fill="#FF0000" fill-rule="nonzero" points="10.9229933 30.2330166 13.3784701 30.2330166 18.0653215 35.6752508 15.7754933 35.6752508 12.1604767 32.0761978 8.52597838 35.6752508 6.23614191 35.6752508 10.9229933 30.2330166"></polyline>
                <polygon id="path2585" stroke="#000000" stroke-width="2" points="22.6579823 137.210265 32.0121951 124.793046 25.7760532 124.793046 25.7760532 118.584437 19.5399113 118.584437 19.5399113 124.793046 13.3037694 124.793046"></polygon>
                <text id="Strg" fill="#000000" font-family="Helvetica" font-size="16" font-weight="normal">
                    <tspan x="12.6281874" y="227.797401">Strg</tspan>
                </text>
                <text id="tspan3451" fill="#000000" font-family="Helvetica" font-size="16" font-weight="normal">
                    <tspan x="694" y="229">Strg</tspan>
                </text>
                <g id="text3456" transform="translate(146.168514, 214.172185)" fill="#000000" font-family="Helvetica" font-size="15.9998712" font-weight="normal">
                    <text id="tspan3460">
                        <tspan x="0" y="15">Alt</tspan>
                    </text>
                </g>
                <text id="tspan3466" fill="#0000FF" font-family="Helvetica" font-size="16" font-weight="normal">
                    <tspan x="519.168514" y="228.172185">Alt Gr</tspan>
                </text>
                <text id="tspan3484" fill="#000000" font-family="Helvetica" font-size="16" font-weight="normal">
                    <tspan x="81.1685144" y="228.172185">(Win)</tspan>
                </text>
                <text id="(Win)" fill="#000000" font-family="Helvetica" font-size="16" font-weight="normal">
                    <tspan x="581.168514" y="227.172185">(Win)</tspan>
                </text>
                <text id="tspan3496" fill="#000000" font-family="Helvetica" font-size="16" font-weight="normal">
                    <tspan x="623.168514" y="227.172185">(Menu)</tspan>
                </text>
            </g>
            <ellipse id="Oval" stroke="#EE714E" stroke-width="5" cx="138" cy="175" rx="38" ry="34"></ellipse>
        </g>
    </g>
</svg>