<svg xmlns="http://www.w3.org/2000/svg" width="600" height="200" viewBox="0 0 600 200"><defs><style>@import url(https://fonts.googleapis.com/css?family=Open+Sans:bold,italic,bolditalic%7CPT+Mono);@font-face{font-family:&apos;PT Mono&apos;;font-weight:700;font-style:normal;src:local(&apos;PT MonoBold&apos;),url(/font/PTMonoBold.woff2) format(&apos;woff2&apos;),url(/font/PTMonoBold.woff) format(&apos;woff&apos;),url(/font/PTMonoBold.ttf) format(&apos;truetype&apos;)}</style></defs><g id="dom" fill="none" fill-rule="evenodd" stroke="none" stroke-width="1"><g id="german-layout.svg"><g id="KB_Germany" transform="translate(.918 .953)"><g id="Group"><path id="rect2186" fill="#FFF" stroke="#000" d="M.08.083h39.933V39.46H.08z"/><path id="rect2218" fill="#FFF" stroke="#000" d="M40.013.083h39.934V39.46H40.013z"/><path id="rect2222" fill="#FFF" stroke="#000" d="M79.947.083h39.933V39.46H79.947z"/><path id="rect2228" fill="#FFF" stroke="#000" d="M118.882.083h39.933V39.46h-39.933z"/><path id="rect2230" fill="#FFF" stroke="#000" d="M158.815.083h39.934V39.46h-39.934z"/><path id="rect2232" fill="#FFF" stroke="#000" d="M198.749.083h39.933V39.46H198.75z"/><path id="rect2234" fill="#FFF" stroke="#000" d="M239.68.083h39.934V39.46h-39.933z"/><path id="rect2236" fill="#FFF" stroke="#000" d="M279.614.083h39.933V39.46h-39.933z"/><path id="rect2238" fill="#FFF" stroke="#000" d="M318.55.083h39.933V39.46h-39.934z"/><path id="rect2240" fill="#FFF" stroke="#000" d="M358.483.083h39.933V39.46h-39.933z"/><path id="rect2242" fill="#FFF" stroke="#000" d="M398.416.083h39.933V39.46h-39.933z"/><path id="rect2244" fill="#FFF" stroke="#000" d="M438.35.083h39.933V39.46h-39.934z"/><path id="rect2246" fill="#FFF" stroke="#000" d="M478.283.083h39.933V39.46h-39.933z"/><path id="rect2248" fill="#DFDFDF" stroke="#000" d="M517.218.083h81.864V39.46h-81.864z"/><path id="rect2250" fill="#DFDFDF" stroke="#000" d="M.08 39.461h59.9V78.84H.08z"/><path id="rect2252" fill="#FFF" stroke="#000" d="M59.98 39.461h39.933V78.84H59.98z"/><path id="rect2254" fill="#FFF" stroke="#000" d="M98.915 39.461h39.934V78.84H98.915z"/><path id="rect2256" fill="#FFF" stroke="#000" d="M138.849 39.461h39.933V78.84h-39.933z"/><path id="rect2258" fill="#FFF" stroke="#000" d="M178.782 39.461h39.933V78.84h-39.933z"/><path id="rect2262" fill="#FFF" stroke="#000" d="M219.714 39.461h39.933V78.84h-39.933z"/><path id="rect2264" fill="#FFF" stroke="#000" d="M259.647 39.461h39.934V78.84h-39.934z"/><path id="rect2266" fill="#FFF" stroke="#000" d="M298.582 39.461h39.934V78.84h-39.934z"/><path id="rect2270" fill="#FFF" stroke="#000" d="M338.516 39.461h39.933V78.84h-39.933z"/><path id="rect2272" fill="#FFF" stroke="#000" d="M378.45 39.461h39.933V78.84h-39.934z"/><path id="rect2274" fill="#FFF" stroke="#000" d="M418.383 39.461h39.933V78.84h-39.933z"/><path id="rect2278" fill="#FFF" stroke="#000" d="M458.316 39.461h39.934V78.84h-39.934z"/><path id="rect2280" fill="#FFF" stroke="#000" d="M497.251 39.461h39.934V78.84H497.25z"/><path id="rect2286" fill="#DFDFDF" stroke="#000" d="M.08 79.876h69.883v39.378H.08z"/><path id="rect2292" fill="#FFF" stroke="#000" d="M69.963 79.876h39.934v39.378H69.963z"/><path id="rect2296" fill="#FFF" stroke="#000" d="M109.897 79.876h39.933v39.378h-39.933z"/><path id="rect2298" fill="#FFF" stroke="#000" d="M149.83 79.876h39.934v39.378H149.83z"/><path id="rect2300" fill="#FFF" stroke="#000" d="M188.765 79.876H228.7v39.378h-39.934z"/><path id="rect2302" fill="#FFF" stroke="#000" d="M228.699 79.876h39.933v39.378H228.7z"/><path id="rect2306" fill="#FFF" stroke="#000" d="M268.632 79.876h39.934v39.378h-39.934z"/><path id="rect2308" fill="#FFF" stroke="#000" d="M308.566 79.876h39.933v39.378h-39.933z"/><path id="rect2312" fill="#FFF" stroke="#000" d="M348.5 79.876h39.933v39.378h-39.934z"/><path id="rect2314" fill="#FFF" stroke="#000" d="M388.433 79.876h39.933v39.378h-39.933z"/><path id="rect2316" fill="#FFF" stroke="#000" d="M428.366 79.876H468.3v39.378h-39.934z"/><path id="rect2318" fill="#FFF" stroke="#000" d="M468.3 79.876h39.933v39.378H468.3z"/><path id="rect2320" fill="#DFDFDF" stroke="#000" stroke-width="1" d="M547.5 79.358h-10.315V39.46h61.896v79.793h-51.656z"/><path id="rect2322" fill="#DFDFDF" stroke="#000" stroke-width="1" d="M.08 119.254h49.917v39.378H.08z"/><path id="rect2324" fill="#FFF" stroke="#000" d="M89.93 119.254h39.934v39.378H89.93z"/><path id="rect2326" fill="#FFF" stroke="#000" d="M129.864 119.254h39.933v39.378h-39.933z"/><path id="rect2330" fill="#FFF" stroke="#000" d="M169.797 119.254h39.933v39.378h-39.933z"/><path id="rect2334" fill="#FFF" stroke="#000" d="M208.732 119.254h39.934v39.378h-39.934z"/><path id="rect2336" fill="#FFF" stroke="#000" d="M248.666 119.254h39.933v39.378h-39.933z"/><path id="rect2338" fill="#FFF" stroke="#000" d="M288.599 119.254h39.933v39.378H288.6z"/><path id="rect2340" fill="#FFF" stroke="#000" d="M328.532 119.254h39.934v39.378h-39.934z"/><path id="rect2342" fill="#FFF" stroke="#000" d="M368.466 119.254h39.933v39.378h-39.933z"/><path id="rect2344" fill="#FFF" stroke="#000" d="M408.4 119.254h39.933v39.378h-39.934z"/><path id="rect2346" fill="#FFF" stroke="#000" d="M448.333 119.254h39.933v39.378h-39.933z"/><path id="rect2348" fill="#DFDFDF" stroke="#000" d="M488.266 119.254h110.816v39.378H488.266z"/><path id="rect2350" fill="#DFDFDF" stroke="#000" d="M.08 158.632h59.9v39.378H.08z"/><path id="rect2352" fill="#DFDFDF" stroke="#000" d="M537.185 158.632h61.897v39.378h-61.897z"/><path id="rect2354" fill="#DFDFDF" stroke="#000" d="M98.915 158.632h59.9v39.378h-59.9z"/><path id="rect2360" fill="#DFDFDF" stroke="#000" d="M398.416 158.632h59.9v39.378h-59.9z"/><path id="rect2362" fill="#FFF" stroke="#000" d="M158.815 158.632h239.601v39.378h-239.6z"/><path id="rect2364" fill="#EFEFEF" stroke="#000" d="M59.98 158.632h39.933v39.378H59.98z"/><path id="rect2366" fill="#EFEFEF" stroke="#000" d="M458.316 158.632h39.934v39.378h-39.934z"/><path id="rect2368" fill="#EFEFEF" stroke="#000" d="M497.251 158.632h39.934v39.378H497.25z"/><path id="text5091" fill="#000" fill-rule="nonzero" d="M49.737 12.695l-.623-5.28V4.227h2.463v3.186l-.624 5.281h-1.216m-.591 3.266v-2.35h2.375v2.35h-2.375m.591 20.391v-7.798h-2.735v-1.6h.176c.997 0 1.722-.155 2.176-.463.458-.308.727-.823.807-1.545h1.832v11.406h-2.256"/><path id="text5127" fill="#000" fill-rule="nonzero" d="M89.635 5.264h1.507v4.347h-1.507V5.264m-2.56 0h1.507v4.347h-1.507V5.264m-2.137 31.088c.01-.995.226-1.837.644-2.527.42-.694 1.163-1.397 2.23-2.107.163-.109.399-.26.707-.451 1.414-.897 2.12-1.76 2.12-2.59 0-.492-.148-.88-.447-1.166-.298-.285-.707-.428-1.225-.428-.565 0-1.002.177-1.311.53-.304.347-.456.844-.456 1.492v.093h-2.073c0-1.275.345-2.257 1.037-2.947.69-.689 1.675-1.034 2.952-1.034 1.157 0 2.081.314 2.773.941.69.622 1.036 1.452 1.036 2.488 0 .742-.18 1.385-.542 1.929-.361.544-1.06 1.164-2.097 1.858-.22.15-.523.348-.91.591-.985.628-1.54 1.104-1.665 1.431h5.104v1.897h-7.877"/><path id="text5139" fill="#000" fill-rule="nonzero" d="M126.869 31.62h2.136c.005.62.155 1.087.45 1.402.296.31.734.465 1.314.465.559 0 .989-.144 1.29-.434.305-.294.458-.715.458-1.263 0-.547-.179-.96-.536-1.24-.353-.284-.878-.426-1.577-.426-.037 0-.094.003-.171.008a2.506 2.506 0 01-.164.008v-1.535h.241c.643 0 1.116-.124 1.422-.372.31-.253.466-.638.466-1.154 0-.429-.132-.767-.396-1.015-.259-.254-.614-.38-1.064-.38-.492 0-.873.145-1.142.434-.27.29-.404.7-.404 1.232v.093h-2.098c.026-1.137.36-2.007 1.002-2.612.648-.61 1.56-.914 2.735-.914 1.113 0 1.996.271 2.65.814.652.542.978 1.273.978 2.193 0 .485-.111.912-.334 1.278-.223.367-.557.67-1.002.907.57.248 1 .592 1.29 1.03.295.435.442.954.442 1.558 0 1.11-.365 1.992-1.095 2.643-.73.65-1.728.976-2.991.976-1.249 0-2.212-.315-2.89-.945-.674-.636-1.01-1.537-1.01-2.705v-.046"/><path id="text5145" fill="#000" fill-rule="nonzero" d="M168.895 14.91c.468-.057.825-.21 1.07-.46.246-.25.369-.584.369-1 0-.37-.117-.674-.351-.914-.229-.244-.591-.434-1.088-.57v2.944m-1.02-5.341V6.914c-.445.052-.785.193-1.019.422-.234.224-.35.526-.35.906 0 .317.108.583.325.796.222.213.57.39 1.045.531m0 8.55V16.62c-1.291-.073-2.256-.414-2.896-1.023-.64-.609-.959-1.489-.959-2.64h2.296c.028.563.17 1.008.428 1.336.263.323.64.529 1.13.617v-3.233c-1.324-.307-2.266-.708-2.826-1.202-.56-.495-.84-1.171-.84-2.03 0-.953.332-1.72.994-2.304.668-.583 1.559-.887 2.673-.914v-.999h1.019v1c1.113.052 1.981.359 2.604.92.622.558.965 1.344 1.027 2.36h-2.33c-.04-.485-.168-.855-.385-1.11-.211-.26-.517-.406-.916-.437v2.842c1.41.401 2.404.86 2.98 1.375.577.515.866 1.194.866 2.038 0 .994-.337 1.788-1.011 2.381-.668.594-1.613.94-2.835 1.039v1.483h-1.02m1.157 14.095v-4.787l-3.332 4.787h3.332m-.052 4.138V33.94h-5.173v-1.967l4.522-6.481h3.041v6.668h1.422v1.78h-1.422v2.413h-2.39"/><path id="text5151" fill="#000" fill-rule="nonzero" d="M212.846 12.99c0 .356.11.656.33.9.22.239.493.358.816.358.314 0 .583-.122.809-.366.225-.25.338-.547.338-.892 0-.34-.113-.63-.338-.868a1.048 1.048 0 00-.809-.367c-.323 0-.595.12-.816.359-.22.233-.33.525-.33.876m-1.595 0c0-.829.264-1.527.793-2.095a2.558 2.558 0 011.948-.852c.755 0 1.396.29 1.926.868.534.573.8 1.266.8 2.079 0 .818-.266 1.519-.8 2.103-.534.579-1.176.868-1.926.868-.77 0-1.418-.287-1.948-.86-.529-.574-.793-1.277-.793-2.111m-4.27 2.971l6.276-11.733h1.183l-6.276 11.733h-1.184m-.646-8.762c0 .35.107.645.323.884.22.24.492.359.816.359.318 0 .588-.12.808-.359.226-.244.338-.539.338-.884 0-.34-.112-.63-.338-.868a1.048 1.048 0 00-.808-.367c-.324 0-.595.12-.816.359a1.243 1.243 0 00-.323.876m-1.595 0c0-.828.264-1.53.794-2.103.529-.579 1.175-.868 1.94-.868.754 0 1.396.292 1.925.876.535.579.802 1.277.802 2.095 0 .818-.267 1.516-.802 2.095-.529.573-1.17.86-1.925.86-.77 0-1.419-.284-1.948-.852-.524-.568-.786-1.27-.786-2.103m2.102 25.76h2.058c.034.5.188.887.463 1.163.274.27.642.406 1.102.406.569 0 1.002-.18 1.301-.541.304-.361.456-.88.456-1.554 0-.632-.155-1.128-.463-1.49-.309-.366-.735-.549-1.28-.549-.303 0-.57.067-.8.2-.23.132-.427.329-.588.589l-1.896-.12.683-6.117h6.049v1.928h-4.564l-.272 2.286c.23-.197.495-.343.794-.438.298-.101.632-.152 1-.152 1.048 0 1.893.345 2.535 1.036.647.69.97 1.595.97 2.716 0 1.227-.355 2.206-1.066 2.94-.71.727-1.663 1.09-2.859 1.09-1.088 0-1.955-.3-2.602-.9-.641-.605-.982-1.436-1.021-2.493"/><path id="path3073" fill="#000" fill-rule="nonzero" d="M248.136 10.477l-.576.414c-.232.16-.406.354-.523.58-.116.226-.174.48-.174.76 0 .427.146.786.44 1.077.293.291.66.437 1.099.437.323 0 .631-.066.925-.196.298-.136.573-.331.826-.587l-2.017-2.485m.607-2.372l.265-.188c.243-.165.422-.351.538-.557.117-.206.175-.442.175-.708 0-.256-.081-.459-.243-.61-.156-.15-.371-.225-.644-.225-.278 0-.498.077-.66.233-.161.15-.242.356-.242.617 0 .14.038.294.113.46.081.165.195.341.342.527l.356.451m-1.706 1.002l-.44-.572a3.576 3.576 0 01-.492-.844 2.442 2.442 0 01-.144-.835c0-.803.258-1.44.773-1.913.52-.477 1.226-.715 2.115-.715.854 0 1.529.218 2.024.655.495.437.743 1.026.743 1.77 0 .562-.147 1.066-.44 1.513-.288.441-.743.858-1.364 1.25l1.6 1.957c.15-.246.27-.522.355-.828.091-.306.155-.648.19-1.024h1.97a6.483 6.483 0 01-.408 1.814 5.604 5.604 0 01-.895 1.529l2.032 2.454h-2.578l-.758-.926a4.741 4.741 0 01-1.47.926 4.572 4.572 0 01-1.668.309c-1.031 0-1.875-.304-2.532-.911-.652-.607-.978-1.383-.978-2.327 0-.702.182-1.307.546-1.814.364-.507.97-.996 1.82-1.468"/><path id="text5163" fill="#000" fill-rule="nonzero" d="M288.564 36.352h-2.353c.084-1.6.454-3.187 1.11-4.76.66-1.574 1.602-3.12 2.824-4.64h-5.54v-1.999h7.987v1.762c-1.238 1.42-2.19 2.923-2.856 4.507-.661 1.585-1.052 3.295-1.172 5.13"/><path id="path3094" fill="#000" fill-rule="nonzero" d="M506.735 48.674l-1.417 2.151-1.368-1.032 1.546-2.091-2.255-.677.524-1.761 2.165.832v-2.49h1.594v2.49l2.166-.815.54 1.761-2.255.66 1.53 2.073-1.4 1.085-1.37-2.186"/><path id="path3092" fill="#000" fill-rule="nonzero" d="M325.79 31.784c0 .541.15.959.45 1.252.304.294.738.44 1.302.44.537 0 .959-.149 1.264-.447.31-.3.465-.714.465-1.245 0-.51-.158-.92-.473-1.228-.315-.31-.734-.464-1.256-.464s-.946.157-1.272.471c-.32.315-.48.722-.48 1.221m.178-4.745c0 .428.134.758.403.99.269.226.654.34 1.155.34.502 0 .887-.116 1.156-.348.274-.232.41-.56.41-.982 0-.412-.139-.736-.418-.973-.28-.237-.662-.356-1.148-.356-.475 0-.855.121-1.14.363-.279.242-.418.564-.418.966m-.799 2.149c-.465-.258-.801-.56-1.008-.905-.207-.345-.31-.785-.31-1.321 0-.948.326-1.692.977-2.233.651-.541 1.55-.812 2.698-.812 1.158 0 2.063.27 2.714.812.657.535.985 1.28.985 2.233 0 .51-.111.953-.333 1.33-.223.37-.556.669-1 .896.542.252.95.602 1.224 1.05.274.444.411.985.411 1.624 0 1.076-.356 1.921-1.07 2.534-.708.614-1.685.92-2.93.92-1.262 0-2.242-.304-2.94-.912-.697-.608-1.046-1.455-1.046-2.542 0-.634.129-1.165.387-1.592.264-.433.678-.794 1.241-1.082"/><path id="path3112" fill="#000" fill-rule="nonzero" d="M330.53 5.264c-.81 1.15-1.412 2.32-1.806 3.51a11.87 11.87 0 00-.59 3.748c0 1.302.197 2.549.59 3.74.394 1.19.995 2.36 1.805 3.51h-1.857c-1.028-1.216-1.808-2.437-2.342-3.663-.528-1.231-.793-2.427-.793-3.587 0-1.16.265-2.356.793-3.587.534-1.231 1.314-2.455 2.342-3.67h1.857"/><path id="path3110" fill="#000" fill-rule="nonzero" d="M369.808 27.766c0-.634-.18-1.134-.537-1.5-.353-.37-.835-.556-1.447-.556-.578 0-1.028.178-1.352.533-.318.356-.476.853-.476 1.492 0 .597.167 1.064.502 1.399.335.334.806.502 1.412.502.595 0 1.06-.165 1.395-.495.335-.33.503-.788.503-1.375m.043 2.882c-.289.258-.63.451-1.022.58a4.243 4.243 0 01-1.326.193c-1.219 0-2.195-.327-2.928-.981-.734-.655-1.1-1.53-1.1-2.628 0-1.164.398-2.105 1.195-2.82.797-.717 1.848-1.075 3.154-1.075 1.513 0 2.663.466 3.448 1.399.792.927 1.187 2.282 1.187 4.065 0 1.916-.421 3.385-1.265 4.405-.843 1.02-2.056 1.53-3.639 1.53-1.092 0-1.972-.252-2.642-.757-.67-.51-1.037-1.203-1.1-2.08l2.503.009c.058.355.214.62.468.796.254.175.612.262 1.074.262.624 0 1.1-.242 1.43-.726.33-.484.517-1.208.563-2.172"/><path id="path3121" fill="#000" fill-rule="nonzero" d="M364.473 5.264h1.875c1.02 1.211 1.796 2.432 2.324 3.663.528 1.227.792 2.425.792 3.595 0 1.165-.264 2.363-.792 3.594-.528 1.232-1.303 2.45-2.324 3.656h-1.875c.815-1.155 1.42-2.328 1.813-3.518.4-1.196.599-2.44.599-3.732 0-1.297-.2-2.541-.599-3.732-.393-1.19-.998-2.366-1.813-3.526"/><path id="path3119" fill="#000" fill-rule="nonzero" d="M405.986 29.62c0 1.349.15 2.328.451 2.937.307.61.793.915 1.459.915.665 0 1.152-.308 1.458-.922.307-.615.46-1.592.46-2.93 0-1.343-.153-2.32-.46-2.929-.306-.61-.793-.914-1.458-.914-.666 0-1.152.305-1.459.914-.3.605-.451 1.581-.451 2.93m-2.578 0c0-1.907.37-3.333 1.11-4.278.747-.95 1.873-1.426 3.378-1.426 1.499 0 2.622.478 3.368 1.434.752.95 1.129 2.379 1.129 4.285 0 1.906-.374 3.33-1.12 4.27-.741.94-1.867 1.41-3.377 1.41-1.505 0-2.63-.473-3.377-1.418-.74-.945-1.111-2.371-1.111-4.278"/><path id="text5187" fill="#000" fill-rule="nonzero" d="M453.324 136.87h7.987v1.58h-7.987v-1.58m1.802 14.508v-2.122h4.383v2.122h-4.383"/><path id="path2908" fill="#000" fill-rule="nonzero" d="M506.976 65.368h1.515v4.328h3.735v1.69h-3.735v4.345h-1.515v-4.346h-3.735v-1.689h3.735v-4.328"/><path id="path2906" fill="#000" fill-rule="nonzero" d="M403.408 12.951h8.985v1.64h-8.985v-1.64m0-3.542h8.985v1.64h-8.985v-1.64"/><g id="g3468" transform="translate(522.21 13.554)"><path id="path5439" stroke="#000" stroke-width="3" d="M34.942 5.448H6.61"/><path id="path5441" fill="#000" d="M10.219 10.79V.105L.329 5.448z"/></g><g id="g5459" transform="translate(10.063 48.788)"><path id="path5453" stroke="#000" stroke-width="3" d="M25.624 5.7H6.669"/><path id="path5455" fill="#000" d="M10.649 11.043V.356L.666 5.7z"/><path id="path5457" stroke="#000" stroke-width="3" d="M.666.356v10.687"/></g><g id="g5464" transform="rotate(-180 18.01 35.275)"><path id="path5466" stroke="#000" stroke-width="3" d="M25.624 5.7H6.669"/><path id="path5468" fill="#000" d="M10.649 11.043V.356L.666 5.7z"/><path id="path5470" stroke="#000" stroke-width="3" d="M.666.356v10.687"/></g><path id="text5474" fill="#000" fill-rule="nonzero" d="M71.803 52.199l-1.188-1.172 1.264-1.326 1.219 1.203c.162-.309.286-.66.373-1.056a6.08 6.08 0 00.13-1.296c0-1.248-.278-2.217-.83-2.906-.554-.694-1.329-1.04-2.324-1.04-.985 0-1.751.344-2.3 1.032-.548.689-.822 1.66-.822 2.914 0 1.25.274 2.22.822 2.915.549.688 1.315 1.033 2.3 1.033.254 0 .493-.026.716-.077a2.86 2.86 0 00.64-.224m1.622 1.55c-.38.257-.825.452-1.333.585a6.39 6.39 0 01-1.645.2c-1.675 0-3.008-.539-3.998-1.618-.985-1.08-1.477-2.534-1.477-4.364 0-1.834.492-3.289 1.477-4.363.99-1.08 2.323-1.62 3.998-1.62 1.676 0 3.008.54 3.999 1.62.995 1.08 1.492 2.534 1.492 4.363 0 .802-.101 1.537-.304 2.205a5.234 5.234 0 01-.9 1.743l1.22 1.18-1.25 1.325-1.279-1.256"/><path id="text5482" fill="#000" fill-rule="nonzero" d="M105.05 55.005l-3.14-11.399h2.337l1.876 8.04 1.585-8.04h2.404l1.585 8.04 1.875-8.04h2.315l-3.133 11.4h-2.151l-1.697-8.73-1.704 8.73h-2.151"/><path id="text5492" fill="#000" fill-rule="nonzero" d="M144.839 55.005V43.606h8.692v1.981h-6.261v2.43h5.724v1.95h-5.724V52.9h6.554v2.105h-8.985"/><path id="text5500" fill="#000" fill-rule="nonzero" d="M187.015 48.59h2.634c.573 0 .992-.121 1.259-.364.271-.242.407-.624.407-1.145 0-.495-.131-.87-.393-1.122-.261-.258-.65-.387-1.169-.387h-2.738v3.018m-2.243 6.415V43.606h5.284c1.19 0 2.07.266 2.643.797.572.532.858 1.344.858 2.438 0 .696-.14 1.277-.422 1.741a2.108 2.108 0 01-1.199.952c.474.175.81.444 1.007.805.202.36.318.923.348 1.687l.044 1.346v.047c.015.68.156 1.093.422 1.238v.348H191.3a2.318 2.318 0 01-.185-.588 6.4 6.4 0 01-.074-.843l-.03-1.2c-.024-.707-.153-1.184-.385-1.432-.227-.247-.639-.371-1.236-.371h-2.375v4.434h-2.243"/><path id="text5504" fill="#000" fill-rule="nonzero" d="M228.05 55.005v-9.364h-3.345v-2.035h8.986v2.035h-3.322v9.364h-2.319"/><path id="text5518" fill="#000" fill-rule="nonzero" d="M101.245 134.798H98.96v-4.249l-4.037-7.15h2.8l2.376 4.914 2.196-4.914h2.611l-3.66 7.15v4.249"/><path id="text5522" fill="#000" fill-rule="nonzero" d="M304.572 43.606h2.33v6.939c0 .856.173 1.482.518 1.877.345.39.894.586 1.645.586.761 0 1.315-.196 1.66-.586.35-.39.525-1.016.525-1.877v-6.939h2.307v7.187c0 1.356-.385 2.397-1.157 3.123-.767.726-1.873 1.09-3.32 1.09-1.457 0-2.574-.361-3.35-1.082-.772-.726-1.158-1.77-1.158-3.131v-7.187"/><path id="text5526" fill="#000" fill-rule="nonzero" d="M347.5 55.005V43.606h1.998v11.4H347.5"/><path id="text5530" fill="#000" fill-rule="nonzero" d="M384.8 48.788c0 1.298.274 2.307.823 3.028.549.716 1.316 1.074 2.303 1.074.996 0 1.772-.358 2.326-1.074.554-.72.831-1.73.831-3.028s-.277-2.305-.831-3.021c-.554-.721-1.33-1.082-2.326-1.082-.987 0-1.754.358-2.303 1.074-.55.716-.824 1.725-.824 3.029m-2.356 0c0-1.907.493-3.419 1.48-4.535.99-1.122 2.325-1.683 4.003-1.683s3.012.56 4.004 1.683c.996 1.121 1.494 2.633 1.494 4.535 0 1.901-.498 3.413-1.494 4.535-.992 1.121-2.326 1.682-4.004 1.682-1.678 0-3.013-.56-4.004-1.682-.986-1.122-1.48-2.634-1.48-4.535"/><path id="text5534" fill="#000" fill-rule="nonzero" d="M425.808 48.884h2.338c.633 0 1.093-.129 1.38-.387.288-.263.432-.684.432-1.261 0-.542-.141-.952-.423-1.23-.282-.28-.703-.419-1.261-.419h-2.466v3.297m-.016 2.066v4.055h-2.418V43.606h5.227c1.234 0 2.168.312 2.8.937.64.619.958 1.53.958 2.731 0 1.177-.31 2.085-.933 2.724-.623.635-1.511.952-2.665.952h-2.969"/><path id="path3102" fill="#00F" fill-rule="nonzero" d="M311.56 21.86v1.6c-.049 0-.118-.003-.206-.008a3.788 3.788 0 00-.182-.007c-.556 0-.933.1-1.131.298-.193.194-.29.608-.29 1.24v1.838c0 .755-.124 1.291-.371 1.608-.248.316-.694.543-1.339.68.645.139 1.09.363 1.339.675.247.311.371.844.371 1.6v1.845c0 .628.097 1.038.29 1.232.192.194.57.291 1.131.291.033 0 .094-.002.182-.007s.157-.008.207-.008v1.6c-.077 0-.185.003-.322.008-.138.005-.24.007-.306.007-.551 0-1.01-.03-1.38-.092a3.388 3.388 0 01-.942-.283 1.495 1.495 0 01-.67-.704c-.126-.291-.19-.799-.19-1.524V31.82c0-.7-.14-1.194-.42-1.485-.281-.296-.755-.444-1.422-.444-.033 0-.088.002-.165.007a2.87 2.87 0 01-.173.008v-1.6c.038 0 .096.003.173.008.077.005.132.007.165.007.661 0 1.132-.148 1.413-.444.287-.296.43-.796.43-1.5v-1.914c0-.73.063-1.243.19-1.539.132-.296.355-.53.67-.704.258-.128.572-.222.941-.284a8.644 8.644 0 011.686-.084c.137.005.245.008.322.008"/><path id="text5546" fill="#00F" fill-rule="nonzero" d="M347.5 22.88h3.994v1.62h-1.858v11.27h1.858v1.619h-3.993V22.88"/><path id="path3106" fill="#00F" fill-rule="nonzero" d="M425.371 21.845h.562c.606 0 1.093.03 1.462.092.37.06.678.158.926.29.314.164.534.4.66.706.133.301.199.807.199 1.517v1.932c0 .7.14 1.198.421 1.494.281.291.755.437 1.421.437.033 0 .088-.003.166-.008a2.88 2.88 0 01.173-.007v1.601h-.306c-.688 0-1.173.143-1.454.43-.28.286-.421.781-.421 1.486v1.932c0 .73-.066 1.244-.198 1.54a1.381 1.381 0 01-.661.69 3.386 3.386 0 01-.942.283 8.634 8.634 0 01-1.686.085 9.241 9.241 0 00-.322-.008v-1.602c.05 0 .118.003.207.008.088.005.148.008.181.008.557 0 .931-.1 1.124-.3.198-.193.297-.602.297-1.226v-1.831c0-.767.124-1.306.372-1.617.248-.317.694-.542 1.339-.675-.645-.138-1.09-.365-1.339-.682-.248-.317-.372-.853-.372-1.61v-1.854c0-.623-.099-1.032-.297-1.226-.193-.2-.567-.299-1.124-.299-.033 0-.093.003-.181.008a3.778 3.778 0 01-.207.007v-1.601"/><path id="text5554" fill="#00F" fill-rule="nonzero" d="M390.43 22.88V37.39h-3.994v-1.62h1.862V24.5h-1.862v-1.618h3.993"/><path id="text5641" fill="#000" fill-rule="nonzero" d="M79.428 86.304l-1.594 4.852h3.196l-1.602-4.852m-1.376-2.283h2.736l4.15 11.399h-2.485l-.782-2.345h-4.463l-.758 2.345h-2.493l4.095-11.4"/><path id="text5645" fill="#000" fill-rule="nonzero" d="M114.889 92.487h2.242c.085.645.333 1.126.743 1.44.41.31 1.002.464 1.777.464.66 0 1.158-.125 1.493-.376.335-.25.502-.621.502-1.112 0-.715-.962-1.307-2.887-1.776a6.848 6.848 0 01-.3-.072c-1.03-.24-1.765-.51-2.205-.809a2.56 2.56 0 01-.893-1.072c-.205-.453-.307-.987-.307-1.6 0-1.147.365-2.025 1.095-2.633.73-.614 1.785-.92 3.165-.92 1.29 0 2.297.325 3.022.976.73.65 1.115 1.568 1.155 2.753h-2.182c-.04-.571-.245-1.006-.615-1.305-.37-.298-.898-.448-1.583-.448-.595 0-1.055.126-1.38.376-.32.246-.48.598-.48 1.057 0 .624.628 1.09 1.883 1.4l.795.2c.805.219 1.375.39 1.71.512.34.123.635.259.885.408.45.267.787.622 1.012 1.065.225.437.338.962.338 1.576 0 1.227-.388 2.18-1.163 2.857-.775.672-1.867 1.008-3.277 1.008-1.39 0-2.48-.344-3.27-1.032-.79-.688-1.215-1.667-1.275-2.937"/><path id="text5649" fill="#000" fill-rule="nonzero" d="M156.959 93.361h1.748c1.012 0 1.743-.284 2.194-.851.455-.573.683-1.499.683-2.778 0-1.274-.21-2.21-.633-2.81-.422-.598-1.081-.897-1.978-.897h-2.014v7.336m-2.137 2.059v-11.4h4.15c1.627 0 2.838.473 3.634 1.417.8.944 1.201 2.376 1.201 4.295 0 1.042-.149 1.96-.446 2.755-.293.794-.72 1.434-1.28 1.919a3.9 3.9 0 01-1.44.782c-.536.154-1.29.232-2.258.232h-3.561"/><path id="text5653" fill="#000" fill-rule="nonzero" d="M194.755 95.42v-11.4h7.987v1.982h-5.664v2.584h4.965v1.982h-4.965v4.852h-2.323"/><path id="text5657" fill="#000" fill-rule="nonzero" d="M241.917 94.733c-.4.593-.856 1.029-1.368 1.306-.508.278-1.106.417-1.794.417-1.507 0-2.73-.572-3.667-1.715-.931-1.148-1.397-2.654-1.397-4.519 0-1.88.466-3.384 1.397-4.51.932-1.128 2.174-1.691 3.726-1.691 1.352 0 2.454.355 3.308 1.065.854.705 1.362 1.678 1.523 2.917h-2.262c-.137-.614-.417-1.082-.842-1.402-.42-.32-.968-.481-1.647-.481-.902 0-1.612.363-2.13 1.09-.512.72-.768 1.72-.768 2.996 0 1.282.268 2.286.805 3.013.537.726 1.274 1.09 2.21 1.09.703 0 1.291-.227 1.764-.681.474-.454.767-1.077.879-1.867h-2.445v-2.02h4.465v6.386h-1.486l-.27-1.394"/><path id="text5661" fill="#000" fill-rule="nonzero" d="M274.622 95.42v-11.4h2.25v4.25h4.485v-4.25h2.25v11.4h-2.25v-5.054h-4.485v5.054h-2.25"/><path id="text5665" fill="#000" fill-rule="nonzero" d="M314.556 90.978h2.484v1.34c0 .386.13.682.39.888.26.2.633.301 1.12.301.53 0 .9-.123 1.11-.369.209-.246.313-.707.313-1.385v-7.732h2.57v7.837c0 .703-.049 1.22-.145 1.551a2.23 2.23 0 01-.458.866c-.327.372-.777.655-1.348.851-.57.196-1.24.294-2.009.294-.707 0-1.331-.086-1.874-.256-.542-.171-.995-.424-1.356-.76a2.392 2.392 0 01-.62-.904c-.118-.337-.177-.889-.177-1.657v-.865"/><path id="text5669" fill="#000" fill-rule="nonzero" d="M353.49 95.42v-11.4h2.31v4.683l4.382-4.682h2.888l-4.48 4.612 4.884 6.787h-2.82l-3.658-5.216-1.196 1.207v4.009h-2.31"/><path id="text5673" fill="#000" fill-rule="nonzero" d="M394.423 95.42v-11.4h2.368v9.295h5.618v2.105h-7.986"/><path id="text5679" fill="#000" fill-rule="nonzero" d="M264.639 55.005v-1.98l6.156-7.353h-6.033v-2.066h8.862v1.981l-6.172 7.36h6.034v2.058h-8.847"/><path id="text5683" fill="#000" fill-rule="nonzero" d="M134.855 134.798l3.55-5.82-3.55-5.579h2.684l2.308 3.985 2.293-3.985h2.699l-3.55 5.564 3.55 5.835h-2.684l-2.308-3.947-2.308 3.947h-2.684"/><path id="text5687" fill="#000" fill-rule="nonzero" d="M184.772 131.451c-.084 1.341-.564 2.407-1.441 3.197-.872.79-2.01 1.186-3.417 1.186-1.62 0-2.88-.545-3.78-1.634-.897-1.09-1.345-2.618-1.345-4.583 0-2.009.458-3.547 1.374-4.616.916-1.068 2.233-1.602 3.952-1.602 1.396 0 2.498.369 3.305 1.106.812.731 1.258 1.768 1.337 3.108h-2.22c-.095-.667-.347-1.175-.758-1.522-.412-.352-.966-.529-1.664-.529-.99 0-1.743.345-2.259 1.034-.515.689-.772 1.696-.772 3.02 0 1.283.255 2.273.765 2.973.515.7 1.246 1.05 2.191 1.05.684 0 1.243-.187 1.68-.561.435-.38.717-.921.846-1.627h2.206"/><path id="text5691" fill="#000" fill-rule="nonzero" d="M217.625 134.798l-3.901-11.399h2.58l2.404 8.528 2.45-8.528h2.55l-3.856 11.399h-2.227"/><path id="text5695" fill="#000" fill-rule="nonzero" d="M256.813 132.74h2.67c.63 0 1.088-.12 1.376-.357.287-.237.431-.61.431-1.122 0-.531-.141-.913-.424-1.145-.282-.237-.749-.356-1.398-.356h-2.655v2.98m0-4.93h2.573c.555 0 .962-.098 1.22-.294.258-.201.387-.516.387-.944 0-.418-.127-.72-.38-.906-.248-.19-.662-.286-1.242-.286h-2.558v2.43m-2.157 6.988v-11.399h5.161c1.121 0 1.974.248 2.56.743.59.49.884 1.205.884 2.143 0 .578-.109 1.06-.327 1.448a2.183 2.183 0 01-.982.897c.565.238.987.58 1.265 1.03.282.443.424.998.424 1.663 0 1.11-.348 1.966-1.042 2.57-.694.603-1.678.905-2.953.905h-4.99"/><path id="text5699" fill="#000" fill-rule="nonzero" d="M294.589 134.798v-11.399h2.346l4.426 7.831V123.4h2.213v11.399h-2.317l-4.455-7.832v7.832h-2.213"/><path id="text5703" fill="#000" fill-rule="nonzero" d="M333.524 134.798v-11.399h3.324l2.174 8.675 2.145-8.675h3.339v11.399h-2.107v-9.194l-2.22 9.194h-2.3l-2.248-9.194v9.194h-2.107"/><g id="g3476" transform="translate(561.145 70.55)"><path id="path5745" fill="#000" d="M10.246 14.192V4.731L0 9.46z"/><path id="path5747" stroke="#000" stroke-width="3" d="M25.615 0v9.462H5.123"/></g><path id="path5757" stroke="#000" stroke-width="2" d="M18.55 130.653l-7.488 9.672h4.991v4.836h4.992v-4.836h4.992z"/><path id="path5801" stroke="#000" stroke-width="2" d="M501.744 130.653l-7.488 9.672h4.992v4.836h4.992v-4.836h4.991z"/><path id="path3083" fill="#000" fill-rule="nonzero" d="M447.271 12.398c0-.055-.002-.128-.008-.219a4.189 4.189 0 01-.008-.21c0-.443.051-.81.153-1.102.101-.297.264-.574.488-.83.171-.191.425-.41.761-.656.342-.247.564-.425.665-.536.214-.226.36-.43.44-.611.08-.181.12-.38.12-.596 0-.478-.14-.85-.424-1.117-.283-.266-.678-.4-1.185-.4-.508 0-.908.161-1.202.483-.288.317-.446.765-.473 1.343h-2.259v-.234c0-1.06.356-1.906 1.066-2.534.715-.634 1.677-.951 2.884-.951 1.233 0 2.213.3 2.94.898.731.593 1.097 1.39 1.097 2.391 0 .352-.043.67-.128.95-.08.277-.206.531-.377.763-.219.291-.558.608-1.017.95-.454.337-.729.546-.825.626-.203.186-.35.383-.44.589a1.927 1.927 0 00-.12.867c.005.06.007.106.007.136h-2.155m-.112 3.229v-2.21h2.363v2.21h-2.363"/><path id="text5819" fill="#000" fill-rule="nonzero" d="M286.602 17.7l3.912-13.472h1.08l-3.927 13.471h-1.065"/><path id="text5928" fill="#00F" fill-rule="nonzero" d="M173.79 71.348c-.084 1.34-.564 2.406-1.44 3.197-.872.79-2.011 1.186-3.418 1.186-1.619 0-2.88-.545-3.78-1.635-.897-1.09-1.345-2.617-1.345-4.583 0-2.008.458-3.547 1.374-4.615.916-1.068 2.234-1.603 3.952-1.603 1.396 0 2.498.369 3.305 1.106.813.732 1.258 1.768 1.337 3.109h-2.22c-.095-.668-.347-1.175-.758-1.522-.411-.353-.966-.53-1.664-.53-.99 0-1.743.345-2.258 1.034-.515.69-.773 1.696-.773 3.021 0 1.282.255 2.273.765 2.973.515.7 1.246 1.05 2.192 1.05.683 0 1.243-.188 1.678-.562.436-.379.718-.921.847-1.626h2.206"/><path id="text5956" fill="#00F" fill-rule="nonzero" d="M161.288 70.602h7.481l-.475.983h-7.482l.476-.983m1.027-2.125h7.482l-.476.983h-7.481l.475-.983"/><path id="path3060" fill="#000" fill-rule="nonzero" d="M246.307 31.467c0 .634.177 1.136.53 1.507.36.371.846.557 1.46.557.573 0 1.022-.18 1.347-.541.324-.36.486-.863.486-1.507 0-.593-.168-1.054-.504-1.383-.336-.33-.808-.495-1.416-.495-.597 0-1.063.165-1.4.495-.335.33-.503.785-.503 1.367m-.035-2.89c.284-.257.626-.45 1.025-.58.4-.133.846-.2 1.339-.2 1.216 0 2.19.33 2.92.989.735.66 1.103 1.538 1.103 2.635 0 1.164-.4 2.105-1.2 2.82-.799.717-1.853 1.075-3.162 1.075-1.512 0-2.662-.464-3.45-1.391-.782-.927-1.173-2.285-1.173-4.073 0-1.921.42-3.39 1.26-4.405.84-1.02 2.05-1.53 3.632-1.53 1.1 0 1.987.255 2.66.765.677.51 1.048 1.2 1.111 2.071h-2.52c-.058-.355-.214-.623-.469-.803-.255-.18-.611-.27-1.069-.27-.625 0-1.106.241-1.442.726-.336.479-.524 1.203-.565 2.171"/><path id="rect10188" fill="#FFF" stroke="#000" d="M508.233 79.876h39.933v39.378h-39.933z"/><path id="path2917" fill="#00F" fill-rule="nonzero" d="M532.193 69.513v1.784c-.512.383-.997.665-1.455.848a3.66 3.66 0 01-1.344.267c-.226 0-.452-.022-.679-.065a4.552 4.552 0 01-.68-.186 22.53 22.53 0 01-.524-.201c-1.078-.404-1.897-.606-2.458-.606-.419 0-.857.102-1.315.307-.453.199-.962.52-1.528.96v-1.784c.526-.387 1.029-.675 1.506-.864.478-.194.928-.29 1.351-.29.576 0 1.293.156 2.15.468a.111.111 0 00.029.008c.088.032.224.083.406.153.763.296 1.354.444 1.772.444.418 0 .85-.1 1.292-.298.443-.2.935-.514 1.477-.945"/><path id="path2915" fill="#000" fill-rule="nonzero" d="M517.137 108.474l-.651 1.887h1.856l.636-1.887h-1.841m0-4.764h1.634l-1.08 3.21h1.79l1.094-3.21h1.635l-1.095 3.21h2.093l-.547 1.554h-2.07l-.622 1.871h2.145l-.526 1.547h-2.152l-1.094 3.217h-1.634l1.094-3.217h-1.804l-1.102 3.217h-1.627l1.08-3.217h-2.123l.562-1.547h2.086l.636-1.871h-2.211l.547-1.555h2.196l1.095-3.21"/><path id="rect10196" fill="#FFF" stroke="#000" d="M49.997 119.254H89.93v39.378H49.997z"/><path id="text5910" fill="#00F" fill-rule="nonzero" d="M106.902 31.171c.018-.655.181-1.209.49-1.661.316-.452.87-.91 1.661-1.373l.473-.262c1.101-.594 1.652-1.167 1.652-1.72 0-.323-.11-.577-.33-.763-.22-.187-.524-.28-.911-.28-.428 0-.759.116-.99.347-.233.226-.349.551-.349.975v.068h-1.553c0-.83.259-1.47.776-1.915.518-.447 1.259-.67 2.223-.67.869 0 1.56.203 2.071.61.518.401.777.938.777 1.61 0 .486-.134.904-.402 1.255-.268.35-.791.754-1.571 1.211-.173.108-.417.249-.732.424-.714.395-1.116.706-1.205.932h3.838v1.212h-5.918"/><path id="text5922" fill="#00F" fill-rule="nonzero" d="M146.835 29.844h1.603c.012.4.127.7.344.898.217.197.543.296.978.296.417 0 .74-.093.969-.28.229-.187.343-.453.343-.799 0-.35-.132-.614-.396-.79-.264-.181-.66-.272-1.19-.272h-.255v-.98h.185c.488 0 .846-.076 1.075-.23.235-.16.352-.4.352-.725 0-.274-.1-.49-.3-.65-.199-.165-.466-.247-.8-.247-.37 0-.656.093-.855.28-.2.181-.3.442-.3.782v.05h-1.568c.018-.72.265-1.269.74-1.647.482-.385 1.166-.577 2.053-.577.834 0 1.491.17 1.973.51.487.341.731.805.731 1.392 0 .308-.085.58-.255.815-.165.231-.412.42-.74.569.428.159.751.381.969.667.223.28.334.609.334.988 0 .713-.276 1.279-.828 1.696-.546.411-1.292.617-2.237.617-.934 0-1.656-.203-2.167-.609-.505-.406-.758-.98-.758-1.72v-.034"/><path id="path3131" fill="#000" fill-rule="nonzero" d="M131.142 12.276c.232-.12.406-.254.522-.4a.747.747 0 00.174-.472.728.728 0 00-.2-.519c-.133-.147-.409-.317-.826-.51l-2.306-1.078c-.226.121-.4.257-.522.41a.789.789 0 00-.174.486c0 .205.084.386.253.543.174.152.554.364 1.14.636l1.94.904m-4.733 2.57h2.149c.046.41.18.713.4.912.226.2.545.299.957.299.383 0 .687-.081.913-.244a.799.799 0 00.34-.676c0-.23-.085-.43-.253-.597-.168-.173-.501-.37-1-.59l-2.08-.95c-.66-.3-1.154-.642-1.479-1.03a1.98 1.98 0 01-.487-1.305c0-.466.125-.875.374-1.226.256-.356.63-.652 1.123-.888a2.377 2.377 0 01-.644-.77 2.09 2.09 0 01-.209-.936c0-.786.299-1.417.896-1.894.598-.482 1.392-.723 2.384-.723 1.02 0 1.821.236 2.401.707.58.472.879 1.124.896 1.957h-2.053c-.012-.35-.128-.618-.348-.801-.215-.184-.525-.275-.93-.275-.36 0-.639.07-.836.212a.7.7 0 00-.287.597c0 .21.113.406.34.59.231.178.646.393 1.243.644l1.462.613c.742.32 1.29.676 1.644 1.07.354.387.53.835.53 1.343 0 .477-.133.894-.4 1.25-.26.35-.637.623-1.13.817.336.267.588.564.757.888.168.325.252.682.252 1.07 0 .806-.32 1.472-.957 1.996-.638.529-1.459.793-2.462.793-1.102 0-1.95-.24-2.54-.723-.592-.482-.914-1.192-.966-2.13"/><path id="text6073" fill="#000" fill-rule="nonzero" d="M444.34 35.039v-8.34c0-.83.334-1.5 1.002-2.01.668-.514 1.559-.772 2.672-.772 1.135 0 2.023.25 2.665.75.642.5.963 1.187.963 2.062 0 .54-.095.983-.287 1.328-.186.345-.477.61-.87.795.611.235 1.07.58 1.375 1.035.31.455.466 1.014.466 1.68 0 1.12-.334 2.024-1.002 2.714-.668.69-1.544 1.035-2.626 1.035-.15 0-.319-.007-.505-.022a10.34 10.34 0 01-.59-.068v-1.755a2.769 2.769 0 00.52.03c.611 0 1.083-.162 1.414-.487.331-.33.497-.798.497-1.403 0-.585-.181-1.03-.544-1.334-.357-.305-.88-.458-1.569-.458h-.21l.008-1.537.101.015h.163c.461 0 .81-.11 1.049-.33.243-.225.365-.55.365-.975 0-.425-.127-.748-.38-.968-.25-.225-.614-.337-1.096-.337-.445 0-.785.125-1.018.375-.233.245-.35.605-.35 1.08v7.897h-2.214"/><path id="path2750" fill="#000" fill-rule="nonzero" d="M417.384 129.151v-2.643h1.997v2.643h-1.997m0 6.683v-2.626h1.997v2.626h-1.997"/><path id="path2746" fill="#000" fill-rule="nonzero" d="M377.464 128.949v-2.441h1.984v2.44h-1.984m0 8.959v-.943c.37-.129.641-.327.817-.596.176-.268.264-.618.264-1.047v-.202h-1.094v-2.424h1.997v2.328c0 .805-.167 1.45-.501 1.933-.334.489-.828.806-1.483.95"/><path id="text5803" fill="#000" fill-rule="nonzero" d="M377.45 157.596v-.937c.37-.128.642-.326.818-.593.176-.267.264-.614.264-1.04v-.201h-1.081v-2.41h1.997v2.314c0 .795-.17 1.436-.508 1.922-.334.486-.83.8-1.49.945"/><path id="text5813" fill="#000" fill-rule="nonzero" d="M417.384 154.487v-2.072h1.997v2.072h-1.997"/><path id="path2737" fill="#000" fill-rule="nonzero" d="M63.973 145.16v1.75l-6.81 2.918 6.81 2.909v1.75l-8.985-3.876v-1.59l8.985-3.86"/><path id="path2742" fill="#000" fill-rule="nonzero" d="M54.988 125.472l8.985 3.86v1.59l-8.985 3.876v-1.75l6.827-2.91-6.827-2.916v-1.75"/><path id="text6003" fill="#000" fill-rule="nonzero" d="M477.764 86.458l-1.594 4.77h3.196l-1.602-4.77m-1.375-2.244h2.735l4.15 11.206h-2.485l-.782-2.305h-4.463l-.758 2.305h-2.493l4.096-11.206m1.868-1.43v-1.872h1.766v1.871h-1.766m-2.72 0v-1.871h1.766v1.871h-1.766"/><path id="text6023" fill="#000" fill-rule="nonzero" d="M464.306 43.7h2.33v6.881c0 .85.173 1.47.518 1.862.345.388.893.581 1.645.581.761 0 1.314-.193 1.66-.58.35-.388.525-1.009.525-1.863V43.7h2.307v7.127c0 1.346-.386 2.378-1.157 3.098-.767.72-1.873 1.08-3.32 1.08-1.457 0-2.574-.357-3.35-1.072-.772-.72-1.158-1.755-1.158-3.106V43.7m4.972-1.37v-1.833H471v1.833h-1.72m-2.65 0v-1.833h1.72v1.833h-1.72"/><path id="text6041" fill="#000" fill-rule="nonzero" d="M434.716 89.64c0 1.207.274 2.145.824 2.816.549.665 1.316.998 2.303.998.996 0 1.771-.333 2.326-.998.554-.67.83-1.61.83-2.816 0-1.206-.276-2.142-.83-2.807-.555-.67-1.33-1.006-2.326-1.006-.987 0-1.754.333-2.303.998-.55.666-.824 1.604-.824 2.815m-2.357 0c0-1.772.494-3.177 1.48-4.215.991-1.043 2.326-1.564 4.004-1.564 1.677 0 3.012.521 4.003 1.564.997 1.043 1.495 2.448 1.495 4.215 0 1.768-.498 3.173-1.495 4.216-.991 1.042-2.326 1.564-4.003 1.564-1.678 0-3.013-.522-4.004-1.564-.986-1.043-1.48-2.448-1.48-4.216m5.964-6.896v-1.832h1.724v1.832h-1.724m-2.654 0v-1.832h1.724v1.832h-1.724"/><path id="path2893" fill="#00F" fill-rule="nonzero" d="M90.991 73.43c-.274.422-.59.733-.949.934-.359.195-.782.293-1.27.293-.788 0-1.388-.215-1.802-.647-.408-.431-.613-1.069-.613-1.912 0-1.199.347-2.205 1.04-3.018.697-.812 1.554-1.219 2.57-1.219.4 0 .745.083 1.04.249.293.165.535.411.724.737l.397-.737h1.33l-1.099 4.5a1.757 1.757 0 00-.052.309c0 .175.06.308.18.399.119.085.296.128.53.128.194 0 .396-.05.605-.151.215-.1.414-.24.598-.421a3.96 3.96 0 00.972-1.408 4.545 4.545 0 00.336-1.768c0-1.205-.463-2.193-1.39-2.966-.922-.777-2.113-1.166-3.573-1.166a7.25 7.25 0 00-1.965.256 5.609 5.609 0 00-1.645.76 5.949 5.949 0 00-1.958 2.145 5.946 5.946 0 00-.68 2.822c0 1.54.516 2.772 1.547 3.695 1.032.918 2.41 1.378 4.133 1.378.808 0 1.595-.123 2.362-.37a7.857 7.857 0 002.153-1.068l.613.88a8.585 8.585 0 01-2.43 1.303 8.199 8.199 0 01-2.668.436c-.956 0-1.836-.123-2.638-.369a6.607 6.607 0 01-2.138-1.076c-.772-.607-1.35-1.307-1.734-2.1-.383-.792-.575-1.69-.575-2.694 0-.838.13-1.636.388-2.393a6.747 6.747 0 011.159-2.077 7.198 7.198 0 012.66-2.062c1.037-.467 2.19-.7 3.461-.7.842 0 1.632.115 2.37.346a6.101 6.101 0 011.935.963c.673.527 1.174 1.129 1.503 1.806.334.673.5 1.433.5 2.28 0 .829-.164 1.594-.493 2.296a4.984 4.984 0 01-1.405 1.791c-.349.281-.73.497-1.144.648a3.781 3.781 0 01-1.278.218c-.528 0-.926-.106-1.195-.316-.265-.211-.402-.522-.412-.933m.374-3.222c-.065-.406-.21-.715-.433-.925-.22-.216-.511-.324-.875-.324-.568 0-1.061.311-1.48.933-.418.622-.628 1.37-.628 2.243 0 .462.1.813.3 1.054.204.24.498.36.881.36.414 0 .79-.157 1.129-.473.344-.316.578-.728.703-1.234l.403-1.634"/><path id="path2898" fill="#00F" fill-rule="nonzero" d="M469.216 37.389l-3.912-13.472h1.065l3.927 13.472h-1.08"/><path id="path2919" fill="#000" fill-rule="nonzero" d="M516.22 82.984h1.996v5.182h-1.996v-5.182"/><path id="text6099" fill="red" fill-rule="nonzero" d="M490.263 22.88l-2.747 3.11h-1.246l1.729-3.11h2.264"/><path id="text5103" fill="red" fill-rule="nonzero" d="M485.271 3.192h2.265l1.729 3.109h-1.247l-2.747-3.11"/><path id="text6117" fill="#00F" fill-rule="nonzero" d="M356.42 146.197h2.083l-.548 3.24c-.072.398-.127.776-.166 1.133a8.3 8.3 0 00-.057.864c0 .462.1.808.302 1.036.202.224.51.335.922.335.48 0 .853-.203 1.117-.61.27-.408.493-1.13.67-2.169l.649-3.83h2.082l-1.39 8.137h-1.931l.13-.872c-.202.387-.428.67-.678.85a1.439 1.439 0 01-.872.267c-.322 0-.608-.074-.857-.223-.25-.144-.476-.37-.678-.678l-.648 3.919h-2.06l1.93-11.4"/><path id="path3396" fill="#00F" fill-rule="nonzero" d="M78.948 141.016h1.997v15.544h-1.997v-15.544"/><path id="path3403" fill="#000" fill-rule="nonzero" d="M9.564 5.327c-.4 0-.744.145-1.03.435-.28.29-.42.64-.42 1.048 0 .42.14.776.42 1.065.28.29.624.435 1.03.435.395 0 .733-.148 1.013-.443.28-.296.42-.648.42-1.057 0-.409-.14-.758-.42-1.048a1.358 1.358 0 00-1.013-.435m0-1.099c.692 0 1.28.256 1.763.767a2.54 2.54 0 01.733 1.832 2.53 2.53 0 01-.733 1.824 2.382 2.382 0 01-1.78.758 2.36 2.36 0 01-1.762-.75c-.478-.5-.717-1.11-.717-1.832 0-.721.242-1.335.725-1.84a2.373 2.373 0 011.771-.759"/><path id="text6091" fill="red" fill-rule="nonzero" d="M8.632 23.917h1.865l3.56 5.181h-1.74l-2.746-3.426-2.76 3.426H5.07l3.56-5.18"/><path id="path2585" stroke="#000" stroke-width="2" d="M18.55 109.927l7.487-9.671h-4.992V95.42h-4.992v4.836h-4.991z"/><text id="Strg" fill="#000" font-family="OpenSans-Regular, Open Sans" font-size="16" font-weight="normal"><tspan x="10.982" y="185.293">Strg</tspan></text><text id="tspan3451" fill="#000" font-family="OpenSans-Regular, Open Sans" font-size="16" font-weight="normal"><tspan x="553.078" y="185.293">Strg</tspan></text><g id="text3456" fill="#000" font-family="OpenSans-Regular, Open Sans" font-size="16" font-weight="normal" transform="translate(116.805 167.948)"><text id="tspan3460"><tspan x="0" y="17.345">Al</tspan> <tspan x="0" y="39.345">t</tspan></text></g><text id="tspan3466" fill="#00F" font-family="OpenSans-Regular, Open Sans" font-size="16" font-weight="normal"><tspan x="405.324" y="185.293">Alt Gr</tspan></text><text id="Win" fill="#000" font-family="OpenSans-Regular, Open Sans" font-size="16" font-weight="normal"><tspan x="64.892" y="185.293">Win</tspan></text><text id="Win" fill="#000" font-family="OpenSans-Regular, Open Sans" font-size="16" font-weight="normal"><tspan x="464.226" y="185.293">Win</tspan></text><text id="Menu" fill="#000" font-family="OpenSans-Regular, Open Sans" font-size="14" font-weight="normal"><tspan x="499.171" y="185.293">Menu</tspan></text><circle id="Oval" cx="109.94" cy="138" r="26" stroke="#EE714E" stroke-width="5"/></g></g></g></g></svg>