<svg xmlns="http://www.w3.org/2000/svg" width="552" height="403" viewBox="0 0 552 403"><defs><style>@import url(https://fonts.googleapis.com/css?family=Open+Sans:bold,italic,bolditalic%7CPT+Mono);@font-face{font-family:&apos;PT Mono&apos;;font-weight:700;font-style:normal;src:local(&apos;PT MonoBold&apos;),url(/font/PTMonoBold.woff2) format(&apos;woff2&apos;),url(/font/PTMonoBold.woff) format(&apos;woff&apos;),url(/font/PTMonoBold.ttf) format(&apos;truetype&apos;)}</style></defs><g id="dom" fill="none" fill-rule="evenodd" stroke="none" stroke-width="1"><g id="dom-class-hierarchy.svg"><path id="Rectangle-9" fill="#FBF2EC" stroke="#DBAF88" stroke-width="2" d="M181 6h118v28H181z"/><path id="Rectangle-8" fill="#FBF2EC" stroke="#DBAF88" stroke-width="2" d="M181 74h118v28H181z"/><text id="EventTarget" fill="#AF6E24" font-family="PTMono-Regular, PT Mono" font-size="12" font-weight="normal"><tspan x="200.9" y="24">EventTarget</tspan></text><text id="Node" fill="#AF6E24" font-family="PTMono-Regular, PT Mono" font-size="12" font-weight="normal"><tspan x="225.6" y="91">Node </tspan></text><path id="Line-2" fill="#C06334" fill-rule="nonzero" d="M240.5 39.5l7 14h-6v17h-2v-17h-6l7-14z"/><path id="Rectangle-8-Copy" fill="#FBF2EC" stroke="#DBAF88" stroke-width="2" d="M181 144h118v28H181z"/><text id="Element" fill="#AF6E24" font-family="PTMono-Regular, PT Mono" font-size="12" font-weight="normal"><tspan x="214.8" y="161">Element </tspan></text><path id="Line-2-Copy" fill="#C06334" fill-rule="nonzero" d="M240.5 109.5l7 14h-6v17h-2v-17h-6l7-14z"/><path id="Rectangle-8-Copy-4" fill="#FBF2EC" stroke="#DBAF88" stroke-width="2" d="M181 230h118v28H181z"/><text id="HTMLElement" fill="#AF6E24" font-family="PTMono-Regular, PT Mono" font-size="12" font-weight="normal"><tspan x="200.4" y="247">HTMLElement </tspan></text><path id="Line-2-Copy-4" fill="#C06334" fill-rule="nonzero" d="M240.5 195.5l7 14h-6v17h-2v-17h-6l7-14zM72.5 158.5l7.273 13.86-5.999.117L74 183.98l.02 1-2 .04-.02-1-.226-11.503-5.998.118L72.5 158.5z"/><path id="Rectangle-8-Copy-6" fill="#FBF2EC" stroke="#DBAF88" stroke-width="2" d="M171 300h138v28H171z"/><text id="HTMLBodyElement" fill="#AF6E24" font-family="PTMono-Regular, PT Mono" font-size="12" font-weight="normal"><tspan x="186" y="317">HTMLBodyElement </tspan></text><path id="Line-2-Copy-6" fill="#C06334" fill-rule="nonzero" d="M240.5 265.5l7 14h-6v17h-2v-17h-6l7-14z"/><path id="Rectangle-8-Copy-7" fill="#FBF2EC" stroke="#DBAF88" stroke-width="2" d="M1 300h138v28H1z"/><text id="HTMLInputElement" fill="#AF6E24" font-family="PTMono-Regular, PT Mono" font-size="12" font-weight="normal"><tspan x="13.4" y="317">HTMLInputElement </tspan></text><path id="Line-2-Copy-7" fill="#C06334" fill-rule="nonzero" d="M159 261l-6.753 14.12-3.685-4.736-29.448 22.905-.79.614-1.227-1.578.79-.614 29.448-22.906-3.684-4.735L159 261z"/><path id="Rectangle-8-Copy-8" fill="#FBF2EC" stroke="#DBAF88" stroke-width="2" d="M339 300h138v28H339z"/><text id="HTMLAnchorElement" fill="#AF6E24" font-family="PTMono-Regular, PT Mono" font-size="12" font-weight="normal"><tspan x="348.3" y="317">HTMLAnchorElement </tspan></text><path id="Line-2-Copy-8" fill="#C06334" fill-rule="nonzero" d="M312 261l15.305 3.28-3.749 4.684 29.069 23.255.78.625-1.249 1.562-.78-.625-29.069-23.254-3.748 4.685L312 261z"/><path id="Rectangle-8-Copy-2" fill="#FBF2EC" stroke="#DBAF88" stroke-width="2" d="M22 126h98v28H22z"/><text id="Document" fill="#AF6E24" font-family="PTMono-Regular, PT Mono" font-size="12" font-weight="normal"><tspan x="42.2" y="144">Document </tspan></text><path id="Rectangle-8-Copy-2" fill="#FBF2EC" stroke="#DBAF88" stroke-width="2" d="M22 192h98v28H22z"/><text id="HTMLDocument" fill="#AF6E24" font-family="PTMono-Regular, PT Mono" font-size="12" font-weight="normal"><tspan x="27.8" y="210">HTMLDocument </tspan></text><path id="Line-2-Copy-2" fill="#C06334" fill-rule="nonzero" d="M168 90l-8.862 12.902-2.905-5.251-34.749 19.224-.875.484-.968-1.75.875-.484 34.749-19.224-2.904-5.25L168 90z"/><path id="Rectangle-8-Copy-3" fill="#FBF2EC" stroke="#DBAF88" stroke-width="2" d="M369 126h118v28H369z"/><text id="CharacterData" fill="#AF6E24" font-family="PTMono-Regular, PT Mono" font-size="12" font-weight="normal"><tspan x="381.2" y="144">CharacterData </tspan></text><path id="Line-2-Copy-3" fill="#C06334" fill-rule="nonzero" d="M314 91l15.648.379-2.813 5.299 36.634 19.439.883.468-.937 1.767-.884-.469-36.633-19.439-2.812 5.301L314 91zM458 159l13.93 7.138-4.836 3.552 9.712 13.218.592.806-1.612 1.184-.592-.806-9.712-13.218-4.834 3.553L458 159zM400 158l-1.376 15.592-5.11-3.146-8.662 14.078-.524.852-1.704-1.048.524-.852 8.663-14.078-5.11-3.143L400 158z"/><text id="Document-as-a-whole" fill="#C06334" font-family="PTMono-Regular, PT Mono" font-size="12" font-weight="normal"><tspan x="6.6" y="235">Document as a whole</tspan></text><text id="&lt;input-type=&quot;…&quot;&gt;" fill="#C06334" font-family="PTMono-Regular, PT Mono" font-size="12" font-weight="normal"><tspan x="13.4" y="341">&lt;input type=&quot;…&quot;&gt;</tspan></text><text id="&lt;body&gt;" fill="#C06334" font-family="PTMono-Regular, PT Mono" font-size="12" font-weight="normal"><tspan x="220.4" y="341">&lt;body&gt;</tspan></text><text id="&lt;a-href=&quot;…&quot;&gt;" fill="#C06334" font-family="PTMono-Regular, PT Mono" font-size="12" font-weight="normal"><tspan x="365.8" y="341">&lt;a href=&quot;…&quot;&gt;</tspan></text><text id="&lt;div&gt;...&lt;/div&gt;" font-family="PTMono-Regular, PT Mono" font-size="12" font-weight="normal"><tspan x="192.6" y="188" fill="#AF6E24">&lt;</tspan> <tspan x="199.8" y="188" fill="#C06334">div</tspan> <tspan x="221.4" y="188" fill="#AF6E24">&gt;</tspan> <tspan x="228.6" y="188" fill="#DBAF88">...</tspan> <tspan x="250.2" y="188" fill="#AF6E24">&lt;/</tspan> <tspan x="264.6" y="188" fill="#C06334">div</tspan> <tspan x="286.2" y="188" fill="#AF6E24">&gt;</tspan></text><path id="Rectangle-8-Copy-3" fill="#FBF2EC" stroke="#DBAF88" stroke-width="2" d="M449 192h78v28h-78z"/><text id="Comment" fill="#AF6E24" font-family="PTMono-Regular, PT Mono" font-size="12" font-weight="normal"><tspan x="463.8" y="210">Comment </tspan></text><text id="&lt;!--comment--&gt;" fill="#C06334" font-family="PTMono-Regular, PT Mono" font-size="12" font-weight="normal"><tspan x="442.6" y="237">&lt;!--comment--&gt;</tspan></text><path id="Rectangle-8-Copy-3" fill="#FBF2EC" stroke="#DBAF88" stroke-width="2" d="M342 192h78v28h-78z"/><text id="Text" fill="#AF6E24" font-family="PTMono-Regular, PT Mono" font-size="12" font-weight="normal"><tspan x="365.6" y="210">Text </tspan></text><text id="&quot;Hello&quot;" fill="#C06334" font-family="PTMono-Regular, PT Mono" font-size="12" font-weight="normal"><tspan x="356.8" y="237">&quot;Hello&quot;</tspan></text></g></g></svg>