<?xml version="1.0" encoding="UTF-8" standalone="no"?>
<svg width="526px" height="400px" viewBox="0 0 526 400" version="1.1" xmlns="http://www.w3.org/2000/svg" xmlns:xlink="http://www.w3.org/1999/xlink" xmlns:sketch="http://www.bohemiancoding.com/sketch/ns">
    <!-- Generator: Sketch 3.2.2 (9983) - http://www.bohemiancoding.com/sketch -->
    <title>Slice 1</title>
    <desc>Created with Sketch.</desc>
    <defs></defs>
    <g id="JavaScript-limitations" stroke="none" stroke-width="1" fill="none" fill-rule="evenodd" sketch:type="MSPage">
        <g id="left222-3" sketch:type="MSLayerGroup" transform="translate(178.000000, 127.500000) rotate(38.000000) translate(-178.000000, -127.500000) translate(134.000000, 105.000000)" fill="#979797">
            <path d="M6.64330313,20.3059371 L20.4222892,6.83035695 C22.0355483,5.5556141 25.607455,2.40296573 23.9941958,1.12841144 C22.3809367,-0.147085698 21.3297635,0.656003962 19.7188895,1.93150111 L1.22069045,20.3059377 C-0.392568714,21.5806806 -0.392568665,23.1506679 1.22069049,24.4252222 C1.22069049,24.4252222 22.7029916,44.4928841 23.9941954,44.4928841 C26.9992572,44.4928841 26.6714243,42.6718286 25.0581651,41.3972743 L6.64330358,23.5710517 L41.6317837,23.5710517 L65.0133245,23.5710517 L83.8176247,23.5710517 C86.0982256,23.5710517 87.5677745,23.8497165 87.5677745,22.0465965 C87.5677745,20.2434765 86.0982248,20.3059371 83.8176239,20.3059371 L6.64330313,20.3059371 Z" id="Shape" sketch:type="MSShapeGroup"></path>
        </g>
        <path d="M181,129 L191,137" id="Line" stroke="#FFFFFF" stroke-width="4.33212996" stroke-linecap="square" sketch:type="MSShapeGroup"></path>
        <g id="thumb36" sketch:type="MSLayerGroup" transform="translate(168.000000, 116.000000)" fill="#000000">
            <path d="M27.3434575,14.1710313 C26.3813575,13.27475 25.0534927,13.0563437 23.8811937,12.8669375 C23.6969224,12.836125 23.514503,12.8062187 23.3357876,12.7745 C23.2033715,12.7400625 23.034842,12.7029062 22.8644605,12.6630313 C21.3013951,12.3077813 20.1966931,11.9606875 20.1929892,10.70825 C20.1892852,9.8835625 20.4670812,9.1205 20.760619,8.3103125 C21.0967521,7.38321875 21.444923,6.42259375 21.3902898,5.3051875 C21.2838014,3.31325 20.4207819,1.5805 19.0771754,0.667 C18.5419551,0.2483125 17.8372794,0 17.1659391,0 C16.1686515,0 15.4241583,0.5310625 15.1213607,1.4554375 C14.9074578,2.0789375 14.9435713,2.68521875 14.9815368,3.32684375 C14.9898706,3.48453125 15.0009825,3.64675 15.0056124,3.8153125 C15.0435779,4.69890625 14.9352374,5.42934375 14.6713313,6.119 C14.1712985,7.49740625 13.1684551,8.7815625 12.3498829,9.7494375 L11.9026314,10.2995312 C11.2766645,11.0725625 10.6303259,11.871875 9.89509252,12.5135 C9.53395775,12.792625 9.14874734,12.894125 8.65334452,12.9983437 C8.51352055,13.0074062 0,13.089875 0,13.089875 L0,25.335125 C0,25.335125 6.67728918,25.3269688 7.05231374,25.3052188 C7.38196496,25.2861875 7.69957835,25.2680625 7.99033814,25.2680625 L8.12553218,25.2680625 C8.40055019,25.3251562 8.67834616,25.3541562 8.96817996,25.385875 C9.22560422,25.4121562 9.49228836,25.44025 9.7719363,25.4928125 C10.0858458,25.5517187 10.410867,25.8516875 10.7257025,26.1425937 C10.9071958,26.3111562 11.0859112,26.473375 11.2627747,26.596625 C11.4433421,26.719875 11.6174275,26.8449375 11.796143,26.9718125 C12.341549,27.3596875 12.9073268,27.763875 13.5481095,28.0439062 C14.3389021,28.3774062 15.2121074,28.4870625 16.0584591,28.5930938 C16.4695972,28.6456563 16.8779573,28.6945937 17.2687236,28.771625 C17.5242959,28.7997188 17.7437547,28.8241875 17.9659915,28.8495625 C18.6280719,28.9220625 19.3142279,29 20.000384,29 C20.4643033,29 20.8726633,28.96375 21.2495399,28.8903437 C22.6024063,28.51425 23.4635738,27.4403438 23.4644998,26.2078438 C24.1515818,25.9395938 24.7664369,25.3777187 25.1553512,24.6581563 C25.5025962,24.0147188 25.6192705,23.3259688 25.4933363,22.7169687 C26.7999034,21.8805 27.4740216,20.3126875 27.1110349,18.9669063 C27.6869985,18.5790312 28.0851728,17.9283437 28.2231448,17.1371875 C28.414824,16.040625 28.069431,14.8760937 27.3434575,14.1710313 L27.3434575,14.1710313 Z M26.4619183,16.62425 C26.4174709,17.00125 26.2415335,17.4670625 25.655384,17.5712812 C25.3396226,17.6591875 25.1284976,17.8404375 25.0266391,18.092375 C24.9034829,18.3977813 24.9497822,18.7802187 25.1516473,19.107375 C25.3636982,19.353875 25.3970337,19.868625 25.2710996,20.3172188 C25.099792,20.8500938 24.7016178,21.228 24.0858367,21.4319063 C23.8237825,21.463625 23.5895079,21.6421563 23.4607958,21.913125 C23.3144899,22.2221563 23.3468995,22.5574688 23.5478385,22.7885625 C23.721924,23.03325 23.6885885,23.5833438 23.448758,24.0364688 C23.2580047,24.3944375 22.9866907,24.6092188 22.7227845,24.6092188 C22.685745,24.6092188 22.6487056,24.6055938 22.6107401,24.5965313 L22.5690707,24.588375 L22.5264754,24.588375 C22.203306,24.588375 21.7829081,24.726125 21.5745612,25.0424063 C21.4375151,25.2490313 21.4180694,25.5009688 21.5217799,25.733875 C21.6504921,26.0719063 21.6366023,26.4579688 21.4764066,26.7171563 C21.3606583,26.9056563 21.1763869,27.0162188 20.9272965,27.0479375 C20.484675,27.162125 20.0439054,27.162125 19.6170255,27.162125 C18.347498,27.0515625 17.0001875,26.9310313 15.6991764,26.70175 L15.0787654,26.5649063 C14.756522,26.4942188 14.4379826,26.4253438 14.1546308,26.3555625 C13.6888595,26.1308125 13.1675291,25.7456563 12.6647184,25.3722813 C12.4971148,25.2499375 12.3341411,25.1275938 12.1730195,25.0134063 C12.0554192,24.9227813 11.927633,24.8040625 11.7979949,24.6844375 C11.4664917,24.3808438 11.0951711,24.0364688 10.6321778,23.9123125 C10.1969641,23.6495 9.73304487,23.6495 9.35709432,23.6495 C8.14405191,23.5398438 7.57179221,23.1102813 7.27640249,22.0699063 C6.98564271,21.0222813 6.97545685,19.8260313 6.99212461,18.7892813 L6.99582856,18.556375 C7.00508842,17.5794375 7.02083019,16.3578125 7.53290077,15.4696875 C7.78754708,15.047375 8.29498772,14.95675 8.88298919,14.8470938 C9.6960054,14.7175 10.3358621,14.4555938 10.9340495,14.0060938 C11.0183142,13.9761875 11.106283,13.9145625 11.171102,13.7985625 C11.4146365,13.6354375 11.6137236,13.3970938 11.795217,13.1823125 C12.758243,12.1600625 13.6434862,11.0925 14.3398281,10.1119375 C14.5018757,9.8763125 14.6648494,9.64975 14.825045,9.425 C15.5639823,8.3900625 16.3306992,7.31978125 16.6566465,6.0011875 C16.8881431,5.03059375 16.8659194,4.1905 16.8140642,3.19453125 L16.8066563,3.04590625 C16.7677649,2.439625 16.757579,1.787125 17.1076019,1.73909375 C17.1316776,1.73546875 17.1603832,1.73184375 17.1890888,1.73184375 C17.7557925,1.73184375 18.4706542,2.43146875 18.895682,3.0794375 C19.3392296,3.9023125 19.5707262,4.76415625 19.5466506,5.5444375 C19.5235009,6.354625 19.2540388,7.1213125 18.967909,7.93421875 C18.6308498,8.8939375 18.2817529,9.88809375 18.3623137,10.96925 C18.4780621,12.4419063 19.6725847,13.7151875 21.3347306,14.1375 C21.8208736,14.26075 22.3357221,14.3432188 22.8329769,14.4220625 C23.7608155,14.5697813 24.7201375,14.7229375 25.5025962,15.1525 C26.0146668,15.402625 26.5582209,15.9309687 26.4619183,16.62425 L26.4619183,16.62425 Z" id="Shape" sketch:type="MSShapeGroup"></path>
        </g>
        <rect id="Rectangle-1" stroke="#979797" stroke-width="1.44404332" sketch:type="MSShapeGroup" x="151" y="163" width="145" height="87" rx="2.16606498"></rect>
        <path d="M454.5,239.5 L456,241" id="Line" stroke="#979797" stroke-width="0.722021661" stroke-linecap="square" sketch:type="MSShapeGroup"></path>
        <path d="M152.36,182 L295.64,182" id="Line" stroke="#979797" stroke-width="0.722021661" stroke-linecap="square" sketch:type="MSShapeGroup"></path>
        <text id="http://javascript.in" sketch:type="MSTextLayer" font-family="Open Sans" font-size="10.1083032" font-weight="normal" fill="#373535">
            <tspan x="176" y="176">http://javascript.info</tspan>
        </text>
        <text id="&lt;script&gt;" sketch:type="MSTextLayer" font-family="Open Sans" font-size="10.1083032" font-weight="normal" fill="#979797">
            <tspan x="176" y="198">&lt;script&gt;</tspan>
            <tspan x="176" y="212">...</tspan>
            <tspan x="176" y="226">&lt;/script&gt;</tspan>
        </text>
        <circle id="Oval-1" stroke="#979797" stroke-width="0.722021661" sketch:type="MSShapeGroup" cx="158" cy="172" r="2"></circle>
        <circle id="Oval-2" stroke="#979797" stroke-width="0.722021661" sketch:type="MSShapeGroup" cx="164" cy="172" r="2"></circle>
        <circle id="Oval-3" stroke="#979797" stroke-width="0.722021661" sketch:type="MSShapeGroup" cx="170" cy="172" r="2"></circle>
        <rect id="Rectangle-2" stroke="#979797" stroke-width="1.44404332" sketch:type="MSShapeGroup" x="381" y="163" width="145" height="87" rx="2.16606498"></rect>
        <path d="M381.36,182 L524.64,182" id="Line-2" stroke="#979797" stroke-width="0.722021661" stroke-linecap="square" sketch:type="MSShapeGroup"></path>
        <text id="http://gmail.com" sketch:type="MSTextLayer" font-family="Open Sans" font-size="10.1083032" font-weight="normal" fill="#373535">
            <tspan x="405" y="176">http://gmail.com</tspan>
        </text>
        <circle id="Oval-4" stroke="#979797" stroke-width="0.722021661" sketch:type="MSShapeGroup" cx="388" cy="172" r="2"></circle>
        <circle id="Oval-5" stroke="#979797" stroke-width="0.722021661" sketch:type="MSShapeGroup" cx="393" cy="172" r="2"></circle>
        <circle id="Oval-6" stroke="#979797" stroke-width="0.722021661" sketch:type="MSShapeGroup" cx="399" cy="172" r="2"></circle>
        <g id="left222" sketch:type="MSLayerGroup" transform="translate(219.000000, 301.500000) rotate(-89.000000) translate(-219.000000, -301.500000) translate(175.000000, 279.000000)" fill="#979797">
            <path d="M6.67411134,20.3059371 L20.5169972,6.83035695 C22.1377378,5.5556141 25.7262091,2.40296573 24.1054685,1.12841144 C22.4847279,-0.147085698 21.42868,0.656003962 19.8103355,1.93150111 L1.22635138,20.3059377 C-0.394389245,21.5806806 -0.394389196,23.1506679 1.22635143,24.4252222 C1.22635143,24.4252222 22.8082763,44.4928841 24.1054681,44.4928841 C27.1244658,44.4928841 26.7951125,42.6718286 25.1743719,41.3972743 L6.67411179,23.5710517 L41.8248504,23.5710517 L65.3148226,23.5710517 L84.2063275,23.5710517 C86.4975046,23.5710517 87.9738685,23.8497165 87.9738685,22.0465965 C87.9738685,20.2434765 86.4975038,20.3059371 84.2063267,20.3059371 L6.67411134,20.3059371 Z" id="Shape" sketch:type="MSShapeGroup"></path>
        </g>
        <g id="left222-2" sketch:type="MSLayerGroup" transform="translate(339.500000, 208.000000) rotate(-89.000000) translate(-339.500000, -208.000000) translate(317.000000, 175.000000)" fill="#979797">
            <path d="M20.4645156,59.2351137 L6.84299046,45.3804189 C5.55444172,43.7582957 2.36764915,40.1667632 1.07929103,41.7888864 C-0.210020163,43.4110097 0.60176722,44.4679585 1.89107841,46.0876835 L20.4645162,64.687521 C21.7530649,66.3096442 23.3400557,66.3096441 24.6284138,64.6875209 C24.6284138,64.6875209 44.913415,43.0871852 44.913415,41.7888869 C44.913415,38.7673137 43.0726369,39.0969479 41.7842787,40.7190712 L23.7649924,59.2351132 L23.7649922,4.14258693 C23.7649922,1.84945532 23.9650488,0.0724229971 22.1424004,0.0724229971 C20.319752,0.0724229971 20.4645162,1.84945532 20.4645162,4.14258693 L20.4645156,59.2351137 L20.4645156,59.2351137 Z" id="Shape" sketch:type="MSShapeGroup"></path>
        </g>
        <g id="computer146" sketch:type="MSLayerGroup" transform="translate(188.000000, 352.000000)" fill="#979797">
            <g id="Group" sketch:type="MSShapeGroup">
                <path d="M40.3606875,0.481568182 L2.10234375,0.481568182 C0.9315,0.481568182 0.2199375,1.61181818 0.2199375,3.11056818 L0.2199375,35.6375682 C0.2199375,37.1363182 0.9315,38.4288182 2.10234375,38.4288182 L18.7011563,38.4288182 L18.7011563,42.3035682 L18.7011563,42.4740682 L12.8383125,42.4740682 C10.9731563,42.4740682 9.45946875,44.4045682 9.45946875,46.7805682 L9.45946875,47.6330682 L32.27475,47.6330682 L32.27475,46.7805682 C32.27475,44.4018182 30.7610625,42.4740682 28.8959062,42.4740682 L23.0330625,42.4740682 L23.0330625,42.3035682 L23.0330625,38.4288182 L40.3606875,38.4288182 C41.5336875,38.4288182 42.3810938,37.1418182 42.3810938,35.6375682 L42.3810938,3.10781818 C42.3789375,1.61181818 41.5336875,0.481568182 40.3606875,0.481568182 L40.3606875,0.481568182 Z M38.0470313,29.7773182 C38.0470313,31.7023182 36.82875,33.2643182 35.3129062,33.2643182 L6.994875,33.2643182 C5.4855,33.2643182 4.26075,31.7078182 4.26075,29.7773182 L4.26075,9.49331818 C4.26075,7.56831818 5.48334375,6.00906818 6.994875,6.00906818 L35.3150625,6.00906818 C36.8244375,6.00906818 38.0513438,7.56831818 38.0513438,9.49331818 L38.0513438,29.7773182 L38.0470313,29.7773182 L38.0470313,29.7773182 Z" id="Shape"></path>
                <path d="M50.1824062,0.115818182 C47.7889688,0.115818182 45.8440313,2.59081818 45.8440313,5.64606818 L45.8440313,47.9933182 L68.3660625,47.9933182 L68.3660625,4.42506818 C68.3660625,2.04356818 66.852375,0.115818182 64.989375,0.115818182 L50.1824062,0.115818182 L50.1824062,0.115818182 Z M57.1665,42.7573182 C56.140125,42.7573182 55.3142813,41.7260682 55.3142813,40.4583182 C55.3142813,39.1905682 56.1465937,38.1593182 57.1665,38.1593182 C58.1864063,38.1593182 59.0165625,39.1905682 59.0165625,40.4583182 C59.0165625,41.7260682 58.18425,42.7573182 57.1665,42.7573182 L57.1665,42.7573182 Z M63.4670625,16.6900682 L50.758125,16.6900682 L50.758125,14.1105682 L63.4670625,14.1105682 L63.4670625,16.6900682 L63.4670625,16.6900682 Z M63.4670625,11.1653182 L50.758125,11.1653182 L50.758125,8.58581818 L63.4670625,8.58581818 L63.4670625,11.1653182 L63.4670625,11.1653182 Z" id="Shape"></path>
            </g>
        </g>
        <g id="cloud294" sketch:type="MSLayerGroup" fill="#979797">
            <path d="M106.427919,31.3083446 C109.587959,24.1776622 105.761168,15.4029392 98.0355025,12.3628378 C89.2444772,8.90268919 80.2609949,12.0526824 75.3717259,19.2397568 C74.1600406,3.88091892 54.8675025,-2.46967568 40.5024365,1.86020946 C23.0746396,7.11333108 10.8821015,30.7400878 21.0332995,46.3534122 C4.7746599,41.2817568 -1.74364467,63.8197162 0.796497462,78.1475946 C4.4257868,98.6149595 30.6352386,107.2675 40.1189645,88.4261014 C48.613736,110.674872 96.5463046,113.576885 94.9648426,89.0984662 C98.8269543,91.9809595 108.067766,93.0415608 110.09469,93.2555608 C123.082284,94.6321014 133.916812,88.409473 139.54203,76.5881419 C149.19803,56.3000743 128.788954,23.0787432 106.427919,31.3083446 L106.427919,31.3083446 Z M137.848122,72.84025 C135.106873,83.1953919 124.740152,90.9196351 114.144213,90.7172027 C110.351299,90.6449054 95.8089137,90.0108581 94.6224569,84.9175135 C94.5547005,84.6276014 94.2519594,84.5104797 93.9917462,84.5661486 C93.1447919,83.7571419 91.409797,84.5112027 91.6801015,85.975223 C94.2058274,99.6357973 81.4178985,103.786385 70.1984569,103.565878 C58.0715127,103.327297 45.9474518,97.156723 41.2830761,85.7156757 C41.4827411,85.1763378 41.6816853,84.637 41.8575635,84.0622365 C41.9188325,83.8634189 41.748,83.6045946 41.5267107,83.6270068 C40.9493401,83.6848446 40.6898477,83.7585878 40.4325178,83.9364392 C39.8897462,83.4506014 38.9289036,83.8446216 39.0788325,84.7418311 C39.1018985,84.8820878 39.1487513,85.012223 39.1747005,85.1510338 C35.6081218,88.8649459 35.5987513,93.1319324 29.5994315,95.4960541 C18.3273706,99.938 7.09351269,91.1090541 4.1828731,80.5912432 C0.395725888,66.9068108 5.6446802,40.873277 24.5919492,50.8625946 C26.1027716,51.6585878 27.4124873,49.4354459 25.9312183,48.5642635 C25.3725888,48.2360338 24.8262132,47.9461216 24.2856041,47.6757297 C13.704802,31.9590203 24.5818579,11.0918514 41.2571269,4.6089527 C48.3167614,1.8645473 56.4806802,2.77043243 63.1683756,6.02019595 C71.4310457,10.0348649 72.8560914,18.0454054 72.3226904,26.3306757 C72.2347513,27.6920338 74.3265482,27.9320608 74.6588426,26.6480608 C74.8895025,25.7580811 74.999066,24.9179865 75.1273706,24.0713851 C79.1473401,16.2119459 86.5601726,11.9023041 95.5941117,14.5064527 C99.1224873,15.5236757 102.101604,17.9253919 103.806325,21.1664797 C106.185005,25.6893986 103.527371,29.7922703 101.544416,33.7556081 C101.534325,33.7621149 101.523513,33.7671757 101.513421,33.7736824 C99.9463756,34.7887365 101.400254,37.3119122 102.979553,36.2896284 C125.117137,21.9574122 142.762619,54.27575 137.848122,72.84025 L137.848122,72.84025 Z" id="Shape" sketch:type="MSShapeGroup"></path>
        </g>
        <g id="world26-2" sketch:type="MSLayerGroup" transform="translate(365.000000, 42.000000)" fill="#000000">
            <g id="Group" sketch:type="MSShapeGroup">
                <path d="M39.3767187,29.8285714 L39.2106875,30.1 L38.901625,30.0214286 C37.8364375,29.7392857 35.59825,29.205 32.5385312,28.7564286 L32.0943437,28.6914286 L32.1813125,28.2528571 C32.289125,27.6892857 32.3883125,27.1235714 32.4767187,26.555 L31.8895,24.615 C31.7443125,25.8128571 31.5545625,27.0057143 31.32025,28.1871429 L31.2433437,28.575 L30.8473125,28.5271429 C27.200375,28.0257143 23.4125625,28.0157143 23.4125625,28.0157143 L23.4125625,25.8921429 L22.9849062,24.3171429 L22.58025,25.8935714 L22.554375,28.0128571 C22.554375,28.0128571 18.90025,27.9921429 14.973,28.4607143 L14.5755312,28.5085714 L14.5000625,28.1185714 C14.2693437,26.9414286 14.0824687,25.75 13.938,24.555 L13.3328125,26.42 C13.4255312,27.0121429 13.5275937,27.6028571 13.641875,28.1914286 L13.7259687,28.6257143 L13.2846562,28.6928571 C11.1758437,29.0128571 9.085,29.4571429 7.07321875,30.0171429 L6.759125,30.1028571 L6.5909375,29.825 C6.24953125,29.2642857 5.9469375,28.6821429 5.6651875,28.0921429 L4.7164375,28.0921429 C7.8415625,35.0321429 14.85225,39.8814286 22.9849063,39.8814286 C31.116125,39.8814286 38.1275312,35.0321429 41.2540937,28.0921429 L40.3031875,28.0921429 C40.022875,28.6857143 39.7195625,29.2671429 39.3767187,29.8285714 L39.3767187,29.8285714 Z M16.5700625,37.9678571 L16.5837187,37.9614286 L15.6665937,37.5821429 C12.4767812,36.265 9.69521875,34.11 7.62521875,31.3471429 L7.2464375,30.8435714 L7.85809375,30.6814286 C9.66215625,30.2042857 11.5654062,29.8171429 13.5132187,29.5285714 L13.9085312,29.4707143 L13.9976562,29.8557143 C14.5510937,32.2785714 15.3029062,34.6921429 16.2308125,37.0314286 L16.597375,37.9557143 L16.7023125,38.0021429 L16.5700625,37.9678571 L16.5700625,37.9678571 Z M22.5550937,39.0292857 L22.1073125,39.0107143 C20.6331562,38.9428571 19.1625937,38.7028571 17.7351562,38.2985714 L17.64675,38.2742857 C16.6160625,35.7842857 15.4725312,32.4235714 14.8673437,29.8235714 L14.7595312,29.3578571 L15.234625,29.3042857 C17.459875,29.045 19.7792812,28.9071429 22.1245625,28.9007143 L22.5550937,28.8978571 L22.5550937,39.0292857 L22.5550937,39.0292857 Z M23.8632188,39.0092857 L23.4125625,39.0278571 L23.4125625,28.9014286 L23.8495625,28.9121429 C26.0748125,28.9614286 28.3374375,29.1228571 30.5777812,29.3892857 L31.0564687,29.445 L30.9472187,29.9078571 C30.337,32.5028571 29.1029062,35.8728571 28.0715,38.3407143 C26.6986875,38.7185714 25.2805938,38.9457143 23.8632188,39.0092857 L23.8632188,39.0092857 Z M38.3302188,31.3707143 C36.225,34.1692857 33.393125,36.34 30.1400625,37.6457143 L29.3027187,37.9835714 L29.3242812,37.9935714 L29.2912187,38.0042857 L29.5794375,37.0964286 C30.5087812,34.76 31.2634687,32.3521429 31.817625,29.9392857 L31.90675,29.5571429 L32.300625,29.6128571 C34.8579375,29.9792857 36.8582187,30.4078571 38.0844063,30.7021429 L38.7161875,30.8535714 L38.3302188,31.3707143 L38.3302188,31.3707143 Z" id="Shape"></path>
                <path d="M6.8295625,9.80214286 L6.99703125,9.54142857 L7.29675,9.61785714 C8.4568125,9.91357143 10.3665313,10.3464286 12.8728125,10.735 L13.2904063,10.8 L13.2329063,11.215 C13.06975,12.3757143 12.951875,13.5492857 12.8670625,14.7257143 L13.3975,14.7257143 L13.7209375,14.7257143 C13.8043125,13.59 13.917875,12.4578571 14.0738437,11.3378571 L14.1342187,10.9185714 L14.5554062,10.9735714 C17.0624062,11.3007143 19.61325,11.4914286 22.1331875,11.54 L22.554375,11.5485714 L22.554375,14.7257143 L23.4125625,14.7257143 L23.4125625,11.5557143 L23.8380625,11.5514286 C26.3989688,11.5371429 28.90525,11.3742857 31.2936562,11.0685714 L31.7155625,11.0164286 L31.7759375,11.4342857 C31.9261563,12.5214286 32.0339688,13.6221429 32.11375,14.725 L32.6154375,14.725 L32.9705,14.725 C32.8864063,13.5778571 32.7728437,12.4335714 32.6154375,11.3021429 L32.5579375,10.8885714 L32.9740938,10.8221429 C34.876625,10.5214286 36.7877813,10.11 38.6522188,9.60142857 L38.9576875,9.51785714 L39.1280312,9.78357143 C40.5885313,12.0585714 41.5365625,14.62 41.9239688,17.275 L42.45225,15.4271429 C40.3685938,6.66285714 32.432875,0.117142857 22.9849063,0.117142857 C13.5894062,0.117142857 5.69034375,6.58928571 3.5520625,15.2814286 L4.0551875,17.2064286 C4.44978125,14.58 5.38775,12.0528571 6.8295625,9.80214286 L6.8295625,9.80214286 Z M31.4884375,2.95571429 C34.0234688,4.21071429 36.2954375,6.05 38.050625,8.27642857 L38.4574375,8.78714286 L37.8235,8.95214286 C36.245125,9.35928571 34.569,9.70357143 32.8425625,9.97285714 L32.4264063,10.0378571 L32.3530938,9.62357143 C31.8880625,6.91357143 31.2986875,4.77785714 30.886125,3.46428571 L30.587125,2.51071429 L31.4884375,2.95571429 L31.4884375,2.95571429 Z M23.4125625,0.971428571 L23.8617812,0.992142857 C25.7319687,1.07571429 27.5719687,1.43214286 29.3300312,2.04928571 L29.5219375,2.115 L29.5909375,2.305 C29.9481562,3.27285714 30.851625,5.93714286 31.5078437,9.71714286 L31.5825937,10.1571429 L31.1384062,10.2114286 C28.77875,10.505 26.3242187,10.6592857 23.84525,10.6707143 L23.4132812,10.6714286 L23.4125625,0.971428571 L23.4125625,0.971428571 Z M16.2940625,2.16714286 L16.4838125,2.09857143 C18.2871563,1.45 20.179625,1.07785714 22.105875,0.991428571 L22.5550937,0.970714286 L22.5550937,10.6671429 L22.1166562,10.6564286 C19.6729063,10.605 17.1831563,10.4192857 14.7178438,10.105 L14.274375,10.0485714 L14.3512813,9.60857143 C14.9722813,6.06428571 15.7938125,3.54285714 16.2265,2.35571429 L16.2940625,2.16714286 L16.2940625,2.16714286 Z M7.926375,8.265 C9.64346875,6.09428571 11.8543438,4.28642857 14.320375,3.03857143 L15.2238438,2.58 L14.924125,3.54357143 C14.5280938,4.81428571 13.958125,6.88214286 13.4995625,9.51642857 L13.4269688,9.92857143 L13.01225,9.865 C10.8746875,9.53857143 9.19640625,9.18285714 8.165,8.94214286 L7.5080625,8.79071429 L7.926375,8.265 L7.926375,8.265 Z" id="Shape"></path>
                <path d="M6.52625,21.5 C6.87628125,20.4307143 7.18821875,19.4028571 7.4361875,18.2092857 L7.4793125,18.2092857 C7.7265625,19.3814286 8.01621875,20.37 8.36840625,21.4807143 L9.89934375,26.2314286 L11.5553437,26.2314286 L14.7854062,16.2757143 L12.9842187,16.2757143 L11.5553437,21.2735714 C11.2232812,22.4471429 10.9559062,23.4957143 10.7884375,24.5035714 L10.7273437,24.5035714 C10.5009375,23.4957143 10.2098437,22.4457143 9.83896875,21.2542857 L8.28359375,16.2757143 L6.753375,16.2757143 L5.1160625,21.3557143 C4.78615625,22.4264286 4.4548125,23.4942857 4.2276875,24.5021429 L4.16371875,24.5021429 C3.97971875,23.4735714 3.70946875,22.4442857 3.4198125,21.3342857 L2.095875,16.2735714 L0.232875,16.2735714 L3.2545,26.2292857 L4.9105,26.2292857 L6.52625,21.5 L6.52625,21.5 Z" id="Shape"></path>
                <path d="M26.2810937,24.5028571 L26.2185625,24.5028571 C25.9921562,23.4964286 25.7003437,22.4457143 25.32875,21.2542857 L23.7748125,16.2757143 L22.24675,16.2757143 L20.6101562,21.3564286 C20.2795312,22.4257143 19.9460312,23.4957143 19.719625,24.5021429 L19.6578125,24.5021429 C19.472375,23.4742857 19.202125,22.445 18.91175,21.3342857 L17.5856562,16.275 L15.723375,16.275 L18.7464375,26.2307143 L20.4024375,26.2307143 L22.0174687,21.4992857 C22.3696562,20.43 22.680875,19.4021429 22.9295625,18.2085714 L22.9698125,18.2085714 C23.2192187,19.3807143 23.508875,20.3692857 23.8603437,21.48 L25.389125,26.2307143 L27.0472812,26.2307143 L30.2780625,16.275 L28.4754375,16.275 L27.0472812,21.2728571 C26.7159375,22.4457143 26.447125,23.4964286 26.2810937,24.5028571 L26.2810937,24.5028571 Z" id="Shape"></path>
                <path d="M43.9659375,16.2757143 L42.5377812,21.2735714 C42.205,22.4471429 41.937625,23.4957143 41.77375,24.5035714 L41.7112187,24.5035714 C41.4848125,23.4957143 41.1944375,22.4457143 40.8206875,21.2542857 L39.2681875,16.2757143 L37.7386875,16.2757143 L36.1035312,21.3557143 C35.7721875,22.4264286 35.4394062,23.4942857 35.2137187,24.5021429 L35.1504687,24.5021429 C34.9650312,23.4735714 34.6933437,22.4442857 34.405125,21.3342857 L33.0804688,16.2742857 L31.2181875,16.2742857 L34.2376563,26.23 L35.8958125,26.23 L37.510125,21.4992857 C37.860875,20.4292857 38.1728125,19.4014286 38.4222187,18.2078571 L38.464625,18.2078571 C38.7140313,19.3807143 39.00225,20.3685714 39.3537187,21.4807143 L40.8839375,26.23 L42.5399375,26.23 L45.7714375,16.2742857 L43.9659375,16.2742857 L43.9659375,16.2757143 L43.9659375,16.2757143 Z" id="Shape"></path>
            </g>
        </g>
        <g id="cloud294-2" sketch:type="MSLayerGroup" transform="translate(317.000000, 0.000000)" fill="#979797">
            <path d="M106.427919,31.3083446 C109.587959,24.1776622 105.761168,15.4029392 98.0355025,12.3628378 C89.2444772,8.90268919 80.2609949,12.0526824 75.3717259,19.2397568 C74.1600406,3.88091892 54.8675025,-2.46967568 40.5024365,1.86020946 C23.0746396,7.11333108 10.8821015,30.7400878 21.0332995,46.3534122 C4.7746599,41.2817568 -1.74364467,63.8197162 0.796497462,78.1475946 C4.4257868,98.6149595 30.6352386,107.2675 40.1189645,88.4261014 C48.613736,110.674872 96.5463046,113.576885 94.9648426,89.0984662 C98.8269543,91.9809595 108.067766,93.0415608 110.09469,93.2555608 C123.082284,94.6321014 133.916812,88.409473 139.54203,76.5881419 C149.19803,56.3000743 128.788954,23.0787432 106.427919,31.3083446 L106.427919,31.3083446 Z M137.848122,72.84025 C135.106873,83.1953919 124.740152,90.9196351 114.144213,90.7172027 C110.351299,90.6449054 95.8089137,90.0108581 94.6224569,84.9175135 C94.5547005,84.6276014 94.2519594,84.5104797 93.9917462,84.5661486 C93.1447919,83.7571419 91.409797,84.5112027 91.6801015,85.975223 C94.2058274,99.6357973 81.4178985,103.786385 70.1984569,103.565878 C58.0715127,103.327297 45.9474518,97.156723 41.2830761,85.7156757 C41.4827411,85.1763378 41.6816853,84.637 41.8575635,84.0622365 C41.9188325,83.8634189 41.748,83.6045946 41.5267107,83.6270068 C40.9493401,83.6848446 40.6898477,83.7585878 40.4325178,83.9364392 C39.8897462,83.4506014 38.9289036,83.8446216 39.0788325,84.7418311 C39.1018985,84.8820878 39.1487513,85.012223 39.1747005,85.1510338 C35.6081218,88.8649459 35.5987513,93.1319324 29.5994315,95.4960541 C18.3273706,99.938 7.09351269,91.1090541 4.1828731,80.5912432 C0.395725888,66.9068108 5.6446802,40.873277 24.5919492,50.8625946 C26.1027716,51.6585878 27.4124873,49.4354459 25.9312183,48.5642635 C25.3725888,48.2360338 24.8262132,47.9461216 24.2856041,47.6757297 C13.704802,31.9590203 24.5818579,11.0918514 41.2571269,4.6089527 C48.3167614,1.8645473 56.4806802,2.77043243 63.1683756,6.02019595 C71.4310457,10.0348649 72.8560914,18.0454054 72.3226904,26.3306757 C72.2347513,27.6920338 74.3265482,27.9320608 74.6588426,26.6480608 C74.8895025,25.7580811 74.999066,24.9179865 75.1273706,24.0713851 C79.1473401,16.2119459 86.5601726,11.9023041 95.5941117,14.5064527 C99.1224873,15.5236757 102.101604,17.9253919 103.806325,21.1664797 C106.185005,25.6893986 103.527371,29.7922703 101.544416,33.7556081 C101.534325,33.7621149 101.523513,33.7671757 101.513421,33.7736824 C99.9463756,34.7887365 101.400254,37.3119122 102.979553,36.2896284 C125.117137,21.9574122 142.762619,54.27575 137.848122,72.84025 L137.848122,72.84025 Z" id="Shape" sketch:type="MSShapeGroup"></path>
        </g>
        <g id="wood6-2" sketch:type="MSLayerGroup" transform="translate(315.000000, 193.000000)" fill="#000000">
            <rect id="Rectangle-path" sketch:type="MSShapeGroup" x="0.966666667" y="9.94736842" width="2.41666667" height="9.94736842"></rect>
            <rect id="Rectangle-path" sketch:type="MSShapeGroup" x="0.966666667" y="24.1578947" width="2.41666667" height="2.84210526"></rect>
            <path d="M3.38333333,2.61828947 L2.175,0.545684211 L0.966666667,2.61828947 L0.966666667,5.68421053 L3.38333333,5.68421053 L3.38333333,2.61828947 Z" id="Shape" sketch:type="MSShapeGroup"></path>
            <rect id="Rectangle-path" sketch:type="MSShapeGroup" x="7.25" y="24.1578947" width="2.41666667" height="2.84210526"></rect>
            <path d="M9.66666667,2.61828947 L8.45833333,0.545684211 L7.25,2.61828947 L7.25,5.68421053 L9.66666667,5.68421053 L9.66666667,2.61828947 Z" id="Shape" sketch:type="MSShapeGroup"></path>
            <rect id="Rectangle-path" sketch:type="MSShapeGroup" x="7.25" y="9.94736842" width="2.41666667" height="9.94736842"></rect>
            <rect id="Rectangle-path" sketch:type="MSShapeGroup" x="13.5333333" y="9.94736842" width="2.41666667" height="9.94736842"></rect>
            <rect id="Rectangle-path" sketch:type="MSShapeGroup" x="13.5333333" y="24.1578947" width="2.41666667" height="2.84210526"></rect>
            <path d="M15.95,2.61828947 L14.7416667,0.545684211 L13.5333333,2.61828947 L13.5333333,5.68421053 L15.95,5.68421053 L15.95,2.61828947 Z" id="Shape" sketch:type="MSShapeGroup"></path>
            <rect id="Rectangle-path" sketch:type="MSShapeGroup" x="19.8166667" y="24.1578947" width="2.41666667" height="2.84210526"></rect>
            <rect id="Rectangle-path" sketch:type="MSShapeGroup" x="19.8166667" y="9.94736842" width="2.41666667" height="9.94736842"></rect>
            <path d="M22.2333333,2.61828947 L21.025,0.545684211 L19.8166667,2.61828947 L19.8166667,5.68421053 L22.2333333,5.68421053 L22.2333333,2.61828947 Z" id="Shape" sketch:type="MSShapeGroup"></path>
            <rect id="Rectangle-path" sketch:type="MSShapeGroup" x="26.1" y="9.94736842" width="2.41666667" height="9.94736842"></rect>
            <rect id="Rectangle-path" sketch:type="MSShapeGroup" x="26.1" y="24.1578947" width="2.41666667" height="2.84210526"></rect>
            <path d="M28.5166667,2.61828947 L27.3083333,0.545684211 L26.1,2.61828947 L26.1,5.68421053 L28.5166667,5.68421053 L28.5166667,2.61828947 Z" id="Shape" sketch:type="MSShapeGroup"></path>
            <path d="M26.1,6.39473684 L25.6166667,6.39473684 L22.7166667,6.39473684 L22.2333333,6.39473684 L19.8166667,6.39473684 L19.3333333,6.39473684 L16.4333333,6.39473684 L15.95,6.39473684 L13.5333333,6.39473684 L13.05,6.39473684 L10.15,6.39473684 L9.66666667,6.39473684 L7.25,6.39473684 L6.76666667,6.39473684 L3.86666667,6.39473684 L3.38333333,6.39473684 L0.966666667,6.39473684 L0.483333333,6.39473684 L0,6.39473684 L0,9.23684211 L0.483333333,9.23684211 L0.966666667,9.23684211 L3.38333333,9.23684211 L3.86666667,9.23684211 L6.76666667,9.23684211 L7.25,9.23684211 L9.66666667,9.23684211 L10.15,9.23684211 L13.05,9.23684211 L13.5333333,9.23684211 L15.95,9.23684211 L16.4333333,9.23684211 L19.3333333,9.23684211 L19.8166667,9.23684211 L22.2333333,9.23684211 L22.7166667,9.23684211 L25.6166667,9.23684211 L26.1,9.23684211 L28.5166667,9.23684211 L29,9.23684211 L29,6.39473684 L28.5166667,6.39473684 L26.1,6.39473684 Z" id="Shape" sketch:type="MSShapeGroup"></path>
            <path d="M26.1,20.6052632 L25.6166667,20.6052632 L22.7166667,20.6052632 L22.2333333,20.6052632 L19.8166667,20.6052632 L19.3333333,20.6052632 L16.4333333,20.6052632 L15.95,20.6052632 L13.5333333,20.6052632 L13.05,20.6052632 L10.15,20.6052632 L9.66666667,20.6052632 L7.25,20.6052632 L6.76666667,20.6052632 L3.86666667,20.6052632 L3.38333333,20.6052632 L0.966666667,20.6052632 L0.483333333,20.6052632 L0,20.6052632 L0,23.4473684 L0.483333333,23.4473684 L0.966666667,23.4473684 L3.38333333,23.4473684 L3.86666667,23.4473684 L6.76666667,23.4473684 L7.25,23.4473684 L9.66666667,23.4473684 L10.15,23.4473684 L13.05,23.4473684 L13.5333333,23.4473684 L15.95,23.4473684 L16.4333333,23.4473684 L19.3333333,23.4473684 L19.8166667,23.4473684 L22.2333333,23.4473684 L22.7166667,23.4473684 L25.6166667,23.4473684 L26.1,23.4473684 L28.5166667,23.4473684 L29,23.4473684 L29,20.6052632 L28.5166667,20.6052632 L26.1,20.6052632 Z" id="Shape" sketch:type="MSShapeGroup"></path>
        </g>
        <g id="left222-4" sketch:type="MSLayerGroup" transform="translate(291.500000, 129.000000) rotate(-136.000000) translate(-291.500000, -129.000000) translate(269.000000, 96.000000)" fill="#979797">
            <path d="M20.4645156,59.2351137 L6.84299046,45.3804189 C5.55444172,43.7582957 2.36764915,40.1667632 1.07929103,41.7888864 C-0.210020163,43.4110097 0.60176722,44.4679585 1.89107841,46.0876835 L20.4645162,64.687521 C21.7530649,66.3096442 23.3400557,66.3096441 24.6284138,64.6875209 C24.6284138,64.6875209 44.913415,43.0871852 44.913415,41.7888869 C44.913415,38.7673137 43.0726369,39.0969479 41.7842787,40.7190712 L23.7649924,59.2351132 L23.7649922,4.14258693 C23.7649922,1.84945532 23.9650488,0.0724229971 22.1424004,0.0724229971 C20.319752,0.0724229971 20.4645162,1.84945532 20.4645162,4.14258693 L20.4645156,59.2351137 L20.4645156,59.2351137 Z" id="Shape" sketch:type="MSShapeGroup"></path>
        </g>
        <g id="wood6-3" sketch:type="MSLayerGroup" transform="translate(204.000000, 283.000000)" fill="#000000">
            <rect id="Rectangle-path" sketch:type="MSShapeGroup" x="0.966666667" y="9.94736842" width="2.41666667" height="9.94736842"></rect>
            <rect id="Rectangle-path" sketch:type="MSShapeGroup" x="0.966666667" y="24.1578947" width="2.41666667" height="2.84210526"></rect>
            <path d="M3.38333333,2.61828947 L2.175,0.545684211 L0.966666667,2.61828947 L0.966666667,5.68421053 L3.38333333,5.68421053 L3.38333333,2.61828947 Z" id="Shape" sketch:type="MSShapeGroup"></path>
            <rect id="Rectangle-path" sketch:type="MSShapeGroup" x="7.25" y="24.1578947" width="2.41666667" height="2.84210526"></rect>
            <path d="M9.66666667,2.61828947 L8.45833333,0.545684211 L7.25,2.61828947 L7.25,5.68421053 L9.66666667,5.68421053 L9.66666667,2.61828947 Z" id="Shape" sketch:type="MSShapeGroup"></path>
            <rect id="Rectangle-path" sketch:type="MSShapeGroup" x="7.25" y="9.94736842" width="2.41666667" height="9.94736842"></rect>
            <rect id="Rectangle-path" sketch:type="MSShapeGroup" x="13.5333333" y="9.94736842" width="2.41666667" height="9.94736842"></rect>
            <rect id="Rectangle-path" sketch:type="MSShapeGroup" x="13.5333333" y="24.1578947" width="2.41666667" height="2.84210526"></rect>
            <path d="M15.95,2.61828947 L14.7416667,0.545684211 L13.5333333,2.61828947 L13.5333333,5.68421053 L15.95,5.68421053 L15.95,2.61828947 Z" id="Shape" sketch:type="MSShapeGroup"></path>
            <rect id="Rectangle-path" sketch:type="MSShapeGroup" x="19.8166667" y="24.1578947" width="2.41666667" height="2.84210526"></rect>
            <rect id="Rectangle-path" sketch:type="MSShapeGroup" x="19.8166667" y="9.94736842" width="2.41666667" height="9.94736842"></rect>
            <path d="M22.2333333,2.61828947 L21.025,0.545684211 L19.8166667,2.61828947 L19.8166667,5.68421053 L22.2333333,5.68421053 L22.2333333,2.61828947 Z" id="Shape" sketch:type="MSShapeGroup"></path>
            <rect id="Rectangle-path" sketch:type="MSShapeGroup" x="26.1" y="9.94736842" width="2.41666667" height="9.94736842"></rect>
            <rect id="Rectangle-path" sketch:type="MSShapeGroup" x="26.1" y="24.1578947" width="2.41666667" height="2.84210526"></rect>
            <path d="M28.5166667,2.61828947 L27.3083333,0.545684211 L26.1,2.61828947 L26.1,5.68421053 L28.5166667,5.68421053 L28.5166667,2.61828947 Z" id="Shape" sketch:type="MSShapeGroup"></path>
            <path d="M26.1,6.39473684 L25.6166667,6.39473684 L22.7166667,6.39473684 L22.2333333,6.39473684 L19.8166667,6.39473684 L19.3333333,6.39473684 L16.4333333,6.39473684 L15.95,6.39473684 L13.5333333,6.39473684 L13.05,6.39473684 L10.15,6.39473684 L9.66666667,6.39473684 L7.25,6.39473684 L6.76666667,6.39473684 L3.86666667,6.39473684 L3.38333333,6.39473684 L0.966666667,6.39473684 L0.483333333,6.39473684 L0,6.39473684 L0,9.23684211 L0.483333333,9.23684211 L0.966666667,9.23684211 L3.38333333,9.23684211 L3.86666667,9.23684211 L6.76666667,9.23684211 L7.25,9.23684211 L9.66666667,9.23684211 L10.15,9.23684211 L13.05,9.23684211 L13.5333333,9.23684211 L15.95,9.23684211 L16.4333333,9.23684211 L19.3333333,9.23684211 L19.8166667,9.23684211 L22.2333333,9.23684211 L22.7166667,9.23684211 L25.6166667,9.23684211 L26.1,9.23684211 L28.5166667,9.23684211 L29,9.23684211 L29,6.39473684 L28.5166667,6.39473684 L26.1,6.39473684 Z" id="Shape" sketch:type="MSShapeGroup"></path>
            <path d="M26.1,20.6052632 L25.6166667,20.6052632 L22.7166667,20.6052632 L22.2333333,20.6052632 L19.8166667,20.6052632 L19.3333333,20.6052632 L16.4333333,20.6052632 L15.95,20.6052632 L13.5333333,20.6052632 L13.05,20.6052632 L10.15,20.6052632 L9.66666667,20.6052632 L7.25,20.6052632 L6.76666667,20.6052632 L3.86666667,20.6052632 L3.38333333,20.6052632 L0.966666667,20.6052632 L0.483333333,20.6052632 L0,20.6052632 L0,23.4473684 L0.483333333,23.4473684 L0.966666667,23.4473684 L3.38333333,23.4473684 L3.86666667,23.4473684 L6.76666667,23.4473684 L7.25,23.4473684 L9.66666667,23.4473684 L10.15,23.4473684 L13.05,23.4473684 L13.5333333,23.4473684 L15.95,23.4473684 L16.4333333,23.4473684 L19.3333333,23.4473684 L19.8166667,23.4473684 L22.2333333,23.4473684 L22.7166667,23.4473684 L25.6166667,23.4473684 L26.1,23.4473684 L28.5166667,23.4473684 L29,23.4473684 L29,20.6052632 L28.5166667,20.6052632 L26.1,20.6052632 Z" id="Shape" sketch:type="MSShapeGroup"></path>
        </g>
        <g id="wood6-4" sketch:type="MSLayerGroup" transform="translate(273.000000, 118.000000)" fill="#000000">
            <rect id="Rectangle-path" sketch:type="MSShapeGroup" x="0.966666667" y="9.94736842" width="2.41666667" height="9.94736842"></rect>
            <rect id="Rectangle-path" sketch:type="MSShapeGroup" x="0.966666667" y="24.1578947" width="2.41666667" height="2.84210526"></rect>
            <path d="M3.38333333,2.61828947 L2.175,0.545684211 L0.966666667,2.61828947 L0.966666667,5.68421053 L3.38333333,5.68421053 L3.38333333,2.61828947 Z" id="Shape" sketch:type="MSShapeGroup"></path>
            <rect id="Rectangle-path" sketch:type="MSShapeGroup" x="7.25" y="24.1578947" width="2.41666667" height="2.84210526"></rect>
            <path d="M9.66666667,2.61828947 L8.45833333,0.545684211 L7.25,2.61828947 L7.25,5.68421053 L9.66666667,5.68421053 L9.66666667,2.61828947 Z" id="Shape" sketch:type="MSShapeGroup"></path>
            <rect id="Rectangle-path" sketch:type="MSShapeGroup" x="7.25" y="9.94736842" width="2.41666667" height="9.94736842"></rect>
            <rect id="Rectangle-path" sketch:type="MSShapeGroup" x="13.5333333" y="9.94736842" width="2.41666667" height="9.94736842"></rect>
            <rect id="Rectangle-path" sketch:type="MSShapeGroup" x="13.5333333" y="24.1578947" width="2.41666667" height="2.84210526"></rect>
            <path d="M15.95,2.61828947 L14.7416667,0.545684211 L13.5333333,2.61828947 L13.5333333,5.68421053 L15.95,5.68421053 L15.95,2.61828947 Z" id="Shape" sketch:type="MSShapeGroup"></path>
            <rect id="Rectangle-path" sketch:type="MSShapeGroup" x="19.8166667" y="24.1578947" width="2.41666667" height="2.84210526"></rect>
            <rect id="Rectangle-path" sketch:type="MSShapeGroup" x="19.8166667" y="9.94736842" width="2.41666667" height="9.94736842"></rect>
            <path d="M22.2333333,2.61828947 L21.025,0.545684211 L19.8166667,2.61828947 L19.8166667,5.68421053 L22.2333333,5.68421053 L22.2333333,2.61828947 Z" id="Shape" sketch:type="MSShapeGroup"></path>
            <rect id="Rectangle-path" sketch:type="MSShapeGroup" x="26.1" y="9.94736842" width="2.41666667" height="9.94736842"></rect>
            <rect id="Rectangle-path" sketch:type="MSShapeGroup" x="26.1" y="24.1578947" width="2.41666667" height="2.84210526"></rect>
            <path d="M28.5166667,2.61828947 L27.3083333,0.545684211 L26.1,2.61828947 L26.1,5.68421053 L28.5166667,5.68421053 L28.5166667,2.61828947 Z" id="Shape" sketch:type="MSShapeGroup"></path>
            <path d="M26.1,6.39473684 L25.6166667,6.39473684 L22.7166667,6.39473684 L22.2333333,6.39473684 L19.8166667,6.39473684 L19.3333333,6.39473684 L16.4333333,6.39473684 L15.95,6.39473684 L13.5333333,6.39473684 L13.05,6.39473684 L10.15,6.39473684 L9.66666667,6.39473684 L7.25,6.39473684 L6.76666667,6.39473684 L3.86666667,6.39473684 L3.38333333,6.39473684 L0.966666667,6.39473684 L0.483333333,6.39473684 L0,6.39473684 L0,9.23684211 L0.483333333,9.23684211 L0.966666667,9.23684211 L3.38333333,9.23684211 L3.86666667,9.23684211 L6.76666667,9.23684211 L7.25,9.23684211 L9.66666667,9.23684211 L10.15,9.23684211 L13.05,9.23684211 L13.5333333,9.23684211 L15.95,9.23684211 L16.4333333,9.23684211 L19.3333333,9.23684211 L19.8166667,9.23684211 L22.2333333,9.23684211 L22.7166667,9.23684211 L25.6166667,9.23684211 L26.1,9.23684211 L28.5166667,9.23684211 L29,9.23684211 L29,6.39473684 L28.5166667,6.39473684 L26.1,6.39473684 Z" id="Shape" sketch:type="MSShapeGroup"></path>
            <path d="M26.1,20.6052632 L25.6166667,20.6052632 L22.7166667,20.6052632 L22.2333333,20.6052632 L19.8166667,20.6052632 L19.3333333,20.6052632 L16.4333333,20.6052632 L15.95,20.6052632 L13.5333333,20.6052632 L13.05,20.6052632 L10.15,20.6052632 L9.66666667,20.6052632 L7.25,20.6052632 L6.76666667,20.6052632 L3.86666667,20.6052632 L3.38333333,20.6052632 L0.966666667,20.6052632 L0.483333333,20.6052632 L0,20.6052632 L0,23.4473684 L0.483333333,23.4473684 L0.966666667,23.4473684 L3.38333333,23.4473684 L3.86666667,23.4473684 L6.76666667,23.4473684 L7.25,23.4473684 L9.66666667,23.4473684 L10.15,23.4473684 L13.05,23.4473684 L13.5333333,23.4473684 L15.95,23.4473684 L16.4333333,23.4473684 L19.3333333,23.4473684 L19.8166667,23.4473684 L22.2333333,23.4473684 L22.7166667,23.4473684 L25.6166667,23.4473684 L26.1,23.4473684 L28.5166667,23.4473684 L29,23.4473684 L29,20.6052632 L28.5166667,20.6052632 L26.1,20.6052632 Z" id="Shape" sketch:type="MSShapeGroup"></path>
        </g>
        <text id="http://javascript.in" sketch:type="MSTextLayer" font-family="Open Sans" font-size="10.1083032" font-weight="normal" fill="#373535">
            <tspan x="28" y="64">http://javascript.info</tspan>
        </text>
        <g id="letter2" sketch:type="MSLayerGroup" transform="translate(424.000000, 200.000000)" fill="#979797">
            <path d="M0,0 L0,29 L59,29 L59,0 L0,0 L0,0 Z M43.1240353,1.01976386 L29.4945142,10.2609086 L14.2795909,1.01976386 L43.1240353,1.01976386 L43.1240353,1.01976386 Z M7.98735472,5.63847536 L24.4228731,15.2964579 L7.98735472,23.8360498 L7.98735472,5.63847536 L7.98735472,5.63847536 Z M51.0099024,28.0435062 L7.98735472,28.0435062 L7.98735472,25.4196612 L25.5502092,16.2529517 L29.4945142,18.9289014 L33.62808,16.2529517 L51.0099024,25.4196612 L51.0099024,28.0435062 L51.0099024,28.0435062 Z M51.0099024,23.8360498 L35.0406788,15.0433778 L51.0099024,4.33399641 L51.0099024,23.8360498 L51.0099024,23.8360498 Z" id="Shape" sketch:type="MSShapeGroup"></path>
        </g>
    </g>
</svg>