<svg width="526" height="400" viewBox="0 0 526 400" xmlns="http://www.w3.org/2000/svg"><title>Slice 1</title><desc>Created with Sketch.</desc><g fill="none" fill-rule="evenodd"><g fill="#979797"><path d="M149.914 102.76l19.16-2.132c2.056-.01 6.812-.294 6.326-2.292-.485-2-1.808-2.014-3.863-2L145.64 99.42c-2.054.01-3.02 1.246-2.535 3.244 0 0 4.566 29.046 5.584 29.842 2.365 1.85 3.23.214 2.742-1.784l-3.53-25.39 27.57 21.552 18.426 14.403 14.816 11.584c1.797 1.407 2.783 2.53 3.894 1.11 1.11-1.42-.084-2.275-1.88-3.68l-60.815-47.54z" id="Shape"/></g><path d="M181 129l10 8" stroke="#fff" stroke-width="4.332" stroke-linecap="square"/><g fill="#000"><path d="M195.343 130.17c-.962-.895-2.29-1.114-3.462-1.303-.18-.03-.362-.06-.54-.092-.134-.035-.3-.072-.473-.112-1.563-.355-2.667-.702-2.67-1.955-.005-.824.273-1.587.567-2.398.337-.927.685-1.887.63-3.005-.106-1.992-.97-3.724-2.313-4.638-.535-.42-1.24-.667-1.91-.667-1 0-1.743.53-2.046 1.455-.213.624-.176 1.23-.138 1.872.008.158.02.32.024.488.036.884-.07 1.614-.337 2.304-.5 1.374-1.502 2.66-2.32 3.63l-.447.55c-.626.77-1.273 1.57-2.008 2.21-.36.28-.747.38-1.243.485-.14.01-8.653.092-8.653.092v12.244s6.677-.007 7.052-.03c.33-.02.648-.036.938-.036h.136c.275.057.552.086.842.118.258.026.524.054.804.107.314.06.64.36.954.65.18.167.36.33.537.453.18.123.354.248.533.375.546.39 1.11.792 1.752 1.072.79.333 1.664.443 2.51.55.412.052.82.1 1.21.178.256.03.476.053.698.08.662.07 1.348.15 2.034.15.464 0 .873-.037 1.25-.11 1.352-.377 2.214-1.45 2.214-2.683.688-.268 1.302-.83 1.69-1.55.35-.643.465-1.332.34-1.94 1.306-.837 1.98-2.405 1.617-3.75.577-.39.975-1.04 1.113-1.83.192-1.097-.154-2.262-.88-2.967zm-.88 2.454c-.046.377-.22.843-.808.947-.315.09-.527.27-.628.525-.124.306-.077.688.125 1.015.212.246.245.76.12 1.21-.172.532-.57.91-1.186 1.114-.262.032-.496.21-.625.48-.143.31-.11.645.09.877.175.245.14.795-.1 1.248-.19.358-.46.573-.724.573-.037 0-.074-.004-.112-.013l-.04-.01h-.044c-.324 0-.744.14-.95.455-.14.21-.16.46-.055.694.128.338.115.724-.046.983-.117.19-.3.3-.55.33-.44.114-.884.114-1.31.114-1.27-.11-2.618-.23-3.92-.46l-.62-.136c-.32-.07-.64-.14-.923-.21-.466-.224-.987-.61-1.49-.983-.168-.12-.33-.243-.492-.36-.118-.09-.245-.207-.375-.327-.332-.303-.703-.648-1.166-.772-.435-.262-.9-.262-1.275-.262-1.215-.11-1.787-.54-2.08-1.58-.29-1.048-.304-2.244-.287-3.28l.004-.234c.01-.977.025-2.198.537-3.086.255-.423.762-.513 1.35-.623.813-.13 1.453-.39 2.05-.84.085-.03.173-.092.238-.21.245-.163.444-.4.625-.616.963-1.023 1.848-2.09 2.545-3.07.162-.237.325-.463.485-.688.74-1.035 1.506-2.105 1.832-3.424.23-.97.21-1.81.155-2.804l-.007-.15c-.04-.605-.05-1.258.3-1.306.023-.005.05-.008.08-.008.566 0 1.28.7 1.706 1.346.443.822.675 1.684.65 2.464-.022.81-.292 1.577-.578 2.39-.338.96-.687 1.954-.607 3.035.116 1.47 1.31 2.744 2.973 3.166.486.124 1 .206 1.498.285.93.148 1.888.3 2.67.73.513.25 1.056.78.96 1.47z" id="Shape"/></g><rect stroke="#979797" stroke-width="1.444" x="151" y="163" width="145" height="87" rx="2.166"/><path d="M454.5 239.5l1.5 1.5m-303.64-59h143.28" stroke="#979797" stroke-width=".722" stroke-linecap="square"/><text font-family="Open Sans" font-size="10.108" fill="#373535"><tspan x="176" y="176">http://javascript.info</tspan></text><text font-family="Open Sans" font-size="10.108" fill="#979797"><tspan x="176" y="198">&amp;lt;script&amp;gt;</tspan><tspan x="176" y="212">...</tspan><tspan x="176" y="226">&amp;lt;/script&amp;gt;</tspan></text><circle stroke="#979797" stroke-width=".722" cx="158" cy="172" r="2"/><circle stroke="#979797" stroke-width=".722" cx="164" cy="172" r="2"/><circle stroke="#979797" stroke-width=".722" cx="170" cy="172" r="2"/><rect stroke="#979797" stroke-width="1.444" x="381" y="163" width="145" height="87" rx="2.166"/><path d="M381.36 182h143.28" stroke="#979797" stroke-width=".722" stroke-linecap="square"/><text font-family="Open Sans" font-size="10.108" fill="#373535"><tspan x="405" y="176">http://gmail.com</tspan></text><circle stroke="#979797" stroke-width=".722" cx="388" cy="172" r="2"/><circle stroke="#979797" stroke-width=".722" cx="393" cy="172" r="2"/><circle stroke="#979797" stroke-width=".722" cx="399" cy="172" r="2"/><g fill="#979797"><path d="M216.17 338.79l-13.24-14.073c-1.246-1.642-4.338-5.284-5.64-3.685-1.303 1.6-.518 2.668.73 4.31l18.06 18.895c1.246 1.642 2.816 1.67 4.118.07 0 0 20.435-21.24 20.457-22.538.05-3.02-1.776-2.725-3.078-1.126l-18.14 18.198.597-35.15.4-23.49.32-18.893c.04-2.29.343-3.76-1.46-3.793-1.803-.032-1.766 1.446-1.805 3.737l-1.32 77.532z" id="Shape"/></g><g fill="#979797"><path d="M365.7 210.48l-14.086 13.387c-1.644 1.26-5.29 4.387-3.69 5.703 1.6 1.317 2.67.523 4.313-.74l18.915-18.256c1.644-1.26 1.67-2.848.07-4.164 0 0-21.254-20.652-22.553-20.674-3.025-.05-2.727 1.795-1.127 3.11l18.21 18.335-55.092-.933c-2.293-.04-4.066-.27-4.097 1.554-.03 1.82 1.748 1.708 4.04 1.747l55.094.936z" id="Shape"/></g><g fill="#979797"><path d="M228.36 352.482h-38.258c-1.17 0-1.882 1.13-1.882 2.63v32.526c0 1.498.71 2.79 1.882 2.79h16.6v4.046h-5.864c-1.865 0-3.38 1.93-3.38 4.307v.856h22.817v-.852c0-2.378-1.514-4.306-3.38-4.306h-5.862v-4.045h17.328c1.177 0 2.02-1.287 2.02-2.79v-32.53c0-1.497-.843-2.627-2.02-2.627zm-2.313 29.295c0 1.925-1.218 3.487-2.734 3.487h-28.318c-1.51 0-2.734-1.556-2.734-3.487v-20.284c0-1.925 1.226-3.484 2.738-3.484h28.32c1.51 0 2.736 1.555 2.736 3.48v20.284h-.003zm12.135-29.66c-2.393 0-4.338 2.474-4.338 5.53v42.346h22.522v-43.568c0-2.38-1.514-4.31-3.377-4.31h-14.81zm6.985 42.64c-1.027 0-1.853-1.03-1.853-2.3 0-1.266.833-2.3 1.852-2.3 1.02 0 1.85 1.034 1.85 2.3 0 1.27-.832 2.3-1.85 2.3zm6.3-26.067h-12.71v-2.58h12.71v2.58zm0-5.525h-12.71v-2.58h12.71v2.58z" id="Shape"/></g><g fill="#979797"><path d="M106.428 31.308c3.16-7.13-.667-15.905-8.392-18.945-8.792-3.46-17.775-.31-22.664 6.877C74.16 3.88 54.868-2.47 40.502 1.86c-17.427 5.253-29.62 28.88-19.47 44.493C4.776 41.283-1.743 63.82.797 78.148c3.63 20.467 29.84 29.12 39.323 10.278 8.494 22.25 56.426 25.15 54.845.672 3.862 2.883 13.103 3.944 15.13 4.158 12.987 1.376 23.822-4.847 29.447-16.668 9.656-20.288-10.753-53.51-33.114-45.28zm31.42 41.532c-2.74 10.355-13.108 18.08-23.704 17.877-3.793-.072-18.335-.706-19.522-5.8-.067-.29-.37-.407-.63-.35-.847-.81-2.582-.056-2.312 1.408 2.526 13.66-10.262 17.81-21.482 17.59-12.126-.238-24.25-6.408-28.915-17.85.2-.54.4-1.078.575-1.653.06-.2-.11-.457-.33-.435-.58.058-.838.132-1.095.31-.543-.486-1.504-.092-1.354.805.02.14.07.27.092.41-3.567 3.713-3.576 7.98-9.576 10.344C18.326 99.938 7.093 91.11 4.182 80.59.396 66.908 5.645 40.874 24.592 50.864c1.51.796 2.82-1.428 1.34-2.3-.558-.327-1.105-.617-1.645-.887-10.58-15.717.296-36.584 16.97-43.067 7.06-2.745 15.225-1.84 21.912 1.41 8.26 4.015 9.685 12.025 9.152 20.31-.088 1.362 2.004 1.602 2.336.318.23-.89.34-1.73.466-2.577 4.02-7.855 11.433-12.165 20.467-9.56 3.53 1.017 6.51 3.42 8.213 6.66 2.38 4.522-.28 8.625-2.262 12.59-.01.005-.02.01-.03.017-1.567 1.015-.113 3.538 1.467 2.516 22.136-14.332 39.782 17.987 34.867 36.55z" id="Shape"/></g><g fill="#000"><path d="M404.377 71.83l-.166.27-.305-.08c-1.066-.28-3.304-.815-6.363-1.264l-.445-.065.087-.434c.11-.564.21-1.13.298-1.698l-.587-1.94c-.145 1.198-.334 2.39-.57 3.572l-.076.387-.397-.048c-3.646-.5-7.433-.51-7.433-.51v-2.13l-.428-1.576-.406 1.577-.025 2.12s-3.654-.02-7.58.448l-.4.05-.074-.39c-.23-1.18-.417-2.37-.56-3.567l-.606 1.866c.092.59.194 1.182.31 1.77l.082.435-.44.068c-2.11.32-4.2.764-6.213 1.324l-.316.086-.17-.278c-.34-.56-.643-1.143-.925-1.733h-.95c3.126 6.94 10.136 11.79 18.27 11.79 8.13 0 15.142-4.85 18.27-11.79h-.953c-.28.594-.583 1.175-.926 1.737zm-22.807 8.138l.014-.007-.917-.375c-3.19-1.317-5.972-3.472-8.042-6.235l-.38-.504.613-.163c1.804-.476 3.707-.863 5.655-1.15l.396-.06.085.386c.553 2.42 1.305 4.834 2.233 7.173l.366.926.105.044-.13-.034zm5.985 1.06l-.448-.017c-1.474-.064-2.944-.304-4.372-.71l-.088-.023c-1.03-2.49-2.174-5.85-2.78-8.45l-.107-.466.475-.054c2.225-.26 4.544-.397 6.89-.403l.43-.002v10.13zm1.308-.02l-.45.02V70.9l.437.012c2.225.05 4.487.21 6.728.477l.478.052-.11.463c-.61 2.595-1.843 5.965-2.875 8.433-1.37.38-2.79.605-4.204.67zm14.467-7.637c-2.105 2.8-4.937 4.97-8.19 6.28l-.837.337.02.01-.032.01.29-.908c.93-2.337 1.686-4.745 2.24-7.158l.09-.382.394.056c2.558.366 4.558.795 5.784 1.09l.632.15-.387.518zm-31.5-21.566l.167-.26.3.076c1.16.295 3.07.727 5.576 1.116l.417.065-.057.417c-.163 1.16-.28 2.334-.366 3.51h.853c.084-1.135.198-2.267.354-3.387l.06-.42.42.055c2.508.327 5.06.517 7.58.566l.42.01v3.178h.86v-3.17l.424-.005c2.56-.012 5.067-.175 7.456-.48l.422-.053.06.417c.15 1.087.258 2.188.338 3.29h.857c-.08-1.146-.194-2.29-.352-3.422l-.057-.413.416-.068c1.903-.3 3.814-.712 5.678-1.22l.306-.084.17.266c1.46 2.275 2.41 4.836 2.794 7.49l.528-1.847c-2.083-8.766-10.02-15.31-19.467-15.31-9.396 0-17.295 6.47-19.433 15.162l.503 1.927c.395-2.627 1.333-5.154 2.775-7.405zm24.658-6.846c2.535 1.255 4.807 3.094 6.563 5.32l.41.51-.633.166c-1.58.407-3.255.752-4.98 1.02l-.418.066-.074-.415c-.465-2.71-1.054-4.846-1.467-6.16l-.3-.953.9.447zm-8.075-1.985l.45.023c1.87.084 3.71.44 5.467 1.057l.192.065.07.19c.356.968 1.26 3.632 1.916 7.412l.075.44-.445.053c-2.36.296-4.814.45-7.293.46h-.432v-9.7zm-7.12 1.198l.19-.067c1.804-.65 3.697-1.022 5.623-1.11l.45-.02v9.697l-.44-.01c-2.443-.053-4.933-.24-7.398-.553l-.444-.056.077-.44c.625-3.545 1.447-6.066 1.88-7.253l.067-.19zm-8.367 6.1c1.717-2.17 3.928-3.98 6.394-5.227l.904-.46-.3.964c-.396 1.27-.966 3.338-1.424 5.972l-.073.412-.415-.065c-2.137-.326-3.816-.682-4.847-.923l-.657-.15.418-.526zm-1.4 13.233c.35-1.07.662-2.097.91-3.29h.043c.244 1.17.533 2.16.885 3.27l1.53 4.75h1.657l3.23-9.954h-1.8l-1.43 4.997c-.332 1.173-.6 2.222-.767 3.23h-.06c-.227-1.008-.518-2.058-.89-3.25l-1.554-4.978h-1.53l-1.637 5.08c-.33 1.07-.66 2.137-.888 3.145h-.064c-.183-1.028-.454-2.058-.743-3.168l-1.325-5.06h-1.863l3.02 9.955h1.656l1.615-4.73zm19.754 3.003h-.06c-.228-1.007-.52-2.057-.89-3.25l-1.555-4.977h-1.528l-1.637 5.08c-.33 1.07-.664 2.14-.89 3.145h-.062c-.186-1.028-.456-2.057-.746-3.168l-1.326-5.06h-1.863l3.023 9.957h1.656l1.615-4.73c.353-1.07.664-2.097.913-3.29h.04c.25 1.17.54 2.16.89 3.27l1.53 4.75h1.657l3.23-9.954h-1.802l-1.428 4.997c-.33 1.173-.6 2.223-.766 3.23zm17.686-8.227l-1.428 4.997c-.333 1.173-.6 2.222-.764 3.23h-.063c-.222-1.008-.513-2.058-.89-3.25l-1.55-4.978h-1.53l-1.633 5.08c-.332 1.07-.665 2.137-.89 3.145h-.064c-.184-1.028-.456-2.058-.744-3.168l-1.326-5.06h-1.86l3.02 9.956h1.657l1.615-4.73c.35-1.07.664-2.1.913-3.292h.043c.25 1.174.538 2.16.89 3.274l1.53 4.75h1.656l3.23-9.955h-1.803z" id="Shape"/></g><g fill="#979797"><path d="M423.428 31.308c3.16-7.13-.667-15.905-8.392-18.945-8.792-3.46-17.775-.31-22.664 6.877-1.212-15.36-20.504-21.71-34.87-17.38-17.427 5.253-29.62 28.88-19.47 44.493-16.257-5.07-22.776 17.467-20.236 31.795 3.63 20.467 29.84 29.12 39.323 10.278 8.49 22.25 56.423 25.15 54.842.672 3.862 2.883 13.103 3.944 15.13 4.158 12.987 1.376 23.822-4.847 29.447-16.668 9.656-20.288-10.753-53.51-33.114-45.28zm31.42 41.532c-2.74 10.355-13.108 18.08-23.704 17.877-3.793-.072-18.335-.706-19.522-5.8-.067-.29-.37-.407-.63-.35-.847-.81-2.582-.056-2.312 1.408 2.526 13.66-10.262 17.81-21.482 17.59-12.126-.238-24.25-6.408-28.915-17.85.2-.54.4-1.078.575-1.653.06-.2-.11-.457-.33-.435-.58.058-.838.132-1.095.31-.543-.486-1.504-.092-1.354.805.02.14.07.27.092.41-3.567 3.713-3.576 7.98-9.576 10.344-11.273 4.442-22.506-4.387-25.417-14.905-3.787-13.68 1.462-39.714 20.41-29.724 1.51.796 2.82-1.428 1.34-2.3-.56-.327-1.106-.617-1.646-.887-10.58-15.718.296-36.585 16.97-43.068 7.06-2.744 15.225-1.84 21.912 1.41 8.263 4.016 9.688 12.026 9.155 20.31-.087 1.363 2.005 1.603 2.337.32.23-.89.34-1.73.467-2.578 4.02-7.857 11.433-12.167 20.467-9.563 3.53 1.018 6.51 3.42 8.213 6.66 2.38 4.523-.28 8.626-2.262 12.59-.01.006-.02.01-.03.018-1.567 1.015-.113 3.538 1.467 2.516 22.137-14.332 39.783 17.987 34.868 36.55z" id="Shape"/></g><g fill="#000"><path id="Rectangle-path" d="M315.967 202.947h2.417v9.947h-2.417zm0 14.21h2.417V220h-2.417z"/><path d="M318.383 195.618l-1.208-2.072-1.208 2.072v3.066h2.416v-3.066z" id="Shape"/><path id="Rectangle-path" d="M322.25 217.158h2.417V220h-2.417z"/><path d="M324.667 195.618l-1.21-2.072-1.207 2.072v3.066h2.417v-3.066z" id="Shape"/><path id="Rectangle-path" d="M322.25 202.947h2.417v9.947h-2.417zm6.283 0h2.417v9.947h-2.417zm0 14.21h2.417V220h-2.417z"/><path d="M330.95 195.618l-1.208-2.072-1.21 2.072v3.066h2.418v-3.066z" id="Shape"/><path id="Rectangle-path" d="M334.817 217.158h2.417V220h-2.417zm0-14.21h2.417v9.946h-2.417z"/><path d="M337.233 195.618l-1.208-2.072-1.208 2.072v3.066h2.416v-3.066z" id="Shape"/><path id="Rectangle-path" d="M341.1 202.947h2.417v9.947H341.1zm0 14.21h2.417V220H341.1z"/><path d="M343.517 195.618l-1.21-2.072-1.207 2.072v3.066h2.417v-3.066zm-2.417 3.777H315v2.842h29v-2.842h-2.9zm0 14.21H315v2.842h29v-2.842h-2.9z" id="Shape"/></g><g fill="#979797"><path d="M311.196 111.55l.165 19.43c-.2 2.06-.4 6.86 1.65 6.588 2.057-.27 2.208-1.595 2.406-3.655l-.427-26.282c.2-2.06-.94-3.16-2.995-2.89 0 0-29.597 1.43-30.5 2.366-2.1 2.172-.547 3.215 1.507 2.944l25.824-.79-38.29 39.61c-1.593 1.65-2.972 2.787-1.66 4.054 1.31 1.267 2.44-.112 4.034-1.76l38.29-39.612z" id="Shape"/></g><g fill="#000"><path id="Rectangle-path" d="M204.967 292.947h2.417v9.947h-2.417zm0 14.21h2.417V310h-2.417z"/><path d="M207.383 285.618l-1.208-2.072-1.208 2.072v3.066h2.416v-3.066z" id="Shape"/><path id="Rectangle-path" d="M211.25 307.158h2.417V310h-2.417z"/><path d="M213.667 285.618l-1.21-2.072-1.207 2.072v3.066h2.417v-3.066z" id="Shape"/><path id="Rectangle-path" d="M211.25 292.947h2.417v9.947h-2.417zm6.283 0h2.417v9.947h-2.417zm0 14.21h2.417V310h-2.417z"/><path d="M219.95 285.618l-1.208-2.072-1.21 2.072v3.066h2.418v-3.066z" id="Shape"/><path id="Rectangle-path" d="M223.817 307.158h2.417V310h-2.417zm0-14.21h2.417v9.946h-2.417z"/><path d="M226.233 285.618l-1.208-2.072-1.208 2.072v3.066h2.416v-3.066z" id="Shape"/><path id="Rectangle-path" d="M230.1 292.947h2.417v9.947H230.1zm0 14.21h2.417V310H230.1z"/><path d="M232.517 285.618l-1.21-2.072-1.207 2.072v3.066h2.417v-3.066zm-2.417 3.777H204v2.842h29v-2.842h-2.9zm0 14.21H204v2.842h29v-2.842h-2.9z" id="Shape"/></g><g fill="#000"><path id="Rectangle-path" d="M273.967 127.947h2.417v9.947h-2.417zm0 14.21h2.417V145h-2.417z"/><path d="M276.383 120.618l-1.208-2.072-1.208 2.072v3.066h2.416v-3.066z" id="Shape"/><path d="M280.25 142.158h2.417V145h-2.417z"/><path d="M282.667 120.618l-1.21-2.072-1.207 2.072v3.066h2.417v-3.066z" id="Shape"/><path d="M280.25 127.947h2.417v9.947h-2.417zm6.283 0h2.417v9.947h-2.417zm0 14.21h2.417V145h-2.417z"/><path d="M288.95 120.618l-1.208-2.072-1.21 2.072v3.066h2.418v-3.066z"/><path d="M292.817 142.158h2.417V145h-2.417zm0-14.21h2.417v9.946h-2.417zM295.233 120.618l-1.208-2.072-1.208 2.072v3.066h2.416v-3.066zM299.1 127.947h2.417v9.947H299.1zm0 14.21h2.417V145H299.1zm2.417-21.54l-1.21-2.07-1.207 2.07v3.067h2.417v-3.066zm-2.417 3.778H273v2.842h29v-2.842h-2.9zm0 14.21H273v2.842h29v-2.842h-2.9z"/></g><text font-family="Open Sans" font-size="10.108" fill="#373535"><tspan x="28" y="64">http://javascript.info</tspan></text><path d="M424 200v29h59v-29h-59zm43.124 1.02l-13.63 9.24-15.214-9.24h28.844zm-35.137 4.618l16.436 9.658-16.436 8.54v-18.198zm43.023 22.406h-43.023v-2.624l17.563-9.167 3.945 2.676 4.133-2.68 17.382 9.167v2.623zm0-4.208l-15.97-8.793 15.97-10.71v19.503z" fill="#979797"/></g></svg>