<svg width="566" height="449" viewBox="0 0 566 449" xmlns="http://www.w3.org/2000/svg"><title>limitations.svg</title><desc>Created with bin/sketchtool.</desc><g fill="none" fill-rule="evenodd"><path d="M183 142l10 8" stroke="#fff" stroke-width="4.332" stroke-linecap="square"/><rect stroke="#979797" stroke-width="1.444" x="148" y="176" width="145" height="87" rx="2.166"/><path d="M149.36 195h143.28" stroke="#979797" stroke-width=".722" stroke-linecap="square"/><text font-family="Open Sans" font-size="10.108" fill="#373535"><tspan x="173" y="189">http://javascript.info</tspan></text><text font-family="Open Sans" font-size="10" fill="#373535"><tspan x="173" y="211">&amp;lt;script&amp;gt;</tspan><tspan x="173" y="225">...</tspan><tspan x="173" y="239">&amp;lt;/script&amp;gt;</tspan></text><circle stroke="#979797" stroke-width=".722" cx="155" cy="185" r="2"/><circle stroke="#979797" stroke-width=".722" cx="161" cy="185" r="2"/><circle stroke="#979797" stroke-width=".722" cx="167" cy="185" r="2"/><rect stroke="#BCA68E" stroke-width="1.444" x="415" y="176" width="145" height="87" rx="2.166"/><path d="M415.36 195h143.28" stroke="#979797" stroke-width=".722" stroke-linecap="square"/><text font-family="Open Sans" font-size="10" fill="#373535"><tspan x="439" y="189">http://gmail.com</tspan></text><circle stroke="#979797" stroke-width=".722" cx="422" cy="185" r="2"/><circle stroke="#979797" stroke-width=".722" cx="427" cy="185" r="2"/><circle stroke="#979797" stroke-width=".722" cx="433" cy="185" r="2"/><g fill="#E8C48F"><path d="M435 70.882c0-13.323-10.912-24.12-24.374-24.12-2.08 0-4.088.284-6.014.77.282-1.605.438-3.253.438-4.938C405.05 26.802 392.11 14 376.153 14c-15.958 0-28.896 12.802-28.896 28.594 0 1.714.16 3.39.453 5.02-2.025-.54-4.142-.853-6.337-.853C327.91 46.76 317 57.56 317 70.884c0 12.566 9.714 22.876 22.116 24.005.138.06.287.095.446.095h1.46c.118 0 .232.018.35.018.12 0 .235-.016.354-.017h68.548c.12 0 .234.018.353.018.12 0 .233-.016.352-.017h.62c.075 0 .14-.028.21-.04C424.715 94.326 435 83.806 435 70.88z" id="Shape"/></g><g fill="#fff"><path d="M393.377 72.83l-.166.27-.307-.08c-1.066-.28-3.304-.815-6.363-1.264l-.446-.065.087-.436c.11-.564.21-1.13.298-1.698l-.587-1.94c-.145 1.198-.334 2.39-.57 3.572l-.076.388-.396-.048c-3.647-.5-7.434-.51-7.434-.51V68.89l-.428-1.575-.405 1.577-.025 2.12s-3.654-.022-7.58.447l-.398.05-.076-.39c-.23-1.18-.417-2.37-.56-3.566l-.606 1.865c.093.59.195 1.182.31 1.77l.083.435-.44.067c-2.11.32-4.2.764-6.213 1.324l-.314.086-.17-.278c-.34-.56-.643-1.143-.925-1.733h-.95c3.127 6.94 10.137 11.79 18.27 11.79 8.13 0 15.143-4.85 18.27-11.79h-.952c-.28.595-.583 1.176-.926 1.738zm-22.807 8.138l.014-.007-.917-.377c-3.19-1.317-5.972-3.472-8.042-6.235l-.38-.503.613-.163c1.804-.476 3.707-.863 5.655-1.15l.396-.06.087.386c.553 2.423 1.305 4.836 2.233 7.175l.367.926.105.045-.132-.034zm5.985 1.06l-.448-.017c-1.474-.066-2.944-.306-4.372-.71l-.088-.025c-1.03-2.49-2.174-5.85-2.78-8.45l-.107-.466.475-.055c2.225-.26 4.544-.397 6.89-.403l.43-.002v10.13zm1.308-.02l-.45.02V71.9l.437.012c2.225.05 4.487.21 6.728.477l.478.054-.11.463c-.61 2.595-1.843 5.965-2.875 8.433-1.37.38-2.79.606-4.206.67zm14.467-7.637c-2.105 2.8-4.937 4.97-8.19 6.277l-.837.338.02.01-.032.01.29-.908c.93-2.336 1.684-4.744 2.24-7.157l.09-.383.392.056c2.558.366 4.558.795 5.784 1.09l.632.15-.386.518zm-31.5-21.568l.167-.26.3.076c1.16.296 3.07.728 5.576 1.117l.417.065-.057.415c-.163 1.16-.28 2.334-.366 3.51h.853c.084-1.135.198-2.267.354-3.387l.06-.42.42.056c2.508.327 5.06.517 7.58.566l.42.01v3.176h.86v-3.17l.424-.005c2.56-.012 5.067-.175 7.456-.48l.422-.053.06.418c.15 1.087.258 2.188.338 3.29h.856c-.084-1.146-.197-2.29-.355-3.422l-.057-.413.416-.068c1.903-.3 3.814-.712 5.678-1.22l.306-.084.17.266c1.46 2.275 2.41 4.836 2.796 7.49l.528-1.847c-2.083-8.764-10.02-15.31-19.467-15.31-9.396 0-17.295 6.472-19.433 15.164l.503 1.927c.395-2.626 1.333-5.153 2.775-7.404zm24.658-6.846c2.535 1.255 4.807 3.094 6.563 5.32l.408.51-.633.166c-1.58.407-3.255.752-4.98 1.02l-.418.066-.073-.414c-.465-2.71-1.054-4.846-1.467-6.16l-.3-.953.902.447zm-8.075-1.985l.45.023c1.87.084 3.71.44 5.467 1.057l.192.065.07.19c.356.968 1.26 3.632 1.916 7.412l.075.44-.445.054c-2.36.296-4.814.45-7.293.46h-.432v-9.7zm-7.12 1.198l.19-.068c1.804-.65 3.697-1.022 5.623-1.11l.45-.02v9.697l-.44-.01c-2.443-.052-4.933-.238-7.398-.552l-.444-.056.077-.44c.623-3.547 1.445-6.068 1.878-7.255l.067-.19zm-8.367 6.098c1.717-2.17 3.928-3.98 6.394-5.226l.904-.46-.3.964c-.396 1.27-.966 3.338-1.424 5.972l-.073.413-.415-.066c-2.137-.326-3.816-.682-4.847-.923l-.657-.15.418-.526zm-1.4 13.234c.35-1.07.662-2.097.91-3.29h.043c.246 1.17.535 2.16.887 3.27l1.53 4.75h1.657l3.23-9.954h-1.8l-1.43 4.998c-.332 1.173-.6 2.222-.767 3.23h-.06c-.227-1.008-.518-2.058-.89-3.25l-1.554-4.978h-1.53l-1.638 5.08c-.33 1.07-.66 2.138-.888 3.146h-.064c-.184-1.028-.455-2.058-.744-3.168l-1.325-5.06h-1.863l3.02 9.955h1.657l1.615-4.73zm19.754 3.003h-.06c-.228-1.007-.52-2.057-.89-3.25l-1.555-4.977h-1.528l-1.637 5.08c-.33 1.07-.664 2.14-.89 3.146h-.062c-.186-1.028-.456-2.057-.746-3.168l-1.326-5.06h-1.863l3.023 9.957h1.656l1.615-4.73c.353-1.07.664-2.097.913-3.29h.04c.25 1.17.54 2.16.89 3.27l1.53 4.75h1.657l3.23-9.954h-1.802l-1.428 4.998c-.33 1.173-.6 2.223-.766 3.23zm17.686-8.227l-1.428 4.998c-.333 1.173-.6 2.222-.764 3.23h-.063c-.224-1.008-.515-2.058-.89-3.25l-1.55-4.978h-1.53l-1.635 5.08c-.332 1.07-.665 2.138-.89 3.146h-.064c-.184-1.028-.456-2.058-.744-3.168l-1.325-5.06h-1.86l3.02 9.956h1.657l1.614-4.73c.35-1.07.664-2.1.913-3.292h.043c.25 1.173.537 2.16.89 3.273l1.53 4.75h1.655l3.23-9.955h-1.803v.002z" id="Shape"/></g><g fill="#E8C48F"><path d="M129 60.882c0-13.323-10.912-24.12-24.374-24.12-2.08 0-4.088.284-6.014.77.282-1.605.438-3.253.438-4.938C99.05 16.802 86.11 4 70.153 4 54.195 4 41.257 16.802 41.257 32.594c0 1.714.16 3.39.453 5.02-2.025-.54-4.142-.853-6.337-.853C21.91 36.76 11 47.56 11 60.884c0 12.566 9.714 22.876 22.116 24.005.138.06.287.095.446.095h1.46c.118 0 .232.018.35.018.12 0 .235-.016.354-.017h68.548c.12 0 .234.018.353.018.12 0 .233-.016.352-.017h.62c.075 0 .14-.028.21-.04C118.715 84.326 129 73.806 129 60.88z" id="Shape"/></g><g fill="#E8C48F"><path d="M458 213v29h59v-29h-59zm43.124 1.02l-13.63 9.24-15.214-9.24h28.844zm-35.137 4.618l16.436 9.658-16.436 8.54v-18.198zm43.023 22.406h-43.023v-2.624l17.563-9.167 3.945 2.676 4.133-2.678 17.382 9.167v2.623zm0-4.208l-15.97-8.793 15.97-10.71v19.503z" id="Shape"/></g><path d="M135.28 103.68l19.27.214c2.04.24 6.795.536 6.556-1.506-.24-2.043-1.55-2.218-3.59-2.455l-26.07-.088c-2.04-.24-3.15.87-2.912 2.913 0 0 1 29.376 1.913 30.29 2.125 2.123 3.18.604 2.94-1.438l-.415-25.622 24.737 24.737 16.53 16.53 13.293 13.295c1.613 1.612 2.455 2.848 3.73 1.574 1.274-1.275.19-2.27-1.42-3.882L135.28 103.68z" fill="#999647"/><path d="M488.5 252.5l1.5 1.5" stroke="#979797" stroke-width=".722" stroke-linecap="square"/><text font-family="Open Sans" font-size="10" fill="#fff"><tspan x="23" y="63.969">http://javascript.info</tspan></text><g fill="#E8C48F"><path d="M232.412 380h-49c-1.5 0-2.412 1.438-2.412 3.345v41.39c0 1.908.91 3.553 2.41 3.553h21.26v5.147h-7.508c-2.39 0-4.328 2.457-4.328 5.48V440h29.222v-1.085c0-3.027-1.94-5.48-4.328-5.48h-7.51v-5.147h22.194c1.503 0 2.588-1.638 2.588-3.552v-41.394c-.003-1.904-1.085-3.342-2.588-3.342zm-3.417 37.522c0 2.472-1.55 4.478-3.48 4.478H189.48c-1.92 0-3.48-2-3.48-4.478v-26.048c0-2.472 1.556-4.474 3.48-4.474h36.038c1.92 0 3.482 2.002 3.482 4.474v26.048h-.005zM244.585 379c-3.08 0-5.585 3.153-5.585 7.046V440h29v-55.51c0-3.034-1.95-5.49-4.348-5.49h-19.066zm8.916 54c-1.384 0-2.5-1.346-2.5-3s1.125-3 2.5-3c1.38 0 2.5 1.346 2.5 3s-1.123 3-2.5 3zm7.5-32.248h-16V397h16v3.752zm0-7h-16V390h16v3.752z" id="Shape"/></g><path d="M304.72 103.68l-19.27.214c-2.04.24-6.795.536-6.556-1.506.24-2.043 1.55-2.218 3.59-2.455l26.07-.088c2.04-.24 3.15.87 2.912 2.913 0 0-1 29.376-1.913 30.29-2.125 2.123-3.18.604-2.94-1.438l.415-25.622-24.737 24.737-16.53 16.53-13.293 13.295c-1.613 1.612-2.455 2.848-3.73 1.574-1.274-1.275-.19-2.27 1.42-3.882l54.564-54.563z" id="Shape-3" fill="#CB1E31"/><g fill="#CB1E31"><path d="M225.326 355.314l13.476-13.78c1.274-1.612 4.427-5.184 5.702-3.57 1.275 1.613.472 2.664-.803 4.275l-18.373 18.496c-1.275 1.613-2.845 1.613-4.12 0 0 0-20.067-21.482-20.067-22.774 0-3.005 1.82-2.677 3.095-1.063l17.826 18.413V278.14c0-2.28-.277-3.75 1.526-3.75 1.804 0 1.74 1.47 1.74 3.75v77.174z"/></g><path d="M389.636 216.964l-13.78-13.476c-1.612-1.274-5.184-4.427-3.57-5.702 1.613-1.275 2.664-.472 4.275.803l18.5 18.373c1.613 1.275 1.613 2.845 0 4.12 0 0-21.482 20.067-22.774 20.067-3.005 0-2.677-1.82-1.063-3.095l18.414-17.826h-77.174c-2.28 0-3.75.277-3.75-1.526 0-1.804 1.47-1.74 3.75-1.74h77.174z" fill="#CB1E31"/><g transform="translate(143 114)"><circle id="Oval-9" fill="#fff" cx="20" cy="20" r="20"/><path d="M19.713 6.28c7.426 0 13.468 6.133 13.468 13.674 0 7.54-6.04 13.676-13.466 13.676-7.427 0-13.468-6.135-13.468-13.676 0-7.54 6.04-13.675 13.468-13.675zm0-2.28C11.033 4 4 11.143 4 19.954c0 8.812 7.034 15.955 15.713 15.955 8.678 0 15.712-7.145 15.712-15.957C35.425 11.143 28.39 4 19.713 4zm-4.49 7.977c-1.24 0-2.244 1.532-2.244 3.42 0 1.89 1.002 3.418 2.242 3.418s2.245-1.53 2.245-3.42c0-1.886-1.004-3.418-2.245-3.418zm8.98 0c-1.242 0-2.246 1.532-2.246 3.42 0 1.89 1.004 3.418 2.245 3.418 1.24 0 2.245-1.53 2.245-3.42 0-1.886-1.004-3.418-2.245-3.418zm5.567 10.575c.173-.603-.17-1.235-.765-1.413-.594-.183-1.217.17-1.392.772-1.017 3.544-4.266 6.02-7.9 6.02-3.635 0-6.883-2.476-7.902-6.02-.17-.6-.787-.955-1.39-.774-.595.177-.936.81-.762 1.412 1.295 4.51 5.43 7.66 10.056 7.66 4.625 0 8.76-3.15 10.057-7.66z" id="Shape" fill="#999647"/></g><g transform="translate(143 114)"><circle id="Oval-9" fill="#fff" cx="20" cy="20" r="20"/><path d="M19.713 6.28c7.426 0 13.468 6.133 13.468 13.674 0 7.54-6.04 13.676-13.466 13.676-7.427 0-13.468-6.135-13.468-13.676 0-7.54 6.04-13.675 13.468-13.675zm0-2.28C11.033 4 4 11.143 4 19.954c0 8.812 7.034 15.955 15.713 15.955 8.678 0 15.712-7.145 15.712-15.957C35.425 11.143 28.39 4 19.713 4zm-4.49 7.977c-1.24 0-2.244 1.532-2.244 3.42 0 1.89 1.002 3.418 2.242 3.418s2.245-1.53 2.245-3.42c0-1.886-1.004-3.418-2.245-3.418zm8.98 0c-1.242 0-2.246 1.532-2.246 3.42 0 1.89 1.004 3.418 2.245 3.418 1.24 0 2.245-1.53 2.245-3.42 0-1.886-1.004-3.418-2.245-3.418zm5.567 10.575c.173-.603-.17-1.235-.765-1.413-.594-.183-1.217.17-1.392.772-1.017 3.544-4.266 6.02-7.9 6.02-3.635 0-6.883-2.476-7.902-6.02-.17-.6-.787-.955-1.39-.774-.595.177-.936.81-.762 1.412 1.295 4.51 5.43 7.66 10.056 7.66 4.625 0 8.76-3.15 10.057-7.66z" id="Shape" fill="#999647"/></g><g transform="translate(257 114)"><circle id="Oval-9" fill="#fff" cx="20" cy="20" r="20"/><g id="Oval-12-+-Shape-3" fill="#CB1E31"><path d="M20 6.532c7.427 0 13.468 6.04 13.468 13.468 0 7.427-6.04 13.468-13.468 13.468-7.427 0-13.468-6.04-13.468-13.468 0-7.427 6.04-13.468 13.468-13.468zm0-2.245C11.322 4.287 4.287 11.322 4.287 20c0 8.678 7.035 15.713 15.713 15.713 8.678 0 15.713-7.035 15.713-15.713 0-8.678-7.035-15.713-15.713-15.713zm-4.49 7.857c-1.24 0-2.244 1.508-2.244 3.367 0 1.863 1.004 3.37 2.245 3.37 1.24 0 2.246-1.507 2.246-3.368 0-1.858-1.004-3.366-2.244-3.366zm8.98 0c-1.24 0-2.245 1.508-2.245 3.367 0 1.863 1.004 3.37 2.244 3.37 1.24 0 2.243-1.507 2.243-3.368 0-1.858-1.004-3.366-2.245-3.366zm5.162 15.49c.495-.374.596-1.078.225-1.573-2.32-3.09-6.012-4.937-9.877-4.937-3.865 0-7.557 1.846-9.876 4.94-.373.494-.272 1.198.223 1.57.497.37 1.2.27 1.572-.225 1.896-2.53 4.917-4.04 8.08-4.04 3.16 0 6.183 1.51 8.08 4.04.22.294.56.45.9.45.232 0 .47-.073.67-.224z" id="Shape"/></g></g><g transform="translate(327 198)"><circle fill="#fff" cx="20" cy="20" r="20"/><g fill="#CB1E31"><path d="M20 6.532c7.427 0 13.468 6.04 13.468 13.468 0 7.427-6.04 13.468-13.468 13.468-7.427 0-13.468-6.04-13.468-13.468 0-7.427 6.04-13.468 13.468-13.468zm0-2.245C11.322 4.287 4.287 11.322 4.287 20c0 8.678 7.035 15.713 15.713 15.713 8.678 0 15.713-7.035 15.713-15.713 0-8.678-7.035-15.713-15.713-15.713zm-4.49 7.857c-1.24 0-2.244 1.508-2.244 3.367 0 1.863 1.004 3.37 2.245 3.37 1.24 0 2.246-1.507 2.246-3.368 0-1.858-1.004-3.366-2.244-3.366zm8.98 0c-1.24 0-2.245 1.508-2.245 3.367 0 1.863 1.004 3.37 2.244 3.37 1.24 0 2.243-1.507 2.243-3.368 0-1.858-1.004-3.366-2.245-3.366zm5.162 15.49c.495-.374.596-1.078.225-1.573-2.32-3.09-6.012-4.937-9.877-4.937-3.865 0-7.557 1.846-9.876 4.94-.373.494-.272 1.198.223 1.57.497.37 1.2.27 1.572-.225 1.896-2.53 4.917-4.04 8.08-4.04 3.16 0 6.183 1.51 8.08 4.04.22.294.56.45.9.45.232 0 .47-.073.67-.224z"/></g></g><g transform="translate(203 293)"><circle fill="#fff" cx="20" cy="20" r="20"/><path d="M20 6.532c7.427 0 13.468 6.04 13.468 13.468 0 7.427-6.04 13.468-13.468 13.468-7.427 0-13.468-6.04-13.468-13.468 0-7.427 6.04-13.468 13.468-13.468zm0-2.245C11.322 4.287 4.287 11.322 4.287 20c0 8.678 7.035 15.713 15.713 15.713 8.678 0 15.713-7.035 15.713-15.713 0-8.678-7.035-15.713-15.713-15.713zm-4.49 7.857c-1.24 0-2.244 1.508-2.244 3.367 0 1.863 1.004 3.37 2.245 3.37 1.24 0 2.246-1.507 2.246-3.368 0-1.858-1.004-3.366-2.244-3.366zm8.98 0c-1.24 0-2.245 1.508-2.245 3.367 0 1.863 1.004 3.37 2.244 3.37 1.24 0 2.243-1.507 2.243-3.368 0-1.858-1.004-3.366-2.245-3.366zm5.162 15.49c.495-.374.596-1.078.225-1.573-2.32-3.09-6.012-4.937-9.877-4.937-3.865 0-7.557 1.846-9.876 4.94-.373.494-.272 1.198.223 1.57.497.37 1.2.27 1.572-.225 1.896-2.53 4.917-4.04 8.08-4.04 3.16 0 6.183 1.51 8.08 4.04.22.294.56.45.9.45.232 0 .47-.073.67-.224z" fill="#CB1E31"/></g></g></svg>