<svg width="526" height="400" viewBox="0 0 526 400" xmlns="http://www.w3.org/2000/svg"><title>Slice 1</title><desc>Created with Sketch.</desc><g fill="none" fill-rule="evenodd"><g fill="#979797"><path d="M149.914 102.76l19.16-2.132c2.056-.01 6.812-.294 6.326-2.292-.485-2-1.808-2.014-3.863-2L145.64 99.42c-2.054.01-3.02 1.246-2.535 3.244 0 0 4.566 29.046 5.584 29.842 2.362 1.85 3.23.214 2.74-1.784l-3.53-25.39 27.57 21.552 18.425 14.403 14.816 11.584c1.798 1.41 2.784 2.53 3.895 1.11 1.11-1.42-.084-2.272-1.88-3.68l-60.815-47.54z" id="Shape"/></g><path d="M181 129l10 8" stroke="#fff" stroke-width="4.332" stroke-linecap="square"/><g fill="#000"><path d="M195.343 130.17c-.962-.895-2.29-1.114-3.462-1.303-.18-.03-.36-.06-.54-.092-.13-.035-.3-.072-.47-.112-1.563-.355-2.667-.702-2.67-1.955-.005-.824.273-1.587.567-2.398.337-.927.685-1.887.63-3.005-.106-1.992-.97-3.724-2.313-4.638-.535-.42-1.24-.667-1.91-.667-1 0-1.743.53-2.046 1.455-.213.624-.176 1.23-.138 1.872.007.158.02.32.023.488.036.884-.07 1.614-.337 2.304-.5 1.37-1.502 2.66-2.32 3.63l-.447.55c-.628.77-1.275 1.57-2.01 2.21-.36.28-.747.38-1.243.482-.14.01-8.653.092-8.653.092v12.244s6.677-.008 7.052-.03c.33-.02.648-.037.938-.037h.136c.276.058.553.087.843.12.258.026.524.054.804.107.314.06.64.36.954.65.18.166.36.33.54.452.18.122.353.247.532.374.547.39 1.11.792 1.753 1.072.79.332 1.664.442 2.51.55.412.05.82.1 1.21.177.256.03.476.053.698.08.663.07 1.35.15 2.035.15.464 0 .873-.037 1.25-.11 1.352-.377 2.214-1.45 2.214-2.683.687-.267 1.3-.83 1.69-1.55.35-.642.464-1.33.34-1.94 1.305-.836 1.98-2.404 1.616-3.75.577-.39.975-1.04 1.113-1.83.19-1.096-.154-2.26-.88-2.966zm-.88 2.454c-.046.377-.22.843-.808.947-.315.09-.527.27-.628.528-.124.306-.077.688.125 1.015.212.247.245.76.12 1.21-.172.533-.57.91-1.186 1.115-.262.032-.496.21-.625.48-.14.31-.11.645.09.877.178.245.14.795-.1 1.248-.19.358-.46.573-.72.573-.038 0-.075-.004-.113-.013l-.04-.01h-.044c-.323 0-.743.14-.95.455-.14.21-.16.46-.054.694.127.338.114.724-.047.983-.117.19-.3.3-.55.33-.44.114-.884.114-1.31.114-1.27-.11-2.618-.23-3.92-.46l-.62-.137c-.32-.07-.64-.14-.923-.21-.467-.223-.988-.61-1.49-.982-.17-.12-.33-.242-.493-.36-.118-.09-.245-.206-.375-.326-.332-.302-.703-.647-1.166-.77-.435-.263-.9-.263-1.275-.263-1.214-.11-1.786-.54-2.08-1.58-.29-1.047-.303-2.243-.286-3.28l.004-.233c.01-.977.025-2.198.537-3.086.255-.422.762-.512 1.35-.622.813-.13 1.453-.39 2.05-.84.085-.03.173-.092.238-.21.246-.163.445-.4.626-.616.962-1.023 1.847-2.09 2.544-3.07.163-.237.326-.463.486-.688.74-1.036 1.505-2.106 1.83-3.425.23-.97.21-1.81.156-2.805l-.007-.15c-.04-.603-.05-1.256.3-1.304.02-.004.05-.007.08-.007.564 0 1.28.7 1.704 1.346.443.82.675 1.683.65 2.463-.022.81-.292 1.577-.578 2.39-.338.96-.687 1.954-.607 3.035.115 1.47 1.31 2.744 2.972 3.166.486.123 1 .205 1.498.284.93.148 1.89.3 2.67.73.514.25 1.057.78.96 1.47z" id="Shape"/></g><rect stroke="#979797" stroke-width="1.444" x="151" y="163" width="145" height="87" rx="2.166"/><path d="M454.5 239.5l1.5 1.5m-303.64-59h143.28" stroke="#979797" stroke-width=".722" stroke-linecap="square"/><text font-family="Open Sans" font-size="10.108" fill="#373535"><tspan x="176" y="176">http://javascript.info</tspan></text><text font-family="Open Sans" font-size="10.108" fill="#979797"><tspan x="176" y="198">&amp;lt;script&amp;gt;</tspan><tspan x="176" y="212">...</tspan><tspan x="176" y="226">&amp;lt;/script&amp;gt;</tspan></text><circle stroke="#979797" stroke-width=".722" cx="158" cy="172" r="2"/><circle stroke="#979797" stroke-width=".722" cx="164" cy="172" r="2"/><circle stroke="#979797" stroke-width=".722" cx="170" cy="172" r="2"/><rect stroke="#979797" stroke-width="1.444" x="381" y="163" width="145" height="87" rx="2.166"/><path d="M381.36 182h143.28" stroke="#979797" stroke-width=".722" stroke-linecap="square"/><text font-family="Open Sans" font-size="10.108" fill="#373535"><tspan x="405" y="176">http://gmail.com</tspan></text><circle stroke="#979797" stroke-width=".722" cx="388" cy="172" r="2"/><circle stroke="#979797" stroke-width=".722" cx="393" cy="172" r="2"/><circle stroke="#979797" stroke-width=".722" cx="399" cy="172" r="2"/><g fill="#979797"><path d="M216.17 338.79l-13.24-14.073c-1.246-1.642-4.338-5.284-5.64-3.685-1.303 1.6-.518 2.668.73 4.31l18.06 18.895c1.246 1.642 2.816 1.67 4.118.07 0 0 20.435-21.24 20.457-22.538.05-3.02-1.776-2.728-3.078-1.13l-18.14 18.2.597-35.15.4-23.49.32-18.893c.04-2.29.343-3.76-1.46-3.793-1.803-.032-1.766 1.446-1.805 3.737l-1.32 77.533z" id="Shape"/></g><g fill="#979797"><path d="M365.7 210.48l-14.086 13.387c-1.644 1.26-5.29 4.387-3.69 5.703 1.6 1.317 2.67.523 4.313-.74l18.915-18.256c1.644-1.26 1.67-2.848.07-4.164 0 0-21.254-20.652-22.553-20.674-3.028-.05-2.73 1.795-1.13 3.11l18.21 18.335-55.09-.93c-2.295-.04-4.068-.27-4.1 1.554-.03 1.82 1.75 1.708 4.04 1.747l55.095.936z" id="Shape"/></g><g fill="#979797"><path d="M228.36 352.482h-38.258c-1.17 0-1.882 1.13-1.882 2.63v32.526c0 1.498.71 2.79 1.882 2.79h16.6v4.046h-5.864c-1.865 0-3.38 1.93-3.38 4.307v.86h22.817v-.853c0-2.378-1.514-4.306-3.38-4.306h-5.862v-4.045h17.328c1.18 0 2.02-1.287 2.02-2.79v-32.53c0-1.497-.84-2.627-2.02-2.627zm-2.313 29.295c0 1.925-1.218 3.487-2.734 3.487h-28.318c-1.51 0-2.734-1.556-2.734-3.487v-20.284c0-1.925 1.23-3.484 2.74-3.484h28.32c1.51 0 2.737 1.552 2.737 3.48v20.28h-.003zm12.135-29.66c-2.393 0-4.338 2.474-4.338 5.53v42.346h22.522v-43.568c0-2.38-1.514-4.31-3.377-4.31h-14.81zm6.985 42.64c-1.027 0-1.853-1.03-1.853-2.3 0-1.266.833-2.3 1.852-2.3 1.02 0 1.85 1.034 1.85 2.3 0 1.27-.832 2.3-1.85 2.3zm6.3-26.067h-12.71v-2.58h12.71v2.58zm0-5.525h-12.71v-2.58h12.71v2.58z" id="Shape"/></g><g fill="#979797"><path d="M106.428 31.308c3.16-7.13-.667-15.905-8.392-18.945-8.792-3.46-17.775-.31-22.664 6.877C74.16 3.88 54.868-2.47 40.502 1.86c-17.427 5.253-29.62 28.88-19.47 44.493C4.776 41.283-1.743 63.82.797 78.148c3.63 20.467 29.84 29.12 39.323 10.278 8.494 22.25 56.426 25.15 54.845.672 3.862 2.883 13.103 3.944 15.13 4.158 12.987 1.376 23.822-4.847 29.447-16.668 9.656-20.288-10.753-53.51-33.114-45.28zm31.42 41.532c-2.74 10.355-13.108 18.08-23.704 17.877-3.793-.072-18.335-.706-19.522-5.8-.067-.29-.37-.407-.63-.35-.847-.81-2.582-.056-2.312 1.408 2.526 13.66-10.262 17.81-21.482 17.59-12.126-.238-24.25-6.408-28.915-17.85.2-.54.4-1.078.575-1.653.06-.2-.11-.457-.33-.435-.58.058-.838.132-1.095.31-.543-.486-1.504-.092-1.354.805.02.14.07.27.09.41-3.568 3.713-3.577 7.98-9.577 10.344-11.27 4.442-22.5-4.386-25.412-14.906C.396 66.908 5.645 40.874 24.59 50.864c1.51.796 2.82-1.428 1.34-2.3-.557-.327-1.104-.617-1.644-.887-10.58-15.717.296-36.584 16.97-43.067 7.06-2.745 15.225-1.84 21.912 1.41 8.26 4.015 9.683 12.025 9.15 20.31-.088 1.362 2.004 1.602 2.336.318.23-.89.34-1.73.466-2.577 4.02-7.852 11.433-12.162 20.467-9.56 3.53 1.02 6.51 3.42 8.212 6.66 2.38 4.525-.28 8.628-2.263 12.59-.01.008-.02.01-.03.02-1.566 1.015-.112 3.538 1.468 2.516 22.136-14.332 39.782 17.987 34.867 36.55z" id="Shape"/></g><g fill="#000"><path d="M404.377 71.83l-.166.27-.302-.08c-1.066-.28-3.304-.815-6.363-1.264l-.445-.065.086-.43c.11-.565.21-1.13.298-1.7l-.587-1.94c-.145 1.198-.334 2.39-.57 3.57l-.076.39-.395-.05c-3.646-.5-7.433-.51-7.433-.51v-2.13l-.427-1.575-.406 1.577-.026 2.12s-3.653-.02-7.58.45l-.4.05-.073-.39c-.23-1.18-.417-2.37-.56-3.567l-.606 1.866c.093.59.195 1.18.31 1.77l.083.435-.44.068c-2.11.32-4.2.765-6.213 1.325l-.316.086-.17-.277c-.34-.56-.643-1.143-.925-1.733h-.95c3.125 6.94 10.135 11.79 18.27 11.79 8.13 0 15.14-4.85 18.27-11.79h-.954c-.28.594-.584 1.175-.927 1.737zm-22.807 8.138l.014-.007-.917-.372c-3.19-1.317-5.972-3.472-8.042-6.235l-.38-.503.613-.164c1.804-.476 3.707-.863 5.655-1.15l.396-.06.082.386c.553 2.42 1.305 4.834 2.233 7.173l.366.926.106.045-.13-.034zm5.985 1.06l-.448-.017c-1.474-.06-2.944-.3-4.372-.71l-.088-.02c-1.03-2.49-2.174-5.85-2.78-8.45l-.107-.466.475-.054c2.225-.26 4.544-.398 6.89-.404l.43-.002v10.13zm1.308-.02l-.45.02V70.9l.437.012c2.225.05 4.487.21 6.728.477l.478.05-.11.462c-.61 2.595-1.843 5.965-2.875 8.433-1.37.38-2.79.605-4.2.67zm14.467-7.637c-2.105 2.8-4.937 4.97-8.19 6.28l-.837.34.02.01-.032.01.29-.91c.93-2.335 1.69-4.743 2.24-7.156l.09-.382.397.057c2.558.365 4.558.794 5.784 1.09l.63.15-.385.517zm-31.5-21.563l.167-.26.3.076c1.16.296 3.07.728 5.576 1.117l.417.064-.057.417c-.163 1.16-.28 2.335-.366 3.51h.853c.084-1.134.198-2.266.354-3.386l.06-.42.42.055c2.508.326 5.06.516 7.58.565l.42.01v3.178h.86v-3.17l.424-.004c2.56-.013 5.067-.176 7.456-.48l.422-.054.06.417c.15 1.087.258 2.188.338 3.29h.857c-.08-1.146-.19-2.29-.35-3.422l-.056-.412.416-.068c1.902-.3 3.813-.713 5.677-1.22l.306-.085.17.266c1.46 2.276 2.41 4.837 2.794 7.49l.528-1.846c-2.083-8.766-10.02-15.31-19.467-15.31-9.396 0-17.295 6.47-19.433 15.162l.503 1.927c.395-2.626 1.333-5.153 2.775-7.404zm24.658-6.846c2.535 1.255 4.807 3.094 6.563 5.32l.41.51-.63.166c-1.58.407-3.255.752-4.98 1.02l-.42.066-.072-.413c-.465-2.71-1.054-4.847-1.467-6.16l-.3-.954.9.447zm-8.075-1.985l.45.023c1.87.084 3.71.44 5.467 1.057l.192.065.07.19c.356.966 1.26 3.63 1.916 7.41l.075.44-.445.053c-2.36.296-4.814.45-7.293.46h-.432v-9.7zm-7.12 1.198l.19-.067c1.804-.65 3.697-1.022 5.623-1.11l.45-.02v9.697l-.44-.01c-2.443-.053-4.933-.24-7.398-.553l-.444-.058.077-.44c.628-3.545 1.45-6.066 1.88-7.253l.07-.19zm-8.367 6.1c1.717-2.17 3.928-3.98 6.394-5.227l.904-.46-.3.964c-.396 1.27-.966 3.336-1.424 5.97l-.073.412-.415-.065c-2.137-.326-3.816-.682-4.847-.923l-.657-.15.418-.526zm-1.4 13.233c.35-1.07.662-2.097.91-3.29h.043c.24 1.17.53 2.16.882 3.27l1.53 4.75h1.657l3.23-9.954h-1.8l-1.43 5c-.33 1.172-.6 2.22-.767 3.23h-.06c-.227-1.01-.518-2.06-.89-3.25l-1.554-4.98h-1.53l-1.638 5.08c-.33 1.07-.66 2.138-.888 3.146h-.064c-.18-1.028-.452-2.058-.74-3.168l-1.326-5.06h-1.863l3.02 9.955h1.658l1.615-4.73zm19.754 3.003h-.06c-.228-1.008-.52-2.058-.89-3.25l-1.555-4.978h-1.528l-1.637 5.08c-.33 1.07-.664 2.14-.89 3.147h-.062c-.186-1.03-.456-2.058-.746-3.17l-1.326-5.06h-1.863l3.023 9.957h1.656l1.615-4.73c.353-1.07.664-2.097.913-3.29h.04c.25 1.17.54 2.16.89 3.27l1.53 4.75h1.657l3.23-9.954h-1.802l-1.428 4.998c-.33 1.174-.6 2.224-.766 3.23zm17.686-8.228l-1.428 5c-.333 1.172-.6 2.22-.764 3.23h-.063c-.22-1.01-.51-2.06-.89-3.25l-1.55-4.98h-1.53l-1.63 5.08c-.332 1.07-.665 2.138-.89 3.146h-.064c-.184-1.028-.456-2.058-.744-3.168l-1.325-5.06h-1.86l3.02 9.956h1.657l1.616-4.73c.35-1.07.664-2.1.913-3.292h.043c.25 1.175.538 2.16.89 3.275l1.53 4.75h1.656l3.23-9.956h-1.804z" id="Shape"/></g><g fill="#979797"><path d="M423.428 31.308c3.16-7.13-.667-15.905-8.392-18.945-8.792-3.46-17.775-.31-22.664 6.877-1.212-15.36-20.504-21.71-34.87-17.38-17.427 5.253-29.62 28.88-19.47 44.493-16.257-5.07-22.776 17.467-20.236 31.795 3.63 20.467 29.84 29.12 39.323 10.278 8.49 22.25 56.42 25.15 54.84.672 3.86 2.883 13.102 3.944 15.13 4.158 12.986 1.376 23.82-4.847 29.446-16.668 9.656-20.288-10.753-53.51-33.114-45.28zm31.42 41.532c-2.74 10.355-13.108 18.08-23.704 17.877-3.793-.072-18.335-.706-19.522-5.8-.067-.29-.37-.407-.63-.35-.847-.81-2.582-.056-2.312 1.408 2.526 13.66-10.262 17.81-21.482 17.59-12.126-.238-24.25-6.408-28.915-17.85.2-.54.4-1.078.575-1.653.06-.2-.11-.457-.33-.435-.58.058-.838.132-1.095.31-.543-.486-1.504-.092-1.354.805.02.14.07.27.09.41-3.568 3.713-3.577 7.98-9.577 10.344-11.273 4.442-22.506-4.387-25.417-14.905-3.787-13.68 1.462-39.71 20.41-29.72 1.51.795 2.82-1.43 1.34-2.3-.56-.328-1.106-.618-1.646-.888-10.58-15.717.297-36.584 16.97-43.067 7.06-2.744 15.226-1.84 21.913 1.41 8.263 4.016 9.688 12.026 9.155 20.31-.088 1.363 2.004 1.603 2.336.32.23-.89.34-1.73.467-2.578 4.02-7.857 11.435-12.167 20.47-9.563 3.53 1.02 6.51 3.42 8.212 6.66 2.38 4.524-.28 8.627-2.26 12.59-.01.007-.02.01-.03.02-1.567 1.014-.113 3.537 1.467 2.515 22.136-14.333 39.782 17.986 34.867 36.55z" id="Shape"/></g><g fill="#000"><path id="Rectangle-path" d="M315.967 202.947h2.417v9.947h-2.417zm0 14.21h2.417V220h-2.417z"/><path d="M318.383 195.618l-1.208-2.072-1.208 2.072v3.066h2.416v-3.066z" id="Shape"/><path id="Rectangle-path" d="M322.25 217.158h2.417V220h-2.417z"/><path d="M324.667 195.618l-1.21-2.072-1.207 2.072v3.066h2.417v-3.066z" id="Shape"/><path id="Rectangle-path" d="M322.25 202.947h2.417v9.947h-2.417zm6.283 0h2.417v9.947h-2.417zm0 14.21h2.417V220h-2.417z"/><path d="M330.95 195.618l-1.208-2.072-1.21 2.072v3.066h2.418v-3.066z" id="Shape"/><path id="Rectangle-path" d="M334.817 217.158h2.417V220h-2.417zm0-14.21h2.417v9.946h-2.417z"/><path d="M337.233 195.618l-1.208-2.072-1.208 2.072v3.066h2.416v-3.066z" id="Shape"/><path id="Rectangle-path" d="M341.1 202.947h2.417v9.947H341.1zm0 14.21h2.417V220H341.1z"/><path d="M343.517 195.618l-1.21-2.072-1.207 2.072v3.066h2.417v-3.066zm-2.417 3.777H315v2.842h29v-2.842h-2.9zm0 14.21H315v2.842h29v-2.842h-2.9z" id="Shape"/></g><g fill="#979797"><path d="M311.196 111.55l.165 19.43c-.2 2.06-.4 6.86 1.65 6.588 2.06-.27 2.21-1.595 2.41-3.655l-.428-26.282c.2-2.06-.94-3.16-2.994-2.89 0 0-29.597 1.43-30.5 2.37-2.1 2.17-.547 3.214 1.507 2.943l25.824-.79-38.29 39.61c-1.594 1.65-2.973 2.788-1.66 4.055 1.31 1.267 2.44-.112 4.033-1.76l38.29-39.612z" id="Shape"/></g><g fill="#000"><path id="Rectangle-path" d="M204.967 292.947h2.417v9.947h-2.417zm0 14.21h2.417V310h-2.417z"/><path d="M207.383 285.618l-1.208-2.072-1.208 2.072v3.066h2.416v-3.066z" id="Shape"/><path id="Rectangle-path" d="M211.25 307.158h2.417V310h-2.417z"/><path d="M213.667 285.618l-1.21-2.072-1.207 2.072v3.066h2.417v-3.066z" id="Shape"/><path id="Rectangle-path" d="M211.25 292.947h2.417v9.947h-2.417zm6.283 0h2.417v9.947h-2.417zm0 14.21h2.417V310h-2.417z"/><path d="M219.95 285.618l-1.208-2.072-1.21 2.072v3.066h2.418v-3.066z" id="Shape"/><path d="M223.817 307.158h2.417V310h-2.417zm0-14.21h2.417v9.946h-2.417z"/><path d="M226.233 285.618l-1.208-2.072-1.208 2.072v3.066h2.416v-3.066z" id="Shape"/><path d="M230.1 292.947h2.417v9.947H230.1zm0 14.21h2.417V310H230.1z"/><path d="M232.517 285.618l-1.21-2.072-1.207 2.072v3.066h2.417v-3.066zm-2.417 3.777H204v2.842h29v-2.842h-2.9zm0 14.21H204v2.842h29v-2.842h-2.9z"/></g><g fill="#000"><path d="M273.967 127.947h2.417v9.947h-2.417zm0 14.21h2.417V145h-2.417zM276.383 120.618l-1.208-2.072-1.208 2.072v3.066h2.416v-3.066zM280.25 142.158h2.417V145h-2.417zm2.417-21.54l-1.21-2.072-1.207 2.072v3.066h2.417v-3.066zm-2.417 7.33h2.417v9.946h-2.417zm6.283 0h2.417v9.946h-2.417zm0 14.21h2.417V145h-2.417zm2.417-21.54l-1.208-2.07-1.21 2.07v3.066h2.418v-3.066zm3.867 21.54h2.417V145h-2.417zm0-14.21h2.417v9.946h-2.417zm2.416-7.33l-1.208-2.07-1.208 2.07v3.066h2.416v-3.066zm3.867 7.33h2.417v9.946H299.1zm0 14.21h2.417V145H299.1zm2.417-21.54l-1.21-2.07-1.207 2.07v3.066h2.417v-3.066zm-2.417 3.777H273v2.842h29v-2.842h-2.9zm0 14.21H273v2.842h29v-2.842h-2.9z"/></g><text font-family="Open Sans" font-size="10.108" fill="#373535"><tspan x="28" y="64">http://javascript.info</tspan></text><path d="M424 200v29h59v-29h-59zm43.124 1.02l-13.63 9.24-15.214-9.24h28.844zm-35.137 4.618l16.436 9.658-16.436 8.54v-18.198zm43.023 22.406h-43.023v-2.624l17.563-9.167 3.945 2.676 4.133-2.68 17.382 9.164v2.623zm0-4.208l-15.97-8.793 15.97-10.71v19.503z" fill="#979797"/></g></svg>