<svg xmlns="http://www.w3.org/2000/svg" width="521" height="411" viewBox="0 0 521 411"><defs><style>@import url(https://fonts.googleapis.com/css?family=Open+Sans:bold,italic,bolditalic%7CPT+Mono);@font-face{font-family:&apos;PT Mono&apos;;font-weight:700;font-style:normal;src:local(&apos;PT MonoBold&apos;),url(/font/PTMonoBold.woff2) format(&apos;woff2&apos;),url(/font/PTMonoBold.woff) format(&apos;woff&apos;),url(/font/PTMonoBold.ttf) format(&apos;truetype&apos;)}</style></defs><g id="dom" fill="none" fill-rule="evenodd" stroke="none" stroke-width="1"><g id="coordinates.svg"><g id="noun_69008_cc" fill="#E8C48E" transform="translate(13 11)"><path id="Shape" d="M490.563 386H10.438C4.676 386 0 381.658 0 376.35V9.65C0 4.342 4.676 0 10.438 0h480.125C496.303 0 501 4.343 501 9.65v366.7c0 5.308-4.697 9.65-10.438 9.65zm-480.4-12.939h478.642V12.94H10.162V373.06z"/><path id="Shape" d="M20.859 54.1c-5.753 0-10.422-1.147-10.422-2.55 0-1.402 4.67-2.55 10.422-2.55H479.4c5.732 0 10.422 1.148 10.422 2.55 0 1.403-4.69 2.55-10.422 2.55H20.86zM33.8 31.627a6.024 6.024 0 11-12.05 0 6.024 6.024 0 1112.05 0zM63.988 31.627a6.024 6.024 0 11-12.05 0 6.024 6.024 0 1112.05 0zM94.177 31.627a6.024 6.024 0 11-12.05 0 6.024 6.024 0 1112.05 0z"/></g><text id="height" fill="#EE6B47" font-family="PTMono-Bold, PT Mono" font-size="14" font-weight="bold"><tspan x="417" y="208">height</tspan></text><text id="bottom" fill="#999" font-family="PTMono-Bold, PT Mono" font-size="14" font-weight="bold"><tspan x="451" y="311">bottom</tspan></text><path id="Line-28" stroke="#EE6B47" stroke-dasharray="3,6" stroke-linecap="square" stroke-width="2" d="M395 293h103"/><path id="Line-30" stroke="#EE6B47" stroke-dasharray="3,6" stroke-linecap="square" stroke-width="2" d="M392 296v74.5"/><path id="Line-30-Copy" stroke="#EE6B47" stroke-dasharray="3,6" stroke-linecap="square" stroke-width="2" d="M119 296v46"/><path id="Line-29" stroke="#EE6B47" stroke-dasharray="3,6" stroke-linecap="square" stroke-width="2" d="M396 120h30"/><text id="x" fill="#EE6B47" font-family="PTMono-Bold, PT Mono" font-size="14" font-weight="bold"><tspan x="62" y="113">x</tspan></text><text id="left" fill="#999" font-family="PTMono-Bold, PT Mono" font-size="14" font-weight="bold"><tspan x="50" y="135">left</tspan></text><text id="y" fill="#EE6B47" font-family="PTMono-Bold, PT Mono" font-size="14" font-weight="bold"><tspan x="125" y="79">y</tspan></text><text id="width" fill="#EE6B47" font-family="PTMono-Bold, PT Mono" font-size="14" font-weight="bold"><tspan x="234" y="339">width</tspan></text><path id="Line" fill="#EE6B47" fill-rule="nonzero" d="M414 118.5V273h8l-9.5 19-9.5-19h8V118.5h3z"/><path id="Line-Copy" fill="#999" fill-rule="nonzero" d="M476 65v208h8l-9.5 19-9.5-19h8V65h3z"/><path id="Line-2" fill="#EE6B47" fill-rule="nonzero" d="M371 309l19 9.5-19 9.5-.001-8H116v-3h254.999l.001-8z"/><path id="Line-3" fill="#EE6B47" fill-rule="nonzero" d="M100.05 109.903l18.95 9.6-19.05 9.4.042-8.001-78-.41.016-3 78 .41.042-8z"/><text id="right" fill="#999" font-family="PTMono-Bold, PT Mono" font-size="14" font-weight="bold"><tspan x="180" y="375">right</tspan></text><path id="Line-3-Copy-2" fill="#999" fill-rule="nonzero" d="M371 350l19 9.5-19 9.5v-8H21.005v-3H371v-8z"/><path id="Line-3-Copy" fill="#EE6B47" fill-rule="nonzero" d="M119 65l.003 35.749h8l-9.498 19.001-9.502-19h8L116 65h3z"/><path id="Rectangle-1" fill="#E8C48F" fill-opacity=".88" d="M392.629 119v175H118V119h274.629zM382 129H129v155h253V129z"/><text id="Introduction-This-Ec" fill="#5A4739" font-family="OpenSans-Bold, Open Sans" font-size="16" font-weight="bold" opacity=".8"><tspan x="138.946" y="153.8">Introduction</tspan>  <tspan x="138.946" y="181.8" font-family="OpenSans-Regular, Open Sans" font-size="14" font-weight="normal">This Ecma Standard is based on </tspan> <tspan x="138.946" y="200.8" font-family="OpenSans-Regular, Open Sans" font-size="14" font-weight="normal">several originating technologies, </tspan> <tspan x="138.946" y="219.8" font-family="OpenSans-Regular, Open Sans" font-size="14" font-weight="normal">the most well known being </tspan> <tspan x="138.946" y="238.8" font-family="OpenSans-Regular, Open Sans" font-size="14" font-weight="normal">JavaScript (Netscape) and JScript </tspan> <tspan x="138.946" y="257.8" font-family="OpenSans-Regular, Open Sans" font-size="14" font-weight="normal">(Microsoft). The language was </tspan> <tspan x="138.946" y="276.8" font-family="OpenSans-Regular, Open Sans" font-size="14" font-weight="normal">invented by Brendan Eich at </tspan></text><text id="top" fill="#999" font-family="PTMono-Bold, PT Mono" font-size="14" font-weight="bold"><tspan x="125" y="96">top</tspan></text></g></g></svg>