<svg xmlns="http://www.w3.org/2000/svg" width="521" height="355" viewBox="0 0 521 355"><defs><style>@import url(https://fonts.googleapis.com/css?family=Open+Sans:bold,italic,bolditalic%7CPT+Mono);@font-face{font-family:&apos;PT Mono&apos;;font-weight:700;font-style:normal;src:local(&apos;PT MonoBold&apos;),url(/font/PTMonoBold.woff2) format(&apos;woff2&apos;),url(/font/PTMonoBold.woff) format(&apos;woff&apos;),url(/font/PTMonoBold.ttf) format(&apos;truetype&apos;)}</style></defs><defs><filter id="filter-1" width="118%" height="209.1%" x="-9%" y="-54.5%" filterUnits="objectBoundingBox"><feGaussianBlur in="SourceGraphic" stdDeviation="4"/></filter></defs><g id="dom" fill="none" fill-rule="evenodd" stroke="none" stroke-width="1"><g id="coordinates-negative.svg"><g id="noun_69008_cc" fill="#E8C48E" transform="translate(13 11)"><path id="Shape" d="M455.313 330H9.688C4.34 330 0 326.288 0 321.75V8.25C0 3.713 4.34 0 9.688 0h445.625C460.64 0 465 3.712 465 8.25v313.5c0 4.538-4.36 8.25-9.688 8.25zM9.432 318.939h444.25V11.06H9.432V318.94z"/><path id="Shape" d="M19.674 46C14.334 46 10 44.875 10 43.5s4.334-2.5 9.674-2.5h425.652c5.32 0 9.674 1.125 9.674 2.5s-4.353 2.5-9.674 2.5H19.674zM31 27.5c0 3.039-2.461 5.5-5.5 5.5a5.498 5.498 0 01-5.5-5.5c0-3.039 2.461-5.5 5.5-5.5s5.5 2.461 5.5 5.5zM59 27.5c0 3.039-2.461 5.5-5.5 5.5a5.498 5.498 0 01-5.5-5.5c0-3.039 2.461-5.5 5.5-5.5s5.5 2.461 5.5 5.5zM87 27.5c0 3.039-2.461 5.5-5.5 5.5a5.498 5.498 0 01-5.5-5.5c0-3.039 2.461-5.5 5.5-5.5s5.5 2.461 5.5 5.5z"/></g><text id="bottom" fill="#999" font-family="PTMono-Bold, PT Mono" font-size="14" font-weight="bold"><tspan x="414" y="196">bottom</tspan></text><path id="Line-30-Copy-2" stroke="#EE6B47" stroke-dasharray="3,6" stroke-linecap="square" stroke-width="2" d="M392.5 290v37"/><path id="Line-29-Copy" stroke="#EE6B47" stroke-dasharray="3,6" stroke-linecap="square" stroke-width="2" d="M394 288h69"/><text id="(x,y)" fill="#EE6B47" font-family="PTMono-Bold, PT Mono" font-size="14" font-weight="bold"><tspan x="395" y="305">(x,y)</tspan></text><text id="(x,y)-copy" fill="#EE6B47" font-family="PTMono-Bold, PT Mono" font-size="14" font-weight="bold"><tspan x="395" y="305">(x,y)</tspan></text><text id="left" fill="#999" font-family="PTMono-Bold, PT Mono" font-size="14" font-weight="bold"><tspan x="50" y="129">left</tspan></text><path id="Line-Copy" fill="#999" fill-rule="nonzero" d="M407 269.5v-213h3v213h8l-9.5 19-9.5-19h8z"/><text id="right" fill="#999" font-family="PTMono-Bold, PT Mono" font-size="14" font-weight="bold"><tspan x="188" y="323">right</tspan></text><path id="Line-3-Copy-2" fill="#999" fill-rule="nonzero" d="M371.498 306.5H21.502v-3h349.996v-8l19 9.5-19 9.5v-8z"/><path id="Rectangle-1" fill="#E8C48F" fill-opacity=".88" d="M382.357 123H129.015v155h253.342V123zM118 113h275v175H118V113z"/><text id="Introduction-This-Ec" fill="#5A4739" font-family="OpenSans-Bold, Open Sans" font-size="16" font-weight="bold" opacity=".7"><tspan x="139" y="148">Introduction</tspan>  <tspan x="139" y="176" font-family="OpenSans-Regular, Open Sans" font-size="14" font-weight="normal">This Ecma Standard is based on </tspan> <tspan x="139" y="195" font-family="OpenSans-Regular, Open Sans" font-size="14" font-weight="normal">several originating technologies, </tspan> <tspan x="139" y="214" font-family="OpenSans-Regular, Open Sans" font-size="14" font-weight="normal">the most well known being </tspan> <tspan x="139" y="233" font-family="OpenSans-Regular, Open Sans" font-size="14" font-weight="normal">JavaScript (Netscape) and JScript </tspan> <tspan x="139" y="252" font-family="OpenSans-Regular, Open Sans" font-size="14" font-weight="normal">(Microsoft). The language was </tspan> <tspan x="139" y="271" font-family="OpenSans-Regular, Open Sans" font-size="14" font-weight="normal">invented by Brendan Eich at </tspan></text><text id="top" fill="#999" font-family="PTMono-Bold, PT Mono" font-size="14" font-weight="bold"><tspan x="125" y="90">top</tspan></text><path id="Line-3" fill="#999" fill-rule="nonzero" d="M100.49 115.403l-78-.41.016-3 78 .41.042-8 18.95 9.6-19.05 9.4.042-8z"/><path id="Line-2" fill="#EE6B47" fill-rule="nonzero" d="M134.92 122.148l257.148 163.24-1.608 2.532-257.147-163.239-4.288 6.754-10.95-18.203 21.133 2.162-4.288 6.754z"/><path id="Line-3-Copy" fill="#999" fill-rule="nonzero" d="M116 94.5l-.002-38h3l.003 38h8l-9.499 19-9.501-19h8z"/><g id="Group" transform="rotate(32.5 -148.357 454.177)"><path id="Rectangle" fill="#FFF" d="M0 0h133v22H0z" filter="url(#filter-1)"/><text id="(width,height)" fill="#EE6B47" font-family="PTMono-Bold, PT Mono" font-size="14" font-weight="bold"><tspan x="8.682" y="15.378">(width,height)</tspan></text></g></g></g></svg>