<svg xmlns="http://www.w3.org/2000/svg" width="429" height="348" viewBox="0 0 429 348"><defs><style>@import url(https://fonts.googleapis.com/css?family=Open+Sans:bold,italic,bolditalic%7CPT+Mono);@font-face{font-family:&apos;PT Mono&apos;;font-weight:700;font-style:normal;src:local(&apos;PT MonoBold&apos;),url(/font/PTMonoBold.woff2) format(&apos;woff2&apos;),url(/font/PTMonoBold.woff) format(&apos;woff&apos;),url(/font/PTMonoBold.ttf) format(&apos;truetype&apos;)}</style></defs><g id="network" fill="none" fill-rule="evenodd" stroke="none" stroke-width="1"><g id="websocket-handshake.svg"><path id="Rectangle-227" fill="#FBF2EC" stroke="#DBAF88" stroke-width="2" d="M2 16h128v64H2z"/><text id="Browser" fill="#AF6E24" font-family="OpenSans-Regular, Open Sans" font-size="14" font-weight="normal"><tspan x="40" y="49">Browser</tspan></text><path id="Rectangle-228" fill="#FBF2EC" stroke="#DBAF88" stroke-width="2" d="M298 16h128v64H298z"/><text id="Server" fill="#AF6E24" font-family="OpenSans-Regular, Open Sans" font-size="14" font-weight="normal"><tspan x="340" y="49">Server</tspan></text><path id="Line" stroke="#7E7C7B" stroke-linecap="square" d="M67 81v250.5M363 81v251.5"/><path id="Line" fill="#C06334" fill-rule="nonzero" d="M349 133l14 7-14 7v-6H68v-2h281v-6z"/><path id="Line-Copy" fill="#C06334" fill-rule="nonzero" d="M83 204v6h281v2H83v6l-14-7 14-7z"/><text id="HTTP-request" fill="#AF6E24" font-family="OpenSans-Regular, Open Sans" font-size="14" font-weight="normal"><tspan x="172.015" y="130">HTTP-request</tspan></text><text id="&quot;Hey,-server,-let's" fill="#AF6E24" font-family="OpenSans-Regular, Open Sans" font-size="14" font-weight="normal"><tspan x="102.605" y="161">&quot;Hey, server, let&apos;s talk WebSocket?&quot;</tspan></text><text id="HTTP-response-&quot;Okay!" fill="#AF6E24" font-family="OpenSans-Regular, Open Sans" font-size="14" font-weight="normal"><tspan x="166.419" y="204">HTTP-response</tspan> <tspan x="191.972" y="226">&quot;Okay!&quot;</tspan></text><path id="Line-Copy-2" fill="#C06334" fill-rule="nonzero" d="M81 272v6h2v2h-2v6l-14-7 14-7zm268 0l14 7-14 7v-14zm-254 6v2h-4v-2h4zm6 0v2h-4v-2h4zm6 0v2h-4v-2h4zm6 0v2h-4v-2h4zm6 0v2h-4v-2h4zm6 0v2h-4v-2h4zm6 0v2h-4v-2h4zm6 0v2h-4v-2h4zm6 0v2h-4v-2h4zm6 0v2h-4v-2h4zm6 0v2h-4v-2h4zm6 0v2h-4v-2h4zm6 0v2h-4v-2h4zm6 0v2h-4v-2h4zm6 0v2h-4v-2h4zm6 0v2h-4v-2h4zm6 0v2h-4v-2h4zm6 0v2h-4v-2h4zm6 0v2h-4v-2h4zm6 0v2h-4v-2h4zm6 0v2h-4v-2h4zm-126 0v2h-4v-2h4zm138 0v2h-4v-2h4zm6 0v2h-4v-2h4zm6 0v2h-4v-2h4zm6 0v2h-4v-2h4zm6 0v2h-4v-2h4zm6 0v2h-4v-2h4zm6 0v2h-4v-2h4zm6 0v2h-4v-2h4zm6 0v2h-4v-2h4zm6 0v2h-4v-2h4zm6 0v2h-4v-2h4zm6 0v2h-4v-2h4zm6 0v2h-4v-2h4zm6 0v2h-4v-2h4zm6 0v2h-4v-2h4zm6 0v2h-4v-2h4zm6 0v2h-4v-2h4zm6 0v2h-4v-2h4zm6 0v2h-4v-2h4zm6 0v2h-4v-2h4zm6 0v2h-4v-2h4zm-126 0v2h-4v-2h4z" transform="matrix(-1 0 0 1 430 0)"/><text id="WebSocket-protocol" fill="#AF6E24" font-family="OpenSans-Regular, Open Sans" font-size="14" font-weight="normal"><tspan x="151.604" y="272">WebSocket protocol</tspan></text></g></g></svg>