<svg xmlns="http://www.w3.org/2000/svg" width="521" height="320" viewBox="0 0 521 320"><defs><style>@import url(https://fonts.googleapis.com/css?family=Open+Sans:bold,italic,bolditalic%7CPT+Mono);@font-face{font-family:&apos;PT Mono&apos;;font-weight:700;font-style:normal;src:local(&apos;PT MonoBold&apos;),url(/font/PTMonoBold.woff2) format(&apos;woff2&apos;),url(/font/PTMonoBold.woff) format(&apos;woff&apos;),url(/font/PTMonoBold.ttf) format(&apos;truetype&apos;)}</style></defs><g id="network" fill="none" fill-rule="evenodd" stroke="none" stroke-width="1"><g id="long-polling.svg"><text id="Browser" fill="#000" font-family="OpenSans-Regular, Open Sans" font-size="16" font-weight="normal"><tspan x="27" y="74">Browser</tspan></text><text id="Server" fill="#000" font-family="OpenSans-Regular, Open Sans" font-size="16" font-weight="normal"><tspan x="31" y="226">Server</tspan></text><path id="Line" fill="#000" fill-rule="nonzero" d="M450.81 75.82l9.21 5.18-9.21 5.18-.49-.87 6.771-3.81H66.5v-1h390.591l-6.772-3.81.49-.87zM450.81 200.32l9.21 5.18-9.21 5.18-.49-.87 6.769-3.81H65.5v-1h391.593l-6.774-3.81.49-.87z"/><text id="request" fill="#8A704D" font-family="PTMono-Bold, PT Mono" font-size="14" font-weight="bold" transform="rotate(76 113.291 143.266)"><tspan x="83.891" y="146.266">request</tspan></text><text id="connection-hangs" fill="#8A704D" font-family="OpenSans-Regular, Open Sans" font-size="14" font-weight="normal"><tspan x="126" y="227">connection</tspan> <tspan x="142.519" y="245">hangs</tspan></text><text id="connection-breaks-en" fill="#8A704D" font-family="OpenSans-Regular, Open Sans" font-size="12" font-weight="normal"><tspan x="186.21" y="264">connection breaks</tspan> <tspan x="196.599" y="282">end of request</tspan></text><path id="Line-3" fill="#EE6B47" fill-rule="nonzero" d="M90.233 80.79l27.406 111.874 5.829-1.428L120 206.5l-10.13-11.932 5.827-1.429L88.291 81.267l1.942-.476z"/><text id="data" fill="#8A704D" font-family="PTMono-Bold, PT Mono" font-size="14" font-weight="bold" transform="rotate(-76 206.38 143.266)"><tspan x="189.58" y="146.266">data</tspan></text><path id="Line-2" fill="#EE6B47" fill-rule="nonzero" d="M233.226 82l3.107 15.341-5.793-1.565-29.835 110.45-1.931-.521 29.834-110.45-5.79-1.565L233.225 82z"/><path id="Line-2-Copy" fill="#EE6B47" fill-rule="nonzero" d="M377.226 82l3.107 15.341-5.793-1.565-29.835 110.45-1.931-.521 29.834-110.45-5.79-1.565L377.225 82z"/><text id="request-copy" fill="#8A704D" font-family="PTMono-Bold, PT Mono" font-size="14" font-weight="bold" transform="rotate(76 260.291 143.266)"><tspan x="230.891" y="146.266">request</tspan></text><text id="connection-hangs-copy" fill="#8A704D" font-family="OpenSans-Regular, Open Sans" font-size="14" font-weight="normal"><tspan x="270" y="227">connection</tspan> <tspan x="286.519" y="245">hangs</tspan></text><path id="Line-3-Copy-3" fill="#EE6B47" fill-rule="nonzero" d="M237.233 80.79l27.406 111.874 5.829-1.428L267 206.5l-10.13-11.932 5.827-1.429-27.406-111.872 1.942-.476z"/><text id="request-copy-2" fill="#8A704D" font-family="PTMono-Bold, PT Mono" font-size="14" font-weight="bold" transform="rotate(76 404.291 143.266)"><tspan x="374.891" y="146.266">request</tspan></text><path id="Line-3-Copy-4" fill="#EE6B47" fill-rule="nonzero" d="M381.233 80.79l27.406 111.874 5.829-1.428L411 206.5l-10.13-11.932 5.827-1.429-27.406-111.872 1.942-.476z"/><text id="data-copy" fill="#8A704D" font-family="PTMono-Bold, PT Mono" font-size="14" font-weight="bold" transform="rotate(-76 350.38 143.266)"><tspan x="333.58" y="146.266">data</tspan></text><path id="Line" stroke="#979797" stroke-dasharray="3,3" stroke-linecap="square" d="M235 40.75v201"/><text id="connection-breaks-en-copy" fill="#8A704D" font-family="OpenSans-Regular, Open Sans" font-size="12" font-weight="normal"><tspan x="330.21" y="264">connection breaks</tspan> <tspan x="340.599" y="282">end of request</tspan></text><path id="Line-Copy" stroke="#979797" stroke-dasharray="3,3" stroke-linecap="square" d="M379 40.75v201"/></g></g></svg>