<svg xmlns="http://www.w3.org/2000/svg" width="420" height="388" viewBox="0 0 420 388"><defs><style>@import url(https://fonts.googleapis.com/css?family=Open+Sans:bold,italic,bolditalic%7CPT+Mono);@font-face{font-family:&apos;PT Mono&apos;;font-weight:700;font-style:normal;src:local(&apos;PT MonoBold&apos;),url(/font/PTMonoBold.woff2) format(&apos;woff2&apos;),url(/font/PTMonoBold.woff) format(&apos;woff&apos;),url(/font/PTMonoBold.ttf) format(&apos;truetype&apos;)}</style></defs><g id="dom" fill="none" fill-rule="evenodd" stroke="none" stroke-width="1"><g id="dom-links.svg"><path id="Rectangle-9" fill="#FFF9EB" stroke="#E8C48E" stroke-width="2" d="M150 20h117v28H150z"/><path id="Rectangle-7" fill="#FFF9EB" stroke="#E8C48E" stroke-width="2" d="M151 154h117v28H151z"/><path id="Rectangle-8" fill="#FFF9EB" stroke="#E8C48E" stroke-width="2" d="M117 87h198v28H117z"/><text id="document" fill="#8A704D" font-family="PTMono-Regular, PT Mono" font-size="12" font-weight="normal"><tspan x="179.7" y="38">document</tspan></text><text id="document.documentEle" fill="#8A704D" font-family="PTMono-Regular, PT Mono" font-size="12" font-weight="normal"><tspan x="129.6" y="105">document.documentElement </tspan></text><text id="Type-something" fill="#8A704D" font-family="PTMono-Regular, PT Mono" font-size="12" font-weight="normal"><tspan x="324.9" y="105">&lt;HTML&gt;</tspan></text><text id="document.body--" fill="#8A704D" font-family="PTMono-Regular, PT Mono" font-size="12" font-weight="normal"><tspan x="164.2" y="173">document.body </tspan></text><text id="(if-inside-body)" fill="#8A704D" font-family="PTMono-Regular, PT Mono" font-size="12" font-weight="normal"><tspan x="283.9" y="173">(if inside body)</tspan></text><path id="Line" fill="#EE6B47" fill-rule="nonzero" d="M208.5 125.568l-5.369 9.544-1.743-.98 8.112-14.422 8.112 14.421-1.743.98-5.369-9.543v23.784h-2v-23.784z"/><path id="Line-2" fill="#EE6B47" fill-rule="nonzero" d="M208.5 58.568l-5.369 9.544-1.743-.98L209.5 52.71l8.112 14.421-1.743.98-5.369-9.543v21.527h-2V58.568z"/><path id="Line" stroke="#8A704D" stroke-linecap="square" stroke-width="2" d="M2.5 191H415"/><text id="parentNode" fill="#8A704D" font-family="PTMono-Regular, PT Mono" font-size="12" font-weight="normal"><tspan x="172" y="248">parentNode</tspan></text><path id="Rectangle-6" fill="#FFF9EB" stroke="#E8C48E" stroke-width="2" d="M169 289h80v28h-80z"/><text id="&lt;DIV&gt;" fill="#8A704D" font-family="OpenSans-Regular, Open Sans" font-size="12" font-weight="normal"><tspan x="192.192" y="308">&lt;DIV&gt;</tspan></text><path id="Line" fill="#EE6B47" fill-rule="nonzero" d="M207.5 260.068l-5.369 9.544-1.743-.98 8.112-14.422 8.112 14.421-1.743.98-5.369-9.543V284.5h-2v-24.432z"/><path id="Line-Copy" fill="#EE6B47" fill-rule="nonzero" d="M207.5 206.068l-5.369 9.544-1.743-.98 8.112-14.422 8.112 14.421-1.743.98-5.369-9.543v.432h-2v-.432zm2 24.432h-2v-4h2v4zm0-6h-2v-4h2v4zm0-6h-2v-4h2v4zm0-6h-2v-4h2v4z"/><path id="Line" fill="#EE6B47" fill-rule="nonzero" d="M364.932 301.5l-9.544-5.369.98-1.743 14.422 8.112-14.421 8.112-.98-1.743 9.543-5.369H254.5v-2h110.432z"/><text id="nextSibling" fill="#8A704D" font-family="PTMono-Regular, PT Mono" font-size="12" font-weight="normal"><tspan x="264" y="288">nextSibling</tspan></text><path id="Line" fill="#EE6B47" fill-rule="nonzero" d="M53.068 303.5l9.544 5.369-.98 1.743L47.21 302.5l14.421-8.112.98 1.743-9.543 5.369H165.5v2H53.068z"/><text id="previousSibling" fill="#8A704D" font-family="PTMono-Regular, PT Mono" font-size="12" font-weight="normal"><tspan x="50" y="288">previousSibling</tspan></text><path id="Line" fill="#EE6B47" fill-rule="nonzero" d="M107.634 360.732l10.94-.472.086 1.998-16.53.713 7.975-14.497 1.752.964-5.278 9.595 56.243-34.91 1.055 1.7-56.243 34.909z"/><path id="Line-3" fill="#EE6B47" fill-rule="nonzero" d="M310.987 359.479l-5.025-9.73 1.777-.918 7.592 14.702-16.506-1.147.138-1.995 10.925.759-53.773-35.364 1.099-1.671 53.773 35.364z"/><text id="childNodes" fill="#8A704D" font-family="PTMono-Regular, PT Mono" font-size="12" font-weight="normal"><tspan x="170" y="343">childNodes</tspan></text><text id="firstChild--" fill="#8A704D" font-family="PTMono-Regular, PT Mono" font-size="12" font-weight="normal"><tspan x="64" y="379">firstChild </tspan></text><text id="Type-something" fill="#8A704D" font-family="PTMono-Regular, PT Mono" font-size="12" font-weight="normal"><tspan x="279" y="379">lastChild</tspan></text></g></g></svg>