<svg xmlns="http://www.w3.org/2000/svg" width="440" height="316" viewBox="0 0 440 316"><defs><style>@import url(https://fonts.googleapis.com/css?family=Open+Sans:bold,italic,bolditalic%7CPT+Mono);@font-face{font-family:&apos;PT Mono&apos;;font-weight:700;font-style:normal;src:local(&apos;PT MonoBold&apos;),url(/font/PTMonoBold.woff2) format(&apos;woff2&apos;),url(/font/PTMonoBold.woff) format(&apos;woff&apos;),url(/font/PTMonoBold.ttf) format(&apos;truetype&apos;)}</style></defs><g id="dom" fill="none" fill-rule="evenodd" stroke="none" stroke-width="1"><g id="dom-links-elements.svg"><path id="Rectangle-8" fill="#FFF9EB" stroke="#E8C48E" stroke-width="2" d="M129 10h198v28H129z"/><text id="document.documentEle" fill="#8A704D" font-family="PTMono-Regular, PT Mono" font-size="12" font-weight="normal"><tspan x="142.6" y="29">document.documentElement </tspan></text><text id="Type-something" fill="#8A704D" font-family="PTMono-Regular, PT Mono" font-size="12" font-weight="normal"><tspan x="336.9" y="29">&lt;HTML&gt;</tspan></text><path id="Rectangle-7" fill="#FFF9EB" stroke="#E8C48E" stroke-width="2" d="M163 78h117v28H163z"/><text id="document.body--" fill="#8A704D" font-family="PTMono-Regular, PT Mono" font-size="12" font-weight="normal"><tspan x="174.2" y="95">document.body </tspan></text><text id="(if-inside-body)" fill="#8A704D" font-family="PTMono-Regular, PT Mono" font-size="12" font-weight="normal"><tspan x="300.9" y="95">(if inside body)</tspan></text><path id="Line-5" stroke="#8A704D" stroke-linecap="square" stroke-width="2" d="M14.5 115H427"/><text id="parentElement" font-family="PTMono-Regular, PT Mono" font-size="12" font-weight="normal"><tspan x="175" y="172" fill="#8A704D">parent</tspan> <tspan x="218.2" y="172" fill="#EE6B47">Element</tspan></text><path id="Rectangle-6" fill="#FFF9EB" stroke="#E8C48E" stroke-width="2" d="M180 213h80v28h-80z"/><text id="&lt;DIV&gt;" fill="#8A704D" font-family="OpenSans-Regular, Open Sans" font-size="12" font-weight="normal"><tspan x="204.192" y="232">&lt;DIV&gt;</tspan></text><path id="Line-6" fill="#EE6B47" fill-rule="nonzero" d="M219.5 184.568l-5.369 9.544-1.743-.98 8.112-14.422 8.112 14.421-1.743.98-5.369-9.543V208.5h-2v-23.932z"/><path id="Line-7" fill="#EE6B47" fill-rule="nonzero" d="M423.932 225.5l-9.544-5.369.98-1.743 14.422 8.112-14.421 8.112-.98-1.743 9.543-5.369H266.5v-2h157.432z"/><text id="nextElementSibling" font-family="PTMono-Regular, PT Mono" font-size="12" font-weight="normal"><tspan x="276" y="212" fill="#8A704D">next</tspan> <tspan x="304.8" y="212" fill="#EE6B47">Element</tspan> <tspan x="355.2" y="212" fill="#8A704D">Sibling</tspan></text><path id="Line-8" fill="#EE6B47" fill-rule="nonzero" d="M15.068 227.5l9.544 5.369-.98 1.743L9.21 226.5l14.421-8.112.98 1.743-9.543 5.369H169v2H15.068z"/><text id="previousElementSibli" font-family="PTMono-Regular, PT Mono" font-size="12" font-weight="normal"><tspan x="6" y="212" fill="#8A704D">previous</tspan> <tspan x="63.6" y="212" fill="#EE6B47">Element</tspan> <tspan x="114" y="212" fill="#8A704D">Sibling</tspan></text><path id="Line" fill="#EE6B47" fill-rule="nonzero" d="M119.634 284.732l10.94-.472.086 1.998-16.53.713 7.975-14.497 1.752.964-5.278 9.595 56.243-34.91 1.055 1.7-56.243 34.909z"/><path id="Line-3" fill="#EE6B47" fill-rule="nonzero" d="M322.987 283.479l-5.025-9.73 1.777-.918 7.592 14.702-16.506-1.147.138-1.995 10.925.759-53.773-35.364 1.099-1.671 53.773 35.364z"/><text id="children" fill="#EE6B47" font-family="PTMono-Regular, PT Mono" font-size="12" font-weight="normal"><tspan x="188" y="273">children</tspan></text><text id="firstElementChild--" font-family="PTMono-Regular, PT Mono" font-size="12" font-weight="normal"><tspan x="43" y="307" fill="#8A704D">first</tspan> <tspan x="79" y="307" fill="#EE6B47">Element</tspan> <tspan x="129.4" y="307" fill="#8A704D">Child </tspan></text><text id="lastElementChild" font-family="PTMono-Regular, PT Mono" font-size="12" font-weight="normal"><tspan x="273" y="307" fill="#8A704D">last</tspan> <tspan x="301.8" y="307" fill="#EE6B47">Element</tspan> <tspan x="352.2" y="307" fill="#8A704D">Child</tspan></text><path id="Line-Copy-2" fill="#EE6B47" fill-rule="nonzero" d="M220.5 131.068l-5.369 9.544-1.743-.98 8.112-14.422 8.112 14.421-1.743.98-5.369-9.543v.432h-2v-.432zm2 24.432h-2v-4h2v4zm0-6h-2v-4h2v4zm0-6h-2v-4h2v4zm0-6h-2v-4h2v4z"/><path id="Line-2-Copy" fill="#EE6B47" fill-rule="nonzero" d="M220.5 50.568l-5.369 9.544-1.743-.98L221.5 44.71l8.112 14.421-1.743.98-5.369-9.543v21.527h-2V50.568z"/></g></g></svg>