<svg xmlns="http://www.w3.org/2000/svg" width="420" height="388" viewBox="0 0 420 388"><defs><style>@import url(https://fonts.googleapis.com/css?family=Open+Sans:bold,italic,bolditalic%7CPT+Mono);@font-face{font-family:&apos;PT Mono&apos;;font-weight:700;font-style:normal;src:local(&apos;PT MonoBold&apos;),url(/font/PTMonoBold.woff2) format(&apos;woff2&apos;),url(/font/PTMonoBold.woff) format(&apos;woff&apos;),url(/font/PTMonoBold.ttf) format(&apos;truetype&apos;)}</style></defs><g id="dom" fill="none" fill-rule="evenodd" stroke="none" stroke-width="1"><g id="dom-links.svg"><path id="Rectangle-9" fill="#FBF2EC" stroke="#DBAF88" stroke-width="2" d="M150 20h117v28H150z"/><path id="Rectangle-7" fill="#FBF2EC" stroke="#DBAF88" stroke-width="2" d="M151 154h117v28H151z"/><path id="Rectangle-8" fill="#FBF2EC" stroke="#DBAF88" stroke-width="2" d="M117 87h198v28H117z"/><text id="document" fill="#AF6E24" font-family="PTMono-Regular, PT Mono" font-size="12" font-weight="normal"><tspan x="179.7" y="38">document</tspan></text><text id="document.documentEle" fill="#AF6E24" font-family="PTMono-Regular, PT Mono" font-size="12" font-weight="normal"><tspan x="129.6" y="105">document.documentElement </tspan></text><text id="Type-something" fill="#AF6E24" font-family="PTMono-Regular, PT Mono" font-size="12" font-weight="normal"><tspan x="324.9" y="105">&lt;HTML&gt;</tspan></text><text id="document.body--" fill="#AF6E24" font-family="PTMono-Regular, PT Mono" font-size="12" font-weight="normal"><tspan x="164.2" y="173">document.body </tspan></text><text id="(if-inside-body)" fill="#AF6E24" font-family="PTMono-Regular, PT Mono" font-size="12" font-weight="normal"><tspan x="283.9" y="173">(if inside body)</tspan></text><path id="Line" fill="#C06334" fill-rule="nonzero" d="M209.5 119.71l.872 1.55 6.75 12 .49.871-1.743.98-.49-.87-4.879-8.674v23.785h-2v-23.785l-4.878 8.673-.49.872-1.744-.98.49-.872 6.75-12 .872-1.55z"/><path id="Line-2" fill="#C06334" fill-rule="nonzero" d="M209.5 52.71l.872 1.55 6.75 12 .49.871-1.743.98-.49-.87-4.879-8.674v21.528h-2V58.567l-4.878 8.673-.49.872-1.744-.98.49-.872 6.75-12 .872-1.55z"/><path id="Line" stroke="#AF6E24" stroke-linecap="square" stroke-width="2" d="M2.5 191H415"/><text id="parentNode" fill="#AF6E24" font-family="PTMono-Regular, PT Mono" font-size="12" font-weight="normal"><tspan x="172" y="248">parentNode</tspan></text><path id="Rectangle-6" fill="#FBF2EC" stroke="#DBAF88" stroke-width="2" d="M169 289h80v28h-80z"/><text id="&lt;DIV&gt;" fill="#AF6E24" font-family="OpenSans-Regular, Open Sans" font-size="12" font-weight="normal"><tspan x="192.192" y="308">&lt;DIV&gt;</tspan></text><path id="Line" fill="#C06334" fill-rule="nonzero" d="M208.5 254.21l.872 1.55 6.75 12 .49.871-1.743.98-.49-.87-4.88-8.676.001 8.185v16.25h-2v-16.25l-.001-8.182-4.877 8.672-.49.872-1.744-.98.49-.872 6.75-12 .872-1.55z"/><path id="Line-Copy" fill="#C06334" fill-rule="nonzero" d="M209.5 226.5v4h-2v-4h2zm0-6v4h-2v-4h2zm0-6v4h-2v-4h2zm-1-14.29l.872 1.55 6.75 12 .49.871-1.743.98-.49-.87-4.88-8.676.001.435h-2l-.001-.432-4.877 8.672-.49.872-1.744-.98.49-.872 6.75-12 .872-1.55zm1 8.29v4h-2v-4h2z"/><path id="Line" fill="#C06334" fill-rule="nonzero" d="M356.369 294.388l.871.49 12 6.75 1.55.872-1.55.872-12 6.75-.871.49-.98-1.743.87-.49 8.673-4.879H254.5v-2h110.432l-8.672-4.878-.872-.49.98-1.744z"/><text id="nextSibling" fill="#AF6E24" font-family="PTMono-Regular, PT Mono" font-size="12" font-weight="normal"><tspan x="264" y="288">nextSibling</tspan></text><path id="Line" fill="#C06334" fill-rule="nonzero" d="M61.631 294.388l.98 1.743-.87.49-8.674 4.879H165.5v2H53.067l8.673 4.878.872.49-.98 1.744-.872-.49-12-6.75-1.55-.872 1.55-.872 12-6.75.871-.49z"/><text id="previousSibling" fill="#AF6E24" font-family="PTMono-Regular, PT Mono" font-size="12" font-weight="normal"><tspan x="50" y="288">previousSibling</tspan></text><path id="Line" fill="#C06334" fill-rule="nonzero" d="M162.822 324.123l1.055 1.7-.85.527-48.476 30.089-6.917 4.292 9.941-.428 1-.043.085 1.998-.999.043-13.755.594-1.776.076.857-1.557 6.636-12.064.482-.876 1.752.964-.482.876-4.797 8.718 6.918-4.293 48.477-30.089.85-.527z"/><path id="Line-3" fill="#C06334" fill-rule="nonzero" d="M257.214 324.115l.835.55 46.157 30.354 6.78 4.46-4.565-8.841-.459-.889 1.777-.918.459.889 6.317 12.233.816 1.58-1.774-.123-13.735-.954-.997-.07.138-1.995.998.07 9.926.689-6.78-4.46-46.156-30.354-.836-.55 1.099-1.671z"/><text id="childNodes" fill="#AF6E24" font-family="PTMono-Regular, PT Mono" font-size="12" font-weight="normal"><tspan x="170" y="343">childNodes</tspan></text><text id="firstChild--" fill="#AF6E24" font-family="PTMono-Regular, PT Mono" font-size="12" font-weight="normal"><tspan x="64" y="379">firstChild </tspan></text><text id="Type-something" fill="#AF6E24" font-family="PTMono-Regular, PT Mono" font-size="12" font-weight="normal"><tspan x="279" y="379">lastChild</tspan></text></g></g></svg>