<svg xmlns="http://www.w3.org/2000/svg" width="420" height="388" viewBox="0 0 420 388"><defs><style>@import url(https://fonts.googleapis.com/css?family=Open+Sans:bold,italic,bolditalic%7CPT+Mono);@font-face{font-family:&apos;PT Mono&apos;;font-weight:700;font-style:normal;src:local(&apos;PT MonoBold&apos;),url(/font/PTMonoBold.woff2) format(&apos;woff2&apos;),url(/font/PTMonoBold.woff) format(&apos;woff&apos;),url(/font/PTMonoBold.ttf) format(&apos;truetype&apos;)}</style></defs><g id="dom" fill="none" fill-rule="evenodd" stroke="none" stroke-width="1"><g id="dom-links.svg"><path id="Rectangle-9" fill="#FFF9EB" stroke="#E8C48E" stroke-width="2" d="M150 20h117v28H150z"/><path id="Rectangle-7" fill="#FFF9EB" stroke="#E8C48E" stroke-width="2" d="M151 154h117v28H151z"/><path id="Rectangle-8" fill="#FFF9EB" stroke="#E8C48E" stroke-width="2" d="M117 87h198v28H117z"/><text id="document" fill="#8A704D" font-family="PTMono-Regular, PT Mono" font-size="12" font-weight="normal"><tspan x="179.7" y="38">document</tspan></text><text id="document.documentEle" fill="#8A704D" font-family="PTMono-Regular, PT Mono" font-size="12" font-weight="normal"><tspan x="129.6" y="105">document.documentElement </tspan></text><text id="Type-something" fill="#8A704D" font-family="PTMono-Regular, PT Mono" font-size="12" font-weight="normal"><tspan x="324.9" y="105">&lt;HTML&gt;</tspan></text><text id="document.body--" fill="#8A704D" font-family="PTMono-Regular, PT Mono" font-size="12" font-weight="normal"><tspan x="164.2" y="173">document.body </tspan></text><text id="(if-inside-body)" fill="#8A704D" font-family="PTMono-Regular, PT Mono" font-size="12" font-weight="normal"><tspan x="283.9" y="173">(if inside body)</tspan></text><path id="Line" fill="#EE6B47" fill-rule="nonzero" d="M209.5 119.71l8.112 14.421-1.743.98-5.369-9.544v23.785h-2v-23.785l-5.369 9.545-1.743-.98 8.112-14.422z"/><path id="Line-2" fill="#EE6B47" fill-rule="nonzero" d="M209.5 52.71l8.112 14.421-1.743.98-5.369-9.543v21.527h-2v-21.53l-5.369 9.547-1.743-.98L209.5 52.71z"/><path id="Line" stroke="#8A704D" stroke-linecap="square" stroke-width="2" d="M2.5 191H415"/><text id="parentNode" fill="#8A704D" font-family="PTMono-Regular, PT Mono" font-size="12" font-weight="normal"><tspan x="172" y="248">parentNode</tspan></text><path id="Rectangle-6" fill="#FFF9EB" stroke="#E8C48E" stroke-width="2" d="M169 289h80v28h-80z"/><text id="&lt;DIV&gt;" fill="#8A704D" font-family="OpenSans-Regular, Open Sans" font-size="12" font-weight="normal"><tspan x="192.192" y="308">&lt;DIV&gt;</tspan></text><path id="Line" fill="#EE6B47" fill-rule="nonzero" d="M208.5 254.21l8.112 14.421-1.743.98-5.37-9.546.001 24.435h-2l-.001-24.432-5.368 9.544-1.743-.98 8.112-14.422z"/><path id="Line-Copy" fill="#EE6B47" fill-rule="nonzero" d="M209.5 226.5v4h-2v-4h2zm0-6v4h-2v-4h2zm0-6v4h-2v-4h2zm-1-14.29l8.112 14.421-1.743.98-5.37-9.544.001.433h-2l-.001-.433-5.368 9.545-1.743-.98 8.112-14.422zm1 8.29v4h-2v-4h2z"/><path id="Line" fill="#EE6B47" fill-rule="nonzero" d="M356.369 294.388l14.42 8.112-14.42 8.112-.98-1.743 9.543-5.369H254.5v-2h110.432l-9.544-5.369.98-1.743z"/><text id="nextSibling" fill="#8A704D" font-family="PTMono-Regular, PT Mono" font-size="12" font-weight="normal"><tspan x="264" y="288">nextSibling</tspan></text><path id="Line" fill="#EE6B47" fill-rule="nonzero" d="M61.631 294.388l.98 1.743-9.544 5.369H165.5v2H53.067l9.545 5.369-.98 1.743L47.21 302.5l14.421-8.112z"/><text id="previousSibling" fill="#8A704D" font-family="PTMono-Regular, PT Mono" font-size="12" font-weight="normal"><tspan x="50" y="288">previousSibling</tspan></text><path id="Line" fill="#EE6B47" fill-rule="nonzero" d="M162.822 324.123l1.055 1.7-56.244 34.908 10.941-.47.086 1.997-16.53.713 7.975-14.497 1.752.964-5.279 9.595 56.244-34.91z"/><path id="Line-3" fill="#EE6B47" fill-rule="nonzero" d="M257.214 324.115l53.772 35.364-5.024-9.73 1.777-.918 7.592 14.702-16.506-1.147.138-1.995 10.924.759-53.772-35.364 1.099-1.671z"/><text id="childNodes" fill="#8A704D" font-family="PTMono-Regular, PT Mono" font-size="12" font-weight="normal"><tspan x="170" y="343">childNodes</tspan></text><text id="firstChild--" fill="#8A704D" font-family="PTMono-Regular, PT Mono" font-size="12" font-weight="normal"><tspan x="64" y="379">firstChild </tspan></text><text id="Type-something" fill="#8A704D" font-family="PTMono-Regular, PT Mono" font-size="12" font-weight="normal"><tspan x="279" y="379">lastChild</tspan></text></g></g></svg>