<svg xmlns="http://www.w3.org/2000/svg" width="440" height="316" viewBox="0 0 440 316"><defs><style>@import url(https://fonts.googleapis.com/css?family=Open+Sans:bold,italic,bolditalic%7CPT+Mono);@font-face{font-family:&apos;PT Mono&apos;;font-weight:700;font-style:normal;src:local(&apos;PT MonoBold&apos;),url(/font/PTMonoBold.woff2) format(&apos;woff2&apos;),url(/font/PTMonoBold.woff) format(&apos;woff&apos;),url(/font/PTMonoBold.ttf) format(&apos;truetype&apos;)}</style></defs><g id="dom" fill="none" fill-rule="evenodd" stroke="none" stroke-width="1"><g id="dom-links-elements.svg"><path id="Rectangle-8" fill="#FFF9EB" stroke="#E8C48E" stroke-width="2" d="M129 10h198v28H129z"/><text id="document.documentEle" fill="#8A704D" font-family="PTMono-Regular, PT Mono" font-size="12" font-weight="normal"><tspan x="142.6" y="29">document.documentElement </tspan></text><text id="Type-something" fill="#8A704D" font-family="PTMono-Regular, PT Mono" font-size="12" font-weight="normal"><tspan x="336.9" y="29">&lt;HTML&gt;</tspan></text><path id="Rectangle-7" fill="#FFF9EB" stroke="#E8C48E" stroke-width="2" d="M163 78h117v28H163z"/><text id="document.body--" fill="#8A704D" font-family="PTMono-Regular, PT Mono" font-size="12" font-weight="normal"><tspan x="174.2" y="95">document.body </tspan></text><text id="(if-inside-body)" fill="#8A704D" font-family="PTMono-Regular, PT Mono" font-size="12" font-weight="normal"><tspan x="300.9" y="95">(if inside body)</tspan></text><path id="Line-5" stroke="#8A704D" stroke-linecap="square" stroke-width="2" d="M14.5 115H427"/><text id="parentElement" font-family="PTMono-Regular, PT Mono" font-size="12" font-weight="normal"><tspan x="175" y="172" fill="#8A704D">parent</tspan> <tspan x="218.2" y="172" fill="#EE6B47">Element</tspan></text><path id="Rectangle-6" fill="#FFF9EB" stroke="#E8C48E" stroke-width="2" d="M180 213h80v28h-80z"/><text id="&lt;DIV&gt;" fill="#8A704D" font-family="OpenSans-Regular, Open Sans" font-size="12" font-weight="normal"><tspan x="204.192" y="232">&lt;DIV&gt;</tspan></text><path id="Line-6" fill="#EE6B47" fill-rule="nonzero" d="M220.5 178.71l.872 1.55 6.75 12 .49.871-1.743.98-.49-.87-4.879-8.674V208.5h-2v-23.933l-4.878 8.673-.49.872-1.744-.98.49-.872 6.75-12 .872-1.55z"/><path id="Line-7" fill="#EE6B47" fill-rule="nonzero" d="M415.369 218.388l.871.49 12 6.75 1.55.872-1.55.872-12 6.75-.871.49-.98-1.743.87-.49 8.673-4.879H266.5v-2h157.432l-8.672-4.878-.872-.49.98-1.744z"/><text id="nextElementSibling" font-family="PTMono-Regular, PT Mono" font-size="12" font-weight="normal"><tspan x="276" y="212" fill="#8A704D">next</tspan> <tspan x="304.8" y="212" fill="#EE6B47">Element</tspan> <tspan x="355.2" y="212" fill="#8A704D">Sibling</tspan></text><path id="Line-8" fill="#EE6B47" fill-rule="nonzero" d="M23.631 218.388l.98 1.743-.87.49-8.674 4.879H169v2H15.067l8.673 4.878.872.49-.98 1.744-.872-.49-12-6.75-1.55-.872 1.55-.872 12-6.75.871-.49z"/><text id="previousElementSibli" font-family="PTMono-Regular, PT Mono" font-size="12" font-weight="normal"><tspan x="6" y="212" fill="#8A704D">previous</tspan> <tspan x="63.6" y="212" fill="#EE6B47">Element</tspan> <tspan x="114" y="212" fill="#8A704D">Sibling</tspan></text><path id="Line" fill="#EE6B47" fill-rule="nonzero" d="M174.822 248.123l1.055 1.7-.85.527-48.476 30.089-6.917 4.292 9.941-.428 1-.043.085 1.998-.999.043-13.755.594-1.776.076.857-1.557 6.636-12.064.482-.876 1.752.964-.482.876-4.797 8.718 6.918-4.293 48.477-30.089.85-.527z"/><path id="Line-3" fill="#EE6B47" fill-rule="nonzero" d="M269.214 248.115l.835.55 46.157 30.354 6.78 4.46-4.565-8.841-.459-.889 1.777-.918.459.889 6.317 12.233.816 1.58-1.774-.123-13.735-.954-.997-.07.138-1.995.998.07 9.926.689-6.78-4.46-46.156-30.354-.836-.55 1.099-1.671z"/><text id="children" fill="#EE6B47" font-family="PTMono-Regular, PT Mono" font-size="12" font-weight="normal"><tspan x="188" y="273">children</tspan></text><text id="firstElementChild--" font-family="PTMono-Regular, PT Mono" font-size="12" font-weight="normal"><tspan x="43" y="307" fill="#8A704D">first</tspan> <tspan x="79" y="307" fill="#EE6B47">Element</tspan> <tspan x="129.4" y="307" fill="#8A704D">Child </tspan></text><text id="lastElementChild" font-family="PTMono-Regular, PT Mono" font-size="12" font-weight="normal"><tspan x="273" y="307" fill="#8A704D">last</tspan> <tspan x="301.8" y="307" fill="#EE6B47">Element</tspan> <tspan x="352.2" y="307" fill="#8A704D">Child</tspan></text><path id="Line-Copy-2" fill="#EE6B47" fill-rule="nonzero" d="M222.5 151.5v4h-2v-4h2zm0-6v4h-2v-4h2zm0-6v4h-2v-4h2zm-1-14.29l.872 1.55 6.75 12 .49.871-1.743.98-.49-.87-4.88-8.676.001.435h-2l-.001-.432-4.877 8.672-.49.872-1.744-.98.49-.872 6.75-12 .872-1.55zm1 8.29v4h-2v-4h2z"/><path id="Line-2-Copy" fill="#EE6B47" fill-rule="nonzero" d="M221.5 44.71l.872 1.55 6.75 12 .49.871-1.743.98-.49-.87-4.879-8.674v21.528h-2V50.567l-4.878 8.673-.49.872-1.744-.98.49-.872 6.75-12 .872-1.55z"/></g></g></svg>