<svg xmlns="http://www.w3.org/2000/svg" width="196" height="129" viewBox="0 0 196 129"><defs><style>@import url(https://fonts.googleapis.com/css?family=Open+Sans:bold,italic,bolditalic%7CPT+Mono);@font-face{font-family:&apos;PT Mono&apos;;font-weight:700;font-style:normal;src:local(&apos;PT MonoBold&apos;),url(/font/PTMonoBold.woff2) format(&apos;woff2&apos;),url(/font/PTMonoBold.woff) format(&apos;woff&apos;),url(/font/PTMonoBold.ttf) format(&apos;truetype&apos;)}</style></defs><g id="v2" fill="none" fill-rule="evenodd" stroke="none" stroke-width="1"><g id="use-strict.svg"><g id="noun_Cloud_3562756" fill="#000" fill-rule="nonzero" transform="translate(36 14)"><path id="Path" d="M32.236 42.259a38.415 38.415 0 01-8.566.951C10.596 43.208.003 36.98 0 29.297c.003-7.684 10.596-13.91 23.67-13.91 3.684 0 7.168.501 10.272 1.386C35.919 7.32 49.589.002 66.207 0c15.85.002 29.019 6.662 31.92 15.48.875-.06 1.766-.094 2.672-.094V17.383a32.79 32.79 0 00-3.75.217c-.461.051-.93-.008-1.309-.17-.384-.158-.635-.4-.698-.673C93.07 8.42 80.927 1.997 66.205 2 50.505 1.998 37.738 9.3 37.116 18.44c-.027.355-.372.68-.912.844a2.77 2.77 0 01-1.699-.041c-3.147-1.173-6.847-1.86-10.838-1.86-11.194.01-20.248 5.333-20.268 11.913.02 6.583 9.074 11.903 20.271 11.916 3.294 0 6.383-.472 9.14-1.29a2.763 2.763 0 011.59.016c.491.16.817.45.87.78.837 5.206 8.3 9.287 17.383 9.287 6.236 0 11.69-1.93 14.788-4.826.247-.23.64-.391 1.09-.444a2.692 2.692 0 011.3.145c2.042.806 4.485 1.276 7.131 1.276 6.202.004 11.367-2.6 12.533-6.04.107-.306.45-.568.924-.704a2.804 2.804 0 011.508.004c2.684.792 5.682 1.245 8.875 1.245 10.932-.012 19.779-5.211 19.8-11.638-.021-6.43-8.868-11.63-19.803-11.642V15.385c12.812 0 23.198 6.105 23.201 13.638-.003 7.531-10.389 13.633-23.201 13.635-3.01 0-5.883-.346-8.515-.96-2.168 3.755-8.206 6.453-15.324 6.455-2.734 0-5.318-.401-7.579-1.106-3.798 3-9.872 4.953-16.728 4.953-10.055-.001-18.438-4.177-20.417-9.741z"/></g><text id="&quot;use-strict&quot;" fill="#8A704D" font-family="PTMono-Regular, PT Mono" font-size="14" font-weight="normal"><tspan x="45.1" y="47">&quot;use strict&quot;</tspan></text><text id="...modern-code..." fill="#8A704D" font-family="PTMono-Regular, PT Mono" font-size="14" font-weight="normal"><tspan x="24.6" y="94">...modern code...</tspan></text></g></g></svg>