<svg xmlns="http://www.w3.org/2000/svg" xmlns:xlink="http://www.w3.org/1999/xlink" width="467" height="279" viewBox="0 0 467 279"><defs><style>@import url(https://fonts.googleapis.com/css?family=Open+Sans:bold,italic,bolditalic%7CPT+Mono);@font-face{font-family:&apos;PT Mono&apos;;font-weight:700;font-style:normal;src:local(&apos;PT MonoBold&apos;),url(/font/PTMonoBold.woff2) format(&apos;woff2&apos;),url(/font/PTMonoBold.woff) format(&apos;woff&apos;),url(/font/PTMonoBold.ttf) format(&apos;truetype&apos;)}</style></defs><defs><path id="path-1" d="M6 0H0v9h6V0z"/></defs><g id="promise" fill="none" fill-rule="evenodd" stroke="none" stroke-width="1"><g id="callback-hell.svg"><g id="Page-1" transform="translate(0 -3)"><path id="Fill-1" fill="#F5F2F0" d="M0 12h467V0H0z"/><g id="Group-3"><mask id="mask-2" fill="#fff"><use xlink:href="#path-1"/></mask></g><path id="Fill-4" fill="#F5F2F0" d="M0 25h467V12H0z"/><text id="loadScript" fill="#000" font-family="PTMono-Regular, PT Mono" font-size="10" font-weight="normal" letter-spacing=".027"><tspan x="0" y="18">loadScript</tspan></text><text id="(" fill="#999" font-family="PTMono-Regular, PT Mono" font-size="10" font-weight="normal"><tspan x="57.729" y="18">(</tspan></text><text id="'1.js'" fill="#690" font-family="PTMono-Regular, PT Mono" font-size="10" font-weight="normal" letter-spacing=".027"><tspan x="63.502" y="18">&apos;1.js&apos;</tspan></text><text id="," fill="#999" font-family="PTMono-Regular, PT Mono" font-size="10" font-weight="normal"><tspan x="98.14" y="18">,</tspan></text><text id="function" fill="#07A" font-family="PTMono-Regular, PT Mono" font-size="10" font-weight="normal" letter-spacing=".027"><tspan x="109.686" y="18">function</tspan></text><text id="(" fill="#999" font-family="PTMono-Regular, PT Mono" font-size="10" font-weight="normal"><tspan x="155.87" y="18">(</tspan></text><text id="error" fill="#000" font-family="PTMono-Regular, PT Mono" font-size="10" font-weight="normal" letter-spacing=".027"><tspan x="161.643" y="18">error</tspan></text><text id="," fill="#999" font-family="PTMono-Regular, PT Mono" font-size="10" font-weight="normal"><tspan x="190.507" y="18">,</tspan></text><text id="script" fill="#000" font-family="PTMono-Regular, PT Mono" font-size="10" font-weight="normal" letter-spacing=".027"><tspan x="202.053" y="18">script</tspan></text><text id=")" fill="#999" font-family="PTMono-Regular, PT Mono" font-size="10" font-weight="normal"><tspan x="236.691" y="18">)</tspan></text><text id="{" fill="#999" font-family="PTMono-Regular, PT Mono" font-size="10" font-weight="normal"><tspan x="248.237" y="18">{</tspan></text><path id="Fill-21" fill="#F5F2F0" d="M0 38h467V25H0z"/><text id="if" fill="#07A" font-family="PTMono-Regular, PT Mono" font-size="10" font-weight="normal" letter-spacing=".027"><tspan x="11.546" y="31">if</tspan></text><text id="(" fill="#999" font-family="PTMono-Regular, PT Mono" font-size="10" font-weight="normal"><tspan x="28.865" y="31">(</tspan></text><text id="error" fill="#000" font-family="PTMono-Regular, PT Mono" font-size="10" font-weight="normal" letter-spacing=".027"><tspan x="34.638" y="31">error</tspan></text><text id=")" fill="#999" font-family="PTMono-Regular, PT Mono" font-size="10" font-weight="normal"><tspan x="63.502" y="31">)</tspan></text><text id="{" fill="#999" font-family="PTMono-Regular, PT Mono" font-size="10" font-weight="normal"><tspan x="75.048" y="31">{</tspan></text><path id="Fill-31" fill="#F5F2F0" d="M0 51h467V38H0z"/><text id="handleError" fill="#000" font-family="PTMono-Regular, PT Mono" font-size="10" font-weight="normal" letter-spacing=".027"><tspan x="23.092" y="44">handleError</tspan></text><text id="(" fill="#999" font-family="PTMono-Regular, PT Mono" font-size="10" font-weight="normal"><tspan x="86.594" y="44">(</tspan></text><text id="error" fill="#000" font-family="PTMono-Regular, PT Mono" font-size="10" font-weight="normal" letter-spacing=".027"><tspan x="92.367" y="44">error</tspan></text><text id=");" fill="#999" font-family="PTMono-Regular, PT Mono" font-size="10" font-weight="normal" letter-spacing=".027"><tspan x="121.232" y="44">);</tspan></text><path id="Fill-38" fill="#F5F2F0" d="M0 63h467V51H0z"/><text id="}" fill="#999" font-family="PTMono-Regular, PT Mono" font-size="10" font-weight="normal"><tspan x="11.546" y="57">}</tspan></text><text id="else" fill="#07A" font-family="PTMono-Regular, PT Mono" font-size="10" font-weight="normal" letter-spacing=".027"><tspan x="23.092" y="57">else</tspan></text><text id="{" fill="#999" font-family="PTMono-Regular, PT Mono" font-size="10" font-weight="normal"><tspan x="51.957" y="57">{</tspan></text><path id="Fill-46" fill="#F5F2F0" d="M0 76h467V63H0z"/><text id="//-..." fill="#708090" font-family="PTMono-Regular, PT Mono" font-size="10" font-weight="normal" letter-spacing=".027"><tspan x="23.092" y="69">// ...</tspan></text><path id="Fill-50" fill="#F5F2F0" d="M0 89h467V76H0z"/><text id="loadScript" fill="#000" font-family="PTMono-Regular, PT Mono" font-size="10" font-weight="normal" letter-spacing=".027"><tspan x="23.092" y="82">loadScript</tspan></text><text id="(" fill="#999" font-family="PTMono-Regular, PT Mono" font-size="10" font-weight="normal"><tspan x="80.821" y="82">(</tspan></text><text id="'2.js'" fill="#690" font-family="PTMono-Regular, PT Mono" font-size="10" font-weight="normal" letter-spacing=".027"><tspan x="86.594" y="82">&apos;2.js&apos;</tspan></text><text id="," fill="#999" font-family="PTMono-Regular, PT Mono" font-size="10" font-weight="normal"><tspan x="121.232" y="82">,</tspan></text><text id="function" fill="#07A" font-family="PTMono-Regular, PT Mono" font-size="10" font-weight="normal" letter-spacing=".027"><tspan x="132.778" y="82">function</tspan></text><text id="(" fill="#999" font-family="PTMono-Regular, PT Mono" font-size="10" font-weight="normal"><tspan x="178.961" y="82">(</tspan></text><text id="error" fill="#000" font-family="PTMono-Regular, PT Mono" font-size="10" font-weight="normal" letter-spacing=".027"><tspan x="184.734" y="82">error</tspan></text><text id="," fill="#999" font-family="PTMono-Regular, PT Mono" font-size="10" font-weight="normal"><tspan x="213.599" y="82">,</tspan></text><text id="script" fill="#000" font-family="PTMono-Regular, PT Mono" font-size="10" font-weight="normal" letter-spacing=".027"><tspan x="225.145" y="82">script</tspan></text><text id=")" fill="#999" font-family="PTMono-Regular, PT Mono" font-size="10" font-weight="normal"><tspan x="259.783" y="82">)</tspan></text><text id="{" fill="#999" font-family="PTMono-Regular, PT Mono" font-size="10" font-weight="normal"><tspan x="271.329" y="82">{</tspan></text><path id="Fill-67" fill="#F5F2F0" d="M0 102h467V89H0z"/><text id="if" fill="#07A" font-family="PTMono-Regular, PT Mono" font-size="10" font-weight="normal" letter-spacing=".027"><tspan x="34.638" y="95">if</tspan></text><text id="(" fill="#999" font-family="PTMono-Regular, PT Mono" font-size="10" font-weight="normal"><tspan x="51.957" y="95">(</tspan></text><text id="error" fill="#000" font-family="PTMono-Regular, PT Mono" font-size="10" font-weight="normal" letter-spacing=".027"><tspan x="57.729" y="95">error</tspan></text><text id=")" fill="#999" font-family="PTMono-Regular, PT Mono" font-size="10" font-weight="normal"><tspan x="86.594" y="95">)</tspan></text><text id="{" fill="#999" font-family="PTMono-Regular, PT Mono" font-size="10" font-weight="normal"><tspan x="98.14" y="95">{</tspan></text><path id="Fill-77" fill="#F5F2F0" d="M0 114h467v-12H0z"/><text id="handleError" fill="#000" font-family="PTMono-Regular, PT Mono" font-size="10" font-weight="normal" letter-spacing=".027"><tspan x="46.184" y="108">handleError</tspan></text><text id="(" fill="#999" font-family="PTMono-Regular, PT Mono" font-size="10" font-weight="normal"><tspan x="109.686" y="108">(</tspan></text><text id="error" fill="#000" font-family="PTMono-Regular, PT Mono" font-size="10" font-weight="normal" letter-spacing=".027"><tspan x="115.459" y="108">error</tspan></text><text id=");" fill="#999" font-family="PTMono-Regular, PT Mono" font-size="10" font-weight="normal" letter-spacing=".027"><tspan x="144.324" y="108">);</tspan></text><path id="Fill-84" fill="#F5F2F0" d="M0 127h467v-13H0z"/><text id="}" fill="#999" font-family="PTMono-Regular, PT Mono" font-size="10" font-weight="normal"><tspan x="34.638" y="120">}</tspan></text><text id="else" fill="#07A" font-family="PTMono-Regular, PT Mono" font-size="10" font-weight="normal" letter-spacing=".027"><tspan x="46.184" y="120">else</tspan></text><text id="{" fill="#999" font-family="PTMono-Regular, PT Mono" font-size="10" font-weight="normal"><tspan x="75.048" y="120">{</tspan></text><path id="Fill-92" fill="#F5F2F0" d="M0 140h467v-13H0z"/><text id="//-..." fill="#708090" font-family="PTMono-Regular, PT Mono" font-size="10" font-weight="normal" letter-spacing=".027"><tspan x="46.184" y="133">// ...</tspan></text><path id="Fill-96" fill="#F5F2F0" d="M0 153h467v-13H0z"/><text id="loadScript" fill="#000" font-family="PTMono-Regular, PT Mono" font-size="10" font-weight="normal" letter-spacing=".027"><tspan x="46.184" y="146">loadScript</tspan></text><text id="(" fill="#999" font-family="PTMono-Regular, PT Mono" font-size="10" font-weight="normal"><tspan x="103.913" y="146">(</tspan></text><text id="'3.js'" fill="#690" font-family="PTMono-Regular, PT Mono" font-size="10" font-weight="normal" letter-spacing=".027"><tspan x="109.686" y="146">&apos;3.js&apos;</tspan></text><text id="," fill="#999" font-family="PTMono-Regular, PT Mono" font-size="10" font-weight="normal"><tspan x="144.324" y="146">,</tspan></text><text id="function" fill="#07A" font-family="PTMono-Regular, PT Mono" font-size="10" font-weight="normal" letter-spacing=".027"><tspan x="155.87" y="146">function</tspan></text><text id="(" fill="#999" font-family="PTMono-Regular, PT Mono" font-size="10" font-weight="normal"><tspan x="202.053" y="146">(</tspan></text><text id="error" fill="#000" font-family="PTMono-Regular, PT Mono" font-size="10" font-weight="normal" letter-spacing=".027"><tspan x="207.826" y="146">error</tspan></text><text id="," fill="#999" font-family="PTMono-Regular, PT Mono" font-size="10" font-weight="normal"><tspan x="236.691" y="146">,</tspan></text><text id="script" fill="#000" font-family="PTMono-Regular, PT Mono" font-size="10" font-weight="normal" letter-spacing=".027"><tspan x="248.237" y="146">script</tspan></text><text id=")" fill="#999" font-family="PTMono-Regular, PT Mono" font-size="10" font-weight="normal"><tspan x="282.875" y="146">)</tspan></text><text id="{" fill="#999" font-family="PTMono-Regular, PT Mono" font-size="10" font-weight="normal"><tspan x="294.42" y="146">{</tspan></text><path id="Fill-113" fill="#F5F2F0" d="M0 165h467v-12H0z"/><text id="if" fill="#07A" font-family="PTMono-Regular, PT Mono" font-size="10" font-weight="normal" letter-spacing=".027"><tspan x="57.729" y="159">if</tspan></text><text id="(" fill="#999" font-family="PTMono-Regular, PT Mono" font-size="10" font-weight="normal"><tspan x="75.048" y="159">(</tspan></text><text id="error" fill="#000" font-family="PTMono-Regular, PT Mono" font-size="10" font-weight="normal" letter-spacing=".027"><tspan x="80.821" y="159">error</tspan></text><text id=")" fill="#999" font-family="PTMono-Regular, PT Mono" font-size="10" font-weight="normal"><tspan x="109.686" y="159">)</tspan></text><text id="{" fill="#999" font-family="PTMono-Regular, PT Mono" font-size="10" font-weight="normal"><tspan x="121.232" y="159">{</tspan></text><path id="Fill-123" fill="#F5F2F0" d="M0 178h467v-13H0z"/><text id="handleError" fill="#000" font-family="PTMono-Regular, PT Mono" font-size="10" font-weight="normal" letter-spacing=".027"><tspan x="69.275" y="171">handleError</tspan></text><text id="(" fill="#999" font-family="PTMono-Regular, PT Mono" font-size="10" font-weight="normal"><tspan x="132.778" y="171">(</tspan></text><text id="error" fill="#000" font-family="PTMono-Regular, PT Mono" font-size="10" font-weight="normal" letter-spacing=".027"><tspan x="138.551" y="171">error</tspan></text><text id=");" fill="#999" font-family="PTMono-Regular, PT Mono" font-size="10" font-weight="normal" letter-spacing=".027"><tspan x="167.416" y="171">);</tspan></text><path id="Fill-130" fill="#F5F2F0" d="M0 191h467v-13H0z"/><text id="}" fill="#999" font-family="PTMono-Regular, PT Mono" font-size="10" font-weight="normal"><tspan x="57.729" y="184">}</tspan></text><text id="else" fill="#07A" font-family="PTMono-Regular, PT Mono" font-size="10" font-weight="normal" letter-spacing=".027"><tspan x="69.275" y="184">else</tspan></text><text id="{" fill="#999" font-family="PTMono-Regular, PT Mono" font-size="10" font-weight="normal"><tspan x="98.14" y="184">{</tspan></text><path id="Fill-138" fill="#F5F2F0" d="M0 204h467v-13H0z"/><text id="//-...continue-after-all-scripts-are-loaded-(*)" fill="#708090" font-family="PTMono-Regular, PT Mono" font-size="10" font-weight="normal" letter-spacing=".027"><tspan x="69.275" y="197">// ...continue after all scripts are loaded (*)</tspan></text><path id="Fill-142" fill="#F5F2F0" d="M0 216h467v-12H0z"/><text id="}" fill="#999" font-family="PTMono-Regular, PT Mono" font-size="10" font-weight="normal"><tspan x="57.729" y="210">}</tspan></text><path id="Fill-146" fill="#F5F2F0" d="M0 229h467v-13H0z"/><text id="});" fill="#999" font-family="PTMono-Regular, PT Mono" font-size="10" font-weight="normal" letter-spacing=".027"><tspan x="46.184" y="222">});</tspan></text><path id="Fill-150" fill="#F5F2F0" d="M0 242h467v-13H0z"/><text id="}" fill="#999" font-family="PTMono-Regular, PT Mono" font-size="10" font-weight="normal"><tspan x="34.638" y="235">}</tspan></text><path id="Fill-154" fill="#F5F2F0" d="M0 255h467v-13H0z"/><text id="})" fill="#999" font-family="PTMono-Regular, PT Mono" font-size="10" font-weight="normal" letter-spacing=".027"><tspan x="23.092" y="248">})</tspan></text><path id="Fill-158" fill="#F5F2F0" d="M0 267h467v-12H0z"/><text id="}" fill="#999" font-family="PTMono-Regular, PT Mono" font-size="10" font-weight="normal"><tspan x="11.546" y="261">}</tspan></text><path id="Fill-162" fill="#F5F2F0" d="M0 280h467v-13H0z"/><text id="});" fill="#999" font-family="PTMono-Regular, PT Mono" font-size="10" font-weight="normal" letter-spacing=".027"><tspan x="0" y="273">});</tspan></text><path id="Fill-165" fill="#F5F2F0" d="M0 293h467v-13H0z"/></g><g id="Group" fill="#626262" fill-opacity=".2" fill-rule="nonzero" transform="rotate(90 231.5 232.5)"><path id="Shape" d="M139.11.6l-44.9 149.829h89.8L139.11.599zm0 38.874l28.04 93.57h-56.08l28.04-93.57zM189.22 167.814H89l-26.049 86.928H215.27l-26.05-86.928zM95.44 185.2h87.34l15.63 52.157H79.81L95.44 185.2zM220.48 272.128H57.74l-26.05 86.928H246.53l-26.05-86.928zm-156.3 17.386h149.86l15.63 52.156H48.55l15.63-52.156zM251.74 376.442H26.48L.431 463.369H277.79l-26.05-86.927zM32.92 393.827H245.3l15.63 52.157H17.29l15.63-52.157z"/></g><path id="Shape" fill="#D88D8D" fill-rule="nonzero" d="M411.848 150.069l-2.08 2.082 2.814 13.465h6.733l2.632 5.509 10.834 3.367 9.855-3.612 2.264-5.57 7.101-.367 2.57-13.466-2.387-2.081-2.938 9.426-9.12-3.948-4.56 3.795-3.397-2.601-3.458 2.601-4.132-3.06-9.242 4.284z"/><path id="Shape" fill="#D88D8D" fill-rule="nonzero" d="M459.984 91s3.305 7.896 1.836 13.037c-1.722 6.027-9.609 5.709-12.203 5.434-4.09-3.435-9.706-5.74-17.42-5.74-7.709 0-13.26 2.295-17.256 5.716-2.334.275-10.648.798-12.42-5.41C401.048 98.896 404.353 91 404.353 91s-10.466 14.017-6.427 22.035c1.6 3.173 6.534 5.239 10.038 6.349-3.959 9.54-3.07 19.909-3.07 19.909l9.824 7.161 2.48 8.08 7.987-4.04 4.223 3.244 3.397-2.693 3.49 2.693 4.314-3.519 7.988 3.519 1.973-7.284 9.886-7.07s.616-10.52-3.684-20.131c3.47-1.137 8.098-3.166 9.637-6.219 4.04-8.017-6.426-22.034-6.426-22.034zm-34.706 48.386l-10.19-1.102-2.388-8.171 1.744-1.928 12.027 4.04 1.744 3.489-2.937 3.672zm10.355 6.472l-1.33-.918-1.496.551h-.158l-1.495-.551-1.33.918-1.01-1.148 2.937-5.738.898.413h.158l.898-.413 2.938 5.738-1.01 1.148zm14.706-7.574l-10.19 1.102-2.939-3.673 1.744-3.489 12.027-4.04 1.744 1.928-2.386 8.172z"/></g></g></svg>