<svg xmlns="http://www.w3.org/2000/svg" width="467" height="279" viewBox="0 0 467 279"><defs><style>@import url(https://fonts.googleapis.com/css?family=Open+Sans:bold,italic,bolditalic%7CPT+Mono);@font-face{font-family:&apos;PT Mono&apos;;font-weight:700;font-style:normal;src:local(&apos;PT MonoBold&apos;),url(/font/PTMonoBold.woff2) format(&apos;woff2&apos;),url(/font/PTMonoBold.woff) format(&apos;woff&apos;),url(/font/PTMonoBold.ttf) format(&apos;truetype&apos;)}</style></defs><g id="promise" fill="none" fill-rule="evenodd" stroke="none" stroke-width="1"><g id="callback-hell.svg"><g id="Group" fill="#626262" fill-opacity=".2" fill-rule="nonzero" transform="rotate(90 231.5 232.5)"><path id="Shape" d="M139.11.6l-44.9 149.829h89.8L139.11.599zm0 38.874l28.04 93.57h-56.08l28.04-93.57zM189.22 167.814H89l-26.049 86.928H215.27l-26.05-86.928zM95.44 185.2h87.34l15.63 52.157H79.81L95.44 185.2zM220.48 272.128H57.74l-26.05 86.928H246.53l-26.05-86.928zm-156.3 17.386h149.86l15.63 52.156H48.55l15.63-52.156zM251.74 376.442H26.48L.431 463.369H277.79l-26.05-86.927zM32.92 393.827H245.3l15.63 52.157H17.29l15.63-52.157z"/></g><path id="Shape" fill="#D88D8D" fill-rule="nonzero" d="M411.848 150.069l-2.08 2.082 2.814 13.465h6.733l2.632 5.509 10.834 3.367 9.855-3.612 2.264-5.57 7.101-.367 2.57-13.466-2.387-2.081-2.938 9.426-9.12-3.948-4.56 3.795-3.397-2.601-3.458 2.601-4.132-3.06-9.242 4.284z"/><path id="Shape" fill="#D88D8D" fill-rule="nonzero" d="M459.984 91s3.305 7.896 1.836 13.037c-1.722 6.027-9.609 5.709-12.203 5.434-4.09-3.435-9.706-5.74-17.42-5.74-7.709 0-13.26 2.295-17.256 5.716-2.334.275-10.648.798-12.42-5.41C401.048 98.896 404.353 91 404.353 91s-10.466 14.017-6.427 22.035c1.6 3.173 6.534 5.239 10.038 6.349-3.959 9.54-3.07 19.909-3.07 19.909l9.824 7.161 2.48 8.08 7.987-4.04 4.223 3.244 3.397-2.693 3.49 2.693 4.314-3.519 7.988 3.519 1.973-7.284 9.886-7.07s.616-10.52-3.684-20.131c3.47-1.137 8.098-3.166 9.637-6.219 4.04-8.017-6.426-22.034-6.426-22.034zm-34.706 48.386l-10.19-1.102-2.388-8.171 1.744-1.928 12.027 4.04 1.744 3.489-2.937 3.672zm10.355 6.472l-1.33-.918-1.496.551h-.158l-1.495-.551-1.33.918-1.01-1.148 2.937-5.738.898.413h.158l.898-.413 2.938 5.738-1.01 1.148zm14.706-7.574l-10.19 1.102-2.939-3.673 1.744-3.489 12.027-4.04 1.744 1.928-2.386 8.172z"/><text id="loadScript('1.js',-f" font-family="PTMono-Regular, PT Mono" font-size="10" font-weight="normal"><tspan x="5" y="15.25" fill="#333">loadScript</tspan> <tspan x="65" y="15.25" fill="#999">(</tspan> <tspan x="71" y="15.25" fill="#690">&apos;1.js&apos;</tspan> <tspan x="107" y="15.25" fill="#999">,</tspan> <tspan x="113" y="15.25" fill="#333"> </tspan> <tspan x="119" y="15.25" fill="#07A">function</tspan> <tspan x="167" y="15.25" fill="#999">(</tspan> <tspan x="173" y="15.25" fill="#333">error</tspan> <tspan x="203" y="15.25" fill="#999">,</tspan> <tspan x="209" y="15.25" fill="#333"> script</tspan> <tspan x="251" y="15.25" fill="#999">)</tspan> <tspan x="257" y="15.25" fill="#333"> </tspan> <tspan x="263" y="15.25" fill="#999">{</tspan>  <tspan x="5" y="28" fill="#333"> </tspan> <tspan x="17" y="28" fill="#07A">if</tspan> <tspan x="29" y="28" fill="#333"> </tspan> <tspan x="35" y="28" fill="#999">(</tspan> <tspan x="41" y="28" fill="#333">error</tspan> <tspan x="71" y="28" fill="#999">)</tspan> <tspan x="77" y="28" fill="#333"> </tspan> <tspan x="83" y="28" fill="#999">{</tspan>  <tspan x="5" y="40.75" fill="#333"> handleError</tspan> <tspan x="95" y="40.75" fill="#999">(</tspan> <tspan x="101" y="40.75" fill="#333">error</tspan> <tspan x="131" y="40.75" fill="#999">);</tspan>  <tspan x="5" y="53.5" fill="#333"> </tspan> <tspan x="17" y="53.5" fill="#999">}</tspan> <tspan x="23" y="53.5" fill="#333"> </tspan> <tspan x="29" y="53.5" fill="#07A">else</tspan> <tspan x="53" y="53.5" fill="#333"> </tspan> <tspan x="59" y="53.5" fill="#999">{</tspan>  <tspan x="5" y="66.25" fill="#333"> </tspan> <tspan x="29" y="66.25" fill="#708090">// ...</tspan>  <tspan x="5" y="79" fill="#333"> loadScript</tspan> <tspan x="89" y="79" fill="#999">(</tspan> <tspan x="95" y="79" fill="#690">&apos;2.js&apos;</tspan> <tspan x="131" y="79" fill="#999">,</tspan> <tspan x="137" y="79" fill="#333"> </tspan> <tspan x="143" y="79" fill="#07A">function</tspan> <tspan x="191" y="79" fill="#999">(</tspan> <tspan x="197" y="79" fill="#333">error</tspan> <tspan x="227" y="79" fill="#999">,</tspan> <tspan x="233" y="79" fill="#333"> script</tspan> <tspan x="275" y="79" fill="#999">)</tspan> <tspan x="281" y="79" fill="#333"> </tspan> <tspan x="287" y="79" fill="#999">{</tspan>  <tspan x="5" y="91.75" fill="#333"> </tspan> <tspan x="41" y="91.75" fill="#07A">if</tspan> <tspan x="53" y="91.75" fill="#333"> </tspan> <tspan x="59" y="91.75" fill="#999">(</tspan> <tspan x="65" y="91.75" fill="#333">error</tspan> <tspan x="95" y="91.75" fill="#999">)</tspan> <tspan x="101" y="91.75" fill="#333"> </tspan> <tspan x="107" y="91.75" fill="#999">{</tspan>  <tspan x="5" y="104.5" fill="#333"> handleError</tspan> <tspan x="119" y="104.5" fill="#999">(</tspan> <tspan x="125" y="104.5" fill="#333">error</tspan> <tspan x="155" y="104.5" fill="#999">);</tspan>  <tspan x="5" y="117.25" fill="#333"> </tspan> <tspan x="41" y="117.25" fill="#999">}</tspan> <tspan x="47" y="117.25" fill="#333"> </tspan> <tspan x="53" y="117.25" fill="#07A">else</tspan> <tspan x="77" y="117.25" fill="#333"> </tspan> <tspan x="83" y="117.25" fill="#999">{</tspan>  <tspan x="5" y="130" fill="#333"> </tspan> <tspan x="53" y="130" fill="#708090">// ...</tspan>  <tspan x="5" y="142.75" fill="#333"> loadScript</tspan> <tspan x="113" y="142.75" fill="#999">(</tspan> <tspan x="119" y="142.75" fill="#690">&apos;3.js&apos;</tspan> <tspan x="155" y="142.75" fill="#999">,</tspan> <tspan x="161" y="142.75" fill="#333"> </tspan> <tspan x="167" y="142.75" fill="#07A">function</tspan> <tspan x="215" y="142.75" fill="#999">(</tspan> <tspan x="221" y="142.75" fill="#333">error</tspan> <tspan x="251" y="142.75" fill="#999">,</tspan> <tspan x="257" y="142.75" fill="#333"> script</tspan> <tspan x="299" y="142.75" fill="#999">)</tspan> <tspan x="305" y="142.75" fill="#333"> </tspan> <tspan x="311" y="142.75" fill="#999">{</tspan>  <tspan x="5" y="155.5" fill="#333"> </tspan> <tspan x="65" y="155.5" fill="#07A">if</tspan> <tspan x="77" y="155.5" fill="#333"> </tspan> <tspan x="83" y="155.5" fill="#999">(</tspan> <tspan x="89" y="155.5" fill="#333">error</tspan> <tspan x="119" y="155.5" fill="#999">)</tspan> <tspan x="125" y="155.5" fill="#333"> </tspan> <tspan x="131" y="155.5" fill="#999">{</tspan>  <tspan x="5" y="168.25" fill="#333"> handleError</tspan> <tspan x="143" y="168.25" fill="#999">(</tspan> <tspan x="149" y="168.25" fill="#333">error</tspan> <tspan x="179" y="168.25" fill="#999">);</tspan>  <tspan x="5" y="181" fill="#333"> </tspan> <tspan x="65" y="181" fill="#999">}</tspan> <tspan x="71" y="181" fill="#333"> </tspan> <tspan x="77" y="181" fill="#07A">else</tspan> <tspan x="101" y="181" fill="#333"> </tspan> <tspan x="107" y="181" fill="#999">{</tspan>  <tspan x="5" y="193.75" fill="#333"> </tspan> <tspan x="77" y="193.75" fill="#708090">// ...</tspan>  <tspan x="5" y="206.5" fill="#333"> </tspan> <tspan x="65" y="206.5" fill="#999">}</tspan>  <tspan x="5" y="219.25" fill="#333"> </tspan> <tspan x="53" y="219.25" fill="#999">});</tspan>  <tspan x="5" y="232" fill="#333"> </tspan> <tspan x="41" y="232" fill="#999">}</tspan>  <tspan x="5" y="244.75" fill="#333"> </tspan> <tspan x="29" y="244.75" fill="#999">})</tspan>  <tspan x="5" y="257.5" fill="#333"> </tspan> <tspan x="17" y="257.5" fill="#999">}</tspan>  <tspan x="5" y="270.25" fill="#999">});</tspan></text></g></g></svg>