<svg xmlns="http://www.w3.org/2000/svg" xmlns:xlink="http://www.w3.org/1999/xlink" width="467" height="279" viewBox="0 0 467 279"><defs><path id="(" fill="#999" d="M0 0a4.974 4.974 0 01-1.255-.505 3.597 3.597 0 01-1.02-.875c-.29-.36-.52-.8-.69-1.32-.17-.52-.255-1.137-.255-1.85 0-.707.087-1.325.26-1.855.173-.53.407-.98.7-1.35a3.56 3.56 0 011.025-.89c.39-.223.802-.382 1.235-.475l.25.63a5.061 5.061 0 00-1.08.445 2.805 2.805 0 00-.845.73 3.31 3.31 0 00-.55 1.13c-.13.45-.195.995-.195 1.635 0 .647.078 1.198.235 1.655.157.457.363.837.62 1.14.257.303.543.54.86.71.317.17.635.288.955.355l-.25.69z"/><path id="l" d="M0 0h1.66v5.32c0 .407.068.693.205.86.137.167.338.25.605.25.187 0 .365-.033.535-.1.17-.067.358-.18.565-.34l.36.55a2.215 2.215 0 01-.35.25 2.599 2.599 0 01-.79.3 2.117 2.117 0 01-1.03-.055 1.128 1.128 0 01-.485-.305 1.355 1.355 0 01-.295-.555c-.067-.23-.1-.515-.1-.855v-4.65h-.88z"/><path id="o" d="M0 0c0-.807.21-1.445.63-1.915.42-.47 1.02-.705 1.8-.705.42 0 .782.068 1.085.205.303.137.555.322.755.555.2.233.348.51.445.83.1.32.145.663.145 1.03 0 .4-.05.762-.16 1.085a2.254 2.254 0 01-.47.825 2.077 2.077 0 01-.765.525 2.729 2.729 0 01-1.035.185c-.413 0-.773-.068-1.08-.205a2.12 2.12 0 01-.76-.555c-.2-.233-.348-.51-.445-.83a3.545 3.545 0 01-.145-1.03zm.83 0c0 .233.028.467.085.7.057.233.148.443.275.63.127.187.292.337.495.45.203.113.452.17.745.17.533 0 .935-.165 1.205-.495.27-.33.405-.815.405-1.455 0-.24-.028-.475-.085-.705a1.863 1.863 0 00-.28-.625 1.476 1.476 0 00-.5-.45 1.51 1.51 0 00-.745-.17c-.533 0-.933.163-1.2.49-.267.327-.4.813-.4 1.46z"/><path id="a" fill="#333" d="M0 0c.287-.167.61-.287.97-.36.36-.073.713-.11 1.06-.11.34 0 .618.053.835.16.217.107.387.245.51.415.123.17.207.363.25.58.04.217.07.435.07.655 0 .253 0 .523-.02.81-.01.287-.02.573-.03.86 0 .333.02.65.06.95h.67v.65h-1.335l-.09-.75h-.05c-.04.06-.1.137-.18.23-.08.093-.185.185-.315.275a1.964 1.964 0 01-1.135.335c-.493 0-.883-.127-1.17-.38-.287-.253-.43-.6-.43-1.04 0-.34.08-.623.225-.85.15-.227.365-.4.645-.52.28-.12.618-.19 1.015-.21.397-.02.842.01 1.335.08.03-.307.04-.562.02-.765a1.054 1.054 0 00-.165-.485.67.67 0 00-.35-.255 1.773 1.773 0 00-.555-.075c-.3 0-.587.042-.86.125a8.67 8.67 0 00-.73.255zm1.47 4.03c.187 0 .36-.03.52-.09a1.585 1.585 0 00 .72-.535c.08-.11.14-.215.18-.315v-.7a5.658 5.658 0 00-.96-.09c-.293 0-.547.032-.76.095a1.06 1.06 0 00-.5.295.748.748 0 00-.18.52c0 .22.08.412.225.575.15.163.402.245.755.245z"/><path id="d" fill="#333" d="M0 0h1.62v5.29c0 .06 0 .135.01.225a11.143 11.143 0 00 .06.58c.01.097.03.182.04.255h.67v.65h-1.33l-.1-.77h-.04a1.766 1.766 0 01-.655.635 1.95 1.95 0 01-1.005.255c-.753 0-1.308-.212-1.665-.635-.357-.423-.535-1.082-.535-1.975 0-.42.06-.792.18-1.115.12-.323.292-.593.515-.81.223-.217.492-.382.805-.495a3.07 3.07 0 01 1.05-.17c.14 0 .265 0 .375.01.11.01.212.017.305.03.09.013.182.032.265.055l.275.075v-1.42h-.84v-.67zm-.6 6.45c.407 0 .727-.105.96-.315.233-.21.393-.525.48-.945v-2.32a1.549 1.549 0 00-.495-.22 3.037 3.037 0 00-.725-.07c-.533 0-.953.155-1.26.465-.307.31-.46.798-.46 1.465 0 .273.02.528.07.765.05.237.133.442.25.615.117.173.272.31.465.41.193.1.43.15.71.15z"/><path id="S" fill="#333" d="M0 0c.2.107.425.195.675.265a2.83 2.83 0 00 1.375.04c.193-.043.362-.113.505-.21.143-.097.257-.218.34-.365.083-.147.125-.32.125-.52a.88.88 0 00-.275-.67 2.731 2.731 0 00-.685-.46c-.273-.133-.57-.263-.89-.39a5.298 5.298 0 01-.89-.45 2.499 2.499 0 01-.685-.635c-.183-.25-.275-.568-.275-.955 0-.273.05-.52.165-.74a1.6 1.6 0 01 .465-.56c.2-.153.442-.272.725-.355.283-.083.598-.125.945-.125.4 0 .763.028 1.09.085.327.057.587.132.78.225l.02-.01v.02h.01l-.01.03v1.6h-.74v-1.07a5.454 5.454 0 00-.55-.1c-.2-.027-.413-.04-.64-.04-.22 0-.418.027-.595.08a1.486 1.486 0 00-.45.215.979.979 0 00-.285.315.857.857 0 00 .175 1.03c.183.173.412.328.685.465.273.137.57.272.89.405.32.133.617.288.89.465.273.177.502.388.685.635.183.247.275.553.275.92 0 .3-.05.57-.165.81-.11.24-.267.447-.47.62a2.121 2.121 0 01-.75.4c-.297.093-.632.14-1.005.14a4.14 4.14 0 01-.72-.06 4.916 4.916 0 01-1.49-.51l.01-.03v-1.62h.74z"/><path id="c" d="M0 0a3.95 3.95 0 00-.495-.135 2.578 2.578 0 00-.525-.055c-.653 0-1.14.153-1.46.46-.32.307-.48.793-.48 1.46 0 .293.05.555.14.785.09.23.227.425.4.585.173.16.382.283.625.37.243.087.512.13.805.13.313 0 .618-.053.915-.16.297-.107.545-.247.745-.42l.35.58a2.83 2.83 0 01-.35.25 3.455 3.455 0 01-1.095.43c-.223.047-.465.07-.725.07a3.26 3.26 0 01-1.145-.185c-.33-.123-.605-.3-.825-.53a2.268 2.268 0 01-.5-.83 3.232 3.232 0 01-.17-1.075c0-.42.058-.793.175-1.12.117-.327.285-.6.505-.82a2.2 2.2 0 01 .8-.505 2.99 2.99 0 01 1.05-.175c.493 0 .895.043 1.205.13.31.087.572.183.785.29l-.01.03v1.39h-.72z"/><path id="r" fill="#333" d="M0 0v-.67h1.35v-3.66h-1.35v-.67h1.87l.16.65h.05c.227-.207.48-.383.76-.53.28-.147.613-.22 1-.22.227 0 .408.043.545.13a.862.862 0 01 .32.38c.08.167.128.368.155.605.03.237.04.505.04.805l-.7.01c0-.427-.04-.74-.125-.94a.454.454 0 00-.455-.3c-.207 0-.393.03-.56.09-.167.06-.312.133-.435.22a2.38 2.38 0 00-.315.26c-.09.087-.15.16-.19.22v2.95h1.92v.67z"/><path id="i" d="M0 0v-.67h1.74v-3.66h-1.74v-.67h2.54v4.33h1.7v.67zm1.47-6.42c0-.18.06-.335.18-.465a.598.598 0 01 .46-.195c.193 0 .355.065.485.195.13.13.195.285.195.465 0 .173-.06.32-.195.44a.688.688 0 01-.485.18.623.623 0 01-.46-.18.599.599 0 01-.18-.44z"/><path id="p" fill="#333" d="M0 0a10.035 10.035 0 00-.045-.84c-.01-.1-.022-.187-.035-.26h-.67v-.65h1.33l.1.7h.05c.18-.233.408-.428.685-.585.277-.157.615-.235 1.015-.235.713 0 1.25.197 1.61.59.36.393.54 1.037.54 1.93 0 .42-.06.798-.185 1.135a2.386 2.386 0 01-.525.855c-.227.233-.5.413-.82.54-.32.127-.673.19-1.06.19-.14 0-.265 0-.375-.015-.11-.01-.21-.023-.3-.04a2.364 2.364 0 01-.265-.065 3.645 3.645 0 01-.28-.1v2.1h-.77zm2.3-1.14c-.2 0-.388.037-.565.11a1.685 1.685 0 00-.805.69c-.09.147-.14.293-.16.44v2.28c.147.1.312.178.495.235.183.057.425.085.725.085.533 0 .96-.175 1.28-.525.32-.35.48-.862.48-1.535 0-.567-.112-1.005-.335-1.315-.223-.31-.595-.465-1.115-.465z"/><path id="t" d="M0 0h1.19v-.99l.78-.22v1.21h2.67v.67h-2.67v2.36c0 .487.118.847.355 1.08.237.233.575.35 1.015.35.3 0 .562-.057.785-.17a4.23 4.23 0 00 .605-.37l.26.59a2.813 2.813 0 01-.835.45c-.323.113-.655.17-.995.17-.267 0-.518-.038-.755-.115a1.733 1.733 0 01-.625-.355 1.7 1.7 0 01-.43-.615 2.272 2.272 0 01-.16-.895v-2.48h-1.19z"/><path id="'" fill="#690" d="M0 0h.88l-.31 3.03h-.57v-3.03z"/><path id="." d="M0 0c0-.213.06-.378.18-.495a.66.66 0 01 .48-.175c.213 0 .38.058.5.175.12.117.18.282.18.495a.67.67 0 01-.18.48c-.12.127-.287.19-.5.19a.63.63 0 01-.48-.19.67.67 0 01-.18-.48z"/><path id="s" d="M0 0a.569.569 0 00-.25-.495 2.051 2.051 0 00-.62-.28c-.247-.07-.515-.135-.805-.195-.29-.06-.558-.14-.805-.24a1.804 1.804 0 01-.62-.405c-.167-.17-.25-.408-.25-.715 0-.253.055-.47.165-.65.11-.18.255-.328.435-.445.18-.117.39-.203.63-.26.24-.057.49-.085.75-.085.467 0 .868.058 1.205.175.337.117.605.238.805.365l-.32.63a8.422 8.422 0 00-.715-.345c-.257-.11-.578-.165-.965-.165-.147 0-.292.015-.435.045-.143.03-.273.075-.39.135a.777.777 0 00-.28.235.59.59 0 00-.105.355c0 .173.083.307.25.4.167.093.373.172.62.235s.515.123.805.18c.29.057.558.138.805.245.247.107.453.25.62.43.167.18.25.423.25.73 0 .46-.182.84-.545 1.14-.363.3-.908.45-1.635.45-.22 0-.437-.02-.65-.06a3.942 3.942 0 01-.6-.16 3.61 3.61 0 01-.51-.225 2.145 2.145 0 01-.38-.255l.4-.65c.08.08.187.162.32.245a3.02 3.02 0 00 .955.385 2.685 2.685 0 00 1.06.015c.157-.03.295-.077.415-.14a.771.771 0 00 .285-.25.653.653 0 00 .105-.375z"/><path id="," fill="#999" d="M0 0c0-.2.065-.362.195-.485a.704.704 0 01.505-.185c.253 0 .45.088.59.265.14.177.21.425.21.745a1.685 1.685 0 01-.875 1.515c-.15.083-.288.145-.415.185l-.25-.39c.24-.093.447-.227.62-.4a.858.858 0 00.26-.63 1.12 1.12 0 01-.22.03c-.193 0-.345-.055-.455-.165-.11-.11-.165-.272-.165-.485z"/><path id="f" d="M0 0v-.67h1.19v-3.66h-1.19v-.67h1.19v-.28c0-.627.163-1.08.49-1.36.327-.28.793-.42 1.4-.42.22 0 .417.013.59.04.173.027.36.08.56.16l-.18.65a2.044 2.044 0 00-.5-.145 3.068 3.068 0 00-.44-.035c-.44 0-.74.108-.9.325-.16.217-.24.572-.24 1.065h2.07v.67h-2.07v3.66h2.07v.67h-4.04z"/><path id="u" fill="#07a" d="M0 0h1.42v3.41c0 .327.02.64.06.94h.67v.65h-1.33l-.03-.85h-.04c-.173.287-.403.52-.69.7-.287.18-.633.27-1.04.27-.307 0-.568-.035-.785-.105a1.112 1.112 0 01-.535-.365c-.14-.173-.243-.405-.31-.695-.067-.29-.1-.652-.1-1.085v-2.2h-.67v-.67h1.45v2.71c0 .273.012.518.035.735.023.217.072.4.145.55.073.15.182.263.325.34.143.077.335.115.575.115.347 0 .648-.113.905-.34a2.17 2.17 0 00 .585-.85v-2.59h-.64v-.67z"/><path id="n" d="M0 0a10.033 10.033 0 00-.045-.84c-.01-.1-.022-.187-.035-.26h-.67v-.65h1.34l.09.81h.05a1.69 1.69 0 01 .265-.335 2.078 2.078 0 01 .875-.515c.18-.053.37-.08.57-.08.307 0 .578.033.815.1s.433.185.59.355c.157.17.275.4.355.69.08.29.12.658.12 1.105v2.87h-.78v-2.72c0-.553-.09-.97-.27-1.25-.18-.28-.507-.42-.98-.42a1.27 1.27 0 00-.505.105c-.163.07-.312.162-.445.275-.133.113-.25.245-.35.395-.1.15-.173.308-.22.475v3.14h-.77v-3.25z"/><path id="e" d="M0 0c-.12.107-.262.207-.425.3a3.136 3.136 0 01-.535.24 3.922 3.922 0 01-1.24.21c-.4 0-.753-.062-1.06-.185a2.041 2.041 0 01-.77-.53 2.31 2.31 0 01-.47-.825c-.107-.32-.16-.68-.16-1.08 0-.42.058-.793.175-1.12.117-.327.285-.6.505-.82a2.2 2.2 0 01 .8-.505 2.99 2.99 0 01 1.05-.175c.28 0 .557.037.83.11.273.073.515.212.725.415.21.203.372.483.485.84.113.357.153.818.12 1.385h-3.87c0 .6.162 1.048.485 1.345.323.297.755.445 1.295.445.18 0 .358-.022.535-.065a4.47 4.47 0 00 .505-.155c.16-.06.302-.127.425-.2.123-.073.218-.14.285-.2l.31.57zm-2.11-3.83a2.7 2.7 0 00-.625.07c-.197.047-.37.125-.52.235-.15.11-.273.253-.37.43a1.725 1.725 0 00-.185.655h3.11c-.033-.44-.175-.782-.425-1.025-.25-.243-.578-.365-.985-.365z"/><path id="r" fill="#333" d="M0 0v-.67h1.35v-3.66h-1.35v-.67h1.87l.16.65h.05c.227-.207.48-.383.76-.53.28-.147.613-.22 1-.22.227 0 .408.043.545.13a.862.862 0 01 .32.38c.077.167.128.368.155.605.027.237.04.505.04.805l-.7.01c0-.427-.042-.74-.125-.94a.454.454 0 00-.455-.3c-.207 0-.393.03-.56.09-.167.06-.312.133-.435.22a2.38 2.38 0 00-.315.26c-.087.087-.15.16-.19.22v2.95h1.92v.67h-4.04z"/><path id=")" fill="#999" d="M0 0c.32-.067.638-.185.955-.355.317-.17.603-.407.86-.71s.463-.683.62-1.14c.157-.457.235-1.008.235-1.655 0-.64-.065-1.185-.195-1.635a3.31 3.31 0 00-.55-1.13 2.805 2.805 0 00-.845-.73 5.061 5.061 0 00-1.08-.445l.25-.63c.433.093.845.252 1.235.475.39.223.732.52 1.025.89.293.37.527.82.7 1.35.173.53.26 1.148.26 1.855 0 .713-.085 1.33-.255 1.85-.17.52-.4.96-.69 1.32-.29.36-.63.652-1.02.875-.39.223-.808.392-1.255.505l-.25-.69z"/><path id="{" fill="#999" d="M0 0c0-.287-.048-.535-.145-.745a1.742 1.742 0 00-.36-.525 1.437 1.437 0 00-.46-.31 1.172 1.172 0 00-.435-.1v-.7c.127 0 .272-.028.435-.085.163-.057.317-.15.46-.28.143-.13.263-.298.36-.505.097-.207.145-.463.145-.77v-1.02c0-.24.038-.46.115-.66.077-.2.183-.373.32-.52.137-.147.3-.262.49-.345.19-.083.398-.125.625-.125h1.45v.7h-1.1c-.42 0-.712.1-.875.3-.163.2-.245.497-.245.89v.97a1.7 1.7 0 01-.15.73 1.928 1.928 0 01-.79.875 1.1 1.1 0 01-.36.145v.06c.087.013.203.065.35.155.147.09.29.213.43.37s.262.342.365.555c.103.213.155.45.155.71v.96c0 .407.087.707.26.9.173.193.463.29.87.29h1.09v.7h-1.45c-.467 0-.842-.138-1.125-.415-.283-.277-.425-.685-.425-1.225v-.98z"/><path id="h" fill="#333" d="M0 0h1.56v2.62h.05a2.24 2.24 0 01 .72-.545c.273-.13.613-.195 1.02-.195.32 0 .598.033.835.1s.43.183.58.35c.15.167.262.395.335.685.073.29.11.658.11 1.105v2.88h-.78v-2.73a4.92 4.92 0 00-.05-.75 1.306 1.306 0 00-.195-.535.903.903 0 00-.395-.325 1.6 1.6 0 00-.64-.11c-.18 0-.357.032-.53.095-.173.063-.332.15-.475.26-.143.11-.267.243-.37.4a1.496 1.496 0 00-.215.515v3.18h-.77v-6.33h-.79v-.67z"/><path id="E" fill="#333" d="M0 0h4.11v.74h-3.28v2.29h3.03v.74h-3.03v2.49h3.33v.74h-4.16v-7z"/><path id="}" fill="#999" d="M0 0c0 .54-.142.948-.425 1.225-.283.277-.658.415-1.125.415h-1.45v-.7h1.09c.407 0 .697-.097.87-.29.173-.193.26-.493.26-.9v-.96c0-.26.05-.497.15-.71.1-.213.22-.398.36-.555.14-.157.283-.28.43-.37.147-.09.267-.142.36-.155v-.06a1.1 1.1 0 01-.36-.145 1.928 1.928 0 01-.79-.875 1.7 1.7 0 01-.15-.73v-.97c0-.393-.082-.69-.245-.89-.163-.2-.455-.3-.875-.3h-1.1v-.7h1.45c.227 0 .435.042.625.125.19.083.353.198.49.345.137.147.243.32.32.52.077.2.115.42.115.66v1.02c0 .307.048.563.145.77.097.207.217.375.36.505s.297.223.46.28c.163.057.308.085.435.085v.7c-.127 0-.272.033-.435.1-.163.067-.317.17-.46.31-.143.14-.263.315-.36.525-.097.21-.145.458-.145.745v.98z"/><path id="/" fill="#708090" d="M0 0l.63.28-3.65 8.24-.63-.28 3.65-8.24z"/><path id="j" fill="#690" d="M0 0h-2.42v-.67h3.22v5.12c0 .673-.172 1.175-.515 1.505-.343.33-.818.495-1.425.495-.18 0-.355-.023-.525-.07a3.604 3.604 0 01-.86-.36 3.215 3.215 0 01-.245-.16l.33-.65c.18.133.385.25.615.35.23.1.468.15.715.15.4 0 .685-.125.855-.375.17-.25.255-.595.255-1.035v-4.3zm-.42-2.09c0-.18.06-.335.18-.465a.598.598 0 01 .46-.195c.193 0 .355.065.485.195s.195.285.195.465c0 .173-.065.32-.195.44a.688.688 0 01-.485.18.623.623 0 01-.46-.18.599.599 0 01-.18-.44z"/><g id="rror"><use xlink:href="#r" x="0" y="0"/><use xlink:href="#r" x="6" y="0"/><use xlink:href="#o" fill="#333" x="11.91" y="-2.5"/><use xlink:href="#r" x="18" y="0"/></g><g id="cript"><use xlink:href="#c" fill="#333" x="0" y="0"/><use xlink:href="#r" x="2.27" y="4.23"/><use xlink:href="#i" fill="#333" x="8.66" y="4.23"/><use xlink:href="#p" x="14.57" y="0.98"/><use xlink:href="#t" fill="#333" x="19.92" y="-.77"/></g><g id="(error"><use xlink:href="#(" x="0" y="0"/><use xlink:href="#e" fill="#333" x="6.97" y="-2.75"/><use xlink:href="#rror" x="8.34" y="-2.12"/></g><g id="){" fill="#999"><use xlink:href="#)" x="0" y="0"/><use xlink:href="#{" x="12.77" y="-1.75"/></g><g id=");"><use xlink:href="#)" x="0" y="0"/><use xlink:href="#." fill="#999" x="6.95" y="-5.91"/><use xlink:href="#," x="6.86" y="-1.98"/></g><g id="}});"><use xlink:href="#}" x="0" y="0"/><use xlink:href="#}" x="-12" y="12.75"/><use xlink:href="#);" x="-8.37" y="13.52"/></g><g id="hellfloor"><use xlink:href="#l" fill="#333" x="0.39" y="0.12"/><use xlink:href="#o" fill="#333" x="5.77" y="4.62"/><use xlink:href="#a" x="12.28" y="2.51"/><use xlink:href="#d" x="20.69" y="0.12"/><use xlink:href="#S" x="24.7" y="6.13"/><use xlink:href="#cript" fill="#333" x="33.59" y="2.89"/><use xlink:href="#(" fill="#333" x="63.52" y="9.24"/><use xlink:href="#'" x="67.81" y="0.12"/><use xlink:href="#." fill="#690" x="79.53" y="6.57"/><use xlink:href="#j" x="86.56" y="2.79"/><use xlink:href="#s" fill="#690" x="93.58" y="5.77"/><use xlink:href="#'" x="97.81" y="0.12"/><use xlink:href="#," x="103.49" y="6.57"/><use xlink:href="#f" fill="#07A" x="114.08" y="7.12"/><use xlink:href="#u" x="122.83" y="2.12"/><use xlink:href="#n" fill="#07A" x="126.13" y="3.87"/><use xlink:href="#c" fill="#07A" x="135.59" y="2.89"/><use xlink:href="#t" fill="#07A" x="137.51" y="2.12"/><use xlink:href="#i" fill="#07A" x="144.25" y="7.12"/><use xlink:href="#o" fill="#07A" x="149.77" y="4.62"/><use xlink:href="#n" fill="#07A" x="156.13" y="3.87"/><use xlink:href="#(error" x="165.52" y="9.24"/><use xlink:href="#," x="199.49" y="6.57"/><use xlink:href="#s" fill="#333" x="213.58" y="5.77"/><use xlink:href="#cript" x="219.59" y="2.89"/><use xlink:href="#){" x="246.63" y="8.55"/><use xlink:href="#i" fill="#07A" x="12.25" y="19.87"/><use xlink:href="#f" fill="#07A" x="18.08" y="19.87"/><use xlink:href="#(error" x="33.52" y="21.99"/><use xlink:href="#){" x="66.63" y="21.3"/><use xlink:href="#h" x="23.24" y="25.62"/><use xlink:href="#a" x="30.28" y="28.01"/><use xlink:href="#n" fill="#333" x="36.13" y="29.37"/><use xlink:href="#d" x="44.69" y="25.62"/><use xlink:href="#l" fill="#333" x="48.39" y="25.62"/><use xlink:href="#e" fill="#333" x="58.49" y="31.99"/><use xlink:href="#E" x="60.27" y="25.62"/><use xlink:href="#rror" x="65.86" y="32.62"/><use xlink:href="#(error" x="93.52" y="34.74"/><use xlink:href="#);" x="126.63" y="34.05"/><use xlink:href="#}" x="15" y="46.03"/><use xlink:href="#e" fill="#07A" x="28.49" y="44.74"/><use xlink:href="#l" fill="#07A" x="30.39" y="38.37"/><use xlink:href="#s" fill="#07A" x="39.58" y="44.02"/><use xlink:href="#e" fill="#07A" x="46.49" y="44.74"/><use xlink:href="#{" x="55.4" y="45.05"/><use xlink:href="#/" x="27.71" y="51"/><use xlink:href="#/" x="33.71" y="51"/><use xlink:href="#." fill="#708090" x="43.53" y="57.57"/><use xlink:href="#." fill="#708090" x="49.53" y="57.57"/><use xlink:href="#." fill="#708090" x="55.53" y="57.57"/></g></defs><g id="promise" fill="none" fill-rule="evenodd" stroke="none" stroke-width="1"><g id="callback-hell.svg" fill-rule="nonzero"><g id="Group" fill="#626262" fill-opacity=".2" transform="rotate(90 231.5 232.5)"><path id="Shape" d="M139.11.6l-44.9 149.83h89.8l-44.9-149.831zM139.11 39.474l28.04 93.566h-56.08z M189.22 167.81h-100.22l-26.049 86.93h152.319zM95.44 185.2h87.34l15.63 52.16h-118.6zM220.48 272.13h-162.74l-26.05 86.93h214.84zM64.18 289.51h149.86l15.63 52.16h-181.12z M251.74 376.44h-225.26l-26.049 86.93h277.359zM32.92 393.83h212.38l15.63 52.15h-243.64z"/></g><path id="Shape" fill="#D88D8D" d="M411.848 150.069l-2.08 2.082 2.814 13.465h6.733l2.632 5.509 10.834 3.367 9.855-3.612 2.264-5.57 7.101-.367 2.57-13.466-2.387-2.081-2.938 9.426-9.12-3.948-4.56 3.795-3.397-2.601-3.458 2.601-4.132-3.06-9.242 4.284z"/><path id="Shape" fill="#D88D8D" d="M459.984 91s3.305 7.896 1.836 13.037c-1.722 6.027-9.609 5.709-12.203 5.434-4.09-3.435-9.706-5.74-17.42-5.74-7.709 0-13.26 2.295-17.256 5.716-2.334.275-10.648.798-12.42-5.41-1.473-5.141 1.832-13.037 1.832-13.037s-10.466 14.017-6.427 22.035c1.6 3.173 6.534 5.239 10.038 6.349-3.959 9.54-3.07 19.909-3.07 19.909l9.824 7.161 2.48 8.08 7.987-4.04 4.223 3.244 3.397-2.693 3.49 2.693 4.314-3.519 7.988 3.519 1.973-7.284 9.886-7.07s.616-10.52-3.684-20.131c3.47-1.137 8.098-3.166 9.637-6.219c4.04-8.017-6.426-22.034-6.426-22.034zm-34.706 48.386l-10.19-1.102-2.388-8.171 1.744-1.928 12.027 4.04 1.744 3.489-2.937 3.672zm10.355 6.472l-1.33-.918-1.496.551h-.158l-1.495-.551-1.33.918-1.01-1.148 2.937-5.738.898.413h.158l.898-.413 2.938 5.738-1.01 1.148zm14.706-7.574l-10.19 1.102-2.939-3.673 1.744-3.489 12.027-4.04 1.744 1.928-2.386 8.172z"/><g id="hell" transform="translate(5.8 9.88)"><use xlink:href="#hellfloor" x="0" y="0"/><use xlink:href="#hellfloor" x="24" y="63.75"/><use xlink:href="#hellfloor" x="48" y="127.5"/><path id="1" fill="#690" d="M72.47 6.4h1.57v-5.26l-1.6 1.12-.39-.57 2.2-1.57h.56v6.28h1.54v.72h-3.88v-.72z"/><path id="2" fill="#690" d="M100.2 65.64c0 .613-.29 1.297-.87 2.05-.58.753-1.39 1.573-2.43 2.46h3.52v.72h-4.44v-.72c.127-.12.3-.277.52-.47.22-.193.457-.408.71-.645.253-.237.512-.492.775-.765s.502-.553.715-.84c.213-.287.387-.573.52-.86.133-.287.2-.563.2-.83 0-.4-.105-.715-.315-.945-.21-.23-.525-.345-.945-.345-.36 0-.663.04-.91.12-.247.08-.47.197-.67.35l-.34-.55c.3-.213.618-.37.955-.47.337-.1.705-.15 1.105-.15.627 0 1.1.17 1.42.51.32.34.48.8.48 1.38z"/><path id="3" fill="#690" d="M121.68 134.05c.267 0 .512-.035.735-.105.223-.07.418-.168.585-.295.167-.127.297-.28.39-.46.093-.18.14-.38.14-.6 0-.46-.162-.788-.485-.985-.323-.197-.758-.295-1.305-.295h-.64v-.48l1.97-2.49h-2.99v-.72h3.95v.72l-1.97 2.31h.16c.307 0 .587.043.84.13.253.087.473.21.66.37.187.16.332.353.435.58.103.227.155.483.155.77 0 .36-.07.68-.21.96-.14.28-.33.515-.57.705-.24.19-.522.333-.845.43a3.596 3.596 0 01-1.035.145c-.34 0-.635-.025-.885-.075a4.96 4.96 0 01-.685-.185l.2-.7c.173.08.377.145.61.195.233.05.497.075.79.075z"/><use xlink:href="#}});" x="63" y="199.03"/><use xlink:href="#}});" x="39" y="224.53"/><use xlink:href="#}});" x="15" y="250.03"/></g></g></g></svg>
