<svg xmlns="http://www.w3.org/2000/svg" width="651" height="285" viewBox="0 0 651 285"><defs><style>@import url(https://fonts.googleapis.com/css?family=Open+Sans:bold,italic,bolditalic%7CPT+Mono);@font-face{font-family:&apos;PT Mono&apos;;font-weight:700;font-style:normal;src:local(&apos;PT MonoBold&apos;),url(/font/PTMonoBold.woff2) format(&apos;woff2&apos;),url(/font/PTMonoBold.woff) format(&apos;woff&apos;),url(/font/PTMonoBold.ttf) format(&apos;truetype&apos;)}</style></defs><g id="network" fill="none" fill-rule="evenodd" stroke="none" stroke-width="1"><g id="cors-gmail-messages.svg"><path id="Rectangle-1" fill="#FFF9EB" stroke="#E8C48E" stroke-width="2" d="M11 48h298v199H11z"/><g id="&lt;script&gt;-let-respons" fill-rule="nonzero" transform="translate(15.937 58.259)"><path id="&lt;script&gt;" fill="#9B9B9B" d="M5.339 9.099l-.745.752L0 6.016 4.594 2.18l.745.758-3.726 3.063L5.34 9.099zm7.95-1.23a1.634 1.634 0 01-.458 1.158 2.084 2.084 0 01-.492.38 3.272 3.272 0 01-.598.259c-.212.068-.43.119-.653.15a4.637 4.637 0 01-.656.048 12.3 12.3 0 01-1.282-.061 8.646 8.646 0 01-1.145-.199V8.511c.4.114.8.2 1.196.26.397.059.79.088 1.183.088.57 0 .991-.077 1.264-.232.274-.155.41-.376.41-.663a.812.812 0 00-.064-.332.753.753 0 00-.236-.28 2.254 2.254 0 00-.53-.277 11.81 11.81 0 00-.98-.328 6.963 6.963 0 01-.859-.311 2.877 2.877 0 01-.68-.414 1.776 1.776 0 01-.451-.56 1.649 1.649 0 01-.164-.759 1.744 1.744 0 01.588-1.265c.214-.195.503-.358.868-.488.364-.13.82-.195 1.367-.195.269 0 .567.015.896.044.328.03.67.081 1.025.154v1.06a9.803 9.803 0 00-1.063-.202 6.926 6.926 0 00-.872-.065c-.296 0-.545.023-.748.068a1.553 1.553 0 00-.492.188.734.734 0 00-.27.28.748.748 0 00-.082.346c0 .123.023.235.071.335.048.1.137.197.267.29.13.094.311.187.543.28.233.094.536.196.91.305.405.118.747.243 1.025.372.278.13.504.275.677.435.173.159.297.339.372.54.075.2.113.428.113.683zm7.595 1.62c-.31.118-.628.205-.954.262a5.845 5.845 0 01-1.008.086c-1.085 0-1.92-.294-2.505-.882-.586-.588-.879-1.447-.879-2.577 0-.542.084-1.035.253-1.477a3.142 3.142 0 011.805-1.863c.424-.17.89-.256 1.401-.256.356 0 .688.025.998.075.31.05.606.133.889.247v1.134a3.77 3.77 0 00-.906-.338 4.248 4.248 0 00-.954-.106c-.305 0-.593.058-.864.174-.271.116-.51.284-.715.503a2.38 2.38 0 00-.485.8c-.119.314-.178.67-.178 1.066 0 .83.202 1.45.605 1.863.404.412.963.618 1.678.618a3.897 3.897 0 001.818-.438v1.108zm2.645-6.611h1.087l.034 1.265c.406-.488.806-.841 1.2-1.06a2.436 2.436 0 011.193-.328c.71 0 1.25.23 1.617.69.367.46.536 1.144.509 2.051h-1.203c.013-.601-.074-1.038-.263-1.309-.19-.271-.466-.407-.83-.407-.16 0-.321.029-.483.086a1.947 1.947 0 00-.499.273 4.47 4.47 0 00-.543.482 8.898 8.898 0 00-.616.711v4.41H23.53V2.877zm9.755.984h-2.03v-.984h3.233V8.75h2.044v.991h-5.503V8.75h2.256V3.862zM33.701 0c.132 0 .255.024.37.072a.893.893 0 01.297.201.919.919 0 01.27.663.96.96 0 01-.27.663.893.893 0 01-.298.202.944.944 0 01-.369.072.944.944 0 01-.369-.072.893.893 0 01-.297-.201.96.96 0 01-.27-.663.919.919 0 01.27-.664.893.893 0 01.297-.201.944.944 0 01.37-.072zM44.51 6.187c0 .61-.086 1.143-.257 1.6-.17.455-.406.833-.707 1.134a2.9 2.9 0 01-1.066.677c-.41.15-.855.225-1.333.225-.22 0-.437-.011-.653-.034a4.952 4.952 0 01-.66-.116v2.87h-1.19V2.879h1.06l.075 1.148c.342-.469.707-.798 1.094-.987.387-.19.807-.284 1.258-.284.392 0 .736.082 1.032.246.296.164.545.395.745.694.2.298.351.658.451 1.08.1.421.15.892.15 1.412zm-1.217.054c0-.36-.026-.69-.079-.991a2.586 2.586 0 00-.25-.772 1.37 1.37 0 00-.437-.503 1.104 1.104 0 00-.635-.181c-.15 0-.303.024-.458.072a1.857 1.857 0 00-.482.239 3.59 3.59 0 00-.527.444 7 7 0 00-.591.687v3.33c.219.09.449.162.69.215.242.052.479.078.711.078.643 0 1.147-.217 1.511-.652.365-.436.547-1.09.547-1.966zm8.58 3.405a5.793 5.793 0 01-.835.146 8.52 8.52 0 01-.875.045c-.861 0-1.504-.195-1.928-.585-.423-.39-.635-.987-.635-1.794V3.876h-1.921v-.998h1.92V.99l1.19-.307v2.194h3.083v.998h-3.083v3.486c0 .492.131.86.393 1.104.262.244.648.366 1.159.366.219 0 .458-.017.718-.051.26-.034.53-.088.813-.16v1.025zm2.501-6.707l.738-.758 4.594 3.835-4.594 3.835-.738-.752 3.726-3.07-3.726-3.09z"/><path id="let" fill="#07A" d="M2.495 33.06H.465v-.978h3.233v8.668h2.044v.991H.24v-.991h2.256v-7.69zm11.156 4.887c0 .169-.002.31-.006.424a6.37 6.37 0 01-.021.321h-4.82c0 .702.197 1.241.589 1.617.392.376.957.564 1.695.564.2 0 .4-.008.601-.024.201-.016.395-.037.582-.065.186-.027.365-.058.536-.092.171-.034.33-.072.475-.113v.978a9.161 9.161 0 01-2.365.308c-.588 0-1.094-.08-1.518-.24a2.597 2.597 0 01-1.042-.694 2.857 2.857 0 01-.602-1.114 5.273 5.273 0 01-.194-1.494c0-.483.069-.94.208-1.37a3.44 3.44 0 01.608-1.135c.267-.326.594-.585.981-.776a2.94 2.94 0 011.32-.287c.478 0 .902.075 1.271.225.37.15.68.364.933.64.253.275.445.61.575 1.005.13.394.194.835.194 1.322zm-1.237-.17a2.593 2.593 0 00-.089-.838 1.763 1.763 0 00-.338-.653 1.576 1.576 0 00-.571-.427 1.916 1.916 0 00-.793-.154c-.26 0-.497.05-.71.15-.215.1-.4.242-.555.424a2.19 2.19 0 00-.376.657 3.026 3.026 0 00-.177.84h3.61zm8.668 3.869a5.793 5.793 0 01-.834.146 8.52 8.52 0 01-.875.045c-.861 0-1.504-.195-1.928-.585-.424-.39-.635-.987-.635-1.794v-3.582h-1.921v-.998h1.92V32.99l1.19-.307v2.194h3.083v.998h-3.083v3.486c0 .492.131.86.393 1.104.262.244.648.366 1.159.366.219 0 .458-.017.718-.051.26-.034.53-.088.813-.16v1.025z"/><path id="response" fill="#000" d="M31.227 34.878h1.086l.035 1.265c.405-.488.805-.841 1.2-1.06a2.436 2.436 0 011.192-.328c.711 0 1.25.23 1.617.69.367.46.537 1.144.51 2.051h-1.204c.014-.601-.074-1.038-.263-1.309-.19-.271-.466-.407-.83-.407-.16 0-.32.029-.483.086a1.947 1.947 0 00-.499.273 4.47 4.47 0 00-.543.482 8.898 8.898 0 00-.615.711v4.41h-1.203v-6.864zm13.213 3.07c0 .168-.002.31-.006.423a6.37 6.37 0 01-.02.321h-4.82c0 .702.196 1.241.588 1.617.392.376.957.564 1.695.564.2 0 .401-.008.602-.024.2-.016.394-.037.58-.065.187-.027.366-.058.537-.092.171-.034.33-.072.475-.113v.978a9.161 9.161 0 01-2.365.308c-.588 0-1.094-.08-1.518-.24a2.597 2.597 0 01-1.042-.694 2.857 2.857 0 01-.602-1.114 5.273 5.273 0 01-.194-1.494c0-.483.07-.94.208-1.37a3.44 3.44 0 01.609-1.135c.266-.326.593-.585.98-.776a2.94 2.94 0 011.32-.287c.478 0 .902.075 1.271.225.37.15.68.364.933.64.253.275.445.61.575 1.005.13.394.194.835.194 1.322zm-1.237-.172a2.593 2.593 0 00-.089-.837 1.763 1.763 0 00-.338-.653 1.576 1.576 0 00-.57-.427 1.916 1.916 0 00-.794-.154c-.26 0-.497.05-.71.15-.215.1-.4.242-.555.424a2.19 2.19 0 00-.376.657 3.026 3.026 0 00-.177.84h3.61zm8.572 2.092a1.634 1.634 0 01-.458 1.159 2.084 2.084 0 01-.492.38 3.272 3.272 0 01-.598.259c-.212.068-.43.119-.653.15a4.637 4.637 0 01-.656.048 12.3 12.3 0 01-1.282-.061 8.646 8.646 0 01-1.145-.199v-1.093c.401.114.8.2 1.197.26.396.059.79.088 1.182.088.57 0 .991-.077 1.265-.232.273-.155.41-.376.41-.663a.812.812 0 00-.065-.332.753.753 0 00-.236-.28 2.254 2.254 0 00-.53-.277 11.81 11.81 0 00-.98-.328 6.963 6.963 0 01-.859-.311 2.877 2.877 0 01-.68-.414 1.776 1.776 0 01-.45-.56 1.649 1.649 0 01-.165-.759 1.744 1.744 0 01.588-1.265c.214-.195.504-.358.868-.488.365-.13.82-.195 1.367-.195.27 0 .568.015.896.044.328.03.67.081 1.025.154v1.06a9.803 9.803 0 00-1.063-.202 6.926 6.926 0 00-.871-.065c-.297 0-.546.023-.749.068a1.553 1.553 0 00-.492.188.734.734 0 00-.27.28.748.748 0 00-.082.346c0 .123.024.235.072.335.048.1.136.197.266.29.13.094.311.187.544.28.232.094.535.196.909.305.405.118.747.243 1.025.372.278.13.504.275.677.435.173.159.297.339.373.54.075.2.112.428.112.683zm8.128-1.681c0 .61-.085 1.143-.256 1.6-.17.455-.407.833-.708 1.134a2.9 2.9 0 01-1.066.677c-.41.15-.854.225-1.333.225-.219 0-.436-.011-.653-.034a4.952 4.952 0 01-.66-.116v2.87h-1.189v-9.665h1.06l.075 1.148c.342-.469.706-.798 1.094-.987.387-.19.806-.284 1.257-.284.392 0 .736.082 1.033.246.296.164.544.395.745.694.2.298.35.658.45 1.08.101.421.151.892.151 1.412zm-1.216.054c0-.36-.027-.69-.08-.991a2.586 2.586 0 00-.249-.772 1.37 1.37 0 00-.437-.503 1.104 1.104 0 00-.636-.181c-.15 0-.303.024-.458.072a1.857 1.857 0 00-.482.239 3.59 3.59 0 00-.526.444 7 7 0 00-.591.687v3.33c.218.09.448.162.69.215.242.052.478.078.71.078.643 0 1.147-.217 1.512-.652.364-.436.547-1.09.547-1.966zm9.023.014a4.55 4.55 0 01-.226 1.466c-.15.445-.366.825-.649 1.142a2.913 2.913 0 01-1.032.738 3.447 3.447 0 01-1.381.263c-.492 0-.933-.076-1.323-.229a2.617 2.617 0 01-.991-.673 2.98 2.98 0 01-.622-1.1c-.144-.438-.215-.942-.215-1.511 0-.534.075-1.02.225-1.46.15-.44.367-.818.65-1.135a2.913 2.913 0 011.032-.738 3.447 3.447 0 011.38-.263c.493 0 .934.076 1.323.229.39.153.72.376.992.67.27.294.478.66.622 1.097.143.437.215.939.215 1.504zm-1.217.055c0-.424-.047-.795-.14-1.111a2.237 2.237 0 00-.4-.793 1.65 1.65 0 00-.632-.479 2.077 2.077 0 00-.83-.16c-.356 0-.66.07-.913.208-.253.14-.46.325-.622.557a2.4 2.4 0 00-.356.81 4.06 4.06 0 00-.113.968c0 .423.047.795.14 1.114.094.319.227.584.4.796.174.212.383.372.63.479.245.107.523.16.833.16.356 0 .66-.07.913-.208.253-.14.46-.325.622-.557a2.4 2.4 0 00.355-.81 4.09 4.09 0 00.113-.974zm2.94-3.432h1.06l.047 1.107c.2-.237.394-.434.581-.591.187-.157.37-.284.55-.38a2.06 2.06 0 01.55-.201c.188-.039.381-.058.582-.058.706 0 1.24.208 1.603.625.362.417.543 1.045.543 1.884v4.477h-1.19V37.36c0-.537-.1-.935-.3-1.192-.2-.258-.499-.387-.896-.387-.145 0-.288.022-.427.065a1.557 1.557 0 00-.434.226c-.15.107-.313.252-.489.434-.175.182-.372.41-.59.683v4.553h-1.19v-6.863zm13.131 4.99a1.634 1.634 0 01-.458 1.159 2.084 2.084 0 01-.492.38 3.272 3.272 0 01-.598.259c-.212.068-.43.119-.653.15a4.637 4.637 0 01-.656.048 12.3 12.3 0 01-1.282-.061 8.646 8.646 0 01-1.145-.199v-1.093c.401.114.8.2 1.197.26.396.059.79.088 1.182.088.57 0 .991-.077 1.265-.232.273-.155.41-.376.41-.663a.812.812 0 00-.065-.332.753.753 0 00-.236-.28 2.254 2.254 0 00-.53-.277 11.81 11.81 0 00-.98-.328 6.963 6.963 0 01-.858-.311 2.877 2.877 0 01-.68-.414 1.776 1.776 0 01-.452-.56 1.649 1.649 0 01-.164-.759 1.744 1.744 0 01.588-1.265c.214-.195.504-.358.868-.488.365-.13.82-.195 1.367-.195.27 0 .568.015.896.044.328.03.67.081 1.025.154v1.06a9.803 9.803 0 00-1.063-.202 6.926 6.926 0 00-.871-.065c-.297 0-.546.023-.749.068a1.553 1.553 0 00-.492.188.734.734 0 00-.27.28.748.748 0 00-.082.346c0 .123.024.235.072.335.048.1.136.197.266.29.13.094.311.187.544.28.232.094.535.196.909.305.406.118.747.243 1.025.372.278.13.504.275.677.435.173.159.297.339.373.54.075.2.112.428.112.683zm8.06-1.92c0 .168-.002.31-.007.423a6.37 6.37 0 01-.02.321h-4.82c0 .702.196 1.241.588 1.617.392.376.957.564 1.696.564.2 0 .4-.008.601-.024.2-.016.394-.037.581-.065.187-.027.366-.058.537-.092.17-.034.329-.072.475-.113v.978a9.161 9.161 0 01-2.365.308c-.588 0-1.094-.08-1.518-.24a2.597 2.597 0 01-1.042-.694 2.857 2.857 0 01-.602-1.114 5.273 5.273 0 01-.195-1.494c0-.483.07-.94.209-1.37a3.44 3.44 0 01.608-1.135c.267-.326.594-.585.981-.776a2.94 2.94 0 011.32-.287c.478 0 .902.075 1.27.225.37.15.681.364.934.64.253.275.444.61.574 1.005.13.394.195.835.195 1.322zm-1.237-.172a2.593 2.593 0 00-.09-.837 1.763 1.763 0 00-.338-.653 1.576 1.576 0 00-.57-.427 1.916 1.916 0 00-.793-.154c-.26 0-.497.05-.711.15-.214.1-.399.242-.554.424a2.19 2.19 0 00-.376.657 3.026 3.026 0 00-.178.84h3.61z"/><path id="=" fill="#A67F59" d="M105.916 37.325h-5.879V36.32h5.879v1.005zm0 2.38h-5.879v-1.006h5.879v1.005z"/><path id="await" fill="#07A" d="M120.025 41.741l-.027-.923c-.374.37-.753.636-1.138.8-.385.164-.79.246-1.214.246-.391 0-.726-.05-1.004-.15a1.883 1.883 0 01-.687-.414 1.603 1.603 0 01-.397-.618 2.289 2.289 0 01-.126-.773c0-.688.256-1.227.769-1.617.512-.39 1.27-.584 2.273-.584h1.422v-.602c0-.405-.13-.73-.39-.974-.26-.243-.656-.365-1.19-.365-.387 0-.769.043-1.145.13-.376.086-.764.21-1.165.369v-1.074a7.36 7.36 0 011.087-.3 7.6 7.6 0 01.642-.1c.224-.025.45-.037.677-.037.415 0 .789.045 1.121.137.333.09.614.23.844.417.23.186.407.421.53.704.123.282.185.615.185.998v4.73h-1.067zm-.13-3.124h-1.51c-.296 0-.552.03-.766.09-.214.058-.39.143-.526.252-.137.11-.238.24-.304.393-.067.153-.1.325-.1.516 0 .132.021.259.062.38.041.12.107.227.198.32.091.094.21.168.356.223.146.055.323.082.533.082.273 0 .587-.083.94-.25.353-.166.726-.429 1.118-.789v-1.217zm9.776-3.74l-.998 6.864h-1.443l-.99-2.87-.199-.698-.226.738-.95 2.83h-1.401l-.991-6.863h1.162l.574 4.662.123 1.04.294-.91.998-3.083h.855l1.073 3.042.307.91.103-.965.533-4.696h1.176zm5.749 6.864l-.027-.923c-.374.37-.754.636-1.139.8-.385.164-.79.246-1.213.246-.392 0-.727-.05-1.005-.15a1.883 1.883 0 01-.687-.414 1.603 1.603 0 01-.396-.618 2.289 2.289 0 01-.127-.773c0-.688.257-1.227.77-1.617.512-.39 1.27-.584 2.272-.584h1.422v-.602c0-.405-.13-.73-.39-.974-.26-.243-.656-.365-1.19-.365-.386 0-.768.043-1.144.13-.376.086-.765.21-1.166.369v-1.074a7.36 7.36 0 011.087-.3 7.6 7.6 0 01.643-.1c.223-.025.449-.037.677-.037.414 0 .788.045 1.12.137.333.09.615.23.845.417.23.186.407.421.53.704.123.282.184.615.184.998v4.73h-1.066zm-.13-3.124h-1.51c-.297 0-.552.03-.766.09-.215.058-.39.143-.527.252-.136.11-.238.24-.304.393-.066.153-.099.325-.099.516 0 .132.02.259.062.38.04.12.107.227.198.32.09.094.21.168.355.223.146.055.324.082.533.082.274 0 .587-.083.94-.25.354-.166.726-.429 1.118-.789v-1.217zm5.756-2.755h-2.03v-.984h3.233v5.872h2.044v.991h-5.503v-.991h2.256v-4.888zm.417-3.862c.132 0 .255.024.369.072a.893.893 0 01.297.201.919.919 0 01.27.663.96.96 0 01-.27.663.893.893 0 01-.297.202.944.944 0 01-.37.072.944.944 0 01-.368-.072.893.893 0 01-.298-.201.96.96 0 01-.27-.663.919.919 0 01.27-.664.893.893 0 01.298-.201.944.944 0 01.369-.072zm10.473 9.646a5.793 5.793 0 01-.834.146 8.52 8.52 0 01-.875.045c-.862 0-1.504-.195-1.928-.585-.424-.39-.636-.987-.636-1.794v-3.582h-1.92v-.998h1.92V32.99l1.19-.307v2.194h3.083v.998h-3.083v3.486c0 .492.13.86.393 1.104.262.244.648.366 1.158.366.219 0 .458-.017.718-.051.26-.034.531-.088.814-.16v1.025z"/><path id="fetch" fill="#000" d="M167.89 33.19c-.624-.133-1.161-.199-1.613-.199-1.07 0-1.606.56-1.606 1.682v1.203h3.008v.991h-3.008v4.874h-1.21v-4.874h-2.208v-.991h2.208v-1.135c0-1.827.952-2.741 2.857-2.741.474 0 .998.055 1.573.164v1.025zm7.404 4.757c0 .169-.002.31-.007.424a6.37 6.37 0 01-.02.321h-4.82c0 .702.196 1.241.588 1.617.392.376.957.564 1.695.564.201 0 .402-.008.602-.024.2-.016.394-.037.581-.065.187-.027.366-.058.537-.092.17-.034.329-.072.475-.113v.978a9.161 9.161 0 01-2.365.308c-.588 0-1.094-.08-1.518-.24a2.597 2.597 0 01-1.042-.694 2.857 2.857 0 01-.602-1.114 5.273 5.273 0 01-.195-1.494c0-.483.07-.94.209-1.37a3.44 3.44 0 01.608-1.135c.267-.326.594-.585.981-.776a2.94 2.94 0 011.32-.287c.478 0 .902.075 1.27.225.37.15.681.364.934.64.253.275.444.61.574 1.005.13.394.195.835.195 1.322zm-1.237-.17a2.593 2.593 0 00-.09-.838 1.763 1.763 0 00-.338-.653 1.576 1.576 0 00-.57-.427 1.916 1.916 0 00-.793-.154c-.26 0-.497.05-.711.15-.215.1-.4.242-.554.424a2.19 2.19 0 00-.376.657 3.026 3.026 0 00-.178.84h3.61zm8.668 3.869a5.793 5.793 0 01-.834.146 8.52 8.52 0 01-.875.045c-.862 0-1.504-.195-1.928-.585-.424-.39-.636-.987-.636-1.794v-3.582h-1.92v-.998h1.92V32.99l1.19-.307v2.194h3.083v.998h-3.083v3.486c0 .492.13.86.393 1.104.262.244.648.366 1.158.366.22 0 .458-.017.718-.051.26-.034.531-.088.814-.16v1.025zm7.499-.158c-.31.119-.628.206-.954.263a5.845 5.845 0 01-1.008.086c-1.085 0-1.92-.294-2.506-.882-.585-.588-.878-1.447-.878-2.577 0-.542.084-1.035.253-1.477a3.142 3.142 0 011.805-1.863c.423-.17.89-.256 1.4-.256.356 0 .69.025.999.075.31.05.606.133.889.247v1.134a3.77 3.77 0 00-.906-.338 4.248 4.248 0 00-.954-.106c-.305 0-.593.058-.864.174-.272.116-.51.284-.715.503a2.38 2.38 0 00-.485.8c-.119.314-.178.67-.178 1.066 0 .83.202 1.45.605 1.863.403.412.963.618 1.678.618a3.897 3.897 0 001.818-.438v1.108zm7.881.253h-1.189V37.36c0-.528-.1-.924-.297-1.186-.199-.262-.482-.393-.851-.393-.16 0-.31.022-.448.065a1.557 1.557 0 00-.434.226 3.73 3.73 0 00-.492.434c-.178.182-.383.41-.616.683v4.553h-1.19v-9.659h1.19v2.796l-.04 1.08c.186-.223.37-.411.55-.564.18-.153.36-.277.54-.373.18-.095.363-.164.55-.205.187-.04.38-.061.581-.061.684 0 1.212.208 1.586.625.374.417.56 1.045.56 1.884v4.477z"/><path id="(" fill="#999" d="M204.395 44.612c-2.101-1.946-3.152-4.097-3.152-6.453 0-.551.056-1.102.168-1.65.111-.55.291-1.1.54-1.652a9.028 9.028 0 01.984-1.654c.408-.551.904-1.098 1.487-1.64l.69.704c-1.768 1.745-2.652 3.68-2.652 5.803 0 1.058.223 2.074.67 3.05.447.974 1.107 1.895 1.982 2.76l-.717.732z"/><path id="'https://gmail.com/messages'" fill="#690" d="M19.093 46.082l-.198 3.206h-1.176l-.192-3.206h1.566zm9.673 9.66h-1.19v-4.383c0-.528-.099-.924-.297-1.186-.198-.262-.482-.393-.851-.393-.16 0-.309.022-.448.065a1.557 1.557 0 00-.434.226 3.73 3.73 0 00-.492.434c-.178.182-.383.41-.616.683v4.553H23.25v-9.659h1.19v2.796l-.042 1.08c.187-.223.37-.411.55-.564.18-.153.36-.277.54-.373.18-.095.364-.164.551-.205.187-.04.38-.061.581-.061.684 0 1.212.208 1.586.625.374.417.56 1.045.56 1.884v4.477zm7.71-.096a5.793 5.793 0 01-.833.146 8.52 8.52 0 01-.875.045c-.862 0-1.504-.195-1.928-.585-.424-.39-.636-.987-.636-1.794v-3.582h-1.92v-.998h1.92V46.99l1.19-.307v2.194h3.083v.998h-3.083v3.486c0 .492.13.86.393 1.104.262.244.648.366 1.158.366.22 0 .458-.017.718-.051.26-.034.531-.088.814-.16v1.025zm7.698 0a5.793 5.793 0 01-.834.146 8.52 8.52 0 01-.875.045c-.861 0-1.504-.195-1.928-.585-.424-.39-.636-.987-.636-1.794v-3.582h-1.92v-.998h1.92V46.99l1.19-.307v2.194h3.083v.998H41.09v3.486c0 .492.13.86.393 1.104.262.244.648.366 1.159.366.218 0 .458-.017.717-.051.26-.034.531-.088.814-.16v1.025zm8.032-3.46c0 .611-.085 1.144-.256 1.6-.171.456-.407.834-.708 1.135a2.9 2.9 0 01-1.066.677c-.41.15-.855.225-1.333.225-.219 0-.437-.011-.653-.034a4.952 4.952 0 01-.66-.116v2.87h-1.19v-9.665h1.06l.076 1.148c.341-.469.706-.798 1.093-.987.388-.19.807-.284 1.258-.284.392 0 .736.082 1.032.246.297.164.545.395.745.694.201.298.351.658.452 1.08.1.421.15.892.15 1.412zm-1.217.055c0-.36-.026-.69-.078-.991a2.586 2.586 0 00-.25-.772 1.37 1.37 0 00-.437-.503 1.104 1.104 0 00-.636-.181c-.15 0-.303.024-.458.072a1.857 1.857 0 00-.482.239 3.59 3.59 0 00-.526.444 7 7 0 00-.592.687v3.33c.219.09.45.162.69.215.242.052.48.078.712.078.642 0 1.146-.217 1.51-.652.365-.436.547-1.09.547-1.966zm8.484 1.627a1.634 1.634 0 01-.458 1.159 2.084 2.084 0 01-.493.38 3.272 3.272 0 01-.598.259c-.212.068-.43.119-.653.15a4.637 4.637 0 01-.656.048 12.3 12.3 0 01-1.282-.061 8.646 8.646 0 01-1.145-.199v-1.093c.402.114.8.2 1.197.26.396.059.79.088 1.182.088.57 0 .992-.077 1.265-.232.273-.155.41-.376.41-.663a.812.812 0 00-.065-.332.753.753 0 00-.236-.28 2.254 2.254 0 00-.53-.277 11.81 11.81 0 00-.98-.328 6.963 6.963 0 01-.858-.311 2.877 2.877 0 01-.68-.414 1.776 1.776 0 01-.452-.56 1.649 1.649 0 01-.164-.759 1.744 1.744 0 01.588-1.265c.214-.195.504-.358.868-.488.365-.13.82-.195 1.368-.195.268 0 .567.015.895.044.328.03.67.081 1.025.154v1.06a9.803 9.803 0 00-1.063-.202 6.926 6.926 0 00-.871-.065c-.296 0-.546.023-.749.068a1.553 1.553 0 00-.492.188.734.734 0 00-.27.28.748.748 0 00-.082.346c0 .123.024.235.072.335.048.1.137.197.267.29.13.094.31.187.543.28.232.094.535.196.91.305.405.118.747.243 1.025.372.278.13.503.275.676.435.173.159.298.339.373.54.075.2.113.428.113.683zm5.017-5.113c.142 0 .276.028.404.085a1.107 1.107 0 01.564.564.978.978 0 01.085.404.971.971 0 01-.085.406 1.12 1.12 0 01-.23.332 1.058 1.058 0 01-.738.308c-.146 0-.281-.028-.407-.083a1.07 1.07 0 01-.557-.557 1.006 1.006 0 01-.082-.406 1.058 1.058 0 01.308-.738 1.12 1.12 0 01.331-.23.971.971 0 01.407-.085zm0 5.01c.142 0 .276.03.404.086a1.107 1.107 0 01.564.564.978.978 0 01.085.403.971.971 0 01-.085.407 1.12 1.12 0 01-.23.332 1.058 1.058 0 01-.738.307c-.146 0-.281-.027-.407-.082a1.07 1.07 0 01-.557-.557 1.006 1.006 0 01-.082-.407 1.058 1.058 0 01.308-.738 1.12 1.12 0 01.331-.229.971.971 0 01.407-.085zm10.46-7.683l-4.69 11.129h-1.135l4.69-11.129h1.134zm7.696 0l-4.689 11.129h-1.135l4.69-11.129h1.134zm7.124 3.767c.127.16.226.345.297.557.07.212.106.44.106.687 0 .355-.065.68-.195.974-.13.294-.313.546-.55.755a2.54 2.54 0 01-.851.489c-.33.116-.694.174-1.09.174-.288 0-.557-.03-.807-.092a2.064 2.064 0 01-.595-.229c-.087.128-.16.248-.219.362a.817.817 0 00-.089.383c0 .173.084.317.25.43.166.115.386.176.66.185l1.804.069c.342.009.658.052.947.13.29.077.538.189.745.335.207.145.37.325.485.54.117.214.175.462.175.745 0 .305-.066.594-.198.868a1.985 1.985 0 01-.612.721c-.276.207-.626.373-1.05.496-.423.123-.927.184-1.51.184-.556 0-1.03-.044-1.419-.133-.39-.089-.71-.212-.96-.37a1.49 1.49 0 01-.547-.56 1.51 1.51 0 01-.171-.714c0-.333.077-.624.232-.875.155-.25.395-.492.718-.725a1.133 1.133 0 01-.52-.475 1.322 1.322 0 01-.164-.632c0-.296.07-.567.21-.814.138-.246.303-.478.495-.697a3.57 3.57 0 01-.23-.307 1.91 1.91 0 01-.28-.701 2.536 2.536 0 01-.037-.462c0-.355.065-.68.195-.974.13-.294.312-.545.547-.755.234-.21.517-.373.847-.489.33-.116.696-.174 1.097-.174.169 0 .33.011.486.034.155.023.291.052.41.089h2.488v.97h-1.1zm-4.13 6.883c0 .324.17.56.506.708.338.148.807.222 1.409.222.378 0 .696-.034.953-.102.258-.069.465-.159.622-.27.158-.112.27-.24.339-.383.068-.144.102-.29.102-.441 0-.278-.114-.483-.342-.615-.227-.133-.576-.21-1.045-.233l-1.791-.061c-.15.1-.275.198-.373.294a1.292 1.292 0 00-.229.29 1.127 1.127 0 00-.116.294 1.309 1.309 0 00-.034.297zm.363-5.612c0 .219.036.42.11.602.072.182.175.337.307.465.132.127.288.226.468.297.18.07.38.106.598.106.237 0 .448-.04.633-.12.184-.08.34-.188.464-.324.126-.137.222-.294.288-.472.066-.178.099-.362.099-.554 0-.219-.037-.42-.11-.601a1.316 1.316 0 00-.307-.465 1.404 1.404 0 00-.469-.298c-.18-.07-.379-.106-.598-.106-.237 0-.447.041-.632.123-.185.082-.34.19-.465.325s-.22.29-.287.468c-.066.178-.1.363-.1.554zm11.416 4.621v-4.928c0-.215-.008-.39-.024-.527a1.2 1.2 0 00-.075-.325.348.348 0 00-.13-.167.43.43 0 00-.448.034c-.077.055-.16.144-.25.267a4.216 4.216 0 00-.293.488c-.107.203-.234.453-.38.749v4.41h-1.087v-4.8c0-.25-.008-.453-.024-.608a1.42 1.42 0 00-.075-.362.34.34 0 00-.133-.178.431.431 0 00-.43.02.988.988 0 00-.243.247c-.09.118-.188.28-.298.485-.11.205-.239.467-.39.786v4.41h-1.093v-6.864h.91l.054 1.306c.118-.26.233-.481.345-.663.112-.183.227-.33.345-.441.119-.112.245-.194.38-.247.134-.052.283-.078.447-.078.37 0 .65.12.841.362.192.242.287.615.287 1.121.11-.237.217-.447.322-.632a2.31 2.31 0 01.338-.465c.12-.125.254-.22.4-.287.146-.066.314-.1.506-.1.861 0 1.292.664 1.292 1.99v4.997h-1.094zm7.212 0l-.027-.923c-.374.37-.754.636-1.139.8-.385.164-.79.246-1.213.246-.392 0-.727-.05-1.005-.15a1.883 1.883 0 01-.687-.414 1.603 1.603 0 01-.396-.618 2.289 2.289 0 01-.127-.773c0-.688.256-1.227.77-1.617.512-.39 1.27-.584 2.272-.584h1.422v-.602c0-.405-.13-.73-.39-.974-.26-.243-.656-.365-1.19-.365-.386 0-.768.043-1.144.13-.376.086-.765.21-1.166.369v-1.074a7.36 7.36 0 011.087-.3 7.6 7.6 0 01.643-.1c.223-.025.449-.037.677-.037.414 0 .788.045 1.12.137.333.09.615.23.845.417.23.186.407.421.53.704.123.282.184.615.184.998v4.73h-1.066zm-.13-3.124h-1.51c-.297 0-.552.03-.766.09-.215.058-.39.143-.527.252-.136.11-.238.24-.304.393-.066.153-.1.325-.1.516 0 .132.021.259.062.38.041.12.108.227.199.32.09.094.21.168.355.223.146.055.324.082.533.082.274 0 .587-.083.94-.25.353-.166.726-.429 1.118-.789v-1.217zm5.756-2.755h-2.03v-.984h3.233v5.872h2.044v.991H108v-.991h2.256v-4.888zm.417-3.862c.132 0 .255.024.369.072a.893.893 0 01.297.201.919.919 0 01.27.663.96.96 0 01-.27.663.893.893 0 01-.297.202.944.944 0 01-.37.072.944.944 0 01-.368-.072.893.893 0 01-.298-.201.96.96 0 01-.27-.663.919.919 0 01.27-.664.893.893 0 01.298-.201.944.944 0 01.369-.072zm7.28 1.06h-2.03v-.978h3.233v8.668h2.044v.991h-5.503v-.991h2.256v-7.69zm8.06 6.528a1.113 1.113 0 01.803.335c.102.105.183.227.243.366.059.139.088.288.088.447 0 .155-.03.301-.088.438a1.148 1.148 0 01-.605.601c-.14.06-.286.09-.441.09-.16 0-.308-.03-.445-.09a1.148 1.148 0 01-.601-.601 1.088 1.088 0 01-.09-.438 1.178 1.178 0 01.332-.813 1.12 1.12 0 01.804-.335zm10.329 1.9c-.31.119-.628.206-.954.263a5.845 5.845 0 01-1.008.086c-1.085 0-1.92-.294-2.506-.882-.585-.588-.878-1.447-.878-2.577 0-.542.084-1.035.253-1.477.169-.442.406-.82.71-1.134.306-.315.67-.558 1.095-.728.424-.171.89-.257 1.401-.257.356 0 .688.025.998.075.31.05.606.133.889.247v1.134a3.77 3.77 0 00-.906-.338 4.248 4.248 0 00-.954-.106c-.305 0-.593.058-.864.174-.272.116-.51.284-.715.503a2.38 2.38 0 00-.485.8c-.119.314-.178.67-.178 1.066 0 .83.202 1.45.605 1.863.404.412.963.618 1.678.618a3.897 3.897 0 001.818-.438v1.108zm8.34-3.233a4.55 4.55 0 01-.226 1.466c-.15.445-.367.825-.65 1.142a2.913 2.913 0 01-1.032.738 3.447 3.447 0 01-1.38.263c-.493 0-.934-.076-1.323-.229a2.617 2.617 0 01-.991-.673 2.98 2.98 0 01-.623-1.1c-.143-.438-.215-.942-.215-1.511 0-.534.075-1.02.226-1.46.15-.44.367-.818.65-1.135a2.913 2.913 0 011.031-.738 3.447 3.447 0 011.381-.263c.492 0 .933.076 1.323.229.39.153.72.376.991.67.271.294.479.66.622 1.097.144.437.216.939.216 1.504zm-1.217.055c0-.424-.047-.795-.14-1.111a2.237 2.237 0 00-.4-.793 1.65 1.65 0 00-.633-.479 2.077 2.077 0 00-.83-.16c-.356 0-.66.07-.913.208-.253.14-.46.325-.622.557a2.4 2.4 0 00-.355.81 4.06 4.06 0 00-.113.968c0 .423.047.795.14 1.114.094.319.227.584.4.796.173.212.383.372.629.479.246.107.524.16.834.16.355 0 .66-.07.912-.208.253-.14.46-.325.623-.557a2.4 2.4 0 00.355-.81 4.09 4.09 0 00.113-.974zm7.834 3.431v-4.928c0-.215-.008-.39-.024-.527a1.2 1.2 0 00-.075-.325.348.348 0 00-.13-.167.43.43 0 00-.448.034c-.077.055-.16.144-.25.267a4.216 4.216 0 00-.293.488 30.3 30.3 0 00-.38.749v4.41h-1.087v-4.8c0-.25-.008-.453-.024-.608a1.42 1.42 0 00-.075-.362.34.34 0 00-.133-.178.431.431 0 00-.43.02.988.988 0 00-.243.247c-.09.118-.188.28-.298.485-.11.205-.24.467-.39.786v4.41h-1.093v-6.864h.909l.055 1.306c.118-.26.233-.481.345-.663.111-.183.227-.33.345-.441.119-.112.245-.194.38-.247.134-.052.283-.078.447-.078.37 0 .65.12.841.362.191.242.287.615.287 1.121.11-.237.217-.447.321-.632a2.31 2.31 0 01.339-.465c.12-.125.254-.22.4-.287.146-.066.314-.1.506-.1.86 0 1.292.664 1.292 1.99v4.997H151.3zm8.32-9.659l-4.69 11.129h-1.135l4.69-11.129h1.134zm7.074 9.66v-4.93c0-.214-.008-.39-.024-.526a1.2 1.2 0 00-.075-.325.348.348 0 00-.13-.167.43.43 0 00-.448.034c-.077.055-.16.144-.249.267a4.216 4.216 0 00-.294.488c-.107.203-.233.453-.38.749v4.41h-1.086v-4.8c0-.25-.008-.453-.024-.608a1.42 1.42 0 00-.075-.362.34.34 0 00-.134-.178.431.431 0 00-.43.02.988.988 0 00-.243.247c-.089.118-.188.28-.297.485-.11.205-.24.467-.39.786v4.41h-1.094v-6.864h.91l.054 1.306c.119-.26.234-.481.345-.663.112-.183.227-.33.346-.441.118-.112.245-.194.379-.247.134-.052.284-.078.448-.078.369 0 .65.12.84.362.192.242.288.615.288 1.121.109-.237.216-.447.321-.632a2.31 2.31 0 01.338-.465c.121-.125.254-.22.4-.287.146-.066.315-.1.506-.1.861 0 1.292.664 1.292 1.99v4.997h-1.094zm8.6-3.795c0 .169-.002.31-.007.424a6.37 6.37 0 01-.02.321h-4.82c0 .702.196 1.241.588 1.617.392.376.957.564 1.695.564.201 0 .402-.008.602-.024.2-.016.394-.037.581-.065.187-.027.366-.058.537-.092.17-.034.329-.072.475-.113v.978a9.161 9.161 0 01-2.365.308c-.588 0-1.094-.08-1.518-.24a2.597 2.597 0 01-1.042-.694 2.857 2.857 0 01-.602-1.114 5.273 5.273 0 01-.195-1.494c0-.483.07-.94.209-1.37a3.44 3.44 0 01.608-1.135c.267-.326.594-.585.981-.776a2.94 2.94 0 011.32-.287c.478 0 .902.075 1.27.225.37.15.681.364.934.64.253.275.444.61.574 1.005.13.394.195.835.195 1.322zm-1.237-.17a2.593 2.593 0 00-.09-.838 1.763 1.763 0 00-.338-.653 1.576 1.576 0 00-.57-.427 1.916 1.916 0 00-.793-.154c-.26 0-.497.05-.711.15-.215.1-.4.242-.554.424a2.19 2.19 0 00-.376.657 3.026 3.026 0 00-.178.84h3.61zm8.572 2.091a1.634 1.634 0 01-.458 1.159 2.084 2.084 0 01-.492.38 3.272 3.272 0 01-.598.259c-.212.068-.43.119-.653.15a4.637 4.637 0 01-.657.048 12.3 12.3 0 01-1.281-.061 8.646 8.646 0 01-1.145-.199v-1.093c.4.114.8.2 1.196.26.397.059.79.088 1.183.088.57 0 .99-.077 1.264-.232.274-.155.41-.376.41-.663a.812.812 0 00-.065-.332.753.753 0 00-.235-.28 2.254 2.254 0 00-.53-.277 11.81 11.81 0 00-.981-.328 6.963 6.963 0 01-.858-.311 2.877 2.877 0 01-.68-.414 1.776 1.776 0 01-.451-.56 1.649 1.649 0 01-.164-.759 1.744 1.744 0 01.587-1.265c.215-.195.504-.358.869-.488.364-.13.82-.195 1.367-.195.269 0 .567.015.895.044.328.03.67.081 1.026.154v1.06a9.803 9.803 0 00-1.063-.202 6.926 6.926 0 00-.872-.065c-.296 0-.546.023-.748.068a1.553 1.553 0 00-.493.188.734.734 0 00-.27.28.748.748 0 00-.082.346c0 .123.024.235.072.335.048.1.137.197.267.29.13.094.31.187.543.28.233.094.536.196.91.305.405.118.747.243 1.025.372.278.13.503.275.677.435.173.159.297.339.372.54.075.2.113.428.113.683zm7.697 0a1.634 1.634 0 01-.458 1.159 2.084 2.084 0 01-.492.38 3.272 3.272 0 01-.598.259c-.212.068-.43.119-.653.15a4.637 4.637 0 01-.656.048 12.3 12.3 0 01-1.282-.061 8.646 8.646 0 01-1.145-.199v-1.093c.401.114.8.2 1.196.26.397.059.791.088 1.183.088.57 0 .991-.077 1.265-.232.273-.155.41-.376.41-.663a.812.812 0 00-.065-.332.753.753 0 00-.236-.28 2.254 2.254 0 00-.53-.277 11.81 11.81 0 00-.98-.328 6.963 6.963 0 01-.859-.311 2.877 2.877 0 01-.68-.414 1.776 1.776 0 01-.451-.56 1.649 1.649 0 01-.164-.759 1.744 1.744 0 01.588-1.265c.214-.195.503-.358.868-.488.364-.13.82-.195 1.367-.195.269 0 .567.015.896.044.328.03.67.081 1.025.154v1.06a9.803 9.803 0 00-1.063-.202 6.926 6.926 0 00-.872-.065c-.296 0-.545.023-.748.068a1.553 1.553 0 00-.492.188.734.734 0 00-.27.28.748.748 0 00-.082.346c0 .123.024.235.071.335.048.1.137.197.267.29.13.094.311.187.543.28.233.094.536.196.91.305.405.118.747.243 1.025.372.278.13.504.275.677.435.173.159.297.339.372.54.076.2.113.428.113.683zm6.672 1.873l-.027-.923c-.374.37-.753.636-1.138.8-.386.164-.79.246-1.214.246-.392 0-.727-.05-1.005-.15a1.883 1.883 0 01-.687-.414 1.603 1.603 0 01-.396-.618 2.289 2.289 0 01-.127-.773c0-.688.257-1.227.77-1.617.512-.39 1.27-.584 2.272-.584h1.422v-.602c0-.405-.13-.73-.39-.974-.26-.243-.656-.365-1.189-.365-.387 0-.769.043-1.145.13-.376.086-.764.21-1.165.369v-1.074a7.36 7.36 0 011.086-.3 7.6 7.6 0 01.643-.1c.223-.025.449-.037.677-.037.414 0 .788.045 1.12.137.334.09.615.23.845.417.23.186.407.421.53.704.123.282.184.615.184.998v4.73h-1.066zm-.13-3.124h-1.51c-.297 0-.552.03-.766.09-.214.058-.39.143-.527.252-.136.11-.238.24-.304.393-.066.153-.099.325-.099.516 0 .132.02.259.062.38.04.12.107.227.198.32.091.094.21.168.355.223.146.055.324.082.534.082.273 0 .586-.083.94-.25.353-.166.725-.429 1.117-.789v-1.217zm8.36-2.768c.128.16.227.345.298.557.07.212.106.44.106.687 0 .355-.065.68-.195.974-.13.294-.313.546-.55.755a2.54 2.54 0 01-.851.489c-.33.116-.694.174-1.09.174-.288 0-.557-.03-.807-.092a2.064 2.064 0 01-.595-.229c-.087.128-.16.248-.219.362a.817.817 0 00-.089.383c0 .173.083.317.25.43.166.115.386.176.66.185l1.804.069c.342.009.658.052.947.13.29.077.538.189.745.335.207.145.37.325.485.54.117.214.175.462.175.745 0 .305-.066.594-.198.868a1.985 1.985 0 01-.612.721c-.276.207-.626.373-1.05.496-.423.123-.927.184-1.51.184-.556 0-1.03-.044-1.419-.133-.39-.089-.71-.212-.96-.37a1.49 1.49 0 01-.547-.56 1.51 1.51 0 01-.171-.714c0-.333.077-.624.232-.875.155-.25.395-.492.718-.725a1.133 1.133 0 01-.52-.475 1.322 1.322 0 01-.164-.632c0-.296.07-.567.21-.814.138-.246.303-.478.495-.697a3.57 3.57 0 01-.23-.307 1.91 1.91 0 01-.28-.701 2.536 2.536 0 01-.037-.462c0-.355.065-.68.195-.974.13-.294.312-.545.546-.755.235-.21.518-.373.848-.489.33-.116.696-.174 1.097-.174.169 0 .33.011.486.034.155.023.291.052.41.089h2.488v.97h-1.1zm-4.128 6.883c0 .324.168.56.505.708.338.148.807.222 1.409.222.378 0 .696-.034.953-.102.258-.069.465-.159.622-.27.158-.112.27-.24.339-.383.068-.144.102-.29.102-.441 0-.278-.114-.483-.342-.615-.227-.133-.576-.21-1.045-.233l-1.791-.061c-.15.1-.275.198-.373.294a1.292 1.292 0 00-.229.29 1.127 1.127 0 00-.116.294 1.309 1.309 0 00-.034.297zm.362-5.612c0 .219.036.42.11.602.072.182.175.337.307.465.132.127.288.226.468.297.18.07.38.106.598.106.237 0 .448-.04.633-.12.184-.08.34-.188.464-.324.126-.137.222-.294.288-.472.066-.178.099-.362.099-.554 0-.219-.037-.42-.11-.601a1.316 1.316 0 00-.307-.465 1.404 1.404 0 00-.469-.298c-.18-.07-.379-.106-.598-.106-.237 0-.447.041-.632.123-.185.082-.34.19-.465.325s-.22.29-.287.468c-.066.178-.1.363-.1.554zm12.318.827c0 .169-.002.31-.007.424a6.372 6.372 0 01-.02.321h-4.82c0 .702.197 1.241.588 1.617.392.376.958.564 1.696.564.2 0 .4-.008.601-.024.2-.016.395-.037.581-.065.187-.027.366-.058.537-.092.17-.034.33-.072.475-.113v.978a9.161 9.161 0 01-2.365.308c-.588 0-1.094-.08-1.518-.24a2.597 2.597 0 01-1.042-.694 2.857 2.857 0 01-.602-1.114 5.273 5.273 0 01-.195-1.494c0-.483.07-.94.209-1.37a3.44 3.44 0 01.608-1.135c.267-.326.594-.585.981-.776a2.94 2.94 0 011.32-.287c.478 0 .902.075 1.271.225.37.15.68.364.933.64.253.275.445.61.574 1.005.13.394.195.835.195 1.322zm-1.237-.17a2.593 2.593 0 00-.089-.838 1.763 1.763 0 00-.338-.653 1.576 1.576 0 00-.571-.427 1.916 1.916 0 00-.793-.154c-.26 0-.497.05-.711.15-.214.1-.399.242-.554.424a2.19 2.19 0 00-.376.657 3.026 3.026 0 00-.177.84h3.609zm8.572 2.091a1.634 1.634 0 01-.458 1.159 2.084 2.084 0 01-.492.38 3.272 3.272 0 01-.598.259c-.212.068-.43.119-.653.15a4.637 4.637 0 01-.656.048 12.3 12.3 0 01-1.282-.061 8.646 8.646 0 01-1.145-.199v-1.093c.401.114.8.2 1.196.26.397.059.791.088 1.183.088.57 0 .991-.077 1.265-.232.273-.155.41-.376.41-.663a.812.812 0 00-.065-.332.753.753 0 00-.236-.28 2.254 2.254 0 00-.53-.277 11.81 11.81 0 00-.98-.328 6.963 6.963 0 01-.859-.311 2.877 2.877 0 01-.68-.414 1.776 1.776 0 01-.451-.56 1.649 1.649 0 01-.164-.759 1.744 1.744 0 01.588-1.265c.214-.195.503-.358.868-.488s.82-.195 1.367-.195c.269 0 .568.015.896.044.328.03.67.081 1.025.154v1.06a9.803 9.803 0 00-1.063-.202 6.926 6.926 0 00-.872-.065c-.296 0-.545.023-.748.068a1.553 1.553 0 00-.492.188.734.734 0 00-.27.28.748.748 0 00-.082.346c0 .123.024.235.071.335.048.1.137.197.267.29.13.094.311.187.544.28.232.094.535.196.909.305.405.118.747.243 1.025.372.278.13.504.275.677.435.173.159.297.339.372.54.076.2.113.428.113.683zm5.804-7.786l-.198 3.206h-1.176l-.191-3.206h1.565z"/><path id=");" fill="#999" d="M1.559 59.563c2.1 1.945 3.151 4.11 3.151 6.494 0 .492-.05 1.002-.15 1.53-.1.53-.272 1.07-.513 1.624a9.296 9.296 0 01-.974 1.685c-.408.57-.922 1.142-1.542 1.716l-.69-.704c.888-.88 1.552-1.798 1.99-2.755.437-.957.655-1.96.655-3.007 0-2.17-.881-4.12-2.645-5.852l.718-.731zm6.91 11.58c.233.009.459-.012.677-.062a2.02 2.02 0 00.578-.222c.166-.098.3-.22.4-.366a.86.86 0 00.15-.499.95.95 0 00-.099-.465 2.238 2.238 0 00-.222-.328 2.438 2.438 0 01-.222-.321.91.91 0 01-.1-.458.915.915 0 01.223-.588.857.857 0 01.287-.212 1.12 1.12 0 01.875.017c.148.066.278.168.39.304.111.137.2.308.266.513.066.205.1.447.1.725 0 .378-.07.741-.209 1.09a2.657 2.657 0 01-.622.926c-.276.27-.62.483-1.032.643-.413.16-.892.24-1.44.24v-.937zm2.14-8.388c.142 0 .276.028.404.085a1.107 1.107 0 01.564.564.978.978 0 01.085.404.971.971 0 01-.085.406 1.12 1.12 0 01-.23.332 1.058 1.058 0 01-.738.308c-.145 0-.281-.028-.406-.083a1.07 1.07 0 01-.557-.557 1.006 1.006 0 01-.083-.406 1.058 1.058 0 01.308-.738 1.12 1.12 0 01.332-.23.971.971 0 01.406-.085z"/><path id="let" fill="#07A" d="M2.495 117.06H.465v-.978h3.233v8.668h2.044v.991H.24v-.991h2.256v-7.69zm11.156 4.887c0 .169-.002.31-.006.424a6.37 6.37 0 01-.021.321h-4.82c0 .702.197 1.241.589 1.617.392.376.957.564 1.695.564.2 0 .4-.008.601-.024.201-.016.395-.037.582-.065.186-.027.365-.058.536-.092.171-.034.33-.072.475-.113v.978a9.161 9.161 0 01-2.365.308c-.588 0-1.094-.08-1.518-.24a2.597 2.597 0 01-1.042-.694 2.857 2.857 0 01-.602-1.114 5.273 5.273 0 01-.194-1.494c0-.483.069-.94.208-1.37a3.44 3.44 0 01.608-1.135c.267-.326.594-.585.981-.776a2.94 2.94 0 011.32-.287c.478 0 .902.075 1.271.225.37.15.68.364.933.64.253.275.445.61.575 1.005.13.394.194.835.194 1.322zm-1.237-.17a2.593 2.593 0 00-.089-.838 1.763 1.763 0 00-.338-.653 1.576 1.576 0 00-.571-.427 1.916 1.916 0 00-.793-.154c-.26 0-.497.05-.71.15-.215.1-.4.242-.555.424a2.19 2.19 0 00-.376.657 3.026 3.026 0 00-.177.84h3.61zm8.668 3.869a5.793 5.793 0 01-.834.146 8.52 8.52 0 01-.875.045c-.861 0-1.504-.195-1.928-.585-.424-.39-.635-.987-.635-1.794v-3.582h-1.921v-.998h1.92v-1.887l1.19-.307v2.194h3.083v.998h-3.083v3.486c0 .492.131.86.393 1.104.262.244.648.366 1.159.366.219 0 .458-.017.718-.051.26-.034.53-.088.813-.16v1.025z"/><path id="messages" fill="#000" d="M35.84 125.741v-4.928c0-.215-.007-.39-.023-.527a1.2 1.2 0 00-.075-.325.348.348 0 00-.13-.167.43.43 0 00-.448.034c-.077.055-.16.144-.25.267a4.216 4.216 0 00-.293.488c-.107.203-.234.453-.38.749v4.41h-1.087v-4.8c0-.25-.008-.453-.024-.608a1.42 1.42 0 00-.075-.362.34.34 0 00-.133-.178.431.431 0 00-.43.02.988.988 0 00-.243.247c-.09.118-.188.28-.298.485-.11.205-.24.467-.39.786v4.41h-1.093v-6.864h.909l.055 1.306c.118-.26.233-.481.345-.663.112-.183.227-.33.345-.441.119-.112.245-.194.38-.247.134-.052.283-.078.447-.078.37 0 .65.12.841.362.191.242.287.615.287 1.121.11-.237.217-.447.321-.632a2.31 2.31 0 01.339-.465c.12-.125.254-.22.4-.287.146-.066.314-.1.506-.1.86 0 1.292.664 1.292 1.99v4.997H35.84zm8.6-3.794c0 .169-.002.31-.006.424a6.37 6.37 0 01-.02.321h-4.82c0 .702.196 1.241.588 1.617.392.376.957.564 1.695.564.2 0 .401-.008.602-.024.2-.016.394-.037.58-.065.187-.027.366-.058.537-.092.171-.034.33-.072.475-.113v.978a9.161 9.161 0 01-2.365.308c-.588 0-1.094-.08-1.518-.24a2.597 2.597 0 01-1.042-.694 2.857 2.857 0 01-.602-1.114 5.273 5.273 0 01-.194-1.494c0-.483.07-.94.208-1.37a3.44 3.44 0 01.609-1.135c.266-.326.593-.585.98-.776a2.94 2.94 0 011.32-.287c.478 0 .902.075 1.271.225.37.15.68.364.933.64.253.275.445.61.575 1.005.13.394.194.835.194 1.322zm-1.237-.17a2.593 2.593 0 00-.089-.838 1.763 1.763 0 00-.338-.653 1.576 1.576 0 00-.57-.427 1.916 1.916 0 00-.794-.154c-.26 0-.497.05-.71.15-.215.1-.4.242-.555.424a2.19 2.19 0 00-.376.657 3.026 3.026 0 00-.177.84h3.61zm8.572 2.091a1.634 1.634 0 01-.458 1.159 2.084 2.084 0 01-.492.38 3.272 3.272 0 01-.598.259c-.212.068-.43.119-.653.15a4.638 4.638 0 01-.656.048 12.3 12.3 0 01-1.282-.061 8.646 8.646 0 01-1.145-.199v-1.093c.401.114.8.2 1.197.26.396.059.79.088 1.182.088.57 0 .991-.077 1.265-.232.273-.155.41-.376.41-.663a.812.812 0 00-.065-.332.753.753 0 00-.236-.28 2.254 2.254 0 00-.53-.277 11.81 11.81 0 00-.98-.328 6.963 6.963 0 01-.859-.311 2.877 2.877 0 01-.68-.414 1.776 1.776 0 01-.45-.56 1.649 1.649 0 01-.165-.759 1.744 1.744 0 01.588-1.265c.214-.195.504-.358.868-.488.365-.13.82-.195 1.367-.195.27 0 .568.015.896.044.328.03.67.081 1.025.154v1.06a9.803 9.803 0 00-1.063-.202 6.926 6.926 0 00-.871-.065c-.297 0-.546.023-.749.068a1.553 1.553 0 00-.492.188.734.734 0 00-.27.28.748.748 0 00-.082.346c0 .123.024.235.072.335.048.1.136.197.266.29.13.094.311.187.544.28.232.094.535.196.909.305.405.118.747.243 1.025.372.278.13.504.275.677.435.173.159.297.339.373.54.075.2.112.428.112.683zm7.698 0a1.634 1.634 0 01-.458 1.159 2.084 2.084 0 01-.493.38 3.272 3.272 0 01-.598.259c-.212.068-.43.119-.653.15a4.638 4.638 0 01-.656.048 12.3 12.3 0 01-1.282-.061 8.646 8.646 0 01-1.145-.199v-1.093c.402.114.8.2 1.197.26.396.059.79.088 1.182.088.57 0 .992-.077 1.265-.232.273-.155.41-.376.41-.663a.812.812 0 00-.065-.332.753.753 0 00-.236-.28 2.254 2.254 0 00-.53-.277 11.81 11.81 0 00-.98-.328 6.963 6.963 0 01-.858-.311 2.877 2.877 0 01-.68-.414 1.776 1.776 0 01-.452-.56 1.649 1.649 0 01-.164-.759 1.744 1.744 0 01.588-1.265c.214-.195.504-.358.868-.488.365-.13.82-.195 1.368-.195.268 0 .567.015.895.044.328.03.67.081 1.025.154v1.06a9.803 9.803 0 00-1.063-.202 6.926 6.926 0 00-.871-.065c-.296 0-.546.023-.749.068a1.553 1.553 0 00-.492.188.734.734 0 00-.27.28.748.748 0 00-.082.346c0 .123.024.235.072.335.048.1.137.197.267.29.13.094.31.187.543.28.232.094.535.196.91.305.405.118.747.243 1.025.372.278.13.503.275.676.435.173.159.298.339.373.54.075.2.113.428.113.683zm6.672 1.873l-.028-.923c-.374.37-.753.636-1.138.8-.385.164-.79.246-1.213.246-.392 0-.727-.05-1.005-.15a1.883 1.883 0 01-.687-.414 1.603 1.603 0 01-.397-.618 2.289 2.289 0 01-.126-.773c0-.688.256-1.227.769-1.617.513-.39 1.27-.584 2.273-.584h1.422v-.602c0-.405-.13-.73-.39-.974-.26-.243-.656-.365-1.19-.365-.387 0-.768.043-1.144.13-.376.086-.765.21-1.166.369v-1.074a7.36 7.36 0 011.087-.3 7.6 7.6 0 01.642-.1c.224-.025.45-.037.677-.037.415 0 .789.045 1.121.137.333.09.614.23.845.417.23.186.406.421.53.704.122.282.184.615.184.998v4.73h-1.066zm-.13-3.124h-1.511c-.296 0-.552.03-.766.09-.214.058-.39.143-.526.252-.137.11-.238.24-.304.393-.066.153-.1.325-.1.516 0 .132.021.259.062.38.041.12.107.227.198.32.092.094.21.168.356.223.146.055.323.082.533.082.273 0 .587-.083.94-.25.353-.166.726-.429 1.118-.789v-1.217zm8.36-2.768c.128.16.227.345.297.557.071.212.106.44.106.687 0 .355-.065.68-.195.974-.13.294-.313.546-.55.755a2.54 2.54 0 01-.85.489c-.331.116-.695.174-1.091.174-.287 0-.556-.03-.807-.092a2.064 2.064 0 01-.595-.229c-.086.128-.16.248-.218.362a.817.817 0 00-.09.383c0 .173.084.317.25.43.167.115.387.176.66.185l1.805.069c.341.009.657.052.946.13.29.077.538.189.746.335.207.145.369.325.485.54.116.214.174.462.174.745 0 .305-.066.594-.198.868a1.985 1.985 0 01-.612.721c-.276.207-.625.373-1.05.496-.423.123-.927.184-1.51.184-.556 0-1.029-.044-1.418-.133-.39-.089-.71-.212-.96-.37a1.49 1.49 0 01-.548-.56 1.51 1.51 0 01-.17-.714c0-.333.077-.624.232-.875.155-.25.394-.492.718-.725a1.133 1.133 0 01-.52-.475 1.322 1.322 0 01-.164-.632c0-.296.07-.567.209-.814.139-.246.304-.478.495-.697a3.57 3.57 0 01-.229-.307 1.91 1.91 0 01-.28-.701 2.536 2.536 0 01-.038-.462c0-.355.065-.68.195-.974.13-.294.312-.545.547-.755.235-.21.517-.373.848-.489.33-.116.696-.174 1.097-.174.168 0 .33.011.485.034.155.023.292.052.41.089h2.489v.97h-1.101zm-4.129 6.883c0 .324.169.56.506.708.337.148.807.222 1.408.222.378 0 .696-.034.954-.102.257-.069.465-.159.622-.27.157-.112.27-.24.338-.383.069-.144.103-.29.103-.441 0-.278-.114-.483-.342-.615-.228-.133-.577-.21-1.046-.233l-1.791-.061c-.15.1-.275.198-.373.294a1.292 1.292 0 00-.229.29 1.127 1.127 0 00-.116.294 1.309 1.309 0 00-.034.297zm.362-5.612c0 .219.037.42.11.602.073.182.175.337.307.465.133.127.289.226.469.297.18.07.379.106.598.106.237 0 .448-.04.632-.12.185-.08.34-.188.465-.324.125-.137.221-.294.287-.472.066-.178.1-.362.1-.554 0-.219-.037-.42-.11-.601a1.316 1.316 0 00-.308-.465 1.404 1.404 0 00-.468-.298c-.18-.07-.38-.106-.598-.106-.237 0-.448.041-.633.123-.184.082-.339.19-.464.325-.126.135-.221.29-.287.468-.067.178-.1.363-.1.554zm12.319.827c0 .169-.003.31-.007.424a6.37 6.37 0 01-.02.321h-4.82c0 .702.196 1.241.588 1.617.392.376.957.564 1.695.564.2 0 .401-.008.602-.024.2-.016.394-.037.58-.065.188-.027.367-.058.538-.092.17-.034.329-.072.475-.113v.978a9.161 9.161 0 01-2.365.308c-.589 0-1.094-.08-1.518-.24a2.597 2.597 0 01-1.043-.694 2.857 2.857 0 01-.601-1.114 5.273 5.273 0 01-.195-1.494c0-.483.07-.94.208-1.37a3.44 3.44 0 01.609-1.135c.266-.326.593-.585.98-.776a2.94 2.94 0 011.32-.287c.479 0 .902.075 1.272.225.369.15.68.364.933.64.253.275.444.61.574 1.005.13.394.195.835.195 1.322zm-1.238-.17a2.593 2.593 0 00-.088-.838 1.763 1.763 0 00-.339-.653 1.576 1.576 0 00-.57-.427 1.916 1.916 0 00-.794-.154c-.26 0-.496.05-.71.15-.215.1-.4.242-.554.424a2.19 2.19 0 00-.376.657 3.026 3.026 0 00-.178.84h3.61zm8.573 2.091a1.634 1.634 0 01-.458 1.159 2.084 2.084 0 01-.492.38 3.272 3.272 0 01-.599.259c-.212.068-.43.119-.652.15a4.638 4.638 0 01-.657.048 12.3 12.3 0 01-1.281-.061 8.646 8.646 0 01-1.145-.199v-1.093c.4.114.8.2 1.196.26.396.059.79.088 1.182.088.57 0 .992-.077 1.265-.232.274-.155.41-.376.41-.663a.812.812 0 00-.065-.332.753.753 0 00-.236-.28 2.254 2.254 0 00-.53-.277 11.81 11.81 0 00-.98-.328 6.963 6.963 0 01-.858-.311 2.877 2.877 0 01-.68-.414 1.776 1.776 0 01-.452-.56 1.649 1.649 0 01-.164-.759 1.744 1.744 0 01.588-1.265c.214-.195.504-.358.868-.488.365-.13.82-.195 1.368-.195.269 0 .567.015.895.044.328.03.67.081 1.026.154v1.06a9.803 9.803 0 00-1.063-.202 6.926 6.926 0 00-.872-.065c-.296 0-.546.023-.749.068a1.553 1.553 0 00-.492.188.734.734 0 00-.27.28.748.748 0 00-.082.346c0 .123.024.235.072.335.048.1.137.197.267.29.13.094.31.187.543.28.232.094.536.196.91.305.405.118.747.243 1.025.372.278.13.503.275.676.435.174.159.298.339.373.54.075.2.113.428.113.683z"/><path id="=" fill="#A67F59" d="M105.916 121.325h-5.879v-1.005h5.879v1.005zm0 2.38h-5.879v-1.006h5.879v1.005z"/><path id="await" fill="#07A" d="M120.025 125.741l-.027-.923c-.374.37-.753.636-1.138.8-.385.164-.79.246-1.214.246-.391 0-.726-.05-1.004-.15a1.883 1.883 0 01-.687-.414 1.603 1.603 0 01-.397-.618 2.289 2.289 0 01-.126-.773c0-.688.256-1.227.769-1.617.512-.39 1.27-.584 2.273-.584h1.422v-.602c0-.405-.13-.73-.39-.974-.26-.243-.656-.365-1.19-.365-.387 0-.769.043-1.145.13-.376.086-.764.21-1.165.369v-1.074a7.36 7.36 0 011.087-.3 7.6 7.6 0 01.642-.1c.224-.025.45-.037.677-.037.415 0 .789.045 1.121.137.333.09.614.23.844.417.23.186.407.421.53.704.123.282.185.615.185.998v4.73h-1.067zm-.13-3.124h-1.51c-.296 0-.552.03-.766.09-.214.058-.39.143-.526.252-.137.11-.238.24-.304.393-.067.153-.1.325-.1.516 0 .132.021.259.062.38.041.12.107.227.198.32.091.094.21.168.356.223.146.055.323.082.533.082.273 0 .587-.083.94-.25.353-.166.726-.429 1.118-.789v-1.217zm9.776-3.74l-.998 6.864h-1.443l-.99-2.87-.199-.698-.226.738-.95 2.83h-1.401l-.991-6.863h1.162l.574 4.662.123 1.04.294-.91.998-3.083h.855l1.073 3.042.307.91.103-.965.533-4.696h1.176zm5.749 6.864l-.027-.923c-.374.37-.754.636-1.139.8-.385.164-.79.246-1.213.246-.392 0-.727-.05-1.005-.15a1.883 1.883 0 01-.687-.414 1.603 1.603 0 01-.396-.618 2.289 2.289 0 01-.127-.773c0-.688.257-1.227.77-1.617.512-.39 1.27-.584 2.272-.584h1.422v-.602c0-.405-.13-.73-.39-.974-.26-.243-.656-.365-1.19-.365-.386 0-.768.043-1.144.13-.376.086-.765.21-1.166.369v-1.074a7.36 7.36 0 011.087-.3 7.6 7.6 0 01.643-.1c.223-.025.449-.037.677-.037.414 0 .788.045 1.12.137.333.09.615.23.845.417.23.186.407.421.53.704.123.282.184.615.184.998v4.73h-1.066zm-.13-3.124h-1.51c-.297 0-.552.03-.766.09-.215.058-.39.143-.527.252-.136.11-.238.24-.304.393-.066.153-.099.325-.099.516 0 .132.02.259.062.38.04.12.107.227.198.32.09.094.21.168.355.223.146.055.324.082.533.082.274 0 .587-.083.94-.25.354-.166.726-.429 1.118-.789v-1.217zm5.756-2.755h-2.03v-.984h3.233v5.872h2.044v.991h-5.503v-.991h2.256v-4.888zm.417-3.862c.132 0 .255.024.369.072a.893.893 0 01.297.201.919.919 0 01.27.663.96.96 0 01-.27.663.893.893 0 01-.297.202.944.944 0 01-.37.072.944.944 0 01-.368-.072.893.893 0 01-.298-.201.96.96 0 01-.27-.663.919.919 0 01.27-.664.893.893 0 01.298-.201.944.944 0 01.369-.072zm10.473 9.646a5.793 5.793 0 01-.834.146 8.52 8.52 0 01-.875.045c-.862 0-1.504-.195-1.928-.585-.424-.39-.636-.987-.636-1.794v-3.582h-1.92v-.998h1.92v-1.887l1.19-.307v2.194h3.083v.998h-3.083v3.486c0 .492.13.86.393 1.104.262.244.648.366 1.158.366.219 0 .458-.017.718-.051.26-.034.531-.088.814-.16v1.025z"/><path id="response" fill="#000" d="M162.08 118.878h1.087l.034 1.265c.406-.488.806-.841 1.2-1.06a2.436 2.436 0 011.193-.328c.71 0 1.25.23 1.616.69.367.46.537 1.144.51 2.051h-1.203c.013-.601-.074-1.038-.264-1.309-.189-.271-.466-.407-.83-.407-.16 0-.32.029-.482.086a1.947 1.947 0 00-.5.273 4.47 4.47 0 00-.543.482 8.898 8.898 0 00-.615.711v4.41h-1.203v-6.864zm13.214 3.07c0 .168-.002.31-.007.423a6.37 6.37 0 01-.02.321h-4.82c0 .702.196 1.241.588 1.617.392.376.957.564 1.695.564.201 0 .402-.008.602-.024.2-.016.394-.037.581-.065.187-.027.366-.058.537-.092.17-.034.329-.072.475-.113v.978a9.161 9.161 0 01-2.365.308c-.588 0-1.094-.08-1.518-.24a2.597 2.597 0 01-1.042-.694 2.857 2.857 0 01-.602-1.114 5.273 5.273 0 01-.195-1.494c0-.483.07-.94.209-1.37a3.44 3.44 0 01.608-1.135c.267-.326.594-.585.981-.776a2.94 2.94 0 011.32-.287c.478 0 .902.075 1.27.225.37.15.681.364.934.64.253.275.444.61.574 1.005.13.394.195.835.195 1.322zm-1.237-.172a2.593 2.593 0 00-.09-.837 1.763 1.763 0 00-.338-.653 1.576 1.576 0 00-.57-.427 1.916 1.916 0 00-.793-.154c-.26 0-.497.05-.711.15-.215.1-.4.242-.554.424a2.19 2.19 0 00-.376.657 3.026 3.026 0 00-.178.84h3.61zm8.572 2.092a1.634 1.634 0 01-.458 1.159 2.084 2.084 0 01-.492.38 3.272 3.272 0 01-.598.259c-.212.068-.43.119-.653.15a4.638 4.638 0 01-.657.048 12.3 12.3 0 01-1.281-.061 8.646 8.646 0 01-1.145-.199v-1.093c.4.114.8.2 1.196.26.397.059.79.088 1.183.088.57 0 .99-.077 1.264-.232.274-.155.41-.376.41-.663a.812.812 0 00-.065-.332.753.753 0 00-.235-.28 2.254 2.254 0 00-.53-.277 11.81 11.81 0 00-.981-.328 6.963 6.963 0 01-.858-.311 2.877 2.877 0 01-.68-.414 1.776 1.776 0 01-.451-.56 1.649 1.649 0 01-.164-.759 1.744 1.744 0 01.587-1.265c.215-.195.504-.358.869-.488.364-.13.82-.195 1.367-.195.269 0 .567.015.895.044.328.03.67.081 1.026.154v1.06a9.803 9.803 0 00-1.063-.202 6.926 6.926 0 00-.872-.065c-.296 0-.546.023-.748.068a1.553 1.553 0 00-.493.188.734.734 0 00-.27.28.748.748 0 00-.082.346c0 .123.024.235.072.335.048.1.137.197.267.29.13.094.31.187.543.28.233.094.536.196.91.305.405.118.747.243 1.025.372.278.13.503.275.677.435.173.159.297.339.372.54.075.2.113.428.113.683zm8.128-1.681c0 .61-.086 1.143-.257 1.6-.17.455-.406.833-.707 1.134a2.9 2.9 0 01-1.066.677c-.41.15-.855.225-1.333.225-.22 0-.437-.011-.653-.034a4.952 4.952 0 01-.66-.116v2.87h-1.19v-9.665h1.06l.075 1.148c.342-.469.707-.798 1.094-.987.387-.19.807-.284 1.258-.284.392 0 .736.082 1.032.246.296.164.545.395.745.694.2.298.351.658.451 1.08.1.421.15.892.15 1.412zm-1.217.054c0-.36-.026-.69-.079-.991a2.586 2.586 0 00-.25-.772 1.37 1.37 0 00-.437-.503 1.104 1.104 0 00-.635-.181c-.15 0-.303.024-.458.072a1.857 1.857 0 00-.482.239 3.59 3.59 0 00-.527.444 7 7 0 00-.59.687v3.33c.218.09.448.162.69.215.241.052.478.078.71.078.643 0 1.147-.217 1.511-.652.365-.436.547-1.09.547-1.966zm9.023.014a4.55 4.55 0 01-.225 1.466c-.15.445-.367.825-.65 1.142a2.913 2.913 0 01-1.032.738 3.447 3.447 0 01-1.38.263c-.493 0-.934-.076-1.323-.229a2.617 2.617 0 01-.992-.673 2.98 2.98 0 01-.622-1.1c-.143-.438-.215-.942-.215-1.511 0-.534.075-1.02.226-1.46.15-.44.366-.818.649-1.135a2.913 2.913 0 011.032-.738 3.447 3.447 0 011.381-.263c.492 0 .933.076 1.323.229.39.153.72.376.991.67.271.294.479.66.622 1.097.144.437.215.939.215 1.504zm-1.216.055c0-.424-.047-.795-.14-1.111a2.237 2.237 0 00-.4-.793 1.65 1.65 0 00-.633-.479 2.077 2.077 0 00-.83-.16c-.356 0-.66.07-.913.208-.253.14-.46.325-.622.557a2.4 2.4 0 00-.355.81 4.06 4.06 0 00-.113.968c0 .423.047.795.14 1.114.093.319.227.584.4.796.173.212.383.372.629.479.246.107.524.16.834.16.355 0 .66-.07.912-.208.253-.14.46-.325.622-.557a2.4 2.4 0 00.356-.81 4.09 4.09 0 00.113-.974zm2.94-3.432h1.059l.048 1.107c.2-.237.394-.434.58-.591.187-.157.37-.284.55-.38a2.06 2.06 0 01.551-.201c.187-.039.38-.058.581-.058.707 0 1.241.208 1.603.625.363.417.544 1.045.544 1.884v4.477h-1.19v-4.382c0-.537-.1-.935-.3-1.192-.201-.258-.5-.387-.896-.387-.146 0-.288.022-.427.065a1.557 1.557 0 00-.434.226c-.15.107-.314.252-.49.434-.175.182-.372.41-.59.683v4.553h-1.19v-6.863zm13.131 4.99a1.634 1.634 0 01-.458 1.159 2.084 2.084 0 01-.492.38 3.272 3.272 0 01-.598.259c-.212.068-.43.119-.653.15a4.638 4.638 0 01-.656.048 12.3 12.3 0 01-1.282-.061 8.646 8.646 0 01-1.145-.199v-1.093c.4.114.8.2 1.196.26.397.059.79.088 1.183.088.57 0 .99-.077 1.264-.232.274-.155.41-.376.41-.663a.812.812 0 00-.064-.332.753.753 0 00-.236-.28 2.254 2.254 0 00-.53-.277 11.81 11.81 0 00-.981-.328 6.963 6.963 0 01-.858-.311 2.877 2.877 0 01-.68-.414 1.776 1.776 0 01-.451-.56 1.649 1.649 0 01-.164-.759 1.744 1.744 0 01.588-1.265c.214-.195.503-.358.868-.488.364-.13.82-.195 1.367-.195.269 0 .567.015.895.044.329.03.67.081 1.026.154v1.06a9.803 9.803 0 00-1.063-.202 6.926 6.926 0 00-.872-.065c-.296 0-.546.023-.748.068a1.553 1.553 0 00-.492.188.734.734 0 00-.27.28.748.748 0 00-.083.346c0 .123.024.235.072.335.048.1.137.197.267.29.13.094.31.187.543.28.233.094.536.196.91.305.405.118.747.243 1.025.372.278.13.503.275.677.435.173.159.297.339.372.54.075.2.113.428.113.683zm8.06-1.92c0 .168-.003.31-.007.423a6.37 6.37 0 01-.02.321h-4.82c0 .702.196 1.241.588 1.617.392.376.957.564 1.695.564.2 0 .401-.008.602-.024.2-.016.394-.037.58-.065.188-.027.366-.058.537-.092.171-.034.33-.072.475-.113v.978a9.161 9.161 0 01-2.365.308c-.588 0-1.094-.08-1.517-.24a2.597 2.597 0 01-1.043-.694 2.857 2.857 0 01-.601-1.114 5.273 5.273 0 01-.195-1.494c0-.483.07-.94.208-1.37a3.44 3.44 0 01.609-1.135c.266-.326.593-.585.98-.776a2.94 2.94 0 011.32-.287c.478 0 .902.075 1.271.225.37.15.68.364.933.64.253.275.445.61.575 1.005.13.394.195.835.195 1.322zm-1.238-.172a2.593 2.593 0 00-.089-.837 1.763 1.763 0 00-.338-.653 1.576 1.576 0 00-.57-.427 1.916 1.916 0 00-.794-.154c-.26 0-.497.05-.71.15-.215.1-.4.242-.554.424a2.19 2.19 0 00-.376.657 3.026 3.026 0 00-.178.84h3.61z"/><path id="." fill="#999" d="M226.078 123.588a1.113 1.113 0 01.803.335c.103.105.184.227.243.366.06.139.089.288.089.447 0 .155-.03.301-.089.438a1.148 1.148 0 01-.605.601c-.139.06-.286.09-.44.09-.16 0-.308-.03-.445-.09a1.148 1.148 0 01-.602-.601 1.088 1.088 0 01-.089-.438 1.178 1.178 0 01.332-.813 1.12 1.12 0 01.803-.335z"/><path id="json" fill="#000" d="M235.724 118.878v6.74c0 .479-.069.904-.205 1.275a2.557 2.557 0 01-.588.94 2.485 2.485 0 01-.94.581c-.372.132-.79.198-1.255.198a5.24 5.24 0 01-.987-.092 4.354 4.354 0 01-.872-.256v-1.135a4.512 4.512 0 001.976.472c.52 0 .927-.164 1.223-.493.296-.328.445-.81.445-1.449v-5.797h-3.364v-.984h4.567zm-.718-2.878c.132 0 .255.024.369.072a.893.893 0 01.297.201.96.96 0 01.27.664.919.919 0 01-.27.663.893.893 0 01-.297.201.944.944 0 01-.37.072.944.944 0 01-.368-.072.893.893 0 01-.298-.201.919.919 0 01-.27-.663.96.96 0 01.27-.663.893.893 0 01.298-.202.944.944 0 01.369-.072zm9.201 7.868a1.634 1.634 0 01-.458 1.159 2.084 2.084 0 01-.492.38 3.272 3.272 0 01-.598.259c-.212.068-.43.119-.653.15a4.638 4.638 0 01-.656.048 12.3 12.3 0 01-1.282-.061 8.646 8.646 0 01-1.145-.199v-1.093c.4.114.8.2 1.196.26.397.059.79.088 1.183.088.57 0 .991-.077 1.264-.232.274-.155.41-.376.41-.663a.812.812 0 00-.064-.332.753.753 0 00-.236-.28 2.254 2.254 0 00-.53-.277 11.81 11.81 0 00-.981-.328 6.963 6.963 0 01-.858-.311 2.877 2.877 0 01-.68-.414 1.776 1.776 0 01-.451-.56 1.649 1.649 0 01-.164-.759 1.744 1.744 0 01.588-1.265c.214-.195.503-.358.868-.488.364-.13.82-.195 1.367-.195.269 0 .567.015.895.044.329.03.67.081 1.026.154v1.06a9.803 9.803 0 00-1.063-.202 6.926 6.926 0 00-.872-.065c-.296 0-.545.023-.748.068a1.553 1.553 0 00-.492.188.734.734 0 00-.27.28.748.748 0 00-.082.346c0 .123.023.235.071.335.048.1.137.197.267.29.13.094.31.187.543.28.233.094.536.196.91.305.405.118.747.243 1.025.372.278.13.504.275.677.435.173.159.297.339.372.54.075.2.113.428.113.683zm8.237-1.613a4.55 4.55 0 01-.225 1.466c-.15.445-.367.825-.65 1.142a2.913 2.913 0 01-1.032.738 3.447 3.447 0 01-1.38.263c-.493 0-.934-.076-1.324-.229a2.617 2.617 0 01-.99-.673 2.98 2.98 0 01-.623-1.1c-.143-.438-.215-.942-.215-1.511 0-.534.075-1.02.225-1.46.15-.44.367-.818.65-1.135a2.913 2.913 0 011.032-.738 3.447 3.447 0 011.381-.263c.492 0 .933.076 1.323.229.39.153.72.376.99.67.272.294.48.66.623 1.097.144.437.215.939.215 1.504zm-1.216.055c0-.424-.047-.795-.14-1.111a2.237 2.237 0 00-.4-.793 1.65 1.65 0 00-.633-.479 2.077 2.077 0 00-.83-.16c-.356 0-.66.07-.913.208-.253.14-.46.325-.622.557a2.4 2.4 0 00-.356.81 4.06 4.06 0 00-.112.968c0 .423.046.795.14 1.114.093.319.227.584.4.796.173.212.383.372.629.479.246.107.524.16.834.16.355 0 .66-.07.912-.208.253-.14.46-.325.622-.557a2.4 2.4 0 00.356-.81 4.09 4.09 0 00.113-.974zm2.939-3.432h1.06l.047 1.107c.2-.237.395-.434.581-.591.187-.157.37-.284.55-.38a2.06 2.06 0 01.551-.201c.187-.039.38-.058.581-.058.706 0 1.24.208 1.603.625.362.417.544 1.045.544 1.884v4.477h-1.19v-4.382c0-.537-.1-.935-.3-1.192-.201-.258-.5-.387-.896-.387-.146 0-.288.022-.427.065a1.557 1.557 0 00-.434.226c-.15.107-.314.252-.49.434-.175.182-.372.41-.59.683v4.553h-1.19v-6.863z"/><path id="();" fill="#999" d="M265.973 128.612c-2.101-1.946-3.152-4.097-3.152-6.453 0-.551.056-1.102.168-1.65.111-.55.291-1.1.54-1.652a9.028 9.028 0 01.984-1.654c.408-.551.904-1.098 1.487-1.64l.69.704c-1.768 1.745-2.652 3.68-2.652 5.803 0 1.058.223 2.074.67 3.05.447.974 1.107 1.895 1.982 2.76l-.717.732zm4.99-13.05c2.1 1.946 3.151 4.111 3.151 6.495 0 .492-.05 1.002-.15 1.53-.1.53-.271 1.07-.513 1.624a9.296 9.296 0 01-.974 1.685c-.408.57-.922 1.142-1.541 1.716l-.69-.704c.888-.88 1.55-1.798 1.988-2.755.438-.957.657-1.96.657-3.007 0-2.17-.882-4.12-2.646-5.852l.718-.731zm6.911 11.58c.232.01.458-.01.677-.06a2.02 2.02 0 00.577-.223c.167-.098.3-.22.4-.366a.86.86 0 00.15-.499.95.95 0 00-.098-.465 2.238 2.238 0 00-.223-.328 2.438 2.438 0 01-.222-.321.91.91 0 01-.099-.458.915.915 0 01.222-.588.857.857 0 01.287-.212 1.12 1.12 0 01.875.017c.149.066.278.168.39.304.112.137.2.308.267.513.066.205.099.447.099.725 0 .378-.07.741-.209 1.09a2.657 2.657 0 01-.622.926c-.276.27-.62.483-1.032.643-.412.16-.892.24-1.439.24v-.937zm2.14-8.387c.14 0 .275.028.403.085a1.107 1.107 0 01.564.564.978.978 0 01.085.404.971.971 0 01-.085.406 1.12 1.12 0 01-.229.332 1.058 1.058 0 01-.738.308c-.146 0-.282-.028-.407-.083a1.07 1.07 0 01-.557-.557 1.006 1.006 0 01-.082-.406 1.058 1.058 0 01.308-.738 1.12 1.12 0 01.33-.23.971.971 0 01.408-.085z"/><path id="..." fill="#A67F59" d="M2.857 137.588a1.113 1.113 0 01.804.335c.102.105.183.227.242.366.06.139.09.288.09.447 0 .155-.03.301-.09.438a1.148 1.148 0 01-.605.601c-.139.06-.286.09-.44.09-.16 0-.308-.03-.445-.09a1.148 1.148 0 01-.601-.601 1.088 1.088 0 01-.09-.438 1.178 1.178 0 01.332-.813 1.12 1.12 0 01.803-.335zm7.698 0a1.113 1.113 0 01.803.335c.102.105.183.227.243.366.059.139.088.288.088.447 0 .155-.03.301-.088.438a1.148 1.148 0 01-.605.601c-.14.06-.286.09-.441.09-.16 0-.308-.03-.445-.09a1.148 1.148 0 01-.601-.601 1.088 1.088 0 01-.09-.438 1.178 1.178 0 01.332-.813 1.12 1.12 0 01.804-.335zm7.697 0a1.113 1.113 0 01.803.335c.103.105.184.227.243.366.06.139.089.288.089.447 0 .155-.03.301-.09.438a1.148 1.148 0 01-.604.601c-.14.06-.286.09-.441.09-.16 0-.308-.03-.444-.09a1.148 1.148 0 01-.602-.601 1.088 1.088 0 01-.089-.438 1.178 1.178 0 01.332-.813 1.12 1.12 0 01.803-.335z"/><path id="&lt;/script&gt;" fill="#9B9B9B" d="M5.339 171.099l-.745.752L0 168.016l4.594-3.835.745.758-3.726 3.063 3.726 3.097zm8.032-9.017l-4.69 11.129H7.548l4.69-11.129h1.134zm7.615 7.786a1.634 1.634 0 01-.458 1.159 2.084 2.084 0 01-.492.38 3.272 3.272 0 01-.598.259c-.212.068-.43.119-.653.15a4.638 4.638 0 01-.656.048 12.3 12.3 0 01-1.282-.061 8.646 8.646 0 01-1.145-.199v-1.093c.401.114.8.2 1.196.26.397.059.791.088 1.183.088.57 0 .991-.077 1.265-.232.273-.155.41-.376.41-.663a.812.812 0 00-.065-.332.753.753 0 00-.236-.28 2.254 2.254 0 00-.53-.277 11.81 11.81 0 00-.98-.328 6.963 6.963 0 01-.859-.311 2.877 2.877 0 01-.68-.414 1.776 1.776 0 01-.45-.56 1.649 1.649 0 01-.165-.759 1.744 1.744 0 01.588-1.265c.214-.195.503-.358.868-.488s.82-.195 1.367-.195c.27 0 .568.015.896.044.328.03.67.081 1.025.154v1.06a9.803 9.803 0 00-1.063-.202 6.926 6.926 0 00-.871-.065c-.297 0-.546.023-.749.068a1.553 1.553 0 00-.492.188.734.734 0 00-.27.28.748.748 0 00-.082.346c0 .123.024.235.072.335.047.1.136.197.266.29.13.094.311.187.544.28.232.094.535.196.909.305.405.118.747.243 1.025.372.278.13.504.275.677.435.173.159.297.339.373.54.075.2.112.428.112.683zm7.595 1.62c-.31.119-.628.206-.954.263a5.845 5.845 0 01-1.008.086c-1.085 0-1.92-.294-2.505-.882-.586-.588-.879-1.447-.879-2.577 0-.542.085-1.035.253-1.477a3.142 3.142 0 011.805-1.863c.424-.17.89-.256 1.401-.256.356 0 .688.025.998.075.31.05.607.133.89.247v1.134a3.771 3.771 0 00-.907-.338 4.248 4.248 0 00-.953-.106c-.306 0-.594.058-.865.174-.271.116-.51.284-.714.503a2.38 2.38 0 00-.486.8c-.118.314-.178.67-.178 1.066 0 .83.202 1.45.605 1.863.404.412.963.618 1.679.618a3.897 3.897 0 001.818-.438v1.108zm2.646-6.61h1.086l.035 1.265c.405-.488.805-.841 1.2-1.06a2.436 2.436 0 011.192-.328c.711 0 1.25.23 1.617.69.367.46.537 1.144.51 2.051h-1.204c.014-.601-.074-1.038-.263-1.309-.19-.271-.466-.407-.83-.407-.16 0-.32.029-.483.086a1.947 1.947 0 00-.499.273 4.47 4.47 0 00-.543.482 8.898 8.898 0 00-.615.711v4.41h-1.203v-6.864zm9.754.984h-2.03v-.984h3.234v5.872h2.044v.991h-5.503v-.991h2.255v-4.888zm.417-3.862c.133 0 .256.024.37.072a.893.893 0 01.297.201.919.919 0 01.27.663.96.96 0 01-.27.663.893.893 0 01-.297.202.944.944 0 01-.37.072.944.944 0 01-.369-.072.893.893 0 01-.297-.201.96.96 0 01-.27-.663.919.919 0 01.27-.664.893.893 0 01.297-.201.944.944 0 01.37-.072zm10.808 6.187c0 .61-.085 1.143-.256 1.6-.171.455-.407.833-.708 1.134a2.9 2.9 0 01-1.066.677c-.41.15-.855.225-1.333.225-.219 0-.437-.011-.653-.034a4.952 4.952 0 01-.66-.116v2.87h-1.19v-9.665h1.06l.076 1.148c.341-.469.706-.798 1.093-.987.388-.19.807-.284 1.258-.284.392 0 .736.082 1.032.246.297.164.545.395.745.694.201.298.351.658.452 1.08.1.421.15.892.15 1.412zm-1.217.054c0-.36-.026-.69-.078-.991a2.586 2.586 0 00-.25-.772 1.37 1.37 0 00-.437-.503 1.104 1.104 0 00-.636-.181c-.15 0-.303.024-.458.072a1.857 1.857 0 00-.482.239 3.59 3.59 0 00-.526.444 7 7 0 00-.592.687v3.33c.219.09.45.162.69.215.242.052.48.078.712.078.642 0 1.146-.217 1.51-.652.365-.436.547-1.09.547-1.966zm8.58 3.405a5.793 5.793 0 01-.835.146 8.52 8.52 0 01-.875.045c-.861 0-1.504-.195-1.927-.585-.424-.39-.636-.987-.636-1.794v-3.582h-1.921v-.998h1.92v-1.887l1.19-.307v2.194h3.083v.998h-3.083v3.486c0 .492.131.86.393 1.104.262.244.649.366 1.16.366.218 0 .457-.017.717-.051.26-.034.53-.088.813-.16v1.025zm2.501-6.707l.739-.758 4.593 3.835-4.593 3.835-.739-.752 3.726-3.07-3.726-3.09z"/></g><text id="evil.com" fill="#8A704D" font-family="OpenSans-Bold, Open Sans" font-size="16" font-weight="bold"><tspan x="129" y="36">evil.com</tspan></text><path id="Rectangle-1-Copy" fill="#FFF9EB" stroke="#E8C48E" stroke-width="2" d="M494 48h140v199H494z"/><text id="got-the-cookie?-okay" fill="#8A704D" font-family="OpenSans-Regular, Open Sans" font-size="16" font-weight="normal"><tspan x="508.465" y="133">got the cookie?</tspan> <tspan x="544.852" y="155">okay!</tspan></text><text id="gmail.com" fill="#8A704D" font-family="OpenSans-Bold, Open Sans" font-size="16" font-weight="bold"><tspan x="528" y="36">gmail.com</tspan></text><path id="Line" fill="#EE6B47" fill-rule="nonzero" d="M467.966 125.5l-160.154-21.715.403-2.973 160.154 21.716 1.075-7.928 17.551 11.967-20.104 6.861 1.075-7.927z"/><path id="Line-Copy" fill="#EE6B47" fill-rule="nonzero" d="M332.157 172.366l159.64-20.545.382 2.975-159.639 20.546 1.021 7.934-20.057-6.997 17.632-11.847 1.021 7.934z"/><text id="GET-/messages" fill="#8A704D" font-family="OpenSans-Regular, Open Sans" font-size="16" font-weight="normal" transform="rotate(7 408.585 101.617)"><tspan x="352.085" y="107.617">GET /messages</tspan></text><text id="cookie:-user=John" fill="#8A704D" font-family="OpenSans-Regular, Open Sans" font-size="16" font-weight="normal" transform="rotate(7 402.573 127.8)"><tspan x="336.073" y="133.8">cookie: user=John</tspan></text><text id="{&quot;messages&quot;:-[...]}" fill="#8A704D" font-family="OpenSans-Regular, Open Sans" font-size="16" font-weight="normal" transform="rotate(-7 407.83 176.215)"><tspan x="342.83" y="182.215">{&quot;messages&quot;: [...]}</tspan></text></g></g></svg>