<?xml version="1.0" encoding="UTF-8"?>
<svg width="620px" height="633px" viewBox="0 0 620 633" version="1.1" xmlns="http://www.w3.org/2000/svg" xmlns:xlink="http://www.w3.org/1999/xlink">
    <!-- Generator: sketchtool 55.2 (78181) - https://sketchapp.com -->
    <title>xhr-preflight.svg</title>
    <desc>Created with sketchtool.</desc>
    <g id="network" stroke="none" stroke-width="1" fill="none" fill-rule="evenodd">
        <g id="xhr-preflight.svg">
            <rect id="Rectangle-227" stroke="#E8C48E" stroke-width="2" fill="#FFF9EB" x="1" y="16" width="128" height="64"></rect>
            <text id="JavaScript" font-family="OpenSans-Regular, Open Sans" font-size="14" font-weight="normal" fill="#8A704D">
                <tspan x="33" y="50">JavaScript</tspan>
            </text>
            <rect id="Rectangle-228" stroke="#E8C48E" stroke-width="2" fill="#FFF9EB" x="240" y="16" width="128" height="64"></rect>
            <text id="Browser" font-family="OpenSans-Regular, Open Sans" font-size="14" font-weight="normal" fill="#8A704D">
                <tspan x="278" y="48">Browser</tspan>
            </text>
            <rect id="Rectangle-229" stroke="#E8C48E" stroke-width="2" fill="#FFF9EB" x="491" y="16" width="128" height="64"></rect>
            <text id="Server" font-family="OpenSans-Regular, Open Sans" font-size="14" font-weight="normal" fill="#8A704D">
                <tspan x="534" y="50">Server</tspan>
            </text>
            <path d="M66,82 L66,602" id="Line" stroke="#979797" stroke-linecap="square"></path>
            <path d="M305,82 L305,602" id="Line" stroke="#979797" stroke-linecap="square"></path>
            <path d="M556,82 L556,602" id="Line" stroke="#979797" stroke-linecap="square"></path>
            <path id="Line" d="M291,141 L67,141 L67,139 L291,139 L291,133 L305,140 L291,147 L291,141 Z" fill="#EE6B47" fill-rule="nonzero"></path>
            <text id="fetch()" font-family="OpenSans-Regular, Open Sans" font-size="14" font-weight="normal" fill="#8A704D">
                <tspan x="166" y="131">fetch()</tspan>
            </text>
            <text id="OPTIONS" font-family="OpenSans-Regular, Open Sans" font-size="14" font-weight="normal" line-spacing="18" fill="#8A704D">
                <tspan x="400" y="173">OPTIONS</tspan>
            </text>
            <text id="Origin-Access-Contro" font-family="OpenSans-Regular, Open Sans" font-size="14" font-weight="normal" line-spacing="18" fill="#8A704D">
                <tspan x="406.580566" y="198">Origin</tspan>
                <tspan x="321.866211" y="216">Access-Control-Request-Method</tspan>
                <tspan x="320" y="234">Access-Control-Request-Headers</tspan>
            </text>
            <path id="Line" d="M541,293.5 L304,293.5 L304,291.5 L541,291.5 L541,285.5 L555,292.5 L541,299.5 L541,293.5 Z" fill="#EE6B47" fill-rule="nonzero"></path>
            <text id="200-OK" font-family="OpenSans-Regular, Open Sans" font-size="14" font-weight="normal" line-spacing="18" fill="#8A704D">
                <tspan x="407" y="285">200 OK</tspan>
            </text>
            <path id="Line-4" d="M542,181 L305,181 L305,179 L542,179 L542,173 L556,180 L542,187 L542,181 Z" fill="#EE6B47" fill-rule="nonzero"></path>
            <path id="Line-2" d="M319,501 L556,501 L556,503 L319,503 L319,509 L305,502 L319,495 L319,501 Z" fill="#EE6B47" fill-rule="nonzero"></path>
            <path id="Line-3" d="M90.5,552.5 L304.5,552.5 L304.5,555.5 L90.5,555.5 L90.5,563.5 L71.5,554 L90.5,544.5 L90.5,552.5 Z" fill="#EE6B47" fill-rule="nonzero"></path>
            <text id="Access-Control-Allow" font-family="OpenSans-Regular, Open Sans" font-size="14" font-weight="normal" line-spacing="18" fill="#8A704D">
                <tspan x="336" y="524">Access-Control-Allow-Origin</tspan>
            </text>
            <text id="Main-HTTP-response" font-family="OpenSans-Regular, Open Sans" font-size="14" font-weight="normal" line-spacing="18" fill="#8A704D">
                <tspan x="355" y="495">Main HTTP-response</tspan>
            </text>
            <text id="otherwise-error" font-family="OpenSans-Regular, Open Sans" font-size="14" font-weight="normal" line-spacing="18" fill="#8A704D">
                <tspan x="130" y="570">otherwise error</tspan>
            </text>
            <text id="if-allowed:-success," font-family="OpenSans-Regular, Open Sans" font-size="14" font-weight="normal" line-spacing="18" fill="#8A704D">
                <tspan x="116" y="545">if allowed: success,</tspan>
            </text>
            <path id="Line-5" d="M542,437 L304,437 L304,435 L542,435 L542,429 L556,436 L542,443 L542,437 Z" fill="#EE6B47" fill-rule="nonzero"></path>
            <text id="Origin" font-family="OpenSans-Regular, Open Sans" font-size="14" font-weight="normal" line-spacing="18" fill="#8A704D">
                <tspan x="405" y="454">Origin</tspan>
            </text>
            <text id="Main-HTTP-request" font-family="OpenSans-Regular, Open Sans" font-size="14" font-weight="normal" line-spacing="18" fill="#8A704D">
                <tspan x="360" y="429">Main HTTP-request</tspan>
            </text>
            <text id="preflight" font-family="OpenSans-Regular, Open Sans" font-size="24" font-weight="normal" fill="#9B9B9B">
                <tspan x="206.443359" y="186">preflight</tspan>
            </text>
            <text id="if-allowed" font-family="OpenSans-Regular, Open Sans" font-size="24" font-weight="normal" fill="#9B9B9B">
                <tspan x="194.109375" y="441">if allowed</tspan>
            </text>
            <text id="1" font-family="OpenSans-Regular, Open Sans" font-size="24" font-weight="normal" fill="#000000">
                <tspan x="570.138672" y="186">1</tspan>
            </text>
            <text id="2" font-family="OpenSans-Regular, Open Sans" font-size="24" font-weight="normal" fill="#000000">
                <tspan x="570.138672" y="302">2</tspan>
            </text>
            <text id="3" font-family="OpenSans-Regular, Open Sans" font-size="24" font-weight="normal" fill="#000000">
                <tspan x="570.138672" y="443">3</tspan>
            </text>
            <text id="4" font-family="OpenSans-Regular, Open Sans" font-size="24" font-weight="normal" fill="#000000">
                <tspan x="570.138672" y="509">4</tspan>
            </text>
            <text id="Access-Control-Allow" font-family="OpenSans-Regular, Open Sans" font-size="14" font-weight="normal" line-spacing="18" fill="#8A704D">
                <tspan x="439.18457" y="294"></tspan>
                <tspan x="335.866211" y="311.330078">Access-Control-Allow-Method</tspan>
                <tspan x="334" y="329.330078">Access-Control-Allow-Headers</tspan>
                <tspan x="352.82959" y="347.330078">Access-Control-Max-Age</tspan>
            </text>
        </g>
    </g>
</svg>