<svg xmlns="http://www.w3.org/2000/svg" width="620" height="633" viewBox="0 0 620 633"><defs><style>@import url(https://fonts.googleapis.com/css?family=Open+Sans:bold,italic,bolditalic%7CPT+Mono);@font-face{font-family:&apos;PT Mono&apos;;font-weight:700;font-style:normal;src:local(&apos;PT MonoBold&apos;),url(/font/PTMonoBold.woff2) format(&apos;woff2&apos;),url(/font/PTMonoBold.woff) format(&apos;woff&apos;),url(/font/PTMonoBold.ttf) format(&apos;truetype&apos;)}</style></defs><g id="network" fill="none" fill-rule="evenodd" stroke="none" stroke-width="1"><g id="xhr-preflight.svg"><path id="Rectangle-227" fill="#FBF2EC" stroke="#DBAF88" stroke-width="2" d="M1 16h128v64H1z"/><text id="JavaScript" fill="#AF6E24" font-family="OpenSans-Regular, Open Sans" font-size="14" font-weight="normal"><tspan x="33" y="50">JavaScript</tspan></text><path id="Rectangle-228" fill="#FBF2EC" stroke="#DBAF88" stroke-width="2" d="M240 16h128v64H240z"/><text id="Browser" fill="#AF6E24" font-family="OpenSans-Regular, Open Sans" font-size="14" font-weight="normal"><tspan x="278" y="48">Browser</tspan></text><path id="Rectangle-229" fill="#FBF2EC" stroke="#DBAF88" stroke-width="2" d="M491 16h128v64H491z"/><text id="Server" fill="#AF6E24" font-family="OpenSans-Regular, Open Sans" font-size="14" font-weight="normal"><tspan x="534" y="50">Server</tspan></text><path id="Line" stroke="#7E7C7B" stroke-linecap="square" d="M66 82v520M305 82v520M556 82v520"/><path id="Line" fill="#C06334" fill-rule="nonzero" d="M291 133l14 7-14 7-.001-6H67v-2h223.999l.001-6z"/><text id="fetch()" fill="#AF6E24" font-family="OpenSans-Regular, Open Sans" font-size="14" font-weight="normal"><tspan x="166" y="131">fetch()</tspan></text><text id="OPTIONS" fill="#AF6E24" font-family="OpenSans-Regular, Open Sans" font-size="14" font-weight="normal"><tspan x="400" y="173">OPTIONS</tspan></text><text id="Origin-Access-Contro" fill="#AF6E24" font-family="OpenSans-Regular, Open Sans" font-size="14" font-weight="normal"><tspan x="406.721" y="198">Origin</tspan> <tspan x="321.866" y="216">Access-Control-Request-Method</tspan> <tspan x="320" y="234">Access-Control-Request-Headers</tspan></text><path id="Line" fill="#C06334" fill-rule="nonzero" d="M319 285.5v6h237v2H319v6l-14-7 14-7z"/><text id="200-OK" fill="#AF6E24" font-family="OpenSans-Regular, Open Sans" font-size="14" font-weight="normal"><tspan x="407" y="285">200 OK</tspan></text><path id="Line-4" fill="#C06334" fill-rule="nonzero" d="M542 173l14 7-14 7-.001-6H305v-2h236.999l.001-6z"/><path id="Line-2" fill="#C06334" fill-rule="nonzero" d="M319 495v6h237v2H319v6l-14-7 14-7z"/><path id="Line-3" fill="#C06334" fill-rule="nonzero" d="M90.5 544.5v8h214v3h-214v8l-19-9.5 19-9.5z"/><text id="Access-Control-Allow" fill="#AF6E24" font-family="OpenSans-Regular, Open Sans" font-size="14" font-weight="normal"><tspan x="336" y="522">Access-Control-Allow-Origin</tspan></text><text id="Main-HTTP-response" fill="#AF6E24" font-family="OpenSans-Regular, Open Sans" font-size="14" font-weight="normal"><tspan x="355" y="495">Main HTTP-response</tspan></text><text id="otherwise-error" fill="#AF6E24" font-family="OpenSans-Regular, Open Sans" font-size="14" font-weight="normal"><tspan x="130" y="570">otherwise error</tspan></text><text id="if-allowed:-success," fill="#AF6E24" font-family="OpenSans-Regular, Open Sans" font-size="14" font-weight="normal"><tspan x="115.5" y="545">if allowed: success,</tspan></text><path id="Line-5" fill="#C06334" fill-rule="nonzero" d="M542 429l14 7-14 7-.001-6H304v-2h237.999l.001-6z"/><text id="Origin" fill="#AF6E24" font-family="OpenSans-Regular, Open Sans" font-size="14" font-weight="normal"><tspan x="405" y="454">Origin</tspan></text><text id="Main-HTTP-request" fill="#AF6E24" font-family="OpenSans-Regular, Open Sans" font-size="14" font-weight="normal"><tspan x="360" y="429">Main HTTP-request</tspan></text><text id="preflight" fill="#7E7C7B" font-family="OpenSans-Regular, Open Sans" font-size="22" font-weight="normal"><tspan x="210.145" y="186">preflight</tspan></text><text id="if-allowed" fill="#7E7C7B" font-family="OpenSans-Regular, Open Sans" font-size="22" font-weight="normal"><tspan x="198.338" y="441">if allowed</tspan></text><text id="1" fill="#181717" font-family="OpenSans-Regular, Open Sans" font-size="24" font-weight="normal"><tspan x="570.139" y="186">1</tspan></text><text id="2" fill="#181717" font-family="OpenSans-Regular, Open Sans" font-size="24" font-weight="normal"><tspan x="570.139" y="302">2</tspan></text><text id="3" fill="#181717" font-family="OpenSans-Regular, Open Sans" font-size="24" font-weight="normal"><tspan x="570.139" y="443">3</tspan></text><text id="4" fill="#181717" font-family="OpenSans-Regular, Open Sans" font-size="24" font-weight="normal"><tspan x="570.139" y="509">4</tspan></text><text id="Access-Control-Allow" fill="#AF6E24" font-family="OpenSans-Regular, Open Sans" font-size="14" font-weight="normal"> <tspan x="340.917" y="308.33">Access-Control-Allow-Origin</tspan> <tspan x="335.366" y="326.33">Access-Control-Allow-Method</tspan> <tspan x="333.5" y="344.33">Access-Control-Allow-Headers</tspan> <tspan x="352.47" y="362.33">Access-Control-Max-Age</tspan></text></g></g></svg>