<svg xmlns="http://www.w3.org/2000/svg" width="633" height="411" viewBox="0 0 633 411"><defs><style>@import url(https://fonts.googleapis.com/css?family=Open+Sans:bold,italic,bolditalic%7CPT+Mono);@font-face{font-family:&apos;PT Mono&apos;;font-weight:700;font-style:normal;src:local(&apos;PT MonoBold&apos;),url(/font/PTMonoBold.woff2) format(&apos;woff2&apos;),url(/font/PTMonoBold.woff) format(&apos;woff&apos;),url(/font/PTMonoBold.ttf) format(&apos;truetype&apos;)}</style></defs><g id="network" fill="none" fill-rule="evenodd" stroke="none" stroke-width="1"><g id="xhr-another-domain.svg"><path id="Rectangle-227" fill="#FBF2EC" stroke="#DBAF88" stroke-width="2" d="M1 16h128v64H1z"/><text id="JavaScript" fill="#AF6E24" font-family="OpenSans-Regular, Open Sans" font-size="14" font-weight="normal"><tspan x="35" y="50">JavaScript</tspan></text><path id="Rectangle-228" fill="#FBF2EC" stroke="#DBAF88" stroke-width="2" d="M261 16h128v64H261z"/><text id="Browser" fill="#AF6E24" font-family="OpenSans-Regular, Open Sans" font-size="14" font-weight="normal"><tspan x="296" y="50">Browser</tspan></text><path id="Rectangle-229" fill="#FBF2EC" stroke="#DBAF88" stroke-width="2" d="M504 16h128v64H504z"/><text id="Server" fill="#AF6E24" font-family="OpenSans-Regular, Open Sans" font-size="14" font-weight="normal"><tspan x="544" y="50">Server</tspan></text><path id="Line" stroke="#7E7C7B" stroke-linecap="square" d="M66 81v320M326 81v320M569 81v320"/><path id="Line" fill="#C06334" fill-rule="nonzero" d="M312 133l14 7-14 7v-6H66v-2h246v-6z"/><text id="Origin:-https://java" fill="#AF6E24" font-family="OpenSans-Regular, Open Sans" font-size="14" font-weight="normal"><tspan x="354.313" y="205">Origin: https://javascript.info</tspan></text><text id="HTTP-request" fill="#AF6E24" font-family="OpenSans-Regular, Open Sans" font-size="14" font-weight="normal"><tspan x="401.015" y="174">HTTP-request</tspan></text><text id="fetch()" fill="#AF6E24" font-family="OpenSans-Regular, Open Sans" font-size="14" font-weight="normal"><tspan x="171" y="131">fetch()</tspan></text><text id="HTTP-response" fill="#AF6E24" font-family="OpenSans-Regular, Open Sans" font-size="14" font-weight="normal"><tspan x="398.419" y="250">HTTP-response</tspan></text><text id="Access-Control-Allow" fill="#AF6E24" font-family="OpenSans-Regular, Open Sans" font-size="14" font-weight="normal"><tspan x="347" y="287">Access-Control-Allow-Origin: * </tspan> <tspan x="364.141" y="305">(or https://javascript.info)</tspan></text><text id="if-the-header-allows" fill="#AF6E24" font-family="OpenSans-Regular, Open Sans" font-size="14" font-weight="normal"><tspan x="85" y="325">if the header allows, then success,</tspan></text><text id="otherwise-fail" fill="#AF6E24" font-family="OpenSans-Regular, Open Sans" font-size="14" font-weight="normal"><tspan x="148" y="353">otherwise fail</tspan></text><path id="Line" fill="#C06334" fill-rule="nonzero" d="M554 180l14 7-14 7v-6H328v-2h226v-6z"/><path id="Line-2" fill="#C06334" fill-rule="nonzero" d="M340 258v6h228v2H340v6l-14-7 14-7z"/><path id="Line-3" fill="#C06334" fill-rule="nonzero" d="M80 326v6h247v2H80v6l-14-7 14-7z"/></g></g></svg>