<?xml version="1.0" encoding="UTF-8"?>
<svg width="621px" height="411px" viewBox="0 0 621 411" version="1.1" xmlns="http://www.w3.org/2000/svg" xmlns:xlink="http://www.w3.org/1999/xlink">
    <!-- Generator: sketchtool 55.2 (78181) - https://sketchapp.com -->
    <title>xhr-another-domain.svg</title>
    <desc>Created with sketchtool.</desc>
    <g id="network" stroke="none" stroke-width="1" fill="none" fill-rule="evenodd">
        <g id="xhr-another-domain.svg">
            <rect id="Rectangle-227" stroke="#E8C48E" stroke-width="2" fill="#FFF9EB" x="1" y="16" width="128" height="64"></rect>
            <text id="JavaScript" font-family="OpenSans-Regular, Open Sans" font-size="14" font-weight="normal" fill="#8A704D">
                <tspan x="35" y="50">JavaScript</tspan>
            </text>
            <rect id="Rectangle-228" stroke="#E8C48E" stroke-width="2" fill="#FFF9EB" x="249" y="16" width="128" height="64"></rect>
            <text id="Browser" font-family="OpenSans-Regular, Open Sans" font-size="14" font-weight="normal" fill="#8A704D">
                <tspan x="284" y="50">Browser</tspan>
            </text>
            <rect id="Rectangle-229" stroke="#E8C48E" stroke-width="2" fill="#FFF9EB" x="492" y="16" width="128" height="64"></rect>
            <text id="Server" font-family="OpenSans-Regular, Open Sans" font-size="14" font-weight="normal" fill="#8A704D">
                <tspan x="532" y="50">Server</tspan>
            </text>
            <path d="M66,81 L66,401" id="Line" stroke="#979797" stroke-linecap="square"></path>
            <path d="M314,81 L314,401" id="Line" stroke="#979797" stroke-linecap="square"></path>
            <path d="M557,81 L557,401" id="Line" stroke="#979797" stroke-linecap="square"></path>
            <path id="Line" d="M295,141 L67,141 L67,139 L295,139 L295,133 L309,140 L295,147 L295,141 Z" fill="#EE6B47" fill-rule="nonzero"></path>
            <text id="Origin:-https://java" font-family="OpenSans-Regular, Open Sans" font-size="14" font-weight="normal" line-spacing="26" fill="#8A704D">
                <tspan x="342.3125" y="205">Origin: https://javascript.info</tspan>
            </text>
            <text id="HTTP-request" font-family="OpenSans-Regular, Open Sans" font-size="14" font-weight="normal" line-spacing="26" fill="#8A704D">
                <tspan x="389.015137" y="174">HTTP-request</tspan>
            </text>
            <text id="fetch()" font-family="OpenSans-Regular, Open Sans" font-size="14" font-weight="normal" fill="#8A704D">
                <tspan x="159" y="131">fetch()</tspan>
            </text>
            <text id="HTTP-response" font-family="OpenSans-Regular, Open Sans" font-size="14" font-weight="normal" line-spacing="27" fill="#8A704D">
                <tspan x="386.418945" y="250">HTTP-response</tspan>
            </text>
            <text id="Access-Control-Allow" font-family="OpenSans-Regular, Open Sans" font-size="14" font-weight="normal" line-spacing="18" fill="#8A704D">
                <tspan x="343" y="287">Access-Control-Allow-Origin: </tspan>
                <tspan x="348.130371" y="305">* OR https://javascript.info</tspan>
            </text>
            <text id="if-the-header-allows" font-family="OpenSans-Regular, Open Sans" font-size="14" font-weight="normal" line-spacing="18" fill="#8A704D">
                <tspan x="97" y="324">if the header allows, success,</tspan>
            </text>
            <text id="otherwise-fail" font-family="OpenSans-Regular, Open Sans" font-size="14" font-weight="normal" line-spacing="18" fill="#8A704D">
                <tspan x="147" y="353">otherwise fail</tspan>
            </text>
            <path id="Line" d="M542,188 L316,188 L316,186 L542,186 L542,180 L556,187 L542,194 L542,188 Z" fill="#EE6B47" fill-rule="nonzero"></path>
            <path id="Line-2" d="M328,264 L556,264 L556,266 L328,266 L328,272 L314,265 L328,258 L328,264 Z" fill="#EE6B47" fill-rule="nonzero"></path>
            <path id="Line-3" d="M85,332 L313,332 L313,334 L85,334 L85,340 L71,333 L85,326 L85,332 Z" fill="#EE6B47" fill-rule="nonzero"></path>
        </g>
    </g>
</svg>