<svg xmlns="http://www.w3.org/2000/svg" width="233" height="344" viewBox="0 0 233 344"><defs><style>@import url(https://fonts.googleapis.com/css?family=Open+Sans:bold,italic,bolditalic%7CPT+Mono);@font-face{font-family:&apos;PT Mono&apos;;font-weight:700;font-style:normal;src:local(&apos;PT MonoBold&apos;),url(/font/PTMonoBold.woff2) format(&apos;woff2&apos;),url(/font/PTMonoBold.woff) format(&apos;woff&apos;),url(/font/PTMonoBold.ttf) format(&apos;truetype&apos;)}</style></defs><g id="inheritance" fill="none" fill-rule="evenodd" stroke="none" stroke-width="1"><g id="rabbit-animal-object.svg"><path id="Rectangle-1" fill="#FBF2EC" stroke="#DBAF88" stroke-width="2" d="M14 96h218v58H14z"/><text id="toString:-function" fill="#AF6E24" font-family="PTMono-Regular, PT Mono" font-size="14" font-weight="normal"><tspan x="24" y="113">toString: function</tspan> <tspan x="24" y="128">hasOwnProperty: function</tspan> <tspan x="24" y="143">...</tspan></text><text id="Object.prototype" fill="#AF6E24" font-family="PTMono-Regular, PT Mono" font-size="14" font-weight="normal"><tspan x="13" y="88">Object.prototype</tspan></text><path id="Rectangle-1" fill="#FBF2EC" stroke="#DBAF88" stroke-width="2" d="M14 213h218v28H14z"/><text id="animal" fill="#AF6E24" font-family="PTMono-Regular, PT Mono" font-size="14" font-weight="normal"><tspan x="13" y="205">animal</tspan></text><path id="Line" fill="#C06334" fill-rule="nonzero" d="M73.5 162.5l7 14h-6v28h-2v-28h-6l7-14z"/><text id="[[Prototype]]" fill="#AF6E24" font-family="PTMono-Regular, PT Mono" font-size="14" font-weight="normal"><tspan x="83" y="184">[[Prototype]]</tspan></text><text id="[[Prototype]]-Copy" fill="#AF6E24" font-family="PTMono-Regular, PT Mono" font-size="14" font-weight="normal"><tspan x="83" y="274">[[Prototype]]</tspan></text><path id="Line-2" fill="#C06334" fill-rule="nonzero" d="M73.5 30.5l7 14h-6v28h-2v-28h-6l7-14z"/><text id="[[Prototype]]" fill="#AF6E24" font-family="PTMono-Regular, PT Mono" font-size="14" font-weight="normal"><tspan x="83" y="52">[[Prototype]]</tspan></text><text id="null" fill="#AF6E24" font-family="PTMono-Regular, PT Mono" font-size="14" font-weight="normal"><tspan x="59" y="19">null</tspan></text><text id="eats:-true" fill="#AF6E24" font-family="PTMono-Regular, PT Mono" font-size="14" font-weight="normal"><tspan x="24" y="231">eats: true</tspan></text><path id="Rectangle-1-Copy" fill="#FBF2EC" stroke="#DBAF88" stroke-width="2" d="M14 302h218v28H14z"/><text id="rabbit-copy" fill="#AF6E24" font-family="PTMono-Regular, PT Mono" font-size="14" font-weight="normal"><tspan x="13" y="294">rabbit</tspan></text><path id="Line-Copy" fill="#C06334" fill-rule="nonzero" d="M73.5 251.5l7 14h-6v28h-2v-28h-6l7-14z"/><text id="jumps:-true" fill="#AF6E24" font-family="PTMono-Regular, PT Mono" font-size="14" font-weight="normal"><tspan x="24" y="320">jumps: true</tspan></text></g></g></svg>