<svg width="420pt" height="544pt" viewBox="0.00 0.00 420.00 544.00" xmlns="http://www.w3.org/2000/svg"><g class="graph" transform="scale(.6) translate(4 902)"><title>AST</title><path fill="#fff" stroke="#fff" d="M-4 5v-907h687V5H-4z"/><g class="node"><title>node0</title><ellipse fill="#b2dfee" stroke="#b2dfee" cx="173" cy="-879" rx="44.758" ry="18.385"/><text text-anchor="middle" x="173" y="-875.4" font-family="Consolas, monospace" font-size="14">BLOCK</text></g><g class="node"><title>node1</title><ellipse fill="#b2dfee" stroke="#b2dfee" cx="173" cy="-787" rx="48.083" ry="18.385"/><text text-anchor="middle" x="173" y="-783.4" font-family="Consolas, monospace" font-size="14">SCRIPT</text></g><g class="edge"><title>node0-&gt;node1</title><path fill="none" stroke="#000" d="M173-860.382v44.755"/><path stroke="#000" d="M176.5-815.59l-3.5 10-3.5-10h7z"/></g><g class="edge"><title>node0-&gt;node1</title><path fill="none" stroke="#f00" d="M179.666-860.413c1.776 5.817 3.446 12.312 4.334 18.413 1.152 7.917 1.152 10.083 0 18-.416 2.86-1.004 5.806-1.694 8.73"/><path fill="#f00" stroke="#f00" d="M185.673-814.315l-6.007 8.728-.747-10.57 6.753 1.842z"/><text text-anchor="middle" x="217" y="-829.4" font-family="Consolas, monospace" font-size="14" fill="#f00">UNCOND</text></g><g class="node"><title>RETURN</title><ellipse fill="#b2dfee" stroke="#b2dfee" cx="427" cy="-379" rx="53.033" ry="18.385"/><text text-anchor="middle" x="427" y="-375.4" font-family="Consolas, monospace" font-size="14">RETURN</text></g><g class="edge"><title>node0-&gt;RETURN</title><path fill="none" stroke="#f00" d="M206.737-866.543c14.848 6.26 32.095 14.63 46.263 24.543 104.8 73.33 154.197 85.768 203 204 32.557 78.873 1.41 182.093-17.253 230.986"/><path fill="#f00" stroke="#f00" d="M441.897-405.46l-6.915 8.027.4-10.588 6.515 2.56z"/><text text-anchor="middle" x="490" y="-661.4" font-family="Consolas, monospace" font-size="14" fill="#f00">SYN_BLOCK</text></g><g class="node"><title>node2</title><ellipse fill="#b2dfee" stroke="#b2dfee" cx="173" cy="-711" rx="63.848" ry="18.385"/><text text-anchor="middle" x="173" y="-707.4" font-family="Consolas, monospace" font-size="14">FUNCTION</text><text text-anchor="middle" x="173" y="-695.4" font-family="Consolas, monospace" fill="#008000" font-size="14">функция</text></g><g class="edge"><title>node1-&gt;node2</title><path fill="none" stroke="#000" d="M173-768.213v28.39"/><path stroke="#000" d="M176.5-739.57l-3.5 10-3.5-10h7z"/></g><g class="edge"><title>node1-&gt;RETURN</title><path fill="none" stroke="#f00" d="M200.79-771.71C241.73-747.948 318.425-698.524 365-638c53.572 69.615 61.776 178.55 62.445 230.103"/><path fill="#f00" stroke="#f00" d="M430.945-407.817l-3.458 10.015-3.542-9.986 7-.03z"/><text text-anchor="middle" x="420" y="-615.4" font-family="Consolas, monospace" font-size="14" fill="#f00">UNCOND</text></g><g class="node"><title>node3</title><ellipse fill="#b2dfee" stroke="#b2dfee" cx="41" cy="-619" rx="41.012" ry="18.385"/><text text-anchor="middle" x="41" y="-615.4" font-family="Consolas, monospace" font-size="14">NAME</text><text text-anchor="middle" x="41" y="-605.4" font-family="Consolas, monospace" fill="#008000" font-size="14">имя</text></g><g class="edge"><title>node2-&gt;node3</title><path fill="none" stroke="#000" d="M148.48-693.91c-21.55 15.02-53.028 36.96-76.353 53.215"/><path stroke="#000" d="M73.83-637.615l-10.205 2.846 6.203-8.588 4.002 5.743z"/></g><g class="node"><title>node4</title><ellipse fill="#b2dfee" stroke="#b2dfee" cx="173" cy="-619" rx="73.039" ry="18.385"/><text text-anchor="middle" x="173" y="-615.4" font-family="Consolas, monospace" font-size="14">PARAM_LIST</text><text text-anchor="middle" x="173" y="-605.4" font-family="Consolas, monospace" fill="#008000" font-size="14">список параметров</text></g><g class="edge"><title>node2-&gt;node4</title><path fill="none" stroke="#000" d="M173-692.382v44.755"/><path stroke="#000" d="M176.5-647.59l-3.5 10-3.5-10h7z"/></g><g class="node"><title>node6</title><ellipse fill="#b2dfee" stroke="#b2dfee" cx="311" cy="-619" rx="44.758" ry="18.385"/><text text-anchor="middle" x="311" y="-615.4" font-family="Consolas, monospace" font-size="14">BLOCK</text><text text-anchor="middle" x="311" y="-605.4" font-family="Consolas, monospace" fill="#008000" font-size="14">тело функции</text></g><g class="edge"><title>node2-&gt;node6</title><path fill="none" stroke="#f00" d="M184.468-692.607C192.608-680.813 204.46-665.91 218-656c8.315 6.086 28.884 14.474 48.57 21.724"/><path fill="#f00" stroke="#f00" d="M267.894-637.518l8.21 6.695-10.593-.114 2.384-6.58z"/><text text-anchor="middle" x="250" y="-661.4" font-family="Consolas, monospace" font-size="14" fill="#f00">UNCOND</text></g><g class="edge"><title>node2-&gt;node6</title><path fill="none" stroke="#000" d="M229.45-702.19c19.74 5.417 40.864 14.144 56.55 28.19 7.887 7.063 13.44 17.106 17.276 26.682"/><path stroke="#000" d="M306.66-648.247l.015 10.594-6.62-8.272 6.604-2.322z"/></g><g class="node"><title>node5</title><ellipse fill="#b2dfee" stroke="#b2dfee" cx="172" cy="-527" rx="41.012" ry="18.385"/><text text-anchor="middle" x="172" y="-523.4" font-family="Consolas, monospace" font-size="14">NAME</text><text text-anchor="middle" x="172" y="-513.4" font-family="Consolas, monospace" fill="#008000" font-size="14">имя</text></g><g class="edge"><title>node4-&gt;node5</title><path fill="none" stroke="#000" d="M172.798-600.382l-.487 44.755"/><path stroke="#000" d="M175.81-555.55l-3.608 9.96-3.39-10.037 7 .076z"/></g><g class="node"><title>node7</title><ellipse fill="#b2dfee" stroke="#b2dfee" cx="313" cy="-527" rx="82.024" ry="18.385"/><text text-anchor="middle" x="313" y="-523.4" font-family="Consolas, monospace" font-size="14">EXPR_RESULT</text><text text-anchor="middle" x="313" y="-513.4" font-family="Consolas, monospace" fill="#008000" font-size="14">выражение</text></g><g class="edge"><title>node6-&gt;node7</title><path fill="none" stroke="#f00" d="M276.446-606.903C254.84-597.253 233.026-582.337 244-564c3.743 6.255 8.946 11.512 14.832 15.916"/><path fill="#f00" stroke="#f00" d="M260.764-551.002l6.446 8.408-10.282-2.553 3.836-5.855z"/><text text-anchor="middle" x="276" y="-569.4" font-family="Consolas, monospace" font-size="14" fill="#f00">UNCOND</text></g><g class="edge"><title>node6-&gt;node7</title><path fill="none" stroke="#000" d="M311.405-600.382l.973 44.755"/><path stroke="#000" d="M315.878-555.664l-3.282 10.074-3.717-9.92 6.998-.154z"/></g><g class="node"><title>node8</title><ellipse fill="#b2dfee" stroke="#b2dfee" cx="313" cy="-435" rx="50.205" ry="18.385"/><text text-anchor="middle" x="313" y="-431.4" font-family="Consolas, monospace" font-size="14">ASSIGN</text><text text-anchor="middle" x="313" y="-421.4" font-family="Consolas, monospace" fill="#008000" font-size="14">присвоить</text></g><g class="edge"><title>node7-&gt;node8</title><path fill="none" stroke="#000" d="M313-508.382v44.755"/><path stroke="#000" d="M316.5-463.59l-3.5 10-3.5-10h7z"/></g><g class="edge"><title>node7-&gt;RETURN</title><path fill="none" stroke="#f00" d="M323.59-508.44c6.81 11.152 16.26 25.293 26.41 36.44 8.506 9.34 13.307 8.833 22 18 14.118 14.887 27.77 33.472 37.942 48.417"/><path fill="#f00" stroke="#f00" d="M412.858-407.518l2.648 10.258-8.467-6.368 5.818-3.89z"/><text text-anchor="middle" x="382" y="-477.4" font-family="Consolas, monospace" font-size="14" fill="#f00">UNCOND</text></g><g class="node"><title>node9</title><ellipse fill="#b2dfee" stroke="#b2dfee" cx="210" cy="-323" rx="60.104" ry="18.385"/><text text-anchor="middle" x="210" y="-319.4" font-family="Consolas, monospace" font-size="14">GETPROP</text><text text-anchor="middle" x="210" y="-309.4" font-family="Consolas, monospace" fill="#008000" font-size="14">получить свойство</text></g><g class="edge"><title>node8-&gt;node9</title><path fill="none" stroke="#000" d="M296.45-417.005c-17.042 18.533-43.756 47.58-62.978 68.482"/><path stroke="#000" d="M235.853-345.942l-9.345 4.992 4.193-9.73 5.153 4.738z"/></g><g class="node"><title>node12</title><ellipse fill="#b2dfee" stroke="#b2dfee" cx="402" cy="-323" rx="63.848" ry="18.385"/><text text-anchor="middle" x="402" y="-319.4" font-family="Consolas, monospace" font-size="14">FUNCTION</text><text text-anchor="middle" x="402" y="-309.4" font-family="Consolas, monospace" fill="#008000" font-size="14">функция</text></g><g class="edge"><title>node8-&gt;node12</title><path fill="none" stroke="#000" d="M324.328-416.766c10 15.61 25.336 38.403 40.672 56.766 3.336 3.994 7.03 8.053 10.758 11.948"/><path stroke="#000" d="M378.354-350.404l4.524 9.58-9.51-4.668 4.986-4.912z"/></g><g class="node"><title>node10</title><ellipse fill="#b2dfee" stroke="#b2dfee" cx="107" cy="-247" rx="34.857" ry="18.385"/><text text-anchor="middle" x="107" y="-243.4" font-family="Consolas, monospace" font-size="14">THIS</text></g><g class="edge"><title>node9-&gt;node10</title><path fill="none" stroke="#000" d="M186.628-305.754l-50.666 37.384"/><path stroke="#000" d="M137.617-265.24l-10.125 3.12 5.968-8.754 4.157 5.633z"/></g><g class="node"><title>node11</title><ellipse fill="#b2dfee" stroke="#b2dfee" cx="210" cy="-247" rx="50.205" ry="18.385"/><text text-anchor="middle" x="210" y="-243.4" font-family="Consolas, monospace" font-size="14">STRING</text><text text-anchor="middle" x="210" y="-233.4" font-family="Consolas, monospace" fill="#008000" font-size="14">строка-константа</text></g><g class="edge"><title>node9-&gt;node11</title><path fill="none" stroke="#000" d="M210-304.213v28.39"/><path stroke="#000" d="M213.5-275.57l-3.5 10-3.5-10h7z"/></g><g class="node"><title>node13</title><ellipse fill="#b2dfee" stroke="#b2dfee" cx="319" cy="-247" rx="41.012" ry="18.385"/><text text-anchor="middle" x="319" y="-243.4" font-family="Consolas, monospace" font-size="14">NAME</text></g><g class="edge"><title>node12-&gt;node13</title><path fill="none" stroke="#000" d="M382.33-304.99l-37.354 34.205"/><path stroke="#000" d="M347.13-268.012l-9.74 4.172 5.013-9.335 4.727 5.163z"/></g><g class="node"><title>node14</title><ellipse fill="#b2dfee" stroke="#b2dfee" cx="451" cy="-247" rx="73.039" ry="18.385"/><text text-anchor="middle" x="451" y="-243.4" font-family="Consolas, monospace" font-size="14">PARAM_LIST</text></g><g class="edge"><title>node12-&gt;node14</title><path fill="none" stroke="#000" d="M413.862-304.603l19.716 30.58"/><path stroke="#000" d="M436.6-275.793l2.478 10.302-8.36-6.51 5.883-3.793z"/></g><g class="node"><title>node15</title><ellipse fill="#b2dfee" stroke="#b2dfee" cx="587" cy="-247" rx="44.758" ry="18.385"/><text text-anchor="middle" x="587" y="-243.4" font-family="Consolas, monospace" font-size="14">BLOCK</text></g><g class="edge"><title>node12-&gt;node15</title><path fill="none" stroke="#000" d="M438.993-307.803l106.503 43.753"/><path stroke="#000" d="M547.088-267.18l7.92 7.037-10.58-.562 2.66-6.475z"/></g><g class="node"><title>node16</title><ellipse fill="#b2dfee" stroke="#b2dfee" cx="587" cy="-171" rx="82.024" ry="18.385"/><text text-anchor="middle" x="587" y="-167.4" font-family="Consolas, monospace" font-size="14">EXPR_RESULT</text></g><g class="edge"><title>node15-&gt;node16</title><path fill="none" stroke="#000" d="M587-228.213v28.39"/><path stroke="#000" d="M590.5-199.57l-3.5 10-3.5-10h7z"/></g><g class="node"><title>node17</title><ellipse fill="#b2dfee" stroke="#b2dfee" cx="587" cy="-95" rx="36.977" ry="18.385"/><text text-anchor="middle" x="587" y="-91.4" font-family="Consolas, monospace" font-size="14">CALL</text><text text-anchor="middle" x="587" y="-81.4" font-family="Consolas, monospace" fill="#008000" font-size="14">вызов функции</text></g><g class="edge"><title>node16-&gt;node17</title><path fill="none" stroke="#000" d="M587-152.213v28.39"/><path stroke="#000" d="M590.5-123.57l-3.5 10-3.5-10h7z"/></g><g class="node"><title>node18</title><ellipse fill="#b2dfee" stroke="#b2dfee" cx="537" cy="-19" rx="41.012" ry="18.385"/><text text-anchor="middle" x="537" y="-15.4" font-family="Consolas, monospace" font-size="14">NAME</text><text text-anchor="middle" x="537" y="-5.4" font-family="Consolas, monospace" fill="#008000" font-size="14">имя(функции)</text></g><g class="edge"><title>node17-&gt;node18</title><path fill="none" stroke="#000" d="M575.403-77.373c-6.265 9.524-14.126 21.47-21.1 32.073"/><path stroke="#000" d="M557.127-43.225l-8.42 6.43 2.572-10.277 5.847 3.847z"/></g><g class="node"><title>node19</title><ellipse fill="#b2dfee" stroke="#b2dfee" cx="637" cy="-19" rx="41.012" ry="18.385"/><text text-anchor="middle" x="637" y="-15.4" font-family="Consolas, monospace" font-size="14">NAME</text><text text-anchor="middle" x="637" y="-5.4" font-family="Consolas, monospace" fill="#008000" font-size="14">имя(параметр)</text></g><g class="edge"><title>node17-&gt;node19</title><path fill="none" stroke="#000" d="M598.597-77.373c6.265 9.524 14.126 21.47 21.1 32.073"/><path stroke="#000" d="M622.72-47.072l2.573 10.277-8.42-6.43 5.848-3.847z"/></g></g></svg>