<?xml version="1.0" encoding="UTF-8" standalone="no"?>
<svg width="488px" height="246px" viewBox="0 0 488 246" version="1.1" xmlns="http://www.w3.org/2000/svg" xmlns:xlink="http://www.w3.org/1999/xlink" xmlns:sketch="http://www.bohemiancoding.com/sketch/ns">
    <!-- Generator: Sketch 3.2.2 (9983) - http://www.bohemiancoding.com/sketch -->
    <title>leak-xhr-2.svg</title>
    <desc>Created with Sketch.</desc>
    <defs></defs>
    <g id="combined" stroke="none" stroke-width="1" fill="none" fill-rule="evenodd" sketch:type="MSPage">
        <g id="leak-xhr-2.svg" sketch:type="MSArtboardGroup">
            <rect id="Rectangle-2" stroke="#CFCE95" stroke-width="2" fill="#F5F5D9" sketch:type="MSShapeGroup" x="50" y="39" width="117" height="38"></rect>
            <rect id="Rectangle-2" stroke="#C74A6C" stroke-width="2" fill="#FCDFE1" sketch:type="MSShapeGroup" x="331" y="39" width="117" height="38"></rect>
            <rect id="Rectangle-2" stroke="#C74A6C" stroke-width="2" fill="#FCDFE1" sketch:type="MSShapeGroup" x="50" y="167" width="398" height="38"></rect>
            <text id="xhr" sketch:type="MSTextLayer" font-family="Consolas" font-size="14" font-weight="normal" fill="#727155">
                <tspan x="97" y="63">xhr</tspan>
            </text>
            <text id="function" sketch:type="MSTextLayer" font-family="Consolas" font-size="14" font-weight="normal" sketch:alignment="middle" fill="#727155">
                <tspan x="359.210938" y="63">function</tspan>
            </text>
            <text id="LexicalEnvironment" sketch:type="MSTextLayer" font-family="Consolas" font-size="14" font-weight="normal" sketch:alignment="middle" fill="#924565">
                <tspan x="180.224609" y="190">LexicalEnvironment</tspan>
            </text>
            <path d="M110.5,93.5 L110.5,144.5" id="Line" stroke="#B8BAC1" stroke-width="2" stroke-linecap="square" fill="#B8BAC1" sketch:type="MSShapeGroup" transform="translate(110.500000, 119.000000) scale(1, -1) translate(-110.500000, -119.000000) "></path>
            <path id="Line-decoration-1" d="M110.5,144.5 C111.55,140.72 112.45,137.48 113.5,133.7 C111.4,133.7 109.6,133.7 107.5,133.7 C108.55,137.48 109.45,140.72 110.5,144.5 C110.5,144.5 110.5,144.5 110.5,144.5 Z" stroke="#B8BAC1" stroke-width="2" stroke-linecap="square" fill="#B8BAC1"></path>
            <path d="M187,61 L311.169243,61" id="Line" stroke="#EE6B47" stroke-width="2" stroke-linecap="square" fill="#EE6B47" sketch:type="MSShapeGroup"></path>
            <path id="Line-decoration-1" d="M311,61 C307.22,59.95 303.98,59.05 300.2,58 C300.2,60.1 300.2,61.9 300.2,64 C303.98,62.95 307.22,62.05 311,61 C311,61 311,61 311,61 Z" stroke="#EE6B47" stroke-width="2" stroke-linecap="square" fill="#EE6B47"></path>
            <path d="M381.5,113.5 L381.5,144.5" id="Line" stroke="#EE6B47" stroke-width="2" stroke-linecap="square" fill="#EE6B47" sketch:type="MSShapeGroup"></path>
            <path id="Line-decoration-1" d="M381.5,144.5 C382.55,140.72 383.45,137.48 384.5,133.7 C382.4,133.7 380.6,133.7 378.5,133.7 C379.55,137.48 380.45,140.72 381.5,144.5 C381.5,144.5 381.5,144.5 381.5,144.5 Z" stroke="#EE6B47" stroke-width="2" stroke-linecap="square" fill="#EE6B47"></path>
            <text id="onreadystatechange" sketch:type="MSTextLayer" font-family="Consolas" font-size="14" font-weight="normal" fill="#8A704D">
                <tspan x="181.5" y="48">onreadystatechange</tspan>
            </text>
            <text id="[[Scope]]" sketch:type="MSTextLayer" font-family="Consolas" font-size="14" font-weight="normal" fill="#8A704D">
                <tspan x="346" y="102">[[Scope]]</tspan>
            </text>
            <path d="M99.5,110.5 L122.845236,133.845236" id="Line" stroke="#CB1E31" stroke-linecap="square" sketch:type="MSShapeGroup"></path>
            <path d="M122,110.5 L98.6547642,133.845236" id="Line-2" stroke="#CB1E31" stroke-linecap="square" sketch:type="MSShapeGroup"></path>
        </g>
    </g>
</svg>