<svg xmlns="http://www.w3.org/2000/svg" width="337" height="204" viewBox="0 0 337 204"><defs><style>@import url(https://fonts.googleapis.com/css?family=Open+Sans:bold,italic,bolditalic%7CPT+Mono);@font-face{font-family:&apos;PT Mono&apos;;font-weight:700;font-style:normal;src:local(&apos;PT MonoBold&apos;),url(/font/PTMonoBold.woff2) format(&apos;woff2&apos;),url(/font/PTMonoBold.woff) format(&apos;woff&apos;),url(/font/PTMonoBold.ttf) format(&apos;truetype&apos;)}</style></defs><g id="garbage-collection" fill="none" fill-rule="evenodd" stroke="none" stroke-width="1"><g id="family-delete-refs.svg"><path id="Line" fill="#9B9B9B" fill-rule="nonzero" d="M147.5 183.5v6h46v2h-46v6l-14-7 14-7z" opacity=".6"/><path id="Rectangle-1" fill="#FFF9EB" stroke="#E8C48E" stroke-width="2" d="M88 13h151v26H88z"/><text id="&lt;global-variable&gt;" fill="#8A704D" font-family="PTMono-Regular, PT Mono" font-size="14" font-weight="normal"><tspan x="92" y="30">&lt;global variable&gt;</tspan></text><path id="Rectangle-2" fill="#FFF9EB" stroke="#BCA68E" stroke-width="2" d="M123 80h78v26h-78z"/><text id="Object" fill="#8A704D" font-family="PTMono-Regular, PT Mono" font-size="14" font-weight="normal"><tspan x="139" y="96">Object</tspan></text><path id="Rectangle-3" fill="#FFF9EB" stroke="#BCA68E" stroke-width="2" d="M5 148h118v48H5z"/><text id="Object-2" fill="#8A704D" font-family="PTMono-Regular, PT Mono" font-size="14" font-weight="normal"><tspan x="39" y="165">Object</tspan></text><text id="wife" fill="#8A704D" font-family="PTMono-Regular, PT Mono" font-size="14" font-weight="normal"><tspan x="147" y="148">wife</tspan></text><text id="family" fill="#8A704D" font-family="PTMono-Regular, PT Mono" font-size="14" font-weight="normal"><tspan x="106" y="63">family</tspan></text><text id="name:-&quot;John&quot;" fill="#8A704D" font-family="PTMono-Regular, PT Mono" font-size="12" font-weight="normal"><tspan x="19" y="185">name: &quot;John&quot;</tspan></text><path id="Rectangle-4" fill="#FFF9EB" stroke="#BCA68E" stroke-width="2" d="M214 148h118v48H214z"/><text id="name:-&quot;Ann&quot;" fill="#8A704D" font-family="PTMono-Regular, PT Mono" font-size="12" font-weight="normal"><tspan x="230" y="185">name: &quot;Ann&quot;</tspan></text><text id="mother" fill="#8A704D" font-family="PTMono-Regular, PT Mono" font-size="14" font-weight="normal"><tspan x="242" y="127">mother</tspan></text><text id="Object-3" fill="#8A704D" font-family="PTMono-Regular, PT Mono" font-size="14" font-weight="normal"><tspan x="244" y="165">Object</tspan></text><path id="Line" fill="#EE6B47" fill-rule="nonzero" d="M164.5 43.5v18h6l-7 14-7-14h6v-18h2z"/><path id="Line-2" fill="#9B9B9B" fill-rule="nonzero" d="M114.75 111.108l1.142 1.642-.82.57-34.508 24.005 3.426 4.926L68.5 144.5l7.495-13.741 3.426 4.924 34.508-24.004.82-.571z" opacity=".6"/><path id="Line" fill="#EE6B47" fill-rule="nonzero" d="M180.5 149.5l14 7-14 7v-6h-48v-2h48v-6zM208.236 111.11l.827.563 35.427 24.121 3.377-4.96L255.5 144.5l-15.512-2.093 3.377-4.96-35.428-24.12-.826-.563 1.125-1.653z"/><path id="Line-Copy" stroke="#EE6B47" stroke-linecap="square" stroke-width="2" d="M100.5 118.5l-11 14"/><path id="Line-Copy-2" stroke="#EE6B47" stroke-linecap="square" stroke-width="2" d="M89.5 118.5l11 14"/><path id="Line-Copy-4" stroke="#EE6B47" stroke-linecap="square" stroke-width="2" d="M172.5 183.5l-11 14"/><path id="Line-Copy-3" stroke="#EE6B47" stroke-linecap="square" stroke-width="2" d="M161.5 183.5l11 14"/><text id="father" fill="#9B9B9B" font-family="PTMono-Regular, PT Mono" font-size="14" font-weight="normal"><tspan x="35" y="127">father</tspan></text><text id="husband" fill="#9B9B9B" font-family="PTMono-Regular, PT Mono" font-size="14" font-weight="normal"><tspan x="136" y="181">husband</tspan></text></g></g></svg>