<svg xmlns="http://www.w3.org/2000/svg" xmlns:xlink="http://www.w3.org/1999/xlink" width="463" height="204" viewBox="0 0 463 204"><defs><style>@import url(https://fonts.googleapis.com/css?family=Open+Sans:bold,italic,bolditalic%7CPT+Mono);@font-face{font-family:&apos;PT Mono&apos;;font-weight:700;font-style:normal;src:local(&apos;PT MonoBold&apos;),url(/font/PTMonoBold.woff2) format(&apos;woff2&apos;),url(/font/PTMonoBold.woff) format(&apos;woff&apos;),url(/font/PTMonoBold.ttf) format(&apos;truetype&apos;)}</style></defs><defs><path id="path-1" d="M0 0h146v88H0z"/><path id="path-3" d="M0 0h80v28H0z"/><path id="path-5" d="M0 0h40v20H0z"/><path id="path-7" d="M0 0h40v20H0z"/><path id="path-9" d="M0 0h40v20H0z"/><path id="path-11" d="M0 0h40v20H0z"/><path id="path-13" d="M0 0h40v20H0z"/><path id="path-15" d="M0 0h40v20H0z"/><path id="path-17" d="M0 0h40v20H0z"/><path id="path-19" d="M0 0h40v20H0z"/><path id="path-21" d="M0 0h40v20H0z"/><path id="path-23" d="M0 0h40v20H0z"/><path id="path-25" d="M0 0h40v20H0z"/></defs><g id="garbage-collection" fill="none" fill-rule="evenodd" stroke="none" stroke-width="1"><g id="garbage-collection-5.svg"><g id="Rectangle-5-Clipped" transform="translate(260 46)"><mask id="mask-2" fill="#fff"><use xlink:href="#path-1"/></mask><g id="Rectangle-5" stroke="#D0011B" stroke-width="4" mask="url(#mask-2)"><path id="path-23" d="M0 0h146v88H0z"/></g></g><g id="Rectangle-1-Clipped" transform="translate(106 8)"><mask id="mask-4" fill="#fff"><use xlink:href="#path-3"/></mask><g id="Rectangle-1" fill="#FFF9EB" stroke="#E8C48E" stroke-width="4" mask="url(#mask-4)"><path id="path-1" d="M0 0h80v28H0z"/></g></g><text id="&lt;global&gt;" fill="#8A704D" font-family="PTMono-Regular, PT Mono" font-size="14" font-weight="normal"><tspan x="115" y="26">&lt;global&gt;</tspan></text><g id="Rectangle-2-Clipped" transform="translate(360 99)"><mask id="mask-6" fill="#fff"><use xlink:href="#path-5"/></mask><g id="Rectangle-2" fill="#FFF9EB" fill-opacity=".8" stroke="#BCA68E" stroke-width="4" mask="url(#mask-6)"><path id="path-3" d="M0 0h40v20H0z"/></g></g><g id="Rectangle-2-Copy-2-Clipped" transform="translate(267 99)"><mask id="mask-8" fill="#fff"><use xlink:href="#path-7"/></mask><g id="Rectangle-2-Copy-2" fill="#FFF9EB" fill-opacity=".8" stroke="#BCA68E" stroke-width="4" mask="url(#mask-8)"><path id="path-5" d="M0 0h40v20H0z"/></g></g><g id="Rectangle-2-Copy-2-Clipped" transform="translate(126 79)"><mask id="mask-10" fill="#fff"><use xlink:href="#path-9"/></mask><g id="Rectangle-2-Copy-2" fill="#FFF9EB" stroke="#BCA68E" stroke-width="4" mask="url(#mask-10)"><path id="path-7" d="M0 0h40v20H0z"/></g></g><g id="Rectangle-2-Copy-Clipped" transform="translate(313 53)"><mask id="mask-12" fill="#fff"><use xlink:href="#path-11"/></mask><g id="Rectangle-2-Copy" fill="#FFF9EB" fill-opacity=".8" stroke="#BCA68E" stroke-width="4" mask="url(#mask-12)"><path id="path-9" d="M0 0h40v20H0z"/></g></g><g id="Rectangle-2-Copy-3-Clipped" transform="translate(176 129)"><mask id="mask-14" fill="#fff"><use xlink:href="#path-13"/></mask><g id="Rectangle-2-Copy-3" fill="#FFF9EB" stroke="#BCA68E" stroke-width="4" mask="url(#mask-14)"><path id="path-11" d="M0 0h40v20H0z"/></g></g><g id="Rectangle-2-Copy-8-Clipped" transform="translate(196 69)"><mask id="mask-16" fill="#fff"><use xlink:href="#path-15"/></mask><g id="Rectangle-2-Copy-8" fill="#FFF9EB" stroke="#BCA68E" stroke-width="4" mask="url(#mask-16)"><path id="path-13" d="M0 0h40v20H0z"/></g></g><g id="Rectangle-2-Copy-4-Clipped" transform="translate(128 139)"><mask id="mask-18" fill="#fff"><use xlink:href="#path-17"/></mask><g id="Rectangle-2-Copy-4" fill="#FFF9EB" stroke="#BCA68E" stroke-width="4" mask="url(#mask-18)"><path id="path-15" d="M0 0h40v20H0z"/></g></g><g id="Rectangle-2-Copy-5-Clipped" transform="translate(76 131)"><mask id="mask-20" fill="#fff"><use xlink:href="#path-19"/></mask><g id="Rectangle-2-Copy-5" fill="#FFF9EB" stroke="#BCA68E" stroke-width="4" mask="url(#mask-20)"><path id="path-17" d="M0 0h40v20H0z"/></g></g><g id="Rectangle-2-Copy-6-Clipped" transform="translate(76 71)"><mask id="mask-22" fill="#fff"><use xlink:href="#path-21"/></mask><g id="Rectangle-2-Copy-6" fill="#FFF9EB" stroke="#BCA68E" stroke-width="4" mask="url(#mask-22)"><path id="path-19" d="M0 0h40v20H0z"/></g></g><g id="Rectangle-2-Copy-7-Clipped" transform="translate(27 57)"><mask id="mask-24" fill="#fff"><use xlink:href="#path-23"/></mask><g id="Rectangle-2-Copy-7" fill="#FFF9EB" stroke="#BCA68E" stroke-width="4" mask="url(#mask-24)"><path id="path-21" d="M0 0h40v20H0z"/></g></g><path id="Line" fill="#EE6B47" stroke="#EE6B47" stroke-width="2" d="M148.5 40.5v31"/><path id="Line-decoration-1" fill="#EE6B47" stroke="#EE6B47" stroke-width="2" d="M148.5 71.5l3-10.8h-6z"/><path id="Line-Copy" fill="#EE6B47" stroke="#EE6B47" stroke-width="2" d="M148.5 105.5v24"/><path id="Line-Copy-decoration-1" fill="#EE6B47" stroke="#EE6B47" stroke-width="2" d="M148.5 129.5l3-10.8h-6z"/><path id="Line-2" fill="#EE6B47" fill-opacity=".8" stroke="#EE6B47" stroke-width="2" d="M319.5 77.5l-19 16"/><path id="Line-2-decoration-1" fill="#EE6B47" fill-opacity=".8" stroke="#EE6B47" stroke-width="2" d="M300.5 93.5l10.193-4.662-3.864-4.59z"/><path id="Line-2" fill="#EE6B47" stroke="#EE6B47" stroke-width="2" d="M127.5 47.5l-19 16"/><path id="Line-2-decoration-1" fill="#EE6B47" stroke="#EE6B47" stroke-width="2" d="M108.5 63.5l10.193-4.662-3.864-4.59z"/><path id="Line-2-Copy-2" fill="#EE6B47" stroke="#EE6B47" stroke-width="2" d="M97.5 42.5l-23 9"/><path id="Line-2-Copy-2-decoration-1" fill="#EE6B47" stroke="#EE6B47" stroke-width="2" d="M74.5 51.5l11.15-1.142-2.186-5.587z"/><path id="Line-2-Copy" fill="#EE6B47" stroke="#EE6B47" stroke-width="2" d="M133.5 107.5l-19 16"/><path id="Line-2-Copy-decoration-1" fill="#EE6B47" stroke="#EE6B47" stroke-width="2" d="M114.5 123.5l10.193-4.662-3.864-4.59z"/><path id="Line" fill="#EE6B47" stroke="#EE6B47" stroke-width="2" d="M313.071 109.5h39.354"/><path id="Line-decoration-1" fill="#EE6B47" stroke="#EE6B47" stroke-width="2" d="M352.425 109.5l-10.8-3v6z"/><path id="Line" fill="#EE6B47" stroke="#EE6B47" stroke-width="2" d="M170.5 107.5l18 15"/><path id="Line-decoration-1" fill="#EE6B47" stroke="#EE6B47" stroke-width="2" d="M188.5 122.5l-6.376-9.219-3.841 4.61z"/><path id="Line-Copy-6" fill="#EE6B47" stroke="#EE6B47" stroke-width="2" d="M202.5 154.5l18 15"/><path id="Line-Copy-6-decoration-1" fill="#EE6B47" stroke="#EE6B47" stroke-width="2" d="M220.5 169.5l-6.376-9.219-3.841 4.61z"/><path id="Line-Copy-5" fill="#EE6B47" stroke="#EE6B47" stroke-width="2" d="M170.5 87.5l20-7"/><path id="Line-Copy-5-decoration-1" fill="#EE6B47" stroke="#EE6B47" stroke-width="2" d="M190.5 80.5l-11.185.736 1.982 5.663z"/><path id="Line-Copy-4" fill="#EE6B47" stroke="#EE6B47" stroke-width="2" d="M209.5 120.5l14-22"/><path id="Line-Copy-4-decoration-1" fill="#EE6B47" stroke="#EE6B47" stroke-width="2" d="M223.5 98.5l-8.33 7.5 5.063 3.222z"/><path id="Line-Copy-3" fill="#EE6B47" stroke="#EE6B47" stroke-width="2" d="M46.5 82.5l32 40"/><path id="Line-Copy-3-decoration-1" fill="#EE6B47" stroke="#EE6B47" stroke-width="2" d="M78.5 122.5l-4.404-10.307-4.685 3.748z"/><g id="noun_48910_cc" transform="translate(261 5)"><path id="Shape" d="M17.503 1.75h-5.006a.341.341 0 00-.34.342v1.125h5.686V2.092a.341.341 0 00-.34-.341z"/><path id="Shape" fill="#D0021B" d="M28.364 3.217H19.59V2.092A2.09 2.09 0 0017.503 0h-5.006c-1.15 0-2.087.938-2.087 2.092v1.125H1.637c-.7 0-1.266.568-1.266 1.269v.09c0 .7.567 1.267 1.266 1.267h26.727c.699 0 1.266-.567 1.266-1.268v-.09c0-.7-.567-1.268-1.266-1.268zm-10.52 0h-5.687V2.092c0-.188.153-.341.34-.341h5.006a.34.34 0 01.34.34v1.126zM26.054 6.281H3.728c-1.298 0-2.35-.224-2.35 1.077L3.14 33.196c0 1.3 1.052 2.409 2.35 2.409h18.802c1.298 0 2.35-1.11 2.35-2.409l1.763-25.838c0-1.301-1.053-1.077-2.35-1.077zM9.637 32.193c-.377.012-.691-.261-.704-.612l-.694-19.917c-.012-.351.283-.647.66-.66.376-.013.69.261.703.613l.694 19.916c.013.351-.283.647-.659.66zm6.044-.63c0 .352-.306.637-.682.637-.377 0-.682-.286-.682-.637V11.634c0-.351.305-.636.682-.636.376 0 .682.285.682.636v19.93zm5.384.018c-.012.351-.327.625-.704.612-.376-.013-.672-.308-.66-.66l.695-19.916c.012-.352.326-.626.703-.613.377.014.672.309.66.66l-.694 19.917z"/></g><text id="unreachables" fill="#8A704D" font-family="PTMono-Regular, PT Mono" font-size="14" font-weight="normal"><tspan x="296" y="29">unreachables</tspan></text><g id="Group" fill="#417505" transform="rotate(-90 81 2)"><path id="Fill-72" d="M5.5 5.511l-.866-1.01.866-1.012V1L2.505 4.497H2.5l.003.003-.003.003h.005L5.5 8V5.511"/><path id="Fill-73" d="M4.5 1.098A3.406 3.406 0 001.098 4.5 3.406 3.406 0 004.5 7.902 3.406 3.406 0 007.902 4.5 3.406 3.406 0 004.5 1.098zM4.5 9A4.505 4.505 0 010 4.5C0 2.019 2.019 0 4.5 0S9 2.019 9 4.5 6.981 9 4.5 9z"/></g><g id="Group-Copy" fill="#417505" transform="rotate(-90 49.5 19.5)"><path id="Fill-72" d="M5.5 5.511l-.866-1.01.866-1.012V1L2.505 4.497H2.5l.003.003-.003.003h.005L5.5 8V5.511"/><path id="Fill-73" d="M4.5 1.098A3.406 3.406 0 001.098 4.5 3.406 3.406 0 004.5 7.902 3.406 3.406 0 007.902 4.5 3.406 3.406 0 004.5 1.098zM4.5 9A4.505 4.505 0 010 4.5C0 2.019 2.019 0 4.5 0S9 2.019 9 4.5 6.981 9 4.5 9z"/></g><g id="Group-Copy-2" fill="#417505" transform="rotate(-90 111.5 32.5)"><path id="Fill-72" d="M5.5 5.511l-.866-1.01.866-1.012V1L2.505 4.497H2.5l.003.003-.003.003h.005L5.5 8V5.511"/><path id="Fill-73" d="M4.5 1.098A3.406 3.406 0 001.098 4.5 3.406 3.406 0 004.5 7.902 3.406 3.406 0 007.902 4.5 3.406 3.406 0 004.5 1.098zM4.5 9A4.505 4.505 0 010 4.5C0 2.019 2.019 0 4.5 0S9 2.019 9 4.5 6.981 9 4.5 9z"/></g><g id="Group-Copy-3" fill="#417505" transform="rotate(-90 141 10)"><path id="Fill-72" d="M5.5 5.511l-.866-1.01.866-1.012V1L2.505 4.497H2.5l.003.003-.003.003h.005L5.5 8V5.511"/><path id="Fill-73" d="M4.5 1.098A3.406 3.406 0 001.098 4.5 3.406 3.406 0 004.5 7.902 3.406 3.406 0 007.902 4.5 3.406 3.406 0 004.5 1.098zM4.5 9A4.505 4.505 0 010 4.5C0 2.019 2.019 0 4.5 0S9 2.019 9 4.5 6.981 9 4.5 9z"/></g><g id="Group-Copy-4" fill="#417505" transform="rotate(-90 110 -19)"><path id="Fill-72" d="M5.5 5.511l-.866-1.01.866-1.012V1L2.505 4.497H2.5l.003.003-.003.003h.005L5.5 8V5.511"/><path id="Fill-73" d="M4.5 1.098A3.406 3.406 0 001.098 4.5 3.406 3.406 0 004.5 7.902 3.406 3.406 0 007.902 4.5 3.406 3.406 0 004.5 1.098zM4.5 9A4.505 4.505 0 010 4.5C0 2.019 2.019 0 4.5 0S9 2.019 9 4.5 6.981 9 4.5 9z"/></g><g id="Group-Copy-5" fill="#417505" transform="rotate(-90 160 -19)"><path id="Fill-72" d="M5.5 5.511l-.866-1.01.866-1.012V1L2.505 4.497H2.5l.003.003-.003.003h.005L5.5 8V5.511"/><path id="Fill-73" d="M4.5 1.098A3.406 3.406 0 001.098 4.5 3.406 3.406 0 004.5 7.902 3.406 3.406 0 007.902 4.5 3.406 3.406 0 004.5 1.098zM4.5 9A4.505 4.505 0 010 4.5C0 2.019 2.019 0 4.5 0S9 2.019 9 4.5 6.981 9 4.5 9z"/></g><g id="Rectangle-2-Copy-9-Clipped" transform="translate(219 177)"><mask id="mask-26" fill="#fff"><use xlink:href="#path-25"/></mask><g id="Rectangle-2-Copy-9" fill="#FFF9EB" stroke="#BCA68E" stroke-width="4" mask="url(#mask-26)"><path id="path-25" d="M0 0h40v20H0z"/></g></g><g id="Group-Copy-7" fill="#417505" transform="rotate(-90 205.5 -16.5)"><path id="Fill-72" d="M5.5 5.511l-.866-1.01.866-1.012V1L2.505 4.497H2.5l.003.003-.003.003h.005L5.5 8V5.511"/><path id="Fill-73" d="M4.5 1.098A3.406 3.406 0 001.098 4.5 3.406 3.406 0 004.5 7.902 3.406 3.406 0 007.902 4.5 3.406 3.406 0 004.5 1.098zM4.5 9A4.505 4.505 0 010 4.5C0 2.019 2.019 0 4.5 0S9 2.019 9 4.5 6.981 9 4.5 9z"/></g><g id="Group-Copy-6" fill="#417505" transform="rotate(-90 140 -59)"><path id="Fill-72" d="M5.5 5.511l-.866-1.01.866-1.012V1L2.505 4.497H2.5l.003.003-.003.003h.005L5.5 8V5.511"/><path id="Fill-73" d="M4.5 1.098A3.406 3.406 0 001.098 4.5 3.406 3.406 0 004.5 7.902 3.406 3.406 0 007.902 4.5 3.406 3.406 0 004.5 1.098zM4.5 9A4.505 4.505 0 010 4.5C0 2.019 2.019 0 4.5 0S9 2.019 9 4.5 6.981 9 4.5 9z"/></g><path id="Line-Copy-2" fill="#EE6B47" stroke="#EE6B47" stroke-width="2" d="M187.5 41.5l21 21"/><path id="Line-Copy-2-decoration-1" fill="#EE6B47" stroke="#EE6B47" stroke-width="2" d="M208.5 62.5l-5.515-9.758-4.243 4.243z"/><path id="Line" fill="#EE6B47" fill-rule="nonzero" d="M357.5 79.5l14.212 6.56-4.686 3.747 3.255 4.068.625.781-1.562 1.25-.625-.781-3.255-4.069-4.684 3.749L357.5 79.5z"/></g></g></svg>