<svg xmlns="http://www.w3.org/2000/svg" width="225" height="159" viewBox="0 0 225 159"><defs><style>@import url(https://fonts.googleapis.com/css?family=Open+Sans:bold,italic,bolditalic%7CPT+Mono);@font-face{font-family:&apos;PT Mono&apos;;font-weight:700;font-style:normal;src:local(&apos;PT MonoBold&apos;),url(/font/PTMonoBold.woff2) format(&apos;woff2&apos;),url(/font/PTMonoBold.woff) format(&apos;woff&apos;),url(/font/PTMonoBold.ttf) format(&apos;truetype&apos;)}</style></defs><g id="garbage-collection" fill="none" fill-rule="evenodd" stroke="none" stroke-width="1"><g id="memory-user-john-lost.svg"><path id="Rectangle-4" fill="#FBF2EC" stroke="#DBAF88" stroke-width="2" d="M61 89h118v48H61z"/><text id="name:-&quot;John&quot;" fill="#AF6E24" font-family="PTMono-Regular, PT Mono" font-size="12" font-weight="normal"><tspan x="83" y="126">name: &quot;John&quot;</tspan></text><text id="Object-3" fill="#AF6E24" font-family="PTMono-Regular, PT Mono" font-size="14" font-weight="normal"><tspan x="97" y="106">Object</tspan></text><path id="Rectangle-1" fill="#FBF2EC" stroke="#DBAF88" stroke-width="2" d="M65 4h104v42H65z"/><text id="user:-null" fill="#AF6E24" font-family="PTMono-Regular, PT Mono" font-size="14" font-weight="normal"><tspan x="79" y="40">user: null</tspan></text><text id="&lt;global&gt;" fill="#AF6E24" font-family="PTMono-Regular, PT Mono" font-size="14" font-weight="normal"><tspan x="86" y="23">&lt;global&gt;</tspan></text><path id="Rectangle-5" stroke="#A7333A" stroke-width="2" d="M47 69h154v86H47z"/><g id="noun_48910_cc" transform="translate(8 65)"><path id="Shape" d="M17.503 1.75h-5.006a.341.341 0 00-.34.342v1.125h5.686V2.092a.341.341 0 00-.34-.341z"/><path id="Shape" fill="#A7333A" d="M28.364 3.217H19.59V2.092A2.09 2.09 0 0017.503 0h-5.006c-1.15 0-2.087.938-2.087 2.092v1.125H1.637c-.7 0-1.266.568-1.266 1.269v.09c0 .7.567 1.267 1.266 1.267h26.727c.699 0 1.266-.567 1.266-1.268v-.09c0-.7-.567-1.268-1.266-1.268zm-10.52 0h-5.687V2.092c0-.188.153-.341.34-.341h5.006a.34.34 0 01.34.34v1.126zM26.054 6.281H3.728c-1.298 0-2.35-.224-2.35 1.077L3.14 33.196c0 1.3 1.052 2.409 2.35 2.409h18.802c1.298 0 2.35-1.11 2.35-2.409l1.763-25.838c0-1.301-1.053-1.077-2.35-1.077zM9.637 32.193c-.377.012-.691-.261-.704-.612l-.694-19.917c-.012-.351.283-.647.66-.66.376-.013.69.261.703.613l.694 19.916c.013.351-.283.647-.659.66zm6.044-.63c0 .352-.306.637-.682.637-.377 0-.682-.286-.682-.637V11.634c0-.351.305-.636.682-.636.376 0 .682.285.682.636v19.93zm5.384.018c-.012.351-.327.625-.704.612-.376-.013-.672-.308-.66-.66l.695-19.916c.012-.352.326-.626.703-.613.377.014.672.309.66.66l-.694 19.917z"/></g></g></g></svg>