<svg xmlns="http://www.w3.org/2000/svg" width="248" height="173" viewBox="0 0 248 173"><defs><style>@import url(https://fonts.googleapis.com/css?family=Open+Sans:bold,italic,bolditalic%7CPT+Mono);@font-face{font-family:&apos;PT Mono&apos;;font-weight:700;font-style:normal;src:local(&apos;PT MonoBold&apos;),url(/font/PTMonoBold.woff2) format(&apos;woff2&apos;),url(/font/PTMonoBold.woff) format(&apos;woff&apos;),url(/font/PTMonoBold.ttf) format(&apos;truetype&apos;)}</style></defs><g id="combined" fill="none" fill-rule="evenodd" stroke="none" stroke-width="1"><g id="object-user-isadmin.svg"><path fill="#FFF" d="M0 0h248v173H0z"/><path id="Rectangle-4-Copy" fill="#D1C4B1" stroke="#D1C4B1" stroke-width="4" d="M127.937 101l-16.667 20h130.46l-16.667-20h-97.126z" opacity=".5"/><g id="Group-2" transform="translate(125 8)"><g id="Group"><path id="Rectangle-7" fill="#FFF" d="M0 0h32v110H0z"/><path id="Combined-Shape" fill="#E8C48F" d="M32 0v110H0V0h32zM16.5 88.71c-4.142 0-7.5 2.978-7.5 6.653 0 3.674 3.358 6.653 7.5 6.653 4.142 0 7.5-2.979 7.5-6.653 0-3.675-3.358-6.653-7.5-6.653zM28 4.435H4v77.178h24V4.435z"/></g><text id="name" fill="#EE6B47" font-family="PTMono-Bold, PT Mono" font-size="14" font-weight="bold" transform="rotate(-90 15.5 42.859)"><tspan x="-1.3" y="47.359">name</tspan></text></g><g id="Group-2-Copy" transform="translate(162 8)"><g id="Group"><path id="Rectangle-7" fill="#FFF" d="M0 0h32v110H0z"/><path id="Combined-Shape" fill="#E8C48F" d="M32 0v110H0V0h32zM16.5 88.71c-4.142 0-7.5 2.978-7.5 6.653 0 3.674 3.358 6.653 7.5 6.653 4.142 0 7.5-2.979 7.5-6.653 0-3.675-3.358-6.653-7.5-6.653zM28 4.435H4v77.178h24V4.435z"/></g><text id="age" fill="#EE6B47" font-family="PTMono-Bold, PT Mono" font-size="14" font-weight="bold" transform="rotate(-90 14.5 41.653)"><tspan x="1.9" y="46.153">age</tspan></text></g><g id="Group-2-Copy-2" transform="translate(199 8)"><g id="Group"><path id="Rectangle-7" fill="#FFF" d="M0 0h32v110H0z"/><path id="Combined-Shape" fill="#E8C48F" d="M32 0v110H0V0h32zM16.5 88.71c-4.142 0-7.5 2.978-7.5 6.653 0 3.674 3.358 6.653 7.5 6.653 4.142 0 7.5-2.979 7.5-6.653 0-3.675-3.358-6.653-7.5-6.653zM28 4.435H4v77.178h24V4.435z"/></g><text id="isAdmin" fill="#EE6B47" font-family="PTMono-Bold, PT Mono" font-size="14" font-weight="bold" transform="rotate(-90 14.5 41.653)"><tspan x="-14.9" y="46.153">isAdmin</tspan></text></g><path id="Rectangle-4" fill="#FFF9EB" stroke="#BCA68E" stroke-width="4" d="M109 115h135v50H109z"/><path id="Rectangle-8" stroke="#BCA68E" stroke-width="3" d="M164.5 135.5h25v10h-25z"/><text id="user" fill="#EE6B47" font-family="OpenSans-Bold, Open Sans" font-size="14" font-weight="bold"><tspan x="12" y="145">user</tspan></text><path id="Line-8" fill="#EE6B47" fill-rule="nonzero" d="M78.5 131l19 9.5-19 9.5v-8H52v-3h26.5v-8z"/></g></g></svg>