<svg xmlns="http://www.w3.org/2000/svg" width="248" height="215" viewBox="0 0 248 215"><defs><style>@import url(https://fonts.googleapis.com/css?family=Open+Sans:bold,italic,bolditalic%7CPT+Mono);@font-face{font-family:&apos;PT Mono&apos;;font-weight:700;font-style:normal;src:local(&apos;PT MonoBold&apos;),url(/font/PTMonoBold.woff2) format(&apos;woff2&apos;),url(/font/PTMonoBold.woff) format(&apos;woff&apos;),url(/font/PTMonoBold.ttf) format(&apos;truetype&apos;)}</style></defs><g id="combined" fill="none" fill-rule="evenodd" stroke="none" stroke-width="1"><g id="object-user-props.svg"><path fill="#FFF" d="M0 0h248v215H0z"/><path id="Rectangle-4-Copy" fill="#D1C4B1" stroke="#D1C4B1" stroke-width="4" d="M127.937 143l-16.667 20h130.46l-16.667-20h-97.126z" opacity=".5"/><g id="Group-2" transform="translate(124 3)"><g id="Group"><path id="Rectangle-7" fill="#FFF" d="M0 0h32v157H0z"/><path id="Combined-Shape" fill="#E8C48F" d="M32 0v157H0V0h32zM16.5 126.613c-4.142 0-7.5 4.251-7.5 9.496 0 5.244 3.358 9.496 7.5 9.496 4.142 0 7.5-4.252 7.5-9.496 0-5.245-3.358-9.496-7.5-9.496zM28 6.33H4v110.153h24V6.33z"/></g><text id="name" fill="#EE6B47" font-family="PTMono-Bold, PT Mono" font-size="16" font-weight="bold" transform="rotate(-90 15.5 60.141)"><tspan x="-3.7" y="62.746">name</tspan></text></g><g id="Group-2-Copy" transform="translate(161 3)"><g id="Group"><path id="Rectangle-7" fill="#FFF" d="M0 0h32v157H0z"/><path id="Combined-Shape" fill="#E8C48F" d="M32 0v157H0V0h32zM16.5 126.613c-4.142 0-7.5 4.251-7.5 9.496 0 5.244 3.358 9.496 7.5 9.496 4.142 0 7.5-4.252 7.5-9.496 0-5.245-3.358-9.496-7.5-9.496zM28 6.33H4v110.153h24V6.33z"/></g><text id="age" fill="#EE6B47" font-family="PTMono-Bold, PT Mono" font-size="16" font-weight="bold" transform="rotate(-90 15.5 60.141)"><tspan x="1.1" y="62.746">age</tspan></text></g><g id="Group-2-Copy-2" transform="translate(198 3)"><g id="Group"><path id="Rectangle-7" fill="#FFF" d="M0 0h32v157H0z"/><path id="Combined-Shape" fill="#E8C48F" d="M32 0v157H0V0h32zM16.5 126.613c-4.142 0-7.5 4.251-7.5 9.496 0 5.244 3.358 9.496 7.5 9.496 4.142 0 7.5-4.252 7.5-9.496 0-5.245-3.358-9.496-7.5-9.496zM28 6.33H4v110.153h24V6.33z"/></g><text id="likes-birds" fill="#EE6B47" font-family="PTMono-Bold, PT Mono" font-size="14" font-weight="bold" transform="rotate(-90 17.5 60.774)"><tspan x="-28.7" y="63.278">likes birds</tspan></text></g><path id="Rectangle-4" fill="#FFF9EB" stroke="#BCA68E" stroke-width="4" d="M109 157h135v50H109z"/><path id="Rectangle-8" stroke="#BCA68E" stroke-width="3" d="M164.5 177.5h25v10h-25z"/><text id="user" fill="#EE6B47" font-family="OpenSans-Bold, Open Sans" font-size="14" font-weight="bold"><tspan x="5" y="187">user</tspan></text><path id="Line-8" fill="#EE6B47" fill-rule="nonzero" d="M71.5 173l19 9.5-19 9.5v-8H45v-3h26.5v-8z"/></g></g></svg>