<svg xmlns="http://www.w3.org/2000/svg" width="359" height="143" viewBox="0 0 359 143"><defs><style>@import url(https://fonts.googleapis.com/css?family=Open+Sans:bold,italic,bolditalic%7CPT+Mono);@font-face{font-family:&apos;PT Mono&apos;;font-weight:700;font-style:normal;src:local(&apos;PT MonoBold&apos;),url(/font/PTMonoBold.woff2) format(&apos;woff2&apos;),url(/font/PTMonoBold.woff) format(&apos;woff&apos;),url(/font/PTMonoBold.ttf) format(&apos;truetype&apos;)}</style></defs><g id="combined" fill="none" fill-rule="evenodd" stroke="none" stroke-width="1"><g id="variable-copy-value.svg"><g id="noun_1211_cc-+-Message" transform="translate(11 6)"><g id="noun_1211_cc"><path id="Shape" fill="#E8C48F" d="M17 37.196h112.558v42.95c0 .373-.079.862-.279 1.294-.2.433-16.574 35.56-16.574 35.56V62.64l16.854-25.444L148 9H35.44L17 37.196zM17 66V38L2 66"/><g id="Rectangle-5-+-&quot;World!&quot;" transform="translate(15)"><path id="Rectangle-5" fill="#FFF9EB" stroke="#8A704D" stroke-width="2" d="M18.861 1.809L2 17.533l53.14 56.986L72 58.794 18.861 1.81z"/><text id="&quot;Hello!&quot;" fill="#8A704D" font-family="OpenSans-Bold, Open Sans" font-size="14" font-weight="bold" transform="rotate(47 38.202 38.946)"><tspan x="2.822" y="43.482">&quot;Hello!&quot;</tspan></text></g><path id="Shape" fill="#E8C48F" d="M0 68v54.73c0 3.42 1.484 5.27 4.387 5.27h100.086c3.122 0 5.527-2.548 5.527-3.476V68H0z"/></g><text id="message" fill="#FFF" font-family="OpenSans-Bold, Open Sans" font-size="18" font-weight="bold"><tspan x="17" y="105">message</tspan></text></g><g id="Group" transform="translate(210 6)"><path id="Shape" fill="#E8C48F" d="M17 37.196h113.417v42.95c0 .373-.08.862-.28 1.294-.202.433-16.702 35.56-16.702 35.56V62.64l16.983-25.444L149 9H35.582L17 37.196z"/><path id="Shape" fill="#E8C48F" d="M18 66V38L2 66"/><g id="Rectangle-5-+-&quot;World!&quot;" transform="translate(15)"><path id="Rectangle-5" fill="#FFF9EB" stroke="#8A704D" stroke-width="2" d="M19.117 1.8l-17.1 15.734 53.866 56.994 17.1-15.734L19.118 1.799z"/><text id="&quot;Hello!&quot;" fill="#8A704D" font-family="OpenSans-Bold, Open Sans" font-size="14" font-weight="bold" transform="rotate(47 38.162 37.693)"><tspan x="2.782" y="42.23">&quot;Hello!&quot;</tspan></text></g><path id="Shape" fill="#E8C48F" d="M0 68v54.73c0 3.42 1.497 5.27 4.427 5.27h100.996c3.15 0 5.577-2.548 5.577-3.476V68H0z"/><text id="phrase" fill="#FFF" font-family="OpenSans-Bold, Open Sans" font-size="18" font-weight="bold"><tspan x="25" y="105">phrase</tspan></text></g></g></g></svg>