<?xml version="1.0" encoding="UTF-8"?>
<svg width="599px" height="260px" viewBox="0 0 599 260" version="1.1" xmlns="http://www.w3.org/2000/svg" xmlns:xlink="http://www.w3.org/1999/xlink">
    <!-- Generator: sketchtool 55.2 (78181) - https://sketchapp.com -->
    <title>variable-copy-reference.svg</title>
    <desc>Created with sketchtool.</desc>
    <g id="combined" stroke="none" stroke-width="1" fill="none" fill-rule="evenodd">
        <g id="variable-copy-reference.svg">
            <g id="Group" transform="translate(11.000000, 125.000000)">
                <g id="noun_1211_cc" fill="#E8C48F">
                    <path d="M17,28.1960457 L129.557785,28.1960457 L129.557785,71.1456641 C129.557785,71.5185728 129.479295,72.0083855 129.279367,72.4404861 C129.07944,72.8725868 112.704625,108 112.704625,108 L112.704625,53.6396695 L129.559266,28.1960457 L148,0 L35.4407339,0 L17,28.1960457 L17,28.1960457 Z" id="Shape"></path>
                    <polyline id="Shape" points="17 57 17 29 2 57"></polyline>
                    <path d="M0,59 L0,113.729971 C0,117.150501 1.4836395,119 4.38712201,119 L104.473443,119 C107.59502,119 110,116.4521 110,115.524372 L110,59 L0,59 L0,59 Z" id="Shape"></path>
                </g>
                <text id="user" font-family="OpenSans-SemiBold, Open Sans" font-size="18" font-weight="500" fill="#FFFFFF">
                    <tspan x="35" y="96">user</tspan>
                </text>
                <g id="Rectangle-4-+-Shape-3" transform="translate(104.000000, 15.000000)">
                    <rect id="Rectangle-4" fill="#FFFFFF" x="0" y="19" width="44" height="6"></rect>
                    <path d="M7.85404284,20.3219293 L21.6330289,6.84634915 C23.2462881,5.57160629 26.8181947,2.41895793 25.2049355,1.14440364 C23.5916764,-0.131093502 22.5405033,0.671996159 20.9296292,1.9474933 L2.43143016,20.3219299 C0.818170998,21.5966728 0.818171047,23.1666601 2.43143021,24.4412144 C2.43143021,24.4412144 23.9137313,44.5088763 25.2049351,44.5088763 C28.2099969,44.5088763 27.882164,42.6878208 26.2689048,41.4132665 L7.8540433,23.5870439 L42.8425234,23.5870439 L66.2240642,23.5870439 L85.0283644,23.5870439 C87.3089653,23.5870439 88.7785142,23.8657087 88.7785142,22.0625887 C88.7785142,20.2594687 87.3089645,20.3219293 85.0283637,20.3219293 L7.85404284,20.3219293 Z" id="Shape-3" fill="#EE6B47" transform="translate(45.000000, 22.504438) scale(-1, 1) translate(-45.000000, -22.504438) "></path>
                </g>
                <g id="Rectangle-3-+-Shape" transform="translate(46.000000, 16.000000)">
                    <rect id="Rectangle-3" fill="#FFFFFF" x="0" y="0" width="47" height="37"></rect>
                    <path d="M44,33.7718421 L4,33.7718421 L4,4 L44,4 L44,33.7718421 L44,33.7718421 Z M8.7332,31.0177632 L39.2664,31.0177632 L29.2192,20.8671053 L27.3168,22.7567105 C26.4932,23.5690789 25.314,24.0340789 24.0748,24.0340789 C24.068,24.0340789 24.0608,24.0328947 24.054,24.0328947 C22.81,24.0277632 21.6272,23.5528947 20.808,22.7286842 L18.874,20.7964474 L8.7332,31.0177632 L8.7332,31.0177632 Z M6.7908,8.72618421 L6.7908,29.0397368 L16.9128,18.8381579 L6.7908,8.72618421 L6.7908,8.72618421 Z M31.1856,18.9131579 L41.2092,29.0385526 L41.2092,8.95434211 L31.1856,18.9131579 L31.1856,18.9131579 Z M8.7396,6.75486842 L22.7968,20.7968421 C23.1012,21.1023684 23.5632,21.2776316 24.0664,21.2788158 L24.0748,21.2788158 C24.5708,21.2788158 25.0432,21.1059211 25.3392,20.8122368 L39.4888,6.75486842 L8.7396,6.75486842 L8.7396,6.75486842 Z" id="Shape" fill="#EE6B47"></path>
                </g>
            </g>
            <g id="noun_1211_cc" transform="translate(418.000000, 125.000000)" fill="#E8C48F">
                <path d="M17,28.1960457 L129.557785,28.1960457 L129.557785,71.1456641 C129.557785,71.5185728 129.479295,72.0083855 129.279367,72.4404861 C129.07944,72.8725868 112.704625,108 112.704625,108 L112.704625,53.6396695 L129.559266,28.1960457 L148,0 L35.4407339,0 L17,28.1960457 L17,28.1960457 Z" id="Shape"></path>
                <polyline id="Shape" points="17 57 17 29 2 57"></polyline>
                <path d="M0,59 L0,113.729971 C0,117.150501 1.4836395,119 4.38712201,119 L104.473443,119 C107.59502,119 110,116.4521 110,115.524372 L110,59 L0,59 L0,59 Z" id="Shape"></path>
            </g>
            <text id="admin" font-family="OpenSans-SemiBold, Open Sans" font-size="18" font-weight="500" fill="#FFFFFF">
                <tspan x="446" y="221">admin</tspan>
            </text>
            <g id="Rectangle-4-+-Shape-3" transform="translate(406.500000, 162.500000) scale(-1, 1) translate(-406.500000, -162.500000) translate(362.000000, 140.000000)">
                <rect id="Rectangle-4" fill="#FFFFFF" x="0" y="19" width="44" height="6"></rect>
                <path d="M7.85404284,20.3219293 L21.6330289,6.84634915 C23.2462881,5.57160629 26.8181947,2.41895793 25.2049355,1.14440364 C23.5916764,-0.131093502 22.5405033,0.671996159 20.9296292,1.9474933 L2.43143016,20.3219299 C0.818170998,21.5966728 0.818171047,23.1666601 2.43143021,24.4412144 C2.43143021,24.4412144 23.9137313,44.5088763 25.2049351,44.5088763 C28.2099969,44.5088763 27.882164,42.6878208 26.2689048,41.4132665 L7.8540433,23.5870439 L42.8425234,23.5870439 L66.2240642,23.5870439 L85.0283644,23.5870439 C87.3089653,23.5870439 88.7785142,23.8657087 88.7785142,22.0625887 C88.7785142,20.2594687 87.3089645,20.3219293 85.0283637,20.3219293 L7.85404284,20.3219293 Z" id="Shape-3" fill="#EE6B47" transform="translate(45.000000, 22.504438) scale(-1, 1) translate(-45.000000, -22.504438) "></path>
            </g>
            <g id="Rectangle-3-+-Shape" transform="translate(464.000000, 141.000000)">
                <rect id="Rectangle-3" fill="#FFFFFF" x="0" y="0" width="47" height="37"></rect>
                <path d="M44,33.7718421 L4,33.7718421 L4,4 L44,4 L44,33.7718421 L44,33.7718421 Z M8.7332,31.0177632 L39.2664,31.0177632 L29.2192,20.8671053 L27.3168,22.7567105 C26.4932,23.5690789 25.314,24.0340789 24.0748,24.0340789 C24.068,24.0340789 24.0608,24.0328947 24.054,24.0328947 C22.81,24.0277632 21.6272,23.5528947 20.808,22.7286842 L18.874,20.7964474 L8.7332,31.0177632 L8.7332,31.0177632 Z M6.7908,8.72618421 L6.7908,29.0397368 L16.9128,18.8381579 L6.7908,8.72618421 L6.7908,8.72618421 Z M31.1856,18.9131579 L41.2092,29.0385526 L41.2092,8.95434211 L31.1856,18.9131579 L31.1856,18.9131579 Z M8.7396,6.75486842 L22.7968,20.7968421 C23.1012,21.1023684 23.5632,21.2776316 24.0664,21.2788158 L24.0748,21.2788158 C24.5708,21.2788158 25.0432,21.1059211 25.3392,20.8122368 L39.4888,6.75486842 L8.7396,6.75486842 L8.7396,6.75486842 Z" id="Shape" fill="#EE6B47"></path>
            </g>
            <path d="M235.93675,125 L219.270083,145 L349.729917,145 L333.06325,125 L235.93675,125 Z" id="Rectangle-4-Copy" stroke="#D1C4B1" stroke-width="4" fill="#D1C4B1" opacity="0.5"></path>
            <g id="Group-2" transform="translate(265.000000, 18.000000)">
                <g id="Group">
                    <rect id="Rectangle-7" fill="#FFFFFF" x="0" y="0" width="32" height="124"></rect>
                    <path d="M0,0 L32,0 L32,124 L0,124 L0,0 Z M16.5,115 C20.6421356,115 24,111.642136 24,107.5 C24,103.357864 20.6421356,100 16.5,100 C12.3578644,100 9,103.357864 9,107.5 C9,111.642136 12.3578644,115 16.5,115 Z M4,5 L4,92 L28,92 L28,5 L4,5 Z" id="Combined-Shape" fill="#E8C48F"></path>
                </g>
                <text id="name" transform="translate(15.500000, 47.500000) rotate(-90.000000) translate(-15.500000, -47.500000) " font-family="PTMono-Bold, PT Mono" font-size="16" font-weight="bold" fill="#EE6B47">
                    <tspan x="-3.7" y="52.5">name</tspan>
                </text>
            </g>
            <rect id="Rectangle-4" stroke="#BCA68E" stroke-width="4" fill="#FFF9EB" x="217" y="139" width="135" height="50"></rect>
            <rect id="Rectangle-8" stroke="#BCA68E" stroke-width="3" x="272.5" y="159.5" width="25" height="10"></rect>
        </g>
    </g>
</svg>