<svg xmlns="http://www.w3.org/2000/svg" width="458" height="260" viewBox="0 0 458 260"><defs><style>@import url(https://fonts.googleapis.com/css?family=Open+Sans:bold,italic,bolditalic%7CPT+Mono);@font-face{font-family:&apos;PT Mono&apos;;font-weight:700;font-style:normal;src:local(&apos;PT MonoBold&apos;),url(/font/PTMonoBold.woff2) format(&apos;woff2&apos;),url(/font/PTMonoBold.woff) format(&apos;woff&apos;),url(/font/PTMonoBold.ttf) format(&apos;truetype&apos;)}</style></defs><g id="combined" fill="none" fill-rule="evenodd" stroke="none" stroke-width="1"><g id="decorator-makecaching-wrapper.svg"><g id="function-cachingDeco" fill-rule="nonzero" transform="translate(11 14)"><path id="function" fill="#1C85B5" d="M6.638 1.627c-.625-.132-1.162-.198-1.614-.198-1.07 0-1.606.56-1.606 1.681v1.203h3.008v.992H3.418v4.874h-1.21V5.305H0v-.992h2.208V3.18c0-1.828.952-2.741 2.857-2.741.474 0 .998.054 1.573.164v1.025zm7.123 8.552h-1.067l-.04-1.108a5.54 5.54 0 01-.585.592 3.021 3.021 0 01-.55.379 2.119 2.119 0 01-.55.202 2.84 2.84 0 01-.585.058c-.707 0-1.24-.208-1.6-.622-.36-.415-.54-1.042-.54-1.88V3.315h1.19v4.39c0 1.052.396 1.578 1.189 1.578.146 0 .288-.021.427-.065.14-.043.285-.118.438-.225.152-.107.317-.252.492-.434.175-.183.373-.413.591-.69V3.314h1.19v6.864zm2.18-6.864h1.06l.048 1.108c.2-.237.394-.434.58-.591.188-.158.371-.284.551-.38a2.06 2.06 0 01.55-.202c.187-.038.381-.058.582-.058.706 0 1.24.209 1.603.626.362.417.543 1.045.543 1.883v4.478h-1.19V5.797c0-.538-.1-.936-.3-1.193-.2-.257-.5-.386-.896-.386-.146 0-.288.021-.427.065a1.557 1.557 0 00-.434.225c-.15.107-.313.252-.489.434-.175.183-.372.41-.591.684v4.553h-1.19V3.315zm13.03 6.61c-.31.12-.628.207-.954.264a5.845 5.845 0 01-1.008.085c-1.085 0-1.92-.294-2.506-.881-.585-.588-.878-1.447-.878-2.578 0-.542.084-1.034.253-1.476.169-.442.406-.82.71-1.135.306-.314.67-.557 1.095-.728.423-.17.89-.256 1.401-.256.355 0 .688.025.998.075.31.05.606.132.889.246v1.135a3.77 3.77 0 00-.906-.339 4.248 4.248 0 00-.954-.106c-.305 0-.593.059-.864.175-.272.116-.51.283-.715.502a2.38 2.38 0 00-.485.8c-.119.314-.178.67-.178 1.066 0 .83.202 1.45.605 1.863.403.413.963.619 1.678.619a3.897 3.897 0 001.818-.438v1.108zm7.895.158a5.793 5.793 0 01-.834.147 8.52 8.52 0 01-.875.044c-.861 0-1.504-.194-1.928-.584-.423-.39-.635-.988-.635-1.794V4.313h-1.921v-.998h1.92V1.43l1.19-.308v2.194h3.083v.998h-3.083V7.8c0 .492.131.86.393 1.104.262.244.649.366 1.159.366.219 0 .458-.018.718-.052.26-.034.53-.087.813-.16v1.025zM41.371 4.3h-2.03v-.985h3.233v5.873h2.044v.99h-5.503v-.99h2.256V4.3zm.417-3.862c.132 0 .255.023.37.071a.893.893 0 01.297.202.919.919 0 01.27.663.96.96 0 01-.27.663.893.893 0 01-.298.202.944.944 0 01-.369.072.944.944 0 01-.37-.072.893.893 0 01-.296-.202.96.96 0 01-.27-.663.919.919 0 01.27-.663.893.893 0 01.297-.202.944.944 0 01.37-.072zm10.917 6.254a4.55 4.55 0 01-.226 1.467c-.15.444-.366.825-.649 1.141a2.913 2.913 0 01-1.032.739 3.447 3.447 0 01-1.381.263c-.492 0-.933-.077-1.323-.23a2.617 2.617 0 01-.991-.673 2.98 2.98 0 01-.622-1.1c-.144-.438-.215-.941-.215-1.51 0-.534.075-1.02.225-1.46.15-.44.367-.818.65-1.135a2.913 2.913 0 011.032-.738 3.447 3.447 0 011.38-.264c.493 0 .934.077 1.323.23.39.152.72.375.992.67.27.293.478.659.622 1.096.143.438.215.94.215 1.504zm-1.217.055c0-.424-.046-.794-.14-1.11a2.237 2.237 0 00-.4-.794 1.65 1.65 0 00-.632-.478 2.077 2.077 0 00-.83-.16c-.356 0-.66.069-.913.208-.253.139-.46.324-.622.557a2.4 2.4 0 00-.356.81 4.06 4.06 0 00-.113.967c0 .424.047.795.14 1.114.094.32.227.585.4.797.174.212.383.371.63.478.245.107.523.16.833.16.356 0 .66-.069.913-.208.253-.139.46-.324.622-.557a2.4 2.4 0 00.355-.81 4.09 4.09 0 00.113-.974zm2.94-3.432h1.06l.047 1.108c.2-.237.394-.434.581-.591.187-.158.37-.284.55-.38a2.06 2.06 0 01.55-.202c.188-.038.381-.058.582-.058.706 0 1.24.209 1.603.626.362.417.543 1.045.543 1.883v4.478h-1.19V5.797c0-.538-.1-.936-.3-1.193-.2-.257-.499-.386-.895-.386-.146 0-.289.021-.428.065a1.557 1.557 0 00-.434.225c-.15.107-.313.252-.489.434-.175.183-.372.41-.59.684v4.553h-1.19V3.315z"/><path id="cachingDecorator" fill="#181717" d="M75.154 9.926c-.31.118-.627.206-.953.263a5.845 5.845 0 01-1.009.085c-1.084 0-1.92-.294-2.505-.881-.586-.588-.878-1.447-.878-2.578 0-.542.084-1.034.253-1.476.168-.442.405-.82.71-1.135.306-.314.67-.557 1.094-.728.424-.17.891-.256 1.402-.256.355 0 .688.025.998.075.31.05.606.132.888.246v1.135a3.77 3.77 0 00-.905-.339 4.248 4.248 0 00-.954-.106c-.305 0-.594.059-.865.175-.271.116-.51.283-.714.502a2.38 2.38 0 00-.486.8c-.118.314-.177.67-.177 1.066 0 .83.201 1.45.605 1.863.403.413.962.619 1.678.619a3.897 3.897 0 001.818-.438v1.108zm6.775.253l-.028-.923c-.373.369-.753.636-1.138.8-.385.164-.79.246-1.213.246-.392 0-.727-.05-1.005-.15a1.883 1.883 0 01-.687-.414 1.603 1.603 0 01-.397-.619 2.289 2.289 0 01-.126-.772c0-.688.256-1.227.769-1.617.513-.39 1.27-.584 2.273-.584h1.422v-.602c0-.406-.13-.73-.39-.974s-.656-.366-1.19-.366c-.387 0-.768.043-1.144.13-.376.087-.765.21-1.166.37V3.63a7.36 7.36 0 011.087-.3 7.6 7.6 0 01.643-.1c.223-.025.449-.038.676-.038.415 0 .789.046 1.122.137.332.091.614.23.844.417.23.187.406.422.53.704.123.283.184.615.184.998v4.73H81.93zm-.13-3.124h-1.51c-.297 0-.552.03-.767.089-.214.059-.39.143-.526.252-.137.11-.238.24-.304.394-.066.152-.1.324-.1.516 0 .132.021.258.062.38.041.12.107.227.199.32.09.094.21.168.355.223.146.054.324.082.533.082.274 0 .587-.084.94-.25.353-.166.726-.43 1.118-.79V7.055zm8.75 2.87c-.31.12-.628.207-.954.264a5.845 5.845 0 01-1.008.085c-1.085 0-1.92-.294-2.505-.881-.586-.588-.879-1.447-.879-2.578 0-.542.084-1.034.253-1.476.169-.442.406-.82.711-1.135.305-.314.67-.557 1.094-.728.424-.17.89-.256 1.401-.256.356 0 .688.025.998.075.31.05.606.132.889.246v1.135a3.77 3.77 0 00-.906-.339 4.248 4.248 0 00-.954-.106c-.305 0-.593.059-.864.175-.271.116-.51.283-.715.502a2.38 2.38 0 00-.485.8c-.118.314-.178.67-.178 1.066 0 .83.202 1.45.605 1.863.404.413.963.619 1.678.619a3.897 3.897 0 001.818-.438v1.108zm7.882.254h-1.19V5.797c0-.529-.099-.924-.297-1.186-.198-.262-.482-.393-.851-.393-.16 0-.309.021-.448.065a1.557 1.557 0 00-.434.225 3.73 3.73 0 00-.492.434c-.178.183-.383.41-.615.684v4.553h-1.19V.519h1.19v2.796l-.041 1.08c.186-.223.37-.41.55-.563.18-.153.36-.277.54-.373.18-.096.363-.164.55-.205.187-.041.38-.062.581-.062.684 0 1.212.209 1.586.626.374.417.56 1.045.56 1.883v4.478zm4.518-5.88h-2.03v-.984h3.233v5.873h2.044v.99h-5.503v-.99h2.256V4.3zm.417-3.862c.132 0 .255.024.37.072a.893.893 0 01.297.202.919.919 0 01.27.663.96.96 0 01-.27.663.893.893 0 01-.298.202.944.944 0 01-.369.072.944.944 0 01-.369-.072.893.893 0 01-.297-.202.96.96 0 01-.27-.663.919.919 0 01.27-.663.893.893 0 01.297-.202.944.944 0 01.37-.072zm4.943 2.878h1.06l.047 1.108c.2-.237.394-.434.581-.591.187-.158.37-.284.55-.38a2.06 2.06 0 01.55-.202c.188-.038.381-.058.582-.058.706 0 1.24.209 1.603.626.362.417.543 1.045.543 1.883v4.478h-1.19V5.797c0-.538-.1-.936-.3-1.193-.2-.257-.5-.386-.896-.386-.145 0-.288.021-.427.065a1.557 1.557 0 00-.434.225c-.15.107-.313.252-.489.434-.175.183-.372.41-.591.684v4.553h-1.19V3.315zm12.64.971c.127.16.226.345.297.557.07.212.106.441.106.687 0 .356-.065.68-.195.974-.13.294-.314.546-.55.756a2.54 2.54 0 01-.852.489c-.33.116-.693.174-1.09.174-.287 0-.556-.03-.807-.092a2.064 2.064 0 01-.594-.23c-.087.128-.16.249-.22.363a.817.817 0 00-.088.383c0 .173.083.316.25.43.166.114.386.176.66.185l1.804.068c.342.01.657.053.947.13.29.078.537.19.745.335.207.146.369.326.485.54.116.214.174.463.174.745 0 .306-.066.595-.198.868a1.985 1.985 0 01-.612.722c-.275.207-.625.372-1.049.495-.424.123-.927.185-1.51.185-.557 0-1.03-.045-1.42-.133-.389-.09-.709-.212-.96-.37a1.49 1.49 0 01-.546-.56 1.51 1.51 0 01-.171-.715c0-.332.077-.624.232-.875.155-.25.394-.492.718-.724a1.133 1.133 0 01-.52-.475 1.322 1.322 0 01-.164-.632c0-.297.07-.568.209-.814.139-.246.304-.479.495-.697a3.57 3.57 0 01-.229-.308 1.91 1.91 0 01-.28-.7 2.536 2.536 0 01-.037-.462c0-.356.064-.68.194-.974.13-.294.313-.546.547-.756.235-.21.517-.372.848-.488.33-.117.696-.175 1.097-.175.169 0 .33.012.485.035.155.022.292.052.41.088h2.489v.971h-1.1zm-4.13 6.884c0 .323.169.56.506.707.337.149.807.223 1.408.223.379 0 .697-.035.954-.103.258-.068.465-.158.622-.27.157-.112.27-.24.338-.383.069-.143.103-.29.103-.44 0-.279-.114-.484-.342-.616-.228-.132-.576-.21-1.046-.232l-1.79-.062c-.151.1-.275.198-.373.294a1.291 1.291 0 00-.23.29 1.127 1.127 0 00-.115.295 1.309 1.309 0 00-.035.297zm.363-5.612c0 .218.036.419.109.601.073.182.175.337.308.465.132.128.288.227.468.297.18.071.38.106.598.106.237 0 .448-.04.632-.12.185-.079.34-.187.465-.324.126-.137.221-.294.287-.472.066-.177.1-.362.1-.553 0-.22-.037-.42-.11-.602a1.316 1.316 0 00-.308-.465 1.404 1.404 0 00-.468-.297c-.18-.07-.38-.106-.598-.106-.237 0-.448.04-.632.123-.185.082-.34.19-.465.325-.125.134-.221.29-.287.468-.066.178-.1.362-.1.554zm12.626.054c0 .429-.033.839-.1 1.23a4.724 4.724 0 01-.317 1.095 3.69 3.69 0 01-.568.919 3.22 3.22 0 01-.854.707c-.337.196-.73.348-1.176.455-.447.107-.955.16-1.524.16h-1.915V1.245h2.304c1.395 0 2.435.359 3.12 1.077.687.718 1.03 1.815 1.03 3.291zm-1.279.09c0-.634-.059-1.17-.177-1.607-.119-.438-.299-.791-.54-1.06a2.073 2.073 0 00-.91-.584c-.364-.121-.793-.181-1.285-.181h-1.046v6.856h.91c2.032 0 3.048-1.142 3.048-3.425zm8.668.683c0 .168-.002.31-.007.424a6.37 6.37 0 01-.02.32h-4.82c0 .703.197 1.242.588 1.618.392.376.958.564 1.696.564.2 0 .4-.008.601-.024.2-.016.395-.038.581-.065.187-.028.366-.058.537-.093.17-.034.33-.071.475-.112v.977a9.161 9.161 0 01-2.365.308c-.588 0-1.094-.08-1.518-.24a2.597 2.597 0 01-1.042-.693 2.857 2.857 0 01-.602-1.115 5.273 5.273 0 01-.195-1.493c0-.483.07-.94.209-1.37a3.44 3.44 0 01.608-1.136c.267-.325.594-.584.981-.776a2.94 2.94 0 011.32-.287c.478 0 .902.076 1.271.226.37.15.68.363.933.64.253.275.445.61.574 1.004.13.394.195.835.195 1.323zm-1.237-.171a2.593 2.593 0 00-.089-.838 1.763 1.763 0 00-.338-.652 1.576 1.576 0 00-.571-.428 1.916 1.916 0 00-.793-.153c-.26 0-.497.05-.711.15-.214.1-.399.242-.554.424a2.19 2.19 0 00-.376.656 3.026 3.026 0 00-.177.84h3.609zm8.47 3.712c-.31.118-.628.206-.954.263a5.845 5.845 0 01-1.008.085c-1.085 0-1.92-.294-2.506-.881-.585-.588-.878-1.447-.878-2.578 0-.542.084-1.034.253-1.476.169-.442.406-.82.71-1.135.306-.314.67-.557 1.095-.728.423-.17.89-.256 1.401-.256.355 0 .688.025.998.075.31.05.606.132.889.246v1.135a3.77 3.77 0 00-.906-.339 4.248 4.248 0 00-.954-.106c-.305 0-.593.059-.864.175-.272.116-.51.283-.715.502a2.38 2.38 0 00-.485.8c-.119.314-.178.67-.178 1.066 0 .83.202 1.45.605 1.863.403.413.963.619 1.678.619a3.897 3.897 0 001.818-.438v1.108zm8.34-3.234a4.55 4.55 0 01-.226 1.467c-.15.444-.367.825-.65 1.141a2.913 2.913 0 01-1.032.739 3.447 3.447 0 01-1.38.263c-.493 0-.934-.077-1.323-.23a2.617 2.617 0 01-.992-.673 2.98 2.98 0 01-.622-1.1c-.143-.438-.215-.941-.215-1.51 0-.534.075-1.02.226-1.46.15-.44.367-.818.65-1.135a2.913 2.913 0 011.031-.738 3.447 3.447 0 011.381-.264c.492 0 .933.077 1.323.23.39.152.72.375.991.67.271.293.479.659.622 1.096.144.438.216.94.216 1.504zm-1.217.055c0-.424-.047-.794-.14-1.11a2.237 2.237 0 00-.4-.794 1.65 1.65 0 00-.633-.478 2.077 2.077 0 00-.83-.16c-.356 0-.66.069-.913.208-.253.139-.46.324-.622.557a2.4 2.4 0 00-.355.81 4.06 4.06 0 00-.113.967c0 .424.047.795.14 1.114.093.32.227.585.4.797.173.212.383.371.629.478.246.107.524.16.834.16.355 0 .66-.069.912-.208.253-.139.46-.324.622-.557a2.4 2.4 0 00.356-.81 4.09 4.09 0 00.113-.974zm3.22-3.432h1.086l.035 1.265c.405-.488.805-.84 1.2-1.06a2.436 2.436 0 011.192-.328c.711 0 1.25.23 1.617.69.367.461.536 1.145.51 2.052h-1.204c.014-.602-.074-1.038-.263-1.31-.19-.27-.466-.406-.83-.406-.16 0-.32.028-.483.085a1.947 1.947 0 00-.499.274 4.47 4.47 0 00-.543.482 8.898 8.898 0 00-.615.71v4.41h-1.204V3.315zm11.826 6.864l-.028-.923c-.373.369-.753.636-1.138.8-.385.164-.79.246-1.213.246-.392 0-.727-.05-1.005-.15a1.883 1.883 0 01-.687-.414 1.603 1.603 0 01-.397-.619 2.289 2.289 0 01-.126-.772c0-.688.256-1.227.769-1.617.513-.39 1.27-.584 2.273-.584h1.422v-.602c0-.406-.13-.73-.39-.974s-.656-.366-1.19-.366c-.387 0-.768.043-1.144.13-.376.087-.765.21-1.166.37V3.63a7.36 7.36 0 011.087-.3 7.6 7.6 0 01.643-.1c.223-.025.448-.038.676-.038.415 0 .789.046 1.121.137.333.091.615.23.845.417.23.187.406.422.53.704.123.283.184.615.184.998v4.73h-1.066zm-.13-3.124h-1.511c-.296 0-.551.03-.766.089-.214.059-.39.143-.526.252-.137.11-.238.24-.304.394-.066.152-.1.324-.1.516 0 .132.021.258.062.38.041.12.107.227.198.32.092.094.21.168.356.223.146.054.323.082.533.082.274 0 .587-.084.94-.25.353-.166.726-.43 1.118-.79V7.055zm8.948 3.028a5.793 5.793 0 01-.834.147 8.52 8.52 0 01-.875.044c-.861 0-1.504-.194-1.928-.584-.424-.39-.635-.988-.635-1.794V4.313h-1.921v-.998h1.92V1.43l1.19-.308v2.194h3.083v.998h-3.083V7.8c0 .492.131.86.393 1.104.262.244.648.366 1.159.366.218 0 .458-.018.718-.052.26-.034.53-.087.813-.16v1.025zm8.142-3.39a4.55 4.55 0 01-.226 1.466c-.15.444-.367.825-.65 1.141a2.913 2.913 0 01-1.032.739 3.447 3.447 0 01-1.38.263c-.493 0-.934-.077-1.323-.23a2.617 2.617 0 01-.991-.673 2.98 2.98 0 01-.623-1.1c-.143-.438-.215-.941-.215-1.51 0-.534.075-1.02.226-1.46.15-.44.367-.818.65-1.135a2.913 2.913 0 011.031-.738 3.447 3.447 0 011.381-.264c.492 0 .933.077 1.323.23.39.152.72.375.991.67.271.293.479.659.622 1.096.144.438.216.94.216 1.504zm-1.217.054c0-.424-.047-.794-.14-1.11a2.237 2.237 0 00-.4-.794 1.65 1.65 0 00-.633-.478 2.077 2.077 0 00-.83-.16c-.356 0-.66.069-.913.208-.253.139-.46.324-.622.557a2.4 2.4 0 00-.355.81 4.06 4.06 0 00-.113.967c0 .424.047.795.14 1.114.093.32.227.585.4.797.173.212.383.371.629.478.246.107.524.16.834.16.355 0 .66-.069.912-.208.253-.139.46-.324.623-.557a2.4 2.4 0 00.355-.81 4.09 4.09 0 00.113-.974zm3.22-3.432h1.086l.035 1.265c.405-.488.805-.84 1.2-1.06a2.436 2.436 0 011.192-.328c.711 0 1.25.23 1.617.69.367.461.537 1.145.51 2.052h-1.204c.014-.602-.074-1.038-.263-1.31-.19-.27-.466-.406-.83-.406-.16 0-.32.028-.483.085a1.947 1.947 0 00-.499.274 4.47 4.47 0 00-.543.482 8.898 8.898 0 00-.615.71v4.41h-1.203V3.315z"/><path id="(" fill="#7E7C7B" d="M197.087 13.05c-2.101-1.946-3.151-4.097-3.151-6.453 0-.552.055-1.102.167-1.651.112-.55.292-1.1.54-1.651a9.028 9.028 0 01.984-1.654c.408-.552.904-1.099 1.487-1.641l.69.704c-1.768 1.746-2.652 3.68-2.652 5.804 0 1.057.224 2.073.67 3.049.447.975 1.108 1.895 1.983 2.761l-.718.732z"/><path id="func" fill="#181717" d="M206.767 1.627c-.625-.132-1.163-.198-1.614-.198-1.07 0-1.606.56-1.606 1.681v1.203h3.008v.992h-3.008v4.874h-1.21V5.305h-2.208v-.992h2.208V3.18c0-1.828.952-2.741 2.857-2.741.474 0 .998.054 1.573.164v1.025zm7.123 8.552h-1.067l-.04-1.108a5.54 5.54 0 01-.585.592 3.021 3.021 0 01-.55.379 2.119 2.119 0 01-.55.202 2.84 2.84 0 01-.585.058c-.707 0-1.24-.208-1.6-.622-.36-.415-.54-1.042-.54-1.88V3.315h1.19v4.39c0 1.052.396 1.578 1.189 1.578.146 0 .288-.021.427-.065.14-.043.285-.118.438-.225.152-.107.316-.252.492-.434a9.32 9.32 0 00.591-.69V3.314h1.19v6.864zm2.18-6.864h1.06l.048 1.108c.2-.237.394-.434.58-.591.188-.158.371-.284.551-.38a2.06 2.06 0 01.55-.202c.187-.038.38-.058.581-.058.707 0 1.241.209 1.603.626.363.417.544 1.045.544 1.883v4.478h-1.19V5.797c0-.538-.1-.936-.3-1.193-.2-.257-.5-.386-.896-.386-.146 0-.288.021-.427.065a1.557 1.557 0 00-.434.225c-.15.107-.313.252-.489.434-.175.183-.372.41-.591.684v4.553h-1.19V3.315zm13.03 6.61c-.31.12-.628.207-.954.264a5.845 5.845 0 01-1.008.085c-1.085 0-1.92-.294-2.506-.881-.585-.588-.878-1.447-.878-2.578 0-.542.084-1.034.253-1.476.168-.442.405-.82.71-1.135.306-.314.67-.557 1.095-.728.423-.17.89-.256 1.4-.256.356 0 .689.025.999.075.31.05.606.132.889.246v1.135a3.77 3.77 0 00-.906-.339 4.248 4.248 0 00-.954-.106c-.305 0-.593.059-.865.175-.27.116-.509.283-.714.502a2.38 2.38 0 00-.485.8c-.119.314-.178.67-.178 1.066 0 .83.202 1.45.605 1.863.403.413.963.619 1.678.619a3.897 3.897 0 001.818-.438v1.108z"/><path id="){" fill="#7E7C7B" d="M232.866 0c2.101 1.946 3.152 4.11 3.152 6.494 0 .492-.05 1.003-.15 1.531-.101.529-.272 1.07-.514 1.624a9.296 9.296 0 01-.974 1.685c-.408.57-.921 1.142-1.541 1.716l-.69-.704c.888-.88 1.551-1.798 1.989-2.755.437-.957.656-1.96.656-3.008 0-2.17-.882-4.12-2.646-5.852l.718-.731zm19.031 12.981h-.505c-.88 0-1.534-.206-1.962-.618-.429-.413-.643-1.038-.643-1.877V8.135a2.18 2.18 0 00-.075-.598.978.978 0 00-.263-.445 1.224 1.224 0 00-.5-.277 2.706 2.706 0 00-.782-.095h-.294v-.95h.294c.333 0 .604-.028.813-.082.21-.055.374-.138.493-.25a.88.88 0 00.246-.427c.045-.173.068-.379.068-.615v-1.62c0-.383.046-.729.137-1.036.091-.308.24-.57.448-.786.207-.217.476-.383.806-.5.33-.116.735-.174 1.214-.174h.505v.957h-.403c-1.057 0-1.586.513-1.586 1.538v1.593c0 1.112-.48 1.739-1.442 1.88.97.096 1.456.72 1.456 1.873v2.338c0 1.044.524 1.565 1.572 1.565h.403v.957z"/><path id="let" fill="#1C85B5" d="M18.28 18.497h-2.031v-.977h3.233v8.668h2.044v.99h-5.503v-.99h2.256v-7.69zm11.156 4.888c0 .168-.003.31-.007.424a6.37 6.37 0 01-.02.32h-4.82c0 .703.196 1.242.588 1.618.392.376.957.564 1.695.564.2 0 .401-.008.602-.024.2-.016.394-.038.58-.065.188-.028.366-.058.537-.093.171-.034.33-.071.475-.112v.977a9.161 9.161 0 01-2.365.308c-.588 0-1.094-.08-1.517-.24a2.597 2.597 0 01-1.043-.693 2.857 2.857 0 01-.601-1.115 5.273 5.273 0 01-.195-1.493c0-.483.07-.94.208-1.37a3.44 3.44 0 01.609-1.136c.266-.325.593-.584.98-.776a2.94 2.94 0 011.32-.287c.478 0 .902.076 1.271.226.37.15.68.363.934.64.252.275.444.61.574 1.004.13.394.195.835.195 1.323zm-1.238-.171a2.593 2.593 0 00-.089-.838 1.763 1.763 0 00-.338-.652 1.576 1.576 0 00-.57-.428 1.916 1.916 0 00-.794-.153c-.26 0-.497.05-.71.15-.215.1-.4.242-.554.424a2.19 2.19 0 00-.376.656 3.026 3.026 0 00-.178.84h3.61zm8.668 3.869a5.793 5.793 0 01-.834.147 8.52 8.52 0 01-.875.044c-.861 0-1.504-.194-1.928-.584-.423-.39-.635-.988-.635-1.794v-3.583h-1.921v-.998h1.92V18.43l1.19-.308v2.194h3.083v.998h-3.083V24.8c0 .492.131.86.393 1.104.262.244.649.366 1.159.366.219 0 .458-.018.718-.052.26-.034.53-.087.813-.16v1.025z"/><path id="cache" fill="#181717" d="M52.063 26.926c-.31.118-.628.206-.954.263a5.845 5.845 0 01-1.008.085c-1.085 0-1.92-.294-2.506-.881-.585-.588-.878-1.447-.878-2.578 0-.542.084-1.034.253-1.476.168-.442.405-.82.71-1.135.306-.314.67-.557 1.094-.728.424-.17.891-.256 1.402-.256.355 0 .688.025.998.075.31.05.606.132.889.246v1.135a3.77 3.77 0 00-.906-.339 4.248 4.248 0 00-.954-.106c-.305 0-.593.059-.865.175-.27.116-.509.283-.714.502a2.38 2.38 0 00-.485.8c-.119.314-.178.67-.178 1.066 0 .83.202 1.45.605 1.863.403.413.963.619 1.678.619a3.897 3.897 0 001.818-.438v1.108zm6.774.253l-.027-.923c-.374.369-.754.636-1.139.8-.385.164-.79.246-1.213.246-.392 0-.727-.05-1.005-.15a1.883 1.883 0 01-.687-.414 1.603 1.603 0 01-.396-.619 2.289 2.289 0 01-.127-.772c0-.688.257-1.227.77-1.617.512-.39 1.27-.584 2.272-.584h1.422v-.602c0-.406-.13-.73-.39-.974s-.656-.366-1.19-.366c-.386 0-.768.043-1.144.13-.376.087-.765.21-1.166.37V20.63a7.36 7.36 0 011.087-.3 7.6 7.6 0 01.643-.1c.223-.025.449-.038.677-.038.414 0 .788.046 1.12.137.333.091.615.23.845.417.23.187.407.422.53.704.123.283.184.615.184.998v4.73h-1.066zm-.13-3.124h-1.51c-.297 0-.552.03-.766.089-.215.059-.39.143-.527.252-.136.11-.238.24-.304.394-.066.152-.099.324-.099.516 0 .132.02.258.062.38.04.12.107.227.198.32.09.094.21.168.355.223.146.054.324.082.533.082.274 0 .587-.084.94-.25.354-.166.726-.43 1.118-.79v-1.216zm8.75 2.87c-.31.12-.628.207-.954.264a5.845 5.845 0 01-1.008.085c-1.085 0-1.92-.294-2.505-.881-.586-.588-.879-1.447-.879-2.578 0-.542.085-1.034.253-1.476.169-.442.406-.82.711-1.135.306-.314.67-.557 1.094-.728.424-.17.89-.256 1.401-.256.356 0 .688.025.998.075.31.05.606.132.889.246v1.135a3.77 3.77 0 00-.906-.339 4.248 4.248 0 00-.953-.106c-.306 0-.594.059-.865.175-.271.116-.51.283-.714.502a2.38 2.38 0 00-.486.8c-.118.314-.178.67-.178 1.066 0 .83.202 1.45.605 1.863.404.413.963.619 1.679.619a3.897 3.897 0 001.818-.438v1.108zm7.882.254h-1.19v-4.382c0-.529-.099-.924-.297-1.186-.198-.262-.482-.393-.851-.393-.16 0-.309.021-.448.065a1.557 1.557 0 00-.434.225 3.73 3.73 0 00-.492.434c-.178.183-.383.41-.615.684v4.553h-1.19v-9.66h1.19v2.796l-.041 1.08c.187-.223.37-.41.55-.563.18-.153.36-.277.54-.373.18-.096.363-.164.55-.205.187-.041.38-.062.581-.062.684 0 1.213.209 1.586.626.374.417.56 1.045.56 1.883v4.478zm7.977-3.794c0 .168-.002.31-.006.424a6.37 6.37 0 01-.02.32h-4.82c0 .703.196 1.242.588 1.618.392.376.957.564 1.695.564.2 0 .401-.008.601-.024.201-.016.395-.038.582-.065.186-.028.365-.058.536-.093.171-.034.33-.071.475-.112v.977a9.161 9.161 0 01-2.365.308c-.588 0-1.094-.08-1.518-.24a2.597 2.597 0 01-1.042-.693 2.857 2.857 0 01-.602-1.115 5.273 5.273 0 01-.194-1.493c0-.483.07-.94.208-1.37a3.44 3.44 0 01.608-1.136c.267-.325.594-.584.981-.776a2.94 2.94 0 011.32-.287c.478 0 .902.076 1.271.226.37.15.68.363.933.64.253.275.445.61.575 1.004.13.394.194.835.194 1.323zm-1.237-.171a2.593 2.593 0 00-.089-.838 1.763 1.763 0 00-.338-.652 1.576 1.576 0 00-.57-.428 1.916 1.916 0 00-.794-.153c-.26 0-.497.05-.71.15-.215.1-.4.242-.555.424a2.19 2.19 0 00-.376.656 3.026 3.026 0 00-.177.84h3.61z"/><path id="=" fill="#DBAF88" d="M98.608 22.763H92.73v-1.005h5.88v1.005zm0 2.379H92.73v-1.005h5.88v1.005z"/><path id="new" fill="#1C85B5" d="M108.309 20.315h1.06l.047 1.108c.2-.237.394-.434.581-.591.187-.158.37-.284.55-.38a2.06 2.06 0 01.55-.202c.188-.038.381-.058.582-.058.706 0 1.24.209 1.603.626.362.417.543 1.045.543 1.883v4.478h-1.19v-4.382c0-.538-.1-.936-.3-1.193-.2-.257-.5-.386-.896-.386-.145 0-.288.021-.427.065a1.557 1.557 0 00-.434.225c-.15.107-.313.252-.489.434-.175.183-.372.41-.591.684v4.553h-1.19v-6.864zm13.494 3.07c0 .168-.003.31-.007.424a6.37 6.37 0 01-.02.32h-4.82c0 .703.196 1.242.588 1.618.392.376.957.564 1.695.564.2 0 .401-.008.602-.024.2-.016.394-.038.58-.065.188-.028.367-.058.537-.093.171-.034.33-.071.476-.112v.977a9.161 9.161 0 01-2.365.308c-.589 0-1.094-.08-1.518-.24a2.597 2.597 0 01-1.043-.693 2.857 2.857 0 01-.601-1.115 5.273 5.273 0 01-.195-1.493c0-.483.07-.94.208-1.37a3.44 3.44 0 01.609-1.136c.266-.325.593-.584.98-.776a2.94 2.94 0 011.32-.287c.479 0 .902.076 1.272.226.369.15.68.363.933.64.253.275.444.61.574 1.004.13.394.195.835.195 1.323zm-1.238-.171a2.593 2.593 0 00-.088-.838 1.763 1.763 0 00-.339-.652 1.576 1.576 0 00-.57-.428 1.916 1.916 0 00-.794-.153c-.26 0-.496.05-.71.15-.215.1-.4.242-.554.424a2.19 2.19 0 00-.376.656 3.026 3.026 0 00-.178.84h3.61zm9.496-2.899l-.999 6.864h-1.442l-.991-2.871-.198-.698-.226.739-.95 2.83h-1.401l-.992-6.864h1.162l.575 4.663.123 1.039.294-.91.998-3.083h.854l1.073 3.042.308.91.103-.964.533-4.697h1.176z"/><path id="Map" fill="#181717" d="M145.366 27.179h-1.19L144 21.607l-.075-2.14-.417 1.245-1.32 3.555h-.84l-1.258-3.418-.417-1.381-.027 2.235-.158 5.476h-1.148l.437-8.935h1.443l1.203 3.363.39 1.135.375-1.135 1.265-3.363h1.484l.43 8.935zm5.838 0l-.027-.923c-.374.369-.753.636-1.138.8-.386.164-.79.246-1.214.246-.392 0-.727-.05-1.005-.15a1.883 1.883 0 01-.687-.414 1.603 1.603 0 01-.396-.619 2.289 2.289 0 01-.127-.772c0-.688.257-1.227.77-1.617.512-.39 1.27-.584 2.272-.584h1.422v-.602c0-.406-.13-.73-.39-.974s-.656-.366-1.189-.366c-.387 0-.769.043-1.145.13-.376.087-.764.21-1.165.37V20.63a7.36 7.36 0 011.086-.3 7.6 7.6 0 01.643-.1c.223-.025.449-.038.677-.038.415 0 .788.046 1.12.137.334.091.615.23.845.417.23.187.407.422.53.704.123.283.185.615.185.998v4.73h-1.067zm-.13-3.124h-1.51c-.297 0-.552.03-.766.089-.214.059-.39.143-.527.252-.136.11-.238.24-.304.394-.066.152-.099.324-.099.516 0 .132.02.258.062.38.04.12.107.227.198.32.091.094.21.168.355.223.146.054.324.082.534.082.273 0 .586-.084.94-.25.353-.166.725-.43 1.117-.79v-1.216zm9.283-.431c0 .61-.085 1.144-.256 1.6-.17.455-.407.834-.707 1.134a2.9 2.9 0 01-1.067.677c-.41.15-.854.226-1.333.226-.219 0-.436-.012-.653-.034a4.952 4.952 0 01-.66-.117v2.871h-1.189v-9.666h1.06l.075 1.149c.342-.47.706-.799 1.094-.988.387-.19.806-.284 1.258-.284.391 0 .736.082 1.032.246.296.165.544.396.745.694.2.299.35.659.451 1.08.1.422.15.892.15 1.412zm-1.216.055c0-.36-.027-.69-.079-.991a2.586 2.586 0 00-.25-.773 1.37 1.37 0 00-.437-.502 1.104 1.104 0 00-.636-.182c-.15 0-.303.024-.458.072a1.857 1.857 0 00-.482.24 3.59 3.59 0 00-.526.444 7 7 0 00-.591.687v3.329c.218.091.449.163.69.215.242.053.479.079.711.079.643 0 1.146-.218 1.51-.653.365-.435.548-1.09.548-1.965z"/><path id="();" fill="#7E7C7B" d="M166.298 30.05c-2.101-1.946-3.152-4.097-3.152-6.453 0-.552.056-1.102.168-1.651.112-.55.292-1.1.54-1.651a9.028 9.028 0 01.984-1.654c.408-.552.904-1.099 1.487-1.641l.69.704c-1.768 1.746-2.652 3.68-2.652 5.804 0 1.057.224 2.073.67 3.049.447.975 1.108 1.895 1.983 2.761l-.718.732zm4.99-13.05c2.101 1.946 3.151 4.11 3.151 6.494 0 .492-.05 1.003-.15 1.531-.1.529-.271 1.07-.513 1.624a9.296 9.296 0 01-.974 1.685c-.408.57-.921 1.142-1.541 1.716l-.69-.704c.888-.88 1.551-1.798 1.989-2.755.437-.957.656-1.96.656-3.008 0-2.17-.882-4.12-2.646-5.852l.718-.731zm6.911 11.58c.233.01.458-.011.677-.061a2.02 2.02 0 00.578-.223c.166-.098.3-.22.4-.365a.86.86 0 00.15-.5.95.95 0 00-.1-.464 2.238 2.238 0 00-.221-.328 2.438 2.438 0 01-.223-.322.91.91 0 01-.099-.458.915.915 0 01.222-.588.857.857 0 01.288-.211 1.12 1.12 0 01.875.017c.148.066.278.167.39.304.11.137.2.307.266.513.066.205.099.446.099.724 0 .378-.07.742-.209 1.09a2.657 2.657 0 01-.622.927c-.275.269-.62.483-1.032.642-.412.16-.892.24-1.439.24v-.937zm2.14-8.388c.141 0 .276.029.403.086a1.107 1.107 0 01.564.564.978.978 0 01.086.403.971.971 0 01-.086.407 1.12 1.12 0 01-.229.331 1.058 1.058 0 01-.738.308c-.146 0-.282-.027-.407-.082a1.07 1.07 0 01-.557-.557 1.006 1.006 0 01-.082-.407 1.058 1.058 0 01.308-.738 1.12 1.12 0 01.331-.23.971.971 0 01.407-.085z"/><path id="returnfunction" fill="#1C85B5" d="M16.222 54.315h1.087l.034 1.265c.405-.488.805-.84 1.2-1.06a2.436 2.436 0 011.192-.328c.711 0 1.25.23 1.617.69.367.461.537 1.145.51 2.052h-1.204c.014-.602-.074-1.038-.263-1.31-.19-.27-.466-.406-.83-.406-.16 0-.32.028-.482.085a1.947 1.947 0 00-.5.274 4.47 4.47 0 00-.543.482 8.898 8.898 0 00-.615.71v4.41h-1.203v-6.864zm13.214 3.07c0 .168-.003.31-.007.424a6.37 6.37 0 01-.02.32h-4.82c0 .703.196 1.242.588 1.618.392.376.957.564 1.695.564.2 0 .401-.008.602-.024.2-.016.394-.038.58-.065.188-.028.366-.058.537-.093.171-.034.33-.071.475-.112v.977a9.161 9.161 0 01-2.365.308c-.588 0-1.094-.08-1.517-.24a2.597 2.597 0 01-1.043-.693 2.857 2.857 0 01-.601-1.115 5.273 5.273 0 01-.195-1.493c0-.483.07-.94.208-1.37a3.44 3.44 0 01.609-1.136c.266-.325.593-.584.98-.776a2.94 2.94 0 011.32-.287c.478 0 .902.076 1.271.226.37.15.68.363.934.64.252.275.444.61.574 1.004.13.394.195.835.195 1.323zm-1.238-.171a2.593 2.593 0 00-.089-.838 1.763 1.763 0 00-.338-.652 1.576 1.576 0 00-.57-.428 1.916 1.916 0 00-.794-.153c-.26 0-.497.05-.71.15-.215.1-.4.242-.554.424a2.19 2.19 0 00-.376.656 3.026 3.026 0 00-.178.84h3.61zm8.668 3.869a5.793 5.793 0 01-.834.147 8.52 8.52 0 01-.875.044c-.861 0-1.504-.194-1.928-.584-.423-.39-.635-.988-.635-1.794v-3.583h-1.921v-.998h1.92V52.43l1.19-.308v2.194h3.083v.998h-3.083V58.8c0 .492.131.86.393 1.104.262.244.649.366 1.159.366.219 0 .458-.018.718-.052.26-.034.53-.087.813-.16v1.025zm7.684.096h-1.067l-.04-1.108a5.54 5.54 0 01-.585.592 3.021 3.021 0 01-.55.379 2.119 2.119 0 01-.55.202 2.84 2.84 0 01-.585.058c-.707 0-1.24-.208-1.6-.622-.36-.415-.54-1.042-.54-1.88v-4.485h1.19v4.39c0 1.052.396 1.578 1.19 1.578.145 0 .287-.021.426-.065.14-.043.285-.118.438-.225.153-.107.317-.252.492-.434a9.32 9.32 0 00.591-.69v-4.554h1.19v6.864zm2.46-6.864h1.088l.034 1.265c.405-.488.805-.84 1.2-1.06a2.436 2.436 0 011.192-.328c.711 0 1.25.23 1.617.69.367.461.537 1.145.51 2.052h-1.204c.014-.602-.074-1.038-.263-1.31-.189-.27-.466-.406-.83-.406-.16 0-.32.028-.482.085a1.947 1.947 0 00-.5.274 4.47 4.47 0 00-.543.482 8.898 8.898 0 00-.615.71v4.41H47.01v-6.864zm7.418 0h1.06l.047 1.108c.2-.237.394-.434.581-.591.187-.158.37-.284.55-.38a2.06 2.06 0 01.55-.202c.188-.038.381-.058.582-.058.706 0 1.24.209 1.603.626.362.417.543 1.045.543 1.883v4.478h-1.19v-4.382c0-.538-.1-.936-.3-1.193-.2-.257-.499-.386-.895-.386-.146 0-.289.021-.428.065a1.557 1.557 0 00-.434.225c-.15.107-.313.252-.489.434-.175.183-.372.41-.59.684v4.553h-1.19v-6.864zm21.485-1.688c-.624-.132-1.162-.198-1.613-.198-1.071 0-1.607.56-1.607 1.681v1.203h3.008v.992h-3.008v4.874h-1.21v-4.874h-2.208v-.992h2.208V54.18c0-1.828.953-2.742 2.858-2.742.474 0 .998.055 1.572.165v1.025zm7.123 8.552H81.97l-.041-1.108a5.54 5.54 0 01-.585.592 3.021 3.021 0 01-.55.379 2.119 2.119 0 01-.55.202 2.84 2.84 0 01-.585.058c-.706 0-1.24-.208-1.6-.622-.36-.415-.54-1.042-.54-1.88v-4.485h1.19v4.39c0 1.052.396 1.578 1.19 1.578.145 0 .288-.021.427-.065.139-.043.285-.118.437-.225.153-.107.317-.252.492-.434a9.32 9.32 0 00.592-.69v-4.554h1.19v6.864zm2.18-6.864h1.06l.048 1.108c.2-.237.394-.434.581-.591.187-.158.37-.284.55-.38a2.06 2.06 0 01.55-.202c.188-.038.381-.058.582-.058.706 0 1.24.209 1.603.626.362.417.543 1.045.543 1.883v4.478h-1.19v-4.382c0-.538-.1-.936-.3-1.193-.2-.257-.499-.386-.895-.386-.146 0-.289.021-.428.065a1.557 1.557 0 00-.434.225c-.15.107-.313.252-.488.434-.176.183-.373.41-.592.684v4.553h-1.19v-6.864zm13.03 6.61c-.31.12-.628.207-.954.264a5.845 5.845 0 01-1.008.085c-1.084 0-1.92-.294-2.505-.881-.586-.588-.879-1.447-.879-2.578 0-.542.085-1.034.253-1.476.169-.442.406-.82.711-1.135.306-.314.67-.557 1.094-.728.424-.17.891-.256 1.401-.256.356 0 .689.025.998.075.31.05.607.132.89.246v1.135a3.77 3.77 0 00-.907-.339 4.248 4.248 0 00-.953-.106c-.306 0-.594.059-.865.175-.271.116-.51.283-.714.502a2.38 2.38 0 00-.486.8c-.118.314-.177.67-.177 1.066 0 .83.201 1.45.605 1.863.403.413.962.619 1.678.619a3.897 3.897 0 001.818-.438v1.108zm7.896.158a5.793 5.793 0 01-.834.147 8.52 8.52 0 01-.875.044c-.862 0-1.504-.194-1.928-.584-.424-.39-.636-.988-.636-1.794v-3.583h-1.92v-.998h1.92V52.43l1.19-.308v2.194h3.083v.998h-3.083V58.8c0 .492.13.86.393 1.104.262.244.648.366 1.158.366.22 0 .458-.018.718-.052.26-.034.531-.087.814-.16v1.025zm4.504-5.783h-2.03v-.985h3.234v5.873h2.044v.99h-5.503v-.99h2.255V55.3zm.417-3.862c.133 0 .256.023.37.071a.893.893 0 01.297.202.919.919 0 01.27.663.96.96 0 01-.27.663.893.893 0 01-.297.202.944.944 0 01-.37.072.944.944 0 01-.369-.072.893.893 0 01-.297-.202.96.96 0 01-.27-.663.919.919 0 01.27-.663.893.893 0 01.297-.202.944.944 0 01.37-.072zm10.917 6.254a4.55 4.55 0 01-.225 1.467c-.15.444-.367.825-.65 1.141a2.913 2.913 0 01-1.032.739 3.447 3.447 0 01-1.38.263c-.493 0-.934-.077-1.323-.23a2.617 2.617 0 01-.992-.673 2.98 2.98 0 01-.622-1.1c-.143-.438-.215-.941-.215-1.51 0-.534.075-1.02.226-1.46.15-.44.366-.818.649-1.135a2.913 2.913 0 011.032-.738 3.447 3.447 0 011.381-.264c.492 0 .933.077 1.323.23.39.152.72.375.991.67.271.293.479.659.622 1.096.144.438.215.94.215 1.504zm-1.216.055c0-.424-.047-.794-.14-1.11a2.237 2.237 0 00-.4-.794 1.65 1.65 0 00-.633-.478 2.077 2.077 0 00-.83-.16c-.356 0-.66.069-.913.208-.253.139-.46.324-.622.557a2.4 2.4 0 00-.355.81 4.06 4.06 0 00-.113.967c0 .424.047.795.14 1.114.093.32.227.585.4.797.173.212.383.371.629.478.246.107.524.16.834.16.355 0 .66-.069.912-.208.253-.139.46-.324.622-.557a2.4 2.4 0 00.356-.81 4.09 4.09 0 00.113-.974zm2.94-3.432h1.059l.048 1.108c.2-.237.394-.434.58-.591.187-.158.37-.284.55-.38a2.06 2.06 0 01.551-.202c.187-.038.38-.058.581-.058.707 0 1.241.209 1.603.626.363.417.544 1.045.544 1.883v4.478h-1.19v-4.382c0-.538-.1-.936-.3-1.193-.201-.257-.5-.386-.896-.386-.146 0-.288.021-.427.065a1.557 1.557 0 00-.434.225c-.15.107-.314.252-.49.434-.175.183-.372.41-.59.684v4.553h-1.19v-6.864z"/><path id="(" fill="#7E7C7B" d="M135.509 64.05c-2.101-1.946-3.152-4.097-3.152-6.453 0-.552.056-1.102.168-1.651.112-.55.292-1.1.54-1.651a9.028 9.028 0 01.984-1.654c.408-.552.904-1.099 1.487-1.641l.69.704c-1.768 1.746-2.652 3.68-2.652 5.804 0 1.057.224 2.073.67 3.049.447.975 1.108 1.895 1.983 2.761l-.718.732z"/><path id="x" fill="#181717" d="M145.284 61.179h-1.579l-1.852-2.618-1.832 2.618h-1.539l2.66-3.446-2.537-3.418h1.525l1.805 2.64 1.77-2.64h1.47l-2.577 3.446z"/><path id="){" fill="#7E7C7B" d="M148.196 51c2.101 1.946 3.152 4.11 3.152 6.494 0 .492-.05 1.003-.15 1.531-.101.529-.272 1.07-.513 1.624a9.296 9.296 0 01-.975 1.685c-.407.57-.921 1.142-1.541 1.716l-.69-.704c.888-.88 1.551-1.798 1.989-2.755.437-.957.656-1.96.656-3.008 0-2.17-.882-4.12-2.645-5.852l.717-.731zm19.032 12.981h-.506c-.88 0-1.534-.206-1.962-.618-.429-.413-.643-1.038-.643-1.877v-2.351a2.18 2.18 0 00-.075-.598.978.978 0 00-.263-.445 1.224 1.224 0 00-.5-.277 2.706 2.706 0 00-.782-.095h-.294v-.95h.294c.333 0 .604-.028.814-.083.21-.054.373-.137.492-.249a.88.88 0 00.246-.427c.045-.173.068-.379.068-.615v-1.62c0-.383.046-.729.137-1.036.091-.308.24-.57.448-.786.207-.217.476-.383.806-.5.33-.116.735-.174 1.214-.174h.506v.957h-.404c-1.057 0-1.586.513-1.586 1.538v1.593c0 1.112-.48 1.739-1.442 1.88.97.096 1.456.72 1.456 1.873v2.338c0 1.044.524 1.565 1.572 1.565h.404v.957z"/><path id="if" fill="#1C85B5" d="M33.674 72.3h-2.03v-.985h3.233v5.873h2.044v.99h-5.503v-.99h2.256V72.3zm.417-3.862c.132 0 .255.023.369.071a.893.893 0 01.297.202.919.919 0 01.27.663.96.96 0 01-.27.663.893.893 0 01-.297.202.944.944 0 01-.37.072.944.944 0 01-.368-.072.893.893 0 01-.298-.202.96.96 0 01-.27-.663.919.919 0 01.27-.663.893.893 0 01.298-.202.944.944 0 01.369-.072zm11.033 1.189c-.624-.132-1.162-.198-1.613-.198-1.071 0-1.607.56-1.607 1.681v1.203h3.008v.992h-3.008v4.874h-1.21v-4.874h-2.208v-.992h2.208V71.18c0-1.828.953-2.742 2.858-2.742.474 0 .998.055 1.572.165v1.025z"/><path id="(" fill="#7E7C7B" d="M58.536 81.05c-2.1-1.946-3.151-4.097-3.151-6.453 0-.552.056-1.102.167-1.651.112-.55.292-1.1.54-1.651a9.028 9.028 0 01.985-1.654c.408-.552.903-1.099 1.486-1.641l.69.704c-1.767 1.746-2.651 3.68-2.651 5.804 0 1.057.223 2.073.67 3.049.446.975 1.107 1.895 1.982 2.761l-.718.732z"/><path id="cache" fill="#181717" d="M67.457 77.926c-.31.118-.628.206-.954.263a5.845 5.845 0 01-1.008.085c-1.085 0-1.92-.294-2.505-.881-.586-.588-.879-1.447-.879-2.578 0-.542.085-1.034.253-1.476.169-.442.406-.82.711-1.135.306-.314.67-.557 1.094-.728.424-.17.89-.256 1.401-.256.356 0 .688.025.998.075.31.05.606.132.889.246v1.135a3.77 3.77 0 00-.906-.339 4.248 4.248 0 00-.953-.106c-.306 0-.594.059-.865.175-.271.116-.51.283-.714.502a2.38 2.38 0 00-.486.8c-.118.314-.178.67-.178 1.066 0 .83.202 1.45.605 1.863.404.413.963.619 1.679.619a3.897 3.897 0 001.818-.438v1.108zm6.774.253l-.027-.923c-.374.369-.753.636-1.138.8-.385.164-.79.246-1.213.246-.392 0-.727-.05-1.005-.15a1.883 1.883 0 01-.687-.414 1.603 1.603 0 01-.397-.619 2.289 2.289 0 01-.126-.772c0-.688.256-1.227.769-1.617.512-.39 1.27-.584 2.273-.584h1.422v-.602c0-.406-.13-.73-.39-.974s-.656-.366-1.19-.366c-.387 0-.769.043-1.145.13-.376.087-.764.21-1.165.37V71.63a7.36 7.36 0 011.087-.3 7.6 7.6 0 01.642-.1c.224-.025.45-.038.677-.038.415 0 .789.046 1.121.137.333.091.614.23.844.417.23.187.407.422.53.704.123.283.185.615.185.998v4.73H74.23zm-.13-3.124h-1.51c-.296 0-.552.03-.766.089-.214.059-.39.143-.526.252-.137.11-.238.24-.304.394-.066.152-.1.324-.1.516 0 .132.021.258.062.38.041.12.107.227.198.32.091.094.21.168.356.223.146.054.323.082.533.082.273 0 .587-.084.94-.25.353-.166.726-.43 1.118-.79v-1.216zm8.75 2.87c-.31.12-.627.207-.953.264a5.845 5.845 0 01-1.008.085c-1.085 0-1.92-.294-2.506-.881-.585-.588-.878-1.447-.878-2.578 0-.542.084-1.034.253-1.476.168-.442.405-.82.71-1.135.306-.314.67-.557 1.094-.728.424-.17.891-.256 1.402-.256.355 0 .688.025.998.075.31.05.606.132.889.246v1.135a3.77 3.77 0 00-.906-.339 4.248 4.248 0 00-.954-.106c-.305 0-.593.059-.865.175-.27.116-.509.283-.714.502a2.38 2.38 0 00-.485.8c-.119.314-.178.67-.178 1.066 0 .83.202 1.45.605 1.863.403.413.963.619 1.678.619a3.897 3.897 0 001.818-.438v1.108zm7.882.254h-1.19v-4.382c0-.529-.098-.924-.296-1.186-.199-.262-.482-.393-.851-.393-.16 0-.31.021-.448.065a1.557 1.557 0 00-.434.225 3.73 3.73 0 00-.493.434c-.177.183-.382.41-.615.684v4.553h-1.19v-9.66h1.19v2.796l-.04 1.08c.186-.223.37-.41.55-.563.18-.153.36-.277.54-.373.18-.096.363-.164.55-.205.187-.041.38-.062.58-.062.685 0 1.213.209 1.587.626.374.417.56 1.045.56 1.883v4.478zm7.978-3.794c0 .168-.002.31-.007.424a6.37 6.37 0 01-.02.32h-4.82c0 .703.196 1.242.588 1.618.392.376.957.564 1.695.564.201 0 .402-.008.602-.024.2-.016.394-.038.581-.065.187-.028.366-.058.537-.093.17-.034.329-.071.475-.112v.977a9.161 9.161 0 01-2.365.308c-.588 0-1.094-.08-1.518-.24a2.597 2.597 0 01-1.042-.693 2.857 2.857 0 01-.602-1.115 5.273 5.273 0 01-.195-1.493c0-.483.07-.94.209-1.37a3.44 3.44 0 01.608-1.136c.267-.325.594-.584.981-.776a2.94 2.94 0 011.32-.287c.478 0 .902.076 1.27.226.37.15.681.363.934.64.253.275.444.61.574 1.004.13.394.195.835.195 1.323zm-1.237-.171a2.593 2.593 0 00-.09-.838 1.763 1.763 0 00-.338-.652 1.576 1.576 0 00-.57-.428 1.916 1.916 0 00-.793-.153c-.26 0-.497.05-.711.15-.215.1-.4.242-.554.424a2.19 2.19 0 00-.376.656 3.026 3.026 0 00-.178.84h3.61z"/><path id="." fill="#7E7C7B" d="M103.312 76.025a1.113 1.113 0 01.803.335c.102.105.183.227.242.366.06.14.09.288.09.448 0 .155-.03.3-.09.437a1.148 1.148 0 01-.605.602c-.139.06-.286.089-.44.089-.16 0-.308-.03-.445-.09a1.148 1.148 0 01-.601-.6 1.088 1.088 0 01-.09-.438 1.178 1.178 0 01.332-.813 1.12 1.12 0 01.804-.336z"/><path id="has" fill="#181717" d="M113.825 78.179h-1.19v-4.382c0-.529-.098-.924-.297-1.186-.198-.262-.482-.393-.85-.393-.16 0-.31.021-.448.065a1.557 1.557 0 00-.435.225 3.73 3.73 0 00-.492.434c-.177.183-.383.41-.615.684v4.553h-1.19v-9.66h1.19v2.796l-.041 1.08c.187-.223.37-.41.55-.563.18-.153.36-.277.54-.373.18-.096.364-.164.55-.205.188-.041.381-.062.582-.062.683 0 1.212.209 1.586.626.373.417.56 1.045.56 1.883v4.478zm6.59 0l-.027-.923c-.374.369-.753.636-1.138.8-.386.164-.79.246-1.214.246-.392 0-.727-.05-1.005-.15a1.883 1.883 0 01-.687-.414 1.603 1.603 0 01-.396-.619 2.289 2.289 0 01-.127-.772c0-.688.257-1.227.77-1.617.512-.39 1.27-.584 2.272-.584h1.422v-.602c0-.406-.13-.73-.39-.974s-.656-.366-1.189-.366c-.387 0-.769.043-1.145.13-.376.087-.764.21-1.165.37V71.63a7.36 7.36 0 011.086-.3 7.6 7.6 0 01.643-.1c.223-.025.449-.038.677-.038.414 0 .788.046 1.12.137.334.091.615.23.845.417.23.187.407.422.53.704.123.283.184.615.184.998v4.73h-1.066zm-.13-3.124h-1.51c-.297 0-.552.03-.766.089-.214.059-.39.143-.527.252-.136.11-.238.24-.304.394-.066.152-.099.324-.099.516 0 .132.02.258.062.38.04.12.107.227.198.32.091.094.21.168.355.223.146.054.324.082.534.082.273 0 .586-.084.94-.25.353-.166.725-.43 1.117-.79v-1.216zm8.853 1.25a1.634 1.634 0 01-.458 1.16 2.084 2.084 0 01-.493.379 3.272 3.272 0 01-.598.26c-.212.068-.43.118-.652.15a4.637 4.637 0 01-.657.048A12.3 12.3 0 01125 78.24a8.646 8.646 0 01-1.145-.198v-1.094c.4.114.8.2 1.196.26.396.06.79.089 1.182.089.57 0 .992-.078 1.265-.233.274-.154.41-.376.41-.663a.812.812 0 00-.065-.331.753.753 0 00-.236-.28 2.254 2.254 0 00-.53-.277 11.81 11.81 0 00-.98-.328 6.963 6.963 0 01-.858-.311 2.877 2.877 0 01-.68-.414 1.776 1.776 0 01-.452-.56 1.649 1.649 0 01-.164-.76 1.744 1.744 0 01.588-1.264c.214-.196.504-.359.868-.489.365-.13.82-.195 1.368-.195.269 0 .567.015.895.045.328.03.67.08 1.026.154v1.06a9.803 9.803 0 00-1.063-.202 6.926 6.926 0 00-.872-.065c-.296 0-.546.022-.749.068a1.553 1.553 0 00-.492.188.734.734 0 00-.27.28.748.748 0 00-.082.345c0 .123.024.235.072.335.048.1.137.197.267.29.13.094.31.188.543.281.232.094.535.195.91.304.405.119.747.243 1.025.373.278.13.503.275.676.434.174.16.298.34.373.54.075.2.113.428.113.684z"/><path id="(" fill="#7E7C7B" d="M135.509 81.05c-2.101-1.946-3.152-4.097-3.152-6.453 0-.552.056-1.102.168-1.651.112-.55.292-1.1.54-1.651a9.028 9.028 0 01.984-1.654c.408-.552.904-1.099 1.487-1.641l.69.704c-1.768 1.746-2.652 3.68-2.652 5.804 0 1.057.224 2.073.67 3.049.447.975 1.108 1.895 1.983 2.761l-.718.732z"/><path id="x" fill="#181717" d="M145.284 78.179h-1.579l-1.852-2.618-1.832 2.618h-1.539l2.66-3.446-2.537-3.418h1.525l1.805 2.64 1.77-2.64h1.47l-2.577 3.446z"/><path id=")){" fill="#7E7C7B" d="M148.196 68c2.101 1.946 3.152 4.11 3.152 6.494 0 .492-.05 1.003-.15 1.531-.101.529-.272 1.07-.513 1.624a9.296 9.296 0 01-.975 1.685c-.407.57-.921 1.142-1.541 1.716l-.69-.704c.888-.88 1.551-1.798 1.989-2.755.437-.957.656-1.96.656-3.008 0-2.17-.882-4.12-2.645-5.852l.717-.731zm7.698 0c2.1 1.946 3.15 4.11 3.15 6.494 0 .492-.05 1.003-.15 1.531-.1.529-.27 1.07-.512 1.624a9.296 9.296 0 01-.974 1.685c-.408.57-.922 1.142-1.542 1.716l-.69-.704c.888-.88 1.552-1.798 1.989-2.755.438-.957.656-1.96.656-3.008 0-2.17-.882-4.12-2.645-5.852l.718-.731zm19.03 12.981h-.505c-.88 0-1.534-.206-1.962-.618-.428-.413-.643-1.038-.643-1.877v-2.351a2.18 2.18 0 00-.075-.598.978.978 0 00-.263-.445 1.224 1.224 0 00-.499-.277 2.706 2.706 0 00-.783-.095h-.294v-.95h.294c.333 0 .604-.028.814-.082.21-.055.374-.138.492-.25a.88.88 0 00.246-.427c.046-.173.068-.379.068-.615v-1.62c0-.383.046-.729.137-1.036.091-.308.24-.57.448-.786.207-.217.476-.383.807-.5.33-.116.734-.174 1.213-.174h.506v.957h-.404c-1.057 0-1.585.513-1.585 1.538v1.593c0 1.112-.481 1.739-1.443 1.88.97.096 1.456.72 1.456 1.873v2.338c0 1.044.524 1.565 1.572 1.565h.404v.957z"/><path id="return" fill="#1C85B5" d="M47.01 88.315h1.088l.034 1.265c.405-.488.805-.84 1.2-1.06a2.436 2.436 0 011.192-.328c.711 0 1.25.23 1.617.69.367.461.537 1.145.51 2.052h-1.204c.014-.602-.074-1.038-.263-1.31-.189-.27-.466-.406-.83-.406-.16 0-.32.028-.482.085a1.947 1.947 0 00-.5.274 4.47 4.47 0 00-.543.482 8.898 8.898 0 00-.615.71v4.41H47.01v-6.864zm13.215 3.07c0 .168-.003.31-.007.424a6.37 6.37 0 01-.02.32h-4.82c0 .703.196 1.242.588 1.618.392.376.957.564 1.695.564.2 0 .401-.008.602-.024.2-.016.394-.038.58-.065.188-.028.366-.058.537-.093.171-.034.33-.071.475-.112v.977a9.161 9.161 0 01-2.365.308c-.588 0-1.094-.08-1.517-.24a2.597 2.597 0 01-1.043-.693 2.857 2.857 0 01-.601-1.115 5.273 5.273 0 01-.195-1.493c0-.483.07-.94.208-1.37a3.44 3.44 0 01.609-1.136c.266-.325.593-.584.98-.776a2.94 2.94 0 011.32-.287c.478 0 .902.076 1.271.226.37.15.68.363.934.64.252.275.444.61.574 1.004.13.394.195.835.195 1.323zm-1.238-.171a2.593 2.593 0 00-.089-.838 1.763 1.763 0 00-.338-.652 1.576 1.576 0 00-.57-.428 1.916 1.916 0 00-.794-.153c-.26 0-.496.05-.71.15-.215.1-.4.242-.554.424a2.19 2.19 0 00-.376.656 3.026 3.026 0 00-.178.84h3.61zm8.668 3.869a5.793 5.793 0 01-.834.147 8.52 8.52 0 01-.875.044c-.861 0-1.504-.194-1.927-.584-.424-.39-.636-.988-.636-1.794v-3.583h-1.921v-.998h1.92V86.43l1.19-.308v2.194h3.083v.998h-3.083V92.8c0 .492.131.86.393 1.104.262.244.649.366 1.159.366.219 0 .458-.018.718-.052.26-.034.53-.087.813-.16v1.025zm7.684.096h-1.067l-.04-1.108a5.54 5.54 0 01-.585.592 3.021 3.021 0 01-.55.379 2.119 2.119 0 01-.55.202 2.84 2.84 0 01-.585.058c-.706 0-1.24-.208-1.6-.622-.36-.415-.54-1.042-.54-1.88v-4.485h1.19v4.39c0 1.052.396 1.578 1.19 1.578.145 0 .287-.021.426-.065.14-.043.285-.118.438-.225.153-.107.317-.252.492-.434a9.32 9.32 0 00.591-.69v-4.554h1.19v6.864zm2.46-6.864h1.088l.034 1.265c.405-.488.805-.84 1.2-1.06a2.436 2.436 0 011.192-.328c.711 0 1.25.23 1.617.69.367.461.537 1.145.51 2.052h-1.204c.014-.602-.074-1.038-.263-1.31-.189-.27-.466-.406-.83-.406-.16 0-.32.028-.482.085a1.947 1.947 0 00-.5.274 4.47 4.47 0 00-.543.482 8.898 8.898 0 00-.615.71v4.41H77.8v-6.864zm7.418 0h1.06l.047 1.108c.2-.237.394-.434.581-.591.187-.158.37-.284.55-.38a2.06 2.06 0 01.55-.202c.188-.038.381-.058.582-.058.706 0 1.24.209 1.603.626.362.417.543 1.045.543 1.883v4.478h-1.19v-4.382c0-.538-.1-.936-.3-1.193-.2-.257-.499-.386-.895-.386-.146 0-.289.021-.428.065a1.557 1.557 0 00-.434.225c-.15.107-.313.252-.488.434-.176.183-.373.41-.592.684v4.553h-1.19v-6.864z"/><path id="cache" fill="#181717" d="M105.943 94.926c-.31.118-.627.206-.953.263a5.845 5.845 0 01-1.009.085c-1.084 0-1.92-.294-2.505-.881-.586-.588-.878-1.447-.878-2.578 0-.542.084-1.034.253-1.476.168-.442.405-.82.71-1.135.306-.314.67-.557 1.094-.728.424-.17.891-.256 1.402-.256.355 0 .688.025.998.075.31.05.606.132.888.246v1.135a3.77 3.77 0 00-.905-.339 4.248 4.248 0 00-.954-.106c-.305 0-.594.059-.865.175-.27.116-.509.283-.714.502a2.38 2.38 0 00-.485.8c-.119.314-.178.67-.178 1.066 0 .83.201 1.45.605 1.863.403.413.963.619 1.678.619a3.897 3.897 0 001.818-.438v1.108zm6.775.253l-.028-.923c-.373.369-.753.636-1.138.8-.385.164-.79.246-1.213.246-.392 0-.727-.05-1.005-.15a1.883 1.883 0 01-.687-.414 1.603 1.603 0 01-.397-.619 2.289 2.289 0 01-.126-.772c0-.688.256-1.227.77-1.617.512-.39 1.27-.584 2.272-.584h1.422v-.602c0-.406-.13-.73-.39-.974s-.656-.366-1.19-.366c-.387 0-.768.043-1.144.13-.376.087-.765.21-1.166.37V88.63a7.36 7.36 0 011.087-.3 7.6 7.6 0 01.643-.1c.223-.025.449-.038.676-.038.415 0 .789.046 1.122.137.332.091.614.23.844.417.23.187.407.422.53.704.123.283.184.615.184.998v4.73h-1.066zm-.13-3.124h-1.51c-.297 0-.552.03-.766.089-.215.059-.39.143-.527.252-.137.11-.238.24-.304.394-.066.152-.1.324-.1.516 0 .132.021.258.062.38.041.12.107.227.199.32.09.094.21.168.355.223.146.054.324.082.533.082.274 0 .587-.084.94-.25.353-.166.726-.43 1.118-.79v-1.216zm8.75 2.87c-.31.12-.628.207-.954.264a5.845 5.845 0 01-1.008.085c-1.085 0-1.92-.294-2.505-.881-.586-.588-.879-1.447-.879-2.578 0-.542.084-1.034.253-1.476.169-.442.406-.82.711-1.135.305-.314.67-.557 1.094-.728.424-.17.89-.256 1.401-.256.356 0 .688.025.998.075.31.05.606.132.889.246v1.135a3.77 3.77 0 00-.906-.339 4.248 4.248 0 00-.953-.106c-.306 0-.594.059-.865.175-.271.116-.51.283-.715.502a2.38 2.38 0 00-.485.8c-.118.314-.178.67-.178 1.066 0 .83.202 1.45.605 1.863.404.413.963.619 1.679.619a3.897 3.897 0 001.818-.438v1.108zm7.882.254h-1.19v-4.382c0-.529-.099-.924-.297-1.186-.198-.262-.482-.393-.851-.393-.16 0-.309.021-.448.065a1.557 1.557 0 00-.434.225 3.73 3.73 0 00-.492.434c-.178.183-.383.41-.615.684v4.553h-1.19v-9.66h1.19v2.796l-.041 1.08c.186-.223.37-.41.55-.563.18-.153.36-.277.54-.373.18-.096.363-.164.55-.205.187-.041.38-.062.581-.062.684 0 1.212.209 1.586.626.374.417.56 1.045.56 1.883v4.478zm7.977-3.794c0 .168-.002.31-.007.424a6.37 6.37 0 01-.02.32h-4.82c0 .703.197 1.242.588 1.618.392.376.958.564 1.696.564.2 0 .4-.008.601-.024.2-.016.395-.038.581-.065.187-.028.366-.058.537-.093.17-.034.33-.071.475-.112v.977a9.161 9.161 0 01-2.365.308c-.588 0-1.094-.08-1.518-.24a2.597 2.597 0 01-1.042-.693 2.857 2.857 0 01-.602-1.115 5.273 5.273 0 01-.195-1.493c0-.483.07-.94.209-1.37a3.44 3.44 0 01.608-1.136c.267-.325.594-.584.981-.776a2.94 2.94 0 011.32-.287c.478 0 .902.076 1.271.226.37.15.68.363.933.64.253.275.445.61.574 1.004.13.394.195.835.195 1.323zm-1.237-.171a2.593 2.593 0 00-.089-.838 1.763 1.763 0 00-.338-.652 1.576 1.576 0 00-.571-.428 1.916 1.916 0 00-.793-.153c-.26 0-.497.05-.711.15-.214.1-.399.242-.554.424a2.19 2.19 0 00-.376.656 3.026 3.026 0 00-.177.84h3.609z"/><path id="." fill="#7E7C7B" d="M141.798 93.025a1.113 1.113 0 01.803.335c.103.105.184.227.243.366.059.14.089.288.089.448 0 .155-.03.3-.09.437a1.148 1.148 0 01-.604.602c-.14.06-.286.089-.441.089-.16 0-.308-.03-.444-.09a1.148 1.148 0 01-.602-.6 1.088 1.088 0 01-.089-.438c0-.16.03-.309.089-.448.06-.139.14-.26.243-.366a1.12 1.12 0 01.803-.335z"/><path id="get" fill="#1C85B5" d="M151.737 89.286c.128.16.227.345.298.557.07.212.106.441.106.687 0 .356-.065.68-.195.974-.13.294-.314.546-.55.756a2.54 2.54 0 01-.852.489c-.33.116-.693.174-1.09.174-.287 0-.556-.03-.807-.092a2.064 2.064 0 01-.594-.23c-.087.128-.16.249-.219.363a.817.817 0 00-.089.383c0 .173.083.316.25.43.166.114.386.176.66.185l1.804.068c.342.01.657.053.947.13.29.078.538.19.745.335.207.146.369.326.485.54.116.214.175.463.175.745 0 .306-.067.595-.199.868a1.985 1.985 0 01-.612.722c-.275.207-.625.372-1.049.495-.424.123-.927.185-1.51.185-.557 0-1.03-.045-1.419-.133-.39-.09-.71-.212-.96-.37a1.49 1.49 0 01-.547-.56 1.51 1.51 0 01-.171-.715c0-.332.077-.624.232-.875.155-.25.394-.492.718-.724a1.133 1.133 0 01-.52-.475 1.322 1.322 0 01-.164-.632c0-.297.07-.568.209-.814.139-.246.304-.479.495-.697a3.57 3.57 0 01-.229-.308 1.91 1.91 0 01-.28-.7 2.536 2.536 0 01-.037-.462c0-.356.065-.68.194-.974.13-.294.313-.546.547-.756.235-.21.518-.372.848-.488.33-.117.696-.175 1.097-.175.169 0 .33.012.485.035.155.022.292.052.41.088h2.489v.971h-1.1zm-4.129 6.884c0 .323.169.56.506.707.337.149.807.223 1.408.223.379 0 .697-.035.954-.103.258-.068.465-.158.622-.27.157-.112.27-.24.339-.383.068-.143.102-.29.102-.44 0-.279-.114-.484-.342-.616-.228-.132-.576-.21-1.046-.232l-1.79-.062c-.151.1-.275.198-.373.294a1.292 1.292 0 00-.23.29 1.127 1.127 0 00-.115.295 1.309 1.309 0 00-.035.297zm.363-5.612c0 .218.036.419.11.601.072.182.175.337.307.465s.288.227.468.297c.18.071.38.106.598.106.237 0 .448-.04.632-.12.185-.079.34-.187.465-.324.126-.137.221-.294.287-.472.066-.177.1-.362.1-.553 0-.22-.037-.42-.11-.602a1.316 1.316 0 00-.307-.465 1.404 1.404 0 00-.469-.297c-.18-.07-.38-.106-.598-.106-.237 0-.448.04-.632.123-.185.082-.34.19-.465.325-.125.134-.221.29-.287.468-.066.178-.1.362-.1.554zm12.318.827c0 .168-.002.31-.007.424a6.372 6.372 0 01-.02.32h-4.82c0 .703.196 1.242.588 1.618.392.376.957.564 1.696.564.2 0 .4-.008.601-.024.2-.016.394-.038.581-.065.187-.028.366-.058.537-.093.17-.034.33-.071.475-.112v.977a9.161 9.161 0 01-2.365.308c-.588 0-1.094-.08-1.518-.24a2.597 2.597 0 01-1.042-.693 2.857 2.857 0 01-.602-1.115 5.273 5.273 0 01-.195-1.493c0-.483.07-.94.209-1.37a3.44 3.44 0 01.608-1.136c.267-.325.594-.584.981-.776a2.94 2.94 0 011.32-.287c.478 0 .902.076 1.27.226.37.15.681.363.934.64.253.275.444.61.574 1.004.13.394.195.835.195 1.323zm-1.237-.171a2.593 2.593 0 00-.09-.838 1.763 1.763 0 00-.337-.652 1.576 1.576 0 00-.571-.428 1.916 1.916 0 00-.793-.153c-.26 0-.497.05-.711.15-.214.1-.399.242-.554.424a2.19 2.19 0 00-.376.656 3.026 3.026 0 00-.178.84h3.61zm8.668 3.869a5.793 5.793 0 01-.834.147 8.52 8.52 0 01-.875.044c-.862 0-1.504-.194-1.928-.584-.424-.39-.636-.988-.636-1.794v-3.583h-1.92v-.998h1.92V86.43l1.19-.308v2.194h3.083v.998h-3.083V92.8c0 .492.13.86.393 1.104.262.244.648.366 1.158.366.22 0 .458-.018.718-.052.26-.034.531-.087.814-.16v1.025z"/><path id="(" fill="#7E7C7B" d="M173.995 98.05c-2.1-1.946-3.151-4.097-3.151-6.453 0-.552.056-1.102.167-1.651.112-.55.292-1.1.54-1.651a9.028 9.028 0 01.985-1.654c.408-.552.903-1.099 1.486-1.641l.69.704c-1.767 1.746-2.651 3.68-2.651 5.804 0 1.057.223 2.073.67 3.049.446.975 1.107 1.895 1.982 2.761l-.718.732z"/><path id="x" fill="#181717" d="M183.77 95.179h-1.579l-1.852-2.618-1.832 2.618h-1.538l2.659-3.446-2.536-3.418h1.524l1.805 2.64 1.77-2.64h1.47l-2.577 3.446z"/><path id=");}" fill="#7E7C7B" d="M186.683 85c2.1 1.946 3.151 4.11 3.151 6.494 0 .492-.05 1.003-.15 1.531-.1.529-.272 1.07-.513 1.624a9.296 9.296 0 01-.974 1.685c-.408.57-.922 1.142-1.542 1.716l-.69-.704c.889-.88 1.552-1.798 1.99-2.755.437-.957.655-1.96.655-3.008 0-2.17-.881-4.12-2.645-5.852l.718-.731zm6.91 11.58c.233.01.459-.011.678-.061a2.02 2.02 0 00.577-.223c.166-.098.3-.22.4-.365a.86.86 0 00.15-.5.95.95 0 00-.099-.464 2.238 2.238 0 00-.222-.328 2.438 2.438 0 01-.222-.322.91.91 0 01-.1-.458.915.915 0 01.223-.588.857.857 0 01.287-.211 1.12 1.12 0 01.875.017c.148.066.278.167.39.304.111.137.2.307.266.513.066.205.1.446.1.724 0 .378-.07.742-.209 1.09a2.657 2.657 0 01-.622.927c-.276.269-.62.483-1.032.642-.413.16-.892.24-1.44.24v-.937zm2.14-8.388c.142 0 .276.029.404.086a1.107 1.107 0 01.564.564.978.978 0 01.085.403.971.971 0 01-.085.407 1.12 1.12 0 01-.23.331 1.058 1.058 0 01-.738.308c-.145 0-.281-.027-.406-.082a1.07 1.07 0 01-.557-.557 1.006 1.006 0 01-.083-.407 1.058 1.058 0 01.308-.738 1.12 1.12 0 01.332-.23.971.971 0 01.406-.085zM31.808 102.28h.505c.88 0 1.534.206 1.962.619.429.412.643 1.038.643 1.876v1.58c0 .223.025.422.075.598.05.175.138.323.263.444.126.12.293.213.503.277.21.064.471.096.786.096h.294v.95h-.294c-.333 0-.605.027-.817.082a1.116 1.116 0 00-.496.25.88.88 0 00-.246.427 2.438 2.438 0 00-.068.615v2.392c0 .383-.046.728-.137 1.036-.09.308-.239.57-.444.786a1.993 1.993 0 01-.807.5c-.332.115-.738.173-1.217.173h-.505v-.957h.41c1.053 0 1.579-.512 1.579-1.538v-2.365c0-1.112.48-1.736 1.442-1.873-.97-.105-1.456-.731-1.456-1.88v-1.565c0-1.044-.522-1.566-1.565-1.566h-.41v-.957z"/><path id="letresult=func(x);" fill="#C06334" d="M33.674 137.497h-2.03v-.977h3.233v8.667h2.044v.992h-5.503v-.992h2.256v-7.69zm11.156 4.888c0 .168-.002.31-.007.424a6.37 6.37 0 01-.02.32h-4.82c0 .703.196 1.242.588 1.618.392.376.957.564 1.696.564.2 0 .4-.008.601-.024.2-.016.394-.038.581-.065.187-.028.366-.058.537-.093.17-.034.33-.071.475-.112v.977a9.161 9.161 0 01-2.365.308c-.588 0-1.094-.08-1.518-.24a2.597 2.597 0 01-1.042-.693 2.857 2.857 0 01-.602-1.115 5.273 5.273 0 01-.195-1.493c0-.483.07-.94.209-1.37a3.44 3.44 0 01.608-1.136c.267-.325.594-.584.981-.776a2.94 2.94 0 011.32-.287c.478 0 .902.076 1.27.226.37.15.681.363.934.64.253.275.444.61.574 1.004.13.394.195.835.195 1.323zm-1.237-.171a2.593 2.593 0 00-.09-.838 1.763 1.763 0 00-.337-.652 1.576 1.576 0 00-.571-.428 1.916 1.916 0 00-.793-.153c-.26 0-.497.05-.711.15-.214.1-.399.242-.554.424a2.19 2.19 0 00-.376.656 3.026 3.026 0 00-.178.84h3.61zm8.668 3.869a5.793 5.793 0 01-.834.147 8.52 8.52 0 01-.875.044c-.862 0-1.504-.194-1.928-.584-.424-.39-.636-.988-.636-1.794v-3.583h-1.92v-.998h1.92v-1.886l1.19-.308v2.194h3.083v.998h-3.083v3.487c0 .492.13.86.393 1.104.262.244.648.366 1.158.366.22 0 .458-.018.718-.052.26-.034.531-.087.814-.16v1.025zm10.144-6.768h1.087l.034 1.265c.406-.488.806-.84 1.2-1.06a2.436 2.436 0 011.193-.328c.71 0 1.25.23 1.617.69.367.461.536 1.145.509 2.052h-1.203c.013-.602-.074-1.038-.263-1.31-.19-.27-.466-.406-.831-.406-.16 0-.32.028-.482.085a1.947 1.947 0 00-.499.274 4.47 4.47 0 00-.543.482 8.898 8.898 0 00-.616.71v4.41h-1.203v-6.864zm13.214 3.07c0 .168-.002.31-.007.424a6.37 6.37 0 01-.02.32h-4.82c0 .703.196 1.242.588 1.618.392.376.957.564 1.696.564.2 0 .4-.008.601-.024.2-.016.394-.038.581-.065.187-.028.366-.058.537-.093.17-.034.33-.071.475-.112v.977a9.161 9.161 0 01-2.365.308c-.588 0-1.094-.08-1.518-.24a2.597 2.597 0 01-1.042-.693 2.857 2.857 0 01-.602-1.115 5.273 5.273 0 01-.195-1.493c0-.483.07-.94.209-1.37a3.44 3.44 0 01.608-1.136c.267-.325.594-.584.981-.776a2.94 2.94 0 011.32-.287c.478 0 .902.076 1.271.226.37.15.68.363.933.64.253.275.444.61.574 1.004.13.394.195.835.195 1.323zm-1.237-.171a2.593 2.593 0 00-.089-.838 1.763 1.763 0 00-.338-.652 1.576 1.576 0 00-.571-.428 1.916 1.916 0 00-.793-.153c-.26 0-.497.05-.711.15-.214.1-.399.242-.554.424a2.19 2.19 0 00-.376.656 3.026 3.026 0 00-.178.84h3.61zm8.572 2.092a1.634 1.634 0 01-.458 1.158 2.084 2.084 0 01-.492.38 3.272 3.272 0 01-.598.26c-.212.068-.43.118-.653.15a4.638 4.638 0 01-.656.048 12.3 12.3 0 01-1.282-.062 8.646 8.646 0 01-1.145-.198v-1.094c.401.114.8.2 1.196.26.397.06.79.089 1.183.089.57 0 .991-.078 1.264-.233.274-.154.41-.376.41-.663a.812.812 0 00-.064-.331.753.753 0 00-.236-.28 2.254 2.254 0 00-.53-.277 11.81 11.81 0 00-.98-.328 6.963 6.963 0 01-.859-.311 2.877 2.877 0 01-.68-.414 1.776 1.776 0 01-.451-.56 1.649 1.649 0 01-.164-.76 1.744 1.744 0 01.588-1.264c.214-.196.503-.359.868-.489.364-.13.82-.195 1.367-.195.269 0 .567.015.896.045.328.03.67.08 1.025.154v1.06a9.803 9.803 0 00-1.063-.202 6.926 6.926 0 00-.872-.065c-.296 0-.545.022-.748.068a1.553 1.553 0 00-.492.188.734.734 0 00-.27.28.748.748 0 00-.082.345c0 .123.024.235.071.335.048.1.137.197.267.29.13.094.311.188.543.281.233.094.536.195.91.304.405.119.747.243 1.025.373.278.13.504.275.677.434.173.16.297.34.372.54.076.2.113.428.113.684zm7.78 1.873h-1.067l-.041-1.108a5.54 5.54 0 01-.584.592 3.021 3.021 0 01-.55.379 2.119 2.119 0 01-.551.202 2.84 2.84 0 01-.585.058c-.706 0-1.24-.208-1.6-.622-.36-.415-.54-1.042-.54-1.88v-4.485h1.19v4.39c0 1.052.397 1.578 1.19 1.578.146 0 .288-.021.427-.065.139-.043.285-.118.437-.225.153-.107.317-.252.493-.434a9.32 9.32 0 00.59-.69v-4.554h1.19v6.864zm4.518-8.682h-2.03v-.977h3.233v8.667H98.5v.992h-5.503v-.992h2.256v-7.69zm10.89 8.586a5.793 5.793 0 01-.834.147 8.52 8.52 0 01-.875.044c-.862 0-1.504-.194-1.928-.584-.424-.39-.636-.988-.636-1.794v-3.583h-1.92v-.998h1.92v-1.886l1.19-.308v2.194h3.083v.998h-3.083v3.487c0 .492.13.86.393 1.104.262.244.648.366 1.158.366.22 0 .458-.018.718-.052.26-.034.531-.087.814-.16v1.025zm15.558-4.32h-5.879v-1.005h5.88v1.005zm0 2.379h-5.879v-1.005h5.88v1.005zm15.791-6.515c-.624-.132-1.162-.198-1.613-.198-1.071 0-1.607.56-1.607 1.681v1.203h3.008v.992h-3.008v4.874h-1.21v-4.874h-2.207v-.992h2.208v-1.134c0-1.828.952-2.742 2.857-2.742.474 0 .998.055 1.572.165v1.025zm7.123 8.552h-1.066l-.041-1.108a5.54 5.54 0 01-.585.592 3.021 3.021 0 01-.55.379 2.119 2.119 0 01-.55.202 2.84 2.84 0 01-.585.058c-.706 0-1.24-.208-1.6-.622-.36-.415-.54-1.042-.54-1.88v-4.485h1.19v4.39c0 1.052.397 1.578 1.19 1.578.145 0 .288-.021.427-.065.139-.043.285-.118.437-.225.153-.107.317-.252.492-.434a9.32 9.32 0 00.592-.69v-4.554h1.19v6.864zm2.18-6.864h1.06l.048 1.108c.2-.237.395-.434.581-.591.187-.158.37-.284.55-.38a2.06 2.06 0 01.551-.202c.187-.038.38-.058.581-.058.706 0 1.24.209 1.603.626.362.417.544 1.045.544 1.883v4.478h-1.19v-4.382c0-.538-.1-.936-.3-1.193-.201-.257-.5-.386-.896-.386-.146 0-.288.021-.427.065a1.557 1.557 0 00-.435.225c-.15.107-.313.252-.488.434-.176.183-.373.41-.592.684v4.553h-1.19v-6.864zm13.03 6.61c-.31.12-.628.207-.953.264a5.845 5.845 0 01-1.009.085c-1.084 0-1.92-.294-2.505-.881-.586-.588-.878-1.447-.878-2.578 0-.542.084-1.034.252-1.476.17-.442.406-.82.711-1.135.306-.314.67-.557 1.094-.728.424-.17.891-.256 1.401-.256.356 0 .689.025.999.075.31.05.606.132.888.246v1.135a3.771 3.771 0 00-.906-.339 4.248 4.248 0 00-.953-.106c-.305 0-.594.059-.865.175-.271.116-.51.283-.714.502a2.38 2.38 0 00-.486.8c-.118.314-.177.67-.177 1.066 0 .83.201 1.45.605 1.863.403.413.962.619 1.678.619a3.897 3.897 0 001.818-.438v1.108zm6.474 3.125c-2.101-1.946-3.152-4.097-3.152-6.453 0-.552.056-1.102.168-1.651.112-.55.292-1.1.54-1.651a9.028 9.028 0 01.984-1.654c.408-.552.904-1.099 1.487-1.641l.69.704c-1.768 1.746-2.652 3.68-2.652 5.804 0 1.057.224 2.073.67 3.049.447.975 1.108 1.895 1.983 2.761l-.718.732zm9.775-2.871h-1.579l-1.852-2.618-1.832 2.618h-1.539l2.66-3.446-2.536-3.418h1.524l1.805 2.64 1.77-2.64h1.47l-2.577 3.446 2.686 3.418zM178.985 136c2.101 1.946 3.152 4.11 3.152 6.494 0 .492-.05 1.003-.15 1.531-.1.529-.272 1.07-.513 1.624a9.296 9.296 0 01-.974 1.685c-.408.57-.922 1.142-1.542 1.716l-.69-.704c.888-.88 1.551-1.798 1.989-2.755.437-.957.656-1.96.656-3.008 0-2.17-.882-4.12-2.645-5.852l.717-.731zm6.911 11.58c.233.01.458-.011.677-.061a2.02 2.02 0 00.578-.223c.166-.098.3-.22.4-.365a.86.86 0 00.15-.5.95.95 0 00-.099-.464 2.238 2.238 0 00-.222-.328 2.438 2.438 0 01-.222-.322.91.91 0 01-.1-.458.915.915 0 01.223-.588.857.857 0 01.287-.211 1.12 1.12 0 01.875.017c.148.066.278.167.39.304.111.137.2.307.266.513.066.205.1.446.1.724 0 .378-.07.742-.21 1.09a2.657 2.657 0 01-.621.927c-.276.269-.62.483-1.033.642-.412.16-.892.24-1.439.24v-.937zm2.14-8.388c.141 0 .276.029.403.086a1.107 1.107 0 01.564.564.978.978 0 01.086.403.971.971 0 01-.086.407 1.12 1.12 0 01-.229.331 1.058 1.058 0 01-.738.308c-.146 0-.281-.027-.407-.082a1.07 1.07 0 01-.557-.557 1.006 1.006 0 01-.082-.407 1.058 1.058 0 01.308-.738 1.12 1.12 0 01.331-.23.971.971 0 01.407-.085z"/><path id="cache" fill="#181717" d="M36.668 179.926c-.31.118-.628.206-.954.263a5.845 5.845 0 01-1.008.085c-1.085 0-1.92-.294-2.505-.881-.586-.588-.879-1.447-.879-2.578 0-.542.085-1.034.253-1.476.169-.442.406-.82.711-1.135.305-.314.67-.557 1.094-.728.424-.17.89-.256 1.401-.256.356 0 .688.025.998.075.31.05.606.132.889.246v1.135a3.771 3.771 0 00-.906-.339 4.248 4.248 0 00-.953-.106c-.306 0-.594.059-.865.175-.271.116-.51.283-.715.502a2.38 2.38 0 00-.485.8c-.118.314-.178.67-.178 1.066 0 .83.202 1.45.605 1.863.404.413.963.619 1.679.619a3.897 3.897 0 001.818-.438v1.108zm6.774.253l-.027-.923c-.374.369-.753.636-1.138.8-.385.164-.79.246-1.214.246-.391 0-.726-.05-1.004-.15a1.883 1.883 0 01-.687-.414 1.603 1.603 0 01-.397-.619 2.289 2.289 0 01-.126-.772c0-.688.256-1.227.769-1.617.512-.39 1.27-.584 2.273-.584h1.422v-.602c0-.406-.13-.73-.39-.974s-.656-.366-1.19-.366c-.387 0-.769.043-1.145.13-.376.087-.764.21-1.165.37v-1.074a7.36 7.36 0 011.087-.3 7.6 7.6 0 01.642-.1c.224-.025.45-.038.677-.038.415 0 .789.046 1.121.137.333.091.614.23.844.417.23.187.407.422.53.704.123.283.185.615.185.998v4.73h-1.067zm-.13-3.124h-1.51c-.296 0-.552.03-.766.089-.214.059-.39.143-.526.252-.137.11-.238.24-.304.394-.067.152-.1.324-.1.516 0 .132.021.258.062.38.041.12.107.227.198.32.091.094.21.168.356.223.146.054.323.082.533.082.273 0 .587-.084.94-.25.353-.166.726-.43 1.117-.79v-1.216zm8.75 2.87c-.31.12-.627.207-.953.264a5.845 5.845 0 01-1.008.085c-1.085 0-1.92-.294-2.506-.881-.585-.588-.878-1.447-.878-2.578 0-.542.084-1.034.253-1.476.168-.442.405-.82.71-1.135.306-.314.67-.557 1.094-.728.424-.17.891-.256 1.402-.256.355 0 .688.025.998.075.31.05.606.132.889.246v1.135a3.771 3.771 0 00-.906-.339 4.248 4.248 0 00-.954-.106c-.305 0-.593.059-.865.175-.27.116-.509.283-.714.502a2.38 2.38 0 00-.485.8c-.119.314-.178.67-.178 1.066 0 .83.202 1.45.605 1.863.403.413.963.619 1.678.619a3.897 3.897 0 001.818-.438v1.108zm7.882.254h-1.19v-4.382c0-.529-.098-.924-.296-1.186-.199-.262-.482-.393-.852-.393-.16 0-.308.021-.447.065a1.557 1.557 0 00-.434.225 3.73 3.73 0 00-.493.434c-.177.183-.382.41-.615.684v4.553h-1.19v-9.66h1.19v2.796l-.04 1.08c.186-.223.37-.41.55-.563.18-.153.36-.277.54-.373.18-.096.363-.164.55-.205.187-.041.38-.062.58-.062.684 0 1.213.209 1.587.626.373.417.56 1.045.56 1.883v4.478zm7.978-3.794c0 .168-.002.31-.007.424a6.37 6.37 0 01-.02.32h-4.82c0 .703.196 1.242.588 1.618.392.376.957.564 1.695.564.2 0 .401-.008.602-.024.2-.016.394-.038.581-.065.187-.028.366-.058.537-.093.17-.034.329-.071.475-.112v.977a9.161 9.161 0 01-2.365.308c-.588 0-1.094-.08-1.518-.24a2.597 2.597 0 01-1.043-.693 2.857 2.857 0 01-.601-1.115 5.273 5.273 0 01-.195-1.493c0-.483.07-.94.209-1.37a3.44 3.44 0 01.608-1.136c.267-.325.594-.584.98-.776a2.94 2.94 0 011.32-.287c.479 0 .903.076 1.272.226.369.15.68.363.933.64.253.275.444.61.574 1.004.13.394.195.835.195 1.323zm-1.237-.171a2.593 2.593 0 00-.09-.838 1.763 1.763 0 00-.338-.652 1.576 1.576 0 00-.57-.428 1.916 1.916 0 00-.793-.153c-.26 0-.497.05-.711.15-.215.1-.4.242-.554.424a2.19 2.19 0 00-.376.656 3.026 3.026 0 00-.178.84h3.61z"/><path id="." fill="#7E7C7B" d="M72.522 178.025a1.113 1.113 0 01.804.335c.102.105.183.227.242.366.06.14.09.288.09.448 0 .155-.03.3-.09.437a1.148 1.148 0 01-.605.602c-.139.06-.286.089-.44.089-.16 0-.308-.03-.445-.09a1.148 1.148 0 01-.601-.6 1.088 1.088 0 01-.09-.438 1.178 1.178 0 01.332-.813 1.12 1.12 0 01.803-.336z"/><path id="set" fill="#1C85B5" d="M82.954 178.306a1.634 1.634 0 01-.458 1.158 2.084 2.084 0 01-.492.38 3.272 3.272 0 01-.598.26c-.212.068-.43.118-.653.15a4.638 4.638 0 01-.656.048 12.3 12.3 0 01-1.282-.062 8.646 8.646 0 01-1.145-.198v-1.094c.401.114.8.2 1.196.26.397.06.79.089 1.183.089.57 0 .991-.078 1.264-.233.274-.154.41-.376.41-.663a.812.812 0 00-.064-.331.753.753 0 00-.236-.28 2.254 2.254 0 00-.53-.277 11.81 11.81 0 00-.98-.328 6.963 6.963 0 01-.859-.311 2.877 2.877 0 01-.68-.414 1.776 1.776 0 01-.451-.56 1.649 1.649 0 01-.164-.76 1.744 1.744 0 01.588-1.264c.214-.196.503-.359.868-.489.364-.13.82-.195 1.367-.195.269 0 .567.015.896.045.328.03.67.08 1.025.154v1.06a9.803 9.803 0 00-1.063-.202 6.926 6.926 0 00-.872-.065c-.296 0-.545.022-.748.068a1.553 1.553 0 00-.492.188.734.734 0 00-.27.28.748.748 0 00-.082.345c0 .123.024.235.071.335.048.1.137.197.267.29.13.094.311.188.543.281.233.094.536.195.91.304.405.119.747.243 1.025.373.278.13.504.275.677.434.173.16.297.34.372.54.076.2.113.428.113.684zm8.06-1.921c0 .168-.003.31-.007.424a6.37 6.37 0 01-.02.32h-4.82c0 .703.196 1.242.588 1.618.392.376.957.564 1.695.564.2 0 .401-.008.602-.024.2-.016.394-.038.58-.065.188-.028.367-.058.537-.093.171-.034.33-.071.476-.112v.977a9.161 9.161 0 01-2.365.308c-.589 0-1.094-.08-1.518-.24a2.597 2.597 0 01-1.043-.693 2.857 2.857 0 01-.601-1.115 5.273 5.273 0 01-.195-1.493c0-.483.07-.94.208-1.37a3.44 3.44 0 01.609-1.136c.266-.325.593-.584.98-.776a2.94 2.94 0 011.32-.287c.479 0 .902.076 1.272.226.369.15.68.363.933.64.253.275.444.61.574 1.004.13.394.195.835.195 1.323zm-1.238-.171a2.593 2.593 0 00-.088-.838 1.763 1.763 0 00-.339-.652 1.576 1.576 0 00-.57-.428 1.916 1.916 0 00-.794-.153c-.26 0-.496.05-.71.15-.215.1-.4.242-.554.424a2.19 2.19 0 00-.376.656 3.026 3.026 0 00-.178.84h3.61zm8.668 3.869a5.793 5.793 0 01-.834.147 8.52 8.52 0 01-.875.044c-.861 0-1.504-.194-1.927-.584-.424-.39-.636-.988-.636-1.794v-3.583H92.25v-.998h1.92v-1.886l1.19-.308v2.194h3.083v.998h-3.083v3.487c0 .492.131.86.393 1.104.262.244.649.366 1.16.366.218 0 .457-.018.717-.052.26-.034.53-.087.813-.16v1.025z"/><path id="(" fill="#7E7C7B" d="M104.72 183.05c-2.101-1.946-3.152-4.097-3.152-6.453 0-.552.056-1.102.168-1.651.111-.55.292-1.1.54-1.651a9.028 9.028 0 01.984-1.654c.408-.552.904-1.099 1.487-1.641l.69.704c-1.768 1.746-2.652 3.68-2.652 5.804 0 1.057.223 2.073.67 3.049.447.975 1.107 1.895 1.983 2.761l-.718.732z"/><path id="x" fill="#181717" d="M114.495 180.179h-1.579l-1.853-2.618-1.832 2.618h-1.538l2.66-3.446-2.537-3.418h1.525l1.805 2.64 1.77-2.64h1.47l-2.577 3.446z"/><path id="," fill="#7E7C7B" d="M116.54 181.58c.231.01.457-.011.676-.061a2.02 2.02 0 00.577-.223c.167-.098.3-.22.4-.365a.86.86 0 00.15-.5.95.95 0 00-.098-.464 2.238 2.238 0 00-.223-.328 2.438 2.438 0 01-.222-.322.91.91 0 01-.099-.458.915.915 0 01.222-.588.857.857 0 01.287-.211 1.12 1.12 0 01.875.017c.149.066.278.167.39.304.112.137.2.307.267.513.066.205.099.446.099.724 0 .378-.07.742-.209 1.09a2.657 2.657 0 01-.622.927c-.275.269-.62.483-1.032.642-.412.16-.892.24-1.439.24v-.937z"/><path id="result" fill="#181717" d="M131.68 173.315h1.088l.034 1.265c.405-.488.805-.84 1.2-1.06a2.436 2.436 0 011.192-.328c.711 0 1.25.23 1.617.69.367.461.537 1.145.51 2.052h-1.204c.014-.602-.074-1.038-.263-1.31-.19-.27-.466-.406-.83-.406-.16 0-.32.028-.482.085a1.947 1.947 0 00-.5.274 4.47 4.47 0 00-.543.482 8.898 8.898 0 00-.615.71v4.41h-1.203v-6.864zm13.215 3.07c0 .168-.003.31-.007.424a6.37 6.37 0 01-.02.32h-4.82c0 .703.196 1.242.588 1.618.392.376.957.564 1.695.564.2 0 .401-.008.602-.024.2-.016.394-.038.58-.065.188-.028.366-.058.537-.093.171-.034.33-.071.475-.112v.977a9.161 9.161 0 01-2.365.308c-.588 0-1.094-.08-1.517-.24a2.597 2.597 0 01-1.043-.693 2.857 2.857 0 01-.601-1.115 5.273 5.273 0 01-.195-1.493c0-.483.07-.94.208-1.37a3.44 3.44 0 01.609-1.136c.266-.325.593-.584.98-.776a2.94 2.94 0 011.32-.287c.478 0 .902.076 1.271.226.37.15.68.363.933.64.253.275.445.61.575 1.004.13.394.195.835.195 1.323zm-1.238-.171a2.593 2.593 0 00-.089-.838 1.763 1.763 0 00-.338-.652 1.576 1.576 0 00-.57-.428 1.916 1.916 0 00-.794-.153c-.26 0-.497.05-.71.15-.215.1-.4.242-.554.424a2.19 2.19 0 00-.376.656 3.026 3.026 0 00-.178.84h3.61zm8.572 2.092a1.634 1.634 0 01-.458 1.158 2.084 2.084 0 01-.492.38 3.272 3.272 0 01-.598.26c-.212.068-.43.118-.653.15a4.638 4.638 0 01-.656.048 12.3 12.3 0 01-1.282-.062 8.646 8.646 0 01-1.145-.198v-1.094c.401.114.8.2 1.197.26.396.06.79.089 1.182.089.57 0 .991-.078 1.265-.233.273-.154.41-.376.41-.663a.812.812 0 00-.065-.331.753.753 0 00-.236-.28 2.254 2.254 0 00-.53-.277 11.81 11.81 0 00-.98-.328 6.963 6.963 0 01-.858-.311 2.877 2.877 0 01-.68-.414 1.776 1.776 0 01-.452-.56 1.649 1.649 0 01-.164-.76 1.744 1.744 0 01.588-1.264c.214-.196.504-.359.868-.489.365-.13.82-.195 1.367-.195.27 0 .568.015.896.045.328.03.67.08 1.025.154v1.06a9.803 9.803 0 00-1.063-.202 6.926 6.926 0 00-.871-.065c-.296 0-.546.022-.749.068a1.553 1.553 0 00-.492.188.734.734 0 00-.27.28.748.748 0 00-.082.345c0 .123.024.235.072.335.048.1.136.197.266.29.13.094.311.188.544.281.232.094.535.195.909.304.406.119.747.243 1.025.373.278.13.504.275.677.434.173.16.298.34.373.54.075.2.112.428.112.684zm7.78 1.873h-1.067l-.04-1.108a5.54 5.54 0 01-.585.592 3.021 3.021 0 01-.55.379 2.119 2.119 0 01-.55.202 2.84 2.84 0 01-.585.058c-.707 0-1.24-.208-1.6-.622-.36-.415-.54-1.042-.54-1.88v-4.485h1.19v4.39c0 1.052.396 1.578 1.19 1.578.145 0 .287-.021.426-.065.14-.043.285-.118.438-.225.153-.107.317-.252.492-.434a9.32 9.32 0 00.591-.69v-4.554h1.19v6.864zm4.518-8.682h-2.03v-.977h3.233v8.667h2.044v.992h-5.503v-.992h2.256v-7.69zm10.89 8.586a5.793 5.793 0 01-.834.147 8.52 8.52 0 01-.875.044c-.861 0-1.504-.194-1.928-.584-.424-.39-.635-.988-.635-1.794v-3.583h-1.921v-.998h1.92v-1.886l1.19-.308v2.194h3.083v.998h-3.083v3.487c0 .492.131.86.393 1.104.262.244.648.366 1.159.366.218 0 .458-.018.718-.052.26-.034.53-.087.813-.16v1.025z"/><path id=");" fill="#7E7C7B" d="M178.985 170c2.101 1.946 3.152 4.11 3.152 6.494 0 .492-.05 1.003-.15 1.531-.1.529-.272 1.07-.513 1.624a9.296 9.296 0 01-.974 1.685c-.408.57-.922 1.142-1.542 1.716l-.69-.704c.888-.88 1.551-1.798 1.989-2.755.437-.957.656-1.96.656-3.008 0-2.17-.882-4.12-2.645-5.852l.717-.731zm6.911 11.58c.233.01.458-.011.677-.061a2.02 2.02 0 00.578-.223c.166-.098.3-.22.4-.365a.86.86 0 00.15-.5.95.95 0 00-.099-.464 2.238 2.238 0 00-.222-.328 2.438 2.438 0 01-.222-.322.91.91 0 01-.1-.458.915.915 0 01.223-.588.857.857 0 01.287-.211 1.12 1.12 0 01.875.017c.148.066.278.167.39.304.111.137.2.307.266.513.066.205.1.446.1.724 0 .378-.07.742-.21 1.09a2.657 2.657 0 01-.621.927c-.276.269-.62.483-1.033.642-.412.16-.892.24-1.439.24v-.937zm2.14-8.388c.141 0 .276.029.403.086a1.107 1.107 0 01.564.564.978.978 0 01.086.403.971.971 0 01-.086.407 1.12 1.12 0 01-.229.331 1.058 1.058 0 01-.738.308c-.146 0-.281-.027-.407-.082a1.07 1.07 0 01-.557-.557 1.006 1.006 0 01-.082-.407 1.058 1.058 0 01.308-.738 1.12 1.12 0 01.331-.23.971.971 0 01.407-.085z"/><path id="return" fill="#1C85B5" d="M31.616 190.315h1.087l.034 1.265c.406-.488.806-.84 1.2-1.06a2.436 2.436 0 011.193-.328c.71 0 1.25.23 1.617.69.366.461.536 1.145.509 2.052h-1.203c.013-.602-.074-1.038-.263-1.31-.19-.27-.466-.406-.831-.406-.16 0-.32.028-.482.085a1.947 1.947 0 00-.499.274 4.47 4.47 0 00-.543.482 8.898 8.898 0 00-.616.71v4.41h-1.203v-6.864zm13.214 3.07c0 .168-.002.31-.007.424a6.37 6.37 0 01-.02.32h-4.82c0 .703.196 1.242.588 1.618.392.376.957.564 1.696.564.2 0 .4-.008.601-.024.2-.016.394-.038.581-.065.187-.028.366-.058.537-.093.17-.034.33-.071.475-.112v.977a9.161 9.161 0 01-2.365.308c-.588 0-1.094-.08-1.518-.24a2.597 2.597 0 01-1.042-.693 2.857 2.857 0 01-.602-1.115 5.273 5.273 0 01-.195-1.493c0-.483.07-.94.209-1.37a3.44 3.44 0 01.608-1.136c.267-.325.594-.584.981-.776a2.94 2.94 0 011.32-.287c.478 0 .902.076 1.27.226.37.15.681.363.934.64.253.275.444.61.574 1.004.13.394.195.835.195 1.323zm-1.237-.171a2.593 2.593 0 00-.09-.838 1.763 1.763 0 00-.337-.652 1.576 1.576 0 00-.571-.428 1.916 1.916 0 00-.793-.153c-.26 0-.497.05-.711.15-.214.1-.399.242-.554.424a2.19 2.19 0 00-.376.656 3.026 3.026 0 00-.178.84h3.61zm8.668 3.869a5.793 5.793 0 01-.834.147 8.52 8.52 0 01-.875.044c-.862 0-1.504-.194-1.928-.584-.424-.39-.636-.988-.636-1.794v-3.583h-1.92v-.998h1.92v-1.886l1.19-.308v2.194h3.083v.998h-3.083v3.487c0 .492.13.86.393 1.104.262.244.648.366 1.158.366.22 0 .458-.018.718-.052.26-.034.531-.087.814-.16v1.025zm7.683.096h-1.066l-.041-1.108a5.54 5.54 0 01-.585.592 3.021 3.021 0 01-.55.379 2.119 2.119 0 01-.55.202 2.84 2.84 0 01-.585.058c-.706 0-1.24-.208-1.6-.622-.36-.415-.54-1.042-.54-1.88v-4.485h1.19v4.39c0 1.052.397 1.578 1.19 1.578.145 0 .288-.021.427-.065.139-.043.285-.118.437-.225.153-.107.317-.252.493-.434a9.32 9.32 0 00.59-.69v-4.554h1.19v6.864zm2.461-6.864h1.087l.034 1.265c.406-.488.806-.84 1.2-1.06a2.436 2.436 0 011.193-.328c.71 0 1.25.23 1.617.69.367.461.536 1.145.509 2.052h-1.203c.013-.602-.074-1.038-.263-1.31-.19-.27-.466-.406-.831-.406-.16 0-.32.028-.482.085a1.947 1.947 0 00-.499.274 4.47 4.47 0 00-.543.482 8.898 8.898 0 00-.616.71v4.41h-1.203v-6.864zm7.417 0h1.06l.048 1.108c.2-.237.394-.434.58-.591.188-.158.371-.284.551-.38a2.06 2.06 0 01.55-.202c.187-.038.38-.058.581-.058.707 0 1.241.209 1.603.626.363.417.544 1.045.544 1.883v4.478h-1.19v-4.382c0-.538-.1-.936-.3-1.193-.2-.257-.5-.386-.896-.386-.146 0-.288.021-.427.065a1.557 1.557 0 00-.434.225c-.15.107-.314.252-.489.434-.175.183-.373.41-.591.684v4.553h-1.19v-6.864z"/><path id="result" fill="#181717" d="M85.497 190.315h1.087l.034 1.265c.406-.488.806-.84 1.2-1.06a2.436 2.436 0 011.193-.328c.71 0 1.25.23 1.616.69.367.461.537 1.145.51 2.052h-1.203c.013-.602-.074-1.038-.264-1.31-.189-.27-.466-.406-.83-.406-.16 0-.32.028-.482.085a1.947 1.947 0 00-.5.274 4.47 4.47 0 00-.543.482 8.898 8.898 0 00-.615.71v4.41h-1.203v-6.864zm13.214 3.07c0 .168-.002.31-.007.424a6.37 6.37 0 01-.02.32h-4.82c0 .703.196 1.242.588 1.618.392.376.957.564 1.695.564.201 0 .402-.008.602-.024.2-.016.394-.038.581-.065.187-.028.366-.058.537-.093.17-.034.329-.071.475-.112v.977a9.161 9.161 0 01-2.365.308c-.588 0-1.094-.08-1.518-.24a2.597 2.597 0 01-1.042-.693 2.857 2.857 0 01-.602-1.115 5.273 5.273 0 01-.195-1.493c0-.483.07-.94.209-1.37a3.44 3.44 0 01.608-1.136c.267-.325.594-.584.981-.776a2.94 2.94 0 011.32-.287c.478 0 .902.076 1.27.226.37.15.681.363.934.64.253.275.444.61.574 1.004.13.394.195.835.195 1.323zm-1.237-.171a2.593 2.593 0 00-.09-.838 1.763 1.763 0 00-.338-.652 1.576 1.576 0 00-.57-.428 1.916 1.916 0 00-.793-.153c-.26 0-.497.05-.711.15-.215.1-.4.242-.554.424a2.19 2.19 0 00-.376.656 3.026 3.026 0 00-.178.84h3.61zm8.572 2.092a1.634 1.634 0 01-.458 1.158 2.084 2.084 0 01-.492.38 3.272 3.272 0 01-.598.26c-.212.068-.43.118-.653.15a4.638 4.638 0 01-.657.048 12.3 12.3 0 01-1.281-.062 8.646 8.646 0 01-1.145-.198v-1.094c.4.114.8.2 1.196.26.396.06.79.089 1.183.089.57 0 .99-.078 1.264-.233.274-.154.41-.376.41-.663a.812.812 0 00-.065-.331.753.753 0 00-.235-.28 2.254 2.254 0 00-.53-.277 11.81 11.81 0 00-.981-.328 6.963 6.963 0 01-.858-.311 2.877 2.877 0 01-.68-.414 1.776 1.776 0 01-.451-.56 1.649 1.649 0 01-.164-.76 1.744 1.744 0 01.587-1.264c.215-.196.504-.359.869-.489.364-.13.82-.195 1.367-.195.269 0 .567.015.895.045.328.03.67.08 1.026.154v1.06a9.803 9.803 0 00-1.063-.202 6.926 6.926 0 00-.872-.065c-.296 0-.546.022-.748.068a1.553 1.553 0 00-.493.188.734.734 0 00-.27.28.748.748 0 00-.082.345c0 .123.024.235.072.335.048.1.137.197.267.29.13.094.31.188.543.281.233.094.536.195.91.304.405.119.747.243 1.025.373.278.13.503.275.677.434.173.16.297.34.372.54.075.2.113.428.113.684zm7.78 1.873h-1.067l-.041-1.108a5.54 5.54 0 01-.585.592 3.021 3.021 0 01-.55.379 2.119 2.119 0 01-.55.202 2.84 2.84 0 01-.585.058c-.706 0-1.24-.208-1.6-.622-.36-.415-.54-1.042-.54-1.88v-4.485h1.19v4.39c0 1.052.397 1.578 1.19 1.578.145 0 .288-.021.427-.065.139-.043.285-.118.437-.225.153-.107.317-.252.492-.434a9.32 9.32 0 00.592-.69v-4.554h1.19v6.864zm4.518-8.682h-2.03v-.977h3.233v8.667h2.044v.992h-5.503v-.992h2.256v-7.69zm10.89 8.586a5.793 5.793 0 01-.835.147 8.52 8.52 0 01-.875.044c-.86 0-1.503-.194-1.927-.584-.424-.39-.636-.988-.636-1.794v-3.583h-1.921v-.998h1.92v-1.886l1.19-.308v2.194h3.083v.998h-3.083v3.487c0 .492.131.86.393 1.104.263.244.649.366 1.16.366.218 0 .457-.018.717-.052.26-.034.53-.087.813-.16v1.025z"/><path id=";};}" fill="#7E7C7B" d="M132.016 198.58c.232.01.458-.011.676-.061a2.02 2.02 0 00.578-.223c.166-.098.3-.22.4-.365a.86.86 0 00.15-.5.95.95 0 00-.099-.464 2.238 2.238 0 00-.222-.328 2.438 2.438 0 01-.222-.322.91.91 0 01-.1-.458.915.915 0 01.223-.588.857.857 0 01.287-.211 1.12 1.12 0 01.875.017c.148.066.278.167.39.304.111.137.2.307.266.513.066.205.1.446.1.724 0 .378-.07.742-.21 1.09a2.657 2.657 0 01-.621.927c-.276.269-.62.483-1.032.642-.413.16-.892.24-1.44.24v-.937zm2.14-8.388c.14 0 .275.029.403.086a1.107 1.107 0 01.564.564.978.978 0 01.085.403.971.971 0 01-.085.407 1.12 1.12 0 01-.23.331 1.058 1.058 0 01-.738.308c-.146 0-.281-.027-.406-.082a1.07 1.07 0 01-.558-.557 1.006 1.006 0 01-.082-.407 1.058 1.058 0 01.308-.738 1.12 1.12 0 01.332-.23.971.971 0 01.406-.085zM16.412 204.28h.506c.88 0 1.533.206 1.962.619.428.412.642 1.038.642 1.876v1.58c0 .223.026.422.076.598.05.175.137.323.263.444.125.12.293.213.502.277.21.064.472.096.786.096h.294v.95h-.294c-.332 0-.605.027-.817.082a1.116 1.116 0 00-.495.25.88.88 0 00-.246.427 2.438 2.438 0 00-.069.615v2.392c0 .383-.045.728-.136 1.036-.091.308-.24.57-.445.786a1.993 1.993 0 01-.806.5c-.333.115-.739.173-1.217.173h-.506v-.957h.41c1.053 0 1.58-.512 1.58-1.538v-2.365c0-1.112.48-1.736 1.442-1.873-.971-.105-1.456-.731-1.456-1.88v-1.565c0-1.044-.522-1.566-1.566-1.566h-.41v-.957zm7.84 11.3c.233.01.459-.011.678-.061a2.02 2.02 0 00.577-.223c.167-.098.3-.22.4-.365a.86.86 0 00.15-.5.95.95 0 00-.099-.464 2.238 2.238 0 00-.222-.328 2.438 2.438 0 01-.222-.322.91.91 0 01-.099-.458.915.915 0 01.222-.588.857.857 0 01.287-.211 1.12 1.12 0 01.875.017c.148.066.278.167.39.304.112.137.2.307.267.513.066.205.099.446.099.724 0 .378-.07.742-.209 1.09a2.657 2.657 0 01-.622.927c-.276.269-.62.483-1.032.642-.413.16-.892.24-1.44.24v-.937zm2.14-8.388c.142 0 .276.029.404.086a1.107 1.107 0 01.564.564.978.978 0 01.085.403.971.971 0 01-.085.407 1.12 1.12 0 01-.23.331 1.058 1.058 0 01-.737.308c-.146 0-.282-.027-.407-.082a1.07 1.07 0 01-.557-.557 1.006 1.006 0 01-.082-.407 1.058 1.058 0 01.308-.738 1.12 1.12 0 01.33-.23.971.971 0 01.408-.085zM1.02 221.28h.505c.88 0 1.534.206 1.962.619.429.412.643 1.038.643 1.876v1.58c0 .223.025.422.075.598.05.175.138.323.263.444.126.12.293.213.503.277.21.064.471.096.786.096h.294v.95h-.294c-.333 0-.605.027-.817.082a1.116 1.116 0 00-.496.25.88.88 0 00-.246.427 2.438 2.438 0 00-.068.615v2.392c0 .383-.046.728-.137 1.036-.091.308-.24.57-.444.786a1.993 1.993 0 01-.807.5c-.332.115-.738.173-1.217.173H1.02v-.957h.41c1.052 0 1.579-.512 1.579-1.538v-2.365c0-1.112.48-1.736 1.442-1.873-.97-.105-1.456-.731-1.456-1.88v-1.565c0-1.044-.522-1.566-1.565-1.566h-.41v-.957z"/></g><g id="Line-Copy-5-+-Line-Copy-4-+-Line-Copy-3" stroke="#C06334" stroke-linecap="square" stroke-width="3" transform="translate(223 69)"><path id="Line-Copy-5" d="M.5.62S46.885.62 46.885 72 .5 143.38.5 143.38"/></g><text id="wrapper" fill="#AF6E24" font-family="PTMono-Regular, PT Mono" font-size="14" font-weight="normal"><tspan x="265" y="75">wrapper</tspan></text><text id="around-the-function" fill="#AF6E24" font-family="PTMono-Regular, PT Mono" font-size="14" font-weight="normal"><tspan x="282" y="160">around the function</tspan></text><path id="Line" fill="#C06334" fill-rule="nonzero" d="M229.5 147.5v8h33v3h-33v8l-19-9.5 19-9.5z"/></g></g></svg>